<?xml version="1.0" standalone="no"?>
<!DOCTYPE svg PUBLIC "-//W3C//DTD SVG 20010904//EN"
 "http://www.w3.org/TR/2001/REC-SVG-20010904/DTD/svg10.dtd">
<svg version="1.0" xmlns="http://www.w3.org/2000/svg"
 width="155.000000pt" height="37.000000pt" viewBox="0 0 155.000000 37.000000"
 preserveAspectRatio="xMidYMid meet">

<g transform="translate(0.000000,37.000000) scale(0.100000,-0.100000)"
fill="#000000" stroke="none">
<path d="M27 353 c-11 -10 -8 -113 4 -135 8 -14 8 -23 0 -31 -16 -16 -13 -83
4 -97 8 -6 23 -9 33 -6 16 5 19 17 21 69 1 34 6 66 10 70 5 5 29 -23 55 -61
33 -51 53 -71 73 -75 51 -10 53 -4 53 127 0 129 -5 146 -47 146 -22 0 -23 -4
-23 -64 0 -36 -4 -67 -9 -71 -6 -3 -24 15 -41 40 -48 70 -75 95 -102 95 -14 0
-28 -3 -31 -7z"/>
<path d="M892 343 c2 -11 14 -19 31 -21 22 -3 27 1 27 17 0 17 -6 21 -31 21
-24 0 -30 -4 -27 -17z"/>
<path d="M1504 324 c-7 -3 -9 -14 -6 -26 4 -16 2 -19 -8 -13 -9 6 -11 4 -5 -4
5 -9 10 -10 18 -2 7 7 15 7 26 -1 13 -10 14 -10 4 2 -10 11 -10 17 0 29 11 14
10 15 -7 1 -18 -14 -19 -13 -13 3 3 9 5 17 4 16 -1 0 -7 -3 -13 -5z"/>
<path d="M380 277 c-14 -7 -26 -21 -28 -31 -4 -19 -6 -19 106 0 27 5 32 3 32
-13 0 -16 -11 -22 -57 -32 -78 -17 -88 -23 -91 -58 -5 -46 21 -67 72 -57 23 4
62 7 89 5 l47 -2 0 79 c0 69 -3 81 -23 100 -27 25 -105 30 -147 9z m108 -109
c18 -18 15 -24 -18 -38 -36 -15 -60 -7 -60 19 0 30 54 43 78 19z"/>
<path d="M642 274 c-17 -12 -22 -25 -22 -60 0 -79 46 -137 91 -114 22 12 49 7
49 -9 0 -5 -8 -18 -17 -30 -18 -21 -19 -21 -66 -5 -58 20 -83 8 -52 -26 15
-16 29 -19 88 -18 61 1 74 4 93 25 23 25 23 32 14 235 0 14 -40 18 -59 6 -16
-10 -23 -10 -33 0 -17 17 -59 15 -86 -4z m109 -60 c7 -20 6 -32 -6 -50 -26
-40 -65 -24 -65 26 0 52 53 70 71 24z"/>
<path d="M891 272 c-5 -10 -6 -36 -1 -62 4 -25 5 -52 0 -60 -10 -20 4 -56 25
-64 34 -13 44 11 43 100 -1 70 -5 87 -19 95 -26 13 -37 11 -48 -9z"/>
<path d="M1096 282 c-16 -2 -42 -17 -59 -33 -27 -27 -29 -34 -22 -76 11 -75
57 -96 160 -74 38 8 68 62 60 106 -11 59 -59 86 -139 77z m60 -67 c9 -35 1
-67 -18 -79 -46 -29 -82 66 -37 97 26 19 47 12 55 -18z"/>
<path d="M1312 278 c-26 -13 -39 -54 -25 -77 6 -9 25 -19 44 -22 46 -7 79 -26
79 -45 0 -13 -7 -15 -30 -10 -16 3 -43 9 -59 12 -32 7 -49 -9 -31 -31 17 -21
80 -27 129 -12 35 11 47 20 54 42 8 24 6 31 -13 47 -12 10 -34 21 -49 24 -87
18 -91 49 -5 38 45 -5 54 -4 54 9 0 9 -9 21 -19 27 -25 13 -99 12 -129 -2z"/>
<path d="M20 42 c-6 -2 -10 -10 -10 -18 0 -11 24 -14 129 -14 118 0 157 8 138
27 -6 6 -241 10 -257 5z"/>
</g>
</svg>
