<svg version="1.1" id="Layer_1" xmlns="http://www.w3.org/2000/svg" xmlns:xlink="http://www.w3.org/1999/xlink" x="0px" y="0px"
	 width="100%" viewBox="0 0 225 225" enable-background="new 0 0 225 225" xml:space="preserve">





<path fill="#FDFEFE" opacity="1.000000" stroke="none"
	d="
M170.073441,135.993698
	C168.821075,144.808197 163.799210,150.577164 156.019928,154.689789
	C142.796036,161.680771 129.762375,169.038269 116.766563,176.448303
	C114.221245,177.899582 112.429024,177.686142 110.018463,176.322540
	C96.707909,168.793106 83.368607,161.308243 69.900009,154.066910
	C62.784046,150.241074 58.318932,144.776001 57.115295,135.894653
	C57.073120,111.384773 57.081120,87.703926 57.089115,64.023071
	C84.231682,63.960175 111.374222,63.885437 138.516830,63.840500
	C148.675140,63.823681 158.833557,63.876244 169.458679,64.427277
	C169.974747,88.636154 170.024094,112.314926 170.073441,135.993698
M123.146179,145.864014
	C136.201157,144.736557 143.635086,137.047348 143.164429,125.158371
	C142.739944,114.435333 134.017609,107.142258 121.551697,107.100533
	C115.552551,107.080452 109.551720,107.163506 103.554718,107.044601
	C99.404770,106.962311 96.918190,104.650963 96.882896,100.520302
	C96.847580,96.387329 99.299026,94.042549 103.446342,93.894379
	C107.440170,93.751701 111.443741,93.888191 115.443031,93.890396
	C123.696716,93.894951 131.950394,93.891769 140.315216,93.891769
	C140.315216,89.372635 140.315216,85.441956 140.315216,81.276817
	C127.093872,81.276817 114.140816,81.178894 101.192047,81.370819
	C98.969879,81.403748 96.628128,82.395515 94.578331,83.418617
	C86.987068,87.207588 82.701897,95.962120 84.372719,103.814041
	C86.393990,113.312935 93.545204,119.436798 103.438774,119.775200
	C110.097153,120.002953 116.770691,119.750175 123.434097,119.881844
	C127.807182,119.968246 130.778030,122.757149 130.794083,126.417717
	C130.810104,130.065552 127.768242,132.922287 123.526711,133.070328
	C120.697777,133.169052 117.861725,133.052917 115.028847,133.051331
	C105.757645,133.046158 96.486443,133.049393 87.325333,133.049393
	C87.325333,137.600861 87.325333,141.636719 87.325333,145.869217
	C99.243126,145.869217 110.729729,145.869217 123.146179,145.864014
z"/>


<path fill="#0B5EB6" opacity="1.000000" stroke="none"
	d="
M122.681259,145.866608
	C110.729729,145.869217 99.243126,145.869217 87.325333,145.869217
	C87.325333,141.636719 87.325333,137.600861 87.325333,133.049393
	C96.486443,133.049393 105.757645,133.046158 115.028847,133.051331
	C117.861725,133.052917 120.697777,133.169052 123.526711,133.070328
	C127.768242,132.922287 130.810104,130.065552 130.794083,126.417717
	C130.778030,122.757149 127.807182,119.968246 123.434097,119.881844
	C116.770691,119.750175 110.097153,120.002953 103.438774,119.775200
	C93.545204,119.436798 86.393990,113.312935 84.372719,103.814041
	C82.701897,95.962120 86.987068,87.207588 94.578331,83.418617
	C96.628128,82.395515 98.969879,81.403748 101.192047,81.370819
	C114.140816,81.178894 127.093872,81.276817 140.315216,81.276817
	C140.315216,85.441956 140.315216,89.372635 140.315216,93.891769
	C131.950394,93.891769 123.696716,93.894951 115.443031,93.890396
	C111.443741,93.888191 107.440170,93.751701 103.446342,93.894379
	C99.299026,94.042549 96.847580,96.387329 96.882896,100.520302
	C96.918190,104.650963 99.404770,106.962311 103.554718,107.044601
	C109.551720,107.163506 115.552551,107.080452 121.551697,107.100533
	C134.017609,107.142258 142.739944,114.435333 143.164429,125.158371
	C143.635086,137.047348 136.201157,144.736557 122.681259,145.866608
z"/>
</svg>