<?xml version="1.0" encoding="UTF-8"?>
<svg version="1.1" xmlns="http://www.w3.org/2000/svg" width="368" height="360">
<path d="M0 0 C121.44 0 242.88 0 368 0 C368 118.8 368 237.6 368 360 C246.56 360 125.12 360 0 360 C0 241.2 0 122.4 0 0 Z " fill="#FEFEFE" transform="translate(0,0)"/>
<path d="M0 0 C1.17755859 -0.00386719 1.17755859 -0.00386719 2.37890625 -0.0078125 C4.4375 0.125 4.4375 0.125 6.4375 1.125 C6.4375 1.785 6.4375 2.445 6.4375 3.125 C7.14261719 3.39054687 7.84773438 3.65609375 8.57421875 3.9296875 C11.59317786 5.18998967 14.38935076 6.66457994 17.25 8.25 C18.22582031 8.78882813 19.20164062 9.32765625 20.20703125 9.8828125 C20.94308594 10.29273438 21.67914063 10.70265625 22.4375 11.125 C22.4375 11.785 22.4375 12.445 22.4375 13.125 C23.00082031 13.25132813 23.56414062 13.37765625 24.14453125 13.5078125 C26.57788686 14.16278726 28.80741585 15.01167486 31.125 16 C31.91261719 16.32742187 32.70023437 16.65484375 33.51171875 16.9921875 C35.4375 18.125 35.4375 18.125 36.4375 21.125 C37.16324219 21.23714844 37.88898438 21.34929687 38.63671875 21.46484375 C41.56313993 22.15461387 43.66037809 23.18010814 46.25 24.6875 C47.04019531 25.14253906 47.83039063 25.59757812 48.64453125 26.06640625 C49.23621094 26.41574219 49.82789063 26.76507813 50.4375 27.125 C50.4375 27.785 50.4375 28.445 50.4375 29.125 C51.08460938 29.18945312 51.73171875 29.25390625 52.3984375 29.3203125 C56.73802484 30.46935491 60.23670854 32.69538501 64.0625 35 C64.825625 35.44730469 65.58875 35.89460938 66.375 36.35546875 C74.86387103 41.4041131 74.86387103 41.4041131 76.4375 46.125 C76.54908254 48.79593539 76.6051531 51.44147161 76.61450195 54.11303711 C76.62107315 54.92634995 76.62764435 55.73966278 76.63441467 56.57762146 C76.65412737 59.26919649 76.6658037 61.96071587 76.67578125 64.65234375 C76.67985678 65.57133516 76.6839323 66.49032658 76.68813133 67.43716621 C76.70898011 72.29819641 76.72328885 77.15919845 76.73266602 82.02026367 C76.74374789 87.04543838 76.77817154 92.0701724 76.81783772 97.095191 C76.84394925 100.95647519 76.85235281 104.8176533 76.85594749 108.67901802 C76.86082503 110.53181508 76.87247208 112.38460705 76.89098549 114.23731804 C76.91526859 116.82776039 76.91443245 119.41704764 76.9074707 122.00756836 C76.92668579 123.15712006 76.92668579 123.15712006 76.94628906 124.32989502 C76.91216642 127.80884522 76.71720174 129.75373348 74.59562683 132.56983948 C72.4375 134.125 72.4375 134.125 69.4375 135.125 C68.7775 136.115 68.1175 137.105 67.4375 138.125 C63.71066799 140.31248835 61.82254876 141.125 57.4375 141.125 C57.4375 141.785 57.4375 142.445 57.4375 143.125 C54.53149739 144.38164978 52.64145416 145.125 49.4375 145.125 C49.4375 145.785 49.4375 146.445 49.4375 147.125 C48.4475 147.125 47.4575 147.125 46.4375 147.125 C46.4375 147.785 46.4375 148.445 46.4375 149.125 C43.53201118 151.16669485 42.03607954 152.125 38.4375 152.125 C38.4375 152.785 38.4375 153.445 38.4375 154.125 C36.74479167 154.80859375 35.05208333 155.4921875 33.359375 156.17578125 C31.16068376 157.26172022 29.39422721 158.64919449 27.4375 160.125 C25.76660741 161.09178874 24.07741806 162.02737076 22.375 162.9375 C21.41464844 163.453125 20.45429688 163.96875 19.46484375 164.5 C17.96630859 165.304375 17.96630859 165.304375 16.4375 166.125 C13.54057639 167.72330268 10.64440426 169.32292075 7.75 170.92578125 C5.4375 172.125 5.4375 172.125 2.4375 173.125 C2.4375 173.785 2.4375 174.445 2.4375 175.125 C-2.93946527 175.62518282 -2.93946527 175.62518282 -5.78125 173.34375 C-9.10700315 170.69062109 -12.51111966 169.09803181 -16.375 167.375 C-17.06787109 167.05917969 -17.76074219 166.74335938 -18.47460938 166.41796875 C-20.16770671 165.64731755 -21.86471412 164.88526638 -23.5625 164.125 C-23.5625 163.465 -23.5625 162.805 -23.5625 162.125 C-24.243125 161.87492188 -24.92375 161.62484375 -25.625 161.3671875 C-29.08611716 159.90357679 -32.31028744 158.11932731 -35.5625 156.25 C-36.46742187 155.74146484 -36.46742187 155.74146484 -37.390625 155.22265625 C-40.14284483 153.64910448 -42.66212132 152.04307558 -45.11328125 150.02734375 C-48.70822441 147.23509922 -52.68854475 145.96169094 -56.91796875 144.37109375 C-59.5625 143.125 -59.5625 143.125 -61.5625 140.125 C-64.53388391 138.82122951 -67.55527656 137.77126373 -70.6171875 136.69921875 C-74.38623061 134.68473019 -75.53399986 132.88119843 -77.5625 129.125 C-77.96748611 126.17420274 -78.16034517 123.59179096 -78.15942383 120.64453125 C-78.18198494 119.39946304 -78.18198494 119.39946304 -78.20500183 118.12924194 C-78.24792933 115.39844108 -78.26075986 112.66861082 -78.26953125 109.9375 C-78.28493281 108.03230432 -78.30078328 106.12711221 -78.31706238 104.22192383 C-78.34548418 100.23413058 -78.35693038 96.24667827 -78.35864258 92.25878906 C-78.36383203 87.15338399 -78.42888997 82.05064393 -78.50893116 76.94593811 C-78.5609498 73.0132765 -78.57220398 69.08125897 -78.57214928 65.14828491 C-78.5787073 63.26635914 -78.59996751 61.38442398 -78.63633156 59.50283813 C-78.89652222 44.78486802 -78.89652222 44.78486802 -75.58401489 40.66325378 C-73.27322576 39.09700236 -71.17943291 38.06935285 -68.5625 37.125 C-67.68078125 36.60550781 -66.7990625 36.08601563 -65.890625 35.55078125 C-65.20484375 35.18339844 -64.5190625 34.81601563 -63.8125 34.4375 C-63.07 34.03273437 -62.3275 33.62796875 -61.5625 33.2109375 C-60.5725 32.67339844 -60.5725 32.67339844 -59.5625 32.125 C-56.85766796 30.58816361 -54.49315657 29.06952526 -52.0625 27.125 C-48.05825125 23.921601 -45.79012086 22.125 -40.5625 22.125 C-40.5625 21.465 -40.5625 20.805 -40.5625 20.125 C-39.54929687 19.76148438 -39.54929687 19.76148438 -38.515625 19.390625 C-33.03379545 17.46095883 -33.03379545 17.46095883 -28.5 14 C-25.44973937 11.04813487 -21.65538634 10.78965676 -17.5625 10.125 C-17.5625 9.465 -17.5625 8.805 -17.5625 8.125 C-17.00820312 7.87105469 -16.45390625 7.61710937 -15.8828125 7.35546875 C-15.15835938 7.01128906 -14.43390625 6.66710938 -13.6875 6.3125 C-12.96820313 5.97605469 -12.24890625 5.63960937 -11.5078125 5.29296875 C-9.25707194 4.13032903 -9.25707194 4.13032903 -7.5625 1.125 C-4.73533905 0.18261302 -2.93073877 -0.00965647 0 0 Z " fill="#449548" transform="translate(143.5625,47.875)"/>
<path d="M0 0 C3.6747004 0.20800191 6.21007187 0.40957731 9.19812012 2.64295959 C11.57447317 5.75146878 11.50696117 7.63421659 11.51757812 11.52514648 C11.5245874 12.17118835 11.53159668 12.81723022 11.53881836 13.48284912 C11.55638457 15.61270482 11.54478101 17.74122517 11.53125 19.87109375 C11.53394569 21.3555578 11.53782875 22.84002013 11.54284668 24.32447815 C11.54874007 27.43401926 11.54018578 30.54310033 11.52148438 33.65258789 C11.498714 37.63191398 11.51180555 41.61015976 11.53577423 45.58944607 C11.55025396 48.65477075 11.54561609 51.71984091 11.53526306 54.78517342 C11.53260071 56.2519449 11.53584826 57.71873973 11.54518127 59.18548393 C11.55538149 61.23942787 11.53980087 63.29164327 11.51757812 65.34545898 C11.51439575 66.51253891 11.51121338 67.67961884 11.50793457 68.88206482 C10.89328986 72.65503572 9.6972291 74.33287356 7 77 C4.16015625 77.59375 4.16015625 77.59375 1.0625 77.5 C-0.46697266 77.48453125 -0.46697266 77.48453125 -2.02734375 77.46875 C-7.40840198 76.62022571 -10.3014926 74.05166962 -13.4375 69.75 C-15.67301505 66.74480103 -17.94898681 63.86207734 -20.4375 61.0625 C-23 58 -23 58 -23 56 C-23.66 56 -24.32 56 -25 56 C-26.82701912 53.84758041 -28.54879311 51.68604926 -30.25 49.4375 C-31.24370251 48.14759771 -32.23848389 46.85852579 -33.234375 45.5703125 C-33.95077148 44.6407373 -33.95077148 44.6407373 -34.68164062 43.69238281 C-37.45375272 40.13381225 -40.31326007 36.60760892 -43.58203125 33.4921875 C-45.42956561 31.54795024 -46.11902505 29.50739024 -47 27 C-47.66 27 -48.32 27 -49 27 C-49.00586624 27.58215775 -49.01173248 28.16431549 -49.01777649 28.76411438 C-49.08163534 34.81498961 -49.16603504 40.86532924 -49.26245117 46.91577148 C-49.29573686 49.17481431 -49.32375733 51.43394103 -49.34643555 53.69311523 C-49.37991426 56.93770148 -49.43222718 60.18151633 -49.48828125 63.42578125 C-49.49786613 64.94465691 -49.49786613 64.94465691 -49.50764465 66.49421692 C-49.52743881 67.43496567 -49.54723297 68.37571442 -49.56762695 69.3449707 C-49.57873001 70.17325882 -49.58983307 71.00154694 -49.60127258 71.85493469 C-50.09164712 74.49304126 -50.88874543 75.38820296 -53 77 C-56.37306809 77.62505936 -59.61348607 77.51630458 -63 77 C-65.57637471 75.11484777 -66.59667428 73.80665143 -68 71 C-68.11704616 68.99481568 -68.16975585 66.98575942 -68.19287109 64.97729492 C-68.20893402 63.71225632 -68.22499695 62.44721771 -68.24154663 61.1438446 C-68.25303357 59.75605948 -68.2636422 58.36826685 -68.2734375 56.98046875 C-68.27876118 56.28245966 -68.28408485 55.58445057 -68.28956985 54.86528969 C-68.31629565 51.17021406 -68.33567168 47.47517214 -68.35009766 43.7800293 C-68.36343575 40.72340966 -68.39128467 37.66745785 -68.43212891 34.61108398 C-68.48146385 30.91934518 -68.50621946 27.22821199 -68.51332474 23.53615761 C-68.52003463 22.13072411 -68.5352503 20.72530399 -68.55921555 19.32005882 C-68.5908851 17.35057342 -68.58790083 15.38062376 -68.58349609 13.41088867 C-68.59158295 12.29107101 -68.5996698 11.17125336 -68.60800171 10.01750183 C-67.80291093 6.02185041 -66.11503726 4.54019923 -63 2 C-58.01768953 0.33922984 -54.25041818 0.60403424 -49.25 2.1875 C-42.74957244 5.68674784 -35.3128939 14.06131831 -33 21 C-30.54187265 23.59468999 -27.96287331 26.03535875 -25.375 28.5 C-22.28525023 31.75236818 -20.41533277 34.7540017 -19 39 C-16.99983534 40.20882096 -16.99983534 40.20882096 -15 41 C-15 41.66 -15 42.32 -15 43 C-14.34 43 -13.68 43 -13 43 C-12.05598958 44.79036458 -11.11197917 46.58072917 -10.16796875 48.37109375 C-9.00980201 50.32267987 -9.00980201 50.32267987 -6 51 C-6.01665459 50.17100945 -6.01665459 50.17100945 -6.03364563 49.32527161 C-6.14437269 43.56654035 -6.21972184 37.80811204 -6.2746582 32.04858398 C-6.29978285 29.90002151 -6.33388861 27.75154435 -6.37719727 25.60327148 C-6.43793792 22.51264388 -6.46623044 19.42314737 -6.48828125 16.33203125 C-6.51408768 15.37351761 -6.5398941 14.41500397 -6.56648254 13.42744446 C-6.5684598 8.71247922 -6.56600456 6.70709977 -3.53198242 2.91674805 C-2.69642822 2.28422119 -1.86087402 1.65169434 -1 1 C-0.67 0.67 -0.34 0.34 0 0 Z " fill="#F5F9F5" transform="translate(171,96)"/>
<path d="M0 0 C2.1550293 -0.3034668 2.1550293 -0.3034668 5 0 C7.05916943 1.56187616 8.72961139 3.02759285 10.51953125 4.85546875 C11.02296555 5.35411942 11.52639984 5.85277008 12.04508972 6.36653137 C13.10416899 7.42221421 14.15698419 8.48421378 15.20385742 9.55200195 C16.80728067 11.18219354 18.43561541 12.78400248 20.06835938 14.38476562 C21.09535696 15.41506735 22.12080238 16.44691909 23.14453125 17.48046875 C23.6319429 17.95775925 24.11935455 18.43504974 24.62153625 18.92680359 C26.77646358 21.1581667 27.93505465 22.59017889 28.42651367 25.69140625 C27.79864743 29.08986258 25.99560789 30.49019821 23.5 32.8125 C22.6646875 33.60269531 21.829375 34.39289063 20.96875 35.20703125 C20.3190625 35.79871094 19.669375 36.39039063 19 37 C18.45472656 36.6390625 17.90945313 36.278125 17.34765625 35.90625 C11.78490213 32.48301669 7.52550604 30.89709757 1 32 C-1.79814628 32.82078958 -4.31728157 33.82935923 -7 35 C-9.03660426 33.09797311 -11.05331336 31.18061509 -13.0625 29.25 C-13.64322266 28.71117187 -14.22394531 28.17234375 -14.82226562 27.6171875 C-16.47265625 26.015625 -16.47265625 26.015625 -19 23 C-18.10454064 14.5425442 -7.18192682 7.12968396 -1 2 C-0.67 1.34 -0.34 0.68 0 0 Z " fill="#5160A6" transform="translate(265,218)"/>
<path d="M0 0 C2.85770288 1.95299397 5.20128921 4.36068837 7.62109375 6.82421875 C8.32524918 7.52263382 9.0294046 8.22104889 9.75489807 8.94062805 C11.2371343 10.41878629 12.7118401 11.90452905 14.17944336 13.3972168 C16.43309546 15.6830326 18.71700189 17.93504601 21.00585938 20.18554688 C22.44203236 21.62568385 23.87634347 23.06768049 25.30859375 24.51171875 C25.99489365 25.18587326 26.68119354 25.86002777 27.38829041 26.55461121 C31.99091077 31.29732316 31.99091077 31.29732316 32.03637695 34.81225586 C30.67490116 37.68626872 28.98698997 39.61578828 26.75 41.875 C25.98171875 42.67679688 25.2134375 43.47859375 24.421875 44.3046875 C22 46 22 46 19.56869507 45.79168701 C16.77914457 44.93193105 15.5419497 44.05734401 13.47900391 42.02832031 C12.83548981 41.40387024 12.19197571 40.77942017 11.52896118 40.13604736 C10.85166962 39.45693298 10.17437805 38.7778186 9.4765625 38.078125 C8.41820694 37.03262482 8.41820694 37.03262482 7.33847046 35.96600342 C5.85255654 34.49156128 4.37183721 33.01186818 2.89599609 31.52734375 C0.62955423 29.25456695 -1.66225974 27.00975124 -3.95703125 24.765625 C-5.39745292 23.32974788 -6.83631037 21.89229952 -8.2734375 20.453125 C-9.30759293 19.44659882 -9.30759293 19.44659882 -10.36264038 18.41973877 C-14.99441126 13.69558788 -14.99441126 13.69558788 -15.02270508 10.17407227 C-13.78037118 7.5331118 -12.36579946 5.76426574 -10.3125 3.6875 C-9.64863281 2.99011719 -8.98476563 2.29273438 -8.30078125 1.57421875 C-5.15035711 -0.58133461 -3.78522711 -0.59620793 0 0 Z " fill="#EAAC45" transform="translate(284,196)"/>
<path d="M0 0 C3.55613068 0.72739037 5.13383123 2.30521597 7.7109375 4.76171875 C9.18463216 7.31575349 8.3745176 8.7081343 7.75 11.5625 C7.97287462 13.47111719 8.19618186 15.37968975 8.42504883 17.28759766 C9.01202228 23.59881647 8.65563139 27.97219872 4.58984375 33.046875 C-4.91229187 43.3023587 -4.91229187 43.3023587 -9.8125 43.84765625 C-13.47543673 41.91639634 -16.165613 39.30418229 -19.0625 36.375 C-19.9587207 35.52711914 -19.9587207 35.52711914 -20.87304688 34.66210938 C-23.64504217 31.89645007 -25.1011539 30.29148721 -25.8984375 26.38671875 C-25.0802273 22.82306832 -23.91771434 21.79823064 -21.0625 19.5625 C-18.32396436 17.31527731 -15.80196084 15.23749676 -13.625 12.4375 C-11.22845862 9.53642359 -8.7190144 7.30585305 -5.80078125 4.95703125 C-0.39936954 0.09984239 -0.39936954 0.09984239 0 0 Z " fill="#5463A7" transform="translate(244.25,249.4375)"/>
<path d="M0 0 C3.45658479 2.04573386 4.7785359 3.66780385 7 7 C7.73981114 11.99802641 7.51803233 15.96393533 5.25 20.5 C2.54455804 23.50604662 0.59964546 24.75290029 -3.40234375 25.37109375 C-10.2847074 25.55137138 -10.2847074 25.55137138 -14 22.6875 C-18.07717332 17.20879835 -18.89576073 13.75597848 -18 7 C-13.5497348 -0.3659562 -8.02430824 -0.97513556 0 0 Z " fill="#E9AE4C" transform="translate(275,256)"/>
<path d="M0 0 C3.36392694 1.51376712 5.24658696 3.20881842 7.5 6.125 C7.75 8.5 7.75 8.5 6.5 11.125 C5.31782847 12.31816848 4.10635534 13.48265829 2.875 14.625 C0.96526273 16.33288185 0.96526273 16.33288185 -0.5 18.125 C-0.63210475 20.99420862 -0.63210475 20.99420862 0.5 23.125 C-2.81132919 23.812257 -4.29837634 24.03121385 -7.5 23.125 C-9.69585235 21.45005103 -11.56168287 19.86826157 -13.5 17.9375 C-13.99282471 17.45563232 -14.48564941 16.97376465 -14.9934082 16.47729492 C-17.27231401 14.07274526 -18.44839003 12.59787637 -18.8125 9.26171875 C-18.709375 8.55660156 -18.60625 7.85148437 -18.5 7.125 C-14.87471432 6.92359524 -12.63498292 7.26723235 -9.5 9.125 C-9.273125 8.568125 -9.04625 8.01125 -8.8125 7.4375 C-6.70386605 3.7222878 -4.52348071 0.22617404 0 0 Z " fill="#E9AD4B" transform="translate(217.5,285.875)"/>
<path d="M0 0 C0.99 0.66 1.98 1.32 3 2 C3.36328125 3.875 3.36328125 3.875 3.3125 6 C3.30863281 6.70125 3.30476563 7.4025 3.30078125 8.125 C3 10 3 10 1 12 C-2.4375 12.375 -2.4375 12.375 -6 12 C-8 10.3125 -8 10.3125 -9 8 C-8.86080792 5.14656236 -8.36922147 3.53537114 -6.75 1.1875 C-4.35314675 -0.43893614 -2.84209638 -0.35526205 0 0 Z " fill="#FBF8F1" transform="translate(272,262)"/>
<path d="M0 0 C3 1 3 1 4.6875 4.0625 C5.120625 5.031875 5.55375 6.00125 6 7 C5.34 7 4.68 7 4 7 C3.67 6.34 3.34 5.68 3 5 C2.67 18.2 2.34 31.4 2 45 C1.34 45 0.68 45 0 45 C0 30.15 0 15.3 0 0 Z " fill="#71AE7B" transform="translate(121,122)"/>
<path d="M0 0 C1.65 0 3.3 0 5 0 C4.38125 0.0825 3.7625 0.165 3.125 0.25 C2.42375 0.4975 1.7225 0.745 1 1 C0.7525 1.5465625 0.505 2.093125 0.25 2.65625 C-1.59586314 6.11724338 -4.32687089 8.53626922 -7.125 11.25 C-7.68832031 11.80429688 -8.25164062 12.35859375 -8.83203125 12.9296875 C-10.21686028 14.29104485 -11.60783204 15.64614859 -13 17 C-13.66 16.67 -14.32 16.34 -15 16 C-11.08911827 11.31645166 -7.14784257 7.05140727 -2.3828125 3.2265625 C-0.85896891 2.02824461 -0.85896891 2.02824461 0 0 Z " fill="#6370AD" transform="translate(265,218)"/>
<path d="M0 0 C0.99 0.33 1.98 0.66 3 1 C-1 5 -5 9 -9 13 C-8.51286902 8.58489226 -7.14946803 6.69553355 -3.9375 3.6875 C-3.20402344 2.99011719 -2.47054688 2.29273438 -1.71484375 1.57421875 C-1.14894531 1.05472656 -0.58304687 0.53523437 0 0 Z " fill="#E7B766" transform="translate(278,196)"/>
<path d="M0 0 C0.66 0.33 1.32 0.66 2 1 C1.51789063 1.47050781 1.03578125 1.94101562 0.5390625 2.42578125 C-0.40839844 3.35970703 -0.40839844 3.35970703 -1.375 4.3125 C-2.00148438 4.92738281 -2.62796875 5.54226563 -3.2734375 6.17578125 C-5.18086607 8.08812528 -5.18086607 8.08812528 -7 11 C-6.58485103 6.1565954 -4.53791301 4.18412171 -1 1 C-0.67 0.67 -0.34 0.34 0 0 Z " fill="#E7BA6E" transform="translate(264,256)"/>
<path d="M0 0 C4.95 0.99 4.95 0.99 10 2 C10 2.66 10 3.32 10 4 C7.25 4.25 7.25 4.25 4 4 C1.625 2 1.625 2 0 0 Z " fill="#84B98B" transform="translate(136,219)"/>
</svg>
