<svg xmlns="http://www.w3.org/2000/svg" xmlns:xlink="http://www.w3.org/1999/xlink" version="1.1" width="1000" height="1000" viewBox="0 0 1000 1000" xml:space="preserve">
<desc>Created with Fabric.js 3.5.0</desc>
<defs>
</defs>
<rect x="0" y="0" width="100%" height="100%" fill="#ffffff"/>
<g transform="matrix(1.7756 0 0 1.7756 500.0081 500.0081)" id="975435">
<g style="" vector-effect="non-scaling-stroke">
		<g transform="matrix(1 0 0 1 180.685 15.355)" id="Layer_1">
<polygon style="stroke: none; stroke-width: 1; stroke-dasharray: none; stroke-linecap: butt; stroke-dashoffset: 0; stroke-linejoin: miter; stroke-miterlimit: 4; is-custom-font: none; font-file-url: none; fill: rgb(0,0,0); fill-rule: nonzero; opacity: 1;" points="50.355,47.325 -23.635,-47.325 -50.355,-47.325 -13.375,-0.025 -50.355,47.325 -23.635,47.325 -0.015,17.075 23.635,47.325 "/>
</g>
		<g transform="matrix(1 0 0 1 107.03 15.365)" id="Layer_1">
<rect style="stroke: none; stroke-width: 1; stroke-dasharray: none; stroke-linecap: butt; stroke-dashoffset: 0; stroke-linejoin: miter; stroke-miterlimit: 4; is-custom-font: none; font-file-url: none; fill: rgb(0,0,0); fill-rule: nonzero; opacity: 1;" x="-11.52" y="-47.335" rx="0" ry="0" width="23.04" height="94.67"/>
</g>
		<g transform="matrix(1 0 0 1 67.87 -0.715)" id="Layer_1">
<rect style="stroke: none; stroke-width: 1; stroke-dasharray: none; stroke-linecap: butt; stroke-dashoffset: 0; stroke-linejoin: miter; stroke-miterlimit: 4; is-custom-font: none; font-file-url: none; fill: rgb(0,0,0); fill-rule: nonzero; opacity: 1;" x="-11.52" y="-63.415" rx="0" ry="0" width="23.04" height="126.83"/>
</g>
		<g transform="matrix(1 0 0 1 27.75 -0.715)" id="Layer_1">
<rect style="stroke: none; stroke-width: 1; stroke-dasharray: none; stroke-linecap: butt; stroke-dashoffset: 0; stroke-linejoin: miter; stroke-miterlimit: 4; is-custom-font: none; font-file-url: none; fill: rgb(0,0,0); fill-rule: nonzero; opacity: 1;" x="-11.52" y="-63.415" rx="0" ry="0" width="23.04" height="126.83"/>
</g>
		<g transform="matrix(1 0 0 1 -43.2302 15.2745)" id="Layer_1">
<path style="stroke: none; stroke-width: 1; stroke-dasharray: none; stroke-linecap: butt; stroke-dashoffset: 0; stroke-linejoin: miter; stroke-miterlimit: 4; is-custom-font: none; font-file-url: none; fill: rgb(0,0,0); fill-rule: nonzero; opacity: 1;" transform=" translate(-212.7698, -271.2745)" d="M 212.79 320.13 c -8.93 0 -17.15 -2.2 -24.65 -6.61 c -14.97 -8.76 -24.15 -24.81 -24.11 -42.16 c 0 -8.93 2.2 -17.15 6.61 -24.65 c 4.29 -7.39 10.45 -13.52 17.86 -17.77 c 7.37 -4.31 15.76 -6.56 24.29 -6.52 c 7.55 -0.05 14.99 1.73 21.7 5.18 c 6.67 3.41 12.48 8.3 16.97 14.29 c 4.52 5.94 7.61 12.85 9.02 20.18 c 1.31 6.31 1.37 12.27 0.18 17.86 h -73.59 c 0.83 4.17 2.47 7.74 4.91 10.72 c 2.42 2.97 5.56 5.27 9.11 6.7 c 3.72 1.51 7.69 2.26 11.7 2.23 c 4.56 -0.01 9.08 -0.89 13.31 -2.59 c 4.14 -1.59 7.89 -4.06 10.99 -7.23 l 20.36 5.54 c -3.81 7.5 -9.95 13.52 -18.4 18.04 C 230.59 317.87 221.83 320.13 212.79 320.13 z M 237.97 262.25 c -0.87 -3.52 -2.48 -6.81 -4.73 -9.65 c -2.34 -2.99 -5.33 -5.4 -8.75 -7.06 c -3.51 -1.72 -7.47 -2.59 -11.88 -2.59 c -4.41 0 -8.39 0.86 -11.97 2.59 c -3.45 1.63 -6.48 4.05 -8.84 7.06 c -2.25 2.84 -3.87 6.13 -4.73 9.65 H 237.97 z" stroke-linecap="round"/>
</g>
		<g transform="matrix(1 0 0 1 -125.605 14.8713)" id="Layer_1">
<path style="stroke: none; stroke-width: 1; stroke-dasharray: none; stroke-linecap: butt; stroke-dashoffset: 0; stroke-linejoin: miter; stroke-miterlimit: 4; is-custom-font: none; font-file-url: none; fill: rgb(0,0,0); fill-rule: nonzero; opacity: 1;" transform=" translate(-130.395, -270.8712)" d="M 101.1 224.03 h 23.22 v 14.11 c 2.98 -5.36 7.44 -9.44 13.4 -12.24 c 5.96 -2.8 13.28 -3.54 21.97 -2.23 v 24.83 c -5.84 -2.02 -11.49 -2.41 -16.97 -1.16 c -5.48 1.25 -9.91 3.93 -13.31 8.04 c -3.39 4.11 -5.09 9.14 -5.09 15.09 v 48.23 H 101.1 V 224.03 z" stroke-linecap="round"/>
</g>
		<g transform="matrix(1 0 0 1 -205.45 -0.715)" id="Layer_1">
<polygon style="stroke: none; stroke-width: 1; stroke-dasharray: none; stroke-linecap: butt; stroke-dashoffset: 0; stroke-linejoin: miter; stroke-miterlimit: 4; is-custom-font: none; font-file-url: none; fill: rgb(0,0,0); fill-rule: nonzero; opacity: 1;" points="-11.25,-41.085 -50.55,-41.085 -50.55,-63.415 50.55,-63.415 50.55,-41.085 12.68,-41.085 12.68,63.415 -11.25,63.415 "/>
</g>
		<g transform="matrix(1 0 0 1 218.135 -32.895)" id="Layer_1">
<linearGradient id="SVGID_8" gradientUnits="userSpaceOnUse" gradientTransform="matrix(260 0 0 260 -1010.2751 -1622.6898)" x1="3.7404" y1="6.2411" x2="4.0309" y2="6.2411">
<stop offset="0%" style="stop-color:rgb(54,0,255);stop-opacity: 1"/>
<stop offset="7.3999999999999995%" style="stop-color:rgb(54,0,255);stop-opacity: 1"/>
<stop offset="12.2%" style="stop-color:rgb(46,24,255);stop-opacity: 1"/>
<stop offset="25.3%" style="stop-color:rgb(26,84,255);stop-opacity: 1"/>
<stop offset="36.4%" style="stop-color:rgb(12,128,255);stop-opacity: 1"/>
<stop offset="45.1%" style="stop-color:rgb(3,155,255);stop-opacity: 1"/>
<stop offset="50.1%" style="stop-color:rgb(0,165,255);stop-opacity: 1"/>
<stop offset="100%" style="stop-color:rgb(0,211,0);stop-opacity: 1"/>
</linearGradient>
<polygon style="stroke: none; stroke-width: 1; stroke-dasharray: none; stroke-linecap: butt; stroke-dashoffset: 0; stroke-linejoin: miter; stroke-miterlimit: 4; is-custom-font: none; font-file-url: none; fill: url(#SVGID_8); fill-rule: nonzero; opacity: 1;" points="-11.035,31.235 -37.765,31.235 11.045,-31.235 37.765,-31.235 "/>
</g>
</g>
</g>
</svg>