<?xml version="1.0" encoding="UTF-8"?><svg id="Layer_2" xmlns="http://www.w3.org/2000/svg" xmlns:xlink="http://www.w3.org/1999/xlink" viewBox="0 0 175.91 130"><defs><style>.cls-1{fill:url(#radial-gradient-2);}.cls-1,.cls-2,.cls-3,.cls-4{stroke-width:0px;}.cls-2{fill:url(#radial-gradient);}.cls-3{fill:url(#radial-gradient-3);}.cls-4{fill:url(#radial-gradient-4);}</style><radialGradient id="radial-gradient" cx="1.95" cy="101.26" fx="1.95" fy="101.26" r="84.29" gradientUnits="userSpaceOnUse"><stop offset="0" stop-color="#07e3ee"/><stop offset="1" stop-color="#de41ce"/></radialGradient><radialGradient id="radial-gradient-2" cx="120.78" cy="82.36" fx="120.78" fy="82.36" r="79.43" xlink:href="#radial-gradient"/><radialGradient id="radial-gradient-3" cx="78.88" cy=".27" fx="78.88" fy=".27" r="118.32" xlink:href="#radial-gradient"/><radialGradient id="radial-gradient-4" cx="98.01" cy="-25.43" fx="98.01" fy="-25.43" r="118.32" gradientTransform="translate(-30.27 51.71)" xlink:href="#radial-gradient"/></defs><g id="Layer_1-2"><polygon class="cls-2" points="0 104 36.45 104 62.16 58.39 43.77 26.36 0 104"/><polygon class="cls-1" points="175.91 26 139.46 26 113.75 71.61 132.13 103.64 175.91 26"/><polygon class="cls-3" points="132.25 103.94 113.81 71.81 72.59 0 54.76 0 114.46 104 132.28 104 132.25 103.94"/><polygon class="cls-4" points="121.12 129.94 102.67 97.81 61.45 26 43.62 26 103.32 130 121.15 130 121.12 129.94"/></g></svg>