<svg width="128" height="144" viewBox="0 0 128 144" fill="none" xmlns="http://www.w3.org/2000/svg">
<path fill-rule="evenodd" clip-rule="evenodd" d="M15 36.0001L38.7505 60.0764C51.8026 73.3079 73.1974 73.3079 86.2495 60.0764L99.4527 46.6916L96.8162 44.0187L94.1796 41.346L88.9059 36.0001L81.0393 28.0252L75.7027 22.6156C68.4719 15.2854 56.5281 15.2854 49.2973 22.6156L46.6409 25.3085L51.9144 30.654L54.5708 27.9616C58.8902 23.5826 66.1098 23.5826 70.4292 27.9616L70.9472 28.4866L75.7656 33.3712L78.3591 36.0001L83.6324 41.346L88.9059 46.6916L80.9764 54.7305C70.8344 65.0111 54.1652 65.0111 44.0236 54.7305L30.8204 41.346L25.5468 36.0001L20.2736 30.654L15 36.0001ZM36.0941 25.3085L41.3676 30.654L46.6409 36.0001L47.9691 37.346L53.2423 42.692L54.5708 44.0384C58.8902 48.4175 66.1098 48.4175 70.4292 44.0384L73.0856 41.346L78.3591 46.6916L75.7027 49.3845C68.4719 56.7146 56.5281 56.7146 49.2973 49.3845L42.6954 42.692L36.0941 36.0001L30.8204 30.654L26.9185 26.6989L25.5468 25.3085L38.7505 11.9235C51.8026 -1.30784 73.1974 -1.30784 86.2495 11.9235L110 36.0001L104.726 41.346L99.4527 36.0001L94.5659 31.0461L80.9764 17.2695C70.8344 6.9888 54.1652 6.9888 44.0236 17.2695L36.0941 25.3085ZM57.1881 36.0001L59.8441 38.6929C61.2531 40.1208 63.7469 40.1208 65.1559 38.6929L67.8119 36.0001L65.1559 33.3072C63.7469 31.8791 61.2531 31.8791 59.8441 33.3072L57.1881 36.0001Z" fill="#00C292"/>
<path d="M14.4955 109.51C11.6755 109.51 9.49554 108.83 7.95554 107.47C6.43554 106.09 5.63554 104.18 5.55554 101.74H9.69554C9.75554 103.24 10.2055 104.38 11.0455 105.16C11.8855 105.92 13.0555 106.3 14.5555 106.3C15.9555 106.3 17.0555 105.98 17.8555 105.34C18.6755 104.7 19.0855 103.82 19.0855 102.7C19.0855 100.8 17.8455 99.8499 15.3655 99.8499H12.6955C10.4555 99.8499 8.75554 99.3299 7.59554 98.2899C6.43554 97.2499 5.85554 95.8599 5.85554 94.1199C5.85554 92.7799 6.18554 91.6199 6.84554 90.6399C7.52554 89.6399 8.50554 88.8699 9.78554 88.3299C11.0655 87.7699 12.5955 87.4899 14.3755 87.4899C17.1355 87.4899 19.2355 88.1499 20.6755 89.4699C22.1155 90.7699 22.8655 92.5599 22.9255 94.8399H18.8755C18.7555 92.0799 17.2455 90.6999 14.3455 90.6999C12.9655 90.6999 11.8855 90.9899 11.1055 91.5699C10.3255 92.1299 9.93554 92.9099 9.93554 93.9099C9.93554 94.7099 10.2055 95.3499 10.7455 95.8299C11.3055 96.2899 12.1955 96.5199 13.4155 96.5199H16.0855C18.5655 96.5199 20.3755 97.0799 21.5155 98.1999C22.6555 99.2999 23.2255 100.73 23.2255 102.49C23.2255 103.91 22.8755 105.15 22.1755 106.21C21.4955 107.25 20.4955 108.06 19.1755 108.64C17.8555 109.22 16.2955 109.51 14.4955 109.51Z" fill="black"/>
<path d="M31.9316 109.51C30.1916 109.51 28.8116 108.94 27.7916 107.8C26.7916 106.64 26.2916 104.99 26.2916 102.85V92.4999H30.0716V102.4C30.0716 103.8 30.3416 104.83 30.8816 105.49C31.4416 106.15 32.2116 106.48 33.1916 106.48C34.2516 106.48 35.1316 106.11 35.8316 105.37C36.5516 104.63 36.9116 103.49 36.9116 101.95V92.4999H40.6916V109H36.9716V106.48H36.9116C36.4316 107.48 35.7616 108.24 34.9016 108.76C34.0416 109.26 33.0516 109.51 31.9316 109.51Z" fill="black"/>
<path d="M53.9713 109.51C52.7313 109.51 51.6213 109.21 50.6413 108.61C49.6813 108.01 48.9513 107.18 48.4513 106.12H48.3913C48.4113 106.54 48.4213 107.13 48.4213 107.89V109H44.6713V85.5699H48.4513V93.6999C48.4513 94.4399 48.4313 94.9999 48.3913 95.3799H48.4513C48.9513 94.3199 49.6813 93.4899 50.6413 92.8899C51.6213 92.2899 52.7313 91.9899 53.9713 91.9899C55.2913 91.9899 56.5113 92.3299 57.6313 93.0099C58.7513 93.6899 59.6413 94.6899 60.3013 96.0099C60.9813 97.3299 61.3213 98.9099 61.3213 100.75C61.3213 102.59 60.9813 104.17 60.3013 105.49C59.6413 106.81 58.7513 107.81 57.6313 108.49C56.5113 109.17 55.2913 109.51 53.9713 109.51ZM48.4213 100.75C48.4213 102.51 48.8113 103.91 49.5913 104.95C50.3913 105.99 51.4713 106.51 52.8313 106.51C54.2113 106.51 55.2913 105.99 56.0713 104.95C56.8713 103.91 57.2713 102.51 57.2713 100.75C57.2713 98.9899 56.8713 97.5899 56.0713 96.5499C55.2913 95.5099 54.2113 94.9899 52.8313 94.9899C51.4713 94.9899 50.3913 95.5099 49.5913 96.5499C48.8113 97.5899 48.4213 98.9899 48.4213 100.75Z" fill="black"/>
<path d="M64.2194 85.5699H67.9994V109H64.2194V85.5699Z" fill="black"/>
<path d="M71.9901 92.4999H75.7701V109H71.9901V92.4999ZM71.9301 86.2299H75.8001V89.8899H71.9301V86.2299Z" fill="black"/>
<path d="M79.7901 92.4999H83.5101V94.9299H83.5701C84.0501 94.0499 84.6901 93.3399 85.4901 92.7999C86.2901 92.2599 87.2301 91.9899 88.3101 91.9899C89.4701 91.9899 90.4701 92.2799 91.3101 92.8599C92.1501 93.4399 92.7701 94.2699 93.1701 95.3499H93.2301C93.7101 94.2899 94.3801 93.4699 95.2401 92.8899C96.1201 92.2899 97.1601 91.9899 98.3601 91.9899C100 91.9899 101.31 92.5499 102.29 93.6699C103.27 94.7899 103.76 96.3399 103.76 98.3199V109H99.9801V98.7099C99.9801 97.4699 99.7201 96.5499 99.2001 95.9499C98.7001 95.3299 98.0001 95.0199 97.1001 95.0199C96.1201 95.0199 95.3001 95.3799 94.6401 96.0999C94.0001 96.8199 93.6801 97.8699 93.6801 99.2499V109H89.8701V98.7099C89.8701 97.4699 89.6101 96.5499 89.0901 95.9499C88.5901 95.3299 87.9001 95.0199 87.0201 95.0199C86.0401 95.0199 85.2201 95.3899 84.5601 96.1299C83.9001 96.8499 83.5701 97.8899 83.5701 99.2499V109H79.7901V92.4999Z" fill="black"/>
<path d="M114.827 109.51C113.207 109.51 111.777 109.16 110.537 108.46C109.297 107.76 108.337 106.75 107.657 105.43C106.977 104.11 106.637 102.55 106.637 100.75C106.637 98.9499 106.977 97.3899 107.657 96.0699C108.357 94.7499 109.317 93.7399 110.537 93.0399C111.777 92.3399 113.197 91.9899 114.797 91.9899C116.317 91.9899 117.677 92.3099 118.877 92.9499C120.077 93.5699 121.017 94.4899 121.697 95.7099C122.377 96.9299 122.717 98.3999 122.717 100.12V101.83H110.657C110.717 103.25 111.127 104.39 111.887 105.25C112.647 106.09 113.647 106.51 114.887 106.51C115.787 106.51 116.567 106.28 117.227 105.82C117.887 105.36 118.347 104.73 118.607 103.93H122.507C122.147 105.61 121.277 106.96 119.897 107.98C118.517 109 116.827 109.51 114.827 109.51ZM118.907 99.0999C118.907 97.8799 118.547 96.8899 117.827 96.1299C117.127 95.3699 116.147 94.9899 114.887 94.9899C113.647 94.9899 112.667 95.3699 111.947 96.1299C111.227 96.8899 110.807 97.8799 110.687 99.0999H118.907Z" fill="black"/>
<path d="M18.6809 135.42C16.1982 135.42 14.2755 134.785 12.9129 133.516C11.5502 132.228 10.8222 130.464 10.7289 128.224H13.3609C13.4542 129.792 13.9582 130.996 14.8729 131.836C15.7875 132.676 17.0755 133.096 18.7369 133.096C20.2862 133.096 21.4995 132.741 22.3769 132.032C23.2542 131.304 23.6929 130.333 23.6929 129.12C23.6929 127.141 22.3769 126.152 19.7449 126.152H17.1969C15.1809 126.152 13.6409 125.676 12.5769 124.724C11.5315 123.772 11.0089 122.521 11.0089 120.972C11.0089 119.796 11.3075 118.76 11.9049 117.864C12.5209 116.949 13.3982 116.24 14.5369 115.736C15.6755 115.232 17.0009 114.98 18.5129 114.98C20.9022 114.98 22.7315 115.596 24.0009 116.828C25.2702 118.06 25.9515 119.712 26.0449 121.784H23.4129C23.2449 118.797 21.5929 117.304 18.4569 117.304C16.9635 117.304 15.7875 117.631 14.9289 118.284C14.0702 118.919 13.6409 119.796 13.6409 120.916C13.6409 122.727 14.8635 123.632 17.3089 123.632H19.8569C22.1902 123.632 23.8515 124.145 24.8409 125.172C25.8302 126.199 26.3249 127.496 26.3249 129.064C26.3249 130.352 26.0169 131.481 25.4009 132.452C24.7849 133.404 23.8982 134.141 22.7409 134.664C21.5835 135.168 20.2302 135.42 18.6809 135.42Z" fill="black"/>
<path d="M35.7758 135.42C34.2824 135.42 32.9571 135.084 31.7998 134.412C30.6611 133.74 29.7744 132.797 29.1398 131.584C28.5238 130.352 28.2158 128.924 28.2158 127.3C28.2158 125.676 28.5331 124.248 29.1678 123.016C29.8024 121.784 30.6798 120.841 31.7998 120.188C32.9384 119.516 34.2451 119.18 35.7198 119.18C37.1011 119.18 38.3424 119.479 39.4438 120.076C40.5638 120.655 41.4411 121.495 42.0758 122.596C42.7104 123.697 43.0278 124.995 43.0278 126.488V128.14H30.8758C30.9691 129.633 31.4544 130.856 32.3318 131.808C33.2091 132.76 34.3571 133.236 35.7758 133.236C36.8398 133.236 37.7544 132.975 38.5198 132.452C39.3038 131.911 39.8544 131.183 40.1718 130.268H42.8878C42.6824 131.276 42.2438 132.172 41.5718 132.956C40.9184 133.721 40.0878 134.328 39.0798 134.776C38.0718 135.205 36.9704 135.42 35.7758 135.42ZM40.3958 125.984C40.3958 124.603 39.9851 123.492 39.1638 122.652C38.3424 121.793 37.2224 121.364 35.8038 121.364C34.3851 121.364 33.2651 121.793 32.4438 122.652C31.6224 123.492 31.1184 124.603 30.9318 125.984H40.3958Z" fill="black"/>
<path d="M52.4782 135.42C50.9662 135.42 49.6315 135.084 48.4742 134.412C47.3169 133.74 46.4209 132.797 45.7862 131.584C45.1515 130.352 44.8342 128.924 44.8342 127.3C44.8342 125.657 45.1329 124.229 45.7302 123.016C46.3462 121.784 47.2329 120.841 48.3902 120.188C49.5475 119.516 50.9102 119.18 52.4782 119.18C53.8782 119.18 55.0915 119.46 56.1182 120.02C57.1635 120.561 57.9755 121.308 58.5542 122.26C59.1329 123.212 59.4782 124.285 59.5902 125.48H56.9582C56.8649 124.304 56.4169 123.324 55.6142 122.54C54.8302 121.756 53.7849 121.364 52.4782 121.364C50.9475 121.364 49.7249 121.915 48.8102 123.016C47.9142 124.117 47.4662 125.545 47.4662 127.3C47.4662 128.495 47.6809 129.54 48.1102 130.436C48.5582 131.332 49.1555 132.023 49.9022 132.508C50.6675 132.993 51.5262 133.236 52.4782 133.236C53.3369 133.236 54.0835 133.049 54.7182 132.676C55.3715 132.284 55.8849 131.799 56.2582 131.22C56.6315 130.641 56.8649 130.044 56.9582 129.428H59.5902C59.4409 130.511 59.0675 131.509 58.4702 132.424C57.8729 133.339 57.0609 134.067 56.0342 134.608C55.0262 135.149 53.8409 135.42 52.4782 135.42Z" fill="black"/>
<path d="M67.0997 135.42C65.4197 135.42 64.113 134.851 63.1797 133.712C62.2463 132.573 61.7797 130.949 61.7797 128.84V119.6H64.2997V128.588C64.2997 130.193 64.6077 131.36 65.2237 132.088C65.8397 132.816 66.689 133.18 67.7717 133.18C69.0037 133.18 70.0303 132.751 70.8517 131.892C71.673 131.015 72.0837 129.699 72.0837 127.944V119.6H74.6037V135H72.1397V132.116H72.0837C71.6357 133.199 70.9823 134.02 70.1237 134.58C69.265 135.14 68.257 135.42 67.0997 135.42Z" fill="black"/>
<path d="M78.5108 119.6H80.9748V122.288H81.0308C81.4414 121.373 81.9268 120.701 82.4868 120.272C83.0654 119.824 83.9241 119.6 85.0628 119.6H86.5468V121.84H84.7268C83.4574 121.84 82.5241 122.213 81.9268 122.96C81.3294 123.707 81.0308 124.827 81.0308 126.32V135H78.5108V119.6Z" fill="black"/>
<path d="M88.3206 119.6H90.8406V135H88.3206V119.6ZM88.2926 114.14H90.8686V116.716H88.2926V114.14Z" fill="black"/>
<path d="M99.7663 135C97.0409 135 95.6783 133.647 95.6783 130.94V121.84H92.5983V119.6H95.6783V115.4H98.1983V119.6H103.07V121.84H98.1983V130.94C98.1983 131.575 98.3476 132.041 98.6463 132.34C98.9636 132.62 99.4303 132.76 100.046 132.76H103.21V135H99.7663Z" fill="black"/>
<path d="M103.769 138.36H107.857L109.649 134.16L103.769 119.6H106.513L110.909 131.22H110.965L115.361 119.6H118.105L110.125 139.424C109.826 140.208 109.247 140.6 108.389 140.6H103.769V138.36Z" fill="black"/>
</svg>
