<?xml version="1.0" encoding="utf-8"?>
<!-- Generator: Adobe Illustrator 27.2.0, SVG Export Plug-In . SVG Version: 6.00 Build 0)  -->
<svg version="1.1" id="Layer_1" xmlns="http://www.w3.org/2000/svg" xmlns:xlink="http://www.w3.org/1999/xlink" x="0px" y="0px"
	 viewBox="0 0 677.5 565.5" style="enable-background:new 0 0 677.5 565.5;" xml:space="preserve">
<style type="text/css">
	.st0{fill:#4BB793;}
	.st1{fill:#4AD5A6;}
	.st2{fill:#4CA386;}
	.st3{fill:#2A3060;}
	.st4{fill:#685C79;}
</style>
<polygon class="st0" points="677.5,88.5 338.7,267 338.8,465.2 508.1,377.1 508.1,565.2 677.5,477.1 "/>
<polygon class="st1" points="1.2,88.2 338.7,267 338.8,465.2 169.7,377.4 169.1,565.5 0,476.8 "/>
<polygon class="st0" points="169.7,377.4 338.8,465.2 338.8,476.2 169.1,565.5 "/>
<polygon class="st1" points="508.1,377.1 338.8,465.2 338.8,476.2 508.1,565.2 "/>
<polygon class="st2" points="1.2,88.2 168.9,0 338.6,90 508.1,0 677.5,88.5 338.7,267 "/>
<rect x="721" y="10" class="st1" width="32" height="32"/>
<rect x="721" y="51" class="st3" width="32" height="32"/>
<rect x="721" y="92" class="st4" width="32" height="32"/>
</svg>
