<svg width="400" height="400" xmlns="http://www.w3.org/2000/svg" version="1.1">
 <g>
  <path fill="#3f83c4" id="svg_2" d="m162.20895,1.0219c-38.347,4.698 -74.144,19.709 -103.401,43.359c-4.707,3.804 -6.711,5.888 -6.025,6.266c2.22,1.225 17.339,4.022 32.006,5.921c20.79,2.693 20.833,2.707 22.85,7.56c2.322,5.586 7.333,10.638 15.288,15.409c3.785,2.27 8.048,5.002 9.473,6.071c3.814,2.859 4.907,-3.496 3.18,-18.5l-0.629,-5.465l4.162,2.265c11.284,6.141 17.162,15.455 20.366,32.266c2.128,11.167 4.729,16.038 6.787,12.708c0.736,-1.192 4.117,-11.77 5.555,-17.385c2.571,-10.033 12.073,13.486 10.221,25.297c-0.693,4.418 -0.651,4.585 1.528,6.103c1.231,0.858 3.859,3.25 5.839,5.314c3.287,3.427 6.009,7.406 17.623,25.763l3.922,6.2l8.228,-0.028c14.527,-0.049 23.815,-2.49 31.814,-8.362c14.926,-10.957 9.066,20.937 -7.176,39.056c-10.31,11.501 16.642,-9.656 32.403,-25.436c31.413,-31.451 43.661,-63.984 35.508,-94.314c-0.999,-3.717 -0.512,-5.316 1.619,-5.316c2.335,0 5.109,5.331 8.326,16c11.687,38.772 3.45,80.721 -30.306,154.332c-5.197,11.331 -5.37,13.974 -1.533,23.423c11.049,27.212 -10.033,55.239 -58.008,77.119c-14.988,6.836 -13.653,6.719 -21.628,1.895c-24.381,-14.749 -54.582,-27.756 -74.392,-32.039c-25.211,-5.452 -34.695,-11.496 -44.171,-28.15c-1.446,-2.541 -3.001,-5.175 -3.456,-5.852c-0.735,-1.094 -69.474,30.44 -72.701,33.351c-1.31,1.182 10.284,17.16 21.259,29.297c60.489,66.899 161.171,84.532 241.2,42.241c127.135,-67.184 144.11,-243.083 32.158,-333.236c-40.827,-32.878 -97.256,-49.335 -147.889,-43.133" />
 </g>

</svg>