<?xml version="1.0" encoding="utf-8"?>
<!-- Generator: Adobe Illustrator 26.5.0, SVG Export Plug-In . SVG Version: 6.00 Build 0)  -->
<svg version="1.1" id="Layer_1" xmlns="http://www.w3.org/2000/svg" xmlns:xlink="http://www.w3.org/1999/xlink" x="0px" y="0px"
	 viewBox="0 0 512 512" style="enable-background:new 0 0 512 512;" xml:space="preserve">
<style type="text/css">
	.st0{fill:#046DB2;}
</style>
<path class="st0" d="M282.54,479.47c-87.91-15.7-175.39-31.33-263.31-47.03c0-119.47,0-239.02,0-359.08
	c87.57-15.63,175.2-31.28,263.31-47C282.54,177.37,282.54,327.97,282.54,479.47z M136.23,261.09c17.18,0,33.85,0,50.58,0
	c0-12.46,0-24.65,0-37.24c-3.34-0.17-6.32-0.4-9.3-0.47c-12.06-0.32-24.12-0.67-36.18-0.83c-3.9-0.05-5.8-0.91-5.6-5.52
	c0.39-9.25-0.01-18.52,0.05-27.79c0.02-3.33-0.69-6.8,1.16-10.42c20.1,0,40.07,0,60.53,0c0-12.68,0-24.85,0-37.72
	c-33.81,2.32-67.42,4.63-101.33,6.95c0,63.32,0,125.95,0,189.14c33.19,3.79,66.22,7.55,99.46,11.34c0-13.8,0-26.82,0-40.07
	c-20.08-1.68-39.75-3.32-59.36-4.95C136.23,288.8,136.23,274.92,136.23,261.09z"/>
<path class="st0" d="M306.95,389.27c0-11.49,0-21.78,0-32.94c12.46,1.27,18.3-7.76,24.71-15.78c16.56-20.7,32.51-41.82,43.87-65.86
	c-1.15-2.18-2.43-3.83-4.26-4.26c-10.52,10.25-20.88,20.24-31.12,30.36c-7.66,7.57-15.25,15.21-22.71,22.98
	c-2.81,2.92-5.82,4.25-10.27,3.09c0-21.76,0-43.57,0-66.1c7.46,4.09,14.34,7.96,21.31,11.66c4.89,2.6,5.06,2.47,8.77-2.66
	c-8.88-8.93-17.77-17.92-26.72-26.85c-2-2-3.83-3.84-3.81-7.08c0.11-18.53,0.05-37.06,0.05-56.42c5.44,0.13,10.78-2.17,15.49,1.86
	c3.89,3.32,7.5,6.97,11.49,10.72c4.38-4.15,7.03-9.09,10.25-13.56c1.69-2.34,0.35-3.98-1.33-5.56
	c-7.07-6.63-14.15-13.26-21.19-19.93c-4.1-3.89-9.6-1.09-14.46-2.94c0-10.81,0-21.51,0-32.13c2.17-1.92,4.66-1.19,6.93-1.2
	c50.67-0.06,101.35-0.1,152.02-0.05c17.08,0.02,24.33,7.43,24.33,24.44c0,73.96,0.01,147.93-0.01,221.89
	c0,19.6-6.82,26.33-26.42,26.33c-49.16-0.02-98.33-0.01-147.49-0.01C313.44,389.27,310.47,389.27,306.95,389.27z M428.17,327.66
	c-8.12,0-15.14,0.21-22.67,0.13c-11.81-0.13-30.14-12.36-31.03-12.98l-9.07,11.83c-2.52,2.99-1.63,5.31,1.04,7.72
	c6.38,5.77,12.71,11.6,18.85,17.62c2.81,2.76,5.92,4.13,9.78,4.12c17.24-0.02,34.48,0.1,51.72-0.07c8.07-0.08,9.85-2.13,9.86-10.07
	c0.02-15.73-0.28-31.47,0.14-47.19c0.18-6.67-1.94-11.64-6.86-15.82c-21.7-18.43-44.35-35.49-69.6-48.89
	c-4.15-2.2-7.24-2.48-9.65,3.86c1.59,1.24,3.8,2.65,5.63,4.45c15.84,15.53,31.62,31.11,47.39,46.72c1.95,1.94,4.45,3.64,4.47,6.82
	C428.19,306.02,428.17,316.11,428.17,327.66z M415.86,233.66c4.07,2.93,8.14,5.72,12.05,8.71c2.87,2.19,4.95,1.39,7.17-1.03
	c6.25-6.82,12.6-13.55,18.96-20.27c2.08-2.2,2.6-4.75,2.6-7.69c-0.05-18.1-0.03-36.2,0.06-54.3c0.03-5.58-2.4-8.37-8.13-8.35
	c-17.45,0.07-34.91,0.05-52.36,0c-3.94-0.01-7.1,1.51-9.68,4.35c-20.23,22.21-37.71,46.37-51.83,72.94
	c-2.23,4.19-1.36,6.75,1.93,7.78c16.03-15.52,32.02-29.98,46.72-45.66c7.92-8.45,16.05-11.9,27.56-11.27
	c17.27,0.95,16.84,0.26,17.46,17.81c0.48,13.62,0.82,26.69-12.14,35.49C416.09,232.25,416.12,232.57,415.86,233.66z"/>
</svg>
