<svg id="LOGOS" xmlns="http://www.w3.org/2000/svg" viewBox="0 0 180 258"><path d="M62.15,198.17h6.76L58.64,232.56H49L38.76,198.17h6.76l8.32,28.66Z"/><path d="M87.7,232.56H82.54l-.46-1.71a13.76,13.76,0,0,1-7.49,2.22c-4.59,0-6.56-3.15-6.56-7.48,0-5.11,2.22-7.08,7.33-7.08h6v-2.63c0-2.79-.77-3.77-4.8-3.77a34.78,34.78,0,0,0-7,.78l-.77-4.8a32.46,32.46,0,0,1,8.62-1.19c7.9,0,10.22,2.79,10.22,9.09Zm-6.3-9.5H76.76c-2.07,0-2.63.57-2.63,2.48,0,1.75.56,2.53,2.53,2.53a9.89,9.89,0,0,0,4.74-1.29Z"/><path d="M97.62,207.41V225c0,1.34.56,2,2,2a17.39,17.39,0,0,0,6.56-2.12V207.41h6.29v25.15h-4.8l-.62-2.12A25.14,25.14,0,0,1,97,233.07c-4.19,0-5.68-2.94-5.68-7.43V207.41Z"/><path d="M115.84,232.56V197.14l6.3-.88v36.3Z"/><path d="M140.93,232.09a17.39,17.39,0,0,1-5.53,1c-4.59,0-6.91-2.16-6.91-6.66v-14h-3.77v-5h3.77v-6.24l6.3-.88v7.12h6.45l-.41,5h-6v13.17a2,2,0,0,0,2.27,2.22,12.17,12.17,0,0,0,3.15-.52Z"/><path d="M45.46,189.74v-4.83H41.05v4.83H38.79V178.15h2.26V183h4.41v-4.86h2.26v11.59Zm10.52,0H54.19l-.16-.57a4.85,4.85,0,0,1-2.59.74c-1.59,0-2.27-1-2.27-2.49,0-1.7.77-2.35,2.54-2.35H53.8v-.88c0-.92-.27-1.25-1.66-1.25a12.28,12.28,0,0,0-2.42.26l-.27-1.6a11.93,11.93,0,0,1,3-.4c2.74,0,3.54.93,3.54,3Zm-2.18-3.16H52.19c-.71,0-.91.19-.91.83s.2.84.87.84a3.58,3.58,0,0,0,1.65-.43Zm6.75,3.33a10.41,10.41,0,0,1-3-.48l.3-1.6a10,10,0,0,0,2.6.37c1,0,1.11-.21,1.11-.85s-.11-.77-1.52-1.1c-2.13-.49-2.38-1-2.38-2.62s.77-2.43,3.25-2.43a11.8,11.8,0,0,1,2.61.3l-.21,1.66a16,16,0,0,0-2.4-.24c-.95,0-1.11.21-1.11.72,0,.67.06.72,1.24,1,2.43.62,2.66.92,2.66,2.64S63.18,189.91,60.55,189.91Zm10-.17V183.9c0-.45-.2-.67-.7-.67a6.07,6.07,0,0,0-2.27.71v5.8H65.39V178l2.19.33V182a7.92,7.92,0,0,1,3.18-.81c1.45,0,2,1,2,2.48v6.06Zm4-9.55v-2h2.18v2Zm0,9.55v-8.36h2.18v8.36Zm3.93-8.3c0-2.09,1.27-3.31,4.24-3.31a14,14,0,0,1,3.23.38l-.25,1.87a18.36,18.36,0,0,0-2.91-.29c-1.56,0-2.06.51-2.06,1.73v4.4c0,1.22.5,1.73,2.06,1.73a18.36,18.36,0,0,0,2.91-.29l.25,1.88a14,14,0,0,1-3.23.37c-3,0-4.24-1.22-4.24-3.31Zm12.3,8.47c-3,0-3.8-1.58-3.8-3.3V184.5c0-1.72.81-3.3,3.8-3.3s3.79,1.58,3.79,3.3v2.11C94.58,188.33,93.77,189.91,90.79,189.91Zm0-6.92c-1.17,0-1.61.5-1.61,1.44v2.25c0,.95.44,1.45,1.61,1.45s1.61-.5,1.61-1.45v-2.25C92.4,183.49,92,183,90.79,183Zm9.93.14a16.87,16.87,0,0,0-2.3,1.22v5.39H96.23v-8.36h1.85l.14.92a10,10,0,0,1,2.29-1.1Zm8.73,3.83c0,1.85-.86,2.95-2.88,2.95a12.34,12.34,0,0,1-2.33-.24v3.42l-2.18.33v-12h1.74l.21.7a4.72,4.72,0,0,1,2.75-.88c1.76,0,2.69,1,2.69,2.91Zm-5.21.94a10.09,10.09,0,0,0,1.93.23c.79,0,1.1-.36,1.1-1.12v-2.95c0-.69-.27-1.07-1.08-1.07a3.14,3.14,0,0,0-2,.76Z"/><path d="M27,27.44l62.77,126L153,27.44ZM97.24,52.73h7.31V60H97.24ZM82.7,81.94H75.39v-7.3H82.7Zm0-11H75.39V63.68H82.7Zm0-11H75.39v-7.3H82.7Zm11,32.87h-7.3V85.6h7.3Zm0-11h-7.3v-7.3h7.3Zm0-11h-7.3V63.68h7.3Zm0-11h-7.3v-7.3h7.3Zm3.59,3.65h7.31V71H97.24Zm.06,18.26v-7.3h7.31v7.3Z"/></svg>