<?xml version="1.0" standalone="no"?>
<!DOCTYPE svg PUBLIC "-//W3C//DTD SVG 20010904//EN"
 "http://www.w3.org/TR/2001/REC-SVG-20010904/DTD/svg10.dtd">
<svg version="1.0" xmlns="http://www.w3.org/2000/svg"
 width="1200.000000pt" height="1200.000000pt" viewBox="0 0 1200.000000 1200.000000"
 preserveAspectRatio="xMidYMid meet">

<g transform="translate(0.000000,1200.000000) scale(0.100000,-0.100000)"
fill="#0082d1" stroke="none">
<path d="M1042 8758 l3 -3243 43 -214 c105 -519 220 -895 404 -1326 535 -1253
1481 -2410 2567 -3141 l130 -87 104 109 c220 233 362 386 365 394 2 5 -36 35
-85 66 -665 428 -1286 1034 -1789 1744 -152 214 -193 283 -204 335 -17 86 -23
467 -11 655 15 231 34 353 82 539 222 860 809 1573 1764 2143 161 96 322 181
568 298 120 57 220 107 223 112 13 20 -98 -9 -346 -92 -1032 -343 -1667 -674
-2104 -1100 -199 -194 -337 -377 -448 -595 -143 -283 -206 -525 -224 -864 l-7
-135 -24 55 c-95 212 -231 678 -291 994 l-26 140 -3 2888 -3 2887 3613 0 3614
0 6 113 c4 61 7 214 7 340 l0 227 -3965 0 -3965 0 2 -3242z"/>
<path d="M6550 11104 c-251 -148 -544 -400 -728 -626 -236 -291 -401 -659
-466 -1043 -87 -517 -3 -1150 256 -1920 74 -222 225 -627 237 -635 9 -6 221
-524 221 -541 0 -6 29 -77 65 -159 67 -151 116 -282 110 -289 -4 -4 -146 71
-371 195 -83 46 -157 84 -164 84 -7 0 -65 30 -129 67 -152 89 -212 112 -283
113 -52 0 -60 -3 -92 -35 -80 -79 -68 -198 28 -280 22 -20 46 -39 51 -44 13
-9 514 -281 902 -489 160 -87 294 -164 297 -172 3 -8 41 -118 85 -245 44 -126
79 -231 77 -232 -2 -3 -782 417 -1330 716 -214 117 -396 214 -405 216 -9 2
-45 20 -81 40 -133 76 -262 136 -303 141 -56 7 -123 -27 -149 -76 -24 -44 -20
-152 7 -193 27 -42 188 -143 465 -292 218 -117 1932 -1046 1936 -1049 3 -2 64
-429 62 -431 -4 -3 -521 276 -2118 1143 -217 118 -424 228 -460 245 -36 16
-99 49 -140 72 -104 60 -195 90 -242 81 -77 -14 -139 -111 -123 -189 17 -80
69 -134 185 -192 30 -15 64 -35 75 -45 11 -9 54 -35 95 -57 148 -80 1596 -866
1640 -890 148 -82 935 -511 1013 -552 l68 -36 -6 -43 c-4 -24 -21 -102 -39
-175 -24 -98 -36 -131 -47 -129 -15 4 -1208 649 -2258 1221 -354 193 -647 351
-652 351 -4 0 -42 16 -84 37 -135 64 -217 52 -262 -37 -29 -56 -29 -114 0
-170 22 -44 36 -56 217 -171 19 -12 141 -79 270 -149 129 -70 255 -139 280
-152 25 -14 126 -69 225 -123 99 -54 281 -153 405 -220 512 -279 928 -504
1310 -710 223 -120 407 -219 409 -221 5 -4 -140 -219 -176 -261 l-28 -32 -115
63 c-63 35 -347 188 -630 341 -592 320 -1671 907 -1840 1003 -120 68 -156 80
-255 88 -48 4 -66 1 -91 -14 -41 -26 -65 -81 -65 -147 0 -92 37 -137 173 -209
40 -21 82 -47 93 -57 16 -14 1128 -621 2060 -1124 110 -59 244 -133 297 -163
l98 -55 -58 -61 c-31 -34 -235 -248 -453 -476 -400 -419 -457 -480 -444 -480
25 0 993 583 1130 680 302 215 566 487 732 753 122 197 231 473 282 710 133
619 13 1384 -379 2424 -91 239 -287 719 -310 758 -21 35 -225 518 -245 579 -7
23 -43 113 -80 201 -91 218 -179 448 -201 520 -31 109 -126 409 -139 445 -17
46 -79 366 -99 510 -50 366 -44 530 29 794 25 92 50 177 55 191 5 14 7 25 4
25 -3 0 27 62 66 138 100 193 330 490 536 692 133 130 166 190 165 300 0 54
-6 84 -27 130 -15 33 -32 64 -39 70 -8 7 -39 -7 -105 -46z"/>
</g>

<g transform="translate(0.000000,1200.000000) scale(0.100000,-0.100000)"
fill="#00b1ff" stroke="none">
<path d="M9594 11963 c3 -21 35 -148 71 -283 36 -135 70 -271 76 -302 l12 -58
258 0 258 0 3 -777 c3 -832 -1 -975 -32 -1160 -71 -416 -284 -906 -563 -1298
-295 -414 -700 -818 -1162 -1160 -302 -224 -488 -344 -832 -538 -230 -129
-306 -177 -284 -177 7 0 104 38 217 85 1107 461 1755 834 2279 1312 103 94
267 270 339 363 l31 41 3 -1178 c2 -1279 3 -1249 -54 -1547 -111 -576 -376
-1248 -722 -1826 -427 -713 -981 -1343 -1617 -1836 -294 -228 -558 -396 -880
-559 -242 -123 -413 -194 -690 -287 -197 -67 -216 -71 -300 -72 -87 0 -98 3
-330 81 -132 45 -254 87 -272 94 -29 12 -37 11 -75 -11 -101 -56 -658 -391
-658 -396 0 -11 325 -164 471 -221 317 -125 698 -239 834 -250 62 -4 93 1 265
45 825 213 1615 645 2350 1286 153 133 474 450 614 606 477 532 838 1067 1157
1715 145 296 238 523 339 822 102 305 132 424 213 828 l42 210 3 3243 2 3242
-686 0 -687 0 7 -37z"/>
<path d="M9347 11314 c-3 -6 -13 -314 -22 -684 -8 -370 -16 -675 -18 -677 -2
-2 -78 19 -168 46 -90 27 -524 156 -964 286 -440 130 -955 283 -1145 340 -190
57 -353 105 -362 107 -16 3 -220 -191 -276 -262 l-22 -28 32 -11 c48 -15 700
-210 1168 -349 916 -273 1667 -495 1703 -505 20 -5 37 -12 37 -16 -1 -26 -50
-324 -54 -329 -10 -9 -131 17 -254 55 -64 20 -205 62 -312 93 -719 212 -2013
596 -2259 670 -161 50 -297 87 -302 85 -21 -13 -177 -311 -167 -320 9 -8 324
-105 613 -190 182 -53 418 -122 525 -155 211 -63 1374 -408 1768 -523 133 -39
242 -74 242 -77 0 -12 -102 -182 -146 -243 -43 -60 -48 -65 -73 -57 -14 5
-174 52 -356 105 -181 53 -721 213 -1200 355 -1062 315 -1452 430 -1464 430
-18 0 -32 -121 -31 -280 0 -46 2 -85 3 -87 3 -3 2588 -770 2714 -806 l72 -20
-109 -87 c-60 -47 -141 -108 -179 -134 -64 -43 -73 -46 -103 -38 -18 5 -197
59 -398 120 -201 61 -655 196 -1010 301 -355 105 -710 210 -790 235 -128 39
-146 42 -151 27 -4 -9 -3 -21 2 -26 4 -6 10 -31 12 -55 3 -25 8 -53 12 -63 4
-10 5 -21 1 -24 -3 -3 -1 -12 5 -19 6 -8 9 -20 6 -29 -4 -8 -2 -17 4 -21 5 -3
9 -13 8 -22 -1 -10 0 -24 4 -32 3 -8 11 -35 19 -59 l13 -44 120 -32 c66 -18
174 -49 239 -69 117 -37 563 -169 1171 -347 171 -50 314 -95 319 -99 9 -9
-150 -91 -347 -180 l-117 -53 -218 66 c-119 37 -363 110 -542 162 -179 53
-361 107 -404 121 -81 25 -118 26 -98 1 15 -18 83 -207 74 -207 -4 0 -2 -4 4
-8 12 -8 65 -137 67 -164 1 -13 14 -22 42 -29 22 -6 119 -35 215 -65 96 -30
208 -62 247 -72 40 -9 73 -20 73 -23 0 -9 -164 -84 -298 -135 -64 -25 -118
-47 -120 -49 -2 -2 15 -47 37 -102 22 -54 42 -105 43 -113 2 -8 6 -17 9 -20 7
-6 97 -218 101 -240 2 -8 6 -17 9 -20 4 -3 13 -19 20 -36 l14 -32 375 162
c433 187 542 237 774 353 538 269 926 535 1239 848 205 206 344 398 462 640
174 356 248 735 224 1148 -16 266 -58 488 -194 1017 -40 157 -86 341 -103 410
-33 139 -55 200 -65 184z"/>
<path d="M5690 6816 c-779 -341 -1309 -664 -1681 -1024 -237 -229 -388 -429
-515 -678 -68 -135 -149 -369 -183 -527 -77 -355 -66 -751 31 -1190 l22 -99
45 7 c58 8 109 24 138 42 31 20 78 95 104 162 27 72 30 88 16 88 -19 0 -147
74 -147 85 0 5 -5 6 -10 3 -6 -3 -13 1 -16 9 -3 9 -10 14 -14 11 -8 -5 -59 49
-61 66 -1 5 -2 13 -3 18 0 5 -4 13 -8 17 -5 4 -8 28 -8 54 0 47 36 134 55 133
6 0 15 7 21 15 14 20 101 27 139 11 17 -6 38 -13 47 -14 19 -2 17 -13 46 227
l17 146 -32 18 c-18 9 -33 20 -33 24 0 4 -6 7 -13 7 -17 0 -97 53 -97 65 0 5
-4 7 -9 3 -15 -8 -58 55 -71 104 -16 59 2 131 42 171 16 17 34 28 39 24 5 -3
9 0 9 6 0 7 7 10 15 7 8 -4 17 -2 21 4 10 17 83 0 161 -37 39 -19 74 -34 77
-34 2 0 24 35 47 78 23 42 64 109 90 149 l48 72 -75 41 c-83 46 -154 110 -173
156 -19 48 -6 164 19 164 4 0 10 8 12 18 3 11 27 29 52 42 47 22 48 22 112 5
36 -10 71 -23 78 -31 8 -7 16 -10 20 -7 3 4 6 1 6 -6 0 -7 5 -9 10 -6 6 3 10
2 10 -3 0 -5 6 -9 13 -9 6 0 45 -19 84 -42 44 -26 77 -39 85 -35 7 5 75 60
151 123 l138 114 -53 30 c-95 54 -153 114 -144 149 2 10 0 21 -5 24 -12 7 -12
71 1 79 5 3 7 12 3 20 -3 8 0 15 6 15 6 0 10 3 9 8 -3 10 23 55 29 49 2 -3 13
3 24 14 22 22 124 30 139 10 3 -3 14 -7 25 -9 26 -5 168 -81 177 -95 4 -7 8
-8 8 -4 0 9 71 -31 81 -46 3 -5 8 -8 10 -6 2 1 14 -1 27 -5 17 -6 65 16 210
93 103 56 182 101 176 101 -20 0 -95 72 -113 109 -35 69 -21 187 24 205 9 3
14 10 11 15 -5 8 16 23 36 25 3 1 10 4 14 9 9 9 78 9 87 0 4 -3 19 -8 34 -9
14 -2 30 -9 34 -16 5 -7 9 -10 9 -5 0 7 80 -30 90 -42 3 -3 11 -7 18 -9 13 -2
93 -50 102 -61 3 -3 10 -7 15 -8 6 -1 24 -8 41 -14 30 -12 42 -8 205 65 96 43
175 79 177 81 2 1 -8 28 -22 59 -14 32 -27 65 -28 74 -2 9 -6 19 -10 22 -3 3
-8 14 -10 25 -1 11 -6 22 -10 25 -3 3 -8 14 -10 25 -1 11 -5 22 -8 25 -7 6
-79 180 -82 200 -2 8 -6 17 -10 20 -3 3 -8 14 -10 25 -3 18 -21 45 -30 45 -2
0 -68 -29 -148 -64z"/>
</g>

</svg>
