<?xml version="1.0" encoding="UTF-8" standalone="no"?>
<svg
   width="32"
   height="32"
   viewBox="0 0 32 32"
   version="1.1"
   id="svg1214"
   xmlns="http://www.w3.org/2000/svg"
   xmlns:svg="http://www.w3.org/2000/svg">
  <defs
     id="defs1196">
    <linearGradient
       id="logo_apache-a"
       x1="11.781325"
       x2="17.142573"
       y1="2.886935"
       y2="0.93453039"
       gradientTransform="scale(1.0460065,0.95601703)"
       gradientUnits="userSpaceOnUse">
      <stop
         offset="0%"
         stop-color="#F69923"
         id="stop1135" />
      <stop
         offset="31.23%"
         stop-color="#F79A23"
         id="stop1137" />
      <stop
         offset="83.83%"
         stop-color="#E97826"
         id="stop1139" />
    </linearGradient>
    <linearGradient
       id="logo_apache-b"
       x1="-3.2822045"
       x2="14.166701"
       y1="12.535173"
       y2="4.1529622"
       gradientTransform="scale(0.77930551,1.2831938)"
       gradientUnits="userSpaceOnUse">
      <stop
         offset="32.33%"
         stop-color="#9E2064"
         id="stop1142" />
      <stop
         offset="63.02%"
         stop-color="#C92037"
         id="stop1144" />
      <stop
         offset="75.14%"
         stop-color="#CD2335"
         id="stop1146" />
      <stop
         offset="100%"
         stop-color="#E97826"
         id="stop1148" />
    </linearGradient>
    <linearGradient
       id="logo_apache-c"
       x1="-3.1019571"
       x2="17.335752"
       y1="11.854705"
       y2="8.0581531"
       gradientTransform="scale(0.66517485,1.5033641)"
       gradientUnits="userSpaceOnUse">
      <stop
         offset="32.33%"
         stop-color="#9E2064"
         id="stop1151" />
      <stop
         offset="63.02%"
         stop-color="#C92037"
         id="stop1153" />
      <stop
         offset="75.14%"
         stop-color="#CD2335"
         id="stop1155" />
      <stop
         offset="100%"
         stop-color="#E97826"
         id="stop1157" />
    </linearGradient>
    <linearGradient
       id="logo_apache-d"
       x1="-1.2307134"
       x2="11.767211"
       y1="14.193531"
       y2="13.424864"
       gradientTransform="scale(0.54965767,1.8193142)"
       gradientUnits="userSpaceOnUse">
      <stop
         offset="0%"
         stop-color="#282662"
         id="stop1160" />
      <stop
         offset="9.548%"
         stop-color="#662E8D"
         id="stop1162" />
      <stop
         offset="78.82%"
         stop-color="#9F2064"
         id="stop1164" />
      <stop
         offset="94.87%"
         stop-color="#CD2032"
         id="stop1166" />
    </linearGradient>
    <linearGradient
       id="logo_apache-e"
       x1="1.3117241"
       x2="13.038116"
       y1="35.15085"
       y2="5.1130619"
       gradientTransform="scale(1.0300536,0.97082323)"
       gradientUnits="userSpaceOnUse">
      <stop
         offset="32.33%"
         stop-color="#9E2064"
         id="stop1169" />
      <stop
         offset="63.02%"
         stop-color="#C92037"
         id="stop1171" />
      <stop
         offset="75.14%"
         stop-color="#CD2335"
         id="stop1173" />
      <stop
         offset="100%"
         stop-color="#E97826"
         id="stop1175" />
    </linearGradient>
    <linearGradient
       id="logo_apache-f"
       x1="1.0829111"
       x2="16.639535"
       y1="22.23228"
       y2="7.3000415"
       gradientTransform="scale(0.87446195,1.1435603)"
       gradientUnits="userSpaceOnUse">
      <stop
         offset="32.33%"
         stop-color="#9E2064"
         id="stop1178" />
      <stop
         offset="63.02%"
         stop-color="#C92037"
         id="stop1180" />
      <stop
         offset="75.14%"
         stop-color="#CD2335"
         id="stop1182" />
      <stop
         offset="100%"
         stop-color="#E97826"
         id="stop1184" />
    </linearGradient>
    <linearGradient
       id="logo_apache-g"
       x1="2.3358687"
       x2="9.4535597"
       y1="31.382493"
       y2="13.553498"
       gradientTransform="scale(1.0262206,0.97444937)"
       gradientUnits="userSpaceOnUse">
      <stop
         offset="0%"
         stop-color="#282662"
         id="stop1187" />
      <stop
         offset="9.548%"
         stop-color="#662E8D"
         id="stop1189" />
      <stop
         offset="78.82%"
         stop-color="#9F2064"
         id="stop1191" />
      <stop
         offset="94.87%"
         stop-color="#CD2032"
         id="stop1193" />
    </linearGradient>
    <meshgradient
       id="meshgradient1203"
       gradientUnits="userSpaceOnUse"
       x="0.13891348"
       y="1.9998512">
      <meshrow
         id="meshrow1205">
        <meshpatch
           id="meshpatch1207">
          <stop
             path="c 10.0827,0  20.1655,0  30.2482,0"
             style="stop-color:#ffffff;stop-opacity:1"
             id="stop1209" />
          <stop
             path="c 0,9.38876  0,18.7775  0,28.1663"
             style="stop-color:#000000;stop-opacity:1"
             id="stop1211" />
          <stop
             path="c -10.0827,0  -20.1655,0  -30.2482,0"
             style="stop-color:#ffffff;stop-opacity:1"
             id="stop1213" />
          <stop
             path="c 0,-9.38876  0,-18.7775  0,-28.1663"
             style="stop-color:#000000;stop-opacity:1"
             id="stop1215" />
        </meshpatch>
      </meshrow>
    </meshgradient>
  </defs>
  <g
     fill="none"
     transform="translate(6)"
     id="g1212">
    <path
       fill="url(#logo_apache-a)"
       d="M 13.628016,0.18054475 C 13.129961,0.47315175 12.29572,1.3136187 11.299611,2.5276265 v 0.074708 l 0.871595,1.6124514 0.04358,0.031128 c 0.641245,-0.9151751 1.288716,-1.7431907 1.948638,-2.4466926 0.04981,-0.056031 0.07471,-0.080934 0.07471,-0.080934 -0.0249,0.024903 -0.04981,0.056031 -0.07471,0.080934 -0.211673,0.2365759 -0.859144,0.9836576 -1.83035,2.477821 l 0.112062,0.024903 c 0,0 2.272374,-0.2241245 3.368094,-0.4108949 l 0.06226,-0.056031 c 0.348638,-1.9548639 -0.342412,-2.85136191 -0.342412,-2.85136191 0,0 -0.871595,-1.40700389 -1.905058,-0.80311284 z"
       id="path1198"
       style="fill:url(#logo_apache-a)" />
    <path
       fill="url(#logo_apache-b)"
       d="M 9.5252918,8.6972763 C 9.8054475,8.1805447 10.085603,7.6700389 10.365759,7.1782101 c 0.292607,-0.5105059 0.591439,-1.0085603 0.896498,-1.4879377 0.01868,-0.024903 0.03735,-0.056031 0.0498,-0.08716 C 11.61089,5.1299607 11.909723,4.6817117 12.214781,4.245914 L 11.299611,2.5214008 C 11.231128,2.6023346 11.162646,2.6894942 11.094163,2.7766537 10.832685,3.1066148 10.558755,3.4552529 10.278599,3.8287938 9.9610895,4.2521401 9.6373541,4.7003891 9.307393,5.1735409 9.0023346,5.6093385 8.6910506,6.0700389 8.3859922,6.536965 8.1245136,6.9416342 7.8568093,7.3525292 7.5953307,7.7821012 c -0.012451,0.018677 -0.018677,0.031128 -0.031128,0.049805 v 0.068483 l 1.1392996,2.2599218 0.049806,0.01868 C 9.0085603,9.6809339 9.2638133,9.1828794 9.5252918,8.6972763 Z"
       id="path1200"
       style="fill:url(#logo_apache-b)" />
    <path
       fill="url(#logo_apache-c)"
       d="m 4.5634241,19.760311 c 0.2054475,-0.535408 0.4233463,-1.077043 0.6412452,-1.624902 0.2116731,-0.522958 0.4233463,-1.052141 0.6474708,-1.581323 0.2178988,-0.529183 0.448249,-1.058366 0.6785992,-1.593775 0.2365759,-0.541634 0.4731518,-1.083268 0.7159533,-1.618677 0.2428016,-0.529183 0.4856031,-1.058365 0.7346303,-1.581323 0.08716,-0.18677 0.1805448,-0.379766 0.27393,-0.566537 0.155642,-0.323735 0.3175097,-0.64747 0.4731518,-0.96498 0.00623,-0.01868 0.018677,-0.03113 0.024903,-0.04981 L 7.5642023,7.8319066 C 7.5455253,7.863035 7.5268482,7.8941634 7.5081712,7.9252918 7.2342412,8.3797666 6.9540856,8.8404669 6.6863813,9.3136187 6.4124514,9.7929961 6.1447471,10.278599 5.8832685,10.770428 5.659144,11.187549 5.4474708,11.604669 5.2357977,12.028016 c -0.04358,0.08716 -0.080934,0.168093 -0.1245137,0.255253 -0.2614786,0.535408 -0.4918288,1.045914 -0.7035019,1.543968 -0.2365759,0.560312 -0.448249,1.09572 -0.6350195,1.606226 C 3.648249,15.76965 3.5424125,16.08716 3.4365759,16.398444 3.355642,16.659922 3.2747082,16.927626 3.2,17.189105 3.0194553,17.811673 2.8700389,18.428016 2.7455253,19.050584 l 0.018677,0.07471 1.1392996,2.266148 0.037354,0.01868 C 4.096498,20.986775 4.2583657,20.563429 4.426459,20.127631 4.470039,20.003118 4.519844,19.88483 4.563424,19.760316 Z"
       id="path1202"
       style="fill:url(#logo_apache-c)" />
    <path
       fill="url(#logo_apache-d)"
       d="m 2.7330739,19.131517 c -0.1494163,0.753308 -0.2552529,1.506615 -0.311284,2.253697 0,0.0249 -0.00623,0.0498 -0.00623,0.08093 -0.3735366,-0.597662 -1.3696455,-1.17665 -1.3696455,-1.17665 0.7159533,1.033463 1.2575875,2.060701 1.3385214,3.069261 C 2.0046693,23.439689 1.4817121,23.321401 0.87159533,23.103502 1.5003891,23.68249 1.9735409,23.844358 2.1603113,23.887938 1.581323,23.925292 0.97743191,24.323735 0.36731518,24.77821 1.2575875,24.417121 1.9735409,24.27393 2.4902724,24.385992 1.6747082,26.69572 0.85914397,29.248249 0.03735409,31.950195 c 0.24902723,-0.07471 0.39844358,-0.242802 0.48560311,-0.473152 0.14319066,-0.491829 1.1143969,-3.70428 2.6272374,-7.931518 0.04358,-0.118288 0.08716,-0.242801 0.1307392,-0.361089 0.012451,-0.03113 0.024903,-0.06848 0.037354,-0.09961 0.1618677,-0.442023 0.3237354,-0.896498 0.4980545,-1.357199 0.037354,-0.105836 0.080934,-0.211673 0.1182879,-0.317509 0,0 0,-0.0062 0,-0.0062 l -1.189105,-2.353307 c 0,0.03113 -0.00623,0.05603 -0.012451,0.08093 z"
       id="path1204"
       style="fill:url(#logo_apache-d)" />
    <path
       fill="url(#logo_apache-e)"
       d="m 12.333074,4.2832685 c -0.267704,0.4108949 -0.560311,0.877821 -0.877821,1.4070039 -0.01868,0.024903 -0.03113,0.056031 -0.04981,0.080934 -0.27393,0.4607004 -0.560311,0.9587549 -0.865369,1.5128405 C 10.278599,7.7571984 10.004669,8.2677043 9.7182879,8.8217899 9.4692607,9.3011673 9.2140078,9.8054475 8.9525292,10.347082 l 0.056031,0.0249 2.8949418,-0.311284 0.06848,-0.04981 c 0.877821,-0.4046693 1.270039,-0.7719845 1.649806,-1.3011674 0.09961,-0.1431907 0.205447,-0.2988327 0.305058,-0.4544747 0.311284,-0.4856031 0.616343,-1.014786 0.884047,-1.5439688 0.261479,-0.5105059 0.491829,-1.0210117 0.672373,-1.4754864 0.112063,-0.292607 0.205448,-0.5603113 0.267705,-0.7968872 0.05603,-0.2116731 0.09961,-0.4108949 0.130739,-0.5976654 -1.170428,0.2054475 -2.60856,0.3984436 -3.548638,0.4420234 z"
       id="path1206"
       style="fill:url(#logo_apache-e)" />
    <path
       fill="url(#logo_apache-f)"
       d="m 8.8404669,10.589883 c -0.099611,0.211673 -0.2054475,0.429572 -0.311284,0.647471 -0.1120623,0.236576 -0.2303502,0.485603 -0.3424125,0.73463 -0.056031,0.124514 -0.1182879,0.255253 -0.174319,0.379767 -0.1805448,0.385992 -0.3548638,0.784436 -0.5416343,1.195331 -0.2241245,0.50428 -0.4544747,1.033463 -0.6848249,1.575097 -0.2241245,0.522957 -0.448249,1.058366 -0.6723735,1.618677 -0.2178989,0.529183 -0.4357977,1.077043 -0.6536965,1.637354 -0.1992218,0.50428 -0.3984436,1.014786 -0.5976654,1.550195 -0.012451,0.0249 -0.018677,0.0498 -0.031128,0.07471 -0.1992218,0.529183 -0.3935326,1.067513 -0.5989801,1.621598 -0.00623,0.01245 -0.017345,0.04485 -0.023571,0.05731 l 0.042999,0.0095 0.8659328,-0.09315 0.048886,-0.0202 c -0.018677,-0.0062 -0.030209,-0.03113 -0.048886,-0.03735 1.1455253,-0.143191 2.6708172,-1.002335 3.6607004,-2.0607 0.4544747,-0.485604 0.8653697,-1.064592 1.2513621,-1.736965 0.286381,-0.504281 0.54786,-1.058366 0.803113,-1.674709 0.224124,-0.535408 0.435797,-1.120622 0.641245,-1.749416 -0.261479,0.136965 -0.566537,0.242802 -0.896498,0.311284 -0.05603,0.01245 -0.118288,0.0249 -0.180545,0.03735 -0.06226,0.01245 -0.124513,0.01868 -0.180545,0.03113 1.070818,-0.410895 1.743191,-1.207782 2.23502,-2.178989 -0.280156,0.192996 -0.740856,0.442024 -1.288716,0.566537 -0.07471,0.01868 -0.149416,0.03113 -0.23035,0.04358 -0.01868,0 -0.03735,0.0062 -0.05603,0.0062 0.37354,-0.155642 0.684825,-0.329961 0.958754,-0.535409 0.05603,-0.04358 0.112063,-0.08716 0.168094,-0.136965 0.08093,-0.07471 0.161868,-0.149416 0.236576,-0.224124 0.0498,-0.04981 0.09338,-0.09961 0.14319,-0.155642 0.105837,-0.124514 0.205448,-0.261479 0.298833,-0.410895 0.03113,-0.04358 0.05603,-0.09338 0.08716,-0.136965 0.03735,-0.06848 0.06848,-0.136965 0.09961,-0.205448 0.149416,-0.298832 0.267704,-0.566537 0.361089,-0.803113 0.04981,-0.118287 0.08716,-0.224124 0.124514,-0.329961 0.01245,-0.03735 0.0249,-0.08093 0.04358,-0.118288 0.03735,-0.1120618 0.06848,-0.2116728 0.09339,-0.3050579 0.03735,-0.1307393 0.05603,-0.2365759 0.06848,-0.3112841 -0.03735,0.031128 -0.07471,0.056031 -0.124514,0.08716 -0.323735,0.1929961 -0.877821,0.3673152 -1.32607,0.448249 l 0.884047,-0.099611 -0.884047,0.099611 c -0.06226,0.012451 -0.105836,0.018677 -0.155642,0.031128 0.0042,-0.0041 -0.994314,0.101419 -2.9953944,0.316709 -0.012451,0.01245 -0.086318,0.168894 -0.1174459,0.243602 z"
       id="path1208"
       style="fill:url(#logo_apache-f)" />
    <path
       fill="url(#logo_apache-g)"
       d="m 4.1151751,21.914397 c -0.155642,0.429572 -0.3175097,0.871595 -0.4731518,1.319844 0,0.0062 -0.00623,0.01245 -0.00623,0.01868 -0.024903,0.06226 -0.04358,0.124514 -0.068483,0.192996 -0.1058366,0.305059 -0.1992218,0.572763 -0.410895,1.195331 0.3486382,0.161868 0.6287938,0.578988 0.8964981,1.058366 -0.024903,-0.491829 -0.2303502,-0.958755 -0.6225681,-1.313619 1.7245136,0.07471 3.2124514,-0.361089 3.9782101,-1.618677 0.068483,-0.112062 0.1307393,-0.23035 0.1867704,-0.354864 -0.3486381,0.442024 -0.7844358,0.628794 -1.5937743,0.585214 0,0 -0.00623,0 -0.00623,0 0,0 0.00623,0 0.00623,0 1.2015564,-0.535408 1.7992218,-1.05214 2.3346304,-1.905058 0.1245136,-0.205447 0.2490272,-0.423346 0.3735408,-0.666148 -1.05214,1.077043 -2.2661479,1.382101 -3.5424124,1.151751 L 4.2085554,21.68405 c -0.031128,0.06848 -0.062257,0.149416 -0.093385,0.23035 z"
       id="path1210"
       style="fill:url(#logo_apache-g)" />
  </g>
  <g
     transform="matrix(0.44,0,0,0.44,17.849361,18.10306)"
     id="g939"
     style="fill:url(#meshgradient1203);fill-opacity:1">
    <path
       fill="#f5a800"
       d="m 12.821371,12.833219 c -1.339686,1.353665 -1.339686,3.548535 0,4.9022 1.339687,1.353666 3.511911,1.353666 4.851629,0 1.339719,-1.353665 1.339687,-3.548535 0,-4.9022 -1.339687,-1.353665 -3.511909,-1.353665 -4.851629,0 z m 3.62674,3.667776 c -0.663432,0.670391 -1.738416,0.670391 -2.401883,0 -0.663432,-0.670391 -0.663432,-1.756519 0,-2.426909 0.663467,-0.670392 1.738418,-0.670392 2.401883,0 0.663498,0.66717 0.663498,1.756518 0,2.426909 z m 1.167458,-20.7239453 -2.102037,2.1239742 c -0.411453,0.4157677 -0.411453,1.09904421 0,1.51481195 l 8.207224,8.29277355 c 0.411452,0.4158016 1.087673,0.4158016 1.49919,0 l 2.102037,-2.1239405 c 0.411485,-0.4157692 0.411485,-1.0990442 0,-1.5148134 l -8.21041,-8.2928058 c -0.411485,-0.4157678 -1.084518,-0.4157678 -1.496004,0 z M 2.8884867,22.918009 c 0.3731873,-0.377086 0.3731873,-0.992686 0,-1.369771 L 1.8199133,20.468519 c -0.3731873,-0.377117 -0.98244334,-0.377117 -1.355663,0 l -2.2073327,2.230298 -0.00322,0.0032 -0.6060349,-0.612381 c -0.3349216,-0.338399 -0.8804014,-0.338399 -1.2121342,0 -0.3349216,0.338402 -0.3349216,0.889552 0,1.224761 l 3.63630607,3.67425 c 0.33492162,0.338402 0.88036916,0.338402 1.21213423,0 0.331765,-0.3384 0.3348894,-0.889549 0,-1.22476 l -0.60606712,-0.612381 0.003223,-0.0032 2.20730052,-2.23033 z"
       id="path935"
       style="fill-opacity:1;stroke-width:3.22102" />
    <path
       fill="#425cc7"
       d="M 14.007963,1.874988 9.3381604,6.5934601 c -0.4146413,0.4189903 -0.4146413,1.1087073 0,1.5276976 l 2.8835546,2.9136063 c 2.038262,-1.4825711 4.896273,-1.2988775 6.730385,0.554368 l 2.334886,-2.359234 c 0.414641,-0.418991 0.414641,-1.1087403 0,-1.5276983 L 15.519943,1.874988 c -0.414675,-0.4222112 -1.097305,-0.4222112 -1.511948,0 v 0 z M 11.009612,12.262746 9.3062724,10.541657 c -0.3987296,-0.402853 -1.0525972,-0.402853 -1.4513271,0 l -6.0063006,6.07217 c -0.3986977,0.402884 -0.3986977,1.063614 0,1.466467 l 3.4034908,3.438955 c 0.398698,0.402884 1.0526294,0.402884 1.4513272,0 l 3.8628083,-3.909513 c -0.8165607,-1.704951 -0.6698438,-3.764472 0.443374,-5.34696 v 0 z"
       id="path937"
       style="fill-opacity:1;stroke-width:3.22102" />
  </g>
</svg>