<?xml version="1.0" encoding="UTF-8" standalone="no"?>
<svg
   xmlns:dc="http://purl.org/dc/elements/1.1/"
   xmlns:cc="http://creativecommons.org/ns#"
   xmlns:rdf="http://www.w3.org/1999/02/22-rdf-syntax-ns#"
   xmlns:svg="http://www.w3.org/2000/svg"
   xmlns="http://www.w3.org/2000/svg"
   viewBox="0 0 132.28 22.053333"
   height="22.053333"
   width="132.28"
   xml:space="preserve"
   id="svg2"
   version="1.1"><metadata
     id="metadata8"><rdf:RDF><cc:Work
         rdf:about=""><dc:format>image/svg+xml</dc:format><dc:type
           rdf:resource="http://purl.org/dc/dcmitype/StillImage" /></cc:Work></rdf:RDF></metadata><defs
     id="defs6" /><g
     transform="matrix(1.3333333,0,0,-1.3333333,0,22.053333)"
     id="g10"><g
       transform="scale(0.1)"
       id="g12"><path
         id="path14"
         style="fill:#3568bb;fill-opacity:1;fill-rule:nonzero;stroke:none"
         d="m 212.148,120.684 c -5.117,-8.028 -7.539,-20.9184 -7.539,-38.2035 0,-37.9492 13.133,-55.2227 42.332,-55.2227 28.704,0 41.848,17.2735 41.848,54.7422 0,37.961 -12.891,54.992 -41.848,54.992 -15.808,0 -28.23,-5.84 -34.793,-16.308 z m 99.024,18.73 c 9.98,-13.137 15.574,-34.531 15.574,-59.6093 0,-28.457 -9.004,-51.8164 -25.066,-64.707 C 289.52,5.37109 271.035,0.0117188 249.133,0.0117188 c -31.145,0 -55.715,10.2226812 -68.371,28.4648812 -9.492,13.3789 -14.114,31.1406 -14.114,52.7929 0,31.1325 8.516,54.7465 24.582,67.4025 12.637,10.215 32.598,15.808 55.469,15.808 28.946,0 52.071,-9.003 64.473,-25.066" /><path
         id="path16"
         style="fill:#3568bb;fill-opacity:1;fill-rule:nonzero;stroke:none"
         d="m 428.895,85.6445 c 9.25,0 14.601,1.2188 18.253,4.6289 4.375,3.6524 7.051,11.4256 7.051,20.4296 0,10.703 -4.375,18.496 -11.914,21.172 -2.683,0.977 -7.058,1.465 -12.656,1.465 H 381.941 V 85.6445 Z M 381.941,0.0117188 H 347.383 V 162.285 h 81.035 c 28.457,0 38.437,-2.91 49.141,-14.836 9.492,-10.222 14.589,-23.601 14.589,-37.957 0,-17.0311 -6.796,-32.8436 -18,-42.3436 -9.48,-8.0156 -18.25,-10.4492 -36.738,-10.4492 H 381.941 V 0.0117188" /><path
         id="path18"
         style="fill:#3568bb;fill-opacity:1;fill-rule:nonzero;stroke:none"
         d="M 643.938,0.0117188 H 609.387 V 66.9141 H 546.863 V 0.0117188 h -34.55 V 162.285 h 34.55 V 95.8672 h 62.524 v 66.4178 h 34.551 V 0.0117188" /><path
         id="path20"
         style="fill:#3568bb;fill-opacity:1;fill-rule:nonzero;stroke:none"
         d="m 710.398,120.684 c -5.117,-8.028 -7.539,-20.9184 -7.539,-38.2035 0,-37.9492 13.125,-55.2227 42.329,-55.2227 28.707,0 41.855,17.2735 41.855,54.7422 0,37.961 -12.895,54.992 -41.855,54.992 -15.801,0 -28.223,-5.84 -34.79,-16.308 z m 99.028,18.73 c 9.976,-13.137 15.562,-34.531 15.562,-59.6093 0,-28.457 -9.004,-51.8164 -25.054,-64.707 C 787.766,5.37109 769.285,0.0117188 747.371,0.0117188 c -31.133,0 -55.699,10.2226812 -68.355,28.4648812 -9.496,13.3789 -14.121,31.1406 -14.121,52.7929 0,31.1325 8.511,54.7465 24.57,67.4025 12.652,10.215 32.613,15.808 55.484,15.808 28.946,0 52.071,-9.003 64.477,-25.066" /><path
         id="path22"
         style="fill:#3568bb;fill-opacity:1;fill-rule:nonzero;stroke:none"
         d="M 3.51563,29.5117 H 88.1367 c 13.1333,0 20.3323,1.2422 24.5393,3.9727 5.215,3.2265 8.183,8.6836 8.183,15.1289 0,7.6875 -3.964,14.375 -10.656,17.6055 -3.473,1.9843 -9.91,2.9687 -17.8592,2.9687 H 57.0391 C 37.207,69.1875 24.3047,72.6641 15.625,80.0977 5.71094,88.7773 0,102.168 0,116.563 c 0,21.074 11.6602,39.421 28.7695,45.371 7.4414,2.734 16.1133,3.476 35.4688,3.476 H 150.48 V 135.898 H 72.168 c -15.625,-0.253 -21.6719,-0.253 -26.875,-1.484 -6.9453,-1.738 -11.1602,-8.184 -11.1602,-16.867 0,-7.442 3.4727,-13.387 9.4219,-16.121 4.9609,-2.2268 13.7305,-2.7268 25.6367,-2.7268 h 26.5313 c 24.2973,0 37.4413,-3.7187 47.1093,-13.6406 7.441,-7.4336 12.402,-22.0703 12.402,-36.4453 0,-17.6172 -8.183,-33.9844 -21.074,-41.91408 C 125.977,1.50391 115.566,0 91.0156,0 H 3.51563 v 29.5117" /><path
         id="path24"
         style="fill:#3568bb;fill-opacity:1;fill-rule:nonzero;stroke:none"
         d="m 840.422,29.5117 h 84.605 c 13.149,0 20.356,1.2422 24.551,3.9727 5.219,3.2265 8.188,8.6836 8.188,15.1289 0,7.6875 -3.965,14.375 -10.664,17.6055 -3.481,1.9843 -9.907,2.9687 -17.856,2.9687 h -35.308 c -19.829,0 -32.739,3.4766 -41.411,10.9102 -9.922,8.6796 -15.625,22.0703 -15.625,36.4653 0,21.074 11.645,39.421 28.75,45.371 7.461,2.734 16.133,3.476 35.493,3.476 h 86.226 V 135.898 H 909.07 c -15.625,-0.253 -21.66,-0.253 -26.875,-1.484 -6.953,-1.738 -11.172,-8.184 -11.172,-16.867 0,-7.442 3.481,-13.387 9.438,-16.121 4.961,-2.2268 13.727,-2.7268 25.644,-2.7268 h 26.524 c 24.312,0 37.437,-3.7187 47.129,-13.6406 7.422,-7.4336 12.383,-22.0703 12.383,-36.4453 0,-17.6172 -8.188,-33.9844 -21.078,-41.91408 C 962.883,1.50391 952.473,0 927.922,0 h -87.5 v 29.5117" /></g></g></svg>