<?xml version="1.0" encoding="UTF-8"?>
<svg version="1.1" xmlns="http://www.w3.org/2000/svg" width="920" height="500">
<path d="M0 0 C303.6 0 607.2 0 920 0 C920 165 920 330 920 500 C616.4 500 312.8 500 0 500 C0 335 0 170 0 0 Z " fill="#FEFEFE" transform="translate(0,0)"/>
<path d="M0 0 C3.45199407 1.09469851 4.95003646 2.91592018 6.8125 5.9375 C7.25207031 6.62714844 7.69164062 7.31679687 8.14453125 8.02734375 C9 10 9 10 8 13 C2.98960142 15.65857884 -1.37647098 16.50670798 -7 17 C-6.67644531 17.53882813 -6.35289062 18.07765625 -6.01953125 18.6328125 C-3.67988455 24.06509564 -4.32159104 30.84505391 -6.0625 36.375 C-10.46040325 42.33344956 -15.71944791 46.34130031 -23 48 C-25.83125308 48.29865539 -28.6600907 48.49809658 -31.5 48.6953125 C-34.62398537 49.07604822 -36.649846 49.89296538 -39 52 C-39 52.99 -39 53.98 -39 55 C-38.40574219 55.01458252 -37.81148438 55.02916504 -37.19921875 55.04418945 C-34.46554366 55.11938678 -31.73299583 55.21580522 -29 55.3125 C-28.06542969 55.33505859 -27.13085938 55.35761719 -26.16796875 55.38085938 C-16.76206347 55.74262496 -9.54806478 57.96689338 -3 65 C0.76815 70.22678871 0.76996846 75.78715101 0 82 C-1.83912617 88.63936113 -6.36060426 93.24372404 -12 97 C-24.01281835 102.63487871 -39.38323709 102.44417997 -52 99 C-58.1228118 96.30921206 -62.98051323 92.03897354 -66 86 C-66.09608608 84.16871229 -66.12982579 82.33380041 -66.125 80.5 C-66.12757813 79.5203125 -66.13015625 78.540625 -66.1328125 77.53125 C-66 75 -66 75 -65 73 C-59.39 73 -53.78 73 -48 73 C-47.86979167 75.24609375 -47.73958333 77.4921875 -47.609375 79.73828125 C-47.15509356 82.08597317 -47.15509356 82.08597317 -45.4453125 83.7734375 C-42.03368637 85.48470045 -38.85159517 85.39797237 -35.125 85.3125 C-34.43019531 85.31572266 -33.73539062 85.31894531 -33.01953125 85.32226562 C-28.65070165 85.27701409 -25.05904538 84.59689716 -21 83 C-20.75045995 81.56589632 -20.52607358 80.12739928 -20.3125 78.6875 C-20.18488281 77.88699219 -20.05726563 77.08648437 -19.92578125 76.26171875 C-19.78606036 73.9423006 -19.78606036 73.9423006 -21.29296875 72.26953125 C-24.61553065 69.79851839 -27.9518789 69.79247016 -31.953125 69.5703125 C-33.13003906 69.49683594 -34.30695313 69.42335938 -35.51953125 69.34765625 C-37.99048575 69.2001752 -40.4618541 69.05945964 -42.93359375 68.92578125 C-54.5663056 68.17732978 -54.5663056 68.17732978 -60 65 C-62.67318615 60.99022077 -62.82169451 57.71436848 -62 53 C-59.40175105 49.68001523 -56.34916225 47.50471536 -53 45 C-53.54269531 44.62488281 -54.08539063 44.24976563 -54.64453125 43.86328125 C-55.35996094 43.35152344 -56.07539063 42.83976562 -56.8125 42.3125 C-57.52019531 41.81363281 -58.22789062 41.31476563 -58.95703125 40.80078125 C-62.54503386 37.63812503 -63.85091538 35.08635302 -64.50390625 30.328125 C-64.74684182 23.00879789 -64.66090864 16.6823975 -59.828125 10.765625 C-51.01670334 2.25544853 -41.08578698 1.78771849 -29.296875 1.734375 C-25.88648876 2.00914546 -23.2273807 2.90869696 -20 4 C-14.08598115 4.62405598 -8.10715551 5.18716024 -2.9375 1.875 C-1.968125 1.25625 -0.99875 0.6375 0 0 Z " fill="#040404" transform="translate(339,214)"/>
<path d="M0 0 C48.73307292 0 48.73307292 0 58.75 9.1875 C65.22747158 16.21340739 66.68917238 23.02957341 66.3828125 32.49609375 C65.57156818 39.92146265 63.16835035 46.92891481 57.96875 52.43359375 C48.95770263 59.60309771 39.73738861 61.17680001 28.625 61.0625 C25.77875 61.041875 22.9325 61.02125 20 61 C20 72.55 20 84.1 20 96 C13.4 96 6.8 96 0 96 C0 64.32 0 32.64 0 0 Z " fill="#040404" transform="translate(110,192)"/>
<path d="M0 0 C3.96 0 7.92 0 12 0 C12 32.34 12 64.68 12 98 C8.37 98 4.74 98 1 98 C1 95.03 1 92.06 1 89 C0.34 89 -0.32 89 -1 89 C-1.20625 89.5775 -1.4125 90.155 -1.625 90.75 C-4.33784463 95.18920031 -9.17653664 97.42595663 -14 99 C-21.68489385 99.76929917 -30.03430287 100.56969993 -36.40234375 95.53125 C-36.92957031 95.0259375 -37.45679688 94.520625 -38 94 C-38.53753906 93.5153125 -39.07507813 93.030625 -39.62890625 92.53125 C-47.42548561 84.55880795 -49.44141011 75.10249046 -49.5 64.3125 C-49.50628418 63.43384277 -49.51256836 62.55518555 -49.51904297 61.64990234 C-49.33117033 51.94071741 -46.45428999 43.36451038 -40 36 C-33.76327326 30.12587365 -27.35576203 29.25343451 -19.12890625 29.4206543 C-10.85494194 29.8701248 -6.87370347 32.12629653 -1 38 C-0.67 25.46 -0.34 12.92 0 0 Z " fill="#040404" transform="translate(516,190)"/>
<path d="M0 0 C0.33 2.31 0.66 4.62 1 7 C1.56847656 6.59007812 2.13695312 6.18015625 2.72265625 5.7578125 C10.71790871 0.17848775 18.1665879 -2.38458964 28 -1 C33.16362246 1.08266106 36.93600264 4.34272402 40 9 C41.05946564 12.17839691 41.12064296 14.41845348 41.11352539 17.7565918 C41.11344986 18.93758957 41.11337433 20.11858734 41.11329651 21.33537292 C41.10813522 22.61044205 41.10297394 23.88551117 41.09765625 25.19921875 C41.0962413 26.50454056 41.09482635 27.80986237 41.09336853 29.15473938 C41.0895538 32.62189656 41.07973244 36.08901174 41.06866455 39.55615234 C41.05842798 43.09537182 41.0538661 46.6345981 41.04882812 50.17382812 C41.03810923 57.1159044 41.02052087 64.05794585 41 71 C34.73 71 28.46 71 22 71 C21.97494385 69.40494629 21.9498877 67.80989258 21.92407227 66.16650391 C21.83012181 60.26618988 21.7298712 54.36599699 21.62768555 48.46582031 C21.58428978 45.90888293 21.5426182 43.35191569 21.50268555 40.79492188 C21.44509531 37.12621041 21.38136862 33.45764989 21.31640625 29.7890625 C21.29969376 28.64007477 21.28298126 27.49108704 21.26576233 26.30728149 C21.2358445 24.71585831 21.2358445 24.71585831 21.20532227 23.09228516 C21.18977798 22.15518707 21.1742337 21.21808899 21.15821838 20.25259399 C21.14220015 17.96486209 21.14220015 17.96486209 20 16 C14.26661881 15.48809096 10.52981987 15.98190197 5.68945312 19.19320679 C2.25029495 22.87122991 2.91321861 27.65291757 3 32.42578125 C2.9836853 34.07987251 2.9836853 34.07987251 2.96704102 35.76737976 C2.94088156 39.28341312 2.96972938 42.79654383 3 46.3125 C2.99190884 48.69858277 2.98023232 51.08465626 2.96484375 53.47070312 C2.9349865 59.31450859 2.95445247 65.15631535 3 71 C-2.94 71 -8.88 71 -15 71 C-15.02505615 69.25984619 -15.0501123 67.51969238 -15.07592773 65.72680664 C-15.16016498 59.94727269 -15.24841472 54.16780731 -15.33933926 48.38837528 C-15.39426791 44.88777087 -15.44763608 41.38715778 -15.49731445 37.88647461 C-15.55463 33.85261921 -15.61895497 29.818901 -15.68359375 25.78515625 C-15.70030624 24.54105484 -15.71701874 23.29695343 -15.73423767 22.01515198 C-15.84250025 15.60716042 -16.16122041 9.35502399 -17 3 C-5.015625 -1.671875 -5.015625 -1.671875 0 0 Z " fill="#050505" transform="translate(227,217)"/>
<path d="M0 0 C4.99260118 3.74962993 7.31706322 8.44913077 8.8828125 14.4140625 C9.27040418 18.3269014 9.23358471 22.20405699 9.17578125 26.1328125 C9.17153641 27.23129517 9.16729156 28.32977783 9.16291809 29.46154785 C9.14621911 32.9459761 9.10858246 36.42981111 9.0703125 39.9140625 C9.05525435 42.28644994 9.04156793 44.65884651 9.02929688 47.03125 C8.99634423 52.82574698 8.94462215 58.61980439 8.8828125 64.4140625 C5.2528125 64.4140625 1.6228125 64.4140625 -2.1171875 64.4140625 C-2.6121875 60.9490625 -2.6121875 60.9490625 -3.1171875 57.4140625 C-3.77074219 58.02894531 -3.77074219 58.02894531 -4.4375 58.65625 C-5.03304687 59.19507813 -5.62859375 59.73390625 -6.2421875 60.2890625 C-6.82226562 60.82273437 -7.40234375 61.35640625 -8 61.90625 C-14.76394903 66.72337975 -23.19808279 66.09381398 -31.1171875 65.4140625 C-37.09930787 63.8188304 -40.69296335 60.44968625 -44.1171875 55.4140625 C-46.66265211 49.95949547 -47.16861801 44.06745078 -45.5 38.26953125 C-42.51010677 31.35044205 -37.24255027 27.88645563 -30.6015625 24.7578125 C-25.19474112 22.80730609 -19.79446834 23.08800558 -14.1171875 23.2265625 C-13.05628906 23.24009766 -11.99539063 23.25363281 -10.90234375 23.26757812 C-8.30675063 23.30265371 -5.71224683 23.35180406 -3.1171875 23.4140625 C-3.38695241 21.80922502 -3.67096258 20.2067779 -3.9609375 18.60546875 C-4.11755859 17.71287354 -4.27417969 16.82027832 -4.43554688 15.90063477 C-5.40531052 12.363012 -7.26425303 10.62508672 -10.1171875 8.4140625 C-15.21288716 5.86621267 -22.77794044 6.73868933 -28.09375 8.2734375 C-30.48026621 9.24493967 -32.79568559 10.29812819 -35.1171875 11.4140625 C-36.1071875 11.7440625 -37.0971875 12.0740625 -38.1171875 12.4140625 C-38.1171875 8.7840625 -38.1171875 5.1540625 -38.1171875 1.4140625 C-26.1636573 -4.03534097 -12.00532589 -7.28458758 0 0 Z " fill="#060606" transform="translate(677.1171875,223.5859375)"/>
<path d="M0 0 C7.02213885 5.92980614 10.5822008 13.00986413 12 22 C12 25.63 12 29.26 12 33 C-3.18 33 -18.36 33 -34 33 C-31.81925839 42.81333723 -29.73709644 47.23833244 -22 53 C-12.94695682 56.01768106 -4.45482747 53.61106697 4 50 C4.99 49.67 5.98 49.34 7 49 C7 52.96 7 56.92 7 61 C0.16868995 64.50287808 -5.16223113 65.71483875 -12.8125 65.625 C-13.77865234 65.61734619 -14.74480469 65.60969238 -15.74023438 65.60180664 C-25.37864821 65.30283432 -32.68071917 62.8410593 -39.5 55.6875 C-47.20366544 45.39322141 -47.8883708 33.4886909 -47 21 C-45.22934362 12.04521549 -40.44433286 4.97051346 -33.06640625 -0.41015625 C-23.5213059 -6.13721646 -9.30471363 -6.22341413 0 0 Z " fill="#060606" transform="translate(452,224)"/>
<path d="M0 0 C6.64839875 4.91457619 9.75552479 10.66473296 12.08203125 18.5390625 C12.08203125 23.4890625 12.08203125 28.4390625 12.08203125 33.5390625 C-3.09796875 33.5390625 -18.27796875 33.5390625 -33.91796875 33.5390625 C-30.58141825 45.45937192 -30.58141825 45.45937192 -22.48046875 52.8515625 C-16.05386022 55.78362784 -8.66106371 55.64317649 -1.96484375 53.66796875 C0.43646389 52.7095521 2.75285402 51.6586863 5.08203125 50.5390625 C6.07203125 50.2090625 7.06203125 49.8790625 8.08203125 49.5390625 C8.08203125 53.8290625 8.08203125 58.1190625 8.08203125 62.5390625 C0.96134853 65.05224464 -5.54936801 65.88778234 -13.04296875 65.9765625 C-13.87731445 65.99847656 -14.71166016 66.02039063 -15.57128906 66.04296875 C-24.52754104 66.01474897 -31.60742197 62.6560082 -38.125 56.59375 C-46.44368378 47.06079212 -46.77947305 34.69921335 -46.13574219 22.62792969 C-45.28480033 14.46575641 -41.17694613 7.56008321 -35.12890625 2.1640625 C-25.05735719 -5.23834811 -10.88571619 -6.46282985 0 0 Z " fill="#050505" transform="translate(776.91796875,223.4609375)"/>
<path d="M0 0 C7.05537668 5.20218206 9.78341432 11.13636362 12.08203125 19.53515625 C12.08203125 24.15515625 12.08203125 28.77515625 12.08203125 33.53515625 C-3.09796875 33.53515625 -18.27796875 33.53515625 -33.91796875 33.53515625 C-30.33658092 46.10060365 -30.33658092 46.10060365 -21.15625 53.8046875 C-12.96410915 56.4782134 -4.76497587 54.65805237 2.9375 51.41015625 C5.08203125 50.53515625 5.08203125 50.53515625 7.08203125 50.53515625 C7.08203125 54.16515625 7.08203125 57.79515625 7.08203125 61.53515625 C-3.32249207 66.13715695 -14.63094411 67.3452169 -25.88671875 64.88671875 C-33.97451926 61.55477277 -40.26809823 55.39641583 -43.91796875 47.53515625 C-45.97113152 41.68810575 -46.28415133 36.33234897 -46.29296875 30.16015625 C-46.31746094 29.26554687 -46.34195313 28.3709375 -46.3671875 27.44921875 C-46.40707353 18.30202199 -43.05151125 10.34831565 -36.91796875 3.53515625 C-27.16914115 -5.27853201 -11.29513624 -6.72463335 0 0 Z " fill="#050505" transform="translate(578.91796875,223.46484375)"/>
<path d="M0 0 C15.18 0 30.36 0 46 0 C46 3.63 46 7.26 46 11 C34.78 11 23.56 11 12 11 C12 19.91 12 28.82 12 38 C22.89 38 33.78 38 45 38 C45 41.63 45 45.26 45 49 C34.11 49 23.22 49 12 49 C12 62.53 12 76.06 12 90 C8.04 90 4.08 90 0 90 C0 60.3 0 30.6 0 0 Z " fill="#000000" transform="translate(357,197)"/>
<path d="M0 0 C0 6.27 0 12.54 0 19 C5.94 19 11.88 19 18 19 C18 22.3 18 25.6 18 29 C12.06 29 6.12 29 0 29 C0.05112509 34.58797196 0.11416125 40.17319412 0.20751953 45.76025391 C0.2356792 47.65925154 0.25691858 49.5583653 0.27099609 51.45751953 C0.29249518 54.19363638 0.33918008 56.92836452 0.390625 59.6640625 C0.39185364 60.50804596 0.39308228 61.35202942 0.39434814 62.22158813 C0.54026178 68.14420608 1.71136441 71.71136441 6 76 C8.01964199 76.07244053 10.04167124 76.08377188 12.0625 76.0625 C13.16722656 76.05347656 14.27195312 76.04445313 15.41015625 76.03515625 C16.26480469 76.02355469 17.11945312 76.01195312 18 76 C18 79.3 18 82.6 18 86 C11.80497569 88.0650081 3.63482788 88.15751959 -2.625 86.1640625 C-7.64804038 83.32908895 -10.15640573 79.37197343 -12 74 C-12.50030105 70.44277622 -12.46913976 66.96140085 -12.390625 63.375 C-12.38496521 62.38749756 -12.37930542 61.39999512 -12.37347412 60.38256836 C-12.35123369 57.25453482 -12.30106027 54.12768239 -12.25 51 C-12.22991907 48.86850622 -12.2116711 46.73699434 -12.1953125 44.60546875 C-12.15140929 39.40319658 -12.08246753 34.20179796 -12 29 C-16.62 29 -21.24 29 -26 29 C-26 25.7 -26 22.4 -26 19 C-21.38 19 -16.76 19 -12 19 C-12 14.05 -12 9.1 -12 4 C-2.25 0 -2.25 0 0 0 Z " fill="#070707" transform="translate(713,202)"/>
<path d="M0 0 C5.71141434 2.5682821 8.82766712 6.52747637 11.30859375 12.16796875 C14.21047565 19.85713603 14.22547919 28.78295433 11.3125 36.5 C9.02426188 41.39876329 6.48458797 45.43825899 1.8125 48.375 C-3.16889417 49.48197648 -8.22823403 50.1286547 -13.0625 48.16015625 C-17.81312556 45.11934635 -20.01398525 41.16962633 -22 36 C-22.4125 34.9275 -22.825 33.855 -23.25 32.75 C-25.06303248 23.68483759 -24.88333498 15.06027735 -20 7 C-14.7029494 -0.09244516 -8.60859092 -1.81659782 0 0 Z " fill="#FBFBFB" transform="translate(503,230)"/>
<path d="M0 0 C0 23.76 0 47.52 0 72 C-6.27 72 -12.54 72 -19 72 C-19.02255299 63.02078894 -19.04091622 54.04159655 -19.05181217 45.06236362 C-19.05704051 40.89337172 -19.06413726 36.72440013 -19.07543945 32.55541992 C-19.08627008 28.53542314 -19.09227721 24.51544595 -19.09487724 20.49543571 C-19.09673118 18.95837025 -19.10035119 17.42130591 -19.10573006 15.88424873 C-19.11294284 13.73864513 -19.11399084 11.59312345 -19.11352539 9.44750977 C-19.115746 8.22395279 -19.11796661 7.00039581 -19.12025452 5.73976135 C-19 3 -19 3 -18 2 C-16.30237558 1.59762189 -14.59087858 1.25309075 -12.875 0.9375 C-11.47894531 0.67259766 -11.47894531 0.67259766 -10.0546875 0.40234375 C-7 0 -7 0 0 0 Z " fill="#070707" transform="translate(201,216)"/>
<path d="M0 0 C1.14984375 0.01546875 2.2996875 0.0309375 3.484375 0.046875 C6.25 0.25 6.25 0.25 7.25 1.25 C7.32205511 2.93608966 7.33386068 4.62500659 7.3125 6.3125 C7.30347656 7.23160156 7.29445313 8.15070313 7.28515625 9.09765625 C7.27355469 9.80792969 7.26195312 10.51820313 7.25 11.25 C5.94675781 11.27126953 5.94675781 11.27126953 4.6171875 11.29296875 C-2.74239259 11.35624811 -2.74239259 11.35624811 -9.3125 14.1875 C-17.37036973 24.31149017 -16.40939966 36.06178227 -16.5 48.375 C-16.52819703 50.30471388 -16.55812959 52.23440322 -16.58984375 54.1640625 C-16.66326604 58.85933067 -16.71311119 63.55430849 -16.75 68.25 C-21.04 68.25 -25.33 68.25 -29.75 68.25 C-29.75 46.14 -29.75 24.03 -29.75 1.25 C-25.79 1.25 -21.83 1.25 -17.75 1.25 C-17.42 3.89 -17.09 6.53 -16.75 9.25 C-16.028125 8.321875 -15.30625 7.39375 -14.5625 6.4375 C-10.51683996 1.23593709 -6.50840768 -0.14724904 0 0 Z " fill="#0E0E0E" transform="translate(625.75,219.75)"/>
<path d="M0 0 C2.536875 -0.061875 5.07375 -0.12375 7.6875 -0.1875 C8.47729248 -0.21481201 9.26708496 -0.24212402 10.08081055 -0.27026367 C14.62874377 -0.32374171 17.40045972 0.20770956 21 3 C24.95510365 7.38268242 25.56790544 10.90287086 25.328125 16.59765625 C24.69379969 21.24182368 22.68430718 25.08325682 19 28 C15.23508833 29.25497056 11.72793525 29.10661648 7.8125 29.0625 C5.234375 29.041875 2.65625 29.02125 0 29 C0 19.43 0 9.86 0 0 Z " fill="#FAFAFA" transform="translate(130,208)"/>
<path d="M0 0 C0.57619206 11.99333111 0.57619206 11.99333111 -3 17 C-8.54379014 22.42552261 -12.37852832 23.39599146 -20.00390625 23.359375 C-24.47687674 22.82285181 -26.06372334 21.3330708 -29 18 C-30.57455739 14.85088521 -30.34799118 12.47991184 -30 9 C-27.14043531 4.20331085 -24.23876762 2.01235844 -18.890625 0.45703125 C-12.64756792 -0.53004669 -6.29839795 -0.20865858 0 0 Z " fill="#F9F9F9" transform="translate(674,256)"/>
<path d="M0 0 C4.90338361 3.38566963 7.15939008 7.07219447 8.625 12.8125 C8.625 14.1325 8.625 15.4525 8.625 16.8125 C-2.265 16.8125 -13.155 16.8125 -24.375 16.8125 C-23.32109049 8.3812239 -22.25477841 5.24887516 -16.1875 -0.125 C-10.76505329 -2.17347987 -5.42453258 -1.90863183 0 0 Z " fill="#FAFAFA" transform="translate(768.375,231.1875)"/>
<path d="M0 0 C4.24261676 2.35332648 7.06363294 5.40037295 9.5 9.5625 C10 12 10 12 10 18 C-0.89 18 -11.78 18 -23 18 C-20.74572127 7.85574572 -20.74572127 7.85574572 -17.5 4.5 C-16.8915625 3.8503125 -16.283125 3.200625 -15.65625 2.53125 C-11.3873153 -1.41550095 -5.44610461 -0.83733858 0 0 Z " fill="#FAFAFA" transform="translate(441,230)"/>
<path d="M0 0 C3.40341774 2.45362674 6.11100093 4.99625234 7.6875 8.9375 C7.6875 11.5775 7.6875 14.2175 7.6875 16.9375 C-2.8725 16.9375 -13.4325 16.9375 -24.3125 16.9375 C-24.3125 10.27870291 -23.30969928 7.92074579 -19.3125 2.9375 C-13.61251511 -2.36481152 -7.12703074 -2.28602873 0 0 Z " fill="#FAFAFA" transform="translate(570.3125,231.0625)"/>
<path d="M0 0 C3.50403427 1.71308342 4.81021699 2.71532549 7 6 C7.43121354 11.34704794 7.46830537 14.66461829 4 19 C2.09180914 21.12836673 0.7416826 21.88589498 -2.08203125 22.3203125 C-6.11881639 22.52114758 -8.4092612 22.3519295 -11.9375 20.25 C-14.78206465 17.14683856 -15.82909642 15.31026074 -16.375 11.125 C-15.77900167 6.15834721 -13.46526893 3.22765775 -9.6875 0.0625 C-6.0317752 -1.38278655 -3.78455577 -0.94613894 0 0 Z " fill="#060606" transform="translate(196,187)"/>
<path d="M0 0 C4.08989028 1.80716082 6.62509936 4.21775083 9 8 C9.67005882 11.93659559 9.18848006 13.64398212 7.3125 17.1875 C4.20635319 20.96524611 1.93140988 22.71234321 -2.9375 23.4375 C-7.44345091 22.79379273 -10.55773563 20.83560919 -13.375 17.25 C-14.33334998 13.79994008 -14.58048115 10.51785566 -14 7 C-10.28937969 1.11418847 -6.90600742 -0.59534547 0 0 Z " fill="#E5E5E5" transform="translate(801,199)"/>
<path d="M0 0 C1.29550781 -0.02126953 1.29550781 -0.02126953 2.6171875 -0.04296875 C5.31611813 0.20506382 6.86285306 0.71367699 9.125 2.1875 C11.8040573 6.20608595 11.82110694 9.46391721 11.125 14.1875 C9.33106332 17.05779869 8.14236724 18.67881638 5.125 20.1875 C-0.08171061 20.83257919 -3.69209835 21.1048523 -7.9375 17.8125 C-10.9745729 13.69775607 -11.31175031 11.3411537 -10.875 6.1875 C-7.69349491 1.30919219 -5.69575028 0.04225334 0 0 Z " fill="#F7F7F7" transform="translate(303.875,229.8125)"/>
<path d="M0 0 C4.08989028 1.80716082 6.62509936 4.21775083 9 8 C9.67005882 11.93659559 9.18848006 13.64398212 7.3125 17.1875 C4.20635319 20.96524611 1.93140988 22.71234321 -2.9375 23.4375 C-7.44345091 22.79379273 -10.55773563 20.83560919 -13.375 17.25 C-14.33334998 13.79994008 -14.58048115 10.51785566 -14 7 C-10.28937969 1.11418847 -6.90600742 -0.59534547 0 0 Z M-9.5 4.5 C-11.59470675 7.99117791 -11.74310088 11.09097973 -11 15 C-9.69788858 18.12804555 -9.69788858 18.12804555 -7 20 C-4.19603336 20.64927916 -1.80859156 20.61131562 1 20 C4.34238038 17.85744848 4.89167954 16.39717502 5.9375 12.5625 C6.00698608 8.60179332 5.43366566 7.06461602 3 4 C-1.14796041 1.9260198 -5.6311148 2.17866888 -9.5 4.5 Z " fill="#151515" transform="translate(801,199)"/>
<path d="M0 0 C6.15234375 -0.09765625 6.15234375 -0.09765625 8 0 C9 1 9 1 9.125 3.375 C9 6 9 6 8 9 C8.38932856 11.14255793 8.38932856 11.14255793 9 13 C8.01 12.67 7.02 12.34 6 12 C4.8125 9.4375 4.8125 9.4375 4 7 C3.34 7 2.68 7 2 7 C2 8.98 2 10.96 2 13 C1.34 13 0.68 13 0 13 C0 8.71 0 4.42 0 0 Z " fill="#090909" transform="translate(794,204)"/>
<path d="M0 0 C2.4375 1 2.4375 1 4 2 C4 2.66 4 3.32 4 4 C3.24074219 3.96519531 2.48148438 3.93039063 1.69921875 3.89453125 C0.70535156 3.86746094 -0.28851562 3.84039062 -1.3125 3.8125 C-2.29863281 3.77769531 -3.28476562 3.74289063 -4.30078125 3.70703125 C-7.00428292 3.77484242 -7.00428292 3.77484242 -8.8125 5.3125 C-10.51700899 7.73469698 -10.67769537 10.09925835 -11 13 C-11.99 12.34 -12.98 11.68 -14 11 C-13.80641369 6.83789425 -13.23034176 5.25227907 -10.375 2.125 C-6.45678455 -0.34202454 -4.54490402 -0.58915423 0 0 Z " fill="#252525" transform="translate(801,199)"/>
<path d="M0 0 C2.82405426 0.05637858 3.75432284 0.08136713 6.0625 1.8125 C6.5575 2.555 6.5575 2.555 7.0625 3.3125 C6.4025 4.6325 5.7425 5.9525 5.0625 7.3125 C4.7325 5.9925 4.4025 4.6725 4.0625 3.3125 C1.4225 2.9825 -1.2175 2.6525 -3.9375 2.3125 C-3.9375 6.2725 -3.9375 10.2325 -3.9375 14.3125 C-4.2675 14.3125 -4.5975 14.3125 -4.9375 14.3125 C-5.2675 11.3425 -5.5975 8.3725 -5.9375 5.3125 C-6.9275 5.8075 -6.9275 5.8075 -7.9375 6.3125 C-5.88699937 1.91857008 -5.1505287 0.40877212 0 0 Z " fill="#D7D7D7" transform="translate(797.9375,201.6875)"/>
<path d="M0 0 C2.475 0.495 2.475 0.495 5 1 C5.144375 1.9075 5.28875 2.815 5.4375 3.75 C5.86409473 6.21476956 6.35074221 8.58847107 7 11 C2.94089532 9.64696511 2.0786931 7.65563269 0 4 C0 2.68 0 1.36 0 0 Z " fill="#6A6A6A" transform="translate(796,206)"/>
<path d="M0 0 C0.66 0.99 1.32 1.98 2 3 C3.0828125 4.485 3.0828125 4.485 4.1875 6 C5.0846875 7.485 5.0846875 7.485 6 9 C5.67 9.99 5.34 10.98 5 12 C1.94389514 9.33570345 0.19348639 7.71866373 -0.875 3.75 C-0.91625 2.8425 -0.9575 1.935 -1 1 C-0.67 0.67 -0.34 0.34 0 0 Z " fill="#141414" transform="translate(788,209)"/>
<path d="M0 0 C-0.33 0.66 -0.66 1.32 -1 2 C-3.06640625 2.4140625 -3.06640625 2.4140625 -5.5625 2.625 C-6.38878906 2.69976562 -7.21507812 2.77453125 -8.06640625 2.8515625 C-9.02353516 2.92503906 -9.02353516 2.92503906 -10 3 C-10.33 2.01 -10.66 1.02 -11 0 C-3.375 -1.125 -3.375 -1.125 0 0 Z " fill="#2B2B2B" transform="translate(805,219)"/>
<path d="M0 0 C0.33 0 0.66 0 1 0 C1 3.63 1 7.26 1 11 C-2 8 -2 8 -2.3125 4.9375 C-2 2 -2 2 0 0 Z " fill="#F9F9F9" transform="translate(792,206)"/>
</svg>
