<svg width="463" height="54" viewBox="0 0 463 54" fill="none" xmlns="http://www.w3.org/2000/svg">
<path d="M65.3531 20.4515C64.2703 20.4515 63.3513 20.099 62.5959 19.3939C61.8657 18.6889 61.5005 17.8328 61.5005 16.8256C61.5005 15.768 61.8657 14.8993 62.5959 14.2195C63.3513 13.5145 64.2703 13.1619 65.3531 13.1619C66.4358 13.1619 67.3423 13.5145 68.0725 14.2195C68.8027 14.8993 69.1678 15.768 69.1678 16.8256C69.1678 17.8328 68.8027 18.6889 68.0725 19.3939C67.3423 20.099 66.4358 20.4515 65.3531 20.4515ZM61.916 43V23.5108H68.7523V43H61.916ZM73.3502 43V23.5108H80.0732L80.1487 25.9281C80.6523 24.9713 81.3951 24.2285 82.3772 23.6997C83.3592 23.1709 84.4923 22.9065 85.7764 22.9065C87.9671 22.9065 89.6289 23.6116 90.762 25.0216C91.9203 26.4065 92.4994 28.4461 92.4994 31.1403V43H85.6631V32.4245C85.6631 30.1331 84.7944 28.9874 83.057 28.9874C82.1254 28.9874 81.4077 29.3148 80.9041 29.9695C80.4257 30.5989 80.1865 31.5054 80.1865 32.6889V43H73.3502ZM98.9581 43V28.9874H95.8232V23.5108H98.9581V21.6223C98.9581 18.6259 99.6883 16.3094 101.149 14.6727C102.634 13.036 104.724 12.2177 107.418 12.2177C108.199 12.2177 108.929 12.2806 109.609 12.4065C110.314 12.5073 110.906 12.6583 111.384 12.8598L111.044 18.5252C110.767 18.3993 110.427 18.3112 110.025 18.2608C109.647 18.1853 109.294 18.1475 108.967 18.1475C107.884 18.1475 107.079 18.4623 106.55 19.0918C106.046 19.7213 105.794 20.7159 105.794 22.0756V23.5108H110.402V28.9874H105.794V43H98.9581ZM113.424 43V12.4065H120.26V43H113.424ZM131.299 43.6043C129.158 43.6043 127.522 42.9245 126.389 41.5648C125.256 40.1799 124.689 38.1655 124.689 35.5216V23.5108H131.563V34.1241C131.563 35.2824 131.764 36.1385 132.167 36.6925C132.595 37.2464 133.263 37.5234 134.169 37.5234C135.076 37.5234 135.768 37.2086 136.246 36.5792C136.75 35.9245 137.002 35.0054 137.002 33.822V23.5108H143.838V43H137.115L137.04 40.5827C136.536 41.5396 135.781 42.2824 134.773 42.8112C133.791 43.3399 132.633 43.6043 131.299 43.6043ZM146.936 43L154.037 32.9533L147.314 23.5108H154.943L158.116 28.7986L161.213 23.5108H168.465L161.78 33.0288L168.918 43H161.251L157.701 37.1079L154.188 43H146.936ZM180.891 43.6043C179.154 43.6043 177.593 43.1763 176.208 42.3201C174.848 41.464 173.778 40.2806 172.997 38.7698C172.217 37.2338 171.826 35.4964 171.826 33.5576C171.826 31.6943 172.242 30.0072 173.073 28.4964C173.929 26.9605 175.075 25.7518 176.51 24.8705C177.945 23.9641 179.531 23.5108 181.269 23.5108C182.704 23.5108 184.013 23.8633 185.197 24.5684C186.406 25.2734 187.375 26.268 188.105 27.5522V12.4065H191.316V43H188.181L188.105 39.563C187.35 40.8471 186.355 41.8417 185.121 42.5468C183.888 43.2518 182.477 43.6043 180.891 43.6043ZM181.722 40.7338C183.031 40.7338 184.177 40.4317 185.159 39.8273C186.141 39.223 186.909 38.3795 187.463 37.2968C188.042 36.214 188.332 34.9676 188.332 33.5576C188.332 32.1475 188.042 30.9011 187.463 29.8184C186.909 28.7356 186.141 27.8921 185.159 27.2878C184.177 26.6835 183.031 26.3813 181.722 26.3813C180.438 26.3813 179.292 26.6835 178.285 27.2878C177.303 27.8921 176.522 28.7356 175.943 29.8184C175.389 30.9011 175.112 32.1475 175.112 33.5576C175.112 34.9676 175.389 36.214 175.943 37.2968C176.522 38.3795 177.303 39.223 178.285 39.8273C179.292 40.4317 180.438 40.7338 181.722 40.7338ZM208.166 43.6043C206.68 43.6043 205.333 43.2518 204.125 42.5468C202.941 41.8417 202.009 40.8471 201.33 39.563L201.254 43H198.119V12.4065H201.33V27.5522C202.085 26.268 203.08 25.2734 204.313 24.5684C205.547 23.8633 206.957 23.5108 208.544 23.5108C210.306 23.5108 211.867 23.9389 213.227 24.795C214.587 25.6511 215.657 26.8346 216.437 28.3454C217.218 29.8561 217.608 31.5935 217.608 33.5576C217.608 35.4209 217.18 37.1205 216.324 38.6565C215.493 40.1673 214.36 41.3759 212.925 42.2824C211.515 43.1637 209.928 43.6043 208.166 43.6043ZM207.713 40.7338C209.022 40.7338 210.168 40.4317 211.15 39.8273C212.132 39.223 212.9 38.3795 213.454 37.2968C214.033 36.214 214.322 34.9676 214.322 33.5576C214.322 32.1475 214.033 30.9011 213.454 29.8184C212.9 28.7356 212.132 27.8921 211.15 27.2878C210.168 26.6835 209.022 26.3813 207.713 26.3813C206.429 26.3813 205.283 26.6835 204.276 27.2878C203.294 27.8921 202.513 28.7356 201.934 29.8184C201.38 30.9011 201.103 32.1475 201.103 33.5576C201.103 34.9676 201.38 36.214 201.934 37.2968C202.513 38.3795 203.294 39.223 204.276 39.8273C205.283 40.4317 206.429 40.7338 207.713 40.7338ZM240.147 43.6043C238.259 43.6043 236.572 43.1637 235.086 42.2824C233.6 41.4011 232.417 40.205 231.536 38.6943C230.68 37.1835 230.251 35.4712 230.251 33.5576C230.251 31.6691 230.692 29.9695 231.573 28.4587C232.455 26.9479 233.638 25.7518 235.124 24.8705C236.635 23.9641 238.309 23.5108 240.147 23.5108C242.036 23.5108 243.723 23.9515 245.208 24.8328C246.719 25.7141 247.902 26.9101 248.759 28.4209C249.615 29.9317 250.043 31.6439 250.043 33.5576C250.043 35.4209 249.602 37.1205 248.721 38.6565C247.84 40.1673 246.644 41.3759 245.133 42.2824C243.647 43.1637 241.985 43.6043 240.147 43.6043ZM240.147 40.7338C241.456 40.7338 242.602 40.4317 243.584 39.8273C244.566 39.223 245.334 38.3795 245.888 37.2968C246.467 36.214 246.757 34.9676 246.757 33.5576C246.757 32.1475 246.467 30.9011 245.888 29.8184C245.334 28.7356 244.566 27.8921 243.584 27.2878C242.602 26.6835 241.456 26.3813 240.147 26.3813C238.863 26.3813 237.717 26.6835 236.71 27.2878C235.728 27.8921 234.947 28.7356 234.368 29.8184C233.814 30.9011 233.537 32.1475 233.537 33.5576C233.537 34.9676 233.814 36.214 234.368 37.2968C234.947 38.3795 235.728 39.223 236.71 39.8273C237.717 40.4317 238.863 40.7338 240.147 40.7338ZM255.511 52.2536V24.1151H258.533L258.609 27.7788C259.339 26.3939 260.333 25.3364 261.592 24.6062C262.851 23.8759 264.299 23.5108 265.936 23.5108C267.698 23.5108 269.26 23.9389 270.619 24.795C271.979 25.6511 273.049 26.8346 273.83 28.3454C274.61 29.8561 275.001 31.5935 275.001 33.5576C275.001 35.4209 274.573 37.1205 273.716 38.6565C272.885 40.1673 271.752 41.3759 270.317 42.2824C268.907 43.1637 267.321 43.6043 265.558 43.6043C264.073 43.6043 262.738 43.2644 261.555 42.5845C260.396 41.8795 259.452 40.8849 258.722 39.6007V52.2536H255.511ZM265.105 40.7338C266.414 40.7338 267.56 40.4317 268.542 39.8273C269.524 39.223 270.292 38.3795 270.846 37.2968C271.425 36.214 271.715 34.9676 271.715 33.5576C271.715 32.1475 271.425 30.9011 270.846 29.8184C270.292 28.7356 269.524 27.8921 268.542 27.2878C267.56 26.6835 266.414 26.3813 265.105 26.3813C263.821 26.3813 262.675 26.6835 261.668 27.2878C260.686 27.8921 259.905 28.7356 259.326 29.8184C258.772 30.9011 258.495 32.1475 258.495 33.5576C258.495 34.9676 258.772 36.214 259.326 37.2968C259.905 38.3795 260.686 39.223 261.668 39.8273C262.675 40.4317 263.821 40.7338 265.105 40.7338ZM289.807 43.6043C287.667 43.6043 285.803 43.2014 284.217 42.3957C282.656 41.5899 281.447 40.4442 280.591 38.9586C279.76 37.4479 279.345 35.6727 279.345 33.6331C279.345 31.6439 279.748 29.8939 280.553 28.3831C281.359 26.8723 282.467 25.6889 283.877 24.8328C285.287 23.9515 286.899 23.5108 288.712 23.5108C290.424 23.5108 291.909 23.9011 293.168 24.6817C294.453 25.4623 295.447 26.545 296.152 27.9299C296.882 29.3148 297.248 30.9389 297.248 32.8022C297.248 33.1295 297.235 33.4317 297.21 33.7087C297.21 33.9856 297.197 34.2752 297.172 34.5774H282.517C282.744 36.5666 283.499 38.0899 284.784 39.1475C286.068 40.205 287.793 40.7338 289.958 40.7338C292.174 40.7338 294.339 40.2176 296.454 39.1853L296.832 41.9047C295.976 42.4335 294.918 42.8489 293.659 43.1511C292.426 43.4532 291.141 43.6043 289.807 43.6043ZM288.523 26.268C286.886 26.268 285.539 26.7842 284.481 27.8166C283.424 28.8238 282.782 30.2338 282.555 32.0468H294.15C294.15 31.7698 294.125 31.5054 294.075 31.2536C293.873 29.6421 293.282 28.4083 292.3 27.5522C291.343 26.6961 290.084 26.268 288.523 26.268ZM303.092 43V24.1151H306.114L306.152 27.3633C306.681 26.1547 307.499 25.2105 308.607 24.5306C309.74 23.8508 311.024 23.5108 312.459 23.5108C314.7 23.5108 316.425 24.2159 317.634 25.6259C318.842 27.0108 319.447 29 319.447 31.5935V43H316.236V32.1601C316.236 28.2824 314.725 26.3436 311.704 26.3436C310.017 26.3436 308.695 26.8975 307.738 28.0054C306.781 29.1133 306.303 30.6367 306.303 32.5756V43H303.092ZM339.199 43.6043C338.015 43.6043 336.832 43.4406 335.648 43.1133C334.49 42.786 333.558 42.3579 332.853 41.8291L333.344 38.9964C334.15 39.5755 335.082 40.0414 336.139 40.3939C337.222 40.7464 338.242 40.9227 339.199 40.9227C340.609 40.9227 341.704 40.6835 342.485 40.205C343.265 39.7014 343.656 39.0216 343.656 38.1655C343.656 37.6115 343.53 37.1583 343.278 36.8058C343.026 36.4281 342.573 36.0881 341.918 35.786C341.263 35.4586 340.319 35.1187 339.085 34.7662C336.97 34.1367 335.46 33.3813 334.553 32.5C333.647 31.6187 333.193 30.473 333.193 29.063C333.193 27.3508 333.823 26.0036 335.082 25.0216C336.366 24.0144 338.103 23.5108 340.294 23.5108C341.326 23.5108 342.371 23.6619 343.429 23.9641C344.487 24.241 345.343 24.5936 345.997 25.0216L345.469 27.741C343.857 26.7087 342.107 26.1925 340.219 26.1925C338.96 26.1925 337.99 26.4191 337.31 26.8723C336.63 27.3004 336.29 27.9173 336.29 28.7231C336.29 29.5036 336.58 30.1205 337.159 30.5738C337.738 31.027 338.808 31.4802 340.37 31.9335C342.787 32.6385 344.474 33.4443 345.431 34.3507C346.413 35.2572 346.904 36.4658 346.904 37.9766C346.904 39.6637 346.199 41.0234 344.789 42.0558C343.379 43.0881 341.515 43.6043 339.199 43.6043ZM360.575 43.6043C358.686 43.6043 356.999 43.1637 355.514 42.2824C354.028 41.4011 352.845 40.205 351.963 38.6943C351.107 37.1835 350.679 35.4712 350.679 33.5576C350.679 31.6691 351.12 29.9695 352.001 28.4587C352.882 26.9479 354.066 25.7518 355.552 24.8705C357.062 23.9641 358.737 23.5108 360.575 23.5108C362.463 23.5108 364.15 23.9515 365.636 24.8328C367.147 25.7141 368.33 26.9101 369.186 28.4209C370.043 29.9317 370.471 31.6439 370.471 33.5576C370.471 35.4209 370.03 37.1205 369.149 38.6565C368.267 40.1673 367.071 41.3759 365.561 42.2824C364.075 43.1637 362.413 43.6043 360.575 43.6043ZM360.575 40.7338C361.884 40.7338 363.03 40.4317 364.012 39.8273C364.994 39.223 365.762 38.3795 366.316 37.2968C366.895 36.214 367.185 34.9676 367.185 33.5576C367.185 32.1475 366.895 30.9011 366.316 29.8184C365.762 28.7356 364.994 27.8921 364.012 27.2878C363.03 26.6835 361.884 26.3813 360.575 26.3813C359.291 26.3813 358.145 26.6835 357.138 27.2878C356.156 27.8921 355.375 28.7356 354.796 29.8184C354.242 30.9011 353.965 32.1475 353.965 33.5576C353.965 34.9676 354.242 36.214 354.796 37.2968C355.375 38.3795 356.156 39.223 357.138 39.8273C358.145 40.4317 359.291 40.7338 360.575 40.7338ZM382.473 43.6043C380.333 43.6043 378.684 42.9622 377.526 41.6781C376.392 40.3687 375.826 38.5054 375.826 36.0881V24.1151H379.036V35.1817C379.036 37.1709 379.389 38.6061 380.094 39.4874C380.799 40.3435 381.957 40.7716 383.569 40.7716C385.205 40.7716 386.49 40.2176 387.421 39.1097C388.378 37.9766 388.856 36.4533 388.856 34.5396V24.1151H392.067V43H389.045L388.97 39.7518C388.466 40.9856 387.648 41.9424 386.515 42.6223C385.382 43.277 384.035 43.6043 382.473 43.6043ZM398.881 43V24.1151H401.903L401.941 28.0432C402.469 26.7338 403.237 25.7141 404.245 24.9839C405.252 24.2285 406.398 23.8508 407.682 23.8508C408.059 23.8508 408.462 23.8885 408.89 23.9641C409.344 24.0396 409.683 24.1403 409.91 24.2662L409.57 27.2878C409.243 27.1619 408.878 27.0612 408.475 26.9856C408.072 26.8849 407.682 26.8346 407.304 26.8346C405.692 26.8346 404.421 27.4389 403.489 28.6475C402.558 29.8561 402.092 31.5432 402.092 33.7087V43H398.881ZM422.919 43.491C420.829 43.491 419.016 43.0881 417.48 42.2824C415.944 41.4766 414.748 40.3435 413.892 38.8831C413.061 37.3975 412.645 35.6601 412.645 33.6709C412.645 31.6817 413.073 29.9317 413.929 28.4209C414.785 26.9101 415.981 25.7392 417.517 24.9083C419.053 24.0522 420.841 23.6241 422.881 23.6241C423.863 23.6241 424.845 23.75 425.827 24.0018C426.809 24.2536 427.69 24.5936 428.471 25.0216L428.017 27.7788C427.312 27.4011 426.481 27.099 425.525 26.8723C424.568 26.6205 423.687 26.4946 422.881 26.4946C420.791 26.4946 419.104 27.1367 417.82 28.4209C416.561 29.6799 415.931 31.3795 415.931 33.5198C415.931 35.7356 416.573 37.473 417.857 38.732C419.142 39.991 420.892 40.6205 423.107 40.6205C423.938 40.6205 424.782 40.5198 425.638 40.3184C426.519 40.1169 427.463 39.8022 428.471 39.3741L428.848 42.0558C428.043 42.509 427.111 42.8615 426.053 43.1133C425.021 43.3651 423.976 43.491 422.919 43.491ZM443.283 43.6043C441.143 43.6043 439.28 43.2014 437.693 42.3957C436.132 41.5899 434.923 40.4442 434.067 38.9586C433.236 37.4479 432.821 35.6727 432.821 33.6331C432.821 31.6439 433.224 29.8939 434.03 28.3831C434.835 26.8723 435.943 25.6889 437.353 24.8328C438.763 23.9515 440.375 23.5108 442.188 23.5108C443.9 23.5108 445.386 23.9011 446.645 24.6817C447.929 25.4623 448.923 26.545 449.629 27.9299C450.359 29.3148 450.724 30.9389 450.724 32.8022C450.724 33.1295 450.711 33.4317 450.686 33.7087C450.686 33.9856 450.673 34.2752 450.648 34.5774H435.994C436.22 36.5666 436.976 38.0899 438.26 39.1475C439.544 40.205 441.269 40.7338 443.434 40.7338C445.65 40.7338 447.816 40.2176 449.931 39.1853L450.308 41.9047C449.452 42.4335 448.395 42.8489 447.136 43.1511C445.902 43.4532 444.618 43.6043 443.283 43.6043ZM441.999 26.268C440.362 26.268 439.015 26.7842 437.958 27.8166C436.9 28.8238 436.258 30.2338 436.031 32.0468H447.627C447.627 31.7698 447.602 31.5054 447.551 31.2536C447.35 29.6421 446.758 28.4083 445.776 27.5522C444.819 26.6961 443.56 26.268 441.999 26.268Z" fill="#020A47"/>
<path fill-rule="evenodd" clip-rule="evenodd" d="M32.3034 38.6372L42.5565 36.2864C42.7145 36.2544 42.8641 36.1899 42.9958 36.0969C43.1274 36.0039 43.2383 35.8846 43.3213 35.7464C43.4043 35.6082 43.4576 35.4543 43.4778 35.2944C43.498 35.1345 43.4847 34.9721 43.4387 34.8177L39.0783 15.9059C38.9996 15.5938 38.8003 15.3257 38.5241 15.1603C38.2479 14.9949 37.9174 14.9459 37.6051 15.0238L27.3562 17.3746C27.046 17.4542 26.7799 17.6534 26.6162 17.9286C26.4524 18.2038 26.4043 18.5327 26.4825 18.8433L30.8302 37.7551C30.9089 38.0672 31.1082 38.3353 31.3844 38.5006C31.6606 38.666 31.9911 38.7151 32.3034 38.6372Z" fill="#020A47"/>
<path fill-rule="evenodd" clip-rule="evenodd" d="M28.7703 50.3235L41.2015 38.8144C41.67 38.3417 41.5518 38.0505 40.906 38.2826L32.3624 40.224C32.0091 40.3113 31.6835 40.4862 31.4157 40.7326C31.1479 40.979 30.9465 41.2889 30.8302 41.6336L28.2384 49.9732C28.0611 50.6189 28.2975 50.7962 28.7703 50.3235Z" fill="#020A47"/>
<path fill-rule="evenodd" clip-rule="evenodd" d="M6.09025 46.5673L24.7054 52.3198C25.0234 52.379 25.3522 52.3232 25.6329 52.1624C25.9136 52.0016 26.1279 51.7462 26.2377 51.4419L29.3571 41.4564C29.4022 41.3006 29.4162 41.1375 29.3982 40.9764C29.3802 40.8152 29.3305 40.6592 29.2521 40.5173C29.1737 40.3753 29.068 40.2503 28.9411 40.1493C28.8143 40.0482 28.6687 39.9732 28.5128 39.9286L9.8977 34.231C9.58257 34.1408 9.24459 34.179 8.95751 34.3371C8.67043 34.4953 8.45759 34.7606 8.36543 35.075L5.26713 45.0395C5.17511 45.3512 5.20997 45.6867 5.36413 45.9728C5.5183 46.259 5.77927 46.4726 6.09025 46.5673Z" fill="#020A47"/>
<path fill-rule="evenodd" clip-rule="evenodd" d="M0.0792906 26.1277L3.85297 42.6507C3.97116 43.2965 4.27508 43.2965 4.43971 42.6507L7.03148 34.3111C7.11979 33.9558 7.12341 33.5847 7.04203 33.2277C6.96064 32.8707 6.79654 32.5378 6.56293 32.2558L0.611152 25.8323C0.197482 25.3469 -0.11066 25.482 0.0792906 26.1277Z" fill="#020A47"/>
<path fill-rule="evenodd" clip-rule="evenodd" d="M14.6338 8.46517L0.374854 21.6625C0.146094 21.8802 0.0117872 22.1789 0.000739528 22.4945C-0.0103081 22.8101 0.102784 23.1175 0.315758 23.3507L7.44523 31.0614C7.66493 31.2944 7.96774 31.4314 8.28786 31.4424C8.60797 31.4535 8.91951 31.3378 9.15479 31.1205L23.4095 17.9021C23.6403 17.6855 23.776 17.3864 23.787 17.0702C23.7981 16.7539 23.6836 16.4461 23.4686 16.2139L16.3518 8.50737C16.2423 8.39087 16.1108 8.29728 15.9649 8.23201C15.8189 8.16675 15.6614 8.13112 15.5016 8.1272C15.3418 8.12327 15.1828 8.15112 15.0338 8.20914C14.8848 8.26716 14.7489 8.35418 14.6338 8.46517Z" fill="#020A47"/>
<path fill-rule="evenodd" clip-rule="evenodd" d="M28.4158 38.3417C29.0659 38.519 29.4753 38.1687 29.3022 37.4976L25.1782 19.6452C25.0009 18.9994 24.4691 18.8222 24.0005 19.2907L10.5689 31.7663C10.0962 32.2347 10.2143 32.7623 10.8602 32.9396L28.4158 38.3417Z" fill="#020A47"/>
<path fill-rule="evenodd" clip-rule="evenodd" d="M35.427 13.4411L19.1672 8.46523C18.5214 8.28797 18.4032 8.52432 18.9309 9.05187L24.8826 15.4543C25.1496 15.7038 25.4725 15.8858 25.8243 15.9849C26.1761 16.084 26.5465 16.0975 26.9046 16.024L35.4481 14.0869C36.077 13.9096 36.077 13.6142 35.427 13.4411Z" fill="#020A47"/>
<path d="M453.623 17.93V13.913H452.128V13.12H456.028V13.913H454.546V17.93H453.623ZM456.86 17.93L457.107 13.12H458.004L459.473 16.175L460.968 13.12H461.865L462.112 17.93H461.293L461.137 14.368L459.811 17.098H459.161L457.822 14.342L457.679 17.93H456.86Z" fill="#020A47"/>
</svg>
