<?xml version="1.0" encoding="UTF-8" standalone="no"?>
<!-- Created with Inkscape (http://www.inkscape.org/) -->

<svg
   width="384.52887mm"
   height="85.666023mm"
   viewBox="0 0 384.52887 85.666023"
   version="1.1"
   id="svg5"
   xmlns="http://www.w3.org/2000/svg"
   xmlns:svg="http://www.w3.org/2000/svg">
  <defs
     id="defs2" />
  <g
     id="layer1"
     transform="translate(106.29784,20.062556)">
    <path
       style="fill:#041e42;stroke-width:0.264583;fill-opacity:1;stroke:#041e42;stroke-opacity:1"
       d="m -69.90132,60.945607 c -10.113698,-1.99455 -18.635095,-3.70858 -18.936438,-3.80895 -1.289684,-0.42957 -3.019563,-1.79496 -3.661155,-2.88976 -0.375951,-0.64151 -3.432797,-9.31255 -6.792992,-19.26897 -5.888635,-17.44832 -6.104965,-18.16198 -5.985505,-19.74605 0.088,-1.16689 0.34401,-2.02284 0.88283,-2.95164 0.41739,-0.7195 6.517037,-7.7465495 13.554777,-15.6156795 11.395333,-12.7415115 12.954438,-14.3850905 14.244403,-15.0162125 1.04856,-0.513012 1.862212,-0.709301 2.946816,-0.7109 1.701136,-0.0025 37.940427,7.028962 39.43499,7.651532 1.187336,0.49459 2.831891,2.0552405 3.459752,3.2832505 0.260411,0.50932 3.12691,8.78415996 6.37,18.3885395 6.601044,19.54893 6.670749,19.83383 5.481082,22.40309 -0.483511,1.04421 -3.960488,5.11147 -13.418839,15.69691 -7.021425,7.85812 -13.245853,14.61382 -13.832056,15.01265 -1.300264,0.88465 -2.593836,1.26556 -4.168498,1.22746 -0.654844,-0.0158 -9.465469,-1.66071 -19.579167,-3.65527 z m 21.823715,0.62868 c 0.751705,-0.3567 2.72324,-2.35228 5.016474,-5.07763 l 0.658233,-0.78226 -1.115357,0.22513 c -0.832956,0.16814 -24.494101,1.45046 -29.028898,1.57323 -0.36626,0.01 -0.4968,0.0832 -0.292507,0.1641 1.013073,0.40142 21.254966,4.25722 22.477521,4.28166 0.791945,0.0158 1.798076,-0.15339 2.284534,-0.38423 z m -34.084731,-6.66509 c -0.48568,-0.69122 -4.253765,-6.58684 -8.373526,-13.10138 -4.119759,-6.51453 -7.533363,-11.80172 -7.585785,-11.7493 -0.189713,0.18972 7.368471,22.25985 7.859136,22.94892 0.87657,1.23103 1.881101,1.67644 5.412233,2.39979 1.891771,0.38753 3.469151,0.71679 3.50529,0.73167 0.03614,0.0149 -0.331668,-0.53847 -0.817348,-1.2297 z m 15.810074,-0.29655 1.829265,-0.16647 -11.578248,-6.69928 c -6.368037,-3.6846 -11.616971,-6.66056 -11.664297,-6.61323 -0.04733,0.0473 1.727552,2.94294 3.944173,6.4347 2.787362,4.39082 4.310854,6.54022 4.940237,6.96987 0.901903,0.61568 0.953677,0.61953 5.804812,0.43105 2.692136,-0.10459 5.717961,-0.26508 6.724058,-0.35664 z m 16.817414,-0.84428 c 6.844975,-0.33738 7.020364,-0.39685 8.440351,-2.86196 1.506964,-2.61611 5.123424,-9.58415 5.018744,-9.66991 -0.09479,-0.0777 -22.071997,12.61271 -22.385314,12.92603 -0.09782,0.0978 0.592092,0.11216 1.533136,0.0319 0.941044,-0.0803 4.26793,-0.27201 7.393083,-0.42604 z m 0.772557,-8.25283 c 7.603802,-4.3963 12.215209,-7.21837 12.567708,-7.69115 0.547471,-0.73427 0.557993,-0.98267 0.627645,-14.81667 0.06698,-13.3034895 0.04396,-14.1197395 -0.422651,-14.9854095 -0.412303,-0.76492 -1.686316,-1.60833 -7.743756,-5.12645 -15.695814,-9.11602 -17.236813,-9.9653 -18.08175,-9.9653 -1.123968,0 -25.169434,13.87103 -25.696809,14.82364 -0.293992,0.53104 -0.363853,3.3741995 -0.370393,15.0742795 l -0.0081,14.41979 0.594,0.70669 c 0.3267,0.38868 5.95181,3.80911 12.500248,7.60095 10.111875,5.85522 12.065751,6.89498 12.964583,6.89911 0.906891,0.004 2.77703,-0.98883 13.069237,-6.93948 z m 19.54317,-4.48499 c 6.653704,-7.4803 7.978836,-9.10258 8.221083,-10.06463 0.15884,-0.63081 0.222784,-1.43987 0.142102,-1.79791 -0.222745,-0.98848 -2.24522,-7.13328 -2.34782,-7.13328 -0.04942,0 -0.226914,0.41528 -0.394427,0.92285 -0.167513,0.50757 -3.450966,6.90222 -7.296563,14.21034 -3.845594,7.30812 -6.99199,13.34772 -6.99199,13.42134 0,0.18822 -0.118343,0.31873 8.667615,-9.55871 z m -61.38134,-24.20285 -0.07065,-6.8315195 -3.505729,6.6686595 c -2.95885,5.62837 -3.50573,6.85056 -3.50573,7.83472 0,1.21775 -0.11231,1.01639 5.573259,9.99208 l 1.4382,2.27046 0.07065,-6.55145 c 0.03886,-3.60329 0.03886,-9.62562 0,-13.38295 z m 61.12575,12.15033 c 3.288731,-6.26322 3.59047,-6.99531 3.523511,-8.54885 -0.02466,-0.57237 -6.102008,-10.6584295 -6.907677,-11.4640995 -0.177422,-0.17742 -0.265359,4.1799395 -0.265359,13.1490195 0,7.37791 0.04725,13.41438 0.104992,13.41438 0.05774,0 1.652786,-2.9477 3.544533,-6.55045 z m -70.486266,-6.52329 c 0.08881,-0.35383 2.953189,-5.9418 6.365297,-12.4177 7.686725,-14.5887895 8.037245,-15.2862495 7.333966,-14.5929395 -1.992333,1.96408 -15.729846,17.6237595 -16.050456,18.2962395 -0.21861,0.45855 -0.39748,1.35135 -0.39748,1.98398 0,1.2769 2.03652,7.71408 2.37442,7.50525 0.11704,-0.0723 0.28545,-0.42101 0.374253,-0.77483 z M -29.0643,4.4409375 c -2.066838,-6.18408 -4.01383,-11.60322 -4.326646,-12.04254 -0.312817,-0.43931 -0.946325,-0.99604 -1.407795,-1.23719 -0.70534,-0.36858 -5.978346,-1.6239105 -6.969514,-1.6592105 -0.170305,-0.006 3.030355,5.2574905 7.112576,11.6967905 9.290918,14.6554895 9.182375,14.4859395 9.273527,14.4859395 0.04166,0 -1.615308,-5.05971 -3.682148,-11.2437895 z m -10.55602,-6.27164 c -4.476716,-7.05468 -4.373113,-6.91508 -5.544304,-7.47084 -0.784815,-0.37242 -1.581415,-0.38348 -7.379783,-0.10243 -3.575002,0.17328 -6.435796,0.38248 -6.357321,0.46489 0.278201,0.29217 23.000939,13.42676 23.096395,13.35058 0.05336,-0.0426 -1.66338,-2.85158 -3.814987,-6.2422 z m -36.566944,-0.34395 c 6.045621,-3.4925 10.953271,-6.39153 10.905892,-6.4423 -0.04738,-0.0508 -3.16008,0.0468 -6.91711,0.21689 -7.562231,0.34228 -8.681818,0.56702 -9.712418,1.94955 -0.854977,1.14694 -5.861071,10.85335 -5.532607,10.72727 0.145315,-0.0558 5.210622,-2.95891 11.256243,-6.45141 z m 10.735077,-9.1196105 c 8.049578,-0.41184 14.679269,-0.79247 14.732648,-0.84585 0.05338,-0.0534 -5.06649,-1.09857 -11.377488,-2.322654 -13.818711,-2.680275 -12.627922,-2.74411 -16.089402,0.862514 -2.56176,2.66918 -3.222847,3.56495 -2.395149,3.24542 0.27159,-0.10485 7.079816,-0.52759 15.129391,-0.93943 z m 102.532908,67.0855 c -10.75181,-2.04585 -16.853379,-9.19918 -18.056186,-21.16861 -1.383927,-13.77182 2.304392,-22.65355 11.218937,-27.0159695 3.463666,-1.69498 6.351315,-2.33044 10.583333,-2.32897 10.168586,0.004 16.600864,3.6052 20.079076,11.2430395 1.16187,2.55137 1.899222,5.4278 2.43083,9.48275 0.459411,3.50425 0.366573,7.70879 -0.184885,8.37326 -0.243856,0.29382 -3.213106,0.35799 -16.567071,0.35799 H 30.31479 l 0.184547,1.47705 c 0.419346,3.35634 1.984071,6.35526 4.142714,7.93984 1.769025,1.29859 3.46587,1.89864 6.382665,2.25709 5.218703,0.64134 9.242052,-0.94167 12.702567,-4.9979 0.401307,-0.47039 0.906685,-0.85525 1.123066,-0.85525 0.660662,0 7.539998,5.58633 7.539998,6.12282 0,0.67669 -3.25474,4.05069 -5.147313,5.33591 -1.956646,1.32873 -5.159163,2.69832 -7.949562,3.39972 -2.763771,0.69469 -9.457693,0.90146 -12.212751,0.37723 z m 14.598364,-31.0351 c -0.630365,-5.04525 -2.921807,-8.06051 -7.148113,-9.40604 -1.964325,-0.62539 -6.002277,-0.51948 -7.666956,0.20108 -3.604485,1.56022 -5.631301,4.52784 -6.189964,9.06323 l -0.203694,1.65365 h 10.698813 10.698816 z m 76.460215,31.01771 c -6.81877,-1.09455 -11.27485,-4.6301 -12.69174,-10.06991 -0.53264,-2.04493 -0.52551,-6.32489 0.014,-8.41748 1.16429,-4.51575 4.49017,-8.03979 9.31844,-9.87364 3.70493,-1.40719 5.91469,-1.69244 14.40564,-1.85956 l 7.87135,-0.15494 v -2.16383 c 0,-2.86584 -0.54627,-4.41707 -2.10407,-5.97486 -1.55268,-1.55268 -3.12213,-2.11599 -6.39755,-2.29619 -5.039,-0.27723 -8.34295,1.24823 -9.72821,4.4916 -0.64424,1.50836 -0.3151,1.4732 -6.70718,0.71641 -5.57603,-0.66018 -5.85496,-0.75494 -5.62398,-1.91059 0.64117,-3.2078 2.2566,-5.88349 4.83727,-8.01215 6.88474,-5.6788595 19.57637,-6.6999695 28.63414,-2.3037895 2.52624,1.22611 6.12746,4.7152595 7.21582,6.9912895 1.52757,3.19445 1.51543,3.01629 1.51543,22.22605 0,17.19129 -0.0138,17.66948 -0.51179,17.93607 -0.29961,0.16036 -2.53108,0.2739 -5.38294,0.2739 -5.81648,0 -5.74694,0.0331 -5.74694,-2.73282 0,-1.04955 -0.11194,-1.7651 -0.27613,-1.7651 -0.15187,0 -0.59836,0.31053 -0.99219,0.69007 -3.7728,3.63592 -10.79247,5.31014 -17.64939,4.20947 z m 10.54515,-9.02286 c 3.38791,-0.8735 6.14536,-2.86413 7.33026,-5.29178 0.56555,-1.1587 0.63535,-1.66121 0.6401,-4.60782 l 0.005,-3.30729 -5.89004,-0.0712 c -6.41413,-0.0776 -8.19706,0.15294 -10.59943,1.37031 -1.54192,0.78136 -3.04304,2.38406 -3.4838,3.71957 -0.18083,0.54792 -0.27786,1.73761 -0.21817,2.67497 0.17463,2.74256 1.76015,4.50034 4.9779,5.51872 1.61109,0.5099 5.24964,0.50715 7.23785,-0.005 z m 45.00023,9.02369 c -2.29571,-0.49963 -4.90439,-1.8563 -6.70827,-3.48872 -0.85796,-0.77641 -1.63049,-1.41165 -1.71675,-1.41165 -0.0863,0 -0.15682,0.81498 -0.15682,1.81107 0,2.72178 0.0779,2.68685 -5.98717,2.68685 -3.55127,0 -5.11236,-0.0929 -5.33699,-0.3175 -0.24358,-0.24358 -0.3175,-8.06479 -0.3175,-33.59278 0,-32.6275 0.01,-33.2806 0.51178,-33.54917 0.29858,-0.1598 2.50272,-0.27389 5.29167,-0.27389 4.42711,0 4.81893,0.0391 5.30905,0.52917 0.51176,0.51174 0.52916,0.88194 0.52916,11.24479046 0,5.89359004 0.0648,10.71562954 0.14389,10.71562954 0.0791,0 0.86267,-0.5981995 1.74122,-1.3293195 3.56073,-2.96328 7.30755,-3.97048 12.70849,-3.41624 5.21608,0.53527 8.75131,2.17589 11.9874,5.5630695 3.1537,3.30095 4.71673,6.46062 5.87796,11.88249 0.38118,1.77971 0.48167,3.43586 0.48167,7.9375 0,5.38697 -0.0396,5.84029 -0.74618,8.55105 -1.78194,6.83584 -4.41108,10.83827 -9.11788,13.88043 -3.71647,2.40206 -10.0914,3.53555 -14.49473,2.57722 z m 6.3168,-10.4121 c 2.86673,-1.41129 4.68413,-4.05238 5.66685,-8.23516 0.6718,-2.85946 0.6523,-10.24148 -0.0339,-12.84374 -1.63047,-6.18298 -5.17867,-9.3927 -10.38321,-9.3927 -4.47556,0 -7.82357,3.06756 -9.2167,8.44471 -1.04953,4.05092 -0.97259,11.58715 0.15615,15.29399 1.20891,3.97011 3.40022,6.47055 6.58511,7.51409 0.3638,0.1192 1.74514,0.1858 3.06962,0.14801 2.10436,-0.06 2.62869,-0.17727 4.1561,-0.9292 z m 58.07715,10.51818 c -2.69735,-0.39569 -4.80094,-1.04783 -7.35473,-2.2801 -2.17469,-1.04935 -2.84601,-1.5498 -5.03629,-3.75448 -4.56483,-4.59483 -6.28009,-9.31438 -6.76203,-18.60565 -0.69702,-13.43845 4.48767,-21.9291195 15.42182,-25.2554495 2.11839,-0.64445 2.71359,-0.70731 6.69086,-0.70662 4.68585,7.9e-4 6.65443,0.30327 9.8829,1.51847 2.45261,0.92316 3.96907,1.86682 5.89471,3.6681595 2.7192,2.54368 4.80782,6.38675 5.8043,10.67989 1.00843,4.34481 1.49764,11.11195 0.91424,12.64648 l -0.25805,0.67868 -16.07997,0.004 c -8.84402,0.002 -16.23862,0.10461 -16.43251,0.22751 -0.43278,0.27434 -0.20492,2.11822 0.52459,4.24521 1.76022,5.13225 5.42229,7.41564 11.90903,7.42557 4.26635,0.007 7.01133,-1.17754 9.85803,-4.25232 0.79671,-0.86053 1.66333,-1.5646 1.92582,-1.5646 0.2625,0 2.0547,1.24891 3.98272,2.77535 2.54,2.011 3.50544,2.93123 3.50544,3.34131 0,0.83112 -4.01,4.69972 -6.21771,5.99847 -2.26552,1.33276 -6.69226,2.8335 -9.47801,3.21319 -2.36609,0.3225 -6.48552,0.32102 -8.69516,-0.003 z m 13.80755,-30.49642 c 0,-0.48604 -0.23096,-1.78674 -0.51324,-2.89043 -0.85138,-3.32888 -2.41536,-5.2888 -5.30582,-6.64909 -1.50826,-0.70979 -2.06579,-0.82208 -4.49969,-0.90622 -3.1142,-0.10767 -4.81626,0.34051 -6.82829,1.79801 -2.08558,1.5108 -3.62368,4.58759 -3.93811,7.8778 l -0.15804,1.65365 h 10.6216 10.62159 z M 4.5788894,54.980567 c -3.650435,-0.67782 -6.421385,-2.13958 -7.726217,-4.07582 -0.323678,-0.48031 -0.86082,-1.54685 -1.193644,-2.37009 -0.601403,-1.48757 -0.605957,-1.59481 -0.737431,-17.37181 l -0.132292,-15.875 -3.307291,-0.13229 c -1.8190114,-0.0728 -3.4561204,-0.22862 -3.6380214,-0.34635 -0.240972,-0.15595 -0.330729,-1.31856 -0.330729,-4.28386 0,-2.9652995 0.08976,-4.1278995 0.330729,-4.2838595 0.181901,-0.11773 1.81901,-0.27359 3.6380214,-0.34635 l 3.307291,-0.13229 0.132292,-6.21771004 0.132292,-6.21770996 5.125246,-0.072 c 3.556574,-0.0499 5.236917,0.0207 5.490104,0.23084 0.290632,0.2412 0.364858,1.53421 0.364858,6.35581996 V 5.8951075 h 5.5373506 c 4.681177,0 5.601636,0.0643 5.953125,0.41578 0.339365,0.33936 0.415774,1.11388 0.415774,4.2144295 0,3.10055 -0.07641,3.87507 -0.415774,4.21443 -0.351531,0.35154 -1.272792,0.41578 -5.962425,0.41578 H 6.0154944 l 0.07545,13.29531 c 0.07516,13.24567 0.07769,13.29951 0.675984,14.4195 1.115385,2.08795 3.4234586,2.97686 7.7295126,2.97686 1.214568,0 2.141294,0.12613 2.332657,0.3175 0.219146,0.21914 0.3175,1.56566 0.3175,4.34672 0,3.31016 -0.0742,4.10343 -0.415774,4.445 -0.350137,0.35014 -1.195967,0.41201 -5.357813,0.3919 -2.8178226,-0.0136 -5.7381106,-0.1717 -6.7941206,-0.36778 z m 63.7795826,-0.19638 c -0.36531,-0.52156 -0.41187,-3.25844 -0.41187,-24.20938 0,-23.2685595 0.008,-23.6292395 0.52916,-24.1504995 0.4887,-0.4887 0.88195,-0.52917 5.14215,-0.52917 2.53714,0 4.91839,0.11612 5.29167,0.25804 0.64365,0.24471 0.67868,0.35852 0.67868,2.20486 0,1.07075 0.0772,2.0240695 0.17166,2.1184795 0.0944,0.0944 0.83517,-0.4865795 1.64614,-1.2910995 1.63866,-1.62565 3.79064,-2.79181 6.38429,-3.45964 2.4924,-0.64177 7.69151,-0.57815 10.35464,0.1267 6.021348,1.59367 10.058958,5.4665495 11.787708,11.3067695 0.41849,1.41378 0.47249,3.33024 0.5484,19.46441 0.0761,16.17271 0.0432,17.93727 -0.34197,18.3224 -0.36151,0.36151 -1.17834,0.42617 -5.38378,0.42617 -3.55352,0 -5.083038,-0.0937 -5.400458,-0.33073 -0.40431,-0.30196 -0.449,-1.74652 -0.51359,-16.60261 l -0.0707,-16.27187 -0.636,-1.5793 c -0.76227,-1.89284 -2.72583,-3.96415 -4.65566,-4.91113 -1.14806,-0.56335 -1.69014,-0.64943 -4.10104,-0.65124 -2.46037,-0.002 -2.95052,0.0787 -4.28533,0.7044 -2.74644,1.28737 -4.6653,3.80548 -5.25024,6.88985 -0.14409,0.75979 -0.25402,8.01802 -0.25402,16.77214 0,14.98707 -0.0148,15.44061 -0.51177,15.70659 -0.2999,0.16051 -2.53918,0.2739 -5.40896,0.2739 -4.76067,0 -4.90866,-0.0164 -5.30906,-0.58804 z m 144.589108,0.0763 c -0.42085,-0.78635 -0.37804,-66.21784 0.0436,-66.63947 0.44839,-0.44839 10.55828,-0.44839 11.00666,0 0.46115,0.46115 0.46115,66.37259 0,66.83375 -0.22553,0.22552 -1.83237,0.3175 -5.54693,0.3175 -4.89942,0 -5.24674,-0.0323 -5.50333,-0.51178 z M 272.0117,9.4716175 c -2.62906,-1.14292 -2.49698,-5.24733 0.20365,-6.32791 1.3435,-0.53755 1.72181,-0.52643 3.08089,0.0906 1.27992,0.5811 1.93622,1.63631 1.93479,3.11069 -0.003,2.62053 -2.68589,4.2279595 -5.21933,3.1266 z m 3.83125,-1.33761 c 0.73652,-0.84239 0.80179,-2.63091 0.12642,-3.46467 -1.81756,-2.24381 -5.08736,-1.06218 -5.08736,1.83844 0,2.48247 3.27396,3.5556895 4.96094,1.62623 z m -3.37344,-1.84199 c 0,-1.92613 0.019,-1.98438 0.64424,-1.98438 1.18718,0 2.00159,0.4686 2.00159,1.15168 0,0.34959 -0.17716,0.78265 -0.3937,0.96235 -0.34483,0.28619 -0.32617,0.42157 0.15031,1.09073 l 0.54401,0.76399 h -0.54038 c -0.33705,0 -0.71694,-0.32357 -1.00954,-0.85989 l -0.46916,-0.8599 -0.0836,0.8599 c -0.0517,0.53233 -0.22836,0.85989 -0.46368,0.85989 -0.29662,0 -0.3801,-0.43577 -0.3801,-1.98437 z m 1.80229,-0.73064 c 0.0611,-0.3175 -0.0813,-0.45999 -0.45998,-0.45999 -0.37864,0 -0.54856,0.16993 -0.54856,0.54857 0,0.67803 0.87572,0.60111 1.00854,-0.0886 z"
       id="path910" />
  </g>
</svg>
