<?xml version="1.0" encoding="utf-8"?>
<!-- Generator: Adobe Illustrator 25.2.1, SVG Export Plug-In . SVG Version: 6.00 Build 0)  -->
<svg version="1.1" id="Outlined" xmlns="http://www.w3.org/2000/svg" xmlns:xlink="http://www.w3.org/1999/xlink" x="0px" y="0px"
	 viewBox="0 0 600 148" style="enable-background:new 0 0 600 148;" xml:space="preserve">
<style type="text/css">
	.st0{fill:#041E42;}
</style>
<path class="st0" d="M126.2,81.7l-15.8-47.1c-1.3-3.8-4.5-6.6-8.4-7.3l-49.5-9.7c-3.8-0.7-7.8,0.6-10.4,3.5L8.6,58.8
	c-2.6,3-3.5,7.1-2.2,10.9l15.8,47.1c1.3,3.8,4.5,6.6,8.4,7.3l49.4,9.6c0.7,0.1,1.4,0.2,2.1,0.2c3.2,0,6.2-1.3,8.3-3.7L124,92.6
	C126.6,89.6,127.5,85.5,126.2,81.7 M119.8,88.9l-33.6,37.6c-1.3,1.4-3.2,2.1-5.1,1.7l-49.5-9.7c-1.9-0.4-3.5-1.7-4.1-3.6L11.7,67.9
	C11,66,11.4,64,12.8,62.5l33.6-37.6c1-1.2,2.5-1.8,4.1-1.8c0.3,0,0.7,0,1,0.1l49.5,9.6c1.9,0.4,3.5,1.8,4.1,3.6l15.9,47.1
	C121.5,85.4,121.1,87.4,119.8,88.9"/>
<path class="st0" d="M172.8,64.8c-0.2,0.2-0.6,0.4-0.9,0.4h-10.8c-0.3,0-0.5,0.1-0.5,0.4c0,0,0,0.1,0,0.1v25.5
	c0,2.7,0.6,4.6,1.8,5.8c1.2,1.2,3,1.8,5.6,1.8h3.2c0.3,0,0.7,0.1,0.9,0.4c0.2,0.2,0.4,0.6,0.4,0.9v7.9c0,0.7-0.5,1.3-1.2,1.4
	c0,0,0,0,0,0l-5.5,0.1c-5.6,0-9.7-1-12.5-2.9c-2.8-1.9-4.2-5.5-4.2-10.8V65.7c0-0.3-0.1-0.5-0.4-0.5c0,0-0.1,0-0.1,0h-6
	c-0.3,0-0.7-0.1-0.9-0.4c-0.2-0.2-0.4-0.6-0.4-0.9v-7.4c0-0.7,0.6-1.3,1.2-1.3c0,0,0,0,0,0h6c0.3,0,0.5-0.1,0.5-0.4c0,0,0-0.1,0-0.1
	V42.3c0-0.3,0.1-0.7,0.4-0.9c0.2-0.2,0.6-0.4,0.9-0.4h9.2c0.7,0,1.3,0.6,1.3,1.2c0,0,0,0,0,0v12.4c0,0.3,0.1,0.5,0.4,0.5
	c0,0,0.1,0,0.1,0h10.8c0.7,0,1.3,0.6,1.3,1.2c0,0,0,0,0,0v7.4C173.2,64.3,173.1,64.6,172.8,64.8z"/>
<path class="st0" d="M225.6,82.1l-0.1,3.3c0.1,0.6-0.3,1.2-0.9,1.3c-0.1,0-0.2,0-0.3,0h-33.1c-0.3,0-0.5,0.1-0.5,0.4
	c0,0.1,0,0.1,0,0.2c0.1,1.6,0.4,3.2,0.9,4.8c1.7,5.1,5.8,7.7,12.4,7.7c4.6,0.1,8.9-2.1,11.4-5.9c0.2-0.4,0.6-0.6,1.1-0.6
	c0.3,0,0.5,0.1,0.7,0.3l6.6,5.4c0.5,0.3,0.7,1,0.4,1.5c0,0.1-0.1,0.1-0.1,0.2c-2.2,3.1-5.2,5.6-8.7,7.2c-3.8,1.7-7.9,2.6-12.1,2.5
	c-4.9,0.1-9.8-1.1-14-3.7c-3.8-2.5-6.8-6.1-8.4-10.4c-1.6-3.8-2.4-9.1-2.4-15.9c-0.1-3.4,0.3-6.8,1.3-10c1.3-4.7,4.1-8.8,8-11.7
	c4.1-2.9,9.1-4.4,14.1-4.3c13.9,0,21.7,7.3,23.5,21.8C225.5,78.1,225.6,80.1,225.6,82.1z M195.2,67c-1.8,1.4-3.1,3.3-3.6,5.4
	c-0.5,1.5-0.8,3.1-0.9,4.7c-0.1,0.4,0,0.5,0.4,0.5h21.5c0.3,0,0.5-0.1,0.5-0.4c0-0.1,0-0.1,0-0.2c-0.1-1.4-0.3-2.7-0.6-4
	c-0.5-2.4-1.9-4.5-3.8-5.9c-2-1.5-4.5-2.2-7-2.1C199.4,65,197.1,65.6,195.2,67z"/>
<path class="st0" d="M271.9,59.5c3.4,3.4,5.1,8,5.1,13.9v34.7c0,0.7-0.6,1.3-1.2,1.3c0,0,0,0,0,0h-9.7c-0.3,0-0.7-0.1-0.9-0.4
	c-0.2-0.2-0.4-0.6-0.4-0.9V75.9c0.1-2.9-0.9-5.7-2.8-7.9c-1.9-2-4.5-3.1-7.3-3c-2.8-0.1-5.4,1-7.4,3c-1.9,2.1-2.9,5-2.8,7.8v32.3
	c0,0.7-0.6,1.3-1.2,1.3c0,0,0,0,0,0h-9.7c-0.3,0-0.7-0.1-0.9-0.4c-0.2-0.2-0.4-0.6-0.4-0.9V56.5c0-0.3,0.1-0.7,0.4-0.9
	c0.2-0.2,0.6-0.4,0.9-0.4h9.7c0.7,0,1.3,0.6,1.3,1.2c0,0,0,0,0,0v3.4c0,0.2,0.1,0.3,0.2,0.4c0.1,0.1,0.2,0,0.3-0.2
	c2.9-3.8,7.3-5.7,13.1-5.7C263.9,54.4,268.5,56.1,271.9,59.5z"/>
<path class="st0" d="M317.7,56.7c3.2,1.4,5.9,3.6,7.8,6.4c1.8,2.7,2.8,6,2.8,9.3v35.7c0,0.7-0.6,1.3-1.2,1.3c0,0,0,0,0,0h-9.7
	c-0.7,0-1.3-0.6-1.3-1.2c0,0,0,0,0,0v-3.4c0-0.2-0.1-0.3-0.2-0.4c-0.2,0-0.3,0-0.4,0.2c-3.5,3.8-8.5,5.7-15,5.7
	c-5.3,0-9.7-1.3-13.1-4c-3.4-2.7-5.1-6.7-5.1-12c0-5.5,1.9-9.8,5.8-12.9c3.8-3.1,9.3-4.6,16.3-4.6h11.3c0.3,0,0.5-0.1,0.5-0.4
	c0,0,0-0.1,0-0.1v-2.5c0.1-2.4-0.7-4.7-2.4-6.4c-1.6-1.5-4.1-2.3-7.3-2.3c-2.3-0.1-4.5,0.4-6.5,1.4c-1.6,0.8-2.7,2.3-3.1,4
	c-0.2,0.8-0.7,1.2-1.5,1.1l-10.3-1.3c-0.3-0.1-0.6-0.2-0.9-0.4c-0.2-0.1-0.3-0.4-0.3-0.7c0.6-4.3,2.9-7.8,6.9-10.6s9.2-4.1,15.3-4.2
	C310,54.3,314,55.1,317.7,56.7z M312.3,97.7c2.3-1.6,3.7-4.2,3.7-7v-5c0-0.3-0.1-0.5-0.4-0.5c0,0-0.1,0-0.1,0h-8.9
	c-3.7,0-6.7,0.7-8.8,2.1c-2.1,1.3-3.3,3.6-3.2,6c-0.1,2.1,0.8,4.1,2.5,5.3c1.9,1.3,4.1,2,6.4,1.8C306.6,100.6,309.7,99.6,312.3,97.7
	L312.3,97.7z"/>
<path class="st0" d="M383.5,82.1c0.1,4.5-0.6,9-2,13.2c-1.3,4.3-3.9,8.1-7.5,10.9c-3.7,2.7-8.2,4.1-12.7,3.9
	c-4.7,0.1-9.2-2-12.2-5.6c-0.1-0.2-0.3-0.3-0.4-0.2c-0.2,0.1-0.2,0.3-0.2,0.4v3.3c0,0.7-0.6,1.3-1.2,1.3c0,0,0,0,0,0h-9.7
	c-0.3,0-0.7-0.1-0.9-0.4c-0.2-0.2-0.4-0.6-0.4-0.9V36.5c0-0.7,0.6-1.3,1.2-1.3c0,0,0,0,0,0h9.7c0.3,0,0.7,0.1,0.9,0.4
	c0.2,0.2,0.4,0.6,0.4,0.9v23c0,0.2,0.1,0.3,0.2,0.4c0.2,0.1,0.3,0,0.4-0.1c3-3.6,7.4-5.6,12.1-5.4c5.2,0,9.6,1.3,13,3.9
	c3.6,2.8,6.2,6.6,7.6,10.9C383,73.4,383.6,77.8,383.5,82.1z M370.9,82.4c0-5.5-1.1-9.8-3.2-12.9c-1.8-2.9-5-4.6-8.5-4.4
	c-3.3-0.1-6.4,1.7-7.9,4.7c-1.8,2.9-2.6,7.1-2.6,12.6s0.8,9.6,2.4,12.3c1.5,3.2,4.7,5.2,8.3,5.1c1.8,0,3.7-0.4,5.3-1.3
	c1.6-0.9,2.8-2.2,3.7-3.8C370,91.6,370.9,87.5,370.9,82.4L370.9,82.4z"/>
<path class="st0" d="M391.1,109c-0.2-0.2-0.4-0.6-0.4-0.9V36.5c0-0.3,0.1-0.7,0.4-0.9c0.2-0.2,0.6-0.4,0.9-0.4h9.7
	c0.7,0,1.3,0.5,1.3,1.2c0,0,0,0,0,0.1v71.6c0,0.3-0.1,0.7-0.4,0.9c-0.2,0.2-0.6,0.4-0.9,0.4H392C391.6,109.4,391.3,109.2,391.1,109z
	"/>
<path class="st0" d="M457.5,82.1l-0.1,3.3c0.1,0.6-0.3,1.2-0.9,1.3c-0.1,0-0.2,0-0.3,0H423c-0.3,0-0.5,0.1-0.5,0.4
	c0,0.1,0,0.1,0,0.2c0.1,1.6,0.4,3.2,1,4.8c1.7,5.1,5.8,7.7,12.4,7.7c4.6,0.1,8.9-2.1,11.4-5.9c0.2-0.4,0.6-0.6,1.1-0.6
	c0.3,0,0.5,0.1,0.7,0.3l6.6,5.4c0.5,0.3,0.7,1,0.4,1.5c0,0.1-0.1,0.1-0.1,0.2c-2.2,3.1-5.2,5.6-8.7,7.2c-3.8,1.7-7.9,2.6-12.1,2.5
	c-4.9,0.1-9.8-1.1-14-3.7c-3.8-2.5-6.8-6.1-8.4-10.4c-1.6-3.8-2.4-9.1-2.4-15.9c-0.1-3.4,0.3-6.8,1.3-10c1.2-4.7,4.1-8.8,8-11.7
	c4.1-2.9,9.1-4.4,14.1-4.3c13.9,0,21.7,7.3,23.5,21.8C457.5,78.1,457.6,80.1,457.5,82.1z M427.1,67c-1.8,1.4-3.1,3.3-3.7,5.4
	c-0.5,1.5-0.8,3.1-0.8,4.7c-0.1,0.4,0,0.5,0.4,0.5h21.5c0.3,0,0.5-0.1,0.5-0.4c0-0.1,0-0.1,0-0.2c-0.1-1.4-0.3-2.7-0.6-4
	c-0.5-2.4-1.9-4.5-3.8-5.9c-2-1.5-4.5-2.2-7-2.1C431.3,65,429,65.6,427.1,67z"/>
<path class="st0" d="M466.3,107.4c-3-2.9-3.1-7.7-0.2-10.6c1.5-1.5,3.5-2.3,5.6-2.3c2-0.1,3.9,0.7,5.3,2.1c1.4,1.4,2.1,3.4,2.1,5.4
	c0.1,2-0.7,4-2.1,5.4c-1.4,1.4-3.3,2.2-5.3,2.1C469.7,109.6,467.7,108.9,466.3,107.4z"/>
<path class="st0" d="M497,108c-3-1.1-5.7-2.9-7.8-5.4c-1.8-2.1-2.8-4.8-2.8-7.6v-1c0-0.7,0.6-1.3,1.2-1.3c0,0,0,0,0,0h9.3
	c0.7,0,1.3,0.5,1.3,1.2c0,0,0,0,0,0v0.2c0,1.8,1,3.3,2.9,4.6c2.2,1.4,4.8,2.1,7.4,2c2.4,0.1,4.8-0.6,6.9-1.8
	c1.6-0.9,2.6-2.6,2.7-4.4c0-1.5-0.8-2.9-2.2-3.6c-2.2-1.1-4.6-2-7-2.6l-4-1.3c-3.1-0.9-6.2-2-9.1-3.4c-2.4-1.2-4.5-2.8-6.2-4.9
	c-1.8-2.3-2.7-5.1-2.5-8c-0.2-4.7,2-9.1,5.8-11.8c3.9-2.9,9-4.4,15.4-4.4c3.9-0.1,7.7,0.6,11.3,2.1c3,1.2,5.6,3.2,7.5,5.7
	c1.8,2.4,2.7,5.3,2.7,8.3c0,0.7-0.5,1.3-1.2,1.3c0,0,0,0-0.1,0h-9c-0.7,0-1.3-0.6-1.3-1.2c0,0,0,0,0,0c0-1.9-1.1-3.6-2.7-4.6
	c-2.2-1.4-4.8-2-7.4-1.9c-2.3-0.1-4.7,0.4-6.7,1.5c-1.6,0.8-2.6,2.5-2.6,4.3c0,1.7,1,3.2,2.5,3.9c2.7,1.2,5.5,2.2,8.3,2.9l2.3,0.6
	c3.2,0.9,6.4,2.1,9.4,3.4c2.5,1.1,4.7,2.8,6.5,4.9c1.8,2.3,2.8,5.2,2.7,8.1c0.2,4.7-2.1,9.1-5.9,11.8c-3.9,2.9-9.2,4.3-15.8,4.3
	C504.7,110.1,500.7,109.4,497,108z"/>
<path class="st0" d="M544.7,106c-3.9-2.7-6.8-6.7-8.3-11.3c-1.3-4.1-1.8-8.4-1.7-12.7c-0.1-4.2,0.5-8.5,1.7-12.5
	c1.4-4.5,4.3-8.4,8.2-11.1c4.2-2.8,9.1-4.2,14.1-4.1c5.1-0.1,10.1,1.3,14.4,4.1c3.8,2.4,6.7,6.1,8.2,10.4c0.3,1.1,0.6,2.3,0.7,3.4
	v0.2c0,0.7-0.5,1.2-1.1,1.3c0,0,0,0,0,0l-9.5,1.4h-0.2c-0.6,0-1.2-0.4-1.3-1.1c0-0.3,0-0.6-0.1-0.8c-0.1-0.6-0.3-1.1-0.4-1.5
	c-0.7-2-2-3.7-3.8-4.9c-2-1.3-4.4-2-6.7-1.9c-2.4-0.1-4.8,0.7-6.8,2.1c-1.9,1.4-3.2,3.4-3.8,5.7c-0.8,3.1-1.2,6.2-1.1,9.4
	c-0.1,3.2,0.3,6.3,1,9.4c0.6,2.3,1.9,4.4,3.8,5.9c2,1.5,4.4,2.3,6.9,2.2c2.5,0.1,4.9-0.7,6.9-2.1c1.9-1.3,3.2-3.3,3.7-5.6
	c0.1-0.2,0.1-0.3,0.1-0.5c0.1-0.1,0.1-0.2,0.1-0.3c0.2-0.8,0.7-1.2,1.5-1.1l9.5,1.5c0.3,0.1,0.7,0.2,0.9,0.5c0.3,0.3,0.4,0.6,0.3,1
	c-0.2,1.1-0.4,1.9-0.5,2.4c-1.3,4.5-4.2,8.3-8.2,10.8c-4.3,2.7-9.3,4.1-14.4,4C553.7,110.4,548.8,108.9,544.7,106z"/>
<path class="st0" d="M582,48.2v-0.4c0-0.1,0.1-0.2,0.2-0.2c0,0,0,0,0,0h4.5c0.1,0,0.2,0.1,0.2,0.2v0.4c0,0.1-0.1,0.2-0.1,0.2
	c0,0,0,0,0,0h-1.8c0,0-0.1,0-0.1,0.1c0,0,0,0,0,0v5.8c0,0.1-0.1,0.2-0.1,0.2c0,0,0,0,0,0h-0.5c-0.1,0-0.2-0.1-0.2-0.1c0,0,0,0,0,0
	v-5.8c0,0,0-0.1-0.1-0.1c0,0,0,0,0,0h-1.7C582.1,48.3,582,48.3,582,48.2z M592.7,47.6h0.5c0.1,0,0.2,0.1,0.2,0.2v6.4
	c0,0.1-0.1,0.2-0.1,0.2c0,0,0,0,0,0h-0.5c-0.1,0-0.2-0.1-0.2-0.1c0,0,0,0,0,0v-5c0,0,0,0,0-0.1c0,0,0,0-0.1,0l-1.3,2
	c-0.1,0.1-0.1,0.1-0.2,0.1h-0.1c-0.1,0-0.2,0-0.2-0.1l-1.3-2c0,0,0-0.1-0.1,0c0,0,0,0,0,0.1v5c0,0.1-0.1,0.2-0.1,0.2c0,0,0,0,0,0
	h-0.5c-0.1,0-0.2-0.1-0.2-0.1c0,0,0,0,0,0v-6.4c0-0.1,0.1-0.2,0.2-0.2h0.5c0.1,0,0.2,0,0.2,0.1l1.6,2.4h0c0,0,0,0,0.1,0l1.6-2.4
	C592.6,47.6,592.7,47.6,592.7,47.6L592.7,47.6z"/>
<path class="st0" d="M582,48.2v-0.4c0-0.1,0.1-0.2,0.2-0.2c0,0,0,0,0,0h4.5c0.1,0,0.2,0.1,0.2,0.2v0.4c0,0.1-0.1,0.2-0.1,0.2
	c0,0,0,0,0,0h-1.8c0,0-0.1,0-0.1,0.1c0,0,0,0,0,0v5.8c0,0.1-0.1,0.2-0.1,0.2c0,0,0,0,0,0h-0.5c-0.1,0-0.2-0.1-0.2-0.1c0,0,0,0,0,0
	v-5.8c0,0,0-0.1-0.1-0.1c0,0,0,0,0,0h-1.7C582.1,48.3,582,48.3,582,48.2z M592.7,47.6h0.5c0.1,0,0.2,0.1,0.2,0.2v6.4
	c0,0.1-0.1,0.2-0.1,0.2c0,0,0,0,0,0h-0.5c-0.1,0-0.2-0.1-0.2-0.1c0,0,0,0,0,0v-5c0,0,0,0,0-0.1c0,0,0,0-0.1,0l-1.3,2
	c-0.1,0.1-0.1,0.1-0.2,0.1h-0.1c-0.1,0-0.2,0-0.2-0.1l-1.3-2c0,0,0-0.1-0.1,0c0,0,0,0,0,0.1v5c0,0.1-0.1,0.2-0.1,0.2c0,0,0,0,0,0
	h-0.5c-0.1,0-0.2-0.1-0.2-0.1c0,0,0,0,0,0v-6.4c0-0.1,0.1-0.2,0.2-0.2h0.5c0.1,0,0.2,0,0.2,0.1l1.6,2.4h0c0,0,0,0,0.1,0l1.6-2.4
	C592.6,47.6,592.7,47.6,592.7,47.6L592.7,47.6z"/>
</svg>
