<?xml version="1.0" standalone="no"?>
<!DOCTYPE svg PUBLIC "-//W3C//DTD SVG 20010904//EN"
 "http://www.w3.org/TR/2001/REC-SVG-20010904/DTD/svg10.dtd">
<svg version="1.0" xmlns="http://www.w3.org/2000/svg"
 width="301.000000pt" height="167.000000pt" viewBox="0 0 301.000000 167.000000"
 preserveAspectRatio="xMidYMid meet">

<g transform="translate(0.000000,167.000000) scale(0.100000,-0.100000)"
fill="#FFFFFF" stroke="none">
<path d="M513 1253 c4 -41 2 -59 -8 -67 -9 -8 -12 -26 -8 -63 5 -50 7 -53 34
-53 15 0 30 3 32 8 3 4 8 58 12 120 l7 112 -37 0 -38 0 6 -57z"/>
<path d="M385 1287 c-16 -5 -31 -11 -33 -12 -2 -1 8 -27 22 -58 16 -36 21 -58
14 -65 -6 -6 -1 -27 16 -61 25 -48 27 -50 51 -39 14 6 25 15 25 19 0 11 -59
221 -62 224 -2 1 -16 -2 -33 -8z"/>
<path d="M656 1230 c-12 -41 -21 -57 -30 -54 -9 4 -18 -13 -28 -55 l-16 -60
30 -6 c16 -4 31 -5 32 -3 5 5 96 207 96 212 0 3 -57 26 -65 26 -1 0 -10 -27
-19 -60z"/>
<path d="M240 1205 l-24 -25 42 -43 c28 -29 39 -46 32 -53 -7 -7 4 -24 33 -52
l43 -42 21 22 21 23 -65 90 c-35 50 -68 93 -72 98 -4 4 -18 -4 -31 -18z"/>
<path d="M781 1165 c-18 -25 -37 -42 -45 -39 -8 3 -26 -14 -44 -43 -29 -44
-30 -49 -15 -66 9 -10 22 -16 28 -15 6 2 46 40 89 86 77 80 78 83 61 102 -26
29 -38 25 -74 -25z"/>
<path d="M1810 910 l0 -300 45 0 45 0 0 95 c0 125 11 124 109 0 l74 -95 55 0
c42 0 52 3 45 13 -5 6 -49 61 -97 121 -56 70 -83 112 -78 120 20 24 119 162
125 172 5 8 -8 13 -38 16 l-46 3 -61 -87 c-34 -49 -68 -88 -75 -88 -10 0 -13
36 -13 165 l0 165 -45 0 -45 0 0 -300z"/>
<path d="M2222 935 c3 -270 3 -275 26 -297 18 -19 36 -23 97 -26 l75 -4 0 40
0 41 -52 3 -53 3 -3 143 -3 142 56 0 55 0 0 40 0 40 -55 0 -55 0 0 75 0 75
-45 0 -46 0 3 -275z"/>
<path d="M132 1085 c-18 -38 -16 -41 39 -64 35 -14 50 -25 46 -35 -4 -10 10
-21 43 -35 27 -12 52 -21 56 -21 8 0 33 31 34 41 0 7 -170 126 -192 134 -9 4
-19 -4 -26 -20z"/>
<path d="M871 1058 c-29 -21 -45 -27 -50 -19 -5 7 -18 3 -42 -15 -19 -14 -40
-29 -48 -33 -11 -7 -11 -12 -1 -32 7 -13 14 -26 16 -27 1 -2 52 20 113 48
l110 53 -15 28 c-18 36 -28 36 -83 -3z"/>
<path d="M1430 1049 c-138 -55 -186 -253 -88 -365 87 -98 240 -107 331 -19 49
47 68 96 68 172 0 96 -49 172 -133 207 -41 18 -139 20 -178 5z m165 -93 c52
-34 74 -129 44 -191 -48 -99 -196 -99 -243 0 -36 76 -3 174 69 206 28 13 100
4 130 -15z"/>
<path d="M2568 1040 c-131 -71 -160 -259 -55 -368 18 -19 43 -39 57 -47 69
-35 168 -24 219 25 l29 27 11 -24 c11 -25 47 -43 86 -43 19 0 23 6 27 40 3 33
0 40 -17 42 -19 3 -20 12 -25 183 -3 99 -8 179 -12 178 -5 -2 -24 -3 -43 -3
-31 0 -35 -3 -35 -26 l0 -25 -36 28 c-49 37 -150 44 -206 13z m171 -78 c90
-48 95 -199 9 -252 -96 -58 -208 8 -208 124 0 112 104 179 199 128z"/>
<path d="M76 944 c-16 -42 -8 -51 54 -58 43 -5 60 -11 60 -21 0 -11 13 -15 50
-15 28 0 53 -1 58 -2 4 -2 8 11 10 27 l3 30 -105 28 c-122 32 -122 32 -130 11z"/>
<path d="M932 932 c-42 -12 -55 -13 -61 -3 -13 20 -105 -10 -109 -35 -5 -40 7
-43 128 -32 63 6 116 12 118 14 6 4 -10 74 -17 73 -3 -1 -30 -8 -59 -17z"/>
<path d="M764 805 c-4 -14 -4 -28 -1 -31 6 -7 228 -66 231 -62 2 2 6 17 9 35
7 35 2 37 -86 45 -15 2 -26 7 -25 13 3 11 -39 22 -89 24 -27 1 -34 -3 -39 -24z"/>
<path d="M180 813 c-118 -11 -116 -10 -112 -48 4 -37 14 -41 54 -26 53 19 78
22 78 7 0 -12 9 -12 58 2 55 14 58 17 54 44 -4 26 -7 28 -51 26 -25 0 -62 -3
-81 -5z"/>
<path d="M736 725 l-16 -24 102 -71 101 -70 19 31 c11 17 18 32 16 34 -2 1
-27 15 -56 29 -29 15 -50 31 -47 36 5 7 -82 60 -99 60 -2 0 -11 -11 -20 -25z"/>
<path d="M215 694 c-50 -24 -94 -45 -99 -47 -12 -4 12 -67 25 -67 5 0 28 14
51 30 23 17 48 28 56 25 8 -3 36 9 63 26 47 30 48 31 33 55 -9 13 -21 24 -28
23 -6 0 -51 -20 -101 -45z"/>
<path d="M282 590 l-82 -86 23 -22 c13 -12 26 -22 30 -22 3 0 20 21 37 46 18
26 37 43 45 40 16 -6 79 80 71 99 -2 7 -13 18 -23 22 -15 7 -34 -8 -101 -77z"/>
<path d="M686 661 c-11 -12 -15 -25 -10 -33 27 -44 127 -178 133 -178 4 0 17
10 29 23 l22 23 -40 39 c-24 24 -38 45 -35 54 5 13 -59 91 -75 91 -4 0 -15 -9
-24 -19z"/>
<path d="M382 520 l-51 -110 32 -14 c18 -7 35 -12 38 -10 3 2 11 28 18 58 8
36 18 55 29 58 12 3 22 22 29 54 12 52 10 58 -23 68 -18 6 -27 -6 -72 -104z"/>
<path d="M608 623 c-10 -2 -18 -6 -18 -8 0 -8 63 -230 66 -234 6 -6 64 21 64
30 0 5 -10 29 -22 54 -16 34 -19 48 -11 56 9 9 6 24 -13 60 -24 48 -30 52 -66
42z"/>
<path d="M506 553 c-3 -32 -8 -89 -11 -126 l-7 -68 38 3 38 3 -3 63 c-1 39 2
62 8 62 12 0 14 41 5 89 -5 26 -11 31 -34 31 -27 0 -28 -3 -34 -57z"/>
</g>
</svg>
