<svg width="64" height="64" viewBox="0 0 64 64" fill="none" xmlns="http://www.w3.org/2000/svg">
<path fill-rule="evenodd" clip-rule="evenodd" d="M32 18H28.066C30.557 22.081 32 26.867 32 32C32 37.133 30.556 41.919 28.066 46H32C39.732 46 46 39.732 46 32C46 24.268 39.732 18 32 18Z" fill="#343741"/>
<path fill-rule="evenodd" clip-rule="evenodd" d="M32 5C27.076 5 22.475 6.339 18.5 8.642C22.42 10.912 25.711 14.14 28.066 18H32C39.732 18 46 24.268 46 32C46 39.732 39.732 46 32 46H28.066C25.71 49.86 22.42 53.088 18.5 55.358C22.475 57.661 27.076 59 32 59C46.912 59 59 46.912 59 32C59 17.088 46.912 5 32 5Z" fill="#00BFB3"/>
<path fill-rule="evenodd" clip-rule="evenodd" d="M19 46H21.92C25.142 42.107 27 37.17 27 32C27 26.83 25.142 21.893 21.921 18H19C11.268 18 5 24.268 5 32C5 39.732 11.268 46 19 46Z" fill="#FEC514"/>
</svg>
