
<svg width="64" height="64" viewBox="0 0 64 64" fill="none" xmlns="http://www.w3.org/2000/svg">
<path fill-rule="evenodd" clip-rule="evenodd" d="M7.93484 38.7788L1 43V56L12.5 63L22.5 56.913L32.5 63L42.5 56.913L52.5 63L64 56V43L54 36.913V25.5L44 19.413V8L32.5 1L21 8L21 15.9988L24 15.9292L24 9.68598L32.5 4.51206L41 9.68598V19.314L35.6243 22.5862L37.1059 25.2955L42.5 22.0121L51 27.186V36.814L42.5 41.9879L37.1048 38.7039L35.5621 41.3759L41 44.686V54.314L32.5 59.4879L24 54.314L24 48.0012L21 48.0708L21 54.314L12.5 59.4879L4 54.314L4 44.686L9.37574 41.4138L7.93484 38.7788ZM44 54.314L52.5 59.4879L61 54.314V44.686L52.5 39.5121L44 44.686V54.314Z" fill="#535966"/>
<path fill-rule="evenodd" clip-rule="evenodd" d="M22.5 41.9879L31 36.814L31 27.186L22.5 22.0121L14 27.186L14 36.814L22.5 41.9879ZM11 38.5L22.5 45.5L34 38.5L34 25.5L22.5 18.5L11 25.5L11 38.5Z" fill="#00BFB3"/>
</svg>
