<svg id="svg" version="1.1" xmlns="http://www.w3.org/2000/svg" xmlns:xlink="http://www.w3.org/1999/xlink" width="32" height="32.45544554455445" viewBox="0, 0, 400,104.45544554455445"><g id="svgg"><path id="path0" d="M322.206 5.125 L 322.250 10.250 328.750 10.250 L 335.250 10.250 335.294 5.125 L 335.338 0.000 328.750 0.000 L 322.162 0.000 322.206 5.125 M356.810 6.611 C 356.709 6.733,356.521 6.833,356.393 6.833 C 356.265 6.833,355.750 7.052,355.249 7.320 C 354.748 7.587,354.112 7.855,353.836 7.916 C 353.559 7.977,353.333 8.092,353.333 8.172 C 353.333 8.253,353.071 8.367,352.750 8.428 C 352.429 8.488,352.167 8.598,352.167 8.672 C 352.167 8.746,351.942 8.856,351.667 8.917 C 351.392 8.977,351.167 9.092,351.167 9.172 C 351.167 9.253,350.885 9.370,350.542 9.433 C 350.198 9.496,349.879 9.594,349.833 9.649 C 349.674 9.843,348.212 10.500,347.940 10.500 C 347.790 10.500,347.667 10.575,347.667 10.667 C 347.667 10.758,347.573 10.836,347.458 10.839 C 347.344 10.841,346.875 11.028,346.417 11.254 C 345.958 11.479,345.452 11.664,345.292 11.665 C 345.131 11.666,345.000 11.742,345.000 11.833 C 345.000 11.925,344.887 12.000,344.750 12.000 C 344.535 12.000,344.500 12.518,344.500 15.662 L 344.500 19.325 341.875 19.371 L 339.250 19.417 339.205 23.458 L 339.161 27.500 341.825 27.500 L 344.490 27.500 344.537 42.756 C 344.570 53.582,344.636 58.047,344.766 58.131 C 344.866 58.197,344.995 58.544,345.052 58.903 C 345.108 59.262,345.227 59.601,345.314 59.655 C 345.402 59.709,345.525 59.959,345.588 60.210 C 345.651 60.461,345.770 60.667,345.851 60.667 C 345.933 60.667,346.000 60.765,346.000 60.885 C 346.000 61.005,346.150 61.265,346.333 61.462 C 346.517 61.658,346.667 61.885,346.667 61.966 C 346.667 62.143,347.768 63.167,347.959 63.167 C 348.032 63.167,348.221 63.317,348.378 63.500 C 348.535 63.683,348.777 63.833,348.915 63.833 C 349.053 63.833,349.167 63.902,349.167 63.987 C 349.167 64.071,349.392 64.190,349.667 64.250 C 349.942 64.310,350.167 64.425,350.167 64.506 C 350.167 64.586,350.429 64.701,350.750 64.761 C 351.071 64.821,351.333 64.932,351.333 65.007 C 351.333 65.081,351.765 65.195,352.292 65.259 C 352.819 65.322,353.355 65.459,353.484 65.562 C 353.817 65.829,362.374 65.794,362.464 65.525 C 362.499 65.419,362.857 65.333,363.264 65.333 L 364.000 65.333 364.000 61.208 L 364.000 57.083 361.806 57.083 C 360.198 57.083,359.593 57.028,359.542 56.875 C 359.503 56.760,359.369 56.667,359.242 56.667 C 358.520 56.667,357.964 55.678,357.874 54.237 C 357.826 53.465,357.722 52.833,357.643 52.833 C 357.564 52.833,357.500 47.133,357.500 40.167 L 357.500 27.500 360.409 27.500 L 363.318 27.500 363.491 28.125 C 363.587 28.469,363.665 28.919,363.666 29.125 C 363.666 29.331,363.733 29.500,363.815 29.500 C 363.897 29.500,364.000 29.744,364.044 30.042 C 364.151 30.767,364.664 32.834,364.840 33.250 C 365.011 33.655,365.242 34.703,365.198 34.875 C 365.181 34.944,365.234 35.000,365.317 35.000 C 365.400 35.000,365.519 35.450,365.583 36.000 C 365.647 36.550,365.767 37.000,365.850 37.000 C 365.932 37.000,366.000 37.206,366.001 37.458 C 366.002 37.710,366.108 38.121,366.238 38.370 C 366.368 38.619,366.527 39.238,366.590 39.745 C 366.653 40.252,366.769 40.667,366.847 40.667 C 366.925 40.667,367.038 41.042,367.099 41.500 C 367.160 41.958,367.268 42.333,367.338 42.333 C 367.409 42.333,367.519 42.783,367.583 43.333 C 367.647 43.883,367.762 44.333,367.838 44.333 C 367.914 44.333,368.028 44.746,368.091 45.250 C 368.154 45.754,368.262 46.167,368.331 46.167 C 368.400 46.167,368.507 46.542,368.568 47.000 C 368.628 47.458,368.743 47.833,368.823 47.833 C 368.902 47.833,369.019 48.283,369.083 48.833 C 369.147 49.383,369.257 49.833,369.328 49.833 C 369.399 49.833,369.507 50.208,369.568 50.667 C 369.628 51.125,369.742 51.500,369.820 51.500 C 369.898 51.500,370.013 51.911,370.076 52.414 C 370.139 52.917,370.253 53.367,370.329 53.414 C 370.406 53.462,370.520 53.875,370.583 54.334 C 370.646 54.792,370.758 55.167,370.830 55.167 C 370.903 55.167,370.955 55.260,370.945 55.375 C 370.917 55.688,371.324 57.546,371.485 57.840 C 371.563 57.981,371.679 58.487,371.745 58.965 C 371.811 59.443,371.926 59.833,372.000 59.833 C 372.074 59.833,372.189 60.227,372.255 60.708 C 372.320 61.190,372.424 61.621,372.484 61.667 C 372.545 61.712,372.686 62.144,372.798 62.625 C 372.909 63.106,373.091 63.894,373.202 64.375 C 373.314 64.856,373.482 65.306,373.577 65.375 C 373.693 65.459,373.684 65.543,373.550 65.630 C 373.439 65.701,373.298 66.076,373.237 66.463 C 373.175 66.850,373.055 67.167,372.971 67.167 C 372.887 67.167,372.833 67.260,372.850 67.375 C 372.906 67.739,372.629 69.000,372.494 69.000 C 372.423 69.000,372.313 69.375,372.250 69.833 C 372.187 70.291,372.074 70.704,371.999 70.751 C 371.924 70.797,371.814 71.153,371.755 71.543 C 371.696 71.932,371.580 72.400,371.497 72.583 C 371.281 73.059,370.828 74.753,370.617 75.875 C 370.518 76.402,370.378 76.833,370.307 76.833 C 370.236 76.833,370.128 77.208,370.068 77.667 C 370.007 78.125,369.896 78.500,369.822 78.500 C 369.748 78.500,369.636 78.838,369.575 79.250 C 369.513 79.663,369.396 80.000,369.314 80.000 C 369.233 80.000,369.181 80.056,369.198 80.125 C 369.269 80.408,368.959 81.667,368.819 81.667 C 368.735 81.667,368.667 81.892,368.667 82.167 L 368.667 82.667 375.583 82.667 C 381.620 82.667,382.500 82.635,382.500 82.417 C 382.500 82.279,382.568 82.167,382.651 82.167 C 382.734 82.167,382.854 81.792,382.917 81.333 C 382.980 80.875,383.094 80.500,383.170 80.500 C 383.247 80.500,383.361 80.088,383.424 79.583 C 383.487 79.079,383.598 78.667,383.670 78.667 C 383.743 78.667,383.854 78.292,383.917 77.833 C 383.980 77.375,384.090 77.000,384.161 77.000 C 384.232 77.000,384.340 76.628,384.400 76.174 C 384.460 75.719,384.575 75.306,384.656 75.257 C 384.736 75.207,384.854 74.791,384.917 74.333 C 384.980 73.875,385.092 73.500,385.166 73.500 C 385.240 73.500,385.353 73.050,385.417 72.500 C 385.481 71.950,385.598 71.500,385.677 71.500 C 385.757 71.500,385.872 71.125,385.932 70.667 C 385.993 70.208,386.101 69.833,386.172 69.833 C 386.244 69.833,386.354 69.458,386.417 69.000 C 386.480 68.542,386.592 68.129,386.667 68.083 C 386.741 68.037,386.854 67.625,386.917 67.166 C 386.980 66.708,387.087 66.333,387.155 66.333 C 387.222 66.333,387.282 66.240,387.287 66.125 C 387.311 65.587,387.755 63.667,387.856 63.667 C 387.918 63.667,388.020 63.292,388.083 62.833 C 388.146 62.375,388.261 62.000,388.337 62.000 C 388.413 62.000,388.528 61.587,388.591 61.083 C 388.654 60.579,388.762 60.167,388.831 60.167 C 388.900 60.167,389.007 59.792,389.068 59.333 C 389.128 58.875,389.242 58.500,389.320 58.500 C 389.398 58.500,389.513 58.087,389.576 57.583 C 389.639 57.079,389.753 56.667,389.830 56.667 C 389.906 56.667,390.020 56.292,390.083 55.833 C 390.146 55.375,390.259 55.000,390.333 55.000 C 390.407 55.000,390.519 54.550,390.583 54.000 C 390.647 53.450,390.764 53.000,390.844 53.000 C 390.923 53.000,391.038 52.623,391.100 52.163 C 391.161 51.703,391.274 51.287,391.350 51.239 C 391.427 51.192,391.540 50.781,391.600 50.326 C 391.660 49.872,391.768 49.500,391.839 49.500 C 391.910 49.500,392.020 49.125,392.083 48.667 C 392.146 48.208,392.257 47.833,392.330 47.833 C 392.402 47.833,392.513 47.421,392.576 46.917 C 392.639 46.413,392.753 46.000,392.830 46.000 C 392.906 46.000,393.020 45.625,393.083 45.167 C 393.146 44.708,393.256 44.333,393.328 44.333 C 393.399 44.333,393.506 43.961,393.567 43.507 C 393.627 43.052,393.742 42.640,393.823 42.590 C 393.903 42.540,394.020 42.125,394.083 41.666 C 394.146 41.208,394.261 40.833,394.339 40.833 C 394.416 40.833,394.482 40.702,394.485 40.542 C 394.494 40.023,394.705 39.088,394.854 38.900 C 394.934 38.799,395.047 38.368,395.106 37.942 C 395.164 37.515,395.271 37.167,395.344 37.167 C 395.416 37.167,395.567 36.604,395.677 35.917 C 395.788 35.229,395.936 34.667,396.007 34.667 C 396.077 34.667,396.186 34.217,396.250 33.667 C 396.314 33.117,396.428 32.706,396.504 32.753 C 396.580 32.799,396.694 32.424,396.757 31.919 C 396.820 31.414,396.936 31.000,397.013 31.000 C 397.091 31.000,397.205 30.625,397.266 30.167 C 397.327 29.708,397.435 29.333,397.506 29.333 C 397.577 29.333,397.688 28.940,397.753 28.458 C 397.818 27.977,397.929 27.508,398.000 27.417 C 398.071 27.325,398.181 26.932,398.246 26.543 C 398.310 26.153,398.422 25.798,398.495 25.753 C 398.568 25.708,398.679 25.334,398.740 24.923 C 398.802 24.511,398.916 24.135,398.994 24.087 C 399.072 24.039,399.187 23.625,399.250 23.166 C 399.313 22.708,399.420 22.333,399.487 22.333 C 399.594 22.333,400.004 20.105,400.001 19.540 C 400.000 19.373,398.685 19.338,393.708 19.373 L 387.417 19.417 387.365 20.042 C 387.336 20.385,387.251 20.667,387.176 20.667 C 387.101 20.667,386.987 21.154,386.923 21.750 C 386.859 22.346,386.747 22.833,386.673 22.833 C 386.599 22.833,386.486 23.396,386.422 24.083 C 386.358 24.771,386.242 25.333,386.166 25.333 C 386.089 25.333,385.974 25.821,385.911 26.417 C 385.847 27.012,385.738 27.500,385.669 27.500 C 385.600 27.500,385.491 28.025,385.428 28.667 C 385.365 29.308,385.249 29.833,385.171 29.833 C 385.092 29.833,384.976 30.396,384.911 31.083 C 384.847 31.771,384.737 32.333,384.667 32.333 C 384.596 32.333,384.487 32.821,384.423 33.417 C 384.359 34.012,384.247 34.500,384.173 34.500 C 384.099 34.500,383.987 34.987,383.923 35.582 C 383.859 36.176,383.746 36.701,383.671 36.748 C 383.595 36.794,383.481 37.357,383.417 37.999 C 383.352 38.641,383.242 39.167,383.171 39.167 C 383.101 39.167,382.991 39.692,382.928 40.333 C 382.865 40.975,382.750 41.500,382.673 41.500 C 382.597 41.500,382.481 42.025,382.417 42.667 C 382.352 43.308,382.237 43.833,382.160 43.833 C 382.083 43.833,381.968 44.358,381.905 45.000 C 381.842 45.642,381.734 46.167,381.665 46.167 C 381.595 46.167,381.487 46.654,381.423 47.250 C 381.359 47.846,381.238 48.333,381.153 48.333 C 381.069 48.333,381.013 48.390,381.029 48.458 C 381.096 48.750,380.784 50.500,380.664 50.500 C 380.593 50.500,380.481 49.975,380.417 49.333 C 380.352 48.692,380.241 48.167,380.169 48.167 C 380.098 48.167,379.986 47.604,379.922 46.917 C 379.858 46.229,379.748 45.667,379.679 45.667 C 379.610 45.667,379.460 44.973,379.346 44.125 C 379.233 43.277,379.123 42.470,379.103 42.330 C 379.084 42.191,379.022 42.004,378.967 41.914 C 378.912 41.824,378.813 41.244,378.748 40.625 C 378.682 40.006,378.571 39.500,378.502 39.500 C 378.433 39.500,378.325 38.975,378.261 38.333 C 378.198 37.692,378.087 37.167,378.014 37.167 C 377.941 37.167,377.835 36.666,377.778 36.054 C 377.720 35.442,377.606 34.898,377.523 34.845 C 377.441 34.793,377.319 34.206,377.253 33.542 C 377.187 32.877,377.075 32.333,377.005 32.333 C 376.934 32.333,376.825 31.810,376.762 31.170 C 376.699 30.531,376.586 29.970,376.510 29.923 C 376.435 29.876,376.320 29.275,376.256 28.586 C 376.191 27.897,376.076 27.333,376.000 27.333 C 375.924 27.333,375.809 26.771,375.745 26.083 C 375.680 25.396,375.568 24.833,375.495 24.833 C 375.422 24.833,375.309 24.271,375.245 23.583 C 375.180 22.896,375.072 22.333,375.003 22.333 C 374.935 22.333,374.829 21.902,374.768 21.375 C 374.706 20.848,374.568 20.173,374.461 19.875 L 374.266 19.333 365.883 19.333 L 357.500 19.333 357.500 12.861 C 357.500 6.101,357.469 5.818,356.810 6.611 M152.750 18.677 C 151.925 18.761,151.063 18.902,150.833 18.988 C 150.604 19.075,150.079 19.197,149.667 19.259 C 149.254 19.320,148.842 19.428,148.750 19.497 C 148.658 19.566,148.302 19.674,147.958 19.736 C 147.615 19.798,147.333 19.920,147.333 20.008 C 147.333 20.095,147.221 20.167,147.083 20.167 C 146.945 20.167,146.552 20.317,146.210 20.500 C 145.868 20.683,145.493 20.833,145.377 20.833 C 145.262 20.833,145.167 20.902,145.167 20.987 C 145.167 21.071,144.941 21.190,144.665 21.250 C 144.389 21.311,144.203 21.424,144.251 21.502 C 144.299 21.579,144.171 21.696,143.966 21.761 C 143.762 21.826,143.031 22.443,142.341 23.132 C 141.183 24.290,140.879 24.666,140.560 25.333 C 140.495 25.471,140.394 25.621,140.337 25.667 C 140.152 25.814,139.500 27.468,139.500 27.789 C 139.500 27.960,139.406 28.194,139.292 28.308 C 138.960 28.640,139.012 34.667,139.347 34.667 C 139.407 34.667,139.498 34.977,139.549 35.357 C 139.600 35.737,139.716 36.094,139.807 36.151 C 139.899 36.207,140.025 36.459,140.088 36.710 C 140.151 36.961,140.262 37.167,140.333 37.167 C 140.405 37.167,140.511 37.354,140.568 37.583 C 140.626 37.813,140.747 38.000,140.837 38.000 C 140.926 38.000,141.000 38.082,141.000 38.183 C 141.000 38.464,143.701 41.102,144.126 41.237 C 144.332 41.302,144.500 41.418,144.500 41.493 C 144.500 41.569,144.691 41.678,144.923 41.737 C 145.156 41.795,145.306 41.910,145.255 41.991 C 145.205 42.073,145.389 42.189,145.665 42.250 C 145.941 42.310,146.167 42.412,146.167 42.475 C 146.167 42.538,146.523 42.776,146.958 43.003 C 147.394 43.231,147.787 43.459,147.833 43.511 C 147.879 43.562,148.404 43.782,149.000 44.000 C 149.596 44.218,150.122 44.451,150.168 44.518 C 150.215 44.585,150.459 44.692,150.710 44.755 C 150.961 44.818,151.167 44.928,151.167 45.000 C 151.167 45.071,151.429 45.179,151.750 45.239 C 152.071 45.299,152.333 45.417,152.333 45.500 C 152.333 45.583,152.615 45.703,152.958 45.766 C 153.302 45.830,153.621 45.928,153.667 45.984 C 153.712 46.041,154.477 46.447,155.366 46.886 C 156.254 47.326,157.251 47.869,157.581 48.093 C 157.911 48.317,158.253 48.500,158.341 48.500 C 158.428 48.500,158.500 48.570,158.500 48.655 C 158.500 48.741,158.651 48.859,158.836 48.917 C 159.020 48.976,159.132 49.088,159.083 49.167 C 159.035 49.245,159.152 49.359,159.343 49.420 C 159.535 49.481,159.652 49.571,159.603 49.620 C 159.554 49.669,159.736 49.903,160.007 50.141 C 160.278 50.379,160.500 50.670,160.500 50.787 C 160.500 50.904,160.569 51.000,160.653 51.000 C 160.738 51.000,160.856 51.225,160.917 51.500 C 160.977 51.775,161.096 52.000,161.180 52.000 C 161.264 52.000,161.333 52.637,161.333 53.417 C 161.333 54.196,161.268 54.833,161.188 54.833 C 161.107 54.833,160.995 55.067,160.938 55.352 C 160.846 55.809,160.432 56.287,159.235 57.314 C 159.087 57.441,158.636 57.582,158.233 57.627 C 157.830 57.673,157.500 57.775,157.500 57.855 C 157.500 57.935,157.162 58.000,156.750 58.000 C 156.337 58.000,156.000 57.935,156.000 57.857 C 156.000 57.778,155.615 57.667,155.144 57.612 C 154.673 57.556,154.161 57.395,154.006 57.255 C 153.851 57.115,153.673 57.000,153.612 57.000 C 153.402 57.000,152.867 56.367,152.744 55.975 C 152.677 55.759,152.553 55.539,152.468 55.484 C 152.384 55.430,152.271 54.959,152.217 54.438 C 152.163 53.917,152.055 53.450,151.976 53.402 C 151.898 53.353,151.833 52.643,151.833 51.823 L 151.833 50.333 145.395 50.333 L 138.956 50.333 139.033 53.431 C 139.079 55.249,139.181 56.575,139.280 56.640 C 139.425 56.735,139.658 57.634,139.707 58.292 C 139.715 58.406,139.779 58.500,139.848 58.500 C 139.917 58.500,140.026 58.740,140.090 59.032 C 140.155 59.325,140.311 59.668,140.437 59.794 C 140.563 59.920,140.667 60.131,140.667 60.262 C 140.667 60.393,140.742 60.500,140.833 60.500 C 140.925 60.500,141.000 60.587,141.000 60.694 C 141.000 60.904,141.156 61.100,142.041 62.000 C 142.886 62.860,143.498 63.333,143.764 63.333 C 143.894 63.333,144.000 63.403,144.000 63.488 C 144.000 63.574,144.356 63.817,144.792 64.030 C 145.227 64.243,145.608 64.473,145.639 64.542 C 145.669 64.610,145.819 64.667,145.972 64.668 C 146.125 64.668,146.472 64.784,146.743 64.926 C 147.013 65.067,147.557 65.227,147.951 65.281 C 148.345 65.334,148.667 65.431,148.667 65.495 C 148.667 65.559,148.760 65.620,148.875 65.630 C 148.990 65.640,149.665 65.701,150.375 65.765 C 151.085 65.829,151.667 65.946,151.667 66.024 C 151.667 66.210,160.620 66.211,160.735 66.025 C 160.783 65.946,161.326 65.836,161.941 65.778 C 162.556 65.721,163.102 65.606,163.155 65.524 C 163.207 65.441,163.644 65.320,164.125 65.255 C 164.606 65.189,165.000 65.073,165.000 64.998 C 165.000 64.922,165.244 64.807,165.542 64.742 C 165.840 64.678,166.121 64.578,166.167 64.521 C 166.212 64.463,166.625 64.235,167.083 64.013 C 167.542 63.792,167.954 63.567,168.000 63.513 C 168.046 63.460,168.292 63.308,168.547 63.177 C 168.803 63.045,169.312 62.652,169.679 62.302 C 170.047 61.953,170.419 61.667,170.507 61.667 C 170.595 61.667,170.667 61.580,170.667 61.475 C 170.667 61.370,170.929 61.029,171.250 60.717 C 171.571 60.406,171.833 60.050,171.833 59.926 C 171.833 59.803,171.946 59.659,172.083 59.606 C 172.221 59.554,172.333 59.396,172.333 59.255 C 172.333 59.115,172.407 59.000,172.497 59.000 C 172.587 59.000,172.707 58.813,172.765 58.583 C 172.822 58.354,172.928 58.167,173.000 58.167 C 173.071 58.167,173.179 57.904,173.239 57.583 C 173.299 57.262,173.412 57.000,173.489 57.000 C 173.566 57.000,173.682 56.644,173.747 56.208 C 173.811 55.773,173.951 55.311,174.057 55.183 C 174.319 54.865,174.324 49.478,174.063 49.151 C 173.961 49.022,173.827 48.639,173.766 48.299 C 173.704 47.959,173.545 47.471,173.411 47.215 C 173.278 46.959,173.168 46.656,173.168 46.542 C 173.167 46.427,173.092 46.333,173.000 46.333 C 172.908 46.333,172.833 46.218,172.833 46.078 C 172.833 45.938,172.721 45.780,172.583 45.727 C 172.446 45.674,172.333 45.542,172.333 45.433 C 172.333 44.975,169.301 41.785,168.677 41.587 C 168.486 41.526,168.367 41.414,168.413 41.339 C 168.460 41.264,168.311 41.155,168.082 41.098 C 167.854 41.041,167.667 40.926,167.667 40.843 C 167.667 40.761,167.442 40.644,167.167 40.583 C 166.892 40.523,166.667 40.410,166.667 40.332 C 166.667 40.254,166.310 40.016,165.875 39.804 C 165.440 39.591,165.045 39.367,164.998 39.305 C 164.952 39.243,164.708 39.142,164.457 39.078 C 164.205 39.015,164.000 38.903,164.000 38.829 C 164.000 38.754,163.775 38.644,163.500 38.583 C 163.225 38.523,163.000 38.410,163.000 38.333 C 163.000 38.256,162.775 38.144,162.500 38.083 C 162.225 38.023,162.000 37.908,162.000 37.828 C 162.000 37.747,161.737 37.633,161.417 37.572 C 161.096 37.512,160.833 37.396,160.833 37.315 C 160.833 37.233,160.738 37.167,160.623 37.167 C 160.507 37.167,160.132 37.017,159.790 36.833 C 159.448 36.650,159.018 36.500,158.834 36.500 C 158.650 36.500,158.500 36.431,158.500 36.347 C 158.500 36.262,158.275 36.144,158.000 36.083 C 157.725 36.023,157.500 35.904,157.500 35.820 C 157.500 35.736,157.444 35.675,157.375 35.685 C 157.135 35.719,156.500 35.460,156.500 35.327 C 156.500 35.253,156.275 35.144,156.000 35.083 C 155.725 35.023,155.500 34.904,155.500 34.820 C 155.500 34.736,155.420 34.667,155.322 34.667 C 155.175 34.667,154.124 33.962,153.833 33.668 C 153.787 33.621,153.600 33.501,153.417 33.401 C 153.233 33.301,152.985 33.020,152.866 32.776 C 152.746 32.533,152.584 32.333,152.504 32.333 C 152.364 32.333,152.071 31.376,152.135 31.125 C 152.152 31.056,152.083 31.000,151.982 31.000 C 151.866 31.000,151.830 30.797,151.885 30.458 C 152.040 29.497,152.372 28.252,152.495 28.167 C 152.561 28.121,152.721 27.865,152.849 27.599 C 152.978 27.332,153.230 27.032,153.410 26.932 C 153.589 26.832,153.838 26.656,153.963 26.542 C 154.088 26.427,154.335 26.333,154.512 26.333 C 154.689 26.333,154.833 26.258,154.833 26.167 C 154.833 26.069,155.389 26.000,156.167 26.000 C 156.944 26.000,157.500 26.069,157.500 26.167 C 157.500 26.258,157.644 26.333,157.820 26.333 C 158.272 26.333,158.679 26.511,158.584 26.666 C 158.539 26.739,158.683 26.843,158.905 26.899 C 159.179 26.968,159.342 27.158,159.417 27.500 C 159.477 27.775,159.592 28.000,159.672 28.000 C 159.751 28.000,159.868 28.450,159.930 29.000 C 159.992 29.550,160.108 30.000,160.188 30.000 C 160.268 30.000,160.333 30.675,160.333 31.500 L 160.333 33.000 166.729 33.000 L 173.125 33.000 173.234 32.458 C 173.367 31.801,173.168 28.333,172.998 28.333 C 172.931 28.333,172.827 27.958,172.766 27.500 C 172.705 27.042,172.589 26.667,172.508 26.667 C 172.426 26.667,172.310 26.442,172.250 26.167 C 172.190 25.892,172.077 25.667,172.000 25.667 C 171.923 25.667,171.810 25.442,171.750 25.167 C 171.690 24.892,171.576 24.667,171.498 24.667 C 171.420 24.667,171.308 24.515,171.249 24.330 C 171.145 24.004,168.500 21.206,168.500 21.422 C 168.500 21.481,168.269 21.335,167.987 21.098 C 167.705 20.861,167.368 20.667,167.237 20.667 C 167.107 20.667,167.000 20.598,167.000 20.513 C 167.000 20.429,166.776 20.311,166.502 20.250 C 166.228 20.190,165.961 20.072,165.909 19.987 C 165.856 19.903,165.698 19.833,165.557 19.833 C 165.416 19.833,165.064 19.723,164.775 19.589 C 164.178 19.312,162.958 18.982,162.321 18.926 C 162.084 18.906,161.792 18.827,161.670 18.752 C 161.349 18.554,154.513 18.496,152.750 18.677 M189.333 18.671 C 187.905 18.839,187.649 18.887,187.417 19.026 C 187.325 19.080,186.819 19.177,186.292 19.241 C 185.765 19.305,185.333 19.417,185.333 19.491 C 185.333 19.564,185.033 19.672,184.667 19.731 C 184.300 19.789,184.000 19.905,184.000 19.989 C 184.000 20.072,183.775 20.190,183.500 20.250 C 183.225 20.310,183.000 20.423,183.000 20.500 C 183.000 20.577,182.774 20.690,182.499 20.750 C 182.223 20.811,182.040 20.929,182.092 21.014 C 182.144 21.098,182.107 21.176,182.010 21.188 C 181.626 21.233,181.565 21.259,181.268 21.500 C 180.493 22.132,178.833 23.791,178.833 23.934 C 178.833 24.021,178.683 24.221,178.500 24.378 C 178.317 24.535,178.167 24.769,178.167 24.897 C 178.167 25.026,178.054 25.174,177.917 25.227 C 177.779 25.280,177.667 25.438,177.667 25.578 C 177.667 25.718,177.598 25.833,177.513 25.833 C 177.429 25.833,177.310 26.058,177.250 26.333 C 177.190 26.608,177.078 26.833,177.001 26.833 C 176.925 26.833,176.812 27.134,176.750 27.501 C 176.688 27.868,176.578 28.132,176.506 28.087 C 176.434 28.043,176.325 28.320,176.264 28.703 C 176.202 29.086,176.083 29.484,175.998 29.586 C 175.913 29.688,175.792 30.217,175.730 30.761 C 175.667 31.305,175.557 31.789,175.484 31.838 C 175.411 31.886,175.299 32.805,175.235 33.879 C 175.170 34.954,175.054 35.833,174.976 35.833 C 174.777 35.833,174.794 47.766,174.993 48.127 C 175.080 48.286,175.200 49.298,175.259 50.375 C 175.318 51.452,175.426 52.333,175.500 52.333 C 175.573 52.333,175.686 52.859,175.750 53.501 C 175.815 54.143,175.928 54.706,176.002 54.752 C 176.077 54.797,176.188 55.135,176.250 55.501 C 176.312 55.867,176.421 56.167,176.493 56.167 C 176.565 56.167,176.672 56.467,176.731 56.833 C 176.789 57.200,176.903 57.500,176.983 57.500 C 177.064 57.500,177.179 57.762,177.239 58.083 C 177.299 58.404,177.419 58.667,177.504 58.667 C 177.590 58.667,177.707 58.854,177.765 59.083 C 177.822 59.313,177.936 59.500,178.018 59.500 C 178.100 59.500,178.167 59.615,178.167 59.755 C 178.167 59.896,178.276 60.053,178.410 60.104 C 178.544 60.155,178.702 60.349,178.761 60.533 C 178.897 60.963,181.065 63.112,181.502 63.251 C 181.684 63.308,181.833 63.420,181.833 63.498 C 181.833 63.576,182.058 63.690,182.333 63.750 C 182.608 63.810,182.833 63.923,182.833 64.000 C 182.833 64.077,183.058 64.190,183.333 64.250 C 183.608 64.310,183.833 64.425,183.833 64.506 C 183.833 64.586,184.096 64.701,184.417 64.761 C 184.737 64.821,185.000 64.929,185.000 65.000 C 185.000 65.071,185.336 65.179,185.746 65.241 C 186.156 65.302,186.532 65.417,186.581 65.496 C 186.629 65.574,187.232 65.691,187.920 65.756 C 188.608 65.820,189.212 65.939,189.262 66.020 C 189.379 66.209,197.452 66.213,197.568 66.024 C 197.617 65.946,198.197 65.832,198.857 65.771 C 199.518 65.709,200.139 65.594,200.238 65.515 C 200.336 65.436,200.735 65.318,201.125 65.254 C 201.515 65.190,201.833 65.077,201.833 65.004 C 201.833 64.931,202.171 64.821,202.583 64.759 C 202.996 64.697,203.333 64.583,203.333 64.506 C 203.333 64.429,203.540 64.285,203.792 64.185 C 204.231 64.012,204.824 63.676,205.000 63.500 C 205.046 63.454,205.374 63.269,205.729 63.088 C 206.430 62.731,209.277 59.939,209.429 59.461 C 209.480 59.299,209.592 59.167,209.678 59.167 C 209.763 59.167,209.825 59.110,209.815 59.042 C 209.781 58.801,210.040 58.167,210.173 58.167 C 210.247 58.167,210.356 57.942,210.417 57.667 C 210.477 57.392,210.592 57.167,210.672 57.167 C 210.753 57.167,210.867 56.904,210.928 56.583 C 210.988 56.262,211.097 56.000,211.171 56.000 C 211.244 56.000,211.357 55.681,211.421 55.292 C 211.485 54.902,211.606 54.499,211.689 54.395 C 211.772 54.292,211.888 53.598,211.945 52.854 C 212.002 52.109,212.104 51.500,212.172 51.500 C 212.315 51.500,212.361 50.215,212.233 49.792 C 212.150 49.520,211.683 49.500,205.509 49.500 L 198.873 49.500 198.754 51.250 C 198.688 52.212,198.575 53.000,198.503 53.000 C 198.430 53.000,198.321 53.337,198.259 53.750 C 198.197 54.163,198.082 54.500,198.003 54.500 C 197.924 54.500,197.810 54.725,197.750 55.000 C 197.690 55.275,197.580 55.500,197.507 55.500 C 197.434 55.500,197.285 55.706,197.177 55.958 C 196.982 56.412,196.000 57.167,195.605 57.167 C 195.492 57.167,195.311 57.255,195.203 57.364 C 194.954 57.613,192.353 57.632,192.195 57.386 C 192.134 57.290,191.907 57.157,191.692 57.089 C 191.358 56.985,190.646 56.334,189.882 55.433 C 189.771 55.302,189.632 55.001,189.572 54.764 C 189.513 54.527,189.406 54.333,189.334 54.333 C 189.263 54.333,189.154 53.996,189.092 53.583 C 189.030 53.171,188.915 52.833,188.836 52.833 C 188.756 52.833,188.639 52.158,188.574 51.333 C 188.510 50.508,188.392 49.833,188.312 49.833 C 188.232 49.833,188.167 48.671,188.167 47.250 L 188.167 44.667 200.354 44.667 L 212.542 44.667 212.440 39.292 C 212.329 33.455,212.331 33.500,212.163 33.500 C 212.100 33.500,212.004 32.969,211.949 32.319 C 211.895 31.669,211.780 31.051,211.694 30.944 C 211.608 30.837,211.484 30.356,211.420 29.875 C 211.355 29.394,211.234 28.958,211.151 28.907 C 211.068 28.856,211.000 28.688,211.000 28.533 C 211.000 28.269,209.883 25.846,209.678 25.667 C 209.531 25.538,209.183 24.957,209.004 24.542 C 208.915 24.335,208.770 24.167,208.682 24.167 C 208.594 24.167,208.473 24.009,208.412 23.817 C 208.291 23.437,207.055 22.167,206.805 22.167 C 206.720 22.167,206.477 21.979,206.265 21.750 C 206.052 21.521,205.797 21.333,205.698 21.333 C 205.598 21.333,205.443 21.202,205.353 21.042 C 205.264 20.881,205.129 20.757,205.053 20.765 C 204.784 20.795,204.333 20.625,204.333 20.494 C 204.333 20.420,204.108 20.310,203.833 20.250 C 203.558 20.190,203.333 20.087,203.333 20.021 C 203.333 19.956,202.977 19.801,202.542 19.677 C 202.106 19.552,201.675 19.426,201.583 19.395 C 201.492 19.365,201.098 19.263,200.708 19.170 C 200.319 19.076,199.681 18.923,199.292 18.830 C 198.349 18.603,190.914 18.484,189.333 18.671 M228.847 18.669 C 228.076 18.750,227.251 18.890,227.014 18.981 C 226.777 19.072,226.265 19.195,225.875 19.254 C 225.485 19.314,225.167 19.423,225.167 19.496 C 225.167 19.570,224.902 19.679,224.580 19.740 C 224.257 19.800,223.507 20.103,222.913 20.413 C 222.319 20.722,221.833 20.940,221.833 20.898 C 221.833 20.796,221.474 21.095,220.574 21.946 C 220.169 22.329,219.687 22.691,219.502 22.749 C 219.318 22.808,219.167 22.957,219.167 23.082 C 219.167 23.206,218.956 23.520,218.699 23.779 C 218.441 24.038,218.181 24.381,218.121 24.542 C 218.060 24.702,217.933 24.833,217.839 24.833 C 217.744 24.833,217.667 24.940,217.667 25.071 C 217.667 25.202,217.573 25.409,217.458 25.530 C 217.156 25.849,216.500 27.240,216.500 27.560 C 216.500 27.710,216.432 27.833,216.348 27.833 C 216.264 27.833,216.143 28.152,216.078 28.542 C 216.012 28.931,215.891 29.293,215.809 29.346 C 215.726 29.399,215.611 29.849,215.553 30.346 C 215.496 30.843,215.387 31.291,215.311 31.341 C 215.236 31.391,215.124 32.085,215.062 32.883 C 215.001 33.681,214.904 34.333,214.848 34.333 C 214.689 34.333,214.583 37.329,214.583 41.833 C 214.583 46.893,214.667 49.500,214.828 49.500 C 214.897 49.500,215.005 50.267,215.070 51.205 C 215.134 52.142,215.246 52.949,215.318 52.997 C 215.390 53.044,215.497 53.495,215.555 53.999 C 215.613 54.503,215.737 54.940,215.830 54.971 C 215.924 55.002,216.003 55.228,216.006 55.472 C 216.009 55.717,216.156 56.217,216.333 56.583 C 216.510 56.950,216.658 57.387,216.661 57.554 C 216.664 57.721,216.779 57.970,216.917 58.107 C 217.054 58.245,217.167 58.494,217.167 58.661 C 217.167 58.828,217.279 59.008,217.417 59.060 C 217.554 59.113,217.667 59.271,217.667 59.411 C 217.667 59.552,217.742 59.667,217.833 59.667 C 217.925 59.667,218.000 59.780,218.000 59.918 C 218.000 60.057,218.150 60.298,218.333 60.455 C 218.517 60.612,218.667 60.803,218.667 60.880 C 218.667 61.092,220.263 62.667,220.478 62.667 C 220.582 62.667,220.667 62.729,220.667 62.805 C 220.667 62.881,220.873 63.050,221.125 63.180 C 221.377 63.310,221.682 63.510,221.804 63.625 C 221.925 63.740,222.135 63.833,222.272 63.833 C 222.408 63.833,222.476 63.905,222.422 63.992 C 222.368 64.079,222.588 64.199,222.911 64.260 C 223.233 64.320,223.457 64.435,223.407 64.515 C 223.358 64.595,223.621 64.709,223.992 64.768 C 224.363 64.827,224.667 64.937,224.667 65.011 C 224.667 65.085,225.023 65.198,225.458 65.261 C 225.894 65.324,226.339 65.446,226.448 65.533 C 226.557 65.620,227.214 65.734,227.907 65.786 C 228.600 65.839,229.167 65.946,229.167 66.024 C 229.167 66.102,231.079 66.167,233.417 66.167 C 235.754 66.167,237.667 66.102,237.667 66.024 C 237.667 65.946,238.234 65.839,238.927 65.786 C 239.620 65.734,240.276 65.620,240.385 65.533 C 240.494 65.446,240.940 65.324,241.375 65.261 C 241.810 65.198,242.167 65.076,242.167 64.990 C 242.167 64.904,242.317 64.833,242.501 64.833 C 242.684 64.833,243.114 64.683,243.456 64.500 C 243.799 64.317,244.173 64.167,244.289 64.167 C 244.405 64.167,244.500 64.098,244.500 64.013 C 244.500 63.929,244.726 63.810,245.001 63.750 C 245.277 63.689,245.460 63.571,245.408 63.486 C 245.356 63.402,245.426 63.333,245.563 63.333 C 245.700 63.333,246.057 63.110,246.355 62.838 C 246.654 62.565,246.922 62.367,246.952 62.396 C 247.052 62.496,248.833 60.611,248.833 60.405 C 248.833 60.294,248.946 60.159,249.083 60.106 C 249.221 60.054,249.333 59.896,249.333 59.755 C 249.333 59.615,249.407 59.500,249.497 59.500 C 249.587 59.500,249.707 59.313,249.765 59.083 C 249.822 58.854,249.930 58.667,250.005 58.667 C 250.079 58.667,250.190 58.442,250.250 58.167 C 250.310 57.892,250.423 57.667,250.500 57.667 C 250.577 57.667,250.691 57.437,250.752 57.155 C 250.814 56.874,250.970 56.443,251.098 56.197 C 251.226 55.951,251.332 55.581,251.332 55.375 C 251.333 55.169,251.398 55.000,251.476 55.000 C 251.694 55.000,252.024 52.497,252.110 50.208 L 252.186 48.167 245.593 48.167 L 239.000 48.167 239.000 49.500 C 239.000 50.330,238.933 50.833,238.823 50.833 C 238.725 50.833,238.663 50.965,238.684 51.125 C 238.753 51.649,238.465 53.333,238.307 53.333 C 238.222 53.333,238.170 53.427,238.193 53.542 C 238.265 53.915,237.288 55.726,236.786 56.148 C 236.517 56.375,236.211 56.645,236.107 56.748 C 235.916 56.936,235.307 57.210,235.185 57.163 C 235.150 57.149,235.060 57.237,234.986 57.357 C 234.817 57.630,231.703 57.658,231.530 57.388 C 231.467 57.291,231.229 57.154,231.000 57.084 C 230.441 56.912,229.624 56.050,229.341 55.333 C 229.214 55.012,229.055 54.675,228.987 54.583 C 228.919 54.492,228.809 54.117,228.743 53.750 C 228.677 53.383,228.559 53.002,228.481 52.902 C 228.402 52.803,228.288 51.844,228.227 50.771 C 228.165 49.699,228.052 48.782,227.974 48.734 C 227.787 48.618,227.791 34.167,227.979 34.167 C 228.058 34.167,228.176 33.492,228.241 32.667 C 228.306 31.842,228.412 31.167,228.477 31.167 C 228.542 31.167,228.607 31.014,228.621 30.828 C 228.728 29.410,230.561 27.333,231.706 27.333 C 231.868 27.333,232.000 27.258,232.000 27.167 C 232.000 27.069,232.583 27.000,233.417 27.000 C 234.196 27.000,234.833 27.067,234.833 27.148 C 234.833 27.230,235.096 27.345,235.417 27.406 C 235.737 27.466,236.000 27.587,236.000 27.674 C 236.000 27.762,236.102 27.833,236.226 27.833 C 236.796 27.833,238.331 30.151,238.193 30.804 C 238.167 30.925,238.235 31.132,238.344 31.263 C 238.465 31.408,238.576 32.383,238.628 33.753 L 238.714 36.004 245.399 35.960 L 252.083 35.917 252.054 34.833 C 252.011 33.212,251.676 30.296,251.510 30.094 C 251.430 29.996,251.311 29.560,251.247 29.125 C 251.182 28.690,251.062 28.333,250.981 28.333 C 250.900 28.333,250.833 28.222,250.833 28.085 C 250.833 27.744,250.133 26.167,249.982 26.167 C 249.915 26.167,249.810 25.942,249.750 25.667 C 249.690 25.392,249.576 25.167,249.498 25.167 C 249.420 25.167,249.311 25.026,249.256 24.853 C 249.123 24.433,246.376 21.667,246.093 21.667 C 245.970 21.667,245.826 21.554,245.773 21.417 C 245.720 21.279,245.562 21.167,245.422 21.167 C 245.282 21.167,245.167 21.098,245.167 21.013 C 245.167 20.929,244.942 20.810,244.667 20.750 C 244.392 20.690,244.167 20.577,244.167 20.500 C 244.167 20.423,243.942 20.310,243.667 20.250 C 243.392 20.190,243.167 20.084,243.167 20.015 C 243.167 19.945,243.073 19.878,242.958 19.864 C 242.266 19.781,241.667 19.611,241.667 19.498 C 241.667 19.425,241.235 19.281,240.708 19.176 C 240.181 19.071,239.412 18.913,239.000 18.825 C 237.963 18.603,230.560 18.490,228.847 18.669 M315.958 18.623 C 315.523 18.657,315.167 18.752,315.167 18.833 C 315.167 18.914,315.003 18.949,314.804 18.911 C 314.605 18.873,314.361 18.904,314.262 18.981 C 314.062 19.138,313.151 19.403,312.958 19.361 C 312.890 19.346,312.833 19.402,312.833 19.487 C 312.833 19.571,312.608 19.690,312.333 19.750 C 312.058 19.810,311.833 19.921,311.833 19.995 C 311.833 20.070,311.646 20.178,311.417 20.235 C 311.188 20.293,311.000 20.413,311.000 20.503 C 311.000 20.593,310.906 20.668,310.792 20.669 C 310.677 20.670,310.208 21.084,309.750 21.589 C 309.292 22.094,308.710 22.733,308.458 23.009 C 308.206 23.285,308.000 23.589,308.000 23.683 C 308.000 23.778,307.906 24.019,307.792 24.219 C 307.616 24.526,307.570 24.177,307.500 22.000 L 307.417 19.417 301.208 19.373 L 295.000 19.329 295.000 42.331 L 295.000 65.333 301.660 65.333 L 308.320 65.333 308.368 50.577 C 308.403 39.881,308.468 35.788,308.604 35.702 C 308.707 35.637,308.844 35.340,308.909 35.042 C 308.974 34.744,309.100 34.500,309.190 34.500 C 309.280 34.500,309.312 34.434,309.262 34.353 C 309.086 34.069,310.704 32.000,311.103 32.000 C 311.220 32.000,311.377 31.906,311.450 31.792 C 311.636 31.501,312.637 31.023,313.333 30.891 C 313.654 30.830,313.967 30.705,314.028 30.611 C 314.093 30.512,315.297 30.410,316.903 30.366 L 319.667 30.290 319.667 24.395 L 319.667 18.500 318.208 18.530 C 317.406 18.547,316.394 18.588,315.958 18.623 M254.368 38.808 C 254.404 53.042,254.468 58.345,254.606 58.516 C 254.710 58.645,254.848 59.069,254.912 59.458 C 254.977 59.848,255.092 60.167,255.168 60.167 C 255.244 60.167,255.356 60.392,255.417 60.667 C 255.477 60.942,255.590 61.167,255.669 61.167 C 255.747 61.167,255.854 61.301,255.906 61.466 C 255.958 61.630,256.257 62.036,256.570 62.368 C 256.883 62.700,257.102 63.009,257.057 63.054 C 257.012 63.099,257.142 63.189,257.347 63.254 C 257.551 63.319,257.876 63.541,258.068 63.746 C 258.260 63.952,258.587 64.174,258.794 64.239 C 259.002 64.304,259.132 64.421,259.084 64.498 C 259.036 64.576,259.223 64.689,259.499 64.750 C 259.774 64.810,260.000 64.928,260.000 65.011 C 260.000 65.095,260.300 65.211,260.667 65.269 C 261.033 65.328,261.333 65.437,261.333 65.511 C 261.333 65.585,261.690 65.692,262.125 65.748 C 262.560 65.804,263.047 65.922,263.206 66.009 C 263.571 66.208,269.282 66.218,269.405 66.019 C 269.455 65.939,269.909 65.821,270.414 65.757 C 270.920 65.694,271.333 65.579,271.333 65.501 C 271.333 65.423,271.558 65.310,271.833 65.250 C 272.108 65.190,272.333 65.077,272.333 65.000 C 272.333 64.923,272.558 64.810,272.833 64.750 C 273.108 64.690,273.333 64.571,273.333 64.487 C 273.333 64.402,273.451 64.333,273.595 64.333 C 273.863 64.333,276.548 61.737,276.715 61.316 C 276.765 61.188,276.813 62.040,276.820 63.208 L 276.833 65.333 283.667 65.333 L 290.500 65.333 290.500 64.764 C 290.500 64.451,290.406 64.163,290.292 64.125 C 290.127 64.070,290.072 59.397,290.030 41.694 L 289.977 19.333 283.416 19.333 L 276.856 19.333 276.803 36.589 C 276.765 49.010,276.698 53.879,276.565 53.964 C 276.463 54.030,276.326 54.449,276.260 54.896 C 276.194 55.344,276.070 55.794,275.984 55.896 C 275.287 56.732,274.906 57.059,274.226 57.404 C 273.795 57.622,273.351 57.766,273.238 57.722 C 273.126 57.679,272.984 57.724,272.924 57.822 C 272.792 58.035,271.392 58.062,271.263 57.855 C 271.214 57.775,270.958 57.667,270.695 57.614 C 270.026 57.480,269.000 56.847,269.000 56.567 C 269.000 56.438,268.926 56.333,268.837 56.333 C 268.747 56.333,268.626 56.146,268.568 55.917 C 268.511 55.688,268.402 55.500,268.325 55.500 C 268.249 55.500,268.141 55.144,268.085 54.708 C 268.029 54.273,267.912 53.786,267.825 53.627 C 267.728 53.450,267.667 46.744,267.667 36.336 L 267.667 19.333 260.993 19.333 L 254.320 19.333 254.368 38.808 M322.278 19.444 C 322.217 19.506,322.167 29.856,322.167 42.444 L 322.167 65.333 328.750 65.333 L 335.333 65.333 335.333 42.333 L 335.333 19.333 328.861 19.333 C 325.301 19.333,322.339 19.383,322.278 19.444 M195.964 27.141 C 195.999 27.247,196.115 27.336,196.222 27.339 C 196.431 27.344,197.333 28.085,197.333 28.250 C 197.333 28.305,197.516 28.518,197.738 28.725 C 197.961 28.931,198.197 29.321,198.261 29.592 C 198.326 29.862,198.441 30.162,198.516 30.258 C 198.591 30.354,198.704 30.767,198.768 31.175 C 198.832 31.583,198.937 31.954,199.001 32.000 C 199.066 32.046,199.172 33.190,199.236 34.542 L 199.353 37.000 193.760 37.000 L 188.167 37.000 188.167 34.833 C 188.167 33.642,188.231 32.667,188.310 32.667 C 188.388 32.667,188.501 32.202,188.560 31.634 C 188.620 31.067,188.734 30.560,188.813 30.509 C 188.893 30.458,189.011 30.173,189.076 29.875 C 189.140 29.577,189.257 29.333,189.335 29.333 C 189.414 29.333,189.526 29.180,189.586 28.992 C 189.742 28.502,190.767 27.523,191.253 27.401 C 191.481 27.344,191.667 27.236,191.667 27.160 C 191.667 26.800,195.844 26.781,195.964 27.141 " stroke="none" fill="#04acec" fill-rule="evenodd"></path><path id="path1" d="M123.833 11.595 C 123.833 21.902,123.806 23.163,123.583 22.940 C 123.446 22.803,123.333 22.639,123.333 22.577 C 123.333 22.387,121.549 20.667,121.351 20.667 C 121.250 20.667,121.166 20.610,121.166 20.542 C 121.164 20.304,119.103 19.182,118.651 19.172 C 118.504 19.169,118.129 19.036,117.817 18.876 C 116.411 18.155,108.535 18.634,107.833 19.483 C 107.787 19.538,107.460 19.731,107.106 19.912 C 106.751 20.092,106.425 20.336,106.380 20.453 C 106.335 20.571,106.203 20.667,106.087 20.667 C 105.897 20.667,105.244 21.330,104.219 22.566 C 104.018 22.807,103.807 23.154,103.749 23.336 C 103.691 23.518,103.580 23.667,103.502 23.667 C 103.424 23.667,103.310 23.892,103.250 24.167 C 103.190 24.442,103.079 24.667,103.005 24.667 C 102.931 24.667,102.821 24.929,102.761 25.250 C 102.701 25.571,102.588 25.833,102.511 25.833 C 102.434 25.833,102.321 26.171,102.259 26.583 C 102.197 26.996,102.083 27.333,102.006 27.333 C 101.929 27.333,101.812 27.802,101.746 28.375 C 101.680 28.948,101.562 29.458,101.483 29.508 C 101.403 29.559,101.289 30.477,101.227 31.550 C 101.166 32.622,101.052 33.500,100.975 33.500 C 100.897 33.500,100.833 37.438,100.833 42.250 C 100.833 47.063,100.897 51.000,100.975 51.000 C 101.053 51.000,101.168 51.841,101.230 52.868 C 101.292 53.896,101.407 54.777,101.485 54.827 C 101.563 54.876,101.680 55.385,101.746 55.958 C 101.812 56.531,101.929 57.000,102.006 57.000 C 102.083 57.000,102.197 57.338,102.259 57.750 C 102.321 58.163,102.429 58.500,102.500 58.500 C 102.571 58.500,102.679 58.762,102.739 59.083 C 102.799 59.404,102.914 59.667,102.994 59.667 C 103.075 59.667,103.190 59.892,103.250 60.167 C 103.310 60.442,103.421 60.667,103.495 60.667 C 103.570 60.667,103.682 60.872,103.745 61.123 C 103.808 61.374,103.914 61.618,103.980 61.665 C 104.047 61.712,104.322 62.048,104.592 62.413 C 105.121 63.127,105.835 63.820,106.050 63.828 C 106.123 63.831,106.352 64.016,106.558 64.238 C 106.765 64.461,107.136 64.694,107.383 64.757 C 107.631 64.819,107.833 64.933,107.833 65.011 C 107.833 65.088,108.096 65.201,108.417 65.261 C 108.737 65.321,109.000 65.432,109.000 65.507 C 109.000 65.581,109.412 65.694,109.917 65.757 C 110.421 65.820,110.833 65.938,110.833 66.019 C 110.833 66.100,112.258 66.167,114.000 66.167 C 115.742 66.167,117.167 66.100,117.167 66.019 C 117.167 65.938,117.579 65.820,118.083 65.757 C 118.587 65.694,119.000 65.581,119.000 65.507 C 119.000 65.432,119.263 65.321,119.583 65.261 C 119.904 65.201,120.167 65.080,120.167 64.992 C 120.167 64.905,120.282 64.833,120.422 64.833 C 120.562 64.833,120.718 64.728,120.767 64.598 C 120.817 64.469,121.040 64.318,121.262 64.262 C 121.485 64.206,121.667 64.087,121.667 63.997 C 121.667 63.907,121.761 63.833,121.876 63.833 C 121.992 63.833,122.348 63.528,122.668 63.155 C 122.988 62.782,123.381 62.353,123.542 62.202 C 123.702 62.050,123.833 61.862,123.833 61.784 C 123.833 61.707,123.946 61.530,124.083 61.393 C 124.306 61.171,124.333 61.376,124.333 63.238 L 124.333 65.333 130.667 65.333 L 137.000 65.333 137.000 32.667 L 137.000 0.000 130.417 0.000 L 123.833 0.000 123.833 11.595 M21.027 18.679 C 20.447 18.755,19.884 18.886,19.777 18.972 C 19.671 19.058,19.343 19.180,19.049 19.242 C 18.540 19.351,17.631 19.765,16.923 20.211 C 16.401 20.539,14.241 22.721,14.120 23.042 C 13.826 23.823,13.667 23.222,13.667 21.333 L 13.667 19.333 7.167 19.333 L 0.667 19.333 0.667 42.333 L 0.667 65.333 7.167 65.333 L 13.667 65.333 13.667 48.843 C 13.667 39.774,13.730 32.314,13.808 32.265 C 13.886 32.217,13.999 31.598,14.059 30.890 C 14.119 30.182,14.237 29.560,14.321 29.508 C 14.405 29.456,14.524 29.213,14.585 28.969 C 14.647 28.724,14.802 28.484,14.932 28.434 C 15.061 28.384,15.167 28.261,15.167 28.160 C 15.167 27.892,15.539 27.563,16.008 27.416 C 16.233 27.346,16.470 27.205,16.536 27.103 C 16.754 26.763,20.324 26.858,20.520 27.208 C 20.610 27.369,20.755 27.500,20.842 27.500 C 21.080 27.500,21.619 28.087,21.745 28.484 C 21.806 28.676,21.917 28.833,21.993 28.833 C 22.068 28.833,22.182 29.115,22.246 29.458 C 22.311 29.802,22.450 30.189,22.557 30.317 C 22.700 30.491,22.762 35.052,22.798 47.942 L 22.846 65.333 29.333 65.333 L 35.819 65.333 35.868 48.026 C 35.903 35.670,35.970 30.651,36.102 30.484 C 36.203 30.355,36.332 30.009,36.388 29.715 C 36.537 28.926,37.509 27.537,37.998 27.412 C 38.227 27.354,38.468 27.219,38.534 27.112 C 38.750 26.764,42.320 26.850,42.520 27.208 C 42.610 27.369,42.754 27.500,42.840 27.500 C 43.047 27.500,43.667 28.036,43.667 28.216 C 43.667 28.293,43.779 28.470,43.917 28.607 C 44.054 28.745,44.167 29.002,44.167 29.179 C 44.167 29.355,44.236 29.500,44.321 29.500 C 44.406 29.500,44.523 29.931,44.580 30.458 C 44.636 30.985,44.754 31.547,44.841 31.706 C 44.939 31.884,45.000 38.438,45.000 48.664 L 45.000 65.333 51.504 65.333 L 58.008 65.333 57.962 45.411 C 57.929 30.886,57.866 25.456,57.729 25.369 C 57.626 25.304,57.489 25.006,57.424 24.708 C 57.360 24.410,57.246 24.167,57.171 24.167 C 57.097 24.167,56.985 23.964,56.923 23.717 C 56.861 23.469,56.628 23.098,56.405 22.891 C 56.182 22.685,56.000 22.446,56.000 22.361 C 56.000 22.207,54.734 20.833,54.592 20.833 C 54.551 20.833,54.194 20.617,53.800 20.353 C 52.979 19.804,51.629 19.167,51.285 19.167 C 51.156 19.167,50.813 19.048,50.521 18.902 C 49.426 18.356,42.158 18.442,41.592 19.008 C 41.505 19.095,41.275 19.167,41.082 19.167 C 40.889 19.167,40.585 19.277,40.407 19.411 C 40.229 19.546,39.969 19.658,39.830 19.661 C 39.690 19.664,39.177 19.929,38.690 20.250 C 38.203 20.571,37.755 20.837,37.694 20.840 C 37.633 20.844,37.399 21.069,37.174 21.340 C 36.950 21.612,36.700 21.833,36.620 21.833 C 36.437 21.833,35.501 22.760,35.497 22.946 C 35.488 23.362,34.500 23.989,34.500 23.578 C 34.500 23.438,34.387 23.280,34.250 23.227 C 34.112 23.174,34.000 23.033,34.000 22.912 C 34.000 22.627,32.040 20.667,31.754 20.667 C 31.634 20.667,31.492 20.554,31.440 20.417 C 31.387 20.279,31.229 20.167,31.089 20.167 C 30.948 20.167,30.833 20.098,30.833 20.013 C 30.833 19.929,30.608 19.810,30.333 19.750 C 30.058 19.690,29.833 19.577,29.833 19.500 C 29.833 19.423,29.590 19.308,29.292 19.244 C 28.994 19.180,28.672 19.066,28.578 18.990 C 28.030 18.552,23.458 18.364,21.027 18.679 M75.231 18.661 C 74.396 18.736,73.571 18.871,73.398 18.961 C 73.225 19.051,72.729 19.175,72.296 19.238 C 71.862 19.301,71.469 19.415,71.422 19.491 C 71.375 19.567,71.074 19.678,70.752 19.739 C 70.430 19.799,70.167 19.912,70.167 19.989 C 70.167 20.066,69.904 20.179,69.583 20.239 C 69.262 20.299,69.000 20.412,69.000 20.489 C 69.000 20.567,68.813 20.678,68.583 20.735 C 68.354 20.793,68.167 20.913,68.167 21.003 C 68.167 21.093,68.052 21.167,67.911 21.167 C 67.771 21.167,67.613 21.279,67.560 21.417 C 67.508 21.554,67.366 21.667,67.246 21.667 C 66.960 21.667,64.500 24.127,64.500 24.412 C 64.500 24.533,64.387 24.674,64.250 24.727 C 64.112 24.780,64.000 24.938,64.000 25.078 C 64.000 25.218,63.931 25.333,63.847 25.333 C 63.762 25.333,63.644 25.558,63.583 25.833 C 63.523 26.108,63.404 26.333,63.320 26.333 C 63.236 26.333,63.167 26.428,63.167 26.544 C 63.167 26.660,63.018 27.032,62.836 27.371 C 62.655 27.710,62.457 28.291,62.398 28.661 C 62.339 29.031,62.233 29.333,62.162 29.333 C 62.091 29.333,61.979 29.802,61.913 30.375 C 61.847 30.948,61.733 31.455,61.660 31.502 C 61.586 31.549,61.472 32.336,61.406 33.252 C 61.340 34.167,61.211 34.965,61.119 35.025 C 60.894 35.170,60.896 48.830,61.121 48.977 C 61.211 49.036,61.336 49.906,61.400 50.912 C 61.463 51.917,61.578 52.780,61.654 52.828 C 61.731 52.877,61.847 53.385,61.913 53.958 C 61.979 54.531,62.091 55.000,62.162 55.000 C 62.233 55.000,62.340 55.309,62.401 55.687 C 62.461 56.065,62.658 56.699,62.839 57.095 C 63.019 57.491,63.167 57.894,63.167 57.991 C 63.167 58.088,63.236 58.167,63.320 58.167 C 63.404 58.167,63.523 58.392,63.583 58.667 C 63.644 58.942,63.754 59.167,63.829 59.167 C 63.903 59.167,64.011 59.354,64.068 59.583 C 64.126 59.813,64.247 60.000,64.337 60.000 C 64.426 60.000,64.500 60.097,64.500 60.216 C 64.500 60.335,64.722 60.616,64.993 60.841 C 65.264 61.066,65.489 61.336,65.493 61.441 C 65.497 61.546,65.781 61.867,66.125 62.154 C 66.469 62.441,66.862 62.776,67.000 62.900 C 67.137 63.023,67.419 63.176,67.625 63.240 C 67.831 63.304,68.000 63.426,68.000 63.511 C 68.000 63.597,68.115 63.667,68.255 63.667 C 68.396 63.667,68.552 63.775,68.602 63.906 C 68.653 64.038,68.913 64.194,69.181 64.253 C 69.448 64.312,69.667 64.419,69.667 64.492 C 69.667 64.565,69.967 64.672,70.333 64.731 C 70.700 64.789,71.000 64.909,71.000 64.996 C 71.000 65.084,71.375 65.205,71.833 65.266 C 72.292 65.327,72.667 65.436,72.667 65.510 C 72.667 65.584,73.267 65.696,74.000 65.760 C 74.733 65.824,75.333 65.942,75.333 66.022 C 75.333 66.101,77.283 66.167,79.667 66.167 C 82.050 66.167,84.000 66.102,84.000 66.024 C 84.000 65.946,84.567 65.839,85.260 65.786 C 85.953 65.734,86.609 65.617,86.718 65.528 C 86.827 65.438,87.273 65.311,87.708 65.247 C 88.144 65.182,88.500 65.066,88.500 64.989 C 88.500 64.912,88.763 64.799,89.083 64.739 C 89.404 64.679,89.667 64.569,89.667 64.495 C 89.667 64.421,89.892 64.310,90.167 64.250 C 90.442 64.190,90.667 64.071,90.667 63.987 C 90.667 63.902,90.774 63.833,90.905 63.833 C 91.036 63.833,91.242 63.740,91.363 63.625 C 91.484 63.510,91.790 63.310,92.042 63.180 C 92.294 63.050,92.500 62.881,92.500 62.805 C 92.500 62.729,92.572 62.667,92.660 62.667 C 92.892 62.667,94.167 61.420,94.167 61.192 C 94.167 61.087,94.227 61.000,94.300 61.000 C 94.373 61.000,94.617 60.702,94.841 60.338 C 95.066 59.974,95.292 59.674,95.344 59.671 C 95.396 59.669,95.541 59.404,95.667 59.083 C 95.793 58.762,95.947 58.500,96.010 58.500 C 96.073 58.500,96.172 58.200,96.231 57.833 C 96.289 57.467,96.408 57.167,96.494 57.167 C 96.581 57.167,96.701 56.904,96.761 56.583 C 96.821 56.262,96.928 56.000,96.999 56.000 C 97.070 56.000,97.182 55.569,97.248 55.042 C 97.313 54.515,97.431 54.044,97.508 53.995 C 97.586 53.947,97.702 53.385,97.766 52.745 C 97.830 52.106,97.947 51.541,98.026 51.489 C 98.105 51.438,98.218 50.106,98.278 48.531 C 98.337 46.956,98.449 45.667,98.526 45.667 C 98.603 45.667,98.667 43.942,98.667 41.833 C 98.667 39.725,98.603 38.000,98.526 38.000 C 98.449 38.000,98.335 36.785,98.274 35.300 C 98.213 33.816,98.095 32.559,98.012 32.508 C 97.929 32.456,97.808 31.871,97.743 31.207 C 97.677 30.543,97.563 30.000,97.489 30.000 C 97.414 30.000,97.303 29.662,97.241 29.250 C 97.179 28.837,97.072 28.500,97.002 28.500 C 96.932 28.500,96.828 28.256,96.770 27.958 C 96.675 27.466,96.204 26.371,96.000 26.167 C 95.954 26.121,95.786 25.821,95.626 25.500 C 95.145 24.535,94.975 24.321,93.481 22.806 C 92.691 22.006,91.852 21.303,91.618 21.244 C 91.383 21.185,91.150 21.031,91.101 20.902 C 91.051 20.772,90.896 20.667,90.755 20.667 C 90.615 20.667,90.500 20.592,90.500 20.500 C 90.500 20.408,90.406 20.333,90.292 20.332 C 90.177 20.332,89.874 20.222,89.618 20.089 C 89.362 19.955,88.893 19.797,88.576 19.738 C 88.259 19.678,88.000 19.575,88.000 19.509 C 88.000 19.443,87.606 19.306,87.125 19.205 C 86.644 19.104,85.912 18.940,85.500 18.840 C 84.542 18.609,77.228 18.481,75.231 18.661 M120.625 27.126 C 120.663 27.240,120.779 27.333,120.882 27.333 C 121.144 27.333,122.333 28.521,122.333 28.784 C 122.333 28.903,122.405 29.000,122.492 29.000 C 122.580 29.000,122.703 29.281,122.766 29.625 C 122.830 29.969,122.944 30.291,123.020 30.340 C 123.096 30.390,123.209 30.990,123.271 31.674 C 123.333 32.357,123.466 32.970,123.567 33.036 C 123.821 33.200,123.815 50.136,123.561 50.301 C 123.464 50.365,123.333 51.088,123.272 51.909 C 123.210 52.730,123.095 53.442,123.017 53.492 C 122.938 53.542,122.821 53.902,122.756 54.291 C 122.691 54.680,122.569 55.041,122.485 55.092 C 122.402 55.144,122.333 55.305,122.333 55.449 C 122.333 55.820,120.985 57.452,120.583 57.567 C 120.400 57.619,120.081 57.663,119.875 57.664 C 119.669 57.666,119.500 57.742,119.500 57.833 C 119.500 57.925,119.200 58.000,118.833 58.000 C 118.467 58.000,118.167 57.925,118.167 57.833 C 118.167 57.742,118.034 57.667,117.873 57.667 C 117.227 57.667,115.850 56.717,115.617 56.112 C 115.559 55.959,115.437 55.833,115.346 55.833 C 115.256 55.833,115.130 55.552,115.067 55.208 C 115.004 54.865,114.886 54.540,114.805 54.487 C 114.724 54.435,114.611 53.985,114.553 53.487 C 114.496 52.990,114.386 52.541,114.308 52.490 C 114.231 52.439,114.118 51.370,114.058 50.115 C 113.998 48.860,113.885 47.833,113.807 47.833 C 113.730 47.833,113.667 44.946,113.667 41.417 C 113.667 37.887,113.730 35.000,113.808 35.000 C 113.886 35.000,113.995 34.206,114.050 33.236 C 114.105 32.265,114.221 31.384,114.309 31.277 C 114.397 31.171,114.522 30.727,114.587 30.292 C 114.651 29.856,114.763 29.500,114.834 29.500 C 114.906 29.500,115.011 29.311,115.070 29.079 C 115.190 28.599,116.423 27.333,116.770 27.333 C 116.897 27.333,117.000 27.264,117.000 27.178 C 117.000 26.801,120.500 26.750,120.625 27.126 M81.000 27.145 C 81.000 27.225,81.300 27.339,81.667 27.397 C 82.033 27.456,82.333 27.578,82.333 27.669 C 82.333 27.759,82.417 27.833,82.518 27.833 C 82.774 27.833,83.494 28.538,83.497 28.792 C 83.499 28.906,83.574 29.000,83.663 29.000 C 83.753 29.000,83.874 29.188,83.932 29.417 C 83.989 29.646,84.096 29.833,84.170 29.833 C 84.244 29.833,84.357 30.152,84.422 30.542 C 84.488 30.931,84.606 31.292,84.687 31.343 C 84.767 31.394,84.881 32.125,84.941 32.968 C 85.001 33.811,85.114 34.500,85.192 34.500 C 85.270 34.500,85.333 37.688,85.333 41.583 C 85.333 45.479,85.270 48.667,85.192 48.667 C 85.114 48.667,84.999 49.507,84.937 50.535 C 84.874 51.563,84.762 52.444,84.687 52.493 C 84.612 52.543,84.504 52.990,84.447 53.487 C 84.389 53.985,84.271 54.435,84.184 54.489 C 84.097 54.543,83.975 54.792,83.912 55.043 C 83.849 55.295,83.730 55.500,83.649 55.500 C 83.567 55.500,83.500 55.598,83.500 55.719 C 83.500 56.899,78.499 58.381,77.863 57.388 C 77.801 57.291,77.578 57.158,77.367 57.092 C 76.843 56.928,75.861 55.919,75.734 55.413 C 75.677 55.186,75.568 55.000,75.492 55.000 C 75.416 55.000,75.303 54.663,75.241 54.250 C 75.179 53.837,75.069 53.500,74.995 53.500 C 74.922 53.500,74.808 52.919,74.742 52.208 C 74.677 51.498,74.539 50.863,74.436 50.798 C 74.169 50.627,74.172 33.147,74.440 32.817 C 74.544 32.689,74.683 32.115,74.748 31.542 C 74.813 30.969,74.928 30.500,75.003 30.500 C 75.079 30.500,75.190 30.275,75.250 30.000 C 75.310 29.725,75.429 29.500,75.513 29.500 C 75.598 29.500,75.667 29.430,75.667 29.345 C 75.667 28.997,76.442 28.020,76.792 27.927 C 76.998 27.872,77.167 27.757,77.167 27.671 C 77.167 27.585,77.429 27.466,77.750 27.406 C 78.071 27.345,78.333 27.230,78.333 27.148 C 78.333 27.067,78.933 27.000,79.667 27.000 C 80.400 27.000,81.000 27.065,81.000 27.145 M3.375 81.611 C 3.077 81.653,2.833 81.750,2.833 81.826 C 2.833 81.902,2.647 82.011,2.420 82.068 C 1.914 82.194,0.905 83.176,0.741 83.700 C 0.676 83.911,0.558 84.125,0.479 84.175 C -0.193 84.610,-0.193 96.390,0.479 96.825 C 0.558 96.875,0.676 97.089,0.741 97.300 C 0.896 97.794,1.872 98.771,2.367 98.925 C 2.578 98.991,2.803 99.129,2.869 99.231 C 2.949 99.356,3.944 99.417,5.916 99.417 C 7.888 99.417,8.884 99.356,8.964 99.231 C 9.030 99.129,9.268 98.987,9.494 98.917 C 10.289 98.668,11.500 97.117,11.500 96.348 C 11.500 96.172,11.594 95.997,11.708 95.958 C 11.990 95.864,12.013 85.217,11.732 85.036 C 11.631 84.970,11.496 84.635,11.433 84.292 C 11.370 83.948,11.247 83.667,11.159 83.667 C 11.072 83.667,11.000 83.580,11.000 83.475 C 11.000 83.191,9.954 82.227,9.488 82.081 C 9.265 82.012,9.032 81.876,8.970 81.778 C 8.854 81.597,4.411 81.464,3.375 81.611 M56.375 81.612 C 56.077 81.654,55.833 81.750,55.833 81.826 C 55.833 81.902,55.633 82.014,55.387 82.076 C 54.904 82.197,53.667 83.406,53.667 83.757 C 53.667 83.875,53.573 84.003,53.458 84.042 C 53.306 84.093,53.250 84.704,53.250 86.333 C 53.250 87.963,53.306 88.574,53.458 88.625 C 53.573 88.663,53.667 88.784,53.667 88.894 C 53.667 89.003,53.817 89.221,54.000 89.378 C 54.183 89.535,54.333 89.777,54.333 89.915 C 54.333 90.053,54.398 90.167,54.477 90.167 C 54.557 90.167,54.864 90.379,55.161 90.638 C 55.458 90.897,56.049 91.291,56.475 91.513 C 56.901 91.735,57.310 92.010,57.383 92.125 C 57.457 92.240,57.588 92.333,57.676 92.333 C 58.069 92.333,59.852 93.613,59.941 93.958 C 59.993 94.165,60.103 94.333,60.185 94.333 C 60.266 94.333,60.333 94.596,60.333 94.917 C 60.333 95.237,60.266 95.500,60.185 95.500 C 60.103 95.500,59.990 95.684,59.933 95.909 C 59.734 96.704,57.599 96.704,57.400 95.909 C 57.343 95.684,57.230 95.500,57.149 95.500 C 57.067 95.500,57.000 95.050,57.000 94.500 L 57.000 93.500 54.917 93.500 L 52.833 93.500 52.833 94.750 C 52.833 95.438,52.898 96.000,52.978 96.000 C 53.058 96.000,53.165 96.317,53.217 96.705 C 53.269 97.092,53.392 97.436,53.489 97.469 C 53.587 97.501,53.667 97.623,53.667 97.740 C 53.667 97.995,54.418 98.833,54.647 98.833 C 54.736 98.833,54.941 98.965,55.101 99.125 C 55.555 99.579,60.955 99.558,61.915 99.098 C 62.973 98.592,63.971 97.489,64.100 96.685 C 64.160 96.308,64.275 96.000,64.355 96.000 C 64.435 96.000,64.500 95.362,64.500 94.583 C 64.500 93.804,64.435 93.167,64.355 93.167 C 64.275 93.167,64.161 92.867,64.103 92.500 C 64.044 92.133,63.922 91.833,63.831 91.833 C 63.741 91.833,63.667 91.745,63.667 91.638 C 63.667 91.531,63.258 91.062,62.758 90.596 C 61.494 89.418,61.416 89.360,60.931 89.239 C 60.694 89.179,60.500 89.070,60.500 88.995 C 60.500 88.921,60.281 88.812,60.014 88.753 C 59.747 88.694,59.486 88.538,59.436 88.406 C 59.385 88.275,59.229 88.167,59.089 88.167 C 58.948 88.167,58.833 88.097,58.833 88.011 C 58.833 87.926,58.676 87.806,58.484 87.745 C 57.469 87.423,56.963 85.805,57.635 85.034 C 58.362 84.201,60.000 84.544,60.000 85.529 C 60.000 85.696,60.075 85.833,60.167 85.833 C 60.258 85.833,60.333 86.133,60.333 86.500 L 60.333 87.167 62.272 87.167 L 64.211 87.167 64.129 85.466 C 64.078 84.407,63.976 83.742,63.857 83.702 C 63.752 83.667,63.667 83.561,63.667 83.467 C 63.667 83.372,63.375 83.003,63.020 82.647 C 62.664 82.291,62.295 82.000,62.200 82.000 C 62.105 82.000,61.997 81.907,61.959 81.794 C 61.889 81.584,57.579 81.443,56.375 81.612 M122.833 82.240 C 122.833 82.556,122.899 82.855,122.980 82.905 C 123.061 82.954,123.180 83.484,123.244 84.081 C 123.308 84.678,123.420 85.167,123.494 85.167 C 123.568 85.167,123.680 85.654,123.744 86.250 C 123.808 86.846,123.919 87.333,123.992 87.333 C 124.064 87.333,124.175 87.858,124.239 88.500 C 124.302 89.142,124.415 89.667,124.491 89.667 C 124.566 89.667,124.680 90.154,124.744 90.750 C 124.808 91.346,124.918 91.833,124.990 91.833 C 125.061 91.833,125.168 92.298,125.227 92.866 C 125.286 93.433,125.400 93.940,125.479 93.991 C 125.558 94.042,125.676 94.590,125.741 95.208 C 125.806 95.827,125.920 96.333,125.994 96.333 C 126.068 96.333,126.180 96.821,126.244 97.417 C 126.308 98.013,126.429 98.500,126.513 98.500 C 126.598 98.500,126.667 98.688,126.667 98.917 L 126.667 99.333 128.833 99.333 C 130.648 99.333,131.000 99.293,131.000 99.083 C 131.000 98.946,131.070 98.833,131.157 98.833 C 131.243 98.833,131.365 98.308,131.428 97.667 C 131.491 97.025,131.601 96.500,131.672 96.500 C 131.743 96.500,131.853 96.050,131.917 95.500 C 131.981 94.950,132.093 94.500,132.167 94.500 C 132.240 94.500,132.353 94.050,132.417 93.500 C 132.481 92.950,132.592 92.500,132.664 92.500 C 132.736 92.500,132.847 92.013,132.911 91.417 C 132.974 90.821,133.088 90.333,133.164 90.333 C 133.239 90.333,133.353 89.883,133.417 89.333 C 133.548 88.203,134.000 87.872,134.000 88.907 C 134.000 89.222,134.069 89.523,134.154 89.575 C 134.238 89.627,134.359 90.157,134.423 90.752 C 134.487 91.347,134.596 91.833,134.667 91.833 C 134.737 91.833,134.847 92.321,134.911 92.917 C 134.974 93.513,135.087 94.000,135.160 94.000 C 135.234 94.000,135.347 94.563,135.411 95.250 C 135.476 95.938,135.592 96.500,135.671 96.500 C 135.749 96.500,135.865 97.025,135.928 97.667 C 135.991 98.308,136.108 98.833,136.188 98.833 C 136.268 98.833,136.333 98.946,136.333 99.083 C 136.333 99.293,136.685 99.333,138.500 99.333 C 140.315 99.333,140.667 99.293,140.667 99.083 C 140.667 98.946,140.737 98.833,140.823 98.833 C 140.909 98.833,141.032 98.308,141.095 97.667 C 141.158 97.025,141.269 96.500,141.342 96.500 C 141.414 96.500,141.526 96.013,141.589 95.417 C 141.653 94.821,141.764 94.333,141.836 94.333 C 141.908 94.333,142.020 93.865,142.086 93.292 C 142.151 92.719,142.270 92.167,142.352 92.066 C 142.433 91.965,142.548 91.421,142.607 90.858 C 142.666 90.294,142.772 89.833,142.844 89.833 C 142.915 89.833,143.026 89.346,143.089 88.750 C 143.153 88.154,143.266 87.667,143.339 87.667 C 143.413 87.667,143.526 87.178,143.590 86.581 C 143.654 85.984,143.766 85.458,143.840 85.413 C 143.914 85.367,144.026 84.843,144.090 84.248 C 144.153 83.653,144.272 83.167,144.353 83.167 C 144.434 83.167,144.500 82.829,144.500 82.417 L 144.500 81.667 142.500 81.667 L 140.500 81.667 140.500 82.167 C 140.500 82.442,140.434 82.667,140.353 82.667 C 140.272 82.667,140.153 83.304,140.088 84.083 C 140.023 84.862,139.909 85.500,139.833 85.500 C 139.758 85.500,139.643 86.138,139.579 86.917 C 139.514 87.696,139.401 88.333,139.329 88.333 C 139.256 88.333,139.143 88.971,139.079 89.750 C 139.014 90.529,138.894 91.167,138.814 91.167 C 138.733 91.167,138.656 91.448,138.644 91.792 C 138.630 92.179,138.594 92.274,138.549 92.042 C 138.509 91.835,138.416 91.667,138.341 91.667 C 138.267 91.667,138.153 91.104,138.089 90.417 C 138.024 89.729,137.911 89.167,137.838 89.167 C 137.764 89.167,137.612 88.416,137.500 87.498 C 137.387 86.580,137.235 85.792,137.161 85.746 C 137.087 85.701,136.974 85.176,136.910 84.582 C 136.847 83.987,136.728 83.500,136.647 83.500 C 136.566 83.500,136.499 83.256,136.498 82.958 C 136.492 81.627,136.571 81.667,133.917 81.667 C 131.305 81.667,131.343 81.650,131.336 82.792 C 131.334 82.998,131.263 83.167,131.177 83.167 C 131.091 83.167,130.968 83.692,130.905 84.333 C 130.842 84.975,130.731 85.500,130.658 85.500 C 130.586 85.500,130.474 85.987,130.411 86.583 C 130.347 87.179,130.236 87.667,130.164 87.667 C 130.092 87.667,129.980 88.135,129.914 88.708 C 129.849 89.281,129.730 89.833,129.648 89.934 C 129.567 90.035,129.452 90.579,129.393 91.142 C 129.243 92.580,128.936 92.461,128.707 90.875 C 128.330 88.261,128.147 87.244,128.009 86.988 C 127.931 86.844,127.813 86.150,127.747 85.446 C 127.681 84.742,127.561 84.167,127.480 84.167 C 127.400 84.167,127.333 83.952,127.333 83.690 C 127.333 83.428,127.286 82.865,127.227 82.440 L 127.121 81.667 124.977 81.667 L 122.833 81.667 122.833 82.240 M156.333 90.500 L 156.333 99.333 158.167 99.333 C 159.685 99.333,160.000 99.290,160.000 99.083 C 160.000 98.756,160.151 98.768,160.546 99.125 C 160.810 99.364,161.187 99.417,162.649 99.417 L 164.430 99.417 165.048 98.816 C 165.388 98.486,165.667 98.061,165.667 97.872 C 165.667 97.683,165.760 97.497,165.875 97.458 C 166.034 97.405,166.083 96.390,166.083 93.136 C 166.083 88.449,166.075 88.403,165.011 87.333 L 164.431 86.750 162.745 86.750 C 161.302 86.750,161.013 86.796,160.738 87.072 C 160.421 87.389,160.416 87.358,160.371 84.530 L 160.325 81.667 158.329 81.667 L 156.333 81.667 156.333 90.500 M176.268 81.930 C 176.212 82.075,176.167 82.375,176.167 82.597 C 176.167 82.819,176.101 83.000,176.021 83.000 C 175.942 83.000,175.827 83.375,175.766 83.833 C 175.705 84.292,175.590 84.667,175.511 84.667 C 175.431 84.667,175.314 85.117,175.250 85.667 C 175.186 86.217,175.069 86.667,174.989 86.667 C 174.910 86.667,174.795 87.042,174.734 87.500 C 174.673 87.958,174.564 88.333,174.491 88.333 C 174.417 88.333,174.306 88.746,174.243 89.250 C 174.180 89.754,174.072 90.167,174.002 90.167 C 173.933 90.167,173.827 90.542,173.766 91.000 C 173.705 91.458,173.591 91.833,173.513 91.833 C 173.436 91.833,173.320 92.246,173.257 92.750 C 173.194 93.254,173.078 93.667,173.000 93.667 C 172.922 93.667,172.806 94.080,172.743 94.586 C 172.679 95.091,172.566 95.543,172.490 95.589 C 172.414 95.636,172.300 96.029,172.236 96.462 C 172.173 96.895,172.052 97.295,171.968 97.349 C 171.883 97.403,171.771 97.872,171.717 98.391 L 171.620 99.333 173.626 99.333 C 175.783 99.333,175.833 99.312,175.833 98.403 C 175.833 98.181,175.901 98.000,175.984 98.000 C 176.066 98.000,176.186 97.550,176.250 97.000 C 176.314 96.450,176.434 96.000,176.516 96.000 C 176.599 96.000,176.667 95.888,176.667 95.750 C 176.667 95.541,177.019 95.500,178.833 95.500 C 180.867 95.500,181.000 95.520,181.000 95.823 C 181.000 96.001,181.066 96.188,181.147 96.238 C 181.228 96.288,181.346 96.741,181.409 97.245 C 181.472 97.749,181.593 98.205,181.678 98.257 C 181.764 98.310,181.833 98.576,181.833 98.848 L 181.833 99.343 184.042 99.297 C 186.189 99.251,186.251 99.240,186.303 98.875 C 186.333 98.669,186.285 98.500,186.197 98.500 C 186.110 98.500,185.987 98.089,185.924 97.586 C 185.861 97.083,185.742 96.630,185.660 96.579 C 185.577 96.528,185.460 96.114,185.400 95.660 C 185.340 95.205,185.235 94.833,185.167 94.833 C 185.099 94.833,184.993 94.458,184.932 94.000 C 184.872 93.542,184.757 93.167,184.677 93.167 C 184.598 93.167,184.481 92.717,184.417 92.167 C 184.353 91.617,184.238 91.167,184.162 91.167 C 184.086 91.167,183.972 90.754,183.909 90.250 C 183.846 89.746,183.738 89.333,183.669 89.333 C 183.600 89.333,183.493 88.958,183.432 88.500 C 183.372 88.042,183.257 87.667,183.177 87.667 C 183.098 87.667,182.981 87.217,182.917 86.667 C 182.853 86.117,182.743 85.667,182.672 85.667 C 182.601 85.667,182.493 85.292,182.432 84.833 C 182.372 84.375,182.258 84.000,182.180 84.000 C 182.102 84.000,181.985 83.575,181.920 83.056 C 181.747 81.669,181.743 81.667,178.863 81.667 C 176.743 81.667,176.354 81.706,176.268 81.930 M210.000 90.500 L 210.000 99.333 212.000 99.333 L 214.000 99.333 214.000 90.500 L 214.000 81.667 212.000 81.667 L 210.000 81.667 210.000 90.500 M216.202 83.292 L 216.250 84.917 218.167 84.917 L 220.083 84.917 220.131 83.292 L 220.179 81.667 218.167 81.667 L 216.155 81.667 216.202 83.292 M251.667 83.333 L 251.667 85.000 253.500 85.000 L 255.333 85.000 255.333 83.333 L 255.333 81.667 253.500 81.667 L 251.667 81.667 251.667 83.333 M285.333 90.497 L 285.333 99.333 287.417 99.333 L 289.500 99.333 289.500 95.583 L 289.500 91.833 292.083 91.833 L 294.667 91.833 294.667 90.250 L 294.667 88.667 292.083 88.667 L 289.500 88.667 289.500 86.833 L 289.500 85.000 292.063 85.000 C 295.133 85.000,295.033 85.065,294.965 83.141 L 294.917 81.750 290.125 81.706 L 285.333 81.662 285.333 90.497 M295.702 83.292 L 295.750 84.917 297.667 84.917 L 299.583 84.917 299.631 83.292 L 299.679 81.667 297.667 81.667 L 295.655 81.667 295.702 83.292 M350.333 90.500 L 350.333 99.333 352.333 99.333 L 354.333 99.333 354.333 90.500 L 354.333 81.667 352.333 81.667 L 350.333 81.667 350.333 90.500 M356.540 90.458 L 356.583 99.250 358.542 99.297 L 360.500 99.344 360.500 90.505 L 360.500 81.667 358.499 81.667 L 356.497 81.667 356.540 90.458 M247.958 83.615 C 247.798 83.657,247.667 83.757,247.667 83.838 C 247.667 83.919,247.404 84.034,247.083 84.094 C 246.762 84.155,246.500 84.262,246.500 84.334 C 246.500 84.405,246.303 84.513,246.063 84.573 C 245.370 84.747,245.167 85.068,245.167 85.988 L 245.167 86.833 244.417 86.833 L 243.667 86.833 243.667 88.083 L 243.667 89.333 244.417 89.333 L 245.167 89.333 245.167 93.583 C 245.167 96.306,245.227 97.833,245.333 97.833 C 245.425 97.833,245.500 97.917,245.500 98.018 C 245.500 98.267,246.201 98.994,246.444 98.997 C 246.551 98.999,246.666 99.081,246.699 99.180 C 246.773 99.402,249.238 99.586,250.063 99.432 L 250.667 99.318 250.667 98.076 L 250.667 96.833 250.083 96.833 C 248.899 96.833,248.833 96.617,248.833 92.750 L 248.833 89.333 249.750 89.333 L 250.667 89.333 250.667 88.083 L 250.667 86.833 249.750 86.833 L 248.833 86.833 248.833 85.167 C 248.833 83.386,248.833 83.386,247.958 83.615 M7.115 85.104 C 7.327 85.350,7.500 85.721,7.500 85.929 C 7.500 86.136,7.594 86.337,7.708 86.375 C 8.010 86.475,8.009 94.692,7.707 94.792 C 7.593 94.830,7.500 94.999,7.500 95.168 C 7.500 95.823,6.508 96.544,5.729 96.456 C 4.638 96.333,4.170 95.559,4.168 93.875 C 4.167 93.485,4.092 93.167,4.000 93.167 C 3.896 93.167,3.833 92.167,3.833 90.500 C 3.833 88.833,3.896 87.833,4.000 87.833 C 4.092 87.833,4.167 87.514,4.167 87.124 C 4.167 84.855,5.888 83.676,7.115 85.104 M18.458 86.782 C 18.298 86.823,18.167 86.919,18.167 86.993 C 18.167 87.067,18.017 87.167,17.833 87.215 C 17.617 87.272,17.500 87.220,17.500 87.068 C 17.500 86.881,17.143 86.833,15.750 86.833 L 14.000 86.833 14.000 95.583 L 14.000 104.333 15.833 104.333 L 17.667 104.333 17.667 101.583 C 17.667 98.937,17.764 98.440,18.147 99.125 C 18.286 99.375,18.569 99.417,20.113 99.417 L 21.917 99.417 22.548 98.780 C 22.896 98.429,23.226 97.904,23.283 97.613 C 23.339 97.322,23.468 97.030,23.568 96.964 C 23.819 96.800,23.817 89.365,23.566 89.201 C 23.467 89.136,23.339 88.842,23.281 88.547 C 23.175 87.997,22.940 87.699,22.101 87.042 C 21.634 86.676,19.456 86.521,18.458 86.782 M27.971 86.776 C 27.725 86.818,27.435 86.961,27.325 87.093 C 27.216 87.225,27.054 87.333,26.967 87.333 C 26.705 87.333,25.888 88.233,25.750 88.673 C 25.679 88.899,25.538 89.137,25.436 89.202 C 25.308 89.284,25.250 90.498,25.250 93.083 C 25.250 95.668,25.308 96.883,25.436 96.964 C 25.538 97.030,25.679 97.265,25.748 97.488 C 25.902 97.981,26.743 98.836,27.401 99.171 C 28.008 99.478,32.607 99.530,32.798 99.231 C 32.863 99.129,33.067 98.998,33.250 98.941 C 33.708 98.798,34.500 98.040,34.500 97.743 C 34.500 97.609,34.572 97.500,34.659 97.500 C 34.747 97.500,34.867 97.237,34.928 96.917 C 34.988 96.596,35.104 96.333,35.185 96.333 C 35.267 96.333,35.333 95.996,35.333 95.583 L 35.333 94.833 33.333 94.833 L 31.333 94.833 31.333 95.320 C 31.333 95.587,31.203 96.033,31.044 96.311 C 30.320 97.572,29.167 96.838,29.167 95.115 C 29.167 94.879,29.092 94.640,29.000 94.583 C 28.908 94.527,28.833 94.335,28.833 94.157 C 28.833 93.848,28.977 93.833,32.083 93.833 L 35.333 93.833 35.333 91.833 C 35.333 90.733,35.267 89.833,35.185 89.833 C 35.104 89.833,34.988 89.571,34.928 89.250 C 34.867 88.929,34.747 88.667,34.659 88.667 C 34.572 88.667,34.500 88.565,34.500 88.441 C 34.500 87.210,30.841 86.277,27.971 86.776 M41.306 86.986 C 40.781 87.399,40.667 87.416,40.667 87.083 C 40.667 86.876,40.343 86.833,38.750 86.833 L 36.833 86.833 36.833 93.083 L 36.833 99.333 38.750 99.333 L 40.667 99.333 40.667 94.583 C 40.667 91.528,40.726 89.833,40.833 89.833 C 40.925 89.833,41.000 89.729,41.000 89.601 C 41.000 89.167,41.838 89.113,42.272 89.520 L 42.667 89.891 42.667 94.612 L 42.667 99.333 44.667 99.333 L 46.667 99.333 46.667 94.083 C 46.667 91.194,46.601 88.833,46.521 88.833 C 46.441 88.833,46.331 88.612,46.277 88.342 C 46.167 87.792,45.697 87.167,45.394 87.167 C 45.284 87.167,45.163 87.073,45.125 86.958 C 44.990 86.552,41.829 86.574,41.306 86.986 M68.625 86.778 C 68.373 86.821,68.167 86.917,68.167 86.993 C 68.167 87.069,67.973 87.179,67.736 87.239 C 67.263 87.357,66.500 88.091,66.500 88.427 C 66.500 88.544,66.420 88.666,66.323 88.698 C 66.225 88.731,66.103 89.074,66.051 89.462 C 65.999 89.850,65.891 90.167,65.811 90.167 C 65.732 90.167,65.667 91.442,65.667 93.000 C 65.667 94.558,65.732 95.833,65.812 95.833 C 65.892 95.833,66.007 96.208,66.068 96.667 C 66.128 97.125,66.251 97.500,66.339 97.500 C 66.428 97.500,66.500 97.607,66.500 97.737 C 66.500 98.038,67.452 99.000,67.749 99.000 C 67.872 99.000,68.003 99.094,68.042 99.208 C 68.149 99.531,72.955 99.498,73.599 99.171 C 74.257 98.836,75.098 97.980,75.252 97.488 C 75.321 97.265,75.462 97.030,75.564 96.965 C 75.692 96.883,75.750 95.669,75.750 93.084 C 75.750 90.499,75.692 89.284,75.564 89.202 C 75.462 89.137,75.321 88.899,75.250 88.673 C 75.103 88.201,74.321 87.374,73.685 87.017 C 73.250 86.772,69.664 86.603,68.625 86.778 M93.833 86.788 C 93.696 86.840,93.546 86.937,93.500 87.003 C 93.302 87.286,92.667 87.356,92.667 87.095 C 92.667 86.873,92.387 86.833,90.833 86.833 L 89.000 86.833 89.000 93.083 L 89.000 99.333 90.833 99.333 L 92.667 99.333 92.667 95.583 C 92.667 93.508,92.733 91.833,92.815 91.833 C 92.896 91.833,93.012 91.571,93.072 91.250 C 93.134 90.920,93.281 90.667,93.410 90.667 C 93.536 90.667,93.668 90.580,93.703 90.475 C 93.738 90.369,94.194 90.247,94.717 90.204 L 95.667 90.125 95.667 88.396 L 95.667 86.667 94.875 86.680 C 94.440 86.687,93.971 86.736,93.833 86.788 M99.042 86.777 C 98.835 86.821,98.667 86.918,98.667 86.994 C 98.667 87.069,98.464 87.181,98.217 87.243 C 96.727 87.617,96.250 89.034,96.250 93.083 C 96.250 97.174,96.644 98.290,98.400 99.173 C 99.643 99.799,104.833 99.359,104.833 98.629 C 104.833 98.558,104.953 98.500,105.099 98.500 C 105.245 98.500,105.404 98.350,105.452 98.167 C 105.500 97.983,105.599 97.833,105.673 97.833 C 105.747 97.833,105.856 97.608,105.917 97.333 C 105.977 97.058,106.096 96.833,106.180 96.833 C 106.264 96.833,106.333 96.271,106.333 95.583 L 106.333 94.333 104.500 94.333 L 102.667 94.333 102.667 94.833 C 102.667 95.108,102.592 95.333,102.500 95.333 C 102.408 95.333,102.333 95.542,102.333 95.796 C 102.333 97.558,100.327 97.104,100.197 95.313 C 100.158 94.774,100.061 94.333,99.980 94.333 C 99.899 94.333,99.833 93.658,99.833 92.833 C 99.833 92.008,99.899 91.333,99.978 91.333 C 100.058 91.333,100.161 91.000,100.207 90.593 C 100.382 89.038,102.333 88.833,102.333 90.370 C 102.333 90.625,102.408 90.833,102.500 90.833 C 102.592 90.833,102.667 91.021,102.667 91.250 L 102.667 91.667 104.500 91.667 L 106.333 91.667 106.333 90.667 C 106.333 90.117,106.268 89.667,106.188 89.667 C 106.109 89.667,106.002 89.413,105.952 89.102 C 105.858 88.525,105.161 87.701,104.244 87.085 C 103.755 86.756,100.141 86.542,99.042 86.777 M110.458 86.778 C 110.206 86.821,110.000 86.925,110.000 87.011 C 110.000 87.097,109.893 87.167,109.763 87.167 C 109.417 87.167,108.537 87.954,108.403 88.382 C 108.340 88.585,108.213 88.798,108.121 88.857 C 108.030 88.916,107.918 89.347,107.873 89.816 C 107.828 90.284,107.725 90.667,107.645 90.667 C 107.565 90.667,107.500 91.717,107.500 93.000 C 107.500 94.283,107.565 95.333,107.645 95.333 C 107.725 95.333,107.841 95.783,107.903 96.333 C 107.966 96.883,108.088 97.333,108.175 97.333 C 108.262 97.333,108.333 97.440,108.333 97.571 C 108.333 97.916,109.121 98.797,109.549 98.930 C 109.751 98.993,109.970 99.129,110.035 99.231 C 110.227 99.531,114.826 99.478,115.432 99.169 C 116.004 98.877,117.167 97.781,117.167 97.533 C 117.167 97.439,117.257 97.331,117.368 97.294 C 117.491 97.253,117.595 96.763,117.637 96.030 L 117.704 94.833 115.852 94.833 C 114.310 94.833,114.000 94.875,114.000 95.086 C 114.000 95.224,113.934 95.468,113.853 95.627 C 113.772 95.786,113.613 96.117,113.499 96.361 C 113.130 97.153,111.833 96.870,111.833 95.998 C 111.833 95.826,111.758 95.640,111.667 95.583 C 111.575 95.527,111.500 95.110,111.500 94.657 L 111.500 93.833 114.750 93.833 L 118.000 93.833 118.000 92.333 C 118.000 91.508,117.935 90.833,117.855 90.833 C 117.775 90.833,117.659 90.383,117.597 89.833 C 117.534 89.283,117.412 88.833,117.325 88.833 C 117.238 88.833,117.167 88.718,117.167 88.578 C 117.167 88.438,117.054 88.280,116.917 88.227 C 116.779 88.174,116.667 88.027,116.667 87.899 C 116.667 87.771,116.554 87.667,116.417 87.667 C 116.279 87.667,116.167 87.597,116.167 87.512 C 116.167 86.925,112.433 86.445,110.458 86.778 M147.542 86.777 C 147.335 86.821,147.167 86.918,147.167 86.994 C 147.167 87.069,146.973 87.179,146.736 87.239 C 146.263 87.357,145.500 88.091,145.500 88.427 C 145.500 88.544,145.420 88.666,145.323 88.698 C 145.225 88.731,145.103 89.074,145.051 89.462 C 144.999 89.850,144.891 90.167,144.811 90.167 C 144.732 90.167,144.667 91.442,144.667 93.000 C 144.667 94.558,144.732 95.833,144.812 95.833 C 144.892 95.833,145.007 96.208,145.068 96.667 C 145.128 97.125,145.251 97.500,145.339 97.500 C 145.428 97.500,145.500 97.602,145.500 97.726 C 145.500 97.965,146.235 98.833,146.437 98.833 C 146.503 98.833,146.702 98.965,146.879 99.125 C 147.268 99.477,152.080 99.571,152.298 99.231 C 152.363 99.129,152.599 98.988,152.821 98.919 C 153.493 98.709,154.339 97.763,154.446 97.101 C 154.500 96.770,154.609 96.500,154.688 96.500 C 154.768 96.500,154.833 96.125,154.833 95.667 L 154.833 94.833 152.855 94.833 L 150.877 94.833 150.793 95.574 C 150.556 97.679,148.818 97.182,148.693 94.973 L 148.629 93.833 151.713 93.833 C 154.475 93.833,154.809 93.803,154.908 93.547 C 155.051 93.173,154.827 89.833,154.659 89.833 C 154.587 89.833,154.476 89.515,154.411 89.125 C 154.290 88.397,153.770 87.758,152.750 87.084 C 152.255 86.756,148.637 86.543,147.542 86.777 M178.998 87.333 C 179.076 87.333,179.193 87.840,179.257 88.458 C 179.321 89.077,179.470 89.883,179.589 90.250 C 179.707 90.617,179.854 91.235,179.916 91.625 L 180.029 92.333 178.661 92.333 C 177.530 92.333,177.325 92.294,177.480 92.108 C 177.582 91.984,177.715 91.421,177.774 90.858 C 177.833 90.294,177.939 89.833,178.010 89.833 C 178.082 89.833,178.192 89.346,178.256 88.750 C 178.320 88.154,178.438 87.667,178.519 87.667 C 178.600 87.667,178.677 87.423,178.689 87.125 C 178.706 86.733,178.732 86.687,178.784 86.958 C 178.824 87.165,178.920 87.333,178.998 87.333 M191.458 86.782 C 191.298 86.823,191.167 86.919,191.167 86.993 C 191.167 87.067,191.017 87.167,190.833 87.215 C 190.617 87.272,190.500 87.220,190.500 87.068 C 190.500 86.881,190.131 86.833,188.667 86.833 L 186.833 86.833 186.833 95.583 L 186.833 104.333 188.750 104.333 L 190.667 104.333 190.667 101.583 C 190.667 98.937,190.764 98.440,191.147 99.125 C 191.287 99.375,191.570 99.417,193.128 99.417 L 194.947 99.417 195.576 98.769 C 196.012 98.319,196.231 97.925,196.291 97.478 C 196.338 97.123,196.442 96.833,196.522 96.833 C 196.602 96.833,196.667 95.146,196.667 93.083 C 196.667 91.008,196.601 89.333,196.519 89.333 C 196.437 89.333,196.321 89.071,196.261 88.750 C 196.201 88.429,196.088 88.167,196.011 88.167 C 195.933 88.167,195.824 87.985,195.768 87.764 C 195.543 86.867,193.186 86.330,191.458 86.782 M203.003 86.782 C 202.867 86.840,202.649 86.994,202.518 87.125 C 202.312 87.331,202.260 87.328,202.132 87.098 C 202.010 86.881,201.653 86.833,200.158 86.833 L 198.333 86.833 198.333 95.583 L 198.333 104.333 200.246 104.333 L 202.159 104.333 202.204 101.553 C 202.249 98.807,202.254 98.777,202.571 99.095 C 202.966 99.490,206.332 99.588,206.458 99.208 C 206.497 99.094,206.632 99.000,206.760 99.000 C 206.888 99.000,207.124 98.794,207.284 98.542 C 207.444 98.290,207.640 98.038,207.718 97.982 C 207.797 97.926,207.902 97.420,207.954 96.857 C 208.005 96.294,208.111 95.833,208.190 95.833 C 208.269 95.833,208.333 94.596,208.333 93.083 C 208.333 91.571,208.268 90.333,208.188 90.333 C 208.108 90.333,207.992 89.883,207.930 89.333 C 207.868 88.783,207.746 88.333,207.658 88.333 C 207.571 88.333,207.500 88.247,207.500 88.142 C 207.500 87.153,204.365 86.205,203.003 86.782 M224.792 86.777 C 224.540 86.820,224.333 86.925,224.333 87.011 C 224.333 87.097,224.223 87.167,224.089 87.167 C 223.761 87.167,222.667 88.142,222.667 88.434 C 222.667 88.562,222.594 88.667,222.506 88.667 C 222.417 88.667,222.295 89.043,222.234 89.504 C 222.173 89.964,222.058 90.381,221.978 90.430 C 221.789 90.547,221.789 95.620,221.978 95.736 C 222.057 95.785,222.160 96.115,222.208 96.468 C 222.327 97.356,223.033 98.409,223.876 98.957 C 224.654 99.463,229.506 99.687,229.798 99.231 C 229.863 99.129,230.082 98.993,230.284 98.930 C 230.487 98.867,230.844 98.576,231.079 98.283 C 231.313 97.990,231.586 97.651,231.686 97.531 C 231.785 97.410,231.907 96.866,231.957 96.322 C 232.006 95.778,232.111 95.333,232.190 95.333 C 232.269 95.333,232.333 95.108,232.333 94.833 L 232.333 94.333 230.356 94.333 L 228.379 94.333 228.271 95.252 C 228.125 96.497,227.658 96.956,226.636 96.860 C 226.482 96.845,226.303 96.665,226.239 96.458 C 226.174 96.252,226.050 96.037,225.962 95.981 C 225.737 95.836,225.722 90.339,225.947 90.196 C 226.043 90.134,226.174 89.915,226.239 89.708 C 226.573 88.639,228.085 89.474,228.265 90.827 L 228.376 91.667 230.206 91.667 L 232.035 91.667 231.974 90.326 C 231.941 89.589,231.838 88.933,231.745 88.868 C 231.652 88.803,231.485 88.542,231.373 88.287 C 231.261 88.032,231.038 87.775,230.876 87.716 C 230.715 87.657,230.523 87.509,230.450 87.388 C 230.377 87.266,230.214 87.167,230.089 87.167 C 229.964 87.167,229.831 87.075,229.794 86.964 C 229.724 86.757,225.772 86.609,224.792 86.777 M236.000 86.782 C 235.771 86.829,235.546 86.917,235.500 86.979 C 235.454 87.040,235.203 87.184,234.942 87.299 C 234.680 87.414,234.429 87.651,234.384 87.826 C 234.338 88.001,234.195 88.184,234.067 88.233 C 233.938 88.283,233.833 88.513,233.833 88.745 C 233.833 88.977,233.758 89.167,233.667 89.167 C 233.575 89.167,233.500 89.542,233.500 90.000 L 233.500 90.833 235.406 90.833 L 237.313 90.833 237.427 90.070 C 237.499 89.594,237.644 89.269,237.813 89.207 C 237.961 89.152,238.145 89.027,238.221 88.929 C 238.317 88.805,238.385 88.814,238.443 88.958 C 238.490 89.073,238.617 89.167,238.727 89.167 C 239.106 89.167,239.500 89.834,239.500 90.477 L 239.500 91.118 237.713 91.233 C 236.731 91.297,235.886 91.414,235.837 91.494 C 235.787 91.575,235.541 91.692,235.290 91.755 C 235.039 91.818,234.833 91.928,234.833 92.000 C 234.833 92.072,234.654 92.176,234.435 92.230 C 234.181 92.294,233.995 92.497,233.922 92.789 C 233.859 93.041,233.719 93.301,233.612 93.367 C 233.362 93.522,233.339 97.624,233.587 97.798 C 233.680 97.863,233.848 98.125,233.960 98.380 C 234.072 98.634,234.296 98.891,234.457 98.951 C 234.618 99.010,234.804 99.139,234.869 99.238 C 235.033 99.484,238.473 99.478,238.631 99.231 C 238.696 99.129,238.919 98.992,239.125 98.928 C 239.331 98.864,239.507 98.722,239.517 98.614 C 239.526 98.505,239.585 98.604,239.649 98.833 C 239.762 99.242,239.799 99.251,241.632 99.297 L 243.500 99.344 243.500 98.589 C 243.500 98.173,243.428 97.833,243.341 97.833 C 243.244 97.833,243.162 95.977,243.132 93.139 C 243.095 89.567,243.034 88.428,242.875 88.375 C 242.760 88.337,242.667 88.216,242.667 88.106 C 242.667 87.845,242.137 87.399,241.643 87.244 C 241.427 87.177,241.197 87.038,241.131 86.936 C 241.008 86.743,236.807 86.617,236.000 86.782 M260.167 86.766 C 259.097 87.159,258.134 87.977,257.915 88.679 C 257.845 88.901,257.705 89.137,257.603 89.202 C 257.475 89.284,257.417 90.499,257.417 93.084 C 257.417 95.669,257.475 96.883,257.603 96.965 C 257.705 97.030,257.845 97.265,257.915 97.488 C 258.069 97.980,258.909 98.836,259.567 99.171 C 260.212 99.498,265.018 99.531,265.125 99.208 C 265.163 99.094,265.295 99.000,265.418 99.000 C 265.708 99.000,266.667 98.041,266.667 97.751 C 266.667 97.628,266.749 97.500,266.850 97.467 C 266.950 97.433,267.073 97.052,267.121 96.620 C 267.170 96.187,267.275 95.833,267.355 95.833 C 267.435 95.833,267.500 94.558,267.500 93.000 C 267.500 91.442,267.435 90.167,267.355 90.167 C 267.276 90.167,267.168 89.850,267.116 89.462 C 267.064 89.074,266.942 88.731,266.844 88.698 C 266.747 88.666,266.667 88.544,266.667 88.427 C 266.667 88.112,265.943 87.390,265.484 87.247 C 265.264 87.178,265.031 87.040,264.968 86.941 C 264.846 86.751,260.626 86.597,260.167 86.766 M273.473 86.986 C 272.947 87.399,272.833 87.416,272.833 87.083 C 272.833 86.876,272.509 86.833,270.917 86.833 L 269.000 86.833 269.000 93.083 L 269.000 99.333 270.917 99.333 L 272.833 99.333 272.833 94.583 C 272.833 91.528,272.893 89.833,273.000 89.833 C 273.092 89.833,273.167 89.729,273.167 89.601 C 273.167 89.180,274.014 89.107,274.402 89.494 C 274.736 89.828,274.752 90.032,274.799 94.593 L 274.848 99.344 276.716 99.297 L 278.583 99.250 278.627 93.761 C 278.652 90.742,278.614 88.230,278.544 88.178 C 278.474 88.126,278.337 87.938,278.239 87.761 C 278.141 87.584,277.916 87.359,277.739 87.261 C 277.562 87.163,277.363 87.008,277.298 86.917 C 277.038 86.552,273.954 86.607,273.473 86.986 M305.955 87.089 C 305.357 87.496,305.333 87.499,305.333 87.173 C 305.333 86.852,305.233 86.833,303.500 86.833 L 301.667 86.833 301.667 93.083 L 301.667 99.333 303.583 99.333 L 305.500 99.333 305.500 95.333 C 305.500 92.778,305.560 91.333,305.667 91.333 C 305.758 91.333,305.833 91.238,305.833 91.120 C 305.833 90.668,306.577 90.266,307.542 90.196 L 308.500 90.127 308.500 88.397 L 308.500 86.667 307.539 86.667 C 306.784 86.667,306.444 86.758,305.955 87.089 M311.708 86.777 C 311.502 86.821,311.333 86.918,311.333 86.994 C 311.333 87.069,311.146 87.178,310.917 87.235 C 310.688 87.293,310.500 87.413,310.500 87.503 C 310.500 87.593,310.387 87.667,310.250 87.667 C 310.112 87.667,310.000 87.782,310.000 87.922 C 310.000 88.062,309.890 88.220,309.755 88.271 C 309.620 88.323,309.459 88.640,309.397 88.974 C 309.336 89.309,309.202 89.637,309.101 89.702 C 308.977 89.783,308.917 90.884,308.917 93.083 C 308.917 95.283,308.977 96.384,309.101 96.464 C 309.202 96.530,309.336 96.857,309.397 97.192 C 309.459 97.527,309.620 97.844,309.755 97.895 C 309.890 97.947,310.000 98.072,310.000 98.173 C 310.000 98.441,310.372 98.771,310.841 98.917 C 311.066 98.987,311.304 99.129,311.369 99.231 C 311.546 99.508,316.532 99.487,316.625 99.208 C 316.663 99.094,316.792 99.000,316.910 99.000 C 317.224 99.000,318.447 97.766,318.587 97.308 C 318.653 97.093,318.763 96.842,318.831 96.750 C 318.899 96.658,318.998 96.190,319.053 95.708 L 319.151 94.833 317.173 94.833 L 315.196 94.833 315.080 95.518 C 314.829 97.005,313.000 97.323,313.000 95.880 C 313.000 95.671,312.925 95.500,312.833 95.500 C 312.742 95.500,312.667 95.125,312.667 94.667 L 312.667 93.833 315.941 93.833 L 319.215 93.833 319.124 91.792 C 319.061 90.397,318.948 89.592,318.767 89.250 C 318.621 88.975,318.502 88.664,318.501 88.559 C 318.500 88.455,318.387 88.326,318.250 88.273 C 318.112 88.220,318.000 88.062,318.000 87.922 C 318.000 87.782,317.887 87.667,317.750 87.667 C 317.612 87.667,317.500 87.597,317.500 87.511 C 317.500 87.426,317.331 87.303,317.125 87.239 C 316.919 87.174,316.697 87.038,316.631 86.936 C 316.510 86.747,312.462 86.616,311.708 86.777 M340.875 86.776 C 340.669 86.820,340.500 86.926,340.500 87.012 C 340.500 87.097,340.393 87.167,340.263 87.167 C 339.962 87.167,339.000 88.118,339.000 88.416 C 339.000 88.538,338.936 88.664,338.859 88.694 C 338.781 88.725,338.670 89.219,338.611 89.792 L 338.505 90.833 340.503 90.833 L 342.500 90.833 342.502 90.375 C 342.506 89.589,342.686 89.188,343.059 89.131 C 343.639 89.043,344.167 89.188,344.167 89.436 C 344.167 89.563,344.242 89.667,344.333 89.667 C 344.425 89.667,344.500 89.993,344.500 90.391 L 344.500 91.116 342.805 91.220 C 341.872 91.276,341.066 91.388,341.013 91.469 C 340.960 91.549,340.675 91.661,340.380 91.719 C 339.513 91.887,338.500 93.078,338.500 93.929 C 338.500 94.232,338.425 94.527,338.333 94.583 C 338.129 94.710,338.109 96.500,338.312 96.500 C 338.392 96.500,338.505 96.864,338.564 97.308 C 338.682 98.195,339.538 99.253,340.291 99.442 C 341.327 99.702,343.650 99.412,344.124 98.963 C 344.579 98.532,345.000 98.626,345.000 99.160 C 345.000 99.269,345.626 99.333,346.681 99.333 L 348.362 99.333 348.306 94.055 C 348.263 90.022,348.201 88.761,348.042 88.708 C 347.927 88.670,347.833 88.538,347.833 88.416 C 347.833 88.126,346.874 87.167,346.584 87.167 C 346.462 87.167,346.330 87.074,346.292 86.960 C 346.222 86.750,341.706 86.597,340.875 86.776 M77.333 92.167 C 77.333 95.611,77.392 97.500,77.500 97.500 C 77.592 97.500,77.667 97.661,77.667 97.858 C 77.667 99.195,81.344 100.171,82.675 99.187 C 83.245 98.766,83.333 98.752,83.333 99.089 C 83.333 99.306,83.624 99.337,85.292 99.297 L 87.250 99.250 87.250 93.083 L 87.250 86.917 85.292 86.870 L 83.333 86.823 83.333 91.578 C 83.333 94.637,83.274 96.333,83.167 96.333 C 83.075 96.333,83.000 96.438,83.000 96.565 C 83.000 96.842,82.382 97.025,81.885 96.895 C 81.363 96.759,81.338 96.508,81.336 91.458 L 81.333 86.833 79.333 86.833 L 77.333 86.833 77.333 92.167 M216.167 93.083 L 216.167 99.333 218.167 99.333 L 220.167 99.333 220.167 93.083 L 220.167 86.833 218.167 86.833 L 216.167 86.833 216.167 93.083 M251.667 93.083 L 251.667 99.333 253.500 99.333 L 255.333 99.333 255.333 93.083 L 255.333 86.833 253.500 86.833 L 251.667 86.833 251.667 93.083 M295.667 93.083 L 295.667 99.333 297.667 99.333 L 299.667 99.333 299.667 93.083 L 299.667 86.833 297.667 86.833 L 295.667 86.833 295.667 93.083 M319.607 87.542 C 319.668 87.931,319.773 88.287,319.842 88.333 C 319.910 88.379,320.020 88.848,320.086 89.375 C 320.151 89.902,320.263 90.333,320.333 90.333 C 320.404 90.333,320.514 90.755,320.579 91.270 C 320.643 91.785,320.791 92.479,320.907 92.812 C 321.024 93.144,321.174 93.792,321.242 94.250 C 321.309 94.708,321.423 95.158,321.495 95.250 C 321.566 95.342,321.679 95.792,321.745 96.250 C 321.812 96.708,321.915 97.158,321.975 97.250 C 322.034 97.342,322.158 97.829,322.250 98.333 L 322.417 99.250 324.539 99.297 L 326.661 99.343 326.769 98.672 C 326.828 98.302,326.939 98.000,327.016 98.000 C 327.092 98.000,327.205 97.625,327.266 97.167 C 327.327 96.708,327.436 96.333,327.509 96.333 C 327.583 96.333,327.694 95.921,327.757 95.417 C 327.820 94.912,327.934 94.500,328.009 94.500 C 328.084 94.500,328.197 94.162,328.259 93.748 C 328.321 93.334,328.438 92.955,328.519 92.905 C 328.600 92.855,328.669 92.649,328.672 92.448 C 328.681 91.780,329.055 92.623,329.360 94.000 C 329.850 96.210,330.019 96.911,330.126 97.167 C 330.184 97.304,330.310 97.829,330.407 98.333 L 330.583 99.250 332.688 99.296 C 334.999 99.348,334.991 99.351,334.998 98.208 C 334.999 98.002,335.070 97.833,335.155 97.833 C 335.240 97.833,335.361 97.421,335.424 96.917 C 335.487 96.412,335.595 96.000,335.664 96.000 C 335.734 96.000,335.840 95.628,335.900 95.174 C 335.960 94.719,336.077 94.305,336.160 94.254 C 336.242 94.203,336.361 93.750,336.424 93.247 C 336.487 92.745,336.598 92.333,336.670 92.333 C 336.743 92.333,336.854 91.958,336.917 91.500 C 336.980 91.042,337.090 90.631,337.162 90.586 C 337.234 90.542,337.390 89.904,337.510 89.169 C 337.629 88.435,337.788 87.833,337.863 87.833 C 337.939 87.833,338.000 87.608,338.000 87.333 L 338.000 86.833 336.167 86.833 L 334.333 86.833 334.333 87.250 C 334.333 87.479,334.265 87.667,334.181 87.667 C 334.097 87.667,333.976 88.229,333.911 88.917 C 333.847 89.604,333.734 90.167,333.661 90.167 C 333.588 90.167,333.476 90.729,333.411 91.417 C 333.347 92.104,333.237 92.667,333.167 92.667 C 333.096 92.667,332.987 93.154,332.923 93.750 C 332.859 94.346,332.747 94.833,332.673 94.833 C 332.599 94.833,332.487 94.346,332.423 93.750 C 332.359 93.154,332.245 92.667,332.170 92.667 C 332.094 92.667,331.981 92.217,331.917 91.667 C 331.853 91.117,331.743 90.667,331.672 90.667 C 331.601 90.667,331.491 90.142,331.428 89.500 C 331.365 88.858,331.243 88.333,331.157 88.333 C 331.070 88.333,330.999 88.165,330.998 87.958 C 330.991 86.841,330.977 86.833,328.833 86.833 C 326.690 86.833,326.676 86.841,326.669 87.958 C 326.668 88.165,326.597 88.333,326.512 88.333 C 326.427 88.333,326.306 88.746,326.243 89.250 C 326.180 89.754,326.069 90.167,325.997 90.167 C 325.925 90.167,325.814 90.617,325.750 91.167 C 325.686 91.717,325.576 92.167,325.505 92.167 C 325.434 92.167,325.325 92.554,325.262 93.027 C 325.109 94.182,324.667 94.871,324.667 93.954 C 324.667 93.613,324.601 93.333,324.522 93.333 C 324.442 93.333,324.324 92.733,324.260 92.000 C 324.196 91.267,324.083 90.667,324.008 90.667 C 323.934 90.667,323.820 90.029,323.755 89.250 C 323.690 88.471,323.568 87.833,323.485 87.833 C 323.402 87.833,323.333 87.608,323.333 87.333 L 323.333 86.833 321.415 86.833 L 319.496 86.833 319.607 87.542 M19.405 89.429 C 19.549 89.573,19.667 89.798,19.667 89.929 C 19.667 90.060,19.742 90.167,19.833 90.167 C 19.938 90.167,20.000 91.222,20.000 93.000 C 20.000 94.558,19.934 95.833,19.854 95.833 C 19.774 95.833,19.665 96.049,19.613 96.312 C 19.365 97.548,18.010 97.039,18.002 95.708 C 18.001 95.502,17.925 95.333,17.833 95.333 C 17.624 95.333,17.605 90.724,17.814 90.595 C 17.896 90.545,18.011 90.245,18.070 89.930 C 18.207 89.197,18.910 88.934,19.405 89.429 M30.885 89.568 C 31.194 89.855,31.350 90.212,31.430 90.818 L 31.543 91.667 30.169 91.667 C 28.819 91.667,28.797 91.660,28.915 91.292 C 28.981 91.085,29.072 90.679,29.117 90.389 C 29.294 89.259,30.131 88.870,30.885 89.568 M71.542 89.635 C 71.702 89.772,71.833 90.098,71.833 90.359 C 71.833 90.620,71.908 90.833,72.000 90.833 C 72.215 90.833,72.223 94.567,72.009 94.961 C 71.922 95.120,71.806 95.532,71.751 95.876 C 71.558 97.085,70.485 97.284,69.911 96.218 C 69.431 95.326,69.428 90.674,69.907 89.882 C 70.350 89.150,70.883 89.069,71.542 89.635 M113.425 89.389 C 113.430 89.404,113.562 89.620,113.717 89.869 C 113.873 90.118,114.000 90.624,114.000 90.994 L 114.000 91.667 112.750 91.667 L 111.500 91.667 111.500 91.014 C 111.500 90.300,111.938 89.384,112.333 89.271 C 112.545 89.210,113.397 89.302,113.425 89.389 M150.282 89.269 C 150.512 89.331,150.687 89.546,150.754 89.850 C 150.812 90.116,150.929 90.333,151.013 90.333 C 151.098 90.333,151.167 90.633,151.167 91.000 L 151.167 91.667 149.896 91.667 L 148.625 91.667 148.700 90.768 C 148.772 89.895,148.992 89.490,149.503 89.290 C 149.839 89.158,149.865 89.157,150.282 89.269 M162.145 89.621 C 162.501 89.977,162.560 96.175,162.208 96.292 C 162.094 96.330,162.000 96.459,162.000 96.579 C 162.000 96.819,161.245 97.068,160.992 96.912 C 160.905 96.858,160.833 96.712,160.833 96.587 C 160.833 96.463,160.740 96.330,160.625 96.292 C 160.225 96.159,160.339 90.006,160.750 89.535 C 161.120 89.111,161.669 89.145,162.145 89.621 M192.537 89.555 C 192.606 89.662,192.663 89.881,192.664 90.042 C 192.666 90.202,192.742 90.333,192.833 90.333 C 192.937 90.333,193.000 91.306,193.000 92.917 C 193.000 94.337,192.935 95.500,192.855 95.500 C 192.775 95.500,192.663 95.792,192.606 96.148 C 192.424 97.284,191.243 97.284,191.061 96.148 C 191.004 95.792,190.892 95.500,190.812 95.500 C 190.732 95.500,190.667 94.337,190.667 92.917 C 190.667 91.306,190.729 90.333,190.833 90.333 C 190.925 90.333,191.000 90.189,191.000 90.012 C 191.000 89.265,192.138 88.927,192.537 89.555 M203.908 89.535 C 204.572 90.311,204.576 95.851,203.913 96.625 C 203.500 97.108,203.320 97.097,202.733 96.553 L 202.251 96.107 202.251 93.026 C 202.250 90.709,202.302 89.928,202.458 89.875 C 202.573 89.837,202.667 89.705,202.667 89.582 C 202.667 89.381,202.933 89.241,203.421 89.186 C 203.516 89.175,203.735 89.332,203.908 89.535 M314.800 89.609 C 314.944 89.754,315.092 90.266,315.133 90.768 L 315.208 91.667 313.937 91.667 L 312.667 91.667 312.667 91.000 C 312.667 90.633,312.732 90.333,312.813 90.333 C 312.893 90.333,313.002 90.114,313.056 89.847 C 313.197 89.138,314.193 89.003,314.800 89.609 M263.256 89.875 C 263.739 90.674,263.739 95.320,263.256 96.218 C 262.694 97.261,261.694 97.093,261.442 95.913 C 261.364 95.548,261.233 95.120,261.150 94.961 C 260.941 94.558,260.956 90.833,261.167 90.833 C 261.258 90.833,261.333 90.633,261.333 90.388 C 261.333 89.279,262.678 88.920,263.256 89.875 M239.500 94.490 C 239.500 95.035,239.425 95.527,239.333 95.583 C 239.242 95.640,239.167 95.808,239.167 95.957 C 239.167 96.959,237.865 97.281,237.350 96.407 C 236.815 95.500,237.193 93.833,237.933 93.833 C 238.062 93.833,238.167 93.758,238.167 93.667 C 238.167 93.575,238.467 93.500,238.833 93.500 L 239.500 93.500 239.500 94.490 M344.500 94.750 C 344.500 95.438,344.433 96.000,344.351 96.000 C 344.270 96.000,344.157 96.184,344.100 96.409 C 343.933 97.073,342.500 97.220,342.500 96.573 C 342.500 96.441,342.425 96.333,342.333 96.333 C 342.242 96.333,342.167 95.922,342.167 95.419 C 342.167 94.491,342.493 93.833,342.954 93.833 C 343.071 93.833,343.167 93.758,343.167 93.667 C 343.167 93.575,343.467 93.500,343.833 93.500 L 344.500 93.500 344.500 94.750 " stroke="none" fill="#040404" fill-rule="evenodd"></path><path id="path2" d="" stroke="none" fill="#04b0b0" fill-rule="evenodd"></path><path id="path3" d="" stroke="none" fill="#04b0b0" fill-rule="evenodd"></path><path id="path4" d="" stroke="none" fill="#04b0b0" fill-rule="evenodd"></path></g></svg>
