<?xml version="1.0" standalone="yes"?>
<svg xmlns="http://www.w3.org/2000/svg" width="400" height="400">
<path style="fill:#4b8b2d; stroke:none;" d="M0 0L0 400L400 400L400 0L0 0z"/>
<path style="fill:#7cac67; stroke:none;" d="M166 174L167 175L166 174z"/>
<path style="fill:#a9c89c; stroke:none;" d="M167 174L168 175L167 174z"/>
<path style="fill:#d2e2ca; stroke:none;" d="M168.667 174.333L169.333 174.667L168.667 174.333z"/>
<path style="fill:#fefffe; stroke:none;" d="M195 221C190.609 212.718 178.844 222.946 171 221.674C146.882 217.762 145.036 185.674 170 181.329C178.974 179.767 187.218 188.308 195 184C189.698 173.629 173.896 172.688 164 175.775C146.537 181.222 138.878 203.358 150.532 217.961C153.495 221.672 157.566 224.607 162 226.286C166.766 228.092 171.934 229.143 177 228.406C183.91 227.4 189.245 224.867 195 221z"/>
<path style="fill:#d2e2ca; stroke:none;" d="M178.667 174.333L179.333 174.667L178.667 174.333z"/>
<path style="fill:#a9c89c; stroke:none;" d="M180 174L181 175L180 174z"/>
<path style="fill:#7cac67; stroke:none;" d="M181 174L182 175L181 174M370 174L370 175L374 175L374 174L370 174z"/>
<path style="fill:#a9c89c; stroke:none;" d="M371.667 174.333L372.333 174.667L371.667 174.333z"/>
<path style="fill:#7cac67; stroke:none;" d="M24 175L24 176L31 176L24 175M76 175L76 176L84 177L76 175M91 227L92 227L92 176L139 176L103 175L92.0278 176.603L91 190L91 227M163 175L164 176L163 175z"/>
<path style="fill:#d2e2ca; stroke:none;" d="M164 175L165 176L164 175M183 175L184 176L183 175z"/>
<path style="fill:#7cac67; stroke:none;" d="M184 175L185 176L184 175M201 182L202 182L202 176L254 176L254 182C255.062 179.378 255.168 176.301 251.852 175.318C241.61 172.281 226.693 175 216 175C212.339 175 206.686 173.958 203.318 175.603C200.86 176.805 201.076 179.681 201 182M263 175L263 176L301 176C290.964 171.789 273.911 175 263 175M345 175L345 176L353 176L345 175z"/>
<path style="fill:#d2e2ca; stroke:none;" d="M369 175L370 176L369 175z"/>
<path style="fill:#a9c89c; stroke:none;" d="M368 176L370 183L371 183L371 175L368 176M373 175L376 177L376 176L373 175z"/>
<path style="fill:#d2e2ca; stroke:none;" d="M374 175L375 176L374 175z"/>
<path style="fill:#fefffe; stroke:none;" d="M24 176C29.45 189.09 36.9123 201.331 43.2469 214C45.1814 217.869 47.3389 225.551 52.1011 226.663C57.8525 228.006 60.5265 221.002 62.6914 217C69.5457 204.329 78.9523 189.76 83 176C69.8431 176.156 58.6795 207.76 54 219C47.2934 209.58 42.8135 198.179 37.3086 188C33.6605 181.255 32.4621 176.1 24 176z"/>
<path style="fill:#a9c89c; stroke:none;" d="M31 176L32 177L31 176M75 176L76 177L75 176z"/>
<path style="fill:#fefffe; stroke:none;" d="M92 176L92 227L139 227L139 221L111 221C107.694 221 102.188 221.981 99.6034 219.397C96.2315 216.025 97.0711 205.688 102.059 204.318C112.274 201.513 126.397 204 137 204L137 198L98 198L98 182L139 182L139 176L92 176z"/>
<path style="fill:#a9c89c; stroke:none;" d="M161 176L162 177L161 176M186 176L187 177L186 176z"/>
<path style="fill:#fefffe; stroke:none;" d="M202 176L202 182L225 182L225 227L231 227L231 182L254 182L254 176L202 176z"/>
<path style="fill:#a9c89c; stroke:none;" d="M262 176L262 227L263 227C263 212.689 267.508 189.127 262 176z"/>
<path style="fill:#fefffe; stroke:none;" d="M263 176L263 227L269 227L269 204C275.362 204 290.404 201.232 295.363 205.603C303.112 212.434 301.315 226.849 314 227L303 204C315.189 200.377 318.575 183.613 305.999 177.573C294.905 172.244 275.164 176 263 176z"/>
<path style="fill:#d2e2ca; stroke:none;" d="M303 176L304 177L303 176z"/>
<path style="fill:#a9c89c; stroke:none;" d="M304 176L305 177L304 176z"/>
<path style="fill:#fefffe; stroke:none;" d="M319 227C332.192 226.844 344.325 195.613 348 184L350 184C353.054 194.603 359.842 204.184 364.753 214C368.171 220.831 369.544 226.899 378 227C373.967 213 364.737 199.981 358.247 187C356.029 182.564 353.729 174.509 347.209 176.323C342.902 177.52 340.259 185.395 338.309 189C331.599 201.406 324.961 214.233 319 227z"/>
<path style="fill:#d2e2ca; stroke:none;" d="M371 176L372 177L371 176z"/>
<path style="fill:#fefffe; stroke:none;" d="M372 176L372 179L373 179L372 176z"/>
<path style="fill:#d2e2ca; stroke:none;" d="M373 176L374 177L373 176z"/>
<path style="fill:#a9c89c; stroke:none;" d="M24 177L25 178L24 177M159 177L160 178L159 177M188 177L189 178L188 177z"/>
<path style="fill:#d2e2ca; stroke:none;" d="M306 177L307 178L306 177z"/>
<path style="fill:#7cac67; stroke:none;" d="M307 177L308 178L307 177z"/>
<path style="fill:#d2e2ca; stroke:none;" d="M344 177L345 178L344 177z"/>
<path style="fill:#a9c89c; stroke:none;" d="M353 177L354 178L353 177z"/>
<path style="fill:#fefffe; stroke:none;" d="M368 177L369 178L368 177z"/>
<path style="fill:#4b8b2d; stroke:none;" d="M369 177L369 180L370 180L369 177z"/>
<path style="fill:#7cac67; stroke:none;" d="M371 177L372 178L371 177z"/>
<path style="fill:#4b8b2d; stroke:none;" d="M372 177L373 178L372 177M374 177L374 180L375 180L374 177z"/>
<path style="fill:#fefffe; stroke:none;" d="M375 177L376 178L375 177z"/>
<path style="fill:#a9c89c; stroke:none;" d="M32 178L33 179L32 178M74 178L75 179L74 178z"/>
<path style="fill:#7cac67; stroke:none;" d="M82 178L83 179L82 178z"/>
<path style="fill:#a9c89c; stroke:none;" d="M157 178L158 179L157 178M190 178L191 179L190 178M308 178L309 179L308 178z"/>
<path style="fill:#7cac67; stroke:none;" d="M343 178L344 179L343 178M367 178L368 179L367 178z"/>
<path style="fill:#d2e2ca; stroke:none;" d="M368 178L369 179L368 178M371 178L373 180L371 178z"/>
<path style="fill:#a9c89c; stroke:none;" d="M373 178L373 183L374 183L373 178z"/>
<path style="fill:#d2e2ca; stroke:none;" d="M375 178L376 179L375 178z"/>
<path style="fill:#7cac67; stroke:none;" d="M376 178L377 179L376 178z"/>
<path style="fill:#a9c89c; stroke:none;" d="M25 179L26 180L25 179z"/>
<path style="fill:#d2e2ca; stroke:none;" d="M156 179L157 180L156 179M191 179L192 180L191 179M309 179L310 180L309 179M343 179L344 180L343 179z"/>
<path style="fill:#a9c89c; stroke:none;" d="M354 179L355 180L354 179z"/>
<path style="fill:#fefffe; stroke:none;" d="M368 179L369 180L368 179z"/>
<path style="fill:#7cac67; stroke:none;" d="M371.333 179.667L371.667 180.333L371.333 179.667z"/>
<path style="fill:#fefffe; stroke:none;" d="M375 179L376 180L375 179z"/>
<path style="fill:#a9c89c; stroke:none;" d="M33 180L34 181L33 180M73 180L74 181L73 180z"/>
<path style="fill:#7cac67; stroke:none;" d="M81 180L82 181L81 180M154 180L155 181L154 180M193 180L194 181L193 180z"/>
<path style="fill:#d2e2ca; stroke:none;" d="M310 180L311 181L310 180z"/>
<path style="fill:#7cac67; stroke:none;" d="M342 180L343 181L342 180z"/>
<path style="fill:#d2e2ca; stroke:none;" d="M368 180L369 181L368 180z"/>
<path style="fill:#4b8b2d; stroke:none;" d="M372 180L371 182L373 182L372 180z"/>
<path style="fill:#fefffe; stroke:none;" d="M373 180L374 181L373 180z"/>
<path style="fill:#d2e2ca; stroke:none;" d="M375 180L376 181L375 180z"/>
<path style="fill:#a9c89c; stroke:none;" d="M26 181L27 182L26 181z"/>
<path style="fill:#7cac67; stroke:none;" d="M153 181L154 182L153 181z"/>
<path style="fill:#d2e2ca; stroke:none;" d="M168 181L169 182L168 181z"/>
<path style="fill:#a9c89c; stroke:none;" d="M169.667 181.333L170.333 181.667L169.667 181.333z"/>
<path style="fill:#7cac67; stroke:none;" d="M171 181L171 182L177 182L171 181z"/>
<path style="fill:#a9c89c; stroke:none;" d="M177.667 181.333L178.333 181.667L177.667 181.333z"/>
<path style="fill:#7cac67; stroke:none;" d="M194 181L195 182L194 181z"/>
<path style="fill:#d2e2ca; stroke:none;" d="M311 181L312 182L311 181M342 181L343 182L342 181z"/>
<path style="fill:#a9c89c; stroke:none;" d="M355 181L356 182L355 181z"/>
<path style="fill:#d2e2ca; stroke:none;" d="M369 181L370 182L369 181z"/>
<path style="fill:#fefffe; stroke:none;" d="M374 181L375 182L374 181z"/>
<path style="fill:#d2e2ca; stroke:none;" d="M34 182L35 183L34 182z"/>
<path style="fill:#a9c89c; stroke:none;" d="M72 182L73 183L72 182z"/>
<path style="fill:#7cac67; stroke:none;" d="M80 182L81 183L80 182z"/>
<path style="fill:#d2e2ca; stroke:none;" d="M98 182L99 183L98 182z"/>
<path style="fill:#a9c89c; stroke:none;" d="M99 182L99 183L139 183C128.488 178.589 110.434 182 99 182z"/>
<path style="fill:#7cac67; stroke:none;" d="M152 182L153 183L152 182z"/>
<path style="fill:#d2e2ca; stroke:none;" d="M165 182L166 183L165 182z"/>
<path style="fill:#7cac67; stroke:none;" d="M166 182L167 183L166 182M181 182L182 183L181 182z"/>
<path style="fill:#d2e2ca; stroke:none;" d="M182 182L183 183L182 182z"/>
<path style="fill:#7cac67; stroke:none;" d="M195.333 182.667L195.667 183.333L195.333 182.667z"/>
<path style="fill:#a9c89c; stroke:none;" d="M202 182L202 183L224 183L224 227L225 194L223.397 183.028L202 182z"/>
<path style="fill:#d2e2ca; stroke:none;" d="M224 182L225 183L224 182z"/>
<path style="fill:#a9c89c; stroke:none;" d="M231 182L231 183L254 183L231 182M269 182L269 183L301 183L269 182z"/>
<path style="fill:#d2e2ca; stroke:none;" d="M301 182L302 183L301 182z"/>
<path style="fill:#7cac67; stroke:none;" d="M312 182L313 183L312 182M341 182L342 183L341 182z"/>
<path style="fill:#d2e2ca; stroke:none;" d="M371.667 182.333L372.333 182.667L371.667 182.333z"/>
<path style="fill:#a9c89c; stroke:none;" d="M27 183L28 184L27 183z"/>
<path style="fill:#7cac67; stroke:none;" d="M35 183L36 184L35 183z"/>
<path style="fill:#d2e2ca; stroke:none;" d="M79 183L80 184L79 183z"/>
<path style="fill:#a9c89c; stroke:none;" d="M98 183L98 198L99 198L98 183z"/>
<path style="fill:#7cac67; stroke:none;" d="M151 183L152 184L151 183z"/>
<path style="fill:#a9c89c; stroke:none;" d="M163 183L164 184L163 183M184 183L185 184L184 183z"/>
<path style="fill:#7cac67; stroke:none;" d="M231 183L231 227L232 227C232 214.52 235.81 194.463 231 183M269 183L269 198L270 198L269 183z"/>
<path style="fill:#4b8b2d; stroke:none;" d="M270 183L270 198C279.486 198 291.848 200.116 300.995 197.566C306.061 196.154 308.97 189.801 305.258 185.434C299.989 179.235 277.667 183 270 183z"/>
<path style="fill:#a9c89c; stroke:none;" d="M303 183L304 184L303 183z"/>
<path style="fill:#d2e2ca; stroke:none;" d="M341 183L342 184L341 183z"/>
<path style="fill:#a9c89c; stroke:none;" d="M356 183L357 184L356 183z"/>
<path style="fill:#d2e2ca; stroke:none;" d="M35 184L36 185L35 184z"/>
<path style="fill:#a9c89c; stroke:none;" d="M71 184L72 185L71 184z"/>
<path style="fill:#7cac67; stroke:none;" d="M79 184L80 185L79 184M150 184L151 185L150 184z"/>
<path style="fill:#a9c89c; stroke:none;" d="M161 184L162 185L161 184M186 184L187 185L186 184z"/>
<path style="fill:#7cac67; stroke:none;" d="M194 184L195 185L194 184z"/>
<path style="fill:#d2e2ca; stroke:none;" d="M305 184L306 185L305 184z"/>
<path style="fill:#7cac67; stroke:none;" d="M313 184L314 185L313 184M340 184L341 185L340 184M348 184L349 185L348 184z"/>
<path style="fill:#a9c89c; stroke:none;" d="M349 184L350 185L349 184M28 185L29 186L28 185z"/>
<path style="fill:#7cac67; stroke:none;" d="M36 185L37 186L36 185z"/>
<path style="fill:#d2e2ca; stroke:none;" d="M78 185L79 186L78 185z"/>
<path style="fill:#7cac67; stroke:none;" d="M160 185L161 186L160 185M187 185L188 186L187 185z"/>
<path style="fill:#d2e2ca; stroke:none;" d="M192 185L193 186L192 185M313 185L314 186L313 185M340 185L341 186L340 185z"/>
<path style="fill:#a9c89c; stroke:none;" d="M357 185L358 186L357 185z"/>
<path style="fill:#d2e2ca; stroke:none;" d="M36 186L37 187L36 186z"/>
<path style="fill:#a9c89c; stroke:none;" d="M70 186L71 187L70 186z"/>
<path style="fill:#7cac67; stroke:none;" d="M78 186L79 187L78 186z"/>
<path style="fill:#d2e2ca; stroke:none;" d="M149 186L150 187L149 186M158 186L159 187L158 186M189 186L190 187L189 186z"/>
<path style="fill:#a9c89c; stroke:none;" d="M191 186L192 187L191 186z"/>
<path style="fill:#7cac67; stroke:none;" d="M306 186L307 187L306 186M339 186L340 187L339 186M347 186L348 187L347 186z"/>
<path style="fill:#a9c89c; stroke:none;" d="M350 186L351 187L350 186M29 187L30 188L29 187z"/>
<path style="fill:#7cac67; stroke:none;" d="M37 187L38 188L37 187z"/>
<path style="fill:#d2e2ca; stroke:none;" d="M77 187L78 188L77 187z"/>
<path style="fill:#a9c89c; stroke:none;" d="M148 187L149 188L148 187M157 187L158 188L157 187z"/>
<path style="fill:#7cac67; stroke:none;" d="M190 187L191 188L190 187z"/>
<path style="fill:#d2e2ca; stroke:none;" d="M307 187L308 188L307 187z"/>
<path style="fill:#7cac67; stroke:none;" d="M314 187L315 188L314 187z"/>
<path style="fill:#d2e2ca; stroke:none;" d="M358 187L359 188L358 187M37 188L38 189L37 188z"/>
<path style="fill:#a9c89c; stroke:none;" d="M69 188L70 189L69 188z"/>
<path style="fill:#7cac67; stroke:none;" d="M77 188L78 189L77 188z"/>
<path style="fill:#a9c89c; stroke:none;" d="M156 188L157 189L156 188M307 188L308 189L307 188M314 188L314 193L315 193L314 188z"/>
<path style="fill:#7cac67; stroke:none;" d="M338 188L339 189L338 188M346 188L347 189L346 188z"/>
<path style="fill:#a9c89c; stroke:none;" d="M351 188L352 189L351 188z"/>
<path style="fill:#7cac67; stroke:none;" d="M359 188L360 189L359 188z"/>
<path style="fill:#a9c89c; stroke:none;" d="M30 189L31 190L30 189z"/>
<path style="fill:#7cac67; stroke:none;" d="M38 189L39 190L38 189z"/>
<path style="fill:#d2e2ca; stroke:none;" d="M76 189L77 190L76 189z"/>
<path style="fill:#a9c89c; stroke:none;" d="M147 189L148 190L147 189M155 189L156 190L155 189z"/>
<path style="fill:#7cac67; stroke:none;" d="M307 189L307 192L308 192L307 189z"/>
<path style="fill:#d2e2ca; stroke:none;" d="M345 189L346 190L345 189M359 189L360 190L359 189M38 190L39 191L38 190z"/>
<path style="fill:#a9c89c; stroke:none;" d="M68 190L69 191L68 190z"/>
<path style="fill:#7cac67; stroke:none;" d="M76 190L77 191L76 190M337 190L338 191L337 190M345 190L346 191L345 190z"/>
<path style="fill:#a9c89c; stroke:none;" d="M352 190L353 191L352 190z"/>
<path style="fill:#7cac67; stroke:none;" d="M360 190L361 191L360 190M31 191L32 192L31 191M39 191L40 192L39 191z"/>
<path style="fill:#d2e2ca; stroke:none;" d="M75 191L76 192L75 191z"/>
<path style="fill:#a9c89c; stroke:none;" d="M146 191L147 192L146 191z"/>
<path style="fill:#7cac67; stroke:none;" d="M154 191L155 192L154 191z"/>
<path style="fill:#d2e2ca; stroke:none;" d="M344 191L345 192L344 191M360 191L361 192L360 191z"/>
<path style="fill:#a9c89c; stroke:none;" d="M67 192L68 193L67 192M153 192L154 193L153 192M307 192L308 193L307 192z"/>
<path style="fill:#7cac67; stroke:none;" d="M336 192L337 193L336 192M344 192L345 193L344 192z"/>
<path style="fill:#a9c89c; stroke:none;" d="M353 192L354 193L353 192z"/>
<path style="fill:#7cac67; stroke:none;" d="M361 192L362 193L361 192M32 193L33 194L32 193M40 193L41 194L40 193z"/>
<path style="fill:#a9c89c; stroke:none;" d="M74 193L75 194L74 193z"/>
<path style="fill:#7cac67; stroke:none;" d="M145 193L146 194L145 193M314 193L315 194L314 193z"/>
<path style="fill:#d2e2ca; stroke:none;" d="M343 193L344 194L343 193M361 193L362 194L361 193z"/>
<path style="fill:#a9c89c; stroke:none;" d="M66 194L67 195L66 194M145 194L146 195L145 194M152 194L153 195L152 194M306 194L307 195L306 194z"/>
<path style="fill:#7cac67; stroke:none;" d="M335 194L336 195L335 194M343 194L344 195L343 194z"/>
<path style="fill:#a9c89c; stroke:none;" d="M354 194L355 195L354 194z"/>
<path style="fill:#7cac67; stroke:none;" d="M362 194L363 195L362 194M33 195L34 196L33 195M41 195L42 196L41 195z"/>
<path style="fill:#a9c89c; stroke:none;" d="M73 195L74 196L73 195z"/>
<path style="fill:#d2e2ca; stroke:none;" d="M145 195L146 196L145 195z"/>
<path style="fill:#7cac67; stroke:none;" d="M152 195L153 196L152 195M305 195L306 196L305 195z"/>
<path style="fill:#a9c89c; stroke:none;" d="M313 195L314 196L313 195z"/>
<path style="fill:#d2e2ca; stroke:none;" d="M342 195L343 196L342 195M362 195L363 196L362 195M65 196L66 197L65 196z"/>
<path style="fill:#a9c89c; stroke:none;" d="M304 196L305 197L304 196z"/>
<path style="fill:#7cac67; stroke:none;" d="M313 196L314 197L313 196z"/>
<path style="fill:#a9c89c; stroke:none;" d="M334 196L335 197L334 196z"/>
<path style="fill:#7cac67; stroke:none;" d="M342 196L343 197L342 196M355 196L356 197L355 196M363 196L364 197L363 196M34 197L35 198L34 197M42 197L43 198L42 197M64 197L65 198L64 197z"/>
<path style="fill:#a9c89c; stroke:none;" d="M72 197L73 198L72 197z"/>
<path style="fill:#d2e2ca; stroke:none;" d="M151 197L152 198L151 197z"/>
<path style="fill:#7cac67; stroke:none;" d="M302 197L303 198L302 197z"/>
<path style="fill:#d2e2ca; stroke:none;" d="M312 197L313 198L312 197M341 197L342 198L341 197M363 197L364 198L363 197M64 198L65 199L64 198z"/>
<path style="fill:#a9c89c; stroke:none;" d="M137 198L137 204L138 204L137 198z"/>
<path style="fill:#7cac67; stroke:none;" d="M144.333 198.667L144.667 199.333L144.333 198.667z"/>
<path style="fill:#a9c89c; stroke:none;" d="M151 198L152 199L151 198M333 198L334 199L333 198z"/>
<path style="fill:#7cac67; stroke:none;" d="M356 198L357 199L356 198M364 198L365 199L364 198M35 199L36 200L35 199M43 199L44 200L43 199M63 199L64 200L63 199z"/>
<path style="fill:#a9c89c; stroke:none;" d="M71 199L72 200L71 199z"/>
<path style="fill:#7cac67; stroke:none;" d="M151 199L151 204L152 204L151 199M311 199L312 200L311 199z"/>
<path style="fill:#a9c89c; stroke:none;" d="M340 199L341 200L340 199z"/>
<path style="fill:#d2e2ca; stroke:none;" d="M36 200L37 201L36 200M63 200L64 201L63 200z"/>
<path style="fill:#a9c89c; stroke:none;" d="M144 200L144 203L145 203L144 200z"/>
<path style="fill:#7cac67; stroke:none;" d="M310 200L311 201L310 200z"/>
<path style="fill:#a9c89c; stroke:none;" d="M332 200L333 201L332 200z"/>
<path style="fill:#7cac67; stroke:none;" d="M357 200L358 201L357 200M365 200L366 201L365 200M36 201L37 202L36 201z"/>
<path style="fill:#a9c89c; stroke:none;" d="M44 201L45 202L44 201z"/>
<path style="fill:#7cac67; stroke:none;" d="M62 201L63 202L62 201z"/>
<path style="fill:#a9c89c; stroke:none;" d="M70 201L71 202L70 201z"/>
<path style="fill:#7cac67; stroke:none;" d="M309 201L310 202L309 201z"/>
<path style="fill:#a9c89c; stroke:none;" d="M339 201L340 202L339 201z"/>
<path style="fill:#d2e2ca; stroke:none;" d="M37 202L38 203L37 202M62 202L63 203L62 202M307 202L308 203L307 202z"/>
<path style="fill:#7cac67; stroke:none;" d="M308 202L309 203L308 202z"/>
<path style="fill:#a9c89c; stroke:none;" d="M331 202L332 203L331 202z"/>
<path style="fill:#7cac67; stroke:none;" d="M358 202L359 203L358 202M366 202L367 203L366 202M37 203L38 204L37 203z"/>
<path style="fill:#a9c89c; stroke:none;" d="M45 203L46 204L45 203z"/>
<path style="fill:#7cac67; stroke:none;" d="M61 203L62 204L61 203z"/>
<path style="fill:#a9c89c; stroke:none;" d="M69 203L70 204L69 203z"/>
<path style="fill:#7cac67; stroke:none;" d="M144.333 203.667L144.667 204.333L144.333 203.667z"/>
<path style="fill:#d2e2ca; stroke:none;" d="M305 203L306 204L305 203z"/>
<path style="fill:#7cac67; stroke:none;" d="M306 203L307 204L306 203z"/>
<path style="fill:#a9c89c; stroke:none;" d="M338 203L339 204L338 203z"/>
<path style="fill:#d2e2ca; stroke:none;" d="M38 204L39 205L38 204M61 204L62 205L61 204M99 204L99 205L137 205C126.964 200.789 109.911 204 99 204z"/>
<path style="fill:#7cac67; stroke:none;" d="M137 204L138 205L137 204z"/>
<path style="fill:#a9c89c; stroke:none;" d="M151 204L152 205L151 204z"/>
<path style="fill:#d2e2ca; stroke:none;" d="M269 204L269 205L296 205L269 204z"/>
<path style="fill:#a9c89c; stroke:none;" d="M303.333 204.667L303.667 205.333L303.333 204.667M330 204L331 205L330 204z"/>
<path style="fill:#7cac67; stroke:none;" d="M359 204L360 205L359 204M367 204L368 205L367 204M38 205L39 206L38 205z"/>
<path style="fill:#a9c89c; stroke:none;" d="M46 205L47 206L46 205z"/>
<path style="fill:#7cac67; stroke:none;" d="M60 205L61 206L60 205z"/>
<path style="fill:#a9c89c; stroke:none;" d="M68 205L69 206L68 205M98 205L98 220L99 220L98 205z"/>
<path style="fill:#d2e2ca; stroke:none;" d="M151 205L152 206L151 205z"/>
<path style="fill:#7cac67; stroke:none;" d="M269 205L269 227L270 227L269 205z"/>
<path style="fill:#a9c89c; stroke:none;" d="M337 205L338 206L337 205z"/>
<path style="fill:#d2e2ca; stroke:none;" d="M360 205L361 206L360 205M39 206L40 207L39 206z"/>
<path style="fill:#a9c89c; stroke:none;" d="M296 206L297 207L296 206M329 206L330 207L329 206z"/>
<path style="fill:#7cac67; stroke:none;" d="M360 206L361 207L360 206M368 206L369 207L368 206M39 207L40 208L39 207z"/>
<path style="fill:#a9c89c; stroke:none;" d="M47 207L48 208L47 207z"/>
<path style="fill:#7cac67; stroke:none;" d="M59 207L60 208L59 207z"/>
<path style="fill:#a9c89c; stroke:none;" d="M67 207L68 208L67 207z"/>
<path style="fill:#d2e2ca; stroke:none;" d="M145 207L146 208L145 207z"/>
<path style="fill:#7cac67; stroke:none;" d="M152 207L153 208L152 207z"/>
<path style="fill:#a9c89c; stroke:none;" d="M304 207L305 208L304 207M336 207L337 208L336 207z"/>
<path style="fill:#d2e2ca; stroke:none;" d="M361 207L362 208L361 207M40 208L41 209L40 208z"/>
<path style="fill:#a9c89c; stroke:none;" d="M145 208L146 209L145 208z"/>
<path style="fill:#d2e2ca; stroke:none;" d="M152 208L153 209L152 208z"/>
<path style="fill:#a9c89c; stroke:none;" d="M297 208L298 209L297 208M328 208L329 209L328 208z"/>
<path style="fill:#7cac67; stroke:none;" d="M361 208L362 209L361 208z"/>
<path style="fill:#a9c89c; stroke:none;" d="M369 208L370 209L369 208M48 209L49 210L48 209z"/>
<path style="fill:#7cac67; stroke:none;" d="M58 209L59 210L58 209z"/>
<path style="fill:#a9c89c; stroke:none;" d="M66 209L67 210L66 209z"/>
<path style="fill:#d2e2ca; stroke:none;" d="M305 209L306 210L305 209z"/>
<path style="fill:#a9c89c; stroke:none;" d="M335 209L336 210L335 209z"/>
<path style="fill:#d2e2ca; stroke:none;" d="M362 209L363 210L362 209z"/>
<path style="fill:#a9c89c; stroke:none;" d="M41 210L42 211L41 210z"/>
<path style="fill:#d2e2ca; stroke:none;" d="M146 210L147 211L146 210M153 210L154 211L153 210z"/>
<path style="fill:#a9c89c; stroke:none;" d="M298 210L299 211L298 210z"/>
<path style="fill:#7cac67; stroke:none;" d="M306 210L307 211L306 210z"/>
<path style="fill:#a9c89c; stroke:none;" d="M327 210L328 211L327 210z"/>
<path style="fill:#7cac67; stroke:none;" d="M362 210L363 211L362 210z"/>
<path style="fill:#a9c89c; stroke:none;" d="M370 210L371 211L370 210M49 211L50 212L49 211z"/>
<path style="fill:#7cac67; stroke:none;" d="M57 211L58 212L57 211M65 211L66 212L65 211M146 211L147 212L146 211M154 211L155 212L154 211z"/>
<path style="fill:#d2e2ca; stroke:none;" d="M306 211L307 212L306 211z"/>
<path style="fill:#a9c89c; stroke:none;" d="M334 211L335 212L334 211z"/>
<path style="fill:#d2e2ca; stroke:none;" d="M363 211L364 212L363 211z"/>
<path style="fill:#a9c89c; stroke:none;" d="M42 212L43 213L42 212z"/>
<path style="fill:#7cac67; stroke:none;" d="M299 212L300 213L299 212M307 212L308 213L307 212z"/>
<path style="fill:#a9c89c; stroke:none;" d="M326 212L327 213L326 212z"/>
<path style="fill:#7cac67; stroke:none;" d="M363 212L364 213L363 212z"/>
<path style="fill:#a9c89c; stroke:none;" d="M371 212L372 213L371 212M50 213L51 214L50 213z"/>
<path style="fill:#7cac67; stroke:none;" d="M56 213L57 214L56 213M64 213L65 214L64 213z"/>
<path style="fill:#a9c89c; stroke:none;" d="M147 213L148 214L147 213z"/>
<path style="fill:#d2e2ca; stroke:none;" d="M155 213L156 214L155 213M307 213L308 214L307 213z"/>
<path style="fill:#7cac67; stroke:none;" d="M325 213L326 214L325 213z"/>
<path style="fill:#a9c89c; stroke:none;" d="M333 213L334 214L333 213z"/>
<path style="fill:#d2e2ca; stroke:none;" d="M364 213L365 214L364 213z"/>
<path style="fill:#a9c89c; stroke:none;" d="M43 214L44 215L43 214M156 214L157 215L156 214z"/>
<path style="fill:#7cac67; stroke:none;" d="M300 214L301 215L300 214M308 214L309 215L308 214z"/>
<path style="fill:#d2e2ca; stroke:none;" d="M325 214L326 215L325 214z"/>
<path style="fill:#7cac67; stroke:none;" d="M364 214L365 215L364 214z"/>
<path style="fill:#a9c89c; stroke:none;" d="M372 214L373 215L372 214M51 215L52 216L51 215M55 215L56 216L55 215z"/>
<path style="fill:#7cac67; stroke:none;" d="M63 215L64 216L63 215M148 215L149 216L148 215z"/>
<path style="fill:#d2e2ca; stroke:none;" d="M157 215L158 216L157 215z"/>
<path style="fill:#a9c89c; stroke:none;" d="M190 215L191 216L190 215z"/>
<path style="fill:#d2e2ca; stroke:none;" d="M308 215L309 216L308 215z"/>
<path style="fill:#7cac67; stroke:none;" d="M324 215L325 216L324 215z"/>
<path style="fill:#a9c89c; stroke:none;" d="M332 215L333 216L332 215z"/>
<path style="fill:#d2e2ca; stroke:none;" d="M365 215L366 216L365 215z"/>
<path style="fill:#a9c89c; stroke:none;" d="M44 216L45 217L44 216z"/>
<path style="fill:#d2e2ca; stroke:none;" d="M149 216L150 217L149 216M158 216L159 217L158 216M189 216L190 217L189 216M191 216L192 217L191 216z"/>
<path style="fill:#7cac67; stroke:none;" d="M301 216L302 217L301 216M309 216L310 217L309 216z"/>
<path style="fill:#d2e2ca; stroke:none;" d="M324 216L325 217L324 216z"/>
<path style="fill:#a9c89c; stroke:none;" d="M373 216L374 217L373 216M52 217L53 218L52 217M54 217L55 218L54 217z"/>
<path style="fill:#7cac67; stroke:none;" d="M62 217L63 218L62 217z"/>
<path style="fill:#a9c89c; stroke:none;" d="M160 217L161 218L160 217M187 217L188 218L187 217z"/>
<path style="fill:#7cac67; stroke:none;" d="M193 217L194 218L193 217M323 217L324 218L323 217M331 217L332 218L331 217z"/>
<path style="fill:#a9c89c; stroke:none;" d="M366 217L367 218L366 217M45 218L46 219L45 218z"/>
<path style="fill:#7cac67; stroke:none;" d="M53 218L54 219L53 218M150 218L151 219L150 218z"/>
<path style="fill:#d2e2ca; stroke:none;" d="M161 218L162 219L161 218z"/>
<path style="fill:#7cac67; stroke:none;" d="M162 218L163 219L162 218M185 218L186 219L185 218z"/>
<path style="fill:#d2e2ca; stroke:none;" d="M186 218L187 219L186 218z"/>
<path style="fill:#7cac67; stroke:none;" d="M194 218L195 219L194 218M302 218L303 219L302 218M310 218L311 219L310 218z"/>
<path style="fill:#d2e2ca; stroke:none;" d="M323 218L324 219L323 218z"/>
<path style="fill:#a9c89c; stroke:none;" d="M374 218L375 219L374 218z"/>
<path style="fill:#7cac67; stroke:none;" d="M61 219L62 220L61 219M151 219L152 220L151 219z"/>
<path style="fill:#d2e2ca; stroke:none;" d="M163 219L164 220L163 219z"/>
<path style="fill:#7cac67; stroke:none;" d="M164 219L165 220L164 219M183 219L184 220L183 219z"/>
<path style="fill:#d2e2ca; stroke:none;" d="M184 219L185 220L184 219z"/>
<path style="fill:#a9c89c; stroke:none;" d="M195 219L196 220L195 219z"/>
<path style="fill:#7cac67; stroke:none;" d="M322 219L323 220L322 219M330 219L331 220L330 219z"/>
<path style="fill:#a9c89c; stroke:none;" d="M367 219L368 220L367 219M46 220L47 221L46 220z"/>
<path style="fill:#d2e2ca; stroke:none;" d="M60 220L61 221L60 220M99 220L99 221L139 221C128.488 216.589 110.434 220 99 220z"/>
<path style="fill:#7cac67; stroke:none;" d="M152 220L153 221L152 220z"/>
<path style="fill:#a9c89c; stroke:none;" d="M166 220L167 221L166 220z"/>
<path style="fill:#7cac67; stroke:none;" d="M167 220L168 221L167 220M180 220L181 221L180 220z"/>
<path style="fill:#a9c89c; stroke:none;" d="M181 220L182 221L181 220z"/>
<path style="fill:#7cac67; stroke:none;" d="M195 220L196 221L195 220M303 220L304 221L303 220M311 220L312 221L311 220z"/>
<path style="fill:#d2e2ca; stroke:none;" d="M322 220L323 221L322 220z"/>
<path style="fill:#a9c89c; stroke:none;" d="M375 220L376 221L375 220z"/>
<path style="fill:#7cac67; stroke:none;" d="M60 221L61 222L60 221M153 221L154 222L153 221z"/>
<path style="fill:#d2e2ca; stroke:none;" d="M169 221L170 222L169 221z"/>
<path style="fill:#a9c89c; stroke:none;" d="M170 221L170 222L178 222L170 221z"/>
<path style="fill:#d2e2ca; stroke:none;" d="M178 221L179 222L178 221z"/>
<path style="fill:#7cac67; stroke:none;" d="M194 221L195 222L194 221z"/>
<path style="fill:#d2e2ca; stroke:none;" d="M304 221L305 222L304 221z"/>
<path style="fill:#7cac67; stroke:none;" d="M321 221L322 222L321 221M329 221L330 222L329 221z"/>
<path style="fill:#a9c89c; stroke:none;" d="M368 221L369 222L368 221M47 222L48 223L47 222z"/>
<path style="fill:#d2e2ca; stroke:none;" d="M59 222L60 223L59 222z"/>
<path style="fill:#7cac67; stroke:none;" d="M154 222L155 223L154 222z"/>
<path style="fill:#d2e2ca; stroke:none;" d="M155 222L156 223L155 222M192 222L193 223L192 222z"/>
<path style="fill:#7cac67; stroke:none;" d="M304 222L305 223L304 222z"/>
<path style="fill:#a9c89c; stroke:none;" d="M312 222L313 223L312 222z"/>
<path style="fill:#d2e2ca; stroke:none;" d="M321 222L322 223L321 222z"/>
<path style="fill:#a9c89c; stroke:none;" d="M376 222L377 223L376 222z"/>
<path style="fill:#7cac67; stroke:none;" d="M59 223L60 224L59 223z"/>
<path style="fill:#a9c89c; stroke:none;" d="M156 223L157 224L156 223M191 223L192 224L191 223z"/>
<path style="fill:#d2e2ca; stroke:none;" d="M305 223L306 224L305 223z"/>
<path style="fill:#7cac67; stroke:none;" d="M320 223L321 224L320 223M328 223L329 224L328 223z"/>
<path style="fill:#a9c89c; stroke:none;" d="M369 223L370 224L369 223M48 224L49 225L48 224z"/>
<path style="fill:#d2e2ca; stroke:none;" d="M58 224L59 225L58 224z"/>
<path style="fill:#7cac67; stroke:none;" d="M157 224L158 225L157 224z"/>
<path style="fill:#d2e2ca; stroke:none;" d="M189 224L190 225L189 224z"/>
<path style="fill:#7cac67; stroke:none;" d="M190 224L191 225L190 224M305 224L306 225L305 224z"/>
<path style="fill:#a9c89c; stroke:none;" d="M313 224L314 225L313 224M377 224L378 225L377 224z"/>
<path style="fill:#7cac67; stroke:none;" d="M58 225L59 226L58 225z"/>
<path style="fill:#a9c89c; stroke:none;" d="M159 225L160 226L159 225z"/>
<path style="fill:#7cac67; stroke:none;" d="M188 225L189 226L188 225z"/>
<path style="fill:#d2e2ca; stroke:none;" d="M306 225L307 226L306 225z"/>
<path style="fill:#7cac67; stroke:none;" d="M319 225L320 226L319 225M327 225L328 226L327 225z"/>
<path style="fill:#a9c89c; stroke:none;" d="M370 225L371 226L370 225M49 226L50 227L49 226z"/>
<path style="fill:#d2e2ca; stroke:none;" d="M57 226L58 227L57 226z"/>
<path style="fill:#7cac67; stroke:none;" d="M161 226L162 227L161 226z"/>
<path style="fill:#d2e2ca; stroke:none;" d="M162 226L163 227L162 226M185 226L186 227L185 226z"/>
<path style="fill:#7cac67; stroke:none;" d="M186 226L187 227L186 226M306 226L307 227L306 226z"/>
<path style="fill:#a9c89c; stroke:none;" d="M314 226L315 227L314 226z"/>
<path style="fill:#d2e2ca; stroke:none;" d="M326 226L327 227L326 226z"/>
<path style="fill:#a9c89c; stroke:none;" d="M378 226L379 227L378 226z"/>
<path style="fill:#7cac67; stroke:none;" d="M163 227L164 228L163 227z"/>
<path style="fill:#a9c89c; stroke:none;" d="M164 227L165 228L164 227z"/>
<path style="fill:#d2e2ca; stroke:none;" d="M165 227L166 228L165 227M182 227L183 228L182 227z"/>
<path style="fill:#a9c89c; stroke:none;" d="M183 227L184 228L183 227z"/>
<path style="fill:#7cac67; stroke:none;" d="M167 228L168 229L167 228z"/>
<path style="fill:#a9c89c; stroke:none;" d="M168 228L169 229L168 228z"/>
<path style="fill:#d2e2ca; stroke:none;" d="M169.667 228.333L170.333 228.667L169.667 228.333M176 228L176 229L179 229L176 228z"/>
<path style="fill:#a9c89c; stroke:none;" d="M179 228L180 229L179 228z"/>
<path style="fill:#7cac67; stroke:none;" d="M180 228L181 229L180 228z"/>
</svg>
