<?xml version="1.0" standalone="yes"?>
<svg xmlns="http://www.w3.org/2000/svg" width="225" height="225">
<path style="fill:#ffffff; stroke:none;" d="M0 0L0 225L225 225L225 0L0 0z"/>
<path style="fill:#abb0ae; stroke:none;" d="M83 48L83 49L126 49C114.774 44.2896 95.2189 48 83 48M138.667 48.3333L139.333 48.6667L138.667 48.3333M79 49L80 50L79 49z"/>
<path style="fill:#057741; stroke:none;" d="M91 116L103.248 93L126 49L93 49C87.8745 49 81.626 48.0315 77.1883 51.1481C71.2971 55.2856 72 62.6589 72 69C72 85.1422 82.9402 102.191 91 116M138 49L150 73C154.315 62.7165 149.971 49.6224 138 49z"/>
<path style="fill:#68977c; stroke:none;" d="M143 49L144 50L143 49M77 50L78 51L77 50z"/>
<path style="fill:#abb0ae; stroke:none;" d="M138 50L139 51L138 50z"/>
<path style="fill:#68977c; stroke:none;" d="M145 50L146 51L145 50M76 51L77 52L76 51M124 51L125 52L124 51z"/>
<path style="fill:#abb0ae; stroke:none;" d="M124 52L125 53L124 52M139 52L140 53L139 52z"/>
<path style="fill:#68977c; stroke:none;" d="M74 53L75 54L74 53M123 53L124 54L123 53z"/>
<path style="fill:#abb0ae; stroke:none;" d="M73 54L74 55L73 54M140 54L141 55L140 54z"/>
<path style="fill:#68977c; stroke:none;" d="M149 54L150 55L149 54M122 55L123 56L122 55z"/>
<path style="fill:#abb0ae; stroke:none;" d="M72 56L73 57L72 56M141 56L142 57L141 56M150 56L151 57L150 56z"/>
<path style="fill:#68977c; stroke:none;" d="M72 57L73 58L72 57M121 57L122 58L121 57M150 57L151 58L150 57z"/>
<path style="fill:#abb0ae; stroke:none;" d="M142 58L143 59L142 58z"/>
<path style="fill:#68977c; stroke:none;" d="M120 59L121 60L120 59z"/>
<path style="fill:#abb0ae; stroke:none;" d="M131.667 60.3333L132.333 60.6667L131.667 60.3333M143 60L144 61L143 60z"/>
<path style="fill:#68977c; stroke:none;" d="M119 61L120 62L119 61z"/>
<path style="fill:#057741; stroke:none;" d="M131 61L98 127L131 127C135.698 127 141.83 128.007 145.945 125.258C151.796 121.348 151 114.141 151 108C151 93.6093 141.683 71.0616 131 61z"/>
<path style="fill:#68977c; stroke:none;" d="M132 61L133 62L132 61z"/>
<path style="fill:#abb0ae; stroke:none;" d="M130 62L131 63L130 62M133 62L134 63L133 62M144 62L145 63L144 62M118 63L119 64L118 63z"/>
<path style="fill:#68977c; stroke:none;" d="M133 63L134 64L133 63M145 63L146 64L145 63z"/>
<path style="fill:#abb0ae; stroke:none;" d="M129 64L130 65L129 64M134 64L135 65L134 64M145 64L146 65L145 64M117 65L118 66L117 65z"/>
<path style="fill:#68977c; stroke:none;" d="M146 65L147 66L146 65z"/>
<path style="fill:#abb0ae; stroke:none;" d="M128 66L129 67L128 66M135 66L136 67L135 66M146 66L147 67L146 66M116 67L117 68L116 67z"/>
<path style="fill:#68977c; stroke:none;" d="M135 67L136 68L135 67M147 67L148 68L147 67z"/>
<path style="fill:#abb0ae; stroke:none;" d="M127 68L128 69L127 68M136 68L137 69L136 68M147 68L148 69L147 68M115 69L116 70L115 69z"/>
<path style="fill:#68977c; stroke:none;" d="M136 69L137 70L136 69M148 69L149 70L148 69M126 70L127 71L126 70z"/>
<path style="fill:#abb0ae; stroke:none;" d="M137 70L138 71L137 70M148 70L149 71L148 70M114 71L115 72L114 71z"/>
<path style="fill:#68977c; stroke:none;" d="M137 71L138 72L137 71M149 71L150 72L149 71M125 72L126 73L125 72z"/>
<path style="fill:#abb0ae; stroke:none;" d="M138 72L139 73L138 72M113 73L114 74L113 73z"/>
<path style="fill:#68977c; stroke:none;" d="M150 73L151 74L150 73M124 74L125 75L124 74z"/>
<path style="fill:#abb0ae; stroke:none;" d="M139 74L140 75L139 74M112 75L113 76L112 75z"/>
<path style="fill:#68977c; stroke:none;" d="M123 76L124 77L123 76z"/>
<path style="fill:#abb0ae; stroke:none;" d="M140 76L141 77L140 76M111 77L112 78L111 77z"/>
<path style="fill:#68977c; stroke:none;" d="M110 78L111 79L110 78M122 78L123 79L122 78z"/>
<path style="fill:#abb0ae; stroke:none;" d="M141 78L142 79L141 78M110 79L111 80L110 79M72 80L73 81L72 80z"/>
<path style="fill:#68977c; stroke:none;" d="M109 80L110 81L109 80M121 80L122 81L121 80z"/>
<path style="fill:#abb0ae; stroke:none;" d="M142 80L143 81L142 80z"/>
<path style="fill:#68977c; stroke:none;" d="M73 81L74 82L73 81z"/>
<path style="fill:#abb0ae; stroke:none;" d="M109 81L110 82L109 81M120 81L121 82L120 81M73 82L74 83L73 82z"/>
<path style="fill:#68977c; stroke:none;" d="M108 82L109 83L108 82M120 82L121 83L120 82z"/>
<path style="fill:#abb0ae; stroke:none;" d="M143 82L144 83L143 82z"/>
<path style="fill:#68977c; stroke:none;" d="M74 83L75 84L74 83z"/>
<path style="fill:#abb0ae; stroke:none;" d="M108 83L109 84L108 83M119 83L120 84L119 83M74 84L75 85L74 84z"/>
<path style="fill:#68977c; stroke:none;" d="M119 84L120 85L119 84z"/>
<path style="fill:#abb0ae; stroke:none;" d="M144 84L145 85L144 84z"/>
<path style="fill:#68977c; stroke:none;" d="M75 85L76 86L75 85z"/>
<path style="fill:#abb0ae; stroke:none;" d="M107 85L108 86L107 85M118 85L119 86L118 85z"/>
<path style="fill:#68977c; stroke:none;" d="M106 86L107 87L106 86M118 86L119 87L118 86z"/>
<path style="fill:#abb0ae; stroke:none;" d="M145 86L146 87L145 86z"/>
<path style="fill:#68977c; stroke:none;" d="M76 87L77 88L76 87z"/>
<path style="fill:#abb0ae; stroke:none;" d="M106 87L107 88L106 87M117 87L118 88L117 87z"/>
<path style="fill:#68977c; stroke:none;" d="M105 88L106 89L105 88M146 88L147 89L146 88M77 89L78 90L77 89z"/>
<path style="fill:#abb0ae; stroke:none;" d="M116 89L117 90L116 89z"/>
<path style="fill:#68977c; stroke:none;" d="M104 90L105 91L104 90M147 90L148 91L147 90M78 91L79 92L78 91z"/>
<path style="fill:#abb0ae; stroke:none;" d="M115 91L116 92L115 91z"/>
<path style="fill:#68977c; stroke:none;" d="M103 92L104 93L103 92M115 92L116 93L115 92M148 92L149 93L148 92M79 93L80 94L79 93z"/>
<path style="fill:#abb0ae; stroke:none;" d="M114 93L115 94L114 93z"/>
<path style="fill:#68977c; stroke:none;" d="M102 94L103 95L102 94M149 94L150 95L149 94M80 95L81 96L80 95z"/>
<path style="fill:#abb0ae; stroke:none;" d="M113 95L114 96L113 95z"/>
<path style="fill:#68977c; stroke:none;" d="M101 96L102 97L101 96M150 96L151 97L150 96M81 97L82 98L81 97z"/>
<path style="fill:#abb0ae; stroke:none;" d="M112 97L113 98L112 97z"/>
<path style="fill:#68977c; stroke:none;" d="M100 98L101 99L100 98z"/>
<path style="fill:#abb0ae; stroke:none;" d="M82 99L83 100L82 99M111 99L112 100L111 99M99 100L100 101L99 100M83 101L84 102L83 101M110 101L111 102L110 101z"/>
<path style="fill:#68977c; stroke:none;" d="M72 102L73 103L72 102M98 102L99 103L98 102z"/>
<path style="fill:#057741; stroke:none;" d="M72 103C72 113.839 70.7339 126.655 85 127L72 103z"/>
<path style="fill:#abb0ae; stroke:none;" d="M84 103L85 104L84 103M109 103L110 104L109 103M73 104L74 105L73 104M97 104L98 105L97 104M85 105L86 106L85 105M108 105L109 106L108 105z"/>
<path style="fill:#68977c; stroke:none;" d="M74 106L75 107L74 106z"/>
<path style="fill:#abb0ae; stroke:none;" d="M96 106L97 107L96 106M86 107L87 108L86 107M107 107L108 108L107 107z"/>
<path style="fill:#68977c; stroke:none;" d="M75 108L76 109L75 108z"/>
<path style="fill:#abb0ae; stroke:none;" d="M95 108L96 109L95 108M87 109L88 110L87 109z"/>
<path style="fill:#68977c; stroke:none;" d="M106 109L107 110L106 109M76 110L77 111L76 110z"/>
<path style="fill:#abb0ae; stroke:none;" d="M94 110L95 111L94 110M88 111L89 112L88 111z"/>
<path style="fill:#68977c; stroke:none;" d="M105 111L106 112L105 111M77 112L78 113L77 112z"/>
<path style="fill:#abb0ae; stroke:none;" d="M93 112L94 113L93 112M89 113L90 114L89 113z"/>
<path style="fill:#68977c; stroke:none;" d="M104 113L105 114L104 113M78 114L79 115L78 114z"/>
<path style="fill:#abb0ae; stroke:none;" d="M92 114L93 115L92 114M79 115L80 116L79 115M90 115L91 116L90 115z"/>
<path style="fill:#68977c; stroke:none;" d="M103 115L104 116L103 115M79 116L80 117L79 116z"/>
<path style="fill:#abb0ae; stroke:none;" d="M91 116L92 117L91 116M80 117L81 118L80 117z"/>
<path style="fill:#68977c; stroke:none;" d="M102 117L103 118L102 117z"/>
<path style="fill:#abb0ae; stroke:none;" d="M72.3333 119.667L72.6667 120.333L72.3333 119.667M81 119L82 120L81 119z"/>
<path style="fill:#68977c; stroke:none;" d="M101 119L102 120L101 119M150 119L151 120L150 119M81 120L82 121L81 120z"/>
<path style="fill:#abb0ae; stroke:none;" d="M100 120L101 121L100 120M150 120L151 121L150 120z"/>
<path style="fill:#68977c; stroke:none;" d="M73 121L74 122L73 121z"/>
<path style="fill:#abb0ae; stroke:none;" d="M82 121L83 122L82 121z"/>
<path style="fill:#68977c; stroke:none;" d="M100 121L101 122L100 121M82 122L83 123L82 122z"/>
<path style="fill:#abb0ae; stroke:none;" d="M99 122L100 123L99 122M149 122L150 123L149 122M74 123L75 124L74 123M83 123L84 124L83 123M148 123L149 124L148 123M75 124L76 125L75 124z"/>
<path style="fill:#68977c; stroke:none;" d="M83 124L84 125L83 124z"/>
<path style="fill:#abb0ae; stroke:none;" d="M98 124L99 125L98 124z"/>
<path style="fill:#68977c; stroke:none;" d="M147 124L148 125L147 124z"/>
<path style="fill:#abb0ae; stroke:none;" d="M76 125L77 126L76 125M84 125L85 126L84 125z"/>
<path style="fill:#68977c; stroke:none;" d="M98 125L99 126L98 125z"/>
<path style="fill:#abb0ae; stroke:none;" d="M146 125L147 126L146 125z"/>
<path style="fill:#68977c; stroke:none;" d="M78 126L79 127L78 126z"/>
<path style="fill:#abb0ae; stroke:none;" d="M97 126L98 127L97 126z"/>
<path style="fill:#68977c; stroke:none;" d="M144 126L145 127L144 126z"/>
<path style="fill:#abb0ae; stroke:none;" d="M80 127L81 128L80 127z"/>
<path style="fill:#68977c; stroke:none;" d="M81 127L81 128L85 128L81 127z"/>
<path style="fill:#abb0ae; stroke:none;" d="M85 127L86 128L85 127z"/>
<path style="fill:#68977c; stroke:none;" d="M97 127L97 128L142 128C130.299 123.09 109.742 127 97 127z"/>
<path style="fill:#abb0ae; stroke:none;" d="M142 127L143 128L142 127M198 151L199 152L198 151M24 152L25 153L24 152z"/>
<path style="fill:#060606; stroke:none;" d="M25 152C26.8273 156.389 33.5387 175.364 38.9198 175.364C43.9772 175.364 50.8029 156.176 53 152C45.8802 154.226 41.7138 166.514 39 173C35.327 166.707 32.387 154.31 25 152z"/>
<path style="fill:#abb0ae; stroke:none;" d="M28 152L29 153L28 152z"/>
<path style="fill:#057741; stroke:none;" d="M49 152L50 153L49 152M57 152L57 176L58 176L57 152z"/>
<path style="fill:#060606; stroke:none;" d="M58 152L58 176C63.1543 176 80.792 178.637 82 173C72.9847 175.146 60.1398 176.831 60 165L76 165L76 163L60 163L60 155L82 155L82 152L58 152z"/>
<path style="fill:#abb0ae; stroke:none;" d="M82 152L82 155L83 155L82 152M95 152L96 153L95 152z"/>
<path style="fill:#68977c; stroke:none;" d="M96 152L97 153L96 152z"/>
<path style="fill:#057741; stroke:none;" d="M97 152L98 153L97 152z"/>
<path style="fill:#060606; stroke:none;" d="M111 172C105.839 171.349 101.105 174.363 95.9761 172.015C87.688 168.222 88.4831 158.607 97.0039 155.703C101.795 154.07 106.263 156.823 111 156C108.886 154.294 106.707 153.124 103.999 152.533C76.3024 146.496 89.9427 190.781 111 172z"/>
<path style="fill:#68977c; stroke:none;" d="M104 152L105 153L104 152z"/>
<path style="fill:#abb0ae; stroke:none;" d="M105 152L106 153L105 152z"/>
<path style="fill:#68977c; stroke:none;" d="M115 152L115 155L116 155L115 152z"/>
<path style="fill:#060606; stroke:none;" d="M116 152L116 155L127 155L127 176L129 176L129 155L140 155L140 152L116 152z"/>
<path style="fill:#68977c; stroke:none;" d="M140 152L141 153L140 152z"/>
<path style="fill:#abb0ae; stroke:none;" d="M144 152L144 175L145 175L144 152z"/>
<path style="fill:#060606; stroke:none;" d="M145 152L145 176L147 176C147.005 168.987 150.843 160.46 159.61 166.028C163.812 168.696 163.917 174.276 169 176L164 165C168.82 162.569 171.211 155.46 164.891 152.742C159.458 150.406 150.841 152 145 152z"/>
<path style="fill:#68977c; stroke:none;" d="M165 152L166 153L165 152z"/>
<path style="fill:#060606; stroke:none;" d="M172 176C178.982 173.822 183.106 162.573 185 156L187 156C189.604 162.255 193.118 173.848 200 176C198.193 171.659 191.301 152.636 186 152.636C181.055 152.636 174.16 171.895 172 176z"/>
<path style="fill:#abb0ae; stroke:none;" d="M188 152L189 153L188 152z"/>
<path style="fill:#68977c; stroke:none;" d="M197 152L198 154L199 154L200 152L197 152M25 153L26 154L25 153z"/>
<path style="fill:#abb0ae; stroke:none;" d="M48 153L49 154L48 153M52 153L53 154L52 153M93 153L94 154L93 153z"/>
<path style="fill:#057741; stroke:none;" d="M107 153L108 154L107 153z"/>
<path style="fill:#abb0ae; stroke:none;" d="M108 153L109 154L108 153M140.333 153.667L140.667 154.333L140.333 153.667M167 153L168 154L167 153M183 153L184 154L183 153z"/>
<path style="fill:#057741; stroke:none;" d="M188 153L189 154L188 153z"/>
<path style="fill:#abb0ae; stroke:none;" d="M196 153C197.772 155.682 199.228 155.682 201 153L196 153M29 154L30 155L29 154z"/>
<path style="fill:#057741; stroke:none;" d="M48 154L49 155L48 154M51 154L52 155L51 154z"/>
<path style="fill:#abb0ae; stroke:none;" d="M91 154L92 155L91 154z"/>
<path style="fill:#68977c; stroke:none;" d="M109 154L110 155L109 154z"/>
<path style="fill:#abb0ae; stroke:none;" d="M168 154L169 155L168 154M189 154L190 155L189 154z"/>
<path style="fill:#68977c; stroke:none;" d="M26 155L27 156L26 155z"/>
<path style="fill:#abb0ae; stroke:none;" d="M47 155L48 156L47 155M51 155L52 156L51 155M60 155L60 162L61 162L60 155z"/>
<path style="fill:#68977c; stroke:none;" d="M90 155L91 156L90 155M96 155L97 156L96 155z"/>
<path style="fill:#abb0ae; stroke:none;" d="M97.6667 155.333L98.3333 155.667L97.6667 155.333M103 155L104 156L103 155z"/>
<path style="fill:#68977c; stroke:none;" d="M104 155L105 156L104 155z"/>
<path style="fill:#057741; stroke:none;" d="M105 155L106 156L105 155z"/>
<path style="fill:#68977c; stroke:none;" d="M126 155L126 176L127 176L126 155M129 155L129 176L130 176L129 155z"/>
<path style="fill:#057741; stroke:none;" d="M147 155L147 162L148 162L147 155z"/>
<path style="fill:#ffffff; stroke:none;" d="M148 155L148 162C151.443 162 163.98 163.902 165.248 159.701C167.241 153.102 151.266 155 148 155z"/>
<path style="fill:#abb0ae; stroke:none;" d="M164 155L165 156L164 155z"/>
<path style="fill:#057741; stroke:none;" d="M168 155L169 156L168 155z"/>
<path style="fill:#68977c; stroke:none;" d="M182 155L183 156L182 155z"/>
<path style="fill:#057741; stroke:none;" d="M189 155L190 156L189 155z"/>
<path style="fill:#abb0ae; stroke:none;" d="M30 156L31 157L30 156z"/>
<path style="fill:#057741; stroke:none;" d="M47 156L48 157L47 156M50 156L51 157L50 156z"/>
<path style="fill:#68977c; stroke:none;" d="M89 156L90 157L89 156M94 156L95 157L94 156z"/>
<path style="fill:#abb0ae; stroke:none;" d="M106 156L107 157L106 156z"/>
<path style="fill:#68977c; stroke:none;" d="M110 156L111 157L110 156z"/>
<path style="fill:#abb0ae; stroke:none;" d="M165 156L166 157L165 156M169 156L170 157L169 156M185.667 156.333L186.333 156.667L185.667 156.333M190 156L191 157L190 156z"/>
<path style="fill:#68977c; stroke:none;" d="M27 157L28 158L27 157z"/>
<path style="fill:#abb0ae; stroke:none;" d="M46 157L47 158L46 157M50 157L51 158L50 157M88 157L89 158L88 157z"/>
<path style="fill:#68977c; stroke:none;" d="M108 157L109 158L108 157z"/>
<path style="fill:#abb0ae; stroke:none;" d="M109 157L110 158L109 157z"/>
<path style="fill:#057741; stroke:none;" d="M166 157L167 158L166 157z"/>
<path style="fill:#68977c; stroke:none;" d="M169 157L169 160L170 160L169 157M181 157L182 158L181 157M187 157L188 158L187 157z"/>
<path style="fill:#057741; stroke:none;" d="M190 157L191 158L190 157z"/>
<path style="fill:#68977c; stroke:none;" d="M31 158L32 159L31 158z"/>
<path style="fill:#057741; stroke:none;" d="M46 158L47 159L46 158M49 158L50 159L49 158z"/>
<path style="fill:#abb0ae; stroke:none;" d="M87 158L88 159L87 158z"/>
<path style="fill:#057741; stroke:none;" d="M91 158L92 159L91 158z"/>
<path style="fill:#68977c; stroke:none;" d="M166.333 158.667L166.667 159.333L166.333 158.667z"/>
<path style="fill:#abb0ae; stroke:none;" d="M184 158L185 159L184 158M187 158L188 159L187 158M191 158L192 159L191 158z"/>
<path style="fill:#68977c; stroke:none;" d="M28 159L29 160L28 159z"/>
<path style="fill:#abb0ae; stroke:none;" d="M45 159L46 160L45 159M49 159L50 160L49 159z"/>
<path style="fill:#68977c; stroke:none;" d="M87 159L88 160L87 159M180 159L181 160L180 159M188 159L189 160L188 159z"/>
<path style="fill:#057741; stroke:none;" d="M191 159L192 160L191 159z"/>
<path style="fill:#68977c; stroke:none;" d="M32 160L33 161L32 160z"/>
<path style="fill:#057741; stroke:none;" d="M48 160L49 161L48 160z"/>
<path style="fill:#abb0ae; stroke:none;" d="M90 160L91 161L90 160M169 160L170 161L169 160M183 160L184 161L183 160M188 160L189 161L188 160M192 160L193 161L192 160z"/>
<path style="fill:#68977c; stroke:none;" d="M29 161L30 162L29 161z"/>
<path style="fill:#abb0ae; stroke:none;" d="M44 161L45 162L44 161M48 161L49 162L48 161M86 161L87 162L86 161z"/>
<path style="fill:#057741; stroke:none;" d="M165 161L166 162L165 161z"/>
<path style="fill:#68977c; stroke:none;" d="M179 161L180 162L179 161z"/>
<path style="fill:#057741; stroke:none;" d="M189 161L190 162L189 161z"/>
<path style="fill:#68977c; stroke:none;" d="M33 162L34 163L33 162M47 162L48 163L47 162M60 162L60 163L76 163L60 162M86 162L87 163L86 162M89 162L90 163L89 162z"/>
<path style="fill:#abb0ae; stroke:none;" d="M148 162L149 163L148 162z"/>
<path style="fill:#68977c; stroke:none;" d="M149 162L149 163L164 163L149 162z"/>
<path style="fill:#abb0ae; stroke:none;" d="M168 162L169 163L168 162M182 162L183 163L182 162M189 162L190 163L189 162M193 162L194 163L193 162M30 163L31 164L30 163M43 163L44 164L43 163M47 163L48 164L47 163z"/>
<path style="fill:#057741; stroke:none;" d="M86.3333 163.667L86.6667 164.333L86.3333 163.667z"/>
<path style="fill:#abb0ae; stroke:none;" d="M89.3333 163.667L89.6667 164.333L89.3333 163.667z"/>
<path style="fill:#68977c; stroke:none;" d="M167 163L168 164L167 163M178 163L179 164L178 163M190 163L191 164L190 163M34 164L35 165L34 164z"/>
<path style="fill:#057741; stroke:none;" d="M43 164L44 165L43 164z"/>
<path style="fill:#68977c; stroke:none;" d="M46 164L47 165L46 164z"/>
<path style="fill:#abb0ae; stroke:none;" d="M166 164L167 165L166 164M181 164L182 165L181 164M190 164L191 165L190 164M194 164L195 165L194 164M31 165L32 166L31 165M42 165L43 166L42 165z"/>
<path style="fill:#057741; stroke:none;" d="M60 165L61 166L60 165z"/>
<path style="fill:#68977c; stroke:none;" d="M61 165L61 166L76 166L61 165M86 165L87 166L86 165M89 165L90 166L89 165M148 165L148 166L160 166L148 165z"/>
<path style="fill:#057741; stroke:none;" d="M160 165L161 166L160 165z"/>
<path style="fill:#abb0ae; stroke:none;" d="M164 165L165 166L164 165z"/>
<path style="fill:#68977c; stroke:none;" d="M177 165L178 166L177 165M191 165L192 166L191 165M35 166L36 167L35 166M45 166L46 167L45 166z"/>
<path style="fill:#abb0ae; stroke:none;" d="M60 166L60 173L61 173L60 166M86.3333 166.667L86.6667 167.333L86.3333 166.667z"/>
<path style="fill:#057741; stroke:none;" d="M147 166L147 176L148 176L147 166z"/>
<path style="fill:#68977c; stroke:none;" d="M164 166L165 167L164 166z"/>
<path style="fill:#abb0ae; stroke:none;" d="M176 166L177 167L176 166M180 166L181 167L180 166M195 166L196 167L195 166M32 167L33 168L32 167M41 167L42 168L41 167M90 167L91 168L90 167M161 167L162 168L161 167z"/>
<path style="fill:#057741; stroke:none;" d="M176 167L177 168L176 167z"/>
<path style="fill:#68977c; stroke:none;" d="M192 167L193 168L192 167M36 168L37 169L36 168M44 168L45 169L44 168z"/>
<path style="fill:#057741; stroke:none;" d="M87 168L88 169L87 168z"/>
<path style="fill:#68977c; stroke:none;" d="M165 168L166 169L165 168z"/>
<path style="fill:#abb0ae; stroke:none;" d="M175 168L176 169L175 168M179 168L180 169L179 168M196 168L197 169L196 168M33 169L34 170L33 169M40 169L41 170L40 169M87 169L88 170L87 169z"/>
<path style="fill:#68977c; stroke:none;" d="M91 169L92 170L91 169z"/>
<path style="fill:#abb0ae; stroke:none;" d="M162 169L163 170L162 169z"/>
<path style="fill:#68977c; stroke:none;" d="M175 169L176 170L175 169M193 169L194 170L193 169z"/>
<path style="fill:#057741; stroke:none;" d="M34 170L35 171L34 170z"/>
<path style="fill:#68977c; stroke:none;" d="M37 170L38 171L37 170M43 170L44 171L43 170M88 170L89 171L88 170z"/>
<path style="fill:#057741; stroke:none;" d="M92 170L93 171L92 170z"/>
<path style="fill:#abb0ae; stroke:none;" d="M108.667 170.333L109.333 170.667L108.667 170.333z"/>
<path style="fill:#68977c; stroke:none;" d="M166 170L167 171L166 170z"/>
<path style="fill:#abb0ae; stroke:none;" d="M174 170L175 171L174 170M178 170L179 171L178 170M197 170L198 171L197 170M34 171L35 172L34 171M39 171L40 172L39 171z"/>
<path style="fill:#68977c; stroke:none;" d="M89 171L90 172L89 171z"/>
<path style="fill:#abb0ae; stroke:none;" d="M94 171L95 172L94 171M106 171L107 172L106 171z"/>
<path style="fill:#057741; stroke:none;" d="M107 171L108 172L107 171z"/>
<path style="fill:#68977c; stroke:none;" d="M110 171L111 172L110 171z"/>
<path style="fill:#abb0ae; stroke:none;" d="M163 171L164 172L163 171z"/>
<path style="fill:#057741; stroke:none;" d="M174 171L175 172L174 171M177 171L178 172L177 171z"/>
<path style="fill:#68977c; stroke:none;" d="M194 171L195 172L194 171z"/>
<path style="fill:#057741; stroke:none;" d="M35 172L36 173L35 172M38 172L39 173L38 172z"/>
<path style="fill:#68977c; stroke:none;" d="M42 172L43 173L42 172M90 172L91 173L90 172M96 172L97 173L96 172z"/>
<path style="fill:#abb0ae; stroke:none;" d="M97 172L98 173L97 172M103.667 172.333L104.333 172.667L103.667 172.333z"/>
<path style="fill:#057741; stroke:none;" d="M105 172L106 173L105 172M164 172L165 173L164 172z"/>
<path style="fill:#68977c; stroke:none;" d="M167 172L168 173L167 172z"/>
<path style="fill:#abb0ae; stroke:none;" d="M173 172L174 173L173 172M177 172L178 173L177 172M198 172L199 173L198 172M35 173L36 174L35 173z"/>
<path style="fill:#057741; stroke:none;" d="M61 173L61 174L81 174L61 173z"/>
<path style="fill:#abb0ae; stroke:none;" d="M82 173L82 176L83 176L82 173M91 173L92 174L91 173z"/>
<path style="fill:#057741; stroke:none;" d="M100 173L101 174L100 173M109 173L110 174L109 173z"/>
<path style="fill:#abb0ae; stroke:none;" d="M164 173L165 174L164 173M168 173L169 174L168 173z"/>
<path style="fill:#057741; stroke:none;" d="M173 173L174 174L173 173M176 173L177 174L176 173z"/>
<path style="fill:#68977c; stroke:none;" d="M195 173L196 174L195 173M41 174L42 175L41 174M93 174L94 175L93 174z"/>
<path style="fill:#abb0ae; stroke:none;" d="M108 174L109 175L108 174z"/>
<path style="fill:#057741; stroke:none;" d="M165 174L166 175L165 174z"/>
<path style="fill:#68977c; stroke:none;" d="M168 174L169 175L168 174z"/>
<path style="fill:#abb0ae; stroke:none;" d="M172 174L173 175L172 174M176 174L177 175L176 174z"/>
<path style="fill:#68977c; stroke:none;" d="M199 174L200 175L199 174z"/>
<path style="fill:#abb0ae; stroke:none;" d="M36 175L37 176L36 175M95 175L96 176L95 175z"/>
<path style="fill:#057741; stroke:none;" d="M96 175L97 176L96 175z"/>
<path style="fill:#68977c; stroke:none;" d="M105 175L106 176L105 175z"/>
<path style="fill:#abb0ae; stroke:none;" d="M106 175L107 176L106 175z"/>
<path style="fill:#68977c; stroke:none;" d="M144 175L145 176L144 175z"/>
<path style="fill:#abb0ae; stroke:none;" d="M165 175L166 176L165 175M169 175L170 176L169 175z"/>
<path style="fill:#057741; stroke:none;" d="M175 175L176 176L175 175z"/>
<path style="fill:#68977c; stroke:none;" d="M196 175L197 176L196 175z"/>
<path style="fill:#abb0ae; stroke:none;" d="M37 176L37 177L40 177L37 176M57 176L57 177L82 177L57 176M99 176L99 177L102 177L99 176M127.667 176.333L128.333 176.667L127.667 176.333M145 176L145 177L148 177L145 176M166 176L166 177L169 177L166 176M172 176L172 177L175 177L172 176M197 176L197 177L200 177L197 176z"/>
</svg>
