<svg width="138" height="138" viewBox="0 0 138 138" fill="none" xmlns="http://www.w3.org/2000/svg">
<path d="M35.1452 73.8698C35.145 74.0049 35.2171 74.1298 35.3342 74.1972L41.8121 77.9274C41.9288 77.9945 42.0724 77.9945 42.189 77.9271L48.677 74.1813C48.7936 74.114 48.8655 73.9896 48.8656 73.855L48.8742 66.3799C48.8743 66.2448 48.8023 66.1199 48.6852 66.0525L42.2073 62.3224C42.0906 62.2552 41.9469 62.2553 41.8303 62.3226L35.3424 66.0684C35.2258 66.1357 35.1539 66.2601 35.1537 66.3947L35.1452 73.8698Z" stroke="#307FE2" stroke-width="4.95"/>
<path d="M44.4597 116.093C44.4595 116.228 44.5316 116.353 44.6487 116.421L49.7317 119.347C49.8484 119.415 49.992 119.415 50.1086 119.347L55.1998 116.408C55.3164 116.341 55.3883 116.216 55.3884 116.082L55.3952 110.216C55.3953 110.081 55.3232 109.956 55.2061 109.889L50.1231 106.962C50.0065 106.895 49.8628 106.895 49.7462 106.962L44.655 109.901C44.5384 109.969 44.4665 110.093 44.4664 110.228L44.4597 116.093Z" stroke="#E4002B" stroke-width="4.95"/>
<path d="M59.8389 76.6376C59.8387 76.7727 59.9108 76.8976 60.0279 76.965L70.8516 83.1975C70.9683 83.2647 71.1119 83.2647 71.2285 83.1973L82.068 76.9392C82.1846 76.8718 82.2565 76.7475 82.2566 76.6128L82.2709 64.123C82.2711 63.9879 82.199 63.863 82.0819 63.7956L71.2582 57.563C71.1415 57.4958 70.9979 57.4959 70.8813 57.5632L60.0418 63.8214C59.9252 63.8887 59.8533 64.0131 59.8532 64.1477L59.8389 76.6376Z" stroke="#307FE2" stroke-width="4.95"/>
<path d="M91.748 50.132L71.1395 38.2651C71.0228 38.198 70.8792 38.198 70.7626 38.2654L43.0189 54.2832C42.9023 54.3505 42.8304 54.4749 42.8303 54.6095L42.8222 61.6104M99.0159 72.8267L98.9976 86.5167C98.9974 86.6514 98.9255 86.7757 98.809 86.843L71.0652 102.861C70.9486 102.928 70.805 102.928 70.6883 102.861L42.9827 86.9075C42.8656 86.84 42.7935 86.7152 42.7937 86.5801L42.8039 77.6801" stroke="#307FE2" stroke-width="4.95" stroke-linecap="round"/>
<path d="M59.5294 19.1214C69.7208 17.2467 80.2424 18.5622 89.6584 22.8884C99.0745 27.2147 106.926 34.3409 112.142 43.2947C117.359 52.2485 119.685 62.5937 118.804 72.9185C117.923 83.2434 113.878 93.0449 107.22 100.986L103.835 98.1471C109.908 90.9032 113.598 81.9618 114.402 72.543C115.205 63.1241 113.083 53.6868 108.325 45.5187C103.566 37.3506 96.4036 30.8497 87.8139 26.9031C79.2241 22.9565 69.6258 21.7564 60.3288 23.4666L59.5294 19.1214Z" fill="#307FE2"/>
<path d="M35.7573 33.4791C34.924 32.588 34.9677 31.186 35.8945 30.3926C37.981 28.6062 40.2102 26.9936 42.5598 25.5709C43.6034 24.939 44.9486 25.3362 45.5341 26.4065C46.1197 27.4768 45.7235 28.8146 44.6826 29.4509C42.6552 30.6903 40.7269 32.0852 38.9153 33.623C37.9852 34.4125 36.5907 34.3702 35.7573 33.4791Z" fill="#307FE2"/>
<path d="M94.9821 108.929C95.6498 109.95 95.3656 111.324 94.3161 111.946C90.1335 114.426 85.6135 116.287 80.8973 117.471C79.7139 117.768 78.545 116.993 78.3002 115.798C78.0553 114.602 78.8274 113.44 80.0094 113.138C84.1814 112.072 88.1828 110.425 91.8959 108.244C92.948 107.626 94.3145 107.908 94.9821 108.929Z" fill="#2E78D5"/>
<path d="M45.2472 26.9155C45.247 27.0506 45.3191 27.1754 45.4362 27.2428L52.9681 31.5799C53.0847 31.6471 53.2284 31.647 53.345 31.5797L60.8883 27.2245C61.0049 27.1572 61.0768 27.0329 61.077 26.8982L61.0869 18.2069C61.0871 18.0718 61.015 17.9469 60.8979 17.8795L53.366 13.5424C53.2493 13.4753 53.1057 13.4753 52.9891 13.5427L45.4457 17.8978C45.3291 17.9651 45.2573 18.0895 45.2571 18.2241L45.2472 26.9155Z" stroke="#E4002B" stroke-width="4.95"/>
<path d="M94.0599 110.13C94.0597 110.266 94.1318 110.39 94.2489 110.458L102.166 115.017C102.282 115.084 102.426 115.084 102.543 115.016L110.471 110.439C110.588 110.371 110.66 110.247 110.66 110.112L110.67 100.977C110.671 100.842 110.598 100.717 110.481 100.65L102.565 96.0909C102.448 96.0237 102.304 96.0238 102.188 96.0911L94.259 100.669C94.1424 100.736 94.0705 100.86 94.0703 100.995L94.0599 110.13Z" stroke="#E4002B" stroke-width="4.95"/>
</svg>
