<svg height="34" viewBox="0 0 181 34" width="181" xmlns="http://www.w3.org/2000/svg"><g fill="none"><g><path d="m8 11h6v6h-6z" fill="#00af9a"/><g fill="#1d252c"><path d="m18 0h-18v11h5.6v-5.7h12.4z"/><path d="m0 17h5.6v10h-5.6z"/></g></g><g fill="#1d252c" transform="translate(16)"><path d="m126.3.2h5.2v4.8h-5.2z"/><path d="m35.1 11.5c-2.1-.2-3.8 0-5 1.2-1.1 1.1-1.3 2.8-1.3 4.4v9.9h-5.2v-20h4.9v1.9c1.6-2 4.1-2.8 6.5-2.4v5z"/><path d="m55.8 20.2c-1.2 4.6-4.8 7.3-9.7 7.3-6.1 0-10.4-4.7-10.4-10.5s4.3-10.6 10.4-10.6c4.8 0 8.5 2.7 9.7 7.3h-5.5c-.7-1.4-2.3-2.5-4.2-2.5-2.9 0-5.2 2.7-5.2 5.9s2.3 5.8 5.2 5.8c1.9 0 3.6-1.2 4.2-2.6h5.5z"/><path d="m67.9 6.4c-5.7 0-10.3 4.8-10.3 10.6s4.6 10.5 10.3 10.5c4.8 0 8.2-2.5 9.5-6.3h-5.7c-.9 1.2-2.4 1.8-3.9 1.8-2.4 0-4.4-1.5-5-4h15.2c.7-8-4.2-12.6-10.1-12.6zm-5 8.3c.7-2.3 2.6-3.8 5-3.8 2.5 0 4.4 1.5 5 3.8z"/><path d="m126.3 7h5.2v20h-5.2z"/><path d="m152.4 27h-5.2v-11.8c0-1.2-.4-4-3.7-4-2.3 0-3.9 1.7-3.9 4v11.8h-5.2v-20h4.9v1.9c1.3-1.5 3-2.5 5.2-2.5 4.7 0 7.9 3.6 7.9 8.9z"/><path d="m164 27c-5.9.6-9-2.9-9-8.4v-16.6h5.2v4.9h3.9v4.6h-3.9v7.1c0 2.8 1.3 3.9 3.9 3.7v4.7z"/><path d="m10.7 6.4c-5.8 0-10.5 4.7-10.5 10.5s4.7 10.5 10.5 10.5 10.5-4.7 10.5-10.5-4.7-10.5-10.5-10.5m0 16.3c-3.1 0-5.6-2.6-5.6-5.8s2.5-5.8 5.6-5.8 5.6 2.6 5.6 5.8-2.5 5.8-5.6 5.8"/><path d="m113.6 6.4c-5.8 0-10.5 4.7-10.5 10.5s4.7 10.5 10.5 10.5 10.5-4.7 10.5-10.5c.1-5.8-4.6-10.5-10.5-10.5m0 16.3c-3.1 0-5.6-2.6-5.6-5.8s2.5-5.8 5.6-5.8 5.6 2.6 5.6 5.8-2.4 5.8-5.6 5.8"/><path d="m85.4 9c1.6-1.6 3.7-2.6 6.1-2.6 5.3 0 9.6 4.5 9.6 10.5s-4.3 10.5-9.6 10.5c-2.3 0-4.4-.9-5.9-2.4v9h-5.2v-27h5zm5.4 2.2c-2.9 0-5.2 2.5-5.2 5.7s2.3 5.7 5.2 5.7 5.2-2.5 5.2-5.7c-.1-3.3-2.4-5.7-5.2-5.7z"/></g></g></svg>