<?xml version="1.0" standalone="no"?>
<!DOCTYPE svg PUBLIC "-//W3C//DTD SVG 20010904//EN"
 "http://www.w3.org/TR/2001/REC-SVG-20010904/DTD/svg10.dtd">
<svg version="1.0" xmlns="http://www.w3.org/2000/svg"
 width="300.000000pt" height="300.000000pt" viewBox="0 0 300.000000 300.000000"
 preserveAspectRatio="xMidYMid meet">
<metadata>
Created by potrace 1.10, written by Peter Selinger 2001-2011
</metadata>
<g transform="translate(0.000000,300.000000) scale(0.100000,-0.100000)"
fill="#000000" stroke="none">
<path d="M2784 1766 c-12 -31 0 -51 31 -51 27 0 30 3 30 30 0 25 -4 30 -28 33
-17 2 -29 -2 -33 -12z"/>
<path d="M183 1703 l-33 -4 0 -234 0 -234 36 -7 c47 -9 144 2 189 20 94 40
100 184 8 223 l-36 14 31 19 c60 37 71 108 25 160 -39 44 -107 57 -220 43z
m161 -64 c28 -22 35 -64 16 -99 -12 -22 -61 -40 -111 -40 l-39 0 0 80 0 80 54
0 c39 0 60 -6 80 -21z m6 -208 c84 -61 30 -161 -87 -161 l-53 0 0 96 0 97 58
-7 c31 -3 68 -15 82 -25z"/>
<path d="M504 1697 c-2 -7 -3 -116 -2 -242 l3 -229 28 0 28 0 0 239 0 240 -26
2 c-14 1 -28 -4 -31 -10z"/>
<path d="M620 1678 c0 -28 0 -28 73 -28 l72 0 -3 -210 -3 -210 33 0 33 0 -3
210 -4 210 76 0 76 0 0 28 0 27 -175 0 -175 0 0 -27z"/>
<path d="M1085 1697 c-52 -24 -85 -72 -85 -124 0 -41 5 -51 39 -84 22 -20 62
-44 89 -53 59 -20 85 -45 85 -83 0 -57 -81 -81 -160 -48 -41 17 -50 13 -55
-29 -3 -25 2 -30 32 -42 19 -7 60 -13 90 -13 108 -1 180 57 180 146 0 57 -36
97 -131 142 -67 33 -74 39 -77 68 -6 56 64 78 154 48 18 -6 22 -2 28 26 3 18
2 37 -3 42 -17 17 -153 19 -186 4z"/>
<path d="M1350 1470 c0 -130 2 -239 4 -241 3 -3 23 -3 45 -1 l41 4 0 237 0
236 -45 1 -45 1 0 -237z"/>
<path d="M1662 1692 c-108 -39 -162 -116 -162 -232 0 -105 46 -181 130 -217
50 -21 156 -26 218 -11 l54 13 1 123 2 122 -86 0 -85 0 -1 -36 -1 -36 44 4 45
3 -3 -65 -3 -65 -62 0 c-69 0 -101 17 -140 75 -27 39 -31 121 -9 174 30 72
113 106 210 87 32 -7 59 -11 61 -9 1 2 6 17 9 34 9 39 -2 44 -99 50 -52 4 -83
0 -123 -14z"/>
<path d="M1962 1467 l3 -240 40 0 40 0 3 106 3 107 99 0 100 0 0 -108 0 -108
43 2 42 2 3 239 2 240 -45 0 -45 0 0 -99 0 -98 -100 0 -100 0 0 98 0 99 -45 0
-45 0 2 -240z m69 30 c16 -21 15 -24 -5 -50 l-22 -28 -3 51 c-2 55 5 61 30 27z
m269 -22 c0 -50 -10 -57 -33 -21 -14 21 -14 26 -1 45 23 33 34 25 34 -24z"/>
<path d="M2394 1701 c-2 -2 -4 -19 -4 -38 l0 -33 70 0 70 0 0 -202 0 -203 42
1 43 1 0 202 0 201 73 0 73 0 -3 36 -3 36 -178 1 c-98 1 -181 0 -183 -2z m206
-48 c0 -5 -7 -16 -14 -26 -13 -16 -15 -16 -30 8 -16 25 -16 25 14 25 16 0 30
-3 30 -7z"/>
</g>
</svg>
