<?xml version="1.0" encoding="UTF-8"?>
<svg version="1.1" xmlns="http://www.w3.org/2000/svg" width="320" height="320">
<path d="M0 0 C59.4 0 118.8 0 180 0 C180.0825 25.884375 180.165 51.76875 180.25 78.4375 C180.28641602 86.6042749 180.32283203 94.7710498 180.36035156 103.18530273 C180.37841797 113.1739502 180.37841797 113.1739502 180.3817749 117.85316467 C180.38549481 121.11454702 180.40045755 124.37566776 180.42230225 127.63697815 C180.44983808 131.80345525 180.45794647 135.96955459 180.4522891 140.13611424 C180.45347123 141.66117823 180.46134465 143.18625609 180.47686052 144.7112416 C180.55617363 152.88977488 180.31754114 159.82380932 176 167 C175.401875 168.010625 174.80375 169.02125 174.1875 170.0625 C156.85308998 193.34013632 126.37895629 207.16055784 99 215 C97.68 215 96.36 215 95 215 C95 165.5 95 116 95 65 C63.65 65 32.3 65 0 65 C0 43.55 0 22.1 0 0 Z " fill="#FA744E" transform="translate(100,20)"/>
<path d="M0 0 C41.25 0 82.5 0 125 0 C125 62.7 125 125.4 125 190 C118.4627699 188.69255398 112.79713509 185.98428275 106.75 183.25 C105.78876221 182.81699585 105.78876221 182.81699585 104.80810547 182.37524414 C74.93477572 168.88370437 46.01816216 153.6100622 22 131 C20.86111328 129.97519531 20.86111328 129.97519531 19.69921875 128.9296875 C9.17144527 119.07467329 0.4127856 105.96033501 -0.3495636 91.21611023 C-0.51338544 85.4198806 -0.45115685 79.62553677 -0.390625 73.828125 C-0.38473217 71.93408683 -0.38065867 70.04004211 -0.37841797 68.14599609 C-0.35758193 61.18056369 -0.30173705 54.21527142 -0.25 47.25 C-0.1675 31.6575 -0.085 16.065 0 0 Z " fill="#1DB9AF" transform="translate(45,110)"/>
<path d="M0 0 C24.75 0 49.5 0 75 0 C75 41.25 75 82.5 75 125 C48.57135263 116.19045088 17.52487553 101.56128097 3.12109375 76.38671875 C0.68373048 71.19776768 -0.2483785 66.81381762 -0.22705078 61.07666016 C-0.22729185 60.40190832 -0.22753292 59.72715649 -0.2277813 59.03195763 C-0.22629936 56.8675208 -0.21111886 54.70343696 -0.1953125 52.5390625 C-0.19236858 51.19490728 -0.19033029 49.85074977 -0.18920898 48.5065918 C-0.17876212 43.54602603 -0.15083956 38.58550947 -0.125 33.625 C-0.08375 22.52875 -0.0425 11.4325 0 0 Z " fill="#333741" transform="translate(95,110)"/>
</svg>
