<?xml version="1.0" encoding="utf-8"?>
<!-- Generator: Adobe Illustrator 15.1.0, SVG Export Plug-In . SVG Version: 6.00 Build 0)  -->
<!DOCTYPE svg PUBLIC "-//W3C//DTD SVG 1.1//EN" "http://www.w3.org/Graphics/SVG/1.1/DTD/svg11.dtd">
<svg version="1.1" xmlns="http://www.w3.org/2000/svg" xmlns:xlink="http://www.w3.org/1999/xlink" x="0px" y="0px" width="301px"
	 height="301px" viewBox="-18.009 12.04 301 301" enable-background="new -18.009 12.04 301 301" xml:space="preserve">
<g id="Layer_5">
	
		<line fill="none" stroke="#000000" stroke-width="0.72" stroke-linecap="round" stroke-linejoin="round" stroke-miterlimit="10" x1="282.773" y1="46.653" x2="282.773" y2="279.257"/>
	
		<line fill="none" stroke="#000000" stroke-width="0.72" stroke-linecap="round" stroke-linejoin="round" stroke-miterlimit="10" x1="-18.009" y1="279.257" x2="-18.009" y2="46.653"/>
	
		<path fill="#002B49" stroke="#000000" stroke-width="0.72" stroke-linecap="round" stroke-linejoin="round" stroke-miterlimit="10" d="
		M282.773,46.56c-0.004-19.065-17.992-34.52-40.182-34.52H22.172c-22.191,0-40.181,15.458-40.181,34.524v232.603
		c0,19.067,17.99,34.524,40.181,34.524h0.104h220.42h-0.104c22.19,0,40.182-15.457,40.182-34.524"/>
	
		<line fill="none" stroke="#000000" stroke-width="0.72" stroke-linecap="round" stroke-linejoin="round" stroke-miterlimit="10" x1="22.276" y1="12.219" x2="242.696" y2="12.219"/>
</g>
<g id="Layer_3">
	<g id="Layer_3_2_">
		
			<polyline fill="#F6F6F6" stroke="#002B49" stroke-width="3" stroke-linecap="round" stroke-linejoin="round" stroke-miterlimit="10" points="
			131.585,295 129.703,294.116 127.711,293.118 125.828,292.121 123.947,291.015 121.954,289.797 120.071,288.58 118.189,287.251 
			116.197,285.921 114.315,284.483 112.432,282.93 110.551,281.382 108.668,279.722 106.675,277.951 104.792,276.179 
			102.91,274.295 101.028,272.303 99.145,270.31 97.374,268.206 95.491,266.103 93.609,263.889 91.838,261.564 90.067,259.128 
			88.185,256.693 86.412,254.254 84.641,251.598 82.871,248.942 81.209,246.286 79.437,243.517 77.777,240.637 76.005,237.758 
			74.345,234.77 72.795,231.67 71.133,228.57 69.473,225.359 67.924,222.149 66.373,218.937 64.823,215.503 63.384,212.184 
			61.834,208.751 60.393,205.209 58.955,201.663 57.516,198.01 56.188,194.356 54.748,190.703 53.419,186.939 52.201,183.174 
			50.872,179.3 49.656,175.424 48.437,171.439 47.219,167.563 46.112,163.579 45.005,159.481 43.897,155.497 42.79,151.399 
			41.793,147.193 40.797,143.094 39.801,138.887 38.914,134.681 38.029,130.473 37.143,126.266 36.258,121.947 35.483,117.74 
			34.708,113.423 33.932,109.104 32.493,100.468 31.275,91.832 30.169,83.085 29.061,74.45 28.175,65.703 27.4,57.067 27.4,56.956 
			27.4,56.845 27.622,56.845 27.843,56.956 28.397,56.956 29.394,57.178 31.497,57.398 35.594,57.731 39.801,58.063 44.12,58.174 
			48.326,58.174 50.429,58.174 52.644,58.063 54.748,57.953 56.851,57.841 59.066,57.621 61.169,57.398 63.273,57.178 
			65.488,56.845 67.591,56.513 69.695,56.181 71.8,55.849 74.012,55.406 76.116,54.963 78.22,54.52 80.323,53.966 82.427,53.413 
			84.531,52.749 86.524,52.195 88.627,51.531 90.731,50.866 92.724,50.092 94.717,49.427 96.821,48.542 98.813,47.767 
			100.806,46.881 102.689,46.105 104.682,45.109 106.564,44.224 108.557,43.227 110.439,42.23 112.321,41.234 114.204,40.238 
			117.857,38.023 121.4,35.809 124.943,33.373 128.264,30.937 131.585,28.391 134.907,30.937 138.229,33.373 141.771,35.809 
			145.316,38.023 148.969,40.238 150.851,41.234 152.733,42.23 154.616,43.227 156.607,44.224 158.491,45.109 160.485,46.105 
			162.366,46.881 164.358,47.767 166.351,48.542 168.457,49.427 170.447,50.092 172.441,50.866 174.546,51.531 176.648,52.195 
			178.641,52.749 180.745,53.413 182.849,53.966 184.952,54.52 187.055,54.963 189.161,55.406 191.374,55.849 193.476,56.181 
			195.581,56.513 197.685,56.845 199.897,57.178 202.004,57.398 204.106,57.621 206.321,57.841 208.425,57.953 210.529,58.063 
			212.743,58.174 214.847,58.174 219.053,58.174 223.371,58.063 227.578,57.731 231.676,57.398 233.778,57.178 234.775,56.956 
			235.328,56.956 235.551,56.845 235.771,56.845 235.771,56.956 235.771,57.067 234.997,65.703 234.11,74.45 233.005,83.085 
			231.897,91.832 230.679,100.468 229.239,109.104 228.464,113.423 227.689,117.74 226.915,121.947 226.029,126.266 
			225.143,130.473 224.256,134.681 223.371,138.887 222.376,143.094 221.38,147.193 220.383,151.399 219.273,155.497 
			218.167,159.481 217.06,163.579 215.952,167.563 214.735,171.439 213.518,175.424 212.301,179.3 210.969,183.174 209.753,186.939 
			208.425,190.703 206.986,194.356 205.656,198.01 204.218,201.663 202.778,205.209 201.339,208.751 199.788,212.184 
			198.35,215.503 196.799,218.937 195.249,222.149 193.7,225.359 192.038,228.57 190.378,231.67 188.827,234.77 187.169,237.758 
			185.396,240.637 183.734,243.517 181.963,246.286 180.302,248.942 178.531,251.598 176.76,254.254 174.987,256.693 
			173.104,259.128 171.334,261.564 169.562,263.889 167.679,266.103 165.798,268.206 164.026,270.31 162.143,272.303 
			160.262,274.295 158.379,276.179 156.498,277.951 154.505,279.722 152.623,281.382 150.74,282.93 148.859,284.483 
			146.975,285.921 144.983,287.251 143.101,288.58 141.218,289.797 139.225,291.015 137.345,292.121 135.462,293.118 
			133.468,294.116 131.585,295 		"/>
	</g>
</g>
<g id="Layer_4">
	<polygon fill="#002B49" stroke="#002B49" stroke-width="3" stroke-miterlimit="10" points="184.177,73.629 184.177,103.664 
		148.654,103.664 148.654,259.394 115.441,259.394 115.441,103.664 78.996,103.664 78.996,73.629 	"/>
</g>
</svg>
