<svg width="64" height="64" viewBox="0 0 64 64" fill="none" xmlns="http://www.w3.org/2000/svg">
<path fill-rule="evenodd" clip-rule="evenodd" d="M45.3203 27.8726C42.7123 26.2206 39.6293 25.2496 36.3123 25.2496H11.0003V38.7496H29.5623C36.7663 38.7496 42.8993 34.2266 45.3203 27.8726Z" fill="#343741"/>
<path fill-rule="evenodd" clip-rule="evenodd" d="M49.2842 31.3354C45.7492 38.6734 38.2372 43.7504 29.5622 43.7504H11.0002V59.0004H36.3122C45.6332 59.0004 53.1872 51.4444 53.1872 42.1254C53.1872 38.0204 51.7202 34.2604 49.2842 31.3354Z" fill="#00BFB3"/>
<path fill-rule="evenodd" clip-rule="evenodd" d="M45.3203 27.8726C46.0313 26.0066 46.4373 23.9906 46.4373 21.8746C46.4373 12.5556 38.8833 4.9996 29.5623 4.9996H11.0003V25.2496H36.3123C39.6293 25.2496 42.7123 26.2206 45.3203 27.8726Z" fill="#0077CC"/>
</svg>
