<svg version="1.2" xmlns="http://www.w3.org/2000/svg" viewBox="0 0 256 249" width="30" height="29">
	<title>kubernetes-seeklogo-svg</title>
	<style>
		.s0 { fill: #326de6 } 
		.s1 { fill: #ffffff } 
		.s2 { fill: #f5a800 } 
		.s3 { fill: #425cc7 } 
	</style>
	<g>
		<path class="s0" d="m67.7 201.8c-4.9 0-9.5-2.2-12.6-6.1l-47.7-59.2c-3.1-3.9-4.3-9-3.1-13.9l17-73.9c1.1-4.9 4.4-8.8 8.9-11l68.8-32.9c2.2-1.1 4.6-1.6 7.1-1.6 2.4 0 4.9 0.5 7.1 1.6l68.8 32.8c4.5 2.2 7.8 6.1 8.9 11l17 73.9c1.1 4.9 0 9.9-3.2 13.9l-47.6 59.2c-3.1 3.8-7.7 6.1-12.6 6.1z"/>
		<path fill-rule="evenodd" class="s1" d="m114.3 2.1l68.5 32.9c5.5 2.6 9.3 7.3 10.6 13.2l17.1 73.9c1.3 5.8 0 12-3.9 16.6l-47.6 59.2c-3.7 4.6-9.2 7.2-15.1 7.2h-76.3c-5.9 0-11.4-2.6-15.1-7.2l-47.6-59.2c-3.9-4.8-5.2-10.8-3.9-16.6l17.1-73.9c1.3-5.9 5.1-10.6 10.6-13.2l68.8-32.9c2.7-1.3 5.6-1.9 8.5-1.9 2.8 0 5.7 0.6 8.3 1.9zm-14.1 5.5l-68.8 33c-3.5 1.6-6.1 4.9-7.1 8.8l-17 73.9c-0.8 4 0.1 8 2.6 11.2l47.6 59.2c2.5 3.1 6.3 4.9 10.2 4.9h76.4c3.9 0 7.7-1.8 10.2-4.9l47.6-59.2c2.6-3.2 3.5-7.2 2.6-11.2l-17-73.9c-0.9-3.8-3.6-7.1-7.1-8.8l-68.9-32.8c-1.7-0.8-3.6-1.2-5.5-1.2-1.9 0-4 0.4-5.8 1z"/>
		<path fill-rule="evenodd" class="s1" d="m174.9 117.5c2.5 0.6 4 2.8 4 4.4-0.6 1.8-2.3 3.2-4.4 3.2-0.4 0-0.6 0-1.1-0.2-0.1-0.1-0.2-0.1-0.4-0.1-0.2 0-0.5-0.1-0.8-0.1-0.9-0.3-1.6-0.6-2.4-1-0.4-0.1-0.8-0.4-1.3-0.5h-0.1c-2.6-1-4.9-1.8-7.1-2.1h-0.2c-0.9 0-1.3 0.4-1.8 0.7-0.1 0-0.1 0.1-0.3 0.1l-1.6-0.2c-1.4 4.2-3.3 8.4-5.7 12.2-4.7 7.4-10.8 13.4-18 17.6l0.7 1.6c0 0.1-0.1 0.1-0.1 0.3-0.2 0.7-0.5 1.2-0.2 2.2 0.7 2 2.1 4 3.6 6.4v0.1c0.2 0.4 0.5 0.7 0.8 1.1 0.5 0.7 1.1 1.3 1.5 2.2 0.1 0.1 0.2 0.4 0.4 0.6 0 0.2 0.1 0.2 0.1 0.3 0.6 1.1 0.6 2.3 0.3 3.4-0.3 1.1-1.1 1.9-2.1 2.5q-0.8 0.4-1.6 0.4c-1.6 0-3.3-1-4.1-2.6 0 0-0.1-0.2-0.1-0.3-0.1-0.3-0.3-0.4-0.4-0.7-0.4-0.8-0.6-1.6-0.8-2.4q-0.2-0.6-0.4-1.2v-0.2c-1-2.6-1.8-4.9-2.9-6.8-0.5-0.8-1.1-1.1-1.8-1.2-0.1-0.1-0.1-0.1-0.2-0.1l-0.9-1.5c-2.3 0.8-4.6 1.5-7 2-3.8 0.9-7.9 1.4-11.9 1.4-6.5 0-13-1.3-19-3.6l-1 1.8c-0.1 0.1-0.1 0.1-0.2 0.1-0.6 0.3-1.3 0.4-1.8 1.2-1.2 2-1.9 4.1-2.9 6.9q-0.2 0.6-0.4 1.2c-0.2 0.8-0.4 1.5-0.8 2.4-0.1 0.2-0.3 0.4-0.4 0.7 0 0-0.1 0.1-0.1 0.3-0.9 1.5-2.5 2.6-4.1 2.6q-0.8 0-1.6-0.4c-2.1-1-2.9-3.6-1.8-5.9 0 0 0.1-0.1 0.1-0.3 0.2-0.2 0.3-0.5 0.4-0.6 0.6-0.9 1-1.5 1.5-2.2 0.3-0.4 0.6-0.7 0.8-1.1v-0.1c1.5-2.4 2.8-4.4 3.6-6.4 0.2-1 0-1.7-0.3-2.2 0-0.2-0.1-0.2-0.1-0.3l0.8-1.8c-2.1-1.2-4-2.4-5.9-3.9-8.3-6.5-14.5-15.5-17.8-25.6l-1.9 0.3c-0.1 0-0.1-0.2-0.3-0.2-0.4-0.2-0.9-0.6-1.7-0.6h-0.3c-2.2 0.2-4.5 1.1-7.1 2h-0.1c-0.4 0.1-0.8 0.4-1.2 0.6-0.9 0.4-1.5 0.6-2.5 0.9-0.3 0-0.5 0.1-0.8 0.1 0 0.2-0.1 0.2-0.3 0.2-0.4 0.1-0.7 0.1-1.1 0.1-2.1 0-3.9-1.2-4.3-3.1-0.4-2.2 1.1-4.5 3.5-5.1 0.1-0.1 0.3-0.1 0.4-0.1 0.3 0 0.6-0.1 0.8-0.1 1-0.2 1.8-0.3 2.6-0.3 0.4-0.1 1-0.1 1.4-0.1h0.1c2.9-0.3 5.3-0.6 7.4-1.3 0.8-0.4 1.2-0.9 1.5-1.5 0-0.1 0.1-0.1 0.1-0.2l1.8-0.6c-1.8-12.5 0.8-25.1 7.6-35.9 0.1-0.4 0.4-0.7 0.7-1.1l-1.4-1.2v-0.3c0-0.7 0-1.3-0.7-2-1.6-1.5-3.6-2.7-6.1-4.2-0.4-0.3-0.8-0.6-1.2-0.7-0.8-0.4-1.5-0.8-2.3-1.4-0.3-0.1-0.4-0.4-0.7-0.5-0.1 0-0.1-0.2-0.3-0.2-1.9-1.6-2.3-4.3-0.9-6.1 0.6-0.9 1.9-1.5 3.1-1.5 1.1 0 2.2 0.4 3 1.1 0 0.1 0.1 0.1 0.3 0.3 0.2 0.3 0.5 0.4 0.6 0.5 0.7 0.7 1.3 1.3 1.8 1.9 0.4 0.3 0.7 0.7 1 1 1.9 2 3.6 3.8 5.4 5q0.6 0.4 1.2 0.4c0.3 0 0.6-0.1 0.8-0.1h0.3l1.4 0.9c7.2-7.6 16.4-12.9 26.9-15.2 2.5-0.5 4.9-0.8 7.4-1.1l0.1-1.8c0.1-0.1 0.1-0.1 0.3-0.2 0.4-0.4 0.9-0.8 1.1-1.8 0.2-2.2-0.2-4.6-0.4-7.3v-0.2c-0.2-0.5-0.2-0.9-0.3-1.3-0.3-0.9-0.4-1.7-0.4-2.6v-1.1c0-1.2 0.4-2.3 1.2-3.1 0.8-0.9 1.9-1.4 3-1.4 2.3 0 4.2 2 4.2 4.5v1.2c-0.1 1-0.3 1.8-0.4 2.6-0.1 0.4-0.3 0.9-0.3 1.4v0.1c-0.2 2.7-0.5 5.2-0.4 7.3 0.2 1 0.7 1.4 1.1 1.8 0.1 0.1 0.1 0.1 0.3 0.3l0.1 1.8c10.4 0.9 20.3 4.9 28.5 11.2 1.9 1.7 3.8 3.3 5.5 5.2l1.7-1.1h0.2c0.3 0.2 0.6 0.2 0.9 0.2q0.6 0 1.2-0.4c1.7-1.3 3.5-2.9 5.4-4.9 0.4-0.3 0.7-0.7 1-1 0.5-0.7 1.1-1.2 1.7-1.9 0.3-0.1 0.5-0.4 0.7-0.5 0.2-0.2 0.2-0.2 0.3-0.3 0.9-0.7 1.9-1.1 3-1.1 1.2 0 2.4 0.5 3.1 1.5 1.4 1.8 1 4.5-0.9 6.1 0 0.2-0.2 0.2-0.3 0.3-0.3 0.3-0.5 0.4-0.7 0.5-0.8 0.6-1.5 1-2.3 1.4-0.4 0.3-0.8 0.4-1.2 0.7-2.5 1.5-4.5 2.7-6.1 4.2-0.6 0.7-0.7 1.4-0.7 2v0.3l-1.4 1.2c3.6 5.5 6.1 11.5 7.6 17.9 1.5 6.3 1.8 12.9 1 19.1l1.8 0.6c0 0.1 0.1 0.1 0.1 0.3 0.3 0.5 0.5 1 1.5 1.5 2.2 0.6 4.5 0.9 7.3 1.2h0.2c0.5 0.1 0.9 0.1 1.3 0.1 0.8 0 1.7 0.1 2.6 0.3 0.3 0 0.6 0.1 0.8 0.1 0 0.2 0.2 0.2 0.3 0.2zm-61.6-13.1l-4.1-5.2h-6.7l-4.1 5.2 1.5 6.4 6 2.8 6-2.8zm29-20.7l-16.5 14.8c-0.4 0.4-0.7 1-0.8 1.5-0.4 1.9 0.7 3.8 2.6 4.4l20.8 6c0.4-4.5 0.1-9.1-0.9-13.8-1.1-4.7-2.9-9.1-5.2-12.9zm-31-20l1.2 22.2c0.1 0.5 0.3 1.1 0.7 1.5 1.2 1.5 3.2 1.7 4.7 0.8l17.9-12.7c-6.6-6.5-15.1-10.7-24.5-11.8zm-35.3 11.8l18.1 13c0.4 0.2 1.1 0.4 1.7 0.4 2 0 3.5-1.7 3.6-3.6l1.3-21.7c-1.5 0.2-2.9 0.5-4.4 0.8-7.8 1.8-14.7 5.6-20.3 11.1zm-12.6 34.9l21.1-6.1c0.6-0.2 1.2-0.6 1.6-1.1 1.2-1.5 1.1-3.8-0.4-5.1l-16.2-14.4c-4.9 8-6.9 17.4-6.1 26.7zm19.4 31.5l8.3-20c0.3-0.6 0.3-1.3 0.2-2.1-0.4-1.8-2.1-3-3.8-2.9l-21.7 3.7c3.3 9 9.4 16.4 17 21.3zm36.6 4.7l-10.4-18.9c-0.5-0.6-1-1.1-1.7-1.5-1.5-0.9-3.2-0.3-4.3 0.9l-10.8 19.5c4.4 1.3 9 2.1 13.8 2.1 3.2 0 6.4-0.4 9.5-1 1.3-0.4 2.7-0.7 3.9-1.1zm26.6-26.2l-21.8-3.6c-0.7 0-1.4 0.1-1.9 0.4-1.6 0.8-2.3 2.6-1.9 4.2l8.6 20.5c5.1-3.4 9.6-7.7 13-13.2 1.8-2.5 3.1-5.3 4-8.3z"/>
	</g>
	<path fill-rule="evenodd" class="s2" d="m220.5 198.2c4.8 4.8 4.8 12.5 0 17.3-4.7 4.8-12.5 4.8-17.2 0-4.8-4.8-4.8-12.5 0-17.3 4.7-4.8 12.5-4.8 17.2 0zm-4.3 4.4c-2.4-2.4-6.2-2.4-8.6 0-2.3 2.3-2.3 6.2 0 8.5 2.4 2.4 6.2 2.4 8.6 0 2.3-2.3 2.3-6.2 0-8.5zm9.5-64.5l29.2 29.2c1.5 1.5 1.5 3.9 0 5.4l-7.5 7.5c-1.5 1.4-3.9 1.4-5.3 0l-29.3-29.3c-1.4-1.4-1.4-3.9 0-5.3l7.5-7.5c1.5-1.5 3.9-1.5 5.4 0zm-65.7 103.5l2.2 2.2c1.2 1.2 1.1 3.1 0 4.3-1.2 1.2-3.2 1.2-4.4 0l-12.9-12.9c-1.2-1.2-1.2-3.2 0-4.4 1.2-1.2 3.1-1.2 4.3 0l2.2 2.2 7.8-7.9c1.4-1.3 3.5-1.3 4.9 0l3.8 3.8c1.3 1.4 1.3 3.5 0 4.9z"/>
	<path class="s3" d="m207.5 159.6l-16.7 16.6c-1.4 1.5-1.4 3.9 0 5.4l10.3 10.3c7.3-5.3 17.5-4.6 24 1.9l8.3-8.3c1.5-1.5 1.5-3.9 0-5.4l-20.5-20.5c-1.5-1.5-3.9-1.5-5.4 0zm-10.7 36.6l-6.1-6.1c-1.4-1.4-3.7-1.4-5.1 0l-21.4 21.4c-1.4 1.5-1.4 3.8 0 5.2l12.1 12.1c1.4 1.4 3.7 1.4 5.2 0l13.7-13.8c-2.9-6-2.4-13.2 1.6-18.8z"/>
</svg>
