<svg width="32" height="32" viewBox="0 0 32 32" fill="none" xmlns="http://www.w3.org/2000/svg">
  <path d="M9.01887 13.8784C9.01887 14.2675 9.06144 14.5831 9.13593 14.8144C9.22107 15.0458 9.32749 15.2982 9.47648 15.5717C9.52969 15.6558 9.55097 15.74 9.55097 15.8136C9.55097 15.9188 9.48712 16.024 9.34877 16.1291L8.67833 16.5709C8.58255 16.634 8.48677 16.6655 8.40164 16.6655C8.29522 16.6655 8.18879 16.6129 8.08237 16.5183C7.93339 16.3605 7.80568 16.1922 7.69926 16.024C7.59284 15.8452 7.48642 15.6453 7.36936 15.4034C6.53929 16.371 5.49637 16.8548 4.24061 16.8548C3.34669 16.8548 2.63367 16.6024 2.11221 16.0976C1.59076 15.5927 1.32471 14.9196 1.32471 14.0782C1.32471 13.1842 1.64397 12.4585 2.29313 11.9116C2.94229 11.3647 3.80429 11.0913 4.90042 11.0913C5.26225 11.0913 5.63472 11.1228 6.02847 11.1754C6.42222 11.228 6.82662 11.3121 7.2523 11.4068V10.639C7.2523 9.83969 7.08203 9.28227 6.75212 8.95623C6.41158 8.63019 5.83691 8.47242 5.01748 8.47242C4.64501 8.47242 4.2619 8.51449 3.86814 8.60915C3.47439 8.70381 3.09128 8.8195 2.71881 8.96674C2.54854 9.04037 2.42083 9.08244 2.34634 9.10347C2.27184 9.12451 2.21863 9.13502 2.17607 9.13502C2.02708 9.13502 1.95258 9.02985 1.95258 8.80898V8.29363C1.95258 8.12535 1.97387 7.99914 2.02708 7.92552C2.08029 7.85189 2.17607 7.77827 2.32505 7.70465C2.69752 7.51534 3.14449 7.35757 3.66595 7.23136C4.1874 7.09464 4.74079 7.03153 5.3261 7.03153C6.59249 7.03153 7.51835 7.3155 8.1143 7.88345C8.69961 8.45139 8.99759 9.31382 8.99759 10.4707V13.8784H9.01887ZM4.69822 15.477C5.04941 15.477 5.41123 15.4139 5.79435 15.2877C6.17746 15.1615 6.518 14.9301 6.80534 14.6146C6.97561 14.4148 7.10331 14.1939 7.16716 13.9415C7.23101 13.6891 7.27358 13.3841 7.27358 13.0265V12.5847C6.96496 12.5111 6.63506 12.448 6.29452 12.4059C5.95398 12.3639 5.62407 12.3428 5.29417 12.3428C4.58116 12.3428 4.0597 12.4796 3.70851 12.7635C3.35733 13.0475 3.18706 13.4472 3.18706 13.973C3.18706 14.4674 3.31476 14.8355 3.58081 15.0879C3.83622 15.3508 4.20869 15.477 4.69822 15.477ZM13.2437 16.6129C13.0522 16.6129 12.9245 16.5814 12.8393 16.5078C12.7542 16.4446 12.6797 16.2974 12.6159 16.0976L10.115 7.96759C10.0511 7.75724 10.0192 7.62051 10.0192 7.54689C10.0192 7.37861 10.1044 7.28395 10.2746 7.28395H11.3175C11.5197 7.28395 11.6581 7.3155 11.7326 7.38913C11.8177 7.45223 11.8816 7.59948 11.9454 7.79931L13.7333 14.7619L15.3934 7.79931C15.4466 7.58896 15.5105 7.45223 15.5956 7.38913C15.6808 7.32602 15.8297 7.28395 16.0213 7.28395H16.8727C17.0749 7.28395 17.2132 7.3155 17.2983 7.38913C17.3835 7.45223 17.458 7.59948 17.5005 7.79931L19.182 14.846L21.023 7.79931C21.0869 7.58896 21.1614 7.45223 21.2359 7.38913C21.321 7.32602 21.4594 7.28395 21.6509 7.28395H22.6406C22.8109 7.28395 22.9067 7.36809 22.9067 7.54689C22.9067 7.59948 22.896 7.65206 22.8854 7.71517C22.8748 7.77827 22.8535 7.86241 22.8109 7.9781L20.2462 16.1081C20.1823 16.3184 20.1078 16.4552 20.0227 16.5183C19.9376 16.5814 19.7992 16.6234 19.6183 16.6234H18.7031C18.5009 16.6234 18.3625 16.5919 18.2774 16.5183C18.1923 16.4447 18.1178 16.3079 18.0752 16.0976L16.4257 9.31382L14.7868 16.0871C14.7336 16.2974 14.6698 16.4341 14.5846 16.5078C14.4995 16.5814 14.3505 16.6129 14.159 16.6129H13.2437ZM26.9187 16.8969C26.3653 16.8969 25.8119 16.8338 25.2798 16.7076C24.7477 16.5814 24.3327 16.4446 24.056 16.2869C23.8857 16.1922 23.7687 16.0871 23.7261 15.9924C23.6835 15.8977 23.6623 15.7926 23.6623 15.6979V15.1615C23.6623 14.9407 23.7474 14.8355 23.907 14.8355C23.9709 14.8355 24.0347 14.846 24.0986 14.867C24.1624 14.8881 24.2582 14.9301 24.3646 14.9722C24.7265 15.13 25.1202 15.2562 25.5352 15.3403C25.9609 15.4245 26.376 15.4665 26.8016 15.4665C27.4721 15.4665 27.9935 15.3508 28.3554 15.1195C28.7172 14.8881 28.9088 14.5515 28.9088 14.1203C28.9088 13.8258 28.813 13.5839 28.6214 13.3841C28.4299 13.1842 28.068 13.0054 27.5466 12.8372L26.0035 12.3639C25.2266 12.122 24.652 11.7644 24.3008 11.2911C23.9496 10.8283 23.7687 10.313 23.7687 9.76607C23.7687 9.32434 23.8645 8.93519 24.056 8.59863C24.2476 8.26207 24.503 7.96759 24.8222 7.7362C25.1415 7.4943 25.5033 7.3155 25.929 7.18929C26.3547 7.06309 26.8016 7.0105 27.2699 7.0105C27.504 7.0105 27.7488 7.02102 27.9829 7.05257C28.2277 7.08412 28.4512 7.12619 28.6746 7.16826C28.8875 7.22085 29.0897 7.27343 29.2812 7.33654C29.4728 7.39964 29.6218 7.46275 29.7282 7.52585C29.8772 7.60999 29.9836 7.69413 30.0475 7.78879C30.1113 7.87293 30.1432 7.98862 30.1432 8.13587V8.63019C30.1432 8.85105 30.0581 8.96674 29.8985 8.96674C29.8133 8.96674 29.675 8.92467 29.4941 8.84053C28.8875 8.56708 28.2064 8.43035 27.4508 8.43035C26.8442 8.43035 26.3653 8.52501 26.0354 8.72484C25.7055 8.92467 25.5352 9.22968 25.5352 9.6609C25.5352 9.95538 25.6417 10.2078 25.8545 10.4076C26.0673 10.6075 26.4611 10.8073 27.0251 10.9861L28.5363 11.4594C29.3025 11.7013 29.8559 12.0378 30.1858 12.4691C30.5157 12.9003 30.6753 13.3946 30.6753 13.9415C30.6753 14.3937 30.5796 14.8039 30.3986 15.1615C30.2071 15.5191 29.9517 15.8346 29.6218 16.0871C29.2919 16.35 28.8981 16.5393 28.4405 16.676C27.9616 16.8233 27.4614 16.8969 26.9187 16.8969Z" fill="#252F3E"/>
  <path fill-rule="evenodd" clip-rule="evenodd" d="M28.9298 22.009C25.4286 24.5648 20.3417 25.9215 15.9679 25.9215C9.83808 25.9215 4.31488 23.6813 0.143218 19.9581C-0.186684 19.6637 0.111292 19.264 0.505046 19.4954C5.01725 22.0827 10.583 23.6498 16.3403 23.6498C20.2247 23.6498 24.4921 22.8504 28.419 21.2097C29.0043 20.9468 29.5045 21.5883 28.9298 22.009Z" fill="#FF9900"/>
  <path fill-rule="evenodd" clip-rule="evenodd" d="M30.3879 20.3682C29.9409 19.8003 27.4294 20.0948 26.2907 20.2315C25.9502 20.2736 25.897 19.9791 26.2056 19.7582C28.2063 18.3699 31.4946 18.7696 31.8778 19.2323C32.2609 19.7056 31.7713 22.9555 29.8983 24.5121C29.611 24.754 29.3343 24.6278 29.462 24.3123C29.8877 23.271 30.8348 20.9256 30.3879 20.3682Z" fill="#FF9900"/>
</svg>
