<?xml version="1.0" encoding="UTF-8"?>
<svg version="1.1" xmlns="http://www.w3.org/2000/svg" width="300" height="300">
<path d="M0 0 C1.17949219 -0.0299707 1.17949219 -0.0299707 2.3828125 -0.06054688 C12.68353696 -0.05213125 20.86430314 4.89306038 29.4375 10.125 C31.37713111 11.28985056 33.31726152 12.45387001 35.2578125 13.6171875 C36.79937012 14.5448291 36.79937012 14.5448291 38.37207031 15.49121094 C43.55263769 18.59084191 48.76655091 21.6331483 53.97915649 24.67843628 C63.83849147 30.44108013 73.68516818 36.22552076 83.51553345 42.03744507 C85.18698138 43.02525653 86.85946202 44.01131994 88.53198242 44.99731445 C114.89848433 60.60676039 114.89848433 60.60676039 120.625 76.4375 C121.38879365 79.72548478 121.75280231 82.77551693 121.76544189 86.14750671 C121.77115204 87.06548538 121.77686218 87.98346405 121.78274536 88.92926025 C121.78442215 90.42160187 121.78442215 90.42160187 121.78613281 91.9440918 C121.79109772 93.00165176 121.79606262 94.05921173 121.80117798 95.14881897 C121.8157729 98.64479221 121.82259766 102.14072006 121.828125 105.63671875 C121.83387922 108.07184347 121.83963692 110.50696819 121.84539795 112.9420929 C121.85590074 118.04888113 121.86174795 123.15565366 121.86523438 128.26245117 C121.87071352 134.79125562 121.89473246 141.31985094 121.92320633 147.8485899 C121.94187437 152.88019915 121.94704056 157.91175848 121.94857025 162.94339943 C121.95158855 165.34943597 121.95958914 167.75547181 121.97275543 170.16147423 C121.98990057 173.53578753 121.98791466 176.90959579 121.98144531 180.28393555 C121.9906601 181.2687088 121.99987488 182.25348206 122.0093689 183.26809692 C121.93353211 195.9604727 117.4557381 206.30797753 108.625 215.4375 C106.40804966 217.05725406 104.2844347 218.48107962 101.9375 219.875 C101.25743896 220.28983643 100.57737793 220.70467285 99.87670898 221.13208008 C92.26638228 225.73450388 84.53345935 230.13417305 76.81762695 234.55639648 C69.19842398 238.92855358 61.64453609 243.39634605 54.125 247.9375 C45.84994074 252.92139497 37.56168084 257.88131003 29.21655273 262.74707031 C27.54563037 263.72333956 25.87919113 264.70726917 24.21289062 265.69140625 C16.0098521 270.45279139 9.28169722 272.79632716 -0.1875 272.8125 C-0.93064453 272.83699219 -1.67378906 272.86148437 -2.43945312 272.88671875 C-13.64405636 272.94462368 -22.59530461 266.7730389 -31.875 261.125 C-34.27925035 259.67765195 -36.68665032 258.23557163 -39.09375 256.79296875 C-39.70202637 256.42746918 -40.31030273 256.0619696 -40.93701172 255.68539429 C-47.03816204 252.02456215 -53.20213449 248.47584771 -59.375 244.9375 C-67.97815496 239.99029102 -76.56446457 235.01585207 -85.11328125 229.9753418 C-86.81352548 228.9737151 -88.51609585 227.97604022 -90.21875 226.97851562 C-104.1798882 218.72330829 -114.58306064 212.08265892 -120.375 196.4375 C-121.14103919 193.1499167 -121.50280244 190.09944852 -121.51544189 186.72749329 C-121.52115204 185.80951462 -121.52686218 184.89153595 -121.53274536 183.94573975 C-121.53386322 182.95084534 -121.53498108 181.95595093 -121.53613281 180.9309082 C-121.54109772 179.87334824 -121.54606262 178.81578827 -121.55117798 177.72618103 C-121.5657729 174.23020779 -121.57259766 170.73427994 -121.578125 167.23828125 C-121.58387922 164.80315653 -121.58963692 162.36803181 -121.59539795 159.9329071 C-121.60590074 154.82611887 -121.61174795 149.71934634 -121.61523438 144.61254883 C-121.62071352 138.08374438 -121.64473246 131.55514906 -121.67320633 125.0264101 C-121.69187437 119.99480085 -121.69704056 114.96324152 -121.69857025 109.93160057 C-121.70158855 107.52556403 -121.70958914 105.11952819 -121.72275543 102.71352577 C-121.73990057 99.33921247 -121.73791466 95.96540421 -121.73144531 92.59106445 C-121.7406601 91.6062912 -121.74987488 90.62151794 -121.7593689 89.60690308 C-121.70943955 81.25050955 -120.03151407 73.48172543 -115.6875 66.25 C-115.03201172 65.11498047 -115.03201172 65.11498047 -114.36328125 63.95703125 C-108.15968293 56.09588996 -99.76602308 51.45271085 -91.1875 46.5625 C-89.9018021 45.82059933 -88.61665677 45.07774036 -87.33203125 44.33398438 C-84.66959254 42.79350195 -82.00485279 41.25711918 -79.33837891 39.72363281 C-73.75958015 36.51109696 -68.21049474 33.2481747 -62.6605835 29.98608398 C-60.87514019 28.93758233 -59.08843274 27.89127016 -57.30126953 26.84570312 C-51.65782614 23.54336167 -46.0203759 20.2317075 -40.39950562 16.89105225 C-37.75832144 15.32199943 -35.11437768 13.75763014 -32.47021484 12.19360352 C-31.21606266 11.45000394 -29.96325166 10.70413684 -28.71191406 9.95581055 C-19.06601481 4.18844303 -11.41146257 -0.10188806 0 0 Z M-0.375 52.4375 C1.89498204 53.95082136 3.99321083 55.18013257 6.41796875 56.3828125 C7.13017578 56.73730469 7.84238281 57.09179688 8.57617188 57.45703125 C9.31416016 57.82183594 10.05214844 58.18664062 10.8125 58.5625 C11.56208984 58.93503906 12.31167969 59.30757812 13.08398438 59.69140625 C14.9300916 60.60858054 16.77742743 61.52328112 18.625 62.4375 C18.75 65.3125 18.75 65.3125 18.625 68.4375 C16.625 70.4375 16.625 70.4375 14.76953125 70.44140625 C8.31512542 69.21971805 2.80263826 66.8658871 -3.02026367 63.91430664 C-11.98320708 59.43937897 -22.65696848 59.27793744 -32.375 61.4375 C-31.446875 61.870625 -31.446875 61.870625 -30.5 62.3125 C-28.375 63.4375 -28.375 63.4375 -26.375 65.4375 C-26.10508094 68.12589385 -26.28762643 70.72891936 -26.375 73.4375 C-35.92388423 76.78171276 -45.36774824 77.11823674 -55.375 77.4375 C-55.48668808 80.46309518 -55.48668808 80.46309518 -54.6875 83.4375 C-54.375 86.4375 -54.375 86.4375 -55.5625 87.98828125 C-57.63159065 89.64266192 -59.62267966 90.59956826 -62.0625 91.625 C-62.87074219 91.96917969 -63.67898437 92.31335938 -64.51171875 92.66796875 C-65.12660156 92.92191406 -65.74148437 93.17585938 -66.375 93.4375 C-65.96894531 94.25992188 -65.56289062 95.08234375 -65.14453125 95.9296875 C-64.06677493 100.84250566 -65.74727409 103.27701297 -68.0625 107.5625 C-78.42190945 128.36543376 -77.58862182 150.55412279 -70.375 172.4375 C-69.10835911 175.79990865 -67.7702824 179.12654914 -66.375 182.4375 C-64.7987526 177.70875781 -66.62270122 173.5342075 -67.78125 168.78515625 C-68.31628188 165.76856201 -68.4433452 164.24190616 -67.375 161.4375 C-65.546875 161.52734375 -65.546875 161.52734375 -63.375 162.4375 C-61.953125 165.25390625 -61.953125 165.25390625 -60.625 169 C-58.44506345 174.86241613 -56.0308513 180.52110427 -53.25 186.125 C-52.92547852 186.79539307 -52.60095703 187.46578613 -52.26660156 188.15649414 C-50.40916804 191.85957543 -48.49389302 194.69980502 -45.375 197.4375 C-45.045 196.1175 -44.715 194.7975 -44.375 193.4375 C-42.0703125 193.62890625 -42.0703125 193.62890625 -39.375 194.4375 C-37.6796875 196.65234375 -37.6796875 196.65234375 -36.25 199.375 C-34.04651355 203.52105921 -34.04651355 203.52105921 -30.375 206.4375 C-30.045 204.7875 -29.715 203.1375 -29.375 201.4375 C-22.12938596 200.82346491 -22.12938596 200.82346491 -18.6875 203.625 C-17.924375 204.553125 -17.16125 205.48125 -16.375 206.4375 C-15.446875 207.365625 -14.51875 208.29375 -13.5625 209.25 C-12.840625 209.971875 -12.11875 210.69375 -11.375 211.4375 C-11.08625 210.633125 -10.7975 209.82875 -10.5 209 C-9.375 206.4375 -9.375 206.4375 -7.375 205.4375 C-4.625 205.0625 -4.625 205.0625 -1.375 205.4375 C0.67779996 207.03868397 2.68151499 208.70526336 4.625 210.4375 C6.84235439 211.29029338 6.84235439 211.29029338 8.625 211.4375 C8.625 209.4575 8.625 207.4775 8.625 205.4375 C18.03502278 201.80879841 18.03502278 201.80879841 22.625 203.4375 C22.90625 205.66796875 22.90625 205.66796875 22.625 208.4375 C20.65625 210.67578125 20.65625 210.67578125 18.125 212.75 C16.87203125 213.79607422 16.87203125 213.79607422 15.59375 214.86328125 C14.9440625 215.38277344 14.294375 215.90226563 13.625 216.4375 C14.285 216.7675 14.945 217.0975 15.625 217.4375 C27.75513988 209.8985498 27.75513988 209.8985498 35.9375 198.625 C38.20955711 193.88000268 40.8008342 190.99486353 44.625 187.4375 C44.625 186.7775 44.625 186.1175 44.625 185.4375 C45.615 185.4375 46.605 185.4375 47.625 185.4375 C48.66714691 180.82242226 48.66714691 180.82242226 47.625 176.4375 C42.46542914 177.46333261 37.32245314 178.54482211 32.1875 179.6875 C31.25873047 179.87957031 30.32996094 180.07164062 29.37304688 180.26953125 C23.35875857 181.6307723 20.17061554 183.33714213 15.625 187.4375 C3.59626474 191.5992668 -10.26980201 189.75326282 -21.8125 185.03125 C-34.8828665 178.49606675 -44.14976957 168.3669706 -49.43359375 154.69921875 C-54.09258041 140.00892111 -53.26261926 125.24390324 -46.75 111.1875 C-39.56563452 97.85018784 -28.61082597 89.15322815 -14.375 84.4375 C-0.73123121 80.82538821 13.92064488 82.21207801 26.41796875 88.94140625 C36.94037626 95.80246168 42.02280645 104.22493255 44.625 116.4375 C44.78384817 118.289074 44.9123866 120.14369105 45 122 C45.08206207 124.36979948 45.08206207 124.36979948 45.625 126.4375 C48.45568782 128.88069227 48.45568782 128.88069227 51.625 130.4375 C54.44582703 134.7772339 54.27109741 139.44206392 53.625 144.4375 C51.5541876 148.5791248 49.87260719 150.70267142 45.625 152.4375 C43.4765625 152.80859375 43.4765625 152.80859375 41.25 152.875 C40.52039063 152.91496094 39.79078125 152.95492187 39.0390625 152.99609375 C35.40502456 152.15520795 32.93691082 150.2805373 30.625 147.4375 C29.70307112 144.62695954 29.17042337 142.43697018 28.8125 139.5625 C28.70341309 138.81726074 28.59432617 138.07202148 28.48193359 137.30419922 C28.16269269 135.01816305 27.88824816 132.7305955 27.625 130.4375 C27.53847168 129.75171875 27.45194336 129.0659375 27.36279297 128.359375 C26.3133617 119.74343828 26.61649143 112.61316452 29.625 104.4375 C25.04267771 101.77498858 21.78014459 101.073458 16.5 101.1875 C15.30117187 101.20296875 14.10234375 101.2184375 12.8671875 101.234375 C9.75491318 101.33052861 9.75491318 101.33052861 7.3203125 102.015625 C5.625 102.4375 5.625 102.4375 3.625 101.4375 C5.5 96.6875 5.5 96.6875 6.625 94.4375 C0.92759985 94.02481106 -3.90983619 93.81654113 -8.80078125 97.04296875 C-11.2205785 99.18656086 -12.94432904 101.71644743 -14.7734375 104.3671875 C-16.47575445 106.56774356 -18.2743736 108.13315664 -20.4375 109.875 C-27.18199418 115.5511869 -29.96634401 123.1540733 -32.375 131.4375 C-34.025 131.4375 -35.675 131.4375 -37.375 131.4375 C-37.705 129.7875 -38.035 128.1375 -38.375 126.4375 C-38.705 126.4375 -39.035 126.4375 -39.375 126.4375 C-40.21218808 138.36743014 -36.8513516 150.99368745 -29.375 160.4375 C-24.72923159 165.32970406 -20.38617054 168.96880344 -13.5 169.7734375 C-7.43647398 169.84923158 -2.44752558 169.34499691 3.3125 167.375 C11.54699486 164.5906744 17.45296193 165.83739404 25.6875 168 C35.21515636 170.47013313 44.00842542 170.22533719 52.75390625 165.21875 C64.84639379 156.6995807 72.27382272 144.40754722 75.15234375 129.98046875 C76.77132031 117.8448345 77.13921846 102.58380364 69.98828125 92.01953125 C69.31345703 91.23642578 69.31345703 91.23642578 68.625 90.4375 C68.76808594 91.74074219 68.76808594 91.74074219 68.9140625 93.0703125 C69.02492187 94.22273438 69.13578125 95.37515625 69.25 96.5625 C69.36601562 97.69945312 69.48203125 98.83640625 69.6015625 100.0078125 C69.62612837 103.60261799 68.94667811 106.118171 67.625 109.4375 C66.635 109.1075 65.645 108.7775 64.625 108.4375 C64.52703125 107.19355469 64.4290625 105.94960937 64.328125 104.66796875 C63.18300655 91.42454077 61.27547071 80.06522115 52.625 69.4375 C51.965 69.1075 51.305 68.7775 50.625 68.4375 C50.82996094 69.00597656 51.03492188 69.57445313 51.24609375 70.16015625 C52.91592669 74.9459454 54.08876936 79.39693201 54.625 84.4375 C51.15939683 83.02613496 49.8166797 81.57468436 47.9375 78.375 C38.3517274 63.60580962 24.41939575 57.20055505 7.83203125 53.03125 C4.99529947 52.50605727 2.49744104 52.30767216 -0.375 52.4375 Z M48.625 65.4375 C48.955 66.4275 49.285 67.4175 49.625 68.4375 C49.625 67.4475 49.625 66.4575 49.625 65.4375 C49.295 65.4375 48.965 65.4375 48.625 65.4375 Z M-65.375 182.4375 C-64.375 184.4375 -64.375 184.4375 -64.375 184.4375 Z " fill="#01438F" transform="translate(149.375,13.5625)"/>
<path d="M0 0 C5.00248162 2.45404759 6.98523459 4.87045359 9 10 C9.44670249 13.25893879 9.47580994 16.46423299 9.4375 19.75 C9.42722778 21.08526733 9.42722778 21.08526733 9.41674805 22.44750977 C9.21631396 30.64428797 7.62414276 36.42825013 2.75 43.0625 C-0.76807417 45.54114317 -3.76579375 46.37567819 -8 46 C-13.92638932 44.39887418 -17.37140951 40.9100559 -20.96875 36.09765625 C-22.20575893 33.58146762 -22.19262543 31.76899051 -22 29 C-20.68 28.67 -19.36 28.34 -18 28 C-18.13019531 27.10539062 -18.26039063 26.21078125 -18.39453125 25.2890625 C-19.35420901 16.87618643 -19.22914528 10.90031542 -14 4 C-9.69861315 -0.01462773 -5.69937687 -1.11484817 0 0 Z " fill="#02438F" transform="translate(154,127)"/>
<path d="M0 0 C6.68199612 0.29697761 14.19471127 3.19471127 19 8 C19.46601942 13.3592233 19.46601942 13.3592233 17.75 15.71875 C16 17 16 17 14.046875 17.1015625 C7.6703181 15.77853539 2.13457902 13.40580678 -3.64550781 10.47705078 C-10.89999359 6.85366051 -17.44765441 6.86399394 -25.375 6.9375 C-26.76525391 6.94426758 -26.76525391 6.94426758 -28.18359375 6.95117188 C-30.45579709 6.96288426 -32.72786388 6.97928628 -35 7 C-35 6.67 -35 6.34 -35 6 C-29.79491625 5.1439007 -24.77158038 4.81721519 -19.5 4.8125 C-18.77941406 4.80025391 -18.05882812 4.78800781 -17.31640625 4.77539062 C-12.50525817 4.76234049 -8.56717879 5.47961022 -4 7 C-4 6.34 -4 5.68 -4 5 C-2.68 4.67 -1.36 4.34 0 4 C0 3.01 0 2.02 0 1 C0 0.67 0 0.34 0 0 Z " fill="#04428B" transform="translate(150,68)"/>
<path d="M0 0 C1.9453125 0.203125 1.9453125 0.203125 4 1 C5.0546875 2.609375 5.0546875 2.609375 5.875 4.75 C7.50611724 8.79542965 9.262944 12.74192989 11.125 16.6875 C13.03307185 20.7359737 14.65550355 24.72962317 16 29 C14.5 27.625 14.5 27.625 13 26 C13 25.34 13 24.68 13 24 C12.34 24 11.68 24 11 24 C11 23.34 11 22.68 11 22 C9.35 22 7.7 22 6 22 C5.67 22.66 5.34 23.32 5 24 C4.01979625 25.0194119 3.02196992 26.02246356 2 27 C1.896875 25.96875 1.79375 24.9375 1.6875 23.875 C1.04837075 18.55210263 -0.23662972 13.38186777 -1.4765625 8.171875 C-1.95809733 5.25391765 -2.07003814 3.70732542 -1 1 C-0.67 0.67 -0.34 0.34 0 0 Z " fill="#0B4481" transform="translate(82,174)"/>
<path d="M0 0 C1 1 1 1 1.5 3.125 C0.70739136 7.68249966 -2.63455245 10.02089209 -6 13 C-5.01 13 -4.02 13 -3 13 C-5.52956528 16.0916909 -8.22454612 16.90931332 -12 18 C-12.33 17.34 -12.66 16.68 -13 16 C-12.34 16 -11.68 16 -11 16 C-10.67 14.35 -10.34 12.7 -10 11 C-11.03125 10.9175 -12.0625 10.835 -13.125 10.75 C-17.33397057 9.93536054 -19.68168257 8.67084086 -23 6 C-23 5.34 -23 4.68 -23 4 C-25.31 3.67 -27.62 3.34 -30 3 C-30 2.67 -30 2.34 -30 2 C-27.0787102 1.65222741 -24.87415366 1.40255685 -22.37109375 3.11328125 C-21.85675781 3.57089844 -21.34242188 4.02851563 -20.8125 4.5 C-18.25346172 7.33218192 -18.25346172 7.33218192 -15 7 C-14.92265625 6.38769531 -14.8453125 5.77539062 -14.765625 5.14453125 C-14 3 -14 3 -12.109375 1.69921875 C-4.18339529 -1.69950434 -4.18339529 -1.69950434 0 0 Z " fill="#0D4383" transform="translate(172,216)"/>
<path d="M0 0 C7.03200039 2.74687515 11.35656107 11.22736422 14.5 17.75 C16.11052923 21.67036721 16.35772271 24.79675821 16 29 C13.07982947 28.6669981 12.14964967 28.17721672 10.21875 25.890625 C9.6515625 25.01921875 9.084375 24.1478125 8.5 23.25 C6.1327197 19.69653409 3.7371445 16.2845734 1 13 C2.32 13.66 3.64 14.32 5 15 C5.33 13.02 5.66 11.04 6 9 C5.195625 8.5875 4.39125 8.175 3.5625 7.75 C1 6 1 6 0.1875 3.9375 C0 2 0 2 0 0 Z M1 8 C3 9 3 9 3 9 Z " fill="#0C4789" transform="translate(188,69)"/>
<path d="M0 0 C0.33 0 0.66 0 1 0 C1 2.64 1 5.28 1 8 C2.32 8 3.64 8 5 8 C5.33 9.65 5.66 11.3 6 13 C5.34 13 4.68 13 4 13 C3.87625 14.258125 3.7525 15.51625 3.625 16.8125 C3.30131941 20.10325263 2.93395001 21.09907498 1 24 C1.31506627 27.14221967 1.31506627 27.14221967 2 30 C-1.40843742 27.11593757 -2.86591384 25.6291735 -3.8125 21.1875 C-3.874375 20.135625 -3.93625 19.08375 -4 18 C-2.68 17.67 -1.36 17.34 0 17 C-0.08378906 16.02417969 -0.16757813 15.04835937 -0.25390625 14.04296875 C-0.35574219 12.77066406 -0.45757812 11.49835938 -0.5625 10.1875 C-0.66691406 8.92292969 -0.77132812 7.65835938 -0.87890625 6.35546875 C-1 3 -1 3 0 0 Z " fill="#0D4484" transform="translate(136,138)"/>
<path d="M0 0 C2.86724686 0.57344937 3.8614515 0.8614515 6 3 C6.56311769 8.2933063 6.56311769 8.2933063 4.73413086 10.58862305 C-1.01191506 15.26522328 -8.97341058 15.49501115 -16.0625 15.6875 C-16.92810547 15.72166016 -17.79371094 15.75582031 -18.68554688 15.79101562 C-20.78994387 15.87240114 -22.8949457 15.93789769 -25 16 C-24.67 15.01 -24.34 14.02 -24 13 C-23.01604248 12.96241577 -23.01604248 12.96241577 -22.01220703 12.92407227 C-19.04959817 12.8082674 -16.08731969 12.68547114 -13.125 12.5625 C-12.09246094 12.52318359 -11.05992188 12.48386719 -9.99609375 12.44335938 C-9.00996094 12.40146484 -8.02382812 12.35957031 -7.0078125 12.31640625 C-6.09660645 12.27974854 -5.18540039 12.24309082 -4.24658203 12.20532227 C-1.96516519 12.13422935 -1.96516519 12.13422935 0 11 C0 8.36 0 5.72 0 3 C0.66 3 1.32 3 2 3 C2 2.34 2 1.68 2 1 C1.34 0.67 0.68 0.34 0 0 Z " fill="#0F437F" transform="translate(118,76)"/>
<path d="M0 0 C7.14147979 3.17057077 11.17637386 9.95450979 14 17 C16.12613068 22.97974254 16.23235756 28.70052842 16 35 C17.485 35.495 17.485 35.495 19 36 C17.515 36.495 17.515 36.495 16 37 C14.13901587 35.13901587 14.43023363 32.00612879 14.125 29.5 C13.11222879 19.38435353 13.11222879 19.38435353 7.875 11.1875 C6.946875 10.5996875 6.946875 10.5996875 6 10 C5.855625 9.401875 5.71125 8.80375 5.5625 8.1875 C4.67212003 4.72491123 2.35308571 2.65476337 0 0 Z M-11 9 C-9.741875 8.979375 -8.48375 8.95875 -7.1875 8.9375 C-6.47980469 8.92589844 -5.77210938 8.91429688 -5.04296875 8.90234375 C-3 9 -3 9 0 10 C2.14255793 9.61067144 2.14255793 9.61067144 4 9 C4.66 9.99 5.32 10.98 6 12 C5.01 12.33 4.02 12.66 3 13 C2.34 12.67 1.68 12.34 1 12 C0.67 12.99 0.34 13.98 0 15 C-0.495 14.319375 -0.495 14.319375 -1 13.625 C-4.0377843 11.15680026 -7.19187061 10.81156856 -11 10 C-11 9.67 -11 9.34 -11 9 Z " fill="#12427A" transform="translate(179,105)"/>
<path d="M0 0 C5.01064045 -0.16163356 9.36190208 -0.01995987 14.25 1.125 C18.13163848 1.99564788 20.45300082 2.12819951 24 0 C24.33 0.99 24.66 1.98 25 3 C27.00016466 4.20882096 27.00016466 4.20882096 29 5 C28.67 5.66 28.34 6.32 28 7 C30.64 7.33 33.28 7.66 36 8 C36 9.32 36 10.64 36 12 C37.32 12 38.64 12 40 12 C40.495 14.475 40.495 14.475 41 17 C40.34515625 16.55269531 39.6903125 16.10539062 39.015625 15.64453125 C27.45645748 7.9873991 14.16382042 1.60307878 0 2 C0 1.34 0 0.68 0 0 Z " fill="#104582" transform="translate(148,65)"/>
<path d="M0 0 C2.39763185 2.39763185 2.34280586 3.33273498 2.625 6.625 C2.69976562 7.44226563 2.77453125 8.25953125 2.8515625 9.1015625 C2.90054688 9.72804688 2.94953125 10.35453125 3 11 C3.99 11 4.98 11 6 11 C6.66 9.68 7.32 8.36 8 7 C8.85330338 12.83475015 9.48351814 17.44860651 7 23 C5.68 23 4.36 23 3 23 C1.35707454 21.35707454 1.65892282 19.35409962 1.46484375 17.08984375 C1.37783203 16.10048828 1.29082031 15.11113281 1.20117188 14.09179688 C1.11416016 13.05087891 1.02714844 12.00996094 0.9375 10.9375 C0.84662109 9.89271484 0.75574219 8.84792969 0.66210938 7.77148438 C0.43739092 5.1813085 0.2168769 2.59084233 0 0 Z " fill="#074385" transform="translate(211,100)"/>
<path d="M0 0 C0.99 0.495 0.99 0.495 2 1 C2.625 3.5625 2.625 3.5625 3 6 C3.66 6 4.32 6 5 6 C5.50233973 8.45787656 6.00196857 10.91625024 6.5 13.375 C6.64308594 14.07367188 6.78617188 14.77234375 6.93359375 15.4921875 C8 20.7734375 8 20.7734375 8 23 C8.66 23 9.32 23 10 23 C8.83804392 45.93334365 8.83804392 45.93334365 5.4296875 49.765625 C4.95789063 50.17296875 4.48609375 50.5803125 4 51 C4.144375 50.33097656 4.28875 49.66195312 4.4375 48.97265625 C7.25866643 34.37703827 7.78575812 18.39195823 0.8671875 4.76953125 C0 3 0 3 0 0 Z " fill="#0F447D" transform="translate(218,101)"/>
<path d="M0 0 C0.680625 0.721875 1.36125 1.44375 2.0625 2.1875 C7.68075932 7.80575932 12.71785309 11.12285969 20.8125 11.3125 C28.38482081 11.28691784 34.8468911 9.40224347 42 7 C41.67 7.99 41.34 8.98 41 10 C39.02 10 37.04 10 35 10 C35 10.66 35 11.32 35 12 C25.97667511 14.47346884 14.834345 14.65904765 6.5 10.1875 C3.40953212 8.25595757 2.05174643 7.07761964 0 4 C-0.66 3.34 -1.32 2.68 -2 2 C-1.34 2 -0.68 2 0 2 C0 1.34 0 0.68 0 0 Z " fill="#14437A" transform="translate(118,171)"/>
<path d="M0 0 C0.33 0 0.66 0 1 0 C1.00410889 0.58676514 1.00821777 1.17353027 1.01245117 1.77807617 C1.18211819 15.75999557 2.76367103 28.505583 6.46484375 41.98925781 C7.08212559 44.30857042 7.57579622 46.63795624 8 49 C5.33855244 47.24782505 3.01105741 45.48736048 1 43 C1.1875 39.125 1.1875 39.125 1.73046875 37.3203125 C2.17190442 34.79374805 2.17190442 34.79374805 1.05859375 31.6171875 C-0.61394971 25.51265201 -0.21119455 19.27894143 -0.125 13 C-0.11146484 11.12248047 -0.11146484 11.12248047 -0.09765625 9.20703125 C-0.07422716 6.1378199 -0.04142147 3.06901244 0 0 Z " fill="#0F4074" transform="translate(73,142)"/>
<path d="M0 0 C0.99 0.33 1.98 0.66 3 1 C2.54109375 1.46148437 2.0821875 1.92296875 1.609375 2.3984375 C-3.2235315 7.53593895 -5.72102199 12.37908286 -8 19 C-9.75128538 23.87163117 -9.75128538 23.87163117 -11.9375 25 C-14 25 -14 25 -15.75 23.5625 C-16.1625 23.046875 -16.575 22.53125 -17 22 C-16.67 21.34 -16.34 20.68 -16 20 C-13.525 20.99 -13.525 20.99 -11 22 C-11.33 20.68 -11.66 19.36 -12 18 C-11.34 17.67 -10.68 17.34 -10 17 C-10.0928125 15.824375 -10.0928125 15.824375 -10.1875 14.625 C-10.125625 13.75875 -10.06375 12.8925 -10 12 C-9.01 11.34 -8.02 10.68 -7 10 C-6.71125 9.05125 -6.4225 8.1025 -6.125 7.125 C-4.77926146 3.38683738 -3.36318052 2.05071983 0 0 Z " fill="#124376" transform="translate(128,121)"/>
<path d="M0 0 C3.84966046 1.00824441 4.82735606 3.43874157 6.8046875 6.7421875 C7.07539062 7.38414062 7.34609375 8.02609375 7.625 8.6875 C7.295 9.3475 6.965 10.0075 6.625 10.6875 C5.305 9.3675 3.985 8.0475 2.625 6.6875 C1.635 7.6775 0.645 8.6675 -0.375 9.6875 C-2.89070636 8.71367818 -4.11444098 8.22598865 -5.3125 5.75 C-5.375 3.6875 -5.375 3.6875 -4.25 1.9375 C-2.375 0.6875 -2.375 0.6875 0 0 Z " fill="#114484" transform="translate(107.375,206.3125)"/>
<path d="M0 0 C4.81633154 0.4631088 9.26408314 1.29391565 13.9375 2.5625 C21.58130957 4.53602766 28.28126871 4.3138266 36 3 C35.34 3.99 34.68 4.98 34 6 C31.20263672 6.34057617 31.20263672 6.34057617 27.6796875 6.29296875 C26.42285156 6.28330078 25.16601562 6.27363281 23.87109375 6.26367188 C22.55238281 6.23853516 21.23367187 6.21339844 19.875 6.1875 C18.53517097 6.17245483 17.19532596 6.15876613 15.85546875 6.14648438 C12.56991158 6.11102872 9.28515418 6.06160849 6 6 C6.33 5.01 6.66 4.02 7 3 C4.69 2.34 2.38 1.68 0 1 C0 0.67 0 0.34 0 0 Z " fill="#12467F" transform="translate(161,178)"/>
<path d="M0 0 C0.33 0 0.66 0 1 0 C1 2.31 1 4.62 1 7 C1.66 7.33 2.32 7.66 3 8 C3.94934202 10.92713788 4.23176473 12.42831368 3.0625 15.3125 C2.5365625 16.1478125 2.5365625 16.1478125 2 17 C1.01 16.67 0.02 16.34 -1 16 C-1.22197585 13.89722877 -1.42713637 11.79267698 -1.625 9.6875 C-1.74101563 8.51574219 -1.85703125 7.34398437 -1.9765625 6.13671875 C-2 3 -2 3 0 0 Z " fill="#034490" transform="translate(86,179)"/>
<path d="M0 0 C0 0.33 0 0.66 0 1 C-1.84464844 1.07347656 -1.84464844 1.07347656 -3.7265625 1.1484375 C-5.35939566 1.22351029 -6.99220712 1.29905615 -8.625 1.375 C-9.43324219 1.4059375 -10.24148437 1.436875 -11.07421875 1.46875 C-15.73137604 1.6959284 -19.60646272 2.29733738 -24 4 C-27.64018247 4.81904106 -31.31778129 5.40056905 -35 6 C-25.4854676 -1.97705527 -11.57473304 -1.13136488 0 0 Z " fill="#18487C" transform="translate(160,96)"/>
<path d="M0 0 C3.69876091 1.37287342 6.9514476 3.06355453 10.3125 5.125 C11.19550781 5.66382812 12.07851562 6.20265625 12.98828125 6.7578125 C13.65214844 7.16773437 14.31601563 7.57765625 15 8 C14.01 8.33 13.02 8.66 12 9 C11.67 8.67 11.34 8.34 11 8 C7.36805359 7.80850919 7.36805359 7.80850919 4 9 C1 7 1 7 0 5 C0.66 5 1.32 5 2 5 C2 4.01 2 3.02 2 2 C1.01 1.67 0.02 1.34 -1 1 C-0.67 0.67 -0.34 0.34 0 0 Z " fill="#0C4283" transform="translate(240,61)"/>
<path d="M0 0 C3.45164179 0.4060755 5.15016495 1.10419609 8.0625 3.125 C10.75787471 5.27495169 10.75787471 5.27495169 13.375 4.75 C13.91125 4.5025 14.4475 4.255 15 4 C15.33 4.99 15.66 5.98 16 7 C17.64905002 9.04168097 18.54447638 9.89281797 21.125 10.5 C21.74375 10.665 22.3625 10.83 23 11 C23.33 11.99 23.66 12.98 24 14 C18.91720031 12.54214273 14.78181179 10.29890356 10.3125 7.5625 C9.64927734 7.16740234 8.98605469 6.77230469 8.30273438 6.36523438 C5.16591247 4.46671477 2.5342455 2.67815495 0 0 Z " fill="#104882" transform="translate(81,252)"/>
<path d="M0 0 C-2.64 0.99 -5.28 1.98 -8 3 C-7.61070313 3.85851562 -7.22140625 4.71703125 -6.8203125 5.6015625 C-5.76567134 9.97079017 -6.72439993 11.50391988 -8.875 15.375 C-9.44992188 16.43460938 -10.02484375 17.49421875 -10.6171875 18.5859375 C-11.07351562 19.38257812 -11.52984375 20.17921875 -12 21 C-13.4461661 16.66150169 -11.83682676 13.77210372 -9.9375 9.75 C-9.628125 9.1725 -9.31875 8.595 -9 8 C-8.67 7.34 -8.34 6.68 -8 6 C-8.66 6 -9.32 6 -10 6 C-10 4.35 -10 2.7 -10 1 C-5.8922935 -0.58706842 -4.40767604 -1.10191901 0 0 Z " fill="#11417B" transform="translate(92,104)"/>
<path d="M0 0 C3.02821093 0.45881984 5.15928794 1.08656953 7.875 2.5625 C13.62713032 5.18875104 20.83460796 4.38766673 27 4 C27.66 3.67 28.32 3.34 29 3 C30.99960012 2.960008 33.00047242 2.95653201 35 3 C30.60658925 7.39341075 23.79015722 6.29398223 17.94360352 6.32568359 C11.78269077 6.24226818 6.28349081 5.42240303 1 2 C0.67 1.34 0.34 0.68 0 0 Z " fill="#12447B" transform="translate(129,280)"/>
<path d="M0 0 C0.72058594 -0.01224609 1.44117188 -0.02449219 2.18359375 -0.03710938 C6.99474183 -0.05015951 10.93282121 0.66711022 15.5 2.1875 C15.5 1.5275 15.5 0.8675 15.5 0.1875 C16.16 0.1875 16.82 0.1875 17.5 0.1875 C17.5 1.8375 17.5 3.4875 17.5 5.1875 C16.79359375 4.9709375 16.0871875 4.754375 15.359375 4.53125 C5.02977172 1.72824208 -4.86953448 1.90133592 -15.5 2.1875 C-15.5 1.8575 -15.5 1.5275 -15.5 1.1875 C-10.29491625 0.3314007 -5.27158038 0.00471519 0 0 Z " fill="#10407F" transform="translate(130.5,72.8125)"/>
<path d="M0 0 C-4.77513836 4.28115853 -10.36156231 7.03759841 -16 10 C-16 9.01 -16 8.02 -16 7 C-15.01 7 -14.02 7 -13 7 C-13 6.34 -13 5.68 -13 5 C-12.01 4.34 -11.02 3.68 -10 3 C-10.33 2.34 -10.66 1.68 -11 1 C-6.92630576 -1.03684712 -4.41062136 -1.0257259 0 0 Z " fill="#0B458E" transform="translate(208,258)"/>
<path d="M0 0 C-3.8478296 3.24683526 -7.83473843 5.82455791 -12.1875 8.3125 C-13.13012695 8.8703418 -13.13012695 8.8703418 -14.09179688 9.43945312 C-15.69197857 10.35848796 -17.34324411 11.18737069 -19 12 C-19.66 11.67 -20.32 11.34 -21 11 C-20.67 10.01 -20.34 9.02 -20 8 C-18.0187415 7.27954236 -16.01495907 6.61998741 -14 6 C-12.32665961 5.01120795 -10.65848177 4.01351664 -9 3 C-8.34 3 -7.68 3 -7 3 C-7 2.34 -7 1.68 -7 1 C-4.53721199 -0.231394 -2.7204945 -0.07159196 0 0 Z " fill="#14447C" transform="translate(191,268)"/>
<path d="M0 0 C0.66 0.33 1.32 0.66 2 1 C0.63875 2.2065625 0.63875 2.2065625 -0.75 3.4375 C-3.94713753 6.59711244 -5.39823043 9.81418339 -7.0546875 13.94140625 C-8.24051406 16.52376409 -9.81510795 18.20526724 -12 20 C-10.80663839 12.04425593 -5.9470216 5.247372 0 0 Z " fill="#14427B" transform="translate(42,70)"/>
<path d="M0 0 C-1.38980752 1.13243576 -2.78714677 2.25563119 -4.1875 3.375 C-4.96480469 4.00148437 -5.74210938 4.62796875 -6.54296875 5.2734375 C-8.96879382 6.97807134 -11.21309045 8.01987906 -14 9 C-14 8.34 -14 7.68 -14 7 C-13.34 7 -12.68 7 -12 7 C-12 5.68 -12 4.36 -12 3 C-10.02 2.67 -8.04 2.34 -6 2 C-6 1.34 -6 0.68 -6 0 C-2.25 -1.125 -2.25 -1.125 0 0 Z " fill="#0F4686" transform="translate(261,226)"/>
<path d="M0 0 C-3.34520258 1.93242285 -6.44767482 2.5463853 -10.25 3.125 C-11.32765625 3.29257813 -12.4053125 3.46015625 -13.515625 3.6328125 C-14.33546875 3.75398437 -15.1553125 3.87515625 -16 4 C-16.33 4.99 -16.66 5.98 -17 7 C-17.99 7.33 -18.98 7.66 -20 8 C-18.22106939 3.70091769 -15.76763996 2.01007998 -11.8125 -0.25 C-7.75400427 -1.33226553 -4.10275254 -0.66144594 0 0 Z " fill="#134783" transform="translate(185,193)"/>
<path d="M0 0 C0.33 0.66 0.66 1.32 1 2 C0.67 2.99 0.34 3.98 0 5 C3.3 5 6.6 5 10 5 C9.67 5.66 9.34 6.32 9 7 C6.8203125 7.703125 6.8203125 7.703125 4.125 8.25 C3.24070313 8.44078125 2.35640625 8.6315625 1.4453125 8.828125 C-1 9 -1 9 -4 7 C-2.92598892 4.08482708 -2.22189824 2.22189824 0 0 Z " fill="#13467D" transform="translate(156,108)"/>
<path d="M0 0 C3.23518553 3.23518553 2.97142304 6.99637714 3.09765625 11.4296875 C3.08605469 12.56664063 3.07445312 13.70359375 3.0625 14.875 C3.05347656 16.02742188 3.04445312 17.17984375 3.03515625 18.3671875 C3.02355469 19.23601562 3.01195312 20.10484375 3 21 C4.32 21 5.64 21 7 21 C7.33 20.01 7.66 19.02 8 18 C7.67 19.65 7.34 21.3 7 23 C5.68 23 4.36 23 3 23 C1.35707454 21.35707454 1.65892282 19.35409962 1.46484375 17.08984375 C1.37783203 16.10048828 1.29082031 15.11113281 1.20117188 14.09179688 C1.11416016 13.05087891 1.02714844 12.00996094 0.9375 10.9375 C0.84662109 9.89271484 0.75574219 8.84792969 0.66210938 7.77148438 C0.43739092 5.1813085 0.2168769 2.59084233 0 0 Z " fill="#174273" transform="translate(211,100)"/>
<path d="M0 0 C0.99 0 1.98 0 3 0 C2.04332746 2.39168136 1.42696096 3.73489352 -0.79296875 5.11328125 C-3.19949936 6.08015284 -4.97740753 6.2993777 -7.5625 6.3125 C-8.70912109 6.33763672 -8.70912109 6.33763672 -9.87890625 6.36328125 C-12.47897923 5.91796488 -13.34831388 4.99996498 -15 3 C-14.00419922 3.12568359 -14.00419922 3.12568359 -12.98828125 3.25390625 C-6.45279152 4.05425042 -6.45279152 4.05425042 0 3 C0 2.01 0 1.02 0 0 Z " fill="#13437A" transform="translate(198,161)"/>
<path d="M0 0 C-0.33 0.66 -0.66 1.32 -1 2 C0.32 1.67 1.64 1.34 3 1 C3 1.99 3 2.98 3 4 C3.66 4.33 4.32 4.66 5 5 C5 5.66 5 6.32 5 7 C0.39104317 5.68315519 -3.14140235 3.84801255 -7 1 C-7 0.67 -7 0.34 -7 0 C-2.25 -1.125 -2.25 -1.125 0 0 Z " fill="#0F427E" transform="translate(59,235)"/>
<path d="M0 0 C2.57146057 2.57146057 2.80117997 4.6050417 3.625 8.125 C3.88539062 9.22070312 4.14578125 10.31640625 4.4140625 11.4453125 C4.70410156 12.70988281 4.70410156 12.70988281 5 14 C2.69 12.02 0.38 10.04 -2 8 C-1.33333333 5.33333333 -0.66666667 2.66666667 0 0 Z " fill="#0C4381" transform="translate(76,177)"/>
<path d="M0 0 C0 0.99 0 1.98 0 3 C-1.65532623 4.01866229 -3.32260138 5.01810813 -5 6 C-5.33 6.99 -5.66 7.98 -6 9 C-8.64 9 -11.28 9 -14 9 C-9.7045025 5.25876024 -5.00099548 2.65848126 0 0 Z " fill="#11457F" transform="translate(115,27)"/>
<path d="M0 0 C2.29501486 1.12805815 3.98392717 2.38714173 6 4 C5.67 4.66 5.34 5.32 5 6 C3.68 5.34 2.36 4.68 1 4 C1 3.34 1 2.68 1 2 C-2.3 2 -5.6 2 -9 2 C-9 2.66 -9 3.32 -9 4 C-10.65 4.66 -12.3 5.32 -14 6 C-14 5.34 -14 4.68 -14 4 C-9.51618184 0.18875457 -5.72599281 -1.18155407 0 0 Z " fill="#153F71" transform="translate(154,127)"/>
<path d="M0 0 C1.32 0 2.64 0 4 0 C4 1.32 4 2.64 4 4 C4.66 4 5.32 4 6 4 C9.875 10.75 9.875 10.75 11 13 C10.0625 15.125 10.0625 15.125 9 17 C8.51789063 16.02417969 8.03578125 15.04835938 7.5390625 14.04296875 C6.90114842 12.75775951 6.26312169 11.47260618 5.625 10.1875 C5.30789062 9.54490234 4.99078125 8.90230469 4.6640625 8.24023438 C3.23541389 5.36805539 1.78214527 2.6732179 0 0 Z " fill="#114680" transform="translate(201,82)"/>
<path d="M0 0 C0.66 0.99 1.32 1.98 2 3 C1.071875 3.391875 0.14375 3.78375 -0.8125 4.1875 C-4.13482176 5.71846434 -4.13482176 5.71846434 -5.5 8.625 C-7 11 -7 11 -10.1875 11.8125 C-11.115625 11.874375 -12.04375 11.93625 -13 12 C-9.50794062 8.40523299 -5.95966325 5.07973809 -2 2 C-1.34 2 -0.68 2 0 2 C0 1.34 0 0.68 0 0 Z " fill="#10417A" transform="translate(182,217)"/>
<path d="M0 0 C0.66 0.99 1.32 1.98 2 3 C1.01 4.485 1.01 4.485 0 6 C-0.38499891 7.65549531 -0.72793135 9.3222433 -1 11 C-1.66 11 -2.32 11 -3 11 C-3 11.66 -3 12.32 -3 13 C-4.5 14.625 -4.5 14.625 -6 16 C-6.66 15.67 -7.32 15.34 -8 15 C-7.38511719 14.00419922 -7.38511719 14.00419922 -6.7578125 12.98828125 C-6.21898437 12.10527344 -5.68015625 11.22226563 -5.125 10.3125 C-4.59132812 9.44238281 -4.05765625 8.57226562 -3.5078125 7.67578125 C-2.09359186 5.16608918 -1.00105211 2.69700931 0 0 Z " fill="#0E437D" transform="translate(221,153)"/>
<path d="M0 0 C0.33 0 0.66 0 1 0 C1.05849554 3.20825562 1.09376162 6.41637233 1.125 9.625 C1.14175781 10.52863281 1.15851563 11.43226563 1.17578125 12.36328125 C1.21201643 17.32750152 0.96444146 21.34411907 -1 26 C-1.66 26 -2.32 26 -3 26 C-2.42415568 23.61435923 -1.77772405 21.33317216 -1 19 C-0.85426942 17.52034074 -0.75336732 16.03596157 -0.68359375 14.55078125 C-0.64169922 13.70322266 -0.59980469 12.85566406 -0.55664062 11.98242188 C-0.51732422 11.10134766 -0.47800781 10.22027344 -0.4375 9.3125 C-0.39431641 8.41982422 -0.35113281 7.52714844 -0.30664062 6.60742188 C-0.20064647 4.40509892 -0.09857949 2.20266527 0 0 Z " fill="#1A4271" transform="translate(162,137)"/>
<path d="M0 0 C0.33 0.66 0.66 1.32 1 2 C0.125 4 0.125 4 -1 6 C-1.33 6.66 -1.66 7.32 -2 8 C-2.66 8 -3.32 8 -4 8 C-4.33 8.99 -4.66 9.98 -5 11 C-5.99 11.33 -6.98 11.66 -8 12 C-6.49087042 7.01987239 -3.44338151 3.75740058 0 0 Z " fill="#0F4480" transform="translate(112,111)"/>
<path d="M0 0 C2.5 1.125 2.5 1.125 5 3 C5.53520921 6.21125525 5.51113607 8.06792834 3.9375 10.9375 C0.87530347 12.61676907 -1.69370941 11.68621125 -5 11 C-5 10.67 -5 10.34 -5 10 C-1.535 9.505 -1.535 9.505 2 9 C2 6.69 2 4.38 2 2 C1.34 2 0.68 2 0 2 C0 1.34 0 0.68 0 0 Z " fill="#194272" transform="translate(164,73)"/>
<path d="M0 0 C0 3 0 3 -1.2421875 4.60546875 C-1.78101563 5.12753906 -2.31984375 5.64960938 -2.875 6.1875 C-3.40867188 6.71730469 -3.94234375 7.24710938 -4.4921875 7.79296875 C-6 9 -6 9 -8 9 C-8.33 9.99 -8.66 10.98 -9 12 C-10.98 12 -12.96 12 -15 12 C-12.73957187 10.26120913 -10.46897083 8.66104521 -8.0625 7.125 C-5.00258507 5.00179372 -2.55189901 2.70201071 0 0 Z " fill="#114077" transform="translate(212,169)"/>
<path d="M0 0 C0.99 0.33 1.98 0.66 3 1 C3.625 3.8125 3.625 3.8125 4 7 C3.01 8.485 3.01 8.485 2 10 C0 9 0 9 -0.6875 7.25 C-1.05449975 4.60760177 -0.64331769 2.57327078 0 0 Z " fill="#114581" transform="translate(92,93)"/>
<path d="M0 0 C0 0.66 0 1.32 0 2 C-1.32 2.33 -2.64 2.66 -4 3 C-4.33 2.01 -4.66 1.02 -5 0 C-6.98 0 -8.96 0 -11 0 C-11 -0.66 -11 -1.32 -11 -2 C-6.64337851 -3.61356351 -3.94913253 -1.97456626 0 0 Z " fill="#07469A" transform="translate(120,77)"/>
<path d="M0 0 C-0.1875 1.875 -0.1875 1.875 -1 4 C-3.5625 5.25 -3.5625 5.25 -6 6 C-6.33 4.68 -6.66 3.36 -7 2 C-4.35261084 0.5393715 -3.10551666 0 0 0 Z " fill="#1B4778" transform="translate(186,204)"/>
<path d="M0 0 C3.53599998 0.07072 6.1041863 0.19163015 8.80078125 2.625 C10.27675028 4.37220916 11.67266996 6.13784833 13 8 C8.27626146 6.37621488 4.05818166 3.89006982 0 1 C0 0.67 0 0.34 0 0 Z " fill="#10407E" transform="translate(105,266)"/>
<path d="M0 0 C1.98 0 3.96 0 6 0 C8.83022097 3.99560608 7.76210446 7.42737323 7 12 C6.34 12 5.68 12 5 12 C5 8.37 5 4.74 5 1 C3.35 1.33 1.7 1.66 0 2 C0 1.34 0 0.68 0 0 Z " fill="#174883" transform="translate(192,189)"/>
<path d="M0 0 C0.66 0.66 1.32 1.32 2 2 C1.9375 3.875 1.9375 3.875 1 6 C-1.5625 8.25 -1.5625 8.25 -4 10 C-3.67 9.4225 -3.34 8.845 -3 8.25 C-1.72924102 5.80116138 -1.72924102 5.80116138 -2 2 C-1.34 1.34 -0.68 0.68 0 0 Z " fill="#0A4584" transform="translate(158,161)"/>
<path d="M0 0 C0 0.99 0 1.98 0 3 C-0.598125 3.144375 -1.19625 3.28875 -1.8125 3.4375 C-3.56150404 3.8872439 -5.28677023 4.42892341 -7 5 C-7.33 3.68 -7.66 2.36 -8 1 C-5.07175348 0.02391783 -3.04386724 -0.08226668 0 0 Z " fill="#024291" transform="translate(169,222)"/>
<path d="M0 0 C0.33 0.66 0.66 1.32 1 2 C0.07421875 4.12890625 0.07421875 4.12890625 -1.3125 6.5625 C-1.98732422 7.77099609 -1.98732422 7.77099609 -2.67578125 9.00390625 C-4 11 -4 11 -6 12 C-6.33 10.68 -6.66 9.36 -7 8 C-5.68 7.67 -4.36 7.34 -3 7 C-2.814375 6.1028125 -2.814375 6.1028125 -2.625 5.1875 C-2 3 -2 3 0 0 Z " fill="#15427B" transform="translate(268,211)"/>
<path d="M0 0 C0.99 0.33 1.98 0.66 3 1 C2.67 2.32 2.34 3.64 2 5 C-0.97 5 -3.94 5 -7 5 C-2.25 1.125 -2.25 1.125 0 0 Z " fill="#124689" transform="translate(62,58)"/>
<path d="M0 0 C-3.46741134 2.95749791 -6.86873527 5.07848152 -11 7 C-11 6.01 -11 5.02 -11 4 C-10.01 4 -9.02 4 -8 4 C-8 3.34 -8 2.68 -8 2 C-4.77208445 -0.1519437 -3.71599191 -0.20086443 0 0 Z " fill="#13427F" transform="translate(203,261)"/>
<path d="M0 0 C0.28875 0.61875 0.5775 1.2375 0.875 1.875 C1.93720042 4.13325765 1.93720042 4.13325765 4 6 C-0.12751449 5.39301257 -3.3321148 3.96189209 -7 2 C-6.401875 1.855625 -5.80375 1.71125 -5.1875 1.5625 C-3.43849596 1.1127561 -1.71322977 0.57107659 0 0 Z " fill="#104782" transform="translate(130,195)"/>
<path d="M0 0 C3.40312738 1.05875074 6.01353231 2.00902154 9 4 C8.67 4.99 8.34 5.98 8 7 C7.01 6.67 6.02 6.34 5 6 C4.67 5.34 4.34 4.68 4 4 C3.01 3.67 2.02 3.34 1 3 C0.67 2.01 0.34 1.02 0 0 Z " fill="#0D427E" transform="translate(155,69)"/>
<path d="M0 0 C5.02692063 0.45699278 8.14896261 2.99241748 12 6 C11.01 6.495 11.01 6.495 10 7 C7.6171875 5.8203125 7.6171875 5.8203125 4.875 4.125 C3.96492188 3.57070312 3.05484375 3.01640625 2.1171875 2.4453125 C1.41851562 1.96835938 0.71984375 1.49140625 0 1 C0 0.67 0 0.34 0 0 Z " fill="#1A457E" transform="translate(81,252)"/>
<path d="M0 0 C0.66 0.33 1.32 0.66 2 1 C-4.14285714 6.57142857 -4.14285714 6.57142857 -9 7 C-6.25604436 4.05278838 -3.61662784 1.80831392 0 0 Z " fill="#1A467D" transform="translate(53,63)"/>
<path d="M0 0 C4.75481646 0.57634139 7.97048212 2.55068521 12 5 C9 6 9 6 6 5 C6 4.34 6 3.68 6 3 C5.195625 2.87625 4.39125 2.7525 3.5625 2.625 C2.716875 2.41875 1.87125 2.2125 1 2 C0.67 1.34 0.34 0.68 0 0 Z " fill="#15417A" transform="translate(162,16)"/>
<path d="M0 0 C0.99 0.33 1.98 0.66 3 1 C2.67 2.65 2.34 4.3 2 6 C0.68 5.34 -0.64 4.68 -2 4 C-1.34 2.68 -0.68 1.36 0 0 Z " fill="#054791" transform="translate(167,215)"/>
<path d="M0 0 C-0.639375 0.61875 -1.27875 1.2375 -1.9375 1.875 C-4.03883584 3.82597612 -4.03883584 3.82597612 -5 6 C-5.99 6 -6.98 6 -8 6 C-6.53781513 1.3697479 -6.53781513 1.3697479 -4 -0.375 C-2 -1 -2 -1 0 0 Z " fill="#0D4383" transform="translate(145,132)"/>
<path d="M0 0 C2.475 0.495 2.475 0.495 5 1 C5.33 2.65 5.66 4.3 6 6 C5.01 6 4.02 6 3 6 C2.01 4.02 1.02 2.04 0 0 Z " fill="#004595" transform="translate(160,75)"/>
<path d="M0 0 C0.99 0.33 1.98 0.66 3 1 C3 2.98 3 4.96 3 7 C1.68 6.01 0.36 5.02 -1 4 C-0.67 2.68 -0.34 1.36 0 0 Z " fill="#0B4488" transform="translate(197,73)"/>
<path d="M0 0 C2.0625 0.4375 2.0625 0.4375 4 1 C4 1.99 4 2.98 4 4 C2.02 4.33 0.04 4.66 -2 5 C-1.125 1.125 -1.125 1.125 0 0 Z " fill="#19427C" transform="translate(82,174)"/>
<path d="M0 0 C2.50298434 2.93828597 3.46930939 5.17902761 4 9 C3.34 9 2.68 9 2 9 C0.14223235 5.86501708 -0.20140476 3.62528568 0 0 Z " fill="#0C4C99" transform="translate(87,203)"/>
<path d="M0 0 C0.66 0.33 1.32 0.66 2 1 C1.67 2.98 1.34 4.96 1 7 C0.01 6.67 -0.98 6.34 -2 6 C-1.125 1.125 -1.125 1.125 0 0 Z " fill="#104382" transform="translate(140,219)"/>
<path d="M0 0 C3.875 0.875 3.875 0.875 5 2 C5.25 4.4375 5.25 4.4375 5 7 C4.01 7.66 3.02 8.32 2 9 C2.226875 8.071875 2.45375 7.14375 2.6875 6.1875 C3.36319983 3.03173152 3.36319983 3.03173152 1.5625 1.125 C1.046875 0.75375 0.53125 0.3825 0 0 Z " fill="#194375" transform="translate(168,215)"/>
<path d="M0 0 C1 2 1 2 0.25 5.5625 C-0.1625 6.696875 -0.575 7.83125 -1 9 C-1.99 9.33 -2.98 9.66 -4 10 C-4 9.01 -4 8.02 -4 7 C-3.34 6.67 -2.68 6.34 -2 6 C-1.27306096 4.02111039 -0.60183749 2.02045442 0 0 Z " fill="#0E4486" transform="translate(123,125)"/>
<path d="M0 0 C2.91517292 1.07401108 4.77810176 1.77810176 7 4 C5.02 4 3.04 4 1 4 C0.67 2.68 0.34 1.36 0 0 Z " fill="#0F4283" transform="translate(182,27)"/>
<path d="M0 0 C1.98 0.99 3.96 1.98 6 3 C3.39902318 4.30048841 0.86044938 4.56471422 -2 5 C-1.34 3.35 -0.68 1.7 0 0 Z " fill="#0F427F" transform="translate(176,23)"/>
</svg>
