<?xml version="1.0" standalone="no"?>
<!DOCTYPE svg PUBLIC "-//W3C//DTD SVG 20010904//EN"
 "http://www.w3.org/TR/2001/REC-SVG-20010904/DTD/svg10.dtd">
<svg version="1.0" xmlns="http://www.w3.org/2000/svg"
 width="1047.000000pt" height="748.000000pt" viewBox="0 0 1047.000000 748.000000"
 preserveAspectRatio="xMidYMid meet">

<g transform="translate(0.000000,748.000000) scale(0.100000,-0.100000)"
fill="#000000" stroke="none">
<path d="M3585 7465 c-855 -88 -1618 -441 -2219 -1025 -659 -640 -1040 -1452
-1117 -2378 -15 -181 -7 -573 16 -742 154 -1160 788 -2155 1767 -2771 150 -94
449 -242 623 -308 648 -246 1350 -301 2046 -161 946 190 1807 773 2356 1595
64 97 153 241 153 250 0 3 -290 5 -644 5 l-644 0 -53 -58 c-255 -277 -525
-481 -844 -638 -255 -125 -491 -199 -765 -241 -170 -25 -490 -23 -675 5 -552
85 -1034 333 -1446 742 -777 772 -1045 1921 -690 2951 97 281 228 527 409 768
97 130 294 337 423 446 294 246 661 434 1037 530 192 48 335 67 563 72 l217 6
73 64 c157 136 398 308 575 411 101 58 334 173 432 213 45 18 82 36 82 39 0 9
-308 106 -430 135 -125 30 -283 59 -440 81 -159 22 -631 28 -805 9z"/>
<path d="M6350 6509 c-359 -26 -701 -133 -1013 -316 l-77 -45 82 -55 c152
-102 272 -204 466 -399 l193 -194 630 2 630 3 -98 163 c-115 191 -238 366
-359 512 -106 127 -318 341 -336 339 -7 -1 -60 -5 -118 -10z"/>
</g>
</svg>
