<svg xmlns="http://www.w3.org/2000/svg" fill="#000" viewBox="0 0 174.71 53.72"><g id="Layer_2" data-name="Layer 2"><g id="Layer_1-2" data-name="Layer 1"><rect x="90.97" width="1.74" height="53.72"/><path d="M117,11.35h2.67l9.06,24.94H126.5l-2.69-7.42H112.89l-2.69,7.42H108Zm6.11,15.4-4.8-13.24-4.77,13.24Z"/><path d="M138.72,11.39c9.2.07,13,4.14,13,12.26,0,8.57-4.28,12.64-13.4,12.64h-4.45V11.35Zm-2.59,22.9h2.12c7.24,0,11.17-2.81,11.17-10.54,0-8-4-10.4-11-10.4h-2.29Z"/><path d="M174.71,18.72h-2.34a6.61,6.61,0,0,0-6.7-5.71c-5.15,0-7.77,3.48-7.77,10.83s2.62,10.78,7.77,10.78a6.65,6.65,0,0,0,6.7-5.75h2.34a8.7,8.7,0,0,1-9,7.76c-6.57,0-10.19-4.53-10.19-12.81S159.11,11,165.69,11A8.81,8.81,0,0,1,174.71,18.72Z"/><path d="M77.23,34h-.68v1.79h-.27V34h-.69v-.21h1.64Zm2.42-.21v2h-.26V34.56l0-.38h0l0,.15-.62,1.5h-.21l-.62-1.5-.06-.15h0l0,.38v1.27h-.27v-2h.33l.6,1.44.09.25h0l.09-.25.6-1.44Z"/><polygon points="77.23 34.04 76.55 34.04 76.55 35.83 76.28 35.83 76.28 34.04 75.59 34.04 75.59 33.83 77.23 33.83 77.23 34.04"/><polygon points="79.65 33.83 79.65 35.83 79.39 35.83 79.39 34.56 79.42 34.18 79.41 34.18 79.36 34.33 78.74 35.83 78.53 35.83 77.91 34.33 77.85 34.18 77.85 34.18 77.88 34.56 77.88 35.83 77.61 35.83 77.61 33.83 77.94 33.83 78.54 35.27 78.63 35.52 78.64 35.52 78.72 35.27 79.33 33.83 79.65 33.83"/><path d="M0,26.85c0-5.57,3.74-9.45,9.06-9.45,3.59,0,6.52,1.8,7.68,4.58a1.7,1.7,0,0,1,.18.81,1.06,1.06,0,0,1-1.13,1.06A1.19,1.19,0,0,1,14.66,23a5.75,5.75,0,0,0-5.6-3.56c-4,0-6.77,3-6.77,7.41S5,34.21,9.06,34.21A5.71,5.71,0,0,0,14.7,30.3a1.15,1.15,0,0,1,1.09-.85,1.12,1.12,0,0,1,1.13,1.13,2.17,2.17,0,0,1-.14.74,7.86,7.86,0,0,1-7.72,5C3.7,36.29,0,32.41,0,26.85"/><path d="M30.23,34.74A1.12,1.12,0,0,1,29.07,36c-.74,0-1.13-.49-1.13-1.27V12.88a1.11,1.11,0,0,1,1.17-1.27c.73,0,1.12.46,1.12,1.27v5h3.95a1,1,0,1,1,0,2H30.23Z"/><path d="M47.89,19.09a1.06,1.06,0,0,1-1.13,1.09,1.9,1.9,0,0,1-.85-.24,4.09,4.09,0,0,0-1.83-.39c-2.43,0-4,2.11-4,4.79v10.4c0,.81-.39,1.27-1.13,1.27s-1.16-.46-1.16-1.27V19c0-.81.42-1.27,1.16-1.27s1.13.46,1.13,1.27v.46a5.26,5.26,0,0,1,4.27-2,5.41,5.41,0,0,1,3,.71,1.13,1.13,0,0,1,.6,1"/><path d="M50.21,19c0-.81.42-1.27,1.16-1.27s1.13.46,1.13,1.27V34.74A1.12,1.12,0,0,1,51.34,36c-.74,0-1.13-.49-1.13-1.27Z"/><path d="M20.94,19a1.11,1.11,0,0,1,1.17-1.27c.74,0,1.12.46,1.12,1.27V34.74A1.12,1.12,0,0,1,22.07,36c-.74,0-1.13-.49-1.13-1.27Z"/><path d="M23.89,13.41a1.8,1.8,0,1,1-1.8-1.8,1.81,1.81,0,0,1,1.8,1.8"/><path d="M64.41,28.26l-6.24,7.29a1.1,1.1,0,0,1-.91.46A1.06,1.06,0,0,1,56.17,35a1.22,1.22,0,0,1,.31-.81L63,26.78l-6.27-7.19a1.26,1.26,0,0,1-.39-.85,1.08,1.08,0,0,1,1.13-1.06,1.1,1.1,0,0,1,.88.46l6.06,7.12,6.06-7.12a1.11,1.11,0,0,1,.88-.46,1.08,1.08,0,0,1,1.13,1.06,1.29,1.29,0,0,1-.38.85l-6.28,7.19,6.52,7.36a1.19,1.19,0,0,1,.32.81A1.07,1.07,0,0,1,71.57,36a1.11,1.11,0,0,1-.92-.46Z"/><path d="M66.21,13.41a1.8,1.8,0,1,1-1.8-1.8,1.8,1.8,0,0,1,1.8,1.8"/></g></g></svg>