<svg xmlns="http://www.w3.org/2000/svg" viewBox="0 0 59.58 59.58"><defs><style>.cls-1{fill:#4c8ecb;}.cls-2{fill:#2e73af;}.cls-3{fill:#808184;}.cls-4{fill:#58595b;}.cls-5{fill:#fff;}</style></defs><title>Asset 25</title><g id="Layer_2" data-name="Layer 2"><g id="Layer_1-2" data-name="Layer 1"><polygon class="cls-1" points="13.29 22.57 25.82 15.32 25.82 0 0 14.92 13.29 22.57"/><polygon class="cls-2" points="25.84 44.26 38.39 37.02 38.39 37.02 51.65 29.36 51.65 44.68 25.86 59.58 25.84 44.26"/><polygon class="cls-2" points="25.82 15.32 38.36 22.56 51.62 14.89 25.82 0 25.82 15.32"/><polygon class="cls-1" points="25.85 44.26 13.29 37.04 0.04 44.71 25.87 59.58 25.85 44.26"/><polygon class="cls-2" points="13.29 37.04 13.29 22.57 0 14.92 0.04 44.71 13.29 37.04"/><polygon class="cls-3" points="25.82 15.31 38.36 22.56 38.36 37.04 25.82 29.8 25.82 15.31"/><polyline class="cls-4" points="25.82 15.31 13.29 22.57 13.29 37.04 25.82 29.8 25.82 15.32"/></g></g></svg>
