<svg xmlns="http://www.w3.org/2000/svg" xmlns:xlink="http://www.w3.org/1999/xlink" viewBox="0 0 81 81" fill="#fff" fill-rule="evenodd" stroke="#000" stroke-linecap="round" stroke-linejoin="round"><use xlink:href="#A" x=".5" y=".5"/><symbol id="A" overflow="visible"><path d="M62.703 53.574H47.808l5.285-5.286-10.09-10.089v24.265h7.448l-10.57 10.57-10.57-10.57h7.448V38.439l-10.09 10.09 5.285 5.285H17.057V38.919l5.285 5.285 12.733-12.733c-1.922-.72-3.363-2.161-4.804-3.843-4.085-5.526-3.124-13.214 2.402-17.298 2.162-1.681 4.805-2.643 7.448-2.643 3.604 0 7.448 1.681 9.85 4.805 4.084 5.525 3.123 13.213-2.402 17.297-.721.721-1.681 1.201-2.403 1.441l12.733 12.733 5.285-5.285v14.895h-.48zM39.88 80c1.922 0 3.844-.72 5.285-2.162l32.673-32.433C79.28 43.964 80 42.042 80 40.12c0-2.161-.72-3.844-2.162-5.285L45.165 2.162C43.724.721 41.802 0 39.88 0s-3.844.721-5.285 2.162L2.162 34.595C.721 36.036 0 37.959 0 39.88s.721 3.844 2.162 5.285l32.432 32.432C36.036 79.04 37.959 80 39.88 80zm-6.727-51.892c1.922 1.681 4.324 2.403 6.727 2.403 2.162 0 4.565-.721 6.486-2.162.24-.24.721-.48.961-.72-.961 0-2.402 0-4.084-.481-.241.24-.241.481-.481.481-.96.72-2.161.48-3.123-.481-.24-.48-.481-.961-.481-1.441a21.92 21.92 0 0 1-3.123-1.922c-.24-.24-.721-.48-.961-.72-.48.24-.96.24-1.441.24-.48 1.922-.72 3.604-.48 4.805h0zm0 0c-.24 0-.24 0 0 0-.24 0-.24 0 0 0h0zm-2.162-2.162c.24.24.24 0 0 0h0zm0 0c0-1.201.24-2.403.721-3.604l-.241-.24c-.96-1.201-.96-2.883 0-3.844-.72-1.681-.72-3.363-.48-4.324-2.402 3.363-2.643 8.168 0 12.012zm1.201-13.694c-.24.961-.24 2.644.721 4.565.48-.24 1.201-.24 1.681 0l.48-.48c.961-.961 1.922-1.922 2.884-2.643h0c-1.201-1.201-2.163-2.403-2.884-3.604-.72.24-1.201.72-1.681 1.201-.48.24-.961.72-1.201.96zm2.883-2.162c1.441-.481 1.441-.481 1.441-.721l-1.441.721zm1.441-.481c.961 1.201 1.922 2.162 2.883 3.364h0c2.883-1.441 5.525-1.681 7.207-1.441-1.921-1.681-4.324-2.402-6.726-2.402-1.201 0-2.163.24-3.364.48zm10.09 1.922l1.682 1.681h0c-.481-.72-.961-1.201-1.682-1.681h0zm1.682 1.681c-.241 0-2.884-.24-6.727 1.922 1.201 1.201 2.403 2.403 3.604 3.363.961-.48 2.162-.24 2.883.721.481.72.721 1.441.241 2.162.96.72 1.441 1.201 1.921 1.441.721-3.364.24-6.727-1.921-9.61h0zm1.921 9.37c0 .24 0 0 0 0h0zm0 .48c0 .24 0 .24-.24.48 0-.24 0-.48.24-.48zm-.24.48c-.481-.24-1.201-.72-2.162-1.441h-.24c-.961.721-2.403.481-3.123-.48-.481-.721-.721-1.682-.241-2.402-1.441-.961-2.643-2.162-4.084-3.364l-2.883 2.162-.48.48c.48.961.48 2.162-.241 3.124.241.24.481.24.721.48.961.721 1.922 1.441 2.883 1.922.961-.721 2.163-.481 2.883.48.241.24.241.48.481.961 2.643.72 4.564.48 5.285.24.48-.721.961-1.441 1.201-2.163h0zm0-.24c0 .24 0 .24 0 0 0 .24 0 .24 0 0zm-1.201 2.403s0 .24-.24.24c0 0 .24 0 .24-.24h0zm-8.649-9.85s-.24 0 0 0c-.24 0 0 0 0 0h0zm0 0h0 0z" fill="#0078d7" stroke="none"/></symbol></svg>