<svg width="90" height="90" viewBox="0 0 90 90" fill="none" xmlns="http://www.w3.org/2000/svg">
<path d="M42 42H0V0H42V42ZM7 35H35V7H7V35ZM90 42H48V0H90V42ZM55 35H83V7H55V35ZM90 90H48V48H90V90ZM42 90H0V48H42V90ZM55 83H83V55H55V83ZM7 83H35V55H7V83Z" fill="url(#paint0_linear)"/>
<path d="M81 37V43H52.2V37H81Z" fill="url(#paint1_linear)"/>
<path d="M90 42V35H55V42H90Z" fill="url(#paint2_linear)"/>
<path d="M0 42V35H35V42H0Z" fill="url(#paint3_linear)"/>
<path d="M90 48V55H55V48H90Z" fill="url(#paint4_linear)"/>
<path d="M0 55V48H35V55H0Z" fill="url(#paint5_linear)"/>
<path d="M35 0H42V35H35V0Z" fill="url(#paint6_linear)"/>
<path d="M48 0H55V35H48V0Z" fill="url(#paint7_linear)"/>
<path d="M55 90H48V55H55V90Z" fill="url(#paint8_linear)"/>
<path d="M42 90H35V55H42V90Z" fill="url(#paint9_linear)"/>
<path d="M75 44.5C75 37.5 73 28.75 69.5 18.5C68.75 20.5 67.5 22.25 66.5 23.75C60.75 18.25 53.25 15 45 15C28.5 15 15 28.5 15 45C15 61.5 28.5 75 45 75C61.5 75 75 61.5 75 45C75 44.75 75 44.75 75 44.5Z" fill="#5FB832"/>
<path d="M69.25 58.5C61.75 68.25 46 65 36 65.5C36 65.5 34.25 65.5 32.5 65.75C32.5 65.75 33.25 65.5 34 65.25C41 62.75 44.5 62.25 48.75 60C57 55.75 65 46.75 66.5 37.25C63.5 46.5 54 54.25 45.5 57.25C39.75 59.5 29 61.5 29 61.5L28.5 61.25C21.25 57.75 21 42 34 37C39.75 34.75 45.25 36 51.5 34.5C58.25 32.75 65.75 28 69 21.5C72.75 32.25 76.75 48.5 69.25 58.5Z" fill="white"/>
<path d="M27 68.25C28.3807 68.25 29.5 67.1307 29.5 65.75C29.5 64.3693 28.3807 63.25 27 63.25C25.6193 63.25 24.5 64.3693 24.5 65.75C24.5 67.1307 25.6193 68.25 27 68.25Z" fill="white"/>
<defs>
<linearGradient id="paint0_linear" x1="45.0231" y1="0.00011085" x2="45.0231" y2="89.9991" gradientUnits="userSpaceOnUse">
<stop stop-color="#008BF1"/>
<stop offset="0.2215" stop-color="#0086EC"/>
<stop offset="0.4939" stop-color="#0078DD"/>
<stop offset="0.7916" stop-color="#0061C4"/>
<stop offset="1" stop-color="#004DAE"/>
</linearGradient>
<linearGradient id="paint1_linear" x1="52.154" y1="40" x2="81" y2="40" gradientUnits="userSpaceOnUse">
<stop stop-opacity="0.64"/>
<stop offset="0.5677" stop-opacity="0.22"/>
<stop offset="1" stop-color="white" stop-opacity="0"/>
</linearGradient>
<linearGradient id="paint2_linear" x1="55.0797" y1="38.5" x2="90" y2="38.5" gradientUnits="userSpaceOnUse">
<stop stop-color="#00315C"/>
<stop offset="0.785" stop-color="#0080E5"/>
</linearGradient>
<linearGradient id="paint3_linear" x1="34.9203" y1="38.5" x2="0" y2="38.5" gradientUnits="userSpaceOnUse">
<stop stop-color="#00315C"/>
<stop offset="0.785" stop-color="#0080E5"/>
</linearGradient>
<linearGradient id="paint4_linear" x1="55.0797" y1="51.5" x2="90" y2="51.5" gradientUnits="userSpaceOnUse">
<stop stop-color="#00315C"/>
<stop offset="0.5792" stop-color="#0E71C7"/>
<stop offset="1" stop-color="#0A75D5"/>
</linearGradient>
<linearGradient id="paint5_linear" x1="34.9201" y1="51.5" x2="0" y2="51.5" gradientUnits="userSpaceOnUse">
<stop stop-color="#00315C"/>
<stop offset="0.5792" stop-color="#0E71C7"/>
<stop offset="1" stop-color="#0A75D5"/>
</linearGradient>
<linearGradient id="paint6_linear" x1="38.5" y1="35" x2="38.5" y2="4.45675" gradientUnits="userSpaceOnUse">
<stop stop-color="#00315C"/>
<stop offset="0.785" stop-color="#008AF0"/>
</linearGradient>
<linearGradient id="paint7_linear" x1="51.5" y1="35" x2="51.5" y2="4.45675" gradientUnits="userSpaceOnUse">
<stop stop-color="#00315C"/>
<stop offset="0.785" stop-color="#008AF0"/>
</linearGradient>
<linearGradient id="paint8_linear" x1="51.5" y1="56.0105" x2="51.5" y2="90.4312" gradientUnits="userSpaceOnUse">
<stop stop-color="#00294F"/>
<stop offset="0.704" stop-color="#005BA6"/>
<stop offset="0.828" stop-color="#0457AC"/>
<stop offset="1" stop-color="#0050B2"/>
</linearGradient>
<linearGradient id="paint9_linear" x1="38.5" y1="56.0105" x2="38.5" y2="90.4312" gradientUnits="userSpaceOnUse">
<stop stop-color="#00294F"/>
<stop offset="0.704" stop-color="#005BA6"/>
<stop offset="0.828" stop-color="#0457AC"/>
<stop offset="1" stop-color="#0050B2"/>
</linearGradient>
</defs>
</svg>
