<?xml version="1.0" standalone="no"?>
<!DOCTYPE svg PUBLIC "-//W3C//DTD SVG 20010904//EN"
 "http://www.w3.org/TR/2001/REC-SVG-20010904/DTD/svg10.dtd">
<svg version="1.0" xmlns="http://www.w3.org/2000/svg"
 width="1515.000000pt" height="345.000000pt" viewBox="0 0 1515.000000 345.000000"
 preserveAspectRatio="xMidYMid meet">

<g transform="translate(0.000000,345.000000) scale(0.100000,-0.100000)"
fill="#000000" stroke="none">
<path d="M1500 3301 c-88 -18 -106 -36 -607 -597 -269 -299 -499 -566 -513
-592 -20 -38 -25 -61 -25 -122 0 -71 11 -106 228 -749 126 -370 239 -690 252
-711 23 -37 67 -76 111 -98 12 -6 345 -75 740 -152 574 -113 730 -140 776
-137 112 10 112 10 646 608 269 301 498 565 508 586 10 22 20 67 22 108 3 69
-1 82 -228 755 -177 523 -239 695 -263 728 -63 87 -56 86 -855 241 -398 78
-731 140 -740 140 -9 -1 -33 -4 -52 -8z m482 -173 c235 -45 425 -84 423 -86
-2 -2 -254 -17 -560 -33 -305 -15 -561 -31 -568 -35 -17 -11 6 17 93 115 69
77 128 119 170 121 8 1 207 -36 442 -82z m893 -173 c105 -19 163 -44 191 -82
19 -26 308 -862 301 -869 -2 -2 -40 54 -84 124 -44 70 -185 291 -312 491 -180
283 -226 362 -208 358 12 -3 63 -13 112 -22z m-246 -27 c39 -21 59 -48 196
-263 84 -132 151 -242 149 -244 -4 -5 -864 492 -864 500 0 6 235 20 430 27 31
1 60 -6 89 -20z m-1155 -249 c-219 -127 -412 -237 -427 -246 -26 -13 -21 0 64
164 51 98 103 195 116 215 39 63 64 70 293 83 113 7 239 13 279 14 l75 1 -400
-231z m1014 -96 c270 -157 469 -278 479 -293 17 -23 18 -67 18 -567 0 -529 0
-542 -20 -569 -13 -16 -199 -131 -475 -290 -375 -217 -462 -264 -493 -264 -32
0 -114 44 -498 266 -352 205 -463 273 -475 295 -12 23 -14 116 -14 568 l0 541
28 30 c41 45 920 550 958 550 22 0 159 -74 492 -267z m-1406 170 c-5 -10 -127
-241 -271 -514 -143 -273 -261 -504 -261 -512 0 -48 -21 -11 -58 102 -46 139
-51 190 -24 238 14 26 611 703 620 703 1 0 -1 -8 -6 -17z m2149 -729 c121
-193 133 -224 115 -282 -7 -20 -253 -492 -262 -501 -2 -2 -4 225 -4 505 1 460
2 507 16 489 8 -11 69 -106 135 -211z m-2321 -331 l0 -506 -132 209 c-176 277
-176 237 -3 562 71 133 130 242 132 242 2 0 3 -228 3 -507z m2633 -258 c-3
-16 -12 -42 -19 -56 -9 -18 -565 -652 -621 -709 -9 -9 33 72 288 555 136 259
251 484 255 500 7 26 13 13 55 -115 33 -101 46 -153 42 -175z m-2628 -440
c153 -242 291 -459 307 -482 35 -52 37 -51 -117 -19 -123 26 -165 48 -190 97
-9 16 -77 210 -152 432 -74 221 -138 409 -141 417 -12 35 28 -25 293 -445z
m545 -220 l431 -250 -83 -7 c-46 -4 -162 -9 -260 -10 -165 -3 -178 -2 -204 18
-15 11 -83 108 -151 215 -176 277 -185 291 -175 288 6 -2 204 -116 442 -254z
m1410 53 c-57 -106 -112 -204 -124 -216 -40 -45 -64 -50 -287 -61 -118 -6
-241 -13 -274 -16 -44 -4 -56 -2 -48 6 15 15 827 486 831 483 2 -1 -42 -89
-98 -196z m-171 -385 c-14 -16 -53 -59 -88 -98 -72 -81 -110 -104 -167 -105
-38 0 -864 156 -873 166 -2 2 10 4 28 4 45 0 1018 49 1056 53 73 9 71 10 44
-20z"/>
<path d="M10528 3039 c-17 -9 -18 -80 -18 -1267 0 -965 3 -1261 12 -1270 9 -9
68 -12 204 -12 230 0 224 -2 224 101 0 38 3 69 6 69 4 0 33 -24 65 -54 114
-106 257 -153 434 -142 214 13 350 70 486 206 178 176 259 412 259 756 0 375
-96 630 -301 801 -69 57 -194 117 -289 138 -112 26 -305 24 -390 -3 -76 -25
-171 -79 -220 -128 -20 -19 -39 -34 -43 -34 -4 0 -7 184 -7 409 l0 410 -22 15
c-18 13 -55 16 -203 16 -103 0 -187 -5 -197 -11z m977 -1058 c102 -50 171
-149 217 -306 20 -70 23 -102 23 -255 0 -138 -4 -190 -19 -245 -59 -225 -175
-334 -366 -343 -70 -3 -95 0 -145 19 -108 40 -191 148 -230 299 -39 149 -36
427 6 565 66 220 176 310 367 301 68 -3 95 -10 147 -35z"/>
<path d="M12382 3028 c-17 -17 -17 -2509 0 -2526 17 -17 399 -17 416 0 9 9 12
305 12 1269 0 1137 -2 1257 -16 1263 -31 12 -399 7 -412 -6z"/>
<path d="M4145 2828 c-3 -7 -6 -114 -7 -238 l-3 -225 -125 -5 c-69 -3 -131 -9
-137 -13 -19 -12 -18 -310 0 -325 8 -7 67 -13 138 -14 l124 -3 5 -600 c5 -553
6 -604 24 -650 25 -69 32 -81 74 -127 41 -45 120 -88 208 -113 77 -23 496 -34
519 -15 20 17 22 322 3 337 -7 6 -62 13 -123 16 -131 7 -178 20 -222 64 -61
62 -63 82 -63 615 l0 478 209 0 c177 0 212 2 225 16 23 23 23 295 0 318 -13
14 -48 16 -225 16 l-209 0 0 228 c0 164 -3 231 -12 240 -17 17 -397 17 -403 0z"/>
<path d="M14635 2473 c-60 -16 -95 -67 -95 -136 0 -126 168 -174 249 -71 40
51 22 151 -33 187 -27 18 -90 29 -121 20z m118 -63 c62 -70 17 -170 -78 -170
-64 0 -105 39 -105 100 0 35 6 48 35 77 32 32 39 35 78 30 30 -4 50 -15 70
-37z"/>
<path d="M14630 2345 c0 -59 3 -75 14 -75 9 0 16 12 18 33 l3 32 18 -32 c11
-21 25 -33 38 -33 20 0 20 1 2 30 -13 23 -15 32 -5 42 18 18 14 56 -7 68 -11
5 -33 10 -50 10 l-31 0 0 -75z m68 28 c-5 -26 -38 -29 -38 -4 0 15 6 21 21 21
14 0 19 -5 17 -17z"/>
<path d="M5747 2380 c-201 -25 -409 -135 -523 -278 -63 -80 -121 -199 -152
-311 -24 -89 -26 -111 -26 -311 0 -247 15 -360 68 -502 45 -121 89 -190 176
-279 160 -162 366 -239 645 -239 242 0 449 66 616 197 65 51 139 138 139 164
0 21 -259 229 -286 229 -9 0 -41 -26 -70 -59 -106 -117 -212 -164 -374 -164
-165 0 -278 41 -363 132 -26 28 -57 72 -68 98 -26 61 -53 178 -45 198 5 13 82
15 613 15 366 0 614 4 623 10 12 8 15 36 14 157 -2 430 -144 723 -414 857 -63
31 -125 53 -186 65 -110 23 -294 33 -387 21z m308 -394 c33 -15 74 -38 92 -52
69 -53 123 -165 138 -286 l7 -58 -402 0 -403 0 6 63 c17 173 110 300 255 348
86 29 228 22 307 -15z"/>
<path d="M7755 2383 c-153 -18 -266 -65 -349 -147 -62 -61 -66 -58 -66 39 0
53 -3 66 -19 75 -12 6 -95 10 -200 10 -168 0 -182 -1 -201 -20 -20 -20 -20
-33 -20 -918 0 -858 1 -900 18 -915 16 -15 46 -17 208 -17 135 0 194 4 202 12
9 9 12 155 12 595 0 393 4 599 11 635 36 169 160 276 330 286 137 8 251 -44
321 -148 68 -99 68 -104 68 -765 0 -446 3 -594 12 -603 17 -17 388 -17 412 1
16 12 17 56 13 697 -3 603 -5 692 -20 740 -60 198 -207 350 -397 409 -100 31
-240 46 -335 34z"/>
<path d="M9400 2380 c-173 -16 -318 -66 -438 -150 -119 -83 -193 -187 -222
-309 -11 -48 -11 -56 3 -66 15 -11 345 -55 408 -55 31 0 43 13 53 55 11 44 82
109 151 136 52 20 78 23 185 24 124 0 126 0 195 -35 111 -56 155 -135 155
-281 l0 -76 -292 -6 c-324 -6 -417 -17 -548 -67 -92 -36 -204 -112 -253 -172
-82 -101 -117 -212 -117 -368 0 -171 36 -267 135 -366 139 -141 387 -208 644
-174 156 20 264 63 363 144 31 25 59 46 62 46 3 0 6 -31 6 -69 0 -104 -6 -101
224 -101 153 0 196 3 205 14 9 10 11 195 9 702 -3 687 -3 689 -26 749 -88 236
-324 391 -647 425 -100 11 -132 11 -255 0z m478 -1160 c4 -134 -16 -205 -79
-274 -89 -98 -235 -151 -395 -144 -82 3 -101 8 -160 38 -94 48 -127 96 -132
190 -3 56 0 78 18 115 38 79 132 140 255 165 22 4 141 7 265 6 l225 -1 3 -95z"/>
<path d="M13644 2375 c-98 -18 -135 -30 -234 -81 -164 -84 -257 -178 -335
-339 -51 -107 -72 -183 -87 -328 -16 -147 2 -403 37 -543 107 -421 431 -643
908 -621 273 13 511 117 655 288 23 28 42 61 41 72 0 16 -36 50 -127 121 -70
55 -137 102 -150 104 -18 3 -35 -9 -81 -60 -100 -109 -216 -158 -376 -158
-260 0 -412 115 -460 349 -12 56 -13 76 -4 87 10 12 112 14 620 14 591 0 609
1 619 19 13 25 13 183 -1 291 -35 287 -100 443 -243 586 -120 120 -249 178
-456 203 -110 14 -237 12 -326 -4z m361 -388 c77 -36 140 -97 175 -170 29 -60
56 -186 46 -212 -5 -13 -62 -15 -402 -15 l-397 0 6 58 c16 174 107 303 250
354 82 29 242 21 322 -15z"/>
</g>
</svg>
