<?xml version="1.0" encoding="UTF-8" standalone="no"?>
<!-- Created with Inkscape (http://www.inkscape.org/) -->

<svg
   width="180"
   height="180"
   viewBox="0 0 180 180"
   version="1.1"
   id="svg1"
   xml:space="preserve"
   inkscape:version="1.4.2 (ebf0e940, 2025-05-08)"
   sodipodi:docname="drawing.svg"
   xmlns:inkscape="http://www.inkscape.org/namespaces/inkscape"
   xmlns:sodipodi="http://sodipodi.sourceforge.net/DTD/sodipodi-0.dtd"
   xmlns="http://www.w3.org/2000/svg"
   xmlns:svg="http://www.w3.org/2000/svg"><sodipodi:namedview
     id="namedview1"
     pagecolor="#ffffff"
     bordercolor="#000000"
     borderopacity="0.25"
     inkscape:showpageshadow="2"
     inkscape:pageopacity="0.0"
     inkscape:pagecheckerboard="0"
     inkscape:deskcolor="#d1d1d1"
     inkscape:document-units="px"
     inkscape:zoom="4.6222222"
     inkscape:cx="89.891827"
     inkscape:cy="89.891827"
     inkscape:window-width="1648"
     inkscape:window-height="1186"
     inkscape:window-x="516"
     inkscape:window-y="95"
     inkscape:window-maximized="0"
     inkscape:current-layer="layer1" /><defs
     id="defs1"><style
       id="style1">.cls-1{fill:#693cc5;}.cls-2{fill:#fff;}</style></defs><g
     inkscape:label="Layer 1"
     inkscape:groupmode="layer"
     id="layer1"><g
       id="g1"
       transform="matrix(0.41515844,0,0,0.41515844,120.44234,121.73707)"><path
         fill="#f5a800"
         d="m 67.648,69.797 c -5.246,5.25 -5.246,13.758 0,19.008 5.25,5.246 13.758,5.246 19.004,0 5.25,-5.25 5.25,-13.758 0,-19.008 -5.246,-5.246 -13.754,-5.246 -19.004,0 z m 14.207,14.219 a 6.649,6.649 0 0 1 -9.41,0 6.65,6.65 0 0 1 0,-9.407 6.649,6.649 0 0 1 9.41,0 c 2.598,2.586 2.598,6.809 0,9.407 z M 86.43,3.672 78.195,11.906 a 4.17,4.17 0 0 0 0,5.875 l 32.149,32.149 a 4.17,4.17 0 0 0 5.875,0 l 8.234,-8.235 c 1.61,-1.61 1.61,-4.261 0,-5.87 L 92.29,3.671 a 4.159,4.159 0 0 0 -5.86,0 z M 28.738,108.895 a 3.763,3.763 0 0 0 0,-5.31 l -4.183,-4.187 a 3.768,3.768 0 0 0 -5.313,0 l -8.644,8.649 -0.016,0.012 -2.371,-2.375 c -1.313,-1.313 -3.45,-1.313 -4.75,0 -1.313,1.312 -1.313,3.449 0,4.75 l 14.246,14.242 a 3.353,3.353 0 0 0 4.746,0 c 1.3,-1.313 1.313,-3.45 0,-4.746 l -2.375,-2.375 0.016,-0.012 z m 0,0"
         id="path1" /><path
         fill="#425cc7"
         d="M 72.297,27.313 54.004,45.605 c -1.625,1.625 -1.625,4.301 0,5.926 L 65.3,62.824 c 7.984,-5.746 19.18,-5.035 26.363,2.153 l 9.148,-9.149 c 1.622,-1.625 1.622,-4.297 0,-5.922 L 78.22,27.313 a 4.185,4.185 0 0 0 -5.922,0 z M 60.55,67.585 53.878,60.913 c -1.563,-1.562 -4.125,-1.562 -5.684,0 l -23.53,23.54 a 4.036,4.036 0 0 0 0,5.687 l 13.331,13.332 a 4.036,4.036 0 0 0 5.688,0 L 58.815,88.315 C 55.616,81.706 56.19,73.722 60.55,67.585 Z m 0,0"
         id="path2" /></g><g
       id="Reference"
       transform="matrix(1.5134616,0,0,1.5134616,14.874999,14.033653)"><rect
         id="Orange_Light_BG"
         data-name="Orange Light BG"
         class="cls-1"
         width="75"
         height="75"
         x="0"
         y="0" /><g
         id="Product_Icon"
         data-name="Product Icon"><path
           class="cls-2"
           d="m 49.54,38.5 a 6.22,6.22 0 1 0 0,-2 h -7.46 a 14.11,14.11 0 0 0 -1.4,-5.3 l 9,-7.61 a 6.22,6.22 0 1 0 -2.36,-4.87 6.08,6.08 0 0 0 1,3.4 l -8.7,7.33 a 14.5,14.5 0 1 0 0,16.1 l 8.7,7.33 a 6.08,6.08 0 0 0 -1,3.4 6.21,6.21 0 1 0 2.36,-4.87 l -9,-7.61 a 14.11,14.11 0 0 0 1.4,-5.3 z m 6.12,-5.22 a 4.22,4.22 0 1 1 -4.21,4.22 4.22,4.22 0 0 1 4.21,-4.22 z M 53.58,14.5 a 4.22,4.22 0 1 1 -4.22,4.22 4.22,4.22 0 0 1 4.22,-4.22 z m 0,37.57 a 4.22,4.22 0 1 1 -4.22,4.21 4.22,4.22 0 0 1 4.22,-4.21 z M 27.62,50 A 12.5,12.5 0 1 1 40.12,37.5 12.52,12.52 0 0 1 27.62,50 Z"
           id="path1-8" /></g></g></g></svg>
