<?xml version="1.0" encoding="utf-8"?>
<!-- Generator: Adobe Illustrator 19.2.1, SVG Export Plug-In . SVG Version: 6.00 Build 0)  -->
<svg version="1.1" id="Layer_1" xmlns="http://www.w3.org/2000/svg" xmlns:xlink="http://www.w3.org/1999/xlink" x="0px" y="0px"
	 viewBox="0 0 200 137.2" style="enable-background:new 0 0 200 137.2;" xml:space="preserve">
<style type="text/css">
	.st0{fill:#FF8300;}
	.st1{fill:#55565A;}
	.st2{fill:#00A7CE;}
</style>
<g>
	<path class="st0" d="M56,50.1c-0.9,2.1-2.2,4.2-4.1,6c-4,4-9,5.6-14.2,5.8l19.5,19.5c0.3-5.2,1.8-10.2,5.8-14.2
		c1.8-1.8,3.9-3.1,6-4.1C63,60.9,58.2,56.1,56,50.1z"/>
	<path class="st0" d="M51.7,94.2c7.4-7.4,7.4-19.4,0-26.8c-7.4-7.4-19.4-7.4-26.8,0c-7.4,7.4-7.4,19.4,0,26.8
		C32.3,101.6,44.3,101.6,51.7,94.2"/>
	<path class="st1" d="M90.1,29.1c7.4,7.4,7.4,19.4,0,26.8c-7.4,7.4-19.4,7.4-26.8,0c-7.4-7.4-7.4-19.4,0-26.8
		C70.7,21.7,82.7,21.7,90.1,29.1"/>
	<path class="st2" d="M166.9,29.1c-7.4-7.4-19.4-7.4-26.8,0c-3.6,3.6-5.4,8.2-5.5,12.8l0,0c-0.3,5.2-1.8,10.2-5.8,14.2
		c-1.8,1.8-3.9,3.2-6,4.1c6.1,2.2,10.9,7,13.1,13.1c0.9-2.2,2.2-4.2,4.1-6c4-4,9-5.6,14.2-5.8l0,0c4.7-0.1,9.3-2,12.8-5.5
		C174.3,48.5,174.3,36.5,166.9,29.1z M160.3,49.3c-1.8,1.8-4.3,2.8-6.8,2.8c-2.6,0-5-1-6.8-2.8c-3.8-3.8-3.8-9.9,0-13.7
		c1.8-1.8,4.3-2.8,6.8-2.8c2.6,0,5,1,6.8,2.8c1.8,1.8,2.8,4.3,2.8,6.8C163.2,45.1,162.2,47.5,160.3,49.3z"/>
	<path class="st1" d="M128.5,67.5c7.4,7.4,7.4,19.4,0,26.8c-7.4,7.4-19.4,7.4-26.8,0c-7.4-7.4-7.4-19.4,0-26.8
		C109.1,60.1,121.1,60.1,128.5,67.5"/>
	<path class="st1" d="M101.5,56.1c-4-4-5.6-9-5.8-14.2L76.1,61.4c5.2,0.3,10.2,1.8,14.2,5.8c4,4,5.6,9,5.8,14.2l19.5-19.5
		C110.5,61.7,105.5,60.1,101.5,56.1"/>
</g>
</svg>
