<svg width="32" height="32" xmlns="http://www.w3.org/2000/svg">
  <!-- StatsD logo scaled from 200x200 viewBox to fit in 24x24 area -->
  <g transform="translate(0, 0) scale(0.12)">
    <path d="M0 100v100h200V0H0v100zm23-5v13l20.8.3 20.7.2-21.7.3-21.8.2V95.5c0-8.3.4-13.5 1-13.5s1 5 1 13zm157 0v13h-2.5c-1.4 0-2.5-.5-2.5-1 0-.7-.6-.7-1.9 0-3.1 1.6-6.3 1.2-8.8-1.2-1.8-1.7-2.3-3.2-2.3-7.5 0-6.7 2.4-9.6 8-9.5.3 0 1.5.3 2.8.7 2 .6 2.2.3 2.2-3.4 0-3.7.2-4.1 2.5-4.1h2.5v13zm-76-9c0 2 .5 3 1.5 3 .8 0 1.5.9 1.5 2s-.7 2-1.5 2c-1.2 0-1.5 1.3-1.5 5.5s.3 5.5 1.5 5.5c.8 0 1.5.9 1.5 2 0 1.5-.7 2-2.7 2-4.7 0-5.7-1.3-6.1-8.4-.2-3.6-.8-6.6-1.3-6.6s-.9-.9-.9-2 .5-2 1-2c.6 0 1-.7 1-1.6 0-1.8 2.7-4.3 4.8-4.4.7 0 1.2 1.2 1.2 3zm32 0c0 2 .5 3 1.5 3 .8 0 1.5.9 1.5 2s-.7 2-1.5 2c-1.2 0-1.5 1.3-1.5 5.5s.3 5.5 1.5 5.5c.8 0 1.5.9 1.5 2 0 1.5-.7 2-2.7 2-4.7 0-5.7-1.3-6.1-8.4-.2-3.6-.8-6.6-1.3-6.6s-.9-.9-.9-2 .5-2 1-2c.6 0 1-.7 1-1.6 0-1.8 2.7-4.3 4.8-4.4.7 0 1.2 1.2 1.2 3zm-72.2-.2c-1.3 2.9-6.4 11.2-7 11.2-.4 0-1.6-1.4-2.8-3-1.2-1.7-2.5-3-2.9-3-.5 0-2.4 2.2-4.2 5l-3.4 4.9-3.2-3.7c-1.7-2-3.3-3.5-3.5-3.2-.2.3-2 3.1-4.1 6.2-2 3.2-4.2 5.8-4.7 5.8s.4-2.1 2.1-4.8c1.7-2.6 3.9-5.9 4.8-7.4.9-1.6 1.9-2.8 2.3-2.8.4 0 1.9 1.6 3.4 3.5l2.7 3.5 3.5-5c1.9-2.7 3.8-5 4.1-5 .3.1 1.8 1.7 3.3 3.6l2.7 3.6 2.6-5.1c1.4-2.8 3-5.1 3.6-5.1.6 0 .9.3.7.8zm27.5 4.4c.9.5 1.7 1.5 1.7 2.3 0 1.8-3.3 2-5.9.3-1-.6-2.7-.8-3.7-.4-1.8.7-1.8.8 0 2.2 1.1.8 2.9 1.4 4.1 1.4 5.7 0 8.4 6.1 4.5 10-3.7 3.7-15 1.8-15-2.6 0-1.6 4.5-2 5.5-.4.9 1.4 6.8 1.3 6.3-.2-.2-.6-2.5-1.7-5.1-2.5-5.9-1.7-7.9-4.9-5.4-8.7 2.3-3.5 7.8-4.1 13-1.4zm32.7.4c1 1 1.6 4.1 1.8 9.4.4 7.5.3 8-1.6 8-1.2 0-2.4-.5-2.8-1.1-.4-.8-.9-.8-1.7 0-1.6 1.6-7.3 1.3-9.1-.5-3.8-3.7-.9-8.7 5.7-9.9 4.2-.8 5.2-3.5 1.3-3.5-1.4 0-2.7.4-3 .9-.9 1.4-4.6.1-4.6-1.6 0-3.7 10.5-5 14-1.7zm31.3-.4c.9.5 1.7 1.5 1.7 2.3 0 1.8-3.3 2-5.9.3-1-.6-2.7-.8-3.7-.4-1.8.7-1.8.8 0 2.2 1.1.8 2.9 1.4 4.1 1.4 5.9 0 8.8 7.2 4.3 10.4-4.5 3.2-14.8 1.1-14.8-3 0-1.6 4.5-2 5.5-.4.9 1.4 6.8 1.3 6.3-.2-.2-.6-2.5-1.7-5.1-2.5-5.9-1.7-7.9-4.9-5.4-8.7 2.3-3.5 7.8-4.1 13-1.4z" fill="#000000"/>
    <path d="M167.6 94.6c-1.1 2.8-.6 7.1.9 8.4 3.7 3.1 8-2.4 5.7-7.5-1.3-2.9-5.6-3.5-6.6-.9zM116.3 100c-3.1 1.3-3 4 .2 4 2.1 0 4.5-2.4 4.5-4.4 0-.8-2.1-.6-4.7.4z" fill="#000000"/>
  </g>
  <!-- OpenTelemetry telescope badge -->
  <g transform="translate(17, 17)">
    <path d="M8.648 8.797c-0.746 0.75-0.746 1.958 0 2.708 0.75 0.746 1.958 0.746 2.704 0 0.75-0.75 0.75-1.958 0-2.708-0.746-0.746-1.954-0.746-2.704 0zm2.021 2.023c-0.293 0.296-0.769 0.296-1.062 0-0.293-0.293-0.293-0.769 0-1.062 0.293-0.296 0.769-0.296 1.062 0 0.293 0.293 0.293 0.769 0 1.062zm0.516-9.152l-1.172 1.172c-0.182 0.183-0.182 0.48 0 0.663l4.577 4.577c0.182 0.183 0.48 0.183 0.663 0l1.172-1.172c0.182-0.183 0.182-0.48 0-0.663L11.848 1.668c-0.182-0.183-0.48-0.183-0.663 0zM3.09 16.492c0.165-0.167 0.165-0.438 0-0.605l-0.471-0.472c-0.165-0.166-0.434-0.166-0.6 0l-0.976 0.977-0.268-0.268c-0.148-0.149-0.389-0.149-0.536 0-0.148 0.149-0.148 0.391 0 0.536l1.607 1.606c0.148 0.149 0.389 0.149 0.536 0s0.148-0.391 0-0.536l-0.268-0.268 0.976-0.97zm0 0" fill="#f5a800"/>
    <path d="M9.018 5.485l-2.064 2.086c-0.183 0.184-0.183 0.486 0 0.67l1.274 1.287c1.136-0.818 2.73-0.716 3.752 0.306l1.302-1.302c0.183-0.184 0.183-0.486 0-0.67l-3.601-3.638c-0.183-0.186-0.485-0.186-0.663 0zm-1.678 6.086l-0.949-0.949c-0.177-0.177-0.466-0.177-0.642 0l-3.348 3.351c-0.176 0.178-0.176 0.469 0 0.643l1.896 1.896c0.176 0.178 0.465 0.178 0.643 0l2.153-2.156c-0.455-0.94-0.374-2.076 0.247-2.949zm0 0" fill="#425cc7"/>
  </g>
</svg>
