<?xml version="1.0" standalone="no"?>
<!DOCTYPE svg PUBLIC "-//W3C//DTD SVG 20010904//EN"
 "http://www.w3.org/TR/2001/REC-SVG-20010904/DTD/svg10.dtd">
<svg version="1.0" xmlns="http://www.w3.org/2000/svg"
 width="1042.000000pt" height="1042.000000pt" viewBox="0 0 1042.000000 1042.000000"
 preserveAspectRatio="xMidYMid meet">
<metadata>
Created by potrace 1.16, written by Peter Selinger 2001-2019
</metadata>
<g transform="translate(0.000000,1042.000000) scale(0.100000,-0.100000)"
fill="#000000" stroke="none">
<path d="M315 5498 c-31 -17 -45 -39 -45 -73 0 -18 44 -127 105 -260 119 -260
138 -285 210 -285 72 0 92 27 199 260 55 121 99 205 107 205 11 0 15 -41 19
-208 l5 -209 28 -24 c34 -29 85 -32 116 -6 32 25 40 78 41 250 0 149 1 154 25
177 31 32 75 32 112 1 l28 -24 5 -192 c5 -187 6 -192 29 -211 36 -29 87 -25
122 10 l29 29 0 177 0 177 29 29 c31 31 55 36 94 18 41 -18 47 -49 47 -225 0
-204 11 -233 93 -234 27 0 45 7 62 25 25 24 25 24 25 240 0 246 -6 270 -81
325 -72 52 -193 49 -273 -5 l-36 -24 -52 32 c-45 28 -60 32 -122 32 -62 0 -79
-4 -129 -33 l-58 -33 -32 24 c-87 65 -196 60 -268 -12 -26 -26 -53 -78 -100
-188 l-63 -152 -77 182 c-45 106 -86 188 -99 199 -25 20 -65 23 -95 6z"/>
<path d="M1845 5483 c-23 -22 -21 -28 87 -329 l93 -259 33 -3 c18 -2 39 2 47
8 7 6 46 105 86 221 41 115 75 205 78 198 2 -6 36 -104 76 -218 l72 -206 36
-3 c28 -3 39 2 50 20 31 47 198 531 193 554 -7 27 -38 39 -65 25 -19 -11 -32
-43 -122 -303 -24 -71 -46 -128 -49 -128 -3 0 -36 91 -74 203 -66 194 -88 237
-122 237 -30 0 -52 -43 -119 -238 -38 -111 -72 -199 -76 -194 -5 4 -38 95 -74
202 -76 224 -103 261 -150 213z"/>
<path d="M2860 5487 c-80 -19 -100 -32 -100 -68 0 -41 19 -45 104 -24 147 37
256 -19 256 -131 0 -21 -3 -25 -17 -19 -33 15 -205 18 -260 5 -77 -17 -138
-76 -148 -142 -10 -69 1 -114 41 -158 79 -87 245 -95 349 -16 l35 27 0 -25 c0
-53 57 -74 86 -31 13 21 15 53 12 222 -3 176 -6 203 -24 243 -39 82 -94 115
-209 124 -42 3 -92 0 -125 -7z m197 -308 l63 -11 0 -48 c0 -80 -60 -142 -153
-157 -116 -18 -208 69 -163 155 33 64 117 85 253 61z"/>
<path d="M3327 5482 c-15 -16 -17 -52 -17 -295 0 -237 2 -278 16 -291 21 -21
47 -20 67 2 14 15 17 42 17 154 0 149 12 208 55 264 27 35 77 66 130 78 16 4
36 12 42 18 20 16 16 66 -6 78 -41 22 -138 -16 -189 -75 l-32 -36 0 44 c0 67
-47 100 -83 59z"/>
<path d="M3841 5489 c-53 -16 -109 -56 -141 -101 -83 -114 -79 -302 9 -408 93
-113 284 -131 409 -39 37 27 43 36 40 63 -2 26 -8 32 -32 34 -18 2 -36 -4 -50
-17 -56 -53 -159 -66 -234 -30 -47 23 -88 75 -98 127 l-6 32 209 0 c252 0 249
-1 240 88 -11 107 -65 190 -151 234 -47 24 -145 32 -195 17z m147 -93 c37 -19
68 -55 87 -98 29 -70 35 -68 -161 -68 l-176 0 6 33 c9 45 55 106 96 128 41 22
110 25 148 5z"/>
<path d="M4210 5480 c-31 -31 -27 -93 6 -119 15 -12 37 -21 49 -21 12 0 34 9
49 21 20 16 26 29 26 60 0 50 -27 79 -75 79 -22 0 -43 -8 -55 -20z"/>
<path d="M4892 5449 c-109 -54 -166 -147 -167 -269 0 -62 5 -85 28 -132 30
-62 83 -115 149 -150 35 -19 59 -23 128 -23 72 0 92 4 135 27 28 14 59 36 69
47 20 22 20 22 -11 53 l-31 31 -48 -31 c-79 -53 -145 -54 -221 -6 -141 92
-130 299 20 375 71 37 146 25 229 -33 15 -11 23 -8 50 19 39 39 33 49 -55 93
-51 26 -72 30 -137 30 -66 0 -86 -4 -138 -31z"/>
<path d="M6160 5180 l0 -300 50 0 c47 0 50 2 50 25 l0 25 42 -27 c35 -24 52
-28 109 -28 59 0 73 4 110 30 24 17 53 50 66 75 20 39 23 57 21 137 -3 83 -6
95 -33 135 -67 96 -213 117 -297 41 -17 -15 -18 -11 -18 85 l0 102 -50 0 -50
0 0 -300z m300 52 c109 -79 59 -275 -70 -275 -80 0 -134 68 -127 161 8 114
113 175 197 114z"/>
<path d="M8590 5180 l0 -300 45 0 45 0 0 300 0 300 -45 0 -45 0 0 -300z"/>
<path d="M9740 5180 l0 -300 45 0 45 0 0 58 c0 53 3 61 33 90 l33 32 67 -90
67 -90 55 0 c30 0 55 2 55 5 0 3 -40 59 -89 123 l-88 117 95 100 95 100 -59 3
-59 3 -102 -108 -102 -108 -1 183 0 182 -45 0 -45 0 0 -300z"/>
<path d="M8010 5175 l0 -295 168 0 c154 0 171 2 212 23 52 26 78 59 86 109 10
62 -4 106 -46 147 l-40 38 21 19 c71 64 62 177 -20 231 -32 22 -44 23 -207 23
l-174 0 0 -295z m326 182 c31 -36 30 -67 -2 -98 -23 -22 -36 -24 -130 -27
l-104 -4 0 82 0 82 106 -4 c102 -3 107 -4 130 -31z m-11 -221 c37 -16 55 -42
55 -80 0 -69 -35 -86 -175 -86 l-105 0 0 90 0 90 95 0 c60 0 108 -5 130 -14z"/>
<path d="M5400 5324 c-60 -21 -64 -27 -46 -63 19 -36 21 -36 69 -16 43 18 97
19 130 4 25 -11 40 -34 52 -76 6 -21 4 -22 -27 -15 -18 4 -62 7 -98 7 -118 0
-180 -53 -180 -155 0 -47 4 -56 38 -90 60 -60 160 -67 236 -15 l36 24 0 -24
c0 -23 4 -25 46 -25 l46 0 -4 173 c-3 166 -4 175 -28 210 -37 54 -85 77 -161
77 -35 -1 -84 -8 -109 -16z m188 -240 c45 -12 21 -89 -38 -119 -98 -51 -206
30 -135 100 20 21 33 25 87 25 35 0 73 -3 86 -6z"/>
<path d="M5990 5324 c-19 -8 -45 -25 -57 -36 l-23 -21 0 31 c0 31 -1 32 -45
32 l-45 0 0 -225 0 -225 45 0 45 0 0 131 c0 102 4 139 17 166 18 40 59 68 109
78 32 6 34 8 34 45 0 35 -3 40 -22 40 -13 -1 -39 -8 -58 -16z"/>
<path d="M6826 5325 c-87 -31 -146 -119 -146 -217 0 -79 24 -133 79 -179 100
-86 236 -77 325 22 165 184 -23 458 -258 374z m144 -87 c94 -49 108 -170 28
-246 -97 -90 -249 8 -224 143 11 59 82 123 136 125 9 0 36 -10 60 -22z"/>
<path d="M7400 5329 c-14 -5 -35 -20 -47 -31 l-23 -21 0 26 c0 25 -3 27 -45
27 l-45 0 0 -225 0 -225 44 0 45 0 3 154 c3 148 4 156 27 180 14 15 42 31 62
38 32 9 42 8 71 -9 47 -27 57 -66 57 -225 l1 -138 46 0 46 0 -4 173 c-3 191
-10 216 -70 258 -36 26 -126 36 -168 18z"/>
<path d="M8866 5320 c-26 -10 -50 -21 -53 -24 -6 -6 26 -66 35 -66 4 0 25 7
47 15 52 19 115 19 142 0 19 -14 50 -81 41 -90 -2 -2 -21 0 -43 5 -68 16 -128
12 -175 -12 -164 -83 -89 -294 97 -275 29 3 69 15 88 27 l35 22 0 -21 c0 -18
6 -21 45 -21 l45 0 0 163 c0 149 -2 167 -22 207 -32 63 -83 90 -168 89 -39 0
-84 -7 -114 -19z m192 -236 c32 -9 29 -55 -5 -94 -46 -52 -147 -54 -179 -5
-21 33 -11 70 24 89 27 15 118 21 160 10z"/>
<path d="M9409 5326 c-114 -40 -177 -159 -149 -277 18 -75 93 -151 169 -169
79 -19 181 6 221 55 12 14 10 19 -16 40 -36 30 -38 30 -74 4 -81 -61 -210 15
-210 124 0 93 91 172 170 148 21 -6 43 -18 50 -26 18 -22 33 -19 64 14 l27 28
-31 26 c-54 46 -148 60 -221 33z"/>
</g>
</svg>
