<svg class="MuiBox-root mui-1o7fngh" style="width:100%;fill:#000000" viewBox="0 0 232 30" xmlns="http://www.w3.org/2000/svg"><path fill-rule="evenodd" clip-rule="evenodd" d="M12.99 1.1a.73.73 0 0 1 .57-.27h1.2c.22 0 .43.1.57.28l1.33 1.67h.14a1.38 1.38 0 1 1-1.3.9l-1.1-1.39h-.49l-1.1 1.38a1.38 1.38 0 0 1-1.29 1.88 1.38 1.38 0 1 1 .14-2.77l1.33-1.67Zm-2.28 6.8a.73.73 0 0 0-.58-.28h-.9a.73.73 0 0 0-.6.33l-1.42 2.2a.73.73 0 0 0 0 .8l1.42 2.13-.27 1.59-1.31 1.28c-.1.1-.17.22-.2.35l-.63 2.53a.73.73 0 1 0 1.42.35l.57-2.33 1.34-1.3c.1-.11.18-.25.2-.4l.37-2.11a.73.73 0 0 0-.11-.53l-1.32-1.97.95-1.46h.14l2.19 2.8-.97 7.6-8.5 4.83 2.88-9.34A1.38 1.38 0 1 0 4 14.51L.56 25.64a.73.73 0 0 0 1.06.85l10.42-5.93c.2-.12.34-.32.36-.54l.57-4.43h2.38l.56 4.43c.03.22.17.42.37.54l10.42 5.93a.73.73 0 0 0 1.05-.85L24.32 14.5a1.38 1.38 0 1 0-1.38.47l2.88 9.33-8.5-4.84-.97-7.6 2.19-2.8h.14l.94 1.47-1.31 1.97a.73.73 0 0 0-.11.53l.36 2.1c.03.16.1.3.2.4l1.34 1.31.58 2.33a.73.73 0 1 0 1.42-.35l-.63-2.53a.73.73 0 0 0-.2-.35l-1.31-1.28-.28-1.6 1.42-2.12a.73.73 0 0 0 0-.8l-1.4-2.2a.73.73 0 0 0-.62-.33h-.9c-.22 0-.43.1-.57.28l-2.6 3.32a.73.73 0 0 0-.14.54l.3 2.36h-2.02l.3-2.36a.73.73 0 0 0-.15-.54L10.7 7.9Zm1.42 16.32a.73.73 0 1 0-.78-1.24l-1.38.86a.73.73 0 0 0-.3.88l1.15 3.03c.05.15.16.28.3.36l2.43 1.54a.73.73 0 1 0 .78-1.25L12.1 27l-.84-2.24.87-.54Zm1.9-2.38a.73.73 0 0 1 1.01-.23l3.3 2.07c.3.19.42.55.3.88l-1.1 3a.73.73 0 0 1-1.08.37l-1.5-.94a1.38 1.38 0 0 1-1.87-1.3 1.38 1.38 0 1 1 2.76.13l.62.38.6-1.6-2.8-1.75a.73.73 0 0 1-.24-1.01Zm-.95-15.49a.69.69 0 1 0-1.07.86l1.61 2.02a.69.69 0 0 0 1.08 0l1.61-2.02a.69.69 0 1 0-1.07-.86L14.16 7.7l-1.08-1.35Z" fill="#21f4db"></path><path fill-rule="evenodd" clip-rule="evenodd" d="m133.85 13.7-.16-.05c-2.4-.6-4.34-1.08-4.34-3.17 0-1.66 1.26-2.55 3.65-2.55 2.8 0 4.12 1.26 4.41 3.57h3.08c-.29-3.86-3.13-6.09-7.5-6.09-4.12 0-6.69 1.9-6.69 5.23 0 3.65 3.29 4.64 6.3 5.42l.5.12c3.16.8 4.85 1.23 4.85 3.55 0 1.74-.96 3.08-4.01 3.08-3.6 0-5.12-1.74-5.34-4.32h-3.05c.19 4.32 3.62 6.84 8.46 6.84 4.77 0 7.02-2.46 7.02-5.76 0-4.05-3.48-4.94-7.18-5.87Zm-93.33-.05.16.05c3.7.93 7.18 1.82 7.18 5.87 0 3.3-2.25 5.76-7.02 5.76-4.84 0-8.27-2.52-8.46-6.84h3.05c.22 2.58 1.74 4.32 5.33 4.32 3.06 0 4.02-1.34 4.02-3.08 0-2.32-1.7-2.75-4.85-3.55l-.5-.12c-3.01-.78-6.3-1.77-6.3-5.42 0-3.33 2.57-5.23 6.7-5.23 4.36 0 7.2 2.23 7.5 6.09h-3.08c-.3-2.3-1.61-3.57-4.42-3.57-2.39 0-3.65.89-3.65 2.55 0 2.1 1.95 2.58 4.34 3.17ZM196.65 6h2.97v2.84h-2.97V6ZM61.95 23.35c-.51 0-.66-.51-.66-1.5v-6.28c0-3.54-2.25-4.71-5.06-4.71-4.18 0-5.9 2.06-6.02 4.69h2.67c.14-1.83.86-2.58 3.24-2.58 2.01 0 2.6.83 2.6 1.83 0 1.34-1.31 1.6-3.45 2-3.4.66-5.7 1.56-5.7 4.61 0 2.33 1.73 3.92 4.47 3.92 2.22 0 3.77-.89 4.68-2.3h.05c.14 1.55.86 2.06 2.15 2.06.45 0 .9-.06 1.34-.16v-1.61c-.1.02-.2.03-.31.03Zm-3.21-3.73c0 2.39-1.75 3.6-4.1 3.6-1.64 0-2.3-.7-2.3-1.98 0-1.43.99-2.07 3.4-2.58 1.4-.3 2.57-.59 3-.98v1.94Zm8.44 5.33h-2.63V11.28h2.63V13h.06c.72-1.05 2.14-2.12 4.5-2.12 2.51 0 4.55 1.45 4.55 4.59v9.48h-2.65V16.2c0-1.82-.79-3.06-2.76-3.06-2.25 0-3.7 1.37-3.7 3.43v8.4ZM88.88 5.8v7.15h-.06a4.84 4.84 0 0 0-4.2-2.06c-3.49 0-6.11 2.74-6.11 7.24s2.63 7.22 6.1 7.22a5.07 5.07 0 0 0 4.2-1.98h.06v1.6h2.67V5.8h-2.67Zm-3.84 17.37c-2.57 0-3.8-2.36-3.8-5.04s1.23-5.04 3.8-5.04c2.36 0 3.83 1.93 3.83 5.04 0 3.1-1.47 5.04-3.83 5.04Zm13.03-9.7v11.5h-2.63v-11.5h-1.87v-2.18h1.87V9.62c0-3.16 1.32-4.02 3.54-4.02.56.01 1.11.07 1.66.16v2.12a8.44 8.44 0 0 0-1.12-.08c-1.1 0-1.45.32-1.45 1.77v1.71h2.57v2.18h-2.57Zm7.2-7.67h-2.62v19.16h2.63V5.8Zm4.47 21.71c1.07 0 2.28-.53 2.84-2.68l-5.54-13.54h2.86l4 10.46h.06l3.78-10.46h2.73l-5.4 14c-1.34 3.37-2.65 4.47-4.76 4.47-.57 0-1.14-.06-1.7-.18v-2.15c.38.05.76.08 1.13.08Zm39.8-16.64c4.16 0 6.48 2.73 6.48 6.97 0 .37 0 .77-.02 1h-10.5c.06 2.3 1.4 4.4 4.1 4.4 2.41 0 3.32-1.56 3.59-2.47h2.65c-.7 2.63-2.7 4.6-6.3 4.6-4.33 0-6.74-3.08-6.74-7.26 0-4.3 2.59-7.24 6.74-7.24Zm-.07 2.14c-2.2 0-3.8 1.5-3.97 3.76h7.77a3.6 3.6 0 0 0-3.8-3.76Zm18.36 3.24h2.74c-.33-3.08-2.66-5.36-6.17-5.36-4.04 0-6.69 2.96-6.69 7.24s2.65 7.24 6.72 7.24c3.48 0 5.95-2.33 6.14-5.46h-2.74c-.1 1.55-.9 3.26-3.43 3.26-2.89 0-3.94-2.46-3.94-5.03 0-2.58 1.07-5.07 3.94-5.07 2.52 0 3.32 1.76 3.43 3.18Zm7.48-4.96v8.74c0 1.85.8 3.07 2.76 3.09 2.25 0 3.7-1.37 3.7-3.44v-8.39h2.63v13.67h-2.63v-1.71h-.05c-.73 1.05-2.15 2.09-4.5 2.09-2.52 0-4.56-1.45-4.56-4.58v-9.47h2.65Zm11.86 0v13.68h2.63v-7.08c0-2.6 1.71-4.4 4.1-4.4.3 0 .6.03.88.08v-2.52a9.21 9.21 0 0 0-1.26-.08c-1.84 0-2.96 1.2-3.67 2.92h-.05v-2.6h-2.63Zm9.67 0h2.62v13.68h-2.62V11.28Zm4.77 0v2.18h1.97v7.63c0 3.17 1.37 4.03 3.6 4.03.56 0 1.13-.05 1.68-.17v-2.11c-.37.07-.75.1-1.12.1-1.13 0-1.53-.33-1.53-1.76v-7.72h2.63v-2.18h-2.63v-4.4h-2.63v4.4h-1.97Zm11.44 15.93c1.06 0 2.25-.53 2.81-2.65l-5.49-13.4h2.83l3.95 10.35h.06l3.74-10.35h2.7L218.34 25c-1.33 3.34-2.63 4.43-4.72 4.43-.56 0-1.12-.06-1.67-.19v-2.12c.37.05.74.08 1.11.08Z" fill="currentColor"></path><path d="M225.35 8.55v-2.4h1.22c.1 0 .2.03.31.09a.74.74 0 0 1 .42.68.78.78 0 0 1-.44.73.73.73 0 0 1-.33.1h-.88v-.4h.71c.07 0 .15-.04.23-.1.09-.08.13-.19.13-.33 0-.15-.04-.25-.13-.3a.42.42 0 0 0-.21-.08h-.5v2.01h-.53Zm1.45-1.13.6 1.13h-.58l-.59-1.13h.57Zm-.54 2.57a2.55 2.55 0 0 1-1.84-.77 2.6 2.6 0 1 1 1.84.77Zm0-.63c.36 0 .7-.09 1-.27.3-.17.53-.41.71-.71a2.02 2.02 0 0 0 0-2c-.18-.3-.42-.53-.72-.7-.3-.19-.63-.28-1-.28a2.02 2.02 0 0 0-1.71.98c-.17.3-.26.64-.26 1a2.02 2.02 0 0 0 .98 1.71c.3.18.63.27 1 .27Z" fill="currentColor"></path></svg>