<svg width="64" height="64" viewBox="0 0 64 64" fill="none" xmlns="http://www.w3.org/2000/svg">
<g clip-path="url(#clip0_0_6267)">
<mask id="mask0_0_6267" style="mask-type:luminance" maskUnits="userSpaceOnUse" x="13" y="40" width="44" height="19">
<path fill-rule="evenodd" clip-rule="evenodd" d="M13.9296 40.4773H56.07V58.9999H13.9296V40.4773Z" fill="white"/>
</mask>
<g mask="url(#mask0_0_6267)">
<path fill-rule="evenodd" clip-rule="evenodd" d="M45.5176 40.8779C44.0096 40.2389 42.2716 40.3659 40.8926 41.2479C39.1906 42.3359 37.1696 42.9689 34.9996 42.9689C32.8296 42.9689 30.8096 42.3359 29.1076 41.2479C27.7286 40.3659 25.9906 40.2389 24.4826 40.8779C20.3316 42.6369 16.7116 45.4059 13.9296 48.8749C18.8786 55.0449 26.4756 58.9999 34.9996 58.9999C43.5246 58.9999 51.1216 55.0449 56.0706 48.8749C53.2886 45.4059 49.6676 42.6369 45.5176 40.8779Z" fill="#1BA9F5"/>
</g>
<mask id="mask1_0_6267" style="mask-type:luminance" maskUnits="userSpaceOnUse" x="13" y="40" width="44" height="19">
<path fill-rule="evenodd" clip-rule="evenodd" d="M13.9296 40.4773H56.07V58.9999H13.9296V40.4773Z" fill="white"/>
</mask>
<g mask="url(#mask1_0_6267)">
<path fill-rule="evenodd" clip-rule="evenodd" d="M45.5176 40.8779C44.0096 40.2389 42.2716 40.3659 40.8926 41.2479C39.1906 42.3359 37.1696 42.9689 34.9996 42.9689C32.8296 42.9689 30.8096 42.3359 29.1076 41.2479C27.7286 40.3659 25.9906 40.2389 24.4826 40.8779C20.3316 42.6369 16.7116 45.4059 13.9296 48.8749C18.8786 55.0449 26.4756 58.9999 34.9996 58.9999C43.5246 58.9999 51.1216 55.0449 56.0706 48.8749C53.2886 45.4059 49.6676 42.6369 45.5176 40.8779Z" fill="#1BA9F5"/>
</g>
<path fill-rule="evenodd" clip-rule="evenodd" d="M35 5C26.476 5 18.879 8.955 13.93 15.125C16.712 18.594 20.332 21.363 24.482 23.122C25.99 23.761 27.729 23.634 29.107 22.752C30.81 21.664 32.83 21.031 35 21.031C37.17 21.031 39.19 21.664 40.893 22.752C42.271 23.634 44.01 23.761 45.518 23.122C49.668 21.363 53.288 18.594 56.07 15.125C51.121 8.955 43.524 5 35 5Z" fill="#0077CC"/>
<path fill-rule="evenodd" clip-rule="evenodd" d="M40.9063 32C40.9063 35.262 38.2613 37.906 35.0003 37.906C31.7383 37.906 29.0933 35.262 29.0933 32C29.0933 28.738 31.7383 26.094 35.0003 26.094C38.2613 26.094 40.9063 28.738 40.9063 32Z" fill="#343741"/>
<path fill-rule="evenodd" clip-rule="evenodd" d="M24.4824 23.1221C20.3324 21.3631 16.7114 18.5941 13.9294 15.1251C13.9294 15.1241 13.9304 15.1241 13.9304 15.1231C10.2204 19.7451 8.00043 25.6121 8.00043 32.0001C8.00043 36.5191 9.11643 40.7761 11.0794 44.5181C14.2384 40.9631 18.1644 38.1251 22.5314 36.2741C23.2224 35.9821 23.9364 35.7771 24.6654 35.6451C24.2614 34.5031 24.0314 33.2801 24.0314 32.0001C24.0314 27.9421 26.2404 24.4081 29.5154 22.5111C29.3784 22.5901 29.2404 22.6671 29.1074 22.7521C27.7284 23.6341 25.9904 23.7611 24.4824 23.1221Z" fill="#343741"/>
</g>
<defs>
<clipPath id="clip0_0_6267">
<rect width="64" height="64" fill="white"/>
</clipPath>
</defs>
</svg>
