<?xml version="1.0" standalone="no"?>
<!DOCTYPE svg PUBLIC "-//W3C//DTD SVG 20010904//EN"
 "http://www.w3.org/TR/2001/REC-SVG-20010904/DTD/svg10.dtd">
<svg version="1.0" xmlns="http://www.w3.org/2000/svg"
 width="300.000000pt" height="123.000000pt" viewBox="0 0 300.000000 123.000000"
 preserveAspectRatio="xMidYMid meet">

<g transform="translate(0.000000,123.000000) scale(0.100000,-0.100000)"
fill="#000000" stroke="none">
<path d="M683 1065 c0 -8 4 -15 9 -15 4 0 8 4 8 9 0 6 -4 12 -8 15 -5 3 -9 -1
-9 -9z"/>
<path d="M763 1065 c-8 -23 26 -55 59 -55 62 0 139 -71 153 -143 4 -18 9 -40
12 -51 3 -12 1 -16 -6 -12 -6 4 -11 2 -11 -3 0 -21 -43 -10 -77 19 -18 17 -40
30 -47 30 -18 0 -42 -30 -50 -61 -7 -33 -206 -236 -298 -305 -75 -57 -148 -84
-173 -64 -21 18 -55 114 -61 179 -11 98 29 223 94 296 l27 30 -32 -29 c-17
-15 -45 -57 -63 -92 -31 -63 -59 -90 -39 -38 5 15 7 29 5 31 -3 3 -12 -19 -20
-48 -22 -74 -20 -193 4 -271 11 -34 20 -66 20 -69 0 -4 -19 -9 -41 -13 -77
-12 -137 -100 -94 -136 12 -10 25 -10 53 -3 22 6 74 8 127 4 76 -5 96 -10 130
-34 94 -65 262 -86 384 -48 110 34 205 111 265 214 22 37 104 325 106 370 0 4
-15 7 -33 7 l-33 0 -32 -139 c-36 -154 -64 -217 -123 -285 -22 -25 -39 -47
-37 -50 2 -2 -1 -8 -6 -13 -5 -5 -6 -3 -2 4 4 7 3 13 -2 13 -12 0 -34 -25 -27
-31 2 -3 -4 -5 -13 -6 -9 -1 -42 -11 -72 -22 -98 -36 -250 -24 -329 26 -24 16
-24 16 51 43 116 42 248 115 310 170 35 31 76 56 107 67 90 29 108 61 71 133
-18 35 -18 41 -5 74 43 102 -8 213 -133 290 -53 33 -110 43 -119 21z m113 -31
c18 -14 18 -14 -6 -3 -31 14 -36 19 -24 19 6 0 19 -7 30 -16z m-56 -4 c0 -5
-4 -10 -10 -10 -5 0 -10 5 -10 10 0 6 5 10 10 10 6 0 10 -4 10 -10z m126 -52
l29 -33 -32 29 c-31 28 -38 36 -30 36 2 0 16 -15 33 -32z m-76 -168 c0 -5 -4
-10 -9 -10 -6 0 -13 5 -16 10 -3 6 1 10 9 10 9 0 16 -4 16 -10z m82 -43 c-12
-5 -26 -5 -36 0 -12 7 -7 9 20 9 30 0 33 -2 16 -9z m221 -14 c-7 -2 -21 -2
-30 0 -10 3 -4 5 12 5 17 0 24 -2 18 -5z m-268 -30 c26 -30 32 -47 14 -41 -12
4 -54 68 -45 68 4 0 18 -12 31 -27z m246 -23 c11 0 2 -59 -11 -73 -11 -13 -22
58 -13 90 7 26 8 26 11 6 2 -13 8 -23 13 -23z"/>
<path d="M618 1043 c7 -3 16 -2 19 1 4 3 -2 6 -13 5 -11 0 -14 -3 -6 -6z"/>
<path d="M484 1004 c-18 -14 -18 -14 6 -3 31 14 36 19 24 19 -6 0 -19 -7 -30
-16z"/>
<path d="M422 963 c-24 -24 -24 -25 -2 -8 42 33 44 35 37 35 -4 0 -19 -12 -35
-27z"/>
<path d="M348 943 c-39 -42 -88 -112 -88 -127 0 -6 14 12 31 40 17 27 47 66
67 87 20 20 34 37 31 37 -3 0 -21 -17 -41 -37z"/>
<path d="M1137 823 c-4 -3 -7 -15 -7 -25 0 -16 6 -19 33 -16 24 2 33 8 35 26
3 18 -1 22 -26 22 -16 0 -32 -3 -35 -7z"/>
<path d="M1470 826 c0 -3 -18 -86 -40 -185 -22 -99 -40 -185 -40 -191 0 -18
58 -12 64 8 13 43 56 265 53 269 -3 2 -10 -17 -16 -42 -11 -46 -24 -57 -35
-30 -6 17 10 118 24 153 6 14 6 22 0 22 -6 0 -10 -2 -10 -4z"/>
<path d="M1516 789 c-4 -23 -5 -44 -2 -46 2 -2 7 14 11 37 4 23 5 43 2 46 -2
3 -7 -14 -11 -37z"/>
<path d="M1762 643 c-23 -104 -42 -191 -42 -195 0 -5 13 -8 29 -8 28 0 30 4
43 58 l13 57 3 -57 c3 -57 4 -58 32 -58 l30 0 0 84 c0 74 4 94 35 165 27 64
31 81 19 81 -8 0 -12 -4 -9 -10 3 -5 0 -10 -7 -10 -7 0 -24 -28 -38 -63 -20
-48 -30 -63 -49 -65 -16 -3 -22 1 -19 10 3 7 9 13 14 13 19 0 32 16 49 62 10
26 23 52 29 56 7 6 6 7 -4 5 -8 -3 -24 -29 -37 -59 -26 -63 -29 -49 -8 36 17
72 18 85 5 85 -5 0 -7 -6 -5 -12 7 -20 -29 -161 -41 -165 -21 -7 -22 36 -5
107 10 38 15 70 11 70 -4 0 -25 -84 -48 -187z"/>
<path d="M2006 814 c-11 -29 -6 -35 25 -32 22 2 34 10 40 26 8 20 5 22 -25 22
-22 0 -36 -6 -40 -16z"/>
<path d="M1258 753 c-19 -22 -71 -240 -66 -280 3 -25 7 -28 42 -31 84 -7 91 2
124 148 33 143 34 156 17 170 -9 7 -18 10 -22 6 -3 -3 -1 -6 5 -6 7 0 12 -4
12 -9 0 -5 -17 -7 -38 -4 -28 4 -43 0 -55 -12 -21 -20 -22 -46 -3 -39 12 5 13
0 4 -30 -14 -43 -25 -31 -26 26 -1 26 6 46 19 59 10 10 15 19 11 19 -5 0 -16
-8 -24 -17z m77 -23 c3 -5 11 -8 18 -6 7 1 8 1 4 -2 -4 -2 -3 -10 3 -18 9 -10
9 -22 0 -49 -10 -30 -13 -33 -26 -20 -10 10 -13 26 -8 54 5 33 3 40 -12 44
-16 4 -16 5 -2 6 9 0 19 -3 23 -9z m-15 -17 c0 -5 -11 -55 -24 -112 -13 -58
-22 -111 -19 -118 6 -15 -23 -18 -32 -3 -3 6 -1 10 4 10 6 0 10 3 9 8 -6 21
42 222 53 222 5 0 9 -3 9 -7z"/>
<path d="M1698 759 c6 -7 12 -18 12 -23 0 -6 -5 -5 -12 2 -22 22 -76 15 -94
-13 -21 -32 -28 -27 -14 11 9 23 9 26 -1 17 -12 -12 -69 -240 -69 -279 0 -26
17 -34 71 -34 52 0 74 24 89 97 6 32 18 83 26 114 19 76 18 105 -3 114 -15 5
-16 4 -5 -6z m-33 -29 c4 -6 11 -8 16 -4 5 3 9 2 8 -3 -4 -20 2 -27 12 -13 9
12 10 12 5 -3 -3 -10 -6 -26 -6 -35 0 -9 -5 -24 -10 -32 -15 -25 -35 5 -31 49
2 31 -1 40 -16 44 -15 4 -16 5 -1 6 9 0 20 -4 23 -9z m-50 -42 c-9 -55 -21
-68 -27 -29 -2 16 -1 28 4 25 4 -3 10 7 14 21 10 41 16 29 9 -17z m12 -96
c-15 -63 -20 -102 -14 -102 7 0 7 -4 0 -11 -7 -7 -20 -9 -30 -5 -11 4 -13 10
-7 14 6 4 19 48 29 97 21 104 36 148 42 124 2 -8 -7 -61 -20 -117z"/>
<path d="M1996 753 c-10 -36 -66 -291 -66 -302 0 -6 13 -11 30 -11 23 0 31 5
35 23 22 93 65 293 65 299 0 5 -13 8 -29 8 -20 0 -31 -6 -35 -17z m47 0 c-7
-2 -19 -2 -25 0 -7 3 -2 5 12 5 14 0 19 -2 13 -5z m-22 -57 c10 6 11 -11 3
-43 -9 -34 -31 -6 -25 31 2 17 6 25 8 18 3 -6 9 -10 14 -6z"/>
<path d="M2238 757 c9 -11 2 -13 -36 -13 -34 1 -46 -3 -44 -12 1 -8 -2 -11 -7
-8 -5 4 -12 0 -15 -6 -3 -7 -4 0 -2 17 4 28 3 28 -10 10 -8 -10 -14 -26 -14
-34 0 -9 -3 -26 -6 -39 -6 -22 -4 -23 27 -20 28 2 35 8 37 28 2 14 8 30 14 35
7 7 9 -5 4 -38 -4 -31 -2 -46 4 -42 6 3 10 1 10 -4 0 -6 -22 -22 -50 -36 -51
-26 -65 -25 -32 2 15 13 14 13 -8 1 -18 -11 -29 -30 -39 -71 -19 -80 -15 -85
63 -86 60 0 66 2 71 22 30 129 55 250 55 270 0 14 -7 28 -16 31 -13 5 -14 4
-6 -7z m-41 -23 c-3 -3 -12 -4 -19 -1 -8 3 -5 6 6 6 11 1 17 -2 13 -5z m34
-13 c6 9 9 0 9 -26 0 -52 -13 -73 -34 -56 -8 7 -13 18 -11 24 2 7 7 26 10 42
4 17 10 24 12 16 5 -11 7 -11 14 0z m-71 -35 c0 -15 -18 -31 -26 -23 -7 7 7
37 17 37 5 0 9 -6 9 -14z m-9 -166 c-7 -22 -7 -30 2 -30 8 0 8 -3 0 -11 -7 -7
-19 -8 -30 -4 -12 5 -14 9 -5 12 6 3 12 11 12 18 0 8 5 26 11 42 15 37 24 12
10 -27z"/>
<path d="M1285 305 c-9 -56 -28 -85 -46 -67 -15 14 -29 16 -29 2 0 -14 37 -31
55 -24 21 9 32 31 40 87 5 31 4 47 -3 47 -6 0 -14 -20 -17 -45z"/>
<path d="M1341 293 c-13 -68 -13 -73 -2 -73 5 0 12 24 16 53 l8 52 9 -52 c5
-29 14 -53 19 -53 5 0 21 24 34 53 25 52 25 52 19 14 -3 -21 -8 -45 -11 -53
-3 -8 0 -14 5 -14 13 0 18 18 28 83 5 40 4 47 -10 47 -10 0 -25 -19 -39 -47
l-22 -48 -3 48 c-2 37 -7 47 -21 47 -14 0 -21 -13 -30 -57z"/>
<path d="M1517 315 c17 -35 17 -35 -12 -65 -33 -34 -14 -42 21 -9 l22 21 7
-21 c3 -12 13 -21 21 -21 12 0 12 5 -2 31 -15 31 -15 32 17 65 22 23 28 34 18
34 -9 0 -26 -11 -39 -25 l-24 -26 -13 26 c-21 39 -35 30 -16 -10z"/>
<path d="M2000 330 c-29 -29 -28 -98 2 -109 27 -10 53 -4 69 15 18 22 2 29
-21 9 -25 -23 -50 -13 -50 20 0 54 38 83 68 53 17 -17 28 -2 12 17 -17 21 -56
19 -80 -5z"/>
<path d="M2575 340 c-3 -5 1 -10 9 -10 9 0 16 5 16 10 0 6 -4 10 -9 10 -6 0
-13 -4 -16 -10z"/>
<path d="M2740 340 c0 -5 5 -10 10 -10 6 0 10 5 10 10 0 6 -4 10 -10 10 -5 0
-10 -4 -10 -10z"/>
<path d="M1692 298 c-20 -20 -15 -66 9 -78 16 -9 26 -8 45 5 41 27 27 85 -21
85 -12 0 -26 -5 -33 -12z m53 -9 c12 -19 -4 -59 -24 -59 -26 0 -33 23 -15 49
17 23 29 27 39 10z"/>
<path d="M1810 301 c0 -3 -4 -23 -9 -43 -12 -50 2 -48 22 3 20 51 43 48 39 -5
-2 -20 1 -36 6 -36 11 0 24 69 16 81 -5 9 -74 9 -74 0z"/>
<path d="M2125 300 c-4 -7 2 -9 19 -4 20 5 26 2 26 -9 0 -10 -11 -17 -27 -19
-22 -2 -28 -8 -28 -28 0 -22 4 -25 30 -22 38 4 37 4 39 49 1 34 -2 38 -26 41
-14 2 -29 -2 -33 -8z m43 -52 c-7 -19 -38 -22 -38 -4 0 10 9 16 21 16 12 0 19
-5 17 -12z"/>
<path d="M2221 252 c-13 -68 -14 -72 -1 -72 6 0 10 9 10 21 0 17 4 20 23 16
28 -8 43 2 55 34 15 37 -2 59 -42 57 -33 -1 -34 -3 -45 -56z m67 36 c13 -17
-3 -58 -23 -58 -21 0 -29 24 -15 49 12 24 23 26 38 9z"/>
<path d="M2352 297 c-14 -16 -4 -32 26 -41 33 -11 15 -28 -21 -21 -30 6 -31 5
-13 -10 24 -19 37 -19 61 -1 23 17 14 43 -17 48 -31 4 -24 24 8 21 13 -1 22 2
19 8 -9 13 -51 11 -63 -4z"/>
<path d="M2465 300 c-4 -6 3 -9 16 -7 12 1 24 -4 26 -10 3 -8 -5 -13 -20 -13
-13 0 -30 -7 -37 -15 -18 -22 3 -43 39 -37 24 3 30 10 34 40 4 19 4 39 1 44
-7 11 -51 10 -59 -2z m35 -50 c0 -12 -28 -25 -36 -17 -9 9 6 27 22 27 8 0 14
-5 14 -10z"/>
<path d="M2567 293 c-14 -52 -16 -73 -8 -73 13 0 17 8 25 53 7 37 -8 54 -17
20z"/>
<path d="M2626 294 c-38 -37 -1 -98 44 -74 21 11 27 30 11 30 -6 0 -13 -4 -16
-10 -12 -19 -35 -10 -35 14 0 33 25 53 45 36 17 -14 31 -8 20 9 -9 16 -51 13
-69 -5z"/>
<path d="M2726 269 c-6 -38 -2 -59 8 -48 10 10 17 89 8 89 -5 0 -12 -19 -16
-41z"/>
<path d="M2786 291 c-16 -59 -16 -73 -4 -69 7 3 14 16 16 31 4 29 26 52 42 42
6 -4 8 -20 4 -41 -4 -20 -2 -34 4 -34 10 0 24 68 16 81 -9 15 -73 7 -78 -10z"/>
</g>
</svg>
