<svg xmlns="http://www.w3.org/2000/svg" viewBox="0 0 29 35">
  <path fill="#287CD7" d="M28.601 16.472a1 1 0 0 0 .295-.728 1.01 1.01 0 0 0-.525-.897v-4.203a.9.9 0 0 0 .272-.188.9.9 0 0 0 .188-.287.92.92 0 0 0 0-.676.9.9 0 0 0-.188-.286.8.8 0 0 0-.281-.193.87.87 0 0 0-.663 0l-.105.061-2.301-1.338c0-.028.032-.052.046-.085a1.2 1.2 0 0 0-.249-1.277 1.2 1.2 0 0 0-.372-.254 1.1 1.1 0 0 0-.46-.089 1.14 1.14 0 0 0-.967.545l-7.72-4.541q.055-.165.055-.338a1.1 1.1 0 0 0-.088-.47 1.05 1.05 0 0 0-.248-.38 1.1 1.1 0 0 0-.373-.259 1.157 1.157 0 0 0-1.519.639 1.1 1.1 0 0 0-.087.47q.003.152.041.3l-5.76 3.386a1 1 0 0 0-.235-.146 1 1 0 0 0-.382-.075 1 1 0 0 0-.382.075 1.05 1.05 0 0 0-.538.555c-.05.123-.075.256-.074.39q-.003.067 0 .136L1.55 8.92a1.2 1.2 0 0 0-.22-.136.93.93 0 0 0-.732 0 .92.92 0 0 0-.52.53 1 1 0 0 0-.074.376q0 .194.074.371.074.18.207.32.103.101.23.169v14.032a1 1 0 0 0-.12.103 1.18 1.18 0 0 0-.336.85 1.2 1.2 0 0 0 .088.47 1.17 1.17 0 0 0 .62.634c.147.06.303.09.46.089.15-.001.3-.031.438-.09l.092-.05 6.212 3.639 5.586 3.287c.007.12.034.24.078.352q.09.213.249.38a1.15 1.15 0 0 0 1.27.254 1.15 1.15 0 0 0 .62-.634c.062-.148.091-.309.088-.47a1 1 0 0 0 0-.173l11.32-6.697q.061.04.128.07c.146.06.303.091.46.09a1.15 1.15 0 0 0 1.081-.723 1.2 1.2 0 0 0 .088-.47 1.1 1.1 0 0 0-.087-.47 1.04 1.04 0 0 0-.249-.38 1 1 0 0 0-.188-.155v-7.843q.105-.075.188-.173m-1.606-1.189a.3.3 0 0 0-.036.07 1 1 0 0 0-.079.395 1 1 0 0 0 0 .09l-5.972 2.108 2.682-7.514zm-3.819-7.917c.032.253.145.487.322.667l.042.037-.189.53-1.371-1.925zm-.18 2.23-2.944 8.2-2.107-1.977v-.075a.8.8 0 0 0-.065-.329.84.84 0 0 0-.777-.53.7.7 0 0 0-.143 0l-2.227-2.105 6.216-6.105zm-5.52 14.493a1 1 0 0 0 .197.3l-1.058 2.964-3.562.803c-.027-.029-.046-.061-.073-.09a1.14 1.14 0 0 0-.8-.338h-.157l-2.471-4.297a.2.2 0 0 0 .027-.051.8.8 0 0 0 .065-.33 1 1 0 0 0 0-.187l9.851-3.475-1.224 3.423a.9.9 0 0 0-.474.17.923.923 0 0 0-.386.751 1 1 0 0 0 .055.357zM8.911 22.21h-.055l-1.325-2.338 6.58-6.462 2.2 2.061a.8.8 0 0 0-.052.277q.002.171.065.33a.9.9 0 0 0 .184.276.74.74 0 0 0 .276.188.82.82 0 0 0 .644 0l2.066 1.916zm-.865.31L2.986 24.32l3.906-3.828zm4.086-12.656a.965.965 0 0 0-.888-.601 1 1 0 0 0-.235.033l-.85-.794 9.473-1.71-5.521 5.416-1.933-1.804a1 1 0 0 0 0-.164 1 1 0 0 0-.046-.376M7.992 6.051l5.807-3.414q.11.087.239.145.221.095.46.09c.15 0 .3-.03.437-.09q.111-.049.212-.117l5.269 3.1-11.044 1.99-1.417-1.328a1 1 0 0 0 .037-.221 1 1 0 0 0-.028-.155zm-.856 1.136a.8.8 0 0 0 .248-.065h.042l.897.845-1.49.268zm-.58 1.968 2.563-.47 1.256 1.184a1 1 0 0 0 .212 1.056.9.9 0 0 0 .313.212c.115.05.239.075.363.075a.9.9 0 0 0 .369-.075l.06-.033 1.84 1.705-6.46 6.283L4.77 15.1zM6.28 7.051 5.89 8.385l-2.729.493zM1.881 9.963a.4.4 0 0 0 .13 0h.073l3.524-.634-1.38 4.748L1.9 10.024c-.033-.028-.028-.061-.019-.061m-.616 14.013V10.714l2.586 4.499-.695 2.348a.92.92 0 0 0-.451.484 1 1 0 0 0 0 .728c0 .042.041.075.06.112zm2.25-4.621h.05a.92.92 0 0 0 .658-.277.956.956 0 0 0 0-1.334.8.8 0 0 0-.188-.145l.405-1.372 1.997 3.476-4.247 4.156zm4.422 9.918-5.678-3.301a1.2 1.2 0 0 0 .087-.517l5.715-2.014q.061.13.16.235.12.12.277.183a.75.75 0 0 0 .322.065h.032l2.448 4.26a1.1 1.1 0 0 0-.152.258q-.027.075-.046.15zm5.797 3.39L9.05 29.94l2.167-.47q.072.132.175.24a1.1 1.1 0 0 0 .806.338 1 1 0 0 0 .16 0l1.464 2.55zm1.17-.469a1.2 1.2 0 0 0-.226 0h-.083l-1.5-2.61a1 1 0 0 0 .147-.254q.06-.158.074-.33l2.958-.657zm.869.113 1.5-4.194 9.124-2.005zm1.84-5.166.92-2.522a.865.865 0 0 0 .621-.54.96.96 0 0 0 0-.709.8.8 0 0 0-.105-.188l1.38-3.865 6.198 5.842zm9.994-2.817q-.158.016-.308.075l-.12.065-6.05-5.658 6.188-2.203a1 1 0 0 0 .17.094l.116.033zm0-9.684-3.68-5.208.386-1.09c.139 0 .277-.028.405-.084l2.443 1.409a1 1 0 0 0 0 .117q0 .177.07.338a.9.9 0 0 0 .183.287q.09.084.198.146z"/>
</svg>

