<?xml version="1.0" encoding="UTF-8"?>
<svg xmlns="http://www.w3.org/2000/svg" xmlns:xlink="http://www.w3.org/1999/xlink" width="37px" height="32px" viewBox="0 0 36 32" version="1.1">
<defs>
<filter id="alpha" filterUnits="objectBoundingBox" x="0%" y="0%" width="100%" height="100%">
  <feColorMatrix type="matrix" in="SourceGraphic" values="0 0 0 0 1 0 0 0 0 1 0 0 0 0 1 0 0 0 1 0"/>
</filter>
<mask id="mask0">
  <g filter="url(#alpha)">
<rect x="0" y="0" width="36" height="32" style="fill:rgb(0%,0%,0%);fill-opacity:0.2;stroke:none;"/>
  </g>
</mask>
<clipPath id="clip1">
  <rect x="0" y="0" width="36" height="32"/>
</clipPath>
<g id="surface5" clip-path="url(#clip1)">
<path style=" stroke:none;fill-rule:nonzero;fill:rgb(0%,0%,0%);fill-opacity:1;" d="M 18.980469 8.21875 L 18.980469 25.78125 C 18.984375 25.871094 18.972656 25.960938 18.957031 26.046875 C 18.832031 26.792969 18.199219 27.335938 17.457031 27.332031 L 4.582031 27.332031 L 4.582031 6.667969 L 17.457031 6.667969 C 17.863281 6.664062 18.25 6.828125 18.535156 7.121094 C 18.820312 7.414062 18.984375 7.808594 18.980469 8.21875 Z M 18.980469 8.21875 "/>
</g>
<mask id="mask1">
  <g filter="url(#alpha)">
<rect x="0" y="0" width="36" height="32" style="fill:rgb(0%,0%,0%);fill-opacity:0.101961;stroke:none;"/>
  </g>
</mask>
<clipPath id="clip2">
  <rect x="0" y="0" width="36" height="32"/>
</clipPath>
<g id="surface8" clip-path="url(#clip2)">
<path style=" stroke:none;fill-rule:nonzero;fill:rgb(0%,0%,0%);fill-opacity:1;" d="M 19.636719 8.21875 L 19.636719 24.445312 C 19.625 25.667969 18.65625 26.65625 17.457031 26.667969 L 4.582031 26.667969 L 4.582031 6 L 17.457031 6 C 18.660156 6.003906 19.632812 6.996094 19.636719 8.21875 Z M 19.636719 8.21875 "/>
</g>
<mask id="mask2">
  <g filter="url(#alpha)">
<rect x="0" y="0" width="36" height="32" style="fill:rgb(0%,0%,0%);fill-opacity:0.2;stroke:none;"/>
  </g>
</mask>
<clipPath id="clip3">
  <rect x="0" y="0" width="36" height="32"/>
</clipPath>
<g id="surface11" clip-path="url(#clip3)">
<path style=" stroke:none;fill-rule:nonzero;fill:rgb(0%,0%,0%);fill-opacity:1;" d="M 18.980469 8.21875 L 18.980469 24.445312 C 18.984375 24.859375 18.820312 25.253906 18.535156 25.546875 C 18.25 25.835938 17.863281 26 17.457031 26 L 4.582031 26 L 4.582031 6.667969 L 17.457031 6.667969 C 17.863281 6.664062 18.25 6.828125 18.535156 7.121094 C 18.820312 7.414062 18.984375 7.808594 18.980469 8.21875 Z M 18.980469 8.21875 "/>
</g>
<mask id="mask3">
  <g filter="url(#alpha)">
<rect x="0" y="0" width="36" height="32" style="fill:rgb(0%,0%,0%);fill-opacity:0.101961;stroke:none;"/>
  </g>
</mask>
<clipPath id="clip4">
  <rect x="0" y="0" width="36" height="32"/>
</clipPath>
<g id="surface14" clip-path="url(#clip4)">
<path style=" stroke:none;fill-rule:nonzero;fill:rgb(0%,0%,0%);fill-opacity:1;" d="M 18.328125 8.21875 L 18.328125 24.445312 C 18.328125 24.859375 18.167969 25.253906 17.882812 25.546875 C 17.59375 25.835938 17.207031 26 16.800781 26 L 4.582031 26 L 4.582031 6.667969 L 16.800781 6.667969 C 17.207031 6.664062 17.59375 6.828125 17.882812 7.121094 C 18.167969 7.414062 18.328125 7.808594 18.328125 8.21875 Z M 18.328125 8.21875 "/>
</g>
</defs>
<g id="surface1">
<path style=" stroke:none;fill-rule:nonzero;fill:rgb(15.686275%,65.882353%,91.764706%);fill-opacity:1;" d="M 33.714844 0 L 25.726562 0 C 25.121094 0 24.539062 0.246094 24.109375 0.679688 L 5.25 19.890625 C 4.824219 20.328125 4.582031 20.917969 4.582031 21.535156 L 4.582031 29.671875 C 4.582031 30.957031 5.605469 32 6.867188 32 L 14.855469 32 C 15.460938 32 16.042969 31.753906 16.472656 31.320312 L 35.332031 12.109375 C 35.757812 11.671875 36 11.082031 36 10.464844 L 36 2.328125 C 36 1.042969 34.976562 0 33.714844 0 Z M 33.714844 0 "/>
<path style=" stroke:none;fill-rule:nonzero;fill:rgb(0%,47.058824%,83.137255%);fill-opacity:1;" d="M 33.714844 32 L 25.726562 32 C 25.121094 32 24.539062 31.753906 24.109375 31.320312 L 20.289062 27.429688 L 20.289062 20.160156 C 20.289062 17.863281 22.121094 16 24.375 16 L 31.511719 16 L 35.332031 19.890625 C 35.757812 20.328125 36 20.917969 36 21.535156 L 36 29.671875 C 36 30.957031 34.976562 32 33.714844 32 Z M 33.714844 32 "/>
<path style=" stroke:none;fill-rule:nonzero;fill:rgb(31.372549%,85.098039%,100%);fill-opacity:1;" d="M 6.867188 0 L 14.855469 0 C 15.460938 0 16.042969 0.246094 16.472656 0.679688 L 20.289062 4.570312 L 20.289062 11.839844 C 20.289062 14.136719 18.460938 16 16.207031 16 L 9.070312 16 L 5.25 12.109375 C 4.824219 11.671875 4.582031 11.082031 4.582031 10.464844 L 4.582031 2.328125 C 4.582031 1.042969 5.605469 0 6.867188 0 Z M 6.867188 0 "/>
<use xlink:href="#surface5" mask="url(#mask0)"/>
<use xlink:href="#surface8" mask="url(#mask1)"/>
<use xlink:href="#surface11" mask="url(#mask2)"/>
<use xlink:href="#surface14" mask="url(#mask3)"/>
<path style=" stroke:none;fill-rule:nonzero;fill:rgb(0%,47.058824%,83.137255%);fill-opacity:1;" d="M 1.527344 6.667969 L 16.800781 6.667969 C 17.644531 6.667969 18.328125 7.363281 18.328125 8.222656 L 18.328125 23.777344 C 18.328125 24.636719 17.644531 25.332031 16.800781 25.332031 L 1.527344 25.332031 C 0.683594 25.332031 0 24.636719 0 23.777344 L 0 8.222656 C 0 7.363281 0.683594 6.667969 1.527344 6.667969 Z M 1.527344 6.667969 "/>
<path style=" stroke:none;fill-rule:nonzero;fill:rgb(100%,100%,100%);fill-opacity:1;" d="M 12.164062 12.585938 L 7.878906 12.585938 L 7.878906 15.140625 L 11.902344 15.140625 L 11.902344 16.777344 L 7.878906 16.777344 L 7.878906 19.425781 L 12.394531 19.425781 L 12.394531 21.054688 L 5.933594 21.054688 L 5.933594 10.945312 L 12.164062 10.945312 Z M 12.164062 12.585938 "/>
</g>
</svg>
