<svg width="453" height="175" xmlns="http://www.w3.org/2000/svg">
 <g>
  <title>Layer 1</title>
  <g>
   <g clip-path="url(#svg_17)">
    <path fill="#017CEE" d="m3.96797,160.71612l78.55914,-78.38205c0.49213,-0.49101 0.58645,-1.25017 0.17602,-1.80777c-4.77881,-6.49284 -13.59204,-7.61819 -16.8591,-11.98023c-9.67765,-12.92141 -12.13314,-20.23499 -16.29168,-19.78137c-0.2905,0.03172 -0.54946,0.18388 -0.75358,0.38749l-28.37971,28.31572c-16.32632,16.28936 -18.6676,52.15453 -19.09697,82.18603c-0.0194,1.35704 1.67216,2.03323 2.64588,1.06219z"/>
    <path fill="#00AD46" d="m164.75006,158.7787l-80.52906,-76.465c-0.50446,-0.47901 -1.28441,-0.5709 -1.85729,-0.17142c-6.6706,4.6515 -7.82677,13.22965 -12.30839,16.40971c-13.27535,9.41926 -20.78926,11.80965 -20.32322,15.8575c0.03259,0.28275 0.18892,0.53482 0.39819,0.73293l29.09124,27.62344c16.73555,15.89099 53.58313,18.16977 84.43724,18.58739c1.39421,0.01953 2.08892,-1.62677 1.09128,-2.57455z"/>
    <path fill="#04D659" d="m79.22115,142.76587c-9.14185,-8.67982 -13.38314,-25.8525 4.14268,-61.26518c-28.4831,12.38958 -38.46453,28.67586 -33.55433,33.33852l29.41165,27.92666z" clip-rule="evenodd" fill-rule="evenodd"/>
    <path fill="#00C7D4" d="m162.75765,2.2849l-78.55902,78.38194c-0.49213,0.49101 -0.58645,1.25007 -0.17602,1.80768c4.77881,6.49284 13.59242,7.61819 16.85863,11.98033c9.67822,12.92114 12.13409,20.23462 16.29187,19.78165c0.2905,-0.03162 0.54946,-0.18416 0.75396,-0.38786l28.37913,-28.31572c16.32722,-16.28954 18.66842,-52.15434 19.09748,-82.18615c0.01911,-1.35711 -1.67228,-2.03339 -2.64603,-1.06186z"/>
    <path fill="#11E1EE" d="m146.30716,85.53292c-8.91853,8.89774 -26.5616,13.02652 -62.94428,-4.03223c12.72895,27.72343 29.46134,37.43939 34.25172,32.65954l28.69257,-28.62731z" clip-rule="evenodd" fill-rule="evenodd"/>
    <path fill="#E43921" d="m1.97775,4.22206l80.52892,76.4646c0.50446,0.47901 1.28431,0.5709 1.85729,0.17142c6.6706,-4.6514 7.82677,-13.22965 12.30791,-16.40962c13.27602,-9.41963 20.78983,-11.80965 20.3235,-15.85732c-0.03249,-0.28275 -0.18921,-0.53482 -0.39753,-0.73349l-29.09172,-27.62307c-16.73574,-15.89106 -53.58303,-18.16992 -84.43743,-18.58785c-1.39428,-0.01889 -2.08908,1.62757 -1.09095,2.57533z"/>
    <path fill="#FF7557" d="m87.50555,20.23412c9.14147,8.68047 13.38333,25.85269 -4.14268,61.26555c28.48281,-12.38939 38.46492,-28.67596 33.55413,-33.33833l-29.41146,-27.92721z" clip-rule="evenodd" fill-rule="evenodd"/>
    <path fill="#0CB6FF" d="m20.42003,77.468c8.91824,-8.89812 26.56084,-13.02633 62.94371,4.03223c-12.72885,-27.72371 -29.46144,-37.43902 -34.25153,-32.65972l-28.69218,28.6275z" clip-rule="evenodd" fill-rule="evenodd"/>
    <circle fill="#4A4848" transform="matrix(0.955517, -0.0115156, 0.011831, 0.930042, -0.969987, 1.12534)" r="3.67606" cy="87.48884" cx="87.18887"/>
    <path fill="#51504F" d="m187.29149,53.74164c-0.16532,0 -0.31057,-0.06046 -0.43479,-0.18147c-0.12423,-0.12101 -0.18634,-0.2622 -0.18634,-0.42348c0,-0.16137 0.01051,-0.27224 0.03058,-0.3327l7.70779,-19.57117c0.16532,-0.44366 0.49691,-0.6655 0.99477,-0.6655l2.11281,0c0.49691,0 0.8285,0.22183 0.99477,0.6655l7.67626,19.57117l0.06211,0.3327c0,0.16128 -0.06211,0.30247 -0.18634,0.42348c-0.12423,0.12101 -0.26948,0.18147 -0.43575,0.18147l-1.58437,0c-0.22839,0 -0.40421,-0.05041 -0.52844,-0.15124c-0.12423,-0.12101 -0.20736,-0.24202 -0.24845,-0.36293l-1.70955,-4.29545l-10.19329,0l-1.70955,4.29545c-0.04109,0.12091 -0.13474,0.24192 -0.27999,0.36293c-0.12423,0.10082 -0.28954,0.15124 -0.49691,0.15124l-1.58533,0zm13.36394,-7.41096l-4.196,-10.73844l-4.19504,10.73844l8.39104,0zm9.25872,13.15831c-0.20736,0 -0.38319,-0.0706 -0.52844,-0.21169c-0.12423,-0.12101 -0.18634,-0.28238 -0.18634,-0.48403l0,-20.08543c0,-0.20165 0.06211,-0.36293 0.18634,-0.48394c0.14525,-0.14119 0.32108,-0.21179 0.52844,-0.21179l1.42956,0c0.20736,0 0.37268,0.0706 0.49691,0.21179c0.14525,0.12101 0.21787,0.28229 0.21787,0.48394l0,1.33099c1.16009,-1.55282 2.85913,-2.32919 5.09617,-2.32919c2.17588,0 3.8023,0.6655 4.87925,1.99649c1.09797,1.3309 1.68853,3.04501 1.77167,5.14232c0.02102,0.22183 0.03153,0.56467 0.03153,1.02843c0,0.46385 -0.01051,0.80669 -0.03153,1.02852c-0.08314,2.07704 -0.67369,3.79124 -1.77167,5.14232c-1.09797,1.33099 -2.72439,1.99649 -4.87925,1.99649c-2.1539,0 -3.83287,-0.75628 -5.03405,-2.26873l0,7.0178c0,0.20165 -0.06211,0.36302 -0.18634,0.48403c-0.12423,0.1411 -0.2905,0.21169 -0.49786,0.21169l-1.52226,0zm6.58784,-7.89499c1.47161,0 2.53805,-0.44366 3.20123,-1.33099c0.6842,-0.88733 1.05688,-2.05695 1.119,-3.50885c0.02102,-0.20165 0.03153,-0.49408 0.03153,-0.87728c0,-3.81133 -1.45059,-5.71704 -4.35176,-5.71704c-1.42956,0 -2.50651,0.46385 -3.23181,1.39145c-0.70427,0.90742 -1.08746,1.9964 -1.14958,3.26693l-0.03153,1.14943l0.03153,1.17976c0.04109,1.18971 0.43479,2.22827 1.18111,3.1156c0.74536,0.88733 1.81276,1.33099 3.20027,1.33099zm15.68507,2.4502c-1.01484,0 -1.95705,-0.20174 -2.82759,-0.60504c-0.87054,-0.4033 -1.5643,-0.94779 -2.08223,-1.63347c-0.49691,-0.70577 -0.74632,-1.48214 -0.74632,-2.32919c0,-1.3309 0.55998,-2.41988 1.67897,-3.26684c1.13906,-0.86714 2.67183,-1.43182 4.59926,-1.69402l4.63079,-0.63517l0,-0.87728c0,-2.05685 -1.21264,-3.08537 -3.63602,-3.08537c-0.91163,0 -1.65795,0.1916 -2.23799,0.57472c-0.58004,0.36302 -1.01484,0.79655 -1.30534,1.30076c-0.06211,0.18147 -0.14525,0.31252 -0.24845,0.39325c-0.08314,0.08064 -0.20736,0.12091 -0.37268,0.12091l-1.33687,0c-0.18634,0 -0.35166,-0.06046 -0.49691,-0.18147c-0.12423,-0.14119 -0.18634,-0.30247 -0.18634,-0.48394c0.02007,-0.48403 0.24845,-1.02852 0.68325,-1.63347c0.45582,-0.62513 1.14958,-1.15957 2.08223,-1.60324c0.93266,-0.46385 2.08223,-0.69572 3.44968,-0.69572c2.32017,0 3.98864,0.53444 5.00347,1.60324c1.01484,1.04861 1.52321,2.35942 1.52321,3.93233l0,9.8007c0,0.20165 -0.07262,0.37307 -0.21787,0.51426c-0.12423,0.12101 -0.2905,0.18147 -0.49691,0.18147l-1.42956,0c-0.20736,0 -0.38319,-0.06046 -0.52844,-0.18147c-0.12423,-0.14119 -0.18634,-0.31261 -0.18634,-0.51426l0,-1.30067c-0.45582,0.64531 -1.119,1.1898 -1.98954,1.63347c-0.86959,0.44366 -1.97807,0.6655 -3.32546,0.6655zm0.65267,-2.26873c1.34738,0 2.44536,-0.42348 3.29488,-1.27044c0.86959,-0.86714 1.30534,-2.10736 1.30534,-3.72064l0,-0.84696l-3.60544,0.51417c-1.47065,0.20174 -2.57914,0.54449 -3.32546,1.02852c-0.74536,0.46385 -1.119,1.05875 -1.119,1.7847c0,0.80659 0.3421,1.43182 1.0263,1.87539c0.68325,0.42357 1.49168,0.63527 2.42338,0.63527zm18.51553,2.26873c-2.21697,0 -3.95806,-0.60504 -5.22135,-1.81502c-1.24322,-1.23008 -1.9064,-2.94418 -1.98954,-5.14232l-0.03058,-1.20998l0.03058,-1.20989c0.08314,-2.19814 0.74632,-3.9022 1.98954,-5.11218c1.26329,-1.23008 3.00438,-1.84516 5.22135,-1.84516c1.49168,0 2.75497,0.2622 3.79083,0.7865c1.03586,0.5243 1.8032,1.16962 2.30011,1.93594c0.51793,0.76632 0.79792,1.53264 0.83901,2.29887c0.02102,0.20174 -0.04109,0.36302 -0.18634,0.48403c-0.14525,0.12101 -0.32108,0.18147 -0.52844,0.18147l-1.49168,0c-0.20736,0 -0.36312,-0.04027 -0.46633,-0.12101c-0.1032,-0.08064 -0.20736,-0.24192 -0.31057,-0.48394c-0.35261,-0.96797 -0.84952,-1.65365 -1.49168,-2.05695c-0.64216,-0.42348 -1.45059,-0.63527 -2.42433,-0.63527c-1.28431,0 -2.30966,0.39325 -3.077,1.17976c-0.74536,0.76632 -1.14958,1.94598 -1.21169,3.53917l-0.03058,1.08898l0.03058,1.02843c0.06211,1.61328 0.46633,2.80308 1.21169,3.5694c0.74632,0.76632 1.77167,1.14943 3.077,1.14943c0.97375,0 1.78218,-0.20165 2.42433,-0.60495c0.64216,-0.42348 1.13906,-1.11921 1.49168,-2.08717c0.1032,-0.24202 0.20736,-0.40339 0.31057,-0.48403c0.1032,-0.10082 0.25897,-0.15124 0.46633,-0.15124l1.49168,0c0.20736,0 0.38319,0.0706 0.52844,0.21179c0.14525,0.12091 0.20736,0.28229 0.18634,0.48394c-0.04109,0.74614 -0.32108,1.51246 -0.83901,2.29896c-0.49691,0.76632 -1.26425,1.41163 -2.30011,1.93594c-1.01484,0.5243 -2.27908,0.7865 -3.79083,0.7865zm11.36675,-0.30257c-0.20736,0 -0.38319,-0.06046 -0.52844,-0.18147c-0.12423,-0.14119 -0.18634,-0.31261 -0.18634,-0.51426l0,-20.08533c0,-0.20174 0.06211,-0.36302 0.18634,-0.48403c0.14525,-0.14119 0.32108,-0.21169 0.52844,-0.21169l1.55379,0c0.20736,0 0.37268,0.0705 0.49691,0.21169c0.14525,0.12101 0.21787,0.28229 0.21787,0.48403l0,7.04803c0.60107,-0.74614 1.30534,-1.31081 2.11281,-1.69402c0.80843,-0.4033 1.81276,-0.60495 3.01489,-0.60495c1.98858,0 3.53282,0.62513 4.63079,1.87548c1.119,1.23008 1.67802,2.87359 1.67802,4.93053l0,8.53026c0,0.20165 -0.07262,0.37307 -0.21787,0.51426c-0.12423,0.12101 -0.28954,0.18147 -0.49691,0.18147l-1.55379,0c-0.20736,0 -0.38319,-0.06046 -0.52844,-0.18147c-0.12423,-0.14119 -0.18634,-0.31261 -0.18634,-0.51426l0,-8.37893c0,-1.43182 -0.36312,-2.54098 -1.08746,-3.32748c-0.70523,-0.78641 -1.73057,-1.17966 -3.077,-1.17966c-1.30534,0 -2.35171,0.4033 -3.13912,1.20998c-0.76638,0.78641 -1.14958,1.88553 -1.14958,3.29716l0,8.37893c0,0.20165 -0.07262,0.37307 -0.21787,0.51426c-0.12423,0.12101 -0.28954,0.18147 -0.49691,0.18147l-1.55379,0zm24.65615,0.30257c-2.13383,0 -3.84339,-0.63527 -5.1277,-1.90571c-1.26425,-1.29063 -1.95801,-3.0451 -2.08223,-5.26333l-0.03153,-1.02852l0.03153,-0.9982c0.14429,-2.17795 0.84952,-3.91224 2.11281,-5.20287c1.28431,-1.29063 2.97284,-1.93594 5.06559,-1.93594c2.30011,0 4.08228,0.71591 5.34557,2.14772c1.26425,1.41163 1.89589,3.32739 1.89589,5.74726l0,0.51426c0,0.20165 -0.07262,0.37307 -0.21787,0.51426c-0.12423,0.12101 -0.28954,0.18147 -0.49691,0.18147l-10.75326,0l0,0.27224c0.06211,1.31081 0.46633,2.43001 1.21264,3.35762c0.76638,0.90751 1.77071,1.36122 3.01393,1.36122c0.95368,0 1.73057,-0.18147 2.33069,-0.54449c0.62209,-0.38311 1.07791,-0.77637 1.36745,-1.17966c0.1873,-0.24202 0.32108,-0.38321 0.40421,-0.42348c0.10416,-0.06055 0.27999,-0.09078 0.52844,-0.09078l1.52321,0c0.18634,0 0.34115,0.05041 0.46537,0.15124c0.12518,0.10082 0.1873,0.24202 0.1873,0.42348c0,0.44366 -0.2905,0.97811 -0.87054,1.60324c-0.55902,0.62513 -1.35694,1.16962 -2.3928,1.63347c-1.01579,0.44366 -2.18639,0.6655 -3.5118,0.6655zm4.25716,-9.31676l0,-0.09078c0,-1.39145 -0.3937,-2.5207 -1.18111,-3.38785c-0.76638,-0.88733 -1.80224,-1.33099 -3.10758,-1.33099c-1.30534,0 -2.3412,0.44366 -3.10758,1.33099c-0.74536,0.86714 -1.119,1.9964 -1.119,3.38785l0,0.09078l8.51527,0z"/>
    <path fill="#51504F" d="m186.8567,53.56017l-0.16914,0.16444l0,0l0.16914,-0.16444zm-0.15576,-0.75618l-0.22265,-0.08334l-0.00382,0.00977l0.22648,0.07357zm7.70779,-19.57117l0.22265,0.08315l0.00191,-0.00372l-0.22456,-0.07943zm4.10235,0l-0.22456,0.07943l0.00096,0.00344l0.22361,-0.08287zm7.67626,19.57117l0.23508,-0.04167c-0.00287,-0.01404 -0.00669,-0.0279 -0.01242,-0.0413l-0.22265,0.08297zm0.06211,0.3327l0.2389,0c0,-0.01395 -0.00191,-0.0279 -0.00382,-0.04158l-0.23508,0.04158zm-0.18634,0.42348l0.16818,0.16444l-0.16818,-0.16444zm-2.54856,0.03023l-0.16914,0.16444c0.00478,0.00493 0.01051,0.00967 0.01625,0.01423l0.15289,-0.17867zm-0.24845,-0.36293l0.22648,-0.07366l-0.00382,-0.01032l-0.22265,0.08399zm-1.70955,-4.29545l0.22265,-0.0839c-0.03536,-0.08957 -0.12423,-0.14863 -0.22265,-0.14863l0,0.23253zm-10.19329,0l0,-0.23253c-0.09843,0 -0.1873,0.05906 -0.22265,0.14863l0.22265,0.0839zm-1.70955,4.29545l-0.22265,-0.08408l-0.00382,0.01051l0.22648,0.07357zm-0.27999,0.36293l0.15289,0.17867l0.00287,-0.00214l-0.15576,-0.17654zm11.2817,-7.25972l0,0.23253c0.07836,0 0.15194,-0.03758 0.19685,-0.10055c0.04396,-0.06297 0.05447,-0.14324 0.02676,-0.21467l-0.22361,0.08269zm-4.196,-10.73844l0.22361,-0.08269c-0.03536,-0.09022 -0.12423,-0.14984 -0.22361,-0.14984c-0.09843,0 -0.1873,0.05962 -0.22265,0.14984l0.22265,0.08269zm-4.19504,10.73844l-0.22361,-0.08269c-0.02771,0.07143 -0.01816,0.1517 0.02676,0.21467c0.04491,0.06297 0.11849,0.10055 0.19685,0.10055l0,-0.23253zm-4.97289,7.17843c-0.09747,0 -0.18347,-0.03302 -0.26565,-0.11338l-0.33828,0.32889c0.16627,0.16165 0.37077,0.24955 0.60393,0.24955l0,-0.46506zm-0.26565,-0.11338c-0.08218,-0.08027 -0.11658,-0.16342 -0.11658,-0.25904l-0.4778,0c0,0.22704 0.08983,0.42627 0.2561,0.58792l0.33828,-0.32889zm-0.11658,-0.25904c0,-0.16314 0.01147,-0.23876 0.01911,-0.25922l-0.45391,-0.14705c-0.0344,0.10055 -0.043,0.24676 -0.043,0.40627l0.4778,0zm0.01529,-0.24955l7.70684,-19.57117l-0.44626,-0.1664l-7.70684,19.57117l0.44626,0.1664zm7.70875,-19.57489c0.06976,-0.18584 0.16627,-0.3087 0.28381,-0.38693c0.11754,-0.07859 0.27425,-0.12547 0.4864,-0.12547l0,-0.46506c-0.28572,0 -0.54278,0.06399 -0.75683,0.20723c-0.21501,0.14361 -0.36599,0.35354 -0.46251,0.61127l0.44913,0.15896zm0.77021,-0.5124l2.11281,0l0,-0.46506l-2.11281,0l0,0.46506zm2.11281,0c0.21214,0 0.36886,0.04688 0.4864,0.12547c0.11658,0.07822 0.21405,0.20109 0.28381,0.38693l0.44913,-0.15896c-0.09651,-0.25773 -0.2475,-0.46766 -0.46251,-0.61127c-0.21405,-0.14324 -0.47111,-0.20723 -0.75683,-0.20723l0,0.46506zm0.77116,0.51584l7.67626,19.57117l0.44626,-0.16584l-7.67626,-19.57117l-0.44626,0.16584zm7.66479,19.52987l0.06211,0.3327l0.47015,-0.08315l-0.06211,-0.33279l-0.47015,0.08325zm0.05829,0.29113c0,0.09562 -0.0344,0.17877 -0.11658,0.25904l0.33732,0.32889c0.16627,-0.16165 0.25705,-0.36088 0.25705,-0.58792l-0.4778,0zm-0.11658,0.25904c-0.08218,0.08036 -0.16818,0.11338 -0.26661,0.11338l0,0.46506c0.23316,0 0.43862,-0.0879 0.60393,-0.24955l-0.33732,-0.32889zm-0.26661,0.11338l-1.58437,0l0,0.46506l1.58437,0l0,-0.46506zm-1.58437,0c-0.19494,0 -0.30866,-0.04316 -0.37555,-0.09729l-0.30579,0.35726c0.18156,0.14752 0.4195,0.20509 0.68134,0.20509l0,-0.46506zm-0.3593,-0.08315c-0.10703,-0.10371 -0.16532,-0.19495 -0.19112,-0.27206l-0.45295,0.14705c0.05638,0.16491 0.16341,0.31568 0.30579,0.4539l0.33828,-0.32889zm-0.19494,-0.28248l-1.70955,-4.29536l-0.44531,0.16789l1.70955,4.29545l0.44531,-0.16798zm-1.9322,-4.44399l-10.19329,0l0,0.46506l10.19329,0l0,-0.46506zm-10.41594,0.14863l-1.70955,4.29536l0.44531,0.16798l1.70955,-4.29545l-0.44531,-0.16789zm-1.71337,4.30577c-0.02293,0.06678 -0.08218,0.15458 -0.20832,0.25997l0.31057,0.35307c0.16341,-0.13663 0.2905,-0.29075 0.3507,-0.46599l-0.45295,-0.14705zm-0.20641,0.25792c-0.06976,0.0572 -0.17678,0.09729 -0.34401,0.09729l0,0.46506c0.2475,0 0.47206,-0.06064 0.6498,-0.20509l-0.30579,-0.35726zm-0.34401,0.09729l-1.58533,0l0,0.46506l1.58533,0l0,-0.46506zm12.00222,-7.26112l-4.196,-10.73844l-0.44626,0.16528l4.19504,10.73844l0.44722,-0.16528zm-4.64226,-10.73844l-4.196,10.73844l0.44722,0.16528l4.19504,-10.73844l-0.44626,-0.16528zm-3.97239,11.05365l8.39104,0l0,-0.46506l-8.39104,0l0,0.46506zm17.12132,12.714l-0.16914,0.16444l0.16914,-0.16444zm0,-21.0533l0.16914,0.16444l-0.16914,-0.16444zm2.45491,0l-0.18156,0.15133c0.0086,0.00902 0.0172,0.01749 0.0258,0.02521l0.15576,-0.17654zm0.21787,1.81493l-0.2389,0c0,0.10073 0.06689,0.19002 0.16532,0.22109c0.09843,0.03116 0.20545,-0.00288 0.26661,-0.08436l-0.19303,-0.13673zm9.97541,-0.3327l-0.1873,0.14389l0.00096,0.00167l0.18634,-0.14556zm1.77167,5.14232l-0.2389,0.00893l0.00096,0.01209l0.23794,-0.02102zm0,2.05695l-0.23794,-0.02111l-0.00096,0.01209l0.2389,0.00902zm-1.77167,5.14232l0.18634,0.14556l0.00096,-0.0013l-0.1873,-0.14426zm-9.9133,-0.27224l0.18921,-0.14221c-0.06307,-0.07869 -0.1701,-0.10994 -0.26661,-0.07785c-0.09651,0.03218 -0.16149,0.12064 -0.16149,0.22006l0.2389,0zm-0.18634,7.50174l-0.16914,-0.16435c-0.00478,0.00419 -0.0086,0.00856 -0.01242,0.01311l0.18156,0.15124zm7.76895,-9.01419l-0.19112,-0.13952l-0.00191,0.00279l0.19303,0.13673zm1.119,-3.50885l-0.23794,-0.02316c0,0.00446 -0.00096,0.00893 -0.00096,0.01349l0.2389,0.00967zm-7.55203,-5.20287l-0.19016,-0.14082l0,0.00065l0.19016,0.14017zm-1.14958,3.26693l-0.2389,-0.01107l0,0.00493l0.2389,0.00614zm-0.03153,1.14943l-0.2389,-0.00614l0,0.01209l0.2389,-0.00595zm0.03153,1.17966l-0.2389,0.00605l0,0.00186l0.2389,-0.00791zm1.18111,3.11569l0.18443,-0.14724l-0.18443,0.14724zm-3.38757,8.99345c-0.14429,0 -0.25992,-0.0466 -0.3593,-0.14361l-0.33828,0.3288c0.19016,0.18528 0.42715,0.27987 0.69758,0.27987l0,-0.46506zm-0.3593,-0.14361c-0.07167,-0.06967 -0.11658,-0.16779 -0.11658,-0.31959l-0.4778,0c0,0.2515 0.07931,0.47613 0.2561,0.64838l0.33828,-0.3288zm-0.11658,-0.31959l0,-20.08543l-0.4778,0l0,20.08543l0.4778,0zm0,-20.08543c0,-0.15179 0.04491,-0.24983 0.11658,-0.31949l-0.33828,-0.32889c-0.17678,0.17235 -0.2561,0.39697 -0.2561,0.64838l0.4778,0zm0.11658,-0.31949c0.09938,-0.0971 0.21501,-0.1437 0.3593,-0.1437l0,-0.46506c-0.27043,0 -0.50742,0.09459 -0.69758,0.27987l0.33828,0.32889zm0.3593,-0.1437l1.42956,0l0,-0.46506l-1.42956,0l0,0.46506zm1.42956,0c0.14429,0 0.24081,0.04567 0.31534,0.13059l0.36312,-0.30266c-0.17392,-0.19746 -0.40804,-0.29299 -0.67847,-0.29299l0,0.46506zm0.34115,0.15579c0.08791,0.07273 0.13474,0.16714 0.13474,0.3074l0.4778,0c0,-0.26304 -0.09843,-0.49129 -0.30101,-0.66047l-0.31152,0.35307zm0.13474,0.3074l0,1.33099l0.4778,0l0,-1.33099l-0.4778,0zm0.43193,1.46772c1.10849,-1.4839 2.73012,-2.23339 4.90314,-2.23339l0,-0.46506c-2.30202,0 -4.07751,0.80325 -5.28919,2.42499l0.38606,0.27345zm4.90314,-2.23339c2.12237,0 3.67138,0.64661 4.69195,1.90785l0.37555,-0.28787c-1.13429,-1.40066 -2.8381,-2.08504 -5.0675,-2.08504l0,0.46506zm4.69291,1.90952c1.05975,1.28384 1.63788,2.9466 1.71911,5.00568l0.4778,-0.01786c-0.08409,-2.13545 -0.68707,-3.90099 -1.82422,-5.27904l-0.37268,0.29122zm1.72006,5.01778c0.02007,0.21076 0.03058,0.54486 0.03058,1.00741l0.4778,0c0,-0.46506 -0.01051,-0.81664 -0.03249,-1.04954l-0.47588,0.04213zm0.03058,1.00741c0,0.46264 -0.01051,0.79664 -0.03058,1.00741l0.47588,0.04213c0.02198,-0.2329 0.03249,-0.58448 0.03249,-1.04954l-0.4778,0zm-0.03153,1.0195c-0.08123,2.03825 -0.65936,3.70204 -1.72006,5.00708l0.37459,0.28852c1.1362,-1.39722 1.73918,-3.16164 1.82327,-5.27756l-0.4778,-0.01804zm-1.71911,5.00578c-1.04159,1.26347 -2.59156,1.90952 -4.69291,1.90952l0,0.46506c2.20933,0 3.91219,-0.68503 5.06559,-2.08345l-0.37268,-0.29113zm-4.69291,1.90952c-2.08892,0 -3.69336,-0.72902 -4.84484,-2.17842l-0.37841,0.28443c1.25182,1.57552 3.00342,2.35905 5.22326,2.35905l0,-0.46506zm-5.27295,-2.0362l0,7.0178l0.4778,0l0,-7.0178l-0.4778,0zm0,7.0178c0,0.15179 -0.04491,0.24992 -0.11658,0.31959l0.33828,0.3288c0.17678,-0.17226 0.2561,-0.39688 0.2561,-0.64838l-0.4778,0zm-0.129,0.3327c-0.07454,0.08483 -0.17201,0.13049 -0.3163,0.13049l0,0.46506c0.27043,0 0.50551,-0.09552 0.67943,-0.29299l-0.36312,-0.30257zm-0.3163,0.13049l-1.52226,0l0,0.46506l1.52226,0l0,-0.46506zm5.06559,-7.42993c1.52226,0 2.67374,-0.46162 3.39426,-1.4267l-0.38606,-0.27355c-0.60489,0.80948 -1.58724,1.23519 -3.0082,1.23519l0,0.46506zm3.39235,-1.424c0.72052,-0.93495 1.10275,-2.15424 1.16678,-3.6387l-0.4778,-0.01935c-0.0602,1.41935 -0.42428,2.5394 -1.07122,3.37901l0.38224,0.27903zm1.16582,-3.6253c0.02198,-0.21337 0.03249,-0.51491 0.03249,-0.90035l-0.4778,0c0,0.38097 -0.01051,0.66419 -0.03058,0.85412l0.47588,0.04623zm0.03249,-0.90035c0,-1.92757 -0.36599,-3.41556 -1.13524,-4.42622c-0.77881,-1.02368 -1.94558,-1.52334 -3.45542,-1.52334l0,0.46506c1.39134,0 2.40044,0.45315 3.07127,1.33518c0.68134,0.89496 1.04159,2.26557 1.04159,4.14933l0.4778,0zm-4.59066,-5.94956c-1.48785,0 -2.64221,0.48626 -3.42197,1.48316l0.38033,0.28164c0.67082,-0.8584 1.67133,-1.29974 3.04165,-1.29974l0,-0.46506zm-3.42197,1.48381c-0.73676,0.94918 -1.13429,2.08457 -1.19831,3.39603l0.4778,0.02214c0.0602,-1.22952 0.42906,-2.27208 1.1018,-3.13783l-0.38128,-0.28034zm-1.19831,3.40096l-0.03153,1.14943l0.4778,0.01228l0.03153,-1.14953l-0.4778,-0.01218zm-0.03153,1.16153l0.03153,1.17976l0.4778,-0.012l-0.03153,-1.17966l-0.4778,0.01191zm0.03153,1.18162c0.043,1.23863 0.45486,2.32668 1.23462,3.25502l0.36981,-0.29447c-0.71096,-0.84622 -1.08746,-1.8353 -1.12664,-2.97627l-0.4778,0.01572zm1.23462,3.25502c0.79983,0.95123 1.9408,1.41628 3.38566,1.41628l0,-0.46506c-1.33018,0 -2.32304,-0.42227 -3.01584,-1.2457l-0.36981,0.29447zm16.24313,3.02891l0.10225,-0.20993l-0.10225,0.20993zm-2.08223,-1.63347l-0.19685,0.13161l0.00478,0.00614l0.19207,-0.13775zm0.93266,-5.59603l0.14621,0.18351l0.00096,-0.00037l-0.14716,-0.18314zm4.59926,-1.69402l0.03249,0.2303l0.00096,0l-0.03345,-0.2303zm4.63079,-0.63517l0.03345,0.2302c0.11754,-0.01618 0.20545,-0.11431 0.20545,-0.2302l-0.2389,0zm-5.87402,-3.38794l0.129,0.1957l0.00478,-0.00326l-0.13378,-0.19244zm-1.30534,1.30076l-0.20832,-0.11366c-0.00764,0.01274 -0.01338,0.02623 -0.01816,0.04009l0.22648,0.07357zm-0.24845,0.39325l-0.14907,-0.18165c-0.00764,0.00539 -0.01338,0.01116 -0.02007,0.01721l0.16914,0.16444zm-2.20646,-0.06055l-0.18156,0.15133c0.00764,0.00902 0.01625,0.01749 0.0258,0.02521l0.15576,-0.17654zm-0.18634,-0.48394l-0.2389,-0.00977l0,0.00977l0.2389,0zm0.68325,-1.63347l-0.19494,-0.13459l-0.00096,0.00121l0.1959,0.13338zm2.08223,-1.60324l0.10511,0.2089l0.00382,-0.00186l-0.10894,-0.20704zm8.45316,0.90751l-0.17487,0.15784l0.00096,0.00158l0.17392,-0.15942zm1.30534,14.24729l0.16914,0.16444l-0.16914,-0.16444zm-2.45491,0l-0.18156,0.15133c0.00764,0.00902 0.01625,0.01749 0.0258,0.02521l0.15576,-0.17654zm-0.18634,-1.81493l0.2389,0c0,-0.10185 -0.0688,-0.19188 -0.16818,-0.22211c-0.10034,-0.03014 -0.20832,0.00642 -0.26757,0.09041l0.19685,0.1317zm-1.98954,1.63347l-0.11085,-0.20602l0.11085,0.20602zm0.62209,-2.87368l-0.17105,-0.16249l0,0.00009l0.17105,0.1624zm1.30534,-4.5676l0.2389,0c0,-0.06762 -0.03058,-0.1318 -0.08314,-0.17598c-0.05256,-0.04418 -0.12232,-0.0639 -0.19112,-0.05413l0.03536,0.23011zm-3.60544,0.51417l0.03345,0.2303l0.00096,-0.00019l-0.0344,-0.23011zm-3.32546,1.02852l0.129,0.19597l0.00382,-0.00251l-0.13283,-0.19346zm-0.09269,3.66009l-0.13283,0.19356l0.00382,0.0027l0.129,-0.19625zm1.77071,2.67147c-0.98139,0 -1.88825,-0.19477 -2.72534,-0.58244l-0.20545,0.41985c0.90399,0.41902 1.88251,0.62764 2.9308,0.62764l0,-0.46506zm-2.72534,-0.58244c-0.83805,-0.38851 -1.49932,-0.90956 -1.99241,-1.56129l-0.38415,0.2755c0.54278,0.71963 1.26902,1.28756 2.1711,1.70564l0.20545,-0.41985zm-1.98763,-1.55506c-0.47015,-0.66745 -0.70427,-1.39815 -0.70427,-2.19767l-0.4778,0c0,0.89449 0.26374,1.71662 0.78836,2.46071l0.3937,-0.26304zm-0.70427,-2.19767c0,-1.25621 0.52366,-2.2785 1.58628,-3.08333l-0.29337,-0.36712c-1.17442,0.88919 -1.77071,2.04476 -1.77071,3.45044l0.4778,0zm1.58724,-3.0837c1.09606,-0.83468 2.58583,-1.38847 4.48459,-1.64686l-0.06594,-0.46059c-1.95418,0.26601 -3.53091,0.84157 -4.71297,1.74108l0.29432,0.36637zm4.48554,-1.64686l4.63079,-0.63527l-0.06689,-0.4605l-4.63079,0.63527l0.06689,0.4605zm4.83624,-0.86547l0,-0.87728l-0.4778,0l0,0.87728l0.4778,0zm0,-0.87728c0,-1.07316 -0.31821,-1.91799 -0.99095,-2.48926c-0.667,-0.56597 -1.64266,-0.82864 -2.88397,-0.82864l0,0.46506c1.18207,0 2.0249,0.2516 2.56958,0.71414c0.53895,0.45715 0.82754,1.15501 0.82754,2.1387l0.4778,0zm-3.87492,-3.3179c-0.94603,0 -1.74204,0.19877 -2.37178,0.6149l0.26757,0.38479c0.53035,-0.35019 1.22602,-0.53463 2.10421,-0.53463l0,-0.46506zm-2.367,0.61164c-0.60776,0.38023 -1.07313,0.84036 -1.38465,1.38271l0.41664,0.22723c0.26852,-0.46589 0.67369,-0.873 1.22602,-1.21873l-0.25801,-0.39121zm-1.40281,1.42279c-0.05447,0.15821 -0.11754,0.24295 -0.17105,0.28517l0.29814,0.36321c0.15289,-0.11915 0.2561,-0.29652 0.32586,-0.50133l-0.45295,-0.14705zm-0.19112,0.30238c-0.02198,0.02167 -0.07454,0.05283 -0.20354,0.05283l0,0.46506c0.20259,0 0.39848,-0.04939 0.54182,-0.18909l-0.33828,-0.3288zm-0.20354,0.05283l-1.33687,0l0,0.46506l1.33687,0l0,-0.46506zm-1.33687,0c-0.12805,0 -0.2389,-0.03962 -0.34115,-0.12547l-0.31152,0.35307c0.1873,0.15617 0.40804,0.23746 0.65267,0.23746l0,-0.46506zm-0.31534,-0.10027c-0.08887,-0.10017 -0.129,-0.20816 -0.129,-0.33261l-0.4778,0c0,0.23839 0.08314,0.45306 0.24368,0.63527l0.36312,-0.30266zm-0.12996,-0.32294c0.01816,-0.42209 0.21979,-0.92351 0.6412,-1.50985l-0.39179,-0.26666c-0.44817,0.62364 -0.70331,1.21119 -0.72625,1.75708l0.47684,0.01944zm0.64025,-1.50855c0.42619,-0.58504 1.0846,-1.09707 1.99241,-1.52892l-0.21023,-0.41781c-0.95655,0.45548 -1.68662,1.01224 -2.17206,1.67755l0.38988,0.26917zm1.99623,-1.53078c0.88965,-0.44273 2.00005,-0.67024 3.34075,-0.67024l0,-0.46506c-1.39421,0 -2.58392,0.23634 -3.55862,0.72121l0.21787,0.41409zm3.34075,-0.67024c2.29055,0 3.87779,0.52821 4.8286,1.52855l0.3507,-0.31568c-1.08077,-1.13734 -2.82855,-1.67792 -5.1793,-1.67792l0,0.46506zm4.82956,1.53013c0.96992,1.00136 1.45823,2.25329 1.45823,3.77291l0.4778,0c0,-1.6263 -0.52749,-2.9959 -1.58819,-4.09185l-0.34784,0.31894zm1.45823,3.77291l0,9.8007l0.4778,0l0,-9.8007l-0.4778,0zm0,9.8007c0,0.14073 -0.04778,0.2528 -0.14812,0.34982l0.33828,0.32889c0.19016,-0.18528 0.28763,-0.41604 0.28763,-0.6787l-0.4778,0zm-0.14812,0.34982c-0.07167,0.06967 -0.17201,0.11338 -0.32777,0.11338l0,0.46506c0.25801,0 0.48926,-0.0772 0.66605,-0.24955l-0.33828,-0.32889zm-0.32777,0.11338l-1.42956,0l0,0.46506l1.42956,0l0,-0.46506zm-1.42956,0c-0.15576,0 -0.27521,-0.04381 -0.37364,-0.12547l-0.31057,0.35307c0.19207,0.16026 0.42524,0.23746 0.6842,0.23746l0,-0.46506zm-0.34688,-0.10027c-0.08409,-0.09534 -0.129,-0.21169 -0.129,-0.36293l-0.4778,0c0,0.25215 0.07931,0.47864 0.24368,0.66559l0.36312,-0.30266zm-0.129,-0.36293l0,-1.30067l-0.4778,0l0,1.30067l0.4778,0zm-0.43575,-1.43237c-0.43002,0.60792 -1.05975,1.12925 -1.90354,1.55915l0.2217,0.41195c0.8973,-0.45734 1.59297,-1.02499 2.07554,-1.70769l-0.3937,-0.26341zm-1.90354,1.55915c-0.82563,0.42097 -1.89207,0.63899 -3.21461,0.63899l0,0.46506c1.37223,0 2.5218,-0.22574 3.4363,-0.6921l-0.2217,-0.41195zm-2.56194,-1.16469c1.40376,0 2.56576,-0.44376 3.46593,-1.34057l-0.3421,-0.3248c-0.79983,0.79711 -1.83378,1.20031 -3.12383,1.20031l0,0.46506zm3.46593,-1.34048c0.92597,-0.92342 1.37318,-2.22985 1.37318,-3.88313l-0.4778,0c0,1.57329 -0.42428,2.74728 -1.23749,3.55815l0.3421,0.32498zm1.37318,-3.88313l0,-0.84696l-0.4778,0l0,0.84696l0.4778,0zm-0.27425,-1.07707l-3.60449,0.51426l0.0688,0.46013l3.60544,-0.51426l-0.06976,-0.46013zm-3.60353,0.51407c-1.48594,0.20369 -2.63552,0.55323 -3.42388,1.06526l0.2647,0.38693c0.70236,-0.45594 1.76975,-0.79208 3.22607,-0.99169l-0.06689,-0.4605zm-3.42006,1.06275c-0.79983,0.49733 -1.22985,1.15948 -1.22985,1.98068l0.4778,0c0,-0.6308 0.31726,-1.15836 1.0091,-1.58873l-0.25705,-0.39195zm-1.22985,1.98068c0,0.88361 0.38128,1.58166 1.13238,2.06894l0.2647,-0.38702c-0.61636,-0.40004 -0.91928,-0.95225 -0.91928,-1.68192l-0.4778,0zm1.1362,2.07164c0.72816,0.45064 1.5815,0.67154 2.55238,0.67154l0,-0.46506c-0.89348,0 -1.65604,-0.20258 -2.29533,-0.5989l-0.25705,0.39241zm15.84656,0.89272l-0.1701,0.16314l0.00287,0.0027l0.16723,-0.16584zm-1.98954,-5.14232l-0.23794,0.00586l0,0.0027l0.23794,-0.00856zm-0.03058,-1.20998l-0.2389,-0.00577l0,0.01163l0.2389,-0.00586zm0.03058,-1.20989l-0.23794,-0.00856l0,0.0027l0.23794,0.00586zm1.98954,-5.11218l0.16914,0.16444l-0.16914,-0.16444zm9.01218,-1.05866l-0.10989,0.2063l0.10989,-0.2063zm2.30011,1.93594l-0.20259,0.12417l0.00287,0.00363l0.19972,-0.1278zm0.83901,2.29887l-0.2389,0.01228l0.00096,0.01088l0.23794,-0.02316zm-0.18634,0.48403l0.15576,0.17654l-0.15576,-0.17654zm-2.48645,0.06046l0.14907,-0.18156l-0.14907,0.18156zm-0.31057,-0.48394l-0.22552,0.07776l0.00478,0.01163l0.22074,-0.08938zm-1.49168,-2.05695l-0.13378,0.19253l0.00382,0.00288l0.12996,-0.19542zm-5.50134,0.54449l-0.17296,-0.16007l0,0.00019l0.17296,0.15989zm-1.21169,3.53917l-0.2389,-0.00884l0,0.00233l0.2389,0.00651zm-0.03058,1.08898l-0.2389,-0.00651c0,0.00446 0,0.00884 0,0.0133l0.2389,-0.00679zm0.03058,1.02843l-0.2389,0.00679l0,0.00195l0.2389,-0.00874zm1.21169,3.5694l-0.17296,0.15989l0.17296,-0.15989zm5.50134,0.54449l0.129,0.19542l0.00478,-0.00288l-0.13378,-0.19253zm1.49168,-2.08717l-0.22074,-0.08957l-0.00478,0.01191l0.22552,0.07766zm0.31057,-0.48403l0.14907,0.18156c0.00669,-0.0053 0.01338,-0.01107 0.02007,-0.01711l-0.16914,-0.16444zm2.48645,0.06055l-0.16914,0.16435c0.00478,0.00428 0.0086,0.00828 0.01338,0.01218l0.15576,-0.17654zm0.18634,0.48394l-0.23794,-0.02316l-0.00096,0.0106l0.2389,0.01256zm-0.83901,2.29896l-0.20163,-0.12547l-0.00096,0.0013l0.20259,0.12417zm-2.30011,1.93594l-0.10989,-0.2063l-0.00191,0.00084l0.1118,0.20546zm-3.79083,0.55398c-2.1711,0 -3.8453,-0.59118 -5.05412,-1.74824l-0.33446,0.33159c1.31872,1.26282 3.12478,1.88171 5.38858,1.88171l0,-0.46506zm-5.05125,-1.74554c-1.19067,-1.17827 -1.83951,-2.83117 -1.92074,-4.98783l-0.47684,0.01711c0.08409,2.23962 0.76161,4.01493 2.05739,5.29681l0.34019,-0.3261zm-1.92074,-4.98504l-0.03058,-1.20998l-0.4778,0.01163l0.03153,1.20998l0.47684,-0.01163zm-0.03058,-1.19836l0.03058,-1.20998l-0.47684,-0.01163l-0.03153,1.20998l0.4778,0.01163zm0.03058,-1.20729c0.08123,-2.15675 0.73007,-3.79858 1.91978,-4.9562l-0.33828,-0.3288c-1.29674,1.26226 -1.97425,3.02854 -2.05834,5.26798l0.47684,0.01702zm1.91978,-4.9562c1.20882,-1.1765 2.88206,-1.77707 5.05221,-1.77707l0,-0.46506c-2.26475,0 -4.07177,0.62959 -5.39049,1.91334l0.33828,0.3288zm5.05221,-1.77707c1.46301,0 2.68712,0.25727 3.68094,0.76027l0.22074,-0.4126c-1.07886,-0.5457 -2.38229,-0.81273 -3.90168,-0.81273l0,0.46506zm3.68094,0.76027c1.00815,0.51007 1.73822,1.13009 2.20741,1.85381l0.40421,-0.24834c-0.52462,-0.80892 -1.32732,-1.47953 -2.39089,-2.01807l-0.22074,0.4126zm2.21028,1.85744c0.49882,0.7386 0.76161,1.46567 0.79983,2.18335l0.4778,-0.02446c-0.04396,-0.81487 -0.3421,-1.62044 -0.87819,-2.41448l-0.39944,0.2556zm0.80079,2.19423c0.01433,0.13403 -0.02389,0.21783 -0.10416,0.28434l0.31152,0.35307c0.21023,-0.17551 0.29623,-0.41437 0.26852,-0.68363l-0.47588,0.04623zm-0.10416,0.28434c-0.09747,0.08166 -0.21692,0.12547 -0.37268,0.12547l0,0.46506c0.25897,0 0.49117,-0.0772 0.6842,-0.23746l-0.31152,-0.35307zm-0.37268,0.12547l-1.49168,0l0,0.46506l1.49168,0l0,-0.46506zm-1.49168,0c-0.18156,0 -0.27425,-0.03637 -0.31726,-0.07004l-0.29814,0.36321c0.16341,0.12761 0.38224,0.17188 0.6154,0.17188l0,-0.46506zm-0.31726,-0.07004c-0.05351,-0.04186 -0.13856,-0.15589 -0.2389,-0.39186l-0.44148,0.17886c0.10607,0.24815 0.22839,0.45669 0.38224,0.57621l0.29814,-0.36321zm-0.23412,-0.38004c-0.36408,-0.99829 -0.88679,-1.73457 -1.58819,-2.1747l-0.25897,0.39083c0.58387,0.36656 1.05497,1.00155 1.39612,1.93919l0.45104,-0.15533zm-1.58341,-2.17181c-0.69089,-0.45548 -1.54901,-0.67526 -2.55812,-0.67526l0,0.46506c0.93839,0 1.69617,0.20379 2.29055,0.59527l0.26757,-0.38507zm-2.55812,-0.67526c-1.33878,0 -2.43102,0.41223 -3.24996,1.25221l0.34688,0.32015c0.71383,-0.73302 1.67324,-1.1073 2.90308,-1.1073l0,-0.46506zm-3.24996,1.2524c-0.80174,0.82371 -1.21456,2.06848 -1.27762,3.69023l0.4778,0.01758c0.06116,-1.56454 0.45677,-2.67919 1.14671,-3.38803l-0.34688,-0.31977zm-1.27762,3.69255l-0.03058,1.08898l0.47684,0.01293l0.03153,-1.08898l-0.4778,-0.01293zm-0.03058,1.10228l0.03058,1.02843l0.4778,-0.01367l-0.03153,-1.02843l-0.47684,0.01367zm0.03058,1.03038c0.06307,1.64091 0.47493,2.89628 1.27762,3.72055l0.34688,-0.31987c-0.68994,-0.70828 -1.08555,-1.83251 -1.14671,-3.41817l-0.4778,0.01749zm1.27762,3.72055c0.79983,0.82194 1.89398,1.22208 3.24996,1.22208l0,-0.46506c-1.25374,0 -2.21124,-0.36619 -2.90308,-1.07689l-0.34688,0.31987zm3.24996,1.22208c1.00719,0 1.8634,-0.20872 2.55334,-0.64206l-0.25897,-0.39083c-0.59438,0.37325 -1.35407,0.56783 -2.29437,0.56783l0,0.46506zm2.55812,-0.64494c0.69758,-0.45985 1.21933,-1.20394 1.58341,-2.20214l-0.45104,-0.15524c-0.34115,0.93774 -0.81321,1.5851 -1.39994,1.97231l0.26757,0.38507zm1.57864,-2.19032c0.10034,-0.23588 0.18538,-0.35 0.2389,-0.39186l-0.29814,-0.36312c-0.15385,0.11943 -0.27617,0.32805 -0.38224,0.57611l0.44148,0.17886zm0.25897,-0.40897c0.043,-0.04186 0.12709,-0.08315 0.29719,-0.08315l0,-0.46506c-0.24368,0 -0.47111,0.05953 -0.63547,0.21932l0.33828,0.32889zm0.29719,-0.08315l1.49168,0l0,-0.46506l-1.49168,0l0,0.46506zm1.49168,0c0.14429,0 0.25992,0.0466 0.3593,0.14361l0.33828,-0.3288c-0.19112,-0.18528 -0.4281,-0.27987 -0.69758,-0.27987l0,0.46506zm0.37268,0.15579c0.08027,0.0665 0.11849,0.15031 0.10416,0.28424l0.47588,0.04632c0.02771,-0.26936 -0.05829,-0.50821 -0.26852,-0.68373l-0.31152,0.35316zm0.1032,0.29485c-0.03822,0.69712 -0.30006,1.42503 -0.80174,2.18605l0.4023,0.25094c0.53513,-0.81199 0.83232,-1.61672 0.87723,-2.41188l-0.4778,-0.02511zm-0.8027,2.18735c-0.4692,0.72372 -1.19927,1.34373 -2.20741,1.85381l0.22074,0.4126c1.06357,-0.53854 1.86627,-1.20915 2.39089,-2.01807l-0.40421,-0.24834zm-2.20933,1.85465c-0.97184,0.5018 -2.19404,0.75944 -3.67902,0.75944l0,0.46506c1.53946,0 2.84384,-0.26676 3.90263,-0.81366l-0.22361,-0.41083zm7.15929,0.50793l-0.18156,0.15133c0.00764,0.00902 0.01625,0.01749 0.0258,0.02521l0.15576,-0.17654zm0,-21.08363l0.16914,0.16444l0,0l-0.16914,-0.16444zm2.57914,0l-0.18156,0.15133c0.0086,0.00902 0.0172,0.01749 0.0258,0.02521l0.15576,-0.17654zm0.21787,7.53206l-0.2389,0c0,0.09915 0.06402,0.18742 0.16054,0.21979c0.09651,0.03237 0.20354,0.00167 0.26661,-0.07636l-0.18825,-0.14342zm2.11281,-1.69402l0.10511,0.20909l0.00382,-0.00214l-0.10894,-0.20695zm7.64568,1.27053l-0.18156,0.15105l0.00287,0.00307l0.1787,-0.15412zm1.46014,13.97505l-0.16914,-0.16444l0,0l0.16914,0.16444zm-2.57914,0l-0.18156,0.15133c0.00764,0.00902 0.0172,0.01749 0.0258,0.02521l0.15576,-0.17654zm-1.2738,-12.22067l-0.18061,0.15282l0.00191,0.00251l0.1787,-0.15533zm-6.21612,0.03032l-0.17296,-0.16017l0,0.00009l0.17296,0.16007zm-1.36745,12.19035l-0.16914,-0.16444l0.16914,0.16444zm-2.0507,-0.05106c-0.15576,0 -0.27521,-0.04381 -0.37268,-0.12547l-0.31152,0.35307c0.19207,0.16026 0.42524,0.23746 0.6842,0.23746l0,-0.46506zm-0.34688,-0.10027c-0.08409,-0.09534 -0.129,-0.21169 -0.129,-0.36293l-0.4778,0c0,0.25215 0.07931,0.47864 0.24368,0.66559l0.36312,-0.30266zm-0.129,-0.36293l0,-20.08533l-0.4778,0l0,20.08533l0.4778,0zm0,-20.08533c0,-0.15189 0.04491,-0.24992 0.11658,-0.31959l-0.33828,-0.32889c-0.17678,0.17235 -0.2561,0.39697 -0.2561,0.64848l0.4778,0zm0.11658,-0.31959c0.09938,-0.0971 0.21405,-0.14361 0.3593,-0.14361l0,-0.46506c-0.27043,0 -0.50742,0.0945 -0.69758,0.27978l0.33828,0.32889zm0.3593,-0.14361l1.55379,0l0,-0.46506l-1.55379,0l0,0.46506zm1.55379,0c0.14429,0 0.24081,0.04558 0.31534,0.13049l0.36312,-0.30266c-0.17392,-0.19746 -0.40804,-0.29289 -0.67847,-0.29289l0,0.46506zm0.34115,0.1557c0.08791,0.07273 0.13474,0.16714 0.13474,0.3075l0.4778,0c0,-0.26304 -0.09843,-0.49138 -0.30101,-0.66057l-0.31152,0.35307zm0.13474,0.3075l0,7.04803l0.4778,0l0,-7.04803l-0.4778,0zm0.42715,7.19145c0.58004,-0.72074 1.2566,-1.26188 2.02967,-1.62835l-0.20927,-0.41809c-0.84379,0.39986 -1.57577,0.98806 -2.1969,1.75959l0.3765,0.28685zm2.0335,-1.63049c0.76543,-0.3819 1.73057,-0.57937 2.90595,-0.57937l0,-0.46506c-1.22793,0 -2.27239,0.20593 -3.12383,0.63062l0.21787,0.41381zm2.90595,-0.57937c1.93316,0 3.40477,0.60467 4.44923,1.794l0.36312,-0.30219c-1.15149,-1.31127 -2.76739,-1.95687 -4.81235,-1.95687l0,0.46506zm4.4521,1.79707c1.07026,1.17762 1.61782,2.76141 1.61782,4.77641l0.4778,0c0,-2.09889 -0.57144,-3.80212 -1.73822,-5.08465l-0.35739,0.30824zm1.61782,4.77641l0,8.53026l0.4778,0l0,-8.53026l-0.4778,0zm0,8.53026c0,0.14073 -0.04778,0.2528 -0.14812,0.34982l0.33828,0.32889c0.19016,-0.18528 0.28763,-0.41604 0.28763,-0.6787l-0.4778,0zm-0.14812,0.34982c-0.07071,0.06967 -0.17201,0.11338 -0.32777,0.11338l0,0.46506c0.25801,0 0.48926,-0.0772 0.66605,-0.24955l-0.33828,-0.32889zm-0.32777,0.11338l-1.55379,0l0,0.46506l1.55379,0l0,-0.46506zm-1.55379,0c-0.15576,0 -0.27521,-0.04381 -0.37268,-0.12547l-0.31152,0.35307c0.19207,0.16026 0.42524,0.23746 0.6842,0.23746l0,-0.46506zm-0.34688,-0.10027c-0.08409,-0.09534 -0.129,-0.21169 -0.129,-0.36293l-0.4778,0c0,0.25215 0.07931,0.47864 0.24368,0.66559l0.36312,-0.30266zm-0.129,-0.36293l0,-8.37893l-0.4778,0l0,8.37893l0.4778,0zm0,-8.37893c0,-1.46856 -0.37268,-2.64041 -1.14862,-3.48272l-0.35644,0.31056c0.67369,0.7307 1.02726,1.77707 1.02726,3.17215l0.4778,0zm-1.14671,-3.48021c-0.76065,-0.84966 -1.86054,-1.25947 -3.25665,-1.25947l0,0.46506c1.29674,0 2.2485,0.3766 2.8964,1.09995l0.36026,-0.30554zm-3.25665,-1.25947c-1.36076,0 -2.47307,0.42274 -3.31208,1.28235l0.34592,0.32024c0.7358,-0.75367 1.71624,-1.13753 2.96615,-1.13753l0,-0.46506zm-3.31208,1.28244c-0.82085,0.84147 -1.21551,2.00458 -1.21551,3.45723l0.4778,0c0,-1.37071 0.37077,-2.40574 1.0846,-3.13718l-0.34688,-0.32005zm-1.21551,3.45723l0,8.37893l0.4778,0l0,-8.37893l-0.4778,0zm0,8.37893c0,0.14073 -0.04778,0.2528 -0.14812,0.34982l0.33828,0.32889c0.19016,-0.18528 0.28763,-0.41604 0.28763,-0.6787l-0.4778,0zm-0.14812,0.34982c-0.07167,0.06967 -0.17201,0.11338 -0.32777,0.11338l0,0.46506c0.25801,0 0.48926,-0.0772 0.66605,-0.24955l-0.33828,-0.32889zm-0.32777,0.11338l-1.55379,0l0,0.46506l1.55379,0l0,-0.46506zm17.97466,-1.37062l-0.17296,0.16044l0.00287,0.0026l0.1701,-0.16305zm-2.08223,-5.26333l-0.2389,0.00679l0,0.00586l0.2389,-0.01265zm-0.03153,-1.02852l-0.2389,-0.00707c0,0.00465 0,0.0093 0,0.01395l0.2389,-0.00688zm0.03153,-0.9982l-0.2389,-0.01507l0,0.008l0.2389,0.00707zm2.11281,-5.20287l-0.17105,-0.16175l-0.00191,0.0013l0.17296,0.16044zm10.41116,0.21179l-0.18156,0.15152l0.00191,0.00121l0.17965,-0.15272zm1.67802,6.77578l0.16914,0.16444l0,0l-0.16914,-0.16444zm-11.25017,0.18147l0,-0.23253c-0.13187,0 -0.2389,0.10408 -0.2389,0.23253l0.2389,0zm0,0.27224l-0.2389,0l0.00096,0.0107l0.23794,-0.0107zm1.21264,3.35762l-0.18825,0.14342l0.00382,0.00428l0.18443,-0.1477zm5.34462,0.81673l0.12614,0.19765l0.00191,-0.00121l-0.12805,-0.19644zm1.36745,-1.17966l-0.19112,-0.13961l-0.00382,0.00623l0.19494,0.13338zm0.40421,-0.42348l0.10703,0.20797c0.00573,-0.0027 0.01051,-0.00558 0.01625,-0.00865l-0.12327,-0.19932zm2.51703,0.06046l-0.15289,0.17867l0.15289,-0.17867zm-0.68325,2.02672l-0.17774,-0.15589l-0.00287,0.00316l0.18061,0.15272zm-2.3928,1.63347l0.09747,0.21207l0.00191,-0.00084l-0.09938,-0.21123zm0.74536,-8.65126l0,0.23253c0.13187,0 0.2389,-0.10408 0.2389,-0.23253l-0.2389,0zm-1.18111,-3.47862l-0.18252,0.14966l0.00382,0.00428l0.1787,-0.15393zm-6.21516,0l-0.18252,-0.14966l-0.00096,0.00037l0.18347,0.14928zm-1.119,3.47862l-0.2389,0c0,0.12845 0.10703,0.23253 0.2389,0.23253l0,-0.23253zm4.25811,9.08423c-2.08128,0 -3.72585,-0.6176 -4.9576,-1.83632l-0.34019,0.32619c1.33687,1.32225 3.1114,1.97519 5.29779,1.97519l0,-0.46506zm-4.95474,-1.83363c-1.21551,-1.24142 -1.89494,-2.9386 -2.01725,-5.11562l-0.47684,0.02539c0.12709,2.25943 0.83614,4.0712 2.14817,5.41112l0.34592,-0.32089zm-2.0163,-5.10976l-0.03153,-1.02843l-0.4778,0.01367l0.03153,1.02843l0.4778,-0.01367zm-0.03153,-1.01457l0.03153,-0.9982l-0.4778,-0.01414l-0.03153,0.9982l0.4778,0.01414zm0.03058,-0.9902c0.14238,-2.13619 0.83136,-3.81467 2.04783,-5.05749l-0.34592,-0.32089c-1.31011,1.33843 -2.03063,3.12853 -2.17875,5.34825l0.47684,0.03014zm2.04688,-5.0561c1.23271,-1.23928 2.85626,-1.86525 4.89358,-1.86525l0,-0.46506c-2.14721,0 -3.90168,0.66466 -5.23664,2.00672l0.34306,0.32359zm4.89358,-1.86525c2.24468,0 3.95423,0.696 5.16401,2.06671l0.36312,-0.30312c-1.31776,-1.49283 -3.17161,-2.22864 -5.52714,-2.22864l0,0.46506zm5.16592,2.06792c1.21551,1.35815 1.83665,3.21401 1.83665,5.59454l0.4778,0c0,-2.45922 -0.64311,-4.43497 -1.95418,-5.90008l-0.36026,0.30554zm1.83665,5.59454l0,0.51426l0.4778,0l0,-0.51426l-0.4778,0zm0,0.51426c0,0.14073 -0.04778,0.25271 -0.14812,0.34982l0.33828,0.32889c0.19016,-0.18528 0.28763,-0.41604 0.28763,-0.6787l-0.4778,0zm-0.14812,0.34982c-0.07071,0.06967 -0.17201,0.11338 -0.32777,0.11338l0,0.46506c0.25801,0 0.48926,-0.07729 0.66605,-0.24955l-0.33828,-0.32889zm-0.32777,0.11338l-10.75326,0l0,0.46506l10.75326,0l0,-0.46506zm-10.99216,0.23253l0,0.27224l0.4778,0l0,-0.27224l-0.4778,0zm0.00096,0.28294c0.06402,1.35332 0.48257,2.52033 1.26234,3.49025l0.3765,-0.28657c-0.71192,-0.88537 -1.1018,-1.95677 -1.162,-3.22508l-0.47684,0.02139zm1.26616,3.49462c0.81321,0.96304 1.88634,1.44605 3.19836,1.44605l0,-0.46506c-1.17347,0 -2.10994,-0.42441 -2.8295,-1.2763l-0.36886,0.29531zm3.19836,1.44605c0.9833,0 1.80702,-0.18695 2.45682,-0.57946l-0.25132,-0.39511c-0.55233,0.33354 -1.28145,0.50952 -2.2055,0.50952l0,0.46506zm2.45873,-0.58058c0.63738,-0.39269 1.12091,-0.80557 1.4353,-1.24282l-0.39084,-0.26666c-0.26565,0.36944 -0.69376,0.74307 -1.2996,1.1166l0.25514,0.39288zm1.43052,-1.23659c0.09078,-0.11775 0.16532,-0.20639 0.22552,-0.26871c0.02962,-0.03107 0.05351,-0.05339 0.07167,-0.06864c0.01911,-0.01618 0.02676,-0.01944 0.02293,-0.01767l-0.21405,-0.41595c-0.08218,0.04018 -0.16149,0.11273 -0.23125,0.18584c-0.07549,0.07887 -0.16054,0.18184 -0.25705,0.3061l0.38224,0.27903zm0.33637,-0.36367c0.04396,-0.02567 0.16341,-0.05757 0.40517,-0.05757l0,-0.46506c-0.25514,0 -0.48831,0.02865 -0.65076,0.12389l0.24559,0.39874zm0.40517,-0.05757l1.52321,0l0,-0.46506l-1.52321,0l0,0.46506zm1.52321,0c0.13952,0 0.23794,0.03655 0.31248,0.09738l0.30674,-0.35726c-0.17392,-0.14091 -0.38606,-0.20518 -0.61922,-0.20518l0,0.46506zm0.31248,0.09738c0.06116,0.04958 0.10129,0.12064 0.10129,0.24481l0.4778,0c0,-0.23876 -0.08505,-0.45008 -0.27234,-0.60206l-0.30674,0.35726zm0.10129,0.24481c0,0.35279 -0.23699,0.83124 -0.80939,1.44735l0.35548,0.31177c0.58769,-0.63424 0.9317,-1.22459 0.9317,-1.75912l-0.4778,0zm-0.81225,1.45051c-0.53035,0.59341 -1.29674,1.12041 -2.31253,1.57487l0.19972,0.42255c1.05688,-0.47315 1.88538,-1.03512 2.47402,-1.69197l-0.36121,-0.30545zm-2.31062,1.57403c-0.97852,0.42785 -2.11472,0.64513 -3.41337,0.64513l0,0.46506c1.35312,0 2.55812,-0.22648 3.60927,-0.68596l-0.1959,-0.42422zm1.08268,-8.43911l0,-0.09078l-0.4778,0l0,0.09078l0.4778,0zm0,-0.09078c0,-1.4361 -0.40708,-2.62394 -1.24036,-3.54187l-0.35835,0.30796c0.74154,0.81645 1.12091,1.88711 1.12091,3.23391l0.4778,0zm-1.23653,-3.5375c-0.81703,-0.94527 -1.92265,-1.41387 -3.29105,-1.41387l0,0.46506c1.24227,0 2.20837,0.41874 2.92506,1.24812l0.36599,-0.29931zm-3.29105,-1.41387c-1.36745,0 -2.47402,0.46859 -3.2901,1.41387l0.36504,0.29931c0.71669,-0.82938 1.6828,-1.24812 2.92506,-1.24812l0,-0.46506zm-3.29105,1.41424c-0.78932,0.91793 -1.17442,2.1041 -1.17442,3.53713l0.4778,0c0,-1.34987 0.36121,-2.42229 1.06357,-3.23856l-0.36695,-0.29857zm-1.17442,3.53713l0,0.09078l0.4778,0l0,-0.09078l-0.4778,0zm0.2389,0.32331l8.51527,0l0,-0.46506l-8.51527,0l0,0.46506z"/>
    <path fill="#51504F" d="m180.82978,124.78398c-0.42142,0 -0.78932,-0.1544 -1.10562,-0.46134c-0.31534,-0.30787 -0.47397,-0.66596 -0.47397,-1.07614c0,-0.41018 0.02676,-0.69107 0.07931,-0.84547l19.58101,-49.72107c0.42046,-1.12711 1.26329,-1.69067 2.52658,-1.69067l5.36851,0c1.26329,0 2.10517,0.56356 2.52658,1.69067l19.5017,49.72107l0.15767,0.84547c0,0.41018 -0.15767,0.76827 -0.47397,1.07614c-0.31534,0.30694 -0.6842,0.46134 -1.10466,0.46134l-4.02686,0c-0.57909,0 -1.0263,-0.12836 -1.3426,-0.38414c-0.31534,-0.30787 -0.52653,-0.6148 -0.63165,-0.92267l-4.3422,-10.91209l-25.89651,0l-4.34316,10.91209c-0.10511,0.30787 -0.3421,0.6148 -0.71,0.92267c-0.3163,0.25578 -0.73772,0.38414 -1.26329,0.38414l-4.02686,0zm33.95023,-18.82829l-10.65866,-27.28153l-10.65866,27.28153l21.31732,0zm22.81186,-28.58797c-0.52653,0 -0.97375,-0.15365 -1.3426,-0.46106c-0.3163,-0.35865 -0.47397,-0.79413 -0.47397,-1.30644l0,-4.14989c0,-0.51231 0.15767,-0.94779 0.47397,-1.30644c0.36886,-0.35856 0.81607,-0.53788 1.3426,-0.53788l4.97385,0c0.52653,0 0.97375,0.17933 1.34165,0.53788c0.36886,0.35865 0.55329,0.79413 0.55329,1.30644l0,4.14989c0,0.51231 -0.18443,0.94779 -0.55329,1.30644c-0.3679,0.3074 -0.81512,0.46106 -1.34165,0.46106l-4.97385,0zm0.63165,47.41625c-0.52653,0 -0.97375,-0.1544 -1.3426,-0.46134c-0.3163,-0.35902 -0.47397,-0.79432 -0.47397,-1.30681l0,-36.42622c0,-0.51231 0.15767,-0.92221 0.47397,-1.22952c0.36886,-0.35865 0.81607,-0.53798 1.3426,-0.53798l3.78892,0c0.52653,0 0.94795,0.17933 1.26329,0.53798c0.36886,0.30731 0.55329,0.71721 0.55329,1.22952l0,36.42622c0,0.51249 -0.18443,0.94779 -0.55329,1.30681c-0.31534,0.30694 -0.73676,0.46134 -1.26329,0.46134l-3.78892,0zm19.12137,0c-0.52653,0 -0.97375,-0.1544 -1.3426,-0.46134c-0.31534,-0.35902 -0.47302,-0.79432 -0.47302,-1.30681l0,-36.3493c0,-0.5124 0.15767,-0.94788 0.47302,-1.30644c0.36886,-0.35865 0.81607,-0.53798 1.3426,-0.53798l3.6322,0c0.52557,0 0.97375,0.17933 1.34165,0.53798c0.36886,0.35856 0.55329,0.79404 0.55329,1.30644l0,3.38133c2.15772,-3.48383 5.84248,-5.22575 11.05332,-5.22575l3.07891,0c0.52653,0 0.94795,0.17933 1.26329,0.53798c0.36886,0.30731 0.55233,0.71721 0.55233,1.22952l0,3.15085c0,0.51231 -0.18347,0.92221 -0.55233,1.22961c-0.31534,0.3074 -0.73676,0.46106 -1.26329,0.46106l-4.73686,0c-2.84288,0 -5.07992,0.81971 -6.71111,2.45913c-1.63215,1.58863 -2.44822,3.76603 -2.44822,6.53219l0,22.59339c0,0.51249 -0.18347,0.94779 -0.55233,1.30681c-0.36886,0.30694 -0.81607,0.46134 -1.3426,0.46134l-3.86823,0zm34.09834,0c-0.52557,0 -0.97375,-0.1544 -1.34165,-0.46134c-0.3163,-0.35902 -0.47397,-0.79432 -0.47397,-1.30681l0,-32.04576l-6.71111,0c-0.52653,0 -0.97375,-0.15375 -1.34165,-0.46115c-0.3163,-0.35865 -0.47397,-0.79413 -0.47397,-1.30644l0,-2.61287c0,-0.51231 0.15767,-0.92221 0.47397,-1.22952c0.3679,-0.35865 0.81512,-0.53798 1.34165,-0.53798l6.71111,0l0,-3.84248c0,-8.70949 4.52663,-13.06428 13.5799,-13.06428l4.42152,0c0.52653,0 0.94795,0.17933 1.26329,0.53788c0.36886,0.3074 0.55329,0.7173 0.55329,1.22961l0,2.61287c0,0.51231 -0.18443,0.94779 -0.55329,1.30644c-0.31534,0.3074 -0.73676,0.46106 -1.26329,0.46106l-4.26289,0c-2.36891,0 -4.02686,0.6148 -4.97481,1.84441c-0.94699,1.17836 -1.42096,2.9971 -1.42096,5.45623l0,3.45825l16.8958,0l0,-15.13927c0,-0.51231 0.15863,-0.92221 0.47397,-1.22961c0.36886,-0.35856 0.81607,-0.53788 1.3426,-0.53788l3.63124,0c0.52653,0 0.94795,0.17933 1.26329,0.53788c0.36886,0.3074 0.55329,0.7173 0.55329,1.22961l0,53.33298c0,0.51249 -0.18443,0.94779 -0.55329,1.30681c-0.31534,0.30694 -0.73676,0.46134 -1.26329,0.46134l-3.63124,0c-0.52653,0 -0.97375,-0.1544 -1.3426,-0.46134c-0.31534,-0.35902 -0.47397,-0.79432 -0.47397,-1.30681l0,-32.04576l-16.8958,0l0,32.04576c0,0.51249 -0.18443,0.94779 -0.55233,1.30681c-0.3163,0.30694 -0.73676,0.46134 -1.26329,0.46134l-3.71151,0zm58.23752,0.76827c-5.78992,0 -10.2898,-1.58863 -13.50059,-4.76497c-3.15823,-3.17634 -4.84293,-7.40277 -5.05316,-12.68024l-0.07931,-3.30376l0.07931,-3.30469c0.21023,-5.22631 1.92074,-9.42707 5.13152,-12.6035c3.21078,-3.22768 7.68486,-4.84143 13.42223,-4.84143c5.73737,0 10.21144,1.61375 13.42223,4.84143c3.21078,3.17643 4.92129,7.37719 5.13248,12.6035c0.05256,0.56365 0.07836,1.6649 0.07836,3.30469c0,1.63886 -0.0258,2.74011 -0.07836,3.30376c-0.21119,5.27746 -1.92169,9.5039 -5.13248,12.68024c-3.15823,3.17634 -7.6323,4.76497 -13.42223,4.76497zm0,-5.91738c3.3159,0 5.9218,-1.02499 7.81673,-3.07402c1.94749,-2.04904 3.00055,-4.99564 3.15823,-8.83794c0.05256,-0.51249 0.07836,-1.48539 0.07836,-2.91963c0,-1.43517 -0.0258,-2.40806 -0.07836,-2.92056c-0.15767,-3.8423 -1.21073,-6.7889 -3.15823,-8.83775c-1.89494,-2.04932 -4.50083,-3.07393 -7.81673,-3.07393c-3.3159,0 -5.9476,1.02461 -7.89509,3.07393c-1.94749,2.04885 -2.9738,4.99545 -3.07891,8.83775l-0.07931,2.92056l0.07931,2.91963c0.10511,3.8423 1.13142,6.7889 3.07891,8.83794c1.94749,2.04904 4.57919,3.07402 7.89509,3.07402zm38.33639,5.14911c-0.6842,0 -1.21073,-0.1544 -1.57959,-0.46134c-0.3679,-0.30787 -0.6842,-0.79432 -0.94699,-1.46028l-11.21195,-35.65794l-0.15767,-0.76846c0,-0.46115 0.15767,-0.84538 0.47397,-1.15278c0.3679,-0.3074 0.76256,-0.46106 1.18398,-0.46106l3.47357,0c0.52653,0 0.94795,0.15365 1.26329,0.46106c0.36886,0.25615 0.60584,0.53798 0.71096,0.84538l8.76372,28.97201l9.39537,-28.66461c0.10607,-0.4099 0.3421,-0.76855 0.71096,-1.07586c0.36886,-0.35865 0.86863,-0.53798 1.50028,-0.53798l2.68425,0c0.63165,0 1.13142,0.17933 1.50028,0.53798c0.36886,0.30731 0.60489,0.66596 0.71096,1.07586l9.39537,28.66461l8.76372,-28.97201c0.05256,-0.25615 0.23699,-0.53798 0.55233,-0.84538c0.36886,-0.3074 0.81607,-0.46106 1.3426,-0.46106l3.55289,0c0.42142,0 0.78932,0.15365 1.10562,0.46106c0.31534,0.3074 0.47302,0.69163 0.47302,1.15278l-0.15767,0.76846l-11.13263,35.65794c-0.26279,0.66596 -0.57909,1.15241 -0.94699,1.46028c-0.36886,0.30694 -0.92119,0.46134 -1.65795,0.46134l-3.07987,0c-1.42096,0 -2.2896,-0.64085 -2.60494,-1.92161l-9.15934,-27.51183l-9.15838,27.51183c-0.42046,1.28077 -1.31585,1.92161 -2.68425,1.92161l-3.07891,0z"/>
   </g>
   <defs transform="translate(-0.094927) translate(0, 0.228242) translate(1.32193, 1.64657) scale(0.955591, 0.930113) translate(-1.32193, -1.64657)">
    <clipPath id="svg_17">
     <rect x="-0.09493" y="0.22824" fill="white" height="175" width="453"/>
    </clipPath>
   </defs>
  </g>
  <g>
   <path d="m420.09761,141.45402c-3.07408,3.16187 -3.07408,8.28591 0,11.44778c3.07643,3.15946 8.062,3.15946 11.13608,0c3.07643,-3.16187 3.07643,-8.28591 0,-11.44778c-3.07408,-3.15946 -8.05965,-3.15946 -11.13608,0zm8.3251,8.56355a3.89622,4.00444 0 0 1 -5.51413,0a3.89681,4.00504 0 0 1 0,-5.66547a3.89622,4.00444 0 0 1 5.51413,0c1.52239,1.55745 1.52239,4.1008 0,5.66547zm2.68089,-48.38808l-4.82559,4.95902a2.44356,2.51143 0 0 0 0,3.53829l18.83886,19.3621a2.44356,2.51143 0 0 0 3.44267,0l4.82501,-4.95962c0.94344,-0.96964 0.94344,-2.56624 0,-3.53527l-18.84707,-19.36511a2.43712,2.5048 0 0 0 -3.43388,0l0,0.0006zm-33.8067,63.37174a2.20507,2.26631 0 0 0 0,-3.19801l-2.45118,-2.52167a2.208,2.26932 0 0 0 -3.11334,0l-5.06526,5.20896l-0.00938,0.00723l-1.38937,-1.43037c-0.7694,-0.79077 -2.02165,-0.79077 -2.78343,0c-0.7694,0.79017 -0.7694,2.0772 0,2.86074l8.34796,8.57741a1.96481,2.01938 0 0 0 2.78109,0c0.76178,-0.79077 0.7694,-2.0778 0,-2.85833l-1.39172,-1.43037l0.00938,-0.00723l5.06526,-5.20836zm0,0" fill="#f5a800"/>
   <path d="m422.82186,115.86756l-10.71944,11.01656c-0.95223,0.97867 -0.95223,2.59033 0,3.569l6.6193,6.80134c4.67851,-3.46059 11.23921,-3.03239 15.44835,1.29667l5.3606,-5.51009c0.95047,-0.97867 0.95047,-2.58792 0,-3.56659l-13.23801,-13.60689a2.45235,2.52046 0 0 0 -3.47021,0l-0.00059,0zm-6.88358,24.25427l-3.9097,-4.01829c-0.9159,-0.94073 -2.41719,-0.94073 -3.33074,0l-13.78825,14.17723a2.36504,2.43073 0 0 0 0,3.42506l7.81178,8.02935a2.36504,2.43073 0 0 0 3.33309,0l8.86714,-9.12847c-1.87457,-3.98034 -1.53821,-8.7888 1.01669,-12.48488zm0,0" fill="#425cc7"/>
  </g>
 </g>

</svg>