<svg viewBox="0 0 170 166" xmlns="http://www.w3.org/2000/svg">
  <path fill="#017CEE" d="m3.96797,160.71612l78.55914,-78.38205c0.49213,-0.49101 0.58645,-1.25017 0.17602,-1.80777c-4.77881,-6.49284 -13.59204,-7.61819 -16.8591,-11.98023c-9.67765,-12.92141 -12.13314,-20.23499 -16.29168,-19.78137c-0.2905,0.03172 -0.54946,0.18388 -0.75358,0.38749l-28.37971,28.31572c-16.32632,16.28936 -18.6676,52.15453 -19.09697,82.18603c-0.0194,1.35704 1.67216,2.03323 2.64588,1.06219z"/>
  <path fill="#00AD46" d="m164.75006,158.7787l-80.52906,-76.465c-0.50446,-0.47901 -1.28441,-0.5709 -1.85729,-0.17142c-6.6706,4.6515 -7.82677,13.22965 -12.30839,16.40971c-13.27535,9.41926 -20.78926,11.80965 -20.32322,15.8575c0.03259,0.28275 0.18892,0.53482 0.39819,0.73293l29.09124,27.62344c16.73555,15.89099 53.58313,18.16977 84.43724,18.58739c1.39421,0.01953 2.08892,-1.62677 1.09128,-2.57455z"/>
  <path fill="#04D659" d="m79.22115,142.76587c-9.14185,-8.67982 -13.38314,-25.8525 4.14268,-61.26518c-28.4831,12.38958 -38.46453,28.67586 -33.55433,33.33852l29.41165,27.92666z" clip-rule="evenodd" fill-rule="evenodd"/>
  <path fill="#00C7D4" d="m162.75765,2.2849l-78.55902,78.38194c-0.49213,0.49101 -0.58645,1.25007 -0.17602,1.80768c4.77881,6.49284 13.59242,7.61819 16.85863,11.98033c9.67822,12.92114 12.13409,20.23462 16.29187,19.78165c0.2905,-0.03162 0.54946,-0.18416 0.75396,-0.38786l28.37913,-28.31572c16.32722,-16.28954 18.66842,-52.15434 19.09748,-82.18615c0.01911,-1.35711 -1.67228,-2.03339 -2.64603,-1.06186z"/>
  <path fill="#11E1EE" d="m146.30716,85.53292c-8.91853,8.89774 -26.5616,13.02652 -62.94428,-4.03223c12.72895,27.72343 29.46134,37.43939 34.25172,32.65954l28.69257,-28.62731z" clip-rule="evenodd" fill-rule="evenodd"/>
  <path fill="#E43921" d="m1.97775,4.22206l80.52892,76.4646c0.50446,0.47901 1.28431,0.5709 1.85729,0.17142c6.6706,-4.6514 7.82677,-13.22965 12.30791,-16.40962c13.27602,-9.41963 20.78983,-11.80965 20.3235,-15.85732c-0.03249,-0.28275 -0.18921,-0.53482 -0.39753,-0.73349l-29.09172,-27.62307c-16.73574,-15.89106 -53.58303,-18.16992 -84.43743,-18.58785c-1.39428,-0.01889 -2.08908,1.62757 -1.09095,2.57533z"/>
  <path fill="#FF7557" d="m87.50555,20.23412c9.14147,8.68047 13.38333,25.85269 -4.14268,61.26555c28.48281,-12.38939 38.46492,-28.67596 33.55413,-33.33833l-29.41146,-27.92721z" clip-rule="evenodd" fill-rule="evenodd"/>
  <path fill="#0CB6FF" d="m20.42003,77.468c8.91824,-8.89812 26.56084,-13.02633 62.94371,4.03223c-12.72885,-27.72371 -29.46144,-37.43902 -34.25153,-32.65972l-28.69218,28.6275z" clip-rule="evenodd" fill-rule="evenodd"/>
  <circle fill="#4A4848" r="3.67606" cy="82.5" cx="83.5"/>
  <g transform="translate(-283, 1)">
    <path d="m420.09761,141.45402c-3.07408,3.16187 -3.07408,8.28591 0,11.44778c3.07643,3.15946 8.062,3.15946 11.13608,0c3.07643,-3.16187 3.07643,-8.28591 0,-11.44778c-3.07408,-3.15946 -8.05965,-3.15946 -11.13608,0zm8.3251,8.56355a3.89622,4.00444 0 0 1 -5.51413,0a3.89681,4.00504 0 0 1 0,-5.66547a3.89622,4.00444 0 0 1 5.51413,0c1.52239,1.55745 1.52239,4.1008 0,5.66547zm2.68089,-48.38808l-4.82559,4.95902a2.44356,2.51143 0 0 0 0,3.53829l18.83886,19.3621a2.44356,2.51143 0 0 0 3.44267,0l4.82501,-4.95962c0.94344,-0.96964 0.94344,-2.56624 0,-3.53527l-18.84707,-19.36511a2.43712,2.5048 0 0 0 -3.43388,0l0,0.0006zm-33.8067,63.37174a2.20507,2.26631 0 0 0 0,-3.19801l-2.45118,-2.52167a2.208,2.26932 0 0 0 -3.11334,0l-5.06526,5.20896l-0.00938,0.00723l-1.38937,-1.43037c-0.7694,-0.79077 -2.02165,-0.79077 -2.78343,0c-0.7694,0.79017 -0.7694,2.0772 0,2.86074l8.34796,8.57741a1.96481,2.01938 0 0 0 2.78109,0c0.76178,-0.79077 0.7694,-2.0778 0,-2.85833l-1.39172,-1.43037l0.00938,-0.00723l5.06526,-5.20836zm0,0" fill="#f5a800"/>
    <path d="m422.82186,115.86756l-10.71944,11.01656c-0.95223,0.97867 -0.95223,2.59033 0,3.569l6.6193,6.80134c4.67851,-3.46059 11.23921,-3.03239 15.44835,1.29667l5.3606,-5.51009c0.95047,-0.97867 0.95047,-2.58792 0,-3.56659l-13.23801,-13.60689a2.45235,2.52046 0 0 0 -3.47021,0l-0.00059,0zm-6.88358,24.25427l-3.9097,-4.01829c-0.9159,-0.94073 -2.41719,-0.94073 -3.33074,0l-13.78825,14.17723a2.36504,2.43073 0 0 0 0,3.42506l7.81178,8.02935a2.36504,2.43073 0 0 0 3.33309,0l8.86714,-9.12847c-1.87457,-3.98034 -1.53821,-8.7888 1.01669,-12.48488zm0,0" fill="#425cc7"/>
  </g>
</svg>
