<svg width="1000" height="1000" viewBox="0 0 1000 1000" fill="none" xmlns="http://www.w3.org/2000/svg">
<g clip-path="url(#clip0_102_1378)">
<path d="M872.573 377.811L361.487 57.9625C345.999 48.9153 330.231 45.0444 314.453 53.5758C301.22 60.9272 294.717 78.545 294.717 94.4978V708.929L361.605 666.965V136.247L810.333 416.974L777.835 437.305L841.251 477.219L873.444 456.983C886.317 449.021 895.747 432.926 895.747 416.974C895.747 401.022 885.502 385.912 872.573 377.811Z" fill="#00BAF5"/>
<path d="M873.572 528.801L388.9 225.503V305.054L810.097 568.607L361.413 849.415V808.771L294.775 850.488V891.062C294.775 906.986 302.517 923.588 315.778 930.885C333.59 940.678 355.088 931.583 361.413 927.671L872.792 607.852C885.443 599.752 895.752 583.318 895.752 567.393C895.752 551.47 886.388 536.763 873.572 528.801Z" fill="#00BAF5"/>
<path d="M664.249 508.195L233.519 778.013V207.864L267.504 229.337V149.437L233.519 127.623C220.424 120.132 200.114 119.467 187.436 127.623C174.758 135.779 166.714 151.29 166.714 167.186V819.636C166.714 835.589 166.906 853.405 187.436 863.365C205.718 872.243 227.344 860.645 233.613 856.762L728.012 548.04L664.249 508.195Z" fill="#00BAF5"/>
</g>
<defs>
<clipPath id="clip0_102_1378">
<rect width="1000" height="1000" fill="white"/>
</clipPath>
</defs>
</svg>
