<?xml version="1.0" encoding="UTF-8" standalone="no"?>
<!-- Created with Inkscape (http://www.inkscape.org/) -->

<svg
   xmlns:dc="http://purl.org/dc/elements/1.1/"
   xmlns:cc="http://creativecommons.org/ns#"
   xmlns:rdf="http://www.w3.org/1999/02/22-rdf-syntax-ns#"
   xmlns:svg="http://www.w3.org/2000/svg"
   xmlns="http://www.w3.org/2000/svg"
   xmlns:xlink="http://www.w3.org/1999/xlink"
   xmlns:sodipodi="http://sodipodi.sourceforge.net/DTD/sodipodi-0.dtd"
   xmlns:inkscape="http://www.inkscape.org/namespaces/inkscape"
   version="1.1"
   id="svg834"
   xml:space="preserve"
   width="409.33292"
   height="166.75058"
   viewBox="0 0 409.33292 166.75058"
   sodipodi:docname="PhasedRelease-CS.svg"
   inkscape:version="0.92.2 5c3e80d, 2017-08-06"><metadata
     id="metadata840"><rdf:RDF><cc:Work
         rdf:about=""><dc:format>image/svg+xml</dc:format><dc:type
           rdf:resource="http://purl.org/dc/dcmitype/StillImage" /><dc:title></dc:title></cc:Work></rdf:RDF></metadata><defs
     id="defs838"><clipPath
       clipPathUnits="userSpaceOnUse"
       id="clipPath852"><path
         d="M 0,0 H 612 V 792 H 0 Z"
         id="path850"
         inkscape:connector-curvature="0" /></clipPath><clipPath
       clipPathUnits="userSpaceOnUse"
       id="clipPath860"><path
         d="m -749.369,-45.4393 h 2 v -58.7847 h -2 z"
         id="path858"
         inkscape:connector-curvature="0" /></clipPath><clipPath
       clipPathUnits="userSpaceOnUse"
       id="clipPath1256"><path
         d="M 36,391.52 H 304.229 V 271.475 H 36 Z"
         id="path1254"
         inkscape:connector-curvature="0" /></clipPath><clipPath
       clipPathUnits="userSpaceOnUse"
       id="clipPath1368"><path
         d="M 0,0 H 612 V 792 H 0 Z"
         id="path1366"
         inkscape:connector-curvature="0" /></clipPath><clipPath
       clipPathUnits="userSpaceOnUse"
       id="clipPath1396"><path
         d="M 0,0 H 612 V 792 H 0 Z"
         id="path1394"
         inkscape:connector-curvature="0" /></clipPath><clipPath
       clipPathUnits="userSpaceOnUse"
       id="clipPath1432"><path
         d="M 0,0 H 612 V 792 H 0 Z"
         id="path1430"
         inkscape:connector-curvature="0" /></clipPath></defs><sodipodi:namedview
     pagecolor="#ffffff"
     bordercolor="#666666"
     borderopacity="1"
     objecttolerance="10"
     gridtolerance="10"
     guidetolerance="10"
     inkscape:pageopacity="0"
     inkscape:pageshadow="2"
     inkscape:window-width="1382"
     inkscape:window-height="945"
     id="namedview836"
     showgrid="false"
     fit-margin-top="0"
     fit-margin-left="0"
     fit-margin-right="0"
     fit-margin-bottom="0"
     inkscape:zoom="1"
     inkscape:cx="224.1701"
     inkscape:cy="171.71097"
     inkscape:window-x="168"
     inkscape:window-y="20"
     inkscape:window-maximized="0"
     inkscape:current-layer="g1518" /><g
     id="g842"
     inkscape:groupmode="layer"
     inkscape:label="PhasedRelease-CS"
     transform="matrix(1.3333333,0,0,-1.3333333,-237.09597,1002.4343)"><g
       id="g1518"
       transform="matrix(4.2054927,0,0,4.2054927,-1937.8449,-2419.1027)"><g
         id="g1392"
         clip-path="url(#clipPath1396)"
         style="fill:#000000" /><g
         id="g1557"><g
           style="fill:#0099cc;fill-opacity:1"
           transform="translate(518.1763,724.9189)"
           id="g1402"><path
             inkscape:connector-curvature="0"
             id="path1404"
             style="fill:#0099cc;fill-opacity:1;fill-rule:nonzero;stroke:none"
             d="m 0,0 c -6.127,1.862 -10.58,7.517 -10.58,14.209 0,6.763 4.548,12.465 10.768,14.279 0.637,0.189 0.472,0.59 -0.306,0.59 -8.271,0 -14.986,-6.669 -14.986,-14.869 0,-8.2 6.715,-14.869 14.986,-14.869 C 0.66,-0.66 0.707,-0.212 0,0" /></g><g
           style="fill:#000000"
           transform="translate(510.4474,735.6639)"
           id="g1406"><path
             inkscape:connector-curvature="0"
             id="path1408"
             style="fill:#0099cc;fill-opacity:1;fill-rule:nonzero;stroke:none"
             d="m 0,0 c -0.047,0.401 -0.071,0.801 -0.071,1.202 0,6.527 5.279,11.805 11.806,11.805 6.173,0 8.011,-2.757 8.247,-2.568 0.259,0.188 -2.239,5.655 -9.473,5.655 -6.527,0 -11.805,-5.278 -11.805,-11.805 0,-1.508 0.283,-2.946 0.801,-4.265 C -0.283,-0.542 0.047,-0.542 0,0" /></g><g
           style="fill:#0099cc;fill-opacity:1"
           transform="translate(515.3958,744.1704)"
           id="g1410"><path
             inkscape:connector-curvature="0"
             id="path1412"
             style="fill:#0099cc;fill-opacity:1;fill-rule:nonzero;stroke:none"
             d="m 0,0 c 3.063,1.343 6.928,1.39 10.721,0.047 2.545,-0.895 4.03,-2.168 4.148,-2.097 0.212,0.094 -1.485,2.757 -4.525,3.912 C 6.668,3.252 2.71,2.521 -0.165,0.259 -0.495,0 -0.377,-0.165 0,0" /></g><g
           style="fill:#ff9933;fill-opacity:1"
           transform="translate(576.072,738.6094)"
           id="g1414"><path
             inkscape:connector-curvature="0"
             id="path1416"
             style="fill:#ff9933;fill-opacity:1;fill-rule:nonzero;stroke:none"
             d="m 0,0 c 0,-0.848 -0.707,-1.555 -1.555,-1.555 -0.849,0 -1.555,0.683 -1.555,1.555 0,0.848 0.683,1.555 1.555,1.555 C -0.683,1.555 0,0.872 0,0" /></g><path
           inkscape:connector-curvature="0"
           id="path1420"
           style="fill:#ff9933;fill-opacity:1;fill-rule:nonzero;stroke:none"
           d="m 525.4574,729.9144 0.188,-2.074 h 3.276 l -1.108,12.041 h -4.877 l -6.174,-12.041 h 3.346 l 1.037,2.074 z m -0.165,2.333 h -2.993 l 2.569,5.207 h 0.023 z" /><path
           inkscape:connector-curvature="0"
           id="path1424"
           style="fill:#ff9933;fill-opacity:1;fill-rule:nonzero;stroke:none"
           d="m 533.469,733.0956 h 0.495 l 2.333,3.181 h 3.039 l -3.228,-4.053 1.98,-4.383 h -3.229 l -1.296,3.417 h -0.471 l -0.73,-3.417 h -2.757 l 2.544,12.041 h 2.757 z" /><g
           style="fill:#ff9933;fill-opacity:1"
           clip-path="url(#clipPath1432)"
           id="g1428"><g
             style="fill:#ff9933;fill-opacity:1"
             transform="translate(543.6485,727.8408)"
             id="g1434"><path
               inkscape:connector-curvature="0"
               id="path1436"
               style="fill:#ff9933;fill-opacity:1;fill-rule:nonzero;stroke:none"
               d="M 0,0 H 2.757 L 3.864,5.255 C 4.477,8.153 3.37,8.506 0.542,8.506 c -1.979,0 -3.888,0.024 -4.43,-2.591 h 2.757 c 0.165,0.754 0.636,0.918 1.32,0.918 1.201,0 1.154,-0.494 0.989,-1.272 L 0.895,4.218 H 0.778 C 0.683,5.184 -0.542,5.16 -1.32,5.16 c -2.002,0 -3.181,-0.636 -3.605,-2.662 -0.447,-2.144 0.566,-2.616 2.498,-2.616 0.966,0 2.262,0.189 2.71,1.343 H 0.377 Z M -0.778,3.487 C 0.118,3.487 0.707,3.417 0.565,2.71 0.377,1.838 0,1.673 -1.155,1.673 c -0.424,0 -1.201,0 -1.013,0.919 0.165,0.778 0.707,0.895 1.39,0.895" /></g><g
             style="fill:#ff9933;fill-opacity:1"
             transform="translate(551.99,736.2766)"
             id="g1438"><path
               inkscape:connector-curvature="0"
               id="path1440"
               style="fill:#ff9933;fill-opacity:1;fill-rule:nonzero;stroke:none"
               d="m 0,0 -0.259,-1.178 h 0.118 c 0.542,0.99 1.649,1.272 2.592,1.272 1.178,0 2.356,-0.212 2.191,-1.649 H 4.76 c 0.4,1.202 1.626,1.649 2.686,1.649 1.956,0 2.781,-0.801 2.356,-2.757 L 8.577,-8.436 H 5.82 l 1.037,4.878 c 0.141,0.872 0.283,1.532 -0.778,1.532 -1.084,0 -1.437,-0.707 -1.626,-1.626 L 3.44,-8.436 H 0.683 l 1.084,5.114 c 0.142,0.777 0.189,1.296 -0.777,1.296 -1.131,0 -1.485,-0.613 -1.697,-1.626 L -1.72,-8.436 H -4.477 L -2.686,0 Z" /></g><g
             style="fill:#ff9933;fill-opacity:1"
             transform="translate(566.9058,727.8408)"
             id="g1442"><path
               inkscape:connector-curvature="0"
               id="path1444"
               style="fill:#ff9933;fill-opacity:1;fill-rule:nonzero;stroke:none"
               d="m 0,0 h 2.757 l 1.131,5.255 c 0.613,2.898 -0.495,3.251 -3.322,3.251 -1.98,0 -3.889,0.024 -4.43,-2.591 h 2.757 c 0.164,0.754 0.636,0.918 1.319,0.918 1.202,0 1.155,-0.494 0.99,-1.272 L 0.919,4.218 H 0.801 C 0.707,5.184 -0.518,5.16 -1.296,5.16 c -2.003,0 -3.181,-0.636 -3.605,-2.662 -0.448,-2.144 0.565,-2.616 2.497,-2.616 0.967,0 2.263,0.189 2.71,1.343 H 0.401 Z M -0.754,3.487 C 0.141,3.487 0.73,3.417 0.589,2.71 0.401,1.838 0.024,1.673 -1.131,1.673 c -0.424,0 -1.202,0 -1.013,0.919 0.165,0.778 0.707,0.895 1.39,0.895" /></g></g><path
           inkscape:connector-curvature="0"
           id="path1448"
           style="fill:#ff9933;fill-opacity:1;fill-rule:nonzero;stroke:none"
           d="m 573.6685,727.8408 h -2.757 l 1.767,8.436 h 2.781 z" /></g></g></g></svg>