<?xml version="1.0" encoding="UTF-8"?>
<svg width="80px" height="80px" viewBox="0 0 80 80" version="1.1" xmlns="http://www.w3.org/2000/svg" xmlns:xlink="http://www.w3.org/1999/xlink">
    <title>Icon-Architecture/64/Arch_Amazon-Security-Lake_64</title>
    <defs>
        <linearGradient x1="0%" y1="100%" x2="100%" y2="0%" id="linearGradient-1">
            <stop stop-color="#BD0816" offset="0%"></stop>
            <stop stop-color="#FF5252" offset="100%"></stop>
        </linearGradient>
    </defs>
    <g id="Icon-Architecture/64/Arch_Amazon-Security-Lake_64" stroke="none" stroke-width="1" fill="none" fill-rule="evenodd">
        <g id="Icon-Architecture-BG/64/Security-Identity-Compliance" fill="url(#linearGradient-1)">
            <rect id="Rectangle" x="0" y="0" width="80" height="80"></rect>
        </g>
        <g id="Icon-Service/64/Amazon-Security-Lake_64" transform="translate(12.000000, 12.000000)" fill="#FFFFFF">
            <path d="M29,11.378051 L29,25.987051 L31,25.987051 L31,10.673051 C31,10.251051 30.734,9.87405096 30.336,9.73205096 L18.336,5.44605096 C18.119,5.36905096 17.881,5.36905096 17.664,5.44605096 L5.664,9.73205096 C5.266,9.87405096 5,10.251051 5,10.673051 L5,29.530051 C5,32.544051 8.081,40.816051 18,40.816051 L18,38.816051 C8.912,38.816051 7,31.058051 7,29.530051 L7,11.378051 L17,7.80705096 L17,29.987051 L19,29.987051 L19,7.80705096 L29,11.378051 Z M51.248,49.191051 L49.248,49.191051 C49.248,51.839051 47.094,53.993051 44.446,53.993051 C41.799,53.993051 39.645,51.839051 39.645,49.191051 L37.645,49.191051 C37.645,51.839051 35.49,53.993051 32.843,53.993051 C30.194,53.993051 28.04,51.839051 28.04,49.191051 L26.04,49.191051 C26.04,51.839051 23.886,53.993051 21.238,53.993051 L21.238,55.993051 C23.69,55.993051 25.843,54.690051 27.04,52.738051 C28.237,54.690051 30.391,55.993051 32.843,55.993051 C35.294,55.993051 37.447,54.689051 38.645,52.738051 C39.842,54.689051 41.995,55.993051 44.446,55.993051 C46.898,55.993051 49.051,54.690051 50.248,52.738051 C51.445,54.690051 53.599,55.993051 56.051,55.993051 L56.051,53.993051 C53.402,53.993051 51.248,51.839051 51.248,49.191051 L51.248,49.191051 Z M51.248,39.404051 L49.248,39.404051 C49.248,42.052051 47.094,44.207051 44.446,44.207051 C41.799,44.207051 39.645,42.052051 39.645,39.404051 L37.645,39.404051 C37.645,42.052051 35.49,44.207051 32.843,44.207051 C30.194,44.207051 28.04,42.052051 28.04,39.404051 L26.04,39.404051 C26.04,42.052051 23.886,44.207051 21.238,44.207051 L21.238,46.207051 C23.69,46.207051 25.843,44.902051 27.04,42.952051 C28.237,44.902051 30.391,46.207051 32.843,46.207051 C35.294,46.207051 37.447,44.902051 38.645,42.952051 C39.842,44.902051 41.995,46.207051 44.446,46.207051 C46.898,46.207051 49.051,44.902051 50.248,42.952051 C51.445,44.902051 53.599,46.207051 56.051,46.207051 L56.051,44.207051 C53.402,44.207051 51.248,42.052051 51.248,39.404051 L51.248,39.404051 Z M51.248,29.485051 L49.248,29.485051 C49.248,32.133051 47.094,34.287051 44.446,34.287051 C41.799,34.287051 39.645,32.133051 39.645,29.485051 L37.645,29.485051 C37.645,32.133051 35.49,34.287051 32.843,34.287051 C30.194,34.287051 28.04,32.133051 28.04,29.485051 L26.04,29.485051 C26.04,32.133051 23.886,34.287051 21.238,34.287051 L21.238,36.287051 C23.69,36.287051 25.843,34.983051 27.04,33.032051 C28.237,34.983051 30.391,36.287051 32.843,36.287051 C35.294,36.287051 37.447,34.983051 38.645,33.032051 C39.842,34.983051 41.995,36.287051 44.446,36.287051 C46.898,36.287051 49.051,34.983051 50.248,33.032051 C51.445,34.983051 53.599,36.287051 56.051,36.287051 L56.051,34.287051 C53.402,34.287051 51.248,32.133051 51.248,29.485051 L51.248,29.485051 Z M18.516,44.205051 L18.516,46.205051 C9.487,46.205051 4.982,41.680051 2.792,37.885051 C0.078,33.181051 0,28.238051 0,27.690051 L0,7.67205096 C0,7.25705096 0.256,6.88505096 0.644,6.73705096 L18.159,0.0650509561 C18.396,-0.0239490439 18.657,-0.0219490439 18.891,0.0730509561 L35.375,6.74505096 C35.753,6.89805096 36,7.26505096 36,7.67205096 L36,25.987051 L34,25.987051 L34,8.34605096 L18.505,2.07405096 L2,8.36105096 L2,27.690051 C2,28.364051 2.188,44.205051 18.516,44.205051 L18.516,44.205051 Z" id="Fill-8"></path>
        </g>
    </g>
</svg>