<?xml version="1.0" encoding="UTF-8"?>
<svg width="86px" height="86px" viewBox="0 0 86 86" xmlns="http://www.w3.org/2000/svg" xmlns:xlink="http://www.w3.org/1999/xlink">
  <svg width="64px" height="64px" viewBox="0 0 64 64" version="1.1" xmlns="http://www.w3.org/2000/svg" xmlns:xlink="http://www.w3.org/1999/xlink">
      <title>Icon-Architecture/48/Arch_AWS-Lambda_48</title>
      <g id="Icon-Architecture/48/Arch_AWS-Lambda_48" stroke="none" stroke-width="1" fill="none" fill-rule="evenodd">
          <g id="Icon-Architecture-BG/48/Compute" fill="#ED7100">
              <rect id="Rectangle" x="0" y="0" width="64" height="64"></rect>
          </g>
          <path d="M22.6794094,52 L13.5740701,52 L23.8376189,30.41 L28.3997494,39.861 L22.6794094,52 Z M24.7269406,27.667 C24.5606285,27.321 24.2120702,27.103 23.8306478,27.103 L23.8276601,27.103 C23.4452418,27.104 23.0966835,27.325 22.9323632,27.672 L11.0973143,52.569 C10.9499239,52.879 10.9708374,53.243 11.1540795,53.534 C11.3353298,53.824 11.6540117,54 11.9955989,54 L23.309802,54 C23.695208,54 24.0447622,53.777 24.2100784,53.428 L30.4044577,40.284 C30.5329264,40.01 30.5319305,39.692 30.3994783,39.42 L24.7269406,27.667 Z M51.0082382,52 L41.985557,52 L26.9547262,19.578 C26.7914017,19.226 26.4388599,19 26.0524581,19 L20.1279625,19 L20.1349337,12 L31.8146251,12 L46.7747483,44.42 C46.9380728,44.774 47.2906147,45 47.6790082,45 L51.0082382,45 L51.0082382,52 Z M52.0041191,43 L48.3143803,43 L33.354257,10.58 C33.1909326,10.226 32.8383907,10 32.450993,10 L19.1400486,10 C18.5913182,10 18.1451636,10.447 18.1441677,10.999 L18.1362006,19.999 C18.1362006,20.265 18.2407681,20.519 18.4269979,20.707 C18.6142235,20.895 18.8671772,21 19.1310857,21 L25.4170861,21 L40.4479168,53.422 C40.6112413,53.774 40.9627873,54 41.350185,54 L52.0041191,54 C52.5548412,54 53,53.552 53,53 L53,44 C53,43.448 52.5548412,43 52.0041191,43 L52.0041191,43 Z" id="AWS-Lambda_Icon_48_Squid" fill="#FFFFFF"></path>
      </g>
  </svg>
  <svg x="66" y="66" width="20" height="20" viewBox="0 0 128 128">
    <path fill="#f5a800" d="M67.648 69.797c-5.246 5.25-5.246 13.758 0 19.008 5.25 5.246 13.758 5.246 19.004 0 5.25-5.25 5.25-13.758 0-19.008-5.246-5.246-13.754-5.246-19.004 0Zm14.207 14.219a6.649 6.649 0 0 1-9.41 0 6.65 6.65 0 0 1 0-9.407 6.649 6.649 0 0 1 9.41 0c2.598 2.586 2.598 6.809 0 9.407ZM86.43 3.672l-8.235 8.234a4.17 4.17 0 0 0 0 5.875l32.149 32.149a4.17 4.17 0 0 0 5.875 0l8.234-8.235c1.61-1.61 1.61-4.261 0-5.87L92.29 3.671a4.159 4.159 0 0 0-5.86 0ZM28.738 108.895a3.763 3.763 0 0 0 0-5.31l-4.183-4.187a3.768 3.768 0 0 0-5.313 0l-8.644 8.649-.016.012-2.371-2.375c-1.313-1.313-3.45-1.313-4.75 0-1.313 1.312-1.313 3.449 0 4.75l14.246 14.242a3.353 3.353 0 0 0 4.746 0c1.3-1.313 1.313-3.45 0-4.746l-2.375-2.375.016-.012Zm0 0"/>
    <path fill="#425cc7" d="M72.297 27.313 54.004 45.605c-1.625 1.625-1.625 4.301 0 5.926L65.3 62.824c7.984-5.746 19.18-5.035 26.363 2.153l9.148-9.149c1.622-1.625 1.622-4.297 0-5.922L78.22 27.313a4.185 4.185 0 0 0-5.922 0ZM60.55 67.585l-6.672-6.672c-1.563-1.562-4.125-1.562-5.684 0l-23.53 23.54a4.036 4.036 0 0 0 0 5.687l13.331 13.332a4.036 4.036 0 0 0 5.688 0l15.132-15.157c-3.199-6.609-2.625-14.593 1.735-20.73Zm0 0"/>
  </svg>
</svg>
