<svg id="svg" version="1.1" xmlns="http://www.w3.org/2000/svg" xmlns:xlink="http://www.w3.org/1999/xlink" width="400" height="76.25" viewBox="0, 0, 400,76.25"><g id="svgg"><path id="path0" d="M49.500 9.052 C 49.500 9.126,49.420 9.137,49.323 9.077 C 49.225 9.017,49.007 9.093,48.837 9.246 C 48.668 9.400,48.410 9.543,48.265 9.564 C 47.907 9.617,47.375 10.209,47.460 10.462 C 47.497 10.575,47.409 10.667,47.264 10.667 C 47.111 10.667,47.000 10.807,47.000 11.000 C 47.000 11.195,46.889 11.333,46.732 11.333 C 46.563 11.333,46.500 11.425,46.560 11.583 C 46.613 11.721,46.584 11.833,46.495 11.833 C 46.406 11.833,46.333 11.949,46.333 12.091 C 46.333 12.233,46.144 12.537,45.913 12.768 C 45.683 12.999,45.537 13.258,45.590 13.344 C 45.643 13.430,45.612 13.500,45.521 13.500 C 45.430 13.500,45.308 13.651,45.249 13.836 C 45.191 14.020,45.074 14.129,44.990 14.077 C 44.906 14.025,44.877 14.087,44.926 14.215 C 44.975 14.342,44.900 14.542,44.759 14.659 C 44.619 14.776,44.545 14.938,44.595 15.019 C 44.645 15.100,44.602 15.167,44.500 15.167 C 44.398 15.167,44.360 15.242,44.418 15.335 C 44.475 15.427,44.348 15.572,44.136 15.658 C 43.914 15.746,43.857 15.819,44.000 15.828 C 44.205 15.841,44.198 15.883,43.961 16.063 C 43.802 16.184,43.721 16.332,43.780 16.391 C 43.840 16.451,43.751 16.500,43.583 16.500 C 43.415 16.500,43.326 16.548,43.384 16.606 C 43.443 16.665,43.305 16.934,43.078 17.204 C 42.850 17.474,42.702 17.755,42.747 17.828 C 42.792 17.902,42.680 18.001,42.497 18.049 C 42.276 18.107,42.199 18.224,42.267 18.401 C 42.323 18.547,42.286 18.667,42.184 18.667 C 42.083 18.667,42.000 18.783,42.000 18.925 C 42.000 19.067,41.794 19.379,41.542 19.619 C 41.290 19.858,41.190 19.992,41.320 19.916 C 41.464 19.833,41.431 19.946,41.237 20.205 C 41.061 20.440,40.849 20.591,40.766 20.540 C 40.683 20.490,40.673 20.542,40.744 20.657 C 40.906 20.919,40.508 21.691,40.282 21.552 C 40.190 21.495,40.160 21.521,40.215 21.611 C 40.270 21.700,40.151 21.956,39.949 22.180 C 39.748 22.404,39.365 23.018,39.097 23.544 C 38.817 24.096,38.500 24.501,38.347 24.503 C 38.116 24.505,38.114 24.525,38.333 24.667 C 38.471 24.756,38.504 24.829,38.407 24.831 C 38.204 24.834,36.833 26.843,36.833 27.138 C 36.833 27.245,36.750 27.315,36.648 27.292 C 36.546 27.269,36.431 27.438,36.393 27.667 C 36.355 27.896,36.251 28.108,36.162 28.139 C 36.073 28.169,36.000 28.338,36.000 28.514 C 36.000 28.692,35.885 28.833,35.740 28.833 C 35.597 28.833,35.527 28.908,35.583 29.000 C 35.640 29.092,35.607 29.167,35.510 29.167 C 35.413 29.167,35.333 29.265,35.333 29.385 C 35.333 29.505,35.215 29.749,35.071 29.926 C 34.927 30.104,34.863 30.145,34.930 30.016 C 35.008 29.866,34.985 29.823,34.866 29.896 C 34.765 29.959,34.720 30.111,34.767 30.234 C 34.814 30.357,34.728 30.505,34.576 30.563 C 34.415 30.625,34.339 30.774,34.394 30.918 C 34.447 31.055,34.398 31.167,34.285 31.167 C 34.120 31.167,33.617 32.002,33.583 32.333 C 33.562 32.538,33.177 33.083,33.053 33.083 C 32.978 33.083,32.935 33.140,32.958 33.208 C 32.981 33.277,32.921 33.333,32.823 33.333 C 32.726 33.333,32.693 33.408,32.750 33.500 C 32.807 33.592,32.738 33.667,32.598 33.667 C 32.441 33.667,32.380 33.762,32.440 33.917 C 32.492 34.054,32.461 34.167,32.370 34.167 C 32.279 34.167,32.080 34.429,31.928 34.750 C 31.776 35.071,31.575 35.333,31.482 35.333 C 31.390 35.333,31.360 35.409,31.417 35.501 C 31.474 35.593,31.404 35.714,31.261 35.769 C 31.117 35.824,31.000 35.949,31.000 36.046 C 31.000 36.144,30.869 36.374,30.708 36.557 C 30.548 36.741,30.510 36.836,30.623 36.770 C 30.762 36.689,30.797 36.733,30.731 36.907 C 30.676 37.049,30.565 37.123,30.483 37.073 C 30.400 37.022,30.333 37.097,30.333 37.240 C 30.333 37.383,30.261 37.500,30.173 37.500 C 30.084 37.500,29.927 37.659,29.823 37.853 C 29.669 38.140,29.676 38.181,29.858 38.071 C 30.105 37.923,29.796 38.372,29.334 38.833 C 29.196 38.971,29.059 39.196,29.028 39.333 C 28.998 39.471,28.867 39.643,28.737 39.717 C 28.606 39.790,28.500 39.966,28.500 40.107 C 28.500 40.248,28.350 40.555,28.167 40.788 C 27.983 41.021,27.833 41.314,27.833 41.439 C 27.833 41.564,27.721 41.667,27.583 41.667 C 27.446 41.667,27.345 41.723,27.360 41.792 C 27.408 42.021,27.112 42.580,26.762 42.917 C 26.572 43.100,26.336 43.475,26.238 43.750 C 26.140 44.025,25.965 44.229,25.851 44.204 C 25.736 44.179,25.689 44.235,25.747 44.329 C 25.806 44.423,25.774 44.500,25.677 44.500 C 25.579 44.500,25.500 44.635,25.500 44.800 C 25.500 44.965,25.416 45.184,25.314 45.286 C 25.105 45.495,24.767 46.060,24.510 46.629 C 24.415 46.838,24.225 47.052,24.087 47.105 C 23.948 47.158,23.871 47.259,23.915 47.330 C 23.958 47.400,23.791 47.674,23.543 47.937 C 23.295 48.201,23.113 48.510,23.137 48.625 C 23.161 48.740,23.103 48.833,23.007 48.833 C 22.912 48.833,22.833 48.913,22.833 49.010 C 22.833 49.107,22.927 49.135,23.042 49.073 C 23.156 49.011,22.955 49.232,22.595 49.563 C 22.234 49.895,21.993 50.167,22.059 50.167 C 22.125 50.167,22.097 50.319,21.998 50.505 C 21.898 50.691,21.733 50.791,21.630 50.727 C 21.508 50.652,21.480 50.709,21.550 50.889 C 21.608 51.042,21.589 51.167,21.506 51.167 C 21.423 51.167,21.307 51.319,21.248 51.505 C 21.064 52.087,20.059 53.503,19.922 53.373 C 19.850 53.305,19.848 53.438,19.917 53.667 C 19.985 53.896,19.981 54.026,19.907 53.956 C 19.833 53.885,19.675 54.059,19.556 54.342 C 19.437 54.625,19.264 54.810,19.172 54.753 C 19.070 54.690,19.047 54.763,19.114 54.935 C 19.183 55.116,19.158 55.181,19.046 55.112 C 18.944 55.049,18.822 55.197,18.758 55.459 C 18.697 55.711,18.482 56.054,18.282 56.223 C 18.081 56.391,18.029 56.470,18.167 56.397 C 18.304 56.324,18.206 56.516,17.949 56.822 C 17.670 57.156,17.523 57.486,17.583 57.643 C 17.639 57.788,17.634 57.856,17.572 57.795 C 17.418 57.640,17.000 58.085,17.000 58.405 C 17.000 58.549,16.875 58.667,16.722 58.667 C 16.569 58.667,16.492 58.714,16.550 58.772 C 16.608 58.830,16.508 59.066,16.328 59.295 C 16.148 59.524,16.000 59.818,16.000 59.949 C 16.000 60.095,15.919 60.138,15.792 60.061 C 15.670 59.988,15.688 60.067,15.833 60.250 C 15.971 60.423,16.003 60.516,15.906 60.458 C 15.808 60.399,15.588 60.591,15.417 60.884 C 15.247 61.177,14.979 61.530,14.823 61.669 C 14.667 61.808,14.507 62.070,14.468 62.252 C 14.429 62.434,14.298 62.562,14.178 62.535 C 14.040 62.504,13.996 62.583,14.060 62.749 C 14.119 62.903,14.058 63.052,13.914 63.107 C 13.778 63.160,13.667 63.289,13.667 63.395 C 13.667 63.501,13.404 63.978,13.083 64.454 C 12.762 64.930,12.500 65.403,12.500 65.503 C 12.500 65.604,12.413 65.633,12.308 65.567 C 12.182 65.490,12.161 65.522,12.246 65.660 C 12.319 65.778,12.290 65.924,12.180 65.992 C 12.072 66.059,11.971 66.270,11.957 66.462 C 11.943 66.653,11.871 66.774,11.799 66.729 C 11.726 66.684,11.667 66.730,11.667 66.830 C 11.667 66.931,11.516 67.175,11.332 67.373 C 10.766 67.981,11.092 68.012,17.430 67.964 L 23.583 67.917 23.748 67.542 C 23.838 67.335,24.012 67.167,24.133 67.167 C 24.254 67.167,24.307 67.092,24.250 67.000 C 24.193 66.908,24.226 66.833,24.323 66.833 C 24.421 66.833,24.500 66.688,24.500 66.509 C 24.500 66.331,24.658 66.075,24.851 65.939 C 25.065 65.790,25.153 65.613,25.076 65.488 C 24.994 65.355,25.017 65.324,25.141 65.401 C 25.263 65.476,25.333 65.393,25.333 65.177 C 25.333 64.988,25.400 64.833,25.482 64.833 C 25.564 64.833,25.678 64.643,25.737 64.410 C 25.795 64.177,25.916 64.031,26.005 64.086 C 26.094 64.141,26.176 64.107,26.188 64.010 C 26.231 63.643,26.259 63.574,26.516 63.209 C 26.661 63.004,26.824 62.880,26.879 62.934 C 26.933 62.989,26.933 62.864,26.879 62.657 C 26.811 62.397,26.840 62.318,26.974 62.400 C 27.146 62.507,27.242 62.308,27.186 61.958 C 27.176 61.890,27.284 61.833,27.427 61.833 C 27.569 61.833,27.640 61.758,27.583 61.665 C 27.526 61.573,27.596 61.453,27.739 61.398 C 27.883 61.343,28.000 61.110,28.000 60.881 C 28.000 60.594,28.072 60.492,28.232 60.553 C 28.388 60.613,28.497 60.476,28.565 60.131 C 28.622 59.851,28.838 59.462,29.047 59.269 C 29.255 59.075,29.532 58.654,29.663 58.333 C 29.793 58.012,30.032 57.654,30.193 57.537 C 30.355 57.420,30.536 57.059,30.597 56.735 C 30.675 56.318,30.777 56.173,30.946 56.238 C 31.077 56.288,31.143 56.264,31.094 56.184 C 31.044 56.103,31.115 55.945,31.252 55.832 C 31.388 55.719,31.500 55.550,31.500 55.456 C 31.500 55.363,31.631 55.179,31.792 55.048 C 31.967 54.904,31.984 54.857,31.833 54.931 C 31.696 54.999,31.752 54.868,31.958 54.641 C 32.165 54.414,32.333 54.144,32.333 54.041 C 32.333 53.937,32.420 53.799,32.526 53.734 C 32.653 53.655,32.673 53.689,32.583 53.833 C 32.500 53.967,32.514 54.011,32.618 53.946 C 32.712 53.889,32.768 53.652,32.742 53.420 C 32.717 53.188,32.754 53.034,32.826 53.079 C 32.897 53.123,33.097 52.998,33.269 52.801 C 33.467 52.575,33.491 52.497,33.333 52.589 C 33.196 52.669,33.290 52.489,33.542 52.188 C 33.794 51.887,34.000 51.567,34.000 51.477 C 34.000 51.387,34.087 51.367,34.192 51.433 C 34.318 51.510,34.339 51.478,34.254 51.340 C 33.971 50.882,34.962 50.838,45.750 50.831 C 57.191 50.823,57.802 50.790,57.436 50.199 C 57.383 50.113,57.526 49.902,57.753 49.731 C 57.981 49.561,58.167 49.334,58.167 49.228 C 58.167 49.122,58.284 48.991,58.427 48.936 C 58.571 48.881,58.647 48.769,58.596 48.687 C 58.546 48.606,58.654 48.350,58.836 48.118 C 59.018 47.887,59.167 47.586,59.167 47.450 C 59.167 47.314,59.279 47.159,59.417 47.106 C 59.554 47.054,59.667 46.850,59.667 46.654 C 59.667 46.411,59.744 46.327,59.908 46.390 C 60.078 46.455,60.119 46.403,60.047 46.214 C 59.972 46.021,60.005 45.984,60.164 46.082 C 60.302 46.167,60.345 46.153,60.278 46.045 C 60.219 45.949,60.282 45.778,60.419 45.665 C 60.555 45.552,60.667 45.370,60.667 45.261 C 60.667 45.152,60.798 44.915,60.958 44.735 C 61.119 44.555,61.393 44.128,61.568 43.787 C 61.743 43.446,61.940 43.167,62.007 43.167 C 62.134 43.167,62.385 42.513,62.347 42.279 C 62.335 42.204,62.383 42.177,62.454 42.220 C 62.525 42.263,62.680 42.194,62.798 42.066 C 62.928 41.925,62.943 41.833,62.836 41.833 C 62.731 41.833,62.759 41.680,62.905 41.458 L 63.150 41.083 51.909 41.127 C 41.862 41.167,40.667 41.144,40.667 40.914 C 40.667 40.772,40.773 40.615,40.904 40.565 C 41.034 40.515,41.256 40.185,41.398 39.832 C 41.539 39.479,41.777 39.122,41.926 39.038 C 42.075 38.955,42.196 38.839,42.196 38.781 C 42.195 38.426,42.402 38.000,42.575 38.000 C 42.687 38.000,42.778 37.904,42.778 37.787 C 42.778 37.504,43.332 36.667,43.519 36.667 C 43.600 36.667,43.653 36.610,43.637 36.542 C 43.580 36.304,44.222 35.181,44.365 35.270 C 44.444 35.318,44.493 35.296,44.475 35.221 C 44.430 35.035,44.859 34.167,44.996 34.167 C 45.055 34.167,45.207 33.904,45.333 33.583 C 45.459 33.263,45.656 33.000,45.771 33.000 C 45.886 33.000,46.034 32.913,46.099 32.808 C 46.167 32.698,46.146 32.660,46.049 32.720 C 45.956 32.777,46.001 32.566,46.148 32.251 C 46.296 31.936,46.515 31.675,46.635 31.672 C 46.755 31.669,46.810 31.597,46.757 31.512 C 46.704 31.426,46.739 31.309,46.833 31.250 C 46.928 31.191,46.962 31.074,46.910 30.988 C 46.857 30.903,46.888 30.833,46.979 30.833 C 47.070 30.833,47.195 30.673,47.257 30.478 C 47.346 30.199,47.401 30.172,47.516 30.353 C 47.626 30.526,47.667 30.491,47.685 30.208 C 47.728 29.513,47.764 29.417,47.966 29.458 C 48.076 29.481,48.151 29.444,48.132 29.375 C 48.067 29.143,49.103 27.659,49.239 27.788 C 49.314 27.859,49.323 27.748,49.259 27.542 C 49.170 27.250,49.212 27.164,49.447 27.154 C 49.614 27.146,49.661 27.104,49.552 27.060 C 49.411 27.002,49.431 26.890,49.624 26.665 C 49.772 26.492,49.947 26.384,50.014 26.425 C 50.081 26.467,50.099 26.332,50.053 26.125 C 49.999 25.878,50.022 25.821,50.119 25.957 C 50.224 26.103,50.328 25.997,50.472 25.598 C 50.585 25.286,50.787 24.989,50.922 24.938 C 51.056 24.886,51.167 24.691,51.167 24.505 C 51.167 24.319,51.242 24.167,51.333 24.167 C 51.425 24.167,51.500 24.054,51.500 23.917 C 51.500 23.779,51.573 23.667,51.661 23.667 C 51.750 23.667,51.780 23.554,51.727 23.417 C 51.665 23.256,51.730 23.167,51.909 23.167 C 52.061 23.167,52.140 23.092,52.083 23.000 C 52.027 22.908,52.060 22.833,52.157 22.833 C 52.254 22.833,52.333 22.912,52.333 23.007 C 52.333 23.103,52.522 23.384,52.753 23.632 C 52.984 23.880,53.265 24.290,53.377 24.542 C 53.490 24.794,53.638 25.000,53.707 25.000 C 53.777 25.000,53.835 25.131,53.838 25.292 C 53.841 25.452,54.060 25.797,54.326 26.058 C 54.626 26.351,54.772 26.632,54.710 26.794 C 54.638 26.981,54.673 27.016,54.833 26.917 C 54.998 26.815,55.028 26.854,54.947 27.065 C 54.887 27.222,54.904 27.309,54.986 27.259 C 55.067 27.208,55.213 27.392,55.308 27.667 C 55.404 27.942,55.570 28.167,55.676 28.167 C 55.782 28.167,55.824 28.283,55.770 28.425 C 55.715 28.568,55.734 28.645,55.812 28.597 C 55.889 28.549,56.095 28.789,56.268 29.130 C 56.441 29.471,56.679 29.811,56.795 29.885 C 56.912 29.960,56.964 30.091,56.910 30.177 C 56.857 30.263,56.928 30.333,57.068 30.333 C 57.226 30.333,57.286 30.428,57.227 30.583 C 57.174 30.721,57.212 30.833,57.311 30.833 C 57.410 30.833,57.608 31.058,57.750 31.333 C 57.892 31.608,57.957 31.833,57.895 31.833 C 57.833 31.833,57.994 32.016,58.254 32.240 C 58.685 32.609,58.819 32.874,58.871 33.451 C 58.881 33.562,58.933 33.630,58.986 33.602 C 59.109 33.540,59.570 34.047,59.625 34.305 C 59.648 34.411,59.920 34.855,60.229 35.291 C 60.876 36.201,61.418 37.193,61.368 37.375 C 61.349 37.444,61.400 37.500,61.481 37.500 C 61.647 37.500,62.135 38.194,62.204 38.530 C 62.229 38.651,62.383 38.849,62.544 38.970 C 62.706 39.091,62.796 39.259,62.743 39.345 C 62.690 39.430,62.739 39.500,62.851 39.500 C 62.964 39.500,63.009 39.547,62.952 39.604 C 62.894 39.661,63.013 39.854,63.215 40.033 C 63.418 40.212,63.471 40.301,63.333 40.231 C 63.196 40.161,63.365 40.418,63.708 40.802 C 64.052 41.187,64.333 41.653,64.333 41.839 C 64.333 42.025,64.450 42.222,64.593 42.277 C 64.736 42.332,64.813 42.478,64.766 42.602 C 64.718 42.727,64.817 42.902,64.986 42.993 C 65.155 43.083,65.414 43.459,65.562 43.828 C 65.710 44.198,65.906 44.500,65.999 44.500 C 66.091 44.500,66.167 44.612,66.167 44.750 C 66.167 44.887,66.237 45.000,66.323 45.000 C 66.408 45.000,66.573 45.262,66.689 45.583 C 66.805 45.904,67.004 46.167,67.131 46.167 C 67.257 46.167,67.330 46.259,67.293 46.371 C 67.223 46.580,67.346 46.776,67.893 47.329 C 68.072 47.509,68.149 47.728,68.075 47.846 C 67.988 47.987,68.017 48.009,68.169 47.915 C 68.324 47.819,68.362 47.852,68.295 48.026 C 68.240 48.170,68.340 48.361,68.533 48.482 C 68.716 48.596,68.824 48.732,68.772 48.784 C 68.720 48.835,68.863 49.023,69.089 49.201 C 69.315 49.379,69.500 49.628,69.500 49.754 C 69.500 49.880,69.631 50.068,69.792 50.171 C 70.065 50.347,70.065 50.353,69.794 50.269 C 69.544 50.191,69.533 50.224,69.709 50.506 C 69.822 50.686,69.970 50.833,70.040 50.833 C 70.110 50.833,70.167 50.908,70.167 51.000 C 70.167 51.092,70.322 51.322,70.513 51.513 C 70.703 51.703,70.817 51.970,70.765 52.105 C 70.713 52.240,70.736 52.310,70.816 52.261 C 70.896 52.211,71.054 52.395,71.168 52.669 C 71.281 52.943,71.432 53.167,71.504 53.167 C 71.704 53.167,72.349 54.339,72.243 54.511 C 72.192 54.594,72.256 54.622,72.385 54.572 C 72.548 54.510,72.655 54.648,72.728 55.017 C 72.787 55.312,72.884 55.505,72.943 55.446 C 73.074 55.315,73.487 55.832,73.495 56.137 C 73.498 56.258,73.613 56.470,73.752 56.609 C 73.890 56.747,73.953 56.941,73.892 57.039 C 73.829 57.141,73.860 57.170,73.963 57.106 C 74.062 57.045,74.191 57.071,74.248 57.164 C 74.306 57.257,74.270 57.333,74.168 57.333 C 74.066 57.333,74.185 57.521,74.432 57.750 C 74.680 57.979,74.824 58.167,74.754 58.167 C 74.683 58.167,74.719 58.279,74.833 58.417 C 74.947 58.554,74.998 58.667,74.945 58.667 C 74.892 58.667,75.032 58.864,75.255 59.104 C 75.478 59.345,75.612 59.626,75.553 59.729 C 75.495 59.832,75.507 59.862,75.580 59.796 C 75.761 59.632,76.702 61.141,76.561 61.370 C 76.495 61.477,76.526 61.504,76.636 61.436 C 76.749 61.366,76.865 61.487,76.930 61.742 C 76.988 61.974,77.103 62.123,77.184 62.072 C 77.266 62.022,77.333 62.060,77.333 62.157 C 77.333 62.523,77.363 62.587,77.599 62.719 C 77.732 62.793,77.797 62.925,77.743 63.011 C 77.689 63.098,77.767 63.216,77.916 63.273 C 78.064 63.330,78.149 63.474,78.103 63.592 C 78.057 63.711,78.205 63.930,78.432 64.078 C 78.659 64.227,78.802 64.415,78.752 64.497 C 78.701 64.580,78.798 64.783,78.967 64.948 C 79.136 65.114,79.397 65.516,79.546 65.842 C 79.695 66.168,79.970 66.572,80.155 66.739 C 80.340 66.907,80.457 67.102,80.414 67.171 C 80.371 67.241,80.455 67.344,80.602 67.401 C 80.751 67.458,80.827 67.610,80.774 67.747 C 80.693 67.960,81.525 67.992,87.090 67.992 C 92.690 67.992,93.500 67.960,93.500 67.741 C 93.500 67.603,93.395 67.449,93.266 67.400 C 93.138 67.351,92.990 67.147,92.938 66.947 C 92.799 66.416,92.890 66.564,92.065 65.535 C 91.823 65.233,91.669 64.942,91.722 64.889 C 91.776 64.836,91.654 64.654,91.451 64.485 C 91.249 64.316,91.150 64.175,91.231 64.172 C 91.312 64.169,91.181 64.011,90.939 63.821 C 90.698 63.631,90.500 63.312,90.500 63.112 C 90.500 62.912,90.272 62.534,89.993 62.270 C 89.714 62.007,89.525 61.753,89.573 61.704 C 89.621 61.656,89.500 61.478,89.305 61.309 C 89.063 61.099,89.024 60.998,89.183 60.995 C 89.348 60.991,89.331 60.940,89.125 60.820 C 88.965 60.727,88.833 60.547,88.833 60.420 C 88.833 60.294,88.715 60.073,88.571 59.929 C 88.427 59.785,88.348 59.667,88.395 59.667 C 88.443 59.667,88.264 59.429,87.998 59.138 C 87.733 58.847,87.554 58.547,87.602 58.470 C 87.703 58.306,87.254 57.814,87.103 57.925 C 87.046 57.966,87.037 57.951,87.082 57.890 C 87.127 57.830,87.080 57.680,86.978 57.557 C 86.876 57.434,86.836 57.333,86.888 57.333 C 86.941 57.333,86.800 57.135,86.575 56.892 C 86.351 56.650,86.166 56.294,86.164 56.101 C 86.162 55.807,86.133 55.790,85.983 56.000 C 85.840 56.201,85.821 56.176,85.887 55.875 C 85.941 55.625,85.891 55.500,85.734 55.500 C 85.605 55.500,85.500 55.397,85.500 55.270 C 85.500 55.144,85.392 54.951,85.260 54.842 C 85.128 54.732,85.065 54.517,85.120 54.363 C 85.175 54.209,85.158 54.139,85.083 54.207 C 84.957 54.322,84.421 53.728,84.418 53.471 C 84.417 53.409,84.163 53.071,83.852 52.721 C 83.542 52.370,83.289 52.046,83.291 52.000 C 83.292 51.954,83.236 51.767,83.167 51.583 C 83.097 51.400,83.038 51.182,83.035 51.098 C 83.032 51.015,82.909 50.879,82.761 50.796 C 82.614 50.714,82.532 50.584,82.579 50.507 C 82.626 50.431,82.553 50.325,82.416 50.273 C 82.279 50.220,82.167 50.062,82.167 49.922 C 82.167 49.782,82.084 49.667,81.982 49.667 C 81.881 49.667,81.840 49.557,81.892 49.422 C 81.943 49.287,81.902 49.126,81.800 49.063 C 81.682 48.990,81.659 49.032,81.737 49.183 C 81.803 49.311,81.743 49.267,81.601 49.083 C 81.460 48.900,81.267 48.659,81.172 48.549 C 81.078 48.438,81.000 48.232,81.000 48.090 C 81.000 47.949,80.934 47.833,80.854 47.833 C 80.773 47.833,80.609 47.590,80.489 47.292 C 80.369 46.994,80.093 46.581,79.877 46.375 C 79.660 46.169,79.533 46.000,79.595 46.000 C 79.657 46.000,79.624 45.899,79.522 45.776 C 79.420 45.653,79.386 45.503,79.446 45.443 C 79.506 45.383,79.464 45.333,79.353 45.333 C 79.242 45.333,79.016 45.034,78.852 44.667 C 78.688 44.301,78.510 44.046,78.455 44.100 C 78.371 44.185,77.815 43.256,77.647 42.750 C 77.591 42.580,77.255 42.143,76.864 41.733 C 76.744 41.606,76.699 41.415,76.765 41.309 C 76.840 41.188,76.812 41.160,76.692 41.234 C 76.575 41.307,76.500 41.240,76.500 41.062 C 76.500 40.902,76.331 40.586,76.125 40.359 C 75.919 40.132,75.862 40.009,76.000 40.085 C 76.137 40.162,76.044 40.014,75.792 39.756 C 75.540 39.499,75.333 39.213,75.333 39.121 C 75.333 39.029,75.202 38.846,75.042 38.714 C 74.851 38.558,74.836 38.513,75.000 38.583 C 75.164 38.654,75.149 38.609,74.958 38.452 C 74.798 38.321,74.667 38.123,74.667 38.013 C 74.667 37.904,74.610 37.848,74.542 37.889 C 74.473 37.931,74.307 37.846,74.172 37.701 C 73.954 37.465,73.962 37.450,74.246 37.559 C 74.548 37.674,74.549 37.664,74.282 37.369 C 74.127 37.197,74.000 36.969,74.000 36.862 C 74.000 36.755,73.933 36.667,73.851 36.667 C 73.770 36.667,73.655 36.476,73.597 36.243 C 73.538 36.010,73.417 35.865,73.328 35.920 C 73.239 35.975,73.167 35.903,73.167 35.760 C 73.167 35.617,73.092 35.500,73.000 35.500 C 72.908 35.500,72.833 35.387,72.833 35.250 C 72.833 35.112,72.750 35.000,72.649 35.000 C 72.547 35.000,72.504 34.897,72.552 34.771 C 72.603 34.639,72.467 34.450,72.234 34.325 C 71.967 34.182,71.893 34.066,72.019 33.988 C 72.148 33.909,72.093 33.806,71.856 33.679 C 71.660 33.574,71.500 33.390,71.500 33.270 C 71.500 33.149,71.352 32.880,71.170 32.671 C 70.989 32.461,70.876 32.233,70.919 32.163 C 70.963 32.092,70.886 31.992,70.749 31.939 C 70.612 31.887,70.500 31.754,70.500 31.643 C 70.500 31.533,70.369 31.293,70.208 31.109 C 70.048 30.926,70.010 30.830,70.123 30.897 C 70.261 30.977,70.298 30.934,70.234 30.769 C 70.182 30.633,70.043 30.558,69.925 30.603 C 69.734 30.677,69.434 30.126,69.482 29.792 C 69.492 29.723,69.421 29.667,69.323 29.667 C 69.226 29.667,69.193 29.592,69.250 29.500 C 69.307 29.408,69.290 29.333,69.212 29.333 C 69.085 29.333,68.535 28.524,68.451 28.212 C 68.432 28.141,68.360 28.102,68.292 28.125 C 68.223 28.148,68.167 28.054,68.167 27.917 C 68.167 27.779,68.092 27.667,68.000 27.667 C 67.908 27.667,67.833 27.554,67.833 27.417 C 67.833 27.279,67.754 27.167,67.657 27.167 C 67.560 27.167,67.527 27.092,67.583 27.000 C 67.640 26.908,67.607 26.833,67.510 26.833 C 67.413 26.833,67.333 26.743,67.333 26.633 C 67.333 26.523,67.090 26.181,66.792 25.873 C 66.407 25.475,66.345 25.349,66.578 25.438 C 66.870 25.550,66.879 25.535,66.661 25.299 C 66.527 25.154,66.360 25.069,66.292 25.111 C 66.223 25.152,66.167 25.075,66.167 24.938 C 66.167 24.802,66.064 24.588,65.939 24.462 C 65.813 24.337,65.654 24.050,65.585 23.826 C 65.515 23.601,65.337 23.289,65.188 23.133 C 64.686 22.608,64.500 22.348,64.500 22.174 C 64.500 22.078,64.420 22.000,64.322 22.000 C 64.217 22.000,64.190 21.856,64.257 21.646 C 64.326 21.427,64.305 21.331,64.203 21.394 C 64.111 21.451,63.908 21.301,63.751 21.061 C 63.557 20.766,63.538 20.665,63.691 20.749 C 63.815 20.817,63.710 20.686,63.458 20.459 C 63.206 20.231,63.000 19.926,63.000 19.782 C 63.000 19.638,62.924 19.473,62.831 19.415 C 62.737 19.357,62.701 19.246,62.750 19.167 C 62.799 19.088,62.751 18.969,62.644 18.902 C 62.522 18.827,62.493 18.854,62.567 18.974 C 62.633 19.080,62.607 19.167,62.510 19.167 C 62.413 19.167,62.333 19.053,62.333 18.914 C 62.333 18.597,61.994 17.987,61.667 17.717 C 61.529 17.603,61.478 17.508,61.554 17.505 C 61.629 17.502,61.591 17.394,61.470 17.264 C 61.106 16.875,60.417 15.949,60.414 15.846 C 60.413 15.793,60.352 15.656,60.279 15.542 C 60.207 15.427,60.189 15.333,60.240 15.333 C 60.291 15.333,60.202 15.189,60.042 15.012 C 59.881 14.835,59.655 14.575,59.539 14.433 C 59.206 14.025,58.500 12.639,58.500 12.392 C 58.500 12.268,58.387 12.167,58.250 12.167 C 58.112 12.167,58.000 12.046,58.000 11.899 C 58.000 11.752,57.816 11.487,57.591 11.310 C 57.366 11.133,57.221 10.885,57.270 10.759 C 57.321 10.626,57.217 10.485,57.021 10.423 C 56.835 10.364,56.637 10.170,56.581 9.991 C 56.524 9.813,56.405 9.667,56.316 9.667 C 56.228 9.667,55.955 9.535,55.710 9.375 C 55.465 9.215,55.130 9.074,54.966 9.063 C 54.801 9.051,54.648 9.031,54.625 9.018 C 54.443 8.915,49.500 8.947,49.500 9.052 M96.902 9.024 C 96.866 9.082,96.854 22.357,96.876 38.524 L 96.917 67.917 102.708 67.952 L 108.500 67.988 108.500 43.491 L 108.500 18.993 127.673 19.038 C 140.631 19.069,146.884 19.139,146.964 19.256 C 147.030 19.350,147.196 19.420,147.333 19.411 C 147.471 19.402,147.733 19.471,147.917 19.564 C 148.100 19.658,148.350 19.751,148.473 19.771 C 148.596 19.791,148.826 19.926,148.986 20.071 C 149.146 20.215,149.364 20.333,149.471 20.333 C 149.579 20.333,149.667 20.408,149.667 20.500 C 149.667 20.592,149.741 20.667,149.833 20.667 C 149.924 20.667,150.278 20.929,150.618 21.250 C 150.958 21.571,151.169 21.833,151.087 21.833 C 151.005 21.833,151.131 22.040,151.368 22.292 C 151.605 22.544,151.850 22.994,151.912 23.292 C 151.975 23.590,152.093 23.833,152.175 23.833 C 152.256 23.833,152.275 23.958,152.216 24.111 C 152.158 24.263,152.179 24.345,152.263 24.293 C 152.348 24.241,152.411 24.495,152.403 24.857 C 152.396 25.219,152.453 25.554,152.528 25.601 C 152.712 25.714,152.707 27.456,152.522 27.569 C 152.443 27.618,152.399 27.848,152.424 28.079 C 152.450 28.311,152.415 28.500,152.346 28.500 C 152.278 28.500,152.214 28.594,152.205 28.708 C 152.124 29.664,150.899 32.000,150.478 32.000 C 150.404 32.000,150.232 32.206,150.095 32.458 C 149.959 32.710,149.844 32.823,149.840 32.708 C 149.836 32.594,149.746 32.500,149.639 32.500 C 149.532 32.500,149.493 32.549,149.553 32.608 C 149.726 32.781,148.998 33.322,148.730 33.219 C 148.586 33.164,148.506 33.212,148.535 33.335 C 148.674 33.937,147.245 33.989,130.386 33.993 C 112.994 33.997,113.308 33.982,114.233 34.777 C 114.482 34.991,114.641 35.167,114.586 35.167 C 114.531 35.167,114.584 35.271,114.702 35.399 C 114.820 35.527,114.973 35.598,115.042 35.556 C 115.110 35.514,115.167 35.560,115.167 35.657 C 115.167 35.754,115.263 35.833,115.381 35.833 C 115.498 35.833,115.728 36.058,115.890 36.333 C 116.053 36.608,116.256 36.833,116.343 36.833 C 116.429 36.833,116.500 36.950,116.500 37.093 C 116.500 37.236,116.564 37.313,116.642 37.265 C 116.721 37.217,116.965 37.379,117.184 37.625 C 117.485 37.963,117.501 38.013,117.250 37.828 C 116.942 37.602,116.934 37.605,117.144 37.873 C 117.269 38.033,117.422 38.132,117.484 38.093 C 117.546 38.055,117.848 38.281,118.155 38.595 C 118.462 38.910,118.778 39.167,118.857 39.167 C 118.936 39.167,119.000 39.284,119.000 39.427 C 119.000 39.569,119.067 39.645,119.149 39.594 C 119.231 39.543,119.341 39.614,119.394 39.751 C 119.447 39.888,119.596 40.000,119.726 40.000 C 119.959 40.000,120.564 40.761,120.587 41.083 C 120.593 41.175,120.684 41.233,120.788 41.212 C 120.892 41.191,121.151 41.379,121.363 41.629 C 121.576 41.879,121.966 42.252,122.231 42.458 C 122.495 42.665,122.667 42.833,122.613 42.833 C 122.559 42.833,122.703 43.021,122.932 43.250 C 123.161 43.479,123.383 43.667,123.424 43.667 C 123.600 43.667,124.130 44.315,124.033 44.412 C 123.975 44.470,124.075 44.464,124.255 44.399 C 124.436 44.334,124.533 44.337,124.470 44.406 C 124.349 44.541,126.059 46.333,126.309 46.333 C 126.392 46.333,126.562 46.465,126.688 46.625 C 126.900 46.895,126.892 46.898,126.583 46.670 C 126.254 46.425,126.254 46.427,126.564 46.791 C 126.737 46.993,126.954 47.111,127.048 47.054 C 127.146 46.993,127.167 47.031,127.099 47.142 C 127.029 47.254,127.106 47.384,127.281 47.450 C 127.447 47.513,127.941 47.925,128.379 48.366 C 128.816 48.806,129.252 49.167,129.347 49.167 C 129.442 49.167,129.473 49.242,129.417 49.333 C 129.360 49.425,129.476 49.500,129.675 49.500 C 129.932 49.500,130.007 49.574,129.936 49.759 C 129.879 49.907,129.907 49.974,130.002 49.915 C 130.093 49.859,130.167 49.893,130.167 49.990 C 130.167 50.230,130.781 50.830,130.903 50.708 C 130.956 50.655,131.000 50.731,131.000 50.878 C 131.000 51.024,131.151 51.192,131.336 51.251 C 131.523 51.310,131.622 51.438,131.558 51.540 C 131.486 51.658,131.544 51.685,131.721 51.618 C 131.872 51.560,131.978 51.576,131.956 51.654 C 131.935 51.732,132.208 52.029,132.565 52.315 C 132.921 52.600,133.146 52.834,133.065 52.834 C 132.983 52.834,133.160 52.983,133.458 53.165 C 133.756 53.346,134.000 53.613,134.000 53.757 C 134.000 53.902,134.065 53.980,134.144 53.930 C 134.224 53.881,134.430 54.002,134.603 54.199 C 134.812 54.438,134.833 54.514,134.667 54.427 C 134.529 54.355,134.642 54.490,134.917 54.726 C 135.192 54.962,135.477 55.157,135.552 55.161 C 135.626 55.164,135.640 55.242,135.583 55.333 C 135.527 55.425,135.627 55.500,135.806 55.500 C 136.103 55.500,136.366 55.831,136.402 56.250 C 136.410 56.342,136.492 56.417,136.583 56.418 C 136.855 56.420,137.507 56.937,137.388 57.057 C 137.327 57.117,137.365 57.167,137.472 57.167 C 137.741 57.167,138.331 57.780,138.194 57.917 C 138.133 57.978,138.158 58.013,138.250 57.994 C 138.623 57.919,138.799 58.018,138.886 58.350 C 138.936 58.543,139.039 58.663,139.114 58.618 C 139.252 58.533,139.659 58.888,139.691 59.122 C 139.737 59.452,139.881 59.657,140.012 59.576 C 140.091 59.527,140.251 59.640,140.368 59.827 C 140.485 60.014,140.687 60.167,140.818 60.167 C 140.949 60.167,141.012 60.210,140.958 60.264 C 140.837 60.385,141.437 61.000,141.677 61.000 C 141.774 61.000,141.807 61.075,141.750 61.167 C 141.693 61.258,141.713 61.333,141.793 61.333 C 141.874 61.333,142.234 61.596,142.595 61.917 C 142.955 62.237,143.301 62.500,143.364 62.500 C 143.426 62.500,143.525 62.651,143.584 62.836 C 143.643 63.020,143.744 63.138,143.810 63.098 C 143.876 63.057,144.077 63.243,144.257 63.511 C 144.436 63.780,144.690 63.999,144.819 64.000 C 144.949 64.000,145.011 64.045,144.956 64.100 C 144.852 64.204,145.700 65.091,146.261 65.465 C 146.438 65.583,146.471 65.624,146.333 65.558 C 146.118 65.453,146.115 65.475,146.312 65.718 C 146.438 65.873,146.625 66.002,146.729 66.003 C 146.832 66.005,147.361 66.457,147.904 67.008 L 148.891 68.009 156.223 67.963 C 162.303 67.925,163.569 67.877,163.633 67.685 C 163.680 67.545,163.636 67.499,163.522 67.570 C 163.418 67.634,163.333 67.613,163.333 67.523 C 163.333 67.434,163.061 67.111,162.728 66.805 C 161.552 65.727,160.500 64.640,160.500 64.504 C 160.500 64.428,160.237 64.211,159.915 64.021 C 159.593 63.831,159.350 63.580,159.373 63.463 C 159.397 63.346,159.323 63.269,159.208 63.292 C 159.094 63.315,158.850 63.183,158.667 63.000 C 158.483 62.817,158.390 62.666,158.458 62.666 C 158.527 62.665,158.376 62.528,158.124 62.361 C 157.871 62.195,157.714 62.008,157.776 61.947 C 157.837 61.885,157.646 61.751,157.350 61.648 C 156.960 61.512,156.841 61.387,156.915 61.194 C 156.972 61.047,156.970 60.975,156.912 61.033 C 156.853 61.091,156.659 60.992,156.480 60.813 C 156.301 60.634,156.086 60.530,156.003 60.582 C 155.919 60.633,155.882 60.513,155.920 60.315 C 155.958 60.117,155.948 59.996,155.897 60.047 C 155.754 60.191,155.167 59.623,155.164 59.338 C 155.162 59.145,155.129 59.135,155.027 59.295 C 154.930 59.449,154.832 59.392,154.668 59.087 C 154.545 58.856,154.339 58.667,154.212 58.667 C 154.085 58.667,154.027 58.592,154.083 58.500 C 154.140 58.408,154.107 58.333,154.010 58.333 C 153.913 58.333,153.418 57.921,152.909 57.417 C 152.401 56.913,151.932 56.500,151.868 56.500 C 151.803 56.499,151.602 56.278,151.421 56.008 C 151.240 55.737,150.922 55.425,150.715 55.315 C 150.508 55.204,150.296 54.979,150.244 54.815 C 150.192 54.651,150.005 54.471,149.828 54.415 C 149.651 54.359,149.524 54.230,149.545 54.128 C 149.566 54.027,149.429 53.863,149.240 53.764 C 149.051 53.664,148.529 53.227,148.082 52.792 C 147.634 52.356,147.207 52.000,147.134 52.000 C 147.060 52.000,147.000 51.887,147.000 51.750 C 147.000 51.525,146.802 51.426,146.458 51.480 C 146.390 51.491,146.333 51.387,146.333 51.250 C 146.333 51.112,146.258 51.000,146.167 51.000 C 146.075 51.000,146.019 50.910,146.042 50.799 C 146.065 50.689,145.990 50.586,145.875 50.570 C 145.760 50.554,145.587 50.532,145.490 50.521 C 145.393 50.509,145.349 50.443,145.392 50.373 C 145.435 50.303,145.365 50.102,145.235 49.925 C 145.106 49.748,145.000 49.666,145.000 49.744 C 145.000 49.822,144.850 49.749,144.667 49.583 C 144.483 49.417,144.333 49.176,144.333 49.048 C 144.333 48.919,144.268 48.854,144.188 48.903 C 144.016 49.010,141.833 46.953,141.833 46.685 C 141.833 46.583,141.769 46.500,141.691 46.500 C 141.613 46.500,141.320 46.281,141.040 46.013 C 140.759 45.745,140.486 45.570,140.432 45.624 C 140.378 45.678,140.324 45.635,140.313 45.528 C 140.301 45.421,140.282 45.240,140.271 45.125 C 140.259 45.010,140.173 44.917,140.080 44.917 C 139.986 44.917,139.686 44.753,139.413 44.554 L 138.917 44.191 142.750 44.171 C 144.858 44.160,146.921 44.116,147.333 44.074 C 148.169 43.988,148.917 43.875,148.917 43.835 C 148.917 43.790,149.733 43.629,150.083 43.606 C 150.267 43.593,150.470 43.508,150.536 43.417 C 150.601 43.325,150.732 43.241,150.827 43.229 C 150.922 43.218,151.037 43.190,151.083 43.167 C 151.129 43.144,151.305 43.116,151.474 43.104 C 151.644 43.093,151.921 42.971,152.090 42.833 C 152.259 42.696,152.345 42.670,152.282 42.776 C 152.204 42.907,152.279 42.940,152.514 42.878 C 152.778 42.809,152.808 42.753,152.639 42.646 C 152.478 42.544,152.518 42.504,152.782 42.503 C 152.983 42.501,153.194 42.424,153.252 42.331 C 153.309 42.237,153.426 42.204,153.512 42.257 C 153.597 42.310,153.667 42.287,153.667 42.207 C 153.667 42.003,154.927 41.316,155.059 41.448 C 155.118 41.507,155.167 41.423,155.167 41.260 C 155.167 41.066,155.252 40.997,155.417 41.060 C 155.554 41.113,155.667 41.091,155.667 41.011 C 155.667 40.931,155.930 40.711,156.253 40.521 C 156.575 40.330,156.913 39.978,157.005 39.737 C 157.111 39.458,157.258 39.333,157.410 39.391 C 157.554 39.446,157.691 39.353,157.753 39.158 C 157.809 38.980,157.930 38.833,158.021 38.833 C 158.112 38.833,158.141 38.759,158.085 38.669 C 158.024 38.571,158.099 38.549,158.270 38.614 C 158.488 38.698,158.533 38.659,158.454 38.454 C 158.386 38.275,158.459 38.149,158.672 38.082 C 158.849 38.026,158.976 37.918,158.955 37.843 C 158.934 37.768,159.123 37.514,159.375 37.278 C 159.627 37.042,159.833 36.737,159.833 36.600 C 159.833 36.462,159.931 36.290,160.051 36.217 C 160.171 36.143,160.368 35.840,160.488 35.542 C 160.609 35.244,160.765 35.000,160.835 35.000 C 160.905 35.000,160.953 34.869,160.940 34.708 C 160.927 34.548,161.000 34.432,161.102 34.451 C 161.204 34.469,161.276 34.319,161.263 34.117 C 161.250 33.915,161.372 33.630,161.534 33.483 C 161.695 33.336,161.793 33.181,161.750 33.139 C 161.708 33.096,161.811 32.683,161.980 32.221 C 162.149 31.759,162.348 31.088,162.422 30.732 C 162.565 30.049,162.598 29.911,162.669 29.708 C 162.935 28.947,162.912 23.334,162.644 23.333 C 162.543 23.333,162.397 22.730,162.219 21.583 C 162.177 21.308,161.970 20.708,161.760 20.250 C 161.550 19.792,161.330 19.216,161.272 18.971 C 161.214 18.726,160.981 18.305,160.755 18.036 C 160.528 17.767,160.389 17.500,160.445 17.444 C 160.501 17.388,160.368 17.184,160.149 16.991 C 159.929 16.799,159.844 16.689,159.958 16.747 C 160.073 16.805,160.167 16.774,160.167 16.677 C 160.167 16.579,160.062 16.500,159.934 16.500 C 159.710 16.500,159.419 16.050,159.475 15.789 C 159.490 15.718,159.311 15.573,159.078 15.467 C 158.845 15.361,158.690 15.180,158.734 15.066 C 158.815 14.854,158.535 14.529,158.271 14.528 C 158.190 14.528,157.997 14.333,157.841 14.096 C 157.686 13.858,157.505 13.718,157.439 13.783 C 157.374 13.849,157.277 13.737,157.224 13.534 C 157.171 13.332,157.033 13.167,156.918 13.167 C 156.802 13.167,156.615 13.055,156.502 12.919 C 156.388 12.782,156.217 12.719,156.122 12.778 C 156.021 12.840,155.998 12.804,156.067 12.692 C 156.133 12.587,156.102 12.500,156.000 12.500 C 155.898 12.500,155.859 12.426,155.915 12.335 C 155.971 12.245,155.920 12.207,155.800 12.252 C 155.681 12.297,155.298 12.071,154.949 11.750 C 154.600 11.429,154.194 11.167,154.047 11.167 C 153.900 11.167,153.460 10.980,153.070 10.751 C 152.680 10.522,152.199 10.311,152.000 10.280 C 151.802 10.250,151.586 10.139,151.520 10.032 C 151.454 9.926,151.240 9.870,151.044 9.908 C 150.849 9.946,150.609 9.881,150.511 9.764 C 150.414 9.647,150.128 9.544,149.876 9.535 C 149.623 9.527,149.095 9.405,148.702 9.265 C 148.308 9.125,148.030 9.080,148.082 9.165 C 148.139 9.257,147.987 9.253,147.710 9.157 C 147.189 8.975,97.013 8.843,96.902 9.024 M179.293 8.961 L 173.670 9.004 173.668 38.263 C 173.665 63.453,173.698 67.555,173.904 67.761 C 174.102 67.959,175.090 68.000,179.654 68.000 L 185.165 68.000 185.207 38.599 C 185.231 22.429,185.199 9.230,185.138 9.268 C 185.076 9.306,185.001 9.243,184.971 9.127 C 184.928 8.962,183.711 8.926,179.293 8.961 M210.333 8.953 C 210.333 9.038,210.037 9.096,209.675 9.083 C 209.313 9.069,209.050 9.112,209.091 9.178 C 209.131 9.244,208.884 9.339,208.541 9.388 C 206.835 9.632,206.541 9.709,206.000 10.054 C 205.001 10.691,204.659 10.848,204.493 10.746 C 204.405 10.691,204.333 10.711,204.333 10.788 C 204.333 10.866,203.902 11.150,203.375 11.420 C 202.848 11.690,202.251 12.081,202.050 12.289 C 201.848 12.497,201.602 12.667,201.503 12.667 C 201.404 12.667,201.280 12.778,201.228 12.915 C 201.175 13.051,200.825 13.389,200.450 13.665 C 200.075 13.941,199.839 14.169,199.925 14.172 C 200.012 14.175,199.952 14.253,199.792 14.347 C 199.631 14.440,199.500 14.595,199.500 14.691 C 199.500 14.788,199.269 15.082,198.987 15.345 C 198.705 15.609,198.522 15.900,198.579 15.993 C 198.643 16.097,198.572 16.120,198.398 16.053 C 198.212 15.982,198.152 16.008,198.225 16.127 C 198.288 16.228,198.258 16.360,198.159 16.421 C 198.060 16.482,197.909 16.717,197.823 16.943 C 197.729 17.191,197.591 17.306,197.475 17.234 C 197.361 17.164,197.327 17.188,197.391 17.292 C 197.451 17.389,197.320 17.832,197.100 18.276 C 196.327 19.837,196.000 20.608,196.000 20.872 C 196.000 21.019,195.906 21.177,195.792 21.223 C 195.638 21.285,195.643 21.310,195.812 21.320 C 196.000 21.331,196.003 21.379,195.826 21.593 C 195.576 21.894,195.457 22.561,195.433 23.791 C 195.424 24.273,195.350 24.666,195.268 24.666 C 195.121 24.667,195.231 27.585,195.415 28.583 C 195.466 28.858,195.517 29.365,195.529 29.708 C 195.541 30.052,195.619 30.333,195.702 30.333 C 195.785 30.333,195.810 30.403,195.757 30.488 C 195.704 30.574,195.730 30.686,195.814 30.738 C 195.898 30.790,196.056 31.207,196.166 31.666 C 196.276 32.124,196.422 32.465,196.491 32.422 C 196.559 32.380,196.740 32.793,196.892 33.339 C 197.044 33.886,197.234 34.333,197.314 34.333 C 197.394 34.333,197.559 34.577,197.680 34.875 C 197.801 35.173,198.043 35.520,198.217 35.646 C 198.471 35.830,198.489 35.904,198.309 36.019 C 198.125 36.135,198.130 36.163,198.333 36.172 C 198.471 36.177,198.808 36.482,199.083 36.849 C 199.767 37.762,200.682 38.713,201.083 38.930 C 201.267 39.029,201.396 39.204,201.371 39.318 C 201.346 39.432,201.393 39.483,201.477 39.431 C 201.561 39.379,201.722 39.449,201.835 39.585 C 201.948 39.722,202.140 39.833,202.261 39.833 C 202.381 39.833,202.534 39.920,202.599 40.026 C 202.679 40.155,202.642 40.174,202.484 40.082 C 202.346 40.002,202.307 40.008,202.389 40.098 C 202.465 40.182,202.578 40.260,202.639 40.272 C 203.082 40.362,203.500 40.563,203.500 40.686 C 203.500 40.767,203.588 40.833,203.695 40.833 C 203.803 40.833,204.009 40.933,204.154 41.055 C 204.298 41.177,204.773 41.408,205.208 41.569 C 205.644 41.729,206.000 41.938,206.000 42.032 C 206.000 42.126,206.119 42.157,206.265 42.101 C 206.411 42.045,206.617 42.053,206.723 42.120 C 206.948 42.260,206.972 42.267,208.122 42.519 C 208.601 42.624,208.961 42.762,208.921 42.826 C 208.882 42.889,209.277 42.960,209.800 42.983 C 210.322 43.006,211.088 43.046,211.500 43.071 C 211.912 43.097,219.492 43.131,228.343 43.146 C 241.327 43.168,244.498 43.215,244.759 43.392 C 245.275 43.741,245.705 43.865,245.560 43.623 C 245.471 43.474,245.512 43.478,245.706 43.635 C 245.854 43.755,246.111 43.830,246.278 43.802 C 246.457 43.771,246.643 43.891,246.733 44.095 C 246.818 44.285,247.175 44.606,247.527 44.808 C 247.879 45.011,248.167 45.291,248.167 45.431 C 248.167 45.572,248.242 45.640,248.333 45.583 C 248.425 45.527,248.500 45.630,248.500 45.812 C 248.500 45.995,248.643 46.189,248.817 46.245 C 249.011 46.307,249.218 46.632,249.353 47.089 C 249.474 47.499,249.621 47.833,249.680 47.833 C 249.739 47.833,249.776 48.002,249.762 48.208 C 249.748 48.415,249.823 48.733,249.929 48.917 C 250.156 49.310,250.249 51.066,250.058 51.372 C 249.928 51.580,249.880 51.751,249.765 52.417 C 249.733 52.600,249.622 52.963,249.519 53.222 C 249.416 53.482,249.381 53.776,249.443 53.876 C 249.514 53.991,249.454 54.018,249.279 53.951 C 249.128 53.893,249.012 53.899,249.022 53.964 C 249.065 54.257,248.977 54.462,248.660 54.802 C 248.473 55.003,248.370 55.167,248.430 55.167 C 248.491 55.167,248.231 55.467,247.853 55.833 C 247.215 56.452,246.979 56.581,246.605 56.513 C 246.525 56.498,246.503 56.602,246.558 56.743 C 246.620 56.905,246.563 57.000,246.403 57.000 C 246.264 57.000,245.942 57.108,245.688 57.239 C 245.433 57.371,245.006 57.502,244.738 57.531 C 244.469 57.560,244.195 57.658,244.128 57.750 C 244.052 57.853,244.004 57.837,244.003 57.708 C 244.001 57.594,243.921 57.500,243.823 57.500 C 243.726 57.500,243.682 57.556,243.724 57.625 C 243.767 57.694,234.640 57.730,223.442 57.705 C 202.633 57.659,202.217 57.670,202.448 58.271 C 202.496 58.397,202.453 58.500,202.351 58.500 C 202.250 58.500,202.167 58.580,202.167 58.679 C 202.167 58.777,202.073 58.962,201.958 59.089 C 201.470 59.634,201.326 59.833,201.422 59.833 C 201.478 59.833,201.406 59.951,201.262 60.095 C 201.118 60.239,200.999 60.521,200.997 60.720 C 200.996 60.983,200.956 61.022,200.854 60.861 C 200.742 60.684,200.691 60.695,200.606 60.918 C 200.547 61.071,200.548 61.277,200.609 61.374 C 200.673 61.479,200.639 61.503,200.526 61.433 C 200.411 61.362,200.333 61.421,200.333 61.579 C 200.333 61.725,200.221 61.887,200.084 61.939 C 199.947 61.992,199.880 62.107,199.934 62.195 C 199.989 62.283,199.895 62.469,199.725 62.607 C 199.548 62.751,199.523 62.812,199.667 62.750 C 199.830 62.679,199.816 62.725,199.625 62.881 C 199.465 63.013,199.333 63.210,199.333 63.320 C 199.333 63.430,199.247 63.466,199.141 63.401 C 199.019 63.325,198.994 63.355,199.073 63.483 C 199.146 63.602,199.043 63.818,198.823 64.009 C 198.617 64.187,198.510 64.333,198.584 64.333 C 198.658 64.333,198.600 64.465,198.454 64.625 C 198.309 64.785,198.166 64.992,198.137 65.083 C 198.107 65.175,198.018 65.228,197.938 65.202 C 197.858 65.175,197.830 65.250,197.875 65.369 C 197.974 65.625,197.592 66.031,197.408 65.865 C 197.338 65.802,197.328 65.884,197.387 66.048 C 197.454 66.234,197.402 66.381,197.248 66.440 C 197.113 66.492,197.043 66.601,197.093 66.682 C 197.143 66.763,197.035 66.988,196.854 67.183 C 196.053 68.043,194.852 68.002,220.950 67.999 C 239.109 67.996,245.287 67.947,245.557 67.801 C 245.755 67.694,246.142 67.593,246.417 67.575 C 246.692 67.558,247.090 67.534,247.302 67.522 C 247.513 67.510,247.649 67.440,247.604 67.367 C 247.559 67.294,247.722 67.238,247.966 67.242 C 248.209 67.247,248.739 67.083,249.142 66.878 C 249.546 66.674,249.954 66.555,250.050 66.614 C 250.157 66.680,250.182 66.615,250.117 66.444 C 250.058 66.291,250.083 66.167,250.172 66.167 C 250.261 66.167,250.335 66.260,250.337 66.375 C 250.339 66.490,250.496 66.396,250.685 66.167 C 250.874 65.938,250.976 65.852,250.911 65.976 C 250.825 66.139,250.906 66.127,251.201 65.933 C 251.426 65.786,251.666 65.722,251.736 65.791 C 251.805 65.860,251.846 65.842,251.827 65.750 C 251.732 65.276,251.831 65.124,252.093 65.341 C 252.306 65.518,252.343 65.516,252.301 65.327 C 252.273 65.202,252.343 65.095,252.456 65.091 C 252.779 65.079,253.658 64.288,253.548 64.109 C 253.493 64.021,253.534 64.002,253.640 64.067 C 253.745 64.132,253.963 64.108,254.124 64.014 C 254.285 63.920,254.367 63.841,254.305 63.838 C 254.244 63.836,254.524 63.515,254.928 63.125 C 255.331 62.735,255.662 62.327,255.664 62.218 C 255.665 62.109,255.754 61.965,255.862 61.899 C 255.998 61.815,256.020 61.875,255.935 62.098 C 255.855 62.308,255.870 62.360,255.978 62.250 C 256.069 62.158,256.167 61.971,256.196 61.833 C 256.226 61.696,256.408 61.428,256.601 61.238 C 256.794 61.049,256.982 60.824,257.018 60.738 C 257.203 60.302,258.213 58.833,258.328 58.833 C 258.401 58.833,258.500 58.683,258.548 58.500 C 258.596 58.316,258.578 58.202,258.508 58.245 C 258.437 58.289,258.534 58.008,258.724 57.621 C 258.913 57.233,259.127 56.892,259.199 56.862 C 259.271 56.831,259.253 56.661,259.158 56.484 C 259.032 56.249,259.039 56.174,259.181 56.206 C 259.288 56.230,259.399 56.100,259.428 55.917 C 259.456 55.733,259.521 55.377,259.573 55.125 C 259.624 54.873,259.698 54.476,259.736 54.242 C 259.774 54.008,259.871 53.727,259.950 53.617 C 260.126 53.373,260.117 48.658,259.940 48.371 C 259.870 48.259,259.877 48.167,259.954 48.167 C 260.032 48.167,260.095 48.022,260.095 47.846 C 260.095 47.669,260.036 47.561,259.964 47.605 C 259.892 47.650,259.824 47.551,259.812 47.385 C 259.766 46.732,259.567 45.705,259.353 45.018 C 259.256 44.707,259.216 44.388,259.265 44.310 C 259.313 44.231,259.279 44.167,259.189 44.167 C 259.099 44.167,258.939 43.904,258.833 43.583 C 258.727 43.262,258.577 43.000,258.498 43.000 C 258.420 43.000,258.390 42.806,258.433 42.570 C 258.483 42.298,258.447 42.179,258.338 42.247 C 258.242 42.306,258.114 42.218,258.053 42.052 C 257.991 41.886,257.897 41.712,257.844 41.667 C 257.790 41.621,257.598 41.294,257.415 40.940 C 257.233 40.586,256.990 40.259,256.875 40.214 C 256.760 40.168,256.667 40.027,256.667 39.899 C 256.667 39.771,256.601 39.667,256.520 39.667 C 256.440 39.667,256.281 39.443,256.168 39.169 C 256.054 38.895,255.902 38.708,255.830 38.752 C 255.757 38.797,255.342 38.440,254.908 37.959 C 254.473 37.477,254.057 37.101,253.982 37.123 C 253.907 37.145,253.893 37.039,253.951 36.887 C 254.022 36.703,253.992 36.652,253.862 36.732 C 253.754 36.799,253.667 36.775,253.667 36.679 C 253.667 36.583,253.404 36.395,253.083 36.261 C 252.762 36.127,252.500 35.971,252.500 35.915 C 252.500 35.859,252.587 35.867,252.692 35.933 C 252.815 36.009,252.839 35.978,252.759 35.848 C 252.690 35.736,252.591 35.687,252.539 35.739 C 252.486 35.791,252.325 35.734,252.180 35.611 C 252.035 35.489,251.654 35.289,251.333 35.167 C 251.012 35.045,250.637 34.851,250.500 34.736 C 250.362 34.620,250.026 34.470,249.752 34.402 C 249.478 34.333,249.163 34.186,249.052 34.075 C 248.941 33.964,248.510 33.823,248.095 33.761 C 247.681 33.698,247.297 33.577,247.244 33.490 C 247.191 33.404,247.058 33.334,246.948 33.336 C 246.826 33.337,246.845 33.407,247.000 33.518 C 247.201 33.663,247.184 33.675,246.917 33.580 C 246.733 33.515,246.295 33.393,245.942 33.310 C 245.585 33.225,237.803 33.140,228.359 33.117 C 211.546 33.076,210.784 33.053,210.021 32.556 C 209.799 32.412,209.680 32.387,209.750 32.499 C 209.818 32.609,209.570 32.525,209.200 32.312 C 208.830 32.099,208.571 31.854,208.624 31.767 C 208.678 31.681,208.609 31.653,208.472 31.706 C 208.323 31.763,208.101 31.640,207.923 31.404 C 207.759 31.185,207.540 31.054,207.437 31.113 C 207.334 31.172,207.306 31.159,207.374 31.084 C 207.531 30.910,207.179 30.473,206.981 30.595 C 206.900 30.645,206.833 30.527,206.833 30.333 C 206.833 30.139,206.764 30.023,206.679 30.076 C 206.594 30.128,206.476 30.019,206.417 29.833 C 206.358 29.647,206.240 29.538,206.155 29.591 C 206.070 29.643,206.000 29.547,206.000 29.377 C 206.000 29.206,205.906 28.966,205.792 28.842 C 205.625 28.663,205.625 28.641,205.792 28.735 C 205.906 28.800,206.000 28.780,206.000 28.690 C 206.000 28.601,205.913 28.499,205.806 28.463 C 205.074 28.219,205.333 23.713,206.132 22.792 C 206.271 22.631,206.331 22.500,206.264 22.500 C 206.197 22.500,206.255 22.387,206.393 22.250 C 206.530 22.113,206.728 22.000,206.831 22.000 C 206.935 22.000,206.979 21.934,206.928 21.852 C 206.819 21.676,207.860 20.500,208.125 20.500 C 208.226 20.500,208.412 20.397,208.538 20.272 C 208.900 19.910,209.827 19.477,210.005 19.586 C 210.094 19.641,210.167 19.607,210.167 19.510 C 210.167 19.413,210.223 19.345,210.292 19.360 C 210.360 19.374,210.567 19.318,210.750 19.235 C 210.944 19.147,219.362 19.083,230.877 19.083 C 249.644 19.083,250.675 19.068,250.764 18.789 C 250.815 18.627,250.911 18.529,250.977 18.569 C 251.043 18.610,251.110 18.481,251.125 18.283 C 251.140 18.084,251.231 17.895,251.327 17.863 C 251.423 17.831,251.460 17.736,251.408 17.652 C 251.356 17.569,251.435 17.500,251.583 17.500 C 251.744 17.500,251.805 17.423,251.734 17.308 C 251.669 17.202,251.726 17.034,251.860 16.933 C 251.994 16.832,252.155 16.614,252.217 16.448 C 252.288 16.261,252.411 16.194,252.540 16.271 C 252.685 16.358,252.679 16.310,252.521 16.115 C 252.360 15.916,252.351 15.833,252.489 15.833 C 252.598 15.833,252.645 15.767,252.595 15.686 C 252.545 15.604,252.660 15.497,252.852 15.447 C 253.045 15.396,253.151 15.276,253.090 15.177 C 253.029 15.078,253.096 14.953,253.239 14.898 C 253.383 14.843,253.500 14.693,253.500 14.566 C 253.500 14.438,253.575 14.333,253.667 14.333 C 253.758 14.333,253.824 14.277,253.814 14.208 C 253.745 13.771,253.858 13.520,254.085 13.607 C 254.265 13.676,254.308 13.627,254.235 13.437 C 254.173 13.277,254.235 13.130,254.389 13.071 C 254.530 13.017,254.607 12.873,254.561 12.751 C 254.514 12.629,254.619 12.485,254.797 12.428 C 255.030 12.354,255.098 12.216,255.043 11.929 C 254.987 11.637,255.057 11.504,255.309 11.425 C 255.496 11.365,255.696 11.170,255.753 10.991 C 255.809 10.813,255.930 10.667,256.021 10.667 C 256.112 10.667,256.145 10.600,256.095 10.520 C 256.045 10.439,256.154 10.183,256.336 9.952 C 257.143 8.925,258.922 9.000,233.764 9.000 C 221.167 9.000,210.742 8.954,210.597 8.899 C 210.452 8.843,210.333 8.867,210.333 8.953 M280.941 8.959 L 267.299 9.002 266.832 9.501 C 266.576 9.776,266.431 10.041,266.510 10.090 C 266.590 10.139,266.507 10.326,266.327 10.506 C 266.147 10.686,266.000 10.937,266.000 11.064 C 266.000 11.191,265.862 11.330,265.694 11.374 C 265.526 11.418,265.389 11.566,265.389 11.703 C 265.389 11.911,264.457 13.398,264.157 13.667 C 264.106 13.713,263.966 13.994,263.845 14.292 C 263.725 14.590,263.515 14.833,263.379 14.833 C 263.224 14.833,263.168 14.930,263.229 15.090 C 263.284 15.231,263.224 15.386,263.096 15.435 C 262.968 15.484,262.817 15.709,262.760 15.936 C 262.698 16.183,262.582 16.301,262.469 16.231 C 262.351 16.158,262.328 16.190,262.407 16.318 C 262.476 16.430,262.428 16.648,262.301 16.802 C 262.173 16.957,261.967 17.287,261.843 17.536 C 261.718 17.785,261.569 17.959,261.510 17.923 C 261.383 17.844,260.930 18.818,261.041 18.930 C 261.084 18.973,267.017 19.005,274.226 19.002 L 287.333 18.996 287.333 43.492 L 287.333 67.988 293.125 67.952 L 298.917 67.917 298.959 43.454 L 299.001 18.991 310.376 19.037 L 321.750 19.083 321.750 14.083 C 321.750 9.801,321.714 9.067,321.500 8.969 C 321.264 8.861,312.959 8.859,280.941 8.959 M347.667 9.000 C 345.349 9.070,344.825 9.135,344.333 9.409 C 344.012 9.589,343.694 9.720,343.625 9.701 C 343.556 9.682,343.500 9.779,343.500 9.917 C 343.500 10.054,343.375 10.167,343.222 10.167 C 343.069 10.167,342.993 10.216,343.053 10.275 C 343.113 10.335,343.031 10.490,342.872 10.621 C 342.694 10.767,342.679 10.811,342.833 10.735 C 342.971 10.668,342.900 10.814,342.676 11.060 C 342.452 11.306,342.252 11.617,342.233 11.750 C 342.183 12.087,341.734 12.509,341.577 12.367 C 341.505 12.303,341.494 12.381,341.552 12.542 C 341.609 12.702,341.580 12.833,341.486 12.833 C 341.393 12.833,341.238 13.058,341.142 13.333 C 341.046 13.608,340.901 13.792,340.819 13.741 C 340.737 13.691,340.720 13.778,340.780 13.935 C 340.860 14.143,340.830 14.184,340.673 14.087 C 340.529 13.998,340.482 14.029,340.533 14.182 C 340.611 14.415,340.469 14.650,339.958 15.132 C 339.798 15.284,339.667 15.541,339.667 15.704 C 339.667 15.867,339.592 16.000,339.500 16.000 C 339.408 16.000,339.342 16.056,339.353 16.125 C 339.410 16.487,339.280 16.731,338.746 17.265 C 338.423 17.588,338.199 17.917,338.247 17.995 C 338.296 18.074,338.272 18.163,338.196 18.194 C 338.119 18.225,337.771 18.700,337.422 19.250 C 337.074 19.800,336.705 20.305,336.603 20.372 C 336.480 20.453,336.501 20.498,336.667 20.503 C 336.848 20.509,336.814 20.596,336.544 20.822 C 336.192 21.115,335.750 21.942,335.804 22.202 C 335.818 22.268,335.705 22.274,335.554 22.216 C 335.369 22.145,335.318 22.174,335.399 22.305 C 335.465 22.412,335.440 22.500,335.343 22.500 C 335.246 22.500,335.167 22.652,335.167 22.839 C 335.167 23.025,335.064 23.217,334.938 23.265 C 334.812 23.313,334.576 23.647,334.414 24.005 C 334.253 24.364,334.056 24.618,333.977 24.569 C 333.898 24.520,333.833 24.642,333.833 24.839 C 333.833 25.266,333.267 26.039,333.079 25.869 C 333.006 25.804,332.994 25.833,333.051 25.934 C 333.109 26.035,332.971 26.292,332.745 26.505 C 332.519 26.717,332.333 27.028,332.333 27.196 C 332.333 27.363,332.252 27.500,332.153 27.500 C 332.053 27.500,332.003 27.591,332.040 27.702 C 332.077 27.813,331.926 28.072,331.705 28.277 C 331.484 28.482,331.347 28.721,331.401 28.807 C 331.454 28.894,331.381 29.010,331.238 29.065 C 331.096 29.119,331.026 29.240,331.083 29.332 C 331.140 29.424,331.061 29.500,330.909 29.500 C 330.731 29.500,330.665 29.590,330.726 29.748 C 330.781 29.891,330.736 29.979,330.619 29.956 C 330.508 29.935,330.438 30.044,330.464 30.200 C 330.489 30.355,330.356 30.565,330.167 30.666 C 329.978 30.767,329.863 30.912,329.910 30.989 C 330.001 31.137,329.400 31.997,329.055 32.213 C 328.941 32.284,328.884 32.439,328.929 32.557 C 328.975 32.675,328.859 32.909,328.673 33.078 C 328.486 33.247,328.333 33.486,328.333 33.609 C 328.333 33.732,328.275 33.833,328.203 33.833 C 328.132 33.833,327.986 34.065,327.879 34.349 C 327.772 34.632,327.612 34.819,327.523 34.764 C 327.435 34.710,327.382 34.797,327.406 34.958 C 327.430 35.118,327.311 35.348,327.142 35.468 C 326.972 35.588,326.833 35.796,326.833 35.931 C 326.833 36.067,326.721 36.220,326.584 36.273 C 326.447 36.325,326.377 36.435,326.427 36.517 C 326.478 36.600,326.448 36.667,326.361 36.667 C 326.274 36.667,326.151 36.872,326.088 37.123 C 326.025 37.374,325.923 37.618,325.861 37.665 C 325.635 37.835,324.833 38.982,324.833 39.135 C 324.833 39.222,324.722 39.385,324.585 39.498 C 324.449 39.612,324.370 39.758,324.411 39.824 C 324.451 39.889,324.282 40.166,324.034 40.438 C 323.786 40.711,323.367 41.364,323.102 41.890 C 322.837 42.417,322.491 42.938,322.334 43.049 C 322.177 43.159,321.994 43.420,321.929 43.627 C 321.863 43.835,321.740 43.962,321.655 43.909 C 321.570 43.857,321.498 43.949,321.495 44.115 C 321.488 44.506,320.755 45.700,320.611 45.555 C 320.550 45.494,320.500 45.601,320.500 45.793 C 320.500 45.984,320.313 46.364,320.083 46.636 C 319.854 46.909,319.667 47.210,319.667 47.306 C 319.667 47.402,319.498 47.599,319.292 47.744 C 319.085 47.888,318.935 48.042,318.958 48.087 C 319.086 48.333,318.948 48.658,318.528 49.093 C 318.269 49.363,317.953 49.822,317.826 50.113 C 317.699 50.404,317.537 50.606,317.465 50.561 C 317.349 50.490,317.261 50.864,317.312 51.204 C 317.322 51.271,317.069 51.587,316.749 51.907 C 316.429 52.227,316.167 52.595,316.167 52.724 C 316.167 52.853,316.061 53.047,315.932 53.154 C 315.803 53.261,315.574 53.608,315.424 53.924 C 315.274 54.241,315.082 54.500,314.997 54.500 C 314.913 54.500,314.887 54.612,314.940 54.750 C 314.992 54.887,314.951 55.000,314.847 55.000 C 314.743 55.000,314.585 55.192,314.496 55.427 C 314.391 55.704,314.261 55.810,314.125 55.728 C 313.968 55.634,313.970 55.669,314.133 55.870 C 314.314 56.094,314.299 56.173,314.034 56.360 C 313.861 56.483,313.621 56.771,313.501 57.000 C 313.382 57.229,313.230 57.454,313.165 57.500 C 313.100 57.546,312.922 57.827,312.769 58.125 C 312.616 58.423,312.428 58.667,312.350 58.667 C 312.272 58.667,312.053 59.026,311.864 59.465 C 311.676 59.903,311.368 60.401,311.181 60.570 C 310.994 60.739,310.881 60.943,310.930 61.022 C 310.980 61.102,310.940 61.167,310.843 61.167 C 310.746 61.167,310.667 61.283,310.667 61.426 C 310.667 61.569,310.423 61.916,310.125 62.198 C 309.827 62.480,309.696 62.650,309.833 62.577 C 310.015 62.479,310.004 62.533,309.792 62.776 C 309.631 62.960,309.500 63.165,309.500 63.233 C 309.500 63.300,309.294 63.628,309.042 63.961 C 308.790 64.294,308.696 64.503,308.833 64.424 C 308.971 64.346,308.933 64.434,308.750 64.620 C 308.567 64.805,308.361 64.926,308.294 64.887 C 308.226 64.848,308.209 64.916,308.256 65.039 C 308.303 65.161,308.187 65.428,307.998 65.631 C 307.808 65.834,307.706 66.000,307.769 66.000 C 307.833 66.000,307.779 66.131,307.649 66.292 C 306.234 68.040,306.145 68.013,313.266 67.994 C 316.936 67.984,319.467 67.915,319.413 67.827 C 319.307 67.656,319.760 66.885,320.201 66.483 C 320.362 66.336,320.446 66.168,320.387 66.109 C 320.328 66.050,320.416 65.852,320.582 65.668 C 320.749 65.484,320.832 65.333,320.768 65.333 C 320.704 65.333,320.824 65.153,321.034 64.932 C 321.623 64.315,322.000 63.785,322.000 63.575 C 322.000 63.471,322.148 63.251,322.329 63.087 C 322.511 62.923,322.618 62.723,322.569 62.643 C 322.519 62.563,322.598 62.452,322.744 62.396 C 322.962 62.312,322.971 62.249,322.796 62.032 C 322.629 61.826,322.629 61.797,322.793 61.895 C 322.918 61.971,323.042 61.917,323.102 61.762 C 323.157 61.619,323.280 61.551,323.377 61.610 C 323.482 61.676,323.502 61.637,323.425 61.513 C 323.351 61.393,323.447 61.150,323.658 60.926 C 323.856 60.715,324.030 60.383,324.044 60.186 C 324.059 59.990,324.146 59.854,324.237 59.885 C 324.328 59.915,324.617 59.526,324.880 59.021 C 325.142 58.516,325.489 57.986,325.651 57.843 C 325.814 57.700,325.994 57.396,326.051 57.167 C 326.109 56.938,326.365 56.527,326.620 56.254 C 326.875 55.981,327.067 55.738,327.046 55.714 C 326.994 55.652,327.208 55.116,327.364 54.917 C 327.436 54.825,327.682 54.517,327.910 54.231 C 328.137 53.946,328.288 53.677,328.244 53.633 C 328.200 53.588,328.352 53.349,328.582 53.101 C 328.812 52.853,329.000 52.578,329.000 52.491 C 329.000 52.404,329.056 52.333,329.125 52.333 C 329.194 52.333,329.430 51.996,329.648 51.583 L 330.046 50.833 341.156 50.833 C 349.814 50.833,352.316 50.879,352.491 51.042 C 352.615 51.156,352.671 51.170,352.617 51.072 C 352.562 50.974,352.664 50.789,352.842 50.660 C 353.021 50.532,353.167 50.330,353.167 50.213 C 353.167 50.096,353.224 50.000,353.293 50.000 C 353.363 50.000,353.518 49.842,353.639 49.649 C 353.759 49.456,353.784 49.344,353.695 49.399 C 353.605 49.455,353.618 49.313,353.724 49.083 C 353.830 48.854,354.007 48.700,354.117 48.741 C 354.236 48.786,354.279 48.719,354.224 48.575 C 354.173 48.442,354.216 48.333,354.320 48.333 C 354.423 48.333,354.580 48.146,354.667 47.917 C 354.754 47.688,354.906 47.500,355.006 47.500 C 355.105 47.500,355.140 47.425,355.083 47.333 C 355.027 47.242,355.069 47.167,355.177 47.167 C 355.316 47.167,355.307 47.084,355.145 46.885 C 355.020 46.730,355.002 46.654,355.106 46.716 C 355.277 46.819,355.750 46.427,355.750 46.183 C 355.750 46.128,355.812 46.104,355.887 46.129 C 355.963 46.154,355.977 46.098,355.919 46.004 C 355.861 45.910,355.898 45.833,356.000 45.833 C 356.102 45.833,356.140 45.758,356.083 45.665 C 356.026 45.573,356.098 45.452,356.244 45.396 C 356.416 45.330,356.474 45.182,356.409 44.976 C 356.342 44.763,356.381 44.673,356.529 44.704 C 356.651 44.729,356.731 44.654,356.707 44.537 C 356.683 44.420,356.777 44.281,356.915 44.228 C 357.053 44.174,357.167 44.027,357.167 43.899 C 357.167 43.771,357.244 43.667,357.337 43.667 C 357.491 43.667,357.867 42.964,357.903 42.612 C 357.910 42.535,358.062 42.367,358.240 42.237 C 358.418 42.106,358.500 42.000,358.423 42.000 C 358.345 42.000,358.396 41.869,358.535 41.708 C 358.824 41.377,358.889 40.711,358.606 40.994 C 358.232 41.368,336.132 41.218,336.365 40.844 C 336.476 40.667,336.623 40.556,336.691 40.599 C 336.760 40.641,336.787 40.524,336.751 40.338 C 336.715 40.152,336.760 40.000,336.851 40.000 C 336.942 40.000,337.161 39.681,337.338 39.292 C 337.515 38.902,337.662 38.658,337.665 38.750 C 337.668 38.842,337.857 38.591,338.085 38.192 C 338.313 37.793,338.450 37.388,338.391 37.291 C 338.325 37.185,338.362 37.165,338.485 37.241 C 338.615 37.321,338.722 37.240,338.781 37.017 C 338.831 36.824,338.976 36.667,339.103 36.667 C 339.230 36.667,339.333 36.556,339.333 36.421 C 339.333 36.054,339.926 35.149,340.072 35.292 C 340.141 35.361,340.182 35.304,340.163 35.167 C 340.095 34.691,340.168 34.500,340.417 34.500 C 340.557 34.500,340.667 34.351,340.667 34.161 C 340.667 33.975,340.779 33.780,340.917 33.727 C 341.054 33.674,341.167 33.550,341.167 33.451 C 341.167 33.352,341.335 33.086,341.542 32.859 C 341.748 32.632,341.817 32.504,341.696 32.574 C 341.515 32.679,341.513 32.641,341.688 32.362 C 341.805 32.175,341.962 32.060,342.037 32.107 C 342.113 32.153,342.164 32.130,342.151 32.054 C 342.138 31.978,342.145 31.860,342.168 31.792 C 342.190 31.723,342.218 31.605,342.229 31.530 C 342.241 31.454,342.363 31.270,342.500 31.119 C 343.034 30.533,343.248 30.256,343.202 30.209 C 343.176 30.182,343.230 30.030,343.322 29.871 C 343.414 29.713,343.493 29.658,343.497 29.750 C 343.502 29.842,343.575 29.807,343.660 29.672 C 343.759 29.516,343.747 29.347,343.629 29.205 C 343.527 29.082,343.513 28.997,343.597 29.017 C 343.903 29.089,344.333 28.791,344.333 28.507 C 344.333 28.346,344.502 28.033,344.708 27.811 C 344.915 27.588,345.086 27.333,345.088 27.245 C 345.096 26.975,345.855 25.833,346.026 25.833 C 346.114 25.833,346.145 25.767,346.095 25.686 C 346.045 25.604,346.115 25.445,346.252 25.332 C 346.388 25.219,346.500 25.018,346.500 24.886 C 346.500 24.755,346.575 24.693,346.667 24.750 C 346.758 24.807,346.833 24.736,346.833 24.593 C 346.833 24.202,346.875 24.106,347.166 23.833 C 347.387 23.626,347.388 23.611,347.175 23.745 C 347.033 23.834,347.086 23.716,347.293 23.483 C 347.500 23.249,347.613 22.996,347.543 22.919 C 347.474 22.843,347.510 22.834,347.625 22.900 C 347.746 22.969,347.833 22.930,347.833 22.806 C 347.833 22.689,347.950 22.759,348.093 22.963 C 348.236 23.167,348.299 23.420,348.234 23.526 C 348.163 23.640,348.188 23.673,348.296 23.607 C 348.395 23.545,348.524 23.646,348.583 23.831 C 348.641 24.016,348.759 24.167,348.845 24.167 C 348.930 24.167,349.000 24.279,349.000 24.417 C 349.000 24.554,349.072 24.667,349.160 24.667 C 349.248 24.667,349.453 25.042,349.616 25.500 C 349.778 25.958,350.006 26.333,350.122 26.333 C 350.238 26.333,350.333 26.438,350.333 26.566 C 350.333 26.694,350.558 27.039,350.833 27.333 C 351.108 27.628,351.333 27.973,351.333 28.101 C 351.333 28.229,351.413 28.333,351.510 28.333 C 351.607 28.333,351.646 28.398,351.597 28.478 C 351.548 28.557,351.659 28.759,351.843 28.926 C 352.028 29.092,352.142 29.325,352.096 29.442 C 352.051 29.560,352.098 29.707,352.200 29.770 C 352.320 29.845,352.337 29.808,352.250 29.667 C 352.167 29.532,352.181 29.489,352.286 29.554 C 352.380 29.612,352.550 29.886,352.665 30.163 C 352.780 30.440,352.940 30.667,353.020 30.667 C 353.101 30.667,353.167 30.779,353.167 30.917 C 353.167 31.054,353.260 31.168,353.375 31.169 C 353.514 31.171,353.500 31.226,353.333 31.333 C 353.120 31.471,353.126 31.495,353.375 31.497 C 353.535 31.499,353.655 31.556,353.641 31.625 C 353.591 31.861,354.106 32.839,354.219 32.725 C 354.282 32.662,354.333 32.699,354.333 32.806 C 354.333 32.913,354.489 33.156,354.680 33.346 C 354.870 33.537,354.985 33.799,354.935 33.930 C 354.885 34.060,354.911 34.167,354.993 34.167 C 355.176 34.167,356.194 35.649,356.243 35.988 C 356.263 36.122,356.365 36.261,356.471 36.296 C 356.730 36.382,357.501 37.940,357.361 38.096 C 357.300 38.164,357.345 38.165,357.461 38.098 C 357.603 38.017,357.768 38.189,357.961 38.618 C 358.120 38.971,358.421 39.443,358.629 39.666 C 358.838 39.889,358.970 40.171,358.924 40.292 C 358.877 40.413,358.941 40.552,359.065 40.599 C 359.190 40.647,359.424 40.980,359.586 41.339 C 359.747 41.697,359.936 41.956,360.004 41.914 C 360.171 41.811,360.441 42.188,360.423 42.500 C 360.416 42.637,360.580 42.937,360.788 43.165 C 360.996 43.393,361.167 43.674,361.167 43.790 C 361.167 43.905,361.225 44.000,361.297 44.000 C 361.448 44.000,362.038 44.950,361.965 45.076 C 361.939 45.122,362.085 45.278,362.292 45.423 C 362.498 45.567,362.667 45.820,362.667 45.984 C 362.667 46.148,362.819 46.420,363.006 46.589 C 363.192 46.757,363.306 46.998,363.258 47.123 C 363.210 47.248,363.245 47.304,363.336 47.248 C 363.428 47.192,363.553 47.282,363.615 47.448 C 363.745 47.797,364.271 48.588,364.723 49.113 C 364.901 49.320,364.981 49.563,364.908 49.680 C 364.827 49.811,364.851 49.842,364.974 49.766 C 365.093 49.692,365.167 49.764,365.167 49.953 C 365.167 50.122,365.317 50.368,365.500 50.500 C 365.683 50.632,365.833 50.874,365.833 51.037 C 365.833 51.200,365.896 51.333,365.973 51.333 C 366.127 51.333,366.576 52.175,366.529 52.375 C 366.513 52.444,366.590 52.481,366.700 52.458 C 366.810 52.435,366.987 52.674,367.093 52.988 C 367.199 53.301,367.443 53.686,367.636 53.842 C 367.828 53.998,367.938 54.173,367.880 54.231 C 367.822 54.289,367.912 54.437,368.079 54.560 C 368.247 54.682,368.331 54.869,368.266 54.975 C 368.199 55.082,368.243 55.167,368.366 55.167 C 368.585 55.167,369.111 56.129,369.033 56.387 C 369.010 56.463,369.063 56.481,369.151 56.426 C 369.238 56.372,369.404 56.588,369.519 56.905 C 369.633 57.223,369.776 57.452,369.836 57.415 C 369.933 57.355,370.545 58.417,370.572 58.694 C 370.578 58.755,370.740 58.943,370.932 59.111 C 371.124 59.279,371.249 59.510,371.210 59.625 C 371.171 59.740,371.220 59.833,371.319 59.833 C 371.419 59.833,371.500 59.983,371.500 60.167 C 371.500 60.352,371.611 60.500,371.750 60.500 C 371.887 60.500,372.000 60.613,372.000 60.752 C 372.000 60.890,372.150 61.132,372.333 61.289 C 372.517 61.446,372.667 61.655,372.667 61.755 C 372.667 62.045,373.437 63.007,373.567 62.878 C 373.631 62.813,373.638 62.882,373.581 63.030 C 373.524 63.178,373.559 63.350,373.658 63.411 C 373.757 63.473,373.794 63.595,373.740 63.682 C 373.686 63.770,373.741 63.821,373.863 63.796 C 373.984 63.771,374.066 63.841,374.044 63.952 C 374.022 64.063,374.173 64.336,374.379 64.559 C 374.586 64.781,374.950 65.344,375.190 65.808 C 375.429 66.273,375.663 66.615,375.709 66.568 C 375.756 66.522,375.933 66.820,376.103 67.231 L 376.411 67.977 382.497 67.989 C 388.749 68.001,389.269 67.952,388.884 67.380 C 388.774 67.217,388.522 66.785,388.325 66.420 C 388.127 66.056,387.786 65.544,387.566 65.283 C 387.346 65.021,387.167 64.744,387.167 64.666 C 387.167 64.588,387.071 64.425,386.953 64.304 C 386.600 63.939,386.000 62.833,386.000 62.546 C 386.000 62.398,385.955 62.323,385.899 62.379 C 385.731 62.547,385.368 62.103,385.466 61.849 C 385.520 61.708,385.484 61.657,385.378 61.722 C 385.275 61.786,385.125 61.620,385.025 61.333 C 384.929 61.058,384.767 60.833,384.666 60.833 C 384.564 60.833,384.527 60.758,384.583 60.667 C 384.640 60.575,384.604 60.500,384.503 60.500 C 384.401 60.500,384.339 60.406,384.364 60.292 C 384.389 60.177,384.261 59.908,384.080 59.694 C 383.898 59.480,383.620 59.152,383.462 58.964 C 383.303 58.777,383.207 58.569,383.248 58.503 C 383.289 58.436,383.143 58.213,382.924 58.006 C 382.704 57.800,382.565 57.524,382.616 57.392 C 382.669 57.253,382.620 57.173,382.500 57.202 C 382.385 57.228,382.217 57.034,382.125 56.771 C 382.033 56.507,381.815 56.148,381.639 55.973 C 381.316 55.650,380.924 54.855,380.973 54.625 C 380.988 54.556,380.906 54.500,380.791 54.500 C 380.585 54.500,380.057 53.536,380.129 53.292 C 380.150 53.223,380.060 53.167,379.930 53.167 C 379.800 53.167,379.644 52.943,379.584 52.669 C 379.524 52.395,379.394 52.121,379.295 52.059 C 379.182 51.990,379.160 52.036,379.237 52.183 C 379.303 52.311,379.242 52.274,379.101 52.100 C 378.960 51.927,378.881 51.724,378.927 51.650 C 378.972 51.577,378.860 51.437,378.678 51.339 C 378.495 51.241,378.385 51.060,378.432 50.936 C 378.480 50.811,378.402 50.665,378.260 50.610 C 378.117 50.555,378.000 50.366,378.000 50.190 C 378.000 50.013,377.877 49.822,377.726 49.764 C 377.576 49.706,377.499 49.613,377.555 49.556 C 377.612 49.500,377.437 49.174,377.167 48.833 C 376.897 48.492,376.724 48.165,376.782 48.107 C 376.841 48.048,376.818 48.000,376.732 48.000 C 376.646 48.000,376.434 47.737,376.262 47.417 C 376.089 47.096,375.893 46.833,375.827 46.833 C 375.704 46.833,375.449 46.187,375.482 45.958 C 375.492 45.890,375.379 45.833,375.232 45.833 C 375.063 45.833,375.000 45.742,375.060 45.583 C 375.119 45.431,375.061 45.333,374.911 45.333 C 374.777 45.333,374.667 45.221,374.667 45.083 C 374.667 44.946,374.592 44.833,374.500 44.833 C 374.408 44.833,374.332 44.740,374.330 44.625 C 374.328 44.510,374.179 44.229,374.000 44.000 C 373.821 43.771,373.672 43.448,373.670 43.282 C 373.668 43.116,373.598 43.022,373.515 43.074 C 373.347 43.178,372.559 41.681,372.642 41.417 C 372.671 41.325,372.642 41.303,372.577 41.367 C 372.446 41.498,372.000 41.111,372.000 40.866 C 372.000 40.779,371.884 40.611,371.742 40.493 C 371.536 40.323,371.528 40.252,371.700 40.142 C 371.877 40.031,371.877 40.005,371.701 40.003 C 371.343 39.998,371.045 39.613,371.135 39.271 C 371.185 39.078,371.151 38.990,371.051 39.052 C 370.958 39.109,370.740 38.860,370.566 38.497 C 370.392 38.134,370.196 37.836,370.129 37.835 C 369.933 37.832,369.503 36.888,369.632 36.744 C 369.697 36.672,369.671 36.658,369.574 36.713 C 369.477 36.768,369.259 36.555,369.089 36.240 C 368.920 35.925,368.733 35.667,368.676 35.667 C 368.618 35.667,368.389 35.254,368.167 34.750 C 367.945 34.246,367.705 33.833,367.635 33.833 C 367.479 33.833,366.751 32.472,366.804 32.279 C 366.825 32.204,366.773 32.184,366.690 32.235 C 366.607 32.287,366.446 32.105,366.332 31.831 C 366.219 31.557,366.060 31.333,365.980 31.333 C 365.899 31.333,365.833 31.221,365.833 31.083 C 365.833 30.946,365.775 30.833,365.703 30.833 C 365.631 30.833,365.439 30.608,365.277 30.333 C 365.114 30.058,365.026 29.833,365.080 29.833 C 365.135 29.833,365.029 29.672,364.846 29.475 C 364.662 29.278,364.551 29.053,364.599 28.975 C 364.647 28.897,364.605 28.833,364.505 28.833 C 364.405 28.833,364.275 28.702,364.216 28.542 C 364.158 28.381,363.935 28.037,363.721 27.778 C 363.506 27.518,363.369 27.244,363.415 27.170 C 363.461 27.096,363.381 26.990,363.238 26.935 C 363.096 26.881,363.026 26.760,363.083 26.668 C 363.140 26.576,363.107 26.500,363.010 26.500 C 362.913 26.500,362.833 26.388,362.833 26.251 C 362.833 26.115,362.683 25.909,362.500 25.795 C 362.317 25.680,362.167 25.490,362.167 25.371 C 362.167 25.253,362.050 25.111,361.907 25.057 C 361.764 25.002,361.688 24.852,361.737 24.725 C 361.786 24.597,361.677 24.344,361.496 24.163 C 361.315 23.982,361.167 23.716,361.167 23.573 C 361.167 23.431,361.092 23.360,361.000 23.417 C 360.908 23.473,360.833 23.403,360.833 23.260 C 360.833 23.117,360.764 23.000,360.680 23.000 C 360.596 23.000,360.477 22.774,360.416 22.499 C 360.356 22.223,360.237 22.040,360.153 22.092 C 360.069 22.144,360.000 22.069,360.000 21.927 C 360.000 21.784,359.930 21.667,359.845 21.667 C 359.689 21.667,359.407 21.021,359.465 20.798 C 359.482 20.732,359.366 20.728,359.206 20.787 C 358.953 20.882,358.945 20.861,359.145 20.615 C 359.342 20.372,359.337 20.333,359.104 20.333 C 358.864 20.333,358.813 20.251,358.841 19.908 C 358.845 19.857,358.676 19.664,358.466 19.478 C 358.255 19.293,358.177 19.189,358.292 19.247 C 358.406 19.305,358.500 19.279,358.500 19.188 C 358.500 19.097,358.352 18.975,358.170 18.918 C 357.989 18.860,357.847 18.761,357.855 18.698 C 357.891 18.416,357.614 17.846,357.481 17.928 C 357.400 17.979,357.333 17.903,357.333 17.760 C 357.333 17.617,357.258 17.500,357.167 17.500 C 357.075 17.500,357.019 17.442,357.042 17.372 C 357.065 17.301,356.915 17.062,356.708 16.840 C 356.368 16.474,356.252 16.159,356.318 15.779 C 356.331 15.704,356.265 15.689,356.171 15.747 C 356.076 15.806,356.000 15.707,356.000 15.528 C 356.000 15.349,355.887 15.159,355.750 15.106 C 355.613 15.054,355.500 14.896,355.500 14.755 C 355.500 14.615,355.379 14.500,355.232 14.500 C 355.059 14.500,354.999 14.409,355.064 14.241 C 355.121 14.093,355.093 14.026,354.998 14.085 C 354.907 14.141,354.833 14.032,354.833 13.843 C 354.833 13.654,354.758 13.500,354.667 13.500 C 354.575 13.500,354.499 13.369,354.497 13.208 C 354.496 13.048,354.308 12.740,354.080 12.524 C 353.853 12.308,353.666 11.971,353.664 11.774 C 353.662 11.475,353.632 11.458,353.483 11.667 C 353.340 11.867,353.321 11.843,353.387 11.541 C 353.432 11.335,353.403 11.207,353.323 11.257 C 353.242 11.306,353.132 11.175,353.078 10.965 C 353.024 10.755,352.728 10.396,352.421 10.167 C 352.114 9.938,351.875 9.675,351.890 9.583 C 351.905 9.492,351.767 9.413,351.583 9.409 C 351.381 9.404,351.271 9.306,351.304 9.159 C 351.346 8.966,351.314 8.959,351.148 9.123 C 350.981 9.286,350.884 9.286,350.677 9.123 C 350.484 8.970,349.706 8.938,347.667 9.000 " stroke="none" fill="#1c3464" fill-rule="evenodd"></path><path id="path1" d="M51.215 8.957 C 51.838 8.989,52.813 8.989,53.382 8.957 C 53.951 8.924,53.442 8.898,52.250 8.898 C 51.058 8.898,50.593 8.925,51.215 8.957 M109.375 8.958 C 116.135 8.982,127.198 8.982,133.958 8.958 C 140.719 8.934,135.188 8.914,121.667 8.914 C 108.146 8.914,102.615 8.934,109.375 8.958 M176.719 8.958 C 178.260 8.986,180.735 8.986,182.219 8.958 C 183.703 8.930,182.442 8.908,179.417 8.908 C 176.392 8.908,175.178 8.931,176.719 8.958 M222.542 8.958 C 228.844 8.983,239.156 8.983,245.458 8.958 C 251.760 8.934,246.604 8.914,234.000 8.914 C 221.396 8.914,216.240 8.934,222.542 8.958 M274.196 8.958 C 277.924 8.983,284.074 8.983,287.863 8.958 C 291.651 8.933,288.600 8.913,281.083 8.913 C 273.567 8.913,270.467 8.933,274.196 8.958 M346.708 8.957 C 347.327 8.989,348.340 8.989,348.958 8.957 C 349.577 8.925,349.071 8.899,347.833 8.899 C 346.596 8.899,346.090 8.925,346.708 8.957 M339.000 16.667 C 338.804 16.942,338.722 17.167,338.818 17.167 C 338.913 17.167,339.108 16.942,339.250 16.667 C 339.392 16.392,339.474 16.167,339.432 16.167 C 339.390 16.167,339.196 16.392,339.000 16.667 M152.552 26.583 C 152.553 27.133,152.584 27.338,152.621 27.039 C 152.658 26.739,152.657 26.289,152.619 26.039 C 152.581 25.788,152.551 26.033,152.552 26.583 M40.667 40.958 C 40.667 41.123,43.018 41.167,51.867 41.167 C 59.172 41.167,63.010 41.110,62.904 41.004 C 62.639 40.739,40.667 40.695,40.667 40.958 M336.250 41.000 C 336.182 41.110,339.915 41.167,347.323 41.167 C 354.663 41.167,358.500 41.109,358.500 41.000 C 358.500 40.891,354.698 40.833,347.427 40.833 C 340.224 40.833,336.317 40.892,336.250 41.000 M250.050 50.500 C 250.050 51.004,250.081 51.210,250.119 50.958 C 250.158 50.706,250.158 50.294,250.119 50.042 C 250.081 49.790,250.050 49.996,250.050 50.500 M40.042 50.958 C 43.135 50.984,48.198 50.984,51.292 50.958 C 54.385 50.933,51.854 50.912,45.667 50.912 C 39.479 50.912,36.948 50.933,40.042 50.958 M335.720 50.958 C 338.821 50.984,343.846 50.984,346.887 50.958 C 349.928 50.933,347.392 50.912,341.250 50.912 C 335.108 50.912,332.620 50.933,335.720 50.958 " stroke="none" fill="#1c3c6c" fill-rule="evenodd"></path><path id="path2" d="M260.056 50.500 C 260.056 51.188,260.085 51.469,260.121 51.125 C 260.157 50.781,260.157 50.219,260.121 49.875 C 260.085 49.531,260.056 49.813,260.056 50.500 M136.500 56.250 C 136.811 56.571,137.103 56.833,137.149 56.833 C 137.195 56.833,136.978 56.571,136.667 56.250 C 136.356 55.929,136.064 55.667,136.018 55.667 C 135.972 55.667,136.189 55.929,136.500 56.250 " stroke="none" fill="#203464" fill-rule="evenodd"></path><path id="path3" d="M321.740 14.000 C 321.740 16.704,321.763 17.810,321.791 16.458 C 321.819 15.106,321.819 12.894,321.791 11.542 C 321.763 10.190,321.740 11.296,321.740 14.000 M185.248 38.500 C 185.248 54.588,185.268 61.169,185.292 53.125 C 185.316 45.081,185.316 31.919,185.292 23.875 C 185.268 15.831,185.248 22.412,185.248 38.500 M117.875 19.125 C 123.077 19.149,131.590 19.149,136.792 19.125 C 141.994 19.101,137.737 19.081,127.333 19.081 C 116.929 19.081,112.673 19.101,117.875 19.125 M221.112 19.125 C 226.445 19.149,235.220 19.149,240.612 19.125 C 246.005 19.101,241.642 19.081,230.917 19.081 C 220.192 19.081,215.780 19.101,221.112 19.125 M267.792 19.125 C 271.390 19.150,277.277 19.150,280.875 19.125 C 284.473 19.100,281.529 19.079,274.333 19.079 C 267.137 19.079,264.194 19.100,267.792 19.125 M304.542 19.125 C 307.635 19.150,312.698 19.150,315.792 19.125 C 318.885 19.100,316.354 19.079,310.167 19.079 C 303.979 19.079,301.448 19.100,304.542 19.125 M152.387 26.667 C 152.387 27.262,152.417 27.506,152.454 27.208 C 152.491 26.910,152.491 26.423,152.454 26.125 C 152.417 25.827,152.387 26.071,152.387 26.667 M220.029 33.125 C 224.399 33.150,231.599 33.150,236.029 33.125 C 240.459 33.100,236.883 33.080,228.083 33.080 C 219.283 33.080,215.659 33.100,220.029 33.125 M254.751 37.834 C 254.917 38.018,255.088 38.134,255.130 38.092 C 255.220 38.002,254.745 37.500,254.569 37.500 C 254.503 37.500,254.585 37.650,254.751 37.834 M249.853 50.458 C 249.873 51.476,249.947 51.376,250.037 50.208 C 250.067 49.819,250.034 49.500,249.963 49.500 C 249.892 49.500,249.842 49.931,249.853 50.458 M330.000 51.042 C 330.000 51.110,335.058 51.167,341.240 51.167 C 347.422 51.167,352.515 51.110,352.558 51.042 C 352.600 50.973,347.542 50.917,341.317 50.917 C 335.093 50.917,330.000 50.973,330.000 51.042 M39.971 51.125 C 43.117 51.150,48.217 51.150,51.304 51.125 C 54.391 51.100,51.817 51.079,45.583 51.079 C 39.350 51.079,36.824 51.100,39.971 51.125 M307.088 66.825 C 306.948 67.096,306.833 67.375,306.833 67.445 C 306.833 67.616,307.249 66.996,307.384 66.625 C 307.552 66.161,307.366 66.287,307.088 66.825 " stroke="none" fill="#1c346c" fill-rule="evenodd"></path><path id="path4" d="M260.056 50.500 C 260.056 51.188,260.085 51.469,260.121 51.125 C 260.157 50.781,260.157 50.219,260.121 49.875 C 260.085 49.531,260.056 49.813,260.056 50.500 M136.500 56.250 C 136.811 56.571,137.103 56.833,137.149 56.833 C 137.195 56.833,136.978 56.571,136.667 56.250 C 136.356 55.929,136.064 55.667,136.018 55.667 C 135.972 55.667,136.189 55.929,136.500 56.250 " stroke="none" fill="#203464" fill-rule="evenodd"></path></g></svg>