<svg xmlns="http://www.w3.org/2000/svg" height="800" width="1200" viewBox="-29.51445 -24.8285 255.7919 148.971"><path d="M164.66 9.974l-2.864 2.974c4.406-.288 11.182.099 15.574.876 0 0-4.142 1.517-8.104 4.272 2.427-.032 4.525-.227 5.088-.63.532-.357 3.46-3.789 4.932-5.682-4.292-1.116-10.034-1.756-14.626-1.81m-4.542-6.642c-1.698 1.591-4.223 4.318-6.751 7.284-10.928 1.186-19.991 4.108-34.921 10.007l10.422 1.822c9.423-4.511 20.513-8.575 30.588-9.271 1.425-3.72 3.522-8.58 6.617-13.174 0-.001-3.895 2.065-5.955 3.332M0 55.093l10.71 1.03c36.102-.563 60.381-5.188 102.354-24.811 5.755-2.688 10.883-4.921 12.676-5.526 3.966.038 10.348 1.32 15.512 2.117-2.717-1.379-7.971-3.491-10.834-4.698-3.549.19-10.847.502-13.632.637-2.158.907-4.115 1.8-6.671 2.973C59.483 49.798 31.873 55.3 0 55.093m182.975-42.145c3.247.512 6.921 1.841 9.863 3.506-4.095-.932-9.961-1.761-14.385-1.871.001 0 2.825-1.235 4.522-1.635" fill="#E92328"/><path d="M74.287 88.692c.313-2.417 1.86-4.01 4.38-4.01 2.632 0 4.276 1.539 4.313 4.01zm4.594-7.195c-5.106 0-8.841 3.568-8.841 8.903 0 5.342 3.926 8.914 9.589 8.914 1.669 0 3.214-.292 4.531-.834l2.416-4.061-.323-.162c-2.093 1.102-4.284 1.644-6.236 1.644-2.931 0-5.442-1.481-5.73-4.017h12.93v-1.159c0-5.893-3.605-9.228-8.336-9.228m86.65 7.195c.328-2.417 1.874-4.01 4.382-4.01 2.631 0 4.274 1.539 4.309 4.01zm4.605-7.195c-5.117 0-8.843 3.568-8.843 8.903 0 5.342 3.925 8.914 9.579 8.914 1.671 0 3.223-.292 4.534-.834l2.417-4.061-.322-.162c-2.095 1.102-4.273 1.644-6.243 1.644-2.922 0-5.433-1.481-5.728-4.017h12.937c.543-6.626-3.026-10.387-8.331-10.387m-65.746 7.195c.322-2.417 1.871-4.01 4.383-4.01 2.628 0 4.279 1.539 4.305 4.01zm4.593-7.195c-5.1 0-8.832 3.568-8.832 8.903 0 5.342 3.925 8.914 9.579 8.914 1.671 0 3.219-.292 4.53-.834l2.423-4.061-.332-.162c-2.05 1.102-4.243 1.644-6.236 1.644-2.935 0-5.431-1.481-5.725-4.017h12.933c.547-6.626-3.022-10.387-8.34-10.387M13.078 95.071H8.989v-7.202h4.251c3.6 0 5.305.895 5.305 3.534 0 3.271-3.184 3.668-5.467 3.668M8.989 77.69h3.671c2.474 0 3.244.325 3.983 1.071.58.539.84 1.288.84 2.159 0 .789-.296 1.508-.876 2.07-.735.723-1.732 1.048-3.565 1.048H8.989zm8.585 8.016v-.067c2.61-.77 4.345-2.664 4.345-5.471 0-4.568-3.859-6.311-7.656-6.311H1.498v.39l1.284 1.098c1.543 1.251 1.742 1.481 1.742 2.597v20.922h9c4.729 0 9.465-1.678 9.465-7.104-.001-3.231-2.257-5.698-5.415-6.054m11.721-12.059c-1.552 0-2.681 1.183-2.681 2.535 0 1.314 1.129 2.535 2.681 2.535 1.566 0 2.763-1.078 2.763-2.535 0-1.451-1.197-2.535-2.763-2.535m-4.353 8.548l.653.552c1.534 1.159 1.602 1.387 1.602 2.8v13.316h4.243V81.94h-6.498zm32.876 13.286c-3.092 0-4.954-2.438-4.954-5.081 0-2.641 1.862-5.084 4.954-5.084 3.123 0 4.992 2.443 4.992 5.084 0 2.643-1.869 5.081-4.992 5.081m2.125-22.357l1.354.871c1.176.766 1.373 1.118 1.373 2.217v7.884h-.096c-.902-1.122-2.596-2.6-5.751-2.6-4.855 0-8.203 3.888-8.203 8.903 0 5.017 3.151 8.914 8.362 8.914 2.377 0 4.598-.936 5.828-2.993h.057l.446 2.542h3.604V72.833h-6.974zm89.158 22.357c-3.127 0-4.98-2.438-4.98-5.081 0-2.641 1.854-5.084 4.98-5.084 3.118 0 4.979 2.443 4.979 5.084 0 2.643-1.861 5.081-4.979 5.081m1.962-22.357l.581.42c2.051 1.285 2.281 1.641 2.281 3.864v6.688h-.095c-.874-1.122-2.576-2.6-5.762-2.6-4.819 0-8.162 3.888-8.162 8.903 0 5.017 3.115 8.914 8.358 8.914 2.346 0 4.565-.936 5.814-2.993h.067l.453 2.542h3.565V72.833h-7.103v.291zm40.107 8.373c-2.254 0-4.114 1.186-5.009 3.121h-.075v-2.711h-7.168l.027.192 1.067.712c1.701 1.099 1.83 1.424 1.83 3.539v12.513h4.243V89.79c0-.901.553-4.243 4.535-4.243.678 0 1.359.136 2.058.288v-4.088c-.48-.132-.989-.25-1.508-.25m-95.785-2.699c0-2.969 2.607-3.837 6.013-2.484l.196-.196-.966-3.569c-6.489-1.309-9.522 1.604-9.522 6.213v3.088h-4.108v.247l2.15 1.772c1.673 1.325 1.958 1.641 1.958 3.061v11.934h4.279V85.486h3.929v-3.637h-3.929zm35.127 2.699c-1.868 0-3.993.932-5.409 3.026h-.058V81.94h-3.61v-.033h-3.312v.192l1.064.712c1.707 1.099 1.827 1.424 1.827 3.539v12.513h4.25v-9.232c0-2.257 1.095-4.314 3.864-4.314 2.989 0 3.439 2.254 3.439 4.121v9.426h4.244v-10.68c.002-3.929-2.313-6.687-6.299-6.687M41.606 93.2v-7.653h4.54v-3.606h-4.54v-4.918h-2.669l-1.579 4.918h-4.082v.193l1.508 1.322c2.38 1.955 2.573 1.891 2.573 2.992v-.901 7.778c0 5.538 3.897 6.528 7.335 5.6l2.096-3.376-.13-.067c-2.957.873-5.052.778-5.052-2.282m153.137-18.818c0 .187-.044.346-.125.457l-.302.261-.399.112-.41.014h-.929v-1.708h1.064l.403.047.355.119.247.268c.065.101.096.257.096.43m-1.095-.993h-1.203v3.715h.133v-1.742h1.07l.068-.011h.023l.004.014 1.118 1.739h.159l-1.143-1.763h.038l.365-.088.306-.177.207-.288.077-.406c0-.315-.102-.556-.295-.729-.198-.179-.499-.264-.927-.264" fill="#010101"/><path d="M194.73 78.056c-.377.166-.78.244-1.204.244-.43 0-.847-.078-1.22-.244-.38-.159-.705-.387-.986-.661a3.204 3.204 0 01-.664-.989c-.163-.377-.241-.793-.241-1.221 0-.427.078-.833.241-1.21.159-.373.38-.701.664-.993.278-.274.606-.494.986-.667.373-.16.79-.241 1.22-.241.424 0 .834.081 1.204.241.376.173.708.393.993.667.277.292.501.62.667.993.163.377.244.779.244 1.21 0 .428-.081.844-.244 1.221-.162.362-.39.701-.667.989-.289.274-.617.502-.993.661m1.775-1.599c.173-.394.258-.824.258-1.271 0-.457-.085-.874-.258-1.261-.166-.393-.396-.752-.691-1.04-.281-.292-.634-.512-1.023-.675-.39-.187-.813-.271-1.265-.271-.454 0-.874.085-1.271.271-.39.163-.735.383-1.023.675-.295.298-.525.647-.691 1.04-.173.387-.258.804-.258 1.261 0 .447.085.878.258 1.271.166.386.396.729.691 1.02.288.292.634.529 1.023.691.396.163.816.248 1.271.248.451 0 .875-.085 1.265-.248.39-.169.742-.406 1.023-.691.295-.292.525-.631.691-1.02" fill="#010101"/></svg>