<?xml version="1.0" encoding="UTF-8"?>
<!-- Combined: Official Jaeger logo
(https://github.com/jaegertracing/artwork/blob/master/SVG/Jaeger_Logo_Final_PANTONE.svg) +
OpenTelemetry logo -->
<svg width="100" height="100" xmlns="http://www.w3.org/2000/svg" viewBox="0 0 100 100">
  <title>Jaeger OpenTelemetry</title>
  <!-- Jaeger official logo: paths from
  https://github.com/jaegertracing/artwork/blob/master/SVG/Jaeger_Logo_Final_PANTONE.svg
  (fill-opacity:1; fill-rule:nonzero; stroke:none) -->
  <g transform="translate(10, 10) scale(0.070)">
    <g transform="matrix(1.3333333,0,0,-1.3333333,0,1013.3333)">
      <g transform="matrix(0.11603576,0,0,0.11603576,-53.318907,-60.935875)" fill-rule="nonzero"
        fill-opacity="1">
        <path fill="#211c1d"
          d="M 1899.54,1167.11 C 1804.12,1145.3 1523.34,992.641 1280.72,946.301 1038.11,899.961 828.203,875.422 754.598,848.16 680.996,820.902 623.75,766.379 768.23,711.859 c 144.481,-54.519 845.07,-73.597 907.77,0 62.7,73.602 -43.24,105.5 -196.28,103.59 -109.04,-1.359 -95.66,36.633 -95.41,40.891 0,0 6.82,47.711 174.47,70.879 167.38,23.133 907.77,92.681 894.14,171.741 -13.63,79.05 -457.97,89.96 -553.38,68.15" />
        <path fill="#211c1d"
          d="m 1410.08,625.031 c -78.33,-17.051 -137.81,-49.351 -132.85,-72.16 4.96,-22.801 72.49,-27.473 150.83,-10.422 78.33,17.051 137.81,49.352 132.85,72.16 -4.96,22.801 -72.49,27.461 -150.83,10.422" />
        <path fill="#211c1d"
          d="m 1079.84,643.578 c -84.043,-6.687 -150.723,-30.359 -148.93,-52.867 1.793,-22.52 71.38,-35.34 155.42,-28.652 84.05,6.691 150.72,30.363 148.93,52.871 -1.79,22.519 -71.37,35.34 -155.42,28.648" />
        <path fill="#211c1d"
          d="m 810.25,667.949 c -55.941,-7.617 -99.355,-28 -96.969,-45.527 2.387,-17.531 49.672,-25.563 105.614,-17.942 55.941,7.622 99.355,28 96.968,45.532 -2.386,17.527 -49.672,25.558 -105.613,17.937" />
        <path fill="#211c1d"
          d="m 612.531,692.512 c -54.008,-7.84 -96.125,-25.672 -94.07,-39.821 2.055,-14.16 47.504,-19.281 101.516,-11.441 54.007,7.852 96.125,25.68 94.07,39.828 -2.055,14.152 -47.504,19.274 -101.516,11.434" />
        <path fill="#211c1d"
          d="m 574.992,697.141 c 54.012,7.839 96.129,25.668 94.074,39.82 -2.054,14.16 -47.503,19.281 -101.511,11.441 -54.012,-7.851 -96.129,-25.683 -94.075,-39.832 2.055,-14.148 47.504,-19.269 101.512,-11.429" />
        <path fill="#211c1d"
          d="m 562.754,763.68 c 46.949,6.812 83.566,22.32 81.777,34.621 -1.785,12.308 -41.297,16.75 -88.25,9.937 -46.953,-6.816 -83.566,-22.316 -81.781,-34.617 1.789,-12.312 41.301,-16.762 88.254,-9.941" />
        <path fill="#211c1d"
          d="m 3355.24,1090.78 c -166.29,-8.18 -542.48,10.91 -594.28,-76.33 -51.79,-87.231 152.66,-119.938 474.33,-92.68 321.67,27.261 776.92,62.699 796,160.83 19.08,98.14 -84.5,79.06 -95.41,141.76 -10.9,62.7 114.49,62.7 139.03,155.38 24.53,92.69 -169.02,81.78 -340.76,81.78 -171.73,0 -457.97,-16.35 -485.23,-106.31 -27.26,-89.96 130.85,-89.96 242.62,-111.77 111.76,-21.81 79.05,-62.7 79.05,-62.7 -5.45,-57.25 -49.07,-81.78 -215.35,-89.96" />
        <path fill="#211c1d"
          d="m 2910.55,898.602 c -79.6,0 -144.14,-21.063 -144.14,-47.032 0,-25.968 64.54,-47.019 144.14,-47.019 79.61,0 144.14,21.051 144.14,47.019 0,25.969 -64.53,47.032 -144.14,47.032" />
        <path fill="#211c1d"
          d="m 3281.63,904.73 c -53.07,0 -96.09,-19.218 -96.09,-42.929 0,-23.719 43.02,-42.942 96.09,-42.942 53.07,0 96.1,19.223 96.1,42.942 0,23.711 -43.03,42.929 -96.1,42.929" />
        <path fill="#211c1d"
          d="m 3581.16,927.219 c -58.16,0 -105.3,-15.559 -105.3,-34.758 0,-19.191 47.14,-34.75 105.3,-34.75 58.15,0 105.29,15.559 105.29,34.75 0,19.199 -47.14,34.758 -105.29,34.758" />
        <path fill="#211c1d"
          d="m 3812.19,968.109 c -42.35,0 -76.67,-16.48 -76.67,-36.8 0,-20.329 34.32,-36.797 76.67,-36.797 42.34,0 76.67,16.468 76.67,36.797 0,20.32 -34.33,36.8 -76.67,36.8" />
        <path fill="#211c1d"
          d="m 4011.53,1009 c -42.91,0 -77.69,-16.02 -77.69,-35.781 0,-19.758 34.78,-35.778 77.69,-35.778 42.91,0 77.69,16.02 77.69,35.778 0,19.761 -34.78,35.781 -77.69,35.781" />
        <path fill="#211c1d"
          d="m 621.66,1978.44 c 0,-46.49 101.387,-90.44 281.461,-129.55 -12.824,93.27 -4.898,187.33 7.117,260.62 -184.519,-39.5 -288.578,-83.99 -288.578,-131.07" />
        <path fill="#211c1d"
          d="m 5935.33,2098.87 c -2.73,-7.55 -5.63,-15 -8.76,-22.32 -22.15,-51.8 -53.92,-97.55 -94.45,-135.94 -81.34,-77.04 -152.65,-123.2 -216.36,-140.04 351.93,49.47 560.83,111.07 560.83,177.87 0,42.9 -86.41,83.65 -241.26,120.43" />
        <path fill="#78d3e0"
          d="m 3650.72,3435.23 c -307.86,0 -557.42,249.56 -557.42,557.41 0,307.85 249.56,557.41 557.42,557.41 307.84,0 557.4,-249.56 557.4,-557.41 0,-307.85 -249.56,-557.41 -557.4,-557.41 z m -103.33,-637.74 c -56.76,-25.36 -140.37,-36.18 -279.58,-36.18 -47.24,0 -95.96,1.26 -138.95,2.36 -37.24,0.96 -72.42,1.87 -101.71,1.87 -26.89,0 -46.49,-0.79 -58.26,-2.34 -131.49,-17.3 -240.03,-85.31 -327.24,-139.96 -25.48,-15.96 -49.55,-31.04 -72.08,-43.49 -36.1,-19.95 -80.45,-30.5 -128.23,-30.5 -88.29,0 -171.35,34.67 -222.19,92.74 -42.24,48.25 -59.95,108.45 -51.19,174.08 26.31,197.37 308.14,298 340.18,308.82 l 51.61,17.43 c -1.7,5 -3.05,10.12 -3.92,15.39 -15.26,91.88 104.72,188.34 267.98,215.45 7.33,1.21 14.6,2.21 21.84,3.11 135.16,16.79 253.82,-20.98 290.81,-89.71 l 62.95,-0.53 c 143.38,-1.22 261.7,-20.48 351.67,-57.25 90.48,-36.98 145.87,-90.72 155.98,-151.35 20.27,-121.56 -39.42,-226.21 -159.67,-279.94 z M 3045.6,2458.51 c -29.17,10.94 -51.19,59.45 -66.98,112.48 -13.4,44.97 -22.32,93.17 -27.3,124.49 13.81,3.12 27.86,5.73 42.19,7.62 7.05,0.92 22.06,2.03 53.61,2.03 28.84,0 63.79,-0.9 100.81,-1.86 10.62,-0.27 21.6,-0.55 32.82,-0.83 2.9,-25.32 6.44,-62.08 10.48,-115.88 0.4,-5.41 0.59,-10.56 0.65,-15.57 1.72,-134.25 -115.64,-123.97 -146.28,-112.48 z m -190.83,-47.71 c -117.43,-34.98 -159.73,100.08 -172.36,158.64 0.81,0.51 1.66,1.04 2.48,1.55 54.8,34.32 118.15,73.46 189.61,100.93 8.45,-22.62 21.3,-60.64 29.1,-100.93 13.12,-67.83 11.91,-142.09 -48.83,-160.19 z M 1365.83,3590.9 c 0,307.85 249.56,557.42 557.41,557.42 307.86,0 557.41,-249.57 557.41,-557.42 0,-153.47 -62.04,-292.44 -162.4,-393.24 -33.61,-33.76 -71.57,-63.15 -112.89,-87.45 -82.77,-48.68 -179.15,-76.72 -282.12,-76.72 -307.85,0 -557.41,249.57 -557.41,557.41 z M 5333.36,2196.64 c -22.38,164.04 -92.35,237.63 -154.08,302.57 -57.48,60.46 -111.79,117.57 -94.31,222.43 16.17,96.93 93.29,156.58 219.29,172.09 -76.53,517.28 -188.68,1169.89 -332.84,1726.63 -71.99,278.04 -185.85,471.17 -338.56,599.57 -174.75,-89.41 -384.95,-187.68 -619.6,-289.42 -169.55,-73.52 -344.59,-145.54 -511.05,-210.99 -134.01,-143.77 -280.44,-285.47 -370.18,-325.86 -63.89,-28.74 -120.66,-40.19 -170.01,-40.19 -106.83,0 -178.96,53.59 -213.87,101.25 -40.48,-10.7 -72.81,-17.63 -94.8,-19.95 -26.3,-2.77 -65.06,-6.06 -113.53,-9.56 18.62,-48.76 11.21,-105.86 -24.51,-148.89 -39.28,-47.33 -102.59,-71.1 -192.31,-71.1 -129.1,0 -312.91,49.24 -558.67,148.5 -36.16,14.6 -69.36,27.58 -99.85,39.15 -18.82,-0.1 -37.63,-0.16 -56.44,-0.16 -0.05,0 -0.11,0 -0.17,0 -234.8,0 -418.3,7.38 -562.14,19.16 -157.55,-326.13 -89.089,-687.87 -31.42,-986.68 55.26,-286.36 247,-795.9 424.83,-1233.68 65.98,-162.41 130.03,-314.91 184.51,-442.51 481.43,-42.58 1098.7,-68.17 1771.74,-68.17 800.94,0 1522.4,36.28 2030.44,94.28 -37.02,152.34 -83.91,364.3 -91.97,418.21 -0.17,1.09 -0.37,2.36 -0.5,3.32" />
        <path fill="#231f20"
          d="m 4364.63,5870.73 -4.17,7.26 -5.5,6.99 c -5.19,8.3 -25.6,21.12 -27.19,21.25 l -2.09,1.12 -1.05,0.56 -3.99,1.73 -0.35,0.12 -0.7,0.26 -5.65,1.99 -11.4,3.9 c -7.5,2.8 -16.06,3.76 -24.15,5.44 -8.21,1.46 -16.93,1.41 -25.41,1.95 -8.56,-0.3 -17.26,-0.89 -25.77,-2.1 -34.24,-6.04 -64.45,-22.61 -87.47,-42.35 -23.36,-19.67 -40.88,-42.22 -55.1,-64.57 -28.25,-44.96 -44.13,-89.79 -54.63,-128.46 -10.29,-38.78 -14.66,-71.73 -16.48,-94.9 -1.18,-11.5 -1.1,-20.75 -1.35,-26.94 -0.1,-6.24 0.1,-9.59 0.1,-9.59 0,0 6.34,11.53 17.45,31.7 11.09,19.95 26.63,48.26 45.79,80.85 19.31,32.37 42.37,69.48 70.33,103.1 14,16.68 29.38,32.22 45.6,44.24 16.35,11.87 33.07,20.01 49.73,22.69 4.2,0.52 8.39,0.91 12.62,1.28 4.32,-0.46 8.55,0.02 12.95,-0.77 4.41,-1.08 8.78,-1.02 13.32,-2.49 l 10.7,-2.89 3.37,-1.55 c -0.16,0.14 -0.33,0.25 -0.45,0.42 0.15,-0.06 0.32,-0.1 0.57,-0.1 0.1,-0.21 0.24,-0.37 0.37,-0.55 l 0.45,-0.2 0.97,-0.46 -0.46,0.05 c -0.23,0.04 -0.44,0.13 -0.65,0.21 0.52,-0.33 1,-1.13 1.46,-2.2 2.3,-4.11 3.99,-12.25 4.81,-21.25 1.05,-18.6 -1.19,-40.06 -4.68,-60.38 -3.37,-20.44 -7.7,-40.26 -12.02,-58.64 -8.69,-36.82 -17,-68.15 -22.48,-90.35 -5.69,-22.13 -8.71,-35.17 -8.71,-35.17 0,0 9.54,9.42 23.92,27.6 14.49,18.13 34.01,44.87 53.41,79.97 9.65,17.58 19.31,37.22 27.84,59.37 8.37,22.21 16.07,46.7 18.46,76.4 0.94,15.04 0.5,31.77 -5.93,50.95 -1.54,4.75 -3.48,9.56 -6.39,14.51" />
        <path fill="#231f20"
          d="m 4294.63,5830.32 -0.49,0.23 c 0.2,-0.19 0.34,-0.43 0.6,-0.56 0.06,-0.03 0.13,-0.04 0.2,-0.07 -0.04,0.03 -0.07,0.1 -0.11,0.11 -0.08,0.09 -0.13,0.2 -0.2,0.29" />
        <path fill="#211c1d"
          d="m 907.426,4805.49 h 7.656 c -2.551,4.54 -5.102,9.13 -7.656,13.78 v -13.78" />
        <path fill="#211c1d"
          d="m 975.703,5021.5 c 16.461,-33.03 33.927,-57.79 46.977,-74.52 6.29,-8.47 12.09,-14.63 15.76,-18.94 3.79,-4.25 6,-6.38 6,-6.38 0,0 -2.24,12.04 -6.42,32.4 -3.96,20.41 -10,49.24 -15.5,82.78 -2.7,16.74 -5.18,34.72 -6.41,52.93 -1,17.89 -1,37.04 2.93,51.1 1.96,6.98 4.54,12.4 7.02,15.13 2.42,2.46 4.4,3.28 7.9,4.52 l 2.61,0.53 4.25,0.86 c 1.22,0.18 -0.34,-0.69 -0.45,-0.79 -0.46,-0.25 -0.96,-0.37 -1.43,-0.35 -0.24,0 -0.47,0.04 -0.69,0.12 l 0.53,-0.3 c 0.75,-0.34 1.46,-0.39 2.32,-0.48 4.11,-1.54 10.39,-4.87 16.99,-9.87 13.74,-9.96 27.95,-25.42 41.57,-41.09 13.45,-16.06 26.66,-32.95 39.15,-49.82 24.91,-33.89 47.95,-67 68.18,-95.44 20.23,-28.46 37.74,-52.31 50.5,-68.9 12.61,-16.65 20.46,-26.06 20.46,-26.06 0,0 -0.34,3.03 -0.98,8.7 -0.89,5.58 -1.77,13.98 -3.94,24.25 -3.81,20.78 -10.56,50.06 -21.8,84.22 -11.17,34.19 -26.72,73.27 -48.35,113.62 -10.93,20.12 -23.19,40.72 -38.21,60.79 -14.98,20.21 -32.01,40.08 -55.66,58.27 -12.27,8.75 -26.42,17.22 -44.58,22.68 -4.8,1.15 -9.84,2.07 -14.79,2.84 l -3.74,0.51 -5.04,0.07 c -3.37,-0.02 -6.76,-0.18 -10.12,-0.46 -2.99,-0.26 -7.49,-0.76 -9.09,-1.17 l -4.18,-1.13 -4.18,-1.13 -5.52,-1.63 -1.63,-0.71 -3.24,-1.46 c -17.17,-7.05 -33.994,-21.18 -43.537,-37.59 -9.793,-16.29 -13.613,-32.71 -14.968,-47.28 -2.793,-29.4 2.976,-52.97 8.785,-74.44 6.371,-21.23 14.359,-39.82 22.523,-56.38" />
        <path fill="#dec795"
          d="m 1232.75,1597.31 c 130.68,0 222.69,71.14 287.26,163.45 -73.89,171.38 -195.5,460.15 -310.8,764.06 -31.21,-26.56 -67.27,-66.65 -106.29,-127.13 -97.14,-150.56 -177.15,-500.88 -76.39,-685.79 42.01,-77.12 109.48,-114.59 206.22,-114.59" />
        <path fill="#dec795"
          d="m 5846.26,2465.34 c -76.6,198.2 -239.51,338.91 -396.15,342.17 l -5.6,0.49 c -0.25,0.04 -30.36,4.53 -70.8,4.53 -85.31,0 -190.03,-18.21 -204.5,-104.93 -10.03,-60.17 16.29,-90.99 71.96,-149.55 63.62,-66.89 150.71,-158.52 176.81,-349.88 29.88,-219.15 83.39,-330.28 159.01,-330.3 h 0.01 c 35.31,0 99.72,21.17 206.19,122.02 131.12,124.22 118.55,321.87 63.07,465.45" />
        <path fill="#211c1d"
          d="m 1873.03,3570.82 c -97.07,0 -175.77,-78.69 -175.77,-175.76 0,-97.07 78.7,-175.76 175.77,-175.76 97.06,0 175.76,78.69 175.76,175.76 0,97.07 -78.7,175.76 -175.76,175.76" />
        <path fill="#211c1d"
          d="m 3575.39,3982.6 c -97.07,0 -175.76,-78.69 -175.76,-175.76 0,-97.07 78.69,-175.76 175.76,-175.76 97.06,0 175.76,78.69 175.76,175.76 0,97.07 -78.7,175.76 -175.76,175.76" />
        <path fill="#588e2f"
          d="m 1396.25,5358.56 c 137.15,-37.02 292.22,-55.78 460.91,-55.78 271.05,0 846.53,52.66 1655.39,405.34 l 18.21,7.93 c -2.53,41.07 0.79,86.12 11.15,133.27 17.95,81.58 53.47,150.71 97.1,196.5 -8.42,31.29 -15.34,54.15 -20.17,65.75 -93.33,49.76 -862.83,336.4 -1264.13,336.4 -40.09,0 -75.11,-2.99 -104.06,-8.9 -355.68,-72.59 -896.1,-690.9 -915.5,-778.55 -5.82,-37.92 -4.06,-156.98 0.2,-285.52 l 60.9,-16.44" />
        <path fill="#588e2f"
          d="m 1389.31,4480.53 c -19.44,4.05 -30.33,5.3 -34.8,5.67 -74.15,-4.57 -142.13,47.29 -155.83,122.49 -1.39,7.65 -1.98,15.24 -2.19,22.78 -40.34,-22.89 -80.71,-47.65 -118.5,-73.8 l -67.19,-46.53 -49.441,65.09 c -14.898,19.62 -83.675,112.42 -147.062,234.49 -119.043,-56.16 -212.051,-117.57 -234.758,-175.75 -4.297,-11.02 -2.559,-16.96 1.899,-23.5 19.433,-28.44 134.687,-115.4 807.872,-130.94" />
        <path fill="#588e2f"
          d="m 2787.08,4671.13 c 59.12,37.64 134.63,28.51 183.21,-17.71 7.49,1.18 20.22,4.37 39.08,12.86 73.69,35.03 339.51,318.81 541.44,561.82 7.27,8.74 15.36,16.36 24.02,22.97 -461.49,-199.42 -1106.33,-417.35 -1720.31,-417.35 -98.69,0 -192.38,5.75 -279.36,17.01 l 13.48,-39.69 -76.78,-29.41 c -0.56,-0.21 -13.76,-5.31 -35.84,-14.48 98.83,-23.09 232.44,-68.48 400.24,-136.26 307.14,-124.03 424.6,-128.77 454,-127.02 41.77,22.13 92.22,23 135.42,1.89 79.68,5.11 141.65,10.05 178.73,13.96 16.85,1.77 41.9,7.02 73.78,15.25 -3.52,52.76 21.13,105.77 68.89,136.16" />
        <path fill="#588e2f"
          d="m 4574.86,5583.24 c -22.37,-133.29 -65.35,-279.62 -93.86,-319.53 l -26.74,-37.41 c 121.11,58.97 229.15,114.9 320.86,166.33 318.89,178.79 358.54,257.09 363.1,276.83 2.98,12.94 -0.19,16.92 -1.55,18.63 -3.47,4.35 -25.86,26.08 -126.58,26.08 -110.07,0 -264.15,-25.17 -424.96,-60.07 -2.79,-22.96 -6.19,-46.56 -10.27,-70.86" />
        <path fill="#588e2f"
          d="m 4450.52,5224.48 -45.97,3.75 c -0.84,0.07 -85.27,6.83 -199.76,6.83 -118.95,0 -275.78,-7.18 -404.47,-37.64 24.57,-51.08 19.01,-113.93 -19.59,-160.37 -31.54,-37.96 -84.82,-101.23 -148.63,-173.8 113.19,45.93 229.98,94.8 347.17,145.61 171.92,74.55 330.39,147.12 471.25,215.62" />
        <path fill="#dec795"
          d="m 3546.69,5629.82 c -323.22,-140.92 -1031.4,-412.45 -1689.53,-412.45 -166.62,0 -330.02,17.4 -483.17,58.73 15.98,-24.18 31.8,-49.98 47.47,-77.49 56.92,-99.99 98.56,-198.76 121.24,-257.05 79.57,-12.45 183.42,-22.43 311.82,-22.43 378.03,0 968.89,86.53 1779.65,451.44 12.74,39.98 29.68,90.06 50.69,145.68 -1.64,-0.06 -3.28,-0.35 -4.92,-0.35 -8.62,0 -17.24,0.93 -25.6,2.76 -50.31,11.06 -87.55,52.1 -107.65,111.16" />
        <path fill="#78d3e0"
          d="m 944.395,5152.32 c 1.355,14.57 5.175,30.99 14.968,47.28 9.543,16.41 26.367,30.54 43.537,37.59 l 3.24,1.46 1.63,0.71 5.52,1.63 4.18,1.13 4.18,1.13 c 1.6,0.41 6.1,0.91 9.09,1.17 3.36,0.28 6.75,0.44 10.12,0.46 l 5.04,-0.07 3.74,-0.51 c 4.95,-0.77 9.99,-1.69 14.79,-2.84 18.16,-5.46 32.31,-13.93 44.58,-22.68 23.65,-18.19 40.68,-38.06 55.66,-58.27 15.02,-20.07 27.28,-40.67 38.21,-60.79 21.63,-40.35 37.18,-79.43 48.35,-113.62 11.24,-34.16 17.99,-63.44 21.8,-84.22 2.17,-10.27 3.05,-18.67 3.94,-24.25 0.64,-5.67 0.98,-8.7 0.98,-8.7 0,0 -7.85,9.41 -20.46,26.06 -12.76,16.59 -30.27,40.44 -50.5,68.9 -20.23,28.44 -43.27,61.55 -68.18,95.44 -12.49,16.87 -25.7,33.76 -39.15,49.82 -13.62,15.67 -27.83,31.13 -41.57,41.09 -6.6,5 -12.88,8.33 -16.99,9.87 -0.86,0.09 -1.57,0.14 -2.32,0.48 l -0.53,0.3 c 0.22,-0.08 0.45,-0.12 0.69,-0.12 0.47,-0.02 0.97,0.1 1.43,0.35 0.11,0.1 1.67,0.97 0.45,0.79 l -4.25,-0.86 -2.61,-0.53 c -3.5,-1.24 -5.48,-2.06 -7.9,-4.52 -2.48,-2.73 -5.06,-8.15 -7.02,-15.13 -3.93,-14.06 -3.93,-33.21 -2.93,-51.1 1.23,-18.21 3.71,-36.19 6.41,-52.93 5.5,-33.54 11.54,-62.37 15.5,-82.78 4.18,-20.36 6.42,-32.4 6.42,-32.4 0,0 -2.21,2.13 -6,6.38 -3.67,4.31 -9.47,10.47 -15.76,18.94 -13.05,16.73 -30.516,41.49 -46.977,74.52 -8.164,16.56 -16.152,35.15 -22.523,56.38 -5.809,21.47 -11.578,45.04 -8.785,74.44 z m -29.313,-346.83 c 58.391,-103.95 114.298,-177.6 114.298,-177.6 195.84,135.58 451.95,233.51 451.95,233.51 0,0 -6.58,19.33 -18.9,50.89 -2.3,5.9 -4.81,12.21 -7.51,18.93 -1.05,2.61 -2.13,5.28 -3.24,8 -2.13,5.21 -4.34,10.6 -6.68,16.2 -1.91,4.56 -3.89,9.25 -5.93,14.04 -1.65,3.87 -3.34,7.8 -5.07,11.8 -2.33,5.38 -4.72,10.83 -7.2,16.44 -2.21,4.96 -4.49,10.03 -6.82,15.17 -2.43,5.36 -4.94,10.81 -7.5,16.32 -2.97,6.4 -6.01,12.87 -9.15,19.45 -1.59,3.32 -3.21,6.67 -4.83,10.03 -3.96,8.15 -8.05,16.41 -12.26,24.76 -1.09,2.18 -2.19,4.35 -3.3,6.54 -5.02,9.87 -10.23,19.85 -15.59,29.88 -0.59,1.11 -1.18,2.21 -1.78,3.32 -19.75,36.76 -41.7,74.19 -65.59,110.02 -78.61,117.87 -178.26,218.15 -289.84,218.12 -35.171,-0.01 -71.57,-9.98 -108.816,-32.5 -205.011,-123.96 -99.199,-407.82 6.102,-599.54 2.554,-4.65 5.105,-9.24 7.656,-13.78" />
        <path fill="#78d3e0" d="m 1010.18,5494.02 v 0 -42.71 42.71" />
        <path fill="#dec795"
          d="m 3757.06,6105.12 c 8.62,0 17.25,-0.93 25.6,-2.77 62.67,-13.79 105.02,-74.11 119.27,-157.79 119.48,167.81 249.78,252.65 389.05,252.65 58.7,0 110.23,-13.83 153.45,-40.55 73.48,89.36 120.23,150.99 120.23,150.99 -55.23,-10.04 -170.74,-25.11 -170.74,-25.11 436.89,160.7 401.74,597.59 401.74,597.59 0,-75.33 -225.97,-256.11 -225.97,-256.11 10.04,65.28 -25.11,150.65 -25.11,150.65 10.04,-85.37 -261.13,-306.32 -261.13,-306.32 20.08,40.17 5.02,110.47 5.02,110.47 -15.07,-80.34 -135.59,-110.47 -135.59,-110.47 75.33,90.39 215.94,567.45 110.48,597.58 -105.46,30.13 -251.08,-311.34 -251.08,-311.34 -5.03,80.34 -50.22,80.34 -50.22,80.34 20.09,-251.08 -180.78,-451.95 -180.78,-451.95 -15.07,50.22 -95.42,75.32 -95.42,75.32 25.79,-55.88 -3.59,-310.28 -12.59,-382.44 26.65,18.82 55.14,29.26 83.79,29.26" />
        <path fill="#231f20"
          d="m 3649.7,5616.61 c 0.11,-0.12 0.23,-0.21 0.34,-0.33 2.16,-2.35 4.39,-4.46 6.68,-6.28 0.84,-0.66 1.72,-1.1 2.57,-1.69 1.67,-1.15 3.32,-2.34 5.05,-3.2 2.71,-1.37 5.49,-2.4 8.33,-3.03 0.01,0 0.02,0 0.03,0 1.72,-0.39 3.51,-0.57 5.31,-0.69 2.82,-0.18 5.72,-0.04 8.7,0.42 13.15,2.04 27.63,10.22 42.1,23.71 13.23,30.87 27.45,62.41 42.71,94.04 14.02,29.07 28.23,56.8 42.62,83.23 21.44,113.55 -7.42,206.81 -49.82,216.14 -2.37,0.53 -4.76,0.78 -7.26,0.78 -43.57,0 -106.91,-75.84 -131.73,-188.72 -18.01,-81.95 -9.68,-154.77 11.55,-195.46 0.03,-0.05 0.05,-0.1 0.08,-0.15 3.85,-7.36 8.12,-13.66 12.74,-18.77" />
        <path fill="#78d3e0"
          d="m 4294.26,5830.87 c -0.25,0 -0.42,0.04 -0.57,0.1 0.12,-0.17 0.29,-0.28 0.45,-0.42 l 0.49,-0.23 c -0.13,0.18 -0.27,0.34 -0.37,0.55" />
        <path fill="#78d3e0"
          d="m 4296.05,5829.66 -0.97,0.46 -0.45,0.2 c 0.07,-0.09 0.12,-0.2 0.2,-0.29 0.04,-0.01 0.07,-0.08 0.11,-0.11 0.21,-0.08 0.42,-0.17 0.65,-0.21 l 0.46,-0.05" />
        <path fill="#78d3e0"
          d="m 4376.95,5805.27 c -2.39,-29.7 -10.09,-54.19 -18.46,-76.4 -8.53,-22.15 -18.19,-41.79 -27.84,-59.37 -19.4,-35.1 -38.92,-61.84 -53.41,-79.97 -14.38,-18.18 -23.92,-27.6 -23.92,-27.6 0,0 3.02,13.04 8.71,35.17 5.48,22.2 13.79,53.53 22.48,90.35 4.32,18.38 8.65,38.2 12.02,58.64 3.49,20.32 5.73,41.78 4.68,60.38 -0.82,9 -2.51,17.14 -4.81,21.25 -0.46,1.07 -0.94,1.87 -1.46,2.2 -0.07,0.03 -0.14,0.04 -0.2,0.07 -0.26,0.13 -0.4,0.37 -0.6,0.56 l -3.37,1.55 -10.7,2.89 c -4.54,1.47 -8.91,1.41 -13.32,2.49 -4.4,0.79 -8.63,0.31 -12.95,0.77 -4.23,-0.37 -8.42,-0.76 -12.62,-1.28 -16.66,-2.68 -33.38,-10.82 -49.73,-22.69 -16.22,-12.02 -31.6,-27.56 -45.6,-44.24 -27.96,-33.62 -51.02,-70.73 -70.33,-103.1 -19.16,-32.59 -34.7,-60.9 -45.79,-80.85 -11.11,-20.17 -17.45,-31.7 -17.45,-31.7 0,0 -0.2,3.35 -0.1,9.59 0.25,6.19 0.17,15.44 1.35,26.94 1.82,23.17 6.19,56.12 16.48,94.9 10.5,38.67 26.38,83.5 54.63,128.46 14.22,22.35 31.74,44.9 55.1,64.57 23.02,19.74 53.23,36.31 87.47,42.35 8.51,1.21 17.21,1.8 25.77,2.1 8.48,-0.54 17.2,-0.49 25.41,-1.95 8.09,-1.68 16.65,-2.64 24.15,-5.44 l 11.4,-3.9 5.65,-1.99 0.7,-0.26 0.35,-0.12 3.99,-1.73 1.05,-0.56 2.09,-1.12 c 1.59,-0.13 22,-12.95 27.19,-21.25 l 5.5,-6.99 4.17,-7.26 c 2.91,-4.95 4.85,-9.76 6.39,-14.51 6.43,-19.18 6.87,-35.91 5.93,-50.95 z m -85.97,306.53 c -248.71,0 -431.69,-374.37 -527.3,-628.7 -8.27,-21.97 -15.87,-43.03 -22.81,-62.89 -1.08,-3.09 -2.15,-6.15 -3.19,-9.17 -7.79,-22.52 -14.66,-43.3 -20.65,-61.95 -9.42,-29.4 -16.61,-53.44 -21.4,-70.06 12.02,-2.44 23.78,-6.52 35.08,-11.99 144.92,43.38 332.45,53.43 474.08,53.43 119.84,0 206.71,-7.12 206.71,-7.12 37.67,52.73 256.11,798.45 -120.52,798.45" />
        <path fill="#231f20"
          d="m 2962.02,4443.86 c 40.67,0 85.39,10.84 132.93,32.23 99.08,44.6 340.98,287.46 616.27,618.73 10.08,12.13 14.83,27.47 13.37,43.18 -1.44,15.72 -8.93,29.93 -21.05,40.01 -13.58,11.28 -27.98,13.65 -37.68,13.65 -17.67,0 -34.26,-7.77 -45.53,-21.33 -119.85,-144.23 -456.27,-530.61 -572.15,-585.69 l -1.71,-0.79 c -22.57,-10.16 -43.47,-16.79 -62.14,-19.72 l -44.05,-6.93 -32.29,30.74 c -10.83,10.29 -25.69,16.19 -40.82,16.19 -11.13,0 -22.03,-3.2 -31.57,-9.26 -13.31,-8.46 -22.52,-21.62 -25.95,-37.02 -3.41,-15.4 -0.63,-31.22 7.84,-44.53 4.52,-7.11 47.01,-69.46 144.53,-69.46" />
        <path fill="#231f20"
          d="m 2400.36,4430.87 c -9.69,0 -19.3,-2.38 -27.78,-6.87 l -17.34,-9.2 -19.61,-1.16 c -3.78,-0.22 -8.46,-0.4 -14.12,-0.4 -55.16,0 -190.75,17.39 -479.1,133.84 -317.97,128.42 -443.94,147.61 -490.72,147.61 -8.91,0 -14.14,-0.72 -16.52,-1.15 -15.53,-2.83 -29.02,-11.52 -38.01,-24.5 -8.97,-12.96 -12.37,-28.66 -9.54,-44.15 5.03,-27.7 29.89,-48.58 57.8,-48.58 1.16,0 2.34,0.03 3.53,0.11 l 6.53,0.41 6.52,-0.55 c 35.06,-2.91 147.75,-22.27 436.18,-138.75 233.17,-94.17 409.75,-141.92 524.82,-141.92 60.28,0 101.58,12.93 122.76,38.45 10.08,12.14 14.82,27.47 13.36,43.18 -1.45,15.72 -8.95,29.93 -21.07,39.99 -13.59,11.27 -27.99,13.64 -37.69,13.64" />
        <path fill="#dec795"
          d="m 3198.69,3200.99 c 0,0 -16.67,-195 -291.1,-235.46 -51.92,-7.66 -96.52,-10.99 -134.97,-10.99 -146.03,0 -203.48,48.05 -237.26,89.78 0,0 -263.02,-88.83 -283.11,-239.49 -15.02,-112.64 93.5,-170.54 189.09,-170.54 32.26,0 63.03,6.59 87.1,19.89 95.42,52.73 238.54,168.23 429.36,193.34 17.24,2.27 41.08,3.06 69.35,3.06 65.32,0 154.36,-4.23 240.66,-4.23 98.11,0 192.69,5.46 244.9,28.79 118.01,52.73 118.01,143.12 110.47,188.31 -8.35,50.09 -128.22,135.03 -424.49,137.54" />
        <path fill="#211c1d"
          d="m 2879.05,3040.41 c 3.26,0.54 6.47,1.16 9.7,1.76 3.58,0.66 7.13,1.35 10.66,2.08 142.77,29.38 247.77,111.82 248.93,194.35 0.08,5.76 -0.35,11.52 -1.3,17.26 -1.79,10.8 -5.4,21.05 -10.59,30.7 -36.99,68.73 -155.64,106.5 -290.8,89.71 -7.24,-0.9 -14.51,-1.9 -21.84,-3.11 -163.26,-27.11 -283.24,-123.57 -267.98,-215.45 0.87,-5.27 2.22,-10.39 3.92,-15.39 28.03,-82.24 165.4,-127.46 319.3,-101.91" />
      </g>
    </g>
  </g>
  <!-- OpenTelemetry logo badge (bottom right) -->
  <g transform="translate(58, 58) scale(0.328)">
    <path fill="#f5a800"
      d="M67.648 69.797c-5.246 5.25-5.246 13.758 0 19.008 5.25 5.246 13.758 5.246 19.004 0 5.25-5.25 5.25-13.758 0-19.008-5.246-5.246-13.754-5.246-19.004 0Zm14.207 14.219a6.649 6.649 0 0 1-9.41 0 6.65 6.65 0 0 1 0-9.407 6.649 6.649 0 0 1 9.41 0c2.598 2.586 2.598 6.809 0 9.407ZM86.43 3.672l-8.235 8.234a4.17 4.17 0 0 0 0 5.875l32.149 32.149a4.17 4.17 0 0 0 5.875 0l8.234-8.235c1.61-1.61 1.61-4.261 0-5.87L92.29 3.671a4.159 4.159 0 0 0-5.86 0ZM28.738 108.895a3.763 3.763 0 0 0 0-5.31l-4.183-4.187a3.768 3.768 0 0 0-5.313 0l-8.644 8.649-.016.012-2.371-2.375c-1.313-1.313-3.45-1.313-4.75 0-1.313 1.312-1.313 3.449 0 4.75l14.246 14.242a3.353 3.353 0 0 0 4.746 0c1.3-1.313 1.313-3.45 0-4.746l-2.375-2.375.016-.012Zm0 0" />
    <path fill="#425cc7"
      d="M72.297 27.313 54.004 45.605c-1.625 1.625-1.625 4.301 0 5.926L65.3 62.824c7.984-5.746 19.18-5.035 26.363 2.153l9.148-9.149c1.622-1.625 1.622-4.297 0-5.922L78.22 27.313a4.185 4.185 0 0 0-5.922 0ZM60.55 67.585l-6.672-6.672c-1.563-1.562-4.125-1.562-5.684 0l-23.53 23.54a4.036 4.036 0 0 0 0 5.687l13.331 13.332a4.036 4.036 0 0 0 5.688 0l15.132-15.157c-3.199-6.609-2.625-14.593 1.735-20.73Zm0 0" />
  </g>
</svg>