<?xml version="1.0" encoding="UTF-8"?>
<svg width="602px" height="342px" viewBox="0 0 602 342" version="1.1" xmlns="http://www.w3.org/2000/svg" xmlns:xlink="http://www.w3.org/1999/xlink">
    <!-- Generator: Sketch 51.2 (57519) - http://www.bohemiancoding.com/sketch -->
    <title>logo-vertical-black</title>
    <desc>Created with Sketch.</desc>
    <defs>
        <path d="M59.6345611,150.429353 C57.1355851,148.567957 54.5720173,146.219366 54.5720173,144.417639 C54.5720173,143.234134 56.7037367,139.58648 56.7037367,139.58648 L72.5551529,139.58648 C72.5551529,139.58648 74.6340947,142.820475 74.6340947,144.417639 C74.6340947,146.095317 72.0465569,148.379295 69.4646001,150.240734 C68.5857055,148.755104 67.4675572,148.497084 66.9508337,149.668123 C66.684155,150.274814 66.6316286,151.148349 66.7619173,152.062491 C65.3558749,152.954142 64.3284476,153.528678 64.3284476,153.528678 C64.3284476,153.528678 63.534887,153.073504 62.4004075,152.341248 C62.583386,151.328058 62.5482112,150.336184 62.2536291,149.668123 C61.7324505,148.481381 60.59196,148.762281 59.7062862,150.301161 C59.6819291,150.343392 59.6580192,150.386135 59.6345611,150.429353 Z" id="path-1"></path>
    </defs>
    <g id="logo-vertical-black" stroke="none" stroke-width="1" fill="none" fill-rule="evenodd">
        <g id="logo-vertical" transform="translate(180.000000, 0.000000)">
            <g id="snyk-wordmark" transform="translate(0.000000, 200.000000)" fill="#091C30" fill-rule="nonzero">
                <path d="M202.463068,69.4280703 L200.925832,69.4280703 L200.925832,95.9369698 L181.846016,95.9369698 L181.846016,29.93522 L200.925832,0.180332651 L200.925832,61.7639329 C204.72371,57.1203671 217.518942,39.4928504 217.518942,39.4928504 L241.074828,39.4928504 L218.739688,63.0713443 L241.843446,95.9820533 L217.745006,95.9820533 L202.463068,69.4280703 Z M149.292776,65.1000868 L157.114596,39.6731831 L176.01356,39.6731831 L153.859272,95.7566375 C147.258199,112.61774 137.808716,124.02378 123.702312,124.02378 C118.276772,124.02378 113.710276,122.626202 111.313996,121.273707 L118.909752,109.552085 C120.040073,109.687334 121.215606,109.732418 122.39114,109.732418 C128.901788,109.732418 133.784774,103.420775 136.949672,95.9369698 L113.710276,39.6731831 L135.095946,39.6731831 L143.460321,64.7845045 C145.087982,69.5633199 146.263516,78.6701189 146.263516,78.6701189 C146.263516,78.6701189 147.75554,69.8789018 149.292776,65.1000868 Z M91.6464135,63.792675 C91.6464135,56.4441194 88.3910892,52.9727158 82.1969311,52.9727158 C79.1676714,52.9727158 76.0027729,53.8292962 73.8325571,55.136708 L73.8325571,95.9369698 L54.7527412,95.9369698 L54.7527412,40.214181 L73.4256415,38.6813535 L72.9735133,47.7881524 L73.6064928,47.7881524 C77.6304351,42.3781728 84.4575728,38.275605 92.5958828,38.275605 C102.361855,38.275605 110.816655,44.3167488 110.816655,58.6081112 L110.816655,95.9369698 L91.6464135,95.9369698 L91.6464135,63.792675 Z M0.1356385,93.0516477 L1.85372617,80.0676968 C7.82182017,82.9981023 14.5585323,84.3956803 20.2101365,84.3956803 C24.3245044,84.3956803 27.0372744,82.9981023 27.0372744,80.5185283 C27.0372744,73.3953889 1.31117217,75.1085487 1.31117217,56.4892029 C1.31117217,44.5872476 12.2526779,38.3206882 25.9521664,38.3206882 C32.7793042,38.3206882 39.8325063,40.1690979 44.3990024,41.7920917 L42.5452763,54.5506269 C37.7527159,52.702217 31.2420679,50.9890568 25.8165279,50.9890568 C22.4707782,50.9890568 19.7580082,52.161219 19.7580082,54.3252107 C19.7580082,61.3581844 46.0266646,59.960606 46.0266646,78.1291208 C46.0266646,90.2114083 35.2660101,97.1542155 20.5266264,97.1542155 C12.3883164,97.1542155 5.78724268,95.7566375 0.1356385,93.0516477 Z"></path>
            </g>
            <g id="snyk-dog" fill-rule="evenodd" stroke-width="1">
                <g id="dog" transform="translate(56.466667, 15.730000)">
                    <path d="M112.132644,54.0621428 L17.2244579,54.0621428 C17.2244579,48.1302516 25.8031223,30.1994492 42.960451,0.269735542 C42.960451,0.269735542 45.3359926,16.0545937 50.0870756,47.62431 L79.0819583,47.6250464 L86.1988318,0.269735542 C103.48804,30.5963176 112.132644,48.52712 112.132644,54.0621428 Z" id="shield-outline-ears" fill="#FFFFFF" fill-rule="nonzero"></path>
                    <path d="M64.5333333,204.130184 L0,158.974967 L0,53.5857863 C0,53.5857863 23.8600163,44.7928092 64.6160812,44.7928092 C105.372146,44.7928092 129.057675,53.5857863 129.057675,53.5857863 L129.057675,158.974967 L64.5333333,204.130184 Z" id="shield-outline" fill="#FFFFFF" fill-rule="nonzero"></path>
                    <path d="M64.5333333,197.78317 L4.12324843,155.689438 L4.12324843,57.8158014 C4.12324843,57.8158014 26.7141436,49.6498717 64.5333333,49.6498717 L64.5333333,197.78317 Z" id="shield-left" fill="#DBDBDB" fill-rule="nonzero"></path>
                    <path d="M64.6155617,49.6498717 C64.5875873,49.6498717 64.5613077,49.6506993 64.5333333,49.6498717 L64.5333333,197.658692 L64.5341811,197.658692 L124.413505,155.686955 L124.413505,57.8158014 C124.413505,57.8158014 102.434752,49.6498717 64.6155617,49.6498717 Z" id="shield-right" fill="#C6C6C6" fill-rule="nonzero"></path>
                    <path d="M97.2207625,174.754059 L92.1266741,130.547487 L64.13,130.547487 C64.13,165.63402 64.13,188.080194 64.13,197.886007 L64.5333333,198.266463 C75.4253568,190.825516 86.3211666,182.988047 97.2207625,174.754059 Z" id="neck-right" fill="#3B3B63" fill-rule="nonzero"></path>
                    <polygon id="neck-left" fill="#53537A" fill-rule="nonzero" points="31.8633333 175.102941 64.5333333 198.266463 64.5495317 129.201271 36.2557232 129.201271"></polygon>
                    <path d="M78.513247,162.018014 C78.513247,169.612841 71.2967376,173.377874 64.6764497,173.377874 C58.0561622,173.377874 50.6936897,169.612841 50.6936897,162.018014" id="chin" fill="#BC9375" fill-rule="nonzero"></path>
                    <path d="M64.603056,165.945759 C59.288189,165.945759 56.7037367,162.112727 56.7037367,154.232953 L59.2378853,154.232953 C59.2378853,163.458133 62.8605713,163.458133 64.603056,163.458133 C66.3447162,163.458133 69.968227,163.458133 69.968227,154.232953 L72.5015508,154.232953 C72.5015508,162.112727 69.9170985,165.945759 64.603056,165.945759 Z" id="teeth" fill="#FFFFFF" fill-rule="nonzero"></path>
                    <path d="M64.5333333,156.15635 C66.1685873,160.382534 69.3293189,162.495626 74.0155282,162.495626 C78.6038788,162.495626 83.3917948,160.122141 85.5721688,154.256429 C88.6176001,146.051231 88.5870879,134.630657 88.5870879,134.630657 C88.5870879,134.630657 102.120534,117.981852 102.120534,112.352258 C102.120534,112.352258 89.591467,112.352258 64.5333333,112.352258 L64.5333333,156.15635 Z" id="face-right" fill="#C49A7E" fill-rule="nonzero"></path>
                    <path d="M26.4010026,112.352258 C26.4010026,118.871681 39.8173057,134.630657 39.8173057,134.630657 C39.8173057,134.630657 39.7843198,146.047993 42.8330496,154.256429 C45.0084755,160.118093 49.8013394,162.495626 54.3905149,162.495626 C59.0767241,162.495626 62.4576636,160.382534 64.5333333,156.15635 L64.5333333,112.352258 L26.4010026,112.352258 Z" id="face-left" fill="#D8B7A0" fill-rule="nonzero"></path>
                    <path d="M100.505005,74.8653122 C90.0723613,64.3538191 87.4631697,42.4347054 87.4631697,42.4347054 C85.5153472,49.3414484 81.2815959,69.7054926 81.2815959,69.7054926 C81.2815959,69.7054926 73.0584606,67.0921587 64.2008984,67.0783969 C63.910072,67.0783969 63.910072,94.5157038 64.2008984,149.390318 L72.6334948,143.400894 L74.2011539,114.334612 L83.1799395,124.401684 L94.7464759,127.723105 C94.7464759,127.723105 99.0742373,124.690679 99.0742373,124.702012 C100.911557,122.173101 101.520973,120.018994 101.965459,118.90106 C103.571877,114.83408 99.9648591,83.73188 99.9648591,83.73188 C98.6841781,81.0977327 100.505005,74.8653122 100.505005,74.8653122 Z" id="brow-right" fill="#3B3B63" fill-rule="nonzero"></path>
                    <path d="M48.0053319,69.7038735 C48.0053319,69.7038735 43.769931,49.3406389 41.8237581,42.4330862 C41.8237581,42.4330862 39.2162156,64.3522003 28.7819232,74.863693 C28.7819232,74.863693 30.6027497,81.0969236 29.3220687,83.7302608 C29.3220687,83.7302608 25.715051,114.83408 27.3214686,118.894584 C27.7651301,120.013328 28.3794942,122.166626 30.2143397,124.695536 C30.2143397,124.684203 34.5445752,127.717439 34.5445752,127.717439 L46.1086375,124.395208 L55.0857739,114.329755 L56.6575563,143.396037 L64.541851,149.226941 L64.541851,66.9241026 C55.651303,66.9386739 48.0053319,69.7038735 48.0053319,69.7038735 Z" id="brow-left" fill="#53537A" fill-rule="nonzero"></path>
                    <path d="M93.2043809,22.1216601 C94.9353206,25.2917029 109.815525,54.598109 109.815525,64.7469413 L103.215628,82.4115682 C104.332204,92.3790703 106.552985,114.036712 104.876473,118.268023 C103.841537,120.88517 99.896413,126.269225 96.5219464,130.629248 L101.135329,172.006973 L94.8988387,176.419949 L91.4313841,146.186419 C90.9547364,149.254463 90.238116,152.530552 89.1454553,155.472313 C87.7006689,159.366058 85.1475536,162.316724 81.8819407,164.064457 C81.6906219,173.398922 72.9303687,178.434886 64.6764497,178.434886 C56.3540854,178.434886 47.5204381,173.402969 47.3258205,164.071742 C44.0536106,162.320771 41.4971964,159.370106 40.0507611,155.472313 C39.0018067,152.643884 38.2950819,149.512697 37.8159604,146.547461 L34.4988843,176.975702 L28.2285698,172.490949 L32.7567347,130.755531 C29.3558794,126.37608 25.3348875,120.911884 24.2900564,118.265595 C22.6135435,114.033474 24.747737,92.3790703 25.8659619,82.4099495 L18.8737573,64.1263469 L18.8737573,63.5305471 C18.8737573,53.3817149 34.1437954,25.2917029 35.8772091,22.1216601 L40.8226331,13.2219024 C43.8337042,33.8417522 45.33814,44.1608514 45.3359408,44.1792002 L47.7711315,60.8883052 L50.9748953,66.0635052 C54.0533128,65.0427125 59.2791177,63.6252599 64.5708946,63.6252599 C69.8684444,63.6252599 75.1297091,65.0475696 78.2213208,66.0667432 L81.4234358,60.8891144 L88.3612136,13.2219024 L93.2043809,22.1216601 Z M64.6764497,171.800138 C68.3296478,171.800138 73.5323627,170.17707 74.831186,165.874522 C74.6918202,165.87857 74.5574025,165.889903 74.4180367,165.889903 C73.7071887,165.889903 73.0425208,165.824332 72.3976448,165.737715 C70.5133203,168.312768 67.5775675,169.093945 64.6038808,169.093945 C61.6351417,169.093945 58.7051614,168.305482 56.8241358,165.734477 C56.1751361,165.825142 55.5030469,165.889903 54.7864264,165.889903 C54.6495342,165.889903 54.5175906,165.87857 54.3831725,165.874522 C55.69519,170.17707 60.9680002,171.800138 64.6764497,171.800138 Z M60.3981672,164.728255 C61.5312358,165.562051 62.931491,166.025901 64.6063548,166.025901 C66.2721469,166.025901 67.6658051,165.558813 68.7972245,164.728255 C67.8950578,164.334024 67.0786542,163.864507 66.3587353,163.352088 C65.707262,163.541513 65.0838269,163.537465 64.603056,163.537465 C64.1198114,163.537465 63.4897789,163.537465 62.8333579,163.34804 C62.1150878,163.864507 61.3003339,164.334024 60.3981672,164.728255 Z M86.35649,132.628738 C90.8450584,127.15321 97.6022377,118.334403 98.581097,115.866206 C99.3191583,113.325152 98.0599181,96.4792405 96.457624,82.3597595 L96.3693864,81.5769632 L97.6937738,78.0693544 C93.3272536,73.4972396 90.2809979,67.2316287 88.1995822,61.3149169 L87.9290967,63.173553 L81.0350258,74.3027023 L78.3425442,73.1758637 C78.2765722,73.1475309 71.2472587,70.2567691 64.5750178,70.2567691 C57.8598958,70.2567691 50.9443836,73.1451026 50.8767619,73.1734353 L48.1801575,74.3099877 L41.27784,63.1759814 L41.0733266,61.7496241 C38.9696453,67.6088605 35.9200908,73.764378 31.574187,78.2369228 L32.8391996,81.5793916 L32.7509621,82.3629978 C31.1478431,96.4792405 29.888603,113.325152 30.651404,115.930157 C31.6055237,118.338451 38.3635278,127.157257 42.8496219,132.628738 L43.5984042,133.542675 L43.5942809,134.714037 C43.5942809,134.824131 43.6074752,145.65619 46.4063362,153.194351 C48.4382731,158.661784 52.9458083,159.246251 54.7921989,159.246251 C59.4333273,159.246251 61.3968181,155.06351 61.4776336,154.885418 C62.5652529,152.783711 63.1090625,149.330813 63.1090625,144.526726 C63.1090625,144.526726 65.9150651,144.526726 65.9150651,144.526726 C65.9150651,148.386385 66.5000195,151.846837 67.6699284,154.908084 C67.7408481,155.059463 69.7538178,159.256774 74.4180367,159.256774 C76.260304,159.256774 80.7694884,158.665832 82.7997761,153.198398 C85.6077081,145.633523 85.6110066,134.824131 85.6110066,134.718085 L85.6077081,133.546723 L86.35649,132.628738 Z" id="face-outline" fill="#333152" fill-rule="nonzero"></path>
                    <path d="M85.5912147,103.186844 L75.4562702,103.186844 L72.0785051,103.186844 L72.0785051,103.326889 C72.0785051,107.960527 76.1588717,111.714227 80.9451384,111.714227 C85.7330545,111.714227 89.8134211,107.959718 89.8134211,103.326889 L89.8134211,103.186844 L85.5912147,103.186844 Z" id="eye-shadow-right" fill="#333152" fill-rule="nonzero"></path>
                    <path d="M75.4562702,103.186844 L75.4562702,103.326889 C75.4562702,106.083272 77.7158103,108.316712 80.5245671,108.316712 C83.3333239,108.316712 85.5920394,106.083272 85.5920394,103.326889 L85.5920394,103.186844 L75.4562702,103.186844 Z" id="eye-right" fill="#FFFFFF" fill-rule="nonzero"></path>
                    <path d="M79.7131118,103.186844 C79.6900216,103.186844 79.67023,103.198177 79.6496138,103.202225 C79.9440137,103.262938 80.1072944,103.918642 80.0437963,104.354968 C79.9489616,105.022004 79.3700575,105.485044 78.7070392,105.496377 C78.9000072,106.36822 79.6240496,107.069256 80.5855912,107.202016 C81.8143192,107.372823 82.9498618,106.545503 83.1238629,105.340142 C83.2492096,104.452918 82.8146193,103.186844 82.0881029,103.186844 L79.7131118,103.186844 Z" id="eye-pupil-right" fill="#333152" fill-rule="nonzero"></path>
                    <path d="M52.9721968,103.186844 L42.8389015,103.186844 L39.4603118,103.186844 L39.4603118,103.326889 C39.4603118,107.960527 43.541503,111.714227 48.3269451,111.714227 C53.1148612,111.714227 57.1960524,107.959718 57.1960524,103.326889 L57.1960524,103.186844 L52.9721968,103.186844 Z" id="eye-shadow-left" fill="#333152" fill-rule="nonzero"></path>
                    <path d="M42.8389015,103.186844 L42.8389015,103.326889 C42.8389015,106.083272 45.1000909,108.316712 47.9047245,108.316712 C50.7143059,108.316712 52.9730214,106.083272 52.9730214,103.326889 L52.9730214,103.186844 L42.8389015,103.186844 Z" id="eye-left" fill="#FFFFFF" fill-rule="nonzero"></path>
                    <path d="M49.4707342,103.186844 L47.0932692,103.186844 C47.0726529,103.186844 47.0503874,103.198177 47.0314205,103.202225 C47.3249957,103.262938 47.4874518,103.918642 47.425603,104.354968 C47.3299437,105.022004 46.7543382,105.485044 46.0871966,105.496377 C46.2826385,106.36822 47.006681,107.069256 47.9665732,107.202016 C49.1944766,107.372823 50.3324931,106.545503 50.5040203,105.340142 C50.6310164,104.452918 50.1972506,103.186844 49.4707342,103.186844 Z" id="eye-pupil-left" fill="#333152" fill-rule="nonzero"></path>
                    <path d="M84.5719481,99.2315758 C85.139307,98.6212051 89.9560859,93.2557702 83.5139225,93.2557702 C77.6927206,93.2557702 73.5043246,97.8667416 72.3943464,99.2315758 L84.5719481,99.2315758 Z" id="brow-right" fill="#C49A7E" fill-rule="nonzero"></path>
                    <path d="M56.7845522,99.2315758 C55.6753985,97.8667416 51.4870028,93.2557702 45.6641513,93.2557702 C39.2252868,93.2557702 44.0420656,98.6212051 44.6061261,99.2315758 L56.7845522,99.2315758 Z" id="brow-left" fill="#D8B7A0" fill-rule="nonzero"></path>
                    <path d="M25.8148336,62.9906036 C26.1974711,57.7263574 31.7762262,45.1133751 37.0976906,34.4836938 L38.516088,44.2026762 C37.9751178,47.8365685 35.5028181,62.0879994 28.8709853,71.0711369 L25.8148336,62.9906036 Z" id="ear-left" fill="#D8B7A0" fill-rule="nonzero"></path>
                    <path d="M90.8030012,43.4457839 L92.1100707,34.4845033 C97.4307105,45.1133751 103.012764,57.7271666 103.395402,62.9914132 L100.410995,70.8800924 C93.2456133,60.9911127 90.9976184,44.9150452 90.8030012,43.4457839 Z" id="ear-right" fill="#C49A7E" fill-rule="nonzero"></path>
                    <mask id="mask-2" fill="white">
                        <use xlink:href="#path-1"></use>
                    </mask>
                    <use id="nose" fill="#333152" fill-rule="nonzero" xlink:href="#path-1"></use>
                </g>
            </g>
        </g>
    </g>
</svg>