<?xml version="1.0" encoding="utf-8"?>
<!-- Generator: Adobe Illustrator 25.0.0, SVG Export Plug-In . SVG Version: 6.00 Build 0)  -->
<svg version="1.1" id="Laag_1" xmlns="http://www.w3.org/2000/svg" xmlns:xlink="http://www.w3.org/1999/xlink" x="0px" y="0px"
	 viewBox="0 0 133.2 42.5" style="enable-background:new 0 0 133.2 42.5;" xml:space="preserve">
<style type="text/css">
	.st0{fill:#FFFFFF;}
</style>
<g id="Layer_2">
	<g id="logo">
		<g id="logo-2">
			<path d="M133.2,42.5H0v-34C0,3.8,3.8,0,8.5,0h124.7V42.5z"/>
			<path class="st0" d="M18,25.4v-3.8h7v-3h-7v-2.9c0-0.3,0.3-0.6,0.6-0.6l0,0h6.9v-3h-8.9c-1.3,0-2.4,1.1-2.4,2.4l0,0v13.9h11.3v-3
				L18,25.4z"/>
			<path class="st0" d="M33.5,25.5c-1.5,0.1-2.8-1.1-2.8-2.6c0-0.1,0-0.1,0-0.2c-0.2-1.4,0.9-2.7,2.3-2.9c0.1,0,0.2,0,0.3,0
				c0.7,0,1.3,0.2,1.9,0.6l1.5-2.7c-1.1-0.6-2.3-0.9-3.5-0.9c-3.4,0.1-6.1,2.3-6,6s3,5.8,6.3,5.8c1.3,0,2.5-0.4,3.6-1.1l-1.7-2.6
				C34.9,25.3,34.2,25.5,33.5,25.5"/>
			<path class="st0" d="M50.8,16.7c-3.5,0-5.8,2.3-5.8,6s2.4,5.9,6,5.9c2.1,0.1,4.1-0.9,5.3-2.6l-2.6-1.5c-0.6,0.9-1.6,1.5-2.7,1.4
				c-1.3,0.1-2.5-0.8-2.7-2.2c0,0,0,0,0,0h8.2c0.1-0.9,0-1.7-0.2-2.6C55.9,18.4,53.5,16.6,50.8,16.7 M48.5,21.5c0-0.3,0.1-0.7,0.2-1
				c0.1-0.3,0.3-0.5,0.5-0.7c0.9-0.8,2.3-0.8,3.2,0c0.2,0.2,0.4,0.4,0.5,0.7c0.1,0.3,0.2,0.7,0.2,1L48.5,21.5z"/>
			<path class="st0" d="M64.8,25.5c-1.5,0.1-2.8-1.1-2.8-2.6c0-0.1,0-0.1,0-0.2c-0.2-1.4,0.9-2.7,2.3-2.9c0.1,0,0.2,0,0.3,0
				c0.7,0,1.3,0.2,1.9,0.6l1.5-2.7c-1.1-0.6-2.3-0.9-3.5-0.9c-3.4,0.1-6.1,2.3-6,6s3,5.8,6.3,5.8c1.3,0,2.5-0.4,3.6-1.1l-1.7-2.6
				C66.1,25.3,65.4,25.5,64.8,25.5"/>
			<path class="st0" d="M73.1,23.7v-3.9h3V17h-3v-2.4h-3.3v9.7c0,3.3,1.8,4.4,5,4.1c0.7-0.1,1.3-0.2,1.9-0.4L76,25.5
				C74,25.9,73.1,25.3,73.1,23.7"/>
			<path class="st0" d="M81.9,24.2V17h-3.3v7.9c0,2.9,1.7,4.1,4.9,3.5c0.3-0.1,0.7-0.2,1-0.3l-0.7-2.5
				C82.5,25.8,81.9,25.4,81.9,24.2"/>
			<path class="st0" d="M91.3,25.5c-1.5,0.1-2.8-1.1-2.8-2.6c0-0.1,0-0.1,0-0.2c-0.1-1.4,0.9-2.7,2.3-2.9c0.1,0,0.2,0,0.3,0
				c0.7,0,1.3,0.2,1.9,0.6l1.5-2.7c-1.1-0.6-2.3-0.9-3.5-0.9c-3.4,0.1-6.1,2.3-6,6s3,5.8,6.3,5.8c1.3,0,2.6-0.4,3.7-1.1l-1.7-2.6
				C92.7,25.3,92.1,25.5,91.3,25.5"/>
			<path class="st0" d="M43.6,25.6c-1.1,0.2-1.7-0.3-1.7-1.5V12.1h-3.3v12.8c0,2.9,1.7,4.1,4.9,3.5c0.3-0.1,0.7-0.2,1-0.3l-0.7-2.5
				L43.6,25.6"/>
			<path class="st0" d="M80.3,15.7c1,0,1.8-0.8,1.8-1.8s-0.8-1.8-1.8-1.8c-1,0-1.8,0.8-1.8,1.8v0C78.6,14.9,79.3,15.7,80.3,15.7"/>
			<rect x="97" y="12.1" class="st0" width="3.8" height="16.2"/>
			<path class="st0" d="M112.1,28.4c-0.8,0-1.6,0-2.4-0.1c-2.5-0.3-4.7-1.7-6-3.9c-2.3-4-0.9-9.2,3.1-11.5s9.2-0.9,11.5,3.1
				c1.4,2.5,1.5,5.6,0.1,8.1l-3.4-1.8c0.3-0.6,0.5-1.3,0.4-2.1c0-2.5-2-4.5-4.5-4.5s-4.5,2-4.5,4.5c0,0.8,0.2,1.6,0.6,2.4
				c0.6,1.1,1.7,2,2.9,2.3c0.6,0.1,1.2,0.1,1.8,0.1h6.5l2,3.5L112.1,28.4z"/>
		</g>
	</g>
</g>
</svg>
