<?xml version="1.0" encoding="UTF-8"?>
<svg width="86px" height="86px" viewBox="0 0 86 86" xmlns="http://www.w3.org/2000/svg" xmlns:xlink="http://www.w3.org/1999/xlink">
  <svg width="64px" height="64px" viewBox="0 0 64 64" version="1.1" xmlns="http://www.w3.org/2000/svg" xmlns:xlink="http://www.w3.org/1999/xlink">
      <title>Icon-Architecture/48/Arch_Elastic-Load-Balancing_48</title>
      <g id="Icon-Architecture/48/Arch_Elastic-Load-Balancing_48" stroke="none" stroke-width="1" fill="none" fill-rule="evenodd">
          <g id="Icon-Architecture-BG/48/Networking-Content-Delivery" fill="#8C4FFF">
              <rect id="Rectangle" x="0" y="0" width="64" height="64"></rect>
          </g>
          <path d="M23.5,42 C17.71,42 13,37.29 13,31.5 C13,25.71 17.71,21 23.5,21 C29.29,21 34,25.71 34,31.5 C34,37.29 29.29,42 23.5,42 M48,48 C48,49.654 46.654,51 45,51 C43.346,51 42,49.654 42,48 C42,46.346 43.346,45 45,45 C46.654,45 48,46.346 48,48 M45,13 C46.654,13 48,14.346 48,16 C48,17.654 46.654,19 45,19 C43.346,19 42,17.654 42,16 C42,14.346 43.346,13 45,13 M48,29 C49.654,29 51,30.346 51,32 C51,33.654 49.654,35 48,35 C46.346,35 45,33.654 45,32 C45,30.346 46.346,29 48,29 M35.901,33 L43.102,33 C43.565,35.279 45.586,37 48,37 C50.757,37 53,34.757 53,32 C53,29.243 50.757,27 48,27 C45.586,27 43.565,28.721 43.102,31 L35.975,31 C35.916,29.541 35.614,28.146 35.096,26.856 L42.799,20.467 C43.466,20.797 44.206,21 45,21 C47.757,21 50,18.757 50,16 C50,13.243 47.757,11 45,11 C42.243,11 40,13.243 40,16 C40,17.224 40.459,18.331 41.191,19.201 L34.172,25.024 C31.977,21.42 28.021,19 23.5,19 C16.607,19 11,24.607 11,31.5 C11,38.393 16.607,44 23.5,44 C27.743,44 31.493,41.871 33.754,38.629 L41.191,44.799 C40.459,45.669 40,46.776 40,48 C40,50.757 42.243,53 45,53 C47.757,53 50,50.757 50,48 C50,45.243 47.757,43 45,43 C44.206,43 43.466,43.203 42.799,43.533 L34.77,36.873 C35.344,35.673 35.736,34.373 35.901,33" id="Elastic-Load-Balancing_Icon_48_Squid" fill="#FFFFFF"></path>
      </g>
  </svg>
  <svg x="66" y="66" width="20" height="20" viewBox="0 0 128 128">
    <path fill="#f5a800" d="M67.648 69.797c-5.246 5.25-5.246 13.758 0 19.008 5.25 5.246 13.758 5.246 19.004 0 5.25-5.25 5.25-13.758 0-19.008-5.246-5.246-13.754-5.246-19.004 0Zm14.207 14.219a6.649 6.649 0 0 1-9.41 0 6.65 6.65 0 0 1 0-9.407 6.649 6.649 0 0 1 9.41 0c2.598 2.586 2.598 6.809 0 9.407ZM86.43 3.672l-8.235 8.234a4.17 4.17 0 0 0 0 5.875l32.149 32.149a4.17 4.17 0 0 0 5.875 0l8.234-8.235c1.61-1.61 1.61-4.261 0-5.87L92.29 3.671a4.159 4.159 0 0 0-5.86 0ZM28.738 108.895a3.763 3.763 0 0 0 0-5.31l-4.183-4.187a3.768 3.768 0 0 0-5.313 0l-8.644 8.649-.016.012-2.371-2.375c-1.313-1.313-3.45-1.313-4.75 0-1.313 1.312-1.313 3.449 0 4.75l14.246 14.242a3.353 3.353 0 0 0 4.746 0c1.3-1.313 1.313-3.45 0-4.746l-2.375-2.375.016-.012Zm0 0"/>
    <path fill="#425cc7" d="M72.297 27.313 54.004 45.605c-1.625 1.625-1.625 4.301 0 5.926L65.3 62.824c7.984-5.746 19.18-5.035 26.363 2.153l9.148-9.149c1.622-1.625 1.622-4.297 0-5.922L78.22 27.313a4.185 4.185 0 0 0-5.922 0ZM60.55 67.585l-6.672-6.672c-1.563-1.562-4.125-1.562-5.684 0l-23.53 23.54a4.036 4.036 0 0 0 0 5.687l13.331 13.332a4.036 4.036 0 0 0 5.688 0l15.132-15.157c-3.199-6.609-2.625-14.593 1.735-20.73Zm0 0"/>
  </svg>
</svg>
