<svg version="1.1" id="Layer_1" xmlns:x="ns_extend;" xmlns:i="ns_ai;" xmlns:graph="ns_graphs;" xmlns="http://www.w3.org/2000/svg" xmlns:xlink="http://www.w3.org/1999/xlink" x="0px" y="0px" viewBox="0 0 235.5 229.3" style="enable-background:new 0 0 235.5 229.3;" xml:space="preserve">
 <style type="text/css">
  .st0{fill:#E20AB7;}
 </style>
 <metadata>
  <sfw xmlns="ns_sfw;">
   <slices>
   </slices>
   <sliceSourceBounds bottomLeftOrigin="true" height="229.3" width="235.5" x="-196" y="0">
   </sliceSourceBounds>
  </sfw>
 </metadata>
 <g>
  <path class="st0" d="M217.3,71.4l-9.3,9.2c-3.8-47.6-43.9-52.8-53-53.3l8.4-8.9C147.8,4.5,132.9,0,119.9,0v58.3
		c-0.9,0-1.7-0.1-2.6-0.1h-0.1C85.4,58.3,59.7,84,59.7,115.8s25.7,57.5,57.5,57.6h0.1c0.9,0,1.8,0,2.6-0.1v56
		c13,0,27.9-4.5,43.5-18.4l-7.1-7.5c10.9-0.9,48.4-7.4,51.9-53.5l8.8,8.4C258.4,112,217.3,71.4,217.3,71.4z M206,82.6l-31.2,30.8
		c-0.5-11-4-21.2-9.8-29.7L206,82.6z M153.1,29.2l-0.2,41.3c-7.9-6.2-17.4-10.4-27.9-11.8L153.1,29.2z M92.4,115.9
		c0-13.8,11.2-24.9,24.9-24.9c13.8,0,24.9,11.2,24.9,24.9c0,13.8-11.2,24.9-24.9,24.9S92.4,129.6,92.4,115.9z M127,172.7
		c9.8-1.6,18.7-5.7,26.1-11.6l0.2,39.3L127,172.7z M165.6,147.3c5.5-8.4,8.8-18.3,9.2-29l31.5,30L165.6,147.3z">
  </path>
  <path class="st0" d="M103.7,186.2c-34.8-5.3-61.5-35.3-61.5-71.5s26.7-66.3,61.5-71.5V0.5C45.5,6.1,0,55.1,0,114.7
		s45.5,108.6,103.7,114.2V186.2z">
  </path>
 </g>
</svg>