<?xml version="1.0" encoding="UTF-8" standalone="no"?>
<svg
   width="400"
   height="400"
   viewBox="0 0 400 400"
   fill="none"
   version="1.1"
   id="svg20"
   sodipodi:docname="idM2yKmVkm_logos_400.svg"
   inkscape:version="1.2.2 (b0a8486541, 2022-12-01)"
   xmlns:inkscape="http://www.inkscape.org/namespaces/inkscape"
   xmlns:sodipodi="http://sodipodi.sourceforge.net/DTD/sodipodi-0.dtd"
   xmlns="http://www.w3.org/2000/svg"
   xmlns:svg="http://www.w3.org/2000/svg">
  <defs
     id="defs24" />
  <sodipodi:namedview
     id="namedview22"
     pagecolor="#ffffff"
     bordercolor="#000000"
     borderopacity="0.25"
     inkscape:showpageshadow="2"
     inkscape:pageopacity="0.0"
     inkscape:pagecheckerboard="0"
     inkscape:deskcolor="#d1d1d1"
     showgrid="false"
     inkscape:zoom="0.74575147"
     inkscape:cx="18.102546"
     inkscape:cy="-247.40146"
     inkscape:window-width="1452"
     inkscape:window-height="1233"
     inkscape:window-x="416"
     inkscape:window-y="357"
     inkscape:window-maximized="0"
     inkscape:current-layer="svg20" />
  <g
     id="g2968"
     transform="translate(187.71545,188.8495)">
    <path
       d="m 212.28455,11.222135 c 0,35.996446 -8.68897,71.423071 -25.2138,102.937465 -16.52482,31.4688 -40.34337,57.88248 -69.29356,77.00244 -1.66714,1.00125 -3.6029,1.52549 -5.58426,1.52549 -1.98135,0 -3.87153,-0.52424 -5.58262,-1.52549 L 12.236453,133.13629 101.25236,78.591332 c 3.28706,-2.002516 6.0336,-4.863021 7.92378,-8.343817 1.8918,-3.431954 2.97284,-7.342559 2.97284,-11.347591 V -36.79071 c 0,-4.052734 -1.03545,-7.91466 -2.92726,-11.442832 -1.89181,-3.480634 -4.6823,-6.389003 -8.01495,-8.343817 l -89.014275,-54.449221 94.372235,-57.73887 c 1.71109,-1.09661 3.69244,-1.62108 5.58425,-1.62108 1.89018,0 3.91711,0.52447 5.58262,1.62108 v 0.14304 c 28.95182,19.02379 52.77037,45.53319 69.29357,77.001184 16.52482,31.467992 25.21379,66.893151 25.21379,102.890575 z"
       fill="white"
       id="path2"
       style="fill:#10164a;fill-opacity:1;stroke-width:16.2806" />
    <path
       d="m -76.818032,78.877871 89.104955,54.258419 -94.417972,57.83364 c -1.665833,1.00125 -3.601924,1.52712 -5.583112,1.52712 -1.981026,0 -3.872182,-0.52587 -5.583113,-1.52712 -28.906236,-19.11833 -52.724776,-45.53201 -69.204026,-77.00082 -16.52427,-31.516016 -25.21415,-66.988226 -25.21415,-102.937459 0,-35.950372 8.68988,-71.423396 25.21415,-102.891226 16.52434,-31.467995 40.34272,-57.977395 69.204026,-77.001215 1.710931,-1.00126 3.692119,-1.52574 5.583113,-1.52574 1.890993,0 3.917279,0.52447 5.583112,1.62108 l 94.417972,57.73887 -89.104955,54.544625 c -3.286894,1.954814 -5.988337,4.863184 -7.879494,8.343654 -1.890993,3.432931 -2.926604,7.342559 -2.971701,11.347591 v 95.977173 c 0.0451,4.052246 1.080708,7.866795 2.971701,11.347591 1.891157,3.480796 4.637697,6.341301 7.879494,8.343817 z"
       fill="white"
       id="path4"
       style="fill:#10164a;fill-opacity:1;stroke-width:16.2806" />
  </g>
</svg>