<?xml version="1.0" encoding="UTF-8" standalone="no"?>
<svg
   width="24.569092"
   height="22.301001"
   viewBox="0 0 24.569092 22.301001"
   fill="none"
   version="1.1"
   id="svg20"
   sodipodi:docname="xm_cyber-logo.svg"
   inkscape:version="1.2.2 (b0a8486541, 2022-12-01)"
   xmlns:inkscape="http://www.inkscape.org/namespaces/inkscape"
   xmlns:sodipodi="http://sodipodi.sourceforge.net/DTD/sodipodi-0.dtd"
   xmlns="http://www.w3.org/2000/svg"
   xmlns:svg="http://www.w3.org/2000/svg">
  <defs
     id="defs24" />
  <sodipodi:namedview
     id="namedview22"
     pagecolor="#ffffff"
     bordercolor="#000000"
     borderopacity="0.25"
     inkscape:showpageshadow="2"
     inkscape:pageopacity="0.0"
     inkscape:pagecheckerboard="0"
     inkscape:deskcolor="#d1d1d1"
     showgrid="false"
     inkscape:zoom="10.826446"
     inkscape:cx="42.165267"
     inkscape:cy="11.499618"
     inkscape:window-width="1452"
     inkscape:window-height="1233"
     inkscape:window-x="2156"
     inkscape:window-y="465"
     inkscape:window-maximized="0"
     inkscape:current-layer="svg20" />
  <path
     d="m 24.569092,11.1549 c 0,2.211 -0.5337,4.387 -1.5487,6.3227 -1.015,1.9329 -2.478,3.5553 -4.2562,4.7297 -0.1024,0.0615 -0.2213,0.0937 -0.343,0.0937 -0.1217,0 -0.2378,-0.0322 -0.3429,-0.0937 l -5.7967,-3.5641 5.4676,-3.3503 c 0.2019,-0.123 0.3706,-0.2987 0.4867,-0.5125 0.1162,-0.2108 0.1826,-0.451 0.1826,-0.697 V 8.20582 c 0,-0.24893 -0.0636,-0.48614 -0.1798,-0.70285 -0.1162,-0.21379 -0.2876,-0.39243 -0.4923,-0.5125 l -5.4675,-3.34442 5.7966,-3.546479 C 18.180592,0.0322142 18.302292,0 18.418492,0 c 0.1161,0 0.2406,0.0322142 0.3429,0.099571 v 0.008786 c 1.7783,1.168493 3.2413,2.796773 4.2562,4.729623 1.015,1.93285 1.5487,4.10876 1.5487,6.31982 z"
     fill="white"
     id="path2"
     style="fill:#10164a;fill-opacity:1" />
  <path
     d="m 6.8116224,15.3105 5.4730696,3.3327 -5.7994096,3.5523 c -0.10232,0.0615 -0.22124,0.0938 -0.34293,0.0938 -0.12168,0 -0.23784,-0.0323 -0.34293,-0.0938 -1.7755,-1.1743 -3.2385,-2.7967 -4.2507,-4.7296 C 0.53375638,15.5301 0,13.3513 0,11.1432 0,8.93503 0.53375638,6.75618 1.5487224,4.82334 2.5636924,2.89049 4.0266824,1.26221 5.7994224,0.0937149 5.9045124,0.0322152 6.0262024,0 6.1423524,0 c 0.11615,0 0.24061,0.0322142 0.34293,0.099571 L 12.284692,3.64605 6.8116224,6.99633 c -0.20189,0.12007 -0.36782,0.29871 -0.48398,0.51249 -0.11615,0.21086 -0.17976,0.451 -0.18253,0.697 V 14.101 c 0.00277,0.2489 0.06638,0.4832 0.18253,0.697 0.11616,0.2138 0.28486,0.3895 0.48398,0.5125 z"
     fill="white"
     id="path4"
     style="fill:#10164a;fill-opacity:1" />
</svg>