<?xml version="1.0" encoding="UTF-8" standalone="no"?>
<svg
   version="1.1"
   width="400"
   height="400"
   id="svg25"
   sodipodi:docname="banner.svg"
   inkscape:version="1.4.3 (0d15f75, 2025-12-25)"
   xmlns:inkscape="http://www.inkscape.org/namespaces/inkscape"
   xmlns:sodipodi="http://sodipodi.sourceforge.net/DTD/sodipodi-0.dtd"
   xmlns="http://www.w3.org/2000/svg"
   xmlns:svg="http://www.w3.org/2000/svg">
  <defs
     id="defs25" />
  <sodipodi:namedview
     id="namedview25"
     pagecolor="#ffffff"
     bordercolor="#000000"
     borderopacity="0.25"
     inkscape:showpageshadow="2"
     inkscape:pageopacity="0.0"
     inkscape:pagecheckerboard="0"
     inkscape:deskcolor="#d1d1d1"
     inkscape:zoom="0.7076223"
     inkscape:cx="630.98633"
     inkscape:cy="313.72669"
     inkscape:window-width="2558"
     inkscape:window-height="1362"
     inkscape:window-x="1273"
     inkscape:window-y="-1"
     inkscape:window-maximized="0"
     inkscape:current-layer="svg25" />
  <g
     id="g25"
     transform="translate(3.8673798,-1.576845)">
    <path
       d="m 156.24677,53.282086 c 3.8245,0.0078 7.6489,5.09e-4 11.4733,-0.0042 6.4125,-0.0054 12.825,0.0016 19.2375,0.01602 7.3522,0.01633 14.7042,0.01102 22.0565,-0.0055 6.3821,-0.01373 12.7641,-0.01548 19.1462,-0.0077 3.7814,0.0046 7.5627,0.0055 11.3441,-0.0046 31.2866,-0.07199 58.8929,0.756324 82.6299,23.408886 0.6278,0.541406 1.2556,1.082813 1.9024,1.640625 15.0457,13.51051 18.5461,34.257593 20.0976,53.359383 0.4824,10.02945 0.4298,20.07389 0.403,30.1125 -0.01,3.82443 -5e-4,7.64885 0,11.47328 0.01,6.41253 0,12.82495 -0.016,19.23746 -0.016,7.35225 -0.011,14.70426 0.01,22.05651 0.014,6.38207 0.015,12.76408 0.01,19.14616 0,3.78142 -0.01,7.56272 0,11.34413 0.071,30.95973 -0.5472,59.32075 -23.4089,82.62996 -0.7386,0.77473 -1.4773,1.54945 -2.2383,2.34766 -9.7839,9.58664 -22.3732,15.24389 -35.7617,17.65234 -0.9818,0.17714 -1.9635,0.35428 -2.9751,0.53679 -14.0352,2.10924 -28.2047,1.77476 -42.3617,1.76479 -3.0556,-10e-4 -6.1112,0.004 -9.1668,0.009 -7.2272,0.011 -14.4544,0.0116 -21.6817,0.005 -7.3878,-0.006 -14.7755,0.006 -22.1633,0.0276 -6.4015,0.0178 -12.8029,0.0236 -19.2044,0.0204 -3.7973,-0.002 -7.5944,5.7e-4 -11.3916,0.0147 -47.0258,0.16001 -47.0258,0.16001 -64.055401,-8.37832 -0.9745,-0.45762 -1.949,-0.91524 -2.9531,-1.38672 -17.5197,-9.10384 -28.9217,-25.23785 -35.0469,-43.61328 -0.857,-2.75164 -1.5049,-5.19306 -2,-8 -0.167,-0.92337 -0.3341,-1.84673 -0.5062,-2.79808 -2.1244,-14.09774 -1.8054,-28.31819 -1.7953,-42.5388 10e-4,-3.0556 0,-6.11117 -0.01,-9.16677 -0.011,-7.22723 -0.012,-14.45441 -0.01,-21.68165 0.01,-7.38785 -0.01,-14.7755 -0.028,-22.16331 -0.018,-6.40149 -0.024,-12.80292 -0.02,-19.20443 0,-3.79725 -6e-4,-7.59436 -0.015,-11.39159 -0.16,-47.00246 -0.16,-47.00246 8.3783,-64.055373 0.446,-0.96293 0.892,-1.92586 1.3515,-2.91797 7.4109,-14.384632 20.1477,-25.313848 34.6485,-32.082035 0.8288,-0.415078 1.6577,-0.830156 2.5117,-1.257812 18.598201,-8.086172 41.761001,-6.198216 61.600801,-6.145164 z"
       fill="#f5f5f5"
       id="path3" />
    <path
       d="m 196.44677,101.37257 c 1.5769,-0.0242 1.5769,-0.0242 3.1856,-0.0488 16.6851,-0.0102 30.4638,6.08146 43.0644,16.92383 9.6778,9.67784 15.1276,23.49926 15.551,37.07788 -0.01,1.26207 -0.01,2.52415 -0.016,3.82446 0,1.01726 0,1.01726 0,2.05507 -0.01,2.13925 -0.018,4.27838 -0.031,6.41759 0,1.46159 -0.01,2.92317 -0.014,4.38476 -0.011,3.55928 -0.028,7.1185 -0.049,10.67774 0.7425,0.20625 1.485,0.4125 2.25,0.625 3.7246,1.8623 4.7884,3.70337 6.75,7.375 0.5675,3.05606 0.5676,6.04926 0.5493,9.15137 0.01,0.90165 0.02,1.80329 0.031,2.73227 0.028,2.97135 0.026,5.94177 0.021,8.91323 0.01,2.07498 0.016,4.14995 0.026,6.22492 0.015,4.34766 0.014,8.69499 0,13.04266 -0.012,5.55281 0.022,11.10428 0.069,16.65687 0.03,4.28622 0.031,8.57213 0.025,12.85843 0,2.046 0.011,4.09202 0.032,6.13792 0.1827,21.09728 0.1827,21.09728 -6.7567,28.28233 -8.3417,6.80116 -17.0923,7.35658 -27.5,7.625 -1.2759,0.0365 -2.5518,0.073 -3.8664,0.11059 -25.4225,0.66527 -51.0523,1.1737 -76.4461,-0.42309 -1.0224,-0.0533 -2.0449,-0.10651 -3.0984,-0.16138 -7.7484,-0.61079 -14.8464,-2.76798 -20.343,-8.50268 -0.4318,-0.75024 -0.8636,-1.50047 -1.3086,-2.27344 -0.455,-0.75539 -0.91,-1.51078 -1.3789,-2.28906 -2.3282,-4.58775 -2.2197,-8.84544 -2.2356,-13.86841 -0.01,-0.89788 -0.013,-1.79577 -0.02,-2.72086 -0.02,-2.97415 -0.031,-5.94825 -0.041,-8.92245 0,-1.01579 -0.01,-2.03158 -0.012,-3.07815 -0.021,-5.37556 -0.035,-10.75109 -0.044,-16.12669 -0.011,-5.55183 -0.045,-11.10326 -0.085,-16.65495 -0.026,-4.26969 -0.034,-8.53929 -0.038,-12.80906 -0.01,-2.04651 -0.016,-4.09303 -0.035,-6.13947 -0.024,-2.8654 -0.023,-5.72977 -0.016,-8.59525 -0.019,-1.265 -0.019,-1.265 -0.039,-2.55555 0.047,-5.34058 0.963,-8.37591 4.5088,-12.6151 0.7314,-0.50032 1.4628,-1.00064 2.2163,-1.51611 2.0502,-1.3883 2.0502,-1.3883 2.2979,-4.09668 0.01,-1.0327 0.016,-2.0654 0.025,-3.1294 0.035,-1.72476 0.035,-1.72476 0.07,-3.48437 0,-1.20399 0.01,-2.40797 0.016,-3.64844 0.274,-24.76627 0.274,-24.76627 5.9375,-35.3125 0.3508,-0.67217 0.7016,-1.34433 1.063,-2.03687 7.556,-13.90509 19.4602,-22.84115 34.3745,-27.77563 7.0948,-2.07769 13.9521,-2.33482 21.3125,-2.3125 z"
       fill="#75c834"
       id="path4" />
    <path
       d="m 196.44677,101.37257 c 1.5769,-0.0242 1.5769,-0.0242 3.1856,-0.0488 16.6851,-0.0102 30.4638,6.08146 43.0644,16.92383 9.6778,9.67784 15.1276,23.49926 15.551,37.07788 -0.01,1.26207 -0.01,2.52415 -0.016,3.82446 0,1.01726 0,1.01726 0,2.05507 -0.01,2.13925 -0.018,4.27838 -0.031,6.41759 0,1.46159 -0.01,2.92317 -0.014,4.38476 -0.011,3.55928 -0.028,7.1185 -0.049,10.67774 0.7863,0.28101 1.5727,0.56203 2.3828,0.85156 3.3275,1.46011 4.2005,2.84285 5.6172,6.14844 -0.4297,2.16406 -0.4297,2.16406 -1,4 -17.6976,0.0233 -35.3953,0.041 -53.0929,0.0518 -8.2169,0.005 -16.4338,0.0122 -24.6507,0.0236 -7.1599,0.01 -14.3198,0.0164 -21.4797,0.0187 -3.7929,0.001 -7.5857,0.004 -11.3786,0.0116 -3.5671,0.007 -7.1341,0.009 -10.7013,0.007 -1.939,4e-4 -3.8781,0.006 -5.8172,0.0113 -1.1471,-0.001 -2.2941,-0.003 -3.476,-0.004 -1.001,9.3e-4 -2.0021,0.002 -3.0335,0.003 -2.3701,-0.12305 -2.3701,-0.12305 -4.3701,-1.12305 -0.375,-2.6875 -0.375,-2.6875 0,-6 1.4734,-0.93779 1.4734,-0.93779 2.9766,-1.89453 2.3787,-1.87209 2.964,-2.81434 3.5786,-5.82691 0.1915,-3.43619 0.2285,-6.8372 0.1948,-10.27856 0.082,-24.51657 0.082,-24.51657 5.8125,-35.1875 0.3508,-0.67217 0.7016,-1.34433 1.063,-2.03687 7.5561,-13.90509 19.4602,-22.84115 34.3745,-27.77563 7.0949,-2.07769 13.9522,-2.33482 21.3125,-2.3125 z"
       fill="#215f32"
       id="path5" />
    <path
       d="m 220.13427,129.68507 c 8.3934,6.01484 12.9849,11.92446 15,22 0,9.57 0,19.14 0,29 -25.74,0 -51.48,0 -78,0 0,-34.74723 0,-34.74723 8,-45 13.7031,-13.44338 38.6844,-15.77122 55,-6 z"
       fill="#f5f5f5"
       id="path7" />
    <path
       d="m 134.13427,154.68507 c 0.33,0 0.66,0 1,0 0.33,10.56 0.66,21.12 1,32 3.3454,1.11513 5.9176,1.13299 9.4375,1.125 1.1331,0.003 2.2662,0.005 3.4336,0.008 2.5811,-0.10956 4.6784,-0.37416 7.1289,-1.13281 0.33,-1.98 0.66,-3.96 1,-6 25.74,0 51.48,0 78,0 0.495,2.97 0.495,2.97 1,6 3.5592,1.18638 6.7982,1.14615 10.5,1.125 1.0151,0.006 1.0151,0.006 2.0508,0.0117 3.09,-0.006 5.496,-0.15232 8.4492,-1.13672 0.7333,-2.01508 0.7333,-2.01508 1,-4 3.2315,0.96072 4.7585,1.69411 6.875,4.375 1.2596,2.93909 1.035,3.69568 0.125,6.625 -17.6976,0.0233 -35.3953,0.041 -53.0929,0.0518 -8.2169,0.005 -16.4338,0.0122 -24.6507,0.0236 -7.1599,0.01 -14.3198,0.0164 -21.4797,0.0187 -3.7929,0.001 -7.5857,0.004 -11.3786,0.0116 -3.5671,0.007 -7.1341,0.009 -10.7013,0.007 -1.939,4e-4 -3.8781,0.006 -5.8172,0.0113 -1.1471,-10e-4 -2.2941,-0.003 -3.476,-0.004 -1.001,9.3e-4 -2.0021,0.002 -3.0335,0.003 -2.3701,-0.12305 -2.3701,-0.12305 -4.3701,-1.12305 -0.375,-2.6875 -0.375,-2.6875 0,-6 0.9797,-0.60844 1.9594,-1.21688 2.9688,-1.84375 2.4793,-1.94291 2.9885,-2.9429 3.6186,-6.08716 0.2282,-3.63702 0.2952,-7.23748 0.2876,-10.88159 0.021,-1.26522 0.041,-2.53043 0.062,-3.83399 0.047,-3.11849 0.067,-6.23473 0.062,-9.35351 z"
       fill="#308534"
       id="path13" />
  </g>
</svg>
