<svg width="32" height="32" fill="none" viewBox="0 0 32 32" xmlns="http://www.w3.org/2000/svg" focusable="false" role="img" aria-hidden="true">
  <!-- Elastic logo scaled and positioned -->
  <g transform="translate(0, 0) scale(0.85)">
    <path fill="#FEC514" d="M12.58 13.787l7.002 3.211 7.066-6.213a7.854 7.854 0 00.152-1.557 7.944 7.944 0 00-1.54-4.704 7.897 7.897 0 00-4.02-2.869 7.87 7.87 0 00-4.932.086 7.9 7.9 0 00-3.92 3.007l-1.174 6.118 1.367 2.92z"/>
    <path fill="#00BFB3" d="M5.333 21.228A7.964 7.964 0 006.72 27.53a7.918 7.918 0 004.04 2.874 7.89 7.89 0 004.95-.097 7.921 7.921 0 003.926-3.03l1.166-6.102-1.555-2.985-7.03-3.211-6.885 6.248z"/>
    <path fill="#F04E98" d="M5.288 9.067l4.8 1.137L11.14 4.73a3.785 3.785 0 00-4.538-.023A3.82 3.82 0 005.29 9.065"/>
    <path fill="#1BA9F5" d="M4.872 10.214a5.294 5.294 0 00-2.595 1.882 5.324 5.324 0 00-.142 6.124 5.287 5.287 0 002.505 2l6.733-6.101-1.235-2.65-5.266-1.255z"/>
    <path fill="#93C90E" d="M20.873 27.277a3.737 3.737 0 002.285.785 3.783 3.783 0 003.101-1.63 3.813 3.813 0 00.451-3.484l-4.8-1.125-1.037 5.454z"/>
    <path fill="#07C" d="M21.848 20.563l5.28 1.238a5.34 5.34 0 002.622-1.938 5.37 5.37 0 001.013-3.106 5.312 5.312 0 00-.936-3.01 5.283 5.283 0 00-2.475-1.944l-6.904 6.07 1.4 2.69z"/>
  </g>
  <!-- Dollar sign badge in bottom-right corner -->
  <circle cx="25.5" cy="25.5" r="6" fill="#00BFB3"/>
  <text x="25.5" y="28.5" text-anchor="middle" font-family="Arial, sans-serif" font-weight="bold" font-size="9" fill="#FFFFFF">$</text>
</svg>
