<svg xmlns="http://www.w3.org/2000/svg" viewBox="18.304 11.047 64 64" width="64" height="64"><path d="M72.074 44.421c-.545 3.711-1.614 7.139-3.178 10.195-4.15.184-8.324.31-12.412.375.033-3.228.058-6.669.073-10.235 5.14-.052 10.358-.166 15.517-.337" style="stroke-width:0;fill:#e3262b"/><path d="M56.571 32.033c5.234.077 10.555.243 15.827.494.02.961.036 1.846.045 2.634.003.224.012.504.022.827.044 1.411.116 3.749-.163 6.582-5.239.175-10.531.291-15.736.344.017-5.128.012-9.151.008-10.883" style="stroke-width:0;fill:#eb7525"/><path d="M67.839 56.504a28.3 28.3 0 0 1-4.553 5.658c-2.004 1.923-4.353 3.612-6.986 5.025.067-3.105.123-6.584.166-10.354 3.744-.059 7.566-.17 11.374-.329" style="fill:#6284c1;stroke-width:0"/><path d="M41.327 32.046c-.004 1.732-.009 5.75.009 10.86a727 727 0 0 1-15.532-.349c-.278-2.828-.205-5.16-.161-6.569.01-.324.019-.603.022-.827.009-.782.023-1.66.044-2.614a505 505 0 0 1 15.619-.5" style="stroke-width:0;fill:#92c53f"/><path d="M26.031 44.407c5.126.169 10.275.283 15.313.34.015 3.565.041 7.004.073 10.23-3.999-.072-8.108-.2-12.218-.384-1.56-3.054-2.625-6.479-3.169-10.186" style="stroke-width:0;fill:#c6d872"/><path d="M30.257 56.483c3.762.159 7.52.271 11.182.337.044 3.73.099 7.177.165 10.255-2.583-1.408-4.89-3.086-6.86-4.991a28.3 28.3 0 0 1-4.486-5.601" style="stroke-width:0;fill:#8061a5"/><path d="M49.06 18.327v.256c8.584 0 16.709.781 22.911 2.2.15 2.86.292 6.522.383 9.898a484 484 0 0 0-16.692-.503l-.676-.009-.26-.004v.26l.004.676c0 .207.078 20.901-.292 37.016a43 43 0 0 1-5.382 2.068 43 43 0 0 1-5.588-2.166c-.365-15.978-.294-36.699-.293-36.908l.003-.677v-.261l-.26.004-.677.01c-5.402.078-10.945.25-16.484.511.091-3.382.233-7.052.383-9.919 6.209-1.42 14.339-2.2 22.922-2.2v-.256" style="stroke-width:0;fill:#f3c018"/></svg>