<svg width="400" height="400" viewBox="0 0 400 400" fill="none" xmlns="http://www.w3.org/2000/svg">
  <defs>
    <linearGradient id="ec2-bg" x1="0" y1="400" x2="400" y2="0" gradientUnits="userSpaceOnUse">
      <stop offset="0" stop-color="#C87850"/>
      <stop offset="1" stop-color="#F7B85D"/>
    </linearGradient>
  </defs>
  <rect width="400" height="400" fill="url(#ec2-bg)"/>
  <path d="M130 191H70C64.477 191 60 195.477 60 201V332C60 337.523 64.477 342 70 342H206C211.523 342 216 337.523 216 332V271" stroke="white" stroke-width="10" stroke-linecap="square"/>
  <path d="M188 98V72C188 66.477 192.477 62 198 62H330C335.523 62 340 66.477 340 72V207C340 212.523 335.523 217 330 217H300" stroke="white" stroke-width="10" stroke-linecap="square"/>
  <rect x="130" y="137" width="135" height="134" rx="7" stroke="white" stroke-width="10"/>
  <path d="M140 117V137M170 117V137M200 117V137M230 117V137M260 117V137" stroke="white" stroke-width="10"/>
  <path d="M140 271V297M170 271V297M200 271V297M230 271V297M260 271V297" stroke="white" stroke-width="10"/>
  <path d="M110 147H130M110 177H130M110 207H130M110 237H130M110 267H130" stroke="white" stroke-width="10"/>
  <path d="M265 147H290M265 177H290M265 207H290M265 237H290" stroke="white" stroke-width="10"/>
</svg>
