<?xml version="1.0" standalone="no"?>
<!DOCTYPE svg PUBLIC "-//W3C//DTD SVG 20010904//EN"
 "http://www.w3.org/TR/2001/REC-SVG-20010904/DTD/svg10.dtd">
<svg version="1.0" xmlns="http://www.w3.org/2000/svg"
 width="7793.000000pt" height="1585.000000pt" viewBox="0 0 7793.000000 1585.000000"
 preserveAspectRatio="xMidYMid meet">

<g transform="translate(0.000000,1585.000000) scale(0.100000,-0.100000)"
fill="#DD3339" stroke="none">
<path d="M13600 15763 c-1037 -59 -2192 -333 -3458 -819 -111 -42 -201 -78
-199 -80 2 -2 48 10 102 27 181 55 557 147 786 193 1395 279 2671 171 3610
-305 266 -135 520 -314 722 -509 155 -149 256 -270 376 -451 260 -390 404
-815 462 -1364 17 -162 14 -568 -6 -769 -95 -972 -482 -2056 -1098 -3076 -408
-675 -941 -1370 -1567 -2045 -205 -221 -688 -698 -909 -899 -712 -646 -1487
-1232 -2236 -1691 -88 -53 -248 -152 -355 -220 -1355 -848 -2443 -1298 -3550
-1469 -488 -76 -1000 -77 -1379 -5 -465 89 -828 263 -1110 534 -391 376 -575
859 -574 1510 2 683 192 1346 686 2386 l64 135 -62 135 c-165 361 -414 742
-695 1064 -123 141 -385 394 -515 499 -250 201 -574 388 -813 470 -57 20 -110
36 -117 36 -22 0 -314 -465 -492 -785 -303 -543 -571 -1160 -809 -1860 -472
-1385 -484 -2910 -35 -4057 198 -503 469 -920 823 -1264 368 -358 777 -602
1298 -774 215 -71 344 -101 615 -139 313 -45 526 -62 875 -68 340 -6 614 5
940 37 2156 217 4582 1269 6905 2995 1558 1157 3004 2599 4060 4049 1179 1619
1868 3264 1976 4716 15 197 6 679 -15 850 -80 635 -285 1173 -615 1615 -93
124 -399 432 -546 549 -625 499 -1406 778 -2365 846 -130 9 -641 11 -780 3z"/>
<path d="M5580 15345 c-247 -1097 -1403 -2570 -2699 -3440 -474 -317 -904
-521 -1323 -624 l-148 -37 128 -28 c250 -54 565 -173 837 -315 771 -404 1652
-1170 2310 -2012 486 -621 794 -1228 906 -1784 l12 -60 23 105 c104 461 377
1020 763 1560 652 913 1596 1752 2476 2200 277 141 497 225 770 295 94 24 159
44 144 44 -39 1 -293 66 -404 104 -700 239 -1502 779 -2205 1487 -823 828
-1396 1757 -1549 2514 l-18 91 -23 -100z"/>
</g>
<g transform="translate(0.000000,1585.000000) scale(0.100000,-0.100000)"
fill="#000000" stroke="none">
<path d="M20265 13428 c-3 -7 -4 -472 -3 -1033 l3 -1020 1667 -3 1668 -2 2
-4443 3 -4442 1113 -3 1112 -2 0 4445 0 4445 1678 2 1677 3 0 1030 0 1030
-4458 3 c-3561 2 -4459 0 -4462 -10z"/>
<path d="M56997 13433 c-4 -3 -7 -802 -7 -1775 l0 -1768 -72 76 c-337 355
-852 616 -1448 734 -404 80 -871 99 -1298 54 -1267 -133 -2238 -795 -2796
-1905 -273 -543 -425 -1127 -477 -1826 -16 -223 -7 -898 15 -1093 122 -1076
491 -1938 1101 -2568 520 -538 1158 -851 1955 -959 112 -15 203 -18 540 -18
437 0 573 12 861 70 669 136 1216 430 1574 844 l80 92 15 -453 15 -453 1053
-3 1052 -2 0 5480 0 5480 -1078 0 c-593 0 -1082 -3 -1085 -7z m-1716 -4653
c929 -94 1519 -703 1681 -1735 19 -121 22 -181 22 -445 1 -334 -8 -427 -64
-672 -62 -271 -187 -571 -328 -783 -311 -469 -775 -747 -1341 -805 -248 -25
-585 -8 -791 41 -297 69 -582 220 -791 418 -329 311 -502 685 -585 1266 -21
152 -30 606 -14 777 45 497 175 912 383 1223 268 399 705 654 1227 714 109 12
481 13 601 1z"/>
<path d="M64227 13433 c-7 -11 -4258 -10914 -4264 -10936 -5 -16 54 -17 1187
-15 l1192 3 399 1100 c219 605 400 1103 401 1106 2 3 67 -9 146 -27 447 -101
947 -174 1492 -216 221 -17 1099 -17 1320 0 548 42 1072 119 1495 217 77 18
143 30 146 27 3 -4 165 -448 359 -987 194 -539 373 -1035 397 -1102 l45 -123
1190 0 1190 0 -6 23 c-3 12 -953 2477 -2110 5477 l-2103 5455 -1236 3 c-680 1
-1238 -1 -1240 -5z m2052 -4622 c436 -1212 790 -2205 787 -2208 -14 -14 -594
-99 -866 -127 -403 -41 -1003 -46 -1378 -12 -379 36 -981 121 -988 140 -3 8
1556 4285 1618 4440 l12 30 12 -30 c6 -16 368 -1021 803 -2233z"/>
<path d="M71700 7960 l0 -5480 1105 0 1105 0 0 5480 0 5480 -1105 0 -1105 0 0
-5480z"/>
<path d="M75280 13365 l0 -75 220 0 220 0 0 -585 0 -585 75 0 75 0 0 585 0
585 220 0 220 0 0 75 0 75 -515 0 -515 0 0 -75z"/>
<path d="M76580 12780 l0 -661 73 3 72 3 5 518 5 519 230 -337 c127 -185 233
-339 236 -341 3 -2 111 152 240 341 l234 345 5 -523 5 -522 73 -3 72 -3 0 661
0 660 -73 0 -74 0 -233 -351 c-129 -193 -237 -352 -242 -355 -4 -3 -114 155
-244 351 l-237 355 -74 0 -73 0 0 -660z"/>
<path d="M32700 10774 c-336 -28 -511 -55 -715 -108 -360 -95 -680 -252 -933
-458 -149 -121 -317 -305 -425 -465 -23 -34 -44 -63 -47 -63 -3 0 -32 186 -64
413 -32 226 -63 442 -68 480 l-10 67 -974 0 -974 0 0 -4080 0 -4080 1083 2
1082 3 5 2100 c6 2286 3 2142 61 2434 172 859 710 1398 1567 1571 301 60 536
80 965 80 l297 0 0 1044 0 1043 -102 7 c-126 7 -686 15 -748 10z"/>
<path d="M37745 10773 c-503 -29 -897 -102 -1292 -238 -236 -80 -408 -160
-613 -282 -808 -484 -1372 -1191 -1675 -2098 -126 -379 -205 -790 -236 -1229
-15 -220 -6 -787 15 -991 95 -889 380 -1630 852 -2220 113 -141 368 -396 509
-509 226 -181 524 -364 772 -473 383 -169 831 -280 1353 -335 198 -21 843 -18
1050 5 840 92 1512 343 2060 768 127 98 352 319 461 452 299 364 500 772 623
1264 14 56 26 106 26 112 0 8 -316 11 -1065 11 l-1065 0 -36 -72 c-57 -113
-110 -186 -203 -278 -275 -273 -702 -423 -1242 -437 -319 -8 -576 24 -822 104
-539 176 -933 624 -1087 1240 -18 72 -60 299 -60 324 0 5 1142 9 2790 9 l2789
0 10 38 c77 294 94 1022 35 1507 -109 901 -457 1678 -1009 2253 -571 595
-1285 943 -2150 1046 -244 29 -582 42 -790 29z m436 -1773 c502 -51 939 -302
1195 -688 152 -229 253 -526 271 -799 l6 -93 -1766 0 -1767 0 0 28 c0 52 30
226 57 326 179 682 726 1143 1453 1225 110 12 432 13 551 1z"/>
<path d="M46850 10770 c-818 -75 -1532 -369 -2009 -826 -61 -58 -134 -134
-162 -170 -29 -35 -55 -64 -59 -64 -3 0 -27 190 -54 423 -26 232 -50 441 -53
465 l-6 42 -1013 0 -1014 0 0 -4080 0 -4080 1083 2 1082 3 5 2180 c6 2390 2
2218 65 2537 152 765 572 1314 1154 1507 351 117 796 131 1126 36 493 -143
819 -575 950 -1260 62 -323 58 -163 64 -2690 l6 -2310 1083 -3 1083 -2 -4
2502 -3 2503 -22 195 c-55 477 -129 829 -252 1201 -119 357 -274 656 -479 919
-81 104 -277 307 -386 400 -338 287 -819 477 -1405 555 -145 20 -629 29 -780
15z"/>
</g>
</svg>
