<svg xmlns="http://www.w3.org/2000/svg" viewBox="0 0 128 128">
  <path fill="#E6522C" d="M64 0C28.7 0 0 28.7 0 64s28.7 64 64 64 64-28.7 64-64S99.3 0 64 0zm0 118.7c-9.4 0-17-5.4-17-12h34c0 6.6-7.6 12-17 12zm28.1-18.2H35.9v-9.4h56.2v9.4zm-.4-14.3H36.2c-.2-.3-3.6-5.1-3.6-5.1-3.9-5.4-6.5-10.3-8.1-14.2 0 0 7.4 1.4 14.4 1.4 3.8 0 7.7-.3 11.3-1.1-11.4-5.4-19.2-16.9-19.2-30.2 0-18.4 14.9-33.3 33.3-33.3s33.3 14.9 33.3 33.3c0 13.3-7.8 24.8-19.2 30.2 3.6.8 7.5 1.1 11.3 1.1 7 0 14.4-1.4 14.4-1.4-1.6 3.9-4.2 8.8-8.1 14.2 0 0-3.4 4.8-3.6 5.1z"/>
</svg>
