<?xml version="1.0" standalone="no"?>
<!DOCTYPE svg PUBLIC "-//W3C//DTD SVG 20010904//EN"
 "http://www.w3.org/TR/2001/REC-SVG-20010904/DTD/svg10.dtd">
<svg version="1.0" xmlns="http://www.w3.org/2000/svg"
 width="318.000000pt" height="159.000000pt" viewBox="0 0 318.000000 159.000000"
 preserveAspectRatio="xMidYMid meet">

<g transform="translate(0.000000,159.000000) scale(0.100000,-0.100000)"
fill="#000000" stroke="none">
<path d="M382 977 c-17 -18 -22 -36 -22 -80 0 -31 -2 -57 -5 -57 -3 0 -17 7
-31 17 -24 15 -27 15 -52 -4 -33 -25 -38 -47 -18 -78 31 -47 106 -21 106 37 0
15 9 18 60 18 l60 0 0 40 c0 42 24 58 33 23 4 -17 5 -17 6 0 1 20 37 24 44 5
4 -10 6 -10 6 0 1 6 10 12 21 12 18 0 20 -7 20 -70 l0 -70 -125 0 -125 0 0
-50 c0 -59 24 -90 70 -90 28 0 30 3 30 35 l0 35 85 0 85 0 0 -35 c0 -32 3 -35
28 -35 17 0 37 10 50 23 20 22 22 33 22 161 0 132 -1 138 -25 161 -23 24 -29
25 -163 25 -132 0 -140 -1 -160 -23z m-47 -149 c15 -22 14 -24 -10 -45 -29
-26 -53 -21 -61 13 -13 49 41 73 71 32z"/>
<path d="M1570 815 l0 -155 25 0 c24 0 25 2 25 74 0 79 13 106 50 106 29 0 40
-31 40 -109 0 -69 1 -71 25 -71 25 0 25 1 25 88 0 112 -13 136 -74 130 -22 -3
-48 -8 -56 -11 -13 -6 -14 2 -12 48 4 53 3 55 -22 55 l-26 0 0 -155z"/>
<path d="M2564 956 c-10 -26 4 -46 31 -46 23 0 26 4 23 28 -3 31 -44 45 -54
18z"/>
<path d="M2700 815 l0 -155 25 0 c23 0 25 3 25 52 l0 52 53 -52 c39 -39 60
-52 82 -52 l29 0 -35 38 c-77 83 -75 73 -23 131 l46 51 -32 0 c-25 0 -41 -10
-75 -47 l-44 -48 -1 93 c0 91 0 92 -25 92 l-25 0 0 -155z"/>
<path d="M1420 920 c0 -29 -4 -40 -15 -40 -8 0 -15 -9 -15 -20 0 -11 7 -20 15
-20 12 0 15 -17 15 -90 0 -89 0 -90 25 -90 25 0 25 1 25 90 0 73 3 90 15 90 8
0 15 9 15 20 0 11 -7 20 -15 20 -11 0 -15 11 -15 40 0 36 -2 40 -25 40 -22 0
-25 -4 -25 -40z"/>
<path d="M2430 920 c0 -29 -4 -40 -15 -40 -8 0 -15 -9 -15 -20 0 -11 7 -20 15
-20 12 0 15 -17 15 -90 0 -89 0 -90 25 -90 25 0 25 1 25 90 0 73 3 90 15 90 8
0 15 9 15 20 0 11 -7 20 -15 20 -11 0 -15 11 -15 40 0 36 -2 40 -25 40 -22 0
-25 -4 -25 -40z"/>
<path d="M855 858 c-21 -19 -29 -35 -32 -74 -8 -92 58 -149 136 -118 40 17 44
17 36 4 -4 -6 6 -10 22 -10 l28 0 0 110 0 110 -28 0 c-19 0 -26 -4 -21 -12 5
-8 2 -9 -12 -3 -10 5 -37 10 -60 13 -32 3 -47 -1 -69 -20z m124 -44 c12 -15
21 -34 21 -44 0 -28 -39 -70 -66 -70 -33 0 -64 34 -64 70 0 64 71 92 109 44z"/>
<path d="M1132 797 c8 -117 27 -142 108 -139 24 1 42 9 58 27 19 23 22 37 22
111 0 83 0 84 -25 84 -25 0 -25 -1 -25 -79 0 -83 -11 -106 -47 -99 -27 5 -43
47 -43 116 0 60 -1 62 -26 62 l-27 0 5 -83z"/>
<path d="M1869 851 c-50 -50 -39 -149 21 -181 44 -23 150 -6 150 25 0 18 -28
27 -50 15 -30 -16 -68 -12 -90 10 -34 34 -24 40 70 40 l90 0 0 31 c0 20 -10
40 -29 60 -25 25 -37 29 -81 29 -44 0 -56 -4 -81 -29z m122 -21 c33 -18 21
-28 -41 -32 -42 -2 -60 1 -60 9 0 28 64 42 101 23z"/>
<path d="M2140 770 l0 -110 25 0 c24 0 25 2 25 68 0 72 17 112 49 112 32 0 41
-22 41 -102 l0 -78 28 0 27 0 -3 92 c-3 67 -8 98 -19 111 -19 20 -82 23 -102
5 -11 -10 -14 -10 -18 0 -3 6 -16 12 -29 12 -24 0 -24 0 -24 -110z"/>
<path d="M2570 770 l0 -110 25 0 25 0 0 110 0 110 -25 0 -25 0 0 -110z"/>
</g>
</svg>
