<?xml version="1.0" encoding="UTF-8"?>
<svg version="1.1" viewBox="0 0 276.8 77.5" xmlns="http://www.w3.org/2000/svg" xmlns:cc="http://creativecommons.org/ns#" xmlns:dc="http://purl.org/dc/elements/1.1/" xmlns:rdf="http://www.w3.org/1999/02/22-rdf-syntax-ns#">
 <metadata>
  <rdf:RDF>
   <cc:Work rdf:about="">
    <dc:format>image/svg+xml</dc:format>
    <dc:type rdf:resource="http://purl.org/dc/dcmitype/StillImage"/>
    <dc:title>pfSense Logo</dc:title>
   </cc:Work>
  </rdf:RDF>
 </metadata>
 <title id="cvfa">pfSense Logo</title>
 <path class="pf0" d="m22.4 54.7c2.9 0 5.4-0.9 7.5-2.6s3.6-4 4.4-6.8 0.6-5.1-0.5-6.8-3.2-2.6-6.1-2.6-5.4 0.9-7.5 2.6-3.5 4-4.3 6.8-0.7 5.1 0.5 6.8c1 1.8 3 2.6 6 2.6" style="fill:#1a1a1a"/>
 <path class="pf0" d="m109.7 43.6c-1.5-0.8-3-1.4-4.7-1.8s-3.2-0.7-4.7-1.1c-1.5-0.3-2.7-0.7-3.6-1.1s-1.4-1.1-1.4-2c0-1.1 0.5-1.9 1.4-2.4s1.9-0.7 2.8-0.7c2.8 0 5 1 6.7 3.1l7-7c-1.7-1.8-3.9-3.1-6.4-3.8s-5-1.1-7.4-1.1c-1.9 0-3.9 0.2-5.7 0.7-1.9 0.5-3.6 1.2-5 2.3-1.5 1-2.6 2.3-3.5 3.9s-1.3 3.5-1.3 5.7c0 2.3 0.5 4.2 1.4 5.6s2.1 2.5 3.6 3.3 3 1.3 4.7 1.7 3.2 0.7 4.7 1.1c1.5 0.3 2.7 0.7 3.6 1.2s1.4 1.2 1.4 2.2-0.5 1.7-1.6 2.1-2.3 0.6-3.6 0.6c-1.7 0-3.3-0.3-4.6-1s-2.5-1.7-3.6-3l-7 7.7c1.8 1.9 4.1 3.2 6.7 3.9 2.7 0.7 5.3 1.1 7.9 1.1 2 0 4-0.2 6.1-0.6 2-0.4 3.9-1 5.5-2 1.6-0.9 3-2.2 4-3.8s1.6-3.5 1.6-5.9c0-2.3-0.5-4.2-1.4-5.6-1-1.3-2.2-2.5-3.6-3.3" style="fill:#1a1a1a"/>
 <path class="pf0" d="m150.9 31.1c-1.5-1.7-3.3-3-5.5-3.9s-4.6-1.4-7.2-1.4c-2.9 0-5.6 0.5-8.1 1.4s-4.7 2.2-6.6 3.9-3.3 3.8-4.4 6.2-1.6 5.1-1.6 8c0 3 0.5 5.6 1.6 8s2.5 4.5 4.4 6.2 4.1 3 6.6 3.9 5.2 1.4 8.1 1.4c3 0 5.9-0.6 8.7-1.9s5.1-3.1 7-5.4l-8-5.9c-1 1.3-2.1 2.4-3.4 3.3-1.3 0.8-2.9 1.3-4.8 1.3-2.2 0-4.1-0.7-5.7-2-1.5-1.3-2.5-3.1-3-5.2h26.6v-3.6c0-3-0.4-5.6-1.2-8-0.8-2.5-2-4.6-3.5-6.3m-22 10c0.1-0.9 0.3-1.8 0.7-2.6s0.9-1.6 1.6-2.2 1.5-1.2 2.5-1.6 2.1-0.6 3.4-0.6c2.1 0 3.8 0.7 5.1 2.1s2 3 1.9 5h-15.2z" style="fill:#1a1a1a"/>
 <path class="pf0" d="m192.9 30.8c-1-1.6-2.4-2.8-4.2-3.7s-4.1-1.3-7-1.3c-1.4 0-2.7 0.2-3.8 0.5-1.2 0.4-2.2 0.8-3.1 1.4s-1.7 1.2-2.4 1.9-1.2 1.4-1.5 2.1h-0.3v-5.1h-11v37.2h11.5v-18.4c0-1.2 0.1-2.4 0.2-3.5 0.2-1.1 0.5-2.1 1-3s1.2-1.6 2.1-2.1 2.1-0.8 3.6-0.8 2.6 0.3 3.4 0.9 1.4 1.4 1.8 2.4 0.6 2 0.7 3.2c0.1 1.1 0.1 2.3 0.1 3.3v18.2h11.5v-20.6c0-2.5-0.2-4.8-0.5-7-0.5-2.1-1.1-4-2.1-5.6" style="fill:#1a1a1a"/>
 <path class="pf0" d="m226.1 43.6c-1.5-0.8-3-1.4-4.7-1.8s-3.2-0.7-4.7-1.1c-1.5-0.3-2.7-0.7-3.6-1.1s-1.4-1.1-1.4-2c0-1.1 0.5-1.9 1.4-2.4s1.9-0.7 2.8-0.7c2.8 0 5 1 6.7 3.1l7-7c-1.7-1.8-3.9-3.1-6.4-3.8s-5-1.1-7.4-1.1c-1.9 0-3.9 0.2-5.7 0.7-1.9 0.5-3.6 1.2-5 2.3-1.5 1-2.6 2.3-3.5 3.9s-1.3 3.5-1.3 5.7c0 2.3 0.5 4.2 1.4 5.6s2.1 2.5 3.6 3.3 3 1.3 4.7 1.7 3.2 0.7 4.7 1.1c1.5 0.3 2.7 0.7 3.6 1.2s1.4 1.2 1.4 2.2-0.5 1.7-1.6 2.1-2.3 0.6-3.6 0.6c-1.7 0-3.3-0.3-4.6-1s-2.5-1.7-3.6-3l-7 7.7c1.8 1.9 4.1 3.2 6.7 3.9 2.7 0.7 5.3 1.1 7.9 1.1 2 0 4-0.2 6.1-0.6 2-0.4 3.9-1 5.5-2 1.6-0.9 3-2.2 4-3.8s1.6-3.5 1.6-5.9c0-2.3-0.5-4.2-1.4-5.6-1-1.3-2.2-2.5-3.6-3.3" style="fill:#1a1a1a"/>
 <path class="pf0" d="m272 48.9v-4.2c-0.1-2.7-0.5-5.2-1.2-7.4-0.8-2.4-2-4.5-3.5-6.2s-3.3-3-5.5-3.9-4.6-1.4-7.2-1.4c-2.9 0-5.6 0.5-8.1 1.4s-4.7 2.2-6.6 3.9-3.3 3.8-4.4 6.2-1.6 5.1-1.6 8c0 3 0.5 5.6 1.6 8s2.5 4.5 4.4 6.2 4.1 3 6.6 3.9 5.2 1.4 8.1 1.4c3 0 5.9-0.6 8.7-1.9s5.1-3.1 7-5.4l-8-5.9c-1 1.3-2.1 2.4-3.4 3.3-1.3 0.8-2.9 1.3-4.8 1.3-2.2 0-4.1-0.7-5.7-2-1.5-1.3-2.5-3.1-3-5.2h26.6zm-26.7-7.8c0.1-0.9 0.3-1.8 0.7-2.6s0.9-1.6 1.6-2.2 1.5-1.2 2.5-1.6 2.1-0.6 3.4-0.6c2.1 0 3.8 0.7 5.1 2.1s2 3 1.9 5h-15.2z" style="fill:#1a1a1a"/>
 <path class="pf1" d="m47.2 35.9 2.6-9.2h4.6l1.8-6.6c0.6-2 1.3-4 2.2-5.8 0.8-1.8 2-3.4 3.4-4.8s3.2-2.5 5.3-3.3 4.8-1.2 7.9-1.2c0.8 0 1.5 0 2.3 0.1-0.7-2.9-3.3-5-6.3-5.1h-64.5c-3.6 0-6.5 3-6.5 6.6v57.4l10.5-37.3h10.6l-1.4 4.9h0.2c0.6-0.7 1.4-1.3 2.4-2s2-1.3 3.1-1.9 2.3-1 3.6-1.4 2.6-0.5 3.9-0.5c2.8 0 5.1 0.5 7.1 1.4s3.5 2.3 4.7 4c1 1.5 1.6 3.3 1.9 5.4l0.8-0.6h-0.2z" style="fill:#1a1a1a"/>
 <path class="pf2" d="m76.7 14.9c-0.5-0.1-1.1-0.2-1.8-0.2-1.8 0-3.3 0.4-4.5 1.2-1.1 0.8-2.1 2.4-2.8 4.9l-1.7 5.9h6.5l1.6 5.1-4.2 4.1h-6.5l-7.9 28h-11.4l7.9-28h-4.4l-0.9 0.6c0 0.2 0.1 0.5 0.1 0.7 0.2 2.3-0.1 4.9-0.9 7.7-0.7 2.6-1.8 5.1-3.3 7.5s-3.2 4.5-5.1 6.3c-2 1.8-4.2 3.3-6.6 4.4s-4.9 1.6-7.6 1.6c-2.4 0-4.5-0.4-6.4-1.1s-3.2-2-4-3.8h-0.2l-5 17.7h63.3c3.6 0 6.6-2.9 6.6-6.6v-55.7c-0.3-0.1-0.6-0.2-0.8-0.3" style="fill:#1a1a1a"/>
 <path class="pf0" d="m272.2 65.5h0.8c0.4 0 0.6-0.1 0.7-0.2s0.2-0.2 0.2-0.4c0-0.1 0-0.2-0.1-0.3s-0.1-0.2-0.3-0.2c-0.1 0-0.3-0.1-0.6-0.1h-0.7zm-0.6 2.1v-3.8h1.3c0.5 0 0.8 0 1 0.1s0.4 0.2 0.5 0.4 0.2 0.4 0.2 0.6c0 0.3-0.1 0.5-0.3 0.7s-0.5 0.3-0.8 0.3c0.1 0.1 0.2 0.1 0.3 0.2 0.2 0.2 0.3 0.4 0.6 0.8l0.5 0.7h-0.8l-0.3-0.6c-0.3-0.5-0.5-0.8-0.6-0.9s-0.3-0.1-0.5-0.1h-0.4v1.6zm1.6-4.9c-0.5 0-1 0.1-1.5 0.4s-0.8 0.6-1.1 1.1-0.4 1-0.4 1.5 0.1 1 0.4 1.5 0.6 0.8 1.1 1.1 1 0.4 1.5 0.4 1-0.1 1.5-0.4 0.8-0.6 1.1-1.1 0.4-1 0.4-1.5-0.1-1-0.4-1.5-0.6-0.8-1.1-1.1-1-0.4-1.5-0.4zm0-0.6c0.6 0 1.2 0.2 1.8 0.5s1 0.7 1.3 1.3 0.5 1.2 0.5 1.8-0.2 1.2-0.5 1.8-0.8 1-1.3 1.3c-0.6 0.3-1.2 0.5-1.8 0.5s-1.2-0.2-1.8-0.5-1-0.8-1.3-1.3c-0.3-0.6-0.5-1.2-0.5-1.8s0.2-1.2 0.5-1.8 0.8-1 1.3-1.3c0.6-0.4 1.2-0.5 1.8-0.5z" style="fill:#1a1a1a"/>
</svg>
