<?xml version="1.0" encoding="utf-8"?>
<!-- Generator: Adobe Illustrator 25.2.0, SVG Export Plug-In . SVG Version: 6.00 Build 0)  -->
<svg version="1.1" id="katman_1" xmlns="http://www.w3.org/2000/svg" xmlns:xlink="http://www.w3.org/1999/xlink" x="0px" y="0px"
	 viewBox="0 0 560 400" style="enable-background:new 0 0 560 400;" xml:space="preserve">
<style type="text/css">
	.st0{fill:#049FD9;}
</style>
<g transform="matrix(1.66667 0 0 1.66667 100 105.006)">
	<path class="st0" d="M106.23,79.44c-0.33-0.09-5.39-1.4-10.77-1.4c-10.18,0-16.32,5.5-16.32,13.69c0,7.25,5.13,10.87,11.29,12.81
		c0.68,0.23,1.69,0.54,2.36,0.76c2.74,0.86,4.93,2.14,4.93,4.36c0,2.48-2.53,4.09-8.02,4.09c-4.83,0-9.46-1.38-10.44-1.63v10.08
		c0.54,0.12,6.05,1.2,11.93,1.2c8.46,0,18.13-3.69,18.13-14.69c0-5.34-3.27-10.25-10.44-12.53l-3.05-0.97
		c-1.82-0.57-5.07-1.5-5.07-4.17c0-2.11,2.41-3.59,6.84-3.59c3.82,0,8.47,1.28,8.64,1.34V79.44z M199.61,100.73
		c0,6.37-4.88,11.53-11.43,11.53c-6.56,0-11.42-5.15-11.42-11.53c0-6.36,4.87-11.51,11.42-11.51
		C194.73,89.21,199.61,94.37,199.61,100.73 M188.18,78.06c-13.47,0-23.13,10.16-23.13,22.66c0,12.53,9.66,22.68,23.13,22.68
		c13.47,0,23.14-10.15,23.14-22.68C211.32,88.22,201.65,78.06,188.18,78.06 M64.32,122.63H53.27V78.84h11.05"/>
	<path class="st0" d="M38.08,79.63c-1.04-0.31-4.88-1.57-10.08-1.57c-13.45,0-23.32,9.59-23.32,22.66
		c0,14.11,10.9,22.68,23.32,22.68c4.93,0,8.7-1.17,10.08-1.56v-11.75c-0.47,0.26-4.09,2.32-9.28,2.32
		c-7.36,0-12.11-5.18-12.11-11.69c0-6.71,4.95-11.68,12.11-11.68c5.28,0,8.84,2.11,9.28,2.34"/>
	<path class="st0" d="M153.42,79.63c-1.04-0.31-4.88-1.57-10.08-1.57c-13.45,0-23.32,9.59-23.32,22.66
		c0,14.11,10.9,22.68,23.32,22.68c4.93,0,8.7-1.17,10.08-1.56v-11.75c-0.47,0.26-4.09,2.32-9.28,2.32
		c-7.36,0-12.11-5.18-12.11-11.69c0-6.71,4.95-11.68,12.11-11.68c5.28,0,8.84,2.11,9.28,2.34"/>
	<path class="st0" d="M53.24-3.95c0-3.02-2.47-5.47-5.49-5.47c-3.02,0-5.49,2.45-5.49,5.47V54.2c0,3.04,2.47,5.48,5.49,5.48
		c3.02,0,5.49-2.45,5.49-5.48V-3.95z M23.1,16.69c0-3.02-2.46-5.47-5.49-5.47s-5.49,2.45-5.49,5.47v26.58
		c0,3.03,2.46,5.48,5.49,5.48s5.49-2.45,5.49-5.48V16.69z M-7.03,31.78c0-3.02-2.46-5.46-5.49-5.46c-3.02,0-5.49,2.45-5.49,5.46
		v11.5c0,3.03,2.47,5.48,5.49,5.48c3.02,0,5.49-2.45,5.49-5.48"/>
	<path class="st0" d="M42.27-3.95c0-3.02,2.47-5.47,5.49-5.47c3.02,0,5.49,2.45,5.49,5.47V54.2c0,3.04-2.47,5.48-5.49,5.48
		c-3.02,0-5.49-2.45-5.49-5.48V-3.95z M72.4,16.69c0-3.02,2.46-5.47,5.49-5.47c3.02,0,5.49,2.45,5.49,5.47v26.58
		c0,3.03-2.46,5.48-5.49,5.48c-3.02,0-5.49-2.45-5.49-5.48V16.69z M102.53,31.78c0-3.02,2.46-5.46,5.49-5.46
		c3.02,0,5.49,2.45,5.49,5.46v11.5c0,3.03-2.47,5.48-5.49,5.48c-3.02,0-5.49-2.45-5.49-5.48"/>
	<g transform="matrix(-1 0 0 1 216 0)">
		<path class="st0" d="M53.24-3.95c0-3.02-2.47-5.47-5.49-5.47c-3.02,0-5.49,2.45-5.49,5.47V54.2c0,3.04,2.47,5.48,5.49,5.48
			c3.02,0,5.49-2.45,5.49-5.48V-3.95z M23.1,16.69c0-3.02-2.46-5.47-5.49-5.47s-5.49,2.45-5.49,5.47v26.58
			c0,3.03,2.46,5.48,5.49,5.48s5.49-2.45,5.49-5.48V16.69z M-7.03,31.78c0-3.02-2.46-5.46-5.49-5.46c-3.02,0-5.49,2.45-5.49,5.46
			v11.5c0,3.03,2.47,5.48,5.49,5.48c3.02,0,5.49-2.45,5.49-5.48"/>
		<path class="st0" d="M42.27-3.95c0-3.02,2.47-5.47,5.49-5.47c3.02,0,5.49,2.45,5.49,5.47V54.2c0,3.04-2.47,5.48-5.49,5.48
			c-3.02,0-5.49-2.45-5.49-5.48V-3.95z M72.4,16.69c0-3.02,2.46-5.47,5.49-5.47c3.02,0,5.49,2.45,5.49,5.47v26.58
			c0,3.03-2.46,5.48-5.49,5.48c-3.02,0-5.49-2.45-5.49-5.48V16.69z M102.53,31.78c0-3.02,2.46-5.46,5.49-5.46
			c3.02,0,5.49,2.45,5.49,5.46v11.5c0,3.03-2.47,5.48-5.49,5.48c-3.02,0-5.49-2.45-5.49-5.48"/>
	</g>
</g>
</svg>
