<?xml version="1.0" encoding="utf-8"?>
<!-- Generator: Adobe Illustrator 28.1.0, SVG Export Plug-In . SVG Version: 6.00 Build 0)  -->
<svg version="1.1" id="Layer_1" xmlns="http://www.w3.org/2000/svg" xmlns:xlink="http://www.w3.org/1999/xlink" x="0px" y="0px"
	 viewBox="0 0 512 512" style="enable-background:new 0 0 512 512;" xml:space="preserve">
<style type="text/css">
	.st0{fill:#E41B24;}
</style>
<path class="st0" d="M512,22.96c-6.37,7.85-12.97,15.51-18.96,23.64c-1.88,2.55-3.39,6.59-2.82,9.51
	c2.07,10.65-1.02,19.34-8.2,26.84c5.93,8.73,3.79,16.7-7.7,29.48c4.54,8.27,0.39,14.65-4.9,20.49c-2.6,2.87-4.37,5.07-3.87,9.64
	c0.64,5.88-3.64,10.47-7.92,14.33c-2.02,1.82-2.67,3.9-3.51,6.48c-1.36,4.14-4.79,7.62-7.42,11.33c-0.8,1.14-2.6,2.11-2.62,3.18
	c-0.12,6.93-4.88,9.72-10.2,12.12c-1.04,0.47-2.1,0.89-3.08,1.3c0.64,8.36-1.12,10.92-9.08,13.77c-1.1,0.39-2.82,1.3-2.87,2.06
	c-0.57,8.65-6.8,9.58-13.36,10.03c-1.53,9.21-4.49,11.21-14.59,9.92c-4.02,9.08-5.43,10.04-14.39,8.86c0.75,2.74,0.94,5.35,2.1,7.42
	c27.78,49.42,44.6,102.7,55.94,157.93c5.04,24.54,6.83,49.14-0.66,73.53c-1.48,4.82-3.91,9.59-6.9,13.64
	c-5.03,6.8-11.58,7.69-18.24,2.56c-4.01-3.09-7.7-6.95-10.56-11.12c-11.22-16.32-16.76-34.86-20.23-54.14
	c-0.11-0.6-0.29-1.19-1.32-1.99c-0.88,2.67-1.55,5.43-2.66,8c-4.39,10.16-7.99,20.82-13.63,30.25c-6.85,11.45-18,10.79-25.5-0.44
	c-6-8.99-8.17-19.27-8.73-29.78c-0.54-10.07-0.12-20.19-0.12-31.18c-3.71,4.1-6.56,7.97-10.12,11.01
	c-6.41,5.48-13.23,10.48-19.94,15.61c-1.03,0.79-2.34,1.24-3.58,1.72c-11.76,4.5-18.37,0.33-16.04-11.87
	c2.24-11.73,7.33-22.92,11.26-34.32c0.75-2.18,1.96-4.2,2.96-6.3c0.08-0.41,0.16-0.82,0.23-1.22c-0.3,0.2-0.61,0.39-0.91,0.59
	c-7.4,5.62-14.58,11.58-22.3,16.74c-4.32,2.89-9.39,4.88-14.37,6.47c-3.93,1.25-6.32-1.23-5.34-5.23c1.05-4.3,2.45-8.67,4.59-12.51
	c10.29-18.49,24.27-34.12,39.01-49.11c1.16-1.18,2.54-2.14,3.59-3.02c-39.55-35.2-68.35-77.2-87.21-125.88
	c-4.14-10.69-5.03-22.6-7.9-33.83c-7.28-28.52-23.4-49.26-52.57-57.86c-11.28-3.32-22.79-1.64-34.21-0.31
	c-27.76,3.24-55.52,6.47-83.27,9.72c-6.94,0.81-13.85,2.05-20.81,2.37c-2.98,0.14-6.04-1.55-9.07-2.41c0-1.33,0-2.67,0-4
	c2.64-1.26,5.17-3.18,7.95-3.69c35.94-6.58,71.84-13.38,107.9-19.19c15.92-2.56,28.09-9.26,37.67-22.4
	c5.99-8.22,13.47-15.79,21.58-21.94c42.12-31.99,93.68-3.42,102.14,33.11c0.97,4.19,2.56,8.23,3.77,12.37
	c5.41,18.43,12.81,35.94,23.82,51.79c7.75,11.16,14.01,11.21,21.79,0.23c1.63-2.3,3.04-4.78,4.77-7
	c3.97-5.12,7.72-10.47,12.19-15.13c34.9-36.33,74.38-66.95,117.55-92.77c9.05-5.41,19.05-9.26,28.71-13.58
	c1.83-0.82,4.91-1.44,6.15-0.49c3.05,2.32,5.52,0.59,8.36,0.33c2.48-0.23,5.09,0.86,7.64,1.37C512,20.96,512,21.96,512,22.96z"/>
</svg>
