<svg version="1.1" id="Layer_1" xmlns="http://www.w3.org/2000/svg" xmlns:xlink="http://www.w3.org/1999/xlink" x="0px" y="0px"
	 width="100%" viewBox="0 0 512 512" enable-background="new 0 0 512 512" xml:space="preserve">
<path fill="#000000" opacity="1.000000" stroke="none" 
	d="
M513.000000,27.000006 
	C513.000000,188.950012 513.000000,350.900024 513.000000,512.925049 
	C342.436005,512.925049 171.871979,512.925049 1.000000,512.925049 
	C1.000000,383.642761 1.000000,254.285263 1.358938,124.227036 
	C2.909057,124.014915 4.132798,124.991074 5.286201,124.914047 
	C13.606082,124.358391 21.926939,123.731689 30.217192,122.844444 
	C37.193001,122.097885 44.113956,120.848297 51.084885,120.044083 
	C58.208843,119.222191 65.376427,118.780273 72.502296,117.972519 
	C80.178833,117.102341 87.819839,115.921295 95.493721,115.024467 
	C101.912827,114.274292 108.416153,114.091484 114.776291,113.025597 
	C124.554749,111.386841 134.271378,110.102982 144.147141,112.007317 
	C154.899475,114.080666 164.740997,118.529770 172.830978,125.674660 
	C178.649124,130.813110 183.068512,137.537277 188.099884,143.564102 
	C194.813171,151.605606 198.836960,161.128937 200.705551,171.142563 
	C202.419144,180.325470 202.803619,189.765579 206.043915,198.658417 
	C208.782410,206.174072 211.200043,213.850525 214.560104,221.084015 
	C218.244858,229.016434 222.791885,236.553513 227.068222,244.204147 
	C229.956665,249.371735 232.985123,254.462753 236.028152,259.541748 
	C238.771667,264.120819 241.590378,268.655731 244.433884,273.173645 
	C246.062973,275.761993 247.663025,278.389954 249.534866,280.799072 
	C252.209671,284.241608 255.125854,287.496307 257.931030,290.837830 
	C262.455200,296.226990 266.935486,301.653503 271.513336,306.996582 
	C273.134308,308.888458 274.934753,310.636597 276.742554,312.356476 
	C281.988098,317.347015 287.342377,322.225922 292.484039,327.320129 
	C293.261139,328.090057 293.813171,330.375244 293.313324,330.944519 
	C288.841461,336.037567 284.037964,340.837189 279.476654,345.854645 
	C275.242706,350.511932 270.923096,355.130798 267.126587,360.134857 
	C263.488068,364.930725 260.796814,370.451996 257.099854,375.195068 
	C252.806961,380.702728 249.668686,386.609436 248.218094,393.406677 
	C247.033295,398.958374 250.402649,402.059509 255.851883,400.640778 
	C262.361725,398.945953 267.858154,395.407532 273.182922,391.487885 
	C277.632935,388.212250 282.144226,385.019989 286.628357,381.790833 
	C286.966736,382.057220 287.305145,382.323639 287.643524,382.590027 
	C285.362335,388.850952 282.778503,395.021942 280.883423,401.397644 
	C278.909729,408.037781 277.234009,414.815826 276.122101,421.646576 
	C275.297119,426.714447 277.789856,430.872955 283.022003,431.823578 
	C286.187439,432.398773 290.023682,432.112335 292.920563,430.802277 
	C301.471222,426.935394 309.597137,422.375763 315.844604,414.884644 
	C318.705750,411.454010 322.916779,409.149139 326.000031,406.737091 
	C326.000031,412.836243 325.903717,420.282928 326.041077,427.725311 
	C326.108795,431.392609 326.180054,435.150787 326.997711,438.695282 
	C328.991241,447.336853 330.519531,456.033295 335.693329,463.792999 
	C339.111908,468.920197 345.732178,472.624969 351.761353,471.183899 
	C359.641571,469.300385 363.351593,463.030762 366.274353,456.901581 
	C370.920319,447.158752 374.179504,436.754669 378.091919,426.454956 
	C378.733704,428.981201 379.514069,431.431244 379.966095,433.940399 
	C381.873077,444.526489 385.461945,454.508423 389.584045,464.443542 
	C393.879211,474.795715 399.316132,483.912537 407.788971,491.480164 
	C415.935913,498.756714 426.329224,495.624054 430.370209,488.395355 
	C434.131348,481.667389 436.892273,474.028381 438.342865,466.455109 
	C439.937653,458.129303 439.944061,449.417969 439.890991,440.879303 
	C439.831207,431.257172 439.738190,421.509186 438.198395,412.053894 
	C436.233856,399.990723 432.803864,388.166412 430.009613,376.238159 
	C427.807068,366.835785 426.093628,357.285797 423.301819,348.062042 
	C418.766937,333.079376 413.977112,318.140137 408.445984,303.503357 
	C403.877380,291.413605 398.302429,279.682770 392.757660,267.990082 
	C388.398895,258.798401 383.382690,249.919434 378.727966,240.865814 
	C378.232544,239.902115 378.203186,238.698776 377.887939,237.296860 
	C384.238586,239.418640 388.881104,237.398773 390.902771,231.771683 
	C391.665222,229.649460 391.803864,228.925766 394.755554,229.291260 
	C401.929291,230.179520 403.869263,228.082809 406.265137,220.642410 
	C406.643616,219.467148 408.785461,218.203949 410.173279,218.129929 
	C414.711945,217.887772 419.403748,215.318542 419.736786,211.158783 
	C420.047455,207.278427 422.490234,206.801376 425.023438,205.987808 
	C429.449738,204.566254 433.154205,199.990601 432.197388,195.379501 
	C431.866699,193.785858 431.809540,193.079132 434.383667,192.102386 
	C439.755859,190.064011 446.179047,187.546829 445.147400,179.355667 
	C445.037445,178.482452 446.425110,177.163544 447.408752,176.455017 
	C451.243103,173.693161 454.691284,171.051331 455.921600,165.824951 
	C456.748627,162.311813 459.603577,159.227890 461.746948,156.085403 
	C464.247894,152.418686 467.779236,149.368439 467.087219,144.156586 
	C466.759430,141.687943 466.602417,139.044800 468.962769,136.953445 
	C471.053986,135.100555 473.270874,133.042313 474.458679,130.601028 
	C476.109680,127.207710 478.673889,122.671211 477.597839,119.874153 
	C475.460968,114.319748 478.783020,111.186546 480.981995,107.799767 
	C485.989563,100.087341 489.975891,92.593887 484.420319,84.557198 
	C486.811157,80.383919 489.194458,76.958717 490.821899,73.205734 
	C493.094299,67.965309 492.039001,62.509323 491.265991,57.010735 
	C490.923035,54.571434 491.871552,51.329433 493.402710,49.360943 
	C498.579376,42.705750 504.263153,36.443497 509.794769,30.067234 
	C510.759674,28.955025 511.926453,28.017960 513.000000,27.000006 
z"/>
<path fill="#E51B24" opacity="1.000000" stroke="none" 
	d="
M513.000000,26.555843 
	C511.926453,28.017960 510.759674,28.955025 509.794769,30.067234 
	C504.263153,36.443497 498.579376,42.705750 493.402710,49.360943 
	C491.871552,51.329433 490.923035,54.571434 491.265991,57.010735 
	C492.039001,62.509323 493.094299,67.965309 490.821899,73.205734 
	C489.194458,76.958717 486.811157,80.383919 484.420319,84.557198 
	C489.975891,92.593887 485.989563,100.087341 480.981995,107.799767 
	C478.783020,111.186546 475.460968,114.319748 477.597839,119.874153 
	C478.673889,122.671211 476.109680,127.207710 474.458679,130.601028 
	C473.270874,133.042313 471.053986,135.100555 468.962769,136.953445 
	C466.602417,139.044800 466.759430,141.687943 467.087219,144.156586 
	C467.779236,149.368439 464.247894,152.418686 461.746948,156.085403 
	C459.603577,159.227890 456.748627,162.311813 455.921600,165.824951 
	C454.691284,171.051331 451.243103,173.693161 447.408752,176.455017 
	C446.425110,177.163544 445.037445,178.482452 445.147400,179.355667 
	C446.179047,187.546829 439.755859,190.064011 434.383667,192.102386 
	C431.809540,193.079132 431.866699,193.785858 432.197388,195.379501 
	C433.154205,199.990601 429.449738,204.566254 425.023438,205.987808 
	C422.490234,206.801376 420.047455,207.278427 419.736786,211.158783 
	C419.403748,215.318542 414.711945,217.887772 410.173279,218.129929 
	C408.785461,218.203949 406.643616,219.467148 406.265137,220.642410 
	C403.869263,228.082809 401.929291,230.179520 394.755554,229.291260 
	C391.803864,228.925766 391.665222,229.649460 390.902771,231.771683 
	C388.881104,237.398773 384.238586,239.418640 377.887939,237.296860 
	C378.203186,238.698776 378.232544,239.902115 378.727966,240.865814 
	C383.382690,249.919434 388.398895,258.798401 392.757660,267.990082 
	C398.302429,279.682770 403.877380,291.413605 408.445984,303.503357 
	C413.977112,318.140137 418.766937,333.079376 423.301819,348.062042 
	C426.093628,357.285797 427.807068,366.835785 430.009613,376.238159 
	C432.803864,388.166412 436.233856,399.990723 438.198395,412.053894 
	C439.738190,421.509186 439.831207,431.257172 439.890991,440.879303 
	C439.944061,449.417969 439.937653,458.129303 438.342865,466.455109 
	C436.892273,474.028381 434.131348,481.667389 430.370209,488.395355 
	C426.329224,495.624054 415.935913,498.756714 407.788971,491.480164 
	C399.316132,483.912537 393.879211,474.795715 389.584045,464.443542 
	C385.461945,454.508423 381.873077,444.526489 379.966095,433.940399 
	C379.514069,431.431244 378.733704,428.981201 378.091919,426.454956 
	C374.179504,436.754669 370.920319,447.158752 366.274353,456.901581 
	C363.351593,463.030762 359.641571,469.300385 351.761353,471.183899 
	C345.732178,472.624969 339.111908,468.920197 335.693329,463.792999 
	C330.519531,456.033295 328.991241,447.336853 326.997711,438.695282 
	C326.180054,435.150787 326.108795,431.392609 326.041077,427.725311 
	C325.903717,420.282928 326.000031,412.836243 326.000031,406.737091 
	C322.916779,409.149139 318.705750,411.454010 315.844604,414.884644 
	C309.597137,422.375763 301.471222,426.935394 292.920563,430.802277 
	C290.023682,432.112335 286.187439,432.398773 283.022003,431.823578 
	C277.789856,430.872955 275.297119,426.714447 276.122101,421.646576 
	C277.234009,414.815826 278.909729,408.037781 280.883423,401.397644 
	C282.778503,395.021942 285.362335,388.850952 287.643524,382.590027 
	C287.305145,382.323639 286.966736,382.057220 286.628357,381.790833 
	C282.144226,385.019989 277.632935,388.212250 273.182922,391.487885 
	C267.858154,395.407532 262.361725,398.945953 255.851883,400.640778 
	C250.402649,402.059509 247.033295,398.958374 248.218094,393.406677 
	C249.668686,386.609436 252.806961,380.702728 257.099854,375.195068 
	C260.796814,370.451996 263.488068,364.930725 267.126587,360.134857 
	C270.923096,355.130798 275.242706,350.511932 279.476654,345.854645 
	C284.037964,340.837189 288.841461,336.037567 293.313324,330.944519 
	C293.813171,330.375244 293.261139,328.090057 292.484039,327.320129 
	C287.342377,322.225922 281.988098,317.347015 276.742554,312.356476 
	C274.934753,310.636597 273.134308,308.888458 271.513336,306.996582 
	C266.935486,301.653503 262.455200,296.226990 257.931030,290.837830 
	C255.125854,287.496307 252.209671,284.241608 249.534866,280.799072 
	C247.663025,278.389954 246.062973,275.761993 244.433884,273.173645 
	C241.590378,268.655731 238.771667,264.120819 236.028152,259.541748 
	C232.985123,254.462753 229.956665,249.371735 227.068222,244.204147 
	C222.791885,236.553513 218.244858,229.016434 214.560104,221.084015 
	C211.200043,213.850525 208.782410,206.174072 206.043915,198.658417 
	C202.803619,189.765579 202.419144,180.325470 200.705551,171.142563 
	C198.836960,161.128937 194.813171,151.605606 188.099884,143.564102 
	C183.068512,137.537277 178.649124,130.813110 172.830978,125.674660 
	C164.740997,118.529770 154.899475,114.080666 144.147141,112.007317 
	C134.271378,110.102982 124.554749,111.386841 114.776291,113.025597 
	C108.416153,114.091484 101.912827,114.274292 95.493721,115.024467 
	C87.819839,115.921295 80.178833,117.102341 72.502296,117.972519 
	C65.376427,118.780273 58.208843,119.222191 51.084885,120.044083 
	C44.113956,120.848297 37.193001,122.097885 30.217192,122.844444 
	C21.926939,123.731689 13.606082,124.358391 5.286201,124.914047 
	C4.132798,124.991074 2.909057,124.014915 1.358938,123.763153 
	C1.000000,121.629440 1.000000,119.258888 1.275864,116.752594 
	C7.240456,114.855827 12.830360,112.598816 18.639355,111.441383 
	C29.336399,109.310020 40.177246,107.911118 50.928345,106.035988 
	C56.730400,105.024040 62.443546,103.503151 68.244812,102.485611 
	C79.100151,100.581596 90.006943,98.970161 100.859642,97.052116 
	C106.809174,96.000626 112.712967,93.433128 118.600624,93.541740 
	C132.295303,93.794350 141.451309,86.108551 150.021042,77.289276 
	C155.740601,71.403175 160.607773,64.697594 166.048279,58.527943 
	C168.897949,55.296352 171.739243,51.732822 175.333435,49.556183 
	C181.151352,46.032856 187.700195,43.742767 193.731354,40.538479 
	C200.867981,36.746876 208.812317,36.178829 216.309586,36.343178 
	C226.087021,36.557518 235.533203,39.192997 244.800629,43.578377 
	C256.538055,49.132572 266.055084,57.065201 272.251373,67.639854 
	C277.641876,76.839317 279.801727,87.943016 283.300812,98.235275 
	C285.345612,104.249908 286.688751,110.563072 289.295776,116.311951 
	C292.839417,124.126297 297.108490,131.634384 301.414429,139.072357 
	C304.310089,144.074265 307.367737,149.132309 311.243225,153.346481 
	C312.894775,155.142319 317.901062,156.353928 319.496216,155.207031 
	C323.447937,152.365814 326.492249,148.153687 329.574188,144.235214 
	C335.273254,136.989380 340.241364,129.104294 346.441467,122.334984 
	C352.597504,115.613739 359.841034,109.876640 366.707367,103.821045 
	C373.859039,97.513840 381.041840,91.235840 388.375427,85.142899 
	C394.686981,79.899063 401.158447,74.839745 407.689362,69.869896 
	C415.214020,64.143852 422.875336,58.597115 430.488495,52.987682 
	C443.403595,43.471680 456.890289,34.841896 471.143433,27.481777 
	C476.743835,24.589811 482.550690,21.998457 488.476410,19.860043 
	C496.470337,16.975250 504.839600,20.011311 513.000000,19.000000 
	C513.000000,21.370558 513.000000,23.741116 513.000000,26.555843 
M289.411407,380.117798 
	C288.637024,380.219299 287.862640,380.320801 287.088257,380.422272 
	C287.185394,380.786530 287.282562,381.150757 287.379700,381.515015 
	C288.039825,381.274567 288.699951,381.034149 289.411407,380.117798 
M288.749786,382.522278 
	C288.532806,382.502197 288.315857,382.482117 288.098877,382.462067 
	C288.197571,382.577881 288.296234,382.693695 288.749786,382.522278 
z"/>
<path fill="#000000" opacity="1.000000" stroke="none" 
	d="
M513.000000,18.530293 
	C504.839600,20.011311 496.470337,16.975250 488.476410,19.860043 
	C482.550690,21.998457 476.743835,24.589811 471.143433,27.481777 
	C456.890289,34.841896 443.403595,43.471680 430.488495,52.987682 
	C422.875336,58.597115 415.214020,64.143852 407.689362,69.869896 
	C401.158447,74.839745 394.686981,79.899063 388.375427,85.142899 
	C381.041840,91.235840 373.859039,97.513840 366.707367,103.821045 
	C359.841034,109.876640 352.597504,115.613739 346.441467,122.334984 
	C340.241364,129.104294 335.273254,136.989380 329.574188,144.235214 
	C326.492249,148.153687 323.447937,152.365814 319.496216,155.207031 
	C317.901062,156.353928 312.894775,155.142319 311.243225,153.346481 
	C307.367737,149.132309 304.310089,144.074265 301.414429,139.072357 
	C297.108490,131.634384 292.839417,124.126297 289.295776,116.311951 
	C286.688751,110.563072 285.345612,104.249908 283.300812,98.235275 
	C279.801727,87.943016 277.641876,76.839317 272.251373,67.639854 
	C266.055084,57.065201 256.538055,49.132572 244.800629,43.578377 
	C235.533203,39.192997 226.087021,36.557518 216.309586,36.343178 
	C208.812317,36.178829 200.867981,36.746876 193.731354,40.538479 
	C187.700195,43.742767 181.151352,46.032856 175.333435,49.556183 
	C171.739243,51.732822 168.897949,55.296352 166.048279,58.527943 
	C160.607773,64.697594 155.740601,71.403175 150.021042,77.289276 
	C141.451309,86.108551 132.295303,93.794350 118.600624,93.541740 
	C112.712967,93.433128 106.809174,96.000626 100.859642,97.052116 
	C90.006943,98.970161 79.100151,100.581596 68.244812,102.485611 
	C62.443546,103.503151 56.730400,105.024040 50.928345,106.035988 
	C40.177246,107.911118 29.336399,109.310020 18.639355,111.441383 
	C12.830360,112.598816 7.240456,114.855827 1.275864,116.308434 
	C1.000000,77.692787 1.000000,39.385578 1.000000,1.039184 
	C171.666672,1.039184 342.333344,1.039184 513.000000,1.039184 
	C513.000000,6.735117 513.000000,12.397850 513.000000,18.530293 
z"/>
<path fill="#000000" opacity="1.000000" stroke="none" 
	d="
M289.385742,380.455750 
	C288.699951,381.034149 288.039825,381.274567 287.379700,381.515015 
	C287.282562,381.150757 287.185394,380.786530 287.088257,380.422272 
	C287.862640,380.320801 288.637024,380.219299 289.385742,380.455750 
z"/>
<path fill="#000000" opacity="1.000000" stroke="none" 
	d="
M288.572327,382.665894 
	C288.296234,382.693695 288.197571,382.577881 288.098877,382.462036 
	C288.315857,382.482117 288.532806,382.502197 288.572327,382.665894 
z"/>
</svg>