<svg version="1.2" xmlns="http://www.w3.org/2000/svg" viewBox="0 0 1558 342" width="1558" height="342">
	<title>tenable-svg</title>
	<style>
		.s0 { fill: #000000 } 
	</style>
	<g id="Layer">
		<path id="Layer" fill-rule="evenodd" class="s0" d="m1550.3 91.8q3.5 1.9 5.4 5.2 2 3.3 2 7.2 0 3.9-2 7.2-2 3.3-5.4 5.2-3.4 1.9-7.6 1.9-4 0-7.4-1.9-3.4-1.9-5.3-5.2-2-3.2-2-7.2 0-3.9 2-7.2 1.9-3.3 5.3-5.2 3.4-2 7.4-2 4.2 0 7.6 2zm-1.5 22.5q2.7-1.5 4.1-4.1 1.6-2.7 1.5-6 0.1-3.3-1.5-5.9-1.4-2.7-4.1-4.2-2.7-1.5-6.1-1.5-3.2 0-5.9 1.5-2.6 1.5-4.1 4.2-1.5 2.6-1.5 5.9 0 3.3 1.5 6 1.5 2.6 4.1 4.1 2.7 1.4 5.9 1.4 3.4 0 6.1-1.4zm-0.7-10.6q-1.1 1.1-2.8 1.6l4.3 6.4h-3.9l-3.6-5.9h-1.4v5.9h-3.3v-15.4h4.6q7.1 0 7.1 4.7 0 1.6-1 2.7zm-5.6-0.4q3.2 0 3.2-2.3 0-1.2-0.8-1.7-0.8-0.6-2.5-0.6h-1.6v4.6z"/>
		<path id="Layer" fill-rule="evenodd" class="s0" d="m500.5 138.3q-1.4 1.4-3.5 1.4h-41.6q-2.1 0-2.1 2v94.7q0 15 6.8 21.6 6.7 6.7 21.4 6.7h12.3q2 0 3.5 1.4 1.4 1.4 1.4 3.3v29.5q0 4.3-4.9 5.1l-21.3 0.4q-32.3 0-48.2-10.6-15.9-10.6-16.3-40.1v-112q0-2-2.1-2h-23.3q-2 0-3.4-1.4-1.5-1.3-1.5-3.3v-27.5q0-2 1.5-3.4 1.4-1.3 3.4-1.3h23.3q2.1 0 2.1-2v-46q0-1.9 1.4-3.3 1.4-1.4 3.5-1.4h35.5q2.1 0 3.5 1.4 1.5 1.4 1.5 3.3v46q0 2 2 2h41.7q2 0 3.5 1.3 1.4 1.4 1.4 3.4v27.5q-0.1 2-1.5 3.3zm187.5 64.3l-0.4 12.2q0 4.7-4.9 4.7h-127.9q-2.1 0-2.1 2 1.2 13 3.7 17.7 9.8 28.3 47.8 28.7 27.8 0 44.2-22 1.6-2.4 4.1-2.4 1.6 0 2.8 1.2l25.3 20q3.7 2.8 1.3 6.3-12.7 17.3-33.7 26.7-21.1 9.5-46.8 9.5-31.9 0-54.2-13.8-22.3-13.7-32.5-38.5-9.4-21.2-9.4-59 0-22.8 4.9-36.9 8.2-27.5 30.9-43.4 22.7-16 54.5-16 80.5 0 90.8 81 1.6 9.8 1.6 22zm-117.5-56.4q-10 7.3-14.1 20.3-2.5 6.6-3.3 17.2-0.8 2 1.6 2h83q2.1 0 2.1-2-0.9-9.8-2.5-14.9-3.7-14.1-14.5-22-10.8-7.9-27.2-7.9-15.1 0-25.1 7.3zm288.5-27.7q19.8 18.9 19.8 51.5v128.9q0 2-1.4 3.3-1.5 1.4-3.5 1.4h-37.6q-2 0-3.5-1.4-1.4-1.3-1.4-3.3v-119.5q0-18.1-10.6-29.3-10.7-11.2-28.2-11.2-17.6 0-28.4 11-10.9 11-10.9 29.1v119.9q0 2-1.4 3.3-1.4 1.4-3.5 1.4h-37.6q-2 0-3.5-1.4-1.4-1.3-1.4-3.3v-191.4q0-2 1.4-3.3 1.5-1.4 3.5-1.4h37.6q2.1 0 3.5 1.4 1.4 1.3 1.4 3.3v12.6q0 1.2 0.8 1.5 0.9 0.4 1.3-0.7 16.7-21.3 50.6-21.3 33.2 0 53 18.9zm175.2-10.2q19.7 8.6 30.3 23.8 10.6 15.1 10.6 34.4v132.4q0 2-1.4 3.3-1.5 1.4-3.5 1.4h-37.6q-2 0-3.5-1.4-1.4-1.3-1.4-3.3v-12.6q0-1.1-0.8-1.3-0.9-0.2-1.7 0.5-20 21.3-58 21.3-30.7 0-50.5-15-19.8-14.9-19.8-44.4 0-30.6 22.3-47.7 22.2-17.1 62.7-17.1h43.7q2.1 0 2.1-2v-9.5q0-15.3-9.4-23.7-9.4-8.5-28.2-8.5-15.6 0-25.2 5.3-9.6 5.3-12 14.8-1.3 4.7-5.7 3.9l-39.7-4.7q-2-0.4-3.5-1.4-1.4-1-1-2.6 3.3-23.9 26.8-39.3 23.5-15.3 59-15.3 25.8 0 45.4 8.7zm-22.3 152.1q14.3-10.2 14.3-26v-18.4q0-2-2.1-2h-34.3q-21.7 0-34.1 7.9-12.5 7.8-12.5 22.4 0 12.6 9.6 19.4 9.6 6.9 24.7 6.9 20.1 0 34.4-10.2zm264.7-57.8q0 27.9-7.7 49.2-9 25.9-29.1 40.4-20 14.6-49 14.6-28.6 0-47-20.9-0.8-1.1-1.6-0.7-0.9 0.4-0.9 1.5v12.2q0 2-1.4 3.4-1.4 1.3-3.5 1.3h-37.6q-2 0-3.5-1.3-1.4-1.4-1.4-3.4v-265.7q0-2 1.4-3.3 1.5-1.4 3.5-1.4h37.6q2.1 0 3.5 1.4 1.4 1.4 1.4 3.3v85.3q0 1.2 0.9 1.6 0.8 0.4 1.6-0.4 17.6-20.1 46.6-20.1 30.2 0 50.1 14.6 19.8 14.5 29.2 40.5 6.9 22 6.9 47.9zm-48.6 0.8q0-30.7-12.3-48-11-16.5-32.7-16.5-20 0-30.6 17.3-10.3 16.1-10.2 46.8 0 30.3 9.3 45.6 10.7 18.9 31.9 18.9 11.4 0 20.5-5 8.9-4.9 14.3-13.9 9.8-16.5 9.8-45.2zm68.2 99.2q-1.4-1.4-1.4-3.4v-265.7q0-2 1.4-3.3 1.4-1.4 3.5-1.4h37.6q2 0 3.5 1.4 1.4 1.4 1.4 3.3v265.7q0 2-1.4 3.4-1.5 1.3-3.5 1.3h-37.6q-2.1 0-3.5-1.3zm247-100.3l-0.4 12.2q0 4.7-4.9 4.7h-127.9q-2.1 0-2.1 2 1.2 12.9 3.7 17.7 9.8 28.3 47.8 28.7 27.8 0 44.2-22.1 1.6-2.3 4-2.3 1.7 0 2.9 1.2l25.3 20q3.7 2.7 1.3 6.3-12.7 17.3-33.7 26.7-21.1 9.4-46.9 9.5-31.8-0.1-54.1-13.8-22.3-13.8-32.5-38.5-9.4-21.2-9.4-59 0-22.8 4.9-36.9 8.2-27.5 30.9-43.5 22.6-15.9 54.5-15.9 80.5 0 90.7 81 1.7 9.8 1.7 22zm-117.5-56.4q-10 7.3-14.1 20.2-2.5 6.7-3.3 17.3-0.8 2 1.6 2h83q2.1 0 2.1-2-0.9-9.8-2.5-14.9-3.7-14.2-14.5-22-10.8-7.9-27.2-7.9-15.1 0.1-25.1 7.3z"/>
		<path id="Layer" fill-rule="evenodd" class="s0" d="m347.1 219.3l-100 112.2c-5.7 6.4-13.9 9.9-22.4 9.9q-2.8 0.1-5.6-0.5l-147.5-28.8c-10.5-2-19.2-9.6-22.6-19.7l-47.3-140.4c-3.4-10.1-1.1-21.4 6-29.4l100.1-112.1c7-7.8 17.7-11.5 28-9.4l147.5 28.7c10.5 2.1 19.2 9.7 22.6 19.8l47.2 140.4c3.5 10.1 1.1 21.4-6 29.3zm-65.8-179.3l-25.4-4.9c2 1.7 3.7 3.6 5.1 5.9l66.1 104.2-31.1-92.3c-2.2-6.6-7.8-11.5-14.7-12.9zm-20.4 247.7l22.4-42.6q-0.2 0.1-0.4 0.2l-93.2 54 57.6-3c5.7-0.2 10.9-3.6 13.6-8.6zm-143.7 15.3l50-2.6q-0.7-0.3-1.3-0.7l-93.9-54.3q-1-0.6-1.9-1.3l32.5 51.3c3.1 5 8.7 7.8 14.6 7.6zm-23.2-248.7l-22.4 42.6q0.2-0.1 0.4-0.3l93.1-53.9-57.6 2.9c-5.7 0.3-10.9 3.6-13.5 8.7zm143.7-15.3l-50 2.6q0.6 0.3 1.3 0.7l93.9 54.3q1 0.6 1.9 1.3l-32.5-51.3c-3.2-5-8.8-7.9-14.6-7.6zm46.3 77.6c0-4.5-2.4-8.7-6.3-11l-93.9-54.3c-2-1.2-4.2-1.7-6.4-1.7-2.2 0-4.4 0.5-6.3 1.7l-93.9 54.3c-3.9 2.3-6.4 6.5-6.4 11v108.8c0 4.5 2.5 8.7 6.4 11l93.9 54.3c3.9 2.3 8.8 2.3 12.7 0l93.9-54.3c3.9-2.3 6.3-6.5 6.3-11zm-223.6 108.7v-107.4l-27.5 52.3c-2.7 5.2-2.4 11.4 0.7 16.3l27.3 43q-0.4-2-0.5-4.2zm234-108.7v107.4l27.5-52.3c2.7-5.2 2.5-11.4-0.6-16.3l-27.3-43q0.4 2 0.4 4.2zm-196.8-79.1c3-1.3 6.1-2.1 9.4-2.3l118.9-6-92.1-18q-1.8-0.3-3.7-0.3c-5.5 0-10.8 2.3-14.5 6.5zm-86.1 111.2l9.2 27.3c0.3-3.7 1.2-7.3 3-10.6l57.9-110-66.2 74.1c-4.6 5.2-6.1 12.6-3.9 19.2zm62 153.2l25.4 5c-2-1.7-3.7-3.7-5.2-6l-66-104.2 31.1 92.3c2.2 6.6 7.8 11.6 14.7 12.9zm183.7 2.6c-3 1.3-6.1 2-9.4 2.2l-118.9 6 92.1 18c6.7 1.3 13.7-1 18.2-6.1zm86.1-111.3l-9.2-27.2c-0.2 3.6-1.2 7.2-3 10.5l-57.9 110.1 66.2-74.2c4.6-5.2 6.1-12.5 3.9-19.2z"/>
	</g>
</svg>