<?xml version="1.0" encoding="utf-8"?>
<!-- Generator: Adobe Illustrator 16.0.0, SVG Export Plug-In . SVG Version: 6.00 Build 0)  -->
<!DOCTYPE svg PUBLIC "-//W3C//DTD SVG 1.1//EN" "http://www.w3.org/Graphics/SVG/1.1/DTD/svg11.dtd">
<svg version="1.1" id="Layer_1" xmlns="http://www.w3.org/2000/svg" xmlns:xlink="http://www.w3.org/1999/xlink" x="0px" y="0px"
	 width="1200px" height="1200px" viewBox="0 0 1200 1200" enable-background="new 0 0 1200 1200" xml:space="preserve">
<g>
	<path fill="#3D3D3D" d="M859.468,428.529h49.73v21.365h-49.73V428.529z M859.468,463.883h50.505v151.905h-50.505V463.883z
		 M826.447,428.529h-50.114v35.354H754.96v19.035h21.373v132.48h50.114v-132.48h17.867v-19.035h-17.867 M1065.375,512.832v-20.978
		c0-8.546-5.049-15.541-14.764-20.59c-11.263-6.217-27.581-9.324-48.559-9.324c-23.697,0-41.187,3.107-51.675,9.324
		c-12.043,7.379-17.867,20.203-17.867,38.073v62.161c0,17.87,5.824,30.301,17.867,37.684c10.488,6.217,27.978,9.324,51.675,9.324
		c20.978,0,37.296-3.107,48.559-8.935c10.104-5.439,14.764-12.434,14.764-20.98v-20.98h-45.454v20.98
		c0,2.719-1.94,5.052-5.051,7.381c-3.493,2.33-8.158,3.497-13.982,3.497c-12.434,0-19.038-3.497-19.038-10.491v-97.511
		c0-6.995,6.215-10.492,19.038-10.492c5.824,0,10.489,1.165,13.982,3.497c3.495,2.332,5.051,4.662,5.051,7.382v20.978H1065.375z
		 M380.833,589.756c0,4.274-6.215,6.604-18.259,6.604c-14.375,0-21.757-2.717-21.757-7.769V463.492h-51.283v125.876
		c0,18.261,16.317,27.582,49.341,27.582c4.273,0,10.101-0.388,17.482-0.388c7.383-0.387,12.044-0.387,14.374-0.387
		c3.886,0,7.771-0.777,10.879-1.942v35.351c0,2.723-1.942,5.052-5.829,7.382c-3.883,1.944-8.546,3.11-14.762,3.11
		c-5.829,0-10.879-1.166-14.764-3.498c-3.886-2.33-5.827-4.661-5.827-7.382v-20.978h-50.896v20.978
		c0,8.159,6.605,15.153,19.815,20.98c13.208,5.826,30.69,8.934,52.446,8.934c23.7,0,41.182-3.107,51.673-9.32
		c12.041-7.383,17.87-20.206,17.87-38.073V463.492h-50.507V589.756z M84.794,428.529H34.677v35.354H9.812v19.035h24.865v132.48
		h50.117v-132.48h24.865v-19.035H84.794 M243.303,464.27c-7.383-1.942-19.427-3.107-36.131-3.107
		c-12.821,0-22.923,1.552-29.914,4.272v-36.906h-47.787v186.87h48.563V482.14h27.196c7.771,0,11.266,3.498,11.266,10.102v123.157
		h45.843V484.86C262.729,474.759,256.123,467.767,243.303,464.27z M571.977,471.264c-11.266-6.217-27.582-9.324-48.562-9.324
		c-23.697,0-41.183,3.107-51.671,9.324c-12.044,7.379-17.871,20.203-17.871,38.073v62.161c0,17.87,5.827,30.301,17.871,37.684
		c10.489,6.217,27.974,9.324,51.671,9.324c20.98,0,37.296-3.107,48.562-8.935c10.102-5.439,14.764-12.434,14.764-20.98v-20.98
		h-45.065v20.98c0,2.719-1.945,5.052-5.051,7.381c-3.498,2.33-8.159,3.497-13.986,3.497c-12.431,0-19.038-3.497-19.038-10.491
		v-97.511c0-6.995,6.22-10.492,19.038-10.492c5.827,0,10.489,1.165,13.986,3.497c3.497,2.332,5.051,4.662,5.051,7.382v20.978h45.065
		v-20.978C586.74,483.308,581.688,476.313,571.977,471.264z"/>
	
		<linearGradient id="SVGID_1_" gradientUnits="userSpaceOnUse" x1="127.5415" y1="1219.9482" x2="127.5415" y2="1189.9794" gradientTransform="matrix(4.1159 0 0 -4.1159 402.1211 5669.4199)">
		<stop  offset="0.316" style="stop-color:#81BB27"/>
		<stop  offset="1" style="stop-color:#648D2E"/>
	</linearGradient>
	<path fill="url(#SVGID_1_)" d="M820.228,648.422h89.36l124.32,123.153H937.95"/>
	<path fill="#3D3D3D" d="M726.214,469.322c-11.27-6.217-27.582-9.325-48.565-9.325c-23.697,0-41.18,3.107-51.669,9.325
		c-12.044,7.381-17.868,20.2-17.868,38.073v62.158c0,17.873,5.824,30.304,17.868,37.685c10.489,6.217,27.972,9.324,51.669,9.324
		c20.983,0,37.296-3.107,48.565-8.934c10.098-5.442,14.763-12.434,14.763-20.98v-96.737
		C740.977,481.366,736.312,474.371,726.214,469.322z M695.912,569.166v17.483c0,2.72-1.555,5.05-5.055,7.382
		c-3.495,2.33-8.154,3.497-13.983,3.497c-12.434,0-19.038-3.497-19.038-10.491v-97.514c0-6.992,6.219-10.489,19.038-10.489
		c5.829,0,10.488,1.165,13.983,3.497c3.5,2.33,5.055,4.662,5.055,7.381V569.166L695.912,569.166z"/>
	<path fill="#81BB27" d="M1189.696,568.001h-92.465l24.093,24.087L937.95,771.575h95.958l131.316-135.975l24.472,24.085"/>
</g>
</svg>
