<?xml version="1.0" encoding="UTF-8"?>
<svg version="1.1" xmlns="http://www.w3.org/2000/svg" width="315" height="315">
<path d="M0 0 C103.95 0 207.9 0 315 0 C315 103.95 315 207.9 315 315 C211.05 315 107.1 315 0 315 C0 211.05 0 107.1 0 0 Z " fill="#FEFEFD" transform="translate(0,0)"/>
<path d="M0 0 C0.66 0 1.32 0 2 0 C2 24.42 2 48.84 2 74 C31.37 74 60.74 74 91 74 C91 140.99 91 207.98 91 277 C63.0015625 277.1546875 63.0015625 277.1546875 34.4375 277.3125 C25.6366272 277.38078003 25.6366272 277.38078003 16.65795898 277.45043945 C9.42590332 277.47302246 9.42590332 277.47302246 6.02723694 277.47721863 C3.68201436 277.48483555 1.33680986 277.5022928 -1.00828552 277.52787781 C-21.36464857 277.73862903 -38.07732029 276.37194145 -53.56640625 261.54296875 C-63.45116613 250.94168592 -70.03442026 239.13189451 -70.18754578 224.39852905 C-70.19545586 223.74864977 -70.20336594 223.0987705 -70.21151572 222.42919791 C-70.23650593 220.25929871 -70.25446333 218.08940322 -70.2722168 215.91943359 C-70.28831233 214.36020626 -70.30469224 212.80098184 -70.32133484 211.24176025 C-70.46583752 197.02000294 -70.54107263 182.79738867 -70.60025311 168.57504845 C-70.64481277 158.07142361 -70.72196035 147.56910513 -70.84183758 137.06606424 C-70.92339697 129.66969883 -70.96641511 122.2736904 -70.98155528 114.87689459 C-70.99169479 110.46439874 -71.01877312 106.05355147 -71.08786583 101.64155197 C-71.15222919 97.48600382 -71.16858103 93.33292422 -71.14937019 89.17694855 C-71.15051691 87.65919571 -71.16855384 86.14133808 -71.205513 84.62403488 C-71.39172456 76.55758221 -70.79201716 71.00361113 -65.17805481 64.75894165 C-63.48205436 63.14057417 -61.75770911 61.55112524 -60 60 C-58.91167893 58.86277024 -58.91167893 58.86277024 -57.80137157 57.70256615 C-56 56 -56 56 -54 56 C-53.773125 55.443125 -53.54625 54.88625 -53.3125 54.3125 C-51.62449964 51.33840412 -49.53323483 49.27991135 -47 47 C-46.34 47 -45.68 47 -45 47 C-45 46.34 -45 45.68 -45 45 C-44.34 45 -43.68 45 -43 45 C-42.99761165 45.88753149 -42.99522329 46.77506298 -42.99276257 47.68948936 C-42.93356961 69.30714587 -42.85799197 90.9246913 -42.76428509 112.54222679 C-42.71936186 122.99640264 -42.67993916 133.45054469 -42.65356445 143.90478516 C-42.63055627 153.01904786 -42.5971267 162.13320328 -42.55129844 171.24738085 C-42.5274043 176.07113959 -42.50865056 180.89479233 -42.50238609 185.71860886 C-42.49631801 190.26422046 -42.47625606 194.80956097 -42.44572449 199.35507202 C-42.43697183 201.01823669 -42.4332159 202.68143682 -42.43499184 204.34462357 C-42.44536641 218.55092005 -40.82620441 229.07436013 -31 240 C-20.40970364 249.37126944 -8.02710658 249.42631505 5.3828125 249.29296875 C7.05003475 249.28736317 8.71726198 249.28309762 10.38449097 249.28010559 C14.74106853 249.26873248 19.09733894 249.23933159 23.45379639 249.20599365 C27.91186368 249.17512893 32.36998132 249.16156544 36.828125 249.14648438 C45.5522232 249.11445348 54.27607323 249.0633501 63 249 C63.02685095 246.52076199 63.04676547 244.0418116 63.0625 241.5625 C63.07087891 240.85544922 63.07925781 240.14839844 63.08789062 239.41992188 C63.09653588 237.61306441 63.05220011 235.80612397 63 234 C61.12039307 232.12039307 57.89045733 232.85522889 55.38818359 232.84228516 C54.69702454 232.83720444 54.00586548 232.83212372 53.29376221 232.82688904 C51.78722795 232.81616159 50.28067752 232.80755079 48.77412033 232.80076981 C46.3860818 232.78900161 43.99822584 232.76955122 41.61026001 232.74765015 C34.81852344 232.68598639 28.02680175 232.63210099 21.23486328 232.59863281 C17.08383991 232.57762505 12.93314292 232.54226474 8.78230667 232.49787521 C7.20279422 232.48375376 5.62322395 232.47500151 4.04365158 232.47182083 C1.82481823 232.46688303 -0.39315864 232.44365041 -2.61181641 232.41650391 C-4.50258408 232.40437363 -4.50258408 232.40437363 -6.43154907 232.39199829 C-13.0768531 231.66200428 -17.60533651 229.1271074 -22 224 C-25.68055484 219.31653081 -25.40828887 215.04325491 -25.34057617 209.34448242 C-25.34123329 207.89498199 -25.34123329 207.89498199 -25.34190369 206.41619873 C-25.33981731 203.22908166 -25.31649294 200.04249368 -25.29296875 196.85546875 C-25.28737227 194.64301338 -25.28310242 192.43055429 -25.28010559 190.21809387 C-25.26866097 184.39997054 -25.23919683 178.58207251 -25.20599365 172.76403809 C-25.16988377 165.78064886 -25.15612982 158.79718423 -25.13863373 151.81372833 C-25.10955952 141.20899561 -25.05206918 130.60475707 -25 120 C4.37 119.67 33.74 119.34 64 119 C64 113.39 64 107.78 64 102 C34.63 102 5.26 102 -25 102 C-25.4021875 83.623125 -25.4021875 83.623125 -25.8125 64.875 C-25.99002808 59.11458252 -25.99002808 59.11458252 -26.17114258 53.23779297 C-26.2298584 48.47680664 -26.2298584 48.47680664 -26.24076843 46.23416138 C-26.26048123 44.69760906 -26.30568555 43.16123339 -26.3724823 41.62600708 C-26.72987663 32.9639103 -26.40243461 26.74184015 -20.50421429 20.01762581 C-18.28410708 17.7240889 -15.99476694 15.54390691 -13.60399437 13.42927933 C-11.30662912 11.38215452 -9.16616353 9.184173 -7 7 C-5.93217615 6.08573489 -4.85193589 5.18534922 -3.75 4.3125 C-0.98257806 2.2957678 -0.98257806 2.2957678 0 0 Z " fill="#FC5503" transform="translate(132,19)"/>
<path d="M0 0 C5.7535879 4.31519092 8.85643502 6.7365526 13 12 C15.41996229 14.5409604 17.79616746 16.84091119 20.5625 19 C26.62573569 23.97496262 26.62573569 23.97496262 27.43082619 28.33107758 C27.67184152 31.34741973 27.78132323 34.34488236 27.85083008 37.37011719 C27.8915715 38.52062561 27.93231293 39.67113403 27.97428894 40.85650635 C28.09914123 44.6697497 28.18964884 48.48243327 28.26953125 52.296875 C28.31083444 54.26215023 28.31083444 54.26215023 28.35297203 56.26712799 C28.46333927 61.78977926 28.55949613 67.31243536 28.62382984 72.83582687 C28.70817971 79.98306822 28.83984621 87.1216289 29.10571289 94.26464844 C31.00174401 146.20962443 31.00174401 146.20962443 19.72580624 159.39731216 C14.55730399 164.83553881 8.6533391 169.51198 2 173 C1.34 173 0.68 173 0 173 C0 115.91 0 58.82 0 0 Z " fill="#FC5503" transform="translate(241,108)"/>
<path d="M0 0 C1.73189575 -0.00945648 1.73189575 -0.00945648 3.4987793 -0.019104 C4.75086182 -0.01505554 6.00294434 -0.01100708 7.29296875 -0.00683594 C8.57276611 -0.00874939 9.85256348 -0.01066284 11.17114258 -0.01263428 C13.88139668 -0.01558475 16.59151902 -0.01129049 19.30175781 -0.00195312 C22.77896106 0.00944154 26.25585557 0.00288163 29.73304749 -0.00909805 C33.04471279 -0.01805519 36.35629466 -0.01178729 39.66796875 -0.00683594 C41.54609253 -0.01290863 41.54609253 -0.01290863 43.4621582 -0.019104 C44.61675537 -0.01279968 45.77135254 -0.00649536 46.9609375 0 C47.98082764 0.00159119 49.00071777 0.00318237 50.05151367 0.00482178 C52.48046875 0.25878906 52.48046875 0.25878906 54.48046875 2.25878906 C54.72097778 4.58731079 54.72097778 4.58731079 54.70751953 7.53466797 C54.70736847 8.63565826 54.70721741 9.73664856 54.70706177 10.8710022 C54.6967392 12.06373749 54.68641663 13.25647278 54.67578125 14.48535156 C54.67295135 15.70330414 54.67012146 16.92125671 54.66720581 18.17611694 C54.65598131 22.07877289 54.63087247 25.98120209 54.60546875 29.88378906 C54.59544189 32.52441076 54.58631553 35.16503603 54.578125 37.80566406 C54.55603456 44.29011686 54.52253467 50.77443677 54.48046875 57.25878906 C51.85611085 58.57096801 49.89980837 58.39306882 46.9609375 58.40405273 C45.80634033 58.41043259 44.65174316 58.41681244 43.4621582 58.42338562 C42.21007568 58.42449844 40.95799316 58.42561127 39.66796875 58.42675781 C38.38817139 58.43008621 37.10837402 58.43341461 35.78979492 58.43684387 C33.07958126 58.4428345 30.3693995 58.44468379 27.65917969 58.4440918 C24.18199913 58.44399006 20.70502224 58.4576543 17.22789001 58.47486401 C13.9162462 58.48863667 10.60464088 58.48807209 7.29296875 58.48925781 C6.04088623 58.49644333 4.78880371 58.50362885 3.4987793 58.5110321 C2.34418213 58.50795547 1.18958496 58.50487885 0 58.50170898 C-1.52983521 58.50384651 -1.52983521 58.50384651 -3.09057617 58.50602722 C-5.51953125 58.25878906 -5.51953125 58.25878906 -7.51953125 56.25878906 C-7.77349854 53.98168945 -7.77349854 53.98168945 -7.77832031 51.10644531 C-7.78462463 50.03193115 -7.79092896 48.95741699 -7.79742432 47.8503418 C-7.79337585 46.68575439 -7.78932739 45.52116699 -7.78515625 44.32128906 C-7.7870697 43.13027588 -7.78898315 41.9392627 -7.79095459 40.7121582 C-7.79231755 38.19026478 -7.78861341 35.66836437 -7.78027344 33.14648438 C-7.76957578 29.27490558 -7.78016531 25.40379084 -7.79296875 21.53222656 C-7.79164718 19.08691303 -7.78908483 16.64159979 -7.78515625 14.19628906 C-7.78920471 13.03170166 -7.79325317 11.86711426 -7.79742432 10.66723633 C-7.79112 9.59272217 -7.78481567 8.51820801 -7.77832031 7.41113281 C-7.77672913 6.46230225 -7.77513794 5.51347168 -7.77349854 4.53588867 C-7.22819768 -0.35334088 -4.14381672 0.006465 0 0 Z " fill="#FEFDFB" transform="translate(141.51953125,165.7412109375)"/>
<path d="M0 0 C29.37 0 58.74 0 89 0 C89 66.99 89 133.98 89 203 C70.14875 203.04125 51.2975 203.0825 31.875 203.125 C25.92581543 203.14320801 19.97663086 203.16141602 13.84716797 203.18017578 C6.57446289 203.18920898 6.57446289 203.18920898 3.16824341 203.19088745 C0.79266613 203.19395572 -1.58290807 203.20098385 -3.95846558 203.21115112 C-7.55976766 203.22579212 -11.16087964 203.22781192 -14.76220703 203.22705078 C-16.34586658 203.23784511 -16.34586658 203.23784511 -17.96151924 203.2488575 C-23.04306095 203.2344822 -27.24540616 203.03997456 -32 201 C-32 200.67 -32 200.34 -32 200 C-28.7 200 -25.4 200 -22 200 C-22 200.66 -22 201.32 -22 202 C14.3 202 50.6 202 88 202 C88 135.67 88 69.34 88 1 C58.96 1 29.92 1 0 1 C0 0.67 0 0.34 0 0 Z " fill="#E47C4A" transform="translate(134,93)"/>
<path d="M0 0 C8 6 8 6 9 9 C8.34 9 7.68 9 7 9 C7 8.34 7 7.68 7 7 C5.68 6.34 4.36 5.68 3 5 C2.97666617 25.95724913 2.95901844 46.91449613 2.94818783 67.8717556 C2.9430259 77.60200814 2.93598516 87.33225263 2.92456055 97.0625 C2.91461056 105.54083913 2.90814582 114.01917242 2.90591151 122.49751723 C2.90460494 126.9890176 2.90152245 131.48050127 2.89426994 135.97199631 C2.88750478 140.1957212 2.88538406 144.41942244 2.88689232 148.64315224 C2.88661622 150.1968187 2.88461402 151.75048592 2.88079453 153.30414772 C2.87584955 155.41856407 2.87700471 157.53289009 2.87974548 159.64730835 C2.87882369 160.83273413 2.8779019 162.0181599 2.87695217 163.23950768 C2.81063624 165.9603898 2.81063624 165.9603898 4 168 C4.66 168.33 5.32 168.66 6 169 C4.71034824 170.37562854 3.37310707 171.70766393 2 173 C1.34 173 0.68 173 0 173 C0 115.91 0 58.82 0 0 Z " fill="#F15B10" transform="translate(241,108)"/>
<path d="M0 0 C0.99 0.33 1.98 0.66 3 1 C2.34 1.66 1.68 2.32 1 3 C0.69992913 5.9452039 0.69992913 5.9452039 0.75949097 9.46658325 C0.75778212 10.13799469 0.75607327 10.80940613 0.75431263 11.50116336 C0.75100611 13.76146199 0.76204026 16.0214668 0.77294922 18.28173828 C0.77351308 19.89777621 0.77319726 21.51381466 0.77206421 23.12985229 C0.77148873 27.52633243 0.78327458 31.92270416 0.79721212 36.31915903 C0.80968698 40.91026674 0.81088741 45.50137674 0.81326294 50.09249878 C0.81948727 58.7906178 0.83591095 67.48868674 0.85596192 76.18678367 C0.87829131 86.08748109 0.88930689 95.98818086 0.89935279 105.88889718 C0.92027638 126.25929277 0.95547083 146.62964324 1 167 C-2.89760828 163.10239172 -2.12921481 156.68824293 -2.17840576 151.42808533 C-2.19253006 150.14818222 -2.20665436 148.86827911 -2.22120667 147.54959106 C-2.23189287 146.1488656 -2.24246337 144.74813924 -2.25292969 143.34741211 C-2.26743616 141.85859324 -2.28231313 140.36977795 -2.29753113 138.88096619 C-2.33725528 134.8522139 -2.37068546 130.82343451 -2.40211773 126.79460979 C-2.4218881 124.27567427 -2.44272663 121.75674969 -2.46387482 119.23782539 C-2.52974361 111.35056483 -2.59167715 103.46328763 -2.64805388 95.57595342 C-2.71310981 86.48110372 -2.79127727 77.3864908 -2.88073611 68.29184908 C-2.94918542 61.25224982 -3.00596207 54.21261636 -3.05390286 47.17284781 C-3.0827715 42.97185708 -3.11657576 38.77104501 -3.16255951 34.57020378 C-3.20546606 30.62135144 -3.23387308 26.67265664 -3.25121498 22.72361183 C-3.26005018 21.27639481 -3.27406466 19.82919851 -3.29369926 18.38208771 C-3.31974552 16.40317085 -3.32511994 14.42401438 -3.32952881 12.44493103 C-3.33836971 11.33865325 -3.34721062 10.23237547 -3.35631943 9.09257412 C-2.94593473 5.53075573 -1.76377461 3.09642234 0 0 Z " fill="#F7D3BB" transform="translate(62,87)"/>
<path d="M0 0 C0.24291992 2.04711914 0.24291992 2.04711914 0.23046875 4.53515625 C0.22853516 5.42654297 0.22660156 6.31792969 0.22460938 7.23632812 C0.21236328 8.16896484 0.20011719 9.10160156 0.1875 10.0625 C0.1865332 11.46725586 0.1865332 11.46725586 0.18554688 12.90039062 C0.14019224 19.85980776 0.14019224 19.85980776 -1 21 C-3.28969104 21.10498905 -5.58266882 21.13857559 -7.87475586 21.14526367 C-8.95280235 21.15030159 -8.95280235 21.15030159 -10.05262756 21.15544128 C-12.4400503 21.16497839 -14.82740312 21.16689577 -17.21484375 21.16796875 C-18.86772186 21.17117943 -20.52059968 21.17454335 -22.17347717 21.17805481 C-25.64292052 21.184053 -29.11233894 21.18589401 -32.58178711 21.18530273 C-37.03537167 21.18520108 -41.48879693 21.19885402 -45.94234371 21.21607494 C-49.35747517 21.22717397 -52.77256787 21.22922259 -56.18771553 21.22869301 C-57.83001823 21.22987627 -59.47232182 21.23431731 -61.11460686 21.24202538 C-63.40846907 21.25178313 -65.70198221 21.24896414 -67.99584961 21.24291992 C-69.95656654 21.24505745 -69.95656654 21.24505745 -71.95689392 21.24723816 C-75 21 -75 21 -77 19 C-52.25 18.67 -27.5 18.34 -2 18 C-2 13.05 -2 8.1 -2 3 C-3.8852373 1.1147627 -7.15117727 1.84527937 -9.65942383 1.82641602 C-10.35540176 1.819729 -11.0513797 1.81304199 -11.76844788 1.80615234 C-13.28480569 1.7920703 -14.8011851 1.78018638 -16.31757545 1.77020454 C-18.71738604 1.75383562 -21.11703731 1.73059848 -23.51676941 1.70530701 C-30.34158422 1.63442653 -37.16646533 1.57445211 -43.99145508 1.52319336 C-48.16185394 1.49138879 -52.33207235 1.45010515 -56.50232506 1.40299797 C-58.0926965 1.38698146 -59.68310957 1.37465826 -61.27353859 1.36609077 C-63.50000929 1.35392735 -65.72605671 1.32977237 -67.95239258 1.30297852 C-69.853153 1.28751732 -69.853153 1.28751732 -71.79231262 1.27174377 C-74.79060628 1.01773909 -76.48491338 0.5821877 -79 -1 C-68.99516289 -1.1768084 -58.99021095 -1.34277456 -48.98496437 -1.49477577 C-44.33947656 -1.56569415 -39.69411277 -1.64039202 -35.04882812 -1.72363281 C-30.56858227 -1.80377871 -26.08828131 -1.87412026 -21.60776901 -1.93757248 C-19.89563672 -1.96356069 -18.18355495 -1.99312332 -16.47154617 -2.02626419 C-14.07953463 -2.07196678 -11.68766132 -2.10512771 -9.29541016 -2.13525391 C-8.58259384 -2.1517952 -7.86977753 -2.16833649 -7.13536072 -2.18537903 C-2.22810432 -2.22810432 -2.22810432 -2.22810432 0 0 Z " fill="#E86221" transform="translate(197,250)"/>
<path d="M0 0 C29.37 0 58.74 0 89 0 C89 5.61 89 11.22 89 17 C85.79311929 18.60344035 82.30817153 18.12922745 78.78662109 18.11352539 C77.51334206 18.11374443 77.51334206 18.11374443 76.21434021 18.1139679 C73.40068023 18.11326966 70.58708596 18.1054814 67.7734375 18.09765625 C65.82573482 18.09579175 63.87803168 18.094368 61.93032837 18.09336853 C56.79779776 18.08954583 51.66529533 18.07971765 46.53277588 18.06866455 C41.29789613 18.05844512 36.06301184 18.05386977 30.828125 18.04882812 C20.55207093 18.03809517 10.27603781 18.0210217 0 18 C0 17.34 0 16.68 0 16 C43.065 15.505 43.065 15.505 87 15 C87.33 10.38 87.66 5.76 88 1 C58.96 1 29.92 1 0 1 C0 0.67 0 0.34 0 0 Z " fill="#FED9BA" transform="translate(107,121)"/>
<path d="M0 0 C0.66 0.33 1.32 0.66 2 1 C2 19.15 2 37.3 2 56 C-0.63715096 57.31857548 -2.5983264 57.11991704 -5.55126953 57.11352539 C-6.71232208 57.11344986 -7.87337463 57.11337433 -9.0696106 57.11329651 C-10.32796722 57.10813522 -11.58632385 57.10297394 -12.8828125 57.09765625 C-14.16735321 57.0962413 -15.45189392 57.09482635 -16.77536011 57.09336853 C-20.19156842 57.08954911 -23.60773426 57.07972373 -27.02392578 57.06866455 C-30.50943426 57.05843807 -33.9949496 57.05386826 -37.48046875 57.04882812 C-44.32032995 57.03810096 -51.16016294 57.02103142 -58 57 C-58.33 56.34 -58.66 55.68 -59 55 C-57.95763435 54.9845388 -57.95763435 54.9845388 -56.89421082 54.96876526 C-50.34637933 54.87080081 -43.79863672 54.76828783 -37.25095654 54.66066074 C-33.88470387 54.60548878 -30.51844243 54.55207803 -27.15209961 54.50268555 C-23.28230386 54.44503363 -19.41264856 54.38132432 -15.54296875 54.31640625 C-14.33352097 54.29969376 -13.12407318 54.28298126 -11.87797546 54.26576233 C-10.19657219 54.2358445 -10.19657219 54.2358445 -8.48120117 54.20532227 C-7.49302902 54.18977798 -6.50485687 54.1742337 -5.48674011 54.15821838 C-2.86800044 54.09786217 -2.86800044 54.09786217 0 53 C0 35.51 0 18.02 0 0 Z " fill="#F9D2B7" transform="translate(194,167)"/>
<path d="M0 0 C0.99 0.495 0.99 0.495 2 1 C2.02685095 3.47923801 2.04676547 5.9581884 2.0625 8.4375 C2.07087891 9.14455078 2.07925781 9.85160156 2.08789062 10.58007812 C2.09653588 12.38693559 2.05220011 14.19387603 2 16 C0.09345878 17.90654122 -3.31317481 17.14786309 -5.83959961 17.16113281 C-6.5552005 17.16609772 -7.27080139 17.17106262 -8.00808716 17.17617798 C-10.38951567 17.19084898 -12.77087735 17.19761355 -15.15234375 17.203125 C-16.80847679 17.20887716 -18.4646098 17.21463489 -20.1207428 17.22039795 C-23.60369172 17.23092519 -27.08661747 17.23675499 -30.56958008 17.24023438 C-35.01123647 17.24568996 -39.45258176 17.26964706 -43.8941412 17.29820633 C-47.32160802 17.3169365 -50.74900193 17.32204403 -54.17651558 17.32357025 C-55.81221764 17.32657943 -57.44791896 17.33454871 -59.08357048 17.34775543 C-80.16160518 17.50564346 -80.16160518 17.50564346 -85.75645447 12.39581299 C-86.16682449 11.9351947 -86.57719452 11.47457642 -87 11 C-85.68 11 -84.36 11 -83 11 C-83 11.66 -83 12.32 -83 13 C-81.2984375 12.9690625 -81.2984375 12.9690625 -79.5625 12.9375 C-76 13 -76 13 -75 14 C-72.65847159 14.12484154 -70.34492415 14.18599291 -68.00170898 14.20532227 C-67.27004517 14.21522186 -66.53838135 14.22512146 -65.7845459 14.23532104 C-63.35509528 14.26702383 -60.92562507 14.29172793 -58.49609375 14.31640625 C-56.81599913 14.33696822 -55.13590977 14.35796448 -53.45582581 14.37937927 C-49.02532197 14.43467826 -44.59477085 14.48405287 -40.16418457 14.53222656 C-35.64652275 14.5823846 -31.12892992 14.63810033 -26.61132812 14.69335938 C-17.7409443 14.8010366 -8.87050068 14.90246018 0 15 C-0.07726318 14.39164307 -0.15452637 13.78328613 -0.23413086 13.15649414 C-0.33089111 12.35332764 -0.42765137 11.55016113 -0.52734375 10.72265625 C-0.62523193 9.92867432 -0.72312012 9.13469238 -0.82397461 8.31665039 C-1.04429333 5.41706051 -0.65188082 2.82481689 0 0 Z " fill="#FED5BA" transform="translate(194,252)"/>
<path d="M0 0 C0.33 0.66 0.66 1.32 1 2 C0.35005979 2.69072759 -0.29988043 3.38145517 -0.9695158 4.0931139 C-3.39865728 7.57072658 -3.49652458 9.30886235 -3.48774719 13.51017761 C-3.49469101 14.82676865 -3.50163483 16.14335968 -3.50878906 17.49984741 C-3.49622862 18.95196866 -3.48327605 20.40408656 -3.4699707 21.85620117 C-3.47047966 23.39062142 -3.4727364 24.92504195 -3.47660828 26.4594574 C-3.48202434 30.62049519 -3.4626267 34.78108722 -3.43850732 38.94204497 C-3.41721056 43.29462663 -3.41780616 47.64720667 -3.41581726 51.99983215 C-3.40937156 59.30587437 -3.38812851 66.61174904 -3.35668945 73.91772461 C-3.31635428 83.30355246 -3.29899522 92.68927128 -3.28938007 102.07517529 C-3.2810872 110.13809006 -3.26384976 118.20098162 -3.24434257 126.2638762 C-3.23827178 128.85951725 -3.23313163 131.45515919 -3.2279911 134.05080223 C-3.2192229 138.12277291 -3.20492865 142.19468931 -3.1862812 146.26662636 C-3.18014834 147.7638502 -3.17570396 149.26108201 -3.17303848 150.75831604 C-3.16906982 152.79581618 -3.15831573 154.83329979 -3.14717102 156.87077332 C-3.14289754 158.01283328 -3.13862406 159.15489325 -3.13422108 160.33156109 C-3.1804233 162.97391717 -3.1804233 162.97391717 -2 165 C-1.86584528 167.6723621 -1.95681459 170.32250488 -2 173 C-5.71148027 169.28851973 -5.12999065 164.37433519 -5.15390015 159.36488342 C-5.1582824 158.71147632 -5.16266465 158.05806921 -5.1671797 157.38486189 C-5.18049609 155.20326749 -5.1867302 153.02171342 -5.19287109 150.84008789 C-5.20077737 149.27274903 -5.20904665 147.70541196 -5.21765137 146.13807678 C-5.24379874 140.99962079 -5.25916628 135.86115691 -5.2734375 130.72265625 C-5.27879915 128.95181206 -5.28417666 127.18096792 -5.28956985 125.41012383 C-5.31118302 118.04541892 -5.32992098 110.68071615 -5.34119225 103.31598759 C-5.35744397 92.76776295 -5.39066912 82.21990584 -5.44759309 71.67181975 C-5.4862798 64.25003047 -5.5058231 56.82833959 -5.51111281 49.40645212 C-5.51476645 44.97510134 -5.52678985 40.54414324 -5.55921555 36.11290169 C-5.58927605 31.94555601 -5.59561552 27.7788411 -5.58383179 23.61141014 C-5.58361092 22.08358535 -5.59192721 20.55573142 -5.60948563 19.02800751 C-5.75060799 6.04089211 -5.75060799 6.04089211 -2.46353149 2.04441833 C-1.6505661 1.36976028 -0.83760071 0.69510223 0 0 Z " fill="#E75F1C" transform="translate(67,84)"/>
<path d="M0 0 C2 2 2 2 2.23047829 4.86981392 C2.21665139 6.7253832 2.21665139 6.7253832 2.20254517 8.61843872 C2.20017046 9.30618437 2.19779576 9.99393001 2.1953491 10.70251644 C2.18489218 13.01814885 2.16000997 15.33340528 2.13525391 17.64892578 C2.12483288 19.30436694 2.11529671 20.95981387 2.10658264 22.61526489 C2.08035225 27.11923271 2.04168743 31.62301944 2.00085878 36.1268754 C1.96031516 40.83004939 1.93111156 45.53329314 1.90072632 50.23654175 C1.84142511 59.14720423 1.77186444 68.05775617 1.69865549 76.96831405 C1.61582179 87.11079783 1.5443679 97.25335167 1.47388959 107.39592767 C1.32862603 128.26405501 1.16900749 149.13205234 1 170 C1.99 170.33 2.98 170.66 4 171 C2.02 171.99 2.02 171.99 0 173 C0 115.91 0 58.82 0 0 Z " fill="#DA6930" transform="translate(241,108)"/>
<path d="M0 0 C1.32 0.33 2.64 0.66 4 1 C3.67 1.33 3.34 1.66 3 2 C2.87513046 4.37201547 2.81399948 6.71640343 2.79467773 9.09008789 C2.78477814 9.83150528 2.77487854 10.57292267 2.76467896 11.33680725 C2.73297534 13.79872393 2.70827174 16.26065993 2.68359375 18.72265625 C2.66303186 20.42517105 2.6420356 22.12768065 2.62062073 23.83018494 C2.56532101 28.31987309 2.51594672 32.80960792 2.46777344 37.29937744 C2.41761594 41.87736178 2.36189992 46.45527803 2.30664062 51.03320312 C2.19896249 60.0220773 2.09753912 69.0110105 2 78 C1.34 78 0.68 78 0 78 C0 52.26 0 26.52 0 0 Z " fill="#FED7BB" transform="translate(105,43)"/>
<path d="M0 0 C23.76 0 47.52 0 72 0 C72 0.99 72 1.98 72 3 C62.90752621 2.91572783 53.81524249 2.8208963 44.72302437 2.71247292 C40.50141835 2.66246508 36.27983791 2.61613567 32.05810547 2.578125 C27.98610461 2.54132855 23.91431542 2.49498446 19.84249496 2.44193649 C18.28675921 2.42336242 16.73097803 2.40826565 15.17517471 2.39665604 C13.0008386 2.37984468 10.82699047 2.3508234 8.65283203 2.31884766 C7.41373077 2.30552399 6.17462952 2.29220032 4.89797974 2.2784729 C2 2 2 2 0 0 Z " fill="#FFF0DC" transform="translate(122,251)"/>
<path d="M0 0 C3.3 0 6.6 0 10 0 C10 0.66 10 1.32 10 2 C44.32 2 78.64 2 114 2 C114 2.33 114 2.66 114 3 C100.02218961 3.04676209 86.04439139 3.08187641 72.06651878 3.10362434 C65.57605654 3.11406216 59.08564684 3.12822149 52.59521484 3.15087891 C46.33177804 3.17260711 40.06839178 3.18456864 33.8049202 3.18975449 C31.41511871 3.19345026 29.02531998 3.20066712 26.63554001 3.21146011 C23.28870409 3.22597452 19.94207716 3.22797793 16.59521484 3.22705078 C15.11275269 3.23783661 15.11275269 3.23783661 13.6003418 3.24884033 C8.65941721 3.23402619 4.6326141 2.95349303 0 1 C0 0.67 0 0.34 0 0 Z " fill="#EA6F34" transform="translate(102,293)"/>
<path d="M0 0 C0 24.42 0 48.84 0 74 C-0.33 74 -0.66 74 -1 74 C-1.33 51.23 -1.66 28.46 -2 5 C-4.64 7.31 -7.28 9.62 -10 12 C-10.66 11.67 -11.32 11.34 -12 11 C-10.89718873 9.72799029 -9.79269231 8.45744147 -8.6875 7.1875 C-8.07261719 6.47980469 -7.45773438 5.77210937 -6.82421875 5.04296875 C-2.32122371 0 -2.32122371 0 0 0 Z " fill="#E5682A" transform="translate(134,19)"/>
<path d="M0 0 C0 1.32 0 2.64 0 4 C-2.1875 6.140625 -2.1875 6.140625 -5 8.25 C-5.928125 8.95640625 -6.85625 9.6628125 -7.8125 10.390625 C-8.534375 10.92171875 -9.25625 11.4528125 -10 12 C-10.66 11.67 -11.32 11.34 -12 11 C-10.89718873 9.72799029 -9.79269231 8.45744147 -8.6875 7.1875 C-8.07261719 6.47980469 -7.45773438 5.77210937 -6.82421875 5.04296875 C-2.32122371 0 -2.32122371 0 0 0 Z " fill="#E57841" transform="translate(134,19)"/>
<path d="M0 0 C0.90492187 0.30744141 0.90492187 0.30744141 1.828125 0.62109375 C3.02695313 1.02521484 3.02695313 1.02521484 4.25 1.4375 C5.03890625 1.70433594 5.8278125 1.97117187 6.640625 2.24609375 C8.95462142 3.04070807 8.95462142 3.04070807 11.234375 3.41015625 C11.81703125 3.60480469 12.3996875 3.79945313 13 4 C13.33 4.99 13.66 5.98 14 7 C15.49985609 8.66710346 15.49985609 8.66710346 17 10 C10.26594038 8.6824666 5.31670278 5.26833885 0 1 C0 0.67 0 0.34 0 0 Z " fill="#EC6929" transform="translate(81,282)"/>
<path d="M0 0 C0.66 0.33 1.32 0.66 2 1 C2 5.95 2 10.9 2 16 C1.34 15.67 0.68 15.34 0 15 C-1.2194696 9.96306036 -1.16321305 5.0405899 0 0 Z " fill="#FCD9BF" transform="translate(194,252)"/>
<path d="M0 0 C1.33333333 1.33333333 2.66666667 2.66666667 4 4 C5.299375 5.2684375 5.299375 5.2684375 6.625 6.5625 C9 9 9 9 11 12 C9.02 12 7.04 12 5 12 C4.54625 10.865625 4.0925 9.73125 3.625 8.5625 C2.42904194 4.95278308 2.42904194 4.95278308 0 4 C0 2.68 0 1.36 0 0 Z " fill="#ED621D" transform="translate(94,251)"/>
<path d="M0 0 C0.33 0.66 0.66 1.32 1 2 C-0.92333011 6.06036357 -3.40069448 8.37347975 -7 11 C-7.66 10.67 -8.32 10.34 -9 10 C-8.34 9.01 -7.68 8.02 -7 7 C-6.34 7 -5.68 7 -5 7 C-4.731875 6.401875 -4.46375 5.80375 -4.1875 5.1875 C-3.01506533 3.02775192 -1.80630718 1.64209744 0 0 Z " fill="#EE7030" transform="translate(83,68)"/>
<path d="M0 0 C1.58420129 0.62279669 3.16732531 1.24833401 4.75 1.875 C6.07257813 2.39707031 6.07257813 2.39707031 7.421875 2.9296875 C9.6740248 3.8646709 11.83649459 4.87780794 14 6 C12.56260487 6.02712066 11.12506137 6.04645067 9.6875 6.0625 C8.48673828 6.07990234 8.48673828 6.07990234 7.26171875 6.09765625 C5 6 5 6 2 5 C2 4.01 2 3.02 2 2 C1.34 2 0.68 2 0 2 C0 1.34 0 0.68 0 0 Z " fill="#ED6020" transform="translate(106,263)"/>
<path d="M0 0 C0.66 0.33 1.32 0.66 2 1 C-0.05127045 4.9945793 -1.88912162 7.10267152 -6 9 C-6.66 8.67 -7.32 8.34 -8 8 C-5.36 5.36 -2.72 2.72 0 0 Z " fill="#F0783C" transform="translate(120,31)"/>
<path d="M0 0 C1.32 0 2.64 0 4 0 C4 0.66 4 1.32 4 2 C5.60875 1.9071875 5.60875 1.9071875 7.25 1.8125 C11.10866187 2.00543309 12.28817788 2.39665076 15 5 C9.33557626 4.63495936 4.99296295 3.9445679 0 1 C0 0.67 0 0.34 0 0 Z " fill="#FEDDC5" transform="translate(107,263)"/>
<path d="M0 0 C3 3 6 6 9 9 C8.01 9.33 7.02 9.66 6 10 C6 9.34 6 8.68 6 8 C5.01 7.67 4.02 7.34 3 7 C3 6.34 3 5.68 3 5 C2.01 5 1.02 5 0 5 C0 3.35 0 1.7 0 0 Z " fill="#FDE3CE" transform="translate(108,240)"/>
<path d="M0 0 C2.475 0.495 2.475 0.495 5 1 C5.33 1.99 5.66 2.98 6 4 C7.29355827 5.37195574 8.62298702 6.71182656 10 8 C9.67 8.66 9.34 9.32 9 10 C5.73991357 6.83047153 2.77762123 3.60062011 0 0 Z " fill="#FDDBBE" transform="translate(241,107)"/>
<path d="M0 0 C3.58050131 4.17255271 3.26656798 6.66864045 3 12 C0.50494038 9.50494038 0.64051624 8.32671112 0.375 4.875 C0.30023438 3.96492187 0.22546875 3.05484375 0.1484375 2.1171875 C0.09945312 1.41851562 0.05046875 0.71984375 0 0 Z " fill="#EB692B" transform="translate(62,245)"/>
<path d="M0 0 C0.99 0.495 0.99 0.495 2 1 C1.01 1.495 1.01 1.495 0 2 C0 1.34 0 0.68 0 0 Z M-5 3 C-3.68 3.33 -2.36 3.66 -1 4 C-2.65 5.32 -4.3 6.64 -6 8 C-6.66 7.67 -7.32 7.34 -8 7 C-7.01 5.68 -6.02 4.36 -5 3 Z " fill="#F06421" transform="translate(130,23)"/>
<path d="M0 0 C2.9375 0.75 2.9375 0.75 6 2 C6.875 4.125 6.875 4.125 7 6 C2.32307692 4.52307692 2.32307692 4.52307692 0.6875 1.875 C0.460625 1.25625 0.23375 0.6375 0 0 Z " fill="#EB6C2B" transform="translate(110,242)"/>
<path d="M0 0 C0.99 0.33 1.98 0.66 3 1 C2.2884375 1.5878125 2.2884375 1.5878125 1.5625 2.1875 C-0.35179633 4.40808374 -0.61266988 6.13375709 -1 9 C-1.66 8.67 -2.32 8.34 -3 8 C-1.125 1.125 -1.125 1.125 0 0 Z " fill="#FFE9D7" transform="translate(62,87)"/>
</svg>
