<?xml version="1.0" encoding="UTF-8"?>
<svg version="1.1" xmlns="http://www.w3.org/2000/svg" width="362" height="361">
<path d="M0 0 C0.66 0 1.32 0 2 0 C8.89443088 14.04718024 15.38513965 28.2467133 21.7069397 42.55776978 C26.78682846 54.05537543 31.94423246 65.51347519 37.1875 76.9375 C43.31796584 90.30091678 49.36882667 103.69695931 55.36863708 117.11968994 C59.10755471 125.48155564 62.86640635 133.83446485 66.625 142.1875 C66.99833466 143.01735413 67.37166931 143.84720825 67.75631714 144.70220947 C72.24983256 154.68922102 76.75337006 164.67164494 81.26953125 174.6484375 C81.70348206 175.60714249 82.13743286 176.56584747 82.58453369 177.55360413 C84.68679704 182.19734683 86.79015337 186.8405908 88.89501953 191.4831543 C89.65788545 193.16715139 90.42074391 194.85115187 91.18359375 196.53515625 C91.52654984 197.29069794 91.86950592 198.04623962 92.22285461 198.82467651 C92.70700081 199.89384811 92.70700081 199.89384811 93.20092773 200.98461914 C93.47750717 201.59455215 93.75408661 202.20448517 94.03904724 202.832901 C94.35616165 203.54804367 94.67327606 204.26318634 95 205 C95.52377228 206.09504349 96.04754456 207.19008698 96.58718872 208.3183136 C98.05545228 212.14450471 98.38525221 214.84760741 98.40405273 218.92236328 C98.41091599 219.57550003 98.41777924 220.22863678 98.42485046 220.90156555 C98.44301254 223.04137504 98.43929363 225.18044312 98.43359375 227.3203125 C98.43816345 228.82616408 98.44347136 230.33201358 98.44947815 231.83786011 C98.45839065 234.98997477 98.45601085 238.1418359 98.44604492 241.29394531 C98.43460812 245.29814162 98.45469376 249.30144902 98.48396206 253.30552864 C98.50247964 256.41660977 98.50200017 259.5274845 98.49632454 262.63860703 C98.49617294 264.11273309 98.5020809 265.58687464 98.51461601 267.06094742 C98.63978921 284.20445995 94.25148893 298.12444569 82.44921875 310.70703125 C72.32729912 320.18321438 58.95753578 324.17740051 45.33108521 324.12025452 C44.20246026 324.12153615 44.20246026 324.12153615 43.05103481 324.12284368 C40.54067183 324.12448515 38.03037631 324.11899901 35.52001953 324.11352539 C33.7162018 324.11324321 31.91238395 324.11340187 30.10856628 324.1139679 C25.21857159 324.11425465 20.32860145 324.10837763 15.43861246 324.10139394 C10.32568391 324.09514008 5.21275479 324.09455499 0.099823 324.09336853 C-9.57916647 324.09026121 -19.25814464 324.08205589 -28.93712914 324.07201904 C-39.9576133 324.06083931 -50.978098 324.05534276 -61.99858642 324.05032361 C-84.66573054 324.03987279 -107.33286464 324.02228494 -130 324 C-129.53524525 322.42004684 -129.0680123 320.84082255 -128.59976196 319.26190186 C-128.33984278 318.38239239 -128.07992359 317.50288292 -127.81212807 316.59672165 C-126.63440294 312.83102945 -125.170911 309.2151949 -123.6484375 305.578125 C-123.32155441 304.78530624 -122.99467133 303.99248749 -122.65788269 303.17564392 C-121.94447254 301.44614749 -121.22902201 299.71749158 -120.51174927 297.98959351 C-118.49282583 293.1239387 -116.49137184 288.25109557 -114.48828125 283.37890625 C-114.05400314 282.32347122 -113.61972504 281.26803619 -113.17228699 280.18061829 C-107.84084228 267.20726987 -102.60442111 254.19563872 -97.36643982 241.1843605 C-96.02042917 237.84108101 -94.67375383 234.49806927 -93.32714844 231.1550293 C-91.73009751 227.19012383 -90.133106 223.22519449 -88.53640747 219.26014709 C-83.74272634 207.35683769 -78.93628964 195.45870198 -74.125 183.5625 C-73.35685202 181.66300463 -72.58870423 179.76350919 -71.82055664 177.86401367 C-70.30658859 174.12039792 -68.79248582 170.37683668 -67.27832031 166.63330078 C-63.74884162 157.9068956 -60.22129586 149.17970896 -56.69354248 140.4526062 C-54.71243495 135.55170784 -52.73121182 130.6508562 -50.75 125.75 C-49.95833278 123.79166689 -49.16666611 121.83333356 -48.375 119.875 C-46.79166667 115.95833333 -45.20833333 112.04166667 -43.625 108.125 C-43.03727058 106.67114143 -43.03727058 106.67114143 -42.43766785 105.18791199 C-41.64544467 103.22820416 -40.85321851 101.26849754 -40.06098938 99.30879211 C-38.09031301 94.43399838 -36.11968725 89.5591842 -34.14916992 84.68432617 C-30.48573389 75.62151236 -26.82182174 66.55889198 -23.15615845 57.49697876 C-21.4510804 53.28175538 -19.74628255 49.0664187 -18.04150391 44.85107422 C-17.2397222 42.86875893 -16.43780784 40.88649729 -15.63574219 38.90429688 C-10.39335308 25.94829851 -5.18117468 12.9806036 0 0 Z " fill="#0F7E11" transform="translate(264,37)"/>
<path d="M0 0 C1.22050487 -0.00256327 1.22050487 -0.00256327 2.46566641 -0.00517833 C5.18338838 -0.00846418 7.90086169 0.00251551 10.61856079 0.01345825 C12.57015985 0.01402256 14.52175934 0.01370542 16.47335815 0.01257324 C21.76625973 0.0119995 27.05907062 0.02375736 32.35195112 0.03772116 C37.88528451 0.05022488 43.41861999 0.05139874 48.95196533 0.05377197 C59.42782869 0.05998778 69.90365029 0.0764 80.37949526 0.09647095 C92.30685024 0.11882678 104.23420722 0.12982259 116.16157794 0.13986182 C140.69495084 0.16076611 165.22828668 0.1959441 189.7616272 0.24050903 C189.29198207 1.66630482 188.82086355 3.09161534 188.34913635 4.51672363 C187.95584593 5.70738214 187.95584593 5.70738214 187.55461025 6.92209435 C186.46127465 10.11863846 185.19263726 13.22523482 183.89053345 16.34207153 C183.47978828 17.32818169 183.47978828 17.32818169 183.06074524 18.33421326 C182.15195873 20.51275872 181.23821027 22.68918114 180.3241272 24.86550903 C179.66419478 26.44302183 179.00436707 28.02057844 178.34463501 29.59817505 C172.10957901 44.48658741 165.78138523 59.33556348 159.4515686 74.18386841 C153.67552487 87.7338284 147.92460687 101.29410599 142.1991272 114.86550903 C141.80938721 115.78927338 141.41964722 116.71303772 141.01809692 117.66479492 C139.05183269 122.32560515 137.08605567 126.98662065 135.12051392 131.6477356 C131.1708125 141.0133697 127.21582736 150.3767737 123.2616272 159.74050903 C121.68084587 163.48397659 120.10011589 167.22746583 118.5194397 170.97097778 C118.12798264 171.89806046 117.73652557 172.82514313 117.33320618 173.78031921 C114.93717313 179.45519588 112.54215338 185.13049908 110.14788818 190.80612183 C108.14446126 195.55522212 106.14065539 200.30416244 104.1366272 205.05300903 C103.74352356 205.98453796 103.35041992 206.91606689 102.94540405 207.87582397 C98.72358433 217.8785064 94.49495496 227.87822449 90.2460022 237.86941528 C89.88089035 238.72797119 89.5157785 239.5865271 89.13960266 240.47109985 C87.35675973 244.66233332 85.57241504 248.8529213 83.7862854 253.04275513 C80.44913149 260.87663229 77.1371875 268.71953808 73.88272095 276.58816528 C73.2738553 278.05643574 72.66496912 279.52469768 72.05606079 280.99295044 C70.9276755 283.71483 69.80818237 286.44013542 68.6937561 289.16775513 C68.20181763 290.35578735 67.70987915 291.54381958 67.20303345 292.76785278 C66.77707886 293.80675659 66.35112427 294.8456604 65.91226196 295.91604614 C64.7616272 298.24050903 64.7616272 298.24050903 62.7616272 299.24050903 C56.68159203 286.74265897 50.99059992 274.08384815 45.36807251 261.37588501 C39.72983836 248.63472465 34.01752409 235.92892503 28.2616272 223.24050903 C22.04665135 209.53651069 15.88577559 195.81050053 9.79238892 182.05203247 C4.34366413 169.75340406 -1.18329368 157.49143249 -6.7383728 145.24050903 C-11.3860591 134.988901 -16.02937052 124.73563276 -20.6133728 114.45535278 C-20.96133911 113.67514267 -21.30930542 112.89493256 -21.66781616 112.09107971 C-23.35865837 108.29435549 -25.04054946 104.49399699 -26.7071228 100.68655396 C-29.56862899 94.1599922 -32.46902893 87.69363132 -35.6758728 81.32644653 C-43.91498227 64.68314064 -46.91231895 48.34434417 -41.1758728 30.24050903 C-38.68691807 24.51240758 -35.46985102 19.81013994 -31.2383728 15.24050903 C-30.69309937 14.61660278 -30.14782593 13.99269653 -29.58602905 13.34988403 C-21.55213058 4.65437039 -11.83996276 -0.09160985 0 0 Z " fill="#0F7E11" transform="translate(43.238372802734375,-0.240509033203125)"/>
<path d="M0 0 C2.75047486 3.53724518 4.67268555 7.23223738 6.5546875 11.28125 C6.89236649 11.99836151 7.23004547 12.71547302 7.57795715 13.45431519 C8.68144284 15.80080683 9.77830276 18.15032891 10.875 20.5 C11.64394905 22.13899328 12.41323958 23.77782639 13.18286133 25.41650391 C15.46228663 30.27438958 17.73278987 35.13640317 20 40 C20.31422913 40.67397827 20.62845825 41.34795654 20.95220947 42.0423584 C23.91970338 48.40955887 26.87663458 54.78161796 29.828125 61.15625 C33.18377622 68.40245077 36.55890633 75.63947733 39.9375 82.875 C40.22829437 83.49783875 40.51908875 84.12067749 40.81869507 84.76239014 C42.29026412 87.91426 43.76201535 91.06604474 45.23388672 94.21777344 C46.99117103 97.98083466 48.74766375 101.74426497 50.50390625 105.5078125 C50.79250015 106.12625031 51.08109406 106.74468811 51.37843323 107.38186646 C52.83415507 110.50144826 54.2897859 113.62107253 55.74536133 116.74072266 C58.68531015 123.04148636 61.62656994 129.34163277 64.5703125 135.640625 C67.47857856 141.86403822 70.38242875 148.08949781 73.28320312 154.31640625 C74.44705499 156.81451094 75.61258485 159.31182364 76.77929688 161.80859375 C78.48231542 165.45366741 80.17892693 169.10168938 81.875 172.75 C82.39336426 173.85762695 82.91172852 174.96525391 83.44580078 176.10644531 C83.9148584 177.11803711 84.38391602 178.12962891 84.8671875 179.171875 C85.28081543 180.0597168 85.69444336 180.94755859 86.12060547 181.86230469 C87 184 87 184 87 186 C81.20167259 186.04978091 75.40347216 186.08589861 69.60498047 186.10986328 C67.6362084 186.1198636 65.66745095 186.13346823 63.69873047 186.15087891 C60.85380419 186.1753917 58.00907585 186.18654306 55.1640625 186.1953125 C54.29697662 186.20563507 53.42989075 186.21595764 52.53652954 186.22659302 C36.17777146 186.2295345 24.02567248 180.70233704 12.25 169.5625 C1.83486105 158.69034572 -0.61772086 145.90738143 -0.45410156 131.23535156 C-0.45297039 129.79517651 -0.4536122 128.35499916 -0.45587158 126.91482544 C-0.45700915 123.04355123 -0.43365728 119.17278292 -0.40557575 115.30162525 C-0.38040042 111.24178005 -0.37820749 107.1819205 -0.37347412 103.12200928 C-0.36109137 95.45119976 -0.32833416 87.780621 -0.28807616 80.10991263 C-0.2432112 71.36980917 -0.22133456 62.6296941 -0.20129442 53.88950396 C-0.15959676 35.92620564 -0.0893372 17.96312144 0 0 Z " fill="#0F7E11" transform="translate(0,175)"/>
<path d="M0 0 C34.36499826 -1.45505995 34.36499826 -1.45505995 45 7 C45.93199219 7.71027344 46.86398437 8.42054687 47.82421875 9.15234375 C57.80797533 17.44542038 63.99640101 28.11989185 66 41 C66.14180522 44.27993619 66.12626392 47.55658564 66.11352539 50.83911133 C66.11367142 51.82495209 66.11381744 52.81079285 66.1139679 53.82650757 C66.11327237 57.07837134 66.10549681 60.33017751 66.09765625 63.58203125 C66.09579079 65.83932972 66.09436749 68.09662859 66.09336853 70.35392761 C66.08955343 76.29032512 66.07973172 82.22669811 66.06866455 88.16308594 C66.0584288 94.22265287 66.05386627 100.28222378 66.04882812 106.34179688 C66.03810857 118.22787535 66.02104421 130.11393563 66 142 C63.05729141 139.22929083 61.71199276 136.57210212 60.05859375 132.859375 C59.63944199 131.92712601 59.63944199 131.92712601 59.21182251 130.9760437 C58.60279812 129.61972688 57.99684452 128.26202801 57.39358521 126.90313721 C55.73191903 123.16100706 54.04733804 119.42916998 52.3671875 115.6953125 C52.0131636 114.90671844 51.65913971 114.11812439 51.29438782 113.30563354 C47.65276346 105.2020046 43.9294454 97.13679057 40.19668579 89.0748291 C38.29157384 84.95980779 36.38978701 80.84325119 34.48828125 76.7265625 C34.11287704 75.91384888 33.73747284 75.10113525 33.35069275 74.26379395 C24.47117906 55.0314652 15.68314877 35.75665655 6.94445801 16.45996094 C6.3189771 15.07916555 5.69292677 13.69862795 5.06628418 12.31835938 C4.20896989 10.42923217 3.35410551 8.53901716 2.5 6.6484375 C2.0153125 5.57770996 1.530625 4.50698242 1.03125 3.40380859 C0 1 0 1 0 0 Z " fill="#0F7D12" transform="translate(296,0)"/>
<path d="M0 0 C0.99 0.495 0.99 0.495 2 1 C-8.04582818 8.02344434 -18.43875138 11.17154482 -30.66891479 11.12025452 C-31.79753974 11.12153615 -31.79753974 11.12153615 -32.94896519 11.12284368 C-35.45932817 11.12448515 -37.96962369 11.11899901 -40.47998047 11.11352539 C-42.2837982 11.11324321 -44.08761605 11.11340187 -45.89143372 11.1139679 C-50.78142841 11.11425465 -55.67139855 11.10837763 -60.56138754 11.10139394 C-65.67431609 11.09514008 -70.78724521 11.09455499 -75.900177 11.09336853 C-85.57916647 11.09026121 -95.25814464 11.08205589 -104.93712914 11.07201904 C-115.9576133 11.06083931 -126.978098 11.05534276 -137.99858642 11.05032361 C-160.66573054 11.03987279 -183.33286464 11.02228494 -206 11 C-205.34 8.69 -204.68 6.38 -204 4 C-203.34 4.66 -202.68 5.32 -202 6 C-202.33 6.99 -202.66 7.98 -203 9 C-201.99018066 8.8261377 -200.98036133 8.65227539 -199.93994141 8.47314453 C-196.10354181 8.01243426 -192.80179295 8.09961801 -188.9609375 8.4296875 C-178.51823907 9.20636904 -168.09150125 9.1526102 -157.625 9.125 C-156.50622467 9.12278442 -155.38744934 9.12056885 -154.23477173 9.11828613 C-146.76994421 9.10163801 -139.30523915 9.0705002 -131.84048748 9.03445435 C-126.08111414 9.00743038 -120.3217445 8.98823424 -114.56233215 8.97165108 C-102.73778954 8.9374906 -90.91347878 8.88632754 -79.08911133 8.81288338 C-73.04053793 8.77560254 -66.9920931 8.74474027 -60.94342041 8.72955322 C-55.15269812 8.71449787 -49.36238922 8.68008801 -43.57185173 8.63181686 C-41.41070038 8.61702516 -39.24949106 8.60895393 -37.08828926 8.60808182 C-24.38022292 8.59803295 -14.15555512 8.21434921 -2.9375 1.6875 C-1.968125 1.130625 -0.99875 0.57375 0 0 Z " fill="#087010" transform="translate(340,350)"/>
<path d="M0 0 C0.99 0.495 0.99 0.495 2 1 C2.4021875 2.2375 2.4021875 2.2375 2.8125 3.5 C3.204375 4.325 3.59625 5.15 4 6 C6.5315205 6.69500023 6.5315205 6.69500023 9 7 C9.03867188 8.14275391 9.03867188 8.14275391 9.078125 9.30859375 C9.46482371 16.34826804 10.63054888 21.79394119 14 28 C14.99 26.68 15.98 25.36 17 24 C17.66 24.33 18.32 24.66 19 25 C17.68 27.64 16.36 30.28 15 33 C12.38796799 29.80670981 10.75248353 26.53768911 9.08203125 22.7734375 C8.55029297 21.5771875 8.01855469 20.3809375 7.47070312 19.1484375 C7.1987915 18.52936523 6.92687988 17.91029297 6.64672852 17.27246094 C5.81087943 15.37131399 4.96562241 13.47455797 4.11914062 11.578125 C0 2.26353594 0 2.26353594 0 0 Z " fill="#0C6D14" transform="translate(92,266)"/>
<path d="M0 0 C0.66 0 1.32 0 2 0 C3.01866229 1.65532623 4.01810813 3.32260138 5 5 C5.66 5.33 6.32 5.66 7 6 C7.66 5.01 8.32 4.02 9 3 C9 7.95 9 12.9 9 18 C5.59166285 16.29583143 4.8009139 12.37350361 3.375 9 C3.05015625 8.24976563 2.7253125 7.49953125 2.390625 6.7265625 C0 1.16183036 0 1.16183036 0 0 Z " fill="#157117" transform="translate(352,122)"/>
<path d="M0 0 C0.66 0.33 1.32 0.66 2 1 C2 3.31 2 5.62 2 8 C2.66 8 3.32 8 4 8 C4.38091797 8.90492188 4.38091797 8.90492188 4.76953125 9.828125 C7.29568376 15.75675636 7.29568376 15.75675636 11 21 C10.67 21.66 10.34 22.32 10 23 C5.07654075 17.27440413 0.75621903 11.47684424 -1 4 C-0.59375 1.70703125 -0.59375 1.70703125 0 0 Z " fill="#0F6B15" transform="translate(2,321)"/>
<path d="M0 0 C1.41687119 4.25061356 0.19320039 6.71851625 -1 11 C-1.66 11 -2.32 11 -3 11 C-3.12117187 11.58007812 -3.24234375 12.16015625 -3.3671875 12.7578125 C-4.33735474 17.28028442 -5.43397783 21.63750966 -7 26 C-7.99 25.34 -8.98 24.68 -10 24 C-6.7 16.08 -3.4 8.16 0 0 Z " fill="#0C6C11" transform="translate(149,322)"/>
<path d="M0 0 C3.30616284 3.80208727 7 9.83581485 7 15 C5.35 15.66 3.7 16.32 2 17 C1 14 1 14 1.625 11.125 C2.08499211 7.29173238 1.04376823 6.15080935 -1 3 C-0.67 2.01 -0.34 1.02 0 0 Z " fill="#137519" transform="translate(306,127)"/>
<path d="M0 0 C2.31 1.65 4.62 3.3 7 5 C6.67 5.99 6.34 6.98 6 8 C5.01 8.33 4.02 8.66 3 9 C0.11749016 6.61879622 -0.61038985 4.70129644 -1 1 C-0.67 0.67 -0.34 0.34 0 0 Z " fill="#0D7E0B" transform="translate(339,6)"/>
<path d="M0 0 C0.66 0 1.32 0 2 0 C3.125 3.75 3.125 3.75 2 6 C2.66 6.33 3.32 6.66 4 7 C4 7.66 4 8.32 4 9 C3.236875 8.938125 2.47375 8.87625 1.6875 8.8125 C-1.48780806 9.03403312 -1.95735659 9.71775032 -4 12 C-2.66666667 8 -1.33333333 4 0 0 Z " fill="#156F17" transform="translate(264,37)"/>
<path d="M0 0 C0.66 0.33 1.32 0.66 2 1 C-3.92941176 8.24705882 -3.92941176 8.24705882 -7 11 C-7.66 11 -8.32 11 -9 11 C-9.66 12.65 -10.32 14.3 -11 16 C-11.99 16 -12.98 16 -14 16 C-9.69856377 10.23424506 -5.2302516 4.94409802 0 0 Z " fill="#0D6B13" transform="translate(19,8)"/>
<path d="M0 0 C3.30616284 3.80208727 7 9.83581485 7 15 C6.34 15 5.68 15 5 15 C4.67 13.35 4.34 11.7 4 10 C3.34 10 2.68 10 2 10 C0.39644899 6.49223216 -0.22036864 3.85645121 0 0 Z " fill="#117217" transform="translate(328,176)"/>
<path d="M0 0 C0.66 0 1.32 0 2 0 C2.84026396 1.76755526 3.67198722 3.53917263 4.5 5.3125 C4.9640625 6.29863281 5.428125 7.28476563 5.90625 8.30078125 C7 11 7 11 7 14 C6.34 14 5.68 14 5 14 C4.67 12.02 4.34 10.04 4 8 C3.01 7.67 2.02 7.34 1 7 C0.67 4.69 0.34 2.38 0 0 Z " fill="#16731A" transform="translate(283,78)"/>
<path d="M0 0 C0.598125 0.309375 1.19625 0.61875 1.8125 0.9375 C4.08956772 2.10209704 4.08956772 2.10209704 7 3 C7 3.66 7 4.32 7 5 C7.66 5 8.32 5 9 5 C10.7143618 6.95927063 12.38405168 8.95880212 14 11 C9.96407129 9.63079505 7.32473622 7.80419512 4.1875 4.9375 C3.39730469 4.22464844 2.60710938 3.51179688 1.79296875 2.77734375 C1.20128906 2.19082031 0.60960937 1.60429687 0 1 C0 0.67 0 0.34 0 0 Z " fill="#146D19" transform="translate(13,344)"/>
<path d="M0 0 C0.66 0.33 1.32 0.66 2 1 C2.625 4.0625 2.625 4.0625 3 7 C2.401875 7.268125 1.80375 7.53625 1.1875 7.8125 C-0.98316883 8.99086308 -2.30817212 10.23060981 -4 12 C-2.66666667 8 -1.33333333 4 0 0 Z " fill="#0A7312" transform="translate(251,69)"/>
<path d="M0 0 C0.66 0.66 1.32 1.32 2 2 C1.67 2.99 1.34 3.98 1 5 C3.97 5.33 6.94 5.66 10 6 C10 6.33 10 6.66 10 7 C6.04 7 2.08 7 -2 7 C-1.34 4.69 -0.68 2.38 0 0 Z " fill="#07680E" transform="translate(136,354)"/>
<path d="M0 0 C3.42931954 3.7559214 4.56429083 8.23466745 6 13 C5.01 13 4.02 13 3 13 C2.49487756 11.39743892 1.99608373 9.79288208 1.5 8.1875 C1.2215625 7.29417969 0.943125 6.40085938 0.65625 5.48046875 C0 3 0 3 0 0 Z " fill="#0E7316" transform="translate(346,216)"/>
<path d="M0 0 C0.66 0 1.32 0 2 0 C2 0.99 2 1.98 2 3 C2.66 3 3.32 3 4 3 C4.66 6.3 5.32 9.6 6 13 C3.51205122 9.68273496 2.47178058 8.00386091 1.3125 4.25 C1.06113281 3.45078125 0.80976562 2.6515625 0.55078125 1.828125 C0.36902344 1.22484375 0.18726563 0.6215625 0 0 Z " fill="#0F7216" transform="translate(33,135)"/>
<path d="M0 0 C0.33 0 0.66 0 1 0 C1 1.98 1 3.96 1 6 C0.34 6 -0.32 6 -1 6 C-1.12375 6.78375 -1.2475 7.5675 -1.375 8.375 C-2 11 -2 11 -4 13 C-3.40895235 8.15340923 -2.02055843 4.39251833 0 0 Z " fill="#0F6914" transform="translate(221,144)"/>
<path d="M0 0 C2.64465038 3.1254959 3.84414715 6.08788267 5 10 C3.68 9.67 2.36 9.34 1 9 C0.67 6.03 0.34 3.06 0 0 Z " fill="#116E18" transform="translate(82,351)"/>
<path d="M0 0 C0.66 0.99 1.32 1.98 2 3 C0.625 6.6875 0.625 6.6875 -1 10 C-1.33 10 -1.66 10 -2 10 C-2.1953125 3.9453125 -2.1953125 3.9453125 -2 2 C-1.34 1.34 -0.68 0.68 0 0 Z " fill="#15731C" transform="translate(125,250)"/>
<path d="M0 0 C0.99 1.32 1.98 2.64 3 4 C0.03 6.475 0.03 6.475 -3 9 C-2.44271087 5.65626525 -1.64826111 2.96687001 0 0 Z " fill="#0B740C" transform="translate(185,234)"/>
<path d="M0 0 C0.66 0 1.32 0 2 0 C2.67154933 1.28913487 3.33708859 2.58140204 4 3.875 C4.37125 4.59429687 4.7425 5.31359375 5.125 6.0546875 C6 8 6 8 6 10 C5.01 9.67 4.02 9.34 3 9 C2.05078125 6.93359375 2.05078125 6.93359375 1.3125 4.4375 C1.06113281 3.61121094 0.80976562 2.78492188 0.55078125 1.93359375 C0.36902344 1.29550781 0.18726563 0.65742188 0 0 Z " fill="#1B701E" transform="translate(62,310)"/>
<path d="M0 0 C2.21399303 3.79541663 3.00980198 7.75629421 4 12 C0.55606935 9.33878086 -0.09770622 6.13551317 -1 2 C-0.67 1.34 -0.34 0.68 0 0 Z " fill="#0C6F10" transform="translate(58,186)"/>
<path d="M0 0 C2.31 1.65 4.62 3.3 7 5 C6.01 5.33 5.02 5.66 4 6 C3.01 5.01 2.02 4.02 1 3 C0.01 3.495 0.01 3.495 -1 4 C-0.67 2.68 -0.34 1.36 0 0 Z " fill="#0A690C" transform="translate(339,6)"/>
<path d="M0 0 C0.99 0.33 1.98 0.66 3 1 C3 2.66666667 3 4.33333333 3 6 C1.68 5.67 0.36 5.34 -1 5 C-0.67 3.35 -0.34 1.7 0 0 Z " fill="#167C19" transform="translate(44,272)"/>
<path d="M0 0 C1.65 1.32 3.3 2.64 5 4 C3.35 4.66 1.7 5.32 0 6 C-0.38218767 4.34385343 -0.71395102 2.67542976 -1 1 C-0.67 0.67 -0.34 0.34 0 0 Z " fill="#0D710F" transform="translate(19,100)"/>
<path d="M0 0 C0.99 0.33 1.98 0.66 3 1 C3.73046875 3.06640625 3.73046875 3.06640625 4.1875 5.5625 C4.34605469 6.38878906 4.50460937 7.21507812 4.66796875 8.06640625 C4.77753906 8.70449219 4.88710938 9.34257813 5 10 C2.35534962 6.8745041 1.15585285 3.91211733 0 0 Z " fill="#1A711D" transform="translate(319,50)"/>
</svg>
