<?xml version="1.0" ?>
<!-- Uploaded to: SVG Repo, www.svgrepo.com, Generator: SVG Repo Mixer Tools -->
<svg width="800px" height="800px" viewBox="0 0 64 64" xmlns="http://www.w3.org/2000/svg">
<g data-name="15_Knowleade" id="_15_Knowleade">
<rect height="14" style="fill:#0455bf" width="2" x="57" y="9"/>
<rect height="14" style="fill:#004787" width="1" x="57" y="9"/>
<path d="M61,37H55a1,1,0,0,1-1-1V24a1,1,0,0,1,1-1h6a1,1,0,0,1,1,1V36A1,1,0,0,1,61,37Z" style="fill:#f74e0c"/>
<path d="M62,35a6,6,0,0,1-6-6V23H55a1,1,0,0,0-1,1V36a1,1,0,0,0,1,1h6a1,1,0,0,0,1-1V35Z" style="fill:#cc2600"/>
<path d="M51,28H17a1,1,0,0,1-1-1V9a1,1,0,0,1,1-1H51a1,1,0,0,1,1,1V27A1,1,0,0,1,51,28Z" style="fill:#0455bf"/>
<path d="M36,26A18,18,0,0,1,18,8H17a1,1,0,0,0-1,1V27a1,1,0,0,0,1,1H51a1,1,0,0,0,1-1V26Z" style="fill:#004787"/>
<path d="M60,10H8A1,1,0,0,1,7,9V5A1,1,0,0,1,8,4H60a1,1,0,0,1,1,1V9A1,1,0,0,1,60,10Z" style="fill:#0455bf"/>
<path d="M10,8A1,1,0,0,1,9,7V4H8A1,1,0,0,0,7,5V9a1,1,0,0,0,1,1H60a1,1,0,0,0,1-1V8Z" style="fill:#004787"/>
<path d="M58,56H12a6.013,6.013,0,0,1-5.976-6.6,6.185,6.185,0,0,1,6.2-5.4H58a1,1,0,0,1,1,1V55A1,1,0,0,1,58,56Z" style="fill:#fdfeff"/>
<path d="M42.88,38H6a1,1,0,0,1-1-1V31a1,1,0,0,1,1-1H43a4,4,0,0,1,3.923,4.788A4.058,4.058,0,0,1,42.88,38Z" style="fill:#fdfeff"/>
<path d="M59,60H12.32a10.2,10.2,0,0,1-10.3-9.313A9.927,9.927,0,0,1,4.7,43.173,10.035,10.035,0,0,1,12,40H59a3,3,0,0,1,3,3,3.017,3.017,0,0,1-3,3H12.22a4.166,4.166,0,0,0-4.2,3.6,3.969,3.969,0,0,0,1.02,3.083A4.015,4.015,0,0,0,12,54H59a3,3,0,0,1,3,3,3.017,3.017,0,0,1-3,3Z" style="fill:#febc00"/>
<path d="M61,58H14.32a10.2,10.2,0,0,1-10.3-9.313,9.91,9.91,0,0,1,1.96-6.651,9.87,9.87,0,0,0-3.96,8.651A10.2,10.2,0,0,0,12.32,60H59a2.987,2.987,0,0,0,2.86-2.139A3,3,0,0,1,61,58Z" style="fill:#edaa03"/>
<path d="M42.76,42H6a3,3,0,0,1-3-3,3.017,3.017,0,0,1,3-3H42.88a2.082,2.082,0,0,0,2.078-1.587A2,2,0,0,0,43,32H6a3,3,0,0,1-3-3,3.017,3.017,0,0,1,3-3H43a8.008,8.008,0,0,1,7.933,9.046h0A8.139,8.139,0,0,1,42.76,42Z" style="fill:#f74e0c"/>
<path d="M49.009,28.723a7.979,7.979,0,0,0-1.436-1.273,8.033,8.033,0,0,1,1.36,5.6A8.139,8.139,0,0,1,40.76,40H4a2.943,2.943,0,0,1-.859-.141A2.993,2.993,0,0,0,6,42H42.76a8.139,8.139,0,0,0,8.173-6.954A8.024,8.024,0,0,0,49.009,28.723Z" style="fill:#cc2600"/>
<rect height="2" style="fill:#dfeaef" width="11" x="31" y="33"/>
<rect height="2" style="fill:#dfeaef" width="20" x="39" y="49"/>
<rect height="2" style="fill:#dfeaef" width="2" x="35" y="49"/>
<rect height="2" style="fill:#dfeaef" width="2" x="27" y="33"/>
</g>
</svg>