<?xml version="1.0" encoding="UTF-8"?>
<svg version="1.1" xmlns="http://www.w3.org/2000/svg" width="600" height="600">
<path d="M0 0 C1.02924591 0.00060425 2.05849182 0.0012085 3.118927 0.00183105 C19.86547557 0.02839874 36.45400469 0.46662306 53.125 2.1875 C54.39762695 2.31640625 55.67025391 2.4453125 56.98144531 2.578125 C75.96599115 4.54375228 94.56776415 7.64819488 113.125 12.1875 C114.07407227 12.41663086 115.02314453 12.64576172 116.00097656 12.88183594 C135.59212962 17.71820443 154.78176908 25.18812782 171.125 37.1875 C172.0015625 37.82429688 172.878125 38.46109375 173.78125 39.1171875 C216.0374331 71.82754611 230.42599605 117.93030042 237.125 169.1875 C239.93707555 192.78983836 241.33841321 216.18132276 241.3125 239.9375 C241.31189575 240.96796448 241.3112915 241.99842896 241.31066895 243.06011963 C241.28354205 260.18281298 240.82882341 277.13783082 239.125 294.1875 C239.02671906 295.17178986 239.02671906 295.17178986 238.92645264 296.17596436 C233.25068722 352.38617589 220.96229574 404.23944137 175.96630859 441.99902344 C142.46044146 468.35924328 95.37793321 474.83791009 54.25 478.875 C53.04029541 478.99439941 51.83059082 479.11379883 50.58422852 479.23681641 C33.35162776 480.83463286 16.11372855 481.39670139 -1.1875 481.375 C-2.09264343 481.37439575 -2.99778687 481.3737915 -3.93035889 481.37316895 C-68.89481385 481.25662548 -142.6243367 475.45456951 -190.875 427.1875 C-193.36101769 424.62219094 -195.64726904 421.97856523 -197.875 419.1875 C-198.65230469 418.24777344 -199.42960937 417.30804688 -200.23046875 416.33984375 C-237.48962838 370.48022406 -240.1240076 297.89550452 -240.0625 241.3125 C-240.06189575 240.2791452 -240.0612915 239.24579041 -240.06066895 238.18112183 C-240.03470013 221.76519125 -239.61033669 205.52465755 -237.875 189.1875 C-237.74609375 187.93050293 -237.6171875 186.67350586 -237.484375 185.37841797 C-235.50518241 166.37986151 -232.43090989 147.7582565 -227.875 129.1875 C-227.64055176 128.22779297 -227.40610352 127.26808594 -227.16455078 126.27929688 C-217.52761213 87.78594984 -194.27527183 50.50117524 -159.875 29.1875 C-125.69457318 9.39932403 -80.7759921 3.70554278 -41.875 1.1875 C-40.93349091 1.12554947 -40.93349091 1.12554947 -39.97296143 1.06234741 C-26.64731537 0.20811965 -13.3507169 -0.01460085 0 0 Z M-56.875 46.9375 C-57.55300659 47.02397797 -58.23101318 47.11045593 -58.92956543 47.19955444 C-88.1171284 50.96397548 -116.49806972 59.23269423 -140.875 76.1875 C-141.92300781 76.89132813 -142.97101563 77.59515625 -144.05078125 78.3203125 C-156.31190091 86.88682044 -164.36175054 98.84997512 -170.875 112.1875 C-171.43703125 113.30253906 -171.9990625 114.41757813 -172.578125 115.56640625 C-203.40050341 177.9855101 -202.77569631 278.03836428 -181.64501953 343.94140625 C-170.98598162 375.03308311 -153.97017513 400.69114579 -124.01806641 415.88037109 C-88.24974944 433.06385126 -48.01543197 436.49391955 -8.875 437.1875 C-7.50021484 437.21239502 -7.50021484 437.21239502 -6.09765625 437.23779297 C-0.02095105 437.32921443 6.04875552 437.29753045 12.125 437.1875 C13.13433594 437.16961426 14.14367187 437.15172852 15.18359375 437.13330078 C59.85387976 436.20605394 106.45590914 431.29964837 144.125 405.1875 C145.14980469 404.51847656 146.17460937 403.84945313 147.23046875 403.16015625 C175.08019103 383.69529659 186.26042251 345.87730024 192.125 314.1875 C196.70992265 286.51664274 197.63295371 258.19399611 197.125 230.1875 C197.10711426 229.18348145 197.08922852 228.17946289 197.07080078 227.14501953 C196.09027022 180.18691017 190.43237273 133.59920461 163.125 94.1875 C162.50109375 93.28257812 161.8771875 92.37765625 161.234375 91.4453125 C155.93348923 84.2957985 149.34358677 79.23304691 142.125 74.1875 C141.18527344 73.50945312 140.24554688 72.83140625 139.27734375 72.1328125 C116.26202129 56.70666097 88.0703728 50.95646744 61.125 47.1875 C60.32143066 47.07277344 59.51786133 46.95804688 58.68994141 46.83984375 C40.68107526 44.31564694 22.48203199 44.01438572 4.32275391 44.05712891 C1.62526843 44.06249947 -1.07205065 44.05713056 -3.76953125 44.05078125 C-21.55195624 44.04192386 -39.22769159 44.66487648 -56.875 46.9375 Z " fill="#0095A0" transform="translate(289.875,67.8125)"/>
<path d="M0 0 C0.91523438 0.76828125 1.83046875 1.5365625 2.7734375 2.328125 C23.26546357 21.07973242 26.22865405 50.83858294 28 77 C28 87.56 28 98.12 28 109 C-20.51 109.33 -69.02 109.66 -119 110 C-119.21352493 132.85492392 -119.21352493 132.85492392 -110 154 C-100.13824414 160.37636817 -92.02562768 161.22336215 -80.5625 161.3125 C-79.35400391 161.34150391 -78.14550781 161.37050781 -76.90039062 161.40039062 C-66.32296185 161.47404171 -56.14533817 160.26425131 -48 153 C-46.6347174 151.23275596 -46.6347174 151.23275596 -45.75 149.3125 C-45.43546875 148.71050781 -45.1209375 148.10851562 -44.796875 147.48828125 C-43.61472771 143.79696839 -43.42803098 139.85227885 -43 136 C-19.57 136 3.86 136 28 136 C28 155.32781567 24.53586951 171.91322681 12 187 C11.47921875 187.64582031 10.9584375 188.29164063 10.421875 188.95703125 C-4.35279785 205.48526375 -30.32218152 209.17742423 -51.18408203 210.80371094 C-59.16711408 211.21435443 -67.15757426 211.22539414 -75.1496582 211.24023438 C-78.26736969 211.24986066 -81.38439773 211.28092732 -84.50195312 211.3125 C-114.15467876 211.46804356 -145.81941062 208.54677765 -168.25 187.1875 C-172.75375525 182.52163776 -176.04367343 177.75237037 -179 172 C-179.42796875 171.22914063 -179.8559375 170.45828125 -180.296875 169.6640625 C-183.35025928 163.6892303 -185.08608872 157.48224209 -186.6875 151 C-186.88996338 150.20102295 -187.09242676 149.4020459 -187.30102539 148.57885742 C-191.03096499 132.55364383 -191.3266844 116.15911413 -191.26074219 99.78515625 C-191.25003474 96.6352199 -191.26070066 93.48585659 -191.2734375 90.3359375 C-191.29560046 59.8450596 -189.64344187 25.82898486 -167.59375 2.3828125 C-132.67689632 -29.69441754 -36.57315589 -30.73574664 0 0 Z M-110.46875 36.22265625 C-118.72478314 45.80555186 -119 55.85582256 -119 68 C-94.25 68 -69.5 68 -44 68 C-43.78692012 55.39979537 -43.78692012 55.39979537 -47 44 C-47.38285156 43.01386719 -47.38285156 43.01386719 -47.7734375 42.0078125 C-50.35960174 36.47958986 -54.56030246 34.16910058 -60 32 C-73.72154195 27.44197914 -98.69301742 26.72702875 -110.46875 36.22265625 Z " fill="#0096A1" transform="translate(372,214)"/>
</svg>
