<svg width="126" height="36" xmlns="http://www.w3.org/2000/svg"><defs><linearGradient x1="-3.467%" y1="-4.306%" x2="210.392%" y2="212.161%" id="a"><stop stop-color="#00B388" offset="0%"/><stop stop-color="#00B097" offset="13.16%"/><stop stop-color="#00A9BF" offset="51.16%"/><stop stop-color="#00A5D7" offset="81.43%"/><stop stop-color="#00A3E0" offset="100%"/></linearGradient><linearGradient x1="-110.425%" y1="-109.345%" x2="103.434%" y2="104.514%" id="b"><stop stop-color="#00B388" offset="0%"/><stop stop-color="#00B097" offset="13.16%"/><stop stop-color="#00A9BF" offset="51.16%"/><stop stop-color="#00A5D7" offset="81.43%"/><stop stop-color="#00A3E0" offset="100%"/></linearGradient><linearGradient x1="-110.655%" y1="-109.117%" x2="103.204%" y2="104.742%" id="c"><stop stop-color="#00B388" offset="0%"/><stop stop-color="#00B097" offset="13.16%"/><stop stop-color="#00A9BF" offset="51.16%"/><stop stop-color="#00A5D7" offset="81.43%"/><stop stop-color="#00A3E0" offset="100%"/></linearGradient><linearGradient x1="-480.077%" y1="-332.966%" x2="349.632%" y2="250.643%" id="d"><stop stop-color="#00B388" offset="0%"/><stop stop-color="#00B097" offset="13.16%"/><stop stop-color="#00A9BF" offset="51.16%"/><stop stop-color="#00A5D7" offset="81.43%"/><stop stop-color="#00A3E0" offset="100%"/></linearGradient><linearGradient x1="-762.162%" y1="-487.336%" x2="67.552%" y2="88.137%" id="e"><stop stop-color="#00B388" offset="0%"/><stop stop-color="#00B097" offset="13.16%"/><stop stop-color="#00A9BF" offset="51.16%"/><stop stop-color="#00A5D7" offset="81.43%"/><stop stop-color="#00A3E0" offset="100%"/></linearGradient><linearGradient x1="-301.557%" y1="-301.641%" x2="101.859%" y2="101.775%" id="f"><stop stop-color="#00B388" offset="0%"/><stop stop-color="#00B097" offset="13.16%"/><stop stop-color="#00A9BF" offset="51.16%"/><stop stop-color="#00A5D7" offset="81.43%"/><stop stop-color="#00A3E0" offset="100%"/></linearGradient><linearGradient x1="-328.292%" y1="-480.073%" x2="247.159%" y2="349.604%" id="g"><stop stop-color="#00B388" offset="0%"/><stop stop-color="#00B097" offset="13.16%"/><stop stop-color="#00A9BF" offset="51.16%"/><stop stop-color="#00A5D7" offset="81.43%"/><stop stop-color="#00A3E0" offset="100%"/></linearGradient><linearGradient x1="-249.244%" y1="-150.288%" x2="580.442%" y2="433.302%" id="h"><stop stop-color="#00B388" offset="0%"/><stop stop-color="#00B097" offset="13.16%"/><stop stop-color="#00A9BF" offset="51.16%"/><stop stop-color="#00A5D7" offset="81.43%"/><stop stop-color="#00A3E0" offset="100%"/></linearGradient><linearGradient x1="13.253%" y1="34.814%" x2="580.333%" y2="905.173%" id="i"><stop stop-color="#00B388" offset="0%"/><stop stop-color="#00B097" offset="13.16%"/><stop stop-color="#00A9BF" offset="51.16%"/><stop stop-color="#00A5D7" offset="81.43%"/><stop stop-color="#00A3E0" offset="100%"/></linearGradient><linearGradient x1="-1.67%" y1="-1.53%" x2="401.752%" y2="401.895%" id="j"><stop stop-color="#00B388" offset="0%"/><stop stop-color="#00B097" offset="13.16%"/><stop stop-color="#00A9BF" offset="51.16%"/><stop stop-color="#00A5D7" offset="81.43%"/><stop stop-color="#00A3E0" offset="100%"/></linearGradient><linearGradient x1="34.126%" y1="12.206%" x2="847.967%" y2="587.686%" id="k"><stop stop-color="#00B388" offset="0%"/><stop stop-color="#00B097" offset="13.16%"/><stop stop-color="#00A9BF" offset="51.16%"/><stop stop-color="#00A5D7" offset="81.43%"/><stop stop-color="#00A3E0" offset="100%"/></linearGradient><linearGradient x1="-493.976%" y1="-766.939%" x2="89.538%" y2="62.639%" id="l"><stop stop-color="#00B388" offset="0%"/><stop stop-color="#00B097" offset="13.16%"/><stop stop-color="#00A9BF" offset="51.16%"/><stop stop-color="#00A5D7" offset="81.43%"/><stop stop-color="#00A3E0" offset="100%"/></linearGradient><linearGradient x1="-151.947%" y1="-151.257%" x2="251.475%" y2="252.164%" id="m"><stop stop-color="#00B388" offset="0%"/><stop stop-color="#00B097" offset="13.16%"/><stop stop-color="#00A9BF" offset="51.16%"/><stop stop-color="#00A5D7" offset="81.43%"/><stop stop-color="#00A3E0" offset="100%"/></linearGradient><linearGradient x1="-151.808%" y1="-249.109%" x2="442.927%" y2="580.577%" id="n"><stop stop-color="#00B388" offset="0%"/><stop stop-color="#00B097" offset="13.16%"/><stop stop-color="#00A9BF" offset="51.16%"/><stop stop-color="#00A5D7" offset="81.43%"/><stop stop-color="#00A3E0" offset="100%"/></linearGradient><linearGradient x1="-151.284%" y1="-151.916%" x2="252.132%" y2="251.5%" id="o"><stop stop-color="#00B388" offset="0%"/><stop stop-color="#00B097" offset="13.16%"/><stop stop-color="#00A9BF" offset="51.16%"/><stop stop-color="#00A5D7" offset="81.43%"/><stop stop-color="#00A3E0" offset="100%"/></linearGradient><linearGradient x1="-3.101%" y1="-3.457%" x2="210.758%" y2="213.01%" id="p"><stop stop-color="#00B388" offset="0%"/><stop stop-color="#00B097" offset="13.16%"/><stop stop-color="#00A9BF" offset="51.16%"/><stop stop-color="#00A5D7" offset="81.43%"/><stop stop-color="#00A3E0" offset="100%"/></linearGradient></defs><g fill="none"><path d="M18.745 11.146c-.28.277-.836.277-1.115 0L12.613 6.16c-.28-.276-.28-.83 0-1.107L17.63.208c.28-.277.836-.277 1.115 0l5.017 4.985c.277.276.277.83 0 1.107l-5.018 4.845h.001z" fill="url(#a)" transform="translate(.487 .07)"/><path d="M18.745 35.654c-.28.277-.836.277-1.115 0l-5.017-4.985c-.28-.276-.28-.83 0-1.107l5.017-4.984c.28-.277.836-.277 1.115 0l5.017 4.985c.277.278.277.832 0 1.108l-5.018 4.985.001-.002z" fill="url(#b)" transform="translate(.487 .07)"/><path d="M31.148 23.33c-.28.278-.836.278-1.115 0l-5.017-4.984c-.28-.277-.28-.83 0-1.107l5.017-4.985c.28-.277.836-.277 1.115 0l5.017 4.985c.28.277.28.83 0 1.107l-5.017 4.985z" fill="url(#c)" transform="translate(.487 .07)"/><path d="M11.916 31.085c0-.416-.28-.554-.557-.277l-2.09 2.215c-.28.277-.28.693.14.97l1.95.83c.418.14.696 0 .696-.415v-3.323h-.14.001z" fill="url(#d)" transform="translate(.487 .07)"/><path d="M26.967 33.993c.418-.14.418-.554.14-.97l-2.23-2.215c-.28-.277-.558-.14-.558.277v3.323c0 .415.28.692.697.415l1.95-.83h.001z" fill="url(#e)" transform="translate(.487 .07)"/><path d="M30.451 24.854c0-.415-.418-.83-.836-.83h-4.46c-.418 0-.836.415-.836.83v4.43c0 .416.418.832.836.832h4.46c.418 0 .836-.416.836-.83v-4.432z" fill="url(#f)" transform="translate(.487 .07)"/><path d="M34.353 9.208c-.14-.415-.557-.415-.975-.14l-2.23 2.217c-.28.277-.14.554.28.554h3.343c.418 0 .697-.277.418-.693l-.836-1.938z" fill="url(#g)" transform="translate(.487 .07)"/><path d="M27.106 2.839c.28-.416.28-.83-.14-.97l-1.95-.83c-.418-.14-.697 0-.697.415v3.323c0 .416.28.554.558.277l2.23-2.215h-.001z" fill="url(#h)" transform="translate(.487 .07)"/><path d="M2.997 9.069c-.418-.276-.836-.276-.976.14l-.975 1.8c-.14.414.14.69.557.69h3.345c.418 0 .558-.276.28-.553l-2.23-2.077h-.001z" fill="url(#i)" transform="translate(.487 .07)"/><path d="M11.916 6.577c0-.415-.418-.83-.836-.83H6.76c-.418 0-.836.415-.836.83v4.43c0 .416.42.832.837.832h4.46c.417 0 .835-.416.835-.83V6.576h-.14z" fill="url(#j)" transform="translate(.487 .07)"/><path d="M11.916 1.454c0-.415-.28-.692-.697-.415l-1.81.83c-.42.14-.56.554-.14.97l2.23 2.215c.278.277.556.14.556-.277V1.454h-.14.001z" fill="url(#k)" transform="translate(.487 .07)"/><path d="M35.189 24.854c.14-.415 0-.692-.418-.692h-3.344c-.418 0-.558.278-.28.555l2.231 2.214c.28.277.697.277.976-.138l.836-1.94h-.001z" fill="url(#l)" transform="translate(.487 .07)"/><path d="M11.916 24.854c0-.415-.418-.83-.836-.83H6.76c-.418 0-.836.415-.836.83v4.43c0 .416.42.832.837.832h4.46c.417 0 .835-.416.835-.83v-4.432h-.14z" fill="url(#m)" transform="translate(.487 .07)"/><path d="M5.087 24.577c.28-.277.14-.554-.278-.554H1.603c-.418 0-.696.277-.418.693l.836 1.938c.14.415.558.415.976.14l2.09-2.217z" fill="url(#n)" transform="translate(.487 .07)"/><path d="M30.451 11.008c0 .415-.418.83-.836.83h-4.46c-.418 0-.836-.415-.836-.83v-4.43c0-.416.418-.832.836-.832h4.46c.418 0 .836.416.836.83v4.432z" fill="url(#o)" transform="translate(.487 .07)"/><path d="M6.343 23.33c-.28.278-.837.278-1.116 0L.21 18.347c-.28-.277-.28-.83 0-1.107l5.017-4.846c.28-.277.836-.277 1.115 0l5.016 4.984c.278.277.278.83 0 1.108L6.343 23.33z" fill="url(#p)" transform="translate(.487 .07)"/><path d="M100.618 11.63c-1.393 0-2.09.416-3.484 1.94v-.693c0-.83-.14-.97-.975-.97h-.698c-.836 0-.975.14-.975.97V26.03c0 .832.14.97.975.97h.697c.835 0 .974-.138.974-.97v-7.06c0-1.8.14-2.908.558-3.6.557-.97 1.81-1.524 2.926-1.385.28 0 .558.138.697.138h.28c.138 0 .138-.138.278-.138.14-.14.278-.416.418-.693.14-.138.14-.277.28-.415l.278-.554c-.14-.277-1.115-.692-2.23-.692l.001-.001zm-46.268 0c-1.393 0-2.09.416-3.483 1.94v-.693c0-.83-.14-.97-.976-.97h-.696c-.836 0-.975.14-.975.97V26.03c0 .832.138.97.974.97h.697c.837 0 .977-.138.977-.97v-7.06c0-1.8.14-2.908.557-3.6.558-.97 1.812-1.524 2.927-1.385.28 0 .558.138.697.138h.28c.14 0 .14-.138.278-.138.14-.14.28-.416.418-.693.14-.138.14-.277.28-.415l.277-.554c-.14-.277-1.114-.692-2.23-.692l-.002-.001zm7.526 9.14c0 1.384.14 2.215.418 2.768.558.97 1.673 1.524 2.927 1.524 1.255 0 2.37-.554 2.927-1.524.28-.692.418-1.384.418-2.77v-7.89c0-.832.14-.97.976-.97h.698c.836 0 .975.138.975.97v8.168c0 2.216-.418 3.462-1.393 4.57-1.115 1.246-2.788 1.938-4.6 1.938-1.95 0-3.483-.692-4.598-1.94-.976-1.106-1.394-2.352-1.394-4.568v-8.17c0-.83.14-.968.976-.968h.697c.837 0 .976.138.976.97v7.89l-.003.002zm16.304-6.647c1.534-1.66 3.067-2.492 5.297-2.492 4.18 0 7.247 3.324 7.247 7.893 0 4.57-3.066 8.03-7.386 8.03-2.09 0-3.763-.83-5.296-2.49v1.106c0 .83-.14.968-.976.968h-.696c-.837 0-.976-.138-.976-.97V1.524c0-.83.14-.97.976-.97h.696c.837 0 .976.14.976.97v12.6h.14l-.002-.001zm-.277 5.4c0 3.323 2.09 5.677 5.017 5.677 2.926 0 5.017-2.354 5.017-5.677 0-3.046-2.09-5.4-5.017-5.4-2.927-.138-5.017 2.077-5.017 5.4zM109.26 6.23c0 .97-.837 1.8-1.813 1.8-.975 0-1.812-.83-1.812-1.938 0-.97.837-1.8 1.812-1.8.976.14 1.812.97 1.812 1.94l.001-.002zm-.698 19.94c0 .83-.14.968-.976.968h-.696c-.837 0-.976-.138-.976-.97V13.016c0-.83.14-.97.976-.97h.696c.837 0 .976.14.976.97V26.17zm12.542-13.708c.418-.416.418-.416 1.115-.416h1.114c.697 0 .976.14.976.554 0 .138-.14.415-.418.692l-5.296 5.262 6.69 7.477c.278.278.417.555.417.693 0 .415-.278.554-.975.554h-1.115c-.697 0-.697 0-1.115-.415l-5.714-6.37-.697.277v5.26c0 .832-.14.97-.975.97h-.697c-.836 0-.975-.138-.975-.97V1.524c0-.83.14-.97.975-.97h.697c.836 0 .975.14.975.97v16.062l5.017-5.123.001-.001z" fill="#4A4A4A"/></g></svg>