<?xml version="1.0" encoding="utf-8"?>
<!-- Generator: Adobe Illustrator 19.0.0, SVG Export Plug-In . SVG Version: 6.00 Build 0)  -->
<svg version="1.1" id="layer" xmlns="http://www.w3.org/2000/svg" xmlns:xlink="http://www.w3.org/1999/xlink" x="0px" y="0px"
	 viewBox="-153 -46 652 652" style="enable-background:new -153 -46 652 652;" xml:space="preserve">
<style type="text/css">
	.st0{clip-path:url(#SVGID_2_);fill:url(#SVGID_3_);}
	.st1{clip-path:url(#SVGID_5_);fill:url(#SVGID_6_);}
	.st2{clip-path:url(#SVGID_8_);fill:url(#SVGID_9_);}
	.st3{clip-path:url(#SVGID_11_);fill:url(#SVGID_12_);}
	.st4{clip-path:url(#SVGID_14_);fill:url(#SVGID_15_);}
	.st5{clip-path:url(#SVGID_17_);fill:url(#SVGID_18_);}
	.st6{clip-path:url(#SVGID_20_);fill:url(#SVGID_21_);}
	.st7{clip-path:url(#SVGID_23_);fill:url(#SVGID_24_);}
	.st8{clip-path:url(#SVGID_26_);fill:url(#SVGID_27_);}
	.st9{clip-path:url(#SVGID_29_);fill:url(#SVGID_30_);}
	.st10{clip-path:url(#SVGID_32_);fill:url(#SVGID_33_);}
	.st11{clip-path:url(#SVGID_35_);fill:url(#SVGID_36_);}
	.st12{clip-path:url(#SVGID_38_);fill:url(#SVGID_39_);}
	.st13{clip-path:url(#SVGID_41_);fill:url(#SVGID_42_);}
	.st14{clip-path:url(#SVGID_44_);fill:url(#SVGID_45_);}
	.st15{clip-path:url(#SVGID_47_);fill:url(#SVGID_48_);}
	.st16{fill:#797D82;}
</style>
<g>
	<defs>
		<path id="SVGID_1_" d="M-45.7,189.9l-23.6,23.6c-1.4,1.5-1.4,3.8,0,5.3l23.6,23.6c1.5,1.5,3.8,1.5,5.3,0l23.6-23.6
			c1.4-1.4,1.4-3.8,0-5.3l-23.6-23.6c-0.7-0.7-1.7-1.1-2.6-1.1C-44.1,188.8-45,189.2-45.7,189.9"/>
	</defs>
	<clipPath id="SVGID_2_">
		<use xlink:href="#SVGID_1_"  style="overflow:visible;"/>
	</clipPath>
	
		<linearGradient id="SVGID_3_" gradientUnits="userSpaceOnUse" x1="-143.9776" y1="688.0853" x2="-136.3736" y2="688.0853" gradientTransform="matrix(15.4838 15.4838 15.4838 -15.4838 -8497.4951 13070.3066)">
		<stop  offset="0" style="stop-color:#00B583"/>
		<stop  offset="5.777061e-002" style="stop-color:#04B390"/>
		<stop  offset="0.2097" style="stop-color:#0CAFAD"/>
		<stop  offset="0.3714" style="stop-color:#13ACC4"/>
		<stop  offset="0.5454" style="stop-color:#17AAD4"/>
		<stop  offset="0.7405" style="stop-color:#1AA8DE"/>
		<stop  offset="1" style="stop-color:#1BA8E1"/>
	</linearGradient>
	<polygon class="st0" points="-43.1,161.1 12,216.3 -43.1,271.4 -98.3,216.3 	"/>
</g>
<g>
	<defs>
		<path id="SVGID_4_" d="M-45.7,307.6l-23.6,23.6c-1.4,1.4-1.4,3.8,0,5.3l23.6,23.6c1.5,1.5,3.8,1.5,5.3,0l23.6-23.6
			c1.4-1.5,1.4-3.8,0-5.3l-23.6-23.6c-0.7-0.7-1.7-1.1-2.6-1.1C-44.1,306.6-45,306.9-45.7,307.6"/>
	</defs>
	<clipPath id="SVGID_5_">
		<use xlink:href="#SVGID_4_"  style="overflow:visible;"/>
	</clipPath>
	
		<linearGradient id="SVGID_6_" gradientUnits="userSpaceOnUse" x1="-143.9776" y1="684.7825" x2="-136.3736" y2="684.7825" gradientTransform="matrix(15.4838 15.4838 15.4838 -15.4838 -8505.2383 13078.0488)">
		<stop  offset="0" style="stop-color:#00B583"/>
		<stop  offset="5.777061e-002" style="stop-color:#04B390"/>
		<stop  offset="0.2097" style="stop-color:#0CAFAD"/>
		<stop  offset="0.3714" style="stop-color:#13ACC4"/>
		<stop  offset="0.5454" style="stop-color:#17AAD4"/>
		<stop  offset="0.7405" style="stop-color:#1AA8DE"/>
		<stop  offset="1" style="stop-color:#1BA8E1"/>
	</linearGradient>
	<polygon class="st1" points="-43.1,278.9 12,334 -43.1,389.2 -98.3,334 	"/>
</g>
<g>
	<defs>
		<path id="SVGID_7_" d="M13.1,248.7l-23.6,23.6c-1.5,1.5-1.5,3.8,0,5.3l23.6,23.6c1.5,1.4,3.8,1.4,5.3,0L42,277.5
			c1.5-1.5,1.5-3.8,0-5.3l-23.6-23.6c-0.7-0.7-1.7-1.1-2.6-1.1C14.8,247.6,13.8,248,13.1,248.7"/>
	</defs>
	<clipPath id="SVGID_8_">
		<use xlink:href="#SVGID_7_"  style="overflow:visible;"/>
	</clipPath>
	
		<linearGradient id="SVGID_9_" gradientUnits="userSpaceOnUse" x1="-143.9776" y1="688.0867" x2="-136.3736" y2="688.0867" gradientTransform="matrix(15.4838 15.4838 15.4838 -15.4838 -8497.4912 13070.3018)">
		<stop  offset="0" style="stop-color:#00B583"/>
		<stop  offset="5.777061e-002" style="stop-color:#04B390"/>
		<stop  offset="0.2097" style="stop-color:#0CAFAD"/>
		<stop  offset="0.3714" style="stop-color:#13ACC4"/>
		<stop  offset="0.5454" style="stop-color:#17AAD4"/>
		<stop  offset="0.7405" style="stop-color:#1AA8DE"/>
		<stop  offset="1" style="stop-color:#1BA8E1"/>
	</linearGradient>
	<polygon class="st2" points="15.7,219.9 70.9,275.1 15.7,330.3 -39.4,275.1 	"/>
</g>
<g>
	<defs>
		<path id="SVGID_10_" d="M-75.3,336.9l-10.5,10.5c-1.5,1.4-1.2,3.4,0.6,4.4l9,4.3c1.9,0.8,3.4-0.2,3.4-2.3V338
			c0-1.3-0.4-1.9-1.1-1.9C-74.2,336.1-74.7,336.4-75.3,336.9"/>
	</defs>
	<clipPath id="SVGID_11_">
		<use xlink:href="#SVGID_10_"  style="overflow:visible;"/>
	</clipPath>
	
		<linearGradient id="SVGID_12_" gradientUnits="userSpaceOnUse" x1="-143.9774" y1="683.3881" x2="-136.3734" y2="683.3881" gradientTransform="matrix(15.4842 15.4842 15.4842 -15.4842 -8508.4824 13081.3867)">
		<stop  offset="0" style="stop-color:#00B583"/>
		<stop  offset="5.777061e-002" style="stop-color:#04B390"/>
		<stop  offset="0.2097" style="stop-color:#0CAFAD"/>
		<stop  offset="0.3714" style="stop-color:#13ACC4"/>
		<stop  offset="0.5454" style="stop-color:#17AAD4"/>
		<stop  offset="0.7405" style="stop-color:#1AA8DE"/>
		<stop  offset="1" style="stop-color:#1BA8E1"/>
	</linearGradient>
	<polygon class="st3" points="-79.9,328.8 -62.3,346.5 -79.9,364.2 -97.6,346.5 	"/>
</g>
<g>
	<defs>
		<path id="SVGID_13_" d="M-13.6,338v15.8c0,2,1.6,3.1,3.4,2.3l9-4.3c1.8-1,2.1-3,0.6-4.4L-11,336.9c-0.6-0.6-1.1-0.8-1.5-0.8
			C-13.1,336.1-13.6,336.8-13.6,338"/>
	</defs>
	<clipPath id="SVGID_14_">
		<use xlink:href="#SVGID_13_"  style="overflow:visible;"/>
	</clipPath>
	
		<linearGradient id="SVGID_15_" gradientUnits="userSpaceOnUse" x1="-143.9774" y1="685.4894" x2="-136.3734" y2="685.4894" gradientTransform="matrix(15.4843 15.4843 15.4843 -15.4843 -8504.2373 13077.1592)">
		<stop  offset="0" style="stop-color:#00B583"/>
		<stop  offset="5.777061e-002" style="stop-color:#04B390"/>
		<stop  offset="0.2097" style="stop-color:#0CAFAD"/>
		<stop  offset="0.3714" style="stop-color:#13ACC4"/>
		<stop  offset="0.5454" style="stop-color:#17AAD4"/>
		<stop  offset="0.7405" style="stop-color:#1AA8DE"/>
		<stop  offset="1" style="stop-color:#1BA8E1"/>
	</linearGradient>
	<polygon class="st4" points="-6.3,328.8 11.4,346.5 -6.3,364.2 -24,346.5 	"/>
</g>
<g>
	<defs>
		<path id="SVGID_16_" d="M-9.9,304.4c-2.1,0-3.7,1.7-3.7,3.7v21.3c0,2,1.7,3.7,3.7,3.7h21.3c2,0,3.7-1.7,3.7-3.7v-21.3
			c0-2-1.7-3.7-3.7-3.7H-9.9z"/>
	</defs>
	<clipPath id="SVGID_17_">
		<use xlink:href="#SVGID_16_"  style="overflow:visible;"/>
	</clipPath>
	
		<linearGradient id="SVGID_18_" gradientUnits="userSpaceOnUse" x1="-143.9776" y1="686.4429" x2="-136.3736" y2="686.4429" gradientTransform="matrix(15.4838 15.4838 15.4838 -15.4838 -8501.3252 13074.1201)">
		<stop  offset="0" style="stop-color:#00B583"/>
		<stop  offset="5.777061e-002" style="stop-color:#04B390"/>
		<stop  offset="0.2097" style="stop-color:#0CAFAD"/>
		<stop  offset="0.3714" style="stop-color:#13ACC4"/>
		<stop  offset="0.5454" style="stop-color:#17AAD4"/>
		<stop  offset="0.7405" style="stop-color:#1AA8DE"/>
		<stop  offset="1" style="stop-color:#1BA8E1"/>
	</linearGradient>
	<polygon class="st5" points="0.8,290 29.5,318.8 0.8,347.5 -27.9,318.8 	"/>
</g>
<g>
	<defs>
		<path id="SVGID_19_" d="M29.5,232.3L19,242.8c-1.4,1.4-1,2.6,1.1,2.6h15.8c2,0,3.1-1.6,2.3-3.4l-4.3-9c-0.6-1-1.4-1.6-2.4-1.6
			C30.8,231.4,30.1,231.7,29.5,232.3"/>
	</defs>
	<clipPath id="SVGID_20_">
		<use xlink:href="#SVGID_19_"  style="overflow:visible;"/>
	</clipPath>
	
		<linearGradient id="SVGID_21_" gradientUnits="userSpaceOnUse" x1="-143.9776" y1="689.4781" x2="-136.3736" y2="689.4781" gradientTransform="matrix(15.4836 15.4836 15.4836 -15.4836 -8494.3057 13067.0537)">
		<stop  offset="0" style="stop-color:#00B583"/>
		<stop  offset="5.777061e-002" style="stop-color:#04B390"/>
		<stop  offset="0.2097" style="stop-color:#0CAFAD"/>
		<stop  offset="0.3714" style="stop-color:#13ACC4"/>
		<stop  offset="0.5454" style="stop-color:#17AAD4"/>
		<stop  offset="0.7405" style="stop-color:#1AA8DE"/>
		<stop  offset="1" style="stop-color:#1BA8E1"/>
	</linearGradient>
	<polygon class="st6" points="28.2,220.7 45.9,238.4 28.2,256.1 10.5,238.4 	"/>
</g>
<g>
	<defs>
		<path id="SVGID_22_" d="M-13.6,196v15.8c0,2,1.2,2.5,2.6,1.1l10.5-10.5c1.4-1.4,1.2-3.4-0.6-4.4l-9-4.3c-0.4-0.2-0.8-0.3-1.2-0.3
			C-12.7,193.4-13.6,194.4-13.6,196"/>
	</defs>
	<clipPath id="SVGID_23_">
		<use xlink:href="#SVGID_22_"  style="overflow:visible;"/>
	</clipPath>
	
		<linearGradient id="SVGID_24_" gradientUnits="userSpaceOnUse" x1="-143.9776" y1="689.4772" x2="-136.3736" y2="689.4772" gradientTransform="matrix(15.4837 15.4837 15.4837 -15.4837 -8494.3711 13067.1504)">
		<stop  offset="0" style="stop-color:#00B583"/>
		<stop  offset="5.777061e-002" style="stop-color:#04B390"/>
		<stop  offset="0.2097" style="stop-color:#0CAFAD"/>
		<stop  offset="0.3714" style="stop-color:#13ACC4"/>
		<stop  offset="0.5454" style="stop-color:#17AAD4"/>
		<stop  offset="0.7405" style="stop-color:#1AA8DE"/>
		<stop  offset="1" style="stop-color:#1BA8E1"/>
	</linearGradient>
	<polygon class="st7" points="-6.3,186.2 11.4,203.9 -6.3,221.6 -24,203.9 	"/>
</g>
<g>
	<defs>
		<path id="SVGID_25_" d="M-120.1,232.9l-4.3,9c-0.8,1.9,0.2,3.4,2.3,3.4h15.8c2,0,2.5-1.2,1.1-2.6l-10.5-10.5
			c-0.6-0.6-1.3-0.9-2-0.9C-118.7,231.4-119.5,231.9-120.1,232.9"/>
	</defs>
	<clipPath id="SVGID_26_">
		<use xlink:href="#SVGID_25_"  style="overflow:visible;"/>
	</clipPath>
	
		<linearGradient id="SVGID_27_" gradientUnits="userSpaceOnUse" x1="-143.9777" y1="685.4891" x2="-136.3737" y2="685.4891" gradientTransform="matrix(15.4836 15.4836 15.4836 -15.4836 -8503.8604 13076.5967)">
		<stop  offset="0" style="stop-color:#00B583"/>
		<stop  offset="5.777061e-002" style="stop-color:#04B390"/>
		<stop  offset="0.2097" style="stop-color:#0CAFAD"/>
		<stop  offset="0.3714" style="stop-color:#13ACC4"/>
		<stop  offset="0.5454" style="stop-color:#17AAD4"/>
		<stop  offset="0.7405" style="stop-color:#1AA8DE"/>
		<stop  offset="1" style="stop-color:#1BA8E1"/>
	</linearGradient>
	<polygon class="st8" points="-114.5,220.7 -96.7,238.4 -114.5,256.1 -132.2,238.4 	"/>
</g>
<g>
	<defs>
		<path id="SVGID_28_" d="M-97.6,216.7c-2.1,0-3.7,1.7-3.7,3.7v21.3c0,2,1.7,3.7,3.7,3.7h21.3c2.1,0,3.7-1.7,3.7-3.7v-21.3
			c0-2-1.7-3.7-3.7-3.7H-97.6z"/>
	</defs>
	<clipPath id="SVGID_29_">
		<use xlink:href="#SVGID_28_"  style="overflow:visible;"/>
	</clipPath>
	
		<linearGradient id="SVGID_30_" gradientUnits="userSpaceOnUse" x1="-143.9773" y1="686.4409" x2="-136.3733" y2="686.4409" gradientTransform="matrix(15.4841 15.4841 15.4841 -15.4841 -8501.5313 13074.4229)">
		<stop  offset="0" style="stop-color:#00B583"/>
		<stop  offset="5.777061e-002" style="stop-color:#04B390"/>
		<stop  offset="0.2097" style="stop-color:#0CAFAD"/>
		<stop  offset="0.3714" style="stop-color:#13ACC4"/>
		<stop  offset="0.5454" style="stop-color:#17AAD4"/>
		<stop  offset="0.7405" style="stop-color:#1AA8DE"/>
		<stop  offset="1" style="stop-color:#1BA8E1"/>
	</linearGradient>
	<polygon class="st9" points="-87,202.3 -58.3,231 -87,259.8 -115.7,231 	"/>
</g>
<g>
	<defs>
		<path id="SVGID_31_" d="M-76.1,193.7l-9,4.3c-1.8,1-2.1,2.9-0.6,4.4l10.5,10.5c1.4,1.4,2.6,1,2.6-1.1V196c0-1.6-0.9-2.6-2.2-2.6
			C-75.2,193.4-75.7,193.5-76.1,193.7"/>
	</defs>
	<clipPath id="SVGID_32_">
		<use xlink:href="#SVGID_31_"  style="overflow:visible;"/>
	</clipPath>
	
		<linearGradient id="SVGID_33_" gradientUnits="userSpaceOnUse" x1="-143.9771" y1="687.3752" x2="-136.3731" y2="687.3752" gradientTransform="matrix(15.4844 15.4844 15.4844 -15.4844 -8499.0254 13071.9873)">
		<stop  offset="0" style="stop-color:#00B583"/>
		<stop  offset="5.777061e-002" style="stop-color:#04B390"/>
		<stop  offset="0.2097" style="stop-color:#0CAFAD"/>
		<stop  offset="0.3714" style="stop-color:#13ACC4"/>
		<stop  offset="0.5454" style="stop-color:#17AAD4"/>
		<stop  offset="0.7405" style="stop-color:#1AA8DE"/>
		<stop  offset="1" style="stop-color:#1BA8E1"/>
	</linearGradient>
	<polygon class="st10" points="-79.9,186.2 -62.2,203.9 -79.9,221.6 -97.7,203.9 	"/>
</g>
<g>
	<defs>
		<path id="SVGID_34_" d="M20.1,304.4c-2,0-2.5,1.2-1.1,2.6l10.5,10.5c1.4,1.4,3.4,1.1,4.4-0.7l4.3-9c0.8-1.9-0.3-3.4-2.3-3.4H20.1z
			"/>
	</defs>
	<clipPath id="SVGID_35_">
		<use xlink:href="#SVGID_34_"  style="overflow:visible;"/>
	</clipPath>
	
		<linearGradient id="SVGID_36_" gradientUnits="userSpaceOnUse" x1="-143.9784" y1="687.3882" x2="-136.3744" y2="687.3882" gradientTransform="matrix(15.4817 15.4817 15.4817 -15.4817 -8497.5479 13069.7988)">
		<stop  offset="0" style="stop-color:#00B583"/>
		<stop  offset="5.777061e-002" style="stop-color:#04B390"/>
		<stop  offset="0.2097" style="stop-color:#0CAFAD"/>
		<stop  offset="0.3714" style="stop-color:#13ACC4"/>
		<stop  offset="0.5454" style="stop-color:#17AAD4"/>
		<stop  offset="0.7405" style="stop-color:#1AA8DE"/>
		<stop  offset="1" style="stop-color:#1BA8E1"/>
	</linearGradient>
	<polygon class="st11" points="28.2,293.7 46.2,311.7 28.2,329.7 10.2,311.7 	"/>
</g>
<g>
	<defs>
		<path id="SVGID_37_" d="M-97.6,304.4c-2.1,0-3.7,1.7-3.7,3.7v21.3c0,2,1.7,3.7,3.7,3.7h21.3c2.1,0,3.7-1.7,3.7-3.7v-21.3
			c0-2-1.7-3.7-3.7-3.7H-97.6z"/>
	</defs>
	<clipPath id="SVGID_38_">
		<use xlink:href="#SVGID_37_"  style="overflow:visible;"/>
	</clipPath>
	
		<linearGradient id="SVGID_39_" gradientUnits="userSpaceOnUse" x1="-143.9774" y1="683.981" x2="-136.3734" y2="683.981" gradientTransform="matrix(15.484 15.484 15.484 -15.484 -8507.2354 13080.0957)">
		<stop  offset="0" style="stop-color:#00B583"/>
		<stop  offset="5.777061e-002" style="stop-color:#04B390"/>
		<stop  offset="0.2097" style="stop-color:#0CAFAD"/>
		<stop  offset="0.3714" style="stop-color:#13ACC4"/>
		<stop  offset="0.5454" style="stop-color:#17AAD4"/>
		<stop  offset="0.7405" style="stop-color:#1AA8DE"/>
		<stop  offset="1" style="stop-color:#1BA8E1"/>
	</linearGradient>
	<polygon class="st12" points="-87,290 -58.3,318.8 -87,347.5 -115.7,318.8 	"/>
</g>
<g>
	<defs>
		<path id="SVGID_40_" d="M-122.1,304.4c-2.1,0-3.1,1.6-2.3,3.4l4.3,9c1,1.8,2.9,2.1,4.4,0.7l10.5-10.5c1.5-1.5,1-2.6-1.1-2.6
			H-122.1z"/>
	</defs>
	<clipPath id="SVGID_41_">
		<use xlink:href="#SVGID_40_"  style="overflow:visible;"/>
	</clipPath>
	
		<linearGradient id="SVGID_42_" gradientUnits="userSpaceOnUse" x1="-143.9776" y1="683.3977" x2="-136.3736" y2="683.3977" gradientTransform="matrix(15.4837 15.4837 15.4837 -15.4837 -8508.2383 13081.0254)">
		<stop  offset="0" style="stop-color:#00B583"/>
		<stop  offset="5.777061e-002" style="stop-color:#04B390"/>
		<stop  offset="0.2097" style="stop-color:#0CAFAD"/>
		<stop  offset="0.3714" style="stop-color:#13ACC4"/>
		<stop  offset="0.5454" style="stop-color:#17AAD4"/>
		<stop  offset="0.7405" style="stop-color:#1AA8DE"/>
		<stop  offset="1" style="stop-color:#1BA8E1"/>
	</linearGradient>
	<polygon class="st13" points="-114.5,293.7 -96.5,311.7 -114.5,329.7 -132.4,311.7 	"/>
</g>
<g>
	<defs>
		<path id="SVGID_43_" d="M-9.9,216.7c-2.1,0-3.7,1.7-3.7,3.7v21.3c0,2,1.7,3.7,3.7,3.7h21.3c2,0,3.7-1.7,3.7-3.7v-21.3
			c0-2-1.7-3.7-3.7-3.7H-9.9z"/>
	</defs>
	<clipPath id="SVGID_44_">
		<use xlink:href="#SVGID_43_"  style="overflow:visible;"/>
	</clipPath>
	
		<linearGradient id="SVGID_45_" gradientUnits="userSpaceOnUse" x1="-143.9775" y1="688.9028" x2="-136.3735" y2="688.9028" gradientTransform="matrix(15.4839 15.4839 15.4839 -15.4839 -8495.6035 13068.4199)">
		<stop  offset="0" style="stop-color:#00B583"/>
		<stop  offset="5.777061e-002" style="stop-color:#04B390"/>
		<stop  offset="0.2097" style="stop-color:#0CAFAD"/>
		<stop  offset="0.3714" style="stop-color:#13ACC4"/>
		<stop  offset="0.5454" style="stop-color:#17AAD4"/>
		<stop  offset="0.7405" style="stop-color:#1AA8DE"/>
		<stop  offset="1" style="stop-color:#1BA8E1"/>
	</linearGradient>
	<polygon class="st14" points="0.8,202.3 29.5,231 0.8,259.8 -27.9,231 	"/>
</g>
<g>
	<defs>
		<path id="SVGID_46_" d="M-104.6,248.7l-23.6,23.6c-1.5,1.5-1.5,3.8,0,5.3l23.6,23.6c1.5,1.4,3.8,1.4,5.3,0l23.6-23.6
			c1.4-1.5,1.4-3.8,0-5.3l-23.6-23.6c-0.7-0.7-1.7-1.1-2.6-1.1C-102.9,247.6-103.9,248-104.6,248.7"/>
	</defs>
	<clipPath id="SVGID_47_">
		<use xlink:href="#SVGID_46_"  style="overflow:visible;"/>
	</clipPath>
	
		<linearGradient id="SVGID_48_" gradientUnits="userSpaceOnUse" x1="-143.9776" y1="684.7854" x2="-136.3736" y2="684.7854" gradientTransform="matrix(15.4838 15.4838 15.4838 -15.4838 -8505.2119 13078.0137)">
		<stop  offset="0" style="stop-color:#00B583"/>
		<stop  offset="5.777061e-002" style="stop-color:#04B390"/>
		<stop  offset="0.2097" style="stop-color:#0CAFAD"/>
		<stop  offset="0.3714" style="stop-color:#13ACC4"/>
		<stop  offset="0.5454" style="stop-color:#17AAD4"/>
		<stop  offset="0.7405" style="stop-color:#1AA8DE"/>
		<stop  offset="1" style="stop-color:#1BA8E1"/>
	</linearGradient>
	<polygon class="st15" points="-102,219.9 -46.8,275.1 -102,330.2 -157.1,275.1 	"/>
</g>
<g>
	<path class="st16" d="M346.6,244.3c-7,0-10.1,1.9-16.5,9.6v-3.3c0-4-0.5-4.5-4.5-4.5h-3.3c-4,0-4.5,0.5-4.5,4.5v63.2
		c0,4,0.5,4.5,4.5,4.5h3.3c4,0,4.5-0.5,4.5-4.5v-33.6c0-8.7,0.9-13.9,2.8-17.4c2.6-4.8,8.4-7.2,13.7-6.5c1.2,0.2,2.3,0.6,3.5,1
		c0.4,0.1,0.9,0.3,1.4,0.1c0.4-0.2,0.8-0.5,1.1-0.9c0.7-0.9,1.2-2,1.7-3c0.3-0.6,0.7-1.3,1-2c0.7-1.4,1.2-2.4,1.2-3
		C356.7,246.2,352,244.3,346.6,244.3"/>
	<path class="st16" d="M126.6,244.3c-7,0-10.1,1.9-16.5,9.6v-3.3c0-4-0.5-4.5-4.5-4.5h-3.3c-4,0-4.5,0.5-4.5,4.5v63.2
		c0,4,0.5,4.5,4.5,4.5h3.3c4,0,4.5-0.5,4.5-4.5v-33.6c0-8.7,0.9-13.9,2.8-17.4c2.6-4.8,8.4-7.2,13.7-6.5c1.2,0.2,2.3,0.6,3.5,1
		c0.4,0.1,0.9,0.3,1.4,0.1c0.4-0.2,0.8-0.5,1.1-0.9c0.7-0.9,1.2-2,1.7-3c0.3-0.6,0.7-1.3,1-2c0.7-1.4,1.2-2.4,1.2-3
		C136.7,246.2,132,244.3,126.6,244.3"/>
	<path class="st16" d="M162.4,288.1c0,6.8,0.7,10.4,2.3,13.6c2.4,4.5,7.8,7.3,14.1,7.3c6.1,0,11.5-2.8,13.9-7.3
		c1.6-3.1,2.3-6.8,2.3-13.6v-37.6c0-4,0.5-4.5,4.5-4.5h3.3c4,0,4.5,0.5,4.5,4.5v39c0,10.6-1.7,16.4-6.6,21.8
		c-5.2,5.9-13.1,9.1-21.9,9.1c-9.1,0-16.9-3.1-22.1-9.1c-4.9-5.4-6.6-11.1-6.6-21.8v-39c0-4,0.5-4.5,4.5-4.5h3.3
		c4,0,4.5,0.5,4.5,4.5V288.1z"/>
	<path class="st16" d="M240,256.3c7.1-8.2,14.8-11.8,25.2-11.8c19.8,0,34.5,15.8,34.5,37.6c0,22.1-14.8,38.3-34.8,38.3
		c-10.1,0-18.1-3.8-24.9-12v5.4c0,4-0.5,4.5-4.5,4.5h-3.3c-4,0-4.5-0.5-4.5-4.5V195.9c0-4,0.5-4.5,4.5-4.5h3.3c4,0,4.5,0.5,4.5,4.5
		V256.3z M239.1,282.1c0,16,9.9,27,24.2,27c13.8,0,23.7-11.5,23.7-27.3c0-14.6-10.3-25.9-23.9-25.9
		C249.1,255.8,239.1,266.6,239.1,282.1"/>
	<path class="st16" d="M387.9,218.7c0,4.9-4,8.9-8.9,8.9c-4.9,0-8.9-4-8.9-9c0-4.7,4-8.7,8.9-8.7
		C383.9,209.8,387.9,213.8,387.9,218.7 M385.1,313.7c0,4-0.5,4.5-4.5,4.5h-3.3c-4,0-4.5-0.5-4.5-4.5v-63.2c0-4,0.5-4.5,4.5-4.5h3.3
		c4,0,4.5,0.5,4.5,4.5V313.7z"/>
	<path class="st16" d="M444.5,248.1c2.1-2.1,2.1-2.1,5-2.1h5.4c3.1,0,4.3,0.9,4.3,2.8c0,0.7-0.7,1.7-2.1,3.1l-24.9,24.9l31.5,35.5
		c1.2,1.6,1.9,2.6,1.9,3.3c0,1.7-1.4,2.6-4.5,2.6h-5.4c-3.1,0-3.1,0-5.1-2.3l-27.2-30.6l-3.1,3.1v25.2c0,4-0.5,4.5-4.5,4.5h-3.3
		c-4,0-4.5-0.5-4.5-4.5V195.9c0-4,0.5-4.5,4.5-4.5h3.3c4,0,4.5,0.5,4.5,4.5v76.8L444.5,248.1z"/>
	<path class="st16" d="M470.7,250c0,2-1.6,3.6-3.6,3.6c-2,0-3.6-1.6-3.6-3.6c0-2,1.6-3.5,3.6-3.5C469.1,246.5,470.7,248.1,470.7,250
		 M464.4,250c0,1.6,1.2,2.8,2.7,2.8c1.6,0,2.7-1.2,2.7-2.8c0-1.6-1.1-2.8-2.7-2.8C465.5,247.2,464.4,248.5,464.4,250 M466.5,251.9
		h-0.8v-3.5c0.3-0.1,0.8-0.1,1.4-0.1c0.7,0,1,0.1,1.2,0.3c0.2,0.2,0.3,0.4,0.3,0.8c0,0.4-0.3,0.7-0.7,0.8v0c0.3,0.1,0.5,0.4,0.6,0.9
		c0.1,0.5,0.2,0.7,0.3,0.9h-0.9c-0.1-0.1-0.2-0.4-0.3-0.9c-0.1-0.4-0.3-0.6-0.7-0.6h-0.4V251.9z M466.6,249.9h0.4
		c0.4,0,0.8-0.2,0.8-0.5c0-0.3-0.2-0.5-0.8-0.5c-0.2,0-0.4,0-0.4,0V249.9z"/>
</g>
</svg>
