<svg xmlns="http://www.w3.org/2000/svg" viewBox="0 0 1300 1300">
  <path d="M433.41 29.92c-9.81 5.14-15.18 10.04-19.15 17.74-1.87 3.74-9.57 43.43-17.28 88.49-23.58 140.32-43.19 243.98-72.61 384.3l-2.57 12.38-10.27-10.97c-19.61-20.31-45.76-25.92-67.71-14.48-14.71 7.47-24.05 20.31-34.55 46.93-7.7 20.32-9.11 22.18-15.64 23.58-3.97.7-39.22 1.4-78.45 1.4-67.94 0-71.91.23-81.72 4.9C7.54 596.8 1.94 631.82 22.49 651.9c13.08 12.84 17.04 13.31 88.72 13.54 106 0 125.38-3.04 145.69-24.05l7.94-8.17 6.3 13.54c12.14 25.45 28.72 38.76 51.6 41.56 24.52 2.8 42.49-10.97 56.03-43.19 13.31-31.98 39.93-147.56 63.28-272.93 5.6-29.88 10.51-54.4 11.21-54.4.7 0 26.85 140.09 58.14 311.22 31.28 170.91 58.37 314.73 60.24 319.17 4.2 10.51 9.11 15.87 19.85 21.25 18.45 9.57 43.19 3.04 54.4-14.01 5.14-7.71 7.24-16.34 13.07-57.67 12.36-85.22 33.84-204.06 36.87-204.06.7 0 4.67 5.37 8.4 11.91 14.48 24.75 37.82 38.06 66.54 38.29 29.18 0 40.63-9.34 72.15-58.84l16.11-25.21 57.2-1.17c56.5-1.17 57.44-1.17 63.27-6.77 7.94-7.47 11.44-19.15 10.27-34.09-1.4-15.88-8.17-28.72-20.08-37.12l-9.57-6.77-57.43-1.17c-69.58-1.4-77.51-.23-94.33 14.94-6.3 5.84-17.74 19.84-24.98 31.29-7.47 11.44-13.78 20.78-14.01 20.31-.24-.23-2.57-12.61-5.37-27.32-8.64-48.8-19.38-69.81-40.86-80.55-22.41-11.21-48.33-6.31-64.21 11.91-14.47 16.34-30.12 56.03-43.66 110.67-3.5 14.47-6.77 25.68-7.24 24.52-.23-1.4-26.38-142.66-57.9-314.03-63.04-342.74-58.6-323.83-78.21-333.87-10.96-5.61-28.71-6.08-38.51-.71z"/>
<svg xmlns="http://www.w3.org/2000/svg" viewBox="-120 -120 250 250">
  <path fill="#f5a800" d="M67.648 69.797c-5.246 5.25-5.246 13.758 0 19.008 5.25 5.246 13.758 5.246 19.004 0 5.25-5.25 5.25-13.758 0-19.008-5.246-5.246-13.754-5.246-19.004 0Zm14.207 14.219a6.649 6.649 0 0 1-9.41 0 6.65 6.65 0 0 1 0-9.407 6.649 6.649 0 0 1 9.41 0c2.598 2.586 2.598 6.809 0 9.407ZM86.43 3.672l-8.235 8.234a4.17 4.17 0 0 0 0 5.875l32.149 32.149a4.17 4.17 0 0 0 5.875 0l8.234-8.235c1.61-1.61 1.61-4.261 0-5.87L92.29 3.671a4.159 4.159 0 0 0-5.86 0ZM28.738 108.895a3.763 3.763 0 0 0 0-5.31l-4.183-4.187a3.768 3.768 0 0 0-5.313 0l-8.644 8.649-.016.012-2.371-2.375c-1.313-1.313-3.45-1.313-4.75 0-1.313 1.312-1.313 3.449 0 4.75l14.246 14.242a3.353 3.353 0 0 0 4.746 0c1.3-1.313 1.313-3.45 0-4.746l-2.375-2.375.016-.012Zm0 0"/>
  <path fill="#425cc7" d="M72.297 27.313 54.004 45.605c-1.625 1.625-1.625 4.301 0 5.926L65.3 62.824c7.984-5.746 19.18-5.035 26.363 2.153l9.148-9.149c1.622-1.625 1.622-4.297 0-5.922L78.22 27.313a4.185 4.185 0 0 0-5.922 0ZM60.55 67.585l-6.672-6.672c-1.563-1.562-4.125-1.562-5.684 0l-23.53 23.54a4.036 4.036 0 0 0 0 5.687l13.331 13.332a4.036 4.036 0 0 0 5.688 0l15.132-15.157c-3.199-6.609-2.625-14.593 1.735-20.73Zm0 0"/>
</svg>
</svg>
