<svg version="1.1" id="Layer_1" xmlns:x="ns_extend;" xmlns:i="ns_ai;" xmlns:graph="ns_graphs;" xmlns="http://www.w3.org/2000/svg" xmlns:xlink="http://www.w3.org/1999/xlink" x="0px" y="0px" viewBox="0 0 55.7 55.7" style="enable-background:new 0 0 55.7 55.7;" xml:space="preserve">
 <style type="text/css">
  .st0{fill-rule:evenodd;clip-rule:evenodd;}
	.st1{fill-rule:evenodd;clip-rule:evenodd;}
 </style>
 <metadata>
  <sfw xmlns="ns_sfw;">
   <slices>
   </slices>
   <sliceSourceBounds bottomLeftOrigin="true" height="55.7" width="55.7" x="-108.8" y="0.1">
   </sliceSourceBounds>
  </sfw>
 </metadata>
 <g>
  <path class="st0" d="M10.1,44.2c-1.7,1.5-3.2,1.3-4.7,1.5c-1.4,0-2.7,0.6-3.8,1.5c-1.9,2-1.9,5.2,0.1,7.1c1.9,1.9,5,1.9,6.9,0
		c0.9-1.1,1.4-2.4,1.4-3.8c0.1-1.5,0.1-3.1,1.5-4.7c1.6-1.4,3.2-1.4,4.7-1.5c1.4,0,2.7-0.6,3.8-1.5c1.9-2,1.9-5.2-0.1-7.1
		c-1.9-1.9-5-1.9-6.9,0c-0.9,1.1-1.4,2.4-1.5,3.8C11.3,41,11.6,42.5,10.1,44.2L10.1,44.2z">
  </path>
  <path class="st0" d="M44.2,9.9c-1.7,1.5-3.2,1.3-4.7,1.5c-1.4,0.1-2.7,0.6-3.8,1.5c-1.7,2.1-1.4,5.3,0.7,7c1.8,1.5,4.5,1.5,6.3,0
		c0.9-1.1,1.4-2.4,1.5-3.8c0.1-1.5,0.1-3.1,1.5-4.7c1.6-1.4,3.2-1.4,4.7-1.5c1.4,0,2.7-0.6,3.8-1.5c1.8-2.1,1.7-5.2-0.4-7.1
		c-1.9-1.7-4.8-1.7-6.7,0c-0.9,1.1-1.4,2.4-1.5,3.8C45.5,6.7,45.7,8.2,44.2,9.9L44.2,9.9z">
  </path>
  <path class="st0" d="M44.2,45.8c1.5,1.7,1.3,3.2,1.5,4.7c0,1.4,0.6,2.7,1.5,3.8c2,1.9,5.2,1.9,7.1-0.1c1.9-1.9,1.9-5,0-6.9
		c-1.1-0.9-2.4-1.4-3.8-1.5c-1.5-0.1-3.1-0.1-4.7-1.5c-1.4-1.6-1.4-3.2-1.5-4.7c0-1.4-0.6-2.7-1.5-3.8c-2-1.9-5.2-1.9-7.1,0.1
		c-1.9,1.9-1.9,5,0,6.9c1.1,0.9,2.4,1.4,3.8,1.5C41,44.5,42.5,44.3,44.2,45.8L44.2,45.8z">
  </path>
  <path class="st0" d="M10.1,11.4c1.5,1.7,1.3,3.2,1.5,4.7c0,1.4,0.5,2.7,1.4,3.8c1.7,2.2,4.9,2.5,7,0.8s2.5-4.9,0.8-7
		c-0.2-0.3-0.5-0.5-0.8-0.8c-1.1-0.9-2.4-1.4-3.8-1.5c-1.5-0.1-3.1-0.1-4.7-1.5c-1.4-1.6-1.4-3.2-1.5-4.7c0-1.4-0.5-2.8-1.5-3.8
		c-2-1.9-5.2-1.9-7.1,0.1c-1.9,1.9-1.9,5,0,6.9c1.3,1,2.6,1.5,4,1.5C6.9,10.1,8.4,9.9,10.1,11.4L10.1,11.4z">
  </path>
  <path class="st1" d="M27.9,33.8c3.3,0,6-2.7,6-6s-2.7-6-6-6s-6,2.7-6,6l0,0C21.9,31.2,24.5,33.8,27.9,33.8z">
  </path>
 </g>
</svg>