<?xml version="1.0" encoding="UTF-8"?>
<svg version="1.1" xmlns="http://www.w3.org/2000/svg" width="260" height="235">
<path d="M0 0 C85.8 0 171.6 0 260 0 C260 77.55 260 155.1 260 235 C174.2 235 88.4 235 0 235 C0 157.45 0 79.9 0 0 Z " fill="#FEFEFE" transform="translate(0,0)"/>
<path d="M0 0 C5.18885969 5.24651368 7.14289246 9.85825812 7.375 17.1875 C7.86118866 24.58092066 9.11794614 31.18824013 14.5625 36.5 C15.366875 36.995 16.17125 37.49 17 38 C17.99 38.66 18.98 39.32 20 40 C21.98802587 40.4793258 21.98802587 40.4793258 24.16796875 40.7109375 C24.97943359 40.82179687 25.79089844 40.93265625 26.62695312 41.046875 C28.3137918 41.26303739 30.00129255 41.47410354 31.68945312 41.6796875 C41.37282157 43.02269211 47.50462157 46.5413262 53.75 54.125 C56.93223719 58.89835579 56.44269371 64.49004437 56 70 C53.77367109 76.01108805 50.03775597 81.23510817 44.24609375 84.26171875 C38.42665111 86.17454424 32.03134442 86.21787151 26.3359375 83.9296875 C19.65531591 79.84087897 16.19090709 74.57272126 13.75 67.25 C13.0064784 63.82304135 12.82529887 60.43402154 12.625 56.9375 C12.26150993 51.51258211 11.01153329 48.46872682 8 44 C8 43.34 8 42.68 8 42 C1.35346772 39.11983601 -5.24488888 36.98467265 -12.5 36.625 C-19.60738999 36.12092979 -25.56571196 33.55600244 -30.5 28.375 C-30.995 27.59125 -31.49 26.8075 -32 26 C-32.66 25.01 -33.32 24.02 -34 23 C-34.88141887 15.69814053 -35.1535558 8.65913944 -30.55078125 2.6171875 C-22.19855378 -6.09269203 -9.62744504 -8.09580605 0 0 Z " fill="#030303" transform="translate(49,7)"/>
<path d="M0 0 C7.00827057 5.67409215 8.69840264 12.88410904 9.78515625 21.4453125 C10.78521487 27.90795546 11.84771286 33.12444305 15.78515625 38.4453125 C20.98443336 42.00031823 24.89471165 43.00762026 31.09765625 43.3828125 C39.1644322 44.13517688 45.74667956 45.46394558 51.71875 51.3515625 C55.74396467 56.48301399 56.60728624 61.13517552 56.23046875 67.58203125 C55.22384892 74.05442014 52.88118259 77.86429198 47.72265625 81.8828125 C42.06699852 85.86674031 36.5563458 86.26858555 29.78515625 85.4453125 C23.32505145 82.8676879 19.26514538 78.46866561 16.234375 72.27734375 C14.61800185 68.4357619 14.22486134 64.63207947 13.91015625 60.5078125 C13.06031357 52.28669288 11.31564815 47.36180581 4.91015625 42.0703125 C0.15094272 39.67508468 -5.26919541 39.59186877 -10.484375 38.984375 C-19.10384633 37.73883883 -24.47471239 35.06241749 -29.9375 28.25 C-33.48041718 23.24441059 -32.93192835 17.34434805 -32.21484375 11.4453125 C-29.89941627 6.03746846 -26.20535019 1.5972113 -21.21484375 -1.5546875 C-14.33784069 -3.72404254 -6.29368752 -3.69608754 0 0 Z " fill="#020202" transform="translate(189.21484375,147.5546875)"/>
<path d="M0 0 C5.30617672 2.96678017 9.94320464 7.70461393 11.875 13.5 C12.60078494 20.49864046 12.56515707 26.09287125 8.30078125 31.8828125 C2.76712383 38.15934448 -2.85761541 39.63179416 -10.9375 40.375 C-18.41119465 41.19703868 -23.95468534 42.32968534 -29.4375 47.8125 C-33.09173581 53.63220889 -34.2242651 57.44148434 -34.5 64.3125 C-34.90850656 71.6970416 -36.40970134 77.90937579 -41.87109375 83.1875 C-47.74765042 87.63599021 -53.93767535 88.45110461 -61.125 87.5 C-67.6001658 84.89646713 -72.03302691 80.18585735 -75.4375 74.1875 C-77.25979143 67.06399715 -76.45906836 61.23634242 -72.8359375 54.80078125 C-69.3181832 50.07028517 -64.98483693 47.22123486 -59.13378906 46.12792969 C-56.17914926 45.72800334 -53.22114983 45.44000373 -50.25195312 45.17236328 C-44.89199753 44.67211675 -40.25362607 44.15922156 -36.125 40.5 C-31.98193528 35.30805813 -30.17974756 30.56784937 -29.53076172 23.95263672 C-28.01161491 9.05684153 -28.01161491 9.05684153 -22.19140625 3.73046875 C-15.42081851 -1.57419357 -8.19473277 -3.62612931 0 0 Z " fill="#030303" transform="translate(91.125,145.5)"/>
<path d="M0 0 C5.27817381 2.96434098 8.71243235 6.32012752 10.8125 12.0625 C11.71279975 18.33646386 11.82481354 23.88790054 9.125 29.6875 C2.78963639 36.19408965 -2.54915162 39.03777701 -11.5625 39.5 C-18.85861746 39.93608978 -25.07012744 41.35516247 -30.125 46.9375 C-33.6068924 52.21309454 -34.43394283 57.21606679 -35.0625 63.4375 C-35.90793784 70.63426763 -37.51476405 75.67703447 -42.0625 81.4375 C-47.44306256 85.55204784 -53.66384633 85.74359924 -60.1875 85.0625 C-67.62962125 82.39456974 -71.75253042 76.93243916 -75.1875 70.0625 C-75.94319926 63.64985198 -75.84294491 58.18530223 -71.83911133 52.91137695 C-66.54899455 46.98941769 -60.26770088 45.28683832 -52.625 44.5 C-45.40497467 43.72581142 -39.86723228 42.61847446 -34.4453125 37.37890625 C-31.04317898 32.11146505 -30.74605283 27.5702037 -30.48046875 21.3828125 C-29.79245924 13.58537134 -26.94075823 6.41436812 -21.1875 1.0625 C-14.02895521 -3.06742969 -7.49328152 -3.25158913 0 0 Z " fill="#030303" transform="translate(233.1875,3.9375)"/>
<path d="M0 0 C5.86568512 3.4361114 10.83147897 8.98717668 13.85546875 15.03515625 C15.36069097 23.39750194 14.85124904 30.73814768 10.41796875 38.16015625 C5.34697105 44.12867567 -0.45781577 47.47435899 -8.1796875 48.5078125 C-16.12108156 48.94341639 -22.40934935 46.78704432 -28.43359375 41.55078125 C-33.36277001 36.25738014 -35.65452838 30.47395456 -36.08203125 23.28515625 C-35.832665 16.52109659 -33.20917839 10.97458517 -28.609375 6.046875 C-20.5062732 -1.2686356 -10.65114188 -3.464441 0 0 Z " fill="#020202" transform="translate(140.58203125,93.83984375)"/>
<path d="M0 0 C85.8 0 171.6 0 260 0 C260 0.66 260 1.32 260 2 C251.09 2 242.18 2 233 2 C233 2.66 233 3.32 233 4 C232.360625 3.835 231.72125 3.67 231.0625 3.5 C225.65391757 2.61696613 220.29586226 2.4868965 215 4 C215 3.34 215 2.68 215 2 C158.57 2 102.14 2 44 2 C43.67 2.66 43.34 3.32 43 4 C42.443125 3.91621094 41.88625 3.83242188 41.3125 3.74609375 C35.94208892 3.02943416 31.34616568 3.12517289 26 4 C26 3.34 26 2.68 26 2 C17.42 2 8.84 2 0 2 C0 1.34 0 0.68 0 0 Z " fill="#EFEFEF" transform="translate(0,0)"/>
</svg>
