<svg xmlns="http://www.w3.org/2000/svg" xml:space="preserve" id="Calque_1" x="0" y="0" version="1.1" viewBox="0 0 372.25 99.3"><style>.st0{fill:#f37021}</style><path d="M305.03 97.13h-16.6c-2.73 0-4.44-2.44-3.07-4.39l23.59-33.5-23.58-33.39c-1.38-1.95.33-4.39 3.06-4.39h14.55c1.26 0 2.43.55 3.07 1.45l25.63 36.33zM352.59 74.93 326.2 37.41 351.46 1.6c.7-.99 1.99-1.61 3.39-1.61h13.47c3.02 0 4.91 2.7 3.39 4.85L348.72 37.4l23 32.66c1.52 2.15-.37 4.85-3.39 4.85h-15.74" class="st0"/><path d="M178.65 97.33h-8.5c-2.21 0-4-1.79-4-4V83.4h-.3q-3.03 7.26-9.99 11.58c-4.64 2.88-10.14 4.31-16.5 4.31-4.44 0-8.88-.81-13.32-2.42s-8.4-4.06-11.88-7.34-6.31-7.37-8.48-12.26-3.25-10.67-3.25-17.33c0-5.65.98-10.9 2.95-15.74s4.74-9.01 8.33-12.49c3.58-3.48 7.82-6.21 12.72-8.17 4.89-1.97 10.32-2.95 16.27-2.95q8.775 0 16.2 2.88c4.94 1.92 9.16 4.62 12.64 8.1s6.21 7.67 8.17 12.56c1.97 4.9 2.95 10.37 2.95 16.42v32.79c-.01 2.2-1.8 3.99-4.01 3.99M142.69 82.5c6.66 0 11.98-2.09 15.97-6.28s5.98-9.61 5.98-16.27-1.99-12.08-5.98-16.27-9.31-6.28-15.97-6.28-12.01 2.1-16.05 6.28c-4.04 4.19-6.06 9.61-6.06 16.27s2.02 12.09 6.06 16.27 9.39 6.28 16.05 6.28M195.41 94.16V3.19c0-1.75 1.57-3.17 3.5-3.17h11.01c1.93 0 3.5 1.42 3.5 3.17v90.97c0 1.75-1.57 3.17-3.5 3.17h-11.01c-1.93 0-3.5-1.42-3.5-3.17M226.11 93.82V3.54c0-1.94 1.74-3.51 3.88-3.51h10.25c2.14 0 3.88 1.57 3.88 3.51v90.28c0 1.94-1.74 3.51-3.88 3.51h-10.25c-2.15 0-3.88-1.57-3.88-3.51M255.74 93.27V25.58a4.1 4.1 0 0 1 4.1-4.1h9.81a4.1 4.1 0 0 1 4.1 4.1v67.68c0 2.2-1.78 3.98-3.98 3.98h-10.06c-2.19.01-3.97-1.77-3.97-3.97"/><path d="M166.18 93.26V25.44c0-2.2 1.63-3.98 3.63-3.98h9.2c2.01 0 3.63 1.78 3.63 3.98v67.82c0 2.2-1.63 3.98-3.63 3.98h-9.2c-2 .01-3.63-1.78-3.63-3.98M19.71 95.4.14 23.53 0 22.95c0-.97.5-1.46 1.5-1.46h16.45c1 0 1.63.49 1.9 1.46l9.79 44.2c.09.29.22.44.41.44.18 0 .32-.15.41-.44l10.19-44.2c.27-.97.9-1.46 1.9-1.46h14.27c1 0 1.63.49 1.9 1.46L69.46 67.3c.09.29.23.44.41.44s.32-.15.41-.44l10.6-44.35c.27-.97.9-1.46 1.9-1.46l16.31.29c.54 0 .93.17 1.16.51s.29.8.2 1.39L80.6 95.4c-.27.98-.86 1.46-1.77 1.46H62.39c-1 0-1.63-.49-1.9-1.46L50.02 56.17c-.09-.29-.23-.44-.41-.44s-.32.15-.41.44L39.96 95.4c-.27.98-.91 1.46-1.9 1.46H21.61c-1 0-1.63-.49-1.9-1.46"/><path d="M269.67 17.94h-9.65c-2.27 0-4.14-1.86-4.14-4.14V4.16c0-2.27 1.86-4.14 4.14-4.14h9.65c2.27 0 4.14 1.86 4.14 4.14v9.65c-.01 2.27-1.87 4.13-4.14 4.13" class="st0"/></svg>