<svg xmlns="http://www.w3.org/2000/svg" viewBox="0 0 450.2 421.8">
  <path fill="#6088ee" d="M393.1,154.1v-53.2c0-31.3-24.9-56.7-56-57.7v111h56Z"/>
  <path fill="#0a1726" d="M195.9,209.9v85.4h75.8c20.8,0,37.7-16.9,37.7-37.7v-76.5h-84.7c-15.9,0-28.8,12.9-28.8,28.8Z"/>
  <path fill="#6088ee" d="M224.7,154.1h84.7V42.9H115.1c-32,0-57.9,25.9-57.9,57.9v194.4h111.8v-85.4c0-30.8,25-55.8,55.8-55.8Z"/>
  <path fill="#6088ee" d="M337.1,257.5c0,36-29.3,65.3-65.3,65.3h-75.8v56h139.3c32,0,57.9-25.9,57.9-57.9v-140h-56v76.5Z"/>
  <path fill="#6088ee" d="M57.3,322.9c1,31.1,26.4,56,57.7,56h53.9v-56H57.3Z"/>
</svg>
