<?xml version="1.0" encoding="UTF-8"?>
<svg id="logosandtypes_com" data-name="logosandtypes com" xmlns="http://www.w3.org/2000/svg" viewBox="0 0 150 150">
  <defs>
    <style>
      .cls-1 {
        fill: none;
      }
    </style>
  </defs>
  <path id="Layer_3" data-name="Layer 3" class="cls-1" d="M0,0H150V150H0V0Z"/>
  <path d="M138.83,82.38c-9.81-10.13-21.9-17.77-35.26-22.29,2.82,6.75,3.93,15.09,3.93,24.44H59.68c.81,11.15,8.6,17.47,19.76,17.47,8.71,0,16.24-3.23,22.95-6.99v14.64c-6.58,3.63-14.1,5.5-23.78,5.5-22.83,0-36.12-13.16-36.12-35.86-.1-6.62,1.26-13.18,3.98-19.22-13.38,4.51-25.49,12.16-35.31,22.31l-9.07-8.83c18.9-19.56,44.89-30.66,72.09-30.78,.14,0,.27-.02,.41-.02,.05,0,.09,0,.15,0,.09,0,.16,0,.25,0,27.49-.09,53.82,11.03,72.92,30.8l-9.08,8.83Zm-48.52-10.21c-.53-8.73-4.56-16.25-14.64-16.25s-15.17,6.98-15.99,16.25h30.63Z"/>
</svg>