<?xml version="1.0" encoding="utf-8"?>
<svg viewBox="0 0 64 64" xmlns="http://www.w3.org/2000/svg">
  <ellipse cx="32.01" cy="31.987" rx="31.727" ry="31.725" fill="#cc092f" id="ellipse24" style=""/>
  <path d="M 59.965 40.557 C 56.336 39.111 53.014 39.596 49.684 41.615 C 49.684 41.615 48.471 42.355 48.107 42.584 C 46.556 43.557 45.092 44.479 43.685 44.479 C 42.343 44.479 41.022 44.12 40.463 41.523 C 39.591 37.472 37.465 27.518 36.537 22.588 C 35.992 19.69 35.693 18.129 35.382 17.068 C 34.835 15.203 33.835 14.189 32.414 14.027 C 32.414 14.027 32.191 13.996 32.01 13.996 C 31.83 13.996 31.584 14.031 31.584 14.031 C 30.177 14.199 29.182 15.213 28.639 17.068 C 28.328 18.129 28.029 19.69 27.484 22.588 C 26.556 27.518 24.43 37.472 23.558 41.523 C 22.999 44.12 21.678 44.479 20.336 44.479 C 18.929 44.479 17.466 43.557 15.914 42.584 C 15.551 42.355 14.335 41.615 14.335 41.615 C 11.007 39.596 7.683 39.111 4.057 40.557 C 3.273 40.87 2.501 41.22 1.767 41.574 C 2.269 43.149 2.894 44.699 3.623 46.155 C 4.426 45.76 5.268 45.368 6.128 45.114 C 7.367 44.749 8.637 44.729 9.868 45.142 C 11.064 45.542 12.129 46.252 13.19 46.918 C 15.189 48.174 17.454 49.599 20.336 49.599 C 24.608 49.599 27.605 47.049 28.563 42.601 C 29.305 39.154 30.951 31.459 32.008 26.152 C 32.008 26.152 34.716 39.154 35.457 42.601 C 36.414 47.049 39.414 49.599 43.685 49.599 C 46.567 49.599 48.832 48.174 50.831 46.918 C 51.892 46.252 52.957 45.542 54.153 45.142 C 55.382 44.729 56.654 44.749 57.893 45.114 C 58.753 45.368 59.594 45.76 60.397 46.155 C 61.128 44.699 61.751 43.149 62.254 41.574 C 61.519 41.22 60.748 40.87 59.965 40.557" fill="#ffffff" id="path26" style=""/>
</svg>
