<?xml version="1.0" encoding="UTF-8" standalone="no"?>
<!-- Created with Inkscape (http://www.inkscape.org/) -->

<svg
   xmlns:dc="http://purl.org/dc/elements/1.1/"
   xmlns:cc="http://creativecommons.org/ns#"
   xmlns:rdf="http://www.w3.org/1999/02/22-rdf-syntax-ns#"
   xmlns:svg="http://www.w3.org/2000/svg"
   xmlns="http://www.w3.org/2000/svg"
   xmlns:sodipodi="http://sodipodi.sourceforge.net/DTD/sodipodi-0.dtd"
   xmlns:inkscape="http://www.inkscape.org/namespaces/inkscape"
   width="200"
   height="57"
   viewBox="0 0 52.916666 15.08125"
   version="1.1"
   id="svg8"
   inkscape:version="0.92.2 (5c3e80d, 2017-08-06)"
   sodipodi:docname="ABUSE_logo_web.svg"
   inkscape:export-filename="C:\Users\ek\Dropbox\erom\ABUSE.png"
   inkscape:export-xdpi="96"
   inkscape:export-ydpi="96">
  <defs
     id="defs2" />
  <sodipodi:namedview
     id="base"
     pagecolor="#ffffff"
     bordercolor="#666666"
     borderopacity="1.0"
     inkscape:pageopacity="0.0"
     inkscape:pageshadow="2"
     inkscape:zoom="11.313708"
     inkscape:cx="101.08213"
     inkscape:cy="45.333045"
     inkscape:document-units="px"
     inkscape:current-layer="layer1"
     showgrid="false"
     inkscape:pagecheckerboard="false"
     inkscape:snap-grids="true"
     showguides="true"
     inkscape:guide-bbox="true"
     inkscape:measure-start="0,0"
     inkscape:measure-end="0,0"
     inkscape:snap-text-baseline="false"
     inkscape:window-width="3200"
     inkscape:window-height="1708"
     inkscape:window-x="-12"
     inkscape:window-y="-12"
     inkscape:window-maximized="1"
     units="px" />
  <metadata
     id="metadata5">
    <rdf:RDF>
      <cc:Work
         rdf:about="">
        <dc:format>image/svg+xml</dc:format>
        <dc:type
           rdf:resource="http://purl.org/dc/dcmitype/StillImage" />
        <dc:title></dc:title>
      </cc:Work>
    </rdf:RDF>
  </metadata>
  <g
     inkscape:label="Ebene 1"
     inkscape:groupmode="layer"
     id="layer1"
     transform="translate(0,-281.91876)">
    <g
       transform="matrix(0.06873114,0,0,0.06873114,-0.07153201,219.66344)"
       style="font-style:normal;font-weight:normal;font-size:40px;line-height:1.25;font-family:sans-serif;letter-spacing:0px;word-spacing:0px;fill:#ffffff;fill-opacity:1;stroke:none"
       id="flowRoot4873" />
    <g
       transform="matrix(0.06873114,0,0,0.06873114,-0.07153201,219.66344)"
       style="font-style:normal;font-weight:normal;font-size:40px;line-height:1.25;font-family:sans-serif;letter-spacing:0px;word-spacing:0px;fill:#ffffff;fill-opacity:1;stroke:none"
       id="flowRoot4936" />
    <path
       style="fill:#ffffff;fill-opacity:1;stroke:none;stroke-width:0.01138251"
       d="m 41.174718,296.93645 h 0.630091 v -15.00233 h -0.630091 z"
       id="rect5110-1-7-8-9"
       inkscape:connector-curvature="0" />
    <g
       aria-label="ABUSE"
       style="font-style:normal;font-weight:normal;font-size:135.04162598px;line-height:1.25;font-family:sans-serif;letter-spacing:0px;word-spacing:0px;fill:#ffffff;fill-opacity:1;stroke:none;stroke-width:3.3760407"
       id="text3709-4-1-3-8-4-0-0-5"
       transform="matrix(0.08746546,0,0,0.08746546,167.06297,486.52917)">
      <path
         d="m -1853.032,-2245.7809 h -22.8146 l -13.8471,36.0023 h -17.2099 l 35.0133,-88.2254 h 14.7701 l 35.0133,88.2254 h -17.078 z m -11.5392,-30.991 c -3.0771,9.2314 -5.8246,16.9462 -8.2423,23.1444 l -3.0331,7.8466 h 22.8146 l -3.0331,-7.8466 c -2.4177,-6.2422 -5.1652,-13.957 -8.2423,-23.1444 z"
         style="font-style:normal;font-variant:normal;font-weight:bold;font-stretch:normal;font-family:Corbel;-inkscape-font-specification:'Corbel Bold';letter-spacing:5.29166651px;fill:#ffffff;stroke-width:3.3760407"
         id="path5322"
         inkscape:connector-curvature="0"
         sodipodi:nodetypes="cccccccccccccccc" />
      <path
         d="m -1740.2609,-2274.53 q 0,5.7367 -2.5716,10.5502 -2.5716,4.7475 -8.506,7.9126 v 0.2637 q 3.2969,1.121 6.0004,2.9013 2.7694,1.7144 4.6816,4.1541 1.9781,2.3738 3.0331,5.4069 1.121,3.0332 1.121,6.7917 0,3.231 -1.055,6.9235 -0.9891,3.6926 -3.5607,7.1873 -2.5716,3.4288 -6.8576,6.3301 -4.286,2.9012 -10.8139,4.6156 -1.6484,0.3957 -3.6266,0.7254 -1.9122,0.3297 -4.286,0.5934 -2.3737,0.1978 -5.275,0.3297 -2.9013,0.066 -6.5279,0.066 h -25.65 v -88.2254 h 30.6613 q 9.8248,0 15.8252,1.9781 4.4838,1.4507 7.7807,3.8245 3.2969,2.3078 5.407,5.2091 2.1759,2.8353 3.165,6.0663 1.055,3.1651 1.055,6.396 z m -47.7393,26.3753 v 24.8588 h 10.5501 q 4.2201,0 7.2532,-0.1978 3.0332,-0.2638 5.2091,-0.7913 3.3629,-0.7253 5.6048,-1.9122 2.2419,-1.2528 3.6266,-2.7694 1.3847,-1.5825 1.9782,-3.4288 0.5934,-1.9122 0.5934,-4.0222 0,-3.6926 -2.0441,-6.462 -2.0441,-2.7694 -6.396,-4.1541 -1.9122,-0.5934 -4.4838,-0.8572 -2.5716,-0.2638 -6.5938,-0.2638 z m 14.5723,-13.5173 q 6.5939,0 9.8248,-1.3188 3.6267,-1.5165 5.1432,-4.1541 1.5826,-2.7035 1.5826,-6.0663 0,-3.4947 -1.7804,-6.1982 -1.7803,-2.7694 -6.0663,-4.0882 -1.7803,-0.5275 -4.1541,-0.7253 -2.3738,-0.2638 -5.8685,-0.2638 h -13.2536 v 22.8147 z"
         style="font-style:normal;font-variant:normal;font-weight:bold;font-stretch:normal;font-family:Corbel;-inkscape-font-specification:'Corbel Bold';letter-spacing:5.29166651px;fill:#ffffff;stroke-width:3.3760407"
         id="path5324"
         inkscape:connector-curvature="0" />
      <path
         d="m -1678.1964,-2208.1301 q -6.9235,0 -12.4623,-1.3847 -5.5388,-1.3188 -9.7589,-3.8244 -4.22,-2.5716 -7.1872,-6.1982 -2.9673,-3.6926 -4.7476,-8.3083 -1.4506,-3.6925 -2.11,-8.1763 -0.5935,-4.4838 -0.5935,-10.0226 v -51.9594 h 16.1549 v 50.5087 q 0,9.3633 2.2419,14.6383 2.5057,5.8685 7.3192,8.5061 4.8135,2.5716 11.3414,2.5716 6.5278,0 11.3413,-2.5716 4.8135,-2.6376 7.3192,-8.5061 2.2419,-5.275 2.2419,-14.6383 v -50.5087 h 16.1549 v 51.9594 q 0,5.5388 -0.6594,10.0226 -0.5935,4.4838 -2.0441,8.1763 -1.7803,4.6157 -4.8135,8.3083 -2.9672,3.6266 -7.3191,6.1982 -4.286,2.5056 -9.8908,3.8244 -5.6047,1.3847 -12.5283,1.3847 z"
         style="font-style:normal;font-variant:normal;font-weight:bold;font-stretch:normal;font-family:Corbel;-inkscape-font-specification:'Corbel Bold';letter-spacing:5.29166651px;fill:#ffffff;stroke-width:3.3760407"
         id="path5326"
         inkscape:connector-curvature="0" />
      <path
         d="m -1571.3597,-2235.0989 q 0,-3.3628 -1.6485,-5.4069 -1.6484,-2.11 -4.4838,-3.4288 -2.8353,-1.3188 -6.396,-2.11 -3.4947,-0.8572 -7.3851,-1.6485 -5.1432,-1.1209 -9.8248,-2.6375 -4.6816,-1.5825 -8.2423,-4.286 -3.5606,-2.7694 -5.6707,-6.9895 -2.11,-4.22 -2.11,-10.5501 0,-6.9894 2.4397,-12.1326 2.4397,-5.2092 6.5939,-8.572 4.22,-3.4288 9.8248,-5.0773 5.6707,-1.7144 12.7261,-1.7144 7.0553,0 14.1767,1.3847 7.1213,1.3847 12.2645,3.5607 v 13.8471 q -6.8576,-2.7035 -13.1877,-3.8904 -6.2641,-1.2528 -11.8029,-1.2528 -7.9785,0 -12.3305,2.9013 -4.286,2.9012 -4.286,8.7038 0,3.3629 1.3847,5.5388 1.4507,2.176 3.8904,3.6266 2.4397,1.3847 5.6048,2.2419 3.165,0.8572 6.7257,1.5826 5.6047,1.1868 10.682,2.7694 5.1432,1.5165 9.0995,4.2859 3.9563,2.7695 6.2641,7.2533 2.3078,4.4178 2.3078,11.3413 0,7.1214 -2.6375,12.3305 -2.6375,5.2091 -7.517,8.6379 -4.8135,3.3629 -11.737,5.0113 -6.9235,1.6485 -15.1658,1.6485 -7.1873,0 -14.1767,-1.4506 -6.9235,-1.3848 -11.5392,-3.9563 v -13.6493 q 6.5279,2.8354 12.7261,4.1541 6.1982,1.2529 12.792,1.2529 3.8244,0 7.517,-0.5935 3.6925,-0.6594 6.5938,-2.1759 2.9672,-1.5166 4.7475,-4.0882 1.7804,-2.6375 1.7804,-6.462 z"
         style="font-style:normal;font-variant:normal;font-weight:bold;font-stretch:normal;font-family:Corbel;-inkscape-font-specification:'Corbel Bold';letter-spacing:5.29166651px;fill:#ffffff;stroke-width:3.3760407"
         id="path5328"
         inkscape:connector-curvature="0" />
      <path
         d="m -1515.2296,-2223.2959 h 43.3874 v 13.5173 h -59.5423 v -88.2254 h 57.1685 v 13.5173 h -41.0136 v 22.8147 h 35.211 v 13.5173 h -35.211 z"
         style="font-style:normal;font-variant:normal;font-weight:bold;font-stretch:normal;font-family:Corbel;-inkscape-font-specification:'Corbel Bold';letter-spacing:5.29166651px;fill:#ffffff;stroke-width:3.3760407"
         id="path5330"
         inkscape:connector-curvature="0" />
    </g>
    <g
       aria-label="ch"
       style="font-style:normal;font-weight:normal;font-size:135.04162598px;line-height:1.25;font-family:sans-serif;letter-spacing:0px;word-spacing:0px;fill:#ffffff;fill-opacity:1;stroke:none;stroke-width:3.3760407"
       id="text3709-4-1-3-4-0-5-8-7-6-3"
       transform="matrix(0.08746546,0,0,0.08746546,-9.7619303,290.63538)">
      <path
         d="m 643.37682,-60.338706 q 3.00462,0 5.74796,0.653177 2.74335,0.609633 4.70288,1.741807 v 5.617327 q -2.74335,-1.045084 -5.05124,-1.567626 -2.30789,-0.522542 -4.70288,-0.522542 -2.52562,0 -5.00769,0.827358 -2.48208,0.827359 -4.44161,2.743346 -1.95953,1.872442 -3.1788,5.007695 -1.17572,3.091707 -1.17572,7.707495 0,3.352978 0.87091,6.183415 0.91444,2.830436 2.65625,4.920604 1.78535,2.046623 4.44161,3.222343 2.65625,1.132174 6.13987,1.132174 2.52562,0 5.09478,-0.522542 2.56917,-0.566087 5.0077,-1.567626 v 5.617327 q -0.74027,0.435452 -1.95953,0.870903 -1.17572,0.435452 -2.61272,0.740268 -1.43699,0.348362 -3.04816,0.522542 -1.61117,0.217726 -3.22234,0.217726 -4.18034,0 -7.92522,-1.26281 -3.70134,-1.26281 -6.48823,-3.87552 -2.78689,-2.61271 -4.39806,-6.618866 -1.61118,-4.006156 -1.61118,-9.492847 0,-4.093247 0.82736,-7.359134 0.87091,-3.265888 2.35144,-5.747963 1.48054,-2.482075 3.44007,-4.223882 2.00308,-1.741807 4.22388,-2.830436 2.26435,-1.132174 4.65934,-1.611171 2.39498,-0.522542 4.65933,-0.522542 z"
         style="font-style:normal;font-variant:normal;font-weight:normal;font-stretch:normal;font-size:89.18051147px;font-family:Corbel;-inkscape-font-specification:Corbel;letter-spacing:5.29166651px;fill:#ffffff;stroke-width:3.3760407"
         id="path842"
         inkscape:connector-curvature="0" />
      <path
         d="m 677.27767,-53.589205 h 0.13063 q 1.13218,-1.43699 2.52562,-2.656255 1.39345,-1.26281 3.09171,-2.133714 1.69826,-0.914448 3.65779,-1.43699 1.95953,-0.522542 4.22388,-0.522542 2.35144,0 4.70288,0.653177 2.35144,0.609633 4.35452,2.220804 2.00308,1.611171 3.26589,4.485153 1.26281,2.873981 1.26281,7.402679 v 27.694729 h -6.7495 v -26.6061 q 0,-5.007695 -1.91599,-7.533315 -1.87244,-2.52562 -6.18342,-2.52562 -3.5707,0 -6.79304,1.959533 -3.22235,1.915988 -5.57378,5.312511 v 29.392991 h -6.74951 v -63.053409 h 6.74951 z"
         style="font-style:normal;font-variant:normal;font-weight:normal;font-stretch:normal;font-size:89.18051147px;font-family:Corbel;-inkscape-font-specification:Corbel;letter-spacing:5.29166651px;fill:#ffffff;stroke-width:3.3760407"
         id="path844"
         inkscape:connector-curvature="0" />
    </g>
  </g>
</svg>
