<svg width="400" height="400" version="1.1" xmlns="http://www.w3.org/2000/svg" desc="Created with imagetracer.js version 1.2.6" ><path fill="rgb(27,20,27)" stroke="rgb(27,20,27)" stroke-width="1" opacity="1" d="M 0 0 L 400 0 L 400 400 L 0 400 L 0 0 Z M 170 64 Q 130 73 105 97 Q 87 113 75 135 L 64 162 L 59 188 L 59 214 Q 62 215 60 222 L 67 249 Q 78 276 96 296 Q 123 326 170 337 L 172 337 L 172 319 Q 152 314 139 302 Q 127 292 119 280 L 109 257 L 106 240 L 107 217 L 111 202 Q 118 184 129 172 Q 145 153 172 145 L 172 65 L 170 64 Z M 229 64 L 229 82 Q 249 87 263 99 Q 274 109 282 122 L 291 142 L 295 163 L 295 176 L 292 193 Q 287 211 276 225 Q 260 246 231 255 L 229 257 L 229 337 Q 252 333 270 323 Q 286 314 300 301 Q 317 285 328 263 L 338 236 L 342 213 L 341 180 L 334 153 Q 324 126 306 107 Q 291 90 272 79 Q 253 68 229 64 Z M 175 154 L 164 219 L 225 248 L 227 241 L 236 182 L 175 154 Z " /><path fill="rgb(180,196,116)" stroke="rgb(180,196,116)" stroke-width="1" opacity="1" d="M 169.5 64 L 172 64.5 L 169.5 65 L 169.5 64 Z " /><path fill="rgb(180,196,116)" stroke="rgb(180,196,116)" stroke-width="1" opacity="1" d="M 234.5 65 L 237 65.5 L 234.5 66 L 234.5 65 Z " /><path fill="rgb(180,196,116)" stroke="rgb(180,196,116)" stroke-width="1" opacity="1" d="M 124.5 82 L 123.5 84 L 124.5 82 Z " /><path fill="rgb(180,196,116)" stroke="rgb(180,196,116)" stroke-width="1" opacity="1" d="M 118.5 86 L 117.5 88 L 118.5 86 Z " /><path fill="rgb(180,196,116)" stroke="rgb(180,196,116)" stroke-width="1" opacity="1" d="M 282.5 86 L 283.5 88 L 282.5 86 Z " /><path fill="rgb(180,196,116)" stroke="rgb(180,196,116)" stroke-width="1" opacity="1" d="M 115.5 88 L 113.5 91 L 115.5 88 Z " /><path fill="rgb(180,196,116)" stroke="rgb(180,196,116)" stroke-width="1" opacity="1" d="M 286.5 89 L 287.5 91 L 286.5 89 Z " /><path fill="rgb(180,196,116)" stroke="rgb(180,196,116)" stroke-width="1" opacity="1" d="M 110.5 92 L 108.5 95 L 110.5 92 Z " /><path fill="rgb(180,196,116)" stroke="rgb(180,196,116)" stroke-width="1" opacity="1" d="M 290.5 92 L 292.5 95 L 290.5 92 Z " /><path fill="rgb(180,196,116)" stroke="rgb(180,196,116)" stroke-width="1" opacity="1" d="M 259.5 96 L 261.5 99 L 259.5 96 Z " /><path fill="rgb(180,196,116)" stroke="rgb(180,196,116)" stroke-width="1" opacity="1" d="M 104.5 97 L 94.5 108 L 104.5 97 Z " /><path fill="rgb(180,196,116)" stroke="rgb(180,196,116)" stroke-width="1" opacity="1" d="M 297.5 98 L 305.5 107 L 297.5 98 Z " /><path fill="rgb(180,196,116)" stroke="rgb(180,196,116)" stroke-width="1" opacity="1" d="M 265.5 101 L 271.5 108 L 265.5 101 Z " /><path fill="rgb(180,196,116)" stroke="rgb(180,196,116)" stroke-width="1" opacity="1" d="M 308.5 110 L 311.5 114 L 308.5 110 Z " /><path fill="rgb(180,196,116)" stroke="rgb(180,196,116)" stroke-width="1" opacity="1" d="M 91.5 111 L 89.5 114 L 91.5 111 Z " /><path fill="rgb(180,196,116)" stroke="rgb(180,196,116)" stroke-width="1" opacity="1" d="M 274.5 111 L 276.5 114 L 274.5 111 Z " /><path fill="rgb(180,196,116)" stroke="rgb(180,196,116)" stroke-width="1" opacity="1" d="M 87.5 116 L 86.5 118 L 87.5 116 Z " /><path fill="rgb(180,196,116)" stroke="rgb(180,196,116)" stroke-width="1" opacity="1" d="M 313.5 116 L 314.5 118 L 313.5 116 Z " /><path fill="rgb(180,196,116)" stroke="rgb(180,196,116)" stroke-width="1" opacity="1" d="M 84.5 120 L 83.5 122 L 84.5 120 Z " /><path fill="rgb(180,196,116)" stroke="rgb(180,196,116)" stroke-width="1" opacity="1" d="M 82.5 123 L 81.5 125 L 82.5 123 Z " /><path fill="rgb(180,196,116)" stroke="rgb(180,196,116)" stroke-width="1" opacity="1" d="M 80.5 126 L 79.5 128 L 80.5 126 Z " /><path fill="rgb(180,196,116)" stroke="rgb(180,196,116)" stroke-width="1" opacity="1" d="M 321.5 128 L 322.5 130 L 321.5 128 Z " /><path fill="rgb(180,196,116)" stroke="rgb(180,196,116)" stroke-width="1" opacity="1" d="M 325.5 135 L 326.5 137 L 325.5 135 Z " /><path fill="rgb(180,196,116)" stroke="rgb(180,196,116)" stroke-width="1" opacity="1" d="M 292.5 146 L 293 148.5 L 292 148.5 L 292.5 146 Z " /><path fill="rgb(180,196,116)" stroke="rgb(180,196,116)" stroke-width="1" opacity="1" d="M 293.5 151 L 294 153.5 L 293 153.5 L 293.5 151 Z " /><path fill="rgb(180,196,116)" stroke="rgb(180,196,116)" stroke-width="1" opacity="1" d="M 174.5 157 L 175 159.5 L 174 159.5 L 174.5 157 Z " /><path fill="rgb(180,196,116)" stroke="rgb(180,196,116)" stroke-width="1" opacity="1" d="M 294.5 157 L 295 161.5 L 294 161.5 L 294.5 157 Z " /><path fill="rgb(180,196,116)" stroke="rgb(180,196,116)" stroke-width="1" opacity="1" d="M 143.5 158 L 142.5 160 L 143.5 158 Z " /><path fill="rgb(180,196,116)" stroke="rgb(180,196,116)" stroke-width="1" opacity="1" d="M 139.5 161 L 136.5 165 L 139.5 161 Z " /><path fill="rgb(180,196,116)" stroke="rgb(180,196,116)" stroke-width="1" opacity="1" d="M 173.5 163 L 174 165.5 L 173 165.5 L 173.5 163 Z " /><path fill="rgb(180,196,116)" stroke="rgb(180,196,116)" stroke-width="1" opacity="1" d="M 172.5 169 L 173 171.5 L 172 171.5 L 172.5 169 Z " /><path fill="rgb(180,196,116)" stroke="rgb(180,196,116)" stroke-width="1" opacity="1" d="M 128.5 172 L 126.5 175 L 128.5 172 Z " /><path fill="rgb(180,196,116)" stroke="rgb(180,196,116)" stroke-width="1" opacity="1" d="M 61.5 173 L 62 175.5 L 61 175.5 L 61.5 173 Z " /><path fill="rgb(180,196,116)" stroke="rgb(180,196,116)" stroke-width="1" opacity="1" d="M 171.5 174 L 172 176.5 L 171 176.5 L 171.5 174 Z " /><path fill="rgb(180,196,116)" stroke="rgb(180,196,116)" stroke-width="1" opacity="1" d="M 294.5 176 L 295 180.5 L 294 180.5 L 294.5 176 Z " /><path fill="rgb(180,196,116)" stroke="rgb(180,196,116)" stroke-width="1" opacity="1" d="M 124.5 177 L 123.5 179 L 124.5 177 Z " /><path fill="rgb(180,196,116)" stroke="rgb(180,196,116)" stroke-width="1" opacity="1" d="M 60.5 179 L 61 182.5 L 60 182.5 L 60.5 179 Z " /><path fill="rgb(180,196,116)" stroke="rgb(180,196,116)" stroke-width="1" opacity="1" d="M 340.5 179 L 341 182.5 L 340 182.5 L 340.5 179 Z " /><path fill="rgb(180,196,116)" stroke="rgb(180,196,116)" stroke-width="1" opacity="1" d="M 170.5 180 L 171 182.5 L 170 182.5 L 170.5 180 Z " /><path fill="rgb(180,196,116)" stroke="rgb(180,196,116)" stroke-width="1" opacity="1" d="M 293.5 184 L 294 186.5 L 293 186.5 L 293.5 184 Z " /><path fill="rgb(180,196,116)" stroke="rgb(180,196,116)" stroke-width="1" opacity="1" d="M 235.5 185 L 236 187.5 L 235 187.5 L 235.5 185 Z " /><path fill="rgb(180,196,116)" stroke="rgb(180,196,116)" stroke-width="1" opacity="1" d="M 118.5 186 L 117.5 188 L 118.5 186 Z " /><path fill="rgb(180,196,116)" stroke="rgb(180,196,116)" stroke-width="1" opacity="1" d="M 169.5 186 L 170 188.5 L 169 188.5 L 169.5 186 Z " /><path fill="rgb(180,196,116)" stroke="rgb(180,196,116)" stroke-width="1" opacity="1" d="M 59.5 187 L 60 193.5 L 59 193.5 L 59.5 187 Z " /><path fill="rgb(180,196,116)" stroke="rgb(180,196,116)" stroke-width="1" opacity="1" d="M 341.5 188 L 342 194.5 L 341 194.5 L 341.5 188 Z " /><path fill="rgb(180,196,116)" stroke="rgb(180,196,116)" stroke-width="1" opacity="1" d="M 234.5 191 L 235 193.5 L 234 193.5 L 234.5 191 Z " /><path fill="rgb(180,196,116)" stroke="rgb(180,196,116)" stroke-width="1" opacity="1" d="M 168.5 192 L 169 194.5 L 168 194.5 L 168.5 192 Z " /><path fill="rgb(180,196,116)" stroke="rgb(180,196,116)" stroke-width="1" opacity="1" d="M 233.5 197 L 234 199.5 L 233 199.5 L 233.5 197 Z " /><path fill="rgb(180,196,116)" stroke="rgb(180,196,116)" stroke-width="1" opacity="1" d="M 167.5 198 L 168 200.5 L 167 200.5 L 167.5 198 Z " /><path fill="rgb(180,196,116)" stroke="rgb(180,196,116)" stroke-width="1" opacity="1" d="M 232.5 203 L 233 205.5 L 232 205.5 L 232.5 203 Z " /><path fill="rgb(180,196,116)" stroke="rgb(180,196,116)" stroke-width="1" opacity="1" d="M 166.5 204 L 167 206.5 L 166 206.5 L 166.5 204 Z " /><path fill="rgb(180,196,116)" stroke="rgb(180,196,116)" stroke-width="1" opacity="1" d="M 341.5 205 L 342 212.5 L 341 212.5 L 341.5 205 Z " /><path fill="rgb(180,196,116)" stroke="rgb(180,196,116)" stroke-width="1" opacity="1" d="M 59.5 208 L 60 213.5 L 59 213.5 L 59.5 208 Z " /><path fill="rgb(180,196,116)" stroke="rgb(180,196,116)" stroke-width="1" opacity="1" d="M 231.5 208 L 232 210.5 L 231 210.5 L 231.5 208 Z " /><path fill="rgb(180,196,116)" stroke="rgb(180,196,116)" stroke-width="1" opacity="1" d="M 285.5 209 L 284.5 211 L 285.5 209 Z " /><path fill="rgb(180,196,116)" stroke="rgb(180,196,116)" stroke-width="1" opacity="1" d="M 230.5 214 L 231 216.5 L 230 216.5 L 230.5 214 Z " /><path fill="rgb(180,196,116)" stroke="rgb(180,196,116)" stroke-width="1" opacity="1" d="M 164.5 215 L 165 218.5 L 164 218.5 L 164.5 215 Z " /><path fill="rgb(180,196,116)" stroke="rgb(180,196,116)" stroke-width="1" opacity="1" d="M 281.5 216 L 280.5 218 L 281.5 216 Z " /><path fill="rgb(180,196,116)" stroke="rgb(180,196,116)" stroke-width="1" opacity="1" d="M 340.5 217 L 341 220.5 L 340 220.5 L 340.5 217 Z " /><path fill="rgb(180,196,116)" stroke="rgb(180,196,116)" stroke-width="1" opacity="1" d="M 60.5 219 L 61 221.5 L 60 221.5 L 60.5 219 Z " /><path fill="rgb(180,196,116)" stroke="rgb(180,196,116)" stroke-width="1" opacity="1" d="M 106.5 219 L 107 223.5 L 106 223.5 L 106.5 219 Z " /><path fill="rgb(180,196,116)" stroke="rgb(180,196,116)" stroke-width="1" opacity="1" d="M 279.5 219 L 278.5 221 L 279.5 219 Z " /><path fill="rgb(180,196,116)" stroke="rgb(180,196,116)" stroke-width="1" opacity="1" d="M 229.5 220 L 230 222.5 L 229 222.5 L 229.5 220 Z " /><path fill="rgb(180,196,116)" stroke="rgb(180,196,116)" stroke-width="1" opacity="1" d="M 277.5 222 L 276.5 224 L 277.5 222 Z " /><path fill="rgb(180,196,116)" stroke="rgb(180,196,116)" stroke-width="1" opacity="1" d="M 339.5 224 L 340 226.5 L 339 226.5 L 339.5 224 Z " /><path fill="rgb(180,196,116)" stroke="rgb(180,196,116)" stroke-width="1" opacity="1" d="M 61.5 225 L 62 227.5 L 61 227.5 L 61.5 225 Z " /><path fill="rgb(180,196,116)" stroke="rgb(180,196,116)" stroke-width="1" opacity="1" d="M 228.5 226 L 229 228.5 L 228 228.5 L 228.5 226 Z " /><path fill="rgb(180,196,116)" stroke="rgb(180,196,116)" stroke-width="1" opacity="1" d="M 273.5 227 L 262.5 239 L 273.5 227 Z " /><path fill="rgb(180,196,116)" stroke="rgb(180,196,116)" stroke-width="1" opacity="1" d="M 338.5 229 L 339 231.5 L 338 231.5 L 338.5 229 Z " /><path fill="rgb(180,196,116)" stroke="rgb(180,196,116)" stroke-width="1" opacity="1" d="M 227.5 232 L 228 234.5 L 227 234.5 L 227.5 232 Z " /><path fill="rgb(180,196,116)" stroke="rgb(180,196,116)" stroke-width="1" opacity="1" d="M 226.5 238 L 227 240.5 L 226 240.5 L 226.5 238 Z " /><path fill="rgb(180,196,116)" stroke="rgb(180,196,116)" stroke-width="1" opacity="1" d="M 106.5 240 L 107 244.5 L 106 244.5 L 106.5 240 Z " /><path fill="rgb(180,196,116)" stroke="rgb(180,196,116)" stroke-width="1" opacity="1" d="M 259.5 240 L 258.5 242 L 259.5 240 Z " /><path fill="rgb(180,196,116)" stroke="rgb(180,196,116)" stroke-width="1" opacity="1" d="M 255.5 243 L 254.5 245 L 255.5 243 Z " /><path fill="rgb(180,196,116)" stroke="rgb(180,196,116)" stroke-width="1" opacity="1" d="M 327.5 261 L 328 262.5 L 326 263.5 L 327.5 261 Z " /><path fill="rgb(180,196,116)" stroke="rgb(180,196,116)" stroke-width="1" opacity="1" d="M 74.5 264 L 75.5 266 L 74.5 264 Z " /><path fill="rgb(180,196,116)" stroke="rgb(180,196,116)" stroke-width="1" opacity="1" d="M 78.5 271 L 79.5 273 L 78.5 271 Z " /><path fill="rgb(180,196,116)" stroke="rgb(180,196,116)" stroke-width="1" opacity="1" d="M 322.5 271 L 321.5 273 L 322.5 271 Z " /><path fill="rgb(180,196,116)" stroke="rgb(180,196,116)" stroke-width="1" opacity="1" d="M 316.5 280 L 315.5 282 L 316.5 280 Z " /><path fill="rgb(180,196,116)" stroke="rgb(180,196,116)" stroke-width="1" opacity="1" d="M 86.5 283 L 87.5 285 L 86.5 283 Z " /><path fill="rgb(180,196,116)" stroke="rgb(180,196,116)" stroke-width="1" opacity="1" d="M 314.5 283 L 312.5 286 L 314.5 283 Z " /><path fill="rgb(180,196,116)" stroke="rgb(180,196,116)" stroke-width="1" opacity="1" d="M 124.5 287 L 126.5 290 L 124.5 287 Z " /><path fill="rgb(180,196,116)" stroke="rgb(180,196,116)" stroke-width="1" opacity="1" d="M 90.5 288 L 92.5 291 L 90.5 288 Z " /><path fill="rgb(180,196,116)" stroke="rgb(180,196,116)" stroke-width="1" opacity="1" d="M 310.5 288 L 308.5 291 L 310.5 288 Z " /><path fill="rgb(180,196,116)" stroke="rgb(180,196,116)" stroke-width="1" opacity="1" d="M 129.5 293 L 135.5 300 L 129.5 293 Z " /><path fill="rgb(180,196,116)" stroke="rgb(180,196,116)" stroke-width="1" opacity="1" d="M 96.5 295 L 102.5 302 L 96.5 295 Z " /><path fill="rgb(180,196,116)" stroke="rgb(180,196,116)" stroke-width="1" opacity="1" d="M 303.5 296 L 299.5 301 L 303.5 296 Z " /><path fill="rgb(180,196,116)" stroke="rgb(180,196,116)" stroke-width="1" opacity="1" d="M 139.5 302 L 141.5 305 L 139.5 302 Z " /><path fill="rgb(180,196,116)" stroke="rgb(180,196,116)" stroke-width="1" opacity="1" d="M 143.5 305 L 144.5 307 L 143.5 305 Z " /><path fill="rgb(180,196,116)" stroke="rgb(180,196,116)" stroke-width="1" opacity="1" d="M 293.5 305 L 291.5 308 L 293.5 305 Z " /><path fill="rgb(180,196,116)" stroke="rgb(180,196,116)" stroke-width="1" opacity="1" d="M 108.5 306 L 110.5 309 L 108.5 306 Z " /><path fill="rgb(180,196,116)" stroke="rgb(180,196,116)" stroke-width="1" opacity="1" d="M 149.5 309 L 150.5 311 L 149.5 309 Z " /><path fill="rgb(180,196,116)" stroke="rgb(180,196,116)" stroke-width="1" opacity="1" d="M 288.5 309 L 286.5 312 L 288.5 309 Z " /><path fill="rgb(180,196,116)" stroke="rgb(180,196,116)" stroke-width="1" opacity="1" d="M 113.5 310 L 114.5 312 L 113.5 310 Z " /><path fill="rgb(180,196,116)" stroke="rgb(180,196,116)" stroke-width="1" opacity="1" d="M 117.5 313 L 118.5 315 L 117.5 313 Z " /><path fill="rgb(180,196,116)" stroke="rgb(180,196,116)" stroke-width="1" opacity="1" d="M 120.5 315 L 121.5 317 L 120.5 315 Z " /><path fill="rgb(180,196,116)" stroke="rgb(180,196,116)" stroke-width="1" opacity="1" d="M 123.5 317 L 124.5 319 L 123.5 317 Z " /><path fill="rgb(180,196,116)" stroke="rgb(180,196,116)" stroke-width="1" opacity="1" d="M 128.5 320 L 129.5 322 L 128.5 320 Z " /><path fill="rgb(180,196,116)" stroke="rgb(180,196,116)" stroke-width="1" opacity="1" d="M 270.5 321 L 269.5 323 L 270.5 321 Z " /><path fill="rgb(180,196,116)" stroke="rgb(180,196,116)" stroke-width="1" opacity="1" d="M 169.5 336 L 172 336.5 L 169.5 337 L 169.5 336 Z " /><path fill="rgb(180,196,116)" stroke="rgb(180,196,116)" stroke-width="1" opacity="1" d="M 229.5 336 L 232 336.5 L 229.5 337 L 229.5 336 Z " /><path fill="rgb(231,255,146)" stroke="rgb(231,255,146)" stroke-width="1" opacity="1" d="M 229.5 64 Q 280.1 75.4 308 109.5 Q 322.7 126.3 332 148.5 L 340 176.5 L 342 204.5 L 341 205.5 L 341 216.5 L 338 233.5 L 331 254.5 Q 317.9 284.9 294.5 305 Q 280.5 317.5 262.5 326 L 241.5 334 L 229 336 L 229 256.5 L 231.5 256 Q 258.1 247.1 274 227.5 Q 285.9 213.9 292 194.5 L 295 180.5 L 295 157.5 Q 288.6 120.9 265.5 101 Q 250.6 87.2 229 81 L 229.5 64 Z " /><path fill="rgb(231,255,146)" stroke="rgb(231,255,146)" stroke-width="1" opacity="1" d="M 166.5 65 Q 171.9 64.4 172 65.5 L 172 143.5 L 168.5 146 L 156.5 150 L 143.5 158 L 126 174.5 Q 113.9 188.9 108 209.5 L 106 219.5 L 106 244.5 Q 112.8 280.2 135.5 300 L 150.5 311 L 172 320.5 L 172 335.5 Q 172 336.5 167.5 336 Q 119.9 324.1 93 291.5 Q 75.8 271.7 66 244.5 L 60 218.5 L 59 194.5 L 60 193.5 L 60 183.5 L 61 182.5 L 62 171.5 L 71 143.5 Q 84.6 114.6 107.5 95 Q 131.1 74.1 166.5 65 Z " /><path fill="rgb(231,255,146)" stroke="rgb(231,255,146)" stroke-width="1" opacity="1" d="M 175.5 154 L 236 183.5 L 225 247 L 165 219 L 165 212.5 L 167 206.5 L 175.5 154 Z " /></svg>