<svg xmlns="http://www.w3.org/2000/svg" width="32" height="32" viewBox="-17.5 0 74 74">
  <!-- H1 mark converted from H1_mark.eps (BoundingBox: 0 0 39 74).
       PS paths are kept in original coordinates; y-axis is flipped via transform
       since PostScript origin is bottom-left and SVG origin is top-left.
       A square viewBox (-17.5 0 74 74) centres the 39-wide logo horizontally. -->
  <g fill="#000" transform="translate(0,74) scale(1,-1)">
    <!-- Left vertical bar -->
    <path d="M8.5351801,72.1772
             C7.5471559,72.776505 6.3570361,73.085205 4.9580836,73.085205
             C3.4973803,73.085205 2.3072605,72.776505 1.3866018,72.1772
             C0.46706587,71.572235 0,70.780701 0,69.822937
             L0,3.9488461
             C0,3.1132076 0.47829342,2.3544614 1.436003,1.6499923
             C2.386976,0.94439232 3.5591316,0.59272307 4.9580836,0.59272307
             C6.2952843,0.59272307 7.4674401,0.94439232 8.4857788,1.6499923
             C9.4985027,2.347677 10.013847,3.1132076 10.013847,3.9488461
             L10.013847,69.817284
             C10.013847,70.780701 9.5232038,71.559799 8.5351801,72.1772 Z"/>
    <!-- Diagonal crossbar + right vertical bar -->
    <path d="M16.787426,37.608456
             C16.186752,37.046463 15.928518,36.19273 16.039671,35.025776
             C16.142963,33.870132 16.677395,32.769894 17.622755,31.731846
             C18.572605,30.687016 19.634731,30.032301 20.84955,29.754131
             C22.046408,29.482746 22.954716,29.630877 23.555389,30.187216
             L28.857037,33.493584
             L28.857037,3.9488461
             C28.857037,3.1132076 29.317366,2.3544614 30.249252,1.6499923
             C31.15756,0.94439232 32.3241,0.59272307 33.723053,0.59272307
             C35.122005,0.59272307 36.33009,0.94439232 37.342815,1.6499923
             C38.361153,2.3544614 38.870884,3.1132076 38.870884,3.9488461
             L38.870884,43.670509
             C38.870884,44.635056 38.373505,45.413025 37.392216,46.012329
             C36.409805,46.624077 35.189373,46.921471 33.723053,46.921471
             C32.262352,46.921471 31.090195,46.624077 30.194237,46.012329
             L16.787426,37.608456 Z"/>
  </g>
</svg>
