<svg width="260" height="260" xmlns="http://www.w3.org/2000/svg">
 <title>azure_activitylogs_otel</title>
 <defs>
  <linearGradient gradientTransform="matrix(12.212986946105957,0,0,12.212870597839355,-4.416845321655273,5.42540168762207)" gradientUnits="userSpaceOnUse" y2="2.09" x2="8.15" y1="17.5" x1="8.15" id="svg_7">
   <stop stop-color="#1988d9" offset="0"/>
   <stop stop-color="#54aef0" offset="0.9"/>
  </linearGradient>
 </defs>
 <g id="Layer_1">
  <title>Layer 1</title>
  <g id="svg_3" stroke="null">
   <path id="svg_4" fill="#f5a800" d="m219.09761,221.26781c-3.07408,2.99142 -3.07408,7.83923 0,10.83064c3.07642,2.98912 8.062,2.98912 11.13608,0c3.07643,-2.99141 3.07643,-7.83922 0,-10.83064c-3.07408,-2.98912 -8.05966,-2.98912 -11.13608,0zm8.3251,8.1019a3.89622,3.78855 0 0 1 -5.51414,0a3.89681,3.78912 0 0 1 0,-5.36005a3.89622,3.78855 0 0 1 5.51414,0c1.52237,1.47348 1.52237,3.87971 0,5.36005zm2.68088,-45.77945l-4.82559,4.69168a2.44356,2.37604 0 0 0 0,3.34753l18.83887,18.31828a2.44356,2.37604 0 0 0 3.44267,0l4.82501,-4.69226c0.94345,-0.91736 0.94345,-2.42787 0,-3.34467l-18.84708,-18.32115a2.43712,2.36977 0 0 0 -3.43388,0l0,0.00056l0,0.00002zm-33.80669,59.95532a2.20507,2.14413 0 0 0 0,-3.02559l-2.4512,-2.38574a2.208,2.14698 0 0 0 -3.11334,0l-5.06526,4.92815l-0.00937,0.00685l-1.38937,-1.35326c-0.76939,-0.74815 -2.02165,-0.74815 -2.78342,0c-0.76942,0.74756 -0.76942,1.96519 0,2.7065l8.34793,8.11497a1.96481,1.91052 0 0 0 2.7811,0c0.76178,-0.74814 0.76939,-1.96576 0,-2.70421l-1.39171,-1.35326l0.00937,-0.00685l5.06528,-4.92758l0,0.00002zm0,0" stroke="null"/>
   <path id="svg_5" fill="#425cc7" d="m221.82187,197.06075l-10.71945,10.42264c-0.95221,0.92593 -0.95221,2.45071 0,3.3766l6.61931,6.43468c4.67851,-3.27402 11.23921,-2.86893 15.44833,1.22676l5.36061,-5.21301c0.95047,-0.92592 0.95047,-2.44841 0,-3.37431l-13.23802,-12.87334a2.45235,2.38458 0 0 0 -3.47021,0l-0.00055,0l-0.00002,-0.00002zm-6.88358,22.94669l-3.90971,-3.80165c-0.91591,-0.89001 -2.41719,-0.89001 -3.33073,0l-13.78824,13.41292a2.36504,2.29968 0 0 0 0,3.24042l7.81177,7.59648a2.36504,2.29968 0 0 0 3.3331,0l8.86713,-8.63634c-1.87456,-3.76578 -1.53819,-8.315 1.01671,-11.81181l-0.00002,-0.00002zm0,0" stroke="null"/>
  </g>
  <g stroke="null">

   <title stroke="null">Icon-manage-305</title>
   <path stroke="null" fill="#005ba1" d="m19.15422,31.19457l14.7777,-17.22019a7.20566,7.2056 0 0 1 5.4959,-2.44254l141.79269,0a9.89252,9.89243 0 0 1 10.86955,10.13671l0,177.08663a6.9614,6.96134 0 0 1 -2.44257,5.25143l-15.87692,14.53336l-144.96809,0l-9.89249,-4.03027l0.24422,-183.31512z"/>
   <path stroke="null" fill="#fff" d="m31.12299,31.07241l9.03758,-10.25877a6.10649,6.10644 0 0 1 4.27453,-2.19832l132.99942,0a6.35075,6.35069 0 0 1 6.3508,6.35065l0,168.29344a6.35075,6.35069 0 0 1 -2.07619,4.76302l-14.16711,12.82336l-136.41903,-179.77338z"/>
   <path stroke="null" fill="url(#svg_7)" d="m166.56496,30.95026l-146.55583,0a0.73278,0.73277 0 0 0 -0.73275,0.73284l0,183.19296a4.76306,4.76302 0 0 0 4.76306,4.64096l142.52552,0a4.64094,4.64089 0 0 0 4.64101,-4.64096l0,-179.16269a4.76306,4.76302 0 0 0 -4.64101,-4.76311z"/>
   <rect stroke="null" fill="#fff" rx="0.28" height="29.06663" width="80.36145" y="81.1452" x="53.22845"/>
  </g>
 </g>
</svg>