<svg width="55" height="55" xmlns="http://www.w3.org/2000/svg">
 <title>traefik_otel</title>

 <g id="Layer_1">
  <title>Layer 1</title>
  <g id="svg_1" stroke="null">
   <path id="svg_2" fill="#f5a800" d="m40.7809,40.73287c-1.04566,0.9885 -1.04566,2.59043 0,3.57893c1.04646,0.98774 2.74232,0.98774 3.78798,0c1.04646,-0.9885 1.04646,-2.59043 0,-3.57893c-1.04566,-0.98775 -2.74152,-0.98775 -3.78798,0zm2.83181,2.67723a1.32531,1.25191 0 0 1 -1.87565,0a1.32551,1.2521 0 0 1 0,-1.77119a1.32531,1.25191 0 0 1 1.87565,0c0.51785,0.4869 0.51785,1.28203 0,1.77119zm0.91192,-15.12759l-1.64145,1.55034a0.83119,0.78515 0 0 0 0,1.10618l6.40812,6.05319a0.83119,0.78515 0 0 0 1.17104,0l1.64125,-1.55053c0.32091,-0.30314 0.32091,-0.80229 0,-1.10524l-6.41091,-6.05413a0.82899,0.78308 0 0 0 -1.16805,0l0,0.00019zm-11.49949,19.81194a0.75006,0.70852 0 0 0 0,-0.99979l-0.83377,-0.78835a0.75106,0.70946 0 0 0 -1.05902,0l-1.72297,1.62848l-0.00319,0.00226l-0.4726,-0.44718c-0.26171,-0.24721 -0.68767,-0.24721 -0.94679,0c-0.26172,0.24704 -0.26172,0.6494 0,0.89436l2.83959,2.68156a0.66834,0.63132 0 0 0 0.946,0c0.25912,-0.24722 0.26171,-0.64959 0,-0.8936l-0.4734,-0.44718l0.0032,-0.00227l1.72297,-1.62829l-0.00002,0zm0,0" stroke="null"/>
   <path id="svg_3" fill="#425cc7" d="m41.70757,32.73376l-3.64625,3.44412c-0.32391,0.30596 -0.32391,0.80981 0,1.11578l2.25158,2.1263c1.59142,-1.08189 3.82306,-0.94801 5.25481,0.40538l1.82343,-1.72263c0.32331,-0.30597 0.32331,-0.80906 0,-1.11503l-4.50296,-4.25393a0.83418,0.78797 0 0 0 -1.1804,0l-0.0002,0l-0.00001,0.00001zm-2.34147,7.58263l-1.3299,-1.25624c-0.31154,-0.2941 -0.82222,-0.2941 -1.13297,0l-4.69013,4.43224a0.80448,0.75992 0 0 0 0,1.07077l2.65721,2.51022a0.80448,0.75992 0 0 0 1.13376,0l3.01619,-2.85384c-0.63764,-1.24438 -0.52323,-2.74765 0.34583,-3.90316l0.00001,0.00001zm0,0" stroke="null"/>
  </g>
  <g id="svg_4" stroke="null" stroke-width="0">
   <path id="svg_5" fill="#0072C6" d="m21.11221,5.19906l-9.41432,8.0097l-8.03358,14.14728l7.24345,0l10.20445,-22.15698zm1.25235,1.87402l-4.01779,11.11047l7.7037,9.49614l-14.94518,2.51936l24.49382,0l-13.23455,-23.12598l0.00001,0.00001z" stroke="null"/>
  </g>
 </g>
</svg>