<svg width="32" height="32" viewBox="0 0 32 32" fill="none" xmlns="http://www.w3.org/2000/svg">
    <path fill-rule="evenodd" clip-rule="evenodd" d="M17 13H8V15H17V13ZM24 18H8V20H24V18ZM8 23H24V25H8V23Z" fill="#017D73"/>
    <path d="M21.41 0H5C3.34315 0 2 1.34315 2 3V29C2 30.6569 3.34315 32 5 32H27C28.6569 32 30 30.6569 30 29V8.59L21.41 0ZM22 3.41L26.59 8H22V3.41ZM27 30H5C4.44772 30 4 29.5523 4 29V3C4 2.44772 4.44772 2 5 2H20V10H28V29C28 29.5523 27.5523 30 27 30Z" fill="#343741"/>
    <g transform="translate(18, 16) scale(0.8)">
        <path d="M8.648 8.797c-0.746 0.75-0.746 1.958 0 2.708 0.75 0.746 1.958 0.746 2.704 0 0.75-0.75 0.75-1.958 0-2.708-0.746-0.746-1.954-0.746-2.704 0zm2.021 2.023c-0.293 0.296-0.769 0.296-1.062 0-0.293-0.293-0.293-0.769 0-1.062 0.293-0.296 0.769-0.296 1.062 0 0.293 0.293 0.293 0.769 0 1.062zm0.516-9.152l-1.172 1.172c-0.182 0.183-0.182 0.48 0 0.663l4.577 4.577c0.182 0.183 0.48 0.183 0.663 0l1.172-1.172c0.182-0.183 0.182-0.48 0-0.663L11.848 1.668c-0.182-0.183-0.48-0.183-0.663 0zM3.09 16.492c0.165-0.167 0.165-0.438 0-0.605l-0.471-0.472c-0.165-0.166-0.434-0.166-0.6 0l-0.976 0.977-0.268-0.268c-0.148-0.149-0.389-0.149-0.536 0-0.148 0.149-0.148 0.391 0 0.536l1.607 1.606c0.148 0.149 0.389 0.149 0.536 0s0.148-0.391 0-0.536l-0.268-0.268 0.976-0.97zm0 0" fill="#f5a800"/>
        <path d="M9.018 5.485l-2.064 2.086c-0.183 0.184-0.183 0.486 0 0.67l1.274 1.287c1.136-0.818 2.73-0.716 3.752 0.306l1.302-1.302c0.183-0.184 0.183-0.486 0-0.67l-3.601-3.638c-0.183-0.186-0.485-0.186-0.663 0zm-1.678 6.086l-0.949-0.949c-0.177-0.177-0.466-0.177-0.642 0l-3.348 3.351c-0.176 0.178-0.176 0.469 0 0.643l1.896 1.896c0.176 0.178 0.465 0.178 0.643 0l2.153-2.156c-0.455-0.94-0.374-2.076 0.247-2.949zm0 0" fill="#425cc7"/>
    </g>
</svg>
