<svg width="32" height="32" viewBox="0 0 32 32" fill="none" class="antialiased text-content-primary" xmlns="http://www.w3.org/2000/svg" style="filter: none; box-shadow: none;"><path fill-rule="evenodd" clip-rule="evenodd" d="M7.64358 13.4992C4.9857 11.0975 5.0143 6.78228 7.44894 4.18906C10.1833 1.27644 15.0197 0.753169 18.8355 2.65503C19.0919 2.78323 19.2941 2.50368 19.0447 2.30344C15.6357 -0.901376 9.5101 -0.751156 5.84294 2.68623C2.2309 6.07173 2.17758 12.1015 5.78734 15.3691C6.38102 15.9077 7.34402 16.1399 7.87922 15.4901C8.43926 14.8513 8.19206 13.9945 7.64358 13.4992Z" fill="currentColor"></path><path fill-rule="evenodd" clip-rule="evenodd" d="M10.5007 7.64344C12.9025 4.98566 17.2177 5.01422 19.8109 7.4488C22.7236 10.1831 23.2469 15.0195 21.3449 18.8353C21.2167 19.0917 21.4963 19.2938 21.6966 19.0445C24.9013 15.6355 24.7511 9.50994 21.3138 5.84289C17.9283 2.23084 11.8984 2.17752 8.63074 5.78725C8.09222 6.38089 7.85994 7.34392 8.5097 7.87908C9.1485 8.43911 10.0054 8.19191 10.5007 7.64344Z" fill="currentColor"></path><path fill-rule="evenodd" clip-rule="evenodd" d="M16.3561 10.5009C19.0139 12.9026 18.9854 17.2178 16.5508 19.811C13.8165 22.7236 8.98006 23.2469 5.16422 21.345C4.90778 21.2169 4.70566 21.4964 4.95502 21.6966C8.36406 24.9013 14.4896 24.7511 18.1567 21.3138C21.7687 17.9284 21.8221 11.8986 18.2123 8.63091C17.6187 8.09243 16.6556 7.86019 16.1205 8.50991C15.5604 9.14879 15.8077 10.0055 16.3561 10.5009Z" fill="currentColor"></path><path fill-rule="evenodd" clip-rule="evenodd" d="M13.4994 16.3559C11.0976 19.0138 6.78235 18.9852 4.18911 16.5506C1.27647 13.8164 0.753189 8.97999 2.65507 5.16418C2.78323 4.90774 2.50367 4.70562 2.30347 4.95498C-0.901387 8.36399 -0.751167 14.4894 2.68627 18.1566C6.07179 21.7685 12.1016 21.8219 15.3693 18.2122C15.9078 17.6186 16.14 16.6555 15.4902 16.1204C14.8514 15.5603 13.9947 15.8075 13.4994 16.3559Z" fill="currentColor"></path></svg>