<svg width="160" height="24" viewBox="0 0 160 24" fill="none" xmlns="http://www.w3.org/2000/svg">
<path d="M41.9784 10.3408V9.26759H39.7266V17.3993H42.0843V13.5601C42.0867 13.0411 42.1774 12.6155 42.3564 12.2805C42.5352 11.9453 42.7845 11.6959 43.107 11.5349C43.4294 11.3736 43.8096 11.293 44.2454 11.293C44.3337 11.293 44.4218 11.2955 44.505 11.303C44.588 11.308 44.6787 11.3156 44.7745 11.3233V9.14673C44.1448 9.14673 43.5932 9.24753 43.122 9.44889C42.6486 9.65042 42.2681 9.94782 41.9784 10.3408Z" fill="white"/>
<path d="M50.3604 13.5063L50.3628 13.5005L50.3615 13.5011L50.3589 13.5063H50.3604Z" fill="white"/>
<path d="M49.7801 17.5206C50.4299 17.5178 51.0239 17.4148 51.5656 17.2108C52.1099 17.0068 52.5808 16.7197 52.9787 16.3442C53.3772 15.9713 53.687 15.5303 53.9057 15.0216C54.1252 14.5102 54.2362 13.9486 54.2386 13.3342C54.2362 12.7191 54.1252 12.1576 53.9057 11.6462C53.687 11.1372 53.3772 10.6938 52.9787 10.3212C52.5808 9.94813 52.1099 9.66104 51.5656 9.45704C51.0239 9.25304 50.4299 9.14931 49.7801 9.14722C49.1297 9.14931 48.5354 9.25304 47.9916 9.45704C47.447 9.66104 46.9739 9.94813 46.5734 10.3212C46.1726 10.6938 45.8628 11.1372 45.6413 11.6462C45.4222 12.1576 45.3086 12.7191 45.3066 13.3342C45.3086 13.9486 45.4222 14.5102 45.6413 15.0216C45.863 15.5303 46.1726 15.9713 46.5734 16.3442C46.9739 16.7197 47.447 17.0068 47.9916 17.2108C48.5354 17.4148 49.1297 17.5178 49.7801 17.5206ZM49.7801 15.5859C49.3818 15.5831 49.0293 15.4925 48.7142 15.3142C48.4018 15.1353 48.1549 14.8777 47.9737 14.5429C47.7903 14.208 47.6994 13.8051 47.6943 13.3342C47.6994 12.863 47.7903 12.4594 47.9737 12.1249C48.1549 11.7901 48.4018 11.5329 48.7142 11.3539C49.0293 11.1722 49.3818 11.084 49.7801 11.0819C50.1778 11.084 50.5305 11.1722 50.8403 11.3539C51.1503 11.5329 51.3969 11.7901 51.5759 12.1249C51.7547 12.4594 51.8479 12.863 51.8503 13.3342C51.8479 13.8052 51.7547 14.208 51.5759 14.5429C51.3969 14.8777 51.1503 15.1353 50.8403 15.3142C50.5305 15.4925 50.1778 15.5831 49.7801 15.5859Z" fill="white"/>
<path d="M33.7385 6.81934H29.1589V17.3995H31.6074V14.4824H33.7385C34.4464 14.4798 35.0836 14.3918 35.6477 14.2155C36.2145 14.0417 36.6958 13.7871 37.0961 13.4546C37.4942 13.1222 37.8016 12.7215 38.0132 12.2505C38.2246 11.7793 38.3305 11.2503 38.3329 10.6585C38.3305 10.064 38.2248 9.52997 38.0132 9.0562C37.8016 8.58523 37.4942 8.18201 37.0961 7.8496C36.6958 7.51445 36.2145 7.2601 35.6477 7.08626C35.0836 6.90996 34.4464 6.82182 33.7385 6.81934ZM33.6025 12.4874H31.6074V8.81435H33.6025C34.3506 8.81682 34.9123 8.98068 35.2902 9.30056C35.6654 9.61798 35.8543 10.0715 35.8543 10.6585C35.8543 11.0414 35.771 11.3713 35.6026 11.6435C35.4361 11.9154 35.1843 12.1245 34.8518 12.2681C34.5169 12.4143 34.1012 12.4848 33.6025 12.4874Z" fill="white"/>
<path d="M67.9648 13.364C67.9624 12.7092 67.854 12.1222 67.64 11.6007C67.4258 11.0819 67.1285 10.6409 66.7456 10.2758C66.3601 9.91033 65.9145 9.63074 65.403 9.43933C64.8893 9.24546 64.3327 9.1497 63.7331 9.14722C63.1109 9.1497 62.5366 9.25297 62.0099 9.45961C61.4835 9.66346 61.0251 9.95333 60.6347 10.3285C60.2443 10.7015 59.942 11.1422 59.7253 11.6537C59.5087 12.1625 59.3979 12.7217 59.3953 13.334C59.3979 13.9411 59.5087 14.5003 59.7253 15.0091C59.942 15.5181 60.2542 15.9588 60.6624 16.3343C61.068 16.7095 61.5566 16.9993 62.1233 17.2057C62.6925 17.4123 63.3299 17.5181 64.0352 17.5206C64.7682 17.5206 65.4182 17.4073 65.9801 17.1856C66.5418 16.9641 67.0127 16.6364 67.3906 16.2057L66.1362 14.8453C65.8614 15.1099 65.5593 15.3064 65.2292 15.4373C64.9018 15.5658 64.524 15.6314 64.0957 15.6314C63.68 15.6289 63.3123 15.5634 62.9924 15.4323C62.67 15.3013 62.4054 15.1149 62.1964 14.8731C61.9873 14.6287 61.8463 14.3365 61.7682 13.9989H67.9197C67.9272 13.8983 67.9371 13.79 67.9472 13.6764C67.9573 13.5606 67.9648 13.4574 67.9648 13.364ZM63.7481 10.9306C64.1032 10.9331 64.4205 11.0011 64.6977 11.1397C64.9774 11.2783 65.2066 11.4749 65.388 11.7268C65.5668 11.9811 65.6852 12.2785 65.7432 12.6235H61.738C61.7959 12.2733 61.9142 11.9736 62.0956 11.7217C62.2744 11.4674 62.5062 11.2733 62.7883 11.1372C63.0679 11.0011 63.3878 10.9306 63.7481 10.9306Z" fill="white"/>
<path d="M73.1366 17.5206C73.7086 17.518 74.2324 17.4375 74.7084 17.2762C75.1847 17.1152 75.6002 16.8807 75.9527 16.5761C76.3054 16.2687 76.58 15.9008 76.7791 15.4651L74.9504 14.4675C74.7287 14.858 74.4616 15.1427 74.1492 15.3215C73.837 15.5003 73.4944 15.5886 73.1216 15.5861C72.7186 15.5834 72.3582 15.4953 72.0383 15.319C71.7184 15.1401 71.464 14.8833 71.2778 14.5481C71.0913 14.2132 70.9957 13.81 70.9907 13.334C70.9957 12.8578 71.0913 12.4548 71.2778 12.1172C71.464 11.7822 71.7184 11.5276 72.0383 11.3488C72.3582 11.1725 72.7186 11.0819 73.1216 11.0819C73.4944 11.0794 73.837 11.17 74.1492 11.3513C74.4616 11.5327 74.7287 11.8175 74.9504 12.2002L76.7791 11.218C76.58 10.7745 76.3054 10.3966 75.9527 10.0894C75.6002 9.78205 75.1847 9.54764 74.7084 9.38904C74.2324 9.22774 73.7086 9.14722 73.1366 9.14722C72.4718 9.14968 71.8646 9.25297 71.313 9.45713C70.7612 9.66097 70.2825 9.94829 69.8772 10.321C69.474 10.694 69.1618 11.1372 68.9401 11.6461C68.7184 12.1574 68.6052 12.7192 68.6025 13.334C68.6052 13.9486 68.7184 14.5103 68.9401 15.0218C69.1618 15.5306 69.474 15.9713 69.8772 16.3442C70.2825 16.7197 70.7612 17.0068 71.313 17.2109C71.8646 17.4148 72.4718 17.518 73.1366 17.5206Z" fill="white"/>
<path d="M82.8363 15.3443C82.7053 15.4423 82.5593 15.5182 82.3931 15.5685C82.2295 15.6214 82.0606 15.6465 81.8842 15.6465C81.5643 15.6465 81.3151 15.5535 81.1387 15.3719C80.9623 15.188 80.874 14.9236 80.8716 14.5734V11.2633H82.8966V9.44946H80.8716V7.46948H78.5139V9.44946H77.2593V11.2633H78.5139V14.6037C78.5163 15.2485 78.6374 15.7876 78.8739 16.221C79.1132 16.6517 79.4585 16.9766 79.9118 17.1932C80.3628 17.4124 80.9093 17.5207 81.5515 17.5207C81.7959 17.5207 82.0329 17.5031 82.2647 17.4654C82.4963 17.4276 82.7154 17.3696 82.9195 17.294C83.1261 17.2185 83.3073 17.1227 83.4711 17.0069L82.8363 15.3443Z" fill="white"/>
<path d="M84.6377 17.3995H89.4439C90.3129 17.3971 91.1038 17.2709 91.8166 17.0241C92.5297 16.7748 93.1418 16.4196 93.6582 15.956C94.1745 15.4926 94.5726 14.9358 94.8522 14.2885C95.1343 13.6384 95.2754 12.913 95.2778 12.1094C95.2754 11.3058 95.1343 10.5802 94.8522 9.93035C94.5726 9.28299 94.1745 8.7263 93.6582 8.26275C93.1418 7.79928 92.5297 7.44386 91.8166 7.19453C91.1038 6.94768 90.3129 6.8218 89.4439 6.81934H84.6377V17.3995ZM87.0861 15.3893V8.82961H89.323C90.0285 8.83208 90.6403 8.96568 91.1593 9.23004C91.6781 9.49214 92.0788 9.86989 92.3659 10.3586C92.6506 10.8474 92.7966 11.4319 92.7992 12.1094C92.7966 12.787 92.6506 13.3716 92.3659 13.8603C92.0788 14.3488 91.6781 14.7243 91.1593 14.9889C90.6403 15.2532 90.0285 15.3869 89.323 15.3893L87.0861 15.3893Z" fill="white"/>
<path d="M97.8046 8.13471C98.0995 8.13215 98.3564 8.07165 98.5755 7.95583C98.7946 7.84004 98.9635 7.67873 99.0846 7.47713C99.2079 7.2732 99.2682 7.03888 99.2708 6.7743C99.2682 6.52992 99.2079 6.31331 99.0846 6.1219C98.9635 5.93307 98.7946 5.78174 98.5755 5.67343C98.3564 5.56266 98.0995 5.50719 97.8046 5.50464C97.51 5.50719 97.2533 5.56512 97.0338 5.68103C96.8173 5.79698 96.6458 5.95311 96.5251 6.14969C96.4018 6.34603 96.3413 6.57037 96.3389 6.81977C96.3413 7.06913 96.4018 7.29323 96.5251 7.48981C96.6458 7.68622 96.8173 7.8425 97.0338 7.9583C97.2533 8.07165 97.51 8.13215 97.8046 8.13471ZM96.626 17.4H98.9837V9.2683H96.626V17.4Z" fill="white"/>
<path d="M103.581 17.5206C104.395 17.5156 105.087 17.4048 105.659 17.1856C106.229 16.9665 106.664 16.6641 106.967 16.2787C107.266 15.8908 107.417 15.4451 107.42 14.936C107.417 14.5381 107.347 14.2029 107.208 13.9336C107.072 13.6639 106.886 13.4423 106.652 13.271C106.42 13.1022 106.158 12.9661 105.866 12.8653C105.574 12.7672 105.274 12.6864 104.964 12.6311C104.654 12.5732 104.354 12.5228 104.062 12.4799C103.77 12.4371 103.508 12.3868 103.276 12.3288C103.042 12.2732 102.856 12.1927 102.72 12.0944C102.581 11.9938 102.511 11.8578 102.508 11.6865C102.508 11.5429 102.558 11.4143 102.664 11.301C102.77 11.1877 102.934 11.0994 103.158 11.0313C103.38 10.9658 103.667 10.9306 104.019 10.9306C104.392 10.9281 104.775 10.9711 105.168 11.0617C105.564 11.1549 105.962 11.311 106.362 11.5354L107.148 9.85755C106.889 9.70646 106.586 9.57787 106.244 9.47212C105.901 9.3663 105.538 9.28578 105.155 9.23023C104.775 9.17492 104.397 9.14722 104.019 9.14722C103.226 9.15217 102.548 9.26301 101.989 9.48714C101.43 9.70893 101.002 10.0161 100.704 10.4093C100.407 10.8023 100.259 11.2582 100.256 11.777C100.259 12.1802 100.329 12.5203 100.468 12.7923C100.604 13.0669 100.79 13.291 101.024 13.4648C101.256 13.6362 101.521 13.7722 101.81 13.873C102.103 13.9738 102.402 14.0518 102.712 14.1074C103.022 14.1626 103.324 14.2104 103.614 14.2509C103.906 14.2912 104.168 14.3365 104.4 14.3895C104.634 14.4423 104.821 14.5153 104.957 14.6086C105.095 14.7042 105.166 14.8328 105.168 14.9966C105.171 15.1477 105.12 15.2787 105.022 15.3895C104.924 15.5003 104.762 15.5861 104.543 15.6464C104.324 15.7069 104.032 15.7372 103.672 15.7372C103.337 15.7372 102.999 15.7019 102.657 15.6364C102.317 15.5734 101.989 15.4803 101.679 15.3643C101.37 15.2459 101.09 15.1074 100.846 14.9513L100.06 16.6441C100.317 16.8127 100.629 16.9615 101.002 17.0924C101.377 17.2234 101.783 17.3292 102.226 17.4048C102.667 17.4803 103.117 17.518 103.581 17.5206Z" fill="white"/>
<path d="M112.68 17.5206C113.252 17.518 113.776 17.4375 114.252 17.2762C114.728 17.1152 115.143 16.8807 115.496 16.5761C115.849 16.2687 116.123 15.9008 116.322 15.4651L114.493 14.4675C114.272 14.858 114.005 15.1427 113.692 15.3215C113.38 15.5003 113.038 15.5886 112.665 15.5861C112.262 15.5834 111.901 15.4953 111.581 15.319C111.262 15.1401 111.007 14.8833 110.821 14.5481C110.634 14.2132 110.539 13.81 110.534 13.334C110.539 12.8578 110.634 12.4548 110.821 12.1172C111.007 11.7822 111.262 11.5276 111.581 11.3488C111.901 11.1725 112.262 11.0819 112.665 11.0819C113.038 11.0794 113.38 11.17 113.692 11.3513C114.005 11.5327 114.272 11.8175 114.493 12.2002L116.322 11.218C116.123 10.7745 115.849 10.3966 115.496 10.0894C115.143 9.78205 114.728 9.54764 114.252 9.38904C113.776 9.22774 113.252 9.14722 112.68 9.14722C112.015 9.14968 111.408 9.25297 110.856 9.45713C110.304 9.66097 109.826 9.94829 109.42 10.321C109.017 10.694 108.705 11.1372 108.483 11.6461C108.262 12.1574 108.148 12.7192 108.146 13.334C108.148 13.9486 108.262 14.5103 108.483 15.0218C108.705 15.5306 109.017 15.9713 109.42 16.3442C109.826 16.7197 110.304 17.0068 110.856 17.2109C111.408 17.4148 112.015 17.518 112.68 17.5206Z" fill="white"/>
<path d="M121.222 17.5206C121.872 17.518 122.466 17.4148 123.008 17.2109C123.552 17.0068 124.023 16.7197 124.421 16.3442C124.819 15.9713 125.129 15.5306 125.348 15.0218C125.567 14.5103 125.678 13.9486 125.68 13.334C125.678 12.7192 125.567 12.1574 125.348 11.6461C125.129 11.1372 124.819 10.694 124.421 10.321C124.023 9.94829 123.552 9.66097 123.008 9.45713C122.466 9.25297 121.872 9.14968 121.222 9.14722C120.572 9.14968 119.978 9.25297 119.433 9.45713C118.89 9.66097 118.416 9.94829 118.015 10.321C117.615 10.694 117.305 11.1372 117.083 11.6461C116.864 12.1574 116.751 12.7192 116.748 13.334C116.751 13.9486 116.864 14.5103 117.083 15.0218C117.305 15.5306 117.615 15.9713 118.015 16.3442C118.416 16.7197 118.89 17.0068 119.433 17.2109C119.978 17.4148 120.572 17.518 121.222 17.5206ZM121.222 15.5861C120.824 15.5834 120.471 15.4928 120.156 15.314C119.844 15.1352 119.597 14.878 119.416 14.5431C119.232 14.208 119.141 13.805 119.136 13.334C119.141 12.8628 119.232 12.4598 119.416 12.1247C119.597 11.7897 119.844 11.5326 120.156 11.3538C120.471 11.1724 120.824 11.0844 121.222 11.0819C121.62 11.0844 121.973 11.1724 122.283 11.3538C122.592 11.5326 122.839 11.7897 123.018 12.1247C123.197 12.4598 123.29 12.8628 123.293 13.334C123.29 13.805 123.197 14.208 123.018 14.5431C122.839 14.878 122.592 15.1351 122.283 15.314C121.973 15.4928 121.62 15.5834 121.222 15.5861Z" fill="white"/>
<path d="M132.726 9.26782L130.399 14.8L128.147 9.26782H125.713L129.129 17.3993H131.562L134.993 9.26782H132.726Z" fill="white"/>
<path d="M143.596 13.364C143.594 12.7092 143.486 12.1222 143.271 11.6007C143.057 11.0819 142.76 10.6409 142.377 10.2758C141.992 9.91033 141.546 9.63074 141.035 9.43933C140.521 9.24546 139.964 9.1497 139.364 9.14722C138.742 9.1497 138.168 9.25297 137.642 9.45961C137.115 9.66346 136.657 9.95333 136.266 10.3285C135.876 10.7015 135.573 11.1422 135.357 11.6537C135.14 12.1625 135.029 12.7217 135.027 13.334C135.029 13.9411 135.14 14.5003 135.357 15.0091C135.573 15.5181 135.886 15.9588 136.294 16.3343C136.699 16.7095 137.188 16.9993 137.755 17.2057C138.324 17.4123 138.961 17.5181 139.667 17.5206C140.4 17.5206 141.05 17.4073 141.611 17.1856C142.173 16.9641 142.644 16.6364 143.022 16.2057L141.768 14.8453C141.493 15.1099 141.191 15.3064 140.861 15.4373C140.533 15.5658 140.155 15.6314 139.727 15.6314C139.312 15.6289 138.944 15.5634 138.624 15.4323C138.302 15.3013 138.037 15.1149 137.828 14.8731C137.619 14.6287 137.478 14.3365 137.4 13.9989H143.551C143.559 13.8983 143.569 13.79 143.579 13.6764C143.589 13.5606 143.596 13.4574 143.596 13.364ZM139.379 10.9306C139.735 10.9331 140.052 11.0011 140.329 11.1397C140.609 11.2783 140.838 11.4749 141.02 11.7268C141.198 11.9811 141.317 12.2785 141.375 12.6235H137.369C137.428 12.2733 137.546 11.9736 137.727 11.7217C137.906 11.4674 138.138 11.2733 138.42 11.1372C138.7 11.0011 139.019 10.9306 139.379 10.9306Z" fill="white"/>
<path d="M147.09 10.3408V9.26759H144.838V17.3993H147.196V13.5601C147.199 13.0411 147.289 12.6155 147.468 12.2805C147.647 11.9453 147.897 11.6959 148.219 11.5349C148.541 11.3736 148.922 11.293 149.357 11.293C149.445 11.293 149.534 11.2955 149.617 11.303C149.7 11.308 149.791 11.3156 149.886 11.3233V9.14673C149.257 9.14673 148.705 9.24753 148.234 9.44889C147.76 9.65042 147.38 9.94782 147.09 10.3408Z" fill="white"/>
<path fillRule="evenodd" clipRule="evenodd" d="M58.2963 13.3398V9.14729H55.9132V13.3398C55.9119 13.7557 55.8756 14.1422 55.8056 14.4983C55.7309 14.8765 55.618 15.2432 55.4663 15.597V15.6028C55.3229 15.9353 55.1406 16.2588 54.9209 16.5724C54.7027 16.8842 54.4596 17.1648 54.194 17.4142C53.9219 17.6707 53.624 17.8984 53.3007 18.0956C52.9943 18.2838 52.6569 18.4466 52.2914 18.584L52.2921 18.5857L52.2324 18.6074L53.9153 20.4486C54.8614 19.9695 55.7351 19.3234 56.3791 18.5771C56.5427 18.3875 56.7081 18.1742 56.8743 17.937C57.0529 17.6821 57.1978 17.4558 57.3076 17.2621C57.5774 16.7802 57.7819 16.2849 57.9451 15.7578C58.034 15.4696 58.1034 15.2017 58.1514 14.9565C58.193 14.7453 58.2291 14.4774 58.2586 14.1555C58.2831 13.899 58.2958 13.6294 58.2963 13.3494V13.3398ZM56.9739 8.13447C57.2689 8.13207 57.5254 8.07165 57.7445 7.95521C57.9636 7.83979 58.1327 7.67873 58.2536 7.47713C58.3766 7.27273 58.4372 7.03848 58.4396 6.77406C58.4372 6.52983 58.3766 6.31346 58.2536 6.12153C58.1327 5.93261 57.9636 5.78183 57.7445 5.67299C57.5254 5.56235 57.2689 5.50704 56.9739 5.50464C56.6792 5.50704 56.4221 5.56515 56.2032 5.68087C55.9865 5.79691 55.815 5.95289 55.6941 6.14929C55.5708 6.34611 55.5105 6.57037 55.5077 6.81971C55.5105 7.06911 55.5708 7.29301 55.6941 7.48981C55.815 7.68624 55.9865 7.8425 56.2032 7.95832C56.4221 8.07165 56.6792 8.13207 56.9739 8.13447Z" fill="white"/>
<path fillRule="evenodd" clipRule="evenodd" d="M159.72 9.26782H157.453L155.151 14.7751L152.873 9.26782H150.44L153.78 17.037C153.746 17.0715 153.712 17.1057 153.677 17.1393L153.674 17.1447C153.414 17.3958 153.121 17.6241 152.797 17.8286C152.476 18.0315 152.143 18.1969 151.802 18.324C151.451 18.4559 151.089 18.5502 150.714 18.6076C150.535 18.6356 150.35 18.6544 150.161 18.6642V20.7086C151.788 20.6202 153.443 20.2547 154.628 19.2815C155.323 18.7387 156.068 17.6919 156.497 16.8885C157.728 14.5728 158.717 11.781 159.72 9.26782Z" fill="white"/>
<g opacity="0.9">
<path fillRule="evenodd" clipRule="evenodd" d="M7.40899 13.3631C5.07269 11.2519 5.09784 7.45883 7.23791 5.17933C9.64139 2.61911 13.8927 2.15913 17.2468 3.83088C17.4723 3.94357 17.6499 3.69783 17.4307 3.52184C14.4341 0.704746 9.04969 0.836788 5.8262 3.85832C2.6512 6.83421 2.60435 12.1345 5.77737 15.0068C6.29918 15.4802 7.1457 15.6843 7.61612 15.1131C8.10841 14.5516 7.89111 13.7985 7.40899 13.3631Z" fill="white"/>
<path fillRule="evenodd" clipRule="evenodd" d="M9.92055 8.21588C12.0317 5.87965 15.8249 5.90473 18.1043 8.04478C20.6646 10.4483 21.1246 14.6995 19.4527 18.0537C19.34 18.2791 19.5859 18.4568 19.7618 18.2376C22.5789 15.241 22.4468 9.85656 19.4254 6.63316C16.4495 3.45809 11.1491 3.41121 8.27683 6.58423C7.80348 7.10605 7.59928 7.95256 8.17044 8.42299C8.73197 8.91527 9.48516 8.698 9.92055 8.21588Z" fill="white"/>
<path fillRule="evenodd" clipRule="evenodd" d="M15.0674 10.7274C17.4037 12.8386 17.3786 16.6317 15.2386 18.9112C12.8351 21.4714 8.58383 21.9314 5.22964 20.2596C5.00422 20.1469 4.82655 20.3927 5.04577 20.5687C8.04236 23.3858 13.4267 23.2537 16.6502 20.2322C19.8252 17.2563 19.8722 11.956 16.699 9.08369C16.1773 8.61034 15.3307 8.40621 14.8604 8.9773C14.368 9.5389 14.5854 10.292 15.0674 10.7274Z" fill="white"/>
<path fillRule="evenodd" clipRule="evenodd" d="M12.5563 15.8743C10.4451 18.2106 6.65195 18.1855 4.37248 16.0454C1.81223 13.6419 1.35224 9.3907 3.02403 6.03653C3.1367 5.81111 2.89095 5.63344 2.71496 5.85264C-0.102142 8.84922 0.0299017 14.2336 3.05144 17.4571C6.02735 20.6321 11.3277 20.679 14.2 17.506C14.6733 16.9842 14.8775 16.1376 14.3063 15.6672C13.7448 15.1749 12.9916 15.3922 12.5563 15.8743Z" fill="white"/>
</g>
</svg>
