<svg width="50" height="50" xmlns="http://www.w3.org/2000/svg">
 <title>Amazon-VPC_Flow-Logs_light-bg</title>
 <defs>
  <linearGradient gradientUnits="userSpaceOnUse" gradientTransform="matrix(0,0.46866791283820675,-0.46397590133731015,0,64.1648298495328,-41.793160293561755)" y2="47.47" x2="73.47" y1="153.53" x1="179.53" id="svg_16">
   <stop stop-color="#b0084d" offset="0"/>
   <stop stop-color="#ff4f8b" offset="1"/>
  </linearGradient>
 </defs>
 <g>
  <title>Layer 1</title>
  <g id="svg_10" stroke="null">
   <path id="svg_11" fill="#f5a800" d="m41.56706,41.88636c-0.74962,0.72178 -0.74962,1.89147 0,2.61325c0.75019,0.72123 1.96593,0.72123 2.71555,0c0.75019,-0.72178 0.75019,-1.89147 0,-2.61325c-0.74962,-0.72123 -1.96536,-0.72123 -2.71555,0zm2.03009,1.95485a0.9501,0.91411 0 0 1 -1.34463,0a0.95024,0.91425 0 0 1 0,-1.29329a0.9501,0.91411 0 0 1 1.34463,0c0.37124,0.35553 0.37124,0.93611 0,1.29329zm0.65374,-11.0458l-1.17673,1.13202a0.59587,0.5733 0 0 0 0,0.8077l4.59389,4.41989a0.59587,0.5733 0 0 0 0.8395,0l1.17659,-1.13216c0.23006,-0.22134 0.23006,-0.58581 0,-0.80701l-4.59589,-4.42057a0.59429,0.57178 0 0 0 -0.83736,0l0,0.00014l0,-0.00001zm-8.24382,14.4662a0.53771,0.51734 0 0 0 0,-0.73003l-0.59772,-0.57563a0.53842,0.51803 0 0 0 -0.75919,0l-1.23517,1.18907l-0.00229,0.00165l-0.3388,-0.32652c-0.18762,-0.18051 -0.49298,-0.18051 -0.67875,0c-0.18762,0.18038 -0.18762,0.47417 0,0.65304l2.03566,1.95801a0.47912,0.46097 0 0 0 0.67817,0c0.18576,-0.18052 0.18762,-0.47432 0,-0.65249l-0.33937,-0.32652l0.00229,-0.00165l1.23517,-1.18894l0,0.00001zm0,0" stroke="null"/>
   <path id="svg_12" fill="#425cc7" d="m42.23137,36.0456l-2.61395,2.51481c-0.2322,0.2234 -0.2322,0.5913 0,0.81471l1.61413,1.55258c1.14087,-0.78997 2.7407,-0.69222 3.76711,0.296l1.30719,-1.25782c0.23177,-0.22341 0.23177,-0.59076 0,-0.81417l-3.22811,-3.10611a0.59801,0.57536 0 0 0 -0.84622,0l-0.00014,0l-0.00001,0zm-1.67857,5.53665l-0.95339,-0.91728c-0.22334,-0.21474 -0.58944,-0.21474 -0.81221,0l-3.36229,3.23631a0.57672,0.55487 0 0 0 0,0.78186l1.90492,1.8329a0.57672,0.55487 0 0 0 0.81278,0l2.16227,-2.08381c-0.45712,-0.90862 -0.3751,-2.00626 0.24792,-2.84999l0,0.00001zm0,0" stroke="null"/>
  </g>
  <g stroke="null">

   <title stroke="null">AWS-CloudTrail</title>
   <g stroke="null" id="svg_13">
    <rect stroke="null" x="0.13616" y="-0.08171" fill="url(#svg_16)" height="35.1501" width="34.7982" class="cls-1" data-name="Pink Gradient" id="svg_15"/>
    <g stroke="null" data-name="Icon Test" id="svg_14">
     <path stroke="null" fill="#fff" d="m25.87754,16.32167a2.78386,2.81201 0 0 0 -1.81414,-2.61517a2.61218,2.6386 0 0 0 -2.38948,0.39368a6.092,6.15361 0 0 0 -1.23417,-1.79031a5.53987,5.5959 0 0 0 -6.19408,-1.22322a5.67443,5.73181 0 0 0 -3.27567,5.08505l0,0.25308a3.83708,3.87588 0 0 0 -2.48227,2.34334l1.01147,0a3.08544,3.11664 0 0 1 2.06933,-1.56067a0.46398,0.46867 0 0 0 0.34798,-0.46867l-0.03712,-0.59521a4.78359,4.83197 0 0 1 2.70498,-4.19458a4.63976,4.68668 0 0 1 5.19189,1.03107a5.42388,5.47873 0 0 1 1.28057,2.09963a0.46398,0.46867 0 0 0 0.37118,0.30463a0.46398,0.46867 0 0 0 0.43614,-0.18278a1.68887,1.70595 0 0 1 1.88838,-0.60458c0.76556,0.25777 1.2017,1.01232 1.2017,2.03402a0.46398,0.46867 0 0 0 0.38046,0.53428c0.85372,0.14997 2.84881,0.74987 2.84881,3.14008c0,2.85419 -2.78386,3.15414 -2.86737,3.16351l-9.6275,0l0,0.93734l9.68782,0c1.29913,-0.11717 3.74892,-1.12481 3.74892,-4.10085c0,-2.37615 -1.61464,-3.59937 -3.24783,-3.98368zm-19.02301,8.08452l-0.92795,0l0,-0.93734l0.92795,0l0,0.93734zm4.17578,0l-3.24783,0l0,-0.93734l3.24783,0l0,0.93734zm3.71181,0l-2.78385,0l0,-0.93734l2.78385,0l0,0.93734zm-4.17578,-1.87467l-4.17578,0l0,-0.93734l4.17578,0l0,0.93734zm8.81554,0l-5.56771,0l0,-0.93734l5.56771,0l0,0.93734zm-4.63976,-1.87467l-2.78385,0l0,-0.93734l2.78385,0l0,0.93734zm-3.71181,0l-3.71181,0l0,-0.93734l3.71181,0l0,0.93734zm1.8559,1.87467l-1.39193,0l0,-0.93734l1.39193,0l0,0.93734z" class="cls-2"/>
    </g>
   </g>
  </g>
 </g>
</svg>