<?xml version="1.0" encoding="utf-8"?>
<svg xmlns="http://www.w3.org/2000/svg" id="Layer_1" data-name="Layer 1" viewBox="0 0 712.5 579.34">
  <defs>
    <style>
      .cls-1 {
        fill: #f15822;
        stroke-width: 0px;
      }
    </style>
  </defs>
  <path class="cls-1" d="M712.5,535.94l-2.87,16.46c-4.86,2.87-10.48,4.37-16.46,4.37-14.09,0-21.7-8.36-21.7-24.19v-26.19h-9.73v-14.72h9.73v-13.59l18.58-4.62v18.21h22.08v14.72h-22.08v24.57c0,6.49,3.24,9.85,9.6,9.85,4,0,7.61-1.5,12.47-5.11l.37.25ZM639.17,516.24c-5.61-1.37-9.23-2.62-10.98-3.62-1.74-.87-2.62-2.12-2.62-3.74,0-2.87,3.24-4.74,8.61-4.74,6.61,0,15.22,2.87,22.7,7.73l.37-.12v-15.96c-6.86-3.62-14.34-5.49-22.33-5.49-16.34,0-26.81,7.86-26.81,19.83,0,9.85,5.61,15.34,22.19,19.7,5.61,1.5,9.36,2.74,11.23,3.74,1.87,1,2.74,2.37,2.74,4.12,0,2.99-3.49,5.11-8.85,5.11-8.85,0-18.83-3.74-28.43-10.35l-.37.25,2.49,17.09c8.11,4.86,16.09,6.98,25.19,6.98,8.23,0,14.84-1.87,19.95-5.61,4.99-3.62,7.48-8.48,7.48-14.47,0-5.36-1.62-9.48-4.86-12.6-3.25-3.12-9.1-5.74-17.71-7.86M582.79,534.07c-5.36,4.49-9.1,6.24-13.72,6.24-6.86,0-10.6-4.37-10.6-11.97v-36.67h-18.95v40.53c0,15.09,8.36,24.57,21.45,24.57,8.98,0,15.46-3.87,22.32-12.84v11.47h18.34v-63.73h-18.83v42.41ZM529.54,490.67c-6.86,0-12.1,4.24-20.95,16.71v-16.59l-18.45,2.37v62.23h18.95v-37.29c8.11-5.49,14.34-7.73,21.2-7.73,1.62,0,2.99,0,4.49.37l-1.13-19.58c-1.87-.37-2.74-.5-4.11-.5M492.62,468.1h-82.43v18.09h31.17v69.22h20.08v-69.22h31.18v-18.09ZM386.24,509.88c-4.37-2.5-8.24-3.49-12.72-3.49-9.85,0-16.71,7.11-16.71,17.46s6.49,16.96,15.59,16.96c4.49,0,8.73-1.37,13.84-4.86v-26.06ZM386.24,465.85l18.83-4.99v94.53h-18.45v-8.98c-6.36,7.11-12.72,10.23-20.71,10.23s-14.22-2.99-19.45-9.1c-5.36-5.98-7.98-13.47-7.98-22.57,0-9.85,2.99-17.96,8.98-24.57,5.86-6.48,13.22-9.73,21.82-9.73,5.99,0,11.6,2.12,16.97,6.24v-31.05ZM311.16,490.17c-8.61,0-15.34,3.87-22.2,12.84v-12.22l-18.46,2.37v62.23h18.96v-42.53c5.36-4.49,8.98-6.11,13.59-6.11,6.86,0,10.72,4.37,10.72,11.85v36.79h18.84v-40.66c0-15.09-8.36-24.57-21.45-24.57M230.23,541.05c9.35,0,16.21-7.61,16.21-17.71s-6.74-17.33-16.09-17.33-16.21,7.48-16.21,17.58,6.98,17.46,16.09,17.46M230.35,489.92c10.1,0,18.33,3.24,24.82,9.6,6.36,6.36,9.6,14.34,9.6,23.82s-3.24,17.33-9.85,23.95c-6.61,6.61-14.84,9.85-24.69,9.85s-18.33-3.24-24.69-9.73c-6.49-6.36-9.72-14.34-9.72-23.82s3.24-17.34,9.85-23.95c6.61-6.49,14.84-9.73,24.69-9.73M179.47,491.67l-14.34,40.03-15.71-40.03h-20.46l26.57,61.11c-2.87,6.86-6.98,9.85-13.84,9.85-3.49,0-6.74-.87-10.6-2.87l-.25.25,3.62,17.21c3.49,1.5,6.98,2.12,10.97,2.12,13.1,0,22.45-7.48,28.56-23.32l25.57-64.35h-20.08ZM101.39,503.52c-7.48,0-12.85,5.73-13.84,14.34h26.93c-.87-8.86-5.74-14.34-13.09-14.34M106.88,541.93c7.61,0,15.22-2.12,23.32-6.24l.37.25-5.11,15.84c-7.61,3.62-13.84,4.99-21.95,4.99-10.35,0-18.59-2.99-24.69-9.1-6.24-6.11-9.35-14.22-9.35-24.32,0-9.35,3.12-17.33,9.23-23.82,6.11-6.36,13.71-9.6,23.07-9.6s16.71,2.99,22.19,9.1c5.36,6.11,8.11,14.21,8.11,24.19,0,1-.25,3.24-.37,5.36h-44.02c1.99,8.48,8.85,13.35,19.2,13.35M30.93,539.93c8.98,0,14.47-4.24,14.47-10.85,0-7.11-5.36-10.97-14.97-10.97h-11.35v21.82h11.85M19.08,504.26h10.1c8.11,0,13.35-4.24,13.35-10.72s-4.74-9.98-12.6-9.98h-10.85v20.7ZM49.38,509.88c10.35,3.87,15.71,10.97,15.71,20.45,0,7.61-2.99,13.72-8.85,18.21-5.98,4.61-13.96,6.86-23.82,6.86H0v-87.3h32.3c18.46,0,29.43,8.6,29.43,23.07,0,7.98-4.37,14.59-12.35,18.71M501.41,163.91l-35.43-35.41c-.28-.28-.7-.39-1.06-.21-.35.15-.58.5-.58.89v248.85c0,.39.24.74.58.89.13.06.25.07.38.07.25,0,.51-.1.68-.28l35.43-35.43c1.3-1.28,2.43-4.02,2.43-5.88v-167.6c0-1.83-1.13-4.58-2.43-5.89M438.72,108.54l-.1,290.21c0,.53-.44.96-.96.96h-150.81c-44.85,0-81.34-36.49-81.34-81.36V106.72c0-1.8,1.16-4.61,2.43-5.88l35.43-35.41c.27-.28.67-.38,1.06-.21.35.15.59.5.59.89v240.7c0,29.44,23.96,53.39,53.39,53.39h98.67c1.06,0,1.94-.88,1.94-1.94v-18.75c0-2.72-2.22-4.94-4.94-4.94h-95.67c-15.31,0-27.76-12.45-27.76-27.77v-133.23c-.01-.25.08-.5.27-.68.18-.18.43-.28.68-.28h122.49c2.72,0,4.94-2.22,4.94-4.96v-18.73c0-1.06-.88-1.94-1.94-1.94h-125.49c-.53,0-.96-.43-.96-.96V41.6c0-1.8,1.16-4.59,2.44-5.88L308.49.3c.27-.28.67-.39,1.06-.21.35.15.59.5.59.89v104.56c0,1.06.88,1.94,1.94,1.94h125.58c.53,0,1.06.53,1.06,1.06ZM399.01,217.08c0-2.72-2.22-4.94-4.94-4.94h-78.8c-2.72,0-4.94,2.22-4.94,4.94v73.05c0,2.72,2.22,4.94,4.94,4.94h78.8c2.72,0,4.94-2.22,4.94-4.94v-73.05Z"/>
</svg>