<?xml version="1.0" encoding="utf-8"?>
<svg xmlns="http://www.w3.org/2000/svg" id="Layer_1" data-name="Layer 1" viewBox="0 0 768 178.28">
  <defs>
    <style>
      .cls-1 {
        fill: #f15822;
        stroke-width: 0px;
      }
    </style>
  </defs>
  <g id="BeyondTrust">
    <path class="cls-1" d="M767.69,132.91c-4.04,3-7.04,4.25-10.36,4.25-5.28,0-7.97-2.8-7.97-8.18v-20.4h18.33v-12.22h-18.33v-15.12l-15.43,3.84v11.29h-8.08v12.22h8.08v21.75c0,13.15,6.32,20.09,18.02,20.09,4.97,0,9.64-1.24,13.67-3.63l2.39-13.67-.31-.21Z"/>
    <path class="cls-1" d="M707.1,116.75c-4.66-1.14-7.67-2.17-9.12-3-1.45-.73-2.17-1.76-2.17-3.11,0-2.38,2.69-3.93,7.15-3.93,5.49,0,12.64,2.38,18.85,6.42l.31-.1v-13.26c-5.7-3-11.91-4.56-18.54-4.56-13.57,0-22.27,6.53-22.27,16.47,0,8.18,4.66,12.74,18.43,16.36,4.66,1.24,7.77,2.28,9.32,3.11,1.55.83,2.28,1.97,2.28,3.42,0,2.48-2.9,4.25-7.35,4.25-7.35,0-15.64-3.11-23.61-8.6l-.31.21,2.07,14.19c6.73,4.04,13.36,5.8,20.92,5.8,6.84,0,12.33-1.55,16.57-4.66,4.15-3,6.22-7.04,6.22-12.01,0-4.45-1.35-7.87-4.04-10.46-2.7-2.59-7.56-4.76-14.71-6.53"/>
    <path class="cls-1" d="M660.28,131.57c-4.45,3.73-7.56,5.18-11.39,5.18-5.7,0-8.81-3.63-8.81-9.94v-30.45h-15.74v33.66c0,12.53,6.94,20.4,17.82,20.4,7.46,0,12.84-3.21,18.54-10.67v9.53h15.23v-52.93h-15.64v35.22Z"/>
    <path class="cls-1" d="M616.06,95.52c-5.7,0-10.05,3.52-17.4,13.88v-13.78l-15.33,1.97v51.68h15.74v-30.97c6.73-4.56,11.91-6.42,17.61-6.42,1.35,0,2.48,0,3.73.31l-.94-16.26c-1.55-.31-2.28-.41-3.42-.41"/>
    <polygon class="cls-1" points="585.4 76.78 516.94 76.78 516.94 91.8 542.83 91.8 542.83 149.28 559.5 149.28 559.5 91.8 585.4 91.8 585.4 76.78"/>
    <path class="cls-1" d="M497.05,133.12c-4.25,2.9-7.77,4.04-11.5,4.04-7.56,0-12.95-5.7-12.95-14.09s5.7-14.5,13.88-14.5c3.73,0,6.94.83,10.57,2.9v21.65ZM497.05,100.7c-4.46-3.42-9.12-5.18-14.09-5.18-7.15,0-13.26,2.69-18.12,8.08-4.97,5.49-7.46,12.22-7.46,20.4,0,7.56,2.17,13.78,6.63,18.75,4.35,5.08,9.73,7.56,16.15,7.56s11.91-2.59,17.2-8.49v7.46h15.33v-78.51l-15.64,4.14v25.79Z"/>
    <path class="cls-1" d="M434.7,95.11c-7.15,0-12.74,3.21-18.44,10.67v-10.15l-15.33,1.97v51.68h15.74v-35.32c4.46-3.73,7.46-5.07,11.29-5.07,5.7,0,8.91,3.63,8.91,9.84v30.55h15.64v-33.76c0-12.53-6.94-20.4-17.82-20.4"/>
    <path class="cls-1" d="M367.49,137.37c-7.56,0-13.36-6.21-13.36-14.5s5.59-14.6,13.46-14.6,13.36,6.11,13.36,14.4-5.7,14.71-13.46,14.71M367.59,94.9c-8.18,0-15.02,2.69-20.51,8.08-5.49,5.49-8.18,12.12-8.18,19.89s2.69,14.5,8.08,19.78c5.29,5.39,12.12,8.08,20.51,8.08s15.02-2.69,20.51-8.18c5.49-5.49,8.18-12.12,8.18-19.89s-2.69-14.5-7.98-19.78c-5.39-5.28-12.22-7.97-20.61-7.97"/>
    <path class="cls-1" d="M325.33,96.35l-11.91,33.25-13.05-33.25h-16.99l22.06,50.75c-2.39,5.7-5.8,8.18-11.5,8.18-2.9,0-5.59-.72-8.81-2.38l-.21.21,3.01,14.29c2.9,1.24,5.8,1.76,9.11,1.76,10.88,0,18.64-6.22,23.72-19.37l21.23-53.44h-16.67Z"/>
    <path class="cls-1" d="M260.49,106.19c6.11,0,10.15,4.56,10.87,11.91h-22.37c.83-7.15,5.28-11.91,11.5-11.91M265.05,138.09c-8.6,0-14.29-4.04-15.95-11.08h36.56c.1-1.76.31-3.63.31-4.45,0-8.29-2.28-15.02-6.73-20.09-4.55-5.08-10.67-7.56-18.43-7.56s-14.09,2.69-19.16,7.98c-5.08,5.39-7.66,12.01-7.66,19.78,0,8.39,2.59,15.12,7.77,20.2,5.07,5.08,11.91,7.56,20.51,7.56,6.73,0,11.91-1.14,18.23-4.14l4.24-13.15-.31-.21c-6.73,3.42-13.05,5.18-19.37,5.18"/>
    <path class="cls-1" d="M201.98,136.43h-9.84v-18.12h9.42c7.97,0,12.43,3.21,12.43,9.11,0,5.49-4.56,9.01-12.01,9.01M192.14,89.62h9.01c6.53,0,10.46,3.01,10.46,8.29s-4.35,8.91-11.08,8.91h-8.39v-17.19ZM217.3,111.47c6.63-3.42,10.26-8.91,10.26-15.54,0-12.02-9.11-19.16-24.44-19.16h-26.82v72.5h26.93c8.19,0,14.81-1.87,19.78-5.7,4.87-3.73,7.35-8.8,7.35-15.12,0-7.87-4.45-13.78-13.05-16.99"/>
  </g>
  <path class="cls-1" d="M131.98,73.1l-15.8-15.8c-.12-.12-.31-.17-.47-.09-.15.07-.26.22-.26.4v110.99c0,.17.1.33.26.4.06.03.11.03.17.03.11,0,.23-.04.31-.12l15.8-15.8c.58-.57,1.08-1.79,1.08-2.62v-74.75c0-.82-.51-2.04-1.08-2.63"/>
  <path class="cls-1" d="M103.54,47.94h-56.01c-.47,0-.87-.39-.87-.87V.44c0-.17-.11-.33-.26-.4-.17-.08-.35-.03-.47.09l-15.8,15.8c-.57.57-1.09,1.82-1.09,2.62v46.57c0,.24.19.43.43.43h55.97c.47,0,.86.39.86.87v8.36c0,1.22-.99,2.21-2.2,2.21H29.47c-.11,0-.22.04-.3.12-.08.08-.12.19-.12.31v59.42c0,6.83,5.56,12.38,12.39,12.38h42.67c1.21,0,2.2.99,2.2,2.2v8.36c0,.47-.39.87-.86.87h-44.01c-13.13,0-23.81-10.68-23.81-23.81V29.49c0-.17-.11-.33-.26-.4-.17-.08-.35-.03-.47.09L1.08,44.98c-.57.57-1.08,1.82-1.08,2.62v94.39c0,20.01,16.27,36.29,36.28,36.29h67.26c.24,0,.43-.19.43-.43l.04-129.44c0-.24-.24-.47-.47-.47ZM86.31,129.4c0,1.21-.99,2.2-2.2,2.2h-35.15c-1.21,0-2.2-.99-2.2-2.2v-32.58c0-1.21.99-2.2,2.2-2.2h35.15c1.21,0,2.2.99,2.2,2.2v32.58Z"/>
</svg>