<?xml version="1.0" encoding="UTF-8"?> <!-- Generator: Adobe Illustrator 23.0.1, SVG Export Plug-In . SVG Version: 6.00 Build 0) --> <svg xmlns="http://www.w3.org/2000/svg" xmlns:xlink="http://www.w3.org/1999/xlink" id="Layer_1" x="0px" y="0px" viewBox="0 0 1280 873" style="enable-background:new 0 0 1280 873;" xml:space="preserve"> <style type="text/css"> .st0{fill:#39A6DE;} </style> <title>FORESCOUT-logo</title> <g> <g> <path class="st0" d="M608.1,517.6L325,389.3c-35-15.9-50.6-57.2-34.7-92.2c7-15.4,19.3-27.7,34.7-34.7l283.1-128.3l34.8,76.9 L389.5,325.9L643,440.8L608.1,517.6z"></path> <path class="st0" d="M748.8,325.9c0,80.5-20.3,159.6-59.3,230l77.3,34.5c88.5-165.3,88.5-363.9,0-529.1l-77.3,34.5 C728.5,166.3,748.9,245.4,748.8,325.9z"></path> </g> <g> <path d="M108.7,731H49c-7,0-11.8,1.3-14.6,4c-2.8,2.7-2.9,7.2-2.9,13.8v24.3h60l0.1,29.1H31.5v69.2H-1.6V736.2 c0-12.4,2.7-21.3,8.2-26.5c5.5-5.2,14.9-7.8,28.2-7.8h73.9V731z"></path> <path d="M255,778.6v12.7c0,28.1-5.3,48.5-15.9,61.3s-27.6,19.1-51,19c-23.4,0-40.3-6.3-50.8-19c-10.4-12.7-15.7-33.3-15.7-62 v-12.3c0-26.1,5.3-45.4,15.9-58.1c10.6-12.7,27.4-19,50.4-19c23,0,39.9,6.4,50.8,19.3C249.6,733.4,255.1,752.8,255,778.6z M224,790.7v-8.8c0-15.1-1.9-27.2-5.7-36.2c-4.4-10.4-13.9-15.6-28.4-15.6c-14.7,0-24.3,5.2-28.6,15.6c-3.6,8.5-5.4,20.6-5.4,36.2 v8.8c0,20.4,2.8,34.1,8.5,41.2c2.6,3.3,6,6,9.8,7.7c4.9,2.2,10.2,3.3,15.6,3.2c5.3,0.2,10.6-0.9,15.5-3.1c3.8-1.7,7.2-4.3,9.9-7.6 c2.6-3.5,4.5-7.6,5.4-11.8C222.9,812.5,224,802.7,224,790.7L224,790.7z"></path> <path d="M412.4,871.3h-39l-32.7-62.2h-23.5v62.2h-33.1v-133c0-12.7,2.9-21.9,8.8-27.7c5.9-5.8,15.7-8.7,29.5-8.7h28.1 c16.8,0,30.2,5.1,40.1,15.3c9.9,10.2,14.9,23.2,14.9,38.9c0,11.4-3,21.3-8.9,29.6c-6,8.3-13.3,14.1-22,17.3L412.4,871.3z M365.3,772.9c4.5-4.8,6.7-10.8,6.7-17.9c0-7.2-2.2-12.9-6.5-17.4c-4.3-4.4-10.1-6.6-17.4-6.6h-16.4c-9.8,0-14.6,5-14.6,14.9v34.2 h30.9C354.6,780.3,360.9,777.7,365.3,772.9L365.3,772.9z"></path> <path d="M543.8,871.3h-59.6c-19,0-32.4-3.3-40.1-9.9c-7.7-6.6-11.5-18.2-11.5-34.9v-97.7c0-14.9,12.1-27,27-27h84.3V731h-78.2 v40.1h54.6l-0.1,29.1h-54.5v24.8c0,6.6,1.5,11.1,4.5,13.6c3,2.5,8.5,3.7,16.4,3.7h57.3V871.3z"></path> <path d="M688.2,820.9c0,15.9-5.8,28.4-17.5,37.4c-11.6,9-26.5,13.6-44.6,13.6c-14.3,0-28.2-3.9-41.6-11.8 c-6.8-4.3-12.4-10.3-16.3-17.4c-4.3-7.8-6.5-16.7-6.4-25.6l29.7-1.4c0,8.5,3.6,15.1,10.9,19.8c7.1,4.7,15.5,7.2,24.1,7.1 c19.7,0,29.5-6.9,29.5-20.8c0-11.4-6.7-18-20-20l-27.4-2.8c-13.7-2-24.6-6.9-32.6-14.6c-8-7.7-12-18.8-12-33.3 c0-14.5,5.7-26.5,17.2-35.9c11.5-9.4,26-14.2,43.6-14.2c17.5,0,31.7,4.4,42.4,13.3c10.7,8.9,16.1,20.3,16,34.4L654,750 c-2.7-13.7-11.9-20.5-27.6-20.5c-9.6,0-17.1,2-22.5,6.1c-5.4,4.1-8.1,8.9-8.1,14.5c0,5.6,2,10,5.9,13.2c4.2,3.3,9.3,5.4,14.6,6 l26.9,2.8C673.2,776.3,688.2,792.5,688.2,820.9z"></path> <path d="M801.3,805.2H832c0,21-5.4,37.2-16.2,48.4s-26,16.9-45.7,16.9c-43.3,0-65-24.8-65-74.4v-13.9c0-39.1,11.1-63.6,33.3-73.5 c8.7-4,19.3-6,31.6-6c18.1,0,32.8,4.8,44.2,14.5c11.3,9.7,17,23.6,17,41.8h-30.9c-1.8-9.1-4.8-16-9.3-20.6c-4.4-4.6-11.4-7-21-7 c-11.1,0-19.4,3.4-24.8,10.2c-3.8,4.8-6,13-6.7,24.6c-0.3,3.7-0.5,8.7-0.5,15v14.4c0,17.8,2.5,29.9,7.6,36.4 c5.2,6.5,13.4,9.7,24.4,9.7c11,0,18.6-3,22.9-8.9C797.3,826.9,800,817.7,801.3,805.2z"></path> <path d="M982.9,778.6v12.7c0,28.1-5.3,48.5-15.9,61.3c-10.6,12.7-27.6,19.1-51,19c-23.4,0-40.3-6.3-50.8-19 c-10.4-12.7-15.7-33.3-15.7-62v-12.3c0-26.1,5.3-45.4,15.9-58.1c10.6-12.7,27.4-19,50.4-19c23,0,39.9,6.4,50.8,19.3 C977.4,733.4,982.9,752.8,982.9,778.6z M950.8,790.7v-8.8c0-15.1-1.9-27.2-5.7-36.2c-4.4-10.4-13.9-15.6-28.4-15.6 c-14.7,0-24.3,5.2-28.6,15.6c-3.6,8.5-5.4,20.6-5.4,36.2v8.8c0,20.4,2.8,34.1,8.5,41.2c2.6,3.3,6,6,9.8,7.7 c9.9,4.2,21.2,4.3,31.1,0.1c3.8-1.7,7.2-4.3,9.9-7.6c2.6-3.5,4.5-7.6,5.4-11.8C949.7,812.5,950.8,802.7,950.8,790.7L950.8,790.7z"></path> <path d="M1136.2,701.9v110.5c0,18.3-6.2,32.7-18.5,43.2c-12.3,10.5-27.6,15.8-45.6,15.8s-33.3-5.3-45.6-15.8 c-12.3-10.5-18.5-24.9-18.5-43.2V701.9h33.1v109.3c0,10.4,2.8,18.1,8.5,23.3c5.7,5.1,13.2,7.7,22.5,7.7c9.3,0,16.8-2.6,22.6-7.7 s8.6-12.9,8.6-23.3V701.9H1136.2z"></path> <path d="M1279.6,732h-45.1v139.3h-34.1V732h-43.1v-30.1h122.3V732z"></path> <path d="M1263.7,867.4c-4.3,4.2-11.2,4.2-15.4-0.1c-2.1-2.1-3.2-4.9-3.2-7.8c-0.1-3,1.2-6,3.4-8c2-1.9,4.7-3,7.5-3 c6.1,0,11,4.9,10.9,11C1267,862.5,1265.8,865.3,1263.7,867.4L1263.7,867.4z M1249.7,853.2c-3.5,3.5-3.5,9.3,0,12.8 c3.5,3.5,9.2,3.5,12.8,0c0,0,0,0,0,0c1.7-1.7,2.7-4,2.6-6.4c0-2.4-0.9-4.7-2.6-6.3c-3.4-3.5-9-3.6-12.6-0.2 C1249.8,853.1,1249.7,853.2,1249.7,853.2L1249.7,853.2z M1251.3,865.7v-12.1h3.4c1.5,0,2.3,0,2.5,0c0.8,0,1.6,0.2,2.4,0.6 c1.1,0.6,1.7,1.7,1.6,2.9c0.1,0.8-0.2,1.6-0.9,2.2c-0.6,0.5-1.3,0.8-2.1,0.8c0.6,0.1,1.2,0.3,1.7,0.7c0.8,0.7,1.2,1.7,1.1,2.7v1.1 c0,0.1,0,0.2,0,0.4c0,0.1,0.1,0.2,0.1,0.4l0.1,0.3h-3c-0.1-0.5-0.2-1.1-0.2-1.7c0-0.5-0.1-1-0.2-1.5c-0.1-0.4-0.5-0.7-0.9-0.9 c-0.3-0.1-0.7-0.2-1.1-0.2h-0.7h-0.7v4.3L1251.3,865.7z M1257.1,855.9c-0.6-0.2-1.2-0.3-1.8-0.3h-0.8v3.5h1.2 c0.6,0,1.2-0.1,1.7-0.4c0.4-0.3,0.7-0.9,0.6-1.4C1258.1,856.7,1257.7,856.1,1257.1,855.9L1257.1,855.9z"></path> </g> </g> </svg>