<?xml version="1.0" encoding="UTF-8"?>
<svg version="1.1" xmlns="http://www.w3.org/2000/svg" width="788" height="490">
<path d="M0 0 C260.04 0 520.08 0 788 0 C788 161.7 788 323.4 788 490 C527.96 490 267.92 490 0 490 C0 328.3 0 166.6 0 0 Z " fill="#FEFEFE" transform="translate(0,0)"/>
<path d="M0 0 C1.23516861 -0.00511093 2.47033722 -0.01022186 3.74293518 -0.01548767 C7.11080857 -0.02696036 10.47843487 -0.0294647 13.84631038 -0.02692437 C16.66672009 -0.02584976 19.48710745 -0.03075043 22.30751234 -0.03552979 C28.96544213 -0.04659927 35.62331548 -0.04707667 42.28125 -0.04101562 C49.13071094 -0.03497577 55.97996647 -0.04729292 62.82939237 -0.06858569 C68.72859719 -0.08624454 74.62773686 -0.09219637 80.52696711 -0.08894795 C84.04219919 -0.08714196 87.55728466 -0.08970256 91.0724926 -0.10366249 C94.99502392 -0.11865931 98.91729673 -0.10923331 102.83984375 -0.09765625 C103.99181244 -0.10529999 105.14378113 -0.11294373 106.33065796 -0.12081909 C118.39854329 -0.04228304 126.31438118 3.41862632 135.48461914 11.2746582 C143.40680944 19.30586947 143.93074336 30.29693593 143.88867188 40.98535156 C143.89553513 42.21759964 143.90239838 43.44984772 143.9094696 44.71943665 C143.92454411 48.0709054 143.92625699 51.42181364 143.92052722 54.77327418 C143.91741701 57.58366415 143.923548 60.39400481 143.92956597 63.20438772 C143.9435679 69.84040253 143.94208609 76.47628848 143.93066406 83.11230469 C143.91918583 89.93116183 143.93326316 96.74962551 143.96006054 103.56843084 C143.98229537 109.44903845 143.98883753 115.32952324 143.98298413 121.21016985 C143.979632 124.71094324 143.98191215 128.21146452 143.99923515 131.71220207 C144.01773126 135.6198121 144.00343738 139.52694681 143.98632812 143.43457031 C144.00083008 145.14702438 144.00083008 145.14702438 144.015625 146.89407349 C143.90421082 159.10348191 140.11772349 168.5766433 131.48461914 177.2746582 C129.17114602 179.05425291 127.19083827 180.0445586 124.48461914 181.2746582 C123.5195343 181.79355118 122.55444946 182.31244415 121.56011963 182.84706116 C116.2061587 185.1127567 110.55789693 184.70048176 104.83911133 184.67871094 C103.57804062 184.68557419 102.31696991 184.69243744 101.01768494 184.69950867 C97.57318149 184.71738859 94.12893354 184.71628089 90.6843977 184.71056628 C87.79959877 184.70746518 84.91484826 184.71357748 82.03005624 184.71960503 C75.2171804 184.73363332 68.40442999 184.73210474 61.59155273 184.72070312 C54.5870137 184.709239 47.58285832 184.72327242 40.57836986 184.7500996 C34.54495845 184.7723337 28.51166678 184.77887626 22.47821736 184.77302319 C18.88350441 184.76966886 15.28903695 184.77196536 11.69435883 184.78927422 C7.67856499 184.80776769 3.66350515 184.79347755 -0.35229492 184.77636719 C-2.11389702 184.79086914 -2.11389702 184.79086914 -3.91108704 184.80566406 C-15.54837373 184.70230737 -24.05705849 181.71782632 -32.41772461 173.5559082 C-40.89249696 164.339396 -40.81835492 152.18433088 -40.79003906 140.21069336 C-40.79514999 139.07075424 -40.80026093 137.93081512 -40.80552673 136.7563324 C-40.81931328 133.02540693 -40.81847427 129.29466846 -40.81616211 125.5637207 C-40.8200549 122.94640028 -40.82439076 120.32908047 -40.82914734 117.71176147 C-40.83732571 112.23987192 -40.83647552 106.76803409 -40.83105469 101.29614258 C-40.825019 95.00677515 -40.83732798 88.71763166 -40.85862476 82.42830241 C-40.8784882 76.33395568 -40.88140005 70.23971229 -40.87788963 64.14533615 C-40.87840004 61.57235564 -40.88358448 58.99937134 -40.89370155 56.42641068 C-41.01566027 21.07739978 -41.01566027 21.07739978 -32.51538086 11.2746582 C-22.82997988 1.567043 -13.29976169 -0.02855222 0 0 Z " fill="#49608C" transform="translate(106.515380859375,138.725341796875)"/>
<path d="M0 0 C1.06249466 -0.01029488 1.06249466 -0.01029488 2.14645386 -0.02079773 C4.46779934 -0.03896861 6.78846254 -0.03524189 9.10986328 -0.02954102 C10.73739845 -0.03410802 12.36493168 -0.03941514 13.99246216 -0.04542542 C17.39674737 -0.05433785 20.80079777 -0.05195544 24.20507812 -0.04199219 C28.54818351 -0.03051431 32.89047437 -0.05070485 37.23347282 -0.07990932 C40.59316074 -0.0983378 43.95265592 -0.09796555 47.31238174 -0.0922718 C48.91262071 -0.09211935 50.51287337 -0.09810043 52.11306381 -0.11056328 C68.93863383 -0.22314439 68.93863383 -0.22314439 75.55517578 4.40405273 C77.49267578 6.84155273 77.49267578 6.84155273 78.55517578 9.40405273 C78.90109772 10.13682434 79.24701965 10.86959595 79.60342407 11.62457275 C80.76567872 15.01880205 80.82365817 17.8501753 80.84570312 21.43823242 C80.85242035 22.126763 80.85913757 22.81529358 80.86605835 23.52468872 C80.88499206 25.79184268 80.88896054 28.05869971 80.89111328 30.32592773 C80.89754582 31.91147989 80.90427452 33.49703086 80.9112854 35.08258057 C80.92324759 38.40460966 80.92696746 41.72653488 80.92578125 45.04858398 C80.92557844 49.28634299 80.95284564 53.52342854 80.98732567 57.76102829 C81.00966855 61.03663128 81.0136165 64.3120743 81.0125618 67.58774567 C81.01490799 69.14892135 81.02367574 70.7101021 81.03922653 72.27120209 C81.12313925 81.56732771 81.13082545 89.98106054 74.86767578 97.40405273 C66.25025404 101.13050538 54.78085503 99.49362244 45.55517578 99.40405273 C45.58659668 100.53834717 45.58659668 100.53834717 45.61865234 101.69555664 C45.70208163 105.13991873 45.75392202 108.5840678 45.80517578 112.02905273 C45.83869141 113.21885742 45.87220703 114.40866211 45.90673828 115.63452148 C46.02964975 126.63509785 46.02964975 126.63509785 41.55517578 131.40405273 C36.20440535 135.38283074 30.99622777 135.52955223 24.48925781 135.56518555 C23.79751465 135.57015045 23.10577148 135.57511536 22.39306641 135.58023071 C20.11636339 135.5947742 17.83973001 135.60164066 15.56298828 135.60717773 C13.97264608 135.61293493 12.38230387 135.61869259 10.79196167 135.62445068 C7.46156493 135.63493796 4.13119217 135.64079571 0.80078125 135.64428711 C-3.45497342 135.64977185 -7.71040817 135.6738089 -11.96606255 135.70225906 C-15.25014153 135.72093173 -18.53414407 135.72609346 -21.81827164 135.72762299 C-23.38667681 135.7306388 -24.95508097 135.73863099 -26.52343369 135.75180817 C-28.72257254 135.76896889 -30.92093754 135.76696472 -33.12011719 135.76049805 C-34.99278763 135.76596649 -34.99278763 135.76596649 -36.90328979 135.77154541 C-41.55477216 135.28887731 -45.47364508 133.98187998 -49.18701172 131.00952148 C-53.61910983 125.46175729 -53.56870484 120.19878167 -53.59008789 113.31640625 C-53.5934465 112.63427063 -53.59680511 111.95213501 -53.6002655 111.24932861 C-53.60970857 109.01051985 -53.6117151 106.77178638 -53.61279297 104.53295898 C-53.61600963 102.96646596 -53.61937401 101.39997324 -53.62287903 99.83348083 C-53.62885329 96.55613509 -53.63072063 93.27881565 -53.63012695 90.00146484 C-53.63002531 85.81419029 -53.64368784 81.6270852 -53.66089916 77.43985081 C-53.67204784 74.20638767 -53.6740453 70.97296517 -53.67351723 67.73948479 C-53.67469262 66.19621127 -53.67908951 64.65293654 -53.68684959 63.10968208 C-53.69670987 60.94670022 -53.69374819 58.78408218 -53.68774414 56.62109375 C-53.68988167 54.77959496 -53.68988167 54.77959496 -53.69206238 52.90089417 C-53.32246043 47.6733864 -52.48702314 43.67159196 -49.13232422 39.59155273 C-44.9603346 36.19574723 -41.48666958 35.14625337 -36.14404297 35.20874023 C-35.16757813 35.21518555 -34.19111328 35.22163086 -33.18505859 35.22827148 C-32.17765625 35.2450293 -31.17025391 35.26178711 -30.13232422 35.27905273 C-29.10558594 35.28807617 -28.07884766 35.29709961 -27.02099609 35.30639648 C-24.49536523 35.32989072 -21.97021612 35.36274143 -19.44482422 35.40405273 C-19.4710083 34.71891602 -19.49719238 34.0337793 -19.52416992 33.32788086 C-19.62888884 30.1868434 -19.6933857 27.04617432 -19.75732422 23.90405273 C-19.79921875 22.82639648 -19.84111328 21.74874023 -19.88427734 20.63842773 C-19.97716999 14.54466995 -19.51945924 10.18635186 -16.21118164 5.00756836 C-11.50389263 0.7342478 -6.14082346 0.02608575 0 0 Z " fill="#4A628C" transform="translate(144.44482421875,162.595947265625)"/>
<path d="M0 0 C1.23516861 -0.00511093 2.47033722 -0.01022186 3.74293518 -0.01548767 C7.11080857 -0.02696036 10.47843487 -0.0294647 13.84631038 -0.02692437 C16.66672009 -0.02584976 19.48710745 -0.03075043 22.30751234 -0.03552979 C28.96544213 -0.04659927 35.62331548 -0.04707667 42.28125 -0.04101562 C49.13071094 -0.03497577 55.97996647 -0.04729292 62.82939237 -0.06858569 C68.72859719 -0.08624454 74.62773686 -0.09219637 80.52696711 -0.08894795 C84.04219919 -0.08714196 87.55728466 -0.08970256 91.0724926 -0.10366249 C94.99502392 -0.11865931 98.91729673 -0.10923331 102.83984375 -0.09765625 C103.99181244 -0.10529999 105.14378113 -0.11294373 106.33065796 -0.12081909 C118.37918838 -0.04240899 126.34140214 3.40454737 135.48461914 11.2746582 C137.68447591 13.5863721 138.9500397 15.42472496 140.48461914 18.2746582 C140.17401507 19.61346887 139.8393734 20.94686368 139.48461914 22.2746582 C139.81489208 23.60875291 140.14875302 24.94196062 140.48461914 26.2746582 C140.61697826 27.95206849 140.70337791 29.63341076 140.75683594 31.31518555 C140.80513802 32.81727066 140.80513802 32.81727066 140.85441589 34.34970093 C140.96552634 38.91165459 141.04735225 43.47349709 141.109375 48.03637695 C141.15114961 50.44207442 141.21262666 52.84751169 141.29394531 55.25219727 C141.40946121 58.72672489 141.45958695 62.19694999 141.49633789 65.6730957 C141.54481369 66.74514252 141.59328949 67.81718933 141.64323425 68.92172241 C141.63565675 72.01016248 141.52367455 74.36260969 140.48461914 77.2746582 C137.4666582 80.05341839 134.23254079 81.66739146 130.48461914 83.2746582 C129.79119919 83.61016693 129.09777924 83.94567566 128.38334656 84.29135132 C125.58792745 85.59801271 123.59766131 86.2746582 120.48461914 86.2746582 C120.47653229 85.67188553 120.46844543 85.06911285 120.46011353 84.44807434 C120.37400361 78.16992221 120.27449699 71.89208347 120.16723633 65.61425781 C120.12897198 63.27186347 120.09411468 60.92941087 120.06274414 58.58691406 C120.01703889 55.21829421 119.95905253 51.85007447 119.89868164 48.48168945 C119.88135483 46.91267632 119.88135483 46.91267632 119.86367798 45.31196594 C119.83387344 43.84100716 119.83387344 43.84100716 119.8034668 42.34033203 C119.78348129 41.05126701 119.78348129 41.05126701 119.76309204 39.73616028 C119.45080848 36.97579604 118.61800294 34.79960015 117.48461914 32.2746582 C116.49461914 32.7696582 116.49461914 32.7696582 115.48461914 33.2746582 C115.22837265 32.66037964 114.97212616 32.04610107 114.70811462 31.41320801 C112.87713295 28.21283208 110.80256576 27.42115786 107.4536438 26.06005859 C101.02165539 24.35859539 94.30704349 24.70462675 87.69946289 24.7434082 C86.07239043 24.74070859 84.44531955 24.73682228 82.81825256 24.73181152 C79.42164629 24.72594013 76.02546304 24.73440366 72.62890625 24.75317383 C68.29245108 24.77598066 63.95698545 24.76281497 59.62056637 24.73888397 C56.26518906 24.72437726 52.91004347 24.72905384 49.55465889 24.73939514 C47.95639489 24.74204805 46.35810929 24.73884363 44.75987053 24.72947693 C33.02878734 24.5732419 33.02878734 24.5732419 22.48461914 29.2746582 C18.32871107 34.53383129 18.92951649 41.22649558 18.79711914 47.6496582 C18.76295898 48.76727539 18.72879883 49.88489258 18.69360352 51.03637695 C18.61145841 53.78237043 18.54219786 56.52805803 18.48461914 59.2746582 C17.84959473 59.28924072 17.21457031 59.30382324 16.56030273 59.31884766 C13.65948833 59.39370909 10.75977708 59.49024246 7.85961914 59.5871582 C6.36108398 59.62099609 6.36108398 59.62099609 4.83227539 59.65551758 C-1.98290664 59.90375269 -6.87228965 60.5601321 -11.82788086 65.6496582 C-14.53315227 69.85785817 -14.64159452 73.97507845 -14.72070312 78.89111328 C-14.74064835 79.99187698 -14.76059357 81.09264069 -14.78114319 82.22676086 C-14.80621193 83.99263802 -14.80621193 83.99263802 -14.83178711 85.79418945 C-14.85256821 87.00789719 -14.8733493 88.22160492 -14.89476013 89.47209167 C-14.96007002 93.34372371 -15.01905449 97.21542276 -15.07788086 101.0871582 C-15.12108371 103.71411822 -15.16469857 106.34107149 -15.20874023 108.96801758 C-15.31573244 115.40349391 -15.41753322 121.83903669 -15.51538086 128.2746582 C-15.84538086 128.2746582 -16.17538086 128.2746582 -16.51538086 128.2746582 C-17.01038086 107.4846582 -17.01038086 107.4846582 -17.51538086 86.2746582 C-22.79538086 83.6346582 -28.07538086 80.9946582 -33.51538086 78.2746582 C-38.01653178 73.77350728 -38.01653178 73.77350728 -38.03295898 69.68066406 C-38.04556763 68.77549545 -38.05817627 67.87032684 -38.07116699 66.93772888 C-38.06307007 65.964814 -38.05497314 64.99189911 -38.04663086 63.98950195 C-38.05045776 62.97803604 -38.05428467 61.96657013 -38.05822754 60.92445374 C-38.06094922 58.78181973 -38.05357019 56.63915264 -38.03686523 54.49658203 C-38.01561534 51.24800477 -38.03657793 48.00167871 -38.06225586 44.75317383 C-38.05960959 42.66527838 -38.05447845 40.57738433 -38.04663086 38.48950195 C-38.05472778 37.53075668 -38.06282471 36.57201141 -38.07116699 35.58421326 C-37.96797953 27.99585497 -36.82071746 19.86827953 -31.50817871 14.09239197 C-29.57248986 12.38745916 -27.57308966 10.82852473 -25.51538086 9.2746582 C-24.73163086 8.4909082 -23.94788086 7.7071582 -23.14038086 6.8996582 C-21.51538086 5.2746582 -21.51538086 5.2746582 -19.51538086 4.2746582 C-19.84538086 3.6146582 -20.17538086 2.9546582 -20.51538086 2.2746582 C-13.60713319 0.16461917 -7.19392793 -0.01544408 0 0 Z " fill="#5A7099" transform="translate(106.515380859375,138.725341796875)"/>
<path d="M0 0 C2.1015625 1.2890625 2.1015625 1.2890625 4.1015625 3.2890625 C8.20534436 2.86453334 11.39083095 0.36415526 14.8046875 -1.78125 C20.46570343 -4.07261359 29.07173379 -3.96621675 34.72265625 -1.625 C36.7890625 -0.2734375 36.7890625 -0.2734375 38.48828125 1.09765625 C40.38064279 2.49516295 41.7674827 3.01722188 44.1015625 3.2890625 C45.81431785 2.01547518 47.47823283 0.67483173 49.1015625 -0.7109375 C55.37071683 -3.85106259 62.30047441 -3.51231701 69.1015625 -2.7109375 C75.67473736 -0.17027432 79.25135377 3.99485156 82.1015625 10.2890625 C82.99794051 12.97819654 83.24508842 14.62202222 83.29443359 17.38989258 C83.31049652 18.21117142 83.32655945 19.03245026 83.34310913 19.87861633 C83.3877388 23.62910974 83.42861727 27.37942993 83.45166016 31.13012695 C83.46821771 33.10583273 83.49550512 35.08147866 83.53369141 37.05688477 C83.58856412 39.91193574 83.61034889 42.76558591 83.625 45.62109375 C83.64766937 46.4994136 83.67033875 47.37773346 83.69369507 48.28266907 C83.67891296 52.59139294 83.45503298 55.41791649 80.69775391 58.84350586 C77.22514081 62.11463294 77.22514081 62.11463294 74.1015625 62.0390625 C73.1425 62.06226563 73.1425 62.06226563 72.1640625 62.0859375 C68.82443533 60.795627 66.86897171 58.29998322 65.1015625 55.2890625 C64.44797472 52.43631921 64.49531668 49.70073412 64.5703125 46.78515625 C64.56541809 45.58379784 64.56541809 45.58379784 64.5604248 44.35816956 C64.55062761 41.81361268 64.57214762 39.27094958 64.6015625 36.7265625 C64.64028141 33.37039426 64.64650271 30.01647502 64.6328125 26.66015625 C64.65243042 25.89545517 64.67204834 25.13075409 64.69226074 24.34288025 C64.67282575 20.34443724 64.26563366 18.50124201 61.79101562 15.30102539 C59.17317811 13.01629292 59.17317811 13.01629292 55.5390625 12.7265625 C51.62054539 13.36777439 50.47598024 14.18405469 48.1015625 17.2890625 C46.53946892 20.41324965 46.92352938 23.75202951 46.890625 27.18359375 C46.86255064 28.79493193 46.83388613 30.40625992 46.8046875 32.01757812 C46.76346864 34.5586716 46.72658313 37.09957595 46.70019531 39.64086914 C46.67252253 42.09301126 46.62664643 44.54428724 46.578125 46.99609375 C46.57487213 47.75146927 46.57161926 48.50684479 46.56826782 49.28511047 C46.46413411 53.77264043 45.8852179 56.72194486 43.1015625 60.2890625 C39.92868285 61.87550232 36.48041259 62.25705739 33.1015625 61.2890625 C29.79056233 58.09889722 27.83135632 55.95126343 27.52148438 51.29077148 C27.51421575 49.78882914 27.53169118 48.28661955 27.5703125 46.78515625 C27.56541809 45.58379784 27.56541809 45.58379784 27.5604248 44.35816956 C27.55062761 41.81361268 27.57214762 39.27094958 27.6015625 36.7265625 C27.64028141 33.37039426 27.64650271 30.01647502 27.6328125 26.66015625 C27.65243042 25.89545517 27.67204834 25.13075409 27.69226074 24.34288025 C27.67281683 20.34260261 27.26770667 18.50327982 24.78710938 15.30493164 C22.17860316 13.03171592 22.17860316 13.03171592 18.6015625 12.6640625 C14.10332961 13.46731837 12.87781995 14.69047056 10.1015625 18.2890625 C9.43120027 21.17614401 9.49698016 23.96209702 9.5703125 26.9140625 C9.56704956 27.7385791 9.56378662 28.5630957 9.5604248 29.41259766 C9.55060718 32.03874909 9.57218149 34.66307481 9.6015625 37.2890625 C9.64026385 40.74807489 9.64650176 44.20490423 9.6328125 47.6640625 C9.65243042 48.45377441 9.67204834 49.24348633 9.69226074 50.05712891 C9.67217925 54.32179055 9.46978741 55.82955794 6.69946289 59.28662109 C4.16837188 61.23756635 3.1646672 61.97620176 0.0390625 61.9140625 C-3.8984375 61.2890625 -3.8984375 61.2890625 -6.3359375 58.9765625 C-8.2748027 55.64171436 -9.01995229 53.07189271 -9.10375977 49.27661133 C-9.1336776 48.0757061 -9.1336776 48.0757061 -9.16419983 46.85054016 C-9.18091232 45.99107285 -9.19762482 45.13160553 -9.21484375 44.24609375 C-9.23562485 43.3624968 -9.25640594 42.47889984 -9.27781677 41.56852722 C-9.34319504 38.74628465 -9.40214278 35.92394915 -9.4609375 33.1015625 C-9.50413387 31.18814144 -9.54774852 29.27472977 -9.59179688 27.36132812 C-9.69886445 22.67066813 -9.80016502 17.97991467 -9.8984375 13.2890625 C-10.8884375 13.2890625 -11.8784375 13.2890625 -12.8984375 13.2890625 C-13.66027344 15.02929688 -13.66027344 15.02929688 -14.4375 16.8046875 C-17.92544636 24.73578546 -21.43634576 32.62708509 -25.3984375 40.3359375 C-26.51937545 42.54278409 -27.59652284 44.75284952 -28.6484375 46.9921875 C-28.94999756 47.62350586 -29.25155762 48.25482422 -29.56225586 48.90527344 C-30.41182397 50.68611223 -31.25115363 52.47182491 -32.08984375 54.2578125 C-34.03684814 57.52104232 -35.70060775 59.25938973 -38.8984375 61.2890625 C-41.9965741 62.05829162 -44.77955963 61.95253288 -47.8984375 61.2890625 C-50.7734375 59.0390625 -50.7734375 59.0390625 -52.8984375 56.2890625 C-53.7028125 55.3609375 -53.7028125 55.3609375 -54.5234375 54.4140625 C-55.99260863 52.1435253 -56.99281172 49.79932623 -58.04199219 47.31347656 C-62.270333 37.31877816 -66.74310285 27.45218953 -71.64453125 17.76953125 C-76.81267715 7.54594046 -76.81267715 7.54594046 -75.8984375 2.2890625 C-73.90210361 -0.58066746 -72.42613867 -2.36304515 -68.92578125 -3.16015625 C-65.6348492 -3.33854322 -63.45117571 -3.14642821 -60.8359375 -1.0859375 C-58.52505357 1.74675893 -57.32796828 4.46238647 -55.9609375 7.8515625 C-54.12428618 12.32945992 -52.24969792 16.77335859 -50.2109375 21.1640625 C-48.75026367 24.3382191 -47.40499735 27.50539792 -46.2109375 30.7890625 C-45.03301694 34.33335875 -45.03301694 34.33335875 -42.8984375 37.2890625 C-40.28713829 31.64421145 -37.75097768 25.98468466 -35.3984375 20.2265625 C-27.88166025 2.22831636 -27.88166025 2.22831636 -18.4609375 -3.0859375 C-11.04320884 -4.89513961 -6.59598328 -3.49199115 0 0 Z " fill="#050505" transform="translate(338.8984375,164.7109375)"/>
<path d="M0 0 C1.06249466 -0.01029488 1.06249466 -0.01029488 2.14645386 -0.02079773 C4.46779934 -0.03896861 6.78846254 -0.03524189 9.10986328 -0.02954102 C10.73739845 -0.03410802 12.36493168 -0.03941514 13.99246216 -0.04542542 C17.39674737 -0.05433785 20.80079777 -0.05195544 24.20507812 -0.04199219 C28.54818351 -0.03051431 32.89047437 -0.05070485 37.23347282 -0.07990932 C40.59316074 -0.0983378 43.95265592 -0.09796555 47.31238174 -0.0922718 C48.91262071 -0.09211935 50.51287337 -0.09810043 52.11306381 -0.11056328 C68.93863383 -0.22314439 68.93863383 -0.22314439 75.55517578 4.40405273 C77.49267578 6.84155273 77.49267578 6.84155273 78.55517578 9.40405273 C78.90207962 10.17997269 79.24898346 10.95589264 79.60639954 11.75532532 C80.58490613 14.48705184 80.80301768 16.46012249 80.7980957 19.34619141 C80.80117233 20.30035446 80.80424896 21.25451752 80.80741882 22.2375946 C80.79664055 23.76438591 80.79664055 23.76438591 80.78564453 25.32202148 C80.78518631 26.37561356 80.78472809 27.42920563 80.78425598 28.51472473 C80.78124047 30.73622772 80.77337521 32.95772873 80.76098633 35.17919922 C80.74268673 38.58951249 80.74047704 41.99955478 80.74072266 45.40991211 C80.73580884 47.56811759 80.72998112 49.72632123 80.72314453 51.88452148 C80.72203171 52.90845505 80.72091888 53.93238861 80.71977234 54.98735046 C80.71339249 55.93205704 80.70701263 56.87676361 80.70043945 57.85009766 C80.69662766 58.68329025 80.69281586 59.51648285 80.68888855 60.37492371 C80.55517578 62.40405273 80.55517578 62.40405273 79.55517578 64.40405273 C77.41064453 65.47436523 77.41064453 65.47436523 74.74267578 66.52905273 C73.86998047 66.88225586 72.99728516 67.23545898 72.09814453 67.59936523 C69.55517578 68.40405273 69.55517578 68.40405273 65.55517578 68.40405273 C65.22517578 71.70405273 64.89517578 75.00405273 64.55517578 78.40405273 C64.22517578 78.40405273 63.89517578 78.40405273 63.55517578 78.40405273 C63.54930954 77.73863968 63.5434433 77.07322662 63.53739929 76.38764954 C63.47345482 69.46062697 63.38903187 62.53406853 63.29272461 55.60742188 C63.25947467 53.02252319 63.23144301 50.43755189 63.20874023 47.85253906 C63.17519651 44.13632264 63.1228785 40.42077173 63.06689453 36.70483398 C63.06050461 35.54945633 63.05411469 34.39407867 63.04753113 33.20368958 C63.02773697 32.12294662 63.00794281 31.04220367 62.98754883 29.92871094 C62.97644577 28.9805098 62.96534271 28.03230865 62.9539032 27.05537415 C62.4348201 23.60375264 61.04013475 20.88901171 58.55517578 18.40405273 C56.9244506 18.30538402 55.28946859 18.27606451 53.65576172 18.2746582 C52.61087585 18.27150604 51.56598999 18.26835388 50.48944092 18.2651062 C49.35097717 18.26713043 48.21251343 18.26915466 47.03955078 18.27124023 C45.87643372 18.27028351 44.71331665 18.26932678 43.51495361 18.26834106 C41.04675238 18.26765882 38.57854937 18.26951618 36.11035156 18.27368164 C32.33540793 18.27901006 28.56058434 18.27374808 24.78564453 18.26733398 C22.39111302 18.26799514 19.99658158 18.26927706 17.60205078 18.27124023 C16.47168396 18.269216 15.34131714 18.26719177 14.17669678 18.2651062 C13.11920227 18.26825836 12.06170776 18.27141052 10.97216797 18.2746582 C10.04474792 18.2754538 9.11732788 18.27624939 8.1618042 18.27706909 C5.50379978 18.40655555 3.11993728 18.68859317 0.55517578 19.40405273 C-1.71415493 23.17062497 -1.74466833 26.9148216 -1.85888672 31.23608398 C-1.89755859 32.52836914 -1.93623047 33.8206543 -1.97607422 35.15209961 C-2.00752436 36.50691269 -2.03877183 37.86173048 -2.06982422 39.21655273 C-2.10804172 40.59092545 -2.14709562 41.96527518 -2.18701172 43.33959961 C-2.28117826 46.69428263 -2.36680622 50.04896167 -2.44482422 53.40405273 C-3.27208008 53.42387207 -4.09933594 53.44369141 -4.95166016 53.46411133 C-8.69970228 53.55936486 -12.44718739 53.66904383 -16.19482422 53.77905273 C-17.49677734 53.80999023 -18.79873047 53.84092773 -20.14013672 53.87280273 C-21.39052734 53.91147461 -22.64091797 53.95014648 -23.92919922 53.98999023 C-25.08129883 54.02141113 -26.23339844 54.05283203 -27.42041016 54.08520508 C-30.32868238 54.39180853 -32.05607252 54.74683866 -34.44482422 56.40405273 C-35.5833133 59.26186716 -35.5833133 59.26186716 -36.19482422 62.52905273 C-36.43716797 63.62475586 -36.67951172 64.72045898 -36.92919922 65.84936523 C-37.09935547 66.69241211 -37.26951172 67.53545898 -37.44482422 68.40405273 C-39.00819595 67.94870174 -40.57048271 67.48962498 -42.13232422 67.02905273 C-43.00244141 66.77381836 -43.87255859 66.51858398 -44.76904297 66.25561523 C-47.36995541 65.4278796 -49.91059445 64.41774464 -52.44482422 63.40405273 C-52.44482422 78.25405273 -52.44482422 93.10405273 -52.44482422 108.40405273 C-52.77482422 108.40405273 -53.10482422 108.40405273 -53.44482422 108.40405273 C-53.49129619 100.83233488 -53.52676865 93.26063194 -53.54844856 85.68880367 C-53.55885722 82.17236711 -53.57296261 78.65602859 -53.59570312 75.13964844 C-53.62171971 71.09105522 -53.63132112 67.04256397 -53.64013672 62.99389648 C-53.65045929 61.7394725 -53.66078186 60.48504852 -53.67141724 59.19261169 C-53.67321847 45.11426195 -53.67321847 45.11426195 -49.13232422 39.59155273 C-44.9603346 36.19574723 -41.48666958 35.14625337 -36.14404297 35.20874023 C-35.16757813 35.21518555 -34.19111328 35.22163086 -33.18505859 35.22827148 C-32.17765625 35.2450293 -31.17025391 35.26178711 -30.13232422 35.27905273 C-29.10558594 35.28807617 -28.07884766 35.29709961 -27.02099609 35.30639648 C-24.49536523 35.32989072 -21.97021612 35.36274143 -19.44482422 35.40405273 C-19.4710083 34.71891602 -19.49719238 34.0337793 -19.52416992 33.32788086 C-19.62888884 30.1868434 -19.6933857 27.04617432 -19.75732422 23.90405273 C-19.79921875 22.82639648 -19.84111328 21.74874023 -19.88427734 20.63842773 C-19.97716999 14.54466995 -19.51945924 10.18635186 -16.21118164 5.00756836 C-11.50389263 0.7342478 -6.14082346 0.02608575 0 0 Z " fill="#9FD373" transform="translate(144.44482421875,162.595947265625)"/>
<path d="M0 0 C0.33 0 0.66 0 1 0 C1 13.53 1 27.06 1 41 C4.3 39.68 7.6 38.36 11 37 C12.32 37 13.64 37 15 37 C15.33 36.34 15.66 35.68 16 35 C16.11745244 38.81223512 16.18766603 42.62399682 16.25 46.4375 C16.28351563 47.50677734 16.31703125 48.57605469 16.3515625 49.67773438 C16.44651839 57.44037833 15.44237652 63.92014634 10.3125 70 C1.69507826 73.72645265 -9.77432075 72.0895697 -19 72 C-18.9685791 73.13429443 -18.9685791 73.13429443 -18.93652344 74.29150391 C-18.85309415 77.735866 -18.80125376 81.18001507 -18.75 84.625 C-18.71648437 85.81480469 -18.68296875 87.00460937 -18.6484375 88.23046875 C-18.52552603 99.23104511 -18.52552603 99.23104511 -23 104 C-28.35077043 107.97877801 -33.55894801 108.12549949 -40.06591797 108.16113281 C-40.75766113 108.16609772 -41.4494043 108.17106262 -42.16210938 108.17617798 C-44.43881239 108.19072147 -46.71544577 108.19758793 -48.9921875 108.203125 C-50.58252971 108.2088822 -52.17287191 108.21463985 -53.76321411 108.22039795 C-57.09361085 108.23088523 -60.42398361 108.23674297 -63.75439453 108.24023438 C-68.0101492 108.24571912 -72.26558395 108.26975617 -76.52123833 108.29820633 C-79.80531731 108.31687899 -83.08931985 108.32204073 -86.37344742 108.32357025 C-87.94185259 108.32658607 -89.51025675 108.33457826 -91.07860947 108.34775543 C-93.27774832 108.36491616 -95.47611332 108.36291199 -97.67529297 108.35644531 C-99.54796341 108.36191376 -99.54796341 108.36191376 -101.45846558 108.36749268 C-106.10994794 107.88482457 -110.02882086 106.57782725 -113.7421875 103.60546875 C-117.91606775 98.3809221 -118.15155105 93.57755234 -118.02172852 87.08642578 C-118.00163223 85.94569611 -117.98153595 84.80496643 -117.96083069 83.62966919 C-117.93379562 82.41383148 -117.90676056 81.19799377 -117.87890625 79.9453125 C-117.85529526 78.68862762 -117.83168427 77.43194275 -117.80735779 76.13717651 C-117.74391288 72.81300432 -117.67568392 69.48900139 -117.60510254 66.16497803 C-117.53412544 62.76631372 -117.46948493 59.3675294 -117.40429688 55.96875 C-117.27534796 49.31237455 -117.14008668 42.65614987 -117 36 C-113.34606438 36.68795711 -110.12821894 37.64033617 -106.6875 39.0625 C-105.80449219 39.42472656 -104.92148438 39.78695312 -104.01171875 40.16015625 C-103.34785156 40.43730469 -102.68398437 40.71445313 -102 41 C-102 39.02 -102 37.04 -102 35 C-101.67 35 -101.34 35 -101 35 C-100.99635437 35.64257751 -100.99270874 36.28515503 -100.98895264 36.94720459 C-100.94716593 43.63086204 -100.87784711 50.31383033 -100.79248047 56.99707031 C-100.76424201 59.49179189 -100.74304188 61.98660342 -100.72900391 64.48144531 C-100.70761501 68.06622466 -100.66098292 71.64991918 -100.609375 75.234375 C-100.60814636 76.35116638 -100.60691772 77.46795776 -100.60565186 78.61859131 C-100.58593323 79.65936829 -100.5662146 80.70014526 -100.54589844 81.77246094 C-100.53701599 82.68735291 -100.52813354 83.60224487 -100.51898193 84.54486084 C-99.82317364 87.83650953 -98.68720836 89.01142561 -96 91 C-93.42358256 91.60105338 -93.42358256 91.60105338 -90.57641602 91.51757812 C-89.49171524 91.53018677 -88.40701447 91.54279541 -87.28944397 91.55578613 C-86.12271652 91.54768921 -84.95598907 91.53959229 -83.75390625 91.53125 C-81.94900978 91.53699036 -81.94900978 91.53699036 -80.10765076 91.54284668 C-77.56321374 91.54556845 -75.01874887 91.53818887 -72.47436523 91.52148438 C-68.58058174 91.50009931 -64.68864751 91.52126972 -60.79492188 91.546875 C-58.32291259 91.54423141 -55.85090446 91.53910578 -53.37890625 91.53125 C-51.63185143 91.54339539 -51.63185143 91.54339539 -49.84950256 91.55578613 C-45.26269348 91.50262321 -41.91678974 91.45382062 -37.77050781 89.40136719 C-35.38898044 86.1712647 -35.34376854 84.04312487 -35.29296875 80.046875 C-35.27028679 79.05654266 -35.27028679 79.05654266 -35.24714661 78.04620361 C-35.204318 75.9471204 -35.19543798 73.8494763 -35.1875 71.75 C-35.16435136 70.32287854 -35.13898523 68.89579121 -35.11132812 67.46875 C-35.04852854 63.97919437 -35.01615209 60.49011868 -35 57 C-33.81241089 56.97812622 -33.81241089 56.97812622 -32.60083008 56.95581055 C-29.00423457 56.88121644 -25.40855557 56.78459167 -21.8125 56.6875 C-19.94368164 56.65366211 -19.94368164 56.65366211 -18.03710938 56.61914062 C-16.83505859 56.58369141 -15.63300781 56.54824219 -14.39453125 56.51171875 C-12.73707886 56.47244263 -12.73707886 56.47244263 -11.04614258 56.43237305 C-7.6638509 55.9522866 -5.73564497 55.01490952 -3 53 C-2.505 52.01 -2.505 52.01 -2 51 C-1.34 51 -0.68 51 0 51 C0 34.17 0 17.34 0 0 Z " fill="#7DB25B" transform="translate(209,190)"/>
<path d="M0 0 C0.74330566 -0.0038269 1.48661133 -0.00765381 2.25244141 -0.01159668 C3.82260494 -0.01431636 5.39281373 -0.006951 6.96289062 0.00976562 C9.36691244 0.03117797 11.76794618 0.00996966 14.171875 -0.015625 C15.69792327 -0.01298173 17.22396967 -0.00785676 18.75 0 C19.82822021 -0.01214539 19.82822021 -0.01214539 20.92822266 -0.02453613 C23.99733353 0.03315254 25.90956799 0.15021944 28.32446289 2.12719727 C30.46366817 7.02256198 29.8527822 12.54237495 29.82104492 17.80297852 C29.81253919 19.95881777 29.84130016 22.11200077 29.87304688 24.26757812 C29.87465931 25.64583254 29.87408054 27.02409162 29.87109375 28.40234375 C29.87294678 29.64943115 29.8747998 30.89651855 29.87670898 32.18139648 C29.27142442 36.22281231 28.46990584 37.86177259 25.375 40.53125 C22.07519531 41.09887695 22.07519531 41.09887695 18.203125 41.01953125 C17.5207074 41.01245651 16.83828979 41.00538177 16.13519287 40.99809265 C13.96399439 40.97019021 11.79541332 40.90747253 9.625 40.84375 C8.14977694 40.81866117 6.67451329 40.795849 5.19921875 40.77539062 C1.59030096 40.72038137 -2.01709391 40.63414307 -5.625 40.53125 C-5.60928955 41.52044434 -5.5935791 42.50963867 -5.57739258 43.52880859 C-5.5231654 47.19262577 -5.48867664 50.85640737 -5.46020508 54.52050781 C-5.44510186 56.10748251 -5.42461777 57.69441537 -5.39868164 59.28125 C-5.36236405 61.56000073 -5.34528977 63.83820058 -5.33203125 66.1171875 C-5.31654739 66.82869965 -5.30106354 67.54021179 -5.28511047 68.27328491 C-5.28442383 70.27490234 -5.28442383 70.27490234 -5.625 73.53125 C-9.22609275 75.9319785 -11.86939089 75.83747383 -16.03125 75.83203125 C-17.11291443 75.83845894 -17.11291443 75.83845894 -18.21643066 75.84501648 C-19.73949128 75.85075381 -21.26257929 75.85126442 -22.78564453 75.84692383 C-25.11668528 75.84376128 -27.44645968 75.86723708 -29.77734375 75.89257812 C-31.2578109 75.89485093 -32.73828146 75.8955547 -34.21875 75.89453125 C-35.26415955 75.90834587 -35.26415955 75.90834587 -36.33068848 75.92243958 C-39.03382787 75.89656691 -41.15995363 75.78228599 -43.56298828 74.48510742 C-45.23035815 71.41753017 -45.05219355 68.31005111 -45.0234375 64.90625 C-45.02630768 64.16294434 -45.02917786 63.41963867 -45.03213501 62.65380859 C-45.03417476 61.0836511 -45.028651 59.51346814 -45.01611328 57.94335938 C-45.00005703 55.53978668 -45.01596352 53.13789539 -45.03515625 50.734375 C-45.0331738 49.20832962 -45.02933009 47.68228529 -45.0234375 46.15625 C-45.03254654 45.07802979 -45.03254654 45.07802979 -45.0418396 43.97802734 C-45.00273525 41.20415884 -44.9070463 39.03147239 -43.52856445 36.58666992 C-40.6249778 34.97679367 -38.07062448 35.08917457 -34.76953125 35.01953125 C-34.10789474 35.00158005 -33.44625824 34.98362885 -32.76457214 34.96513367 C-30.65561253 34.91104102 -28.54687901 34.87714069 -26.4375 34.84375 C-25.00582792 34.81057573 -23.57418567 34.77608595 -22.14257812 34.74023438 C-18.6369361 34.65531743 -15.13121527 34.58850079 -11.625 34.53125 C-11.61041748 33.6434082 -11.59583496 32.75556641 -11.58081055 31.84082031 C-11.51965466 28.53797038 -11.44548622 25.23594085 -11.36254883 21.93359375 C-11.32935206 20.50597086 -11.30130369 19.07821837 -11.27856445 17.65039062 C-11.24491987 15.59449185 -11.19260438 13.53977488 -11.13671875 11.484375 C-11.11053467 10.24848633 -11.08435059 9.01259766 -11.05737305 7.73925781 C-10.08192971 0.50191991 -6.68192223 -0.07526711 0 0 Z " fill="#FAE773" transform="translate(165.625,193.46875)"/>
<path d="M0 0 C5.0198565 3.32067877 8.23204881 7.61211187 10.01953125 13.3359375 C10.31550313 16.75664697 10.29974642 20.1659003 10.28515625 23.59765625 C10.28802643 25.07816216 10.28802643 25.07816216 10.29095459 26.58857727 C10.29231266 28.66883602 10.28864269 30.74910335 10.28027344 32.8293457 C10.26953444 36.02248995 10.28019919 39.21507594 10.29296875 42.40820312 C10.29164776 44.42968875 10.28908662 46.45117402 10.28515625 48.47265625 C10.28920471 49.43096848 10.29325317 50.3892807 10.29742432 51.37663269 C10.29112 52.26127701 10.28481567 53.14592133 10.27832031 54.05737305 C10.27672913 54.83727097 10.27513794 55.61716888 10.27349854 56.42070007 C10.01953125 58.3359375 10.01953125 58.3359375 8.01953125 60.3359375 C3.46397569 59.78038194 3.46397569 59.78038194 2.01953125 58.3359375 C1.65192394 56.00775786 1.31711544 53.674099 1.01953125 51.3359375 C-0.18703125 52.4496875 -0.18703125 52.4496875 -1.41796875 53.5859375 C-8.6111187 59.44393201 -15.32607138 61.0694128 -24.59765625 60.7890625 C-30.90172959 59.94463697 -35.09045446 57.3228756 -39.41796875 52.7734375 C-43.16226432 46.9323364 -43.92889419 42.27189726 -42.98046875 35.3359375 C-40.39138135 29.02310288 -36.51735578 25.25288351 -30.29296875 22.6484375 C-20.5345926 19.57365895 -8.67032211 20.51707107 1.01953125 23.3359375 C0.82773455 18.9342033 0.58945316 15.34426088 -1.60546875 11.4609375 C-7.39474969 6.28105456 -12.64695746 5.91942229 -20.1796875 6.09765625 C-23.35587768 6.36787606 -26.00967662 7.20420716 -28.98046875 8.3359375 C-32.29296875 8.5234375 -32.29296875 8.5234375 -34.98046875 8.3359375 C-35.98046875 7.3359375 -35.98046875 7.3359375 -36.35546875 4.9609375 C-35.98046875 2.3359375 -35.98046875 2.3359375 -33.85546875 0.6484375 C-23.66141509 -4.0053696 -10.34777687 -4.97116368 0 0 Z " fill="#090909" transform="translate(558.98046875,165.6640625)"/>
<path d="M0 0 C7.28751829 4.90426562 12.58782257 11.01698122 14.66796875 19.6328125 C15.48793593 24.68251136 16.01530067 28.633299 13.0625 33.0625 C11.11361694 33.42326355 11.11361694 33.42326355 8.70458984 33.40307617 C7.80380707 33.40284958 6.90302429 33.40262299 5.97494507 33.40238953 C5.00094757 33.38690567 4.02695007 33.37142181 3.0234375 33.35546875 C2.02744537 33.35122391 1.03145325 33.34697906 0.00527954 33.34260559 C-3.18425225 33.3257768 -6.37315833 33.28811676 -9.5625 33.25 C-11.72134506 33.2349586 -13.8802 33.22126925 -16.0390625 33.20898438 C-21.33875612 33.17585967 -26.63808337 33.12561896 -31.9375 33.0625 C-31.4759983 34.49457091 -31.01034381 35.92530392 -30.54296875 37.35546875 C-30.28410889 38.15235107 -30.02524902 38.9492334 -29.75854492 39.77026367 C-28.04564229 44.5524352 -25.80268715 47.84369314 -21.4375 50.4375 C-16.08327523 52.80053775 -10.66958499 52.95649491 -4.9375 52.0625 C-0.68400482 50.39434198 2.83161164 48.29338836 6.0625 45.0625 C8.625 44.875 8.625 44.875 11.0625 45.0625 C12.0625 46.0625 12.0625 46.0625 12.5625 48.25 C11.88365501 52.06850304 10.23772027 53.31375201 7.23046875 55.63671875 C-0.97509349 61.03316959 -9.21026171 62.33564026 -18.9375 61.0625 C-27.35251968 58.47502456 -33.77055085 52.8992736 -38.3125 45.4375 C-42.13831859 37.49156909 -42.02246381 27.31709141 -40.3125 18.75 C-36.9236685 9.66177006 -31.36119668 3.23604691 -22.64453125 -1.0703125 C-15.76235276 -3.27499305 -6.52506839 -3.30239063 0 0 Z " fill="#0A0A0B" transform="translate(655.9375,164.9375)"/>
<path d="M0 0 C7.47465445 -0.10134735 14.949132 -0.1714435 22.42431641 -0.21972656 C24.96767803 -0.23985272 27.51099333 -0.26715637 30.05419922 -0.30175781 C33.70812404 -0.3502297 37.36143756 -0.37295916 41.015625 -0.390625 C42.72362274 -0.42159271 42.72362274 -0.42159271 44.46612549 -0.45318604 C46.05732208 -0.45363922 46.05732208 -0.45363922 47.68066406 -0.45410156 C48.61332092 -0.46298401 49.54597778 -0.47186646 50.50689697 -0.48101807 C53.77971721 0.15043825 54.94197295 1.43155029 57 4 C57.94337376 6.83012127 58.12172829 8.54299918 58.11352539 11.47143555 C58.11341209 12.82249641 58.11341209 12.82249641 58.11329651 14.20085144 C58.10813522 15.16968765 58.10297394 16.13852386 58.09765625 17.13671875 C58.0962413 18.13129593 58.09482635 19.12587311 58.09336853 20.15058899 C58.08776761 23.32958982 58.07521496 26.50852043 58.0625 29.6875 C58.05748512 31.84179586 58.05292219 33.99609282 58.04882812 36.15039062 C58.03779788 41.43361774 58.02105886 46.71680385 58 52 C54.98045155 53.58776994 52.66170873 54.32396688 49.25 54.625 C48.45078125 54.69976562 47.6515625 54.77453125 46.828125 54.8515625 C46.22484375 54.90054688 45.6215625 54.94953125 45 55 C45.16226074 54.32727051 45.32452148 53.65454102 45.49169922 52.96142578 C46.0911955 49.46868329 46.12972614 46.16165258 46.1328125 42.6171875 C46.13424759 41.57306198 46.13424759 41.57306198 46.13571167 40.50784302 C46.13638931 39.04380197 46.13456419 37.57975785 46.13037109 36.11572266 C46.12500062 33.87525718 46.13033847 31.63499068 46.13671875 29.39453125 C46.13605821 27.96874956 46.13477755 26.54296799 46.1328125 25.1171875 C46.13112061 23.17755127 46.13112061 23.17755127 46.12939453 21.19873047 C46.14742321 17.97956174 46.14742321 17.97956174 45 15 C39.76728431 14.92596288 34.53487199 14.87145217 29.30175781 14.83520508 C27.52077933 14.82009827 25.73983816 14.79961165 23.95898438 14.77368164 C21.40225022 14.73738057 18.8460069 14.72029312 16.2890625 14.70703125 C15.49005524 14.69154739 14.69104797 14.67606354 13.86782837 14.66011047 C11.38935852 14.62423565 11.38935852 14.62423565 8 15 C5.57833703 18.63249445 5.70892346 20.49208694 5.62109375 24.8203125 C5.60409927 25.47957733 5.5871048 26.13884216 5.56959534 26.81808472 C5.51653348 28.920293 5.47618633 31.02248185 5.4375 33.125 C5.39360079 35.23456102 5.34695591 37.34396783 5.29469299 39.45333862 C5.24812288 41.36214314 5.21064614 43.27116298 5.17358398 45.18017578 C5 48 5 48 4 49 C1.8059611 49.13430578 -0.39210789 49.20364545 -2.58984375 49.24609375 C-3.94466799 49.27902929 -5.29948554 49.31224098 -6.65429688 49.34570312 C-8.79837472 49.3931635 -10.94242484 49.43759007 -13.08666992 49.47680664 C-15.15051799 49.51645494 -17.21380366 49.5680139 -19.27734375 49.62109375 C-21.13734009 49.65867798 -21.13734009 49.65867798 -23.03491211 49.69702148 C-26.11770413 49.69666103 -26.11770413 49.69666103 -28 52 C-28.24501495 54.43176397 -28.37324921 56.75864884 -28.4140625 59.1953125 C-28.43342865 59.90275604 -28.4527948 60.61019958 -28.4727478 61.33908081 C-28.53257652 63.60093085 -28.57894101 65.8628317 -28.625 68.125 C-28.66317686 69.6575744 -28.70222842 71.19012728 -28.7421875 72.72265625 C-28.83828039 76.48159624 -28.92229849 80.24063668 -29 84 C-29.33 84 -29.66 84 -30 84 C-30 74.1 -30 64.2 -30 54 C-33.3 53.34 -36.6 52.68 -40 52 C-40.27653302 42.59787736 -40.27653302 42.59787736 -38 39 C-35.15464275 37.57732138 -32.63781448 37.78028131 -29.4609375 37.68359375 C-27.50800781 37.62075195 -27.50800781 37.62075195 -25.515625 37.55664062 C-24.13541955 37.51682701 -22.75521117 37.47711478 -21.375 37.4375 C-19.98696585 37.39430593 -18.59894472 37.35069135 -17.2109375 37.30664062 C-13.80739744 37.20028 -10.40378222 37.09825286 -7 37 C-7.00169189 35.63065308 -7.00169189 35.63065308 -7.00341797 34.23364258 C-6.99346561 30.831452 -6.95683687 27.43168636 -6.90234375 24.0300293 C-6.88422611 22.56072088 -6.87660762 21.09124264 -6.87988281 19.62182617 C-6.88275278 17.50306948 -6.84732139 15.38780262 -6.8046875 13.26953125 C-6.79421387 11.99698486 -6.78374023 10.72443848 -6.77294922 9.41333008 C-5.71401506 4.73709556 -3.83099089 3.73800748 0 1 C0 0.67 0 0.34 0 0 Z " fill="#5D739A" transform="translate(150,180)"/>
<path d="M0 0 C3.14715002 1.19891429 4.15385881 2.64156326 5.6640625 5.6015625 C7.31075114 9.71159023 8.40171842 13.96918444 9.55859375 18.23828125 C12.24530668 27.7155873 15.89065392 36.89304444 19.625 46 C19.86081787 45.2881958 20.09663574 44.5763916 20.33959961 43.84301758 C22.90907248 36.10825826 25.52959318 28.39229228 28.1875 20.6875 C28.57357422 19.56021484 28.95964844 18.43292969 29.35742188 17.27148438 C34.62878002 1.99621998 34.62878002 1.99621998 36.625 0 C38.96444736 0.28730055 41.2989143 0.61936779 43.625 1 C46.73140569 8.49501126 49.49341235 16.09290943 52.14428711 23.76000977 C52.81582057 25.69707833 53.49668822 27.63071181 54.17773438 29.56445312 C54.60763672 30.80517578 55.03753906 32.04589844 55.48046875 33.32421875 C55.86871826 34.43885498 56.25696777 35.55349121 56.65698242 36.7019043 C57.66357478 40.13142667 58.20413037 43.45475597 58.625 47 C59.285 47 59.945 47 60.625 47 C60.73457031 46.43152344 60.84414063 45.86304688 60.95703125 45.27734375 C62.0035194 40.18103153 63.52836143 35.78033594 65.625 31 C66.08355794 29.56907823 66.51885234 28.13060313 66.9375 26.6875 C68.42031802 21.61924369 69.99804699 16.58604794 71.625 11.5625 C71.87419189 10.7686792 72.12338379 9.9748584 72.38012695 9.15698242 C72.62593506 8.40521729 72.87174316 7.65345215 73.125 6.87890625 C73.3415625 6.2041626 73.558125 5.52941895 73.78125 4.83422852 C74.76347008 2.69897983 75.80278004 1.47743736 77.625 0 C80.25 -0.25 80.25 -0.25 82.625 0 C83.625 1 83.625 1 83.91015625 4.453125 C83.836949 9.68221436 82.03931327 13.97030294 80.0625 18.75 C79.32433586 20.60448073 78.58872169 22.45997818 77.85546875 24.31640625 C77.48212402 25.25629395 77.1087793 26.19618164 76.72412109 27.16455078 C74.99218241 31.63250633 73.43177782 36.15615691 71.875 40.6875 C64.93996164 60.68104748 64.93996164 60.68104748 61.625 63 C59.1328125 63.05859375 59.1328125 63.05859375 56.625 62 C54.9296875 59.41015625 54.9296875 59.41015625 53.5 56.0625 C52.78457031 54.44021484 52.78457031 54.44021484 52.0546875 52.78515625 C50.61930255 49.17004022 49.54449869 45.47223224 48.45507812 41.7409668 C46.93848932 36.73310136 45.17358865 31.81013808 43.4375 26.875 C43.06947266 25.823125 42.70144531 24.77125 42.32226562 23.6875 C41.42514644 21.12430234 40.52602729 18.5618259 39.625 16 C39.27308594 17.00675781 38.92117188 18.01351562 38.55859375 19.05078125 C34.9467788 29.35095884 31.24208433 39.61457691 27.42431641 49.84033203 C26.87982451 51.31149126 26.34605146 52.78665184 25.82177734 54.26513672 C23.83890768 59.78609232 23.83890768 59.78609232 21.625 62 C18.5 62.125 18.5 62.125 15.625 62 C11.96792029 54.65213477 9.1589313 47.09868574 6.51147461 39.34643555 C4.79044664 34.31097318 3.00786769 29.30758353 1.140625 24.32421875 C0.72329102 23.20096191 0.30595703 22.07770508 -0.12402344 20.92041016 C-0.94577123 18.71464921 -1.77687703 16.51234764 -2.61816406 14.31396484 C-2.99166992 13.30414551 -3.36517578 12.29432617 -3.75 11.25390625 C-4.08773438 10.36002197 -4.42546875 9.4661377 -4.7734375 8.54516602 C-5.46186808 5.63246764 -5.29678797 3.83443606 -4.375 1 C-2.375 0 -2.375 0 0 0 Z " fill="#0A0A0A" transform="translate(431.375,163)"/>
<path d="M0 0 C4.20454929 2.58006434 6.00771187 5.13663209 7.4921875 9.7265625 C8.96632621 16.32616811 8.71999927 22.29985004 5.33984375 28.2421875 C1.57104183 33.18667981 -3.05242099 35.41379936 -9.078125 36.30859375 C-15.90105265 36.71355169 -18.91310249 34.43947419 -24 30 C-24.33 35.28 -24.66 40.56 -25 46 C-26.98 46.495 -26.98 46.495 -29 47 C-29 31.16 -29 15.32 -29 -1 C-27.68 -1 -26.36 -1 -25 -1 C-24.67 0.65 -24.34 2.3 -24 4 C-23.278125 3.21625 -22.55625 2.4325 -21.8125 1.625 C-15.05237603 -4.68444904 -7.96603352 -4.1305359 0 0 Z " fill="#FCFCFC" transform="translate(395,260)"/>
<path d="M0 0 C2.4375 0.8125 2.4375 0.8125 4.4375 2.8125 C5.00270003 5.46787372 5.17538198 8.10394713 5.4375 10.8125 C5.994375 10.07 6.55125 9.3275 7.125 8.5625 C10.99823518 3.95649059 14.53604017 1.22885036 20.4375 -0.1875 C24.1875 -0.4375 24.1875 -0.4375 27.4375 -0.1875 C29.4375 1.8125 29.4375 1.8125 29.6875 4.3125 C29.4375 6.8125 29.4375 6.8125 27.4375 8.8125 C25.5546875 9.234375 25.5546875 9.234375 23.3125 9.5625 C17.01816261 10.85182395 12.51423377 14.18197056 8.5625 19.1875 C4.75098608 28.08103247 5.05618697 37.10663665 4.90576172 46.63549805 C4.87204411 48.57616002 4.82681372 50.51661126 4.78125 52.45703125 C4.76255859 53.60534424 4.74386719 54.75365723 4.72460938 55.93676758 C4.4375 58.8125 4.4375 58.8125 2.4375 61.8125 C-0.5625 62.1875 -0.5625 62.1875 -3.5625 61.8125 C-5.80444697 58.44957954 -5.8186437 57.31345115 -5.8371582 53.37890625 C-5.84669022 52.26765381 -5.85622223 51.15640137 -5.86604309 50.01147461 C-5.86513168 48.81143799 -5.86422028 47.61140137 -5.86328125 46.375 C-5.86756638 45.14338135 -5.8718515 43.9117627 -5.87626648 42.64282227 C-5.88348636 39.36911868 -5.88038006 36.09559848 -5.87469482 32.82189941 C-5.87499971 30.81442 -5.88504271 28.80723508 -5.89868164 26.79980469 C-5.92310625 22.94972798 -5.92733962 19.10014432 -5.92578125 15.25 C-5.934991 14.04996338 -5.94420074 12.84992676 -5.95368958 11.61352539 C-5.94746078 10.50227295 -5.94123199 9.39102051 -5.93481445 8.24609375 C-5.93544388 7.26697021 -5.9360733 6.28784668 -5.9367218 5.27905273 C-5.5625 2.8125 -5.5625 2.8125 -4.1993866 0.96118164 C-2.5625 -0.1875 -2.5625 -0.1875 0 0 Z " fill="#0F0F0F" transform="translate(585.5625,163.1875)"/>
<path d="M0 0 C3.46350913 2.7708073 5.7428571 6.08303565 8.1875 9.75 C8.1875 12.72 8.1875 15.69 8.1875 18.75 C-2.0425 18.75 -12.2725 18.75 -22.8125 18.75 C-19.33404886 27.59822199 -19.33404886 27.59822199 -12.8125 31.75 C-7.34236676 32.55742658 -2.40951885 32.82554331 2.25 29.6875 C2.889375 29.048125 3.52875 28.40875 4.1875 27.75 C5.1775 28.08 6.1675 28.41 7.1875 28.75 C5.79114382 32.12452744 4.3268647 33.86638118 1.1875 35.75 C-4.33893279 37.48687888 -10.5609145 37.54467724 -16 35.625 C-20.69389108 32.49573928 -24.5924731 29.52191948 -26.25 23.9375 C-27.53089379 17.10170969 -26.56307184 10.64375575 -22.8125 4.75 C-16.53664327 -2.71318097 -8.76146762 -3.89398561 0 0 Z " fill="#171717" transform="translate(554.8125,259.25)"/>
<path d="M0 0 C0.82048828 -0.00322266 1.64097656 -0.00644531 2.48632812 -0.00976562 C7.54305742 0.03462705 11.77080549 0.69377144 16.5625 2.3125 C16.9625 12.5125 16.9625 12.5125 14.5625 16.3125 C9.15565595 21.86514659 4.28096059 25.53290489 -3.6875 25.8125 C-9.7774699 25.72172809 -14.05805436 23.49843525 -18.4375 19.3125 C-19.67737863 15.5928641 -19.9744813 12.17725277 -19.4375 8.3125 C-14.97410196 0.587388 -8.14504432 -0.15920728 0 0 Z " fill="#F6F6F6" transform="translate(544.4375,193.6875)"/>
<path d="M0 0 C3.6031234 2.27198884 5.26589064 5.32653259 6.76953125 9.2109375 C7.13317054 12.21096166 7.01953125 15.25145496 7.01953125 18.2734375 C-2.88046875 18.2734375 -12.78046875 18.2734375 -22.98046875 18.2734375 C-21.00933221 26.86714804 -21.00933221 26.86714804 -14.98046875 31.2734375 C-11.9005653 32.81338923 -9.39304114 32.49721274 -5.98046875 32.2734375 C-2.30566291 30.97247276 -2.30566291 30.97247276 1.01953125 29.2734375 C1.82390625 28.8815625 2.62828125 28.4896875 3.45703125 28.0859375 C3.97265625 27.8178125 4.48828125 27.5496875 5.01953125 27.2734375 C5.01953125 28.5934375 5.01953125 29.9134375 5.01953125 31.2734375 C-1.21547522 36.23310174 -7.18014299 37.15112867 -14.98046875 36.2734375 C-19.85726397 33.88104739 -22.79002479 30.55774795 -25.98046875 26.2734375 C-27.98826576 20.25004648 -28.48125102 12.51942912 -25.78125 6.6796875 C-18.87746034 -2.64129804 -10.66114814 -5.12171001 0 0 Z " fill="#1B1B1B" transform="translate(483.98046875,259.7265625)"/>
<path d="M0 0 C4.58918918 4.04285714 7.08674451 8.41585397 8.625 14.3125 C8.625 15.6325 8.625 16.9525 8.625 18.3125 C-3.915 18.3125 -16.455 18.3125 -29.375 18.3125 C-29.375 11.19721072 -27.87013437 7.70307946 -23.375 2.3125 C-15.99691816 -3.49361939 -8.32773182 -4.16386591 0 0 Z " fill="#FAFAFA" transform="translate(653.375,172.6875)"/>
<path d="M0 0 C4.20454929 2.58006434 6.00771187 5.13663209 7.4921875 9.7265625 C8.96632621 16.32616811 8.71999927 22.29985004 5.33984375 28.2421875 C1.57104183 33.18667981 -3.05242099 35.41379936 -9.078125 36.30859375 C-15.90105265 36.71355169 -18.91310249 34.43947419 -24 30 C-24.33 35.28 -24.66 40.56 -25 46 C-26.98 46.495 -26.98 46.495 -29 47 C-29 31.16 -29 15.32 -29 -1 C-27.68 -1 -26.36 -1 -25 -1 C-24.67 0.65 -24.34 2.3 -24 4 C-23.278125 3.21625 -22.55625 2.4325 -21.8125 1.625 C-15.05237603 -4.68444904 -7.96603352 -4.1305359 0 0 Z M-23 7 C-25.91378522 11.41767436 -26.7124801 14.74545929 -26 20 C-24.21794439 24.56175774 -22.22256141 28.0617552 -18.3125 31.0625 C-12.37310065 32.74346208 -7.24170766 33.01895803 -1.5625 30.4375 C2.6959346 26.38679392 4.14150464 22.21651015 4.375 16.4375 C4.21387047 12.31818858 3.33931861 9.46864484 1 6 C-3.83473145 1.63694966 -6.96976735 0.52489288 -13.390625 0.58984375 C-17.79029136 1.28140807 -20.23441598 3.64288828 -23 7 Z " fill="#181818" transform="translate(395,260)"/>
<path d="M0 0 C2 1 2 1 3.10783386 3.12286377 C4.17068507 6.55044031 4.26132801 9.44420602 4.2746582 13.03417969 C4.27976913 13.72271027 4.28488007 14.41124084 4.29014587 15.12063599 C4.30399913 17.38780514 4.30308774 19.65466865 4.30078125 21.921875 C4.30467179 23.50742708 4.3090072 25.09297812 4.31376648 26.67852783 C4.32122046 30.00056333 4.32094432 33.32249255 4.31567383 36.64453125 C4.30989383 40.88218324 4.32677831 45.11939607 4.3500185 49.35697556 C4.3648226 52.63257349 4.36561828 55.90806746 4.36250877 59.18369293 C4.36301909 60.74485389 4.36820185 62.30602111 4.37832069 63.86714935 C4.4839616 82.45149457 4.4839616 82.45149457 -1.25 89.9375 C-7.40666096 94.55499572 -14.05000505 94.26328284 -21.4375 94.125 C-22.35982422 94.11597656 -23.28214844 94.10695313 -24.23242188 94.09765625 C-26.48855809 94.0742766 -28.74413684 94.04150916 -31 94 C-30.98428955 94.6297876 -30.9685791 95.2595752 -30.95239258 95.90844727 C-30.88959768 98.79303825 -30.85086942 101.67748486 -30.8125 104.5625 C-30.78736328 105.55314453 -30.76222656 106.54378906 -30.73632812 107.56445312 C-30.66614375 114.6062852 -31.31835696 119.55217323 -35.75 125.25 C-41.02253765 129.35086262 -45.87897455 130.37616024 -52.46069336 130.40405273 C-53.17062943 130.41091599 -53.88056549 130.41777924 -54.61201477 130.42485046 C-56.93816635 130.44301935 -59.26363705 130.43929545 -61.58984375 130.43359375 C-63.21977454 130.43816035 -64.84970341 130.44346734 -66.47962952 130.44947815 C-69.88811081 130.45838979 -73.29635755 130.45600848 -76.70483398 130.44604492 C-81.05700489 130.43455787 -85.40836409 130.45477207 -89.76042843 130.48396206 C-93.12436503 130.50237255 -96.48810883 130.502022 -99.85208321 130.49632454 C-101.45593975 130.49617192 -103.05980985 130.50216725 -104.66361809 130.51461601 C-120.07079412 130.61737135 -120.07079412 130.61737135 -127 126 C-127 125.01 -127 124.02 -127 123 C-126.236875 123.474375 -125.47375 123.94875 -124.6875 124.4375 C-120.35331339 126.95737593 -117.13999839 127.13400685 -112.19287109 127.16113281 C-111.16051331 127.16858017 -111.16051331 127.16858017 -110.1072998 127.17617798 C-107.8293355 127.1907858 -105.55144096 127.19760128 -103.2734375 127.203125 C-101.68502807 127.20888008 -100.09661864 127.21463777 -98.50820923 127.22039795 C-95.17425209 127.23090573 -91.84031903 127.23674903 -88.50634766 127.24023438 C-84.25297341 127.24570144 -79.99992215 127.26969176 -75.74664879 127.29820633 C-72.46248477 127.3169208 -69.17839693 127.32204309 -65.89418411 127.32357025 C-64.32743195 127.32658034 -62.7606806 127.33455279 -61.19398117 127.34775543 C-47.35419691 127.81372787 -47.35419691 127.81372787 -35.484375 121.6484375 C-33.21112545 116.06102939 -33.32124797 110.60335222 -33.25 104.625 C-33.22035156 103.41199219 -33.19070312 102.19898438 -33.16015625 100.94921875 C-33.0896884 97.96607979 -33.0368752 94.98371205 -33 92 C-32.20303711 91.95512451 -31.40607422 91.91024902 -30.58496094 91.86401367 C-26.97231933 91.65263571 -23.36132104 91.42031105 -19.75 91.1875 C-18.49574219 91.11724609 -17.24148437 91.04699219 -15.94921875 90.97460938 C-14.74394531 90.89404297 -13.53867188 90.81347656 -12.296875 90.73046875 C-11.18666992 90.66239014 -10.07646484 90.59431152 -8.93261719 90.52416992 C-5.58841398 89.92643397 -4.29508922 89.50029794 -2 87 C2.1390585 79.41425797 1.39926364 71.11926012 1.328125 62.71484375 C1.32506187 61.1287911 1.32318997 59.54273574 1.32244873 57.9566803 C1.31786385 54.64410995 1.30350839 51.33178515 1.28125 48.01928711 C1.25294624 43.78726418 1.24203356 39.55543377 1.2375679 35.32332516 C1.23239671 31.26630696 1.21786991 27.20933631 1.203125 23.15234375 C1.20124428 22.38586958 1.19936356 21.61939541 1.19742584 20.82969475 C1.19050029 18.64543187 1.1768396 16.46131493 1.16113281 14.27709961 C1.15430481 13.03770126 1.14747681 11.79830292 1.14044189 10.52134705 C0.99816644 6.9540265 0.56676378 3.52275073 0 0 Z " fill="#344539" transform="translate(223,170)"/>
<path d="M0 0 C1.93359375 1.484375 1.93359375 1.484375 2.7109375 3.65625 C2.78441406 4.25953125 2.85789062 4.8628125 2.93359375 5.484375 C-0.056314 5.04468268 -2.07049671 4.4819402 -4.69140625 2.921875 C-9.52645278 0.86250333 -13.88538715 0.8165992 -19.06640625 1.484375 C-22.82912687 2.71117727 -22.82912687 2.71117727 -25.06640625 5.484375 C-25.89792787 10.24672612 -25.85679982 12.21409962 -23.31640625 16.296875 C-19.36750498 18.95478931 -15.82299092 19.66881576 -11.21484375 20.67578125 C-4.93291899 22.28912917 1.51288388 24.70123738 4.93359375 30.484375 C5.86142838 35.0817538 5.33346448 38.68463354 3.24609375 42.859375 C0.05017856 46.48717063 -3.2368275 48.79443518 -8.06640625 49.484375 C-18.11598966 49.98685417 -24.33671144 48.02172327 -32.06640625 41.484375 C-31.73640625 40.824375 -31.40640625 40.164375 -31.06640625 39.484375 C-28.11159938 39.9571441 -26.72813805 40.73243835 -24.25390625 42.546875 C-18.7416252 45.81341192 -11.19604061 45.57846716 -5.06640625 44.484375 C-2.31083141 42.32060147 -0.52970628 40.72611316 0.703125 37.421875 C0.77183621 34.32362393 0.6956261 32.32412169 -1.4453125 29.96484375 C-6.27624686 26.62655717 -11.4972837 25.55673648 -17.15234375 24.296875 C-22.66368225 22.76020153 -26.89092391 20.24759852 -30.06640625 15.484375 C-30.74136829 10.85382145 -30.74697818 6.78880453 -28.56640625 2.609375 C-19.38173349 -5.19759684 -10.59209492 -5.35388261 0 0 Z " fill="#1E1E1E" transform="translate(349.06640625,246.515625)"/>
<path d="M0 0 C0.33 0 0.66 0 1 0 C1.33 28.38 1.66 56.76 2 86 C2.33 86 2.66 86 3 86 C2.99887207 87.08829102 2.99774414 88.17658203 2.99658203 89.29785156 C3.00029292 93.39113645 3.04344563 97.48327043 3.09765625 101.57617188 C3.11566493 103.33716342 3.12341262 105.09829446 3.12011719 106.859375 C3.10558713 119.64582204 4.1269804 128.80555099 12.5 139.0625 C15.19757659 141.15312186 17.88242537 142.62246702 21 144 C20.67 144.66 20.34 145.32 20 146 C23.64568822 147.66126027 26.50204668 148.25512393 30.49861145 148.2784729 C31.59091064 148.28963638 32.68320984 148.30079987 33.80860901 148.31230164 C34.9968779 148.31446182 36.18514679 148.31662201 37.40942383 148.31884766 C38.66836456 148.32889328 39.9273053 148.3389389 41.22439575 148.34928894 C44.66819184 148.37654685 48.11194712 148.39172578 51.55582261 148.40471697 C55.15800539 148.42036599 58.76010505 148.44715055 62.36222839 148.4727478 C69.17960428 148.51950428 75.99699585 148.5562635 82.81444997 148.58942068 C90.57746839 148.62766422 98.34040327 148.67706852 106.10335124 148.72740483 C122.06884041 148.83067809 138.03437646 148.91995342 154 149 C154 149.33 154 149.66 154 150 C137.05792626 150.09354845 120.11593342 150.16403055 103.17366028 150.20724869 C95.30660352 150.22785132 87.43970749 150.25592768 79.57275391 150.30175781 C72.71384317 150.3416963 65.85504887 150.36744953 58.99602509 150.37635398 C55.36603883 150.38155694 51.7363856 150.39373712 48.10650635 150.42292023 C44.04872019 150.45527727 39.99150859 150.45595494 35.93359375 150.45410156 C34.73740921 150.46848267 33.54122467 150.48286377 32.30879211 150.49768066 C21.81294259 150.44583876 15.63098257 147.2350654 7.98046875 140.05859375 C-0.64450753 131.09338172 -0.30644975 118.52446386 -0.22705078 106.71386719 C-0.22734283 105.55143997 -0.22763489 104.38901276 -0.22793579 103.19136047 C-0.22655526 99.39311963 -0.21105459 95.59508108 -0.1953125 91.796875 C-0.19157782 89.14601307 -0.18863447 86.49516198 -0.18673706 83.84429932 C-0.18055458 77.60791296 -0.1641882 71.37159787 -0.14403808 65.1352427 C-0.12157761 58.02749184 -0.1106603 50.91973733 -0.10064721 43.81195974 C-0.07981858 29.20793663 -0.04470643 14.60396932 0 0 Z " fill="#7B818B" transform="translate(66,172)"/>
<path d="M0 0 C0.99 0.33 1.98 0.66 3 1 C3.33 7.6 3.66 14.2 4 21 C5.65 19.35 7.3 17.7 9 16 C13.48438457 14.05676669 18.62150312 14.50374112 23.125 16.125 C26.60705594 18.39590605 29.22299638 20.21526754 31 24 C31.62124687 28.963173 31.47129375 33.88707871 31.3125 38.875 C31.28739222 40.24475108 31.26458339 41.61454635 31.24414062 42.984375 C31.1853436 46.32404622 31.10319834 49.66145431 31 53 C29.68 52.67 28.36 52.34 27 52 C26.98541748 51.23856689 26.97083496 50.47713379 26.95581055 49.69262695 C26.88119459 46.23208112 26.78457741 42.77248555 26.6875 39.3125 C26.66494141 38.11431641 26.64238281 36.91613281 26.61914062 35.68164062 C26.58369141 34.52470703 26.54824219 33.36777344 26.51171875 32.17578125 C26.48553467 31.11270752 26.45935059 30.04963379 26.43237305 28.9543457 C25.94554019 25.62788358 24.97530419 23.69882557 23 21 C19.31313877 19.15656938 15.03302333 19.6443318 11 20 C8.04532921 21.23111283 6.60646912 22.04570697 4.90087891 24.72949219 C3.7648151 27.59274243 3.67646172 30.00030167 3.5859375 33.078125 C3.52792969 34.81835938 3.52792969 34.81835938 3.46875 36.59375 C3.4378125 37.8003125 3.406875 39.006875 3.375 40.25 C3.33632813 41.47203125 3.29765625 42.6940625 3.2578125 43.953125 C3.16357892 46.9685994 3.07796545 49.98406828 3 53 C1.68 52.67 0.36 52.34 -1 52 C-1.02526739 44.75513449 -1.0428318 37.51028026 -1.05493164 30.26538086 C-1.05997356 27.79857967 -1.06680691 25.33178148 -1.07543945 22.86499023 C-1.08751125 19.32795471 -1.09322956 15.79095855 -1.09765625 12.25390625 C-1.10281754 11.14350479 -1.10797882 10.03310333 -1.11329651 8.88905334 C-1.11337204 7.86807053 -1.11344757 6.84708771 -1.11352539 5.79516602 C-1.115746 4.89137711 -1.11796661 3.9875882 -1.12025452 3.05641174 C-1 1 -1 1 0 0 Z " fill="#1A1A1A" transform="translate(415,242)"/>
<path d="M0 0 C0 0.66 0 1.32 0 2 C0.66 2 1.32 2 2 2 C2 2.66 2 3.32 2 4 C2.556875 4.226875 3.11375 4.45375 3.6875 4.6875 C6.66159588 6.37550036 8.72008865 8.46676517 11 11 C11 11.66 11 12.32 11 13 C11.66 13 12.32 13 13 13 C12.5206753 17.31392226 11.2542015 19.16569547 8 22 C7.175 21.67 6.35 21.34 5.5 21 C0.07515236 19.45004353 -4.48113387 19.62028347 -10 21 C-12.31 18.36 -14.62 15.72 -17 13 C-13.88979415 6.77958829 -7.53718184 -2.26115455 0 0 Z " fill="#5161A7" transform="translate(615,278)"/>
<path d="M0 0 C3.18623816 2.60692213 4.01072185 5.03286394 5 9 C5.28492228 13.14431135 5.25245596 17.27858031 5.22705078 21.43115234 C5.22734283 22.68048553 5.22763489 23.92981873 5.22793579 25.2170105 C5.2267839 28.62986523 5.21677611 32.0424759 5.20278788 35.45528746 C5.19025755 39.026713 5.18910821 42.59814205 5.18673706 46.16958618 C5.18052905 52.9267841 5.16412744 59.68391706 5.14403808 66.44108641 C5.12165793 74.13635414 5.11068034 81.83162503 5.10064721 89.52691722 C5.07976059 105.35131573 5.04459785 121.17564948 5 137 C4.34 137 3.68 137 3 137 C2.505 137.99 2.505 137.99 2 139 C1.99365209 137.98923983 1.99365209 137.98923983 1.98717594 136.95806026 C1.88379315 120.54889974 1.77514411 104.13978335 1.66066074 87.73069668 C1.60542358 79.79533262 1.55195744 71.85996407 1.50268555 63.92456055 C1.45972699 57.00666983 1.41342003 50.08881093 1.36312145 43.17096955 C1.33661427 39.50931413 1.31176405 35.84766464 1.29092598 32.18597221 C1.2675796 28.09455564 1.23675653 24.00322767 1.20532227 19.91186523 C1.1995668 18.70273468 1.19381134 17.49360413 1.18788147 16.24783325 C1.13969016 10.73253156 0.98267802 5.43213774 0 0 Z " fill="#5B667B" transform="translate(245,158)"/>
<path d="M0 0 C4.80057856 2.02048091 8.2995763 6.51827407 11.9309082 10.14160156 C12.82745117 11.00140625 13.72399414 11.86121094 14.64770508 12.74707031 C15.49010742 13.58367187 16.33250977 14.42027344 17.20043945 15.28222656 C17.97621338 16.04567383 18.7519873 16.80912109 19.55126953 17.59570312 C21.1184082 19.89160156 21.1184082 19.89160156 20.86328125 22.6796875 C20.61747314 23.40961914 20.37166504 24.13955078 20.1184082 24.89160156 C19.1284082 25.22160156 18.1384082 25.55160156 17.1184082 25.89160156 C16.7884082 26.88160156 16.4584082 27.87160156 16.1184082 28.89160156 C9.34264607 28.14598297 5.82252544 23.21596731 1.2434082 18.57910156 C0.35137695 17.71091797 -0.5406543 16.84273438 -1.4597168 15.94824219 C-2.29760742 15.10841797 -3.13549805 14.26859375 -3.9987793 13.40332031 C-4.76818848 12.63463623 -5.53759766 11.86595215 -6.33032227 11.07397461 C-7.8815918 8.89160156 -7.8815918 8.89160156 -7.76879883 6.78540039 C-6.26758618 3.58096822 -3.84702875 -0.22162719 0 0 Z " fill="#EBAB43" transform="translate(620.881591796875,263.1083984375)"/>
<path d="M0 0 C2.49361571 1.20381448 4.68143083 2.45428722 7 4 C6.73703125 4.84498047 6.73703125 4.84498047 6.46875 5.70703125 C5.95184369 8.23556463 6.20394209 10.13400056 6.5 12.6875 C6.57951508 17.54514823 5.12126135 19.68732271 1.8125 23.1875 C-0.54296875 25.48046875 -0.54296875 25.48046875 -3 27 C-6.98423449 26.90875799 -9.08901437 25.50011457 -11.875 22.75 C-12.49117187 22.16734375 -13.10734375 21.5846875 -13.7421875 20.984375 C-15 19 -15 19 -15.13671875 16.72265625 C-13.3700304 12.49110374 -10.22654796 9.80936273 -6.9375 6.6875 C-6.27427734 6.04232422 -5.61105469 5.39714844 -4.92773438 4.73242188 C-3.29382329 3.14552982 -1.65131853 1.56873672 0 0 Z " fill="#4F5FA6" transform="translate(596,297)"/>
<path d="M0 0 C1.08096954 0.00007553 2.16193909 0.00015106 3.27566528 0.00022888 C5.03195755 0.00797081 5.03195755 0.00797081 6.82373047 0.01586914 C8.019487 0.01728409 9.21524353 0.01869904 10.44723511 0.02015686 C14.27848784 0.02576876 18.10968281 0.03832331 21.94091797 0.05102539 C24.53336504 0.05603886 27.12581303 0.06060203 29.71826172 0.06469727 C36.08416695 0.07574206 42.45003833 0.0924918 48.81591797 0.11352539 C48.81591797 0.44352539 48.81591797 0.77352539 48.81591797 1.11352539 C48.17334045 1.11939163 47.53076294 1.12525787 46.86871338 1.13130188 C40.18513345 1.19519936 33.50203667 1.2796098 26.81884766 1.37597656 C24.32412076 1.40924608 21.82931822 1.43727162 19.33447266 1.45996094 C15.74983462 1.49346889 12.16589104 1.54578451 8.58154297 1.60180664 C6.9063559 1.61139153 6.9063559 1.61139153 5.19732666 1.62117004 C4.15654968 1.6409642 3.11577271 1.66075836 2.04345703 1.68115234 C1.12856506 1.6922554 0.2136731 1.70335846 -0.72894287 1.71479797 C-3.67370977 2.19304349 -5.06209315 3.03540662 -7.18408203 5.11352539 C-7.81431733 8.38422648 -7.81431733 8.38422648 -7.75830078 12.15258789 C-7.77954765 13.17477921 -7.77954765 13.17477921 -7.80122375 14.21762085 C-7.84312394 16.39141679 -7.85836609 18.56438242 -7.87158203 20.73852539 C-7.90060631 22.91942404 -7.93509719 25.10011055 -7.97407532 27.28085327 C-8.00687653 29.25439515 -8.02489219 31.22816606 -8.04223633 33.2019043 C-8.18408203 36.11352539 -8.18408203 36.11352539 -9.18408203 37.11352539 C-11.47396984 37.27240631 -13.76851644 37.36490612 -16.06298828 37.42993164 C-16.74965073 37.45071274 -17.43631317 37.47149384 -18.14378357 37.49290466 C-20.34461138 37.55846683 -22.54556178 37.61731554 -24.74658203 37.67602539 C-26.23552717 37.71920431 -27.72445976 37.76281839 -29.21337891 37.80688477 C-32.87014756 37.91415469 -36.52705521 38.01540311 -40.18408203 38.11352539 C-41.1343682 41.32496867 -41.3160593 44.22567692 -41.3293457 47.56884766 C-41.33572556 48.66000381 -41.34210541 49.75115997 -41.34867859 50.87538147 C-41.34979141 52.04838303 -41.35090424 53.22138458 -41.35205078 54.42993164 C-41.35537918 55.6379393 -41.35870758 56.84594696 -41.36213684 58.09056091 C-41.36719817 60.64337788 -41.36954541 63.19620146 -41.36938477 65.74902344 C-41.37157544 69.66425373 -41.38975135 73.57920417 -41.40869141 77.49438477 C-41.41162458 79.97289942 -41.41360989 82.45141542 -41.41455078 84.92993164 C-41.4217363 86.10495743 -41.42892181 87.27998322 -41.43632507 88.49061584 C-41.43324844 89.57861984 -41.43017181 90.66662384 -41.42700195 91.78759766 C-41.42913948 93.22511131 -41.42913948 93.22511131 -41.43132019 94.69166565 C-41.34811781 97.37374654 -41.34811781 97.37374654 -39.18408203 100.11352539 C-43.05908203 98.36352539 -43.05908203 98.36352539 -44.18408203 96.11352539 C-44.29514496 94.3479646 -44.34328421 92.57828718 -44.36108398 90.80932617 C-44.37391922 89.70122589 -44.38675446 88.59312561 -44.39997864 87.45144653 C-44.40736557 86.24938568 -44.4147525 85.04732483 -44.42236328 83.80883789 C-44.43043503 82.57817596 -44.43850677 81.34751404 -44.44682312 80.07955933 C-44.46067235 77.47191786 -44.47139073 74.8642582 -44.47924805 72.2565918 C-44.48811764 69.58123058 -44.50901151 66.90638717 -44.54077148 64.23120117 C-44.58327743 60.38191953 -44.59959408 56.53332457 -44.60986328 52.68383789 C-44.62737137 51.4858255 -44.64487946 50.28781311 -44.66291809 49.05349731 C-44.65999252 47.93909271 -44.65706696 46.82468811 -44.65405273 45.67651367 C-44.65991898 44.69659454 -44.66578522 43.71667542 -44.67182922 42.70706177 C-44.04679026 39.38349307 -42.76431383 38.22488203 -40.18408203 36.11352539 C-37.36584011 34.70440443 -35.01156921 35.00168986 -31.86376953 35.01586914 C-30.60693359 35.0190918 -29.35009766 35.02231445 -28.05517578 35.02563477 C-26.73646484 35.03401367 -25.41775391 35.04239258 -24.05908203 35.05102539 C-22.71923992 35.0560405 -21.37939603 35.06060339 -20.03955078 35.06469727 C-16.75434997 35.07651453 -13.46923806 35.09298922 -10.18408203 35.11352539 C-10.19979248 34.26121338 -10.21550293 33.40890137 -10.23168945 32.53076172 C-10.28297165 29.35321313 -10.32050685 26.17587626 -10.34887695 22.99804688 C-10.36391635 21.62558022 -10.38435336 20.25316125 -10.41040039 18.88085938 C-10.44699424 16.90263883 -10.46224901 14.92406026 -10.47705078 12.94555664 C-10.49276123 11.75679932 -10.50847168 10.56804199 -10.5246582 9.34326172 C-10.15076949 5.79761743 -9.31285786 3.94294374 -7.18408203 1.11352539 C-4.63469388 -0.16116868 -2.85367205 -0.00663645 0 0 Z " fill="#3B4756" transform="translate(152.18408203125,180.886474609375)"/>
<path d="M0 0 C3.60407485 1.89726705 5.75093855 4.62640782 8 8 C8 9.98 8 11.96 8 14 C-0.91 14 -9.82 14 -19 14 C-17.87170562 7.23023371 -17.87170562 7.23023371 -15.0625 4.1875 C-14.53785156 3.60355469 -14.01320313 3.01960938 -13.47265625 2.41796875 C-9.78759083 -1.13025073 -4.79858159 -0.66974068 0 0 Z " fill="#F4F4F4" transform="translate(551,261)"/>
<path d="M0 0 C-5.1865541 3.40830698 -9.43538219 4.12144654 -15.5721283 4.14044189 C-17.23543434 4.14900711 -17.23543434 4.14900711 -18.93234253 4.15774536 C-20.13923737 4.15886322 -21.3461322 4.15998108 -22.58959961 4.16113281 C-24.50744514 4.16858017 -24.50744514 4.16858017 -26.46403503 4.17617798 C-29.9640297 4.18926096 -33.46400521 4.19573844 -36.96402049 4.20018864 C-39.15227625 4.20312491 -41.34052684 4.20723067 -43.52877998 4.21169281 C-50.38024143 4.22535453 -57.23169099 4.23502868 -64.08316511 4.2388947 C-71.98373099 4.24337776 -79.88412406 4.26094262 -87.78463739 4.2898953 C-93.89858539 4.3115212 -100.01248479 4.3215994 -106.12647063 4.32293582 C-109.77524284 4.32398284 -113.42385231 4.32986909 -117.07258415 4.34775543 C-121.14216466 4.3673186 -125.21138352 4.36294357 -129.28100586 4.35644531 C-130.48587646 4.3656601 -131.69074707 4.37487488 -132.93212891 4.3843689 C-138.76222833 4.35516228 -143.08619219 4.29298672 -148 1 C-144.75459572 -0.08180143 -142.76307463 0.26271842 -139.4419136 0.73262978 C-134.49028056 1.27479443 -129.50450517 1.14722557 -124.52880859 1.14526367 C-123.29857468 1.14862228 -122.06834076 1.1519809 -120.80082703 1.15544128 C-117.44768004 1.16327974 -114.09459499 1.16661673 -110.74144316 1.16725707 C-108.64345888 1.16797044 -106.545481 1.17011008 -104.44749832 1.17275429 C-97.12026815 1.18198464 -89.7930561 1.18609167 -82.46582031 1.18530273 C-75.64702089 1.18470106 -68.82830034 1.19527633 -62.00952089 1.2110464 C-56.14179469 1.22413116 -50.27409427 1.22948631 -44.40635359 1.22884732 C-40.90745423 1.22859282 -37.40862521 1.23141865 -33.90974045 1.24202538 C-30.01059641 1.25352524 -26.11156057 1.24895381 -22.21240234 1.24291992 C-21.05899857 1.24853943 -19.90559479 1.25415894 -18.71723938 1.25994873 C-12.77942974 1.23656899 -5.28211241 -2.03158169 0 0 Z " fill="#30405D" transform="translate(233,317)"/>
<path d="M0 0 C3.0422127 1.48560477 5.23108681 3.10049703 7 6 C7.33 8.64 7.66 11.28 8 14 C-0.58 14 -9.16 14 -18 14 C-18 7.34872392 -17.41165157 6.51424812 -13 2 C-8.72373273 -0.85084485 -5.01476425 -0.84970287 0 0 Z " fill="#F6F6F6" transform="translate(479,261)"/>
<path d="M0 0 C0.53625 0.2475 1.0725 0.495 1.625 0.75 C0.944375 1.08 0.26375 1.41 -0.4375 1.75 C-3.87182779 4.08826573 -6.12685454 6.79640856 -8.7265625 10.0078125 C-10.375 11.75 -10.375 11.75 -13.375 12.75 C-13.49875 13.45125 -13.6225 14.1525 -13.75 14.875 C-14.375 17.75 -14.375 17.75 -15.39611816 20.36126709 C-16.62371157 24.61099981 -16.66727881 28.44577556 -16.66210938 32.84472656 C-16.66894241 33.73971863 -16.67577545 34.63471069 -16.68281555 35.55682373 C-16.69636158 37.49161535 -16.70544175 39.42644235 -16.71052551 41.36127472 C-16.71883106 44.42048061 -16.73934827 47.47939038 -16.76306152 50.53851318 C-16.81940012 58.13051103 -16.8547581 65.72258036 -16.89068604 73.31469727 C-16.92187558 79.74092998 -16.96100525 86.16701679 -17.01094055 92.59313202 C-17.03106095 95.61225802 -17.03933669 98.63127248 -17.04724121 101.65045166 C-17.06020644 103.49125584 -17.07372568 105.33205623 -17.08789062 107.17285156 C-17.08690872 108.01650269 -17.08592682 108.86015381 -17.08491516 109.72937012 C-17.14730399 115.52230399 -17.14730399 115.52230399 -19.375 117.75 C-19.46793151 105.55358196 -19.53888234 93.35724902 -19.58224869 81.16054821 C-19.60306882 75.49630865 -19.63128443 69.83231244 -19.67675781 64.16821289 C-19.72041455 58.69576457 -19.74417898 53.22354943 -19.75450897 47.75094032 C-19.76186484 45.66947068 -19.77622868 43.58801291 -19.79792023 41.5066433 C-20.05606197 15.69632466 -20.05606197 15.69632466 -10.17578125 5.4140625 C-3.87544366 -0.40794144 -3.87544366 -0.40794144 0 0 Z " fill="#3A4863" transform="translate(86.375,142.25)"/>
<path d="M0 0 C1.84375 0.19140625 1.84375 0.19140625 4 1 C5.34375 3.15234375 5.34375 3.15234375 6.5 5.9375 C6.92152344 6.93394531 7.34304688 7.93039062 7.77734375 8.95703125 C8.18082031 9.96121094 8.58429688 10.96539062 9 12 C9.35191406 12.87011719 9.70382812 13.74023438 10.06640625 14.63671875 C10.72283364 16.2765001 11.37400927 17.91839503 12.01953125 19.5625 C13.57229165 23.42274897 15.27983383 27.2119745 17 31 C17.25394531 30.40832031 17.50789063 29.81664062 17.76953125 29.20703125 C20.68736916 22.50802512 20.68736916 22.50802512 22.5 19.5625 C24.38584229 16.34085275 25.66349875 12.98954936 27.015625 9.515625 C28.27014703 6.30962426 29.62740961 3.15695791 31 0 C31.99 0 32.98 0 34 0 C33.2259425 7.24725773 30.58763777 13.29041154 27.64501953 19.86328125 C26.74674703 21.88231164 25.87906994 23.91284078 25.01171875 25.9453125 C24.44192583 27.23257871 23.87037243 28.51906743 23.296875 29.8046875 C22.78479492 30.96983887 22.27271484 32.13499023 21.74511719 33.33544922 C20 36 20 36 17.29394531 36.88720703 C16.53694336 36.92442871 15.77994141 36.96165039 15 37 C12.85669139 32.21593757 10.72065059 27.42872295 8.59130859 22.63842773 C7.86576484 21.0089571 7.13823568 19.380369 6.40869141 17.75268555 C5.36098583 15.4142352 4.32043873 13.07271403 3.28125 10.73046875 C2.78908997 9.63813179 2.78908997 9.63813179 2.2869873 8.52372742 C0.9608859 5.51889814 0 3.32214549 0 0 Z " fill="#141414" transform="translate(274,258)"/>
<path d="M0 0 C0.33 0 0.66 0 1 0 C1.08776185 3.68734775 1.14064603 7.37442347 1.1875 11.0625 C1.21263672 12.10083984 1.23777344 13.13917969 1.26367188 14.20898438 C1.33213047 21.39713651 0.77329915 26.43432967 -3.75 32.25 C-9.02253765 36.35086262 -13.87897455 37.37616024 -20.46069336 37.40405273 C-21.52559746 37.41434761 -21.52559746 37.41434761 -22.61201477 37.42485046 C-24.93816635 37.44301935 -27.26363705 37.43929545 -29.58984375 37.43359375 C-31.21977454 37.43816035 -32.84970341 37.44346734 -34.47962952 37.44947815 C-37.88811081 37.45838979 -41.29635755 37.45600848 -44.70483398 37.44604492 C-49.05700489 37.43455787 -53.40836409 37.45477207 -57.76042843 37.48396206 C-61.12436503 37.50237255 -64.48810883 37.502022 -67.85208321 37.49632454 C-69.45593975 37.49617192 -71.05980985 37.50216725 -72.66361809 37.51461601 C-88.07079412 37.61737135 -88.07079412 37.61737135 -95 33 C-95 32.01 -95 31.02 -95 30 C-94.236875 30.474375 -93.47375 30.94875 -92.6875 31.4375 C-88.35331339 33.95737593 -85.13999839 34.13400685 -80.19287109 34.16113281 C-79.16051331 34.16858017 -79.16051331 34.16858017 -78.1072998 34.17617798 C-75.8293355 34.1907858 -73.55144096 34.19760128 -71.2734375 34.203125 C-69.68502807 34.20888008 -68.09661864 34.21463777 -66.50820923 34.22039795 C-63.17425209 34.23090573 -59.84031903 34.23674903 -56.50634766 34.24023438 C-52.25297341 34.24570144 -47.99992215 34.26969176 -43.74664879 34.29820633 C-40.46248477 34.3169208 -37.17839693 34.32204309 -33.89418411 34.32357025 C-32.32743195 34.32658034 -30.7606806 34.33455279 -29.19398117 34.34775543 C-21.00854848 34.41177848 -13.59993647 34.46354738 -6 31 C-0.31767262 24.74943989 -0.83172711 16.58275976 -0.4375 8.5625 C-0.37272461 7.32209961 -0.37272461 7.32209961 -0.30664062 6.05664062 C-0.20161967 4.03790451 -0.10041441 2.01897049 0 0 Z " fill="#2C3A46" transform="translate(191,263)"/>
<path d="M0 0 C4.10703441 0.85563217 5.55401113 2.24378009 8 5.625 C8.62491523 9.58279649 8.61006839 11.63363886 6.5 15.0625 C3.46813683 16.95741448 1.43919544 17.26536692 -2.09375 17.07421875 C-4 16.625 -4 16.625 -6.5 14.5 C-8.27801176 11.09214413 -8.70960213 9.40954468 -8 5.625 C-5.54405875 2.30225596 -4.0743356 0.84881992 0 0 Z " fill="#EBAC45" transform="translate(613,300.375)"/>
<path d="M0 0 C0.99 0.33 1.98 0.66 3 1 C3.33 2.65 3.66 4.3 4 6 C5.65 4.35 7.3 2.7 9 1 C9.99 1.33 10.98 1.66 12 2 C11.51789063 2.60328125 11.03578125 3.2065625 10.5390625 3.828125 C9.90742188 4.62734375 9.27578125 5.4265625 8.625 6.25 C7.68527344 7.43335938 7.68527344 7.43335938 6.7265625 8.640625 C3.35217162 13.25178358 2.58623095 16.20723333 3 22 C3.93283296 24.20067421 3.93283296 24.20067421 5 26 C5 26.99 5 27.98 5 29 C4.01 29 3.02 29 2 29 C2 35.6 2 42.2 2 49 C1.01 49 0.02 49 -1 49 C-1.0252689 42.18238106 -1.04283244 35.36477411 -1.05493164 28.54711914 C-1.05997333 26.22582549 -1.06680651 23.90453503 -1.07543945 21.58325195 C-1.08751225 18.25471205 -1.09322979 14.92621398 -1.09765625 11.59765625 C-1.10281754 10.55287613 -1.10797882 9.50809601 -1.11329651 8.43165588 C-1.11337204 7.47073532 -1.11344757 6.50981476 -1.11352539 5.51977539 C-1.115746 4.66928116 -1.11796661 3.81878693 -1.12025452 2.94252014 C-1 1 -1 1 0 0 Z " fill="#0C0C0C" transform="translate(367,258)"/>
<path d="M0 0 C3.48205594 2.27090605 6.09799638 4.09026754 7.875 7.875 C8.49624687 12.838173 8.34629375 17.76207871 8.1875 22.75 C8.16239222 24.11975108 8.13958339 25.48954635 8.11914062 26.859375 C8.0603436 30.19904622 7.97819834 33.53645431 7.875 36.875 C6.555 36.545 5.235 36.215 3.875 35.875 C3.86041748 35.11356689 3.84583496 34.35213379 3.83081055 33.56762695 C3.75619459 30.10708112 3.65957741 26.64748555 3.5625 23.1875 C3.53994141 21.98931641 3.51738281 20.79113281 3.49414062 19.55664062 C3.45869141 18.39970703 3.42324219 17.24277344 3.38671875 16.05078125 C3.36053467 14.98770752 3.33435059 13.92463379 3.30737305 12.8293457 C2.82054019 9.50288358 1.85030419 7.57382557 -0.125 4.875 C-2.58509963 3.64495019 -4.25672806 3.74185973 -7 3.75 C-7.86367188 3.74742187 -8.72734375 3.74484375 -9.6171875 3.7421875 C-11.93165971 3.86476079 -13.90789116 4.22533555 -16.125 4.875 C-16.455 3.885 -16.785 2.895 -17.125 1.875 C-11.13396934 -1.05938237 -6.56758131 -2.36432927 0 0 Z " fill="#242424" transform="translate(438.125,258.125)"/>
<path d="M0 0 C-0.12568359 0.97839844 -0.12568359 0.97839844 -0.25390625 1.9765625 C-1.0106386 8.47105025 -1.46910205 13.36574806 1.8125 19.25 C4.60348188 22.75866293 6.39044907 23.8095992 10.83984375 24.3359375 C17.32363297 24.56127417 17.32363297 24.56127417 23.0625 21.9375 C23.701875 21.298125 24.34125 20.65875 25 20 C25.99 20.33 26.98 20.66 28 21 C26.60364382 24.37452744 25.1393647 26.11638118 22 28 C16.47356721 29.73687888 10.2515855 29.79467724 4.8125 27.875 C0.11860892 24.74573928 -3.7799731 21.77191948 -5.4375 16.1875 C-6.26170124 11.81418728 -6.2599571 7.28723657 -5 3 C-2.57206208 0 -2.57206208 0 0 0 Z " fill="#1C1C1C" transform="translate(534,267)"/>
<path d="M0 0 C0.33 0 0.66 0 1 0 C1 1.98 1 3.96 1 6 C9.91 6 18.82 6 28 6 C28 6.33 28 6.66 28 7 C15.625 7.495 15.625 7.495 3 8 C2.43079002 13.83661565 2.43079002 13.83661565 5.25 17.25 C8.81149051 20.81149051 10.32021668 21.84152988 15.3125 22.3125 C19.45038218 21.96183202 22.28718584 20.82138053 26 19 C26.804375 18.608125 27.60875 18.21625 28.4375 17.8125 C28.953125 17.544375 29.46875 17.27625 30 17 C30 18.32 30 19.64 30 21 C23.76499353 25.95966424 17.80032576 26.87769117 10 26 C5.12320478 23.60760989 2.19044396 20.28431045 -1 16 C-1.97551509 13.07345473 -2.16478088 11.05345004 -2.1875 8 C-2.20167969 7.13375 -2.21585937 6.2675 -2.23046875 5.375 C-2 3 -2 3 0 0 Z " fill="#131313" transform="translate(459,270)"/>
<path d="M0 0 C0.99 0 1.98 0 3 0 C3.33 2.97 3.66 5.94 4 9 C4.53625 8.071875 5.0725 7.14375 5.625 6.1875 C8.24634833 2.66937462 9.90821318 1.47304326 14 0 C17.375 -0.1875 17.375 -0.1875 20 0 C20 0.99 20 1.98 20 3 C19.12988281 3.20302734 19.12988281 3.20302734 18.2421875 3.41015625 C12.04250532 5.11864952 8.47362618 7.54144457 5 13 C4.04831317 15.85506049 3.8099054 17.90937282 3.68359375 20.88671875 C3.64169922 21.82451172 3.59980469 22.76230469 3.55664062 23.72851562 C3.51732422 24.70498047 3.47800781 25.68144531 3.4375 26.6875 C3.39431641 27.67556641 3.35113281 28.66363281 3.30664062 29.68164062 C3.20058346 32.12095546 3.09852286 34.56037113 3 37 C2.01 37 1.02 37 0 37 C0 24.79 0 12.58 0 0 Z " fill="#080808" transform="translate(502,258)"/>
<path d="M0 0 C1.03125 0.78375 2.0625 1.5675 3.125 2.375 C6.29430903 4.65715965 9.24884909 5.86593112 13 7 C13.66 7.66 14.32 8.32 15 9 C14.67 9.33 14.34 9.66 14 10 C17.64568822 11.66126027 20.50204668 12.25512393 24.49861145 12.2784729 C25.59091064 12.28963638 26.68320984 12.30079987 27.80860901 12.31230164 C28.9968779 12.31446182 30.18514679 12.31662201 31.40942383 12.31884766 C32.66836456 12.32889328 33.9273053 12.3389389 35.22439575 12.34928894 C38.66819184 12.37654685 42.11194712 12.39172578 45.55582261 12.40471697 C49.15800539 12.42036599 52.76010505 12.44715055 56.36222839 12.4727478 C63.17960428 12.51950428 69.99699585 12.5562635 76.81444997 12.58942068 C84.57746839 12.62766422 92.34040327 12.67706852 100.10335124 12.72740483 C116.06884041 12.83067809 132.03437646 12.91995342 148 13 C148 13.33 148 13.66 148 14 C131.05792626 14.09354845 114.11593342 14.16403055 97.17366028 14.20724869 C89.30660352 14.22785132 81.43970749 14.25592768 73.57275391 14.30175781 C66.71384317 14.3416963 59.85504887 14.36744953 52.99602509 14.37635398 C49.36603883 14.38155694 45.7363856 14.39373712 42.10650635 14.42292023 C38.04872019 14.45527727 33.99150859 14.45595494 29.93359375 14.45410156 C28.13931694 14.47567322 28.13931694 14.47567322 26.30879211 14.49768066 C16.92610279 14.45133696 11.04573235 12.30912364 4 5.875 C2.8553125 4.85019531 2.8553125 4.85019531 1.6875 3.8046875 C0 2 0 2 0 0 Z " fill="#5B5E64" transform="translate(72,308)"/>
<path d="M0 0 C0.495 1.98 0.495 1.98 1 4 C-2.67929445 6.45286296 -4.47377907 6.23228878 -8.85546875 6.1953125 C-9.51710526 6.1924826 -10.17874176 6.18965271 -10.86042786 6.18673706 C-12.96963737 6.17555918 -15.07841925 6.15045981 -17.1875 6.125 C-18.61913448 6.11496707 -20.05077564 6.10584176 -21.48242188 6.09765625 C-24.98841977 6.07562795 -28.49416813 6.04111485 -32 6 C-31.98428955 6.94842773 -31.9685791 7.89685547 -31.95239258 8.87402344 C-31.90119893 12.4001209 -31.86361875 15.92582222 -31.83520508 19.45214844 C-31.82013849 20.9769515 -31.79968124 22.50171136 -31.77368164 24.02636719 C-31.73720294 26.22081166 -31.72025286 28.41468216 -31.70703125 30.609375 C-31.6913208 31.92905273 -31.67561035 33.24873047 -31.65942383 34.60839844 C-32 38 -32 38 -33.03515625 40.4375 C-36.0338797 42.82217073 -39.07032681 42.49438989 -42.73046875 42.390625 C-43.48088943 42.38496521 -44.23131012 42.37930542 -45.00447083 42.37347412 C-47.39946504 42.35109668 -49.79295869 42.30090171 -52.1875 42.25 C-53.81182734 42.22993659 -55.43617815 42.21168553 -57.06054688 42.1953125 C-61.04094207 42.15122794 -65.02021671 42.08219427 -69 42 C-69.33 41.34 -69.66 40.68 -70 40 C-69.01080566 39.97494385 -68.02161133 39.9498877 -67.00244141 39.92407227 C-63.33840596 39.83002213 -59.67456115 39.72979571 -56.01074219 39.62768555 C-54.42387343 39.58432759 -52.83695776 39.54265313 -51.25 39.50268555 C-48.97121021 39.44500368 -46.69265678 39.38130362 -44.4140625 39.31640625 C-43.70255035 39.29969376 -42.99103821 39.28298126 -42.25796509 39.26576233 C-38.50339183 39.20278063 -38.50339183 39.20278063 -35 38 C-34.67 27.11 -34.34 16.22 -34 5 C-18.6875 4.75 -18.6875 4.75 -13.8659668 4.70214844 C-12.61468994 4.6715332 -11.36341309 4.64091797 -10.07421875 4.609375 C-8.79119873 4.58842773 -7.50817871 4.56748047 -6.1862793 4.54589844 C-2.90921429 4.31081415 -2.90921429 4.31081415 -1.05786133 1.96191406 C-0.53421997 0.9907666 -0.53421997 0.9907666 0 0 Z " fill="#474C52" transform="translate(194,229)"/>
<path d="M0 0 C0.99 0.495 0.99 0.495 2 1 C-6.61674814 6.48338518 -12.69282038 7.4316185 -22.82006836 7.34057617 C-24.09880829 7.34101425 -25.37754822 7.34145233 -26.69503784 7.34190369 C-30.18430962 7.34276099 -33.67326916 7.32517867 -37.16246867 7.30418181 C-40.8152918 7.28537048 -44.46812285 7.28366107 -48.12098694 7.28010559 C-55.03047773 7.27079816 -61.93982536 7.24620216 -68.84925324 7.21605712 C-76.7186531 7.18247242 -84.58805995 7.1660169 -92.45751369 7.15097082 C-108.63842614 7.11965133 -124.81919477 7.06691636 -141 7 C-141 6.67 -141 6.34 -141 6 C-140.35469393 5.99761165 -139.70938786 5.99522329 -139.04452705 5.99276257 C-123.31019954 5.93351074 -107.57604734 5.85789599 -91.84189034 5.76428509 C-84.23282383 5.71940531 -76.62380332 5.67997284 -69.01464844 5.65356445 C-62.37903477 5.63052081 -55.74356759 5.5970523 -49.10807025 5.55129844 C-45.59775267 5.52745156 -42.08757939 5.50866714 -38.57718277 5.50238609 C-34.64911339 5.49516171 -30.7214041 5.46465287 -26.79345703 5.43237305 C-25.06607048 5.43452568 -25.06607048 5.43452568 -23.30378723 5.4367218 C-15.69402387 5.34856839 -8.63477036 4.50207048 -1.84684944 0.83762646 C-1.23738913 0.56120973 -0.62792881 0.284793 0 0 Z " fill="#999999" transform="translate(234,316)"/>
<path d="M0 0 C7.51132765 -0.0758691 15.02255704 -0.12852324 22.53417969 -0.16479492 C25.09118339 -0.1799107 27.64816106 -0.20040366 30.20507812 -0.22631836 C33.87376317 -0.26257862 37.5421064 -0.27969836 41.2109375 -0.29296875 C42.35992523 -0.30845261 43.50891296 -0.32393646 44.69271851 -0.33988953 C46.28414169 -0.34022942 46.28414169 -0.34022942 47.90771484 -0.34057617 C49.31336197 -0.35056892 49.31336197 -0.35056892 50.74740601 -0.36076355 C51.49076202 -0.24171158 52.23411804 -0.12265961 53 0 C53.66 0.99 54.32 1.98 55 3 C53.97642647 3.00879936 53.97642647 3.00879936 52.93217468 3.01777649 C45.84326015 3.0816067 38.75480398 3.16599941 31.66625977 3.26245117 C29.01918574 3.29574872 26.37203989 3.32376542 23.72485352 3.34643555 C19.9243299 3.37989211 16.12446745 3.43220486 12.32421875 3.48828125 C10.54285774 3.49786613 10.54285774 3.49786613 8.72550964 3.50764465 C7.62459488 3.52743881 6.52368011 3.54723297 5.3894043 3.56762695 C4.41899704 3.57873001 3.44858978 3.58983307 2.44877625 3.60127258 C-0.40797414 4.06642929 -1.14103942 4.87433172 -3 7 C-3.66 7 -4.32 7 -5 7 C-5 16.57 -5 26.14 -5 36 C-5.33 36 -5.66 36 -6 36 C-6.14883585 31.81923925 -6.25743418 27.63989863 -6.32958984 23.45727539 C-6.35967954 22.0361036 -6.40056404 20.61511628 -6.45263672 19.19458008 C-6.87716417 7.3119735 -6.87716417 7.3119735 -4.63769531 3.96240234 C-2.9765625 2.60546875 -2.9765625 2.60546875 0 1 C0 0.67 0 0.34 0 0 Z " fill="#5E787D" transform="translate(150,180)"/>
<path d="M0 0 C3.01811422 0.17753613 3.83735215 0.83735215 6 3 C5.7539059 5.54297233 5.37222177 6.67244484 3.4375 8.375 C1.66863275 10.03762133 1.66863275 10.03762133 1.8125 13.1875 C1.874375 14.115625 1.93625 15.04375 2 16 C-1.79594117 15.43573848 -3.58710633 13.81748138 -6.25 11.125 C-7.30960938 10.07699219 -7.30960938 10.07699219 -8.390625 9.0078125 C-10 7 -10 7 -10 4 C-9.0925 4.0825 -8.185 4.165 -7.25 4.25 C-3.26264177 3.94328014 -2.67972566 2.76904985 0 0 Z " fill="#EBAB42" transform="translate(578,321)"/>
<path d="M0 0 C0.99 0 1.98 0 3 0 C2.46494862 5.00952251 1.35916847 9.00982937 -0.72265625 13.58984375 C-1.52993164 15.38325195 -1.52993164 15.38325195 -2.35351562 17.21289062 C-2.92298296 18.45451613 -3.49264684 19.69605152 -4.0625 20.9375 C-4.636886 22.20601 -5.21046139 23.47488738 -5.78320312 24.74414062 C-7.18088241 27.8331293 -8.58667579 30.91814597 -10 34 C-11.65 33.67 -13.3 33.34 -15 33 C-14.67 32.34 -14.34 31.68 -14 31 C-13.37334895 29.56321898 -12.74858562 28.12561412 -12.125 26.6875 C-11.02160042 24.18699016 -9.93414445 21.89298473 -8.5 19.5625 C-6.61415771 16.34085275 -5.33650125 12.98954936 -3.984375 9.515625 C-2.72985297 6.30962426 -1.37259039 3.15695791 0 0 Z " fill="#1C1C1C" transform="translate(305,258)"/>
<path d="M0 0 C0.66 0.33 1.32 0.66 2 1 C2 1.66 2 2.32 2 3 C7.87883349 5.61281488 13.70731728 5.18328202 20 5 C20 5.99 20 6.98 20 8 C15.66080915 10.42369218 11.88926447 10.95711539 7 10 C3.95593933 8.2691622 1.66133631 6.32262078 -1 4 C-1.33 9.28 -1.66 14.56 -2 20 C-2.33 20 -2.66 20 -3 20 C-3 13.73 -3 7.46 -3 1 C-2.01 0.67 -1.02 0.34 0 0 Z " fill="#363737" transform="translate(372,286)"/>
<path d="M0 0 C2 1 2 1 3.11080933 3.11393738 C4.18362889 6.59600769 4.23981843 9.53183882 4.22705078 13.17700195 C4.22734283 13.87998917 4.22763489 14.58297638 4.22793579 15.30726624 C4.22654877 17.61773262 4.2110175 19.92787159 4.1953125 22.23828125 C4.19158013 23.84539107 4.18873422 25.45250317 4.18673706 27.05961609 C4.17911821 31.2797377 4.15948483 35.49972061 4.1373291 39.7197876 C4.11683293 44.02996952 4.10772729 48.34017396 4.09765625 52.65039062 C4.07623721 61.10032391 4.04212248 69.55014468 4 78 C3.67 78 3.34 78 3 78 C2.99191315 77.13191711 2.98382629 76.26383423 2.97549438 75.3694458 C2.89755215 67.18838782 2.81026253 59.00749448 2.71247292 50.82664871 C2.66252804 46.62079415 2.61619787 42.41496449 2.578125 38.20898438 C2.54124929 34.14994336 2.49488319 30.09111154 2.44193649 26.03224945 C2.42340468 24.48374857 2.40829221 22.93520287 2.39665604 21.38663483 C2.37977263 19.2174996 2.35073331 17.0488422 2.31884766 14.87988281 C2.30552399 13.64522278 2.29220032 12.41056274 2.2784729 11.13848877 C2.0094751 8.10678771 1.40794119 6.6145663 0 4 C0 2.68 0 1.36 0 0 Z " fill="#3C4B60" transform="translate(223,170)"/>
<path d="M0 0 C2.88771752 0.4620348 4.44555099 1.29387406 6.9375 2.9375 C12.10085976 6.05136828 18.11782673 6.32775163 24 7 C23.67 7.99 23.34 8.98 23 10 C12.89177689 10.36100797 6.80249222 8.59891629 -1 2 C-0.67 1.34 -0.34 0.68 0 0 Z " fill="#151515" transform="translate(318,286)"/>
<path d="M0 0 C0.495 1.98 0.495 1.98 1 4 C-2.72540662 6.48360441 -4.63062973 6.2315867 -9.07421875 6.1953125 C-9.7580513 6.1924826 -10.44188385 6.18965271 -11.1464386 6.18673706 C-13.32697165 6.17555684 -15.50709145 6.15045691 -17.6875 6.125 C-19.16731177 6.11496738 -20.64712999 6.10584202 -22.12695312 6.09765625 C-25.75158874 6.07732739 -29.3753327 6.03817672 -33 6 C-33 15.57 -33 25.14 -33 35 C-33.33 35 -33.66 35 -34 35 C-34 25.1 -34 15.2 -34 5 C-30.69548828 4.96132812 -30.69548828 4.96132812 -27.32421875 4.921875 C-25.18940479 4.88345603 -23.05483252 4.83829586 -20.92016602 4.79248047 C-19.43721058 4.76426459 -17.95410457 4.74305298 -16.47094727 4.72900391 C-14.33792003 4.7075808 -12.20670394 4.66094218 -10.07421875 4.609375 C-8.79119873 4.58842773 -7.50817871 4.56748047 -6.1862793 4.54589844 C-2.90921429 4.31081415 -2.90921429 4.31081415 -1.05786133 1.96191406 C-0.70876709 1.31448242 -0.35967285 0.66705078 0 0 Z " fill="#837955" transform="translate(194,229)"/>
<path d="M0 0 C2.45608507 1.81536723 2.98026101 2.90425119 3.60522461 5.93579102 C4.22226528 10.93919125 4.01596105 15.93619107 3.87890625 20.96484375 C3.85529526 21.99815323 3.83168427 23.03146271 3.80735779 24.09608459 C3.73115724 27.37671154 3.64694656 30.657076 3.5625 33.9375 C3.50923561 36.16990929 3.45649556 38.40233116 3.40429688 40.63476562 C3.27560156 46.09000399 3.14033984 51.54504944 3 57 C2.67 57 2.34 57 2 57 C1.98969254 56.38914047 1.97938507 55.77828094 1.96876526 55.14891052 C1.86032412 48.77324532 1.74575838 42.39771075 1.62768555 36.0222168 C1.58445692 33.64496604 1.54277364 31.26768665 1.50268555 28.89038086 C1.44468976 25.4671975 1.38108046 22.04415666 1.31640625 18.62109375 C1.29969376 17.56353378 1.28298126 16.50597382 1.26576233 15.41636658 C1.16152189 10.18737043 0.89262995 5.1556527 0 0 Z " fill="#435472" transform="translate(245,158)"/>
<path d="M0 0 C1.95292969 0.07250977 1.95292969 0.07250977 3.9453125 0.14648438 C5.32552554 0.20301019 6.70573382 0.25965233 8.0859375 0.31640625 C9.47393969 0.36962918 10.86196047 0.42236957 12.25 0.47460938 C15.65385891 0.60461788 19.05744867 0.73959508 22.4609375 0.87890625 C22.4609375 1.20890625 22.4609375 1.53890625 22.4609375 1.87890625 C7.1159375 2.37390625 7.1159375 2.37390625 -8.5390625 2.87890625 C-9.26728229 5.79178542 -9.95504329 8.69801918 -10.6015625 11.62890625 C-10.77816406 12.428125 -10.95476562 13.22734375 -11.13671875 14.05078125 C-11.26949219 14.6540625 -11.40226562 15.25734375 -11.5390625 15.87890625 C-11.8690625 15.87890625 -12.1990625 15.87890625 -12.5390625 15.87890625 C-13.16723509 5.75834787 -13.16723509 5.75834787 -10.6640625 2.25390625 C-6.80318839 -0.24430641 -4.61946035 -0.18076149 0 0 Z " fill="#495865" transform="translate(120.5390625,216.12109375)"/>
<path d="M0 0 C0 0.99 0 1.98 0 3 C-0.59167969 3.17015625 -1.18335938 3.3403125 -1.79296875 3.515625 C-6.63657645 5.00110338 -10.22504826 6.46859353 -14 10 C-14.33 9.01 -14.66 8.02 -15 7 C-9.96702568 1.687416 -7.39491636 -0.33613256 0 0 Z " fill="#111111" transform="translate(522,258)"/>
<path d="M0 0 C0.66 0.33 1.32 0.66 2 1 C1.8125 2.75 1.8125 2.75 1 5 C0.195625 5.5775 -0.60875 6.155 -1.4375 6.75 C-5.00821476 9.88526174 -5.15471486 12.38935381 -6 17 C-6.66 15.68 -7.32 14.36 -8 13 C-8.66 13.66 -9.32 14.32 -10 15 C-9.84238796 8.69551854 -6.32392365 5.18412011 -2 1 C-1.34 0.67 -0.68 0.34 0 0 Z " fill="#252626" transform="translate(467,258)"/>
<path d="M0 0 C0.8971875 0.309375 0.8971875 0.309375 1.8125 0.625 C1.131875 0.955 0.45125 1.285 -0.25 1.625 C-3.70103134 3.97463836 -5.88819461 6.70787646 -8.44140625 9.98046875 C-10.1875 11.625 -10.1875 11.625 -14.1875 11.625 C-12.82945446 8.5035222 -11.37374145 6.65541771 -8.75 4.5 C-8.15316406 4.00242188 -7.55632812 3.50484375 -6.94140625 2.9921875 C-2.54349572 -0.43602784 -2.54349572 -0.43602784 0 0 Z " fill="#50607D" transform="translate(86.1875,142.375)"/>
<path d="M0 0 C1.03125 0.78375 2.0625 1.5675 3.125 2.375 C6.29430903 4.65715965 9.24884909 5.86593112 13 7 C13.66 7.66 14.32 8.32 15 9 C14.67 9.33 14.34 9.66 14 10 C17.465 11.485 17.465 11.485 21 13 C17.54409729 14.15196757 16.99260923 13.99711885 13.3125 12.5625 C8.28105012 9.8620043 3.89354348 6.16392845 0 2 C0 1.34 0 0.68 0 0 Z " fill="#6F747D" transform="translate(72,308)"/>
<path d="M0 0 C0.598125 0.20625 1.19625 0.4125 1.8125 0.625 C2.4375 3 2.4375 3 2.8125 5.625 C2.1525 6.285 1.4925 6.945 0.8125 7.625 C-1.8125 7.25 -1.8125 7.25 -4.1875 6.625 C-4.5175 4.975 -4.8475 3.325 -5.1875 1.625 C-2.1875 -0.375 -2.1875 -0.375 0 0 Z " fill="#FEFDFB" transform="translate(614.1875,305.375)"/>
<path d="M0 0 C1.21236328 0.04060547 1.21236328 0.04060547 2.44921875 0.08203125 C3.06410156 0.11683594 3.67898437 0.15164062 4.3125 0.1875 C4.3125 0.5175 4.3125 0.8475 4.3125 1.1875 C1.6725 1.1875 -0.9675 1.1875 -3.6875 1.1875 C-5.99808985 4.83579977 -6.03031599 8.38818395 -6.1015625 12.578125 C-6.12092865 13.28273865 -6.1402948 13.98735229 -6.1602478 14.71331787 C-6.21982735 16.95459039 -6.26634123 19.19591489 -6.3125 21.4375 C-6.35069979 22.96095938 -6.38975269 24.48439762 -6.4296875 26.0078125 C-6.52551018 29.73418106 -6.60962107 33.46070835 -6.6875 37.1875 C-7.0175 37.1875 -7.3475 37.1875 -7.6875 37.1875 C-7.76165168 32.40034377 -7.81610204 27.61352173 -7.85229492 22.82592773 C-7.86738243 21.19728777 -7.88785506 19.56868844 -7.91381836 17.94018555 C-7.95020449 15.59934465 -7.9672262 13.25904081 -7.98046875 10.91796875 C-7.99595261 10.18974411 -8.01143646 9.46151947 -8.02738953 8.71122742 C-8.02906658 3.67489855 -8.02906658 3.67489855 -6.31054688 1.22265625 C-4.11095468 -0.18021242 -2.58562924 -0.11241866 0 0 Z " fill="#F1EA7B" transform="translate(128.6875,228.8125)"/>
<path d="M0 0 C0.33 0 0.66 0 1 0 C1.17015625 0.556875 1.3403125 1.11375 1.515625 1.6875 C3.92483777 9.27395724 6.70641597 15.95018968 12 22 C9 22 9 22 7.5 20.78515625 C2.67439112 15.24324606 0.20110786 9.82104928 -0.1875 2.4375 C-0.125625 1.633125 -0.06375 0.82875 0 0 Z " fill="#303D55" transform="translate(68,291)"/>
<path d="M0 0 C1.2065625 0.0309375 1.2065625 0.0309375 2.4375 0.0625 C2.4375 3.0625 2.4375 3.0625 1.4375 6.0625 C1.7675 6.0625 2.0975 6.0625 2.4375 6.0625 C3.0975 5.0725 3.7575 4.0825 4.4375 3.0625 C4.1075 4.7125 3.7775 6.3625 3.4375 8.0625 C1.125 8.75 1.125 8.75 -1.5625 9.0625 C-3.4375 7.9375 -3.4375 7.9375 -4.5625 6.0625 C-3.99439756 0.09742433 -3.99439756 0.09742433 0 0 Z " fill="#6D6D6D" transform="translate(673.5625,162.9375)"/>
<path d="M0 0 C0.33 0.66 0.66 1.32 1 2 C1.66 2 2.32 2 3 2 C2.33501617 6.38889325 0.81242323 9.9811485 -1 14 C-2.65 13.67 -4.3 13.34 -6 13 C-5.67 12.34 -5.34 11.68 -5 11 C-4.32918652 9.5018499 -3.66304592 8.00160399 -3 6.5 C-2.03356206 4.3113023 -1.06998829 2.13997657 0 0 Z " fill="#292929" transform="translate(296,278)"/>
<path d="M0 0 C0.99 0.33 1.98 0.66 3 1 C1.6581656 5.02550319 -0.4227573 5.88285636 -4 8 C-4.66 8 -5.32 8 -6 8 C-4.75237172 4.15314615 -3.6129609 1.97070595 0 0 Z " fill="#1D1D1D" transform="translate(487,287)"/>
<path d="M0 0 C3.43950364 0.61198376 5.51564485 1.92058847 8.25 4.0625 C8.95640625 4.61035156 9.6628125 5.15820312 10.390625 5.72265625 C11.18726563 6.35494141 11.18726563 6.35494141 12 7 C11.67 7.99 11.34 8.98 11 10 C9 8.625 9 8.625 7 7 C7 6.34 7 5.68 7 5 C6.21625 4.690625 5.4325 4.38125 4.625 4.0625 C2 3 2 3 0 2 C0 1.34 0 0.68 0 0 Z " fill="#41516D" transform="translate(230,143)"/>
<path d="M0 0 C0.99 0.33 1.98 0.66 3 1 C2.56179109 5.55737263 2.14958831 8.57653445 -1 12 C-2.45606519 7.47907032 -1.27032841 4.48351204 0 0 Z " fill="#596274" transform="translate(246,294)"/>
<path d="M0 0 C0.66 0.33 1.32 0.66 2 1 C-1.625 6.75 -1.625 6.75 -5 9 C-5.33 8.01 -5.66 7.02 -6 6 C-4 4 -2 2 0 0 Z " fill="#1F1F1F" transform="translate(513,259)"/>
<path d="M0 0 C-0.33 0.66 -0.66 1.32 -1 2 C-4.63 2 -8.26 2 -12 2 C-12 1.34 -12 0.68 -12 0 C-3.42857143 -1.28571429 -3.42857143 -1.28571429 0 0 Z " fill="#050505" transform="translate(482,293)"/>
<path d="M0 0 C0.66 0.33 1.32 0.66 2 1 C0.68 3.31 -0.64 5.62 -2 8 C-2.99 8 -3.98 8 -5 8 C-4.64950425 4.75791433 -4.43778819 3.38472296 -1.9375 1.1875 C-1.298125 0.795625 -0.65875 0.40375 0 0 Z " fill="#151515" transform="translate(325,246)"/>
<path d="M0 0 C0.99 0.33 1.98 0.66 3 1 C1.60667426 4.36720387 0.0210714 5.9859524 -3 8 C-3.66 7.67 -4.32 7.34 -5 7 C-3.35 4.69 -1.7 2.38 0 0 Z " fill="#282829" transform="translate(559,287)"/>
<path d="M0 0 C1.21816406 0.03480469 1.21816406 0.03480469 2.4609375 0.0703125 C3.68683594 0.09738281 3.68683594 0.09738281 4.9375 0.125 C5.87722656 0.15980469 5.87722656 0.15980469 6.8359375 0.1953125 C6.8359375 0.5253125 6.8359375 0.8553125 6.8359375 1.1953125 C4.1959375 1.1953125 1.5559375 1.1953125 -1.1640625 1.1953125 C-1.4528125 1.8140625 -1.7415625 2.4328125 -2.0390625 3.0703125 C-3.1640625 5.1953125 -3.1640625 5.1953125 -5.1640625 7.1953125 C-4.08619049 0.36878976 -4.08619049 0.36878976 0 0 Z " fill="#DEDD8B" transform="translate(126.1640625,228.8046875)"/>
<path d="M0 0 C0.66 0.33 1.32 0.66 2 1 C0.23043542 3.14210449 -0.87575652 3.96060573 -3.5625 4.8125 C-4.7690625 4.9053125 -4.7690625 4.9053125 -6 5 C-6.66 4.34 -7.32 3.68 -8 3 C-7.05125 2.690625 -6.1025 2.38125 -5.125 2.0625 C-2.13919592 1.12605258 -2.13919592 1.12605258 0 0 Z " fill="#606775" transform="translate(239,312)"/>
<path d="M0 0 C1.65 0 3.3 0 5 0 C5.33 0.66 5.66 1.32 6 2 C4.5625 4.625 4.5625 4.625 3 7 C1.68 6.34 0.36 5.68 -1 5 C0.32 5 1.64 5 3 5 C3 4.01 3 3.02 3 2 C2.01 1.34 1.02 0.68 0 0 Z " fill="#BEBEBE" transform="translate(672,164)"/>
<path d="M0 0 C0.66 0 1.32 0 2 0 C1.5020163 3.73487777 1.12508244 5.81237635 -1 9 C-1.80967438 6.08517222 -2.21845993 4.53886783 -1.0625 1.6875 C-0.711875 1.130625 -0.36125 0.57375 0 0 Z " fill="#475673" transform="translate(71,154)"/>
<path d="M0 0 C-4.30769231 3.07692308 -4.30769231 3.07692308 -7.8125 2.6875 C-8.534375 2.460625 -9.25625 2.23375 -10 2 C-3.75 -1.125 -3.75 -1.125 0 0 Z " fill="#35435B" transform="translate(233,317)"/>
<path d="M0 0 C2.79872437 2.52788007 4.45773019 4.20411134 5 8 C4.01 8 3.02 8 2 8 C0.23537317 4.91190305 0 3.76687864 0 0 Z " fill="#5C6981" transform="translate(242,151)"/>
<path d="M0 0 C1.125 3.75 1.125 3.75 0 6 C-0.99 6 -1.98 6 -3 6 C-2.625 3.5625 -2.625 3.5625 -2 1 C-1.34 0.67 -0.68 0.34 0 0 Z " fill="#121212" transform="translate(300,274)"/>
<path d="M0 0 C2.375 0.25 2.375 0.25 5 1 C6.3125 3.0625 6.3125 3.0625 7 5 C6.34 5.66 5.68 6.32 5 7 C4.731875 6.401875 4.46375 5.80375 4.1875 5.1875 C3.01506533 3.02775192 1.80630718 1.64209744 0 0 Z " fill="#5D796F" transform="translate(217,165)"/>
<path d="M0 0 C0.33 1.32 0.66 2.64 1 4 C-0.65 4.33 -2.3 4.66 -4 5 C-4 4.01 -4 3.02 -4 2 C-2.68 1.34 -1.36 0.68 0 0 Z " fill="#0E0E0E" transform="translate(293,290)"/>
<path d="M0 0 C2.125 0.375 2.125 0.375 4 1 C3.21625 1.598125 2.4325 2.19625 1.625 2.8125 C-1.14574323 4.91085249 -1.14574323 4.91085249 -3 8 C-2.25 2.25 -2.25 2.25 0 0 Z " fill="#E9E68D" transform="translate(158,194)"/>
<path d="M0 0 C0.99 0.33 1.98 0.66 3 1 C0.36 2.98 -2.28 4.96 -5 7 C-3.75023244 3.34683329 -3.32901247 2.21934164 0 0 Z " fill="#B3DA87" transform="translate(132,165)"/>
</svg>
