<?xml version="1.0" encoding="utf-8"?>
<!-- Generator: Adobe Illustrator 19.2.1, SVG Export Plug-In . SVG Version: 6.00 Build 0)  -->
<svg version="1.1" id="layer" xmlns="http://www.w3.org/2000/svg" xmlns:xlink="http://www.w3.org/1999/xlink" x="0px" y="0px"
	 viewBox="0 0 652 652" style="enable-background:new 0 0 652 652;" xml:space="preserve">
<style type="text/css">
	.st0{fill:#48206E;}
</style>
<path id="Path" class="st0" d="M26.4,380l112.9-167c1-1.9,2.9-3.1,5-3.1c2.1,0,4.1,1.2,5,3.1l41.8,62.3l13.9,20.7H181
	c-5.4,0.3-10.5,2.9-13.9,7.1l-50,76.9H26.4z"/>
<path d="M137.9,436.4l44.5-88.8c0.5-1,1.5-1.6,2.6-1.5c1.1-0.1,2.1,0.5,2.6,1.5l44.4,88.8c0.6,0.7,0.7,1.7,0.2,2.4
	c-0.5,0.8-1.3,1.2-2.2,1h-11.6c-1.2,0-2.4-0.4-3.4-1c-1-0.6-1.8-1.5-2.3-2.6l-3.9-7.7c-0.6-1-1.4-1.8-2.4-2.4c-1-0.7-2.1-1-3.3-1
	h-36.4c-1.2,0-2.3,0.4-3.3,1c-1,0.6-1.8,1.5-2.3,2.6l-3.7,7.6c-0.6,1-1.4,1.9-2.4,2.6c-1,0.6-2.1,1-3.3,1h-11.7
	c-0.9,0.1-1.7-0.3-2.2-1C137.5,438,137.5,437.1,137.9,436.4L137.9,436.4z M175.4,409.6h18.9c0.9,0.1,1.8-0.3,2.2-1.1
	c0.4-0.8,0.4-1.7,0-2.5l-10-21.1c-0.4-1-1-1.6-1.7-1.6c-0.7,0-1.2,0.5-1.7,1.6L173.1,406c-0.4,0.8-0.4,1.8,0,2.6
	C173.6,409.3,174.5,409.7,175.4,409.6z M257.2,439.9h-10.1c-1.1,0-2.1-0.4-2.8-1.2c-0.7-0.7-1.2-1.7-1.1-2.8v-85.8
	c0-1.1,0.4-2.1,1.1-2.8c0.8-0.8,1.8-1.2,2.8-1.1h38.7c4.5-0.1,9,0.7,13.2,2.3c3.8,1.6,7.2,3.8,10.1,6.7c1.5,1.4,2.7,3,3.8,4.7
	c1.1,1.7,2.1,3.6,2.8,5.5c1.6,4.2,2.3,8.6,2.3,13.1c0.2,6.6-1.6,13.1-5.3,18.6c-2.7,4-6.4,7.2-10.6,9.5c-0.9,0.4-1.5,1.2-1.8,2.1
	c-0.2,0.9,0,1.9,0.7,2.6c3.1,4.3,6.2,8.3,9,12.1c2.9,3.8,5.8,7.9,8.9,12.1c0.6,0.8,0.8,1.9,0.6,2.8c-0.3,0.9-1.2,1.5-2.1,1.4h-12.9
	c-1.2,0-2.4-0.3-3.5-0.9c-1.1-0.5-2.1-1.3-2.8-2.2l-4.3-5.9c-1.4-1.9-2.8-3.8-4.3-5.8l-8.5-11.9c-0.7-1-1.7-1.8-2.8-2.3
	c-1.1-0.6-2.3-0.9-3.5-0.9H265c-1.1,0-2.1,0.4-2.8,1.1c-0.8,0.7-1.2,1.8-1.1,2.8v21.9c0,1-0.4,2-1.1,2.8
	C259.3,439.3,258.3,439.8,257.2,439.9z M265,394.1h20.8c1.6-0.1,3.2-0.4,4.7-1c1.8-0.6,3.4-1.7,4.7-3c1.4-1.4,2.5-3,3.4-4.7
	c0.9-2.2,1.4-4.5,1.3-6.9c0-1.6-0.2-3.2-0.5-4.7c-0.2-0.9-0.4-1.8-0.8-2.7c-0.4-0.9-0.8-1.8-1.2-2.6c-1.1-1.8-2.6-3.3-4.4-4.4
	c-2.3-1.3-4.9-1.9-7.5-1.8H265c-1.1,0-2.1,0.4-2.8,1.1c-0.8,0.7-1.2,1.8-1.1,2.8v24.2c0,1.1,0.4,2.1,1.1,2.8
	C263,393.9,264,394.2,265,394.1L265,394.1z M437,348.1v87.8c0,1-0.4,2.1-1.1,2.8c-0.7,0.8-1.7,1.2-2.7,1.2h-10.1
	c-1.1,0-2.1-0.4-2.8-1.2c-0.8-0.7-1.2-1.7-1.2-2.8v-39.5c0-1.1-0.2-1.8-0.7-2c-0.4-0.2-1.1,0-1.8,1.1l-24.2,29
	c-0.6,0.8-1.5,1.3-2.5,1.3s-1.9-0.5-2.5-1.3l-24.4-29.1c-0.7-0.9-1.3-1.2-1.8-1c-0.5,0.1-0.8,0.8-0.8,1.9v39.5c0,1-0.4,2.1-1.1,2.8
	c-0.7,0.8-1.8,1.2-2.8,1.2h-10c-2.2,0-3.9-1.8-4-4v-87.7c-0.1-0.5,0.1-0.9,0.4-1.3c0.3-0.4,0.7-0.6,1.2-0.6c1-0.2,2,0.2,2.6,1
	l40.5,50.1c0.7,0.7,1.6,1.1,2.6,1.1s1.9-0.4,2.6-1.1l40.6-50c0.6-0.8,1.6-1.2,2.6-1C436.4,346.4,437.1,347.2,437,348.1L437,348.1z
	 M480.2,439.9h-10.1c-1,0-2.1-0.4-2.7-1.2c-0.7-0.7-1.1-1.8-1.1-2.8v-85.7c0-1.1,0.3-2.1,1.1-2.8c0.7-0.8,1.7-1.2,2.7-1.1h10.1
	c1,0,2.1,0.4,2.8,1.1c0.8,0.7,1.2,1.8,1.2,2.8v85.7c0,1.1-0.4,2.1-1.2,2.8C482.3,439.4,481.3,439.9,480.2,439.9z M511.2,424.3
	l5.3-7.9c0.5-0.9,1.4-1.5,2.5-1.7c1-0.2,2.1,0.1,2.9,0.7c3.6,2.2,7.4,4.3,11.3,6.1c4.9,2.4,10.3,3.6,15.8,3.6
	c2.6,0.1,5.2-0.3,7.7-1.1c2-0.6,3.9-1.6,5.6-2.8c1.4-1.1,2.6-2.4,3.5-4c0.8-1.3,1.1-2.8,1.1-4.4c0-1.7-0.6-3.4-1.8-4.7
	c-1.3-1.4-3-2.5-4.7-3.2c-0.9-0.4-2-0.8-3.1-1.2l-3.7-1c-1.3-0.3-2.6-0.7-3.9-0.9l-4.2-0.8l-3.1-0.6l-3.5-0.7
	c-2.6-0.4-5.2-1-7.7-1.9c-2.7-0.8-5.3-1.9-7.8-3.2c-2.5-1.2-4.9-2.8-6.9-4.7c-2.1-2-3.7-4.5-4.7-7.2c-1.3-3.1-1.9-6.4-1.8-9.7
	c-0.5-9,4-17.6,11.8-22.3c3.6-2,7.5-3.5,11.5-4.4c4-0.9,8.2-1.3,12.3-1.3c3.5,0,7,0.2,10.5,0.8c1.6,0.3,3,0.6,4.4,1l4.2,1.2
	c1.3,0.5,2.6,1.1,4,1.8l3.7,2l2.4,1.5c0.8,0.5,1.7,1,2.6,1.6c0.9,0.6,1.5,1.5,1.7,2.6c0.2,1-0.1,2.1-0.8,2.9l-5.4,7.7
	c-1.3,1.8-3.8,2.3-5.6,1c-3-1.9-6.1-3.5-9.5-4.7c-4.1-1.7-8.5-2.5-12.9-2.5h-2.5c-0.9,0-1.8,0-2.7,0.4c-1.9,0.4-3.8,1.1-5.6,1.9
	c-0.8,0.4-1.6,0.9-2.4,1.4c-0.7,0.5-1.3,1-1.9,1.6c-1.1,1.3-1.7,3-1.7,4.7c0,1.8,0.7,3.5,2,4.7c1.5,1.4,3.3,2.5,5.3,3.2
	c1.1,0.4,2.2,0.8,3.4,1.1c1.1,0.4,2.4,0.7,3.6,1s2.6,0.7,3.8,0.9c1.2,0.2,2.5,0.6,3.6,0.9l2.9,0.6c1.1,0.3,2.2,0.5,3.4,0.7l3.7,0.7
	c1.3,0.3,2.6,0.7,3.8,1.1l2.1,0.6l2.1,0.8c1,0.4,2.2,0.9,3.5,1.7c1.2,0.6,2.3,1.3,3.4,2c0.6,0.4,1.3,0.9,1.8,1.4l1.6,1.5
	c2.1,2.1,3.7,4.7,4.7,7.4c1.3,3.4,2,7.1,1.9,10.7c0.1,4.4-0.8,8.7-2.6,12.7c-1.6,3.5-4.1,6.6-7.3,8.8c-3.4,2.5-7.2,4.3-11.3,5.4
	c-4.7,1.2-9.6,1.8-14.5,1.8c-4.3,0-8.7-0.4-13-1.2c-3.5-0.6-6.9-1.6-10.1-2.9c-1.5-0.6-3-1.3-4.4-2c-1.5-0.7-2.9-1.5-4.3-2.4
	l-2.6-1.6l-2.7-1.8c-0.9-0.6-1.5-1.4-1.7-2.5C510.4,426.2,510.6,425.2,511.2,424.3L511.2,424.3z"/>
<path id="Shape_2_" d="M601.6,428.8c0-1.1,0.1-2.3,0.4-3.4c0.3-1.1,0.7-2.1,1.2-3c0.6-0.9,1.2-1.8,1.9-2.6c0.7-0.8,1.6-1.4,2.5-1.9
	c0.9-0.6,1.9-1,3-1.3c1.1-0.3,2.2-0.4,3.3-0.4c1.1,0,2.2,0.1,3.3,0.4c1,0.3,2.1,0.8,3,1.3c0.9,0.5,1.8,1.2,2.6,1.9
	c0.7,0.8,1.4,1.7,1.9,2.6c0.5,1,1,2,1.2,3c0.3,1.1,0.5,2.2,0.5,3.4c0,1.6-0.4,3.2-1,4.7c-0.6,1.5-1.5,2.9-2.6,4.1
	c-1.1,1.1-2.5,2.1-4,2.7c-1.5,0.6-3.1,1-4.7,1c-1.1,0-2.2-0.1-3.3-0.4c-1-0.3-2-0.7-3-1.3c-0.9-0.5-1.7-1-2.4-1.6
	c-0.7-0.8-1.4-1.7-1.9-2.6c-0.5-1-0.9-2-1.2-3C601.9,431.2,601.7,430,601.6,428.8L601.6,428.8z M604.7,428.8c0,1.3,0.2,2.7,0.7,3.9
	c0.5,1.2,1.1,2.2,2,3.1c0.8,0.9,1.7,1.6,2.8,2.1c1.2,0.5,2.4,0.7,3.6,0.8c1.3,0,2.6-0.3,3.7-0.8c1.1-0.5,2.1-1.2,3-2.1
	c0.9-0.9,1.5-2,2-3.1c0.5-1.3,0.7-2.6,0.7-3.9c0-1.3-0.2-2.6-0.7-3.8c-0.8-2.3-2.5-4.2-4.7-5.3c-1.2-0.5-2.4-0.8-3.7-0.8
	c-1.3,0-2.5,0.3-3.6,0.8c-1.1,0.5-2.1,1.2-2.9,2.1c-0.9,0.9-1.5,2-2,3.2C605,426.2,604.7,427.5,604.7,428.8z M609.4,422.4h5.5
	c0.6,0,1.2,0.1,1.7,0.3c0.5,0.2,0.9,0.5,1.3,0.8c0.4,0.4,0.6,0.8,0.8,1.3c0.2,0.5,0.4,1.1,0.3,1.7c0.1,0.4,0.1,0.9,0,1.3
	c-0.1,0.3-0.3,0.7-0.6,0.9c-0.2,0.3-0.4,0.5-0.7,0.7c-0.2,0.2-0.5,0.3-0.8,0.3l0,0l0,0v0.2l0.2,0.4l2.4,4.7h-3.3l-2.1-4.7h-1.7v4.7
	h-3L609.4,422.4z M614.1,428.4c0.5,0,1-0.2,1.4-0.5c0.3-0.4,0.5-0.9,0.5-1.4c0-0.5-0.1-1-0.5-1.4c-0.4-0.3-0.8-0.5-1.3-0.5h-1.7v4
	L614.1,428.4z"/>
</svg>
