<svg xmlns="http://www.w3.org/2000/svg" viewBox="-24 0 560 512" width="32" height="32"><path d="M344.6 367.9 260 283.3l-.9-1.2zm-81.7-143.2 62.5-62.4zm62.4-62.4-78.1-78.1c-9.5-9.5-23.7-7.6-31.1-.3L59.9 240.2c-8.9 8.9-8.3 22.9 0 31.2l13.8 13.9-60.6-60.6.1-.2L200.5 37.4c14.6-14.6 41-17 58.9-2l192.1 192.1-95.7-95.7zm-108.5 266c.7.6 1.4 1.2 2.2 1.7 8.3 5.6 19.3 5.2 27.6-3.1l47.3-47.2 31.2 31.2-62.8 62.8c-20.7 20.7-48.7 13.8-62.5.1L13.4 287.3l186.4 186.5c13.8 13.7 41.7 20.6 62.4 0zm170.6-79.7 65 65-.1.1c-21.6-21.7-43.2-43.4-64.9-65.1m-31-155.2 46.4 46.4zm23.7 100.3-7.6 7.6-.4.4.4-.4z" style="fill-rule:evenodd;clip-rule:evenodd;fill:#78bf40"/><path d="M512 473.4c-13.3 14.3-42.6 19.6-62.2 0-63-63-127.1-127.8-190.7-191.3-12-16.1-12.9-40.8 3.8-57.4l62.5-62.5 30.5-30.5 95.7 95.7c13 15.6 15.5 41.5-1.8 58.9l-62.2 62.2c41.5 41.8 82.7 83.2 124.4 124.9M340.8 302l-30.9-30.9c-8-8-9.2-21.9 0-31.1l46.5-46.5 46.4 46.4c8.4 8.4 9.3 21.8.1 31.1-10.2 10.1-20.3 20.3-30.5 30.4l-.7.7c-8.5 8.4-22.4 8.4-30.9-.1m-78.5 171.7c-20.7 20.6-48.7 13.8-62.4 0L13.4 287.2c-16.9-16.9-18.6-44-.2-62.6L135 346.4l80.7 80.7c.3.3.6.6.9.8 0 .1 45.7 45.8 45.7 45.8" style="fill-rule:evenodd;clip-rule:evenodd;fill:#00689e"/></svg>
