<svg xmlns="http://www.w3.org/2000/svg" fill="none" viewBox="1 0 99.6 99.73">
 <defs>
  <linearGradient y2="0.33917" x2="0.5311" y1="0.70076" x1="0.07025" id="paint0_linear_1340_94">
   <stop stop-color="#FF9EFA"/>
   <stop stop-opacity="0.84" stop-color="#F55C15" offset="0.42265"/>
   <stop stop-color="#6B13F5" offset="1"/>
  </linearGradient>
  <linearGradient y2="1.05674" x2="0.45242" y1="0.51576" x1="0.6154" id="paint1_linear_1340_94">
   <stop stop-opacity="0" stop-color="#A73394"/>
   <stop stop-color="#6B13F5" offset="1"/>
  </linearGradient>
  <linearGradient y2="0.61386" x2="0.43275" y1="0.97826" x1="0.93575" id="paint2_linear_1340_94">
   <stop stop-color="#6B13F5" offset="0.38542"/>
   <stop stop-opacity="0" stop-color="#E2606E" offset="1"/>
  </linearGradient>
  <linearGradient y2="0.42606" x2="0.32597" y1="0.05326" x1="0.28101" id="paint3_linear_1340_94">
   <stop stop-color="#6B13F5" offset="0.18229"/>
   <stop stop-opacity="0" stop-color="#CB4758" offset="1"/>
  </linearGradient>
  <linearGradient y2="0.58864" x2="0.41308" y1="0.40364" x1="0.71657" id="paint4_linear_1340_94">
   <stop stop-color="#6B13F5"/>
   <stop stop-opacity="0" stop-color="#E46373" offset="1"/>
  </linearGradient>
  <radialGradient gradientTransform="translate(38.6489 53.1074) rotate(176.204) scale(52.7244 138.365)" gradientUnits="userSpaceOnUse" r="1" cy="0" cx="0" id="paint5_radial_1340_94">
   <stop stop-opacity="0.46" stop-color="#F55C15"/>
   <stop stop-opacity="0" stop-color="#EE82C6" offset="0.83197"/>
  </radialGradient>
  <radialGradient gradientTransform="translate(-1.49331 68.0673) rotate(-19.7843) scale(36.8309 36.7807)" gradientUnits="userSpaceOnUse" r="1" cy="0" cx="0" id="paint6_radial_1340_94">
   <stop stop-color="#FF9EFA"/>
   <stop stop-opacity="0" stop-color="#DD5A68" offset="1"/>
  </radialGradient>
  <linearGradient y2="0.77163" x2="1.42206" y1="2.02134" x1="-0.16673" id="paint7_linear_1340_94">
   <stop stop-color="#FF9EFA"/>
   <stop stop-opacity="0.84" stop-color="#F55C15" offset="0.42265"/>
   <stop stop-color="#6B13F5" offset="1"/>
  </linearGradient>
  <linearGradient y2="3.25168" x2="1.1508" y1="1.38196" x1="1.71269" id="paint8_linear_1340_94">
   <stop stop-opacity="0" stop-color="#A73394"/>
   <stop stop-color="#6B13F5" offset="1"/>
  </linearGradient>
  <linearGradient y2="1.72103" x2="1.08299" y1="2.98043" x1="2.81709" id="paint9_linear_1340_94">
   <stop stop-color="#6B13F5" offset="0.38542"/>
   <stop stop-opacity="0" stop-color="#E2606E" offset="1"/>
  </linearGradient>
  <linearGradient y2="1.07195" x2="0.71485" y1="-0.21651" x1="0.55985" id="paint10_linear_1340_94">
   <stop stop-color="#6B13F5" offset="0.18229"/>
   <stop stop-opacity="0" stop-color="#CB4758" offset="1"/>
  </linearGradient>
  <linearGradient y2="1.63384" x2="1.01517" y1="0.99445" x1="2.06145" id="paint11_linear_1340_94">
   <stop stop-color="#6B13F5"/>
   <stop stop-opacity="0" stop-color="#E46373" offset="1"/>
  </linearGradient>
  <radialGradient gradientTransform="translate(38.6489 53.1074) rotate(176.204) scale(52.7244 138.365)" gradientUnits="userSpaceOnUse" r="1" cy="0" cx="0" id="paint12_radial_1340_94">
   <stop stop-opacity="0.46" stop-color="#F55C15"/>
   <stop stop-opacity="0" stop-color="#EE82C6" offset="0.83197"/>
  </radialGradient>
  <radialGradient gradientTransform="translate(-1.49331 68.0673) rotate(-19.7843) scale(36.8309 36.7807)" gradientUnits="userSpaceOnUse" r="1" cy="0" cx="0" id="paint13_radial_1340_94">
   <stop stop-color="#FF9EFA"/>
   <stop stop-opacity="0" stop-color="#DD5A68" offset="1"/>
  </radialGradient>
  <linearGradient y2="0.01093" x2="-0.77825" y1="1.68476" x1="-2.164" id="paint14_linear_1340_94">
   <stop stop-color="#FF9EFA"/>
   <stop stop-opacity="0.84" stop-color="#F55C15" offset="0.42265"/>
   <stop stop-color="#6B13F5" offset="1"/>
  </linearGradient>
  <linearGradient y2="3.33264" x2="-1.01485" y1="0.82838" x1="-0.52477" id="paint15_linear_1340_94">
   <stop stop-opacity="0" stop-color="#A73394"/>
   <stop stop-color="#6B13F5" offset="1"/>
  </linearGradient>
  <linearGradient y2="1.28252" x2="-1.07399" y1="2.96933" x1="0.43849" id="paint16_linear_1340_94">
   <stop stop-color="#6B13F5" offset="0.38542"/>
   <stop stop-opacity="0" stop-color="#E2606E" offset="1"/>
  </linearGradient>
  <linearGradient y2="0.41317" x2="-1.39508" y1="-1.31257" x1="-1.53027" id="paint17_linear_1340_94">
   <stop stop-color="#6B13F5" offset="0.18229"/>
   <stop stop-opacity="0" stop-color="#CB4758" offset="1"/>
  </linearGradient>
  <linearGradient y2="1.16574" x2="-1.13314" y1="0.30936" x1="-0.22058" id="paint18_linear_1340_94">
   <stop stop-color="#6B13F5"/>
   <stop stop-opacity="0" stop-color="#E46373" offset="1"/>
  </linearGradient>
  <radialGradient gradientTransform="translate(38.6489 53.1074) rotate(176.204) scale(52.7244 138.365)" gradientUnits="userSpaceOnUse" r="1" cy="0" cx="0" id="paint19_radial_1340_94">
   <stop stop-opacity="0.46" stop-color="#F55C15"/>
   <stop stop-opacity="0" stop-color="#EE82C6" offset="0.83197"/>
  </radialGradient>
  <radialGradient gradientTransform="translate(-1.49331 68.0673) rotate(-19.7843) scale(36.8309 36.7807)" gradientUnits="userSpaceOnUse" r="1" cy="0" cx="0" id="paint20_radial_1340_94">
   <stop stop-color="#FF9EFA"/>
   <stop stop-opacity="0" stop-color="#DD5A68" offset="1"/>
  </radialGradient>
  <linearGradient y2="-1.35745" x2="0.91266" y1="-0.26744" x1="-1.21532" id="paint21_linear_1340_94">
   <stop stop-color="#FF9EFA"/>
   <stop stop-opacity="0.84" stop-color="#F55C15" offset="0.42265"/>
   <stop stop-color="#6B13F5" offset="1"/>
  </linearGradient>
  <linearGradient y2="0.80566" x2="0.54934" y1="-0.82512" x1="1.30192" id="paint22_linear_1340_94">
   <stop stop-opacity="0" stop-color="#A73394"/>
   <stop stop-color="#6B13F5" offset="1"/>
  </linearGradient>
  <linearGradient y2="-0.52938" x2="0.45852" y1="0.56907" x1="2.78113" id="paint23_linear_1340_94">
   <stop stop-color="#6B13F5" offset="0.38542"/>
   <stop stop-opacity="0" stop-color="#E2606E" offset="1"/>
  </linearGradient>
  <linearGradient y2="-1.09551" x2="-0.03455" y1="-2.21931" x1="-0.24216" id="paint24_linear_1340_94">
   <stop stop-color="#6B13F5" offset="0.18229"/>
   <stop stop-opacity="0" stop-color="#CB4758" offset="1"/>
  </linearGradient>
  <linearGradient y2="-0.60543" x2="0.36769" y1="-1.1631" x1="1.76904" id="paint25_linear_1340_94">
   <stop stop-color="#6B13F5"/>
   <stop stop-opacity="0" stop-color="#E46373" offset="1"/>
  </linearGradient>
  <radialGradient gradientTransform="translate(38.6489 53.1074) rotate(176.204) scale(52.7244 138.365)" gradientUnits="userSpaceOnUse" r="1" cy="0" cx="0" id="paint26_radial_1340_94">
   <stop stop-opacity="0.46" stop-color="#F55C15"/>
   <stop stop-opacity="0" stop-color="#EE82C6" offset="0.83197"/>
  </radialGradient>
  <radialGradient gradientTransform="translate(-1.49331 68.0673) rotate(-19.7843) scale(36.8309 36.7807)" gradientUnits="userSpaceOnUse" r="1" cy="0" cx="0" id="paint27_radial_1340_94">
   <stop stop-color="#FF9EFA"/>
   <stop stop-opacity="0" stop-color="#DD5A68" offset="1"/>
  </radialGradient>
 </defs>
 <g>
  <title>Layer 1</title>
  <path id="svg_1" fill="url(#paint0_linear_1340_94)" d="m64.3092,0.25939c-4.1929,-1.1235 -8.4669,1.51363 -9.3435,5.7651l-3.9773,19.29131c-2.598,12.601 -12.4419,22.4495 -25.0417,25.0534l-18.92383,3.9109c-4.251,0.8785 -6.88689,5.1528 -5.7634,9.3457c1.12362,4.1934 5.54433,6.5771 9.66533,5.2115l18.41589,-6.1022c12.2444,-4.0572 25.7288,-0.4441 34.3041,9.1918l12.89862,14.4938c2.8855,3.2424 7.90472,3.3885 10.974,0.3193c3.06969,-3.06969 2.923,-8.0899 -0.3205,-10.9752l-14.58791,-12.9763c-9.6622,-8.5949 -13.2851,-22.1139 -9.2158,-34.3887l6.12553,-18.47702c1.36591,-4.11993 -1.01701,-8.54 -5.20959,-9.66339l0.00002,0l0.00002,0l0.00001,0l0.00001,0l0.00001,0z"/>
  <path id="svg_2" fill-opacity="0.46" fill="url(#paint1_linear_1340_94)" d="m64.3092,0.25939c-4.1929,-1.1235 -8.4669,1.51363 -9.3435,5.7651l-3.9773,19.29131c-2.598,12.601 -12.4419,22.4495 -25.0417,25.0534l-18.92383,3.9109c-4.251,0.8785 -6.88689,5.1528 -5.7634,9.3457c1.12362,4.1934 5.54433,6.5771 9.66533,5.2115l18.41589,-6.1022c12.2444,-4.0572 25.7288,-0.4441 34.3041,9.1918l12.89862,14.4938c2.8855,3.2424 7.90472,3.3885 10.974,0.3193c3.06969,-3.06969 2.923,-8.0899 -0.3205,-10.9752l-14.58791,-12.9763c-9.6622,-8.5949 -13.2851,-22.1139 -9.2158,-34.3887l6.12553,-18.47702c1.36591,-4.11993 -1.01701,-8.54 -5.20959,-9.66339l0.00002,0l0.00002,0l0.00001,0l0.00001,0l0.00001,0z"/>
  <path id="svg_3" fill-opacity="0.66" fill="url(#paint2_linear_1340_94)" d="m64.3092,0.25939c-4.1929,-1.1235 -8.4669,1.51363 -9.3435,5.7651l-3.9773,19.29131c-2.598,12.601 -12.4419,22.4495 -25.0417,25.0534l-18.92383,3.9109c-4.251,0.8785 -6.88689,5.1528 -5.7634,9.3457c1.12362,4.1934 5.54433,6.5771 9.66533,5.2115l18.41589,-6.1022c12.2444,-4.0572 25.7288,-0.4441 34.3041,9.1918l12.89862,14.4938c2.8855,3.2424 7.90472,3.3885 10.974,0.3193c3.06969,-3.06969 2.923,-8.0899 -0.3205,-10.9752l-14.58791,-12.9763c-9.6622,-8.5949 -13.2851,-22.1139 -9.2158,-34.3887l6.12553,-18.47702c1.36591,-4.11993 -1.01701,-8.54 -5.20959,-9.66339l0.00002,0l0.00002,0l0.00001,0l0.00001,0l0.00001,0z"/>
  <path id="svg_4" fill-opacity="0.67" fill="url(#paint3_linear_1340_94)" d="m64.3092,0.25939c-4.1929,-1.1235 -8.4669,1.51363 -9.3435,5.7651l-3.9773,19.29131c-2.598,12.601 -12.4419,22.4495 -25.0417,25.0534l-18.92383,3.9109c-4.251,0.8785 -6.88689,5.1528 -5.7634,9.3457c1.12362,4.1934 5.54433,6.5771 9.66533,5.2115l18.41589,-6.1022c12.2444,-4.0572 25.7288,-0.4441 34.3041,9.1918l12.89862,14.4938c2.8855,3.2424 7.90472,3.3885 10.974,0.3193c3.06969,-3.06969 2.923,-8.0899 -0.3205,-10.9752l-14.58791,-12.9763c-9.6622,-8.5949 -13.2851,-22.1139 -9.2158,-34.3887l6.12553,-18.47702c1.36591,-4.11993 -1.01701,-8.54 -5.20959,-9.66339l0.00002,0l0.00002,0l0.00001,0l0.00001,0l0.00001,0z"/>
  <path id="svg_5" fill="url(#paint4_linear_1340_94)" d="m64.3092,0.25939c-4.1929,-1.1235 -8.4669,1.51363 -9.3435,5.7651l-3.9773,19.29131c-2.598,12.601 -12.4419,22.4495 -25.0417,25.0534l-18.92383,3.9109c-4.251,0.8785 -6.88689,5.1528 -5.7634,9.3457c1.12362,4.1934 5.54433,6.5771 9.66533,5.2115l18.41589,-6.1022c12.2444,-4.0572 25.7288,-0.4441 34.3041,9.1918l12.89862,14.4938c2.8855,3.2424 7.90472,3.3885 10.974,0.3193c3.06969,-3.06969 2.923,-8.0899 -0.3205,-10.9752l-14.58791,-12.9763c-9.6622,-8.5949 -13.2851,-22.1139 -9.2158,-34.3887l6.12553,-18.47702c1.36591,-4.11993 -1.01701,-8.54 -5.20959,-9.66339l0.00002,0l0.00002,0l0.00001,0l0.00001,0l0.00001,0z"/>
  <path id="svg_6" fill-opacity="0.94" fill="url(#paint5_radial_1340_94)" d="m64.3092,0.25939c-4.1929,-1.1235 -8.4669,1.51363 -9.3435,5.7651l-3.9773,19.29131c-2.598,12.601 -12.4419,22.4495 -25.0417,25.0534l-18.92383,3.9109c-4.251,0.8785 -6.88689,5.1528 -5.7634,9.3457c1.12362,4.1934 5.54433,6.5771 9.66533,5.2115l18.41589,-6.1022c12.2444,-4.0572 25.7288,-0.4441 34.3041,9.1918l12.89862,14.4938c2.8855,3.2424 7.90472,3.3885 10.974,0.3193c3.06969,-3.06969 2.923,-8.0899 -0.3205,-10.9752l-14.58791,-12.9763c-9.6622,-8.5949 -13.2851,-22.1139 -9.2158,-34.3887l6.12553,-18.47702c1.36591,-4.11993 -1.01701,-8.54 -5.20959,-9.66339l0.00002,0l0.00002,0l0.00001,0l0.00001,0l0.00001,0z"/>
  <path id="svg_7" fill-opacity="0.1" fill="url(#paint6_radial_1340_94)" d="m64.3092,0.25939c-4.1929,-1.1235 -8.4669,1.51363 -9.3435,5.7651l-3.9773,19.29131c-2.598,12.601 -12.4419,22.4495 -25.0417,25.0534l-18.92383,3.9109c-4.251,0.8785 -6.88689,5.1528 -5.7634,9.3457c1.12362,4.1934 5.54433,6.5771 9.66533,5.2115l18.41589,-6.1022c12.2444,-4.0572 25.7288,-0.4441 34.3041,9.1918l12.89862,14.4938c2.8855,3.2424 7.90472,3.3885 10.974,0.3193c3.06969,-3.06969 2.923,-8.0899 -0.3205,-10.9752l-14.58791,-12.9763c-9.6622,-8.5949 -13.2851,-22.1139 -9.2158,-34.3887l6.12553,-18.47702c1.36591,-4.11993 -1.01701,-8.54 -5.20959,-9.66339l0.00002,0l0.00002,0l0.00001,0l0.00001,0l0.00001,0z"/>
  <path id="svg_8" fill="url(#paint7_linear_1340_94)" d="m14.1852,24.3911c-3.429,-3.1024 -3.5624,-8.4435 -0.2926,-11.7132c3.2697,-3.26978 8.6107,-3.13634 11.7131,0.2926l9.7534,10.7801c2.6309,2.9078 2.5194,7.3677 -0.2533,10.1405c-2.7728,2.7728 -7.2328,2.8842 -10.1405,0.2533l-10.7801,-9.7533z"/>
  <path id="svg_9" fill-opacity="0.46" fill="url(#paint8_linear_1340_94)" d="m14.1852,24.3911c-3.429,-3.1024 -3.5624,-8.4435 -0.2926,-11.7132c3.2697,-3.26978 8.6107,-3.13634 11.7131,0.2926l9.7534,10.7801c2.6309,2.9078 2.5194,7.3677 -0.2533,10.1405c-2.7728,2.7728 -7.2328,2.8842 -10.1405,0.2533l-10.7801,-9.7533z"/>
  <path id="svg_10" fill-opacity="0.66" fill="url(#paint9_linear_1340_94)" d="m14.1852,24.3911c-3.429,-3.1024 -3.5624,-8.4435 -0.2926,-11.7132c3.2697,-3.26978 8.6107,-3.13634 11.7131,0.2926l9.7534,10.7801c2.6309,2.9078 2.5194,7.3677 -0.2533,10.1405c-2.7728,2.7728 -7.2328,2.8842 -10.1405,0.2533l-10.7801,-9.7533z"/>
  <path id="svg_11" fill-opacity="0.67" fill="url(#paint10_linear_1340_94)" d="m14.1852,24.3911c-3.429,-3.1024 -3.5624,-8.4435 -0.2926,-11.7132c3.2697,-3.26978 8.6107,-3.13634 11.7131,0.2926l9.7534,10.7801c2.6309,2.9078 2.5194,7.3677 -0.2533,10.1405c-2.7728,2.7728 -7.2328,2.8842 -10.1405,0.2533l-10.7801,-9.7533z"/>
  <path id="svg_12" fill="url(#paint11_linear_1340_94)" d="m14.1852,24.3911c-3.429,-3.1024 -3.5624,-8.4435 -0.2926,-11.7132c3.2697,-3.26978 8.6107,-3.13634 11.7131,0.2926l9.7534,10.7801c2.6309,2.9078 2.5194,7.3677 -0.2533,10.1405c-2.7728,2.7728 -7.2328,2.8842 -10.1405,0.2533l-10.7801,-9.7533z"/>
  <path id="svg_13" fill-opacity="0.94" fill="url(#paint12_radial_1340_94)" d="m14.1852,24.3911c-3.429,-3.1024 -3.5624,-8.4435 -0.2926,-11.7132c3.2697,-3.26978 8.6107,-3.13634 11.7131,0.2926l9.7534,10.7801c2.6309,2.9078 2.5194,7.3677 -0.2533,10.1405c-2.7728,2.7728 -7.2328,2.8842 -10.1405,0.2533l-10.7801,-9.7533z"/>
  <path id="svg_14" fill-opacity="0.1" fill="url(#paint13_radial_1340_94)" d="m14.1852,24.3911c-3.429,-3.1024 -3.5624,-8.4435 -0.2926,-11.7132c3.2697,-3.26978 8.6107,-3.13634 11.7131,0.2926l9.7534,10.7801c2.6309,2.9078 2.5194,7.3677 -0.2533,10.1405c-2.7728,2.7728 -7.2328,2.8842 -10.1405,0.2533l-10.7801,-9.7533z"/>
  <path id="svg_15" fill="url(#paint14_linear_1340_94)" d="m90.0279,30.3514c4.4013,-1.4184 9.0935,1.1366 10.2901,5.6031c1.197,4.4666 -1.5891,9.0253 -6.1099,9.9976l-14.2124,3.0567c-3.83369,0.8245 -7.6404,-1.502 -8.6553,-5.2897c-1.0149,-3.7877 1.1186,-7.7058 4.8508,-8.9086l13.8367,-4.4591z"/>
  <path id="svg_16" fill-opacity="0.46" fill="url(#paint15_linear_1340_94)" d="m90.0279,30.3514c4.4013,-1.4184 9.0935,1.1366 10.2901,5.6031c1.197,4.4666 -1.5891,9.0253 -6.1099,9.9976l-14.2124,3.0567c-3.83369,0.8245 -7.6404,-1.502 -8.6553,-5.2897c-1.0149,-3.7877 1.1186,-7.7058 4.8508,-8.9086l13.8367,-4.4591z"/>
  <path id="svg_17" fill-opacity="0.66" fill="url(#paint16_linear_1340_94)" d="m90.0279,30.3514c4.4013,-1.4184 9.0935,1.1366 10.2901,5.6031c1.197,4.4666 -1.5891,9.0253 -6.1099,9.9976l-14.2124,3.0567c-3.83369,0.8245 -7.6404,-1.502 -8.6553,-5.2897c-1.0149,-3.7877 1.1186,-7.7058 4.8508,-8.9086l13.8367,-4.4591z"/>
  <path id="svg_18" fill-opacity="0.67" fill="url(#paint17_linear_1340_94)" d="m90.0279,30.3514c4.4013,-1.4184 9.0935,1.1366 10.2901,5.6031c1.197,4.4666 -1.5891,9.0253 -6.1099,9.9976l-14.2124,3.0567c-3.83369,0.8245 -7.6404,-1.502 -8.6553,-5.2897c-1.0149,-3.7877 1.1186,-7.7058 4.8508,-8.9086l13.8367,-4.4591z"/>
  <path id="svg_19" fill="url(#paint18_linear_1340_94)" d="m90.0279,30.3514c4.4013,-1.4184 9.0935,1.1366 10.2901,5.6031c1.197,4.4666 -1.5891,9.0253 -6.1099,9.9976l-14.2124,3.0567c-3.83369,0.8245 -7.6404,-1.502 -8.6553,-5.2897c-1.0149,-3.7877 1.1186,-7.7058 4.8508,-8.9086l13.8367,-4.4591z"/>
  <path id="svg_20" fill-opacity="0.94" fill="url(#paint19_radial_1340_94)" d="m90.0279,30.3514c4.4013,-1.4184 9.0935,1.1366 10.2901,5.6031c1.197,4.4666 -1.5891,9.0253 -6.1099,9.9976l-14.2124,3.0567c-3.83369,0.8245 -7.6404,-1.502 -8.6553,-5.2897c-1.0149,-3.7877 1.1186,-7.7058 4.8508,-8.9086l13.8367,-4.4591z"/>
  <path id="svg_21" fill-opacity="0.1" fill="url(#paint20_radial_1340_94)" d="m90.0279,30.3514c4.4013,-1.4184 9.0935,1.1366 10.2901,5.6031c1.197,4.4666 -1.5891,9.0253 -6.1099,9.9976l-14.2124,3.0567c-3.83369,0.8245 -7.6404,-1.502 -8.6553,-5.2897c-1.0149,-3.7877 1.1186,-7.7058 4.8508,-8.9086l13.8367,-4.4591z"/>
  <path id="svg_22" fill="url(#paint21_linear_1340_94)" d="m46.5794,93.3443c-0.9723,4.5208 -5.531,7.3067 -9.9976,6.1101c-4.4666,-1.1969 -7.0215,-5.889 -5.6032,-10.2903l4.4592,-13.8367c1.2027,-3.7322 5.1209,-5.8657 8.9086,-4.8508c3.7876,1.0149 6.1141,4.8216 5.2896,8.6552l-3.0566,14.2125z"/>
  <path id="svg_23" fill-opacity="0.46" fill="url(#paint22_linear_1340_94)" d="m46.5794,93.3443c-0.9723,4.5208 -5.531,7.3067 -9.9976,6.1101c-4.4666,-1.1969 -7.0215,-5.889 -5.6032,-10.2903l4.4592,-13.8367c1.2027,-3.7322 5.1209,-5.8657 8.9086,-4.8508c3.7876,1.0149 6.1141,4.8216 5.2896,8.6552l-3.0566,14.2125z"/>
  <path id="svg_24" fill-opacity="0.66" fill="url(#paint23_linear_1340_94)" d="m46.5794,93.3443c-0.9723,4.5208 -5.531,7.3067 -9.9976,6.1101c-4.4666,-1.1969 -7.0215,-5.889 -5.6032,-10.2903l4.4592,-13.8367c1.2027,-3.7322 5.1209,-5.8657 8.9086,-4.8508c3.7876,1.0149 6.1141,4.8216 5.2896,8.6552l-3.0566,14.2125z"/>
  <path id="svg_25" fill-opacity="0.67" fill="url(#paint24_linear_1340_94)" d="m46.5794,93.3443c-0.9723,4.5208 -5.531,7.3067 -9.9976,6.1101c-4.4666,-1.1969 -7.0215,-5.889 -5.6032,-10.2903l4.4592,-13.8367c1.2027,-3.7322 5.1209,-5.8657 8.9086,-4.8508c3.7876,1.0149 6.1141,4.8216 5.2896,8.6552l-3.0566,14.2125z"/>
  <path id="svg_26" fill="url(#paint25_linear_1340_94)" d="m46.5794,93.3443c-0.9723,4.5208 -5.531,7.3067 -9.9976,6.1101c-4.4666,-1.1969 -7.0215,-5.889 -5.6032,-10.2903l4.4592,-13.8367c1.2027,-3.7322 5.1209,-5.8657 8.9086,-4.8508c3.7876,1.0149 6.1141,4.8216 5.2896,8.6552l-3.0566,14.2125z"/>
  <path id="svg_27" fill-opacity="0.94" fill="url(#paint26_radial_1340_94)" d="m46.5794,93.3443c-0.9723,4.5208 -5.531,7.3067 -9.9976,6.1101c-4.4666,-1.1969 -7.0215,-5.889 -5.6032,-10.2903l4.4592,-13.8367c1.2027,-3.7322 5.1209,-5.8657 8.9086,-4.8508c3.7876,1.0149 6.1141,4.8216 5.2896,8.6552l-3.0566,14.2125z"/>
  <path id="svg_28" fill-opacity="0.1" fill="url(#paint27_radial_1340_94)" d="m46.5794,93.3443c-0.9723,4.5208 -5.531,7.3067 -9.9976,6.1101c-4.4666,-1.1969 -7.0215,-5.889 -5.6032,-10.2903l4.4592,-13.8367c1.2027,-3.7322 5.1209,-5.8657 8.9086,-4.8508c3.7876,1.0149 6.1141,4.8216 5.2896,8.6552l-3.0566,14.2125z"/>
 </g>
</svg>