<?xml version="1.0" standalone="yes"?>
<svg xmlns="http://www.w3.org/2000/svg" width="224" height="224">
<path style="fill:#ed3531; stroke:none;" d="M126 131L68 131C68 123.732 64.3388 101.868 69.6034 96.6034C72.0293 94.1775 76.8992 95.0002 80 95L107 95L181 95C193.506 95 207.803 93.0961 220 96C219.998 77.8931 210.361 59.1205 199.498 45C154.987 -12.861 65.2217 -11.262 21.8287 47C14.3552 57.0343 7.15829 69.6524 4.3858 82C-7.10947 133.195 12.8685 191.337 64 212.911C78.6029 219.073 92.2751 221.884 108 223.715C111.772 224.153 122.373 224.681 124.972 221.397C128.573 216.848 126 202.659 126 197L126 131z"/>
<path style="fill:#ed3531; stroke:none;" d="M168 131L168 208C193.214 193.314 219.915 161.857 220 131L168 131z"/>
</svg>
