<svg xmlns="http://www.w3.org/2000/svg" viewBox="0 0 800 800" width="256" height="256" role="img">
  <title>Dynatrace</title>
  <!-- Wordmark and icon derived from Dynatrace marketing/site SVG structure (multicolor mark + logotype). -->
  <g transform="translate(0 329)">
    <g fill="#242424">
      <path d="m578.6 37.2h-18.4c-5.2 0-8.8 1-11 3.2-2.2 2.1-3.3 5.8-3.3 10.8v63.6h-11v-64.4c.1-4.9.9-10.2 3.5-14.2 4.7-7.5 13.7-8.9 20.4-8.9h19.9v9.9z"/>
      <path d="m507.6 104.8c-5.2 0-8.8-1-11-3.2-2.2-2.1-3.3-5.6-3.3-10.6v-53.8h23.1v-9.9h-23.1v-26.3h-11v90.6c.1 4.9.9 10.2 3.5 14.2 4.7 7.5 13.7 8.9 20.4 8.9h19.9v-9.9z"/>
      <path d="m219.3 1v26.2h-23.1c-14 0-22.5 4.2-27.8 9.3-8.1 7.9-8.1 19.2-8.1 20.4v28.2c0 1.2 0 12.5 8.1 20.4 5.2 5.1 13.7 9.3 27.8 9.3h10.3c6.7 0 15.7-1.5 20.4-8.9 2.5-4 3.4-9.3 3.5-14.2v-90.7zm-3.3 100.7c-2.2 2.1-5.8 3.2-11 3.2h-10c-9.1 0-14.8-2.6-18.2-6-4.1-4-5.5-9.3-5.5-13.4v-28.9c0-4.1 1.4-9.4 5.5-13.4 3.5-3.4 9.1-6 18.2-6h24.2v53.9c.1 4.9-1 8.4-3.2 10.6z"/>
      <path d="m678.2 43.2c3.5-3.4 9.1-6 18.2-6h26.5v-9.9h-25.4c-14 0-22.5 4.2-27.8 9.3-8.1 7.9-8.1 19.2-8.1 20.4v28.2c0 1.2 0 12.5 8.1 20.4 5.2 5.1 13.7 9.3 27.8 9.3h25.4v-9.9h-26.5c-9.1 0-14.8-2.6-18.2-6-4.1-4-5.5-9.3-5.5-13.4v-29c0-4.1 1.4-9.5 5.5-13.4z"/>
      <path d="m470.9 56.9c0-1.2 0-12.5-8.1-20.4-5.2-5.1-13.7-9.3-27.8-9.3h-24.5v9.9h25.6c9.1 0 14.8 2.6 18.2 6 4.1 4 5.5 9.3 5.5 13.4v8.5h-35.1c-6.7 0-15.7 1.5-20.4 8.9-2.5 4-3.4 9.3-3.5 14.2v3.5c.1 4.9.9 10.2 3.5 14.2 4.7 7.5 13.7 8.9 20.4 8.9h22.3c6.7 0 15.7-1.5 20.4-8.9 2.5-4 3.4-9.3 3.5-14.2 0 0 0-29 0-34.7zm-14.3 44.8c-2.2 2.1-5.8 3.2-11 3.2h-19.4c-5.2 0-8.8-1-11-3.2s-3.2-5.7-3.2-10.6v-2.4c0-5 1.1-8.5 3.3-10.6s5.8-3.2 11-3.2h33.6v16.2c0 4.9-1.1 8.4-3.3 10.6z"/>
      <path d="m652.9 56.9c0-1.2 0-12.5-8.1-20.4-5.2-5.1-13.7-9.3-27.8-9.3h-24.5v9.9h25.6c9.1 0 14.8 2.6 18.2 6 4.1 4 5.5 9.3 5.5 13.4v8.5h-35.1c-6.7 0-15.7 1.5-20.4 8.9-2.5 4-3.4 9.3-3.5 14.2v3.5c.1 4.9.9 10.2 3.5 14.2 4.7 7.5 13.7 8.9 20.4 8.9h22.3c6.7 0 15.7-1.5 20.4-8.9 2.5-4 3.4-9.3 3.5-14.2 0 0 0-29 0-34.7zm-14.3 44.8c-2.2 2.1-5.8 3.2-11 3.2h-19.4c-5.2 0-8.8-1-11-3.2s-3.2-5.7-3.2-10.6v-2.4c0-5 1.1-8.5 3.3-10.6s5.8-3.2 11-3.2h33.6v16.2c0 4.9-1.1 8.4-3.3 10.6z"/>
      <path d="m317.8 27.2h-11.5l-27.9 72.6-27.9-72.6h-11.4l33.6 87.5-10.1 26.3h11.5z"/>
      <path d="m392.2 56.9c0-1.2 0-12.5-8-20.4-5.1-5-13.2-9.1-26.4-9.3h-1.2c-13.2.2-21.3 4.3-26.4 9.3-8 7.9-8 19.2-8 20.4v57.9h11v-58.2c0-4.1 1.3-9.4 5.4-13.4 3.4-3.3 9.9-5.9 18.6-6 8.7.1 15.2 2.7 18.6 6 4 4 5.4 9.3 5.4 13.4v58.2h11c0-4.5 0-56.5 0-57.9z"/>
      <path d="m791 36.5c-5.1-5-13.2-9.1-26.4-9.3h-1.2c-13.2.2-21.3 4.3-26.4 9.3-8 7.9-8 19.2-8 20.4v28.2c0 1.2 0 12.5 8 20.4 5.1 5 13.2 9.1 26.4 9.3h26v-10h-25.4c-8.7-.1-15.2-2.7-18.6-6-4-4-5.4-9.3-5.4-13.4v-10.3h59v-18.2c.1-1.2.1-12.5-8-20.4zm-50.9 28.7v-8.6c0-4.1 1.3-9.4 5.4-13.4 3.4-3.3 9.9-5.9 18.6-6 8.7.1 15.2 2.7 18.6 6 4 4 5.4 9.3 5.4 13.4v8.6z"/>
    </g>
    <g>
      <path d="m47.7 12.7c-1.8 9.5-4 23.6-5.2 37.9-2.1 25.2-.8 42.1-.8 42.1l-35.5 33.7s-2.7-18.9-4.1-40.2c-.8-13.2-1.1-24.8-1.1-31.8 0-.4.2-.8.2-1.2 0-.5.6-5.2 5.2-9.6 5-4.8 41.9-33.7 41.3-30.9z" fill="#1496ff"/>
      <path d="m47.7 12.7c-1.8 9.5-4 23.6-5.2 37.9 0 0-39.3-4.7-41.5 4.8 0-.5.7-6.3 5.3-10.7 5-4.8 42-34.8 41.4-32z" fill="#1284ea"/>
      <path d="m1 53.1v2.2c.4-1.7 1.1-2.9 2.5-4.8 2.9-3.7 7.6-4.7 9.5-4.9 9.6-1.3 23.8-2.8 38.1-3.2 25.3-.8 42 1.3 42 1.3l35.5-33.7s-18.6-3.5-39.8-6c-13.9-1.7-26.1-2.6-33-3-.5 0-5.4-.6-10 3.8-5 4.8-30.4 28.9-40.6 38.6-4.6 4.4-4.2 9.3-4.2 9.7z" fill="#b4dc00"/>
      <path d="m127.3 96.2c-9.6 1.3-23.8 2.9-38.1 3.4-25.3.8-42.1-1.3-42.1-1.3l-35.5 33.8s18.8 3.7 40 6.1c13 1.5 24.5 2.3 31.5 2.7.5 0 1.3-.4 1.8-.4s5.4-.9 10-5.3c5-4.8 35.2-39.3 32.4-39z" fill="#6f2da8"/>
      <path d="m127.3 96.2c-9.6 1.3-23.8 2.9-38.1 3.4 0 0 2.7 39.5-6.8 41.2.5 0 7-.3 11.6-4.7 5-4.8 36.1-40.2 33.3-39.9z" fill="#591f91"/>
      <path d="m84.5 141c-.7 0-1.4-.1-2.2-.1 1.8-.3 3-.9 4.9-2.3 3.8-2.7 5-7.4 5.4-9.3 1.7-9.5 4-23.6 5.1-37.9 2-25.2.8-42 .8-42l35.5-33.8s2.6 18.8 4.1 40.1c.9 13.9 1.2 26.2 1.3 33 0 .5.4 5.4-4.2 9.8-5 4.8-30.4 29-40.5 38.7-4.8 4.4-9.7 3.8-10.2 3.8z" fill="#73be28"/>
    </g>
  </g>
</svg>
