<?xml version="1.0" standalone="no"?>
<!DOCTYPE svg PUBLIC "-//W3C//DTD SVG 20010904//EN"
 "http://www.w3.org/TR/2001/REC-SVG-20010904/DTD/svg10.dtd">
<svg version="1.0" xmlns="http://www.w3.org/2000/svg"
 width="225.000000pt" height="225.000000pt" viewBox="0 0 225.000000 225.000000"
 preserveAspectRatio="xMidYMid meet">

<g transform="translate(0.000000,225.000000) scale(0.100000,-0.100000)"
fill="#000000" stroke="none">
<path d="M386 1163 c76 -191 102 -244 129 -270 62 -58 152 -56 215 5 31 30 49
65 95 187 64 169 78 195 104 195 28 0 34 -11 100 -185 34 -88 69 -170 77 -182
20 -31 86 -63 130 -63 44 0 98 25 123 56 17 22 201 468 201 487 0 4 -28 7 -62
5 l-62 -3 -81 -200 c-44 -110 -84 -206 -88 -213 -5 -6 -19 -12 -33 -12 -29 0
-40 21 -115 224 -28 76 -55 131 -74 152 -40 42 -104 60 -158 44 -72 -21 -92
-51 -165 -240 -62 -159 -70 -175 -93 -178 -14 -2 -31 3 -36 10 -6 7 -47 103
-91 213 l-80 200 -65 3 -66 3 95 -238z"/>
<path d="M1821 1378 c-5 -13 -46 -115 -91 -228 -45 -113 -91 -226 -101 -252
l-19 -48 64 0 64 0 110 275 110 275 -64 0 c-58 0 -65 -2 -73 -22z"/>
</g>
</svg>
