<?xml version="1.0" encoding="UTF-8"?>
<svg version="1.1" xmlns="http://www.w3.org/2000/svg" width="1414" height="752">
<path d="M0 0 C466.62 0 933.24 0 1414 0 C1414 248.16 1414 496.32 1414 752 C947.38 752 480.76 752 0 752 C0 503.84 0 255.68 0 0 Z " fill="#FEFEFE" transform="translate(0,0)"/>
<path d="M0 0 C11.01244279 9.70435638 18.76460925 20.0266917 20.5703125 35.07421875 C23.36361124 92.55909951 1.5080037 149.25196878 -27.4296875 198.07421875 C-24.57536279 197.76311246 -21.72123225 197.45037449 -18.8671875 197.13671875 C-18.06732422 197.04970703 -17.26746094 196.96269531 -16.44335938 196.87304688 C-12.87454264 196.4797487 -9.32563324 196.05876625 -5.7734375 195.53125 C2.61129673 194.38520572 10.81283785 193.45868767 18.01953125 198.4921875 C21.82102157 202.37028216 23.03356544 205.81341144 23.1328125 211.19921875 C22.91871438 220.65165062 18.17430432 228.47022693 11.5703125 235.07421875 C5.38230037 240.00027492 -1.20846773 243.8759316 -8.4296875 247.07421875 C-9.22375 247.43386719 -10.0178125 247.79351562 -10.8359375 248.1640625 C-25.31743035 254.08627794 -41.01913345 254.47700648 -56.4296875 254.07421875 C-56.48793701 255.77481445 -56.48793701 255.77481445 -56.54736328 257.50976562 C-56.99983578 268.79812997 -58.1655428 279.83345522 -59.90380859 290.99316406 C-60.30857308 293.59923602 -60.69618929 296.20747235 -61.08203125 298.81640625 C-64.1342455 319.07595824 -68.37212014 338.14339603 -85.51171875 351.16015625 C-103.44424461 362.92312502 -124.4028852 366.847251 -145.58056641 363.76074219 C-156.80094033 361.38865989 -167.6567315 353.36059307 -173.8984375 343.83203125 C-180.94603571 330.72521751 -182.38666485 316.63674757 -183.4296875 302.07421875 C-183.48753418 301.30529297 -183.54538086 300.53636719 -183.60498047 299.74414062 C-184.47538588 287.85290474 -184.54165527 275.99256592 -184.4296875 264.07421875 C-185.38230469 264.35136719 -186.33492187 264.62851562 -187.31640625 264.9140625 C-188.57066406 265.27628906 -189.82492188 265.63851563 -191.1171875 266.01171875 C-192.35855469 266.37136719 -193.59992188 266.73101562 -194.87890625 267.1015625 C-209.71991331 271.16692087 -226.53725063 270.49214514 -240.4375 263.578125 C-244.30079513 261.31984315 -247.87056777 258.78172066 -251.4296875 256.07421875 C-252.31720703 256.68910156 -252.31720703 256.68910156 -253.22265625 257.31640625 C-254.01285156 257.85523438 -254.80304688 258.3940625 -255.6171875 258.94921875 C-256.39449219 259.48289062 -257.17179687 260.0165625 -257.97265625 260.56640625 C-265.21032291 265.00796322 -273.16332768 265.21046748 -281.4296875 264.07421875 C-296.62831399 259.43166501 -305.68552179 247.09749701 -313.4296875 234.07421875 C-313.99985596 233.11563965 -313.99985596 233.11563965 -314.58154297 232.13769531 C-336.49935206 194.53985708 -347.72512561 147.72309488 -355.4296875 105.07421875 C-355.67307861 103.78789551 -355.67307861 103.78789551 -355.92138672 102.47558594 C-358.18607879 90.19623389 -358.73222595 78.02848364 -358.8046875 65.57421875 C-358.81660629 64.49929169 -358.81660629 64.49929169 -358.82876587 63.40264893 C-359.02899482 39.95062282 -352.59046101 16.60851188 -336.4296875 -0.92578125 C-319.26549221 -18.28726614 -297.76374923 -23.9746678 -273.8671875 -24.30078125 C-255.76564274 -24.29118921 -237.29596833 -22.05751462 -220.01977539 -16.5012207 C-214.722594 -14.81361723 -210.08326473 -13.94283097 -204.76171875 -15.9140625 C-203.93027344 -16.35105469 -203.09882813 -16.78804687 -202.2421875 -17.23828125 C-196.44756064 -20.04443434 -190.72230328 -21.64202827 -184.4296875 -22.92578125 C-183.63038818 -23.0964209 -182.83108887 -23.26706055 -182.00756836 -23.44287109 C-175.27842343 -24.79290017 -168.84666584 -25.24038628 -161.9921875 -25.17578125 C-160.48168823 -25.16998047 -160.48168823 -25.16998047 -158.94067383 -25.1640625 C-152.78021204 -25.09231915 -146.94314523 -24.58334882 -140.890625 -23.38671875 C-132.83647157 -21.87816303 -125.77152449 -23.42904985 -117.9284668 -25.35302734 C-76.6172015 -35.47944056 -32.49901949 -27.98273239 0 0 Z " fill="#F8FAFB" transform="translate(407.4296875,187.92578125)"/>
<path d="M0 0 C17.77854241 12.93030624 38.11407605 34.93913508 41.8125 57.3125 C41.20889648 57.31660889 40.60529297 57.32071777 39.98339844 57.32495117 C19.88392817 57.49781753 19.88392817 57.49781753 2.8125 67.3125 C1.23067115 69.5201068 1.23067115 69.5201068 0.0625 71.875 C-0.54851562 73.02162109 -0.54851562 73.02162109 -1.171875 74.19140625 C-7.26373065 86.91401246 -2.25504611 103.54548952 2.1328125 116.0859375 C5.73331332 125.47084949 10.15077305 134.41662062 14.8125 143.3125 C15.37743164 144.39450684 15.94236328 145.47651367 16.52441406 146.59130859 C18.1353244 149.67154364 19.75698372 152.74595738 21.38479614 155.81729126 C22.03521661 157.04574744 22.68377509 158.27519162 23.33029175 159.50570679 C26.93137163 166.34774686 30.67481076 172.87538718 35.24975586 179.11572266 C36.90667702 181.44488632 38.37034531 183.84573493 39.8125 186.3125 C39.20921875 186.68761719 38.6059375 187.06273437 37.984375 187.44921875 C32.07627627 191.23230778 27.67805696 194.74992913 24.8125 201.3125 C24.36316423 203.64808123 24.36316423 203.64808123 24.171875 206.21875 C24.07398682 207.24709961 23.97609863 208.27544922 23.87524414 209.33496094 C23.77203857 210.48254883 23.66883301 211.63013672 23.5625 212.8125 C23.30877464 215.41177152 23.0525761 218.0106935 22.79296875 220.609375 C22.68492165 221.69801849 22.68492165 221.69801849 22.57469177 222.80865479 C21.54759048 233.08007063 20.41791939 243.34020791 19.26257324 253.59790039 C19.00686264 255.88375186 18.75506837 258.17004529 18.50744629 260.45678711 C13.5805133 305.89756608 13.5805133 305.89756608 0.8125 316.3125 C-7.44498944 321.59625397 -16.32832238 325.64480353 -26.1875 326.3125 C-27.24710937 326.40402344 -28.30671875 326.49554687 -29.3984375 326.58984375 C-38.16430553 327.00872556 -44.57666879 325.39131222 -51.21875 319.515625 C-55.49521004 314.98547665 -58.04234008 310.11959957 -60.1875 304.3125 C-60.7753125 302.765625 -60.7753125 302.765625 -61.375 301.1875 C-63.01592046 295.38116607 -63.40288605 289.404877 -63.73901367 283.40234375 C-63.78111812 282.66435043 -63.82322256 281.92635712 -63.8666029 281.16600037 C-64.24219418 274.11428185 -64.33753567 267.07210369 -64.35616493 260.01165771 C-64.36610062 257.02849203 -64.39196815 254.04551461 -64.41648388 251.06243896 C-64.46151189 245.55417684 -64.49991044 240.04603517 -64.51342773 234.53759766 C-64.5235533 230.65980963 -64.55295233 226.78256939 -64.59474754 222.90499878 C-64.6069554 221.44436799 -64.61219773 219.98365981 -64.60994911 218.52297974 C-64.59863257 208.79579204 -65.85808253 201.86152912 -70.875 193.5 C-75.60732141 189.02347975 -81.76482569 186.97123583 -88.1875 186.3125 C-86.89997551 179.72301569 -84.97506971 173.86463899 -82.375 167.6875 C-78.95199378 159.33800388 -75.71509373 150.98273432 -73.1875 142.3125 C-73.00131104 141.6922998 -72.81512207 141.07209961 -72.62329102 140.43310547 C-70.66019384 133.00493431 -70.83680726 125.43806066 -70.875 117.8125 C-70.87615814 117.10140076 -70.87731628 116.39030151 -70.87850952 115.65765381 C-70.91311067 104.93371525 -71.5143798 94.7450941 -74.1875 84.3125 C-74.4040625 83.33925781 -74.620625 82.36601562 -74.84375 81.36328125 C-76.58050206 74.44728646 -79.5091567 68.64850949 -85.66015625 64.7421875 C-97.18823386 58.79987946 -110.03997083 58.7978362 -122.42578125 62.3125 C-126.17453331 63.6698982 -129.6481796 65.3866714 -133.12890625 67.32421875 C-135.1875 68.3125 -135.1875 68.3125 -138.1875 68.3125 C-135.40449449 41.10495925 -128.30490102 12.62447303 -106.60546875 -5.890625 C-104.19382458 -7.63764282 -101.76428742 -9.19632254 -99.1875 -10.6875 C-97.98673828 -11.39132813 -97.98673828 -11.39132813 -96.76171875 -12.109375 C-90.50895842 -15.50002654 -84.1224514 -17.23577043 -77.1875 -18.6875 C-76.03314453 -18.96787109 -76.03314453 -18.96787109 -74.85546875 -19.25390625 C-48.71882274 -23.50158957 -21.35105266 -14.89151007 0 0 Z " fill="#3A608A" transform="translate(309.1875,204.6875)"/>
<path d="M0 0 C-1.54480784 3.48592763 -3.65907487 6.11650271 -6.0625 9.0625 C-14.38406372 19.84946069 -19.57287529 32.49875448 -23.375 45.5 C-23.60147217 46.26820068 -23.82794434 47.03640137 -24.0612793 47.82788086 C-24.79780047 50.53842269 -25.41560743 53.25230331 -26 56 C-26.13296478 56.6216806 -26.26592957 57.24336121 -26.40292358 57.88388062 C-29.4139385 72.51503341 -29.2916141 86.93252411 -29.0625 101.8125 C-28.6851862 129.23506025 -28.6851862 129.23506025 -30.52368164 139.2355957 C-33.03447037 153.80743617 -29.50562989 169.899398 -21 182 C-18.13575186 185.47366264 -15.14441194 188.77872465 -12 192 C-16.74136442 198.77337774 -22.23900195 204.66153489 -27.88671875 210.671875 C-30.76799878 213.7390717 -33.55803481 216.8732802 -36.3125 220.0546875 C-38.4420268 222.50955867 -40.59093724 224.94605439 -42.75 227.375 C-43.48734375 228.20773437 -44.2246875 229.04046875 -44.984375 229.8984375 C-47.24978792 232.26043779 -48.96829446 233.84728627 -52.26953125 234.3359375 C-59.28988769 234.44377708 -62.61632866 233.16630487 -67.82421875 228.29296875 C-74.44326317 221.49186809 -78.72004221 213.37811891 -83 205 C-83.32436035 204.37673828 -83.6487207 203.75347656 -83.98291016 203.11132812 C-99.1676556 173.38665811 -107.28506323 138.25395337 -113.8125 105.75 C-113.96006744 105.01537537 -114.10763489 104.28075073 -114.25967407 103.52386475 C-116.96500729 89.94704692 -119.38882006 76.52078205 -119.3125 62.625 C-119.30758545 61.54645752 -119.3026709 60.46791504 -119.29760742 59.35668945 C-119.01947276 40.27094636 -114.23909323 21.59326388 -100.875 7.3125 C-74.11917976 -18.13705965 -31.71020615 -10.32023073 0 0 Z " fill="#3A608A" transform="translate(190,195)"/>
<path d="M0 0 C11.01244279 9.70435638 18.76460925 20.0266917 20.5703125 35.07421875 C23.36361124 92.55909951 1.5080037 149.25196878 -27.4296875 198.07421875 C-24.57536279 197.76311246 -21.72123225 197.45037449 -18.8671875 197.13671875 C-18.06732422 197.04970703 -17.26746094 196.96269531 -16.44335938 196.87304688 C-12.87454264 196.4797487 -9.32563324 196.05876625 -5.7734375 195.53125 C2.61129673 194.38520572 10.81283785 193.45868767 18.01953125 198.4921875 C21.82102157 202.37028216 23.03356544 205.81341144 23.1328125 211.19921875 C22.91871438 220.65165062 18.17430432 228.47022693 11.5703125 235.07421875 C5.38230037 240.00027492 -1.20846773 243.8759316 -8.4296875 247.07421875 C-9.22375 247.43386719 -10.0178125 247.79351562 -10.8359375 248.1640625 C-25.31743035 254.08627794 -41.01913345 254.47700648 -56.4296875 254.07421875 C-56.48793701 255.77481445 -56.48793701 255.77481445 -56.54736328 257.50976562 C-56.99983578 268.79812997 -58.1655428 279.83345522 -59.90380859 290.99316406 C-60.30857308 293.59923602 -60.69618929 296.20747235 -61.08203125 298.81640625 C-64.1342455 319.07595824 -68.37212014 338.14339603 -85.51171875 351.16015625 C-103.44424461 362.92312502 -124.4028852 366.847251 -145.58056641 363.76074219 C-156.80094033 361.38865989 -167.6567315 353.36059307 -173.8984375 343.83203125 C-180.94603571 330.72521751 -182.38666485 316.63674757 -183.4296875 302.07421875 C-183.48753418 301.30529297 -183.54538086 300.53636719 -183.60498047 299.74414062 C-184.47538588 287.85290474 -184.54165527 275.99256592 -184.4296875 264.07421875 C-185.38230469 264.35136719 -186.33492187 264.62851562 -187.31640625 264.9140625 C-188.57066406 265.27628906 -189.82492188 265.63851563 -191.1171875 266.01171875 C-192.35855469 266.37136719 -193.59992188 266.73101562 -194.87890625 267.1015625 C-209.71991331 271.16692087 -226.53725063 270.49214514 -240.4375 263.578125 C-244.30079513 261.31984315 -247.87056777 258.78172066 -251.4296875 256.07421875 C-252.31720703 256.68910156 -252.31720703 256.68910156 -253.22265625 257.31640625 C-254.01285156 257.85523438 -254.80304688 258.3940625 -255.6171875 258.94921875 C-256.39449219 259.48289062 -257.17179687 260.0165625 -257.97265625 260.56640625 C-265.21032291 265.00796322 -273.16332768 265.21046748 -281.4296875 264.07421875 C-296.62831399 259.43166501 -305.68552179 247.09749701 -313.4296875 234.07421875 C-313.99985596 233.11563965 -313.99985596 233.11563965 -314.58154297 232.13769531 C-336.49935206 194.53985708 -347.72512561 147.72309488 -355.4296875 105.07421875 C-355.67307861 103.78789551 -355.67307861 103.78789551 -355.92138672 102.47558594 C-358.18607879 90.19623389 -358.73222595 78.02848364 -358.8046875 65.57421875 C-358.81660629 64.49929169 -358.81660629 64.49929169 -358.82876587 63.40264893 C-359.02899482 39.95062282 -352.59046101 16.60851188 -336.4296875 -0.92578125 C-319.26549221 -18.28726614 -297.76374923 -23.9746678 -273.8671875 -24.30078125 C-255.76564274 -24.29118921 -237.29596833 -22.05751462 -220.01977539 -16.5012207 C-214.722594 -14.81361723 -210.08326473 -13.94283097 -204.76171875 -15.9140625 C-203.93027344 -16.35105469 -203.09882813 -16.78804687 -202.2421875 -17.23828125 C-196.44756064 -20.04443434 -190.72230328 -21.64202827 -184.4296875 -22.92578125 C-183.63038818 -23.0964209 -182.83108887 -23.26706055 -182.00756836 -23.44287109 C-175.27842343 -24.79290017 -168.84666584 -25.24038628 -161.9921875 -25.17578125 C-160.48168823 -25.16998047 -160.48168823 -25.16998047 -158.94067383 -25.1640625 C-152.78021204 -25.09231915 -146.94314523 -24.58334882 -140.890625 -23.38671875 C-132.83647157 -21.87816303 -125.77152449 -23.42904985 -117.9284668 -25.35302734 C-76.6172015 -35.47944056 -32.49901949 -27.98273239 0 0 Z M-123.50854492 -12.33569336 C-127.57680912 -11.23459894 -130.93294844 -10.73128586 -135.1171875 -11.23828125 C-136.00792969 -11.33753906 -136.89867187 -11.43679687 -137.81640625 -11.5390625 C-140.4296875 -11.92578125 -140.4296875 -11.92578125 -142.70336914 -12.43505859 C-160.87069516 -15.70507966 -182.25363463 -14.38854092 -198.4296875 -5.11328125 C-202.93338123 -2.53419556 -205.71150931 -1.03821229 -210.84375 -2.140625 C-212.12378906 -2.52927734 -212.12378906 -2.52927734 -213.4296875 -2.92578125 C-214.59242188 -3.27769531 -215.75515625 -3.62960938 -216.953125 -3.9921875 C-217.60958008 -4.19207275 -218.26603516 -4.39195801 -218.94238281 -4.59790039 C-247.96821722 -13.39757256 -282.29115364 -17.64473923 -310.7421875 -4.86328125 C-326.01842802 3.35428262 -336.51050437 16.87344874 -342.4296875 33.07421875 C-345.0483314 42.12579483 -347.11870237 51.64100303 -347.4296875 61.07421875 C-347.45546875 61.74582031 -347.48125 62.41742188 -347.5078125 63.109375 C-348.38373401 88.99285553 -342.02562035 113.9664044 -336.4296875 139.07421875 C-336.18379883 140.18200684 -335.93791016 141.28979492 -335.68457031 142.43115234 C-329.72721072 168.63373919 -320.91640943 196.23118844 -308.4296875 220.07421875 C-308.07487305 220.75371582 -307.72005859 221.43321289 -307.35449219 222.13330078 C-301.46636925 233.1570287 -293.45822836 245.80287186 -281.80859375 251.3671875 C-274.7270743 253.47187555 -267.21966748 252.97046296 -260.640625 249.5859375 C-253.19339772 244.49392874 -247.63488894 237.20684588 -242.06640625 230.21875 C-238.1530608 225.44205116 -233.82986271 221.0213016 -229.56958008 216.55615234 C-228.94849365 215.90340332 -228.32740723 215.2506543 -227.6875 214.578125 C-226.85436279 213.70909546 -226.85436279 213.70909546 -226.00439453 212.82250977 C-224.35132116 210.98721388 -222.88264985 209.07033181 -221.4296875 207.07421875 C-218.72820421 207.69901114 -216.41265878 208.47752324 -213.8046875 209.51171875 C-209.12885867 211.31147173 -204.35289571 212.21669273 -199.4296875 213.07421875 C-206.50714977 223.75522408 -215.22455499 226.77106238 -227.45898438 229.3984375 C-233.00449764 230.69151453 -237.21371368 232.85824493 -241.3046875 236.94921875 C-242.85479333 239.87719642 -242.83059071 241.80017586 -242.4296875 245.07421875 C-241.03416101 249.16111774 -238.71243207 250.71002325 -235.0546875 252.69921875 C-219.78553963 259.71417509 -203.00187868 260.04963803 -187.3046875 254.32421875 C-183.85910843 253.01275267 -181.18332463 251.20241006 -178.26611328 248.98730469 C-177.54722931 248.44297791 -176.82834534 247.89865112 -176.087677 247.33782959 C-175.2669722 246.71234222 -175.2669722 246.71234222 -174.4296875 246.07421875 C-174.40685196 246.71742569 -174.38401642 247.36063263 -174.36048889 248.02333069 C-174.1198131 254.78949996 -173.87586921 261.55554609 -173.63012695 268.3215332 C-173.53913935 270.83810531 -173.4489524 273.35470651 -173.35961914 275.87133789 C-173.93244217 311.93408006 -173.93244217 311.93408006 -158.4296875 343.07421875 C-149.62991943 350.08579865 -142.16054606 353.65121073 -130.8671875 353.51171875 C-129.99239746 353.50342041 -129.11760742 353.49512207 -128.21630859 353.48657227 C-113.25840118 353.10272094 -97.64819053 348.17343974 -86.4296875 337.94921875 C-76.64605301 327.23813935 -74.07894181 312.87082111 -72.015625 299.0078125 C-71.88588791 298.13832977 -71.75615082 297.26884705 -71.6224823 296.37301636 C-70.30107196 287.39144327 -69.15764258 278.39011236 -68.06713867 269.37792969 C-67.7363491 266.65109035 -67.39862408 263.92516315 -67.06054688 261.19921875 C-66.84594321 259.44145638 -66.63173506 257.68364565 -66.41796875 255.92578125 C-66.31801102 255.1226651 -66.21805328 254.31954895 -66.11506653 253.49209595 C-65.61643269 249.32392026 -65.3234634 245.2820365 -65.4296875 241.07421875 C-64.87297363 241.2343042 -64.31625977 241.39438965 -63.74267578 241.55932617 C-43.7057372 246.01973397 -19.67859441 240.85033079 -2.4296875 230.07421875 C2.58588139 226.4133506 7.11476739 222.25753642 10.5703125 217.07421875 C11.12427665 213.50582628 11.31829267 210.17837995 9.2578125 207.13671875 C2.97637834 203.18174168 -5.7042454 204.86036466 -12.6171875 206.07421875 C-23.22870533 207.84491302 -34.0258483 208.04674424 -44.4296875 205.07421875 C-44.02878906 204.39359375 -43.62789063 203.71296875 -43.21484375 203.01171875 C-41.27585553 199.70532614 -39.35060463 196.39112564 -37.4296875 193.07421875 C-37.08728027 192.48543945 -36.74487305 191.89666016 -36.39208984 191.29003906 C-15.21131837 154.75098028 1.3465157 115.04726381 7.5703125 73.07421875 C7.7453833 71.96763916 7.9204541 70.86105957 8.10083008 69.72094727 C8.80624871 64.24157224 8.79442018 58.79676671 8.81054688 53.27807617 C8.8202382 51.27705946 8.85144287 49.2761849 8.8828125 47.27539062 C8.93136006 35.13243208 6.8760252 26.76508701 -0.4296875 17.07421875 C-1.5125 15.58921875 -1.5125 15.58921875 -2.6171875 14.07421875 C-17.52604359 -3.12097948 -42.03624476 -14.27850083 -64.4296875 -16.92578125 C-70.40200078 -17.31774541 -76.38454491 -17.3129321 -82.3671875 -17.30078125 C-83.18617523 -17.30156677 -84.00516296 -17.30235229 -84.84896851 -17.30316162 C-98.24275301 -17.28776515 -110.59564899 -16.00104503 -123.50854492 -12.33569336 Z " fill="#151E26" transform="translate(407.4296875,187.92578125)"/>
<path d="M0 0 C9.25713985 8.06775501 15.89895562 14.71008283 17.5234375 27.19921875 C18.15286919 36.93639204 17.72101625 46.61946929 16.2734375 56.26171875 C16.16418945 56.9902002 16.05494141 57.71868164 15.94238281 58.46923828 C13.53583615 73.1201175 9.86580118 87.26111567 4.9609375 101.26171875 C4.56985306 102.38933624 4.56985306 102.38933624 4.17086792 103.53973389 C-2.32529296 122.21862568 -10.19707163 140.04072112 -19.2265625 157.63671875 C-20.00471313 159.15579834 -20.00471313 159.15579834 -20.79858398 160.70556641 C-24.22896602 167.23729271 -28.10255483 173.25945963 -32.4765625 179.19921875 C-33.1365625 178.20921875 -33.7965625 177.21921875 -34.4765625 176.19921875 C-33.68359375 173.73828125 -33.68359375 173.73828125 -32.2890625 170.82421875 C-25.75725408 155.90456891 -25.22551764 141.32217302 -27.4765625 125.38671875 C-29.24747637 112.64878825 -29.08232371 99.82311764 -27.4765625 87.07421875 C-25.54292283 71.34856258 -25.21196624 58.53846185 -32.4765625 44.19921875 C-33.06305418 42.96640932 -33.64898708 41.73333392 -34.234375 40.5 C-46.99141558 14.4648758 -67.64316728 -3.65290946 -92.4765625 -17.80078125 C-72.53133942 -37.74600433 -17.05677876 -14.12430418 0 0 Z " fill="#3B6089" transform="translate(388.4765625,202.80078125)"/>
<path d="M0 0 C7.17912456 5.34915163 8.50317495 11.96334115 10.1875 20.375 C10.39503906 21.38046875 10.60257813 22.3859375 10.81640625 23.421875 C15.28158009 49.02636836 10.38335127 70.55833635 0.08984375 93.953125 C-2.54613385 99.97595839 -4.70081936 106.15163349 -6.8125 112.375 C-16.69325973 113.10690813 -24.17908507 109.54501928 -31.71484375 103.28515625 C-39.81434436 95.90963335 -46.57015903 86.57381645 -47.8125 75.375 C-48.31634195 62.44747621 -48.31634195 62.44747621 -47.29980469 56.24853516 C-46.71767434 51.62124051 -46.7706159 47.15077619 -46.84765625 42.49609375 C-46.85368186 40.58659527 -46.85685104 38.67708602 -46.85742188 36.76757812 C-46.85914424 33.78174389 -46.87526994 30.79989681 -46.93920898 27.81469727 C-47.26912183 11.16710362 -47.26912183 11.16710362 -43.70410156 6.78100586 C-41.09006603 5.1845944 -38.74744098 4.22161214 -35.8125 3.375 C-34.81476563 2.90449219 -33.81703125 2.43398438 -32.7890625 1.94921875 C-32.01304687 1.65660156 -31.23703125 1.36398437 -30.4375 1.0625 C-29.64601562 0.75699219 -28.85453125 0.45148438 -28.0390625 0.13671875 C-19.92695598 -2.63847558 -8.01229017 -3.66406438 0 0 Z " fill="#3B6089" transform="translate(216.8125,276.625)"/>
<path d="M0 0 C1.875 1.9375 1.875 1.9375 3.875 4.9375 C4.205 1.9675 4.535 -1.0025 4.875 -4.0625 C7.845 -4.0625 10.815 -4.0625 13.875 -4.0625 C13.96827392 4.44863968 14.03905248 12.95956066 14.08224869 21.47108746 C14.10299585 25.42467679 14.13107296 29.37791277 14.17675781 33.33129883 C14.22068168 37.1568676 14.24423347 40.98209963 14.25450897 44.80790138 C14.26181795 46.25694889 14.2760868 47.70598099 14.29792023 49.15488243 C14.45252653 59.85445114 14.08901701 71.46675713 6.8125 80 C-2.42401352 88.02223049 -15.53119558 88.46702472 -27.125 87.9375 C-34.92076315 87.10563503 -41.14762178 84.1499344 -46.5 78.375 C-49.47656297 73.91015555 -50.37382355 71.41161818 -50.125 65.9375 C-47.155 65.9375 -44.185 65.9375 -41.125 65.9375 C-40.733125 67.175 -40.34125 68.4125 -39.9375 69.6875 C-38.45550669 73.65587071 -36.78150816 75.6521824 -33.125 77.9375 C-29.03518766 79.30077078 -25.22150477 79.16135809 -20.9375 79.1875 C-20.11185547 79.208125 -19.28621094 79.22875 -18.43554688 79.25 C-11.31183437 79.29490914 -5.58092656 78.28664714 -0.25 73.1875 C4.81441927 65.44191759 4.10023068 57.95924019 3.875 48.9375 C3.215 49.68 2.555 50.4225 1.875 51.1875 C-5.31787535 58.40086788 -14.33890028 59.32812992 -24.05395508 59.390625 C-33.43668084 59.19489669 -40.63871902 55.90475459 -47.1875 49.125 C-52.77638924 42.68284523 -53.68723648 34.20182224 -53.625 26 C-53.61927979 25.12190674 -53.61355957 24.24381348 -53.60766602 23.33911133 C-53.3610453 14.40014821 -50.81395196 8.65583828 -44.8125 2.0625 C-32.64180453 -9.15570626 -13.49156027 -8.90442978 0 0 Z " fill="#29313A" transform="translate(768.125,334.0625)"/>
<path d="M0 0 C8.724375 -0.061875 17.44875 -0.12375 26.4375 -0.1875 C30.54336548 -0.22846802 30.54336548 -0.22846802 34.73217773 -0.27026367 C36.92431193 -0.27903316 39.11645105 -0.286676 41.30859375 -0.29296875 C42.42850708 -0.30831665 43.54842041 -0.32366455 44.70227051 -0.33947754 C54.1799241 -0.3426148 62.97508699 1.16683399 70 8 C75.10262559 13.47724874 75.4510844 19.40704354 75.5 26.5625 C75.50636475 27.36574707 75.51272949 28.16899414 75.51928711 28.99658203 C75.36459632 36.28872079 73.6646964 43.01577559 68.66015625 48.6171875 C63.44138344 52.96411827 56.42106058 56.13301163 49.62036133 56.11352539 C48.73967484 56.11344986 47.85898834 56.11337433 46.95161438 56.11329651 C46.00465195 56.10813522 45.05768951 56.10297394 44.08203125 56.09765625 C43.10965012 56.0962413 42.13726898 56.09482635 41.13542175 56.09336853 C38.02774996 56.08776817 34.92015004 56.07521562 31.8125 56.0625 C29.70638125 56.05748505 27.60026137 56.05292213 25.49414062 56.04882812 C20.32937707 56.03864925 15.16476906 56.01907383 10 56 C10 69.53 10 83.06 10 97 C6.7 97 3.4 97 0 97 C0 64.99 0 32.98 0 0 Z " fill="#29313B" transform="translate(460,297)"/>
<path d="M0 0 C11.35675507 10.19394739 17.1963355 25.67874806 18.10546875 40.625 C18.80625606 58.23245823 15.90408093 74.04191304 4.7265625 88.1796875 C3.41657472 89.5359646 2.08931829 90.8764407 0.7265625 92.1796875 C1.79726377 95.3917913 2.3173115 95.91134214 4.88671875 97.87890625 C5.8293457 98.60883789 5.8293457 98.60883789 6.79101562 99.35351562 C7.45037109 99.85302734 8.10972656 100.35253906 8.7890625 100.8671875 C9.45228516 101.37830078 10.11550781 101.88941406 10.79882812 102.41601562 C12.4366456 103.67678159 14.08099387 104.92905534 15.7265625 106.1796875 C14.28827704 110.08638179 12.84085462 112.37682459 9.7265625 115.1796875 C6.85154934 113.85905457 4.62884562 112.38539237 2.265625 110.2890625 C1.62882812 109.74507813 0.99203125 109.20109375 0.3359375 108.640625 C-0.99028741 107.49714762 -2.30545728 106.34072555 -3.609375 105.171875 C-5.44940636 103.62120341 -7.13481568 102.28444996 -9.2734375 101.1796875 C-12.42145243 101.5464835 -12.42145243 101.5464835 -15.2734375 103.1796875 C-17.43740882 103.87562488 -19.60415241 104.56299467 -21.7734375 105.2421875 C-22.85625 105.58378906 -23.9390625 105.92539062 -25.0546875 106.27734375 C-42.32976493 111.1202356 -61.33450089 108.5791127 -77.01171875 100.1875 C-91.44103585 91.30526169 -99.37166026 77.38706989 -103.2734375 61.1796875 C-106.52099502 43.31812113 -104.15308366 24.6482649 -94.2734375 9.1796875 C-85.11321806 -3.03979908 -72.68358155 -11.14239711 -57.6484375 -14.1328125 C-36.29780193 -17.08257136 -17.09927402 -13.69117129 0 0 Z M-75.2734375 5.1796875 C-75.87542969 5.63472656 -76.47742187 6.08976562 -77.09765625 6.55859375 C-83.92709297 12.43651344 -89.54332262 23.38858584 -91.2734375 32.1796875 C-92.53112824 50.13430699 -91.8343425 66.03465341 -81.2734375 81.1796875 C-80.4071875 82.51 -80.4071875 82.51 -79.5234375 83.8671875 C-71.52571544 92.08706851 -61.46490656 97.13640243 -49.96875 97.74609375 C-47.77881586 97.77341444 -45.58834614 97.77148071 -43.3984375 97.7421875 C-42.25455566 97.73268066 -41.11067383 97.72317383 -39.93212891 97.71337891 C-25.79752304 97.36469977 -15.49819196 92.80954212 -5.6484375 82.6171875 C5.00420416 69.84376821 6.71382739 54.15108571 5.7265625 38.1796875 C4.02257722 25.49274254 -1.95563497 12.081053 -12.2734375 4.1796875 C-30.98116036 -8.29212774 -57.36200495 -9.26957465 -75.2734375 5.1796875 Z " fill="#44648A" transform="translate(1112.2734375,294.8203125)"/>
<path d="M0 0 C6.06085697 4.83688829 10.867885 10.60692177 12.60546875 18.28125 C12.7583656 21.96606415 12.69550431 25.58979203 12.60546875 29.28125 C8.64546875 29.28125 4.68546875 29.28125 0.60546875 29.28125 C0.47011719 28.435625 0.33476563 27.59 0.1953125 26.71875 C-1.28421538 18.92243544 -3.0064655 13.27846521 -9.39453125 8.28125 C-20.10629207 1.91008096 -34.85533369 1.51584286 -46.87109375 4 C-53.66320527 6.32017033 -58.61076014 9.18938007 -62.26953125 15.53125 C-64.03294746 21.40930403 -64.33226094 26.64961112 -62.14453125 32.46875 C-58.46783155 38.77166377 -51.62195849 41.10474902 -44.91015625 42.97265625 C-37.14197117 44.93715392 -29.29351281 46.53765605 -21.42578125 48.046875 C-8.91790119 50.51402565 5.25878753 53.59545689 13.12109375 64.35546875 C17.9683399 72.41201799 17.85741412 81.38974236 15.94140625 90.40625 C13.09915943 99.30371832 8.27828353 105.11188383 0.10546875 109.59375 C-15.98126137 116.90047024 -37.64324468 118.33157992 -54.39453125 112.28125 C-64.93051621 107.54414048 -72.95667741 101.80712752 -77.37109375 90.859375 C-79.25905943 85.17783343 -79.68323922 80.24788145 -79.39453125 74.28125 C-75.10453125 74.28125 -70.81453125 74.28125 -66.39453125 74.28125 C-66.27078125 76.50875 -66.27078125 76.50875 -66.14453125 78.78125 C-65.35138639 86.56949188 -62.44421044 92.21640231 -56.39453125 97.28125 C-44.54831986 105.10421979 -28.89881644 104.95975663 -15.19580078 102.96044922 C-7.75301125 101.35230646 -3.25147153 98.19993825 1.203125 92.08984375 C2.99936799 88.49235431 3.00450907 85.78796996 2.98046875 81.78125 C2.98820313 80.4921875 2.9959375 79.203125 3.00390625 77.875 C2.45126432 72.89038653 0.92605046 70.54035635 -2.66015625 67.12109375 C-12.38791486 60.57570189 -26.08490321 59.26011419 -37.36401367 57.08618164 C-50.74962604 54.48271328 -62.92582549 51.93631393 -72.16796875 41.22265625 C-75.62887375 35.744727 -75.75966994 30.17804495 -75.76953125 23.90625 C-75.79402344 23.09414063 -75.81851563 22.28203125 -75.84375 21.4453125 C-75.87711462 14.50547059 -73.90576477 9.6982767 -69.82421875 4.14453125 C-53.35275206 -12.28554984 -18.75901106 -13.11930837 0 0 Z " fill="#446489" transform="translate(989.39453125,287.71875)"/>
<path d="M0 0 C6.44141892 4.86613054 9.39795542 11.07240013 11.33203125 18.76171875 C11.76068132 21.88004109 11.85758396 24.92897065 11.83203125 28.07421875 C11.82631104 28.90018555 11.82059082 29.72615234 11.81469727 30.57714844 C11.55676168 39.47375489 9.18207985 46.94669395 3.20703125 53.69921875 C-6.30827737 61.90692682 -16.21757991 62.79890113 -28.3828125 62.30859375 C-36.79545049 61.6599801 -43.33362694 58.60715671 -49.16796875 52.38671875 C-56.4909194 42.60118292 -57.40957931 32.7864042 -56.66796875 20.76171875 C-54.83132303 10.66016728 -49.85349269 3.81655388 -41.66796875 -2.23828125 C-28.81555995 -9.51073479 -12.09223032 -7.67141493 0 0 Z " fill="#FBFCFC" transform="translate(594.66796875,334.23828125)"/>
<path d="M0 0 C6.01111374 4.95721717 9.0083443 9.85315791 11.46875 17.234375 C11.46875 21.524375 11.46875 25.814375 11.46875 30.234375 C-7.67125 30.234375 -26.81125 30.234375 -46.53125 30.234375 C-43.22553399 43.39977066 -43.22553399 43.39977066 -34.21484375 52.2890625 C-28.04893537 55.75112706 -18.74473809 55.04148358 -11.94140625 53.73828125 C-4.46512534 51.19835472 -1.03368054 45.85007714 2.46875 39.234375 C5.43875 39.234375 8.40875 39.234375 11.46875 39.234375 C9.36184174 47.53032626 5.64543481 54.15382322 -1.9140625 58.65234375 C-11.93649731 63.2335557 -25.09860994 64.31035554 -35.71875 61.046875 C-37.71875 60.19921875 -37.71875 60.19921875 -39.53125 59.234375 C-40.15 58.90566406 -40.76875 58.57695312 -41.40625 58.23828125 C-49.05591012 53.47373001 -53.05109265 45.69742655 -55.0625 37.125 C-56.96147412 25.41465958 -55.21906663 14.97804301 -48.2578125 5.2734375 C-36.60992762 -8.48266183 -14.5655381 -10.15991238 0 0 Z " fill="#272F39" transform="translate(885.53125,333.765625)"/>
<path d="M0 0 C1.03125 0.00322266 2.0625 0.00644531 3.125 0.00976562 C4.74535156 0.02233398 4.74535156 0.02233398 6.3984375 0.03515625 C8.03039062 0.04192383 8.03039062 0.04192383 9.6953125 0.04882812 C12.38807539 0.06063849 15.08072938 0.07710847 17.7734375 0.09765625 C17.8811867 6.0074003 17.68804921 11.6166007 16.7734375 17.47265625 C15.02710773 30.08334773 15.21177219 42.72852536 16.7734375 55.34765625 C18.54811253 69.79092621 17.93928882 82.11229824 13.7734375 96.09765625 C13.1134375 96.09765625 12.4534375 96.09765625 11.7734375 96.09765625 C11.32355469 95.1746875 10.87367188 94.25171875 10.41015625 93.30078125 C7.00246211 86.37348776 3.49550454 79.54648347 -0.3190918 72.83300781 C-10.47798367 54.89414931 -23.32283425 30.99633064 -17.5703125 9.6640625 C-15.28787214 5.08934367 -11.63916626 3.22224325 -7.2265625 1.09765625 C-4.66933021 -0.1809599 -2.85919148 -0.01570984 0 0 Z " fill="#3D6087" transform="translate(334.2265625,272.90234375)"/>
<path d="M0 0 C1.07471558 0.00628418 1.07471558 0.00628418 2.17114258 0.01269531 C9.82034642 0.17635189 15.70115926 1.76365926 21.25 7.3125 C26.29221932 14.44996585 27.02182353 21.78888363 26.25 30.3125 C24.73553321 37.50862881 22.10985878 42.28277886 16.4453125 46.97265625 C9.2845054 51.34304208 1.36656312 51.00123092 -6.75 50.3125 C-12.96694185 48.71767774 -17.28755828 44.61643143 -20.75 39.3125 C-23.12725132 34.78595297 -23.11674685 30.49728073 -23.125 25.5 C-23.16173828 24.34661133 -23.16173828 24.34661133 -23.19921875 23.16992188 C-23.23308551 16.48123669 -21.41424856 11.33899288 -16.96875 6.2890625 C-16.4015625 5.84304688 -15.834375 5.39703125 -15.25 4.9375 C-14.6828125 4.47601563 -14.115625 4.01453125 -13.53125 3.5390625 C-9.04265928 0.44823468 -5.42021471 -0.04255566 0 0 Z " fill="#FCFCFC" transform="translate(746.75,335.6875)"/>
<path d="M0 0 C6.01476741 -0.09198455 12.02708101 -0.17157646 18.04199219 -0.21972656 C20.0866728 -0.2398042 22.13129627 -0.26707225 24.17578125 -0.30175781 C27.11993537 -0.35044519 30.06332834 -0.37300744 33.0078125 -0.390625 C33.9174173 -0.41127014 34.82702209 -0.43191528 35.76419067 -0.45318604 C41.36868326 -0.45515393 44.5606007 0.24444539 49 4 C54.2027156 9.62455741 54.36945634 14.4989859 54.26953125 21.95703125 C53.81167087 27.12620857 52.33181291 30.97914598 48.35632324 34.42448425 C42.85591562 38.11462383 38.56403912 38.68042431 32.03125 38.48828125 C31.11033569 38.48120651 30.18942139 38.47413177 29.24060059 38.46684265 C26.32620769 38.4390625 23.41380289 38.37635691 20.5 38.3125 C18.51304876 38.28739587 16.52606713 38.26458643 14.5390625 38.24414062 C9.6913438 38.19355925 4.84787195 38.09568168 0 38 C0 25.46 0 12.92 0 0 Z " fill="#FDFEFE" transform="translate(471,306)"/>
<path d="M0 0 C3.63 0 7.26 0 11 0 C11.33 34.65 11.66 69.3 12 105 C35.76 105.33 59.52 105.66 84 106 C84 108.97 84 111.94 84 115 C56.28 115 28.56 115 0 115 C0 77.05 0 39.1 0 0 Z " fill="#3F6188" transform="translate(1138,284)"/>
<path d="M0 0 C3.57963204 2.94152372 6.45977987 5.98118295 7.09765625 10.703125 C7.109375 12.9140625 7.109375 12.9140625 6.796875 16.4765625 C3.826875 16.4765625 0.856875 16.4765625 -2.203125 16.4765625 C-2.615625 15.0534375 -3.028125 13.6303125 -3.453125 12.1640625 C-4.38693785 9.40585602 -4.99011283 7.7123974 -6.953125 5.5390625 C-14.83807442 1.81561416 -24.36905676 0.70628469 -32.81640625 3.26953125 C-36.22974689 4.89820019 -38.09313443 6.31157664 -40.203125 9.4765625 C-40.78001216 14.08488471 -40.78001216 14.08488471 -38.92773438 18.09716797 C-31.9751446 23.65805872 -20.89825514 23.69828266 -12.44140625 24.76171875 C-4.54659516 25.88680145 2.51245266 27.58064503 7.83203125 33.890625 C9.91568698 39.4751598 9.72060605 45.96638451 8.2109375 51.703125 C5.73868004 56.85177127 0.91477034 59.47246756 -4.203125 61.4765625 C-10.03804507 62.87944527 -16.04645572 62.73429948 -22.015625 62.7890625 C-23.05783203 62.81806641 -24.10003906 62.84707031 -25.17382812 62.87695312 C-33.51750904 62.94504343 -39.85239056 61.15745731 -46.578125 56.1640625 C-50.45356862 52.19634641 -52.08850088 48.57800461 -52.390625 43.0390625 C-52.32875 42.1934375 -52.266875 41.3478125 -52.203125 40.4765625 C-49.233125 40.4765625 -46.263125 40.4765625 -43.203125 40.4765625 C-42.790625 41.7140625 -42.378125 42.9515625 -41.953125 44.2265625 C-40.28131951 48.64825364 -38.41440555 51.30984876 -34.15234375 53.55859375 C-30.03669841 54.83962243 -26.17631885 54.80573835 -21.890625 54.7890625 C-21.07400391 54.80517578 -20.25738281 54.82128906 -19.41601562 54.83789062 C-13.27900178 54.84278068 -7.38131131 54.15158905 -2.49755859 50.04101562 C-0.5563142 47.69482663 -0.91038142 45.77096385 -1.015625 42.7890625 C-1.04269531 41.79519531 -1.06976562 40.80132812 -1.09765625 39.77734375 C-1.13246094 39.01808594 -1.16726563 38.25882812 -1.203125 37.4765625 C-9.94133074 34.22447946 -18.80055652 32.8910968 -27.98632812 31.45898438 C-35.9510458 30.13367594 -42.80522181 28.87446569 -48.703125 22.9765625 C-50.92299826 17.79685822 -50.95798618 13.02746086 -50.203125 7.4765625 C-47.43849851 1.74252237 -43.30163971 -1.85064239 -37.453125 -4.2734375 C-25.82940976 -7.84246416 -10.12670926 -6.92666913 0 0 Z " fill="#283039" transform="translate(665.203125,333.5234375)"/>
<path d="M0 0 C6.44141892 4.86613054 9.39795542 11.07240013 11.33203125 18.76171875 C11.76068132 21.88004109 11.85758396 24.92897065 11.83203125 28.07421875 C11.82631104 28.90018555 11.82059082 29.72615234 11.81469727 30.57714844 C11.55676168 39.47375489 9.18207985 46.94669395 3.20703125 53.69921875 C-6.30827737 61.90692682 -16.21757991 62.79890113 -28.3828125 62.30859375 C-36.79545049 61.6599801 -43.33362694 58.60715671 -49.16796875 52.38671875 C-56.4909194 42.60118292 -57.40957931 32.7864042 -56.66796875 20.76171875 C-54.83132303 10.66016728 -49.85349269 3.81655388 -41.66796875 -2.23828125 C-28.81555995 -9.51073479 -12.09223032 -7.67141493 0 0 Z M-43.26171875 9.8671875 C-48.60066728 17.05993761 -48.37140588 25.07622414 -47.66796875 33.76171875 C-46.37638605 41.69418914 -43.27261667 47.06703697 -37.02734375 52.078125 C-30.0519691 56.43015223 -20.70168704 55.91723514 -12.9453125 54.13671875 C-7.18051768 51.92177186 -2.98763557 47.92973192 0.33203125 42.76171875 C3.79391492 34.69947961 3.81836282 23.88403498 1.38671875 15.50390625 C-1.9638431 8.44454637 -6.55229486 4.87482608 -13.66796875 1.76171875 C-24.5348243 -1.46896803 -35.68328134 1.37719276 -43.26171875 9.8671875 Z " fill="#272E38" transform="translate(594.66796875,334.23828125)"/>
<path d="M0 0 C2.47138262 1.7109648 4.51077934 3.81044409 6.61328125 5.94921875 C7.53490303 6.86366508 7.53490303 6.86366508 8.47514343 7.79658508 C9.76961499 9.08765721 11.05780574 10.3850531 12.34008789 11.68823242 C14.30554781 13.68045315 16.29622567 15.64461942 18.29101562 17.60742188 C19.54587713 18.86558746 20.7991867 20.12530323 22.05078125 21.38671875 C22.6475618 21.97337814 23.24434235 22.56003754 23.85920715 23.16447449 C27.8632387 27.28441679 27.8632387 27.28441679 28.5222168 30.73242188 C27.69068775 34.34310061 25.13261375 36.39010725 22.5 38.8125 C21.97535156 39.31458984 21.45070313 39.81667969 20.91015625 40.33398438 C19.61777468 41.56762133 18.31030401 42.78541625 17 44 C14.31360103 43.00219467 12.03186369 42.02186307 9.66015625 40.39453125 C6.12466204 38.54112239 3.40832927 38.63623805 -0.5625 38.6875 C-1.86316406 38.69136719 -3.16382813 38.69523437 -4.50390625 38.69921875 C-7.76453078 38.97974175 -9.19820967 39.55925443 -12 41 C-16.54437964 40.31903615 -19.14571395 37.47792441 -22.3125 34.375 C-23.15651367 33.61123047 -23.15651367 33.61123047 -24.01757812 32.83203125 C-24.54416016 32.31769531 -25.07074219 31.80335938 -25.61328125 31.2734375 C-26.09579346 30.81372559 -26.57830566 30.35401367 -27.07543945 29.88037109 C-28.63710577 26.70425439 -27.85577213 24.34171557 -27 21 C-25.08227539 18.38525391 -25.08227539 18.38525391 -22.59765625 15.9765625 C-21.70755859 15.10128906 -20.81746094 14.22601563 -19.90039062 13.32421875 C-18.96388672 12.43347656 -18.02738281 11.54273438 -17.0625 10.625 C-16.12986328 9.71105469 -15.19722656 8.79710937 -14.23632812 7.85546875 C-5.31436984 -0.82779651 -5.31436984 -0.82779651 0 0 Z " fill="#5061A4" transform="translate(1079,470)"/>
<path d="M0 0 C2.08859253 1.44021606 2.08859253 1.44021606 4.16357422 3.48486328 C4.94723358 4.24630646 5.73089294 5.00774963 6.53829956 5.79226685 C7.36870758 6.62652191 8.1991156 7.46077698 9.0546875 8.3203125 C10.34610153 9.59743607 10.34610153 9.59743607 11.66360474 10.90036011 C13.48030741 12.70489354 15.29053259 14.51596803 17.09472656 16.33300781 C19.86451618 19.11447199 22.66473727 21.86246646 25.46875 24.609375 C27.22850378 26.36524407 28.98638174 28.12299555 30.7421875 29.8828125 C31.58474091 30.70492218 32.42729431 31.52703186 33.29537964 32.37405396 C34.44249924 33.54458817 34.44249924 33.54458817 35.61279297 34.73876953 C36.29276337 35.41827667 36.97273376 36.09778381 37.67330933 36.79788208 C39 39 39 39 38.84133911 42.09298706 C37.75919736 45.83202644 36.06000778 47.63981288 33.3125 50.375 C32.46300781 51.24898438 31.61351562 52.12296875 30.73828125 53.0234375 C27.41418914 55.42285348 26.02039993 55.44323051 22 55 C19.79115295 53.55978394 19.79115295 53.55978394 17.72290039 51.51513672 C16.93931656 50.75369354 16.15573273 49.99225037 15.34840393 49.20773315 C14.5231572 48.37347809 13.69791046 47.53922302 12.84765625 46.6796875 C11.98812851 45.82827179 11.12860077 44.97685608 10.24302673 44.09963989 C8.43115789 42.29623267 6.62692248 40.48512839 4.82983398 38.66699219 C2.07087521 35.88344984 -0.72098324 33.13629218 -3.51757812 30.390625 C-5.27292824 28.63490447 -7.02625464 26.87715783 -8.77734375 25.1171875 C-9.6167601 24.29507782 -10.45617645 23.47296814 -11.32102966 22.62594604 C-12.08254837 21.8455899 -12.84406708 21.06523376 -13.62866211 20.26123047 C-14.3056163 19.58172333 -14.9825705 18.90221619 -15.68003845 18.20211792 C-17 16 -17 16 -16.84742737 12.89382935 C-15.73168218 9.08373744 -13.98451486 7.58657954 -11 5 C-10.50886719 4.53078125 -10.01773437 4.0615625 -9.51171875 3.578125 C-6.24995394 0.5776385 -4.40494274 -0.60700354 0 0 Z " fill="#ECAF40" transform="translate(1095,443)"/>
<path d="M0 0 C4.35037319 1.52790735 7.10320405 4.19610752 9.71728516 7.9543457 C9.71728516 10.97066975 9.03869522 12.31152558 7.71728516 14.9543457 C7.96478516 16.8125293 7.96478516 16.8125293 8.21728516 18.70825195 C8.96957711 25.00455084 9.58015954 30.91223121 6.14990234 36.51391602 C-5.04721506 50.37519397 -5.04721506 50.37519397 -12.28051758 51.36425781 C-17.67411674 50.62782999 -20.55244008 46.58672912 -24.22021484 42.8293457 C-25.01234375 42.06879883 -25.80447266 41.30825195 -26.62060547 40.5246582 C-27.36375 39.77700195 -28.10689453 39.0293457 -28.87255859 38.2590332 C-29.55181396 37.57824707 -30.23106934 36.89746094 -30.9309082 36.19604492 C-32.28271484 33.9543457 -32.28271484 33.9543457 -32.37158203 31.10693359 C-30.88915195 26.8148664 -28.45433301 24.37077865 -25.27099609 21.20825195 C-24.66515182 20.59288071 -24.05930756 19.97750946 -23.43510437 19.3434906 C-22.15439663 18.05064901 -20.86718856 16.76421845 -19.57397461 15.48388672 C-17.59785393 13.51946916 -15.65588682 11.52515258 -13.71435547 9.52661133 C-12.46434578 8.27271778 -11.21245366 7.02069742 -9.95849609 5.77075195 C-9.38013504 5.17194717 -8.80177399 4.5731424 -8.20588684 3.95619202 C-4.07726635 -0.05670451 -4.07726635 -0.05670451 0 0 Z " fill="#5262A4" transform="translate(1049.28271484375,508.045654296875)"/>
<path d="M0 0 C2.97 0 5.94 0 9 0 C9 6.93 9 13.86 9 21 C13.62 21 18.24 21 23 21 C23 23.64 23 26.28 23 29 C18.38 29 13.76 29 9 29 C9.0686904 35.65727666 9.15656529 42.31391396 9.26245117 48.97070312 C9.29576336 51.23658171 9.32377545 53.50254454 9.34643555 55.76855469 C9.37986593 59.0205485 9.43217562 62.27176585 9.48828125 65.5234375 C9.49467117 66.54118256 9.5010611 67.55892761 9.50764465 68.60751343 C9.53733589 70.01874985 9.53733589 70.01874985 9.56762695 71.45849609 C9.57873001 72.28900482 9.58983307 73.11951355 9.60127258 73.97518921 C9.73285263 74.64337677 9.86443268 75.31156433 10 76 C13.31371 78.20914 14.3446021 78.22481553 18.1875 78.125 C19.08855469 78.10695313 19.98960937 78.08890625 20.91796875 78.0703125 C21.60503906 78.04710937 22.29210937 78.02390625 23 78 C23.04241723 80.33294775 23.04092937 82.66702567 23 85 C21.08598477 86.91401523 17.86149652 86.26189296 15.3125 86.3125 C7.36366338 86.24780957 7.36366338 86.24780957 4.25 84.3125 C0.62992364 80.59186596 -0.25344369 77.04135466 -0.22705078 71.93432617 C-0.22689972 70.95368698 -0.22674866 69.97304779 -0.22659302 68.96269226 C-0.21627045 67.9166835 -0.20594788 66.87067474 -0.1953125 65.79296875 C-0.1924826 64.71243729 -0.18965271 63.63190582 -0.18673706 62.51863098 C-0.17556132 59.07480699 -0.15046118 55.63124511 -0.125 52.1875 C-0.11496685 49.84961314 -0.10584158 47.51172219 -0.09765625 45.17382812 C-0.07563046 39.44911809 -0.04111821 33.72460345 0 28 C-3.3 28 -6.6 28 -10 28 C-10 26.02 -10 24.04 -10 22 C-6.7 22 -3.4 22 0 22 C0 14.74 0 7.48 0 0 Z " fill="#2B333D" transform="translate(691,309)"/>
<path d="M0 0 C4.9174527 4.11423901 8.02041686 8.9448045 10 15 C10 16.32 10 17.64 10 19 C-6.5 19 -23 19 -40 19 C-38.8363541 10.85447869 -36.89189953 6.95762452 -31.25 1.1875 C-21.21575021 -5.56632198 -10.60841093 -5.64411729 0 0 Z " fill="#F7F7F8" transform="translate(879,339)"/>
<path d="M0 0 C4.55929038 0.91945689 6.88762183 4.78846399 9.34375 8.47265625 C10.03125 11.53515625 10.03125 11.53515625 9.34375 15.47265625 C3.37478385 24.34886004 -5.0199376 30.66916234 -15.46362305 33.09326172 C-19.31682674 33.75998909 -23.12870542 33.81151948 -27.03125 33.78515625 C-27.86253418 33.78169189 -28.69381836 33.77822754 -29.55029297 33.7746582 C-35.36796048 33.6716856 -41.50994063 33.4933161 -46.65625 30.47265625 C-46.98625 29.48265625 -47.31625 28.49265625 -47.65625 27.47265625 C-47.03169922 27.31708252 -46.40714844 27.16150879 -45.76367188 27.0012207 C-42.89070111 26.27686418 -40.02366361 25.53119452 -37.15625 24.78515625 C-35.68285156 24.41874023 -35.68285156 24.41874023 -34.1796875 24.04492188 C-28.60151163 22.57600223 -24.03586629 20.86487709 -19.29492188 17.54760742 C-17.65625 16.47265625 -17.65625 16.47265625 -14.65625 15.47265625 C-13.96783763 14.15041927 -13.30644022 12.81410133 -12.65625 11.47265625 C-11.10796014 9.51057564 -9.49732002 7.59686755 -7.84375 5.72265625 C-6.99167969 4.7378125 -6.13960937 3.75296875 -5.26171875 2.73828125 C-2.65625 0.47265625 -2.65625 0.47265625 0 0 Z " fill="#3F6186" transform="translate(224.65625,401.52734375)"/>
<path d="M0 0 C0 2.97 0 5.94 0 9 C-1.37671875 9.02126953 -1.37671875 9.02126953 -2.78125 9.04296875 C-13.39047338 9.39819435 -13.39047338 9.39819435 -22 15 C-25.33075002 19.92286807 -27.07037652 25.09656692 -27.20532227 31.03417969 C-27.22526749 31.81468689 -27.24521271 32.59519409 -27.26576233 33.39935303 C-27.29083107 34.6480014 -27.29083107 34.6480014 -27.31640625 35.921875 C-27.33718735 36.78186096 -27.35796844 37.64184692 -27.37937927 38.52789307 C-27.44463739 41.26851598 -27.50364917 44.00923275 -27.5625 46.75 C-27.60570781 48.6106867 -27.64932282 50.47136398 -27.69335938 52.33203125 C-27.80029442 56.88792523 -27.90162851 61.4439134 -28 66 C-30.64 66 -33.28 66 -36 66 C-36 45.21 -36 24.42 -36 3 C-33.36 3 -30.72 3 -28 3 C-27.67 5.97 -27.34 8.94 -27 12 C-26.443125 11.0925 -25.88625 10.185 -25.3125 9.25 C-18.73308294 0.0032517 -10.58817941 -0.34464237 0 0 Z " fill="#232B35" transform="translate(830,328)"/>
<path d="M0 0 C5.67507225 2.00296668 9.30675089 5.61350179 12 11 C12.53365143 17.19035658 11.92732871 21.99957021 8 27 C3.62407315 30.51654618 -1.26766923 31.72752607 -6.82421875 31.44921875 C-11.92354516 30.39639552 -15.01400541 27.39947619 -17.9375 23.25 C-19.31736393 19.02923975 -19.7102021 15.39536189 -19 11 C-14.84474736 2.84339297 -9.05292737 -0.91375342 0 0 Z " fill="#E8AE45" transform="translate(1082,515)"/>
<path d="M0 0 C2.35143332 0.89656037 4.59166534 1.92118356 6.8515625 3.02734375 C11.94753575 5.33442982 16.87532889 5.19159964 22.375 5.1875 C23.26026367 5.18814453 24.14552734 5.18878906 25.05761719 5.18945312 C32.5162506 5.13010776 39.6579571 4.36143842 47 3 C43.45781601 6.8533665 40.11638034 9.29354427 35.4375 11.625 C34.32246094 12.19476563 33.20742188 12.76453125 32.05859375 13.3515625 C22.1986891 17.65795348 12.52216775 18.43638368 1.875 18.25 C0.658125 18.24484375 -0.55875 18.2396875 -1.8125 18.234375 C-10.68941327 18.15529337 -10.68941327 18.15529337 -13 17 C-13.86097841 7.31877615 -13.86097841 7.31877615 -10.625 3.4375 C-6.88778431 -0.03277171 -5.07041609 -0.46094692 0 0 Z " fill="#3D6086" transform="translate(357,401)"/>
<path d="M0 0 C2.33311149 0.82448301 3.56738536 1.75920586 5.328125 3.484375 C5.84890625 3.97421875 6.3696875 4.4640625 6.90625 4.96875 C8.55471551 7.45243803 8.58683026 8.80600213 8.078125 11.734375 C6.14453125 14.0859375 6.14453125 14.0859375 3.640625 16.359375 C0.06895387 19.51893084 0.06895387 19.51893084 -1.921875 23.734375 C-1.261875 23.734375 -0.601875 23.734375 0.078125 23.734375 C0.703125 26.609375 0.703125 26.609375 1.078125 29.734375 C0.418125 30.394375 -0.241875 31.054375 -0.921875 31.734375 C-7.23379793 31.34032834 -10.53863454 26.73990388 -14.734375 22.484375 C-15.52263672 21.71996094 -16.31089844 20.95554687 -17.12304688 20.16796875 C-17.86748047 19.42160156 -18.61191406 18.67523437 -19.37890625 17.90625 C-20.05928955 17.2265918 -20.73967285 16.54693359 -21.44067383 15.84667969 C-23.24933105 13.26739795 -23.30270386 11.82161015 -22.921875 8.734375 C-21.921875 7.734375 -21.921875 7.734375 -19.609375 7.546875 C-16.81703415 7.74168948 -15.34700235 8.42615065 -12.921875 9.734375 C-11.98214844 8.77724609 -11.98214844 8.77724609 -11.0234375 7.80078125 C-10.20617187 6.97449219 -9.38890625 6.14820313 -8.546875 5.296875 C-7.73476563 4.47316406 -6.92265625 3.64945313 -6.0859375 2.80078125 C-2.75414995 -0.38065487 -2.75414995 -0.38065487 0 0 Z " fill="#EAB048" transform="translate(1015.921875,552.265625)"/>
<path d="M0 0 C5.27142857 1.84962406 5.27142857 1.84962406 7.1875 4.875 C7 7 7 7 5.125 9.75 C1.49334647 12.36479054 -0.46966151 12.74343641 -4.84375 12.48828125 C-8.4017516 11.68257437 -9.93331324 9.90627825 -12 7 C-12.8125 4.1875 -12.8125 4.1875 -13 2 C-8.73441274 -0.84372484 -5.0052571 -0.50518899 0 0 Z " fill="#F3F8FA" transform="translate(212,281)"/>
<path d="M0 0 C2 1.625 2 1.625 3 4 C2.93439072 7.739729 2.76345433 10.0603639 0.375 13 C-3.11581787 14.46981805 -5.39148956 13.98413921 -9 13 C-11 11.375 -11 11.375 -12 9 C-11.93439072 5.260271 -11.76345433 2.9396361 -9.375 0 C-5.88418213 -1.46981805 -3.60851044 -0.98413921 0 0 Z " fill="#FEFAEE" transform="translate(1083,524)"/>
<path d="M0 0 C-0.125 2.75 -0.125 2.75 -1 6 C-4.00457086 8.65520215 -6.1009888 9.85322266 -10.0625 10.5 C-13.6706779 9.88584206 -15.36578346 8.47926262 -18 6 C-17.70488433 3.14721517 -17.18767059 2.16421177 -15 0.25 C-10.04855718 -1.81310118 -5.06280501 -1.68760167 0 0 Z " fill="#F1F6F9" transform="translate(342,279)"/>
<path d="M0 0 C-0.72469482 0.56170898 -1.44938965 1.12341797 -2.19604492 1.70214844 C-4.91919049 3.93377631 -7.38276238 6.26910278 -9.86328125 8.765625 C-10.74951172 9.65507812 -11.63574219 10.54453125 -12.54882812 11.4609375 C-13.9168457 12.84152344 -13.9168457 12.84152344 -15.3125 14.25 C-16.25302196 15.19554456 -17.19377509 16.14085925 -18.13476562 17.0859375 C-20.42545804 19.38837706 -22.71377736 21.69312351 -25 24 C-25.99 23.67 -26.98 23.34 -28 23 C-23.51581206 17.5717725 -18.6545106 12.54474293 -13.6875 7.5625 C-12.75333252 6.62156494 -12.75333252 6.62156494 -11.80029297 5.66162109 C-11.21006348 5.0733252 -10.61983398 4.4850293 -10.01171875 3.87890625 C-9.48022217 3.3485376 -8.94872559 2.81816895 -8.40112305 2.27172852 C-5.67066022 -0.20657447 -3.56839563 -0.09390515 0 0 Z " fill="#616EA5" transform="translate(1079,470)"/>
<path d="M0 0 C0.99 0.33 1.98 0.66 3 1 C1.78070272 2.30098717 0.54907548 3.59042437 -0.6875 4.875 C-1.37199219 5.59429688 -2.05648438 6.31359375 -2.76171875 7.0546875 C-5.09591291 9.08335887 -7.08467634 10.02992733 -10 11 C-6.79239749 7.19364503 -3.59253891 3.45436433 0 0 Z " fill="#5E6A9F" transform="translate(1038,516)"/>
<path d="M0 0 C0.66 0.66 1.32 1.32 2 2 C1.7767253 8.14005413 1.7767253 8.14005413 -0.75 10.9375 C-3.35402628 12.16717908 -5.15312226 12.23723981 -8 12 C-6.68 11.67 -5.36 11.34 -4 11 C-4 10.34 -4 9.68 -4 9 C-3.01 9 -2.02 9 -1 9 C-0.67 6.03 -0.34 3.06 0 0 Z " fill="#FBEDC6" transform="translate(1084,526)"/>
<path d="M0 0 C0.66 0.99 1.32 1.98 2 3 C0.4221875 2.87625 0.4221875 2.87625 -1.1875 2.75 C-5.53763669 3.03525487 -6.9315153 4.02449969 -10 7 C-10 4 -10 4 -7.8125 1.8125 C-4.79741431 -0.13055522 -3.49860623 -0.66189848 0 0 Z " fill="#E6B55E" transform="translate(1095,443)"/>
<path d="M0 0 C0 3 0 3 -1.96875 5.26171875 C-2.8040625 6.06222656 -3.639375 6.86273438 -4.5 7.6875 C-5.3353125 8.49574219 -6.170625 9.30398437 -7.03125 10.13671875 C-7.6809375 10.75160156 -8.330625 11.36648437 -9 12 C-9.66 11.67 -10.32 11.34 -11 11 C-9.92173635 9.72486237 -8.83714481 8.45507431 -7.75 7.1875 C-7.14671875 6.47980469 -6.5434375 5.77210938 -5.921875 5.04296875 C-4.07629602 3.08110329 -2.20054668 1.54330375 0 0 Z " fill="#4A6686" transform="translate(204,198)"/>
<path d="M0 0 C0 0.66 0 1.32 0 2 C-1.0828125 2.37125 -1.0828125 2.37125 -2.1875 2.75 C-5.24713266 4.10983674 -7.4673738 5.82917754 -10 8 C-9.16513153 2.15592068 -5.85032849 -0.6500365 0 0 Z " fill="#4D6886" transform="translate(227,402)"/>
<path d="M0 0 C0 2 0 2 -1.6796875 3.69140625 C-2.40414062 4.30886719 -3.12859375 4.92632812 -3.875 5.5625 C-4.59429688 6.18253906 -5.31359375 6.80257813 -6.0546875 7.44140625 C-8 9 -8 9 -10 10 C-8.71596412 5.50587442 -5.23012555 0 0 0 Z " fill="#2F353D" transform="translate(814,330)"/>
<path d="M0 0 C0.33 0.99 0.66 1.98 1 3 C1.66 3.33 2.32 3.66 3 4 C1.35 5.65 -0.3 7.3 -2 9 C-3 6 -3 6 -1.5625 2.8125 C-1.046875 1.884375 -0.53125 0.95625 0 0 Z " fill="#556D87" transform="translate(357,373)"/>
<path d="M0 0 C0.33 0 0.66 0 1 0 C1.3125 2.75 1.3125 2.75 1 6 C-1.5 8.375 -1.5 8.375 -4 10 C-4.66 9.67 -5.32 9.34 -6 9 C-4.73046875 7.53515625 -3.4609375 6.0703125 -2.19140625 4.60546875 C-0.79128769 2.89287029 -0.79128769 2.89287029 0 0 Z " fill="#FEF7DC" transform="translate(1134,483)"/>
<path d="M0 0 C0 1.65 0 3.3 0 5 C-1.98 4.34 -3.96 3.68 -6 3 C-6 2.34 -6 1.68 -6 1 C-3 0 -3 0 0 0 Z " fill="#556E87" transform="translate(183,428)"/>
<path d="M0 0 C0.99 0.33 1.98 0.66 3 1 C0.69 3.31 -1.62 5.62 -4 8 C-4.33 7.01 -4.66 6.02 -5 5 C-3.35 3.35 -1.7 1.7 0 0 Z " fill="#415F81" transform="translate(924,288)"/>
<path d="M0 0 C0.33 0.99 0.66 1.98 1 3 C-0.62339805 4.70884005 -2.29319053 6.37446717 -4 8 C-4.66 8 -5.32 8 -6 8 C-4.55746343 4.63408134 -2.66735273 2.48952921 0 0 Z " fill="#4E6A89" transform="translate(1026,295)"/>
<path d="M0 0 C1.65 0 3.3 0 5 0 C5 0.66 5 1.32 5 2 C7.31 2 9.62 2 12 2 C12 2.33 12 2.66 12 3 C10.56344146 3.08131463 9.1255517 3.13933559 7.6875 3.1875 C6.48673828 3.23970703 6.48673828 3.23970703 5.26171875 3.29296875 C2.52148416 2.93801608 1.70828921 2.10633718 0 0 Z " fill="#E6B763" transform="translate(1070,543)"/>
<path d="M0 0 C0.33 0.99 0.66 1.98 1 3 C-0.65 4.32 -2.3 5.64 -4 7 C-4.66 6.67 -5.32 6.34 -6 6 C-4.02 4.02 -2.04 2.04 0 0 Z " fill="#FEF1CF" transform="translate(1022,565)"/>
<path d="M0 0 C0.99 0 1.98 0 3 0 C3 0.66 3 1.32 3 2 C1.46875 3.2890625 1.46875 3.2890625 -0.5 4.625 C-1.1496875 5.07101562 -1.799375 5.51703125 -2.46875 5.9765625 C-2.9740625 6.31429688 -3.479375 6.65203125 -4 7 C-2.92598892 4.08482708 -2.22189824 2.22189824 0 0 Z " fill="#22292F" transform="translate(186,394)"/>
<path d="M0 0 C1.32 0 2.64 0 4 0 C4 1.65 4 3.3 4 5 C2.02 4.01 0.04 3.02 -2 2 C-1.34 1.34 -0.68 0.68 0 0 Z " fill="#5D758E" transform="translate(298,183)"/>
</svg>
