<svg width="32" height="32" xmlns="http://www.w3.org/2000/svg" viewBox="0 0 1500 1500">
  <g transform="translate(-220, -540) scale(1.6)">
    <path d="M630.376 688.592h79.296V617.24H630.4v71.352zm-93.72 0h79.296V617.24h-79.296zm-93.72 0h79.296V617.24H442.96zm-93.72 0h79.344V617.24h-79.344zm-93.696 0h79.296V617.24H255.52zm93.696-85.632h79.344v-71.328h-79.344zm93.72 0h79.296v-71.328H442.96zm93.72 0h79.296v-71.328h-79.296zm0-85.608h79.296V446h-79.296zM947.992 647c-17.328-11.472-57.12-15.672-87.744-9.96-3.936-28.56-20.016-53.304-49.248-75.672l-16.8-11.112-11.232 16.656c-14.352 21.432-21.528 51.12-19.2 79.608 1.08 10.032 4.392 27.936 14.808 43.68-10.392 5.544-30.96 13.176-58.08 12.672h-521.52l-1.032 5.928c-4.896 28.632-4.8 117.936 53.76 186.576C296.272 947.552 363.04 974 450.16 974c188.88 0 328.632-86.064 394.08-242.496 25.752.48 81.144.144 109.608-53.688.744-1.224 2.448-4.464 7.44-14.64L964 657.56z" fill="#136ea3" fill-rule="evenodd"/>
  </g>
  <svg x="0%" y="0%" width="100%" height="100%" xmlns="http://www.w3.org/2000/svg" viewBox="-120 -120 250 250">
    <path fill="#f5a800" d="M67.648 69.797c-5.246 5.25-5.246 13.758 0 19.008 5.25 5.246 13.758 5.246 19.004 0 5.25-5.25 5.25-13.758 0-19.008-5.246-5.246-13.754-5.246-19.004 0m14.207 14.219a6.65 6.65 0 0 1-9.41 0 6.65 6.65 0 0 1 0-9.407 6.65 6.65 0 0 1 9.41 0c2.598 2.586 2.598 6.809 0 9.407M86.43 3.672l-8.235 8.234a4.17 4.17 0 0 0 0 5.875l32.149 32.149a4.17 4.17 0 0 0 5.875 0l8.234-8.235c1.61-1.61 1.61-4.261 0-5.87L92.29 3.671a4.16 4.16 0 0 0-5.86 0ZM28.738 108.895a3.763 3.763 0 0 0 0-5.31l-4.183-4.187a3.77 3.77 0 0 0-5.313 0l-8.644 8.649-.016.012-2.371-2.375c-1.313-1.313-3.45-1.313-4.75 0-1.313 1.312-1.313 3.449 0 4.75l14.246 14.242a3.353 3.353 0 0 0 4.746 0c1.3-1.313 1.313-3.45 0-4.746l-2.375-2.375.016-.012Zm0 0"/>
    <path fill="#425cc7" d="M72.297 27.313 54.004 45.605c-1.625 1.625-1.625 4.301 0 5.926L65.3 62.824c7.984-5.746 19.18-5.035 26.363 2.153l9.148-9.149c1.622-1.625 1.622-4.297 0-5.922L78.22 27.313a4.185 4.185 0 0 0-5.922 0ZM60.55 67.585l-6.672-6.672c-1.563-1.562-4.125-1.562-5.684 0l-23.53 23.54a4.036 4.036 0 0 0 0 5.687l13.331 13.332a4.036 4.036 0 0 0 5.688 0l15.132-15.157c-3.199-6.609-2.625-14.593 1.735-20.73m0 0"/>
  </svg>
</svg>
