<?xml version="1.0" encoding="utf-8"?>
<!-- Generator: Adobe Illustrator 27.3.1, SVG Export Plug-In . SVG Version: 6.00 Build 0)  -->
<svg version="1.1" id="Layer_1" xmlns="http://www.w3.org/2000/svg" xmlns:xlink="http://www.w3.org/1999/xlink" x="0px" y="0px"
	 viewBox="0 0 901 957" style="enable-background:new 0 0 901.1 957;" xml:space="preserve">
	 <rect height="901" width="957" fill="white" />
<style type="text/css">
	.st0{fill:#222222;}
	.st1{fill:#171717;}
	.st2{fill:#161616;}
	.st3{fill:#232323;}
	.st4{fill:#2F2F2F;}
	.st5{fill:#444444;}
	.st6{fill:#767676;}
	.st7{fill:#808080;}
	.st8{fill:#757575;}
	.st9{fill:#989898;}
	.st10{fill:#8D8D8D;}
	.st11{fill:#BBBBBB;}
	.st12{fill:#787878;}
	.st13{fill:#CDCDCD;}
	.st14{fill:#969696;}
	.st15{fill:#5E5E5E;}
</style>
<path class="st0" d="M442.9,97.6c0.7,0.1,1.5,0.3,2.2,0.4c3.5,1.4,5.1,2.9,7.3,6c0.6,3.5,0.5,6.8,0.3,10.3c0,0.9,0,1.9-0.1,2.8
	c-0.1,2.3-0.1,4.6-0.2,6.9c0.8,0.1,0.8,0.1,1.7,0.1c23.2,2.3,45.1,14.2,60.3,31.9c8.1,10,18,25.7,18,39c4.3,0,8.6,0,13,0
	c0,4.3,0,8.6,0,13c-3.6,0-7.3,0-11,0c0,5.9,0,11.9,0,18c1.8-0.2,3.5-0.4,5.4-0.6c30.1-3.5,60.3-6.6,90.4-9.6c4.7-0.5,9.4-1,14-1.4
	c15.5-1.6,31-3.2,46.6-4.7c0.8-0.1,1.7-0.2,2.5-0.3s1.7-0.2,2.5-0.3c13.5-1.4,27.1-2.8,40.6-4.1c14-1.4,27.9-2.9,41.9-4.3
	c7.8-0.8,15.6-1.6,23.4-2.4c6.6-0.7,13.3-1.4,19.9-2c3.4-0.3,6.8-0.7,10.1-1c3.7-0.4,7.3-0.7,11-1.1c1.1-0.1,2.1-0.2,3.2-0.3
	c1-0.1,2-0.2,3-0.3c0.8-0.1,1.7-0.2,2.6-0.3c4-0.2,7.9-0.2,11.9-0.2c0,36.6,0,73.3,0,111c-49.5-4.6-49.5-4.6-73.9-7.1
	c-2.8-0.3-5.6-0.6-8.4-0.9c-6.7-0.7-13.4-1.4-20-2c-5.4-0.6-10.8-1.1-16.3-1.7c-15.5-1.6-30.9-3.2-46.4-4.7
	c-0.8-0.1-1.6-0.2-2.5-0.3c-0.8-0.1-1.6-0.2-2.5-0.3c-13.5-1.4-27-2.7-40.4-4.1c-13.9-1.4-27.8-2.8-41.7-4.3
	c-7.8-0.8-15.6-1.6-23.4-2.4c-6.6-0.7-13.2-1.3-19.8-2c-3.4-0.3-6.7-0.7-10.1-1c-3.6-0.4-7.3-0.7-10.9-1.1c-1.1-0.1-2.1-0.2-3.2-0.3
	c-1-0.1-1.9-0.2-2.9-0.3c-0.8-0.1-1.7-0.2-2.5-0.3c-2-0.3-2-0.3-4-1.3c0,6.3,0,12.5,0,19c2.6,0,5.3,0,8,0c3,0.9,3.8,1.8,5.8,4.2
	c1.6,3.6,1.7,5.9,1.2,9.8c-1.7,3.4-2.9,5.4-6.3,7.1c-3,0.9-5.6,1.1-8.7,1.2c-4.9,0.3-4.9,0.3-8.9,3.1c-0.7,0.9-1.4,1.7-2.1,2.6
	c-2,1-4,2-6,3c-1.1,3.4-1.1,6-1.1,9.5c0,0.7,0,1.3,0,2c0,2.2,0,4.5,0,6.7c0,1.6,0,3.2,0,4.8c0,4.4,0,8.8,0,13.1c0,2.7,0,5.5,0,8.2
	c0,8.6,0,17.2,0,25.8c0,9.9,0,19.8-0.1,29.6c0,7.7,0,15.3,0,23c0,4.6,0,9.1,0,13.7c0,4.3,0,8.6,0,12.9c0,1.6,0,3.1,0,4.7
	c-0.2,26.1,6.1,51.2,24.7,70.2c0.9,0.9,1.7,1.7,2.6,2.6c0.7,0.7,1.3,1.3,2,2c17.7,16.8,45.1,22.8,68.9,22.3
	c37.1-2.2,68-17.5,94.1-43.3c1.6-1.5,3.1-3.1,4.7-4.6c8-7.8,15.5-15.6,22.3-24.4c0.9-1.1,1.8-2.1,2.6-3.2
	c24.7-29.6,43.7-64.5,56.4-100.8c0.3-0.9,0.6-1.7,0.9-2.6c7.8-22.6,12.5-45.8,16.1-69.4c8.8,0.5,17.3,1.4,26,3
	c0.2,11-0.3,21.8-1.2,32.8c-0.1,0.8-0.1,1.6-0.2,2.5c-3.4,41.7-11.2,82.8-23.6,122.8c-0.3,1-0.3,1-0.6,2
	c-9.5,30.6-21.5,60.1-35.4,89c-0.5,1-1,2-1.5,3.1c-22.9,47.4-52.1,91.6-84.5,132.9c5.3,5.3,28.5,2.2,35.9,2.2c1.4,0,1.4,0,2.7,0
	c14.6,0,28.9-0.7,43.4-3.3c1-0.2,2-0.4,3-0.5c19.2-3.5,38.1-8.5,56-16.5c1.2-0.5,1.2-0.5,2.4-1.1c17.3-7.7,32.7-17.3,47.6-28.9
	c0.7,0.3,1.3,0.7,2,1c-5.1,8.9-10.3,17.3-17,25c-0.7,0.8-1.4,1.6-2.1,2.4c-2.3,2.6-4.6,5.1-6.9,7.6c-0.9,0.9-1.7,1.9-2.6,2.8
	c-11.4,12-24.9,22.1-39.4,30.2c-0.7,0.4-1.5,0.8-2.2,1.3c-24.4,13.7-50.3,22.1-77.8,27.1c-1.3,0.2-1.3,0.2-2.7,0.5
	c-13.3,2.2-26.5,2.4-39.9,2.3c-2.7,0-5.3,0-8,0c-15.9,0-31.5-0.8-47.2-3.4c-0.7-0.1-1.5-0.2-2.2-0.4c-24.9-4.1-49.5-11.2-73.7-18.4
	c-8.6-2.6-17.1-4.7-25.9-6.5c-0.7-0.1-1.4-0.3-2.1-0.4c-14.6-3.1-29.3-5.3-44.1-7c-1-0.1-2.1-0.2-3.2-0.4
	c-90.8-9.7-193.7,11.7-272,58.5c-0.6,0.3-1.2,0.5-1.8,0.8c-0.7-0.3-1.3-0.7-2-1c16.7-18.4,16.7-18.4,22-22c-0.6-3.6-1.8-5.1-4.5-7.6
	c-4.1-4-7.7-8.2-11.2-12.7c-2.1-2.6-4.4-5.1-6.7-7.6c-4-4.4-7.6-8.9-11.3-13.6c-3-3.8-6-7.6-9.1-11.4c-6.9-8.4-13.4-17.1-19.7-26
	c-1.5-2.1-3-4.2-4.5-6.3c-50.9-71-88.5-150.6-122-351.9c3.2-0.5,6.4-1,9.6-1.5c0.9-0.1,1.8-0.3,2.7-0.4s1.8-0.3,2.7-0.4
	c0.8-0.1,1.6-0.3,2.4-0.4c2.9-0.3,5.6-0.3,8.5-0.3c0.1,0.8,0.2,1.5,0.3,2.3c5.4,35.4,14,69.3,29.7,101.7c0.3,0.7,0.7,1.4,1,2.1
	c14.8,30.8,34.1,59,57.3,84c2.3,2.5,4.6,5.1,6.8,7.7c3.1,3.5,6.3,6.5,9.9,9.5c1.8,1.6,3.4,3.2,5.1,5c23.9,23.9,58.9,35.9,92.3,35.9
	c24-0.4,47.5-8.1,65.5-24.3c0.6-0.5,1.2-1,1.8-1.6c16.3-14.8,23.3-38.3,25.2-59.4c0.3-5.5,0.3-11,0.3-16.5c0-1.6,0-3.2,0-4.8
	c0-4.3,0-8.5,0-12.8c0-4.5,0-9,0-13.5c0-7.5,0-15,0-22.5c0-8.7,0-17.4,0-26.1c0-7.5,0-15,0-22.4c0-4.5,0-8.9,0-13.4
	c0-4.2,0-8.4,0-12.5c0-1.5,0-3.1,0-4.6c0-2.1,0-4.2,0-6.3c0-1.2,0-2.3,0-3.5c-0.3-3.1-0.8-5.3-2.3-8.1c-2.3-1.6-2.3-1.6-5.1-2.7
	c-4.8-2.1-4.8-2.1-5.9-4.3c-2.4-0.4-2.4-0.4-5.2-0.4c-5.6-0.4-9.4-1.5-13.7-5.2c-1.8-3.7-1.9-7.3-1.1-11.4c2.4-3,2.4-3,5-5
	c0.3-0.3,0.7-0.7,1-1c3,0,5.9,0,9,0c-0.3-5.9-0.7-11.9-1-18c-1.7,0.2-3.3,0.3-5,0.5c-39.5,4-79,8.1-118.6,12.1
	c-4.9,0.5-9.7,1-14.6,1.5c-1,0.1-1.9,0.2-2.9,0.3c-15.7,1.6-31.4,3.2-47.1,4.8c-16.1,1.6-32.2,3.3-48.3,4.9c-9.9,1-19.9,2-29.8,3
	c-6.8,0.7-13.6,1.4-20.4,2.1c-3.9,0.4-7.9,0.8-11.8,1.2c-3.6,0.4-7.2,0.7-10.8,1.1c-1.9,0.2-3.8,0.4-5.8,0.6
	c-1.1,0.1-2.3,0.2-3.4,0.3c-1.5,0.2-1.5,0.2-3,0.3c-2.2,0.2-4.4,0.2-6.6,0.2c0-36.6,0-73.3,0-111c10.1,0,10.1,0,15,0.5
	c1.7,0.2,1.7,0.2,3.4,0.3c1.2,0.1,2.4,0.2,3.6,0.4c1.3,0.1,2.6,0.3,3.9,0.4c3.6,0.4,7.1,0.7,10.7,1.1c3.8,0.4,7.7,0.8,11.5,1.2
	c7.5,0.8,15.1,1.5,22.6,2.3c8.8,0.9,17.5,1.8,26.3,2.7c15.6,1.6,31.3,3.2,46.9,4.8c15.2,1.5,30.4,3.1,45.5,4.6
	c0.9,0.1,1.9,0.2,2.8,0.3c0.9,0.1,1.9,0.2,2.8,0.3c17.3,1.8,34.6,3.5,51.9,5.3c6.1,0.6,12.2,1.2,18.3,1.9c7.4,0.8,14.9,1.5,22.3,2.3
	c3.8,0.4,7.6,0.8,11.4,1.2c4.1,0.4,8.2,0.8,12.3,1.3c1.2,0.1,2.4,0.2,3.7,0.4c1.1,0.1,2.2,0.2,3.3,0.3c1,0.1,1.9,0.2,2.9,0.3
	c2.6,0.3,5.1,0.8,7.6,1.3c0-5.9,0-11.9,0-18c-3.6,0-7.3,0-11,0c0-4.3,0-8.6,0-13c5.9-0.5,5.9-0.5,12-1c0.4-1.5,0.4-1.5,0.8-3
	c3.9-13.6,9.6-25.3,19.2-36c0.8-0.9,1.6-1.8,2.4-2.7c14.3-15.1,33-25.1,53.6-28.3c1.3,0,2.6,0,4,0c0-1.2-0.1-2.3-0.1-3.5
	c0-1.5-0.1-3.1-0.1-4.6c0-1.1,0-1.1-0.1-2.3c-0.1-5,0.5-8.3,3.3-12.6C434.3,97.4,437.8,96.6,442.9,97.6z M376.5,208
	c0,26.7,0,53.5,0,81c7.6,0,15.2,0,23,0c0-26.7,0-53.5,0-81C391.9,208,384.3,208,376.5,208z M424.5,208c0,26.7,0,53.5,0,81
	c10.2,0,20.5,0,31,0c0-26.7,0-53.5,0-81C445.3,208,435,208,424.5,208z M480.5,208c0,26.7,0,53.5,0,81c7.6,0,15.2,0,23,0
	c0-26.7,0-53.5,0-81C495.9,208,488.3,208,480.5,208z M388.5,321c0,95.4,0,190.7,0,289c12.8,1.6,12.8,1.6,25.6,2.6
	c1.2,0.1,2.5,0.1,3.8,0.2c6.9,0.2,13.8,0.1,20.7,0.1c0-96.4,0-192.7,0-292C422,321,405.5,321,388.5,321z"/>
<path class="st1" d="M440.5,98c7,1,7,1,9.9,2.9c3,4.4,2.6,8.2,2.4,13.4c0,1.4,0,1.4-0.1,2.8c-0.1,2.3-0.1,4.6-0.2,6.9
	c0.6,0,1.1,0.1,1.7,0.1c23.2,2.3,45.1,14.2,60.3,31.9c8.1,10,18,25.7,18,39c4.3,0,8.6,0,13,0c0,4.3,0,8.6,0,13c-3.6,0-7.3,0-11,0
	c0,5.9,0,11.9,0,18c1.8-0.2,3.5-0.4,5.4-0.6c30.1-3.5,60.3-6.6,90.4-9.6c4.7-0.5,9.4-1,14-1.4c15.5-1.6,31-3.2,46.6-4.7
	c0.8-0.1,1.7-0.2,2.5-0.3s1.7-0.2,2.5-0.3c13.5-1.4,27.1-2.8,40.6-4.1c14-1.4,27.9-2.9,41.9-4.3c7.8-0.8,15.6-1.6,23.4-2.4
	c6.6-0.7,13.3-1.4,19.9-2c3.4-0.3,6.8-0.7,10.1-1c3.7-0.4,7.3-0.7,11-1.1c1.1-0.1,2.1-0.2,3.2-0.3c1-0.1,2-0.2,3-0.3
	c0.8-0.1,1.7-0.2,2.6-0.3c4-0.2,7.9-0.2,11.9-0.2c0,36.6,0,73.3,0,111c-49.5-4.6-49.5-4.6-73.9-7.1c-2.8-0.3-5.6-0.6-8.4-0.9
	c-6.7-0.7-13.4-1.4-20-2c-5.4-0.6-10.8-1.1-16.3-1.7c-15.5-1.6-30.9-3.2-46.4-4.7c-0.8-0.1-1.6-0.2-2.5-0.3
	c-0.8-0.1-1.6-0.2-2.5-0.3c-13.5-1.4-27-2.7-40.4-4.1c-13.9-1.4-27.8-2.8-41.7-4.3c-7.8-0.8-15.6-1.6-23.4-2.4
	c-6.6-0.7-13.2-1.3-19.8-2c-3.4-0.3-6.7-0.7-10.1-1c-3.6-0.4-7.3-0.7-10.9-1.1c-1.1-0.1-2.1-0.2-3.2-0.3c-1-0.1-1.9-0.2-2.9-0.3
	c-0.8-0.1-1.7-0.2-2.5-0.3c-2-0.3-2-0.3-4-1.3c0,6.3,0,12.5,0,19c2.6,0,5.3,0,8,0c3,0.9,3.8,1.8,5.8,4.2c1.6,3.6,1.7,5.9,1.2,9.8
	c-1.7,3.4-2.9,5.4-6.3,7.1c-3,0.9-5.6,1.1-8.7,1.2c-4.9,0.3-4.9,0.3-8.9,3.1c-0.7,0.9-1.4,1.7-2.1,2.6c-2,1-4,2-6,3
	c-1.1,3.4-1.1,6-1.1,9.5c0,0.7,0,1.3,0,2c0,2.2,0,4.5,0,6.7c0,1.6,0,3.2,0,4.8c0,4.4,0,8.8,0,13.1c0,2.7,0,5.5,0,8.2
	c0,8.6,0,17.2,0,25.8c0,9.9,0,19.8-0.1,29.6c0,7.7,0,15.3,0,23c0,4.6,0,9.1,0,13.7c0,4.3,0,8.6,0,12.9c0,1.6,0,3.1,0,4.7
	c-0.2,26.1,6.1,51.2,24.7,70.2c0.9,0.9,1.7,1.7,2.6,2.6c0.7,0.7,1.3,1.3,2,2c17.7,16.8,45.1,22.8,68.9,22.3
	c37.1-2.2,68-17.5,94.1-43.3c1.6-1.5,3.1-3.1,4.7-4.6c8-7.8,15.5-15.6,22.3-24.4c0.9-1.1,1.8-2.1,2.6-3.2
	C763,466,782,431.1,794.7,394.8c0.3-0.9,0.6-1.7,0.9-2.6c7.8-22.6,12.5-45.8,16.1-69.4c8.8,0.5,17.3,1.4,26,3
	c0.2,11-0.3,21.8-1.2,32.8c-0.1,0.8-0.1,1.6-0.2,2.5c-3.4,41.7-11.2,82.8-23.6,122.8c-0.3,1-0.3,1-0.6,2
	c-9.5,30.6-21.5,60.1-35.4,89c-0.7,1.5-0.7,1.5-1.5,3.1c-22.2,45.9-50.4,88.5-81.3,128.9c-0.6,0.7-1.1,1.5-1.7,2.2
	c-1.5,1.8-1.5,1.8-3.5,2.8c-30.8,1.4-64.4-10.7-93.7-19.1c-37.4-10.6-75.1-19.2-114.2-19c-1,0-2.1,0-3.1,0c-3.8,0-7.6,0-11.3,0
	c-12.7,0-12.7,0-25.7,0.1c0-19.8,0-39.6,0-60c-0.7,0-1.3,0-2,0c0-97,0-194,0-294c0.7,0,1.3,0,2,0c0-10.2,0-20.5,0-31c5,0,9.9,0,15,0
	c0-27.1,0-54.1,0-82c-5,0-9.9,0-15,0C440.5,171,440.5,135.1,440.5,98z M480.5,208c0,26.7,0,53.5,0,81c7.6,0,15.2,0,23,0
	c0-26.7,0-53.5,0-81C495.9,208,488.3,208,480.5,208z"/>
<path class="st2" d="M469.6,752.8c0.7,0,1.5,0.1,2.2,0.1c33.6,2,66.3,8.5,98.7,17.6c6.5,1.8,13,3.6,19.4,5.4c1.8,0.5,3.5,1,5.3,1.5
	c10.1,2.8,20.1,5.5,30.3,7.8c9.5,2.2,18.8,5,28.1,8c40,12.9,84,17.9,123-1.1c7.1-3.7,13.8-7.9,19.9-13c0.3,0.7,0.7,1.3,1,2
	c-9.9,20.9-31.9,36.6-53.1,44.2c-2.9,1-5.9,1.9-8.9,2.8c-0.7,0.2-1.5,0.4-2.2,0.6c-21.4,5.9-46.2,5.3-67.8,0.4
	c-0.7-0.2-1.4-0.3-2.1-0.5c-8.8-2-17.3-4.6-25.9-7.3c-58.7-18-115.5-14.8-171.9,10.8c0.7-0.2,1.4-0.3,2.2-0.5
	c83.4-19,83.4-19,111.8-3.5c-5,5.2-10.2,9.9-15.9,14.5c-3.6,2.9-7,5.9-10.4,8.9c-6.5,5.7-13.2,11-20,16.3c-1.7,1.3-3.4,2.7-5.2,4
	c-19.5,15.5-39.8,29.8-60.5,43.7c-0.7,0.5-1.4,1-2.2,1.5c-4,2.7-8.1,5.4-12.1,8c-1.6,1.1-3.2,2.1-4.8,3.2c-0.9,0.6-1.7,1.1-2.6,1.7
	c-0.7,0.5-1.4,1-2.2,1.5c-3.3,1.1-5.1,0.1-8.2-1.3c-1.8-1-3.6-2.1-5.4-3.2c-1-0.6-2-1.3-3-1.9c-1.1-0.7-2.1-1.4-3.2-2.1
	c-1.1-0.7-2.2-1.4-3.4-2.2c-27.9-18.1-54.6-38.1-80.3-59.1c-1.6-1.3-3.2-2.6-4.7-3.9c-9.8-8-19.4-16.1-28.8-24.5
	c-2-1.8-4.1-3.6-6.1-5.4c-7.4-6.4-14.6-13-21.5-20c-2.4-2.4-5-4.6-7.6-6.8c-3.1-2.8-6.1-5.8-9-8.8c1-3,1-3,3-4.1
	c0.9-0.3,1.8-0.7,2.7-1c1-0.4,2-0.8,3-1.2c1.1-0.4,2.2-0.8,3.4-1.3c1.2-0.4,2.3-0.9,3.5-1.3c32.6-12.1,66.1-20.6,100.4-26.1
	c0.9-0.2,1.9-0.3,2.9-0.5c12.8-2,25.6-3,38.6-3.7c0.8,0,1.5-0.1,2.3-0.1C438.1,751.8,453.8,751.8,469.6,752.8z"/>
<path class="st3" d="M453.5,752c0,0.3,0,0.7,0,1c-4.3,0-8.6,0-13,0c0.3,59.1,0.7,118.1,1,179c-4.6-1.5-7.4-2.7-11.4-5.2
	c-1-0.6-2-1.3-3-1.9c-1.1-0.7-2.1-1.4-3.2-2.1c-1.1-0.7-2.2-1.4-3.4-2.2c-27.9-18.1-54.6-38.1-80.3-59.1c-1.6-1.3-3.2-2.6-4.7-3.9
	c-9.8-8-19.4-16.1-28.8-24.5c-2-1.8-4.1-3.6-6.1-5.4c-7.4-6.4-14.6-13-21.5-20c-2.4-2.4-5-4.6-7.6-6.8c-3.1-2.8-6.1-5.8-9-8.8
	c1-3,1-3,3-4.1c0.9-0.3,1.8-0.7,2.7-1c1-0.4,2-0.8,3-1.2c1.1-0.4,2.2-0.8,3.4-1.3c1.2-0.4,2.3-0.9,3.5-1.3
	c32.6-12.1,66.1-20.6,100.4-26.1c0.9-0.2,1.9-0.3,2.9-0.5c12.8-2,25.6-3,38.6-3.7c0.8,0,1.5-0.1,2.3-0.1
	C432.7,752.1,443.1,751.9,453.5,752z"/>
<path class="st4" d="M191.5,25c0,1,0,2,0,3c-1.9,1.8-1.9,1.8-4.7,3.9c-6.4,5-12.1,10.6-17.8,16.3c-1.7,1.7-3.4,3.4-5.1,5
	c-6.6,6.6-12.7,13.4-18.5,20.8c-1,1.2-2,2.5-3,3.7c-24.1,29.4-42,63-56,98.3c-4.6-0.3-9.2-0.7-14-1c2.2-7.4,5.4-14.1,9-20.9
	c0.9-1.6,0.9-1.6,1.7-3.3c10.7-20.1,23.1-38.9,37.3-56.7c0.7-0.9,1.5-1.9,2.2-2.8c4.8-6,9.9-11.6,15.1-17.2c2.5-2.7,5-5.5,7.5-8.2
	c5.4-6,11-11.6,17.1-16.8c2.3-2,4.5-4.1,6.8-6.1C176.2,36.4,183.6,30.3,191.5,25z"/>
<path class="st5" d="M688.5,25c8.4,5.1,15.7,11.5,23,18c0.9,0.8,1.8,1.6,2.8,2.4c6.7,6,13,12.3,19.4,18.6c1,1,2,2,3,3
	c6.7,6.7,12.9,13.6,18.8,21c1,1.2,2,2.4,3,3.7c19.1,23.3,42.6,53.7,50,83.3c-4.6,0.3-9.2,0.7-14,1c-2.4-5.2-4.7-10.3-6.9-15.6
	C774.1,128,756.1,98.9,733.5,72c-0.8-1-1.6-2-2.5-3c-6.3-7.6-13.1-14.7-20.1-21.8c-0.9-0.9-1.7-1.7-2.6-2.6
	c-5.3-5.3-10.8-10.1-16.7-14.6C689.5,28,689.5,28,688.5,25z"/>
<path class="st6" d="M191.5,25c0,1,0,2,0,3c-2,1.9-2,1.9-4.8,4c-4.3,3.4-8.2,6.8-12,10.7c-0.5,0.5-0.9,1-1.4,1.5
	c-1.9,2-3.9,4-5.8,5.9c-1.4,1.5-2.9,2.9-4.3,4.4c-0.8,0.9-1.7,1.7-2.5,2.6c-2.2,1.9-2.2,1.9-5.2,1.9c-2.1,1.7-2.1,1.7-4.2,3.9
	c-1.2,1.2-1.2,1.2-2.4,2.5c-0.8,0.9-1.7,1.7-2.5,2.6s-1.7,1.7-2.6,2.6c-2.1,2.1-4.2,4.3-6.3,6.4c-0.7-0.3-1.3-0.7-2-1
	C152.8,57.1,171.1,40.5,191.5,25z"/>
<path class="st7" d="M688.5,25c5.8,3.5,11.1,7.6,16.2,12.1c0.6,0.5,1.2,1,1.8,1.5c3.5,3,6.8,6.1,10,9.4c-1.7,0.8-1.7,0.8-4,1
	c-2.1-1.7-3.8-3.4-5.6-5.4c-4.8-5.1-9.8-9.5-15.4-13.8C689.5,28,689.5,28,688.5,25z"/>
<path class="st8" d="M235.5,761c-1.4,3.2-3,5.3-5.5,7.7c-0.7,0.7-1.3,1.3-2,2s-1.4,1.4-2.1,2.1s-1.4,1.4-2.1,2.1
	c-1.7,1.7-3.5,3.4-5.2,5.1c0.7,0.7,1.3,1.3,2,2c-1.3,0.7-2.6,1.4-3.9,2.1c-1.1,0.6-1.1,0.6-2.2,1.2c-0.6,0.3-1.3,0.5-1.9,0.8
	c-0.7-0.3-1.3-0.7-2-1c11.3-12.4,11.3-12.4,16.5-17.5c1-1,2-2,3-3C233.3,761,233.3,761,235.5,761z"/>
<path class="st9" d="M191.5,25c0,1,0,2,0,3c-2.1,2-2.1,2-5,4.2c-5,4-9.6,8.2-14,12.8c-0.7-1-1.3-2-2-3
	C177.2,35.8,184.2,30.4,191.5,25z"/>
<path class="st10" d="M171.5,43c-0.3,3.3-1,4-3.6,6.2c-0.8,0.6-1.6,1.2-2.4,1.8c0-0.7,0-1.3,0-2c-0.7-0.3-1.3-0.7-2-1
	C169.3,43,169.3,43,171.5,43z"/>
<path class="st11" d="M688.5,25c9.6,6.2,9.6,6.2,13,10c-1,0.3-2,0.7-3,1c-1.7-1.5-3.3-2.9-5-4.4c-1.4-1.2-1.4-1.2-2.8-2.5
	c-0.7-0.7-1.4-1.4-2.2-2.2C688.5,26.3,688.5,25.7,688.5,25z"/>
<path class="st12" d="M699.5,35c3.9,0.6,6.2,2.4,9,5c0,0.7,0,1.3,0,2c-2.4-0.2-3.7-0.7-5.4-2.4C701.9,38.1,700.7,36.5,699.5,35z"/>
<path class="st13" d="M191.5,25c0,1,0,2,0,3c-1.8,1.6-1.8,1.6-4,3.2c-0.7,0.5-1.5,1.1-2.2,1.6c-0.6,0.4-1.2,0.8-1.8,1.2c0-1,0-2,0-3
	c1.8-1.6,1.8-1.6,4-3.2c0.7-0.5,1.5-1.1,2.2-1.6C190.3,25.8,190.9,25.4,191.5,25z"/>
<path class="st14" d="M337.5,289c1,0.3,2,0.7,3,1c-0.5,0.4-1,0.8-1.5,1.2c-0.9,0.8-0.9,0.8-1.9,1.6c-0.6,0.5-1.3,1-1.9,1.6
	c-1.9,1.7-1.9,1.7-3.7,4.6C331.9,294.2,334,292.2,337.5,289z"/>
<path class="st15" d="M713.5,47c2.5,1,2.5,1,5,2c-0.3,1.3-0.7,2.6-1,4c-2-1.3-2-1.3-4-3C713.5,49,713.5,48,713.5,47z"/>
</svg>
