<?xml version="1.0" standalone="no"?>
<!DOCTYPE svg PUBLIC "-//W3C//DTD SVG 20010904//EN"
 "http://www.w3.org/TR/2001/REC-SVG-20010904/DTD/svg10.dtd">
<svg version="1.0" xmlns="http://www.w3.org/2000/svg"
 width="256.000000pt" height="256.000000pt" viewBox="0 0 256.000000 256.000000"
 preserveAspectRatio="xMidYMid meet">

<g transform="translate(0.000000,256.000000) scale(0.100000,-0.100000)"
fill="#000000" stroke="none">
<path d="M250 2507 l-45 -22 44 -3 c55 -4 71 2 71 28 0 26 -14 25 -70 -3z"/>
<path d="M2250 2505 c0 -24 3 -25 58 -25 l57 1 -45 24 c-58 31 -70 31 -70 0z"/>
<path d="M274 2425 c-13 -34 3 -45 66 -45 l60 0 0 30 0 30 -60 0 c-45 0 -62
-4 -66 -15z"/>
<path d="M2164 2425 c-13 -34 3 -45 66 -45 l60 0 0 30 0 30 -60 0 c-45 0 -62
-4 -66 -15z"/>
<path d="M1250 2367 c0 -2 -27 -77 -60 -167 -33 -90 -60 -165 -60 -167 0 -2
32 -3 70 -3 62 0 74 -3 95 -25 14 -13 25 -34 24 -47 0 -13 -35 -117 -77 -233
l-77 -210 -64 -3 c-49 -2 -62 0 -59 10 3 7 35 94 71 193 36 99 70 193 76 208
l11 28 -52 -3 -51 -3 -37 -100 c-20 -55 -56 -153 -79 -217 l-43 -118 -59 0
c-32 0 -59 4 -59 9 0 6 52 153 116 328 207 568 187 505 161 498 -12 -3 -56
-23 -97 -43 -142 -70 -264 -221 -304 -378 -21 -81 -21 -243 0 -315 39 -134
138 -270 249 -344 62 -41 184 -90 196 -78 5 6 232 619 301 816 l10 27 134 0
c130 0 136 -1 159 -25 14 -13 25 -33 25 -44 0 -26 -144 -419 -159 -434 -7 -7
-57 -14 -119 -17 l-106 -5 -63 -170 c-34 -93 -63 -171 -63 -172 0 -8 70 -1
138 13 125 25 214 74 308 168 153 154 212 345 169 550 -56 265 -309 476 -570
476 -30 0 -55 -1 -55 -3z"/>
<path d="M52 2315 c-17 -37 -17 -36 41 -33 48 3 52 5 55 31 3 26 1 27 -41 27
-37 0 -46 -4 -55 -25z"/>
<path d="M192 2313 c3 -27 5 -28 63 -28 57 0 60 1 60 25 0 24 -3 25 -63 28
l-63 3 3 -28z"/>
<path d="M355 2330 c-3 -5 -3 -19 0 -31 6 -18 14 -20 68 -17 59 3 62 4 62 28
0 24 -3 25 -62 28 -35 2 -64 -2 -68 -8z"/>
<path d="M2082 2313 c3 -27 5 -28 63 -28 57 0 60 1 60 25 0 24 -3 25 -63 28
l-63 3 3 -28z"/>
<path d="M2250 2310 l0 -31 63 3 c59 3 62 4 62 28 0 24 -3 25 -62 28 l-63 3 0
-31z"/>
<path d="M2414 2325 c-13 -33 4 -45 61 -45 l56 0 -16 30 c-13 26 -21 30 -56
30 -26 0 -42 -5 -45 -15z"/>
<path d="M109 2234 c-24 -29 1 -49 61 -49 38 0 56 5 63 17 18 28 -9 48 -63 48
-31 0 -52 -5 -61 -16z"/>
<path d="M2334 2236 c-3 -8 -4 -23 -2 -33 3 -15 13 -18 63 -18 60 0 60 0 60
30 0 30 -1 30 -58 33 -43 2 -59 -1 -63 -12z"/>
<path d="M23 2134 c-12 -32 11 -49 68 -49 53 0 54 0 54 30 0 30 -1 30 -58 33
-46 2 -58 0 -64 -14z"/>
<path d="M359 2134 c-24 -29 1 -49 61 -49 38 0 56 5 63 17 18 28 -9 48 -63 48
-31 0 -52 -5 -61 -16z"/>
<path d="M523 2134 c-12 -32 11 -49 68 -49 53 0 54 0 54 30 0 30 -1 30 -58 33
-46 2 -58 0 -64 -14z"/>
<path d="M1913 2134 c-12 -32 11 -49 68 -49 53 0 54 0 54 30 0 30 -1 30 -58
33 -46 2 -58 0 -64 -14z"/>
<path d="M2084 2136 c-13 -33 0 -51 40 -54 65 -5 88 4 84 36 -3 25 -6 27 -61
30 -43 2 -59 -1 -63 -12z"/>
<path d="M2413 2134 c-12 -32 11 -49 68 -49 53 0 54 0 54 30 0 30 -1 30 -58
33 -46 2 -58 0 -64 -14z"/>
<path d="M107 2035 c-14 -35 3 -46 67 -43 58 3 61 4 61 28 0 24 -3 25 -61 28
-48 2 -63 0 -67 -13z"/>
<path d="M2337 2044 c-4 -4 -7 -18 -7 -31 0 -23 2 -24 63 -21 59 3 62 4 62 28
0 23 -4 25 -55 28 -31 2 -59 0 -63 -4z"/>
<path d="M194 1936 c-14 -36 3 -47 63 -44 54 3 58 5 58 28 0 23 -4 25 -58 28
-44 2 -59 0 -63 -12z"/>
<path d="M357 1935 c-14 -35 3 -46 67 -43 58 3 61 4 61 28 0 24 -3 25 -61 28
-48 2 -63 0 -67 -13z"/>
<path d="M524 1935 c-13 -34 3 -45 66 -45 l60 0 0 30 0 30 -60 0 c-45 0 -62
-4 -66 -15z"/>
<path d="M1539 1923 c-36 -92 -119 -327 -119 -335 0 -5 21 -8 47 -6 l48 3 38
105 c22 58 52 140 67 183 l29 77 -50 0 c-45 0 -51 -3 -60 -27z"/>
<path d="M1914 1935 c-13 -34 3 -45 66 -45 l60 0 0 30 0 30 -60 0 c-45 0 -62
-4 -66 -15z"/>
<path d="M2084 1936 c-14 -36 3 -47 63 -44 54 3 58 5 58 28 0 23 -4 25 -58 28
-44 2 -59 0 -63 -12z"/>
<path d="M2250 1920 l0 -31 63 3 c59 3 62 4 62 28 0 24 -3 25 -62 28 l-63 3 0
-31z"/>
<path d="M0 1820 c0 -29 2 -31 33 -28 27 2 32 7 32 28 0 21 -5 26 -32 28 -31
3 -33 1 -33 -28z"/>
<path d="M104 1835 c-12 -30 16 -46 75 -43 52 3 56 5 56 28 0 24 -3 25 -63 28
-49 2 -64 0 -68 -13z"/>
<path d="M2332 1823 c3 -27 5 -28 63 -28 57 0 60 1 60 25 0 24 -3 25 -63 28
l-63 3 3 -28z"/>
<path d="M2495 1840 c-14 -22 6 -50 36 -50 26 0 29 3 29 30 0 27 -3 30 -29 30
-17 0 -33 -5 -36 -10z"/>
<path d="M194 1746 c-3 -8 -4 -23 -2 -33 3 -15 13 -18 63 -18 60 0 60 0 60 30
0 30 -1 30 -58 33 -43 2 -59 -1 -63 -12z"/>
<path d="M359 1744 c-24 -29 1 -49 61 -49 38 0 56 5 63 17 18 28 -9 48 -63 48
-31 0 -52 -5 -61 -16z"/>
<path d="M2084 1746 c-3 -8 -4 -23 -2 -33 3 -15 13 -18 63 -18 60 0 60 0 60
30 0 30 -1 30 -58 33 -43 2 -59 -1 -63 -12z"/>
<path d="M2254 1746 c-15 -38 0 -51 55 -51 61 0 86 20 62 49 -18 21 -109 22
-117 2z"/>
<path d="M0 1626 c0 -31 3 -36 23 -36 33 0 49 15 45 41 -2 19 -10 25 -35 27
-32 3 -33 2 -33 -32z"/>
<path d="M109 1644 c-22 -27 1 -49 58 -52 56 -3 79 13 68 48 -5 17 -15 20 -59
20 -37 0 -58 -5 -67 -16z"/>
<path d="M2334 1646 c-13 -33 0 -51 40 -54 65 -5 88 4 84 36 -3 25 -6 27 -61
30 -43 2 -59 -1 -63 -12z"/>
<path d="M2499 1644 c-18 -21 0 -48 35 -52 24 -3 26 0 26 32 0 31 -3 36 -24
36 -13 0 -29 -7 -37 -16z"/>
<path d="M24 1546 c-13 -35 3 -46 66 -46 61 0 61 0 58 28 -3 26 -6 27 -61 30
-44 2 -59 0 -63 -12z"/>
<path d="M197 1554 c-4 -4 -7 -18 -7 -31 0 -23 2 -24 63 -21 59 3 62 4 62 28
0 23 -4 25 -55 28 -31 2 -59 0 -63 -4z"/>
<path d="M2250 1530 l0 -31 63 3 c59 3 62 4 62 28 0 24 -3 25 -62 28 l-63 3 0
-31z"/>
<path d="M2414 1546 c-13 -35 3 -46 66 -46 61 0 61 0 58 28 -3 26 -6 27 -61
30 -44 2 -59 0 -63 -12z"/>
<path d="M107 1445 c-14 -35 3 -46 67 -43 58 3 61 4 61 28 0 24 -3 25 -61 28
-48 2 -63 0 -67 -13z"/>
<path d="M274 1445 c-13 -34 3 -45 66 -45 l60 0 0 30 0 30 -60 0 c-45 0 -62
-4 -66 -15z"/>
<path d="M442 1433 c3 -27 5 -28 63 -28 57 0 60 1 60 25 0 24 -3 25 -63 28
l-63 3 3 -28z"/>
<path d="M1997 1445 c-14 -35 3 -46 67 -43 58 3 61 4 61 28 0 24 -3 25 -61 28
-48 2 -63 0 -67 -13z"/>
<path d="M2164 1445 c-13 -34 3 -45 66 -45 l60 0 0 30 0 30 -60 0 c-45 0 -62
-4 -66 -15z"/>
<path d="M2334 1446 c-14 -36 3 -47 63 -44 54 3 58 5 58 28 0 23 -4 25 -58 28
-44 2 -59 0 -63 -12z"/>
<path d="M24 1345 c-14 -35 3 -46 63 -43 55 3 58 4 61 31 3 27 3 27 -58 27
-45 0 -62 -4 -66 -15z"/>
<path d="M2414 1345 c-14 -35 3 -46 63 -43 55 3 58 4 61 31 3 27 3 27 -58 27
-45 0 -62 -4 -66 -15z"/>
<path d="M0 1235 c0 -35 1 -36 33 -33 28 3 32 6 32 33 0 27 -4 30 -32 33 -32
3 -33 2 -33 -33z"/>
<path d="M109 1254 c-25 -30 1 -49 67 -49 49 0 59 3 62 18 6 31 -17 47 -68 47
-31 0 -52 -5 -61 -16z"/>
<path d="M274 1256 c-3 -8 -4 -23 -2 -33 3 -15 13 -18 63 -18 60 0 60 0 60 30
0 30 -1 30 -58 33 -43 2 -59 -1 -63 -12z"/>
<path d="M444 1256 c-3 -8 -4 -23 -2 -33 3 -15 13 -18 63 -18 60 0 60 0 60 30
0 30 -1 30 -58 33 -43 2 -59 -1 -63 -12z"/>
<path d="M1999 1254 c-24 -29 1 -49 61 -49 38 0 56 5 63 17 18 28 -9 48 -63
48 -31 0 -52 -5 -61 -16z"/>
<path d="M2172 1261 c-8 -4 -12 -19 -10 -32 3 -22 7 -24 63 -24 l60 0 0 30 c0
29 -2 30 -50 33 -27 1 -56 -2 -63 -7z"/>
<path d="M2334 1256 c-3 -8 -4 -23 -2 -33 3 -15 13 -18 63 -18 60 0 60 0 60
30 0 30 -1 30 -58 33 -43 2 -59 -1 -63 -12z"/>
<path d="M2499 1254 c-18 -21 0 -48 35 -52 24 -3 26 0 26 32 0 31 -3 36 -24
36 -13 0 -29 -7 -37 -16z"/>
<path d="M194 1156 c-3 -8 -4 -23 -2 -33 3 -15 13 -18 63 -18 60 0 60 0 60 30
0 30 -1 30 -58 33 -43 2 -59 -1 -63 -12z"/>
<path d="M523 1154 c-12 -32 11 -49 68 -49 53 0 54 0 54 30 0 30 -1 30 -58 33
-46 2 -58 0 -64 -14z"/>
<path d="M1913 1154 c-12 -32 11 -49 68 -49 53 0 54 0 54 30 0 30 -1 30 -58
33 -46 2 -58 0 -64 -14z"/>
<path d="M2249 1154 c-22 -27 1 -49 58 -52 56 -3 79 13 68 48 -5 17 -15 20
-59 20 -37 0 -58 -5 -67 -16z"/>
<path d="M0 1041 c0 -29 3 -31 36 -31 33 0 35 2 32 28 -2 22 -8 28 -35 30 -31
3 -33 1 -33 -27z"/>
<path d="M2495 1050 c-9 -28 2 -40 36 -40 26 0 29 3 29 30 0 27 -3 30 -29 30
-21 0 -32 -6 -36 -20z"/>
<path d="M24 955 c-13 -34 3 -45 66 -45 l60 0 0 30 0 30 -60 0 c-45 0 -62 -4
-66 -15z"/>
<path d="M192 943 c3 -27 5 -28 63 -28 57 0 60 1 60 25 0 24 -3 25 -63 28
l-63 3 3 -28z"/>
<path d="M2244 955 c-14 -35 3 -46 68 -43 60 3 63 4 63 28 0 24 -3 25 -63 28
-49 2 -64 0 -68 -13z"/>
<path d="M2414 955 c-13 -34 3 -45 66 -45 l60 0 0 30 0 30 -60 0 c-45 0 -62
-4 -66 -15z"/>
<path d="M280 865 c-6 -8 -10 -22 -8 -32 3 -15 15 -19 65 -21 55 -3 62 -1 68
18 4 12 1 27 -5 35 -17 20 -103 20 -120 0z"/>
<path d="M444 866 c-3 -8 -4 -23 -2 -33 3 -15 13 -18 63 -18 56 0 60 2 63 24
5 31 -12 41 -71 41 -32 0 -49 -5 -53 -14z"/>
<path d="M2000 865 c-6 -8 -10 -22 -8 -32 3 -15 14 -18 68 -18 54 0 65 3 68
18 6 31 -17 47 -68 47 -29 0 -52 -6 -60 -15z"/>
<path d="M2172 871 c-8 -4 -12 -19 -10 -32 3 -22 7 -24 63 -24 l60 0 0 30 c0
29 -2 30 -50 33 -27 1 -56 -2 -63 -7z"/>
<path d="M1570 833 c-54 -21 -90 -84 -89 -155 1 -47 2 -49 9 -21 33 139 198
146 229 10 l9 -42 1 53 c1 63 -18 115 -52 137 -28 18 -84 28 -107 18z"/>
<path d="M810 801 c0 -25 1 -26 55 -23 50 4 55 6 55 27 0 21 -4 23 -55 23 -53
0 -55 -2 -55 -27z"/>
<path d="M194 766 c-3 -8 -4 -23 -2 -33 3 -15 13 -18 63 -18 60 0 60 0 60 30
0 30 -1 30 -58 33 -43 2 -59 -1 -63 -12z"/>
<path d="M2250 765 c-6 -8 -10 -22 -8 -32 3 -15 15 -19 65 -21 53 -3 62 0 67
16 13 39 -3 52 -59 52 -34 0 -57 -5 -65 -15z"/>
<path d="M1101 638 c-1 -65 3 -118 7 -118 8 0 5 202 -3 225 -2 6 -4 -43 -4
-107z"/>
<path d="M809 555 c-3 -93 -3 -176 -1 -183 3 -9 21 -12 61 -10 l56 3 3 60 c1
33 -2 110 -6 170 l-9 110 -2 -132 -1 -133 -45 0 -44 0 -3 143 -3 142 -6 -170z"/>
<path d="M0 645 c0 -35 1 -36 33 -33 28 3 32 6 32 33 0 27 -4 30 -32 33 -32 3
-33 2 -33 -33z"/>
<path d="M105 660 c-11 -36 12 -51 74 -48 55 3 56 4 56 33 0 30 0 30 -62 33
-55 3 -62 1 -68 -18z"/>
<path d="M277 673 c-13 -12 -7 -51 9 -57 9 -3 35 -6 59 -6 48 0 70 18 60 50
-5 17 -15 20 -64 20 -32 0 -61 -3 -64 -7z"/>
<path d="M2164 666 c-3 -8 -4 -23 -2 -33 3 -15 13 -18 63 -18 l60 0 3 33 3 32
-61 0 c-44 0 -62 -4 -66 -14z"/>
<path d="M2334 666 c-3 -8 -4 -23 -2 -33 3 -15 13 -18 63 -18 60 0 60 0 60 30
0 30 -1 30 -58 33 -43 2 -59 -1 -63 -12z"/>
<path d="M2495 669 c-4 -5 -4 -21 -1 -35 5 -19 13 -24 36 -24 28 0 30 3 30 35
0 32 -2 35 -29 35 -17 0 -33 -5 -36 -11z"/>
<path d="M1826 630 c-14 -75 -36 -119 -76 -150 -93 -74 -254 -57 -321 34 -13
17 -31 58 -41 91 l-18 60 4 -76 c7 -118 53 -191 143 -225 63 -24 168 -15 217
19 73 49 110 133 104 237 l-3 55 -9 -45z"/>
<path d="M23 564 c-12 -32 10 -47 67 -47 57 0 79 15 67 47 -5 12 -20 16 -67
16 -47 0 -62 -4 -67 -16z"/>
<path d="M354 565 c-12 -31 4 -45 56 -46 27 -1 56 -2 63 -3 7 -1 12 11 12 29
0 30 0 30 -63 33 -49 2 -64 0 -68 -13z"/>
<path d="M993 475 l2 -110 175 0 175 0 3 50 c3 40 1 48 -9 38 -9 -9 -58 -13
-171 -13 l-158 0 -1 48 c-1 26 -5 58 -9 72 -5 16 -8 -16 -7 -85z"/>
<path d="M2082 548 c2 -19 8 -33 16 -32 6 1 35 2 63 3 49 1 50 2 47 29 -3 26
-6 27 -66 30 l-63 3 3 -33z"/>
<path d="M2414 566 c-8 -22 0 -51 14 -50 6 1 35 2 62 3 49 1 50 2 50 31 l0 30
-60 0 c-44 0 -62 -4 -66 -14z"/>
<path d="M0 457 c0 -31 3 -35 31 -39 34 -5 43 6 37 44 -2 18 -10 24 -35 26
-31 3 -33 2 -33 -31z"/>
<path d="M110 475 c-6 -8 -10 -22 -8 -32 3 -15 15 -19 71 -21 l67 -3 0 29 c0
18 -6 32 -16 36 -30 12 -101 6 -114 -9z"/>
<path d="M447 484 c-4 -4 -7 -20 -7 -36 0 -27 1 -28 55 -28 30 0 58 0 63 0 4
0 7 15 7 33 0 32 0 32 -55 35 -31 2 -59 0 -63 -4z"/>
<path d="M2000 475 c-6 -8 -10 -22 -8 -32 3 -15 14 -18 68 -18 54 0 65 3 68
18 2 10 -2 24 -8 32 -17 20 -103 20 -120 0z"/>
<path d="M2332 478 c-14 -14 -16 -40 -2 -54 5 -5 35 -7 67 -4 57 5 58 6 58 35
0 29 -1 30 -55 33 -34 2 -60 -2 -68 -10z"/>
<path d="M2500 475 c-21 -25 -8 -50 28 -53 31 -3 32 -2 32 32 0 31 -3 36 -24
36 -13 0 -29 -7 -36 -15z"/>
<path d="M24 376 c-14 -37 0 -51 56 -57 l55 -6 -53 -1 -52 -2 15 -37 c9 -21
23 -45 32 -55 15 -17 76 -18 1209 -18 l1192 0 20 33 c11 17 23 42 27 55 6 21
3 22 -47 24 l-53 1 55 6 c53 6 55 7 58 39 l3 32 -61 0 c-54 0 -62 -3 -69 -23
-5 -12 -7 -25 -4 -29 2 -5 -39 -8 -91 -8 -52 0 -98 -4 -101 -10 -3 -6 -32 -9
-63 -8 l-57 1 55 6 c53 6 55 7 55 36 0 30 0 30 -59 30 -61 0 -60 0 -86 -55 -5
-11 -25 -15 -71 -16 l-64 -1 55 6 c53 6 55 7 58 39 l3 33 -63 -3 c-60 -3 -63
-4 -66 -30 l-3 -28 -625 0 c-604 0 -624 1 -624 19 0 31 -25 42 -82 39 -52 -3
-53 -4 -53 -33 0 -29 2 -30 55 -36 l55 -6 -55 -1 c-61 -2 -86 12 -92 48 -3 23
-8 25 -64 28 -50 2 -63 0 -68 -14 -14 -38 2 -53 62 -57 l57 -3 -62 -2 c-34 -1
-65 3 -68 8 -3 6 -46 10 -96 10 -79 0 -89 2 -89 18 0 30 -22 42 -77 42 -38 0
-55 -4 -59 -14z m2446 -106 c6 -12 8 -30 5 -40 -6 -17 -15 -20 -68 -18 l-62 1
55 6 c54 6 55 6 55 39 0 38 1 38 15 12z m-2367 -8 c-6 -26 16 -40 72 -45 39
-3 35 -4 -15 -3 -54 1 -65 4 -68 19 -4 18 4 47 12 47 2 0 2 -8 -1 -18z"/>
<path d="M189 158 c7 -33 7 -33 65 -33 62 0 86 16 73 49 -5 13 -21 16 -75 16
l-69 0 6 -32z"/>
<path d="M353 174 c-13 -33 10 -49 73 -49 59 0 59 0 59 30 0 30 0 30 -63 33
-51 2 -63 0 -69 -14z"/>
<path d="M2073 174 c-13 -33 10 -49 73 -49 57 0 58 1 65 31 l6 31 -69 2 c-56
2 -69 -1 -75 -15z"/>
<path d="M2244 176 c-3 -8 -4 -23 -2 -33 3 -15 13 -18 62 -18 62 0 86 16 73
49 -9 22 -125 24 -133 2z"/>
<path d="M201 91 c-11 -7 -9 -11 9 -21 27 -14 39 -5 19 15 -9 9 -19 11 -28 6z"/>
<path d="M2327 83 c-24 -23 9 -31 39 -8 18 14 18 14 -7 15 -14 0 -29 -3 -32
-7z"/>
</g>
</svg>
