<svg xmlns="http://www.w3.org/2000/svg" fill="none" viewBox="0 0 32 32">
  <path fill="#00BFB3" fill-rule="evenodd" d="M10 17.9714v.559c0 .431-.275.812-.684.948L3 21.5834V9.97139c0-.313.149-.612.4-.8l3.2-2.4-1.2-1.6-3.201 2.4c-.751.564-1.199 1.461-1.199 2.4V21.9714c0 .939.448 1.836 1.2 2.4l3.2 2.4 1.2-1.6-2.473-1.855 5.822-1.94c1.227-.409 2.051-1.553 2.051-2.846v-.559h-2ZM29.8002 7.57139l-3.2-2.4-1.2 1.6 3.199 2.4c.251.188.401.487.401.8V21.5834l-6.316-2.105c-.409-.136-.684-.517-.684-.949v-.558h-2v.558c0 1.293.824 2.438 2.051 2.847l5.822 1.94-2.473 1.855 1.2 1.6 3.2-2.4c.751-.564 1.2-1.461 1.2-2.4V9.97139c0-.939-.449-1.836-1.2-2.4" clip-rule="evenodd"/>
  <path fill="#535766" fill-rule="evenodd" d="M11 1.97125c-.267 0-.518.104-.707.293-.189.189-.293.44-.293.707 0 .267.104.518.293.707.378.378 1.037.378 1.414 0 .189-.189.293-.44.293-.707 0-.267-.104-.518-.293-.707-.189-.189-.44-.293-.707-.293m0 4c-.801 0-1.555-.312-2.122-.879-.566-.566-.878-1.32-.878-2.121 0-.801.312-1.555.879-2.122 1.133-1.132 3.109-1.133 4.243.001.566.566.878 1.32.878 2.121 0 .801-.312 1.555-.878 2.121h-.001v.001c-.566.566-1.32.878-2.121.878M11 27.9713c-.267 0-.518.104-.707.293-.189.189-.293.44-.293.707 0 .267.104.518.293.707.378.378 1.037.378 1.414 0 .189-.189.293-.44.293-.707 0-.267-.104-.518-.293-.707-.189-.189-.44-.293-.707-.293m0 4c-.801 0-1.555-.3121-2.122-.8791-.566-.566-.878-1.3199-.878-2.1209 0-.801.312-1.5551.879-2.1221 1.133-1.1319 3.109-1.1329 4.243.001.566.566.878 1.3201.878 2.1211 0 .801-.312 1.5549-.878 2.1209h-.001v.001c-.566.566-1.32.8781-2.121.8781M11 11.9713c-.267 0-.518.104-.707.293-.189.189-.293.44-.293.707 0 .267.104.518.293.707.378.378 1.037.378 1.414 0 .189-.189.293-.44.293-.707 0-.267-.104-.518-.293-.707-.189-.189-.44-.293-.707-.293m0 4c-.801 0-1.555-.3121-2.122-.8791-.566-.566-.878-1.3199-.878-2.1209 0-.801.312-1.5551.879-2.1221 1.133-1.13195 3.109-1.13295 4.243.001.566.566.878 1.3201.878 2.1211 0 .801-.312 1.5549-.878 2.1209h-.001v.001c-.566.566-1.32.8781-2.121.8781M21 1.97125c-.267 0-.518.104-.707.293-.189.189-.293.44-.293.707 0 .267.104.518.293.707.377.378 1.037.378 1.414 0 .189-.189.293-.44.293-.707 0-.267-.104-.518-.293-.707-.189-.189-.44-.293-.707-.293m0 4c-.801 0-1.555-.312-2.121-.878v-.001h-.001c-.566-.566-.878-1.32-.878-2.121 0-.801.312-1.555.879-2.122 1.133-1.132 3.109-1.133 4.243.001.566.566.878 1.32.878 2.121 0 .801-.312 1.555-.879 2.122-.566.566-1.32.878-2.121.878M21 27.9713c-.267 0-.518.104-.707.293-.189.189-.293.44-.293.707 0 .267.104.518.293.707.377.378 1.037.378 1.414 0 .189-.189.293-.44.293-.707 0-.267-.104-.518-.293-.707-.189-.189-.44-.293-.707-.293m0 4c-.801 0-1.555-.3121-2.121-.8781v-.001h-.001c-.566-.566-.878-1.3199-.878-2.1209 0-.801.312-1.5551.879-2.1221 1.133-1.1319 3.109-1.1329 4.243.001.566.566.878 1.3201.878 2.1211 0 .801-.312 1.5549-.879 2.1219-.566.566-1.32.8781-2.121.8781M21 11.9713c-.267 0-.518.104-.707.293-.189.189-.293.44-.293.707 0 .267.104.518.293.707.377.378 1.037.378 1.414 0 .189-.189.293-.44.293-.707 0-.267-.104-.518-.293-.707-.189-.189-.44-.293-.707-.293m0 4c-.801 0-1.555-.3121-2.121-.8781v-.001h-.001c-.566-.566-.878-1.3199-.878-2.1209 0-.801.312-1.5551.879-2.1221 1.133-1.13195 3.109-1.13295 4.243.001.566.566.878 1.3201.878 2.1211 0 .801-.312 1.5549-.879 2.1219-.566.566-1.32.8781-2.121.8781" clip-rule="evenodd"/>
</svg>
