<?xml version="1.0" encoding="utf-8"?>
<!-- Generator: Adobe Illustrator 28.1.0, SVG Export Plug-In . SVG Version: 6.00 Build 0)  -->
<svg version="1.1" id="Layer_1" xmlns="http://www.w3.org/2000/svg" xmlns:xlink="http://www.w3.org/1999/xlink" x="0px" y="0px"
	 viewBox="0 0 576 138.8" style="enable-background:new 0 0 576 138.8;" xml:space="preserve">
<style type="text/css">
	.st0{fill:#00000D;}
</style>
<g>
	<g>
		<g>
			<g>
				<g>
					<path class="st0" d="M152.78,100.22h-34.11l-6.01,17.16H97.46l29.62-77.83h17.27l30.17,77.83H158.9L152.78,100.22z
						 M148.29,87.65l-3.06-8.42c-2.73-7.1-6.45-17.49-9.62-26.67c-3.17,9.18-6.89,19.57-9.51,26.67l-2.95,8.42H148.29z"/>
					<path class="st0" d="M229.73,93.44h-42.19c0.98,10.06,6.67,14.54,14.65,14.54c6.56,0,10.82-3.06,12.9-8.09h13.23
						c-2.84,11.48-12.68,18.8-26.23,18.8c-16.62,0-28.09-11.48-28.09-29.51c0-17.71,11.15-29.51,27.87-29.51
						c17.27,0,27.87,12.57,27.87,30.5V93.44z M187.65,83.82h28.31c-1.09-7.98-6.01-13.45-14.21-13.45
						C194.42,70.38,188.96,74.53,187.65,83.82z"/>
					<path class="st0" d="M269.42,60.32V73h-3.5c-10.16,0-16.29,5.03-16.29,15.74v28.64h-13.77v-56.4h13.34v10.06
						c2.73-6.34,8.09-10.93,16.83-10.93C267.23,60.1,268.21,60.1,269.42,60.32z"/>
					<path class="st0" d="M269.58,89.18c0-17.93,11.59-29.51,28.75-29.51s28.64,11.59,28.64,29.51c0,17.93-11.48,29.51-28.64,29.51
						S269.58,107.1,269.58,89.18z M312.98,89.18c0-11.91-5.79-18.15-14.65-18.15c-8.96,0-14.65,6.23-14.65,18.15
						c0,11.92,5.68,18.15,14.65,18.15C307.19,107.32,312.98,101.09,312.98,89.18z"/>
					<path class="st0" d="M329.6,99.45h13.45c0.77,7.11,4.37,9.62,12.57,9.62c7.98,0,11.15-2.51,11.15-6.78
						c0-4.04-2.51-6.01-11.04-7.43l-6.45-1.09c-12.13-2.08-18.47-7.43-18.47-17.05c0-10.6,8.31-17.05,23.39-17.05
						c17.38,0,24.49,7.54,24.92,19.13h-13.01c-0.33-7.21-4.81-9.29-11.91-9.29c-6.67,0-9.84,2.51-9.84,6.56
						c0,4.15,3.28,5.79,9.4,6.89l7.1,1.09c13.56,2.4,19.57,7.43,19.57,17.16c0,11.37-9.29,17.71-25.03,17.71
						C339.33,118.91,330.48,113.12,329.6,99.45z"/>
					<path class="st0" d="M441.54,89.18c0,17.93-9.73,29.51-25.25,29.51c-7.87,0-13.66-3.17-17.49-8.64v28.75h-13.77V60.98h13.23
						v8.09c3.83-5.9,9.84-9.4,18.04-9.4C431.81,59.66,441.54,71.25,441.54,89.18z M427.55,88.74c0-11.91-5.58-17.71-14.54-17.71
						c-8.96,0-14.54,6.23-14.54,18.15c0,11.92,5.57,18.15,14.54,18.15C421.97,107.32,427.55,100.65,427.55,88.74z"/>
					<path class="st0" d="M447.45,60.98h13.77v56.4h-13.77V60.98z M447.56,40.75h13.55v12.9h-13.55V40.75z"/>
					<path class="st0" d="M491.72,91.14l-8.53,8.53v17.71h-13.55V39.55h13.55v44.82l22.95-23.39h16.4l-21.32,21.32l22.63,35.09
						h-15.74L491.72,91.14z"/>
					<path class="st0" d="M576,93.44h-42.19c0.98,10.06,6.67,14.54,14.65,14.54c6.56,0,10.82-3.06,12.9-8.09h13.23
						c-2.84,11.48-12.68,18.8-26.23,18.8c-16.62,0-28.09-11.48-28.09-29.51c0-17.71,11.15-29.51,27.87-29.51
						c17.27,0,27.87,12.57,27.87,30.5V93.44z M533.91,83.82h28.31c-1.09-7.98-6.01-13.45-14.21-13.45
						C540.69,70.38,535.23,74.53,533.91,83.82z"/>
				</g>
			</g>
		</g>
	</g>
	<g>
		<path class="st0" d="M34.21,63.59c2.4,3.22,6.87,7.83,15.16,14.16c0,0,0,0,0,0C48.46,37.59,38.18,8.71,34.87,0.68
			c-0.38-0.91-1.67-0.91-2.05,0c-3.31,8.03-13.59,36.94-14.5,77.07c0,0,0,0,0,0c8.29-6.33,12.76-10.94,15.16-14.16
			C33.66,63.34,34.02,63.34,34.21,63.59z"/>
		<g>
			<path class="st0" d="M18.32,77.76c-0.86,0.65-1.75,1.32-2.69,2.02c-15.74,11.57-15.67,29.9-15.62,36.65
				c0,0.51,0.42,0.93,0.94,0.93h18.73c-0.94-5.75-1.46-19.32-1.46-30.14C18.21,83.98,18.25,80.84,18.32,77.76z"/>
			<path class="st0" d="M52.05,79.77c-0.94-0.69-1.83-1.36-2.69-2.01c0.07,3.08,0.11,6.23,0.11,9.45c0,10.82-0.52,24.39-1.46,30.14
				h18.73c0.51,0,0.93-0.41,0.94-0.93C67.73,109.67,67.79,91.34,52.05,79.77z"/>
		</g>
		<path class="st0" d="M34.9,138.04c2.36-7.11,6.86-13.64,13.12-20.69H19.66c6.26,7.05,10.76,13.58,13.12,20.69
			c0.15,0.46,0.57,0.77,1.06,0.77l0,0C34.32,138.8,34.75,138.49,34.9,138.04z"/>
	</g>
</g>
</svg>
