<svg width="32" height="32" fill="none" viewBox="0 0 32 32" xmlns="http://www.w3.org/2000/svg">
 <g transform="translate(1,0) scale(1.4)">
  <path fill="#B556D4" d="M6.7,3C4.6,3.4,2.9,5.1,2.5,7.2c0.7-0.5,1.9-0.8,3.2-1C5.9,4.9,6.2,3.7,6.7,3z M6.2,6.7c0,0.5-0.1,1-0.1,1.5 c0,0.5,0,1,0.1,1.5c0.5,0,1,0.1,1.5,0.1c0.5,0,1,0,1.5-0.1c0-0.5,0.1-1,0.1-1.5c0-0.5,0-1-0.1-1.5c-0.5,0-1-0.1-1.5-0.1 C7.2,6.7,6.7,6.7,6.2,6.7L6.2,6.7z M5.6,9.7c0-0.5-0.1-1-0.1-1.4s0-1,0.1-1.4C3.6,7.1,2.4,7.7,2.4,8.2C2.4,8.8,3.6,9.4,5.6,9.7z M13.1,8.2c0-0.5-1.2-1.2-3.3-1.4c0,0.5,0.1,1,0.1,1.4s0,1-0.1,1.4C11.9,9.4,13.1,8.8,13.1,8.2z M13,7.2C12.6,5.1,10.9,3.4,8.8,3 c0.5,0.7,0.8,1.9,1,3.2C11.1,6.4,12.3,6.7,13,7.2L13,7.2z M7.7,6.1c0.5,0,1,0,1.4,0.1C8.9,4.1,8.3,2.9,7.8,2.9S6.6,4.1,6.3,6.1 C6.8,6.1,7.3,6.1,7.7,6.1L7.7,6.1z M2.5,9.3c0.4,2.1,2.1,3.8,4.2,4.2c-0.5-0.7-0.8-1.9-1-3.2C4.4,10.1,3.2,9.8,2.5,9.3L2.5,9.3z M8.8,13.5c2.1-0.4,3.8-2.1,4.2-4.2c-0.7,0.5-1.9,0.8-3.2,1C9.6,11.6,9.3,12.8,8.8,13.5L8.8,13.5z M7.7,10.4c-0.5,0-1,0-1.4-0.1 c0.3,2.1,0.9,3.3,1.4,3.3s1.2-1.2,1.4-3.3C8.7,10.4,8.2,10.4,7.7,10.4L7.7,10.4z"/>
  <path fill="#B556D4" d="M7.7,1.2c-3.9,0-7,3.1-7,7c0,3.9,3.1,7,7,7c3.9,0,7-3.1,7-7C14.8,4.4,11.6,1.2,7.7,1.2z M7.7,14.3 c-3.3,0-6-2.7-6-6s2.7-6,6-6s6,2.7,6,6S11.1,14.3,7.7,14.3L7.7,14.3z"/>
 </g>
 <g>
  <path d="m23.55484,23.17677c-0.41592,0.42026 -0.41592,1.10168 0,1.52194s1.09031,0.42026 1.50624,0s0.41592,-1.10168 0,-1.52194s-1.09031,-0.42026 -1.50624,0zm1.12596,1.1387c-0.20597,0.20813 -0.53971,0.20813 -0.74569,0c-0.20597,-0.20813 -0.20597,-0.54533 0,-0.75346c0.20598,-0.20813 0.53971,-0.20813 0.74569,0c0.20599,0.20713 0.20599,0.54533 0,0.75346zm0.36245,-6.43397l-0.6526,0.65941c-0.12774,0.12908 -0.12774,0.34121 0,0.47029l2.54802,2.57458c0.12774,0.12909 0.33768,0.12909 0.46544,0l0.6526,-0.6594c0.12775,-0.12908 0.12775,-0.34121 0,-0.47029l-2.54901,-2.57459c-0.12775,-0.12908 -0.3367,-0.12908 -0.46445,0l0,0zm-4.57218,8.4262c0.11586,-0.11707 0.11586,-0.30819 0,-0.42526l-0.33175,-0.33521c-0.11586,-0.11708 -0.30501,-0.11708 -0.42088,0l-0.68529,0.69242l-0.00099,0.00101l-0.18815,-0.19012c-0.10398,-0.10506 -0.27333,-0.10506 -0.37632,0c-0.10398,0.10506 -0.10398,0.27617 0,0.38024l1.12893,1.14071c0.10398,0.10506 0.27332,0.10506 0.37632,0s0.10397,-0.27617 0,-0.38024l-0.18816,-0.19012l0.001,-0.001l0.68528,-0.69243z" fill="#f5a800"/>
  <path d="m23.92323,19.77467l-1.44979,1.4649c-0.12873,0.13008 -0.12873,0.34421 0,0.47429l0.89523,0.90456c0.6328,-0.46028 1.5201,-0.40325 2.08952,0.17211l0.72489,-0.73245c0.12873,-0.13008 0.12873,-0.34422 0,-0.47429l-1.79044,-1.80912c-0.12874,-0.13108 -0.34067,-0.13108 -0.4694,0l0,0zm-0.93087,3.22499l-0.52882,-0.53433c-0.12379,-0.12507 -0.32679,-0.12507 -0.45058,0l-1.86472,1.88517c-0.12378,0.12508 -0.12378,0.33021 0,0.45528l1.05665,1.06766c0.12378,0.12508 0.3268,0.12508 0.45058,0l1.19925,-1.21375c-0.25351,-0.52932 -0.20796,-1.16872 0.13765,-1.66002l0,0z" fill="#425cc7"/>
 </g>
</svg>
