<?xml version="1.0" encoding="UTF-8"?>
<svg width="32" height="32" version="1.1" viewBox="0 0 32 32" xmlns="http://www.w3.org/2000/svg">
 <g>
  <title>etcd with OpenTelemetry</title>
  <!-- etcd logo scaled and positioned in top-left -->
  <g transform="translate(2 0) scale(0.235)">
   <path d="M41.14 53.94a5.86 5.86 0 1 1-5.86-5.86 5.86 5.86 0 0 1 5.86 5.86zM48.72 53.94a5.86 5.86 0 1 0 5.86-5.86 5.86 5.86 0 0 0-5.86 5.86z" fill="#419eda"/>
   <path d="M88.62 60.3h-1.29a16.92 16.92 0 0 1-7.44-1.73 69.1 69.1 0 0 0 1-13.16 68.11 68.11 0 0 0-8.52-10.1 16.92 16.92 0 0 1 6-6.43l1.1-.68-.86-1a44.86 44.86 0 0 0-15.66-11.35l-1.19-.52-.3 1.26a16.88 16.88 0 0 1-4.25 7.71 68.13 68.13 0 0 0-12.27-5.06 67.89 67.89 0 0 0-12.26 5 16.84 16.84 0 0 1-4.23-7.69l-.31-1.26-1.19.52a45.29 45.29 0 0 0-15.67 11.46l-.86 1 1.1.68a16.9 16.9 0 0 1 6 6.4A68.62 68.62 0 0 0 9 45.38a69 69 0 0 0 1 13.25 16.87 16.87 0 0 1-7.4 1.72H1.3L0 60.19l.12 1.29a44.59 44.59 0 0 0 6 18.44L6.8 81l1-.84a16.86 16.86 0 0 1 8-3.74 68.5 68.5 0 0 0 6.8 11.18 69.19 69.19 0 0 0 12.95 3.18 16.83 16.83 0 0 1-1.08 8.83l-.47 1.2 1.26.28a45.13 45.13 0 0 0 9.7 1.07l9.7-1.07 1.26-.28-.49-1.2a16.81 16.81 0 0 1-1.07-8.85 69.2 69.2 0 0 0 12.9-3.17 68.2 68.2 0 0 0 6.84-11.14 16.9 16.9 0 0 1 8 3.74l1 .83.66-1.11a44.48 44.48 0 0 0 6-18.44l.12-1.29zm-29.8 15.76a52.37 52.37 0 0 1-27.78 0 53.14 53.14 0 0 1-8.45-26.26 52.88 52.88 0 0 1 10.07-9.58 53.68 53.68 0 0 1 12.28-6.68 53.85 53.85 0 0 1 12.25 6.66 53.28 53.28 0 0 1 10.11 9.64 53.53 53.53 0 0 1-2.53 13.68 53.8 53.8 0 0 1-5.95 12.54z" fill="#419eda"/>
  </g>
  <!-- OpenTelemetry logo in bottom-right corner -->
  <g transform="translate(18 18) scale(.44)" stroke-width="3.221">
   <path d="m12.821 12.833c-1.3397 1.3537-1.3397 3.5485 0 4.9022 1.3397 1.3537 3.5119 1.3537 4.8516 0 1.3397-1.3537 1.3397-3.5485 0-4.9022s-3.5119-1.3537-4.8516 0zm3.6267 3.6678c-0.66343 0.67039-1.7384 0.67039-2.4019 0-0.66343-0.67039-0.66343-1.7565 0-2.4269 0.66347-0.67039 1.7384-0.67039 2.4019 0 0.6635 0.66717 0.6635 1.7565 0 2.4269zm1.1675-20.724-2.102 2.124c-0.41145 0.41577-0.41145 1.099 0 1.5148l8.2072 8.2928c0.41145 0.4158 1.0877 0.4158 1.4992 0l2.102-2.1239c0.41148-0.41577 0.41148-1.099 0-1.5148l-8.2104-8.2928c-0.41148-0.41577-1.0845-0.41577-1.496 0zm-14.727 27.141c0.37319-0.37709 0.37319-0.99269 0-1.3698l-1.0686-1.0797c-0.37319-0.37712-0.98244-0.37712-1.3557 0l-2.2073 2.2303-0.00322 0.0032-0.60603-0.61238c-0.33492-0.3384-0.8804-0.3384-1.2121 0-0.33492 0.3384-0.33492 0.88955 0 1.2248l3.6363 3.6742c0.33492 0.3384 0.88037 0.3384 1.2121 0 0.33176-0.3384 0.33489-0.88955 0-1.2248l-0.60607-0.61238 0.003223-0.0032 2.2073-2.2303z" fill="#f5a800"/>
   <path d="m14.008 1.875-4.6698 4.7185c-0.41464 0.41899-0.41464 1.1087 0 1.5277l2.8836 2.9136c2.0383-1.4826 4.8963-1.2989 6.7304 0.55437l2.3349-2.3592c0.41464-0.41899 0.41464-1.1087 0-1.5277l-5.767-5.8272c-0.41468-0.42221-1.0973-0.42221-1.5119 0zm-2.9984 10.388-1.7033-1.7211c-0.39873-0.40285-1.0526-0.40285-1.4513 0l-6.0063 6.0722c-0.3987 0.40288-0.3987 1.0636 0 1.4665l3.4035 3.439c0.3987 0.40288 1.0526 0.40288 1.4513 0l3.8628-3.9095c-0.81656-1.705-0.66984-3.7645 0.44337-5.347z" fill="#425cc7"/>
  </g>
 </g>
</svg>
