<svg width="800" height="800" viewBox="0 0 800 800" fill="none" xmlns="http://www.w3.org/2000/svg">
<path d="M705.7 698.058C697.503 706.261 697.503 719.555 705.7 727.758C713.903 735.955 727.197 735.955 735.394 727.758C743.597 719.555 743.597 706.261 735.394 698.058C727.197 689.861 713.903 689.861 705.7 698.058ZM727.898 720.275C726.934 721.241 725.788 722.008 724.526 722.531C723.265 723.054 721.912 723.323 720.547 723.323C719.181 723.323 717.829 723.054 716.568 722.531C715.306 722.008 714.16 721.241 713.195 720.275C712.23 719.31 711.464 718.164 710.942 716.903C710.419 715.642 710.15 714.291 710.15 712.926C710.15 711.561 710.419 710.209 710.942 708.948C711.464 707.687 712.23 706.541 713.195 705.577C714.16 704.61 715.306 703.844 716.568 703.321C717.829 702.798 719.181 702.528 720.547 702.528C721.912 702.528 723.265 702.798 724.526 703.321C725.788 703.844 726.934 704.61 727.898 705.577C731.958 709.617 731.958 716.216 727.898 720.275ZM735.047 594.737L722.18 607.603C720.968 608.824 720.289 610.473 720.289 612.193C720.289 613.913 720.968 615.562 722.18 616.783L772.413 667.016C773.633 668.227 775.283 668.907 777.002 668.907C778.722 668.907 780.372 668.227 781.592 667.016L794.458 654.148C796.973 651.633 796.973 647.491 794.458 644.977L744.203 594.736C742.986 593.528 741.34 592.849 739.625 592.849C737.91 592.849 736.264 593.529 735.047 594.737ZM644.903 759.148C646 758.047 646.616 756.555 646.616 755C646.616 753.445 646 751.953 644.903 750.852L638.367 744.309C637.264 743.213 635.772 742.597 634.216 742.597C632.661 742.597 631.169 743.213 630.066 744.309L616.559 757.823L616.534 757.842L612.83 754.131C610.778 752.08 607.439 752.08 605.408 754.131C603.356 756.181 603.356 759.52 605.408 761.553L627.667 783.806C628.154 784.294 628.732 784.68 629.368 784.944C630.004 785.208 630.686 785.344 631.375 785.344C632.064 785.344 632.746 785.208 633.382 784.944C634.018 784.68 634.596 784.294 635.083 783.806C637.114 781.755 637.134 778.416 635.083 776.391L631.372 772.68L631.397 772.661L644.903 759.148Z" fill="#F5A800"/>
<path d="M712.964 631.677L684.381 660.258C681.842 662.797 681.842 666.978 684.381 669.517L702.031 687.163C714.506 678.184 732 679.295 743.223 690.527L757.517 676.231C760.052 673.692 760.052 669.517 757.517 666.978L722.219 631.677C721.611 631.069 720.89 630.586 720.096 630.257C719.303 629.928 718.452 629.759 717.592 629.759C716.733 629.759 715.882 629.928 715.088 630.257C714.294 630.586 713.571 631.069 712.964 631.677ZM694.609 694.602L684.184 684.177C681.742 681.736 677.739 681.736 675.303 684.177L638.537 720.958C637.365 722.139 636.707 723.736 636.707 725.401C636.707 727.065 637.365 728.662 638.537 729.844L659.367 750.675C660.549 751.848 662.146 752.507 663.811 752.507C665.476 752.507 667.073 751.848 668.255 750.675L691.898 726.992C686.9 716.666 687.797 704.191 694.609 694.602Z" fill="#425CC7"/>
<g clip-path="url(#clip0_2001_4)">
<path d="M344.9 419.032H397.68L369.801 365.732L318.545 462H295.238L357.576 346.503C358.935 344.198 360.74 342.313 362.842 341.004C364.943 339.696 367.278 339.002 369.652 338.982C372.026 338.962 374.37 339.616 376.487 340.889C378.603 342.162 380.432 344.017 381.818 346.298L444.329 462H421.022L410.043 440.475H356.641L345.004 419.032M587.186 440.475V340.148H567.377V450.356C567.373 451.888 567.632 453.404 568.138 454.813C568.644 456.223 569.386 457.496 570.32 458.556C571.258 459.692 572.379 460.593 573.616 461.205C574.854 461.818 576.182 462.13 577.524 462.123H667.567L679.307 440.598H587.082M259.671 422.558C268.902 422.558 277.755 418.217 284.282 410.489C290.809 402.762 294.476 392.281 294.476 381.353C294.476 370.425 290.809 359.944 284.282 352.217C277.755 344.489 268.902 340.148 259.671 340.148H173.091V462H192.866V361.714H258.459C262.877 361.714 267.114 363.792 270.238 367.49C273.362 371.189 275.117 376.205 275.117 381.435C275.117 386.665 273.362 391.681 270.238 395.38C267.114 399.078 262.877 401.156 258.459 401.156H202.667L261.749 462H290.459L250.771 422.558H259.671ZM51.4632 462H111.273C124.686 461.588 137.433 454.99 146.797 443.613C156.161 432.236 161.401 416.979 161.401 401.094C161.401 385.21 156.161 369.953 146.797 358.576C137.433 347.199 124.686 340.601 111.273 340.189H51.4632C44.5949 339.978 37.7605 341.397 31.3629 344.363C24.9654 347.329 19.1342 351.782 14.2134 357.458C9.29253 363.135 5.3816 369.92 2.71123 377.415C0.0408531 384.909 -1.3349 392.961 -1.3349 401.094C-1.3349 409.228 0.0408531 417.28 2.71123 424.774C5.3816 432.269 9.29253 439.054 14.2134 444.731C19.1342 450.407 24.9654 454.86 31.3629 457.826C37.7605 460.792 44.5949 462.211 51.4632 462ZM109.922 440.557H52.7792C44.1337 440.227 35.9356 435.929 29.9186 428.572C23.9015 421.215 20.5372 411.376 20.5372 401.135C20.5372 390.895 23.9015 381.056 29.9186 373.699C35.9356 366.342 44.1337 362.044 52.7792 361.714H109.922C114.385 361.544 118.832 362.437 122.998 364.342C127.163 366.246 130.963 369.122 134.171 372.8C137.379 376.477 139.93 380.881 141.672 385.748C143.414 390.616 144.312 395.849 144.312 401.135C144.312 406.422 143.414 411.655 141.672 416.523C139.93 421.39 137.379 425.794 134.171 429.471C130.963 433.149 127.163 436.025 122.998 437.929C118.832 439.834 114.385 440.727 109.922 440.557ZM485.645 462H546.701L558.268 440.557H486.996C482.532 440.727 478.086 439.834 473.92 437.929C469.754 436.025 465.955 433.149 462.747 429.471C459.538 425.794 456.988 421.39 455.245 416.523C453.503 411.655 452.606 406.422 452.606 401.135C452.606 395.849 453.503 390.616 455.245 385.748C456.988 380.881 459.538 376.477 462.747 372.8C465.955 369.122 469.754 366.246 473.92 364.342C478.086 362.437 482.532 361.544 486.996 361.714H545.004L556.71 340.189H485.645C478.777 339.978 471.942 341.397 465.545 344.363C459.147 347.329 453.316 351.782 448.395 357.458C443.474 363.135 439.563 369.92 436.893 377.415C434.223 384.909 432.847 392.961 432.847 401.094C432.847 409.228 434.223 417.28 436.893 424.774C439.563 432.269 443.474 439.054 448.395 444.731C453.316 450.407 459.147 454.86 465.545 457.826C471.942 460.792 478.777 462.211 485.645 462ZM727.619 440.557C720.363 440.56 713.304 437.759 707.516 432.579C701.728 427.398 697.526 420.123 695.55 411.857H780.121L791.758 390.373H695.55C697.521 382.104 701.721 374.824 707.511 369.643C713.3 364.462 720.361 361.663 727.619 361.673H785.662L797.264 340.148H726.268C712.855 340.56 700.108 347.158 690.744 358.535C681.38 369.912 676.14 385.169 676.14 401.053C676.14 416.938 681.38 432.195 690.744 443.572C700.108 454.949 712.855 461.547 726.268 461.959H787.325L798.926 440.516H727.584" fill="#C74634"/>
</g>
<defs>
<clipPath id="clip0_2001_4">
<rect width="800" height="123" fill="white" transform="translate(0 339)"/>
</clipPath>
</defs>
</svg>
