<?xml version="1.0" encoding="UTF-8"?>
<svg version="1.1" xmlns="http://www.w3.org/2000/svg" width="872" height="1000">
<path d="M0 0 C287.76 0 575.52 0 872 0 C872 330 872 660 872 1000 C584.24 1000 296.48 1000 0 1000 C0 670 0 340 0 0 Z " fill="#FEFEFE" transform="translate(0,0)"/>
<path d="M0 0 C0.33 0 0.66 0 1 0 C1.14695313 0.60585938 1.29390625 1.21171875 1.4453125 1.8359375 C5.50415742 16.99828923 14.52718942 24.65875218 26.8125 33.5625 C28.49616532 34.79287081 30.179757 36.02334241 31.86328125 37.25390625 C32.71615723 37.87539551 33.5690332 38.49688477 34.44775391 39.13720703 C38.47576541 42.07710829 42.48736027 45.03917278 46.5 48 C48.08324733 49.16678338 49.66658085 50.3334498 51.25 51.5 C73.41666667 67.83333333 95.58333333 84.16666667 117.75 100.5 C118.5339917 101.07766113 119.3179834 101.65532227 120.12573242 102.25048828 C121.70668983 103.41543849 123.28758192 104.58047734 124.8684082 105.74560547 C128.86255828 108.6892698 132.8578843 111.63131346 136.85546875 114.5703125 C144.91517608 120.49809725 152.95324903 126.45167967 160.94873047 132.46582031 C168.4520678 138.10309086 176.01530541 143.65871279 183.57666016 149.21777344 C187.55322518 152.14230746 191.52646271 155.07135433 195.5 158 C197.08331696 159.16668888 198.66665031 160.33335553 200.25 161.5 C222.41666667 177.83333333 244.58333333 194.16666667 266.75 210.5 C267.5339917 211.07766113 268.3179834 211.65532227 269.12573242 212.25048828 C270.70668983 213.41543849 272.28758192 214.58047734 273.8684082 215.74560547 C277.86255828 218.6892698 281.8578843 221.63131346 285.85546875 224.5703125 C293.91517608 230.49809725 301.95324903 236.45167967 309.94873047 242.46582031 C317.42865755 248.08550269 324.96841488 253.62355776 332.50634766 259.16503906 C335.11419821 261.08403307 337.71951098 263.00643017 340.32421875 264.9296875 C341.19071045 265.56922363 342.05720215 266.20875977 342.94995117 266.86767578 C344.61582763 268.0973462 346.28136973 269.32746974 347.9465332 270.55810547 C348.69636475 271.11127441 349.44619629 271.66444336 350.21875 272.234375 C351.2077832 272.96479004 351.2077832 272.96479004 352.21679688 273.70996094 C353.78467986 274.84422897 355.38985454 275.92656969 357 277 C357.38476562 278.91674805 357.38476562 278.91674805 357.40625 281.26171875 C357.43561646 282.55807251 357.43561646 282.55807251 357.46557617 283.88061523 C357.47693604 284.80688721 357.4882959 285.73315918 357.5 286.6875 C358.27409777 311.12865119 366.12821725 331.28372834 384.0390625 348.4921875 C388.98154003 352.67829644 394.29909782 355.91902462 400 359 C400.74636719 359.40863281 401.49273437 359.81726563 402.26171875 360.23828125 C409.37521519 363.74760616 417.31457244 365.22716518 425 367 C425 367.33 425 367.66 425 368 C284.75 368 144.5 368 0 368 C0 246.56 0 125.12 0 0 Z " fill="#FEFEFE" transform="translate(0,632)"/>
<path d="M0 0 C0.33 0 0.66 0 1 0 C1 121.44 1 242.88 1 368 C-140.24 368 -281.48 368 -427 368 C-427 367.67 -427 367.34 -427 367 C-426.04222656 366.87625 -425.08445312 366.7525 -424.09765625 366.625 C-404.82694272 363.78394623 -387.46045722 354.51462279 -374.84375 339.4921875 C-368.17076419 330.4723465 -362.45255686 320.97008198 -359.875 310 C-359.62169922 308.97132813 -359.62169922 308.97132813 -359.36328125 307.921875 C-358.88615968 305.95327893 -358.4423655 303.97669629 -358 302 C-357.77570313 301.01128906 -357.55140625 300.02257812 -357.3203125 299.00390625 C-356.98863974 295.89346291 -357.36141318 293.17343982 -357.7800293 290.08911133 C-358.25483217 285.4448963 -358.53363795 281.06580646 -355.64208984 277.17089844 C-351.69062625 273.39200224 -347.09507574 270.5098949 -342.48486328 267.60351562 C-338.3835946 264.9569119 -334.52582524 261.99268023 -330.625 259.0625 C-329.02504994 257.88452555 -327.42347624 256.70875328 -325.8203125 255.53515625 C-321.04098208 252.03140997 -316.26980997 248.51669099 -311.5 245 C-309.91670349 243.83328336 -308.33337014 242.66661671 -306.75 241.5 C-305.96625 240.9225 -305.1825 240.345 -304.375 239.75 C-240.25 192.5 -240.25 192.5 -237.87524414 190.75024414 C-236.29101519 189.58287469 -234.70686812 188.41539412 -233.12280273 187.24780273 C-229.1788343 184.34097443 -225.23348838 181.4360552 -221.28515625 178.53515625 C-213.13671805 172.54502139 -205.01692561 166.52046523 -196.9375 160.4375 C-190.69669856 155.7388271 -184.41384215 151.11054862 -178.0625 146.5625 C-171.36432828 141.76521115 -164.78861646 136.82487358 -158.25 131.8125 C-151.98163635 127.00775212 -145.6870032 122.27082371 -139.23413086 117.71704102 C-131.8955653 112.53352779 -124.69298646 107.16426194 -117.46875 101.82324219 C-115.02310998 100.01706738 -112.57461363 98.21484358 -110.125 96.4140625 C-102.70258893 90.95649563 -95.29473962 85.48268384 -87.9375 79.9375 C-82.42437625 75.78358836 -76.8569672 71.71373422 -71.25 67.6875 C-63.94559362 62.44076178 -56.73371854 57.08043771 -49.54980469 51.67016602 C-43.72562822 47.28620095 -37.87248006 42.94400082 -32 38.625 C-31.21157715 38.04218262 -30.4231543 37.45936523 -29.61083984 36.85888672 C-26.21591458 34.35090452 -22.81608313 31.8581442 -19.35546875 29.44140625 C-8.70467426 21.86371399 -2.95111148 12.76867045 0 0 Z " fill="#FEFEFE" transform="translate(871,632)"/>
<path d="M0 0 C1.17357056 0.00858032 1.17357056 0.00858032 2.37084961 0.01733398 C13.51573494 0.35588681 23.41405855 4.56964565 31.3125 12.5 C38.24589299 20.68292756 40.9653069 29.76096502 40.6640625 40.4140625 C39.38566922 51.63551466 33.99158572 61.37357601 26.3125 69.5 C24.22801324 71.14034121 22.19004056 72.64809042 20 74.125 C18.74614574 74.99559818 17.49359087 75.86807006 16.2421875 76.7421875 C15.59475586 77.19303711 14.94732422 77.64388672 14.28027344 78.10839844 C11.0105429 80.42073889 7.81934221 82.83511554 4.625 85.25 C-3.62486535 91.46956223 -11.94012172 97.59799252 -20.26416016 103.71777344 C-24.24072518 106.64230746 -28.21396271 109.57135433 -32.1875 112.5 C-33.77081696 113.66668888 -35.35415031 114.83335553 -36.9375 116 C-37.72125 116.5775 -38.505 117.155 -39.3125 117.75 C-84.4375 151 -84.4375 151 -86.81323242 152.75048828 C-88.39418983 153.91543849 -89.97508192 155.08047734 -91.5559082 156.24560547 C-95.55005828 159.1892698 -99.5453843 162.13131346 -103.54296875 165.0703125 C-110.97127147 170.53390739 -118.38622349 176.01216347 -125.75 181.5625 C-131.2394855 185.70011768 -136.78732946 189.74614462 -142.375 193.75 C-149.15550515 198.61104835 -155.81648222 203.61160435 -162.4375 208.6875 C-168.70584556 213.49227132 -175.00049754 218.22917681 -181.45336914 222.78295898 C-188.79622184 227.96950038 -196.00332379 233.34160525 -203.23193359 238.68554688 C-207.21399212 241.62794685 -211.20093938 244.5637044 -215.1875 247.5 C-216.77085789 248.66663334 -218.3541912 249.83330004 -219.9375 251 C-229.4375 258 -229.4375 258 -231.81225586 259.74975586 C-233.39648481 260.91712531 -234.98063188 262.08460588 -236.56469727 263.25219727 C-240.5086657 266.15902557 -244.45401162 269.0639448 -248.40234375 271.96484375 C-257.3701423 278.55706652 -266.29901205 285.19775234 -275.19580078 291.88549805 C-280.1450171 295.60247824 -285.10537483 299.30330525 -290.09057617 302.97192383 C-291.68309508 304.14715082 -293.27061723 305.32918238 -294.8527832 306.51831055 C-298.54839319 309.28094199 -302.23423447 311.87877743 -306.2109375 314.22265625 C-313.10455044 318.07336917 -313.10455044 318.07336917 -317.26611328 324.40234375 C-317.76909677 328.77323931 -317.25425171 333.03017878 -316.80029297 337.38525391 C-316.5080526 342.86444457 -318.25109436 348.26213014 -319.6875 353.5 C-319.99494141 354.675625 -319.99494141 354.675625 -320.30859375 355.875 C-326.24957344 375.94886926 -339.8046574 391.93966269 -357.91015625 402.17285156 C-365.26649802 406.16564553 -372.36102845 409.15624667 -380.6875 410.5 C-381.76902344 410.67917969 -382.85054688 410.85835937 -383.96484375 411.04296875 C-405.60408224 413.69962237 -425.91171805 409.24675881 -443.5625 396.125 C-444.9599719 394.94272815 -446.33454955 393.73297183 -447.6875 392.5 C-448.49445313 391.78457031 -449.30140625 391.06914063 -450.1328125 390.33203125 C-464.85637001 376.53151022 -473.99629708 357.5514485 -474.90234375 337.31640625 C-475.51283815 316.16842803 -469.74493544 295.9924878 -455.25 280.1875 C-439.0233358 263.040174 -419.93927477 253.79333933 -396.25 253.0625 C-389.06730581 253.19960339 -382.46451045 254.68786337 -375.5625 256.52734375 C-374.28375 256.84832031 -373.005 257.16929687 -371.6875 257.5 C-369.98013672 258.00080078 -369.98013672 258.00080078 -368.23828125 258.51171875 C-362.82687317 258.49385932 -359.97833463 255.67602562 -355.875 252.375 C-354.18183255 251.06921872 -352.48780178 249.76455622 -350.79296875 248.4609375 C-349.94009277 247.79545898 -349.0872168 247.12998047 -348.20849609 246.44433594 C-344.4355334 243.53441197 -340.56523454 240.76778773 -336.6875 238 C-328.10110849 231.82294957 -319.58542561 225.55209759 -311.07861328 219.26611328 C-307.11758838 216.34043897 -303.15234283 213.42049694 -299.1875 210.5 C-297.60414621 209.3333611 -296.02081288 208.16669442 -294.4375 207 C-284.9375 200 -275.4375 193 -265.9375 186 C-265.15366943 185.42241943 -264.36983887 184.84483887 -263.56225586 184.24975586 C-261.97981815 183.08379194 -260.39729869 181.91793896 -258.81469727 180.75219727 C-254.84198113 177.82568557 -250.87073006 174.89722466 -246.90234375 171.96484375 C-238.45409743 165.72528928 -229.97743416 159.5293578 -221.45458984 153.39208984 C-213.61872514 147.74281917 -205.84757146 142.00687108 -198.07861328 136.26611328 C-194.11758838 133.34043897 -190.15234283 130.42049694 -186.1875 127.5 C-184.60414621 126.3333611 -183.02081288 125.16669442 -181.4375 124 C-178.27083333 121.66666667 -175.10416667 119.33333333 -171.9375 117 C-171.15366943 116.42241943 -170.36983887 115.84483887 -169.56225586 115.24975586 C-167.97981815 114.08379194 -166.39729869 112.91793896 -164.81469727 111.75219727 C-160.84198113 108.82568557 -156.87073006 105.89722466 -152.90234375 102.96484375 C-144.45409743 96.72528928 -135.97743416 90.5293578 -127.45458984 84.39208984 C-119.61872514 78.74281917 -111.84757146 73.00687108 -104.07861328 67.26611328 C-100.11758838 64.34043897 -96.15234283 61.42049694 -92.1875 58.5 C-90.60414621 57.3333611 -89.02081288 56.16669442 -87.4375 55 C-77.9375 48 -68.4375 41 -58.9375 34 C-58.15294434 33.42185547 -57.36838867 32.84371094 -56.56005859 32.24804688 C-54.98505982 31.08762382 -53.40986614 29.92746526 -51.83447266 28.76757812 C-47.74693911 25.75758241 -43.6634315 22.74233519 -39.5859375 19.71875 C-38.74482422 19.09613281 -37.90371094 18.47351563 -37.03710938 17.83203125 C-35.44598491 16.6540717 -33.8560411 15.47451483 -32.26757812 14.29296875 C-30.08546059 12.67901068 -27.89200646 11.08322751 -25.6875 9.5 C-24.93758789 8.96117187 -24.18767578 8.42234375 -23.41503906 7.8671875 C-15.81315305 2.58457608 -9.30704321 -0.07999743 0 0 Z " fill="#5C96F5" transform="translate(831.6875,588.5)"/>
<path d="M0 0 C4.94775904 3.11976925 9.6724232 6.47474279 14.34960938 9.98144531 C16.50123992 11.59154421 18.66507734 13.18402796 20.83203125 14.7734375 C24.86869302 17.73576185 28.89711734 20.70905504 32.92333984 23.68554688 C36.90539837 26.62794685 40.89234563 29.5637044 44.87890625 32.5 C46.46226414 33.66663334 48.04559745 34.83330004 49.62890625 36 C50.80453125 36.86625 50.80453125 36.86625 52.00390625 37.75 C59.12890625 43 59.12890625 43 61.50415039 44.75024414 C63.0865881 45.91620806 64.66910756 47.08206104 66.25170898 48.24780273 C70.22442512 51.17431443 74.19567619 54.10277534 78.1640625 57.03515625 C85.87430082 62.72964599 93.60054214 68.39882943 101.37890625 74 C109.96249894 80.18101263 118.48091874 86.44785667 126.98779297 92.73388672 C130.94881787 95.65956103 134.91406342 98.57950306 138.87890625 101.5 C140.46226004 102.6666389 142.04559337 103.83330558 143.62890625 105 C144.80453125 105.86625 144.80453125 105.86625 146.00390625 106.75 C153.12890625 112 153.12890625 112 155.50415039 113.75024414 C157.0865881 114.91620806 158.66910756 116.08206104 160.25170898 117.24780273 C164.22442512 120.17431443 168.19567619 123.10277534 172.1640625 126.03515625 C179.93490499 131.77423482 187.72379321 137.48429619 195.56640625 143.125 C201.88527454 147.66995877 208.13431458 152.29681273 214.34716797 156.98535156 C219.99555422 161.23730414 225.71987499 165.37814346 231.45922852 169.50610352 C239.34881748 175.18556315 247.16959374 180.95674297 254.98779297 186.73388672 C258.94881787 189.65956103 262.91406342 192.57950306 266.87890625 195.5 C268.46226004 196.6666389 270.04559337 197.83330558 271.62890625 199 C272.41265625 199.5775 273.19640625 200.155 274.00390625 200.75 C281.12890625 206 281.12890625 206 283.50415039 207.75024414 C285.0865881 208.91620806 286.66910756 210.08206104 288.25170898 211.24780273 C292.22442512 214.17431443 296.19567619 217.10277534 300.1640625 220.03515625 C307.93490905 225.77423782 315.72399482 231.48401173 323.56640625 237.125 C329.54339749 241.42706587 335.48288132 245.77501692 341.37890625 250.1875 C342.05590576 250.69297363 342.73290527 251.19844727 343.43041992 251.71923828 C345.87055126 253.55320625 348.21748793 255.33858168 350.37890625 257.5 C348.80109375 257.9640625 348.80109375 257.9640625 347.19140625 258.4375 C330.0250891 264.93943251 316.88072793 280.11834374 309.03515625 296.265625 C308.04319249 298.65535587 307.17748793 301.03939554 306.37890625 303.5 C306.09402344 304.35464844 305.80914062 305.20929688 305.515625 306.08984375 C303.99451371 310.88386748 302.92228725 315.50089481 302.37890625 320.5 C302.04890625 319.51 301.71890625 318.52 301.37890625 317.5 C299.51856221 316.41949719 299.51856221 316.41949719 297.37890625 315.5 C296.1524927 314.68947587 294.94459852 313.85042479 293.75390625 312.98828125 C293.05789307 312.48562744 292.36187988 311.98297363 291.64477539 311.46508789 C290.52317017 310.64705688 290.52317017 310.64705688 289.37890625 309.8125 C288.5892749 309.23943115 287.79964355 308.6663623 286.98608398 308.07592773 C280.24753817 303.16909112 273.57585579 298.17482951 266.91625977 293.16162109 C258.8991528 287.12770543 250.82389179 281.17486502 242.73779297 275.23388672 C238.78211004 272.32628372 234.83073636 269.41283606 230.87890625 266.5 C229.29559337 265.33330558 227.71226004 264.1666389 226.12890625 263 C210.29557292 251.33333333 194.46223958 239.66666667 178.62890625 228 C177.84491455 227.42233887 177.06092285 226.84467773 176.25317383 226.24951172 C174.67221642 225.08456151 173.09132433 223.91952266 171.51049805 222.75439453 C167.51634797 219.8107302 163.52102195 216.86868654 159.5234375 213.9296875 C151.46373017 208.00190275 143.42565722 202.04832033 135.43017578 196.03417969 C127.92683845 190.39690914 120.36360084 184.84128721 112.80224609 179.28222656 C108.82568107 176.35769254 104.85244354 173.42864567 100.87890625 170.5 C99.29558929 169.33331112 97.71225594 168.16664447 96.12890625 167 C73.96223958 150.66666667 51.79557292 134.33333333 29.62890625 118 C28.84491455 117.42233887 28.06092285 116.84467773 27.25317383 116.24951172 C25.67221642 115.08456151 24.09132433 113.91952266 22.51049805 112.75439453 C18.51634797 109.8107302 14.52102195 106.86868654 10.5234375 103.9296875 C2.47063592 98.00698182 -5.56583328 92.06523059 -13.54785156 86.04736328 C-18.01662934 82.68404354 -22.52385917 79.37723979 -27.04589844 76.0859375 C-30.25195619 73.74338461 -33.4400329 71.37767287 -36.61865234 68.99804688 C-38.26538736 67.76610759 -39.92061571 66.54552944 -41.578125 65.328125 C-48.9412125 59.45772475 -54.36823745 49.89642224 -55.62109375 40.5 C-56.36691235 29.55654637 -55.4792408 20.054267 -48.33984375 11.375 C-36.35186317 -1.70279699 -16.96978704 -8.49964986 0 0 Z " fill="#AECBFA" transform="translate(55.62109375,591.5)"/>
<path d="M0 0 C3.20568473 1.75848464 6.09333856 3.78794516 9 6 C9.61875 6.43054688 10.2375 6.86109375 10.875 7.3046875 C17.20936156 12.08373707 21.5127441 19.53823229 24 27 C24.09817622 28.67749769 24.13924538 30.35860624 24.14717102 32.03895569 C24.15432632 33.08039734 24.16148163 34.12183899 24.16885376 35.19483948 C24.17154266 36.33718552 24.17423157 37.47953156 24.17700195 38.65649414 C24.18357315 39.86006561 24.19014435 41.06363708 24.19691467 42.30368042 C24.21666762 46.29750822 24.22831945 50.29129581 24.23828125 54.28515625 C24.2423302 55.66277015 24.24644716 57.04038386 24.25063133 58.41799736 C24.26968402 64.89464736 24.28391167 71.37128599 24.2922433 77.84795862 C24.30199922 85.30765969 24.32827494 92.76706273 24.36874419 100.22665888 C24.39899172 106.00177726 24.41372054 111.77681066 24.41702431 117.55200666 C24.41936611 120.99644066 24.42821095 124.44055633 24.45348549 127.88490486 C24.4812866 131.73594605 24.47690875 135.58660173 24.4699707 139.43774414 C24.48278076 140.56592056 24.49559082 141.69409698 24.50878906 142.85646057 C24.43163077 154.64808284 20.05961809 164.09090274 12.328125 172.90625 C4.41863052 180.61293693 -5.69397644 184.5629508 -16.625 184.6875 C-28.0207978 184.4298958 -36.57358741 180.40378783 -44.7421875 172.4453125 C-54.83806496 161.51102308 -57.46740019 150.65685197 -57.40405273 135.98022461 C-57.41091599 134.84522018 -57.41777924 133.71021576 -57.42485046 132.54081726 C-57.44299675 128.82786176 -57.43929909 125.11533361 -57.43359375 121.40234375 C-57.43816053 118.80025599 -57.44346758 116.19816942 -57.44947815 113.59608459 C-57.45946555 108.15866067 -57.45625007 102.72135602 -57.44604492 97.28393555 C-57.43455672 91.0251083 -57.4486663 84.76670923 -57.4754414 78.50793833 C-57.50037356 72.4498632 -57.50275939 66.39198389 -57.49632454 60.33386421 C-57.49617174 57.77235768 -57.50218131 55.21084273 -57.51461601 52.64936638 C-57.52958 49.06271815 -57.51880885 45.47700099 -57.50170898 41.89038086 C-57.51137695 40.84539429 -57.52104492 39.80040771 -57.53100586 38.72375488 C-57.40514403 26.04496386 -52.73329817 17.06926315 -44.12109375 8.02734375 C-39.29820794 3.43829483 -34.28021665 1.07481403 -28 -1 C-20.17972425 -3.60675858 -7.67320524 -3.12887981 0 0 Z " fill="#4385F4" transform="translate(613,240)"/>
<path d="M0 0 C7.67582967 6.975754 13.38144657 15.96645973 14.1928215 26.50429344 C14.27374286 29.51366641 14.2930805 32.51760281 14.29052734 35.52807617 C14.29724457 36.67049774 14.30396179 37.81291931 14.31088257 38.98995972 C14.32984209 42.75767396 14.33378601 46.5252098 14.3359375 50.29296875 C14.34236765 52.92222669 14.34909617 55.55148391 14.35610962 58.18074036 C14.36887916 63.69089919 14.37187686 69.20101001 14.37060547 74.71118164 C14.36940615 81.0533672 14.390473 87.39521132 14.4220928 93.73731059 C14.4515467 99.86636668 14.45857745 105.99526081 14.45738602 112.12438393 C14.45973717 114.71856389 14.46853309 117.31274672 14.48405075 119.90688133 C14.50378115 123.54652078 14.49784371 127.18529598 14.48583984 130.82495117 C14.49707886 131.88354843 14.50831787 132.94214569 14.51989746 134.03282166 C14.4189515 146.15821284 10.55985505 157.14073248 2.1171875 165.96875 C-2.15185655 169.91970841 -6.6014062 172.83440439 -12 175 C-12.88945312 175.35707031 -13.77890625 175.71414062 -14.6953125 176.08203125 C-23.74544238 178.59595622 -35.42211819 178.41792315 -43.90234375 174.2578125 C-54.47513576 167.91807502 -62.91677923 159.24072503 -66.55030441 147.1721983 C-67.05954886 144.71235669 -67.13198996 142.4605037 -67.14044189 139.94795227 C-67.14615204 138.92893326 -67.15186218 137.90991425 -67.15774536 136.86001587 C-67.15886322 135.74774628 -67.15998108 134.63547668 -67.16113281 133.48950195 C-67.16609772 132.31343887 -67.17106262 131.13737579 -67.17617798 129.92567444 C-67.18827476 126.70226343 -67.19574204 123.47888866 -67.20018864 120.25545907 C-67.20312461 118.23854753 -67.20723047 116.2216416 -67.21169281 114.20473289 C-67.22536265 107.88559602 -67.23503097 101.56647206 -67.2388947 95.24732143 C-67.24336986 87.96935445 -67.26089452 80.69157581 -67.2898953 73.41366607 C-67.31156773 67.77781874 -67.32160199 62.14202417 -67.32293582 56.50613564 C-67.32398018 53.14508735 -67.32980824 49.78421621 -67.34775543 46.42321205 C-67.36485683 42.66782093 -67.36292515 38.91288523 -67.35644531 35.1574707 C-67.3656601 34.05532227 -67.37487488 32.95317383 -67.3843689 31.81762695 C-67.32194421 20.23739694 -63.95700897 11.22176492 -55.890625 2.796875 C-39.77296628 -12.20922105 -17.72572218 -12.84260312 0 0 Z " fill="#AECBFA" transform="translate(141,9)"/>
<path d="M0 0 C8.12949941 6.63601183 13.28950652 15.29490252 15.0625 25.68359375 C15.15209653 27.27258382 15.19706626 28.86456673 15.20294189 30.45606995 C15.20865204 31.3879866 15.21436218 32.31990326 15.22024536 33.28005981 C15.22192215 34.79574051 15.22192215 34.79574051 15.22363281 36.34204102 C15.23108017 37.9528228 15.23108017 37.9528228 15.23867798 39.59614563 C15.25327684 43.14743697 15.260099 46.69868359 15.265625 50.25 C15.27137974 52.72517396 15.27713744 55.20034791 15.28289795 57.67552185 C15.29340245 62.86807462 15.29924826 68.06061193 15.30273438 73.25317383 C15.30820803 79.88491224 15.33221448 86.51644419 15.36070633 93.14811802 C15.37939624 98.26387616 15.38454177 103.37958529 15.38607025 108.49537468 C15.3890846 110.93883323 15.39707164 113.38229117 15.41025543 115.82571602 C15.42744338 119.25709511 15.42540414 122.68797928 15.41894531 126.11938477 C15.4281601 127.11566895 15.43737488 128.11195313 15.4468689 129.13842773 C15.36747688 142.70491598 11.69604427 152.69460728 2.30078125 162.52734375 C-7.62259993 171.59486222 -18.20877787 173.45779538 -31.24609375 173.14453125 C-40.77728431 172.51959878 -48.46218451 167.67773389 -55 160.87109375 C-63.81560817 150.05640714 -66.24047276 139.24814592 -66.22802734 125.57104492 C-66.23474457 124.49660629 -66.24146179 123.42216766 -66.24838257 122.31517029 C-66.26728194 118.7855865 -66.27128262 115.25619365 -66.2734375 111.7265625 C-66.27987067 109.25710473 -66.28659941 106.78764772 -66.29360962 104.31819153 C-66.305562 99.14952834 -66.3092925 93.98093189 -66.30810547 88.81225586 C-66.30790232 82.21193325 -66.33520992 75.6120414 -66.36964989 69.01182079 C-66.39196179 63.91321371 -66.39594169 58.81470962 -66.39488602 53.71605873 C-66.39723529 51.28376086 -66.40602051 48.85145986 -66.42155075 46.41921043 C-66.44129844 43.00728118 -66.43533777 39.59627245 -66.42333984 36.18432617 C-66.43457886 35.19432617 -66.44581787 34.20432617 -66.45739746 33.18432617 C-66.34394702 20.39255093 -61.89678295 10.712609 -52.98828125 1.71484375 C-37.91850826 -12.25948405 -16.33895302 -11.69985743 0 0 Z " fill="#4386F4" transform="translate(782.9375,131.31640625)"/>
<path d="M0 0 C8.58610902 5.48594407 14.05283402 11.86078723 17.875 21.3125 C18.21979401 22.1257222 18.56458801 22.9389444 18.91983032 23.77680969 C20.24249632 28.67283755 20.16994377 33.32532546 20.16552734 38.37573242 C20.17224457 39.48059998 20.17896179 40.58546753 20.18588257 41.72381592 C20.20486009 45.37191279 20.20878697 49.0198256 20.2109375 52.66796875 C20.21736658 55.2113706 20.22409503 57.7547717 20.23110962 60.298172 C20.24308251 65.63019828 20.24687634 70.96215632 20.24560547 76.29418945 C20.24440621 82.43358948 20.26546994 88.57263675 20.2970928 94.71194762 C20.3265351 100.64182485 20.33357774 106.57159584 20.33238602 112.50155067 C20.33473837 115.01282502 20.34354112 117.52410227 20.35905075 120.03532982 C20.37876619 123.55794419 20.37284954 127.07966447 20.36083984 130.60229492 C20.37207886 131.62865555 20.38331787 132.65501617 20.39489746 133.71247864 C20.29457773 145.36100888 16.09527027 155.78976416 8.02734375 164.25 C-2.38491203 173.85494371 -12.37310904 176.07542756 -26.171875 175.78125 C-36.08422555 175.17172806 -44.85074023 169.8490194 -51.4453125 162.546875 C-59.15482634 152.29142869 -61.42326751 142.60714007 -61.43139648 130.03808594 C-61.43972 128.93453262 -61.44804352 127.83097931 -61.45661926 126.69398499 C-61.48062824 123.06157863 -61.48948043 119.42935218 -61.49609375 115.796875 C-61.50506707 113.25872751 -61.51418904 110.72058053 -61.52345276 108.18243408 C-61.53992067 102.86656074 -61.5476715 97.55075418 -61.55053711 92.23486328 C-61.55416777 86.11809132 -61.58404228 80.00182247 -61.62594169 73.88520408 C-61.66501765 67.97028151 -61.67613357 62.05550775 -61.67726326 56.14044952 C-61.6814524 53.63836184 -61.69383371 51.13627322 -61.71478081 48.63426971 C-61.74183108 45.1239062 -61.73682791 41.61490894 -61.72436523 38.10449219 C-61.73919952 37.08486893 -61.75403381 36.06524567 -61.76931763 35.01472473 C-61.65546506 23.67379967 -57.10262052 13.3832445 -49.125 5.3125 C-34.35556034 -7.21914577 -17.10399193 -9.53976449 0 0 Z " fill="#AECBFA" transform="translate(295.125,365.6875)"/>
<path d="M0 0 C0.75410156 0.51046875 1.50820313 1.0209375 2.28515625 1.546875 C3.49365234 2.34351563 3.49365234 2.34351563 4.7265625 3.15625 C13.35923854 9.356986 19.94277374 18.03067773 22.28515625 28.546875 C23.24034047 36.73045426 22.98984828 45.02912234 22.94921875 53.25390625 C22.95259306 55.66705061 22.95745078 58.08019331 22.9637146 60.49333191 C22.97106101 65.53746814 22.96045476 70.58115985 22.93701172 75.62524414 C22.90857238 82.0538554 22.92491286 88.4814205 22.95487404 94.90999317 C22.97304646 99.89039313 22.9671427 104.8705501 22.95423508 109.85095787 C22.95092611 112.21935847 22.95489856 114.58778194 22.96663284 116.95615578 C23.09184764 149.3349196 23.09184764 149.3349196 11.28515625 161.546875 C10.64964844 162.23265625 10.01414062 162.9184375 9.359375 163.625 C1.47079972 171.4126246 -7.83761624 174.98188082 -18.83984375 175.109375 C-30.67884802 174.88713873 -39.52927467 170.66434607 -47.84375 162.44140625 C-57.14093475 152.49358979 -58.86608384 144.06744909 -58.86010742 130.72729492 C-58.86346603 129.64847549 -58.86682465 128.56965607 -58.87028503 127.45814514 C-58.87977043 123.89786624 -58.88173696 120.33763449 -58.8828125 116.77734375 C-58.88602681 114.29641195 -58.88939101 111.81548035 -58.89289856 109.33454895 C-58.89888383 104.13538168 -58.90073908 98.93623102 -58.90014648 93.73706055 C-58.90004491 87.08603377 -58.91369507 80.43515129 -58.93091869 73.7841444 C-58.94205578 68.6599326 -58.94406516 63.53574649 -58.94353676 58.41152382 C-58.94471437 55.96001123 -58.94912384 53.50849793 -58.95686913 51.0569973 C-58.96670311 47.62280236 -58.96377736 44.18883759 -58.95776367 40.75463867 C-58.96338318 39.74913971 -58.96900269 38.74364075 -58.97479248 37.70767212 C-58.92285689 25.99335953 -56.50368764 16.92372755 -48.484375 8.08984375 C-35.85101401 -4.02131154 -16.10910536 -9.08849684 0 0 Z " fill="#679DF6" transform="translate(454.71484375,488.453125)"/>
<path d="M0 0 C1.06927734 0.49306641 1.06927734 0.49306641 2.16015625 0.99609375 C10.86245402 5.30992575 17.90511196 12.18024115 22 21 C22.29648438 21.6290625 22.59296875 22.258125 22.8984375 22.90625 C26.45024285 31.63912922 26.35476464 41.99804424 23.375 50.875 C18.29381574 62.84953912 10.02516126 71.77542365 -2 77 C-12.21206901 79.81838464 -25.32787513 79.84528775 -34.8125 74.9375 C-46.20466394 68.27869995 -52.34167137 59.53224741 -56 47 C-56.495 45.515 -56.495 45.515 -57 44 C-57.95445647 32.10841124 -56.30536829 22.18859916 -48.61328125 12.8359375 C-48.08089844 12.23007812 -47.54851562 11.62421875 -47 11 C-46.49855469 10.39414062 -45.99710938 9.78828125 -45.48046875 9.1640625 C-34.74795136 -2.79577439 -14.52591707 -7.71591724 0 0 Z " fill="#AECBFA" transform="translate(129,346)"/>
<path d="M0 0 C8.83764889 6.15540526 15.69640869 14.47842125 18.27734375 25.02734375 C20.42126095 38.47190862 17.51211159 49.66416768 9.6953125 60.6484375 C3.56830353 68.5821286 -6.48304411 73.95505071 -16.3046875 75.6484375 C-28.73071142 76.78658022 -38.81417282 74.17028761 -48.5625 66.2421875 C-57.04782153 58.47983059 -62.37330455 48.44623054 -63.59375 36.91796875 C-63.95205285 25.37084503 -59.98652021 15.50398214 -52.640625 6.640625 C-38.2279858 -8.56174785 -18.02953068 -10.5732502 0 0 Z " fill="#4486F4" transform="translate(619.3046875,129.3515625)"/>
<path d="M0 0 C10.21618489 6.57320423 17.71571369 14.27089144 20.9375 26.3125 C22.52673492 39.50611731 20.5129631 51.26881401 12.6875 62.25 C9.03666451 66.58487003 4.83193149 69.51825734 -0.0625 72.3125 C-1.0525 72.89 -2.0425 73.4675 -3.0625 74.0625 C-13.04137399 78.22036416 -23.51558471 78.88041102 -33.75 75.25 C-45.62962629 70.16886952 -53.30880855 62.14696443 -58.5 50.3125 C-61.69048131 40.60293998 -61.94454381 27.75952621 -57.3828125 18.4765625 C-45.22387115 -1.45258989 -21.73909189 -12.37049994 0 0 Z " fill="#4386F4" transform="translate(778.0625,466.6875)"/>
<path d="M0 0 C9.90819514 6.32766357 16.97317009 14.59120337 20.4609375 25.859375 C22.84280421 37.25091144 20.71606099 48.29431788 14.8125 58.1875 C9.32699612 66.26050571 1.43917576 73.38439415 -8.1796875 76.0390625 C-21.83721772 77.96851968 -33.46912643 77.47130535 -45 69.4375 C-53.24378372 63.00965466 -58.6155973 53.54584548 -61 43.4375 C-62.44351963 31.18094904 -59.99702793 20.64126904 -52.8125 10.5625 C-39.72105202 -4.88087478 -17.99996621 -9.95097673 0 0 Z " fill="#AECBFA" transform="translate(133,228.5625)"/>
<path d="M0 0 C5.57871115 4.04284376 10.97575024 8.24529964 14.7890625 14.04296875 C15.27246094 14.76097656 15.75585938 15.47898437 16.25390625 16.21875 C21.63865158 25.80986148 21.49658368 38.23458981 18.8671875 48.71875 C14.6644386 59.45759216 7.62797291 68.2443778 -2.87109375 73.33203125 C-14.15810054 77.95322107 -24.89044602 78.673775 -36.49609375 74.296875 C-46.4175433 69.7144501 -54.56552113 60.86981106 -59.2109375 51.04296875 C-62.75155245 41.12924689 -62.7261552 29.37767608 -58.59375 19.66796875 C-52.60602974 8.30144893 -44.40445706 0.34656389 -32.2109375 -3.95703125 C-21.52735897 -6.47707801 -9.47875434 -5.77719699 0 0 Z " fill="#679DF6" transform="translate(456.2109375,704.95703125)"/>
<path d="M0 0 C7.77902148 6.69817897 13.4234863 16.73293905 14.26953125 27.0546875 C14.71530692 39.50378857 12.19456756 50.03532641 3.94140625 59.7890625 C-4.26517142 67.92972388 -15.1683362 72.78413473 -26.69140625 72.96875 C-37.59585598 72.8352806 -47.14410191 69.07569897 -55.234375 61.6796875 C-61.92613405 54.57361692 -66.73554305 46.66496102 -67.00390625 36.71875 C-67.06578125 35.65527344 -67.12765625 34.59179688 -67.19140625 33.49609375 C-67.58568659 22.17285519 -65.32925433 13.5395007 -57.984375 4.78515625 C-41.67067391 -12.2364372 -19.20326538 -13.81225694 0 0 Z " fill="#AECBFA" transform="translate(301.00390625,132.28125)"/>
<path d="M0 0 C9.29732026 6.1420186 15.41136129 15.05145647 18.08203125 25.87109375 C20.23485522 39.82139307 16.21069157 50.47651102 8.78515625 62.02734375 C-0.02252303 71.07306842 -10.14162549 75.46671886 -22.65234375 75.71484375 C-33.89002005 75.72717327 -43.13705612 71.89060387 -51.52734375 64.40234375 C-59.8235033 54.94599331 -63.88955346 44.02342354 -63.73828125 31.55859375 C-63.02401994 20.87112828 -58.02930818 11.38983852 -50.27734375 4.08984375 C-35.7716241 -8.03507251 -16.23239027 -9.69005018 0 0 Z " fill="#AECBFA" transform="translate(135.52734375,467.59765625)"/>
<path d="M0 0 C0.79857422 -0.01160156 1.59714844 -0.02320313 2.41992188 -0.03515625 C12.10140048 0.01218594 18.7251555 3.84287597 26.4375 9.375 C27.7678125 10.24125 27.7678125 10.24125 29.125 11.125 C35.10382719 16.94223727 40.40303886 26.29018626 40.8359375 34.6796875 C40.84864079 36.20309207 40.84027929 37.72679576 40.8125 39.25 C40.80307373 40.04647949 40.79364746 40.84295898 40.78393555 41.66357422 C40.54342259 51.01770744 37.87279309 57.7966485 32.4375 65.375 C32.00695312 65.9834375 31.57640625 66.591875 31.1328125 67.21875 C25.13098535 74.94991717 16.02143751 79.75060381 6.4375 81.375 C-5.712119 82.3828025 -15.32864734 80.82006897 -25.171875 73.453125 C-32.244362 67.3051461 -36.7914988 60.29856318 -39.5625 51.375 C-39.74941406 50.78203125 -39.93632813 50.1890625 -40.12890625 49.578125 C-42.59092004 37.06843329 -40.54600717 26.92455339 -33.5625 16.375 C-30.61517338 12.5552647 -27.76308963 9.45678586 -23.8125 6.6875 C-23.03390625 6.12675781 -22.2553125 5.56601562 -21.453125 4.98828125 C-14.47979511 1.0964093 -7.91976909 -0.11561707 0 0 Z " fill="#4386F4" transform="translate(758.5625,341.625)"/>
<path d="M0 0 C1.05598389 0.00845947 1.05598389 0.00845947 2.13330078 0.01708984 C7.6766309 0.1462424 12.17024404 0.84911851 17.125 3.3125 C17.94355469 3.7146875 18.76210938 4.116875 19.60546875 4.53125 C29.47426655 9.90608693 36.08222485 17.85401645 40.125 28.3125 C43.08679168 40.38749685 41.36951117 51.64683793 35.5 62.375 C29.90934389 71.24293728 21.40692896 77.96382934 11.23706055 80.84790039 C0.08632056 83.30077962 -11.01448887 82.14687652 -20.8515625 76.42578125 C-29.94647009 70.06874636 -37.4881874 61.43767014 -39.875 50.3125 C-41.42917782 36.0039281 -39.95297644 25.12464489 -30.72265625 13.6328125 C-22.31239273 4.61653702 -12.42695599 -0.10472994 0 0 Z " fill="#AECBFA" transform="translate(273.875,242.6875)"/>
<path d="M0 0 C9.07091582 7.73940524 14.37757737 16.51985758 15.46875 28.53515625 C15.64327909 35.79992944 15.25530304 42.14859479 12.125 48.75 C11.7846875 49.49636719 11.444375 50.24273438 11.09375 51.01171875 C6.11613363 60.91650267 -1.6752643 67.50255963 -11.875 71.75 C-24.32440062 74.57393043 -37.61347878 73.93633164 -48.51953125 67.08984375 C-57.06076546 60.85359029 -64.15345341 51.38669855 -65.875 40.75 C-66.88355847 27.99173533 -65.9785721 16.87849189 -57.5625 6.58984375 C-41.9684436 -10.41200941 -19.09380219 -13.83655598 0 0 Z " fill="#AECBFA" transform="translate(299.875,587.25)"/>
<path d="M0 0 C8.73060694 6.41222728 15.078025 14.15595 18.51171875 24.45703125 C19.73541572 37.66283135 18.93309629 49.92406939 10.2734375 60.546875 C2.31750701 69.17314997 -5.39072633 74.95196903 -17.30859375 75.6953125 C-31.17347145 76.0521824 -40.99517143 73.35381634 -51.32421875 63.75 C-58.90680503 55.88596401 -63.04117334 46.67451211 -63.05078125 35.76953125 C-62.71184123 23.40368721 -59.22481059 14.25747453 -50.4296875 5.37890625 C-47.02944555 2.31933126 -43.59460881 -0.48980497 -39.48828125 -2.54296875 C-38.41578125 -3.09984375 -37.34328125 -3.65671875 -36.23828125 -4.23046875 C-24.83480708 -8.29079667 -10.11640133 -6.27312171 0 0 Z " fill="#679DF6" transform="translate(457.48828125,248.54296875)"/>
<path d="M0 0 C0.78753662 0.00829834 1.57507324 0.01659668 2.38647461 0.02514648 C14.38134343 0.37102213 22.72237132 5.04918473 31.16015625 13.38671875 C38.50450323 21.32360328 41.37201597 28.88860373 41.4375 39.5625 C41.458125 40.37976563 41.47875 41.19703125 41.5 42.0390625 C41.57159254 53.35068451 37.14331923 61.67803441 29.875 70.125 C21.3380477 77.47074965 13.29123584 82.0183294 1.9375 81.875 C0.68005981 81.86364014 0.68005981 81.86364014 -0.6027832 81.85205078 C-13.08484507 81.52151198 -21.99040932 76.69879536 -30.5 67.75 C-39.05503016 57.57010141 -40.54610052 46.30372459 -39.8125 33.4375 C-38.32507355 22.96601776 -31.58375259 14.01431228 -23.390625 7.57421875 C-16.05003802 2.28681575 -8.97047848 -0.12267156 0 0 Z " fill="#679DF6" transform="translate(434.8125,361.5625)"/>
<path d="M0 0 C11.30529676 6.55968439 18.45025727 15.35687378 22 28 C23.58414148 40.08080065 20.91845073 52.11292551 13.6953125 62.00390625 C8.68244089 67.9061583 3.11938658 72.00161563 -4 75 C-4.71542969 75.35707031 -5.43085937 75.71414063 -6.16796875 76.08203125 C-15.2791582 79.03531335 -27.97550229 78.15471992 -36.64453125 74.32421875 C-47.55250462 68.19187551 -55.08540053 59.23901056 -58.53491211 47.12084961 C-60.72417761 37.13756908 -60.1644755 24.66316079 -54.7109375 15.9375 C-53.23596449 13.85518516 -51.66873979 11.92972753 -50 10 C-49.49726562 9.3915625 -48.99453125 8.783125 -48.4765625 8.15625 C-36.0350797 -5.68110648 -16.31452567 -7.37988709 0 0 Z " fill="#4386F4" transform="translate(616,464)"/>
<path d="M0 0 C9.25386058 6.2280751 16.40358795 15.29926428 18.9921875 26.3046875 C20.13748261 39.14938963 17.93178458 50.29195482 10.16796875 60.765625 C6.00168156 65.69313951 1.70566175 69.31591631 -4.0078125 72.3046875 C-5.01134766 72.84416016 -5.01134766 72.84416016 -6.03515625 73.39453125 C-14.5966091 77.34466692 -28.27983838 76.58829371 -36.9453125 73.6796875 C-48.13640129 68.92140234 -55.48164454 60.62379702 -60.28125 49.54296875 C-63.22695726 40.46828993 -63.75685009 27.2456469 -60.10546875 18.3125 C-54.40999834 7.89445093 -45.45973857 -0.66774809 -34.30859375 -4.84765625 C-22.59882335 -7.85478072 -10.46019832 -5.89574814 0 0 Z " fill="#4386F4" transform="translate(619.0078125,584.6953125)"/>
<path d="M0 0 C10.69009049 5.46420231 18.68254315 12.56571536 22.76171875 24.08984375 C23.10396484 25.16105469 23.10396484 25.16105469 23.453125 26.25390625 C23.948125 27.73890625 23.948125 27.73890625 24.453125 29.25390625 C25.07935078 38.87314494 25.36860621 47.65944687 20.453125 56.25390625 C19.79957031 57.41986328 19.79957031 57.41986328 19.1328125 58.609375 C13.33973811 68.05873405 5.14508414 74.28083962 -5.33984375 77.8671875 C-17.50923312 79.99952298 -29.55382246 78.64477717 -39.796875 71.50390625 C-48.47496799 64.40526168 -55.15022436 55.61050993 -56.546875 44.25390625 C-57.37978609 32.08794268 -56.20583165 21.81258266 -48.30078125 12.1640625 C-42.08869671 5.39856286 -36.34295712 1.06420685 -27.546875 -1.74609375 C-19.01110259 -4.59135122 -8.15195369 -3.50241124 0 0 Z " fill="#4385F4" transform="translate(774.546875,7.74609375)"/>
<path d="M0 0 C8.54167785 6.40625839 13.63461883 13.08354398 17.03125 23.2734375 C17.8686719 36.01323292 17.05810462 46.73819081 9.03125 57.2734375 C8.495 58.0984375 7.95875 58.9234375 7.40625 59.7734375 C3.81997708 63.54846163 -0.40022745 65.83875779 -4.96875 68.2734375 C-5.57332031 68.61890625 -6.17789063 68.964375 -6.80078125 69.3203125 C-14.35511872 72.93548077 -24.96607728 72.41011667 -33.01171875 70.58203125 C-44.65077532 66.26926455 -52.61585932 57.7047596 -57.90625 46.6484375 C-61.41653309 37.48205042 -61.41653309 28.06482458 -57.90625 18.8984375 C-52.67587947 8.0140072 -44.96087505 -0.43915708 -33.40625 -4.6640625 C-21.16947995 -7.66082251 -10.4761839 -7.11569564 0 0 Z " fill="#FDFEFE" transform="translate(456.96875,887.7265625)"/>
<path d="M0 0 C0.495 0.99 0.495 0.99 1 2 C0.06800781 1.94199219 -0.86398437 1.88398437 -1.82421875 1.82421875 C-13.25749581 1.41960328 -22.76159866 3.18011177 -31.9375 10.625 C-38.69938926 17.18764391 -42.65161983 25.07753704 -43.203125 34.453125 C-43.35784091 46.98511398 -41.02049393 55.97609041 -32.75 65.625 C-29.66400169 68.29018035 -26.42347101 70.47983947 -22.98828125 72.66796875 C-21 74 -21 74 -19 76 C-27.04003377 75.57684033 -33.79364186 70.60269724 -39.25 65 C-46.60855184 56.05606911 -50.04312989 46.1665275 -49.515625 34.609375 C-47.84249292 22.89745044 -41.57239848 13.1710288 -32.1875 6.125 C-21.81328717 -0.56854151 -11.94350566 -0.37410053 0 0 Z " fill="#A9C7F9" transform="translate(446,882)"/>
<path d="M0 0 C2.8203125 1.43359375 2.8203125 1.43359375 6.125 3.4375 C7.76855469 4.42556641 7.76855469 4.42556641 9.4453125 5.43359375 C10.28835938 5.95050781 11.13140625 6.46742188 12 7 C9.3921814 7.98464547 8.31037786 8.1236295 5.67578125 7.07421875 C4.89589844 6.61660156 4.11601562 6.15898438 3.3125 5.6875 C2.52488281 5.23761719 1.73726563 4.78773438 0.92578125 4.32421875 C-1 3 -1 3 -2 1 C-1.34 0.67 -0.68 0.34 0 0 Z " fill="#B8D1FA" transform="translate(415,950)"/>
<path d="M0 0 C0.66 0.33 1.32 0.66 2 1 C-1.96 4.96 -5.92 8.92 -10 13 C-10 8.83248505 -7.76127698 6.85829482 -5 4 C-3.36927384 2.62294236 -1.7133562 1.27277889 0 0 Z " fill="#6098F5" transform="translate(735,348)"/>
<path d="M0 0 C0.66 0.33 1.32 0.66 2 1 C-1.63 4.63 -5.26 8.26 -9 12 C-9 7.8407692 -6.75316432 5.85455565 -4 3 C-1.6875 1.125 -1.6875 1.125 0 0 Z " fill="#7BAAF6" transform="translate(412,707)"/>
</svg>
