<?xml version="1.0" encoding="UTF-8"?>
<svg version="1.1" xmlns="http://www.w3.org/2000/svg" width="1519" height="1521">
<path d="M0 0 C0.71694031 0.16951172 1.43388062 0.33902344 2.17254639 0.51367188 C75.16673559 17.84746344 145.80018116 47.24057254 210 86 C211.07411133 86.64614258 212.14822266 87.29228516 213.25488281 87.95800781 C227.4825 96.53941567 241.42395304 105.42051898 255 115 C255.64356445 115.45068848 256.28712891 115.90137695 256.95019531 116.36572266 C264.90922435 121.94119913 272.68630451 127.72465196 280.34375 133.70703125 C282.048816 135.03810872 283.75863179 136.36292183 285.46875 137.6875 C291.87101308 142.66368758 298.1556493 147.7497623 304.31860352 153.01977539 C307.646228 155.86500327 311.02019984 158.63716303 314.4375 161.375 C320.12858407 166.00108588 325.44681821 170.98942981 330.7890625 176.0078125 C333.1641086 178.23484649 335.57896189 180.39370819 338.0625 182.5 C343.50985316 187.19274147 348.48165918 192.40532432 353.53222656 197.51586914 C357.05866958 201.08161217 360.61851332 204.61355313 364.1796875 208.14453125 C365.74485315 209.70045899 367.3099557 211.2564502 368.875 212.8125 C370.04095703 213.96588867 370.04095703 213.96588867 371.23046875 215.14257812 C375.47455963 219.36883669 379.55365604 223.66942579 383.45849609 228.21118164 C385.54241985 230.62944414 387.70896926 232.96778995 389.875 235.3125 C394.31818194 240.18932582 398.51848437 245.21514701 402.65869141 250.34960938 C404.20187037 252.248388 405.76190797 254.13255739 407.32421875 256.015625 C414.39806941 264.54349662 421.37845751 273.11418718 428 282 C428.45068848 282.60199219 428.90137695 283.20398438 429.36572266 283.82421875 C482.94626395 355.72678931 523.39429532 437.12396842 576 662 C576.0751886 662.75428284 576.1503772 663.50856567 576.22784424 664.28570557 C581.18372978 714.56232814 581.40084977 766.75218076 576 817 C575.91514343 817.80068909 575.83028687 818.60137817 575.74285889 819.42633057 C568.45476514 887.59801221 552.76039188 955.37195572 527 1019 C526.62697754 1019.92570801 526.25395508 1020.85141602 525.86962891 1021.80517578 C520.07034703 1036.12904624 513.83179866 1050.22794488 507.29199219 1064.22802734 C506.09330558 1066.79981263 504.90818799 1069.37737491 503.7265625 1071.95703125 C498.04083727 1084.28185349 491.65584601 1096.17447104 485 1108 C484.41412109 1109.04140137 483.82824219 1110.08280273 483.22460938 1111.15576172 C474.60853431 1126.40823326 465.57741995 1141.33268332 456 1156 C455.39551025 1156.93054199 455.39551025 1156.93054199 454.77880859 1157.87988281 C449.87267772 1165.41992475 444.67564289 1172.74543841 439.41113281 1180.03710938 C437.90817706 1182.12772603 436.41842418 1184.22736245 434.9296875 1186.328125 C428.08550852 1195.94826469 420.92625397 1205.21085196 413.39697266 1214.30322266 C411.52677561 1216.5747832 409.69988059 1218.87945346 407.875 1221.1875 C400.57186874 1230.33175679 392.95263435 1239.17747912 384.99609375 1247.7578125 C382.87795917 1250.03253731 382.87795917 1250.03253731 381 1253 C380.34 1253 379.68 1253 379 1253 C378.77699219 1253.55171875 378.55398438 1254.1034375 378.32421875 1254.671875 C376.58445903 1257.7305676 374.34235518 1259.8073812 371.8125 1262.25 C367.85472157 1266.11468465 364.09822562 1270.07526943 360.49609375 1274.2734375 C358.43135825 1276.6562393 356.32807562 1278.87147372 354 1281 C353.34 1281 352.68 1281 352 1281 C351.74347656 1281.59425781 351.48695312 1282.18851563 351.22265625 1282.80078125 C349.88290435 1285.21062253 348.5626757 1286.44871988 346.4375 1288.1875 C343.35604854 1290.78678189 340.49483214 1293.48183217 337.6875 1296.375 C333.67595026 1300.44140854 329.39854859 1303.9941197 324.94140625 1307.55859375 C321.7373997 1310.21796173 318.71490736 1313.01915333 315.6875 1315.875 C310.1693712 1321.05745017 304.37683814 1325.74644056 298.3828125 1330.36328125 C295.28111491 1332.75814128 292.29304802 1335.26782599 289.3125 1337.8125 C281.18832958 1344.62389057 272.60249406 1350.81086778 264 1357 C263.18966309 1357.58330078 262.37932617 1358.16660156 261.54443359 1358.76757812 C225.86038425 1384.34293281 187.63611829 1407.21403225 147.77954102 1425.67675781 C144.61498647 1427.18329146 141.49797461 1428.77240307 138.375 1430.36328125 C130.54841402 1434.31598398 122.53212443 1437.76230144 114.4375 1441.125 C113.67142426 1441.44437531 112.90534851 1441.76375061 112.11605835 1442.09280396 C94.98835293 1449.20832975 77.57702695 1455.42684023 59.9987793 1461.32873535 C58.14346332 1461.95181966 56.28944879 1462.57877555 54.43554688 1463.20605469 C-6.3657367 1483.67327313 -70.97656248 1495.46170607 -135 1499 C-136.10207291 1499.06195053 -136.10207291 1499.06195053 -137.22640991 1499.12515259 C-150.21762812 1499.84252635 -163.17686428 1500.20515248 -176.1875 1500.1875 C-177.10041809 1500.18656342 -178.01333618 1500.18562683 -178.95391846 1500.18466187 C-241.60428775 1500.04788244 -303.0697637 1492.44764704 -364 1478 C-364.67748291 1477.83991455 -365.35496582 1477.6798291 -366.05297852 1477.51489258 C-400.75323313 1469.27341745 -435.12331576 1457.7916814 -468 1444 C-469.1235791 1443.53561523 -470.2471582 1443.07123047 -471.40478516 1442.59277344 C-489.60341991 1435.0607234 -507.38137647 1426.78758562 -525 1418 C-526.01400879 1417.49500977 -527.02801758 1416.99001953 -528.07275391 1416.46972656 C-544.16331967 1408.401538 -559.63083007 1399.35544103 -575 1390 C-576.05960938 1389.35595215 -577.11921875 1388.7119043 -578.2109375 1388.04833984 C-611.81919443 1367.54080775 -643.35719483 1343.95019363 -673.31298828 1318.43261719 C-674.98350403 1317.01400845 -676.66101042 1315.60406198 -678.33984375 1314.1953125 C-692.57949521 1302.19214809 -705.92123542 1289.24692012 -719 1276 C-721.50670986 1273.48172071 -724.02319714 1270.97743743 -726.5703125 1268.5 C-727.83488281 1267.2625 -727.83488281 1267.2625 -729.125 1266 C-730.39730469 1264.7625 -730.39730469 1264.7625 -731.6953125 1263.5 C-733.90074693 1261.10766435 -735.34560365 1258.78239386 -737 1256 C-738.37158922 1254.51942791 -739.79135878 1253.08238942 -741.25 1251.6875 C-745.40015534 1247.62394501 -749.23258283 1243.41620916 -753 1239 C-753.90428762 1237.95906143 -754.80929531 1236.91874817 -755.71484375 1235.87890625 C-762.26267147 1228.33518266 -768.53791878 1220.62431547 -774.65429688 1212.72802734 C-775.9725213 1211.0352856 -777.30374402 1209.35381445 -778.640625 1207.67578125 C-789.40220604 1194.15167904 -799.72113401 1180.31447781 -809.09350586 1165.78613281 C-809.54991455 1165.08456055 -810.00632324 1164.38298828 -810.4765625 1163.66015625 C-810.86924316 1163.04793213 -811.26192383 1162.43570801 -811.66650391 1161.80493164 C-813.01018775 1159.89047266 -813.01018775 1159.89047266 -814.97485352 1158.03930664 C-816.96672251 1156.03351018 -818.40629948 1154.08742262 -819.92578125 1151.7109375 C-820.4674292 1150.86515137 -821.00907715 1150.01936523 -821.56713867 1149.14794922 C-822.14310791 1148.23287598 -822.71907715 1147.31780273 -823.3125 1146.375 C-824.2257605 1144.93084717 -824.2257605 1144.93084717 -825.1574707 1143.45751953 C-832.44391174 1131.83455334 -839.25390834 1119.94217249 -846 1108 C-846.51191895 1107.10007324 -847.02383789 1106.20014648 -847.55126953 1105.27294922 C-855.00922366 1092.13942932 -861.62650551 1078.68852794 -868 1065 C-868.45375 1064.03578125 -868.9075 1063.0715625 -869.375 1062.078125 C-881.04952936 1037.26975012 -891.13218598 1011.94134952 -900 986 C-900.40573242 984.82083008 -900.81146484 983.64166016 -901.22949219 982.42675781 C-928.03089969 903.9354034 -940.5385827 820.90670155 -940.31805801 738.06599426 C-940.31237444 735.88941372 -940.3095814 733.7128411 -940.30697632 731.53625488 C-940.26655481 708.25021403 -939.56664535 685.15981406 -937 662 C-936.91514343 661.21371216 -936.83028687 660.42742432 -936.74285889 659.61730957 C-930.69193653 603.62063831 -918.68920791 548.30042271 -900.65496826 494.93817139 C-900.21977424 493.65035233 -899.78572483 492.36214589 -899.35284424 491.07354736 C-882.81655871 441.85569348 -860.68186224 394.51846437 -834 350 C-833.09967041 348.49397217 -833.09967041 348.49397217 -832.18115234 346.95751953 C-825.07912454 335.10307837 -817.84762083 323.37609574 -810 312 C-809.47970215 311.24154785 -808.9594043 310.4830957 -808.42333984 309.70166016 C-800.28698405 297.86205388 -791.83562187 286.32568651 -783 275 C-782.04272365 273.7632105 -781.08568521 272.52623682 -780.12890625 271.2890625 C-775.21698337 264.96238146 -770.181799 258.76261749 -764.97509766 252.67602539 C-762.16833332 249.39481511 -759.44163986 246.06465114 -756.75 242.6875 C-752.25627715 237.15551628 -747.40140723 231.99305161 -742.49121094 226.83276367 C-739.57367828 223.76409757 -736.71186322 220.68236358 -733.97265625 217.453125 C-728.65852252 211.33158291 -722.83192244 205.68349662 -717.09399414 199.96362305 C-715.0673702 197.94235732 -713.04614453 195.91580426 -711.02539062 193.88867188 C-704.85197233 187.7120681 -698.67394968 181.640059 -692 176 C-690.22429779 174.38032183 -688.45291693 172.75588282 -686.6875 171.125 C-682.22611655 167.05582609 -677.64055282 163.20022184 -672.94140625 159.41015625 C-670.22339459 157.18304709 -667.55954955 154.90786278 -664.90527344 152.60595703 C-658.40978138 146.9745115 -651.75846835 141.61761251 -644.89111328 136.44482422 C-642.822381 134.8642978 -640.78423825 133.24866861 -638.74609375 131.62890625 C-616.84165814 114.37820169 -593.06867646 99.05705892 -569 85 C-568.23816406 84.55253418 -567.47632813 84.10506836 -566.69140625 83.64404297 C-510.35001148 50.66179047 -450.81999411 24.84051659 -388 7 C-386.91187012 6.68901367 -385.82374023 6.37802734 -384.70263672 6.05761719 C-298.4640587 -18.26504372 -207.24588558 -26.22907295 0 0 Z " fill="#D71920" transform="translate(940,21)"/>
<path d="M0 0 C0.71694031 0.16951172 1.43388062 0.33902344 2.17254639 0.51367188 C75.16673559 17.84746344 145.80018116 47.24057254 210 86 C211.07411133 86.64614258 212.14822266 87.29228516 213.25488281 87.95800781 C227.4825 96.53941567 241.42395304 105.42051898 255 115 C255.64356445 115.45068848 256.28712891 115.90137695 256.95019531 116.36572266 C264.90922435 121.94119913 272.68630451 127.72465196 280.34375 133.70703125 C282.048816 135.03810872 283.75863179 136.36292183 285.46875 137.6875 C291.87101308 142.66368758 298.1556493 147.7497623 304.31860352 153.01977539 C307.646228 155.86500327 311.02019984 158.63716303 314.4375 161.375 C320.12858407 166.00108588 325.44681821 170.98942981 330.7890625 176.0078125 C333.1641086 178.23484649 335.57896189 180.39370819 338.0625 182.5 C343.50985316 187.19274147 348.48165918 192.40532432 353.53222656 197.51586914 C357.05866958 201.08161217 360.61851332 204.61355313 364.1796875 208.14453125 C365.74485315 209.70045899 367.3099557 211.2564502 368.875 212.8125 C370.04095703 213.96588867 370.04095703 213.96588867 371.23046875 215.14257812 C375.47455963 219.36883669 379.55365604 223.66942579 383.45849609 228.21118164 C385.54241985 230.62944414 387.70896926 232.96778995 389.875 235.3125 C394.31818194 240.18932582 398.51848437 245.21514701 402.65869141 250.34960938 C404.20187037 252.248388 405.76190797 254.13255739 407.32421875 256.015625 C414.39806941 264.54349662 421.37845751 273.11418718 428 282 C428.45068848 282.60199219 428.90137695 283.20398438 429.36572266 283.82421875 C482.94626395 355.72678931 523.39429532 437.12396842 576 662 C576.0751886 662.75428284 576.1503772 663.50856567 576.22784424 664.28570557 C581.18372978 714.56232814 581.40084977 766.75218076 576 817 C575.91514343 817.80068909 575.83028687 818.60137817 575.74285889 819.42633057 C568.45476514 887.59801221 552.76039188 955.37195572 527 1019 C526.62697754 1019.92570801 526.25395508 1020.85141602 525.86962891 1021.80517578 C520.07034703 1036.12904624 513.83179866 1050.22794488 507.29199219 1064.22802734 C506.09330558 1066.79981263 504.90818799 1069.37737491 503.7265625 1071.95703125 C498.04083727 1084.28185349 491.65584601 1096.17447104 485 1108 C484.41412109 1109.04140137 483.82824219 1110.08280273 483.22460938 1111.15576172 C474.60853431 1126.40823326 465.57741995 1141.33268332 456 1156 C455.39551025 1156.93054199 455.39551025 1156.93054199 454.77880859 1157.87988281 C449.87267772 1165.41992475 444.67564289 1172.74543841 439.41113281 1180.03710938 C437.90817706 1182.12772603 436.41842418 1184.22736245 434.9296875 1186.328125 C428.08550852 1195.94826469 420.92625397 1205.21085196 413.39697266 1214.30322266 C411.52677561 1216.5747832 409.69988059 1218.87945346 407.875 1221.1875 C400.57186874 1230.33175679 392.95263435 1239.17747912 384.99609375 1247.7578125 C382.87795917 1250.03253731 382.87795917 1250.03253731 381 1253 C380.34 1253 379.68 1253 379 1253 C378.77699219 1253.55171875 378.55398438 1254.1034375 378.32421875 1254.671875 C376.58445903 1257.7305676 374.34235518 1259.8073812 371.8125 1262.25 C367.85472157 1266.11468465 364.09822562 1270.07526943 360.49609375 1274.2734375 C358.43135825 1276.6562393 356.32807562 1278.87147372 354 1281 C353.34 1281 352.68 1281 352 1281 C351.74347656 1281.59425781 351.48695312 1282.18851563 351.22265625 1282.80078125 C349.88290435 1285.21062253 348.5626757 1286.44871988 346.4375 1288.1875 C343.35604854 1290.78678189 340.49483214 1293.48183217 337.6875 1296.375 C333.67595026 1300.44140854 329.39854859 1303.9941197 324.94140625 1307.55859375 C321.7373997 1310.21796173 318.71490736 1313.01915333 315.6875 1315.875 C310.1693712 1321.05745017 304.37683814 1325.74644056 298.3828125 1330.36328125 C295.28111491 1332.75814128 292.29304802 1335.26782599 289.3125 1337.8125 C281.18832958 1344.62389057 272.60249406 1350.81086778 264 1357 C263.18966309 1357.58330078 262.37932617 1358.16660156 261.54443359 1358.76757812 C225.86038425 1384.34293281 187.63611829 1407.21403225 147.77954102 1425.67675781 C144.61498647 1427.18329146 141.49797461 1428.77240307 138.375 1430.36328125 C130.54841402 1434.31598398 122.53212443 1437.76230144 114.4375 1441.125 C113.28838638 1441.60406296 113.28838638 1441.60406296 112.11605835 1442.09280396 C94.98835293 1449.20832975 77.57702695 1455.42684023 59.9987793 1461.32873535 C58.14346332 1461.95181966 56.28944879 1462.57877555 54.43554688 1463.20605469 C-6.3657367 1483.67327313 -70.97656248 1495.46170607 -135 1499 C-136.10207291 1499.06195053 -136.10207291 1499.06195053 -137.22640991 1499.12515259 C-150.21762812 1499.84252635 -163.17686428 1500.20515248 -176.1875 1500.1875 C-177.10041809 1500.18656342 -178.01333618 1500.18562683 -178.95391846 1500.18466187 C-241.60428775 1500.04788244 -303.0697637 1492.44764704 -364 1478 C-364.67748291 1477.83991455 -365.35496582 1477.6798291 -366.05297852 1477.51489258 C-400.75323313 1469.27341745 -435.12331576 1457.7916814 -468 1444 C-469.1235791 1443.53561523 -470.2471582 1443.07123047 -471.40478516 1442.59277344 C-489.60341991 1435.0607234 -507.38137647 1426.78758562 -525 1418 C-526.01400879 1417.49500977 -527.02801758 1416.99001953 -528.07275391 1416.46972656 C-544.16331967 1408.401538 -559.63083007 1399.35544103 -575 1390 C-576.05960938 1389.35595215 -577.11921875 1388.7119043 -578.2109375 1388.04833984 C-611.81919443 1367.54080775 -643.35719483 1343.95019363 -673.31298828 1318.43261719 C-674.98350403 1317.01400845 -676.66101042 1315.60406198 -678.33984375 1314.1953125 C-692.57949521 1302.19214809 -705.92123542 1289.24692012 -719 1276 C-721.50670986 1273.48172071 -724.02319714 1270.97743743 -726.5703125 1268.5 C-727.83488281 1267.2625 -727.83488281 1267.2625 -729.125 1266 C-730.39730469 1264.7625 -730.39730469 1264.7625 -731.6953125 1263.5 C-733.90074693 1261.10766435 -735.34560365 1258.78239386 -737 1256 C-738.37158922 1254.51942791 -739.79135878 1253.08238942 -741.25 1251.6875 C-745.40015534 1247.62394501 -749.23258283 1243.41620916 -753 1239 C-753.90428762 1237.95906143 -754.80929531 1236.91874817 -755.71484375 1235.87890625 C-762.26267147 1228.33518266 -768.53791878 1220.62431547 -774.65429688 1212.72802734 C-775.9725213 1211.0352856 -777.30374402 1209.35381445 -778.640625 1207.67578125 C-805.68661152 1173.68703139 -823.31959754 1144.26273405 -829.875 1100.75 C-829.97854797 1100.06511505 -830.08209595 1099.3802301 -830.18878174 1098.67459106 C-835.20492636 1064.95326223 -835.31344219 1028.67567045 -830 995 C-829.70198486 993.0514209 -829.70198486 993.0514209 -829.39794922 991.06347656 C-817.15291004 911.91703099 -786.54002909 834.2210279 -745.06958008 765.85473633 C-740.01409472 757.40745402 -736.26973857 749.07319446 -732 740 C-761.37 739.67 -790.74 739.34 -821 739 C-820.29322365 735.46611826 -819.81462812 733.24535497 -818.37353516 730.14697266 C-818.04294098 729.42917633 -817.7123468 728.71138 -817.37173462 727.97183228 C-816.83581192 726.82948624 -816.83581192 726.82948624 -816.2890625 725.6640625 C-815.9202597 724.86648529 -815.55145691 724.06890808 -815.17147827 723.24716187 C-813.99436361 720.70406585 -812.80994979 718.16445336 -811.625 715.625 C-810.44872378 713.09200157 -809.27396685 710.55830554 -808.09994507 708.02426147 C-807.37032899 706.45076357 -806.6391554 704.8779866 -805.90615845 703.30606079 C-805.56925995 702.58196014 -805.23236145 701.8578595 -804.88525391 701.11181641 C-804.5608432 700.42136734 -804.2364325 699.73091827 -803.90219116 699.01954651 C-803.3094715 697.69274906 -802.75924394 696.34599007 -802.25723267 694.98228455 C-801.16116768 692.02914533 -800.49119221 690.30049343 -797.75439453 688.6262207 C-796.88927246 688.39507568 -796.02415039 688.16393066 -795.1328125 687.92578125 C-794.1634375 687.65056641 -793.1940625 687.37535156 -792.1953125 687.09179688 C-791.18210937 686.83462891 -790.16890625 686.57746094 -789.125 686.3125 C-787.14832224 685.76734482 -785.17176058 685.22176855 -783.1953125 684.67578125 C-782.17381104 684.40217773 -781.15230957 684.12857422 -780.09985352 683.84667969 C-738.00988968 672.35042116 -697.24430361 655.93817458 -658 637 C-656.43499756 636.24638184 -656.43499756 636.24638184 -654.83837891 635.47753906 C-609.80786282 613.67508097 -567.24295341 586.24575505 -528.67626953 554.37646484 C-526.43236688 552.53388938 -524.15479002 550.73538319 -521.875 548.9375 C-511.98737468 541.03070112 -502.51813243 532.68645239 -493.32543945 523.98388672 C-492.18715221 522.90750938 -491.03913084 521.84129843 -489.87995911 520.78744507 C-487.98978514 519.05224938 -487.98978514 519.05224938 -486.43637085 517.16815186 C-482.30044136 512.7299646 -479.09188544 511.50298703 -473.03320312 511.20532227 C-470.27984082 511.18094685 -467.53351864 511.24405716 -464.78125 511.31640625 C-463.31297173 511.32948263 -461.84466266 511.33943716 -460.37634277 511.34642029 C-456.53521518 511.37298733 -452.69597791 511.44160387 -448.85559082 511.51934814 C-444.92742479 511.59130786 -440.99894945 511.62300099 -437.0703125 511.65820312 C-429.37935197 511.73299258 -421.6899421 511.85226007 -414 512 C-415.62131036 517.09092509 -417.31373279 521.99752579 -419.6796875 526.80078125 C-420.18943115 527.84532471 -420.6991748 528.88986816 -421.22436523 529.96606445 C-421.76907471 531.07038818 -422.31378418 532.17471191 -422.875 533.3125 C-424.0524347 535.72838238 -425.22853004 538.14486163 -426.40234375 540.5625 C-426.85200249 541.48721855 -426.85200249 541.48721855 -427.31074524 542.43061829 C-430.428769 548.85608019 -433.44079137 555.32966476 -436.4375 561.8125 C-437.24006226 563.54729614 -437.24006226 563.54729614 -438.05883789 565.31713867 C-439.15311109 567.68313919 -440.24710357 570.04926955 -441.34082031 572.41552734 C-444.15295709 578.49083519 -446.9814271 584.55850051 -449.8125 590.625 C-450.09970917 591.2405777 -450.38691833 591.8561554 -450.68283081 592.49038696 C-455.09783865 601.95089821 -459.53644763 611.40018543 -463.98498535 620.8449707 C-471.84403806 637.53064563 -471.84403806 637.53064563 -479.67504883 654.22949219 C-480.52225547 656.03904168 -481.37143042 657.84766925 -482.22070312 659.65625 C-486.29877125 668.38141901 -490.13615162 677.16834656 -494 686 C-451.1 686 -408.2 686 -364 686 C-371.83403736 703.40897191 -379.89737561 720.7144013 -388 738 C-431.23 738 -474.46 738 -519 738 C-519.66 739.98 -520.32 741.96 -521 744 C-522.13547539 746.50698634 -523.29574355 748.98388711 -524.5 751.45703125 C-525.22055668 752.95540207 -525.94075455 754.45394548 -526.66064453 755.95263672 C-527.2313266 757.13693268 -527.2313266 757.13693268 -527.8135376 758.34515381 C-553.52557379 811.81544873 -578.05077642 867.43991601 -594.125 924.6875 C-594.48271484 925.93756836 -594.48271484 925.93756836 -594.84765625 927.21289062 C-595.58234877 929.80417101 -596.29499242 932.40049337 -597 935 C-597.25475098 935.92135742 -597.50950195 936.84271484 -597.77197266 937.79199219 C-599.88167553 945.74957341 -601.08737041 953.71508093 -602.125 961.875 C-602.29386719 963.13441406 -602.46273438 964.39382813 -602.63671875 965.69140625 C-608.5056905 1010.65604808 -608.49803495 1062.38721908 -580.4375 1100.5 C-578.97477225 1102.34647574 -577.49702021 1104.18121589 -576 1106 C-575.42636719 1106.72574219 -574.85273437 1107.45148438 -574.26171875 1108.19921875 C-554.3258682 1132.4172329 -520.98295714 1144.80605644 -491.25 1150.875 C-490.31873291 1151.06602295 -489.38746582 1151.2570459 -488.42797852 1151.45385742 C-471.79137045 1154.59647036 -455.01750859 1155.38207768 -438.125 1155.3125 C-437.19589813 1155.31067719 -436.26679626 1155.30885437 -435.30953979 1155.30697632 C-404.16705221 1155.20490904 -374.15610925 1150.59700732 -343.75 1144 C-342.70432861 1143.77530029 -341.65865723 1143.55060059 -340.58129883 1143.3190918 C-331.89320306 1141.37188988 -323.45500152 1138.76208455 -315 1136 C-314.30592041 1135.77380981 -313.61184082 1135.54761963 -312.89672852 1135.3145752 C-278.51134991 1124.06885556 -244.86881811 1111.12876887 -212 1096 C-210.21656802 1095.18471681 -208.43313579 1094.36943416 -206.64968872 1093.55418396 C-185.66057701 1083.94842928 -165.08748272 1073.79523622 -144.89794922 1062.60498047 C-141.94733552 1060.97083266 -138.99127583 1059.34681869 -136.03515625 1057.72265625 C-120.08365443 1048.91629685 -104.49600928 1039.57761067 -89 1030 C-88.08428223 1029.43506836 -87.16856445 1028.87013672 -86.22509766 1028.28808594 C-74.23939387 1020.87306521 -62.56798651 1013.04871174 -51 1005 C-50.17854492 1004.42991211 -49.35708984 1003.85982422 -48.51074219 1003.27246094 C-32.07747884 991.8602955 -15.79212485 980.28724 0 968 C1.57044428 966.80253624 3.14089707 965.60508313 4.7121582 964.40869141 C12.33307478 958.59331006 19.76736081 952.55647723 27.18408203 946.48388672 C28.76299721 945.19366805 30.34778627 943.91064412 31.93359375 942.62890625 C39.22687115 936.72276036 46.31047896 930.58563558 53.37890625 924.4140625 C54.68727326 923.27278814 55.99931512 922.13572746 57.3125 921 C61.76624159 917.14009062 66.11320179 913.16707078 70.44921875 909.17602539 C73.50666616 906.36269604 76.58523721 903.5765263 79.6875 900.8125 C91.65457736 890.03645878 103.22642152 878.872206 114.625 867.5 C115.13992004 866.98766815 115.65484009 866.4753363 116.18536377 865.94747925 C121.49814822 860.65581012 126.71219284 855.32583047 131.59130859 849.62695312 C133.30237143 847.65077934 135.11997167 845.81519977 137 844 C140.21434731 840.8288397 143.21750963 837.54417247 146.16015625 834.12109375 C148.19508819 831.77508942 150.28290967 829.4826355 152.375 827.1875 C156.63049802 822.46711565 160.65930527 817.59340671 164.65576172 812.65332031 C166.74395717 810.08498402 168.85288443 807.53385135 170.96020508 804.98120117 C173.38281236 802.04571891 175.79966051 799.10551486 178.21679688 796.16552734 C179.90637336 794.11370048 181.60138087 792.06646806 183.296875 790.01953125 C190.97769086 780.70566655 198.21433268 771.11458075 205.29882812 761.34082031 C206.90280448 759.13374148 208.519524 756.93670443 210.140625 754.7421875 C264.1916541 681.23040532 309.59148325 595.49266488 323.75 504.5 C324.04765259 502.58997192 324.04765259 502.58997192 324.35131836 500.64135742 C324.9337084 496.76498728 325.48236264 492.88544439 326 489 C326.09396057 488.30071381 326.18792114 487.60142761 326.284729 486.88095093 C327.82122686 475.17724318 328.40473483 463.61248819 328.375 451.8125 C328.37412384 450.95170837 328.37324768 450.09091675 328.37234497 449.20404053 C328.24418665 410.64213224 320.34093475 373.10786057 302 339 C301.68981934 338.40912598 301.37963867 337.81825195 301.06005859 337.20947266 C289.3034671 314.89619561 271.91050566 294.41258247 252 279 C251.37222656 278.51225098 250.74445313 278.02450195 250.09765625 277.52197266 C228.88673116 261.21174835 205.05837564 249.24977149 179.6875 240.9375 C178.51405029 240.55005615 178.51405029 240.55005615 177.31689453 240.15478516 C154.23432254 232.56362078 131.12201289 227.90189629 107 225 C105.59379395 224.82210937 105.59379395 224.82210937 104.15917969 224.640625 C78.20304684 221.44719379 51.05018021 222.02282987 25 224 C24.13729492 224.05913574 23.27458984 224.11827148 22.38574219 224.17919922 C6.77606566 225.26113976 -8.5745527 227.41161307 -24 230 C-25.12035645 230.18433594 -26.24071289 230.36867187 -27.39501953 230.55859375 C-45.78773035 233.6034838 -63.90314715 237.52981099 -82 242 C-83.09344727 242.26989746 -84.18689453 242.53979492 -85.31347656 242.81787109 C-95.82663903 245.43561284 -106.18313279 248.24098219 -116.421875 251.79296875 C-120.29589456 253.09981596 -124.19622916 254.24730567 -128.125 255.375 C-184.02528266 271.69129568 -239.08106265 296.03653799 -289.94921875 324.3046875 C-290.96516113 324.86631592 -291.98110352 325.42794434 -293.02783203 326.0065918 C-295.01383355 327.10664171 -296.99548798 328.21458576 -298.97216797 329.33129883 C-299.8592041 329.8239624 -300.74624023 330.31662598 -301.66015625 330.82421875 C-302.45043213 331.26854248 -303.24070801 331.71286621 -304.05493164 332.1706543 C-304.6968042 332.44433838 -305.33867676 332.71802246 -306 333 C-306.66 332.67 -307.32 332.34 -308 332 C-293.84680041 323.02193782 -279.43345843 314.63603337 -264.76318359 306.53369141 C-262.41242287 305.22891328 -260.07171211 303.90963992 -257.73828125 302.57421875 C-247.69360315 296.82611561 -237.44298897 291.49989737 -227.16015625 286.19140625 C-222.70693713 283.89136195 -218.27549759 281.55526103 -213.85644531 279.19042969 C-161.67663694 251.35358662 -105.27217015 227.65420607 -48.57373047 210.77050781 C-45.46230673 209.83902865 -42.35849546 208.88369521 -39.25390625 207.9296875 C-21.61025219 202.53696198 -3.88537647 197.53893204 14 193 C15.06009277 192.7309082 16.12018555 192.46181641 17.21240234 192.18457031 C102.74866975 170.7903351 200.08425057 162.1042567 367 220 C370.72098875 222.2509802 374.39018327 224.57413692 378 227 C369.3761127 217.62387331 360.56146661 208.45319543 351.5625 199.4375 C350.64001465 198.51050293 349.7175293 197.58350586 348.76708984 196.62841797 C344.24843622 192.11956797 339.67909529 187.7456163 334.83422852 183.58911133 C331.87051846 181.02145676 329.03950919 178.31520182 326.1875 175.625 C321.19454716 170.95316099 316.09431243 166.50199685 310.75390625 162.2265625 C308.28855088 160.23329646 305.87489957 158.19058871 303.47241211 156.12231445 C295.25015429 149.05868749 286.67321576 142.497467 278 136 C276.85821289 135.14269287 276.85821289 135.14269287 275.69335938 134.26806641 C264.01400327 125.51832285 252.13586487 117.10451454 240 109 C239.19981445 108.4652002 238.39962891 107.93040039 237.57519531 107.37939453 C188.008318 74.39096299 134.6768119 48.30916456 78.89648438 27.703125 C75.98945212 26.62533755 73.08921539 25.5295065 70.1875 24.4375 C56.92699097 19.49958852 43.55110262 15.45219692 29.88720703 11.79101562 C27.25422272 11.06965006 24.63994608 10.30716277 22.02734375 9.515625 C-14.89285508 -1.63602638 -53.59872221 -8.4933821 -91.875 -12.8125 C-92.75478516 -12.91186859 -93.63457031 -13.01123718 -94.54101562 -13.11361694 C-99.78845327 -13.69790444 -105.03901548 -14.23503772 -110.29495239 -14.73699951 C-112.0906882 -14.91159141 -113.8857099 -15.09369977 -115.67990112 -15.2835083 C-135.17752442 -17.33533908 -154.6559157 -17.3091382 -174.23657227 -17.26074219 C-178.87182223 -17.24937357 -183.50684205 -17.25612461 -188.14208412 -17.26759815 C-217.88300949 -17.33055983 -246.98773713 -15.72032477 -276.5 -11.8125 C-277.66089142 -11.66071289 -278.82178284 -11.50892578 -280.01785278 -11.35253906 C-300.19861368 -8.69889529 -320.11857757 -5.34502124 -340 -1 C-341.42281866 -0.692068 -342.84567066 -0.38428999 -344.26855469 -0.07666016 C-427.98106077 18.08391038 -508.8571434 50.56980607 -581.34667969 96.32763672 C-584.08223509 98.05183202 -586.82593202 99.76254925 -589.5703125 101.47265625 C-600.59092421 108.37274222 -611.28660943 115.57923615 -621.73193359 123.32177734 C-624.14343947 125.10613594 -626.56494529 126.87627742 -628.98828125 128.64453125 C-637.13147863 134.59663471 -645.2124443 140.58511991 -653 147 C-653.85207031 147.6909375 -654.70414063 148.381875 -655.58203125 149.09375 C-666.29430943 157.79843384 -676.79000698 166.71058012 -687 176 C-688.60367447 177.43804907 -690.20785052 178.87553897 -691.8125 180.3125 C-693.54200099 181.87462993 -695.27115477 183.43714435 -697 185 C-697.88300781 185.78890625 -698.76601563 186.5778125 -699.67578125 187.390625 C-707.4673638 194.44948919 -714.93377731 201.82578565 -722.375 209.25 C-722.89700989 209.76942169 -723.41901978 210.28884338 -723.95684814 210.82400513 C-729.31458427 216.16079533 -734.59579303 221.51969563 -739.51513672 227.27001953 C-741.73113988 229.85183446 -744.05596366 232.32284387 -746.375 234.8125 C-750.6687538 239.46038542 -754.7353184 244.24416348 -758.703125 249.17578125 C-760.72569323 251.66271463 -762.79247603 254.10366776 -764.88305664 256.53344727 C-771.40216014 264.12373762 -777.45955621 272.0316181 -783.48925781 280.01318359 C-784.83038844 281.77693942 -786.18610115 283.52705275 -787.5546875 285.26953125 C-799.25551702 300.212066 -809.88549334 315.94993 -820 332 C-820.50885742 332.80518066 -821.01771484 333.61036133 -821.54199219 334.43994141 C-840.27767909 364.16077726 -857.3569076 395.05143476 -872 427 C-873.34816745 422.95549764 -871.81613147 420.86875873 -870.01953125 417.26171875 C-869.69560898 416.59310318 -869.37168671 415.92448761 -869.03794861 415.23561096 C-867.973465 413.04750664 -866.89380696 410.86733408 -865.8125 408.6875 C-865.07109083 407.17750617 -864.32988098 405.66741446 -863.58886719 404.15722656 C-857.72173057 392.25161855 -851.5308836 380.5551576 -845 369 C-844.04004923 367.27882168 -843.08041633 365.55746603 -842.12109375 363.8359375 C-832.18459572 346.11994528 -821.54148477 328.72035614 -810 312 C-809.51241211 311.2898877 -809.02482422 310.57977539 -808.52246094 309.84814453 C-800.34808781 297.96275069 -791.87212638 286.37247877 -783 275 C-782.04272365 273.7632105 -781.08568521 272.52623682 -780.12890625 271.2890625 C-775.21698337 264.96238146 -770.181799 258.76261749 -764.97509766 252.67602539 C-762.16833332 249.39481511 -759.44163986 246.06465114 -756.75 242.6875 C-752.25627715 237.15551628 -747.40140723 231.99305161 -742.49121094 226.83276367 C-739.57367828 223.76409757 -736.71186322 220.68236358 -733.97265625 217.453125 C-728.65852252 211.33158291 -722.83192244 205.68349662 -717.09399414 199.96362305 C-715.0673702 197.94235732 -713.04614453 195.91580426 -711.02539062 193.88867188 C-704.85197233 187.7120681 -698.67394968 181.640059 -692 176 C-690.22429779 174.38032183 -688.45291693 172.75588282 -686.6875 171.125 C-682.22611655 167.05582609 -677.64055282 163.20022184 -672.94140625 159.41015625 C-670.22339459 157.18304709 -667.55954955 154.90786278 -664.90527344 152.60595703 C-658.40978138 146.9745115 -651.75846835 141.61761251 -644.89111328 136.44482422 C-642.822381 134.8642978 -640.78423825 133.24866861 -638.74609375 131.62890625 C-616.84165814 114.37820169 -593.06867646 99.05705892 -569 85 C-568.23816406 84.55253418 -567.47632813 84.10506836 -566.69140625 83.64404297 C-510.35001148 50.66179047 -450.81999411 24.84051659 -388 7 C-386.91187012 6.68901367 -385.82374023 6.37802734 -384.70263672 6.05761719 C-298.4640587 -18.26504372 -207.24588558 -26.22907295 0 0 Z " fill="#FEFEFE" transform="translate(940,21)"/>
<path d="M0 0 C2.12588436 2.00076522 3.69766431 3.92861208 5.1640625 6.44921875 C5.75610474 7.46012573 5.75610474 7.46012573 6.36010742 8.49145508 C6.77752197 9.2161499 7.19493652 9.94084473 7.625 10.6875 C8.06884033 11.45151123 8.51268066 12.21552246 8.9699707 13.00268555 C10.31930129 15.3317297 11.66069014 17.66518197 13 20 C13.54551514 20.94601074 13.54551514 20.94601074 14.10205078 21.91113281 C16.78812691 26.57823799 19.40322751 31.28271493 22 36 C22.53753906 36.97275879 23.07507812 37.94551758 23.62890625 38.94775391 C45.81048483 79.23413192 63.43068707 121.42859608 78.125 165 C78.42067871 165.87293701 78.71635742 166.74587402 79.02099609 167.64526367 C79.41665771 168.84179565 79.41665771 168.84179565 79.8203125 170.0625 C80.04992676 170.75472656 80.27954102 171.44695312 80.51611328 172.16015625 C81 174 81 174 81 177 C81.66 177 82.32 177 83 177 C97.25839644 224.41814217 106.98838772 272.73322234 112 322 C112.0835675 322.8161377 112.16713501 323.63227539 112.25323486 324.47314453 C117.30241388 374.63837703 117.38904144 426.86204176 112 477 C111.91514343 477.80068909 111.83028687 478.60137817 111.74285889 479.42633057 C104.45476514 547.59801221 88.76039188 615.37195572 63 679 C62.62697754 679.92570801 62.25395508 680.85141602 61.86962891 681.80517578 C56.07034703 696.12904624 49.83179866 710.22794488 43.29199219 724.22802734 C42.09330558 726.79981263 40.90818799 729.37737491 39.7265625 731.95703125 C34.04083727 744.28185349 27.65584601 756.17447104 21 768 C20.41412109 769.04140137 19.82824219 770.08280273 19.22460938 771.15576172 C10.60853431 786.40823326 1.57741995 801.33268332 -8 816 C-8.60448975 816.93054199 -8.60448975 816.93054199 -9.22119141 817.87988281 C-14.12732228 825.41992475 -19.32435711 832.74543841 -24.58886719 840.03710938 C-26.09182294 842.12772603 -27.58157582 844.22736245 -29.0703125 846.328125 C-35.91449148 855.94826469 -43.07374603 865.21085196 -50.60302734 874.30322266 C-52.47322439 876.5747832 -54.30011941 878.87945346 -56.125 881.1875 C-63.42813126 890.33175679 -71.04736565 899.17747912 -79.00390625 907.7578125 C-81.12204083 910.03253731 -81.12204083 910.03253731 -83 913 C-83.66 913 -84.32 913 -85 913 C-85.22300781 913.55171875 -85.44601562 914.1034375 -85.67578125 914.671875 C-87.41554097 917.7305676 -89.65764482 919.8073812 -92.1875 922.25 C-96.14527843 926.11468465 -99.90177438 930.07526943 -103.50390625 934.2734375 C-105.56864175 936.6562393 -107.67192438 938.87147372 -110 941 C-110.66 941 -111.32 941 -112 941 C-112.25652344 941.59425781 -112.51304688 942.18851563 -112.77734375 942.80078125 C-114.11709565 945.21062253 -115.4373243 946.44871988 -117.5625 948.1875 C-120.64395146 950.78678189 -123.50516786 953.48183217 -126.3125 956.375 C-130.32404974 960.44140854 -134.60145141 963.9941197 -139.05859375 967.55859375 C-142.2626003 970.21796173 -145.28509264 973.01915333 -148.3125 975.875 C-153.8306288 981.05745017 -159.62316186 985.74644056 -165.6171875 990.36328125 C-168.71888509 992.75814128 -171.70695198 995.26782599 -174.6875 997.8125 C-182.81167042 1004.62389057 -191.39750594 1010.81086778 -200 1017 C-200.81033691 1017.58330078 -201.62067383 1018.16660156 -202.45556641 1018.76757812 C-238.13961575 1044.34293281 -276.36388171 1067.21403225 -316.22045898 1085.67675781 C-319.38501353 1087.18329146 -322.50202539 1088.77240307 -325.625 1090.36328125 C-333.45158598 1094.31598398 -341.46787557 1097.76230144 -349.5625 1101.125 C-350.71161362 1101.60406296 -350.71161362 1101.60406296 -351.88394165 1102.09280396 C-369.01164707 1109.20832975 -386.42297305 1115.42684023 -404.0012207 1121.32873535 C-405.85653668 1121.95181966 -407.71055121 1122.57877555 -409.56445312 1123.20605469 C-470.3657367 1143.67327313 -534.97656248 1155.46170607 -599 1159 C-600.10207291 1159.06195053 -600.10207291 1159.06195053 -601.22640991 1159.12515259 C-614.21762812 1159.84252635 -627.17686428 1160.20515248 -640.1875 1160.1875 C-641.10041809 1160.18656342 -642.01333618 1160.18562683 -642.95391846 1160.18466187 C-705.60428775 1160.04788244 -767.0697637 1152.44764704 -828 1138 C-828.67748291 1137.83991455 -829.35496582 1137.6798291 -830.05297852 1137.51489258 C-864.75323313 1129.27341745 -899.12331576 1117.7916814 -932 1104 C-933.1235791 1103.53561523 -934.2471582 1103.07123047 -935.40478516 1102.59277344 C-953.60341991 1095.0607234 -971.38137647 1086.78758562 -989 1078 C-990.01400879 1077.49500977 -991.02801758 1076.99001953 -992.07275391 1076.46972656 C-1008.16331967 1068.401538 -1023.63083007 1059.35544103 -1039 1050 C-1040.05960938 1049.35595215 -1041.11921875 1048.7119043 -1042.2109375 1048.04833984 C-1075.81919443 1027.54080775 -1107.35719483 1003.95019363 -1137.31298828 978.43261719 C-1138.98350403 977.01400845 -1140.66101042 975.60406198 -1142.33984375 974.1953125 C-1156.57949521 962.19214809 -1169.92123542 949.24692012 -1183 936 C-1184.66537917 934.33204683 -1186.33201633 932.66534862 -1188 931 C-1191.33333333 927.66666667 -1194.66666667 924.33333333 -1198 921 C-1197.67 920.34 -1197.34 919.68 -1197 919 C-1196.3915625 919.47308594 -1195.783125 919.94617187 -1195.15625 920.43359375 C-1187.78475682 925.99473493 -1180.102403 930.52419293 -1171.99365234 934.91064453 C-1170.15427397 935.91570286 -1168.33538224 936.94930906 -1166.51953125 937.99609375 C-1154.86956069 944.53850659 -1142.47055162 949.25966557 -1130 954 C-1128.65325195 954.51832397 -1128.65325195 954.51832397 -1127.27929688 955.04711914 C-1119.97042941 957.79462775 -1112.54268488 959.93041884 -1105 961.9375 C-1104.35270935 962.10986176 -1103.7054187 962.28222351 -1103.03851318 962.45980835 C-1085.45217559 967.11334209 -1067.66052839 970.38156414 -1049.625 972.75 C-1048.7602002 972.86577393 -1047.89540039 972.98154785 -1047.00439453 973.10083008 C-1005.4851157 978.12548052 -960.7124916 977.17213337 -919.32519531 971.32611084 C-916.8990193 970.98583736 -914.47130247 970.65897067 -912.04296875 970.33447266 C-873.95581244 965.21320306 -836.26413963 957.61019898 -799.39306641 946.70703125 C-797.090846 946.02684044 -794.78619968 945.35568108 -792.48046875 944.6875 C-741.87837263 929.96597182 -692.88127334 910.94844886 -645 889 C-644.28861877 888.67471313 -643.57723755 888.34942627 -642.84429932 888.01428223 C-613.06556955 874.39035883 -583.80303896 859.77228388 -555.43603516 843.39355469 C-552.40814303 841.66142317 -549.35214547 839.98438614 -546.29150391 838.31103516 C-528.24735477 828.43291069 -510.73119012 817.60568157 -493.40283203 806.52880859 C-490.85793578 804.90961124 -488.30297004 803.30723728 -485.74609375 801.70703125 C-473.14166778 793.79430285 -460.89197739 785.45804787 -448.71923828 776.89892578 C-445.36621453 774.55740857 -441.98499365 772.25958449 -438.59887695 769.96630859 C-424.72595883 760.56773461 -411.26748596 750.61586238 -398.02734375 740.34765625 C-395.45841035 738.35548984 -392.87681616 736.38122344 -390.29077148 734.41137695 C-384.10237393 729.68738777 -378.04347934 724.81798042 -372.0168457 719.88964844 C-367.67957268 716.3474468 -363.29729242 712.87269584 -358.875 709.4375 C-353.46250924 705.22291854 -348.22704916 700.83352217 -343.04296875 696.34179688 C-339.53777881 693.30633396 -335.98780781 690.3453697 -332.375 687.4375 C-327.32191856 683.33698767 -322.54690652 678.98415243 -317.77734375 674.5625 C-314.88769327 671.89638085 -311.94490996 669.30401647 -308.9765625 666.7265625 C-304.94002327 663.20057368 -300.97117177 659.59923205 -297 656 C-296.50918945 655.55575684 -296.01837891 655.11151367 -295.51269531 654.65380859 C-289.87235027 649.54235795 -284.31735597 644.38282221 -278.98228455 638.94984436 C-277.14300089 637.14066067 -275.25344449 635.45664729 -273.29125977 633.78295898 C-268.87239362 629.94074588 -264.72335988 625.86772598 -260.58984375 621.72265625 C-259.81870743 620.95247665 -259.04757111 620.18229706 -258.25306702 619.38877869 C-256.63419847 617.77058627 -255.01657449 616.15114788 -253.40014648 614.53051758 C-250.94431282 612.06932768 -248.48318635 609.61352191 -246.02148438 607.15820312 C-244.43978347 605.57584133 -242.85839283 603.99316933 -241.27734375 602.41015625 C-240.55111313 601.68594986 -239.82488251 600.96174347 -239.0766449 600.21559143 C-235.08237349 596.20318834 -231.25829417 592.10261657 -227.58204651 587.79612732 C-225.95679256 585.95094578 -224.25541185 584.22111254 -222.5 582.5 C-219.51106799 579.55735676 -216.75347702 576.47644293 -214.015625 573.30078125 C-211.55519246 570.49226426 -209.03003927 567.74558014 -206.5 565 C-195.20992193 552.72289426 -184.51842289 539.9405396 -174 527 C-173.01460743 525.79664196 -172.02891173 524.59353211 -171.04296875 523.390625 C-158.20318725 507.6977778 -145.83681145 491.65137496 -133.75683594 475.3671875 C-132.66135861 473.89112466 -131.56346674 472.416847 -130.46191406 470.9453125 C-113.03676956 447.63376928 -96.88117304 423.00445306 -82 398 C-81.44731445 397.07429199 -80.89462891 396.14858398 -80.32519531 395.19482422 C-44.5789963 335.13046811 -15.77645303 271.75461687 2 204 C2.28883057 202.92443848 2.28883057 202.92443848 2.58349609 201.82714844 C19.16021786 139.58303134 23.34524123 66.36148826 1.1015625 5.1484375 C0 2 0 2 0 0 Z " fill="#D71920" transform="translate(1404,361)"/>
<path d="M0 0 C1.6021637 -0.00163147 1.6021637 -0.00163147 3.23669434 -0.0032959 C17.35219626 -0.00166247 31.40726437 0.38644118 45.5 1.1875 C45.83 2.1775 46.16 3.1675 46.5 4.1875 C45.44717834 4.18305878 44.39435669 4.17861755 43.30963135 4.17404175 C33.2525248 4.1330078 23.19543582 4.10328645 13.1382637 4.08387566 C7.97120857 4.0735601 2.80422246 4.05963306 -2.36279297 4.03662109 C-34.25452018 3.89872972 -65.3442755 5.18335178 -97 9.375 C-98.16089142 9.52678711 -99.32178284 9.67857422 -100.51785278 9.83496094 C-120.69861368 12.48860471 -140.61857757 15.84247876 -160.5 20.1875 C-161.92281866 20.495432 -163.34567066 20.80321001 -164.76855469 21.11083984 C-248.48106077 39.27141038 -329.3571434 71.75730607 -401.84667969 117.51513672 C-404.58223509 119.23933202 -407.32593202 120.95004925 -410.0703125 122.66015625 C-421.09092421 129.56024222 -431.78660943 136.76673615 -442.23193359 144.50927734 C-444.64343947 146.29363594 -447.06494529 148.06377742 -449.48828125 149.83203125 C-457.63147863 155.78413471 -465.7124443 161.77261991 -473.5 168.1875 C-474.35207031 168.8784375 -475.20414063 169.569375 -476.08203125 170.28125 C-486.79430943 178.98593384 -497.29000698 187.89808012 -507.5 197.1875 C-509.10367447 198.62554907 -510.70785052 200.06303897 -512.3125 201.5 C-514.04200099 203.06212993 -515.77115477 204.62464435 -517.5 206.1875 C-518.38300781 206.97640625 -519.26601563 207.7653125 -520.17578125 208.578125 C-527.9673638 215.63698919 -535.43377731 223.01328565 -542.875 230.4375 C-543.39700989 230.95692169 -543.91901978 231.47634338 -544.45684814 232.01150513 C-549.81458427 237.34829533 -555.09579303 242.70719563 -560.01513672 248.45751953 C-562.23113988 251.03933446 -564.55596366 253.51034387 -566.875 256 C-571.1687538 260.64788542 -575.2353184 265.43166348 -579.203125 270.36328125 C-581.22569323 272.85021463 -583.29247603 275.29116776 -585.38305664 277.72094727 C-591.90216014 285.31123762 -597.95955621 293.2191181 -603.98925781 301.20068359 C-605.33038844 302.96443942 -606.68610115 304.71455275 -608.0546875 306.45703125 C-619.75551702 321.399566 -630.38549334 337.13743 -640.5 353.1875 C-641.00885742 353.99268066 -641.51771484 354.79786133 -642.04199219 355.62744141 C-660.77767909 385.34827726 -677.8569076 416.23893476 -692.5 448.1875 C-693.84816745 444.14299764 -692.31613147 442.05625873 -690.51953125 438.44921875 C-690.19560898 437.78060318 -689.87168671 437.11198761 -689.53794861 436.42311096 C-688.473465 434.23500664 -687.39380696 432.05483408 -686.3125 429.875 C-685.57109083 428.36500617 -684.82988098 426.85491446 -684.08886719 425.34472656 C-678.22173057 413.43911855 -672.0308836 401.7426576 -665.5 390.1875 C-664.54004923 388.46632168 -663.58041633 386.74496603 -662.62109375 385.0234375 C-652.68459572 367.30744528 -642.04148477 349.90785614 -630.5 333.1875 C-630.01241211 332.4773877 -629.52482422 331.76727539 -629.02246094 331.03564453 C-620.84808781 319.15025069 -612.37212638 307.55997877 -603.5 296.1875 C-602.54272365 294.9507105 -601.58568521 293.71373682 -600.62890625 292.4765625 C-595.71698337 286.14988146 -590.681799 279.95011749 -585.47509766 273.86352539 C-582.66833332 270.58231511 -579.94163986 267.25215114 -577.25 263.875 C-572.75627715 258.34301628 -567.90140723 253.18055161 -562.99121094 248.02026367 C-560.07367828 244.95159757 -557.21186322 241.86986358 -554.47265625 238.640625 C-549.15852252 232.51908291 -543.33192244 226.87099662 -537.59399414 221.15112305 C-535.5673702 219.12985732 -533.54614453 217.10330426 -531.52539062 215.07617188 C-525.35197233 208.8995681 -519.17394968 202.827559 -512.5 197.1875 C-510.72429779 195.56782183 -508.95291693 193.94338282 -507.1875 192.3125 C-502.72611655 188.24332609 -498.14055282 184.38772184 -493.44140625 180.59765625 C-490.72339459 178.37054709 -488.05954955 176.09536278 -485.40527344 173.79345703 C-478.90978138 168.1620115 -472.25846835 162.80511251 -465.39111328 157.63232422 C-463.322381 156.0517978 -461.28423825 154.43616861 -459.24609375 152.81640625 C-437.34165814 135.56570169 -413.56867646 120.24455892 -389.5 106.1875 C-388.73816406 105.74003418 -387.97632813 105.29256836 -387.19140625 104.83154297 C-330.85001148 71.84929047 -271.31999411 46.02801659 -208.5 28.1875 C-207.41187012 27.87651367 -206.32374023 27.56552734 -205.20263672 27.24511719 C-138.32122728 8.38193693 -69.36446151 0.03781453 0 0 Z " fill="#FCF1F2" transform="translate(760.5,-0.1875)"/>
<path d="M0 0 C2.86011063 2.68020538 4.90668655 5.2288205 6.8125 8.6484375 C7.32417725 9.55940186 7.83585449 10.47036621 8.36303711 11.40893555 C8.90323486 12.38773682 9.44343262 13.36653809 10 14.375 C10.57177979 15.40085205 11.14355957 16.4267041 11.73266602 17.48364258 C12.91909542 19.61659898 14.10209046 21.75146912 15.28173828 23.88818359 C16.85564767 26.7385742 18.44027799 29.58270378 20.02734375 32.42578125 C42.66385832 73.19727385 60.88054598 115.7490444 75.875 159.875 C76.09667847 160.5181012 76.31835693 161.16120239 76.54675293 161.8237915 C77.16503879 163.62602778 77.76654083 165.43399597 78.3671875 167.2421875 C78.70862793 168.2616748 79.05006836 169.28116211 79.40185547 170.33154297 C80.02423578 173.10812126 79.77988159 174.33952713 79 177 C78.63874023 175.91509277 78.27748047 174.83018555 77.90527344 173.71240234 C58.2102146 114.7034394 34.68881952 55.03322929 0 3 C0 2.01 0 1.02 0 0 Z " fill="#FCEFF0" transform="translate(1406,361)"/>
<path d="M0 0 C0.66 0.33 1.32 0.66 2 1 C2 1.99 2 2.98 2 4 C0.92854736 4.52787109 0.92854736 4.52787109 -0.16455078 5.06640625 C-3.48693322 6.70645455 -6.80670303 8.35170659 -10.125 10 C-10.71869385 10.29457092 -11.3123877 10.58914185 -11.92407227 10.89263916 C-20.02161349 14.91747697 -27.94187443 19.08822521 -35.65625 23.8046875 C-36.4296875 24.19914062 -37.203125 24.59359375 -38 25 C-38.66 24.67 -39.32 24.34 -40 24 C-29.5074743 17.42661616 -18.98585714 10.90167646 -8.3125 4.625 C-7.50578857 4.14313232 -6.69907715 3.66126465 -5.86791992 3.16479492 C-5.12388916 2.73142822 -4.3798584 2.29806152 -3.61328125 1.8515625 C-2.96141846 1.46822754 -2.30955566 1.08489258 -1.63793945 0.68994141 C-1.09741943 0.46226074 -0.55689941 0.23458008 0 0 Z " fill="#F9DFE0" transform="translate(672,329)"/>
</svg>
