<svg width="226" height="28" viewBox="0 0 226 28" fill="none" xmlns="http://www.w3.org/2000/svg">
<g clip-path="url(#clip0_111_8)">
<path d="M0 5H15.9V10.1H5.9V13.5H14.1V18.3H5.8V22H16.5V27.1H0V5ZM26.9 15.8L19.4 5H26.6L30.3 10.7L33.8 5H40.3L33.5 15.2L41.8 27H34.5L30 20.3L25.7 27.1H19.3L26.9 15.8ZM49.3 10.1H42.5V5H61.9V10.1H55.2V27H49.3V10.1ZM66 5H75.1C76.3 5 77.4 5.2 78.3 5.5C79.3 5.8 80.1 6.3 80.8 6.9C81.5 7.5 82 8.3 82.4 9.2C82.8 10.1 83 11.1 83 12.3C83 13.8 82.7 15 82 16.1C81.4 17.2 80.5 18 79.5 18.7L84.2 27.2H77.9L74.2 19.7H71.8V27.2H66V5ZM74.5 15C75.3 15 75.9 14.8 76.4 14.3C76.9 13.8 77.1 13.2 77.1 12.4C77.1 11.6 76.9 10.9 76.4 10.4C75.9 9.9 75.3 9.7 74.5 9.7H71.7V15H74.5ZM94.2 5H100.9L108.7 27H102.4L101 22.4H93.6L92.1 27H86.1L94.2 5ZM99.8 18.2L97.4 10.1L94.9 18.2H99.8ZM112.7 5H118.5V13.1H131.5V5H137.3V27H131.5V18.4H118.5V27H112.7V5ZM153.2 27C151.6 27 150.2 26.7 148.8 26.2C147.5 25.6 146.3 24.9 145.3 23.9C144.3 22.9 143.6 21.8 143 20.4C142.5 19 142.2 17.6 142.2 16C142.2 14.4 142.5 12.9 143 11.6C143.5 10.2 144.3 9.1 145.3 8.1C146.3 7.1 147.4 6.4 148.8 5.8C150.1 5.3 151.6 5 153.2 5H166C167.6 5 169 5.3 170.4 5.8C171.7 6.4 172.9 7.1 173.9 8.1C174.9 9.1 175.6 10.2 176.2 11.6C176.7 13 177 14.4 177 16C177 17.6 176.7 19.1 176.2 20.4C175.7 21.8 174.9 22.9 173.9 23.9C172.9 24.9 171.8 25.6 170.4 26.2C169.1 26.7 167.6 27 166 27H153.2ZM166.1 21.8C166.9 21.8 167.6 21.6 168.3 21.3C168.9 21 169.5 20.6 169.9 20.1C170.3 19.6 170.7 19 170.9 18.2C171.1 17.5 171.2 16.7 171.2 15.9C171.2 15.1 171.1 14.4 170.9 13.6C170.7 12.9 170.3 12.3 169.9 11.7C169.5 11.2 168.9 10.8 168.3 10.5C167.7 10.2 166.9 10 166.1 10H153.3C152.5 10 151.8 10.2 151.1 10.5C150.5 10.8 149.9 11.2 149.5 11.7C149.1 12.2 148.7 12.8 148.5 13.6C148.3 14.3 148.2 15.1 148.2 15.9C148.2 16.7 148.3 17.4 148.5 18.2C148.7 18.9 149.1 19.5 149.5 20.1C149.9 20.6 150.5 21 151.1 21.3C151.7 21.6 152.5 21.8 153.3 21.8H166.1ZM181.9 5H207.1C208.3 5 209.4 5.2 210.3 5.5C211.3 5.8 212.1 6.3 212.8 6.9C213.5 7.5 214 8.3 214.4 9.2C214.8 10.1 215 11.2 215 12.4C215 13.5 214.8 14.5 214.4 15.5C214 16.4 213.5 17.2 212.8 17.8C212.1 18.5 211.3 18.9 210.4 19.3C209.5 19.6 208.4 19.8 207.3 19.8H187.6V27.1H181.9V5ZM206.7 15.1C207.5 15.1 208.1 14.8 208.6 14.3C209.1 13.8 209.3 13.1 209.3 12.4C209.3 11.6 209.1 10.9 208.6 10.4C208.2 9.9 207.5 9.6 206.7 9.6H187.7V15.1H206.7Z" fill="url(#paint0_linear_111_8)"/>
</g>
<path d="M221.774 11.2471C221.194 11.2471 220.661 11.1073 220.175 10.8277C219.698 10.5378 219.315 10.1495 219.025 9.66278C218.746 9.1761 218.606 8.63246 218.606 8.03188C218.606 7.43129 218.746 6.89283 219.025 6.4165C219.315 5.92982 219.698 5.54669 220.175 5.26711C220.661 4.97717 221.194 4.8322 221.774 4.8322C222.375 4.8322 222.913 4.97717 223.39 5.26711C223.866 5.54669 224.244 5.92982 224.524 6.4165C224.814 6.90319 224.959 7.44164 224.959 8.03188C224.959 8.63246 224.814 9.1761 224.524 9.66278C224.244 10.1495 223.866 10.5378 223.39 10.8277C222.913 11.1073 222.375 11.2471 221.774 11.2471ZM221.774 10.5481C222.251 10.5481 222.67 10.4446 223.032 10.2375C223.395 10.02 223.68 9.71973 223.887 9.3366C224.104 8.95346 224.213 8.51856 224.213 8.03188C224.213 7.54519 224.104 7.11546 223.887 6.74269C223.68 6.35955 223.395 6.05926 223.032 5.84181C222.67 5.62435 222.251 5.51563 221.774 5.51563C221.308 5.51563 220.889 5.62435 220.516 5.84181C220.154 6.05926 219.869 6.35955 219.662 6.74269C219.455 7.11546 219.351 7.54519 219.351 8.03188C219.351 8.51856 219.455 8.95346 219.662 9.3366C219.869 9.70938 220.154 10.0045 220.516 10.2219C220.889 10.4394 221.308 10.5481 221.774 10.5481ZM220.656 9.47639V6.5563H221.976C222.287 6.5563 222.53 6.63914 222.706 6.80482C222.882 6.97049 222.97 7.19312 222.97 7.47271C222.97 7.64874 222.924 7.80924 222.831 7.95421C222.748 8.09918 222.623 8.21309 222.458 8.29593L223.141 9.47639H222.334L221.79 8.45125H221.386V9.47639H220.656ZM221.837 7.131H221.386V7.92315H221.821C222.101 7.92315 222.24 7.78853 222.24 7.51931C222.24 7.39505 222.204 7.30185 222.132 7.23972C222.069 7.16724 221.971 7.131 221.837 7.131Z" fill="#7B2854"/>
<defs>
<linearGradient id="paint0_linear_111_8" x1="0" y1="16.0326" x2="215" y2="16.0326" gradientUnits="userSpaceOnUse">
<stop stop-color="#261F63"/>
<stop offset="0.2131" stop-color="#291F63"/>
<stop offset="0.2394" stop-color="#2D1F62"/>
<stop offset="0.5449" stop-color="#57245B"/>
<stop offset="0.7844" stop-color="#712756"/>
<stop offset="0.9269" stop-color="#7B2854"/>
</linearGradient>
<clipPath id="clip0_111_8">
<rect width="215" height="22.1" fill="white" transform="translate(0 5)"/>
</clipPath>
</defs>
</svg>
