<?xml version="1.0" encoding="utf-8"?>
<!-- Generator: Adobe Illustrator 25.4.1, SVG Export Plug-In . SVG Version: 6.00 Build 0)  -->
<svg version="1.1" id="rogo" xmlns="http://www.w3.org/2000/svg" xmlns:xlink="http://www.w3.org/1999/xlink" x="0px" y="0px"
	 viewBox="0 0 503.09 503.09" style="enable-background:new 0 0 503.09 503.09;" xml:space="preserve">
<style type="text/css">
	.st0{fill:none;}
</style>
<rect class="st0" width="503.09" height="503.09"/>
<path d="M291.94,80.43c64.15,15.02,114.58,65.54,129.72,129.62c5.03,21.76,20.29,38.39,43.11,40.33l0,0
	c-22.81,1.82-38.07,18.46-43.11,40.21l0,0c-15.14,64.08-65.57,114.86-129.72,129.74c-21.79,4.97-38.28,20.26-40.35,43.09h0.12
	c-1.95-22.83-18.58-37.93-40.36-43.09C147.3,405.2,96.68,354.76,81.79,290.59c-5.08-21.75-20.2-38.27-43.14-40.21l0,0
	c22.94-1.93,37.82-18.57,43.14-40.33c15.08-64.08,65.51-114.6,129.57-129.62c21.78-5.23,38.41-20.35,40.24-43.08l0,0
	C253.54,60.07,270.15,75.38,291.94,80.43L291.94,80.43z M251.6,320.15c38.74,0,69.92-31.18,69.92-69.78
	c0-38.63-31.18-69.93-69.92-69.93c-38.54,0-69.69,31.3-69.69,69.93C181.9,288.97,213.05,320.15,251.6,320.15z M159.22,145.49h74.97
	v-33.8C205.75,115.31,179.85,127.29,159.22,145.49z M269.24,145.49h74.93c-20.6-18.31-46.51-30.26-74.93-33.8V145.49z M251.6,390.06
	c42.64,0,67.86-13.21,92.57-34.96H159.22C183.99,376.86,216.29,390.06,251.6,390.06z M251.6,285.31c19.49,0,35.09-15.82,35.09-34.94
	c0-19.37-15.59-34.98-35.09-34.98c-19.27,0-34.83,15.6-34.83,34.98C216.77,269.49,232.33,285.31,251.6,285.31z M173.65,320.15
	c-16.72-18.44-26.71-43.01-26.71-69.78c0-26.8,9.99-51.35,26.71-69.93h-42.95c-11.82,20.54-18.7,44.35-18.7,69.93
	c0,25.45,6.78,49.2,18.7,69.78H173.65z M372.84,320.15c11.7-20.57,18.56-44.33,18.56-69.78c0-25.59-6.85-49.39-18.56-69.93h-43.09
	c16.46,18.58,26.8,42.91,26.8,69.93c0,26.77-10.35,51.34-26.8,69.78H372.84z M251.6,250.37"/>
</svg>
