<?xml version="1.0" encoding="utf-8"?>
<!-- Generator: Adobe Illustrator 27.1.1, SVG Export Plug-In . SVG Version: 6.00 Build 0)  -->
<svg version="1.1" id="Layer_1" xmlns="http://www.w3.org/2000/svg" xmlns:xlink="http://www.w3.org/1999/xlink" x="0px" y="0px"
	 viewBox="0 0 500 500" style="enable-background:new 0 0 500 500;" xml:space="preserve">
<style type="text/css">
	.st0{fill:#00D0C1;}
	.st1{fill:#F65E0A;}
	.st2{fill:#414141;}
</style>
<g>
	<path class="st0" d="M434.8,139.29L262.22,311.88l49.31,49.31l128.66-128.66C440.18,232.53,469.77,192.19,434.8,139.29z"/>
	<path class="st1" d="M138.64,64.77l172.59,172.59l49.31-49.31L231.88,59.39C231.88,59.39,191.53,29.8,138.64,64.77z"/>
	<path class="st1" d="M360.91,435.23L188.32,262.64l-49.31,49.31l128.66,128.66C267.66,440.61,308.01,470.2,360.91,435.23z"/>
	<path class="st0" d="M65.2,361.71l172.59-172.59l-49.31-49.31L59.82,268.46C59.82,268.46,30.23,308.81,65.2,361.71z"/>
	<path class="st2" d="M375.49,422.48l-49.31-49.31l47.52-47.52C373.69,325.65,408.21,373.62,375.49,422.48z"/>
	<path class="st2" d="M422.61,127.1l-49.31,49.31l-47.52-47.52C325.78,128.89,373.74,94.37,422.61,127.1z"/>
	<path class="st2" d="M125.78,77.69L175.09,127l-47.52,47.52C127.57,174.51,93.05,126.55,125.78,77.69z"/>
	<path class="st2" d="M79.54,374.62l49.31-49.31l47.52,47.52C176.37,372.82,128.4,407.34,79.54,374.62z"/>
	
		<rect x="215.64" y="215.93" transform="matrix(0.7071 0.7071 -0.7071 0.7071 250.0723 -103.4165)" class="st2" width="68.46" height="68.46"/>
</g>
</svg>
