<?xml version="1.0" encoding="UTF-8"?>
<svg version="1.1" xmlns="http://www.w3.org/2000/svg" width="5121" height="2033">
<path d="M0 0 C0.89460938 0.45906738 1.78921875 0.91813477 2.7109375 1.39111328 C54.99379787 28.52433095 100.17262524 73.9061276 129 125 C129.45584473 125.80099121 129.91168945 126.60198242 130.38134766 127.42724609 C177.33246953 210.29945693 192.54376455 310.8224074 182 405 C181.87109375 406.19850586 181.7421875 407.39701172 181.609375 408.63183594 C176.01768493 459.38418953 162.86853466 507.45882802 142 554 C141.63696777 554.82387207 141.27393555 555.64774414 140.89990234 556.49658203 C129.59477527 582.12565928 114.71020003 607.12150783 97.43652344 629.16650391 C95.61948259 631.48567059 93.82660951 633.8230497 92.03369141 636.16088867 C82.42373311 648.46781553 72.24671975 660.09576066 61.16333008 671.09741211 C59.42745269 672.82248477 57.7026491 674.55811991 55.97851562 676.29492188 C49.30592261 682.97623165 42.43957661 689.16619196 35 695 C33.56332655 696.16087006 32.12709858 697.32229176 30.69140625 698.484375 C-20.77248482 739.4435451 -83.66706445 764.29085249 -149 771 C-149.89726807 771.09571289 -150.79453613 771.19142578 -151.71899414 771.29003906 C-163.13691042 772.34356486 -174.60580174 772.2437721 -186.0625 772.25 C-187.17704559 772.25067474 -188.29159119 772.25134949 -189.43991089 772.25204468 C-206.46646502 772.23568137 -223.16573719 771.7971441 -240 769 C-241.06847168 768.82307617 -242.13694336 768.64615234 -243.23779297 768.46386719 C-293.19374648 759.87710837 -336.15669439 736.39965942 -373.41796875 702.3359375 C-374.81030194 701.07630777 -376.20863392 699.82256949 -377.63891602 698.60620117 C-383.68559685 693.44367141 -389.29303706 687.85887753 -394.90014648 682.23022461 C-396.5592732 680.56573723 -398.22368051 678.90666553 -399.88867188 677.24804688 C-405.46895225 671.67172658 -410.91138429 666.03371829 -416 660 C-417.98 657.69 -419.96 655.38 -422 653 C-422.495 893.57 -422.495 893.57 -423 1139 C-488.67 1139 -554.34 1139 -622 1139 C-622 756.86 -622 374.72 -622 -19 C-556.33 -19 -490.66 -19 -423 -19 C-422.34 16.97 -421.68 52.94 -421 90 C-414.66008895 83.02609785 -408.3585153 76.05019273 -402.203125 68.91796875 C-391.90748543 57.2056811 -380.9162822 45.64565954 -368.6015625 36.046875 C-366.2084941 34.1640404 -363.91950466 32.1937416 -361.63354492 30.18334961 C-292.1438489 -30.45140457 -192.04515904 -47.43337272 0 0 Z M-350.72265625 137.78125 C-352.53591884 139.81281693 -354.26717455 141.89920004 -356 144 C-356.96588918 145.13042768 -357.93206151 146.26061346 -358.8984375 147.390625 C-406.2543869 203.43758146 -423.98281188 282.0368635 -425 354 C-425.02046387 355.31274902 -425.04092773 356.62549805 -425.06201172 357.97802734 C-426.11392141 433.36401833 -417.94153395 515.89429499 -371 578 C-370.52788086 578.6300293 -370.05576172 579.26005859 -369.56933594 579.90917969 C-364.45817415 586.69083551 -359.23831503 593.20846085 -353 599 C-348 604 -348 604 -346.4765625 605.6640625 C-319.95336633 633.80876411 -277.58754635 649.80772437 -239.34545898 651.12597656 C-234.9804334 651.22087557 -230.61596178 651.24660057 -226.25 651.25 C-225.08248703 651.25101212 -225.08248703 651.25101212 -223.89138794 651.25204468 C-211.39120875 651.23486197 -199.25398372 650.67742956 -187 648 C-186.23526367 647.83371094 -185.47052734 647.66742187 -184.68261719 647.49609375 C-163.62651348 642.70052395 -144.3899097 633.0716001 -128 619 C-127.236875 618.34773437 -126.47375 617.69546875 -125.6875 617.0234375 C-123.07635872 614.7300996 -120.53169315 612.38091364 -118 610 C-117.44151367 609.4755127 -116.88302734 608.95102539 -116.30761719 608.41064453 C-62.29509491 557.26000146 -42.43771638 480.75425542 -35 409 C-34.87079666 407.8080603 -34.87079666 407.8080603 -34.73898315 406.59204102 C-32.96268351 389.93033069 -32.63945243 373.37174856 -32.6875 356.625 C-32.68942415 355.29139213 -32.69126459 353.95778413 -32.69302368 352.62417603 C-32.73141761 332.58729098 -33.250744 312.8697448 -36 293 C-36.17160645 291.71609375 -36.34321289 290.4321875 -36.52001953 289.109375 C-41.28576683 254.00146053 -50.39333454 219.8934379 -66 188 C-66.32291016 187.33500488 -66.64582031 186.67000977 -66.97851562 185.98486328 C-72.35711692 175.04670362 -78.97587148 164.94546449 -86 155 C-86.43119141 154.38801758 -86.86238281 153.77603516 -87.30664062 153.14550781 C-99.06021244 136.73678118 -114.01930145 121.92716977 -131 111 C-131.6511377 110.57428711 -132.30227539 110.14857422 -132.97314453 109.70996094 C-200.73120308 65.94988754 -295.55757074 80.73980103 -350.72265625 137.78125 Z " fill="#000000" transform="translate(1261,380)"/>
<path d="M0 0 C67.98 0 135.96 0 206 0 C206 219.45 206 438.9 206 665 C225.58231064 666.20620194 225.58231064 666.20620194 232.75 659.125 C234.21347194 657.11661829 235.63121635 655.07407294 237 653 C238.48102682 651.15130568 239.98097046 649.31759742 241.5 647.5 C242.59828125 646.13875 242.59828125 646.13875 243.71875 644.75 C246.86076412 640.96236654 250.19915181 637.37005729 253.53125 633.75 C255.94378104 631.06262366 258.2325621 628.31034556 260.5 625.5 C264.33719031 620.74404581 268.39385101 616.24495199 272.53125 611.75 C274.94378104 609.06262366 277.2325621 606.31034556 279.5 603.5 C283.33719031 598.74404581 287.39385101 594.24495199 291.53125 589.75 C293.94378104 587.06262366 296.2325621 584.31034556 298.5 581.5 C302.33719031 576.74404581 306.39385101 572.24495199 310.53125 567.75 C312.94378104 565.06262366 315.2325621 562.31034556 317.5 559.5 C321.33719031 554.74404581 325.39385101 550.24495199 329.53125 545.75 C331.94378104 543.06262366 334.2325621 540.31034556 336.5 537.5 C340.33719031 532.74404581 344.39385101 528.24495199 348.53125 523.75 C350.94378104 521.06262366 353.2325621 518.31034556 355.5 515.5 C359.33719031 510.74404581 363.39385101 506.24495199 367.53125 501.75 C369.94378104 499.06262366 372.2325621 496.31034556 374.5 493.5 C378.33719031 488.74404581 382.39385101 484.24495199 386.53125 479.75 C388.94378104 477.06262366 391.2325621 474.31034556 393.5 471.5 C397.33719031 466.74404581 401.39385101 462.24495199 405.53125 457.75 C407.94378104 455.06262366 410.2325621 452.31034556 412.5 449.5 C416.33719031 444.74404581 420.39385101 440.24495199 424.53125 435.75 C426.94378104 433.06262366 429.2325621 430.31034556 431.5 427.5 C435.33719031 422.74404581 439.39385101 418.24495199 443.53125 413.75 C445.94378104 411.06262366 448.2325621 408.31034556 450.5 405.5 C454.33719031 400.74404581 458.39385101 396.24495199 462.53125 391.75 C464.94378104 389.06262366 467.2325621 386.31034556 469.5 383.5 C472.55348679 379.71539666 475.70668301 376.07792463 479 372.5 C483.0793106 368.0665167 486.93342159 363.50254353 490.69921875 358.80078125 C492.64231017 356.43542208 494.62522551 354.12545224 496.64379883 351.82495117 C497.27272537 351.10772385 497.90165192 350.39049652 498.54963684 349.65153503 C499.02825668 349.10652847 499.50687653 348.56152191 500 348 C514.32288046 353.60548397 528.45858543 359.58885992 542.552948 365.74462891 C547.27886163 367.80849501 552.00780268 369.86538237 556.73655701 371.92272949 C559.06202277 372.93453756 561.3873527 373.94665788 563.71253967 374.95910645 C580.66185686 382.33889714 597.66891822 389.5822338 614.67578125 396.828125 C615.28067131 397.08585442 615.88556137 397.34358383 616.50878143 397.60912323 C629.33807899 403.07535296 642.16877934 408.53828603 655 414 C654.22177789 417.66591076 653.13344967 419.17260687 650.375 421.75 C647.58922105 424.42653272 644.95043649 427.12789163 642.4375 430.0625 C639.67637026 433.27442643 636.76644381 436.25612089 633.74609375 439.22265625 C631.93522357 441.06593574 630.24678646 442.97822799 628.5625 444.9375 C625.52320349 448.46634763 622.28983153 451.73005027 618.97265625 454.99609375 C616.42662171 457.58246151 614.07978443 460.3153528 611.71484375 463.06640625 C609.4995262 465.56431556 607.1310183 467.88024989 604.75 470.21875 C602.91757513 472.08389674 601.20646865 474.01927746 599.5 476 C596.71760668 479.22956367 593.78980571 482.23322653 590.75 485.21875 C588.91757513 487.08389674 587.20646865 489.01927746 585.5 491 C582.71760668 494.22956367 579.78980571 497.23322653 576.75 500.21875 C574.91757513 502.08389674 573.20646865 504.01927746 571.5 506 C569.2544206 508.60647609 566.95448488 511.08934521 564.5 513.5 C562.06610268 515.89053167 559.78644441 518.35046262 557.5625 520.9375 C554.52320349 524.46634763 551.28983153 527.73005027 547.97265625 530.99609375 C545.42662171 533.58246151 543.07978443 536.3153528 540.71484375 539.06640625 C538.4995262 541.56431556 536.1310183 543.88024989 533.75 546.21875 C531.91757513 548.08389674 530.20646865 550.01927746 528.5 552 C525.71760668 555.22956367 522.78980571 558.23322653 519.75 561.21875 C517.91757513 563.08389674 516.20646865 565.01927746 514.5 567 C511.71760668 570.22956367 508.78980571 573.23322653 505.75 576.21875 C503.91757513 578.08389674 502.20646865 580.01927746 500.5 582 C498.2544206 584.60647609 495.95448488 587.08934521 493.5 589.5 C491.06610268 591.89053167 488.78644441 594.35046262 486.5625 596.9375 C483.52320349 600.46634763 480.28983153 603.73005027 476.97265625 606.99609375 C474.42662171 609.58246151 472.07978443 612.3153528 469.71484375 615.06640625 C467.4995262 617.56431556 465.1310183 619.88024989 462.75 622.21875 C460.91757513 624.08389674 459.20646865 626.01927746 457.5 628 C454.71760668 631.22956367 451.78980571 634.23322653 448.75 637.21875 C446.91757513 639.08389674 445.20646865 641.01927746 443.5 643 C440.71760668 646.22956367 437.78980571 649.23322653 434.75 652.21875 C432.91757513 654.08389674 431.20646865 656.01927746 429.5 658 C427.2544206 660.60647609 424.95448488 663.08934521 422.5 665.5 C420.06610268 667.89053167 417.78644441 670.35046262 415.5625 672.9375 C413.14382221 675.74576347 410.64100317 678.39970593 408 681 C400.49276479 688.25026074 400.49276479 688.25026074 395 697 C401.30262626 705.08352867 407.68121532 713.09677655 414.16308594 721.03735352 C417.63681006 725.30051376 421.0572309 729.59998656 424.4375 733.9375 C428.53937923 739.1975569 432.74578038 744.36250363 437 749.5 C441.71297432 755.1914994 446.34452844 760.93324446 450.88671875 766.76171875 C454.36853869 771.22089165 457.92242356 775.61739025 461.5 780 C465.53210829 784.93942126 469.51810853 789.90819236 473.4375 794.9375 C478.12065104 800.94295251 482.95081655 806.81850309 487.80834961 812.68334961 C491.89251734 817.62534335 495.87891521 822.63225604 499.81640625 827.69140625 C503.46485231 832.36099173 507.22018942 836.93636479 511 841.5 C515.71303848 847.19144463 520.34453001 852.93324647 524.88671875 858.76171875 C528.36853869 863.22089165 531.92242356 867.61739025 535.5 872 C539.53210829 876.93942126 543.51810853 881.90819236 547.4375 886.9375 C552.11713316 892.93844134 556.94358679 898.80963637 561.79736328 904.67016602 C566.00261087 909.75887383 570.11137956 914.91349234 574.17236328 920.11767578 C577.57515461 924.47440345 581.05120943 928.76517612 584.5625 933.03515625 C591.62398655 941.62436825 598.65384653 950.23777682 605.5 959 C611.5593745 966.75418862 617.77732331 974.37667392 624 982 C630.68230682 990.18641339 637.33391277 998.38906391 643.84082031 1006.71582031 C649.46049385 1013.89133714 655.23685878 1020.93964528 661 1028 C667.67635349 1036.17912005 674.3233636 1044.37352336 680.82324219 1052.69384766 C685.49313639 1058.65791137 690.26959867 1064.53445969 695.0546875 1070.40625 C695.54678711 1071.01210937 696.03888672 1071.61796875 696.54589844 1072.2421875 C697.510472 1073.40822673 698.49295527 1074.55969283 699.49316406 1075.6953125 C703 1079.69749209 703 1079.69749209 703 1083 C702.3439679 1083.22898483 701.68793579 1083.45796967 701.01202393 1083.69389343 C692.42454899 1086.69137957 683.8372201 1089.6892839 675.25 1092.6875 C674.19072296 1093.05734512 674.19072296 1093.05734512 673.11004639 1093.43466187 C653.28515064 1100.35663661 633.46256654 1107.28515377 613.64370728 1114.22439575 C609.99396902 1115.50211135 606.34405921 1116.77933566 602.6940918 1118.05639648 C600.23225493 1118.91779404 597.77042228 1119.77920361 595.30859375 1120.640625 C594.08480515 1121.06884048 592.86101654 1121.49705597 591.60014343 1121.93824768 C584.10209479 1124.5625024 576.60534208 1127.19042145 569.10957909 1129.82119751 C563.22905667 1131.88494686 557.34772036 1133.94636571 551.46584511 1136.0062561 C547.93192385 1137.24400688 544.39843577 1138.48296344 540.8659668 1139.72485352 C536.96527764 1141.09618849 533.06279742 1142.46235511 529.16015625 1143.828125 C527.41775414 1144.44213165 527.41775414 1144.44213165 525.64015198 1145.06854248 C524.57046677 1145.44198792 523.50078156 1145.81543335 522.39868164 1146.20019531 C521.47156876 1146.52546204 520.54445587 1146.85072876 519.58924866 1147.18585205 C517.0720969 1147.97733028 514.59542384 1148.53492712 512 1149 C506.56640625 1141.4765625 501.1328125 1133.953125 495.69921875 1126.4296875 C495.17005859 1125.6970166 494.64089844 1124.9643457 494.09570312 1124.20947266 C493.02534316 1122.72741058 491.95503123 1121.24531381 490.88476562 1119.76318359 C488.13914015 1115.96110355 485.39263916 1112.15966123 482.64453125 1108.359375 C477.34317769 1101.02666167 472.05344563 1093.68638156 466.80126953 1086.31835938 C461.7901413 1079.29435105 456.72930529 1072.30621493 451.67333984 1065.31445312 C448.94736861 1061.54406981 446.22378466 1057.77196306 443.5 1054 C442.41667856 1052.49999141 441.33334521 1050.99999142 440.25 1049.5 C438.08333333 1046.5 435.91666667 1043.5 433.75 1040.5 C433.2135083 1039.75717773 432.6770166 1039.01435547 432.12426758 1038.24902344 C431.04332809 1036.75231299 429.96243599 1035.25556832 428.8815918 1033.75878906 C426.1370246 1029.95817363 423.39158034 1026.15819702 420.64453125 1022.359375 C415.34317769 1015.02666167 410.05344563 1007.68638156 404.80126953 1000.31835938 C399.7901413 993.29435105 394.72930529 986.30621493 389.67333984 979.31445312 C386.94736861 975.54406981 384.22378466 971.77196306 381.5 968 C380.41667856 966.49999141 379.33334521 964.99999142 378.25 963.5 C376.08333333 960.5 373.91666667 957.5 371.75 954.5 C370.94526245 953.3857666 370.94526245 953.3857666 370.12426758 952.24902344 C369.04332809 950.75231299 367.96243599 949.25556832 366.8815918 947.75878906 C364.1370246 943.95817363 361.39158034 940.15819702 358.64453125 936.359375 C353.34317769 929.02666167 348.05344563 921.68638156 342.80126953 914.31835938 C337.7901413 907.29435105 332.72930529 900.30621493 327.67333984 893.31445312 C324.94736861 889.54406981 322.22378466 885.77196306 319.5 882 C318.41667856 880.49999141 317.33334521 878.99999142 316.25 877.5 C314.08333333 874.5 311.91666667 871.5 309.75 868.5 C308.94526245 867.3857666 308.94526245 867.3857666 308.12426758 866.24902344 C307.04332809 864.75231299 305.96243599 863.25556832 304.8815918 861.75878906 C302.1370246 857.95817363 299.39158034 854.15819702 296.64453125 850.359375 C291.34317769 843.02666167 286.05344563 835.68638156 280.80126953 828.31835938 C275.7901413 821.29435105 270.72930529 814.30621493 265.67333984 807.31445312 C262.94736861 803.54406981 260.22378466 799.77196306 257.5 796 C256.41667856 794.49999141 255.33334521 792.99999142 254.25 791.5 C252.08333333 788.5 249.91666667 785.5 247.75 782.5 C246.94526245 781.3857666 246.94526245 781.3857666 246.12426758 780.24902344 C245.04332809 778.75231299 243.96243599 777.25556832 242.8815918 775.75878906 C240.1370246 771.95817363 237.39158034 768.15819702 234.64453125 764.359375 C228.9084402 756.42527212 223.18687866 748.48173428 217.51171875 740.50390625 C214.03304897 735.65108076 210.51188542 730.82884245 207 726 C206.67 860.31 206.34 994.62 206 1133 C138.02 1133 70.04 1133 0 1133 C0 759.11 0 385.22 0 0 Z " fill="#000000" transform="translate(3624,0)"/>
<path d="M0 0 C67.65 0 135.3 0 205 0 C205.01981934 14.2111084 205.03963867 28.4222168 205.06005859 43.06396484 C205.10344451 73.51446163 205.14937895 103.96495235 205.20132446 134.41543579 C205.20245809 135.08036718 205.20359171 135.74529858 205.20475969 136.4303794 C205.22942089 150.88703943 205.25451421 165.34369868 205.28005161 179.80035719 C205.2925756 186.89164423 205.30500428 193.98293145 205.31738281 201.07421875 C205.3192328 202.13262546 205.3192328 202.13262546 205.32112016 203.21241412 C205.3609289 226.01311493 205.39446424 248.81381962 205.42468691 271.61453499 C205.45582236 295.07854999 205.49340537 318.54254628 205.53890612 342.00653802 C205.56817076 357.10474853 205.59195139 372.20294326 205.60726251 387.30117454 C205.6178839 397.224668 205.63578821 407.14813248 205.65916704 417.071604 C205.67240589 422.77897507 205.68267705 428.48630592 205.68421364 434.19369316 C205.42287204 532.28758415 205.42287204 532.28758415 251.625 616.125 C279.22271944 642.68780496 317.5436249 651.22079028 354.6875 651.25 C355.46111877 651.25067474 356.23473755 651.25134949 357.03179932 651.25204468 C370.21194586 651.23386306 383.02571025 650.4796611 396 648 C396.87720703 647.83371094 397.75441406 647.66742187 398.65820312 647.49609375 C424.55349644 642.38144182 448.77823314 632.13087503 469 615 C469.76086914 614.35659668 469.76086914 614.35659668 470.53710938 613.70019531 C508.88016654 580.92149815 525.78175922 531.03523893 530 482 C531.9457596 455.36266362 532.30893568 428.74986967 532.31667423 402.05241895 C532.32044573 396.63107112 532.33563682 391.20975195 532.34928894 385.78842163 C532.37132809 376.44404034 532.38647995 367.09966956 532.39665604 357.7552681 C532.41137851 344.24562057 532.43695101 330.73600977 532.46498732 317.22638409 C532.51021215 295.29627761 532.5469261 273.36616576 532.578125 251.43603516 C532.60841104 230.1606342 532.64281692 208.88524828 532.68261719 187.60986328 C532.68512388 186.26684566 532.68763046 184.92382805 532.69013691 183.58081043 C532.70957011 173.17918328 532.72926313 162.77755662 532.74901867 152.37593007 C532.84542638 101.58396941 532.92129125 50.79199713 533 0 C600.32 0 667.64 0 737 0 C737 255.42 737 510.84 737 774 C669.68 774 602.36 774 533 774 C532.67 751.23 532.34 728.46 532 705 C531.67 694.44 531.34 683.88 531 673 C528.8034375 675.4440625 528.8034375 675.4440625 526.5625 677.9375 C521.61851364 683.36785604 516.49812196 688.61321819 511.3125 693.8125 C510.26267944 694.86908813 510.26267944 694.86908813 509.19165039 695.94702148 C504.62327035 700.50252227 499.88810626 704.79219399 495 709 C493.83174517 710.03336355 492.66503202 711.06847311 491.5 712.10546875 C444.34979347 753.77387046 388.31347899 779.90906094 326 789 C324.87787109 789.16516113 323.75574219 789.33032227 322.59960938 789.50048828 C286.62946045 794.50093883 247.89190974 794.51149176 212 789 C210.86643066 788.82839355 209.73286133 788.65678711 208.56494141 788.47998047 C159.32958855 780.75611115 111.92289118 762.2684375 75.52685547 727.45947266 C74.49684225 726.47491573 73.46187541 725.4955186 72.42236328 724.52099609 C17.91693749 673.2968334 3.53456582 595.57871519 1 524 C0.7438204 515.52747189 0.59519791 507.05275523 0.45532227 498.57763672 C0.43384412 497.28448288 0.41236597 495.99132904 0.39023697 494.65898871 C-0.30105712 451.83186551 -0.12876696 408.99479523 -0.10353855 366.16361583 C-0.09624286 353.43624981 -0.094875 340.70888488 -0.09374207 327.98151706 C-0.09157368 305.29936207 -0.08498375 282.61721138 -0.07543945 259.93505859 C-0.0661997 237.95068378 -0.05916051 215.96630997 -0.05493164 193.98193359 C-0.054661 192.59054919 -0.05439029 191.19916479 -0.05411953 189.80778039 C-0.05203287 179.02904481 -0.05008254 168.2503092 -0.04816496 157.47157359 C-0.03879526 104.98104569 -0.01866219 52.49052702 0 0 Z " fill="#000000" transform="translate(1869,360)"/>
<path d="M0 0 C1.34964844 1.03253906 1.34964844 1.03253906 2.7265625 2.0859375 C8.72968684 6.78807514 14.44604557 11.77682125 20 17 C20.55848633 17.5244873 21.11697266 18.04897461 21.69238281 18.58935547 C36.85120736 32.94498249 48.6538445 48.90724569 59 67 C59.40202637 67.69561035 59.80405273 68.3912207 60.21826172 69.10791016 C90.22636306 121.51381084 95.21094727 185.23730737 95.12025452 244.34884644 C95.12069187 246.50860517 95.12156978 248.66836385 95.12284368 250.82812226 C95.12505648 256.69584028 95.12111199 262.56353969 95.11606562 268.43125534 C95.11171458 274.78402959 95.11321082 281.13680293 95.1139679 287.48957825 C95.1144902 298.47396977 95.11140947 309.45835522 95.10573006 320.44274521 C95.09979477 331.95175073 95.09596044 343.46075386 95.09487724 354.96976089 C95.0948085 355.6877626 95.09473976 356.40576431 95.09466894 357.14552364 C95.09433057 360.79250986 95.0940292 364.43949608 95.09374207 368.0864823 C95.09164667 393.85778669 95.08492337 419.62908798 95.07543945 445.40039062 C95.0662418 470.4228514 95.05916468 495.44531131 95.05493164 520.46777344 C95.05473435 521.6265556 95.05473435 521.6265556 95.05453308 522.80874751 C95.05321445 530.56736043 95.05193866 538.32597335 95.05069422 546.08458628 C95.04815862 561.88704886 95.04533736 577.68951138 95.04234314 593.49197388 C95.04220585 594.21840225 95.04206856 594.94483062 95.04192711 595.69327197 C95.03770753 617.94036162 95.03227829 640.18745074 95.02565002 662.43453979 C95.02527947 663.67991835 95.02490891 664.92529691 95.02452713 666.20841421 C95.01703564 691.13894303 95.00836534 716.06947146 95 741 C27.68 741 -39.64 741 -109 741 C-109.04898438 707.64550781 -109.09796875 674.29101562 -109.1484375 639.92578125 C-109.18383239 618.76627358 -109.21970607 597.60676833 -109.2578125 576.44726562 C-109.27654427 566.03294635 -109.29519709 555.61862695 -109.31362569 545.20430713 C-109.31612505 543.79201604 -109.31862724 542.37972496 -109.3211323 540.96743388 C-109.36090733 518.53007083 -109.39445757 496.09270389 -109.42468691 473.65532611 C-109.45672666 449.89976773 -109.49603128 426.1442315 -109.54279006 402.38869733 C-109.5705142 388.18721406 -109.5926159 373.98574582 -109.60726251 359.78424295 C-109.6178971 350.01350768 -109.63581458 340.24280173 -109.65916704 330.47208867 C-109.67238499 324.85548283 -109.68267366 319.2389176 -109.68421364 313.62229538 C-109.6917659 293.18282084 -109.80706539 272.78571545 -110.93399048 252.37272644 C-110.97539899 251.62205862 -111.0168075 250.8713908 -111.05947082 250.09797547 C-113.61404398 205.10333988 -123.04393382 159.95606618 -156 127 C-156.88558594 126.11441406 -157.77117188 125.22882813 -158.68359375 124.31640625 C-165.1797069 118.12199937 -172.10790856 113.25449673 -180 109 C-180.62616211 108.66226563 -181.25232422 108.32453125 -181.89746094 107.9765625 C-190.0866332 103.65664218 -198.42964878 100.30020101 -207.3125 97.6875 C-208.46395508 97.34211182 -208.46395508 97.34211182 -209.63867188 96.98974609 C-225.83037249 92.5222789 -242.34925752 91.44580261 -259.0625 91.5625 C-259.9941095 91.56554138 -260.92571899 91.56858276 -261.88555908 91.57171631 C-311.11080232 91.80815889 -354.91582961 106.52542069 -390.33203125 141.2890625 C-401.71618463 153.22703956 -410.35295658 167.97630688 -417 183 C-417.30244629 183.67933594 -417.60489258 184.35867188 -417.91650391 185.05859375 C-427.60818388 207.26417092 -431.93913736 231.24439801 -434.125 255.25 C-434.20073242 256.08088135 -434.27646484 256.9117627 -434.35449219 257.76782227 C-434.60758163 260.8435461 -434.8063377 263.91989359 -435 267 C-435.04126853 267.65413852 -435.08253706 268.30827704 -435.12505615 268.98223794 C-436.35628403 289.56559859 -436.17434089 310.18738513 -436.20060861 330.79839766 C-436.20870323 336.31611673 -436.22236893 341.83382256 -436.23532104 347.35153198 C-436.25695693 356.88606788 -436.27514769 366.42060519 -436.29092598 375.95515251 C-436.31374318 389.74011322 -436.3418688 403.52505918 -436.37124526 417.31000728 C-436.41877695 439.68103011 -436.46208791 462.0520594 -436.50268555 484.4230957 C-436.54210726 506.14054843 -436.58356293 527.85799575 -436.62768555 549.57543945 C-436.63046288 550.94385352 -436.63324016 552.31226758 -436.63601738 553.68068165 C-436.65753359 564.27726018 -436.67917818 574.87383845 -436.70085371 585.47041667 C-436.80687023 637.31360017 -436.90272544 689.15679793 -437 741 C-504.98 741 -572.96 741 -643 741 C-643 486.24 -643 231.48 -643 -31 C-575.02 -31 -507.04 -31 -437 -31 C-436.67 2.33 -436.34 35.66 -436 70 C-427.04831794 61.09877364 -427.04831794 61.09877364 -418.74609375 51.90625 C-415.98432065 48.89115991 -412.92411101 46.24021709 -409.85546875 43.54296875 C-407.78260475 41.69695717 -405.75103743 39.83498728 -403.73828125 37.92578125 C-396.36423542 30.93632284 -388.78350323 24.45153461 -380.69824219 18.29980469 C-379.0390968 17.02992401 -377.3965615 15.7413687 -375.7578125 14.4453125 C-326.71523069 -24.18930199 -267.00008144 -44.63582145 -205 -49 C-204.21608887 -49.05639648 -203.43217773 -49.11279297 -202.62451172 -49.17089844 C-132.93939507 -53.9436582 -56.84589246 -43.69388649 0 0 Z " fill="#000000" transform="translate(3389,392)"/>
<path d="M0 0 C0.8235498 0.38913574 1.64709961 0.77827148 2.49560547 1.17919922 C12.30191814 5.85352244 21.86556323 10.90102451 31.25 16.375 C32.56484375 17.12487183 32.56484375 17.12487183 33.90625 17.88989258 C34.70546875 18.3670874 35.5046875 18.84428223 36.328125 19.3359375 C37.39401855 19.96314697 37.39401855 19.96314697 38.48144531 20.60302734 C39.23312988 21.29452881 39.23312988 21.29452881 40 22 C40 25.97333187 39.84333104 26.75639544 37.90234375 29.921875 C37.20661255 31.06994629 37.20661255 31.06994629 36.49682617 32.24121094 C35.98224854 33.06911133 35.4676709 33.89701172 34.9375 34.75 C34.40165283 35.62688477 33.86580566 36.50376953 33.3137207 37.40722656 C31.55358884 40.27850312 29.7787721 43.14023778 28 46 C27.40638672 46.95648438 26.81277344 47.91296875 26.20117188 48.8984375 C22.4572186 54.92430404 18.69206813 60.93670076 14.91894531 66.94433594 C11.79535396 71.9182379 8.67829486 76.89621176 5.5625 81.875 C4.65165649 83.32676636 4.65165649 83.32676636 3.72241211 84.80786133 C0.30633295 90.2641674 -3.06549724 95.74427056 -6.39453125 101.25390625 C-7.49027673 103.06038799 -8.58654704 104.8665504 -9.68289185 106.67266846 C-10.73179668 108.40739453 -11.7710808 110.14764528 -12.81030273 111.88818359 C-13.44524658 112.93441895 -14.08019043 113.9806543 -14.734375 115.05859375 C-15.29350586 115.98986084 -15.85263672 116.92112793 -16.42871094 117.88061523 C-18 120 -18 120 -21 121 C-22.71972656 120.20239258 -22.71972656 120.20239258 -24.640625 118.89453125 C-25.73346802 118.17003784 -25.73346802 118.17003784 -26.84838867 117.4309082 C-27.64092041 116.8968335 -28.43345215 116.36275879 -29.25 115.8125 C-70.72958909 88.86613878 -123.8686131 71.19018131 -173.75463867 80.5234375 C-194.10648593 84.86161319 -211.41036533 93.05233749 -226 108 C-226.67546875 108.65484375 -227.3509375 109.3096875 -228.046875 109.984375 C-239.84242897 122.1974707 -243.98315593 139.50965488 -244 156 C-242.33326415 183.48598934 -226.86761965 203.61179285 -207.09375 221.2578125 C-206.57039063 221.7209082 -206.04703125 222.18400391 -205.5078125 222.66113281 C-204.10796859 223.90412893 -202.7250939 225.16616411 -201.34375 226.4296875 C-196.33770575 231.00800012 -191.18444158 235.35567313 -185.91015625 239.62109375 C-183.33102735 241.7294018 -180.79076998 243.87303717 -178.26025391 246.03881836 C-172.49332723 250.97144346 -166.60329646 255.69457008 -160.55859375 260.28515625 C-157.97118365 262.25082541 -155.40492576 264.24136771 -152.84765625 266.24609375 C-144.43654934 272.83885975 -135.94605487 279.29413578 -127.32226562 285.60620117 C-118.62493721 291.98300156 -110.06042455 298.53094943 -101.49853516 305.08789062 C-99.13030641 306.90027753 -96.75914891 308.70874282 -94.38671875 310.515625 C-77.13560476 323.66106996 -60.07576597 337.04402377 -43.57519531 351.12597656 C-40.3256834 353.89601926 -37.02541833 356.58761276 -33.6875 359.25 C-15.44832773 374.1514563 2.7064612 391.26956703 17 410 C17.85734054 411.04831053 18.71825253 412.09370673 19.58203125 413.13671875 C54.08855056 455.17193318 64.33416191 508.93908518 59.17749023 562.22729492 C54.51799985 604.00687262 38.02047045 644.37083259 10 676 C9.29875 676.80953125 8.5975 677.6190625 7.875 678.453125 C-2.19235668 689.8867658 -12.78295652 699.92697457 -25 709 C-25.86262451 709.64582031 -25.86262451 709.64582031 -26.74267578 710.3046875 C-35.47693386 716.81285609 -44.50922109 722.65747964 -54 728 C-55.12607666 728.63591064 -55.12607666 728.63591064 -56.27490234 729.28466797 C-90.71489358 748.51793792 -128.76697578 760.35082275 -167.6875 766.25 C-168.68193115 766.40114258 -169.6763623 766.55228516 -170.70092773 766.70800781 C-190.89217836 769.56187206 -211.00365094 770.37566832 -231.375 770.3125 C-233.21285065 770.30976578 -233.21285065 770.30976578 -235.08782959 770.30697632 C-312.81639923 770.11286039 -385.91030648 751.17787561 -451 708 C-451.69528809 707.53883789 -452.39057617 707.07767578 -453.10693359 706.60253906 C-462.79749384 700.13298238 -472.15642234 693.24934747 -481.42773438 686.1953125 C-483.27865358 684.78815405 -485.13768483 683.39203356 -487 682 C-486.41691543 677.71226704 -484.90060925 674.79324495 -482.640625 671.125 C-482.30011612 670.56777756 -481.95960724 670.01055511 -481.60877991 669.43644714 C-480.49625366 667.61984844 -479.37326968 665.80997153 -478.25 664 C-477.47095996 662.73256988 -476.69256439 661.46474342 -475.91479492 660.1965332 C-473.97428638 657.03661281 -472.02516349 653.88212811 -470.07196045 650.7300415 C-468.53673293 648.25233132 -467.00499149 645.77246839 -465.47265625 643.29296875 C-463.89880509 640.74875166 -462.32361712 638.20539821 -460.74511719 635.6640625 C-456.79254955 629.2986331 -452.88899878 622.90443401 -449 616.5 C-442.84567106 606.36864575 -436.63743652 596.27236117 -430.36865234 586.21142578 C-429.14335574 584.23162974 -427.93647855 582.24235942 -426.73828125 580.24609375 C-426.12339844 579.23675781 -425.50851562 578.22742188 -424.875 577.1875 C-424.37742187 576.35605469 -423.87984375 575.52460937 -423.3671875 574.66796875 C-422.91601562 574.11753906 -422.46484375 573.56710937 -422 573 C-417.89464408 573 -415.97315044 575.13365251 -412.9375 577.625 C-411.66303404 578.64487327 -410.38828099 579.66438786 -409.11328125 580.68359375 C-407.74180382 581.78858646 -406.37071608 582.894063 -405 584 C-362.04763035 618.64500732 -312.78595728 648.19981164 -256.125 648.25 C-255.43880585 648.25067474 -254.75261169 648.25134949 -254.04562378 648.25204468 C-220.90153728 648.20042514 -192.06886982 638.57141579 -168.09375 615.13671875 C-152.08674649 598.1474673 -146.89782264 574.6567184 -147 552 C-148.17040073 522.1210787 -160.65082026 500.16888487 -181 479 C-181.48903809 478.48904785 -181.97807617 477.9780957 -182.48193359 477.45166016 C-189.25901822 470.40958689 -196.33279146 464.07608874 -204 458 C-205.18295807 457.0297388 -206.36382716 456.05692698 -207.54296875 455.08203125 C-216.4301284 447.75009614 -225.54194139 440.77042041 -234.78515625 433.89453125 C-240.10243619 429.93634526 -245.36367476 425.90707076 -250.625 421.875 C-259.24316522 415.28603826 -267.97866937 408.88190427 -276.80273438 402.57226562 C-335.43558381 360.61720447 -335.43558381 360.61720447 -357.59375 340.1953125 C-358.92650765 338.9793875 -360.26733828 337.77156973 -361.63891602 336.59960938 C-367.47584644 331.60361176 -372.93419385 326.25195411 -378.36303711 320.82226562 C-379.92608734 319.26139673 -381.49697365 317.70872112 -383.06835938 316.15625 C-389.49392131 309.76700069 -395.42397298 303.15916859 -401 296 C-401.52198975 295.33194336 -402.04397949 294.66388672 -402.58178711 293.97558594 C-412.68897011 280.83144441 -420.99686584 266.85976529 -428.10205078 251.890625 C-428.92874673 250.1500232 -429.77406409 248.41829795 -430.62109375 246.6875 C-450.47548984 203.7813765 -448.46052167 148.99172424 -432.6875 105.25 C-429.40185624 96.51095733 -425.47615522 88.18770029 -421 80 C-420.61972656 79.30132812 -420.23945313 78.60265625 -419.84765625 77.8828125 C-412.38445959 64.32671103 -403.48867616 52.52517036 -392.97265625 41.18359375 C-391.58371027 39.64612681 -390.25460507 38.05353515 -388.97265625 36.42578125 C-387.21392484 34.26306401 -385.49870647 32.53933566 -383.375 30.75 C-381.15593566 28.86359247 -378.97228836 26.97380266 -376.85546875 24.97265625 C-360.67678099 9.73106455 -340.97416643 -1.51938141 -321 -11 C-319.84113281 -11.56203125 -318.68226563 -12.1240625 -317.48828125 -12.703125 C-230.45483161 -52.97373737 -123.87982573 -46.59831524 0 0 Z " fill="#000000" transform="translate(487,382)"/>
<path d="M0 0 C67.65 0 135.3 0 205 0 C205 373.89 205 747.78 205 1133 C137.35 1133 69.7 1133 0 1133 C0 759.11 0 385.22 0 0 Z " fill="#000000" transform="translate(1532,0)"/>
<path d="M0 0 C22.10554885 10.47104946 22.10554885 10.47104946 32 15.4375 C33.49273437 16.1809668 33.49273437 16.1809668 35.015625 16.93945312 C40.40425672 19.63715381 45.75564062 22.39179717 51.07682419 25.21962976 C63.66990867 31.90220846 76.41545146 38.27125924 89.171875 44.63476562 C91.64648518 45.87082243 94.12078422 47.10750153 96.59509277 48.34416199 C101.88539597 50.98788295 107.176404 53.6301885 112.46789551 56.27153015 C120.13900525 60.10074842 127.80877651 63.93264159 135.47820807 67.76521975 C147.95481748 74.00000545 160.43217371 80.23329491 172.91015625 86.46533203 C173.65404397 86.83686199 174.3979317 87.20839194 175.16436148 87.59118038 C180.44288749 90.22749396 185.72144059 92.8637533 191 95.5 C197.02996662 98.51151855 203.05992096 101.52306168 209.08984375 104.53466797 C209.83280622 104.90573514 210.57576869 105.27680231 211.34124517 105.65911394 C223.77844558 111.87084488 236.21484432 118.08417919 248.65068436 124.2986331 C256.29085328 128.11649257 263.93172389 131.93294074 271.57354546 135.74749124 C276.81681855 138.364879 282.05935846 140.98373133 287.30135155 143.60368168 C290.3128684 145.10877533 293.32480879 146.6130037 296.33744812 148.11585045 C307.54987005 153.70955324 318.72887851 159.34532492 329.79751492 165.21880579 C340.43393652 170.84432905 351.22175755 176.17222122 361.98828125 181.54296875 C364.44318728 182.7691734 366.89778211 183.99600046 369.35238647 185.22280884 C374.60012778 187.84524898 379.84857386 190.46627379 385.09750366 193.08633423 C392.70707548 196.8847829 400.31530836 200.68590737 407.92320168 204.48771656 C420.29998244 210.67258808 432.67751001 216.85596335 445.05566406 223.03808594 C445.79357056 223.40662528 446.53147705 223.77516462 447.29174435 224.15487182 C452.5278094 226.76995493 457.76390154 229.38498378 463 232 C468.98146401 234.98726724 474.96291575 237.97455906 480.94433594 240.96191406 C481.68132442 241.32999424 482.4183129 241.69807441 483.17763436 242.07730854 C495.51539379 248.23931868 507.85235137 254.40293258 520.18875027 260.56766605 C527.7675002 264.3548162 535.34695172 268.14055521 542.92735457 271.9243958 C548.12857827 274.52075845 553.32906848 277.11858624 558.52901196 279.71751189 C561.51622561 281.21045402 564.50386259 282.70253113 567.49219894 284.19322586 C578.93327549 289.90089525 590.35305261 295.63439775 601.6391325 301.64418507 C607.05309095 304.52521596 612.50839955 307.25419978 618 310 C618 352.24 618 394.48 618 438 C599.9015625 447.0646875 599.9015625 447.0646875 581.4375 456.3125 C577.67915771 458.19622314 573.92081543 460.07994629 570.04858398 462.02075195 C565.32824707 464.38317871 565.32824707 464.38317871 563.09315491 465.50114441 C561.58712295 466.25491017 560.08147879 467.00945114 558.57618713 467.76469421 C549.52648683 472.30432767 540.44260282 476.75670131 531.29711914 481.1003418 C517.28624623 487.765306 503.42713733 494.73063445 489.5591507 501.68619347 C485.82595497 503.55788683 482.09138814 505.42684042 478.35693359 507.29602051 C468.90341264 512.02826637 459.45160666 516.76393221 450 521.5 C439.78593142 526.61812678 429.57153725 531.73559813 419.35516548 536.84912634 C415.66475447 538.69638302 411.9747621 540.54446479 408.28582764 542.39466858 C394.49616369 549.3107542 380.697391 556.18866158 366.75836182 562.80046082 C353.93187681 568.90524643 341.25616385 575.31794214 328.5591507 581.68619347 C324.82595497 583.55788683 321.09138814 585.42684042 317.35693359 587.29602051 C307.90341264 592.02826637 298.45160666 596.76393221 289 601.5 C278.78593142 606.61812678 268.57153725 611.73559813 258.35516548 616.84912634 C254.66475447 618.69638302 250.9747621 620.54446479 247.28582764 622.39466858 C233.49616369 629.3107542 219.697391 636.18866158 205.75836182 642.80046082 C192.93187681 648.90524643 180.25616385 655.31794214 167.5591507 661.68619347 C163.82595497 663.55788683 160.09138814 665.42684042 156.35693359 667.29602051 C146.90341264 672.02826637 137.45160666 676.76393221 128 681.5 C117.78593142 686.61812678 107.57153725 691.73559813 97.35516548 696.84912634 C93.66475447 698.69638302 89.9747621 700.54446479 86.28582764 702.39466858 C71.20595922 709.95785056 56.10706734 717.4614427 40.85823059 724.68049622 C32.29906715 728.7420466 23.86203143 733.05481869 15.41381836 737.34106445 C13.2189856 738.4534365 11.02177686 739.56099311 8.82421875 740.66796875 C8.16298508 741.0053154 7.5017514 741.34266205 6.82048035 741.69023132 C2.22654308 744 2.22654308 744 0 744 C0 698.79 0 653.58 0 607 C42.97183099 585.51408451 42.97183099 585.51408451 57.78515625 578.49609375 C67.60204362 573.82538096 77.29007721 568.88792428 87 564 C99.73026155 557.59165301 112.48464067 551.25870738 125.35791016 545.14208984 C136.31821484 539.92067318 147.15643022 534.45859623 158 529 C170.73026155 522.59165301 183.48464067 516.25870738 196.35791016 510.14208984 C207.31821484 504.92067318 218.15643022 499.45859623 229 494 C241.73026155 487.59165301 254.48464067 481.25870738 267.35791016 475.14208984 C278.31821484 469.92067318 289.15643022 464.45859623 300 459 C312.73026155 452.59165301 325.48464067 446.25870738 338.35791016 440.14208984 C349.31821484 434.92067318 360.15643022 429.45859623 371 424 C382.76867296 418.07571167 394.54381058 412.1811471 406.4453125 406.52734375 C418.6779551 400.71604909 430.77827453 394.65053652 442.875 388.5625 C447.05870244 386.4572497 451.24379282 384.35479366 455.4296875 382.25390625 C456.36102509 381.78408829 457.29236267 381.31427032 458.25192261 380.83021545 C463.76996676 378.060908 469.33254691 375.44950712 475 373 C472.35808052 370.92473896 469.77374344 369.27144483 466.75512695 367.80200195 C465.50195427 367.18815392 465.50195427 367.18815392 464.22346497 366.56190491 C463.32085434 366.1251091 462.41824371 365.68831329 461.48828125 365.23828125 C460.54059372 364.77558334 459.59290619 364.31288544 458.61650085 363.83616638 C455.51712968 362.32421228 452.41486213 360.81830614 449.3125 359.3125 C447.15803612 358.26303809 445.0037404 357.21323089 442.84960938 356.16308594 C436.56916714 353.10302899 430.28503298 350.05061441 424 347 C422.39370393 346.21991715 420.78742015 345.439809 419.18115234 344.65966797 C413.16339496 341.73760066 407.14383912 338.81927097 401.12242126 335.90475464 C391.28158225 331.1411517 381.45262782 326.35328835 371.625 321.5625 C359.2544832 315.5324034 346.88039676 309.50978673 334.5 303.5 C321.33475085 297.10909327 308.17661736 290.70369412 295.02148438 284.29199219 C283.51860734 278.68581494 272.01161442 273.08821319 260.5 267.5 C247.33477009 261.10905354 234.17661744 254.70369416 221.02148438 248.29199219 C209.51860721 242.68581488 198.0115808 237.0882826 186.5 231.5 C174.24552474 225.55083728 161.9957682 219.59206539 149.75 213.625 C148.9398645 213.23024475 148.129729 212.8354895 147.29504395 212.42877197 C140.70351273 209.21680395 134.11224944 206.00428624 127.52099609 202.79174805 C121.76412185 199.98590993 116.00714293 197.18028677 110.25 194.375 C109.03431335 193.78262543 109.03431335 193.78262543 107.79406738 193.17828369 C94.94842592 186.91935452 82.09704717 180.67231582 69.24169922 174.43334961 C61.4045165 170.62912566 53.57121093 166.81708377 45.7421875 162.99609375 C43.99674605 162.14452866 42.25130335 161.29296615 40.50585938 160.44140625 C37.19662575 158.82682677 33.88813693 157.21073488 30.58007812 155.59375 C29.04039176 154.84239222 27.50067941 154.0910877 25.9609375 153.33984375 C25.30680878 153.01954697 24.65268005 152.69925018 23.97872925 152.36924744 C16.02544577 148.49237098 8.00819647 144.76856305 0 141 C0 94.47 0 47.94 0 0 Z " fill="#000000" transform="translate(4503,368)"/>
<path d="M0 0 C0.65645508 0.32081543 1.31291016 0.64163086 1.98925781 0.97216797 C22.60393065 11.10454211 42.20433176 26.29058911 56.3125 44.5 C56.77760986 45.09893066 57.24271973 45.69786133 57.72192383 46.31494141 C88.32187929 86.21351208 100.1654937 134.74338848 94.22436523 184.5847168 C93.65283259 188.43367561 92.88173718 192.21108589 92 196 C91.80664062 196.85980469 91.61328125 197.71960937 91.4140625 198.60546875 C84.18420053 229.89024185 69.23808963 257.84012427 47 281 C45.74123047 282.33611328 45.74123047 282.33611328 44.45703125 283.69921875 C12.43704065 316.82812678 -33.44725383 333.36925925 -78.94873047 334.28515625 C-129.67020455 334.72180537 -176.28206151 317.08875865 -212.56298828 281.46875 C-216.37345168 277.57412754 -219.69426716 273.32146081 -223 269 C-223.70253906 268.13632813 -224.40507812 267.27265625 -225.12890625 266.3828125 C-253.91274721 230.02969672 -264.79037189 182.43305962 -260.05273438 136.81103516 C-256.24382818 104.83465331 -244.99970117 74.42391297 -225 49 C-224.29746094 48.07703125 -223.59492188 47.1540625 -222.87109375 46.203125 C-202.44443321 20.17135871 -175.10772822 1.87559178 -144 -9 C-143.3002002 -9.24830566 -142.60040039 -9.49661133 -141.87939453 -9.75244141 C-96.77150857 -25.395479 -42.4772686 -21.25924433 0 0 Z M-144 94 C-144.61488281 94.54011719 -145.22976562 95.08023437 -145.86328125 95.63671875 C-161.62378731 110.02044497 -169.04940646 132.67963444 -170.34765625 153.4609375 C-171.23285729 178.8900845 -162.14947416 202.20915702 -145 221 C-135.05854696 231.37955097 -122.49781353 238.26769884 -109 243 C-108.10152344 243.3196875 -107.20304687 243.639375 -106.27734375 243.96875 C-84.70846683 250.23910991 -60.13371919 246.79933409 -40.6484375 236.125 C-19.1079194 223.79698964 -5.21381737 205.55541273 1.92578125 181.9375 C8.08126845 158.59915991 5.03539271 133.51509729 -6.875 112.5 C-10.46141953 106.59094687 -14.42225576 101.17565369 -19 96 C-19.52851563 95.38898438 -20.05703125 94.77796875 -20.6015625 94.1484375 C-34.16821519 79.51249199 -55.33089688 70.04991519 -75.09130859 68.87573242 C-101.9454479 67.92234849 -124.44848639 75.32342504 -144 94 Z " fill="#000000" transform="translate(2774,1614)"/>
<path d="M0 0 C1.27391602 0.19682373 2.54783203 0.39364746 3.86035156 0.59643555 C13.51409763 2.16732246 22.7351628 4.37150889 32.3125 6.625 C32.3125 31.045 32.3125 55.465 32.3125 80.625 C26.3725 79.305 20.4325 77.985 14.3125 76.625 C9.1885963 75.68485743 4.07666264 74.77781524 -1.0625 73.9375 C-2.31160156 73.72544922 -3.56070312 73.51339844 -4.84765625 73.29492188 C-28.85030078 69.31956225 -56.10596152 67.35949325 -77.5546875 80.98046875 C-81.85174007 84.29376386 -84.62655562 88.24746819 -85.6875 93.625 C-86.32685182 101.16935145 -84.80717219 106.78430518 -79.98046875 112.7265625 C-75.7388117 116.92766834 -71.05684495 119.61756852 -65.609375 121.9609375 C-64.91859863 122.26020142 -64.22782227 122.55946533 -63.51611328 122.86779785 C-54.77843212 126.55470381 -45.73547519 129.31376262 -36.6875 132.125 C-5.78525809 141.72643409 -5.78525809 141.72643409 7.625 150.5 C8.28105225 150.91999268 8.93710449 151.33998535 9.61303711 151.77270508 C15.53574945 155.6340209 21.04005852 159.91175686 26.3125 164.625 C26.95445312 165.19605469 27.59640625 165.76710938 28.2578125 166.35546875 C43.46532986 180.71054679 54.26308618 202.68508985 55.48950195 223.65087891 C56.13187672 257.20280373 50.58115634 285.24782305 26.87841797 310.44262695 C0.31384727 337.88737308 -40.43012066 347.99227918 -77.5546875 348.80859375 C-110.6537358 349.2401696 -143.19004198 345.71827338 -175.6875 339.625 C-175.6875 313.225 -175.6875 286.825 -175.6875 259.625 C-160.8375 263.09 -160.8375 263.09 -145.6875 266.625 C-94.20985259 275.76395943 -94.20985259 275.76395943 -45.47265625 261.04296875 C-40.05719972 256.74141356 -36.18315877 251.80351872 -35.3515625 244.79296875 C-35.243122 236.51895859 -36.53454613 231.42709143 -41.8125 225.0625 C-56.06491728 212.97892883 -73.52066269 208.18036322 -90.99365234 202.453125 C-122.26839832 192.17308765 -152.52998095 176.1033173 -168.125 145.6875 C-180.04411138 121.28621629 -179.87341599 91.02221077 -171.5 65.5625 C-166.77643151 53.18252049 -160.64143614 42.45365459 -151.6875 32.625 C-151.07519531 31.93148438 -150.46289062 31.23796875 -149.83203125 30.5234375 C-112.57222996 -9.35805556 -49.41966903 -7.71065565 0 0 Z " fill="#000000" transform="translate(2030.6875,1599.375)"/>
<path d="M0 0 C0.90385437 0.00182281 1.80770874 0.00364563 2.73895264 0.00552368 C16.68400461 0.0528175 30.28050757 0.62235373 44 3.3125 C44.99177246 3.50537598 45.98354492 3.69825195 47.00537109 3.89697266 C75.1875 9.5 75.1875 9.5 78 12.3125 C78.09522418 15.17341818 78.12553326 18.01013621 78.11352539 20.87133789 C78.11367142 21.76881241 78.11381744 22.66628693 78.1139679 23.59095764 C78.11326842 26.57238134 78.10547441 29.5537434 78.09765625 32.53515625 C78.09579219 34.59638942 78.09436823 36.65762304 78.09336853 38.71885681 C78.08954237 44.1555401 78.07971126 49.59219686 78.06866455 55.02886963 C78.05845253 60.57197714 78.05387136 66.11508892 78.04882812 71.65820312 C78.03808908 82.54298043 78.02101149 93.42773802 78 104.3125 C74.15282999 103.06455088 70.51441251 101.67024808 66.85083008 99.9519043 C59.83439999 96.69034314 52.74787019 94.13841704 45.3125 92 C44.06811157 91.63696777 44.06811157 91.63696777 42.79858398 91.26660156 C13.04334169 83.01854496 -17.95888917 85.277422 -45.0546875 99.96875 C-64.57816757 111.69389951 -77.67514979 130.84731073 -83.25390625 152.765625 C-88.77639882 179.01914988 -85.06951243 204.16389955 -71.06640625 227.30078125 C-58.22978316 246.00973475 -38.12638234 258.70788593 -16 263.3125 C13.86540599 268.6720005 46.51746184 263.55679923 73.27124023 249.06445312 C75 248.3125 75 248.3125 78 248.3125 C78 278.6725 78 309.0325 78 340.3125 C19.97800627 356.13668011 -38.7989343 358.68070433 -93 329.3125 C-94.06863281 328.73628906 -95.13726563 328.16007812 -96.23828125 327.56640625 C-133.3775268 306.70869766 -161.32220174 271.02230816 -172.83203125 230.0546875 C-175.59960509 219.59007913 -177.94219659 209.09659973 -179 198.3125 C-179.10957031 197.29027344 -179.21914062 196.26804687 -179.33203125 195.21484375 C-182.78582792 158.05199157 -176.16057563 120.06684387 -158 87.3125 C-157.64147949 86.66410156 -157.28295898 86.01570313 -156.91357422 85.34765625 C-152.03489659 76.63804175 -146.62329542 68.81966673 -140 61.3125 C-139.24589844 60.44882813 -138.49179688 59.58515625 -137.71484375 58.6953125 C-135.50749451 56.20399895 -133.26357571 53.75272499 -131 51.3125 C-130.42378906 50.67054687 -129.84757812 50.02859375 -129.25390625 49.3671875 C-106.91426971 25.58467911 -75.05159607 11.22481595 -43.75 4.0625 C-43.09056396 3.91127686 -42.43112793 3.76005371 -41.75170898 3.60424805 C-27.83453966 0.62139595 -14.17290092 -0.05934234 0 0 Z " fill="#000000" transform="translate(1462,1595.6875)"/>
<path d="M0 0 C0.81299057 -0.00701431 1.62598114 -0.01402863 2.46360779 -0.02125549 C5.07735802 -0.03867479 7.69088132 -0.04510938 10.3046875 -0.046875 C11.6474324 -0.04788712 11.6474324 -0.04788712 13.01730347 -0.04891968 C26.94074533 -0.03225683 40.47786781 0.53272994 54.1796875 3.203125 C55.66952148 3.49243896 55.66952148 3.49243896 57.18945312 3.78759766 C85.3671875 9.390625 85.3671875 9.390625 88.1796875 12.203125 C88.27491168 15.06404318 88.30522076 17.90076121 88.29321289 20.76196289 C88.29335892 21.65943741 88.29350494 22.55691193 88.2936554 23.48158264 C88.29295592 26.46300634 88.28516191 29.4443684 88.27734375 32.42578125 C88.27547969 34.48701442 88.27405573 36.54824804 88.27305603 38.60948181 C88.26922987 44.0461651 88.25939876 49.48282186 88.24835205 54.91949463 C88.23814003 60.46260214 88.23355886 66.00571392 88.22851562 71.54882812 C88.21777658 82.43360543 88.20069899 93.31836302 88.1796875 104.203125 C85.15891662 103.00101714 82.16645047 101.77102709 79.203125 100.43359375 C71.0432887 96.82134119 62.94764874 93.5935241 54.3046875 91.328125 C53.2206665 91.04231567 53.2206665 91.04231567 52.11474609 90.75073242 C23.53799232 83.6658252 -7.63084425 84.41506103 -33.58154297 99.20703125 C-54.42807246 111.7782832 -66.67282086 130.75888328 -73.05859375 154.01171875 C-78.61092124 177.27454727 -74.91698177 202.68627422 -63.0078125 223.34765625 C-49.89498849 243.94219234 -30.842594 256.97883778 -7.1953125 262.85546875 C22.38393925 269.18727733 52.69276412 262.96961602 79.99584961 251.08520508 C82.67752434 250.00204233 85.43593846 249.11770801 88.1796875 248.203125 C88.1796875 278.563125 88.1796875 308.923125 88.1796875 340.203125 C68.09426112 346.11060335 68.09426112 346.11060335 61.8046875 347.328125 C60.58676514 347.56450684 60.58676514 347.56450684 59.34423828 347.80566406 C7.21357153 357.43247997 -48.14490374 352.59311596 -93.5078125 323.140625 C-95.29609926 321.8520066 -97.06690185 320.53881135 -98.8203125 319.203125 C-100.41359375 318.04683594 -100.41359375 318.04683594 -102.0390625 316.8671875 C-139.18205337 289.35503621 -160.66339994 249.36904614 -167.8203125 204.203125 C-168.62421826 198.55703689 -168.99090827 193.07454669 -169.0234375 187.375 C-169.03045181 186.55221054 -169.03746613 185.72942108 -169.04469299 184.88169861 C-169.06211675 182.23878458 -169.06854571 179.59609436 -169.0703125 176.953125 C-169.07098724 176.05195953 -169.07166199 175.15079407 -169.07235718 174.22232056 C-169.05697267 161.31931907 -168.75883742 148.8220071 -165.8203125 136.203125 C-165.57087891 135.0577124 -165.57087891 135.0577124 -165.31640625 133.88916016 C-155.49986238 89.48747792 -128.93233703 51.77661392 -90.8203125 27.203125 C-63.99609676 10.27282043 -31.80261848 0.18504313 0 0 Z " fill="#000000" transform="translate(2336.8203125,1595.796875)"/>
<path d="M0 0 C1.18480957 0.00491455 2.36961914 0.0098291 3.59033203 0.01489258 C25.93461678 0.31353107 45.83085048 7.19801878 61.6875 23.3125 C69.88517938 32.50956698 69.88517938 32.50956698 70.6875 37.3125 C71.3475 37.3125 72.0075 37.3125 72.6875 37.3125 C72.93757813 36.75949219 73.18765625 36.20648437 73.4453125 35.63671875 C81.22055325 21.08870541 96.60922853 10.58573334 112.03369141 5.54589844 C139.21256915 -2.55811579 169.79576627 -3.33644331 195.6875 9.3125 C199.25424803 11.39963552 202.47960953 13.7119554 205.6875 16.3125 C206.46738281 16.92996094 207.24726563 17.54742188 208.05078125 18.18359375 C224.21168915 31.68270506 231.8174254 52.61305538 233.98160458 73.0960722 C234.73723017 82.17374552 234.82289547 91.20223557 234.80102539 100.30200195 C234.80074266 101.96892292 234.80090292 103.635844 234.8014679 105.30276489 C234.80175253 109.78740037 234.79591022 114.27200861 234.78889394 118.75663781 C234.78260437 123.45845921 234.7820522 128.16028137 234.78086853 132.86210632 C234.77777164 141.74754554 234.76958056 150.63297233 234.75951904 159.51840609 C234.74830669 169.64185061 234.74283459 179.76529576 234.73782361 189.88874495 C234.72739643 210.69667176 234.70907155 231.50458155 234.6875 252.3125 C219.1775 252.3125 203.6675 252.3125 187.6875 252.3125 C187.6781543 247.12007568 187.66880859 241.92765137 187.65917969 236.57788086 C187.6253665 219.3949601 187.5699926 202.21215834 187.50359726 185.02933407 C187.46387737 174.6145243 187.43144916 164.19978933 187.41650391 153.78491211 C187.40345074 144.70170927 187.37639303 135.61867148 187.33288693 126.53556162 C187.31035426 121.73117308 187.29458437 116.92698749 187.29561615 112.12254143 C187.29636764 107.58916205 187.27822291 103.0562299 187.24633217 98.52296638 C187.23789822 96.86996632 187.23603833 95.2169157 187.24169731 93.56390381 C187.28601086 78.61437811 185.61134553 64.28605596 175.6875 52.3125 C166.76512823 43.44577712 154.07038568 40.38878511 141.82421875 40.27734375 C126.5636597 40.70293703 113.27365341 45.05766451 101.9375 55.5625 C86.79442131 71.79240252 83.22903317 91.99003674 83.25512695 113.35742188 C83.24607953 114.88686397 83.23574519 116.41629889 83.22424316 117.94572449 C83.19699619 122.04177376 83.18743336 126.13768431 83.18138909 130.23381233 C83.17191998 134.53528315 83.14571072 138.8366537 83.12138367 143.13806152 C83.07794736 151.25838978 83.0492607 159.37869833 83.02606028 167.49910688 C82.99888498 176.75449938 82.95498182 186.00978984 82.90977156 195.26510906 C82.81725332 214.28086523 82.7476306 233.29661193 82.6875 252.3125 C67.5075 252.3125 52.3275 252.3125 36.6875 252.3125 C36.66562622 244.65232666 36.66562622 244.65232666 36.64331055 236.83740234 C36.59291518 219.94186634 36.52645987 203.04642148 36.45178509 186.15097618 C36.40691167 175.90990608 36.36747769 165.6688701 36.34106445 155.42773438 C36.31801572 146.4965493 36.28454143 137.56547297 36.23879844 128.63437426 C36.2149586 123.90997457 36.1961695 119.18568197 36.18988609 114.4612236 C36.18379316 110.00424206 36.16364337 105.54753416 36.13322449 101.09065437 C36.12451116 99.46464636 36.12070757 97.83860248 36.12249184 96.2125721 C36.13440811 80.32636883 34.70640386 63.70700799 23.4375 51.375 C15.54296264 44.21402585 5.12520576 41.1365294 -5.3125 40.3125 C-5.97765625 40.25835938 -6.6428125 40.20421875 -7.328125 40.1484375 C-22.09220965 39.54693775 -36.59519214 45.09025501 -47.75 54.625 C-60.59243173 67.06742157 -67.18470978 83.10813684 -67.71122742 100.9120636 C-67.74812691 103.73626935 -67.74820605 106.55963139 -67.74487305 109.3840332 C-67.753912 110.95244101 -67.76424436 112.5208418 -67.77575684 114.0892334 C-67.80310286 118.30529047 -67.81258054 122.5212127 -67.81861091 126.73734689 C-67.82805351 131.15895088 -67.8542612 135.58045644 -67.87861633 140.0019989 C-67.9221242 148.35617292 -67.95076733 156.71032766 -67.97393972 165.06458014 C-68.00107609 174.58350012 -68.04498207 184.1023203 -68.09022844 193.62116873 C-68.18284948 213.184906 -68.25241992 232.74863387 -68.3125 252.3125 C-83.4925 252.3125 -98.6725 252.3125 -114.3125 252.3125 C-114.3125 171.4625 -114.3125 90.6125 -114.3125 7.3125 C-101.7725 7.3125 -89.2325 7.3125 -76.3125 7.3125 C-74.375 17.5 -74.375 17.5 -73.76977539 20.68432617 C-73.60985107 21.52455322 -73.44992676 22.36478027 -73.28515625 23.23046875 C-73.12281494 24.08406982 -72.96047363 24.9376709 -72.79321289 25.81713867 C-72.3114316 28.31804603 -71.81499252 30.8156792 -71.3125 33.3125 C-70.77882813 32.69503906 -70.24515625 32.07757812 -69.6953125 31.44140625 C-50.60921669 9.7466572 -29.11156145 -0.14345792 0 0 Z " fill="#000000" transform="translate(3789.3125,1688.6875)"/>
<path d="M0 0 C1.22356201 0.00491455 2.44712402 0.0098291 3.70776367 0.01489258 C28.22671575 0.33083758 50.39310228 7.14464295 69.25 23.3125 C69.83910156 23.75722656 70.42820313 24.20195313 71.03515625 24.66015625 C93.50545045 42.03080922 103.76745788 73.77756172 107.42504883 100.87329102 C111.98047537 141.58113689 108.0390434 186.93131145 82.25 220.3125 C78.80483578 224.53682578 75.09989462 228.45690183 71.25 232.3125 C70.53457031 233.03953125 69.81914062 233.7665625 69.08203125 234.515625 C47.29197358 255.28363493 18.20378736 260.2788765 -10.7734375 259.62890625 C-35.41690291 258.71339002 -57.74577033 249.39504667 -74.75 231.3125 C-77.225 227.8475 -77.225 227.8475 -79.75 224.3125 C-80.08 261.6025 -80.41 298.8925 -80.75 337.3125 C-95.93 337.3125 -111.11 337.3125 -126.75 337.3125 C-126.75 228.4125 -126.75 119.5125 -126.75 7.3125 C-114.21 7.3125 -101.67 7.3125 -88.75 7.3125 C-87.76 11.52 -86.77 15.7275 -85.75 20.0625 C-85.43675781 21.3834668 -85.12351563 22.70443359 -84.80078125 24.06542969 C-84.55714844 25.11118164 -84.31351563 26.15693359 -84.0625 27.234375 C-83.81113281 28.30268555 -83.55976563 29.37099609 -83.30078125 30.47167969 C-82.75 33.3125 -82.75 33.3125 -82.75 37.3125 C-80.30944498 34.88913199 -77.88755254 32.45877066 -75.53125 29.953125 C-55.4455258 8.90438662 -28.73312831 -0.1377274 0 0 Z M-61.59375 60.71484375 C-81.05712466 84.16256866 -85.44545306 113.14869214 -82.99609375 142.74511719 C-80.79434017 165.71499879 -73.27802343 185.72576245 -56.75 202.3125 C-56.13769531 202.94800781 -55.52539062 203.58351563 -54.89453125 204.23828125 C-42.45094202 216.20429136 -24.566832 220.69289713 -7.7265625 220.4609375 C11.37251608 219.50849001 26.62661948 212.84084305 39.86328125 199.10546875 C56.68135475 179.42474444 60.47791963 153.36548386 60.5 128.375 C60.50067474 127.68752686 60.50134949 127.00005371 60.50204468 126.29174805 C60.46129999 100.10852713 54.99942884 75.81310788 36.25 56.3125 C26.99433641 48.17146663 15.53514984 42.06427137 3.25 40.3125 C2.51265625 40.20292969 1.7753125 40.09335938 1.015625 39.98046875 C-22.2783204 36.96832064 -45.20597791 43.40674388 -61.59375 60.71484375 Z " fill="#000000" transform="translate(4217.75,1688.6875)"/>
<path d="M0 0 C0.73765594 -0.00067474 1.47531189 -0.00134949 2.23532104 -0.00204468 C28.45893221 0.03606638 55.10162729 5.07697196 75.125 23.25 C75.96804688 24.00023437 76.81109375 24.75046875 77.6796875 25.5234375 C93.14767845 40.05112505 99.85886562 59.48155614 101.125 80.25 C101.26042756 85.92974649 101.25187058 91.60679568 101.23852539 97.2878418 C101.23824282 98.98402403 101.23840261 100.68020639 101.2389679 102.37638855 C101.23925315 106.94998234 101.23340057 111.52354956 101.22639394 116.09713721 C101.22011494 120.88839058 101.21955302 125.67964465 101.21836853 130.47090149 C101.21526857 139.52994543 101.20707327 148.5889772 101.19701904 157.6480158 C101.18581633 167.96729901 101.180337 178.28658282 101.17532361 188.6058706 C101.16488946 209.82058869 101.14656068 231.03529011 101.125 252.25 C88.255 252.25 75.385 252.25 62.125 252.25 C60.475 242.68 58.825 233.11 57.125 223.25 C56.465 223.25 55.805 223.25 55.125 223.25 C53.59042633 224.76719983 53.59042633 224.76719983 52 226.75 C35.98007251 245.39077453 14.75396719 256.88864169 -9.875 259.25 C-37.46571285 260.85296824 -65.44357168 258.86713402 -87.1875 239.8125 C-88.76668286 238.30899683 -90.33050416 236.78911432 -91.875 235.25 C-92.83019531 234.32960938 -92.83019531 234.32960938 -93.8046875 233.390625 C-106.3771927 220.3152196 -109.98555653 202.30647335 -109.84765625 184.7734375 C-108.91792671 164.6822088 -101.94116073 149.17050522 -87.875 135.25 C-87.31296875 134.66605469 -86.7509375 134.08210938 -86.171875 133.48046875 C-61.74228474 110.14378121 -20.20750248 107.14880041 11.3069458 101.81170654 C14.77360367 101.22218932 18.23860344 100.62323358 21.70360947 100.02409554 C25.05736309 99.44472378 28.41174309 98.86905576 31.76636505 98.29473495 C33.35967821 98.02189407 34.95287564 97.74837648 36.54595184 97.47415543 C38.75239056 97.09533921 40.95954602 96.72103922 43.16699219 96.34814453 C44.41808777 96.13529816 45.66918335 95.92245178 46.95819092 95.70315552 C50.125 95.25 50.125 95.25 54.125 95.25 C54.38781654 77.67636503 54.38781654 77.67636503 49.125 61.25 C48.7021875 60.45851563 48.279375 59.66703125 47.84375 58.8515625 C41.60948638 48.42648833 31.53535758 42.73543142 19.98046875 39.68359375 C2.10695134 35.63457686 -20.13320538 36.01264599 -36.4375 45.0625 C-48.44795598 53.16351226 -51.75916272 62.53054239 -55.875 76.25 C-72.045 76.25 -88.215 76.25 -104.875 76.25 C-104.18118963 69.31189634 -103.45301237 63.73412193 -101.25 57.3125 C-100.98421143 56.53326172 -100.71842285 55.75402344 -100.44458008 54.95117188 C-92.95186087 33.93580582 -75.6702871 19.5573968 -56.01074219 10.21191406 C-38.26019422 2.21726855 -19.25896607 0.01579064 0 0 Z M47.19433594 132.25634766 C45.28403595 132.58767197 45.28403595 132.58767197 43.33514404 132.9256897 C38.19697457 133.82214738 33.06002113 134.72551433 27.92377853 135.63294411 C24.04350493 136.31835015 20.16262845 136.99970049 16.27978516 137.67041016 C-23.14068113 142.45128546 -23.14068113 142.45128546 -54.875 163.25 C-60.31521186 171.32423849 -61.60000813 181.03175335 -60.40625 190.5546875 C-58.78742556 198.76784089 -55.43317626 205.89027219 -48.875 211.25 C-33.07096636 220.98589922 -14.53472683 222.89105307 3.61206055 219.22241211 C20.933688 215.02697474 37.3836514 204.26613999 47.125 189.25 C52.48720914 179.14897444 52.48720914 179.14897444 54.23852539 168.03222656 C54.23844986 167.21167786 54.23837433 166.39112915 54.23829651 165.54571533 C54.23313522 164.66953552 54.22797394 163.79335571 54.22265625 162.890625 C54.2212413 161.98624695 54.21982635 161.0818689 54.21836853 160.15008545 C54.21277911 157.26668973 54.20022853 154.38337218 54.1875 151.5 C54.18248363 149.54296987 54.17792096 147.58593853 54.17382812 145.62890625 C54.16281313 140.83590747 54.14555574 136.04296698 54.125 131.25 C51.82051307 131.25 49.45038772 131.86502637 47.19433594 132.25634766 Z " fill="#000000" transform="translate(4476.875,1688.75)"/>
<path d="M0 0 C0.72574219 0.64195313 1.45148438 1.28390625 2.19921875 1.9453125 C2.81152344 2.46351562 3.42382812 2.98171875 4.0546875 3.515625 C17.86904846 16.09712537 25.59088169 35.80082933 26.46764183 54.18092155 C26.60095126 58.84467139 26.57145704 63.50662555 26.53979492 68.17163086 C26.5389465 69.9472197 26.53942798 71.72280959 26.54112244 73.49839783 C26.54197542 78.27017934 26.52446396 83.04172988 26.50340056 87.8134582 C26.48451618 92.81821791 26.48287413 97.8229842 26.47932434 102.82777405 C26.47003817 112.28338827 26.44547128 121.73889716 26.41527587 131.19446522 C26.38162452 141.96847469 26.36521898 152.74248947 26.35018957 163.5165385 C26.31891829 185.65953483 26.26394959 207.80238696 26.19921875 229.9453125 C13.65921875 229.9453125 1.11921875 229.9453125 -11.80078125 229.9453125 C-14.23828125 216.6328125 -14.23828125 216.6328125 -15.00170898 212.4440918 C-15.20223877 211.35523682 -15.40276855 210.26638184 -15.609375 209.14453125 C-15.81361084 208.02908936 -16.01784668 206.91364746 -16.22827148 205.7644043 C-16.7540621 202.883646 -16.7540621 202.883646 -17.80078125 199.9453125 C-18.53941406 200.77933594 -19.27804687 201.61335938 -20.0390625 202.47265625 C-38.22738701 222.76626496 -59.58674256 235.39284494 -87.25073242 237.16650391 C-107.44256622 237.81345747 -127.47786131 237.35651098 -145.80078125 227.9453125 C-146.79207031 227.44257812 -147.78335938 226.93984375 -148.8046875 226.421875 C-165.85505808 217.14542817 -176.4574185 203.62281656 -181.9375 185.26171875 C-182.94405486 181.39490845 -183.6970738 177.93459241 -183.80078125 173.9453125 C-183.87619141 172.22634766 -183.87619141 172.22634766 -183.953125 170.47265625 C-184.59804378 149.51019558 -179.08346353 130.33433932 -164.67578125 114.62890625 C-151.16448129 101.93722559 -133.17909322 94.72198712 -115.52734375 89.953125 C-114.10393929 89.5677356 -114.10393929 89.5677356 -112.65177917 89.17456055 C-102.56914229 86.51669791 -92.38842721 84.67613787 -82.11328125 82.9453125 C-80.1665939 82.60961661 -78.2200629 82.27301296 -76.27368164 81.93554688 C-72.35107177 81.25718575 -68.42749706 80.58490939 -64.50292969 79.91796875 C-59.0810551 78.99566386 -53.66326742 78.05102541 -48.24609375 77.1015625 C-45.83803038 76.68133582 -43.42984933 76.26179473 -41.02157593 75.84277344 C-39.51057849 75.57974893 -37.99969192 75.31608667 -36.48892212 75.05175781 C-34.41506944 74.68989972 -32.34049471 74.33253605 -30.265625 73.9765625 C-29.10667725 73.77611328 -27.94772949 73.57566406 -26.75366211 73.36914062 C-23.80078125 72.9453125 -23.80078125 72.9453125 -19.80078125 72.9453125 C-20.07659662 56.18001809 -20.4510091 41.7955132 -32.578125 29.08203125 C-44.19760831 17.98530588 -60.12357142 15.37404256 -75.61328125 15.5078125 C-77.45768799 15.51917236 -77.45768799 15.51917236 -79.33935547 15.53076172 C-93.95063463 15.79550782 -106.14922746 18.67014226 -117.55078125 28.2578125 C-124.52280984 36.58551332 -126.5899581 42.70743147 -129.80078125 53.9453125 C-145.97078125 53.9453125 -162.14078125 53.9453125 -178.80078125 53.9453125 C-176.960501 33.70222971 -169.98344953 19.1484169 -155.80078125 4.9453125 C-155.15367187 4.28660156 -154.5065625 3.62789062 -153.83984375 2.94921875 C-116.70727906 -32.15645922 -38.41790205 -32.54076728 0 0 Z M-26.82666016 109.98339844 C-28.11955963 110.21073669 -29.41245911 110.43807495 -30.74453735 110.67230225 C-36.72293794 111.72861966 -42.70055662 112.78932612 -48.67773438 113.85253906 C-51.81743978 114.41065156 -54.95773394 114.96524598 -58.09863281 115.51660156 C-61.90692143 116.1851423 -65.71400202 116.86021306 -69.52036667 117.53961945 C-70.95893907 117.79532553 -72.39789647 118.04887715 -73.83726883 118.3000412 C-104.75279902 123.66805061 -104.75279902 123.66805061 -129.36328125 141.86328125 C-134.66546526 149.5428032 -135.48144493 158.87789988 -134.80078125 167.9453125 C-132.7386044 178.52913194 -127.43299794 185.60327574 -118.80078125 191.9453125 C-104.32529246 199.76990103 -84.66257959 200.22481986 -68.92578125 196.4453125 C-54.91781553 192.01280295 -43.95299006 185.51254871 -33.80078125 174.9453125 C-33.1871875 174.33945313 -32.57359375 173.73359375 -31.94140625 173.109375 C-23.00325049 163.6644166 -19.44411318 151.32212915 -19.60546875 138.6328125 C-19.60971359 137.35132324 -19.60971359 137.35132324 -19.61404419 136.04394531 C-19.62514246 133.34425197 -19.65022698 130.64490373 -19.67578125 127.9453125 C-19.68582446 126.10286941 -19.69494795 124.26042107 -19.703125 122.41796875 C-19.72504775 117.92695256 -19.75950479 113.43619082 -19.80078125 108.9453125 C-22.13453878 108.9453125 -24.54393016 109.58167015 -26.82666016 109.98339844 Z " fill="#000000" transform="translate(1018.80078125,1711.0546875)"/>
<path d="M0 0 C0.67370636 0.00182281 1.34741272 0.00364563 2.04153442 0.00552368 C34.83449103 0.1542237 62.7296989 9.61752134 86.8125 32.3125 C87.42867187 32.86421875 88.04484375 33.4159375 88.6796875 33.984375 C108.76354898 52.67995113 119.58123926 84.62458123 120.92036438 111.47528076 C120.97602754 113.78210511 121.00330428 116.0870669 121.015625 118.39453125 C121.02132507 119.24818771 121.02702515 120.10184418 121.03289795 120.98136902 C121.04229683 122.78403507 121.04886145 124.5867179 121.05273438 126.3894043 C121.0623379 129.07959147 121.09336742 131.76897921 121.125 134.45898438 C121.2194237 149.75606266 119.7336385 164.84172278 115.125 179.5 C114.87226318 180.32040771 114.61952637 181.14081543 114.35913086 181.98608398 C111.70701989 190.21982435 108.06667942 197.79820821 103.8125 205.3125 C102.98105469 206.80330078 102.98105469 206.80330078 102.1328125 208.32421875 C97.64216307 215.85518826 91.93587114 222.10384514 85.8125 228.3125 C85.03132813 229.1065625 84.25015625 229.900625 83.4453125 230.71875 C61.21339019 251.97755786 30.67902822 259.78590308 0.625 259.625 C-0.10083282 259.62284485 -0.82666565 259.6206897 -1.57449341 259.61846924 C-12.65803928 259.56572166 -23.43038538 259.19359038 -34.1875 256.3125 C-34.91356445 256.11914062 -35.63962891 255.92578125 -36.38769531 255.7265625 C-52.21026053 251.32801155 -66.86593167 244.26745431 -79.1875 233.3125 C-79.91839844 232.72339844 -80.64929687 232.13429688 -81.40234375 231.52734375 C-104.78635307 212.1708088 -117.05661002 180.83752063 -120.1875 151.3125 C-123.74017025 112.85277903 -119.07843069 71.00725605 -93.703125 40.23046875 C-69.47395391 12.1261352 -36.68733242 -0.15852126 0 0 Z M-51.125 60.24609375 C-67.01904525 77.31090573 -72.24002986 101.69165044 -73.1875 124.3125 C-73.22875 125.15296875 -73.27 125.9934375 -73.3125 126.859375 C-73.9633528 153.05620003 -68.27273898 180.5363647 -50.1875 200.3125 C-49.63578125 200.94414063 -49.0840625 201.57578125 -48.515625 202.2265625 C-35.82790244 215.94138641 -17.69204381 221.53197161 0.42578125 222.27734375 C18.43571647 222.65083073 35.58629403 216.54902034 48.625 204.0625 C67.1258454 184.55155097 73.20495305 158.47950648 73.12817383 132.31201172 C73.12502272 130.07859974 73.14854514 127.84653009 73.17382812 125.61328125 C73.28968208 99.32489932 65.93088938 74.82263786 47.8671875 55.19921875 C19.59961137 27.52278965 -24.99144468 34.16522705 -51.125 60.24609375 Z " fill="#000000" transform="translate(3498.1875,1688.6875)"/>
<path d="M0 0 C28.38 0 56.76 0 86 0 C86 112.2 86 224.4 86 340 C57.62 340 29.24 340 0 340 C0 227.8 0 115.6 0 0 Z " fill="#000000" transform="translate(1655,1602)"/>
<path d="M0 0 C16.5 0 33 0 50 0 C72.44 67.32 94.88 134.64 118 204 C129.95924213 168.98626518 129.95924213 168.98626518 141.74021888 133.91366887 C142.87249462 130.51419176 144.00631423 127.11522945 145.1398468 123.71617126 C147.03546305 118.03110761 148.9298617 112.34563943 150.82348633 106.65991211 C152.73674549 100.91528582 154.65147343 95.17115173 156.56762695 89.42749023 C166.49924796 59.65693396 176.41568317 29.88474422 186 0 C201.51 0 217.02 0 233 0 C231.17888226 6.6774317 229.37379849 13.13286162 227.05859375 19.6171875 C226.77911392 20.41113922 226.49963409 21.20509094 226.21168518 22.02310181 C225.60707565 23.74046344 225.00090558 25.45727634 224.39331055 27.17358398 C222.70947947 31.93261102 221.03979378 36.6965874 219.37109375 41.4609375 C219.01727631 42.47093811 218.66345886 43.48093872 218.29891968 44.52154541 C214.11698467 56.48637957 210.06054447 68.49355673 206 80.5 C200.59794012 96.46518226 195.14286885 112.40875108 189.5625 128.3125 C183.7641432 144.83797385 178.11063293 161.40990268 172.5 178 C164.72401983 200.98186559 156.87242014 223.93412247 148.7755127 246.80511475 C148.04189648 248.881423 147.31265195 250.95920661 146.58496094 253.03759766 C131.56724784 295.77042759 131.56724784 295.77042759 118 313 C117.31808594 313.87269531 116.63617188 314.74539063 115.93359375 315.64453125 C105.32318596 328.3048926 91.32414649 335.18212542 75 337 C62.88146712 337.74663947 49.58927686 336.86309229 38 333 C38 320.46 38 307.92 38 295 C42.62 295.66 47.24 296.32 52 297 C54.98508733 297.21025185 57.83800872 297.38228685 60.8125 297.375 C61.52825195 297.37338867 62.24400391 297.37177734 62.98144531 297.37011719 C71.32106263 297.17670178 76.85000726 294.46666021 83 289 C91.19391314 277.66763151 95.85476202 263.88036912 101 251 C101.66 249.35 102.32 247.7 103 246 C98.38 245.67 93.76 245.34 89 245 C78.04823964 215.40591911 67.13877257 185.7965682 56.26611328 156.17333984 C52.88729702 146.96802509 49.50553484 137.76379252 46.12399292 128.55947876 C44.24920777 123.45636357 42.37461355 118.35317823 40.5 113.25 C39.75000091 111.208333 39.00000091 109.16666633 38.25 107.125 C33.75 94.875 33.75 94.875 32.62527466 91.8132019 C31.87439863 89.76918105 31.12348303 87.72517472 30.37252808 85.68118286 C28.51060838 80.61315311 26.64935139 75.54488203 24.78955078 70.47607422 C21.25938784 60.85699536 17.72192909 51.24075179 14.1630249 41.63226318 C12.47180468 37.06506845 10.7840997 32.49657844 9.09667969 27.92797852 C8.28692125 25.73868556 7.47541786 23.55003717 6.66210938 21.36206055 C5.53862341 18.33931504 4.42102487 15.31445392 3.3046875 12.2890625 C2.96815155 11.38842072 2.6316156 10.48777893 2.28488159 9.55984497 C1.98188141 8.73523773 1.67888123 7.91063049 1.36669922 7.06103516 C1.10122284 6.34501129 0.83574646 5.62898743 0.56222534 4.89126587 C0 3 0 3 0 0 Z " fill="#000000" transform="translate(4888,1696)"/>
<path d="M0 0 C18.7570715 15.76055009 26.14447934 39.02816145 28.21325493 62.70220375 C28.62483359 69.35600821 28.54753013 76.01871269 28.53149414 82.68237305 C28.53121155 84.33914691 28.5313714 85.99592091 28.53193665 87.6526947 C28.53222182 92.11885417 28.52637045 96.58498641 28.51936269 101.05113959 C28.51308245 105.73028406 28.51252167 110.40942924 28.51133728 115.08857727 C28.50823768 123.93512555 28.50004287 132.78166136 28.48998779 141.62820417 C28.47878395 151.70565397 28.47330547 161.78310438 28.46829236 171.86055887 C28.45785903 192.57762065 28.4395307 213.29466536 28.41796875 234.01171875 C13.23796875 234.01171875 -1.94203125 234.01171875 -17.58203125 234.01171875 C-17.60185059 229.15251709 -17.62166992 224.29331543 -17.64208984 219.28686523 C-17.70910597 203.20160374 -17.78664657 187.11640556 -17.86955833 171.03121853 C-17.91955427 161.28230271 -17.96599804 151.53339476 -18.00390625 141.78442383 C-18.03697897 133.28137725 -18.07689306 124.77839414 -18.12482131 116.27541786 C-18.14993534 111.77848341 -18.17176005 107.28159022 -18.18537521 102.78460503 C-18.19833403 98.5402524 -18.22053273 94.29604244 -18.24941444 90.05176926 C-18.2583835 88.50519301 -18.26415502 86.95859387 -18.26624489 85.41199303 C-18.29520969 67.21070126 -19.13029212 48.36384032 -32.171875 34.296875 C-41.25664268 25.89613689 -52.55900372 22.88536435 -64.58203125 22.01171875 C-65.24460938 21.95757813 -65.9071875 21.9034375 -66.58984375 21.84765625 C-83.86852185 21.1249739 -99.11907748 27.64944626 -112.11206055 38.6394043 C-122.17131993 48.03038536 -128.14252293 62.70212757 -128.72069645 76.26440239 C-128.727149 77.446141 -128.73360155 78.6278796 -128.74024963 79.84542847 C-128.74518761 80.50800695 -128.75012559 81.17058542 -128.7552132 81.85324204 C-128.7704948 84.05954831 -128.77892328 86.2658257 -128.78735352 88.47216797 C-128.7969394 90.05924226 -128.80694989 91.64631403 -128.81735229 93.23338318 C-128.8443305 97.53246141 -128.86537831 101.83155055 -128.88535428 106.13066626 C-128.90725765 110.62701739 -128.93462501 115.1233352 -128.96141052 119.61965942 C-129.01127866 128.12989829 -129.05623925 136.64015572 -129.09943289 145.1504308 C-129.14885557 154.84085497 -129.20375501 164.53124569 -129.25911248 174.22163749 C-129.37284226 194.15163488 -129.47897789 214.08166309 -129.58203125 234.01171875 C-144.76203125 234.01171875 -159.94203125 234.01171875 -175.58203125 234.01171875 C-175.58203125 153.16171875 -175.58203125 72.31171875 -175.58203125 -10.98828125 C-163.04203125 -10.98828125 -150.50203125 -10.98828125 -137.58203125 -10.98828125 C-135.10703125 2.87171875 -135.10703125 2.87171875 -132.58203125 17.01171875 C-129.98328125 14.07265625 -129.98328125 14.07265625 -127.33203125 11.07421875 C-95.27663966 -24.00278762 -37.74287938 -29.06373011 0 0 Z " fill="#000000" transform="translate(4820.58203125,1706.98828125)"/>
<path d="M0 0 C1.31564941 0.00491455 2.63129883 0.0098291 3.98681641 0.01489258 C14.02783554 0.13529589 23.57008139 0.85999819 33.3125 3.3125 C34.31893555 3.56193359 34.31893555 3.56193359 35.34570312 3.81640625 C59.98394785 10.17010833 81.75834611 24.59038858 95.25585938 46.47216797 C101.06543753 56.59060608 106.3125 68.55488449 106.3125 80.3125 C89.4825 80.3125 72.6525 80.3125 55.3125 80.3125 C52.8375 73.8775 52.8375 73.8775 50.3125 67.3125 C43.58014452 54.30681327 34.13699325 47.06216106 20.32421875 42.27734375 C3.73703804 37.74590302 -14.13782127 39.28668229 -29.5 47 C-46.58097154 57.19797264 -56.38890955 74.42792858 -61.41967773 93.33081055 C-68.66878449 122.82281533 -68.91525652 158.82951716 -54.6875 186.3125 C-44.80418103 202.44967052 -32.28287918 213.77686524 -13.4921875 218.3984375 C3.11732223 221.95320868 19.80011342 219.2705183 34.53515625 211.12890625 C37.16918555 209.40622886 39.11410825 207.54026892 41.3125 205.3125 C41.9725 205.3125 42.6325 205.3125 43.3125 205.3125 C43.58320313 204.73886719 43.85390625 204.16523437 44.1328125 203.57421875 C45.33174718 201.27559895 46.69721801 199.24459796 48.1875 197.125 C52.65957652 190.46051523 55.45131782 183.95774239 56.91796875 176.0625 C57.3125 174.3125 57.3125 174.3125 58.3125 173.3125 C59.87797048 173.21923284 61.44762772 173.19504418 63.01586914 173.19897461 C64.01683121 173.19905014 65.01779327 173.19912567 66.04908752 173.19920349 C67.1376152 173.20436478 68.22614288 173.20952606 69.34765625 173.21484375 C71.0102372 173.21696617 71.0102372 173.21696617 72.70640564 173.21913147 C76.26263069 173.22474967 79.81879383 173.23730525 83.375 173.25 C85.77929597 173.25501266 88.18359292 173.25957597 90.58789062 173.26367188 C96.49611504 173.27472501 102.4043031 173.29148083 108.3125 173.3125 C108.16877786 174.7318596 108.02100897 176.15080973 107.87158203 177.56958008 C107.74881393 178.75491081 107.74881393 178.75491081 107.62356567 179.96418762 C104.6867904 202.13463681 90.50576126 223.2823034 73.12890625 236.83984375 C45.94403112 257.33536797 13.4266354 262.45778087 -19.83203125 258.84375 C-23.86179483 258.27644657 -27.75634087 257.37150613 -31.6875 256.3125 C-32.40615234 256.11914062 -33.12480469 255.92578125 -33.86523438 255.7265625 C-50.09031065 251.21418077 -64.22198377 243.71175901 -76.6875 232.3125 C-77.94626953 231.17554688 -77.94626953 231.17554688 -79.23046875 230.015625 C-105.26644585 205.31172115 -114.50193052 170.032275 -115.875 135.19921875 C-116.52225231 95.59546814 -106.47262343 58.09701296 -78.8125 29 C-57.39173924 8.42125028 -29.21340136 -0.12979554 0 0 Z " fill="#000000" transform="translate(3227.6875,1688.6875)"/>
</svg>
