<?xml version="1.0" encoding="UTF-8"?>
<svg version="1.1" xmlns="http://www.w3.org/2000/svg" width="300" height="168">
<path d="M0 0 C99 0 198 0 300 0 C300 55.44 300 110.88 300 168 C201 168 102 168 0 168 C0 112.56 0 57.12 0 0 Z " fill="#FDFDFD" transform="translate(0,0)"/>
<path d="M0 0 C4.7538272 3.16921813 8.38141605 7.28076274 9.8125 12.875 C10.71281686 19.82821633 9.26089453 25.7870936 5.8125 31.875 C1.68355405 36.83901367 -3.42351743 38.57885901 -9.6875 39.25 C-13.1875 38.875 -13.1875 38.875 -19.1875 34.875 C-19.5175 42.135 -19.8475 49.395 -20.1875 56.875 C-23.4875 56.875 -26.7875 56.875 -30.1875 56.875 C-30.1875 38.065 -30.1875 19.255 -30.1875 -0.125 C-27.2175 -0.125 -24.2475 -0.125 -21.1875 -0.125 C-21.1875 1.525 -21.1875 3.175 -21.1875 4.875 C-20.5275 4.875 -19.8675 4.875 -19.1875 4.875 C-19.1875 4.215 -19.1875 3.555 -19.1875 2.875 C-12.57208935 -1.06609571 -7.57092215 -2.67209017 0 0 Z " fill="#231F20" transform="translate(85.1875,52.125)"/>
<path d="M0 0 C3.3 0 6.6 0 10 0 C10.33 10.56 10.66 21.12 11 32 C15.0295516 27.36591717 15.0295516 27.36591717 19.01611328 22.69506836 C20.59642765 20.93577085 22.08361326 19.39039507 24 18 C27.3046875 17.94140625 27.3046875 17.94140625 30 19 C30.66 19.66 31.32 20.32 32 21 C28.04 25.29 24.08 29.58 20 34 C24.01675973 39.42262563 28.16111316 44.69677735 32.4609375 49.8984375 C34 52 34 52 34 54 C31.03 54.66 28.06 55.32 25 56 C19.95910392 49.87160095 15.30268666 43.66916432 11 37 C10.67 43.27 10.34 49.54 10 56 C6.7 56 3.4 56 0 56 C0 37.52 0 19.04 0 0 Z " fill="#1F1B1C" transform="translate(203,34)"/>
<path d="M0 0 C4.64449538 1.81741124 6.57105319 4.72457711 9 9 C9.45410156 12.43505859 9.45410156 12.43505859 9.390625 16.1484375 C9.38496521 16.80582916 9.37930542 17.46322083 9.37347412 18.14053345 C9.35126275 20.21946191 9.3011042 22.29660163 9.25 24.375 C9.22991489 25.79294368 9.21166765 27.21091465 9.1953125 28.62890625 C9.15145067 32.08650877 9.08253437 35.54307951 9 39 C5.7 39 2.4 39 -1 39 C-1.02505615 38.20303711 -1.0501123 37.40607422 -1.07592773 36.58496094 C-1.19198789 32.97314778 -1.31466931 29.36158898 -1.4375 25.75 C-1.47681641 24.49574219 -1.51613281 23.24148437 -1.55664062 21.94921875 C-1.59853516 20.74394531 -1.64042969 19.53867188 -1.68359375 18.296875 C-1.72025146 17.18666992 -1.75690918 16.07646484 -1.79467773 14.93261719 C-1.96710904 12.46978151 -2.29595439 10.35517035 -3 8 C-4.60332791 7.91878076 -6.20784026 7.86070866 -7.8125 7.8125 C-9.15248047 7.76029297 -9.15248047 7.76029297 -10.51953125 7.70703125 C-13.04398426 7.7863515 -13.04398426 7.7863515 -14.76171875 9.38671875 C-17.19699429 12.55949098 -17.18221751 14.93382973 -17.31640625 18.8828125 C-17.35830078 20.04941406 -17.40019531 21.21601562 -17.44335938 22.41796875 C-17.50233398 24.25294922 -17.50233398 24.25294922 -17.5625 26.125 C-17.60568359 27.35605469 -17.64886719 28.58710937 -17.69335938 29.85546875 C-17.79968704 32.90352853 -17.90171781 35.9516719 -18 39 C-21.3 39 -24.6 39 -28 39 C-28 26.46 -28 13.92 -28 1 C-24.7 1 -21.4 1 -18 1 C-17.67 2.32 -17.34 3.64 -17 5 C-16.21625 4.360625 -15.4325 3.72125 -14.625 3.0625 C-9.88566125 -0.66126616 -5.8827648 -0.50184723 0 0 Z " fill="#242022" transform="translate(187,51)"/>
<path d="M0 0 C3.3 0 6.6 0 10 0 C10.01458252 0.83249268 10.02916504 1.66498535 10.04418945 2.52270508 C10.1052863 5.61489653 10.17944556 8.70642082 10.26245117 11.7980957 C10.31201319 13.7929063 10.34651133 15.78807257 10.38085938 17.78320312 C10.41630859 19.03681641 10.45175781 20.29042969 10.48828125 21.58203125 C10.51446533 22.73936768 10.54064941 23.8967041 10.56762695 25.08911133 C10.77403032 27.97633365 10.77403032 27.97633365 12.31713867 29.8737793 C15.20830146 31.80863117 17.6454864 31.41195781 21 31 C23.88272165 28.84407988 24.88123876 27.63799644 25.54589844 24.06738281 C25.57731934 22.4020752 25.57731934 22.4020752 25.609375 20.703125 C25.64160156 19.49785156 25.67382812 18.29257813 25.70703125 17.05078125 C25.72121094 15.79652344 25.73539063 14.54226562 25.75 13.25 C25.79447266 11.34541016 25.79447266 11.34541016 25.83984375 9.40234375 C25.91053951 6.26816515 25.96324012 3.13473044 26 0 C29.3 0 32.6 0 36 0 C36 12.54 36 25.08 36 38 C32.7 38 29.4 38 26 38 C26 36.68 26 35.36 26 34 C25.29037109 34.54140625 25.29037109 34.54140625 24.56640625 35.09375 C20.06991938 38.24917938 16.65242334 39.77157701 11.109375 39.41796875 C7.64460177 38.73143035 5.59770217 37.35030196 3 35 C0.29181497 30.53175583 -0.36190569 27.26356191 -0.29296875 22.0703125 C-0.28330078 20.78125 -0.27363281 19.4921875 -0.26367188 18.1640625 C-0.23861188 16.81770214 -0.21321712 15.47134797 -0.1875 14.125 C-0.17243504 12.75522295 -0.15874982 11.38542998 -0.14648438 10.015625 C-0.11121379 6.67667642 -0.06191896 3.33854325 0 0 Z " fill="#211E1F" transform="translate(116,52)"/>
<path d="M0 0 C3.1875 1.5 3.1875 1.5 5 3 C4.34 4.32 3.68 5.64 3 7 C-0.3 7 -3.6 7 -7 7 C-7.33 8.32 -7.66 9.64 -8 11 C-7.40832031 11.51949219 -6.81664062 12.03898437 -6.20703125 12.57421875 C-4.57590443 14.01376135 -2.95247648 15.46206377 -1.3359375 16.91796875 C0.42604008 18.48842703 2.23408553 20.00741676 4.0625 21.5 C6.27415809 24.35375238 6.72718143 26.39310066 6.48828125 30.00390625 C5.41445838 34.39369412 2.56774789 37.04193184 -1.25 39.375 C-6.9311401 40.6661682 -11.89043523 40.95846301 -17.0625 38 C-18.031875 37.34 -19.00125 36.68 -20 36 C-19.42655063 33.13275314 -19.1385485 32.1385485 -17 30 C-16.319375 30.515625 -15.63875 31.03125 -14.9375 31.5625 C-11.19881168 33.39207088 -8.99556587 32.86178872 -5 32 C-5 29.69 -5 27.38 -5 25 C-5.56203125 24.74347656 -6.1240625 24.48695312 -6.703125 24.22265625 C-11.55462378 21.64014074 -17.0121888 18.06526981 -18.7578125 12.6484375 C-18.97580003 8.3032194 -18.36974437 6.46704552 -15.625 3 C-10.65436484 -0.7871506 -6.10793831 -0.52806383 0 0 Z " fill="#231F20" transform="translate(44,51)"/>
<path d="M0 0 C3.3 0 6.6 0 10 0 C10 18.48 10 36.96 10 56 C6.7 56 3.4 56 0 56 C0 37.52 0 19.04 0 0 Z " fill="#201D1E" transform="translate(99,34)"/>
<path d="M0 0 C2.63016161 2.1727422 4.47336894 3.94673788 6 7 C6.50314949 13.4635357 6.9257518 19.53198856 3 25 C0.66973136 27.41062274 -0.6179667 27.93497306 -3.9375 28.5 C-8.01103263 27.83493345 -9.40263771 26.11683475 -12 23 C-14.32076756 18.35846489 -13.43000478 12.05112277 -13 7 C-10.6037606 0.53810324 -6.56600652 -0.66772948 0 0 Z " fill="#FAFAFA" transform="translate(78,57)"/>
<path d="M0 0 C4.15116435 1.29757537 7.95590318 2.85943494 11.8359375 4.8203125 C13.43115234 5.62275391 13.43115234 5.62275391 15.05859375 6.44140625 C16.70021484 7.27478516 16.70021484 7.27478516 18.375 8.125 C19.49261719 8.68832031 20.61023438 9.25164063 21.76171875 9.83203125 C24.5096609 11.21774567 27.2556598 12.60716947 30 14 C30 16.31 30 18.62 30 21 C26.05154255 22.99891133 22.10050563 24.99259885 18.14697266 26.98144531 C16.80184612 27.65904347 15.45744044 28.33807459 14.11376953 29.01855469 C12.18448716 29.99529838 10.25268782 30.96689277 8.3203125 31.9375 C6.57645264 32.81728516 6.57645264 32.81728516 4.79736328 33.71484375 C2 35 2 35 0 35 C0 33.02 0 31.04 0 29 C0.56509277 28.70754395 1.13018555 28.41508789 1.71240234 28.11376953 C4.26863666 26.7880615 6.82183447 25.45660789 9.375 24.125 C10.26445312 23.66480469 11.15390625 23.20460938 12.0703125 22.73046875 C12.92109375 22.28574219 13.771875 21.84101562 14.6484375 21.3828125 C15.43395996 20.97434082 16.21948242 20.56586914 17.02880859 20.14501953 C19.13896866 19.03187615 19.13896866 19.03187615 21 17 C20.39937744 16.70230713 19.79875488 16.40461426 19.17993164 16.09790039 C16.47308771 14.75483792 13.76777908 13.40871152 11.0625 12.0625 C9.64420898 11.35963867 9.64420898 11.35963867 8.19726562 10.64257812 C7.29814453 10.19462891 6.39902344 9.74667969 5.47265625 9.28515625 C4.64000244 8.87144775 3.80734863 8.45773926 2.94946289 8.03149414 C1 7 1 7 0 6 C-0.04080783 4.00041636 -0.04254356 1.99954746 0 0 Z " fill="#211E1E" transform="translate(247,53)"/>
<path d="M0 0 C3.26023324 0.22484367 4.93132641 0.5260489 7.625 2.25 C8.285 1.59 8.945 0.93 9.625 0.25 C13.125 0 13.125 0 16.625 0.25 C18.95028287 2.57528287 18.92011025 3.09665898 18.9375 6.25 C18.95425781 6.95125 18.97101563 7.6525 18.98828125 8.375 C18.86839844 8.99375 18.74851563 9.6125 18.625 10.25 C15.39246204 12.40502531 14.37349077 12.71856135 10.625 12.25 C8.8125 10.75 8.8125 10.75 7.625 9.25 C4.9344472 10.47007944 4.9344472 10.47007944 2.625 12.25 C-0.875 11.9375 -0.875 11.9375 -4.375 11.25 C-5.88162097 8.23675805 -5.55270373 5.56713623 -5.375 2.25 C-3.375 0.25 -3.375 0.25 0 0 Z " fill="#F1F1F1" transform="translate(183.375,117.75)"/>
<path d="M0 0 C4.45850936 0.79616239 5.90783917 1.93313458 8.5 5.625 C9.00984938 9.25767682 8.90735398 11.59303659 7.5625 15 C4.22020392 17.63332418 0.6867953 18.04294629 -3.5 17.625 C-6.5625 15.625 -6.5625 15.625 -8.5 12.625 C-9.125 9.125 -9.125 9.125 -8.5 5.625 C-5.90783917 1.93313458 -4.45850936 0.79616239 0 0 Z " fill="#1B1818" transform="translate(156.5,112.375)"/>
<path d="M0 0 C7.71484375 -0.09765625 7.71484375 -0.09765625 10 0 C11.58867866 1.58867866 11.20794039 3.24689516 11.25 5.4375 C11.28867188 6.64212891 11.28867188 6.64212891 11.328125 7.87109375 C11.21984375 8.57363281 11.1115625 9.27617188 11 10 C8 12 8 12 4.8125 11.625 C3.4203125 11.315625 3.4203125 11.315625 2 11 C2 12.65 2 14.3 2 16 C1.34 16 0.68 16 0 16 C0 10.72 0 5.44 0 0 Z " fill="#191616" transform="translate(226,118)"/>
<path d="M0 0 C1.670625 0.061875 1.670625 0.061875 3.375 0.125 C3.375 1.115 3.375 2.105 3.375 3.125 C1.725 3.125 0.075 3.125 -1.625 3.125 C-1.625 4.115 -1.625 5.105 -1.625 6.125 C-0.820625 6.434375 -0.01625 6.74375 0.8125 7.0625 C3.375 8.125 3.375 8.125 4.375 9.125 C4.41580783 11.12458364 4.41754356 13.12545254 4.375 15.125 C0.74076791 17.45090854 -2.39588331 17.28765833 -6.625 17.125 C-6.625 15.805 -6.625 14.485 -6.625 13.125 C-4.315 13.125 -2.005 13.125 0.375 13.125 C-1.79187491 10.84978134 -4.08120509 8.96705838 -6.625 7.125 C-5.84042384 2.15601765 -5.49387562 0.18944399 0 0 Z " fill="#1D1A1B" transform="translate(121.625,112.875)"/>
<path d="M0 0 C0 1.32 0 2.64 0 4 C-2.31 4.66 -4.62 5.32 -7 6 C-7 7.98 -7 9.96 -7 12 C-4.69 12.33 -2.38 12.66 0 13 C0 14.32 0 15.64 0 17 C-4.29107165 17.4206933 -6.35134537 17.45543836 -9.9375 14.9375 C-12 12 -12 12 -12.625 8.5 C-11.29709687 1.06374249 -7.10685639 -0.69675063 0 0 Z " fill="#232021" transform="translate(99,113)"/>
<path d="M0 0 C3.5 0.25 3.5 0.25 5.5 2.25 C5.80078125 4.125 5.80078125 4.125 5.8125 6.25 C5.82925781 6.95125 5.84601563 7.6525 5.86328125 8.375 C5.68345703 9.303125 5.68345703 9.303125 5.5 10.25 C2.26746204 12.40502531 1.24849077 12.71856135 -2.5 12.25 C-4.3125 11.1875 -4.3125 11.1875 -5.5 9.25 C-5.8125 5.6875 -5.8125 5.6875 -5.5 2.25 C-3.5 0.25 -3.5 0.25 0 0 Z " fill="#1A1919" transform="translate(196.5,117.75)"/>
<path d="M0 0 C0 1.32 0 2.64 0 4 C-2.31 4.66 -4.62 5.32 -7 6 C-7 7.98 -7 9.96 -7 12 C-4.69 12.33 -2.38 12.66 0 13 C0 14.32 0 15.64 0 17 C-4.29107165 17.4206933 -6.35134537 17.45543836 -9.9375 14.9375 C-12 12 -12 12 -12.625 8.5 C-11.29709687 1.06374249 -7.10685639 -0.69675063 0 0 Z " fill="#1D1A1B" transform="translate(143,113)"/>
<path d="M0 0 C3.25696479 0.41755959 4.63443291 0.63443291 7 3 C7.1953125 5.3828125 7.1953125 5.3828125 7.125 8.125 C7.10695312 9.03507812 7.08890625 9.94515625 7.0703125 10.8828125 C7.04710937 11.58148438 7.02390625 12.28015625 7 13 C6.01 13 5.02 13 4 13 C4 9.37 4 5.74 4 2 C2.02 2.99 2.02 2.99 0 4 C-0.6993514 6.18541552 -0.6993514 6.18541552 -0.75 8.625 C-0.80671875 9.44226563 -0.8634375 10.25953125 -0.921875 11.1015625 C-0.94765625 11.72804687 -0.9734375 12.35453125 -1 13 C-1.66 13 -2.32 13 -3 13 C-3.33 9.7 -3.66 6.4 -4 3 C-4.99 3 -5.98 3 -7 3 C-7.33 6.3 -7.66 9.6 -8 13 C-8.99 13 -9.98 13 -11 13 C-11 9.04 -11 5.08 -11 1 C-9.370625 1.020625 -7.74125 1.04125 -6.0625 1.0625 C-4.37500659 1.08386068 -2.68608966 1.07205511 -1 1 C-0.67 0.67 -0.34 0.34 0 0 Z " fill="#403F3F" transform="translate(216,117)"/>
<path d="M0 0 C1.26237731 2.52475462 1.09856404 4.31200466 1.0625 7.125 C1.05347656 8.03507812 1.04445313 8.94515625 1.03515625 9.8828125 C1.02355469 10.58148438 1.01195313 11.28015625 1 12 C-0.32 12 -1.64 12 -3 12 C-3.886875 12.020625 -4.77375 12.04125 -5.6875 12.0625 C-8 12 -8 12 -9 11 C-9.04063832 9.33382885 -9.042721 7.66611905 -9 6 C-6.09399739 4.74335022 -4.20395416 4 -1 4 C-1.33 3.34 -1.66 2.68 -2 2 C-4.31 2.33 -6.62 2.66 -9 3 C-8.67 2.01 -8.34 1.02 -8 0 C-5.09660535 -1.45169732 -3.09125158 -0.72348441 0 0 Z " fill="#161213" transform="translate(74,118)"/>
<path d="M0 0 C1 1 1 1 1.09765625 3.50390625 C1.08605469 4.51324219 1.07445312 5.52257812 1.0625 6.5625 C1.05347656 7.57441406 1.04445312 8.58632812 1.03515625 9.62890625 C1.02355469 10.41136719 1.01195312 11.19382813 1 12 C-6.75 12.125 -6.75 12.125 -9 11 C-9 9.35 -9 7.7 -9 6 C-6.36 5.34 -3.72 4.68 -1 4 C-1.33 3.34 -1.66 2.68 -2 2 C-4.31 2.33 -6.62 2.66 -9 3 C-8.67 2.01 -8.34 1.02 -8 0 C-5.11795733 -1.44102133 -3.08226581 -0.65580124 0 0 Z " fill="#232122" transform="translate(249,118)"/>
<path d="M0 0 C1.32 0 2.64 0 4 0 C4 5.61 4 11.22 4 17 C2.68 17 1.36 17 0 17 C0 11.39 0 5.78 0 0 Z " fill="#2A2526" transform="translate(105,113)"/>
<path d="M0 0 C2.5625 0.1875 2.5625 0.1875 4.5625 2.1875 C4.1875 5.3125 4.1875 5.3125 3.5625 8.1875 C1.25 8.875 1.25 8.875 -1.4375 9.1875 C-3.3125 8.0625 -3.3125 8.0625 -4.4375 6.1875 C-3.87661439 0.29820111 -3.87661439 0.29820111 0 0 Z " fill="#EDEDED" transform="translate(156.4375,116.8125)"/>
<path d="M0 0 C0.99 0.33 1.98 0.66 3 1 C4.1875 4.0625 4.1875 4.0625 5 7 C6.32 4.69 7.64 2.38 9 0 C9.66 0.33 10.32 0.66 11 1 C10.2956478 3.32286363 9.56377992 5.62983722 8.8125 7.9375 C8.61591797 8.59685547 8.41933594 9.25621094 8.21679688 9.93554688 C7.58203125 11.83984375 7.58203125 11.83984375 6 15 C3.32421875 15.94140625 3.32421875 15.94140625 1 16 C1 15.34 1 14.68 1 14 C1.99 14 2.98 14 4 14 C3.71125 13.15695313 3.4225 12.31390625 3.125 11.4453125 C2.75375 10.34960938 2.3825 9.25390625 2 8.125 C1.62875 7.03445312 1.2575 5.94390625 0.875 4.8203125 C0 2 0 2 0 0 Z " fill="#272626" transform="translate(266,118)"/>
<path d="M0 0 C1.32 0.33 2.64 0.66 4 1 C4 2.98 4 4.96 4 7 C0.36576791 9.32590854 -2.77088331 9.16265833 -7 9 C-7 7.68 -7 6.36 -7 5 C-4.69 5 -2.38 5 0 5 C-0.33 4.01 -0.66 3.02 -1 2 C-0.67 1.34 -0.34 0.68 0 0 Z " fill="#252222" transform="translate(122,121)"/>
<path d="M0 0 C0 1.32 0 2.64 0 4 C-1.11375 4.2475 -2.2275 4.495 -3.375 4.75 C-7.04615198 5.61005339 -7.04615198 5.61005339 -8.4375 8.125 C-8.623125 8.74375 -8.80875 9.3625 -9 10 C-9.33 9.01 -9.66 8.02 -10 7 C-10.66 8.32 -11.32 9.64 -12 11 C-12.46233492 7.0239197 -12.30954571 5.43148796 -9.9375 2.125 C-6.34962488 -0.47048413 -4.3322929 -0.4247346 0 0 Z " fill="#161314" transform="translate(99,113)"/>
<path d="M0 0 C1.32 0 2.64 0 4 0 C5.36623674 2.73247348 5.128426 4.98198902 5 8 C4 9 4 9 1.4375 9.0625 C0.633125 9.041875 -0.17125 9.02125 -1 9 C-1.625 5.625 -1.625 5.625 -2 2 C-1.34 1.34 -0.68 0.68 0 0 Z " fill="#F5F5F5" transform="translate(195,119)"/>
<path d="M0 0 C1.32 0 2.64 0 4 0 C5.35439668 2.70879335 5.06501451 5.00933268 5 8 C2.625 8.625 2.625 8.625 0 9 C-2 7 -2 7 -2.25 4.5 C-2 2 -2 2 0 0 Z " fill="#F3F3F3" transform="translate(230,119)"/>
<path d="M0 0 C1.670625 0.061875 1.670625 0.061875 3.375 0.125 C3.705 1.115 4.035 2.105 4.375 3.125 C2.065 2.465 -0.245 1.805 -2.625 1.125 C-2.625 3.765 -2.625 6.405 -2.625 9.125 C0.84 8.63 0.84 8.63 4.375 8.125 C3.715 9.445 3.055 10.765 2.375 12.125 C0.0318787 11.86938677 -2.30343403 11.53229228 -4.625 11.125 C-6.13162097 8.11175805 -5.80270373 5.44213623 -5.625 2.125 C-3.625 0.125 -3.625 0.125 0 0 Z " fill="#171415" transform="translate(183.625,117.875)"/>
<path d="M0 0 C0.33 1.32 0.66 2.64 1 4 C1.66 4 2.32 4 3 4 C3 4.66 3 5.32 3 6 C3.66 6 4.32 6 5 6 C5 6.66 5 7.32 5 8 C5.99 8 6.98 8 8 8 C8 8.66 8 9.32 8 10 C5.8125 10.8125 5.8125 10.8125 3 11 C0.1875 8.5625 0.1875 8.5625 -2 6 C-1.34 4.02 -0.68 2.04 0 0 Z " fill="#292526" transform="translate(150,119)"/>
<path d="M0 0 C1 1 1 1 1.09765625 3.28515625 C1.08605469 4.20167969 1.07445312 5.11820312 1.0625 6.0625 C1.05347656 6.98160156 1.04445312 7.90070313 1.03515625 8.84765625 C1.02355469 9.55792969 1.01195312 10.26820313 1 11 C0.01 10.34 -0.98 9.68 -2 9 C-1.67 8.01 -1.34 7.02 -1 6 C-1.66 6 -2.32 6 -3 6 C-3 5.34 -3 4.68 -3 4 C-2.34 4 -1.68 4 -1 4 C-1.33 3.34 -1.66 2.68 -2 2 C-4.31 2.33 -6.62 2.66 -9 3 C-8.67 2.01 -8.34 1.02 -8 0 C-5.11795733 -1.44102133 -3.08226581 -0.65580124 0 0 Z " fill="#1F1E1E" transform="translate(249,118)"/>
<path d="M0 0 C6.15234375 -0.09765625 6.15234375 -0.09765625 8 0 C9 1 9 1 9.09765625 3.28515625 C9.08605469 4.20167969 9.07445312 5.11820312 9.0625 6.0625 C9.05347656 6.98160156 9.04445313 7.90070313 9.03515625 8.84765625 C9.02355469 9.55792969 9.01195312 10.26820313 9 11 C8.67 11 8.34 11 8 11 C7.67 8.36 7.34 5.72 7 3 C5.05396726 2.40929986 5.05396726 2.40929986 3 2 C1.50256881 3.49743119 1.66797307 4.98824239 1.4375 7.0625 C1.293125 8.361875 1.14875 9.66125 1 11 C0.67 11 0.34 11 0 11 C0 7.37 0 3.74 0 0 Z " fill="#090808" transform="translate(254,118)"/>
<path d="M0 0 C0 0.33 0 0.66 0 1 C-1.65 1.33 -3.3 1.66 -5 2 C-5.33 2.99 -5.66 3.98 -6 5 C-4.35 5 -2.7 5 -1 5 C-1.33 5.66 -1.66 6.32 -2 7 C-3.66611905 7.042721 -5.33382885 7.04063832 -7 7 C-8 6 -8 6 -8.0625 3.4375 C-8.041875 2.633125 -8.02125 1.82875 -8 1 C-3.375 -1.125 -3.375 -1.125 0 0 Z " fill="#221F20" transform="translate(73,123)"/>
<path d="M0 0 C1.65 0 3.3 0 5 0 C4.67 1.32 4.34 2.64 4 4 C2.35 4 0.7 4 -1 4 C-0.67 2.68 -0.34 1.36 0 0 Z " fill="#E5E4E4" transform="translate(243,124)"/>
<path d="M0 0 C1.65 0 3.3 0 5 0 C4.67 1.32 4.34 2.64 4 4 C2.35 4 0.7 4 -1 4 C-0.67 2.68 -0.34 1.36 0 0 Z " fill="#E3E2E2" transform="translate(68,124)"/>
<path d="M0 0 C-2.76223278 2.76223278 -5.20706617 2.57856291 -9 3 C-8.67 2.01 -8.34 1.02 -8 0 C-5.13822943 -1.43088528 -3.06624227 -0.59991697 0 0 Z " fill="#343333" transform="translate(74,118)"/>
<path d="M0 0 C0.66 0 1.32 0 2 0 C1.71125 0.53625 1.4225 1.0725 1.125 1.625 C-0.16711808 4.35280484 -1.08558592 7.12612718 -2 10 C-2.33 10 -2.66 10 -3 10 C-3.2295711 6.63295715 -3.33943529 4.58629732 -1.625 1.625 C-1.08875 1.08875 -0.5525 0.5525 0 0 Z " fill="#151213" transform="translate(134,114)"/>
</svg>
