<?xml version="1.0" encoding="UTF-8"?>
<svg version="1.1" xmlns="http://www.w3.org/2000/svg" width="1000" height="1000">
<path d="M0 0 C330 0 660 0 1000 0 C1000 330 1000 660 1000 1000 C670 1000 340 1000 0 1000 C0 670 0 340 0 0 Z " fill="#FEFEFE" transform="translate(0,0)"/>
<path d="M0 0 C13.31702795 8.99996944 21.18529511 22.76096207 24.375 38.38671875 C27.23973038 61.51941656 22.02083909 81.20460487 8.65625 100.296875 C-1.2060362 111.41951727 -15.39159426 117.45201633 -29.953125 118.42578125 C-43.95059052 118.97826886 -53.37757459 115.11625395 -64.15625 106.171875 C-65.47625 104.851875 -66.79625 103.531875 -68.15625 102.171875 C-68.48625 126.261875 -68.81625 150.351875 -69.15625 175.171875 C-79.71625 175.171875 -90.27625 175.171875 -101.15625 175.171875 C-101.15625 115.771875 -101.15625 56.371875 -101.15625 -4.828125 C-90.59625 -4.828125 -80.03625 -4.828125 -69.15625 -4.828125 C-68.66125 2.596875 -68.66125 2.596875 -68.15625 10.171875 C-67.0425 8.975625 -65.92875 7.779375 -64.78125 6.546875 C-46.71612919 -11.39147303 -21.28488724 -12.32837528 0 0 Z " fill="#120904" transform="translate(302.15625,442.828125)"/>
<path d="M0 0 C10.89 0 21.78 0 33 0 C33 33.99 33 67.98 33 103 C37.5480884 100.27114696 40.23017196 97.73073177 43.5 93.75 C44.56325347 92.48261247 45.62707483 91.21570117 46.69140625 89.94921875 C47.23684082 89.29614746 47.78227539 88.64307617 48.34423828 87.97021484 C51.00595115 84.80300416 53.72165901 81.68329155 56.4375 78.5625 C59.83970409 74.64888377 63.23490976 70.72999588 66.60546875 66.7890625 C67.19465088 66.10255615 67.78383301 65.4160498 68.39086914 64.70874023 C69.52189839 63.39045343 70.65012988 62.06975956 71.77514648 60.74633789 C74.06306751 58.0853509 76.06269313 55.95820458 79 54 C81.4519043 54.69091797 81.4519043 54.69091797 84.32421875 55.9921875 C85.35224609 56.44980469 86.38027344 56.90742188 87.43945312 57.37890625 C88.51130859 57.87261719 89.58316406 58.36632812 90.6875 58.875 C91.77095703 59.36097656 92.85441406 59.84695313 93.97070312 60.34765625 C96.65294405 61.55289226 99.32872292 62.7707006 102 64 C98.62289504 68.66786126 95.2327662 72.99870731 91.0625 77 C87.40015699 80.58010477 83.97244829 84.2476541 80.64453125 88.13671875 C78.99601248 90.00451793 77.27696419 91.75455624 75.5 93.5 C68.27001752 100.52392696 68.27001752 100.52392696 63 109 C69.90607345 117.857489 76.91520176 126.62255704 84.01171875 135.328125 C86.97262921 138.96125712 89.9030856 142.61765196 92.81640625 146.2890625 C94.63852269 148.55122495 96.4826077 150.79021559 98.33984375 153.0234375 C98.93216797 153.74015625 99.52449219 154.456875 100.13476562 155.1953125 C101.31671118 156.62440377 102.50404018 158.04906335 103.69726562 159.46875 C104.23931641 160.12617187 104.78136719 160.78359375 105.33984375 161.4609375 C105.82831787 162.04665527 106.31679199 162.63237305 106.82006836 163.23583984 C108.10067604 165.15052454 108.57778796 166.74964378 109 169 C104.77784468 170.54081195 100.54633177 172.05409938 96.3125 173.5625 C95.11431641 174.00013672 93.91613281 174.43777344 92.68164062 174.88867188 C91.52470703 175.29794922 90.36777344 175.70722656 89.17578125 176.12890625 C87.58117065 176.70233765 87.58117065 176.70233765 85.9543457 177.28735352 C82.77701882 178.05378746 81.06436318 178.09659511 78 177 C76.53710938 175.61157227 76.53710938 175.61157227 75.34375 173.81640625 C74.65647827 172.81009155 74.65647827 172.81009155 73.95532227 171.78344727 C73.47506592 171.05053467 72.99480957 170.31762207 72.5 169.5625 C71.43741425 167.99917257 70.37357069 166.43669947 69.30859375 164.875 C68.76315918 164.06675781 68.21772461 163.25851562 67.65576172 162.42578125 C65.03309023 158.58342444 62.29888281 154.8243019 59.5625 151.0625 C58.47766279 149.56394815 57.39302876 148.06524919 56.30859375 146.56640625 C55.2057704 145.04424096 54.10290516 143.52210601 53 142 C50.70718438 138.83416322 48.41580184 135.66729413 46.125 132.5 C45.61396729 131.79496338 45.10293457 131.08992676 44.57641602 130.36352539 C40.65871836 124.94708134 36.83487986 119.47839981 33 114 C32.67 134.46 32.34 154.92 32 176 C21.44 176 10.88 176 0 176 C0 117.92 0 59.84 0 0 Z " fill="#110803" transform="translate(665,382)"/>
<path d="M0 0 C10.56 0 21.12 0 32 0 C32.0093457 2.46194824 32.01869141 4.92389648 32.02832031 7.46044922 C32.06218842 15.62293206 32.11779178 23.78516469 32.18390274 31.94744682 C32.2232998 36.89303733 32.25552629 41.83845186 32.27099609 46.78417969 C32.286214 51.56306025 32.32075012 56.34145675 32.36830902 61.120121 C32.38307005 62.93718365 32.39103797 64.75431543 32.39188385 66.57143784 C32.0476182 81.51174789 32.0476182 81.51174789 38.3760376 94.6244812 C44.27476962 100.0374367 51.11597224 100.44677642 58.73828125 100.31640625 C64.79867331 99.72851193 69.06292614 97.506613 73.8125 93.8125 C79.3550799 86.68632584 81.13397195 79.24928608 81.20532227 70.38574219 C81.21522186 69.62437958 81.22512146 68.86301697 81.23532104 68.07858276 C81.26684776 65.56804488 81.29165847 63.05748809 81.31640625 60.546875 C81.33698341 58.80380773 81.35798008 57.06074536 81.37937927 55.31768799 C81.43452129 50.73433408 81.48396523 46.15093572 81.53222656 41.56750488 C81.5824991 36.88871311 81.63815512 32.20998572 81.69335938 27.53125 C81.80084469 18.35421968 81.90181337 9.17713453 82 0 C92.56 0 103.12 0 114 0 C114 39.6 114 79.2 114 120 C103.44 120 92.88 120 82 120 C81.67 115.38 81.34 110.76 81 106 C80.0925 107.010625 79.185 108.02125 78.25 109.0625 C67.98738839 119.26303936 55.75181461 123.22555622 41.625 123.4375 C28.09758404 123.35393193 17.91367987 119.91367987 8.3125 110.3125 C1.69382002 101.83161515 -0.15851691 92.50233375 -0.11352539 82.07885742 C-0.11367142 81.19055237 -0.11381744 80.30224731 -0.1139679 79.38702393 C-0.11327293 76.45981376 -0.1055 73.53266775 -0.09765625 70.60546875 C-0.09579059 68.57237279 -0.09436739 66.53927638 -0.09336853 64.50617981 C-0.08955499 59.16161859 -0.07973462 53.81708464 -0.06866455 48.47253418 C-0.05842543 43.01619842 -0.05386555 37.55985823 -0.04882812 32.10351562 C-0.03811132 21.40232985 -0.02052392 10.70117146 0 0 Z " fill="#100702" transform="translate(393,438)"/>
<path d="M0 0 C8.48322244 6.24178385 12.73919456 14.16641345 15.125 24.3125 C15.94794107 29.89914061 16.26532701 35.29068894 16.23852539 40.93164062 C16.23867142 41.75210876 16.23881744 42.5725769 16.2389679 43.41790771 C16.23827706 46.1015497 16.23052389 48.7851203 16.22265625 51.46875 C16.22078912 53.34061648 16.21936661 55.21248344 16.21836853 57.08435059 C16.21456659 61.98992279 16.20475632 66.89546497 16.19366455 71.80102539 C16.1834003 76.8152628 16.1788602 81.8295051 16.17382812 86.84375 C16.1631318 96.66668192 16.145554 106.48958376 16.125 116.3125 C5.565 116.3125 -4.995 116.3125 -15.875 116.3125 C-15.8843457 113.91637451 -15.89369141 111.52024902 -15.90332031 109.05151367 C-15.93721298 101.10057791 -15.99282968 93.14989834 -16.05890274 85.19916821 C-16.0982727 80.38252158 -16.13051232 75.56605491 -16.14599609 70.74926758 C-16.16123207 66.09357028 -16.19579947 61.43836806 -16.24330902 56.78289223 C-16.25805163 55.01410559 -16.26603689 53.24524825 -16.26688385 51.47640038 C-15.98549461 35.95812341 -15.98549461 35.95812341 -22.55108643 22.33171082 C-27.77985478 17.27773205 -33.60044812 16.22844632 -40.6875 15.875 C-48.56060305 16.03265913 -54.83335341 18.81891927 -60.3125 24.5 C-67.14498852 33.86221554 -66.34603463 45.29421252 -66.38671875 56.3515625 C-66.40359039 58.08606212 -66.42174392 59.8205497 -66.44111633 61.55502319 C-66.48835297 66.08897131 -66.51833188 70.62287059 -66.54455566 75.15698242 C-66.57449504 79.79615927 -66.62097897 84.43516825 -66.66601562 89.07421875 C-66.75174875 98.15357669 -66.8176946 107.23291809 -66.875 116.3125 C-77.435 116.3125 -87.995 116.3125 -98.875 116.3125 C-98.875 76.7125 -98.875 37.1125 -98.875 -3.6875 C-88.315 -3.6875 -77.755 -3.6875 -66.875 -3.6875 C-66.38 3.2425 -66.38 3.2425 -65.875 10.3125 C-64.0496875 8.5490625 -64.0496875 8.5490625 -62.1875 6.75 C-44.95187869 -8.55544921 -20.13358873 -12.14782917 0 0 Z " fill="#0F0601" transform="translate(627.875,441.6875)"/>
<path d="M0 0 C-1.48362284 6.26418531 -5.24162156 10.91513505 -9 16 C-10.03833984 15.45859375 -10.03833984 15.45859375 -11.09765625 14.90625 C-19.3367167 10.99839524 -26.91086338 9.72730876 -36 11 C-39.52414945 12.68142498 -40.80947179 13.71420769 -43 17 C-43.55243191 22.5005677 -43.55243191 22.5005677 -41.5 27.375 C-41.005 27.91125 -40.51 28.4475 -40 29 C-40 29.66 -40 30.32 -40 31 C-39.45214844 31.2371875 -38.90429688 31.474375 -38.33984375 31.71875 C-35.40914918 33.32353768 -33.09948817 35.32445519 -30.5625 37.5 C-26.77748204 40.72170474 -22.94789602 43.83688048 -18.97045898 46.81835938 C-0.0687948 61.0022617 -0.0687948 61.0022617 3 72 C4.41857496 83.31342836 2.93424845 93.17883036 -3.91015625 102.640625 C-11.33113957 111.0187071 -23.03311592 115.82863721 -34 117 C-52.5476216 117.922576 -66.5823283 114.57344857 -82 104 C-80.47146065 99.72813475 -78.28490519 96.00673137 -75.875 92.1875 C-75.50246094 91.59001953 -75.12992187 90.99253906 -74.74609375 90.37695312 C-73.8342952 88.91573749 -72.91764024 87.45755415 -72 86 C-71.26394531 86.47050781 -70.52789062 86.94101562 -69.76953125 87.42578125 C-68.79371094 88.04839844 -67.81789063 88.67101562 -66.8125 89.3125 C-65.84957031 89.92738281 -64.88664062 90.54226563 -63.89453125 91.17578125 C-62.93933594 91.77777344 -61.98414062 92.37976563 -61 93 C-60.15824219 93.55042969 -59.31648438 94.10085938 -58.44921875 94.66796875 C-52.81615781 97.7315633 -46.25866362 97.5146625 -40 97 C-35.75107147 95.48252552 -33.31027127 93.89098319 -31 90 C-29.42074011 85.26222033 -29.17403728 80.86928405 -31.1875 76.3125 C-35.59448734 70.68979202 -40.981934 66.56110013 -46.625 62.25 C-48.23747467 61.001942 -49.84945499 59.75324505 -51.4609375 58.50390625 C-53.57388697 56.86997949 -55.68757325 55.23764286 -57.81347656 53.62060547 C-66.07801713 47.33017572 -72.1482409 41.20296034 -75 31 C-76.25153914 21.05989106 -74.79650421 13.22960474 -69 5 C-51.01859694 -15.54055406 -21.77946014 -11.38549486 0 0 Z " fill="#100702" transform="translate(184,444)"/>
<path d="M0 0 C10.56 0 21.12 0 32 0 C32 58.08 32 116.16 32 176 C21.44 176 10.88 176 0 176 C0 117.92 0 59.84 0 0 Z " fill="#100602" transform="translate(340,382)"/>
<path d="M0 0 C10.13415061 10.69715897 12.85617396 24.15680188 12.72485352 38.41845703 C12.32090641 50.85913276 9.83369414 65.27564311 1.10546875 74.6875 C-6.06927799 81.35061471 -11.38740199 82.92008542 -21.171875 82.74609375 C-28.45352563 81.99090073 -33.641698 78.8927611 -38.625 73.625 C-41.89205098 69.55079525 -43.94865703 65.2513628 -45.75 60.375 C-46.141875 59.34375 -46.53375 58.3125 -46.9375 57.25 C-50.91141296 43.18846184 -49.97989661 25.42266656 -44.0625 12.0625 C-39.35051172 3.73141807 -33.0355486 -2.50844734 -23.7734375 -5.19921875 C-14.91207291 -7.06386883 -7.63157567 -4.50956744 0 0 Z " fill="#FDFCFC" transform="translate(280.75,459.625)"/>
<path d="M0 0 C3.6970276 1.23234253 6.75417983 2.25209577 10.13827515 3.94888306 C10.903797 4.33026932 11.66931885 4.71165558 12.45803833 5.104599 C13.68803055 5.72498802 13.68803055 5.72498802 14.94287109 6.35791016 C15.8215686 6.79711288 16.70026611 7.23631561 17.60559082 7.68882751 C20.49678656 9.1351196 23.38511052 10.58705099 26.2734375 12.0390625 C28.28250942 13.04546438 30.29175878 14.05151214 32.30117798 15.05722046 C37.58008562 17.70048573 42.8565727 20.34854784 48.13256836 22.99761963 C53.52051762 25.7018379 58.91074468 28.40150775 64.30078125 31.1015625 C74.86942169 36.39659583 85.43529533 41.69711834 96 47 C96 53.6 96 60.2 96 67 C78.85601585 76.15473715 61.49354167 84.86380587 44.11523438 93.5625 C39.80977325 95.71801453 35.50809993 97.88098345 31.20716858 100.04551888 C27.87555361 101.72060363 24.54129443 103.3903696 21.20626831 105.05865097 C19.61681808 105.85488825 18.0283674 106.65312412 16.44094849 107.45340347 C14.2407507 108.56198667 12.03693222 109.66301501 9.83203125 110.76220703 C9.18071228 111.09247391 8.52939331 111.42274078 7.8583374 111.76301575 C5.02739735 113.16533244 3.20628452 114 0 114 C0 107.07 0 100.14 0 93 C6.74600892 89.61557592 13.49293542 86.23299299 20.2413702 82.85340881 C23.3768727 81.28307827 26.51200933 79.71202735 29.64624023 78.13916016 C53.60587234 66.1166928 53.60587234 66.1166928 64.12890625 61.125 C64.81516586 60.79717529 65.50142548 60.46935059 66.20848083 60.1315918 C70.75579478 58 70.75579478 58 73 58 C73 57.34 73 56.68 73 56 C71.98268799 55.85860596 71.98268799 55.85860596 70.94482422 55.71435547 C67.31037459 54.83271067 64.18653698 53.26995817 60.8828125 51.5703125 C60.1970665 51.22397263 59.5113205 50.87763275 58.80479431 50.52079773 C57.33659376 49.77868322 55.86972578 49.03392746 54.40408325 48.28677368 C50.56841851 46.33152507 46.72343458 44.39477781 42.87890625 42.45703125 C42.11607834 42.07199936 41.35325043 41.68696747 40.56730652 41.29026794 C33.24074064 37.60011917 25.85124627 34.05244027 18.42041016 30.57666016 C12.14081969 27.61947507 6.07175582 24.36454151 0 21 C0 14.07 0 7.14 0 0 Z " fill="#77B33B" transform="translate(802,440)"/>
<path d="M0 0 C3.12068856 1.79273598 4.54965052 3.24259405 6.375 6.3125 C7.21219504 9.91243865 6.89539601 12.41841597 6 16 C4.17660948 18.70567626 2.92542564 20.53728718 0 22 C-4.22798606 22.66917765 -8.27995833 23.10622288 -11.9921875 20.71875 C-14.81015191 17.75247168 -16.37823498 15.05310378 -16.6875 10.9375 C-15.82510096 5.99830551 -14.53838305 4.45413584 -11 1 C-7.53472176 -0.73263912 -3.78892972 -0.4719774 0 0 Z " fill="#BDBBB9" transform="translate(816,408)"/>
<path d="M0 0 C6.15234375 -0.09765625 6.15234375 -0.09765625 8 0 C9 1 9 1 9.0625 3.375 C9.041875 4.24125 9.02125 5.1075 9 6 C9 6.99 9 7.98 9 9 C9 9.66 9 10.32 9 11 C7.68 10.34 6.36 9.68 5 9 C5 8.34 5 7.68 5 7 C4.01 7 3.02 7 2 7 C2 8.65 2 10.3 2 12 C1.34 12 0.68 12 0 12 C0 8.04 0 4.08 0 0 Z " fill="#251D18" transform="translate(807,413)"/>
<path d="M0 0 C0 1.65 0 3.3 0 5 C-2.6666419 6.33332095 -4.16680303 5.67102033 -7 5 C-7 3.35 -7 1.7 -7 0 C-3.98968256 -0.93423645 -3.13349732 -1.04449911 0 0 Z " fill="#8B8684" transform="translate(816,414)"/>
</svg>
