<?xml version="1.0" encoding="utf-8"?>
<!-- Generator: Adobe Illustrator 21.1.0, SVG Export Plug-In . SVG Version: 6.00 Build 0)  -->
<svg version="1.1" id="Layer_1" xmlns="http://www.w3.org/2000/svg" xmlns:xlink="http://www.w3.org/1999/xlink" x="0px" y="0px"
	 viewBox="0 0 110 34" style="enable-background:new 0 0 110 34;" xml:space="preserve">
<style type="text/css">
	.st0{fill:#706259;}
	.st1{fill:#C4E86B;}
</style>
<g>
	<path class="st0" d="M44.4,14.5c0.8,0,1.4,0.1,2,0.4c0.6,0.2,1.1,0.6,1.6,1c0.4,0.4,0.8,0.9,1,1.5c0.2,0.6,0.3,1.2,0.3,1.8
		c0,1-0.2,1.9-0.6,2.6c-0.4,0.7-1.1,1.3-2.1,1.7v0c0.5,0.1,0.8,0.3,1.1,0.6c0.3,0.3,0.5,0.6,0.7,0.9c0.2,0.4,0.3,0.7,0.4,1.2
		c0.1,0.4,0.1,0.9,0.2,1.3c0,0.3,0,0.6,0,0.9c0,0.4,0,0.7,0.1,1.1c0,0.4,0.1,0.7,0.2,1.1c0.1,0.3,0.2,0.6,0.4,0.9h-3.7
		c-0.2-0.5-0.3-1.2-0.4-1.9c0-0.7-0.1-1.5-0.2-2.1c-0.1-0.9-0.4-1.5-0.8-1.9c-0.4-0.4-1.1-0.6-2-0.6H39v6.6h-3.7V14.5H44.4z
		 M43,22.1c0.8,0,1.5-0.2,1.9-0.6c0.4-0.4,0.6-1,0.6-1.9c0-0.8-0.2-1.4-0.6-1.8c-0.4-0.4-1.1-0.6-1.9-0.6H39v4.8H43z"/>
	<path class="st0" d="M51.9,20.9c0.3-0.5,0.8-0.9,1.3-1.2s1.1-0.5,1.8-0.7c0.7-0.1,1.3-0.2,2-0.2c0.6,0,1.2,0,1.9,0.1
		c0.6,0.1,1.2,0.3,1.7,0.5c0.5,0.3,0.9,0.6,1.3,1.1c0.3,0.5,0.5,1,0.5,1.8v6.4c0,0.6,0,1.1,0.1,1.6c0.1,0.5,0.2,0.9,0.3,1.1l-3.4,0
		c-0.1-0.2-0.1-0.4-0.2-0.6c0-0.2-0.1-0.4-0.1-0.6c-0.5,0.6-1.2,0.9-1.9,1.2c-0.7,0.2-1.5,0.3-2.2,0.3c-0.6,0-1.1-0.1-1.6-0.2
		c-0.5-0.1-0.9-0.4-1.3-0.7c-0.4-0.3-0.7-0.7-0.9-1.1c-0.2-0.5-0.3-1-0.3-1.6c0-0.7,0.1-1.3,0.4-1.7c0.2-0.4,0.6-0.8,0.9-1.1
		c0.4-0.3,0.8-0.5,1.3-0.6c0.5-0.1,1-0.2,1.5-0.3c0.5-0.1,1-0.1,1.5-0.2c0.5,0,0.9-0.1,1.3-0.2c0.4-0.1,0.7-0.2,0.9-0.4
		c0.2-0.2,0.3-0.4,0.3-0.8c0-0.4-0.1-0.7-0.2-0.9c-0.1-0.2-0.3-0.4-0.5-0.5c-0.2-0.1-0.4-0.2-0.7-0.2c-0.3,0-0.5-0.1-0.8-0.1
		c-0.7,0-1.2,0.1-1.6,0.4c-0.4,0.3-0.6,0.7-0.7,1.4h-3.3C51.4,22.1,51.6,21.4,51.9,20.9 M58.5,25.7c-0.2,0.1-0.4,0.1-0.7,0.2
		c-0.2,0-0.5,0.1-0.8,0.1c-0.3,0-0.5,0.1-0.8,0.1c-0.3,0-0.5,0.1-0.7,0.2c-0.2,0.1-0.5,0.2-0.6,0.3c-0.2,0.1-0.3,0.3-0.4,0.5
		c-0.1,0.2-0.2,0.5-0.2,0.8c0,0.3,0.1,0.6,0.2,0.8c0.1,0.2,0.3,0.4,0.4,0.5c0.2,0.1,0.4,0.2,0.7,0.2c0.3,0,0.5,0.1,0.8,0.1
		c0.7,0,1.2-0.1,1.5-0.3c0.4-0.2,0.6-0.5,0.8-0.8c0.2-0.3,0.3-0.6,0.3-0.9s0.1-0.6,0.1-0.8v-1.3C58.9,25.5,58.7,25.6,58.5,25.7"/>
	<path class="st0" d="M73.1,29.8c-0.4,0.7-0.9,1.1-1.6,1.4c-0.6,0.3-1.4,0.4-2.2,0.4c-0.9,0-1.7-0.2-2.4-0.5
		c-0.7-0.4-1.3-0.8-1.7-1.4c-0.5-0.6-0.8-1.3-1-2.1c-0.2-0.8-0.3-1.6-0.3-2.5c0-0.8,0.1-1.6,0.3-2.4c0.2-0.8,0.6-1.4,1-2
		s1-1.1,1.7-1.4c0.7-0.4,1.5-0.5,2.4-0.5c0.7,0,1.4,0.2,2.1,0.5c0.7,0.3,1.2,0.8,1.5,1.4h0v-6.2h3.4v16.9h-3.2L73.1,29.8L73.1,29.8z
		 M72.9,23.8c-0.1-0.5-0.3-0.9-0.5-1.2c-0.2-0.4-0.5-0.6-0.9-0.9c-0.4-0.2-0.8-0.3-1.4-0.3s-1,0.1-1.4,0.3c-0.4,0.2-0.7,0.5-0.9,0.9
		c-0.2,0.4-0.4,0.8-0.5,1.2c-0.1,0.5-0.2,0.9-0.2,1.5c0,0.5,0.1,0.9,0.2,1.4c0.1,0.5,0.3,0.9,0.5,1.3c0.2,0.4,0.6,0.7,0.9,0.9
		c0.4,0.2,0.8,0.3,1.3,0.3c0.6,0,1-0.1,1.4-0.3c0.4-0.2,0.7-0.5,0.9-0.9c0.2-0.4,0.4-0.8,0.5-1.3c0.1-0.5,0.1-1,0.1-1.5
		C73.1,24.7,73,24.2,72.9,23.8"/>
	<path class="st0" d="M78.8,20.9c0.3-0.5,0.8-0.9,1.3-1.2c0.5-0.3,1.1-0.5,1.8-0.7c0.7-0.1,1.3-0.2,2-0.2c0.6,0,1.2,0,1.9,0.1
		c0.6,0.1,1.2,0.3,1.7,0.5c0.5,0.3,0.9,0.6,1.3,1.1c0.3,0.5,0.5,1,0.5,1.8v6.4c0,0.6,0,1.1,0.1,1.6c0.1,0.5,0.2,0.9,0.3,1.1l-3.4,0
		c-0.1-0.2-0.1-0.4-0.2-0.6c0-0.2-0.1-0.4-0.1-0.6c-0.5,0.6-1.2,0.9-1.9,1.2c-0.7,0.2-1.5,0.3-2.2,0.3c-0.6,0-1.1-0.1-1.6-0.2
		c-0.5-0.1-0.9-0.4-1.3-0.7c-0.4-0.3-0.7-0.7-0.9-1.1s-0.3-1-0.3-1.6c0-0.7,0.1-1.3,0.4-1.7c0.2-0.4,0.6-0.8,0.9-1.1
		c0.4-0.3,0.8-0.5,1.3-0.6c0.5-0.1,1-0.2,1.5-0.3c0.5-0.1,1-0.1,1.5-0.2c0.5,0,0.9-0.1,1.3-0.2c0.4-0.1,0.7-0.2,0.9-0.4
		c0.2-0.2,0.3-0.4,0.3-0.8c0-0.4-0.1-0.7-0.2-0.9c-0.1-0.2-0.3-0.4-0.5-0.5c-0.2-0.1-0.4-0.2-0.7-0.2c-0.3,0-0.5-0.1-0.8-0.1
		c-0.7,0-1.2,0.1-1.6,0.4c-0.4,0.3-0.6,0.7-0.7,1.4h-3.3C78.2,22.1,78.4,21.4,78.8,20.9 M85.4,25.7c-0.2,0.1-0.4,0.1-0.7,0.2
		c-0.2,0-0.5,0.1-0.8,0.1c-0.3,0-0.5,0.1-0.8,0.1c-0.3,0-0.5,0.1-0.7,0.2c-0.2,0.1-0.5,0.2-0.6,0.3c-0.2,0.1-0.3,0.3-0.4,0.5
		c-0.1,0.2-0.2,0.5-0.2,0.8c0,0.3,0.1,0.6,0.2,0.8c0.1,0.2,0.3,0.4,0.4,0.5c0.2,0.1,0.4,0.2,0.7,0.2c0.3,0,0.5,0.1,0.8,0.1
		c0.7,0,1.2-0.1,1.5-0.3c0.4-0.2,0.6-0.5,0.8-0.8c0.2-0.3,0.3-0.6,0.3-0.9c0-0.3,0.1-0.6,0.1-0.8v-1.3
		C85.8,25.5,85.6,25.6,85.4,25.7"/>
	<path class="st0" d="M94.5,19.2v2.3h0c0.2-0.4,0.4-0.7,0.6-1.1c0.3-0.3,0.6-0.6,0.9-0.8c0.3-0.2,0.7-0.4,1.1-0.5
		c0.4-0.1,0.8-0.2,1.2-0.2c0.2,0,0.5,0,0.7,0.1v3.1c-0.2,0-0.3-0.1-0.6-0.1c-0.2,0-0.4,0-0.6,0c-0.6,0-1.1,0.1-1.6,0.3
		c-0.4,0.2-0.8,0.5-1,0.8c-0.3,0.4-0.4,0.8-0.6,1.2c-0.1,0.5-0.2,1-0.2,1.5v5.5h-3.4V19.2H94.5z"/>
	<path class="st1" d="M25.7,28.5c3.5-2.6,5.7-6.8,5.7-11.5c0-8-6.5-14.5-14.5-14.5C9,2.5,2.5,9,2.5,17c0,7.8,6.2,14.2,14,14.4v0
		h14.9v-2.9H25.7z M5.6,17c0-6.3,5.1-11.4,11.4-11.4c6.3,0,11.4,5.1,11.4,11.4c0,6.3-5.1,11.4-11.4,11.4C10.7,28.4,5.6,23.3,5.6,17"
		/>
	<path class="st1" d="M23.8,10c-1.8-1.8-4.1-2.8-6.7-2.8c-2.5,0-4.9,1-6.7,2.8c-3.7,3.7-3.7,9.8,0,13.6l0.2-0.2
		c-0.4-0.4-2.3-2.7-2.3-6.6c0-4.1,3-7.4,7.7-7.8c0.3,0,0.7-0.1,1-0.1c2.1,0,4,0.8,5.5,2.3c3,3.1,3,8.2,0,11.3l1.2,1.1
		C27.5,19.8,27.5,13.7,23.8,10"/>
	<path class="st1" d="M21.8,12c-1.2-1.3-2.9-2-4.6-2c-1.8,0-3.4,0.7-4.6,2c-2.5,2.6-2.5,6.8,0,9.4l0.3-0.3c-1-1.1-1.5-2.6-1.5-4.1
		c0-3.1,2.4-5.6,5.5-5.6c3.4,0,5.7,2.6,5.5,5.6c-0.1,1-0.6,2.2-1.5,3.2l1.1,1.1C24.3,18.9,24.3,14.6,21.8,12"/>
	<path class="st1" d="M19.8,14.1c-0.7-0.7-1.6-1.1-2.6-1.1c-1,0-1.9,0.4-2.6,1.1c-1.4,1.4-1.4,3.8,0,5.2l0.3-0.3
		c-0.5-0.5-0.9-1.3-0.9-2.2c0-1.6,1.2-2.9,2.6-2.9c1.2,0,2.2,0.9,2.5,2c0.1,0.2,0.1,0.3,0.1,0.5c0,0.1,0,0.2,0,0.3
		c0,0.6-0.1,1.1-0.4,1.5l0.9,0.9C21.2,17.9,21.2,15.6,19.8,14.1"/>
	<path class="st0" d="M105.2,17v-2.6h1.1c0.2,0,0.4,0,0.5,0.1c0.1,0,0.2,0.1,0.3,0.2c0.1,0.1,0.1,0.2,0.1,0.4c0,0.2-0.1,0.3-0.2,0.5
		c-0.1,0.1-0.3,0.2-0.5,0.2c0.1,0,0.2,0.1,0.2,0.1c0.1,0.1,0.2,0.2,0.3,0.3l0.4,0.7H107l-0.3-0.5c-0.1-0.2-0.2-0.3-0.2-0.4
		c-0.1-0.1-0.1-0.1-0.2-0.2c-0.1,0-0.1-0.1-0.2-0.1c0,0-0.1,0-0.2,0h-0.4V17H105.2z M105.5,15.6h0.7c0.2,0,0.3,0,0.4,0
		c0.1,0,0.2-0.1,0.2-0.2c0-0.1,0.1-0.1,0.1-0.2c0-0.1,0-0.2-0.1-0.3c-0.1-0.1-0.2-0.1-0.4-0.1h-0.8V15.6z"/>
	<path class="st0" d="M106.1,18.3c-1.4,0-2.5-1.1-2.5-2.5s1.1-2.5,2.5-2.5c1.4,0,2.5,1.1,2.5,2.5S107.5,18.3,106.1,18.3 M106.1,13.5
		c-1.2,0-2.2,1-2.2,2.2c0,1.2,1,2.2,2.2,2.2c1.2,0,2.2-1,2.2-2.2C108.4,14.5,107.3,13.5,106.1,13.5"/>
</g>
</svg>
