<svg width="32" height="32" xmlns="http://www.w3.org/2000/svg">
 <g id="Layer_1">
  <title>Layer 1</title>
  <g stroke="null">
   <g stroke="null" fill="#00546B">
    <path stroke="null" d="m18.00015,14.96458c-0.86395,-0.02096 -1.53352,0.06316 -2.0951,0.29429c-0.16199,0.06303 -0.4212,0.06309 -0.44281,0.2627c0.08645,0.08412 0.09722,0.22072 0.17283,0.33628c0.12968,0.2101 0.35637,0.4939 0.56158,0.64104c0.22676,0.16811 0.45358,0.33621 0.69112,0.48335c0.4212,0.25223 0.8964,0.3993 1.30676,0.65153c0.23767,0.14701 0.47513,0.33627 0.71273,0.4939c0.11884,0.08398 0.19438,0.22064 0.34559,0.27318l0,-0.03151c-0.07561,-0.0946 -0.09722,-0.23119 -0.17276,-0.33628c-0.10793,-0.10508 -0.21599,-0.19968 -0.32398,-0.30476c-0.31321,-0.40978 -0.70196,-0.76709 -1.12316,-1.0613c-0.34552,-0.2312 -1.10155,-0.54644 -1.24193,-0.93526c0,0 -0.01084,-0.01048 -0.02161,-0.02096c0.2376,-0.02103 0.51835,-0.10509 0.74518,-0.16817c0.3672,-0.0946 0.70196,-0.07357 1.07993,-0.1681c0.17276,-0.04206 0.3456,-0.0946 0.51836,-0.14714l0,-0.09453c-0.19431,-0.1892 -0.33475,-0.44136 -0.53997,-0.62001c-0.55074,-0.46245 -1.15555,-0.91423 -1.78189,-1.2925c-0.33482,-0.21016 -0.7668,-0.34682 -1.12316,-0.52541c-0.12954,-0.06316 -0.34559,-0.0946 -0.42113,-0.19969c-0.19444,-0.23119 -0.30243,-0.53589 -0.44281,-0.80915c-0.31307,-0.57801 -0.61558,-1.21893 -0.88556,-1.82839c-0.19431,-0.40985 -0.31314,-0.8197 -0.55074,-1.19796c-1.11232,-1.7864 -2.32186,-2.86874 -4.17936,-3.93011c-0.39959,-0.22064 -0.87472,-0.31524 -1.38231,-0.43081c-0.26992,-0.01055 -0.53996,-0.03151 -0.80995,-0.04206c-0.17276,-0.07357 -0.34559,-0.27319 -0.49681,-0.36779c-0.61544,-0.37833 -2.20303,-1.1979 -2.65661,-0.11557c-0.2916,0.68304 0.43197,1.35552 0.68034,1.70235c0.18367,0.24167 0.4212,0.51486 0.55081,0.78812c0.07561,0.17852 0.09715,0.36779 0.17276,0.55692c0.17283,0.46226 0.33475,0.97725 0.56158,1.40813c0.11884,0.22064 0.24837,0.45184 0.39959,0.65145c0.08638,0.11557 0.23753,0.16817 0.26998,0.35731c-0.15115,0.21016 -0.16199,0.52541 -0.24844,0.78812c-0.38875,1.18742 -0.23753,2.65857 0.31321,3.53074c0.17276,0.26264 0.58319,0.84072 1.13394,0.62001c0.48597,-0.18914 0.37798,-0.78812 0.51835,-1.31353c0.03246,-0.12618 0.01084,-0.21017 0.07561,-0.29422c0.00006,0.01048 0,0.02103 0,0.02103c0.15122,0.29422 0.30237,0.57796 0.44275,0.87217c0.33482,0.51486 0.91794,1.05082 1.40391,1.40813c0.25928,0.18907 0.46443,0.51486 0.78841,0.6305l0,-0.03158l-0.02161,0c-0.06484,-0.09461 -0.16199,-0.1366 -0.24837,-0.21017c-0.19438,-0.18914 -0.41043,-0.42034 -0.56158,-0.6305c-0.45352,-0.5885 -0.85318,-1.23996 -1.20954,-1.91251c-0.17276,-0.32573 -0.32398,-0.68303 -0.46436,-1.00877c-0.06484,-0.12618 -0.06484,-0.31524 -0.17283,-0.37827c-0.16199,0.23112 -0.39952,0.43081 -0.51836,0.71454c-0.20508,0.45184 -0.22676,1.00877 -0.30237,1.58672c-0.04316,0.01055 -0.02161,0 -0.04323,0.02103c-0.34552,-0.08412 -0.46436,-0.43081 -0.59397,-0.72509c-0.32398,-0.74606 -0.37797,-1.94403 -0.09715,-2.80564c0.07561,-0.22071 0.39959,-0.91423 0.26998,-1.1244c-0.06477,-0.19969 -0.28083,-0.31524 -0.39959,-0.47287c-0.14038,-0.19968 -0.2916,-0.45184 -0.38875,-0.67255c-0.25921,-0.58844 -0.38882,-1.23996 -0.66958,-1.82846c-0.1296,-0.27325 -0.35636,-0.55692 -0.53996,-0.80908c-0.20515,-0.28374 -0.43197,-0.48342 -0.59397,-0.8197c-0.05393,-0.11557 -0.12961,-0.3047 -0.04323,-0.43081c0.02162,-0.08405 0.06477,-0.11557 0.15122,-0.13659c0.14038,-0.11563 0.53997,0.03151 0.68035,0.09453c0.39959,0.15756 0.73434,0.30477 1.06916,0.52541c0.15115,0.10508 0.31314,0.30476 0.50751,0.35731l0.22683,0c0.34559,0.0735 0.73435,0.02103 1.05832,0.11556c0.57242,0.17859 1.0907,0.44136 1.55514,0.72509c1.41475,0.87217 2.581,2.1122 3.36942,3.59383c0.1296,0.24161 0.18353,0.46239 0.30237,0.71455c0.22683,0.51493 0.50758,1.04034 0.73435,1.54472c0.22676,0.49384 0.44274,0.99828 0.76672,1.40813c0.16206,0.22058 0.80996,0.33621 1.10155,0.45184c0.21598,0.09453 0.55081,0.17865 0.74518,0.29422c0.36714,0.22058 0.73435,0.47287 1.07994,0.71455c0.17283,0.12605 0.71273,0.38882 0.74519,0.59892l0,0z"/>
    <path stroke="null" d="m6.98469,5.83289c-0.1836,0 -0.31314,0.0211 -0.44274,0.05261c0,-0.00005 0,0.01055 0,0.02103l0.02161,0c0.08645,0.16811 0.23753,0.28374 0.34552,0.43081c0.08645,0.16811 0.16199,0.33628 0.24844,0.50445c0.01077,-0.01055 0.02154,-0.02103 0.02154,-0.02103c0.15129,-0.10515 0.22683,-0.27325 0.22683,-0.52541c-0.06484,-0.07357 -0.07561,-0.14714 -0.12961,-0.22071c-0.06477,-0.10515 -0.20522,-0.15763 -0.2916,-0.24175z"/>
   </g>
  </g>
  <g stroke="null">
   <path stroke="null" d="m23.55484,23.17677c-0.41592,0.42026 -0.41592,1.10168 0,1.52194s1.09031,0.42026 1.50624,0s0.41592,-1.10168 0,-1.52194s-1.09031,-0.42026 -1.50624,0zm1.12596,1.1387c-0.20597,0.20813 -0.53971,0.20813 -0.74569,0c-0.20597,-0.20813 -0.20597,-0.54533 0,-0.75346c0.20598,-0.20813 0.53971,-0.20813 0.74569,0c0.20599,0.20713 0.20599,0.54533 0,0.75346zm0.36245,-6.43397l-0.6526,0.65941c-0.12774,0.12908 -0.12774,0.34121 0,0.47029l2.54802,2.57458c0.12774,0.12909 0.33768,0.12909 0.46544,0l0.6526,-0.6594c0.12775,-0.12908 0.12775,-0.34121 0,-0.47029l-2.54901,-2.57459c-0.12775,-0.12908 -0.3367,-0.12908 -0.46445,0l0,0zm-4.57218,8.4262c0.11586,-0.11707 0.11586,-0.30819 0,-0.42526l-0.33175,-0.33521c-0.11586,-0.11708 -0.30501,-0.11708 -0.42088,0l-0.68529,0.69242l-0.00099,0.00101l-0.18815,-0.19012c-0.10398,-0.10506 -0.27333,-0.10506 -0.37632,0c-0.10398,0.10506 -0.10398,0.27617 0,0.38024l1.12893,1.14071c0.10398,0.10506 0.27332,0.10506 0.37632,0s0.10397,-0.27617 0,-0.38024l-0.18816,-0.19012l0.001,-0.001l0.68528,-0.69243z" fill="#f5a800"/>
   <path stroke="null" d="m23.92323,19.77467l-1.44979,1.4649c-0.12873,0.13008 -0.12873,0.34421 0,0.47429l0.89523,0.90456c0.6328,-0.46028 1.5201,-0.40325 2.08952,0.17211l0.72489,-0.73245c0.12873,-0.13008 0.12873,-0.34422 0,-0.47429l-1.79044,-1.80912c-0.12874,-0.13108 -0.34067,-0.13108 -0.4694,0l0,0zm-0.93087,3.22499l-0.52882,-0.53433c-0.12379,-0.12507 -0.32679,-0.12507 -0.45058,0l-1.86472,1.88517c-0.12378,0.12508 -0.12378,0.33021 0,0.45528l1.05665,1.06766c0.12378,0.12508 0.3268,0.12508 0.45058,0l1.19925,-1.21375c-0.25351,-0.52932 -0.20796,-1.16872 0.13765,-1.66002l0,0z" fill="#425cc7"/>
  </g>
 </g>

</svg>