<?xml version="1.0" encoding="UTF-8"?> <!-- Generator: Adobe Illustrator 25.0.1, SVG Export Plug-In . SVG Version: 6.00 Build 0) --> <svg xmlns="http://www.w3.org/2000/svg" xmlns:xlink="http://www.w3.org/1999/xlink" version="1.1" id="Layer_1" x="0px" y="0px" viewBox="0 0 300 70" style="enable-background:new 0 0 300 70;" xml:space="preserve"> <style type="text/css"> .st0{fill:#19222C;} .st1{fill:#5FBB46;} .st2{fill:#666666;} </style> <g> <path class="st0" d="M26.791,53.129l-5.856,5.856c-0.065,0.063-0.136,0.117-0.213,0.149c-0.072,0.03-0.158,0.042-0.25,0.042 c-0.107,0-0.18-0.012-0.263-0.042c-0.077-0.032-0.149-0.086-0.213-0.149L4.852,43.841l-4.645,4.645l15.148,15.155 c0.651,0.644,1.43,1.169,2.297,1.536c0.869,0.371,1.83,0.569,2.82,0.569c0.988,0,1.947-0.198,2.812-0.569 c0.864-0.368,1.641-0.892,2.297-1.536l5.856-5.866l-1.641-1.643L26.791,53.129z"></path> <path class="st0" d="M160.512,39.259c0.931,0.339,1.905,0.635,2.92,0.887c1.017,0.254,2.259,0.381,3.727,0.381 c2.315,0,4.043-0.471,5.187-1.417c1.141-0.945,1.713-2.222,1.713-3.83c0-0.791-0.117-1.468-0.361-2.035 c-0.236-0.562-0.598-1.05-1.076-1.463c-0.479-0.406-1.081-0.78-1.799-1.118c-0.721-0.338-1.56-0.708-2.523-1.102l-2.411-0.973 c-0.82-0.339-1.567-0.714-2.246-1.127c-0.679-0.406-1.261-0.906-1.757-1.5c-0.493-0.591-0.88-1.277-1.164-2.052 c-0.28-0.773-0.423-1.699-0.423-2.773c0-2.568,0.875-4.579,2.624-6.034c1.751-1.452,4.204-2.177,7.368-2.177 c1.356,0,2.638,0.11,3.853,0.339c1.216,0.222,2.285,0.506,3.219,0.842c-0.145,1.19-0.451,2.362-0.934,3.515 c-0.759-0.283-1.641-0.534-2.647-0.759c-0.999-0.227-2.135-0.339-3.407-0.339c-1.776,0-3.148,0.361-4.106,1.078 c-0.959,0.719-1.438,1.8-1.438,3.242c0,0.591,0.117,1.118,0.357,1.587c0.241,0.462,0.56,0.873,0.955,1.226 c0.395,0.352,0.859,0.668,1.398,0.95c0.534,0.283,1.101,0.537,1.69,0.764l2.374,0.931c1.127,0.45,2.131,0.925,3.006,1.421 c0.873,0.491,1.62,1.071,2.243,1.732c0.619,0.663,1.092,1.45,1.419,2.351c0.318,0.903,0.485,1.961,0.485,3.177 c0,2.906-0.999,5.196-3.004,6.878c-2.007,1.68-4.811,2.517-8.426,2.517c-0.876,0-1.664-0.026-2.371-0.082 c-0.705-0.059-1.365-0.142-1.972-0.256c-0.604-0.112-1.19-0.254-1.753-0.422c-0.565-0.171-1.142-0.355-1.737-0.553 c0.058-0.618,0.182-1.253,0.38-1.904C160.075,40.517,160.286,39.882,160.512,39.259"></path> <path class="st0" d="M186.199,30.919c0.2-1.863,0.754-3.316,1.671-4.362c0.917-1.045,2.231-1.564,3.954-1.564 c0.878,0,1.629,0.163,2.271,0.49c0.633,0.32,1.153,0.75,1.564,1.289c0.408,0.534,0.721,1.162,0.929,1.882 c0.212,0.717,0.313,1.475,0.313,2.264H186.199z M200.461,27.679c-0.395-1.226-0.973-2.283-1.732-3.177 c-0.764-0.889-1.711-1.587-2.843-2.092c-1.125-0.506-2.437-0.763-3.935-0.763c-1.75,0-3.266,0.303-4.552,0.91 c-1.282,0.607-2.35,1.43-3.195,2.456c-0.845,1.032-1.475,2.243-1.882,3.643c-0.408,1.396-0.614,2.897-0.614,4.505 c0,1.639,0.21,3.141,0.634,4.51c0.425,1.37,1.097,2.554,2.01,3.557c0.917,0.999,2.082,1.774,3.492,2.33 c1.412,0.547,3.105,0.822,5.081,0.822c1.358,0,2.593-0.098,3.705-0.297c1.116-0.196,2.138-0.493,3.07-0.887 c-0.028-0.591-0.114-1.191-0.254-1.802c-0.144-0.603-0.327-1.12-0.551-1.543c-1.806,0.708-3.714,1.06-5.714,1.06 c-2.283,0-4.017-0.555-5.186-1.652c-1.174-1.102-1.788-2.838-1.846-5.205h14.782c0.026-0.313,0.051-0.688,0.08-1.125 c0.026-0.437,0.044-0.852,0.044-1.246C201.056,30.24,200.857,28.905,200.461,27.679"></path> <path class="st0" d="M220.047,40.104c0.226,0.394,0.422,0.891,0.593,1.484c0.17,0.593,0.266,1.2,0.294,1.819 c-1.662,0.646-3.571,0.973-5.716,0.973c-3.609,0-6.335-1.022-8.167-3.067c-1.837-2.05-2.754-4.806-2.754-8.276 c0-1.613,0.227-3.107,0.681-4.493c0.451-1.381,1.118-2.58,2.007-3.597c0.891-1.015,1.998-1.816,3.324-2.413 c1.326-0.593,2.864-0.891,4.613-0.891c1.186,0,2.229,0.073,3.135,0.212c0.905,0.145,1.764,0.368,2.582,0.679 c0,0.48-0.063,1.036-0.193,1.671c-0.126,0.639-0.301,1.197-0.528,1.674c-1.382-0.478-2.962-0.717-4.741-0.717 c-2.173,0-3.795,0.717-4.869,2.155c-1.072,1.438-1.606,3.347-1.606,5.72c0,2.707,0.605,4.689,1.821,5.947 c1.211,1.251,2.876,1.882,4.991,1.882c0.847,0,1.631-0.054,2.35-0.171C218.586,40.584,219.316,40.388,220.047,40.104"></path> <path class="st0" d="M224.562,22.151c0.31-0.056,0.663-0.095,1.059-0.122c0.395-0.026,0.731-0.044,1.015-0.044 c0.308,0,0.663,0.017,1.059,0.044c0.395,0.028,0.747,0.066,1.057,0.122v11.902c0,1.354,0.128,2.474,0.381,3.361 c0.257,0.892,0.635,1.589,1.146,2.098c0.507,0.511,1.125,0.862,1.86,1.06c0.737,0.198,1.582,0.296,2.54,0.296 c1.442,0,2.668-0.154,3.685-0.467v-18.25c0.312-0.056,0.654-0.095,1.036-0.122c0.383-0.026,0.728-0.044,1.039-0.044 c0.31,0,0.654,0.017,1.034,0.044c0.383,0.028,0.728,0.066,1.039,0.122v21.046c-0.988,0.283-2.166,0.547-3.534,0.801 c-1.368,0.257-2.787,0.381-4.257,0.381c-1.382,0-2.685-0.119-3.914-0.359c-1.23-0.236-2.307-0.726-3.238-1.459 c-0.932-0.733-1.665-1.767-2.201-3.092c-0.542-1.326-0.805-3.076-0.805-5.25L224.562,22.151L224.562,22.151z"></path> <path class="st0" d="M248.127,22.151c0.308-0.056,0.607-0.095,0.887-0.122c0.282-0.026,0.578-0.044,0.892-0.044 c0.31,0,0.618,0.017,0.927,0.044c0.31,0.028,0.595,0.066,0.849,0.122c0.086,0.427,0.168,0.987,0.25,1.674 c0.089,0.693,0.129,1.282,0.129,1.757c0.591-0.959,1.379-1.792,2.353-2.495c0.973-0.707,2.218-1.059,3.739-1.059 c0.231,0,0.462,0.007,0.703,0.021c0.238,0.012,0.446,0.035,0.614,0.063c0.058,0.254,0.1,0.523,0.128,0.803 c0.026,0.283,0.044,0.579,0.044,0.892c0,0.339-0.024,0.689-0.065,1.06c-0.042,0.364-0.093,0.714-0.152,1.053 c-0.224-0.054-0.458-0.08-0.695-0.08h-0.578c-0.759,0-1.486,0.102-2.175,0.317c-0.691,0.212-1.312,0.583-1.865,1.12 c-0.547,0.537-0.988,1.269-1.309,2.204c-0.327,0.931-0.488,2.128-0.488,3.593v10.8c-0.313,0.056-0.656,0.096-1.037,0.122 c-0.381,0.03-0.726,0.044-1.036,0.044c-0.312,0-0.66-0.014-1.039-0.044c-0.381-0.026-0.74-0.066-1.078-0.122L248.127,22.151 L248.127,22.151z"></path> <path class="st0" d="M265.425,30.919c0.196-1.863,0.754-3.316,1.671-4.362c0.92-1.045,2.238-1.564,3.958-1.564 c0.875,0,1.632,0.163,2.267,0.49c0.634,0.32,1.153,0.75,1.564,1.289c0.411,0.534,0.721,1.162,0.936,1.882 c0.205,0.717,0.313,1.475,0.313,2.264H265.425z M279.691,27.679c-0.399-1.226-0.976-2.283-1.736-3.177 c-0.757-0.889-1.711-1.587-2.836-2.092c-1.132-0.506-2.444-0.763-3.938-0.763c-1.753,0-3.266,0.303-4.549,0.91 c-1.286,0.607-2.35,1.43-3.198,2.456c-0.849,1.032-1.471,2.243-1.882,3.643c-0.411,1.396-0.614,2.897-0.614,4.505 c0,1.639,0.21,3.141,0.634,4.51c0.425,1.37,1.097,2.554,2.014,3.557c0.917,0.999,2.079,1.774,3.492,2.33 c1.408,0.547,3.102,0.822,5.081,0.822c1.356,0,2.588-0.098,3.702-0.297c1.113-0.196,2.138-0.493,3.07-0.887 c-0.028-0.591-0.117-1.191-0.254-1.802c-0.14-0.603-0.327-1.12-0.551-1.543c-1.806,0.708-3.711,1.06-5.718,1.06 c-2.283,0-4.013-0.555-5.182-1.652c-1.174-1.102-1.788-2.838-1.842-5.205h14.777c0.024-0.313,0.053-0.688,0.079-1.125 c0.033-0.437,0.049-0.852,0.049-1.246C280.288,30.24,280.087,28.905,279.691,27.679"></path> <path class="st1" d="M37.166,45.672c-0.371-0.862-0.894-1.643-1.55-2.295l-7.066-7.068l-0.432-0.432l-3.002-3l-4.644-4.645 l-0.002,0.003l-0.003-0.003l-4.647-4.644L9.967,17.73c-0.061-0.061-0.11-0.133-0.14-0.212c-0.035-0.075-0.052-0.151-0.052-0.254 c0-0.098,0.017-0.178,0.052-0.252c0.03-0.077,0.079-0.151,0.14-0.21L20.003,6.766c0.061-0.061,0.133-0.112,0.21-0.144 c0.075-0.03,0.152-0.049,0.254-0.049c0.102,0,0.177,0.019,0.257,0.049c0.075,0.032,0.147,0.082,0.208,0.144l10.036,10.037 c0.061,0.059,0.114,0.133,0.14,0.21c0.032,0.073,0.053,0.154,0.053,0.252c0,0.103-0.021,0.178-0.053,0.254 c-0.026,0.079-0.079,0.151-0.14,0.212l-5.852,5.858l4.645,4.644l5.852-5.854c0.652-0.653,1.183-1.43,1.548-2.299 c0.369-0.864,0.57-1.825,0.567-2.813c0.003-0.988-0.198-1.949-0.567-2.813c-0.366-0.866-0.896-1.645-1.548-2.297L25.581,2.119 c-0.656-0.651-1.43-1.181-2.297-1.547C22.414,0.205,21.457,0,20.467,0c-0.988,0-1.949,0.205-2.812,0.572 c-0.868,0.366-1.648,0.896-2.297,1.547L5.322,12.155c-0.652,0.652-1.179,1.431-1.55,2.297c-0.364,0.864-0.569,1.825-0.565,2.813 c-0.003,0.988,0.201,1.949,0.565,2.813c0.371,0.869,0.898,1.646,1.55,2.299l5.854,5.854l4.647,4.651l4.644,4.642l0.003-0.002 l8.111,8.111l2.39,2.39c0.01,0.009,0.01,0.009,0.024,0.021l3.431,3.443l1.62,1.62c0.465-0.534,0.835-1.135,1.12-1.8 c0.357-0.871,0.565-1.83,0.565-2.82C37.732,47.496,37.523,46.536,37.166,45.672"></path> <path class="st1" d="M66.978,26.197c-0.31,0.696-0.724,1.254-1.249,1.674c-0.522,0.422-1.12,0.728-1.799,0.911 c-0.679,0.178-1.374,0.273-2.075,0.273h-1.079c-0.294,0-0.614-0.03-0.95-0.084V18.176c0.506-0.056,0.891-0.095,1.162-0.107 c0.268-0.014,0.558-0.024,0.868-0.024c0.701,0,1.396,0.093,2.075,0.274c0.679,0.189,1.277,0.499,1.799,0.934 c0.525,0.436,0.94,1.015,1.249,1.736c0.31,0.721,0.467,1.604,0.467,2.645C67.445,24.653,67.288,25.505,66.978,26.197 M72.692,18.176c-0.735-1.384-1.683-2.46-2.855-3.244c-1.171-0.77-2.483-1.302-3.935-1.585c-1.459-0.278-2.889-0.422-4.304-0.422 c-1.351,0-2.689,0.037-4.02,0.105c-1.325,0.075-2.636,0.163-3.935,0.274v30.568c0.563,0.084,1.113,0.14,1.65,0.168 c0.539,0.026,1.032,0.04,1.486,0.04c0.479,0,0.973-0.014,1.478-0.04c0.509-0.028,1.03-0.084,1.569-0.168V34.09 c0.278,0.033,0.581,0.053,0.906,0.065c0.327,0.021,0.674,0.023,1.039,0.023c1.381,0,2.789-0.144,4.211-0.427 c1.426-0.276,2.715-0.815,3.873-1.608c1.158-0.787,2.101-1.863,2.836-3.238c0.735-1.366,1.102-3.148,1.102-5.354 C73.794,21.349,73.427,19.557,72.692,18.176"></path> <path class="st1" d="M76.953,21.985c1.016-0.166,2.017-0.254,3.006-0.254c0.988,0,1.989,0.088,3.009,0.254v11.6 c0,1.158,0.088,2.112,0.273,2.857c0.184,0.753,0.462,1.344,0.847,1.781c0.383,0.436,0.856,0.745,1.419,0.929 c0.563,0.185,1.227,0.275,1.989,0.275c1.043,0,1.921-0.098,2.626-0.296V21.986c1.013-0.166,2.001-0.254,2.964-0.254 c0.985,0,1.989,0.088,3.004,0.254v21.04c-0.905,0.313-2.096,0.612-3.576,0.91c-1.484,0.299-3.029,0.444-4.638,0.444 c-1.438,0-2.822-0.112-4.148-0.338c-1.328-0.224-2.491-0.703-3.492-1.438c-1.001-0.731-1.799-1.809-2.394-3.219 c-0.593-1.412-0.889-3.286-0.889-5.632L76.953,21.985L76.953,21.985z"></path> <path class="st1" d="M100.391,12.928c1.016-0.173,2.017-0.257,3.004-0.257c0.961,0,1.949,0.084,2.965,0.257v22.225 c0,0.873,0.049,1.58,0.149,2.117c0.1,0.537,0.252,0.954,0.464,1.247c0.212,0.296,0.488,0.502,0.829,0.612 c0.336,0.112,0.756,0.173,1.269,0.173c0.226,0,0.469-0.012,0.74-0.044c0.268-0.03,0.528-0.073,0.78-0.129 c0.312,1.158,0.469,2.289,0.469,3.391v0.611c0,0.187-0.03,0.392-0.084,0.614c-0.455,0.142-0.997,0.241-1.636,0.297 c-0.63,0.054-1.216,0.086-1.753,0.086c-2.175,0-3.914-0.602-5.226-1.802c-1.314-1.197-1.97-3.153-1.97-5.863L100.391,12.928 L100.391,12.928z"></path> <path class="st1" d="M118.509,34.349c-1.58-0.455-2.813-1.123-3.704-2.012c-0.889-0.887-1.33-2.226-1.33-4 c0-2.145,0.766-3.826,2.304-5.039c1.536-1.214,3.634-1.819,6.286-1.819c1.101,0,2.185,0.1,3.259,0.297 c1.072,0.194,2.157,0.491,3.263,0.887c-0.058,0.731-0.2,1.494-0.427,2.285c-0.226,0.789-0.495,1.484-0.805,2.075 c-0.675-0.283-1.422-0.53-2.243-0.742c-0.817-0.21-1.678-0.317-2.584-0.317c-0.957,0-1.708,0.151-2.241,0.446 c-0.537,0.296-0.805,0.768-0.805,1.415c0,0.623,0.191,1.059,0.57,1.312c0.383,0.257,0.927,0.499,1.632,0.721l2.411,0.721 c0.789,0.226,1.503,0.502,2.14,0.828c0.633,0.32,1.177,0.724,1.631,1.204c0.45,0.481,0.805,1.074,1.057,1.781 c0.254,0.703,0.38,1.564,0.38,2.58c0,1.041-0.219,2.016-0.651,2.922c-0.441,0.899-1.078,1.685-1.911,2.348 c-0.831,0.661-1.839,1.184-3.023,1.568c-1.19,0.379-2.528,0.57-4.022,0.57c-0.679,0-1.3-0.023-1.863-0.065 c-0.569-0.039-1.108-0.11-1.629-0.212c-0.525-0.096-1.039-0.219-1.548-0.361c-0.507-0.14-1.055-0.319-1.648-0.548 c0.056-0.763,0.191-1.531,0.402-2.309c0.21-0.775,0.485-1.527,0.824-2.262c0.931,0.364,1.813,0.639,2.645,0.824 c0.831,0.185,1.701,0.274,2.603,0.274c0.394,0,0.828-0.035,1.291-0.103c0.467-0.073,0.898-0.198,1.291-0.383 c0.395-0.182,0.726-0.425,0.997-0.719c0.268-0.296,0.402-0.686,0.402-1.162c0-0.679-0.207-1.167-0.618-1.463 c-0.41-0.297-0.981-0.558-1.713-0.786L118.509,34.349z"></path> <path class="st1" d="M137.589,30.579c0.14-1.442,0.574-2.558,1.312-3.343c0.73-0.791,1.804-1.184,3.214-1.184 c1.242,0,2.208,0.415,2.904,1.246c0.688,0.833,1.064,1.93,1.118,3.282L137.589,30.579L137.589,30.579z M151.173,27.809 c-0.422-1.286-1.048-2.392-1.879-3.324c-0.836-0.934-1.844-1.669-3.029-2.203c-1.184-0.535-2.539-0.803-4.066-0.803 c-1.748,0-3.275,0.299-4.591,0.906c-1.312,0.611-2.411,1.436-3.302,2.484c-0.892,1.037-1.56,2.267-2.014,3.678 c-0.451,1.408-0.675,2.92-0.675,4.528c0,1.639,0.215,3.149,0.658,4.533c0.437,1.381,1.113,2.574,2.031,3.576 c0.917,1.003,2.101,1.781,3.555,2.35c1.455,0.563,3.195,0.845,5.228,0.845c2.768,0,5.247-0.422,7.453-1.27 c-0.026-0.903-0.159-1.748-0.385-2.539c-0.226-0.789-0.49-1.464-0.803-2.033c-0.903,0.339-1.853,0.602-2.859,0.787 c-0.997,0.18-1.981,0.274-2.939,0.274c-1.753,0-3.161-0.383-4.236-1.146c-1.071-0.761-1.664-1.991-1.776-3.685h14.054 c0.059-0.31,0.105-0.724,0.151-1.246c0.042-0.523,0.063-1.055,0.063-1.589C151.813,30.469,151.6,29.092,151.173,27.809"></path> <path class="st0" d="M286.595,25.693h0.516c0.254,0,0.458-0.065,0.612-0.198c0.154-0.131,0.231-0.299,0.231-0.502 c0-0.24-0.068-0.409-0.205-0.513c-0.137-0.105-0.353-0.156-0.649-0.156h-0.506V25.693z M288.667,24.974 c0,0.254-0.068,0.479-0.203,0.674c-0.135,0.198-0.325,0.343-0.57,0.437l1.135,1.884h-0.801l-0.988-1.688h-0.644v1.688h-0.705 v-4.251h1.244c0.528,0,0.915,0.103,1.164,0.312C288.542,24.235,288.667,24.55,288.667,24.974 M284.123,25.841 c0,0.551,0.14,1.066,0.417,1.543c0.276,0.479,0.654,0.856,1.134,1.132c0.478,0.274,0.99,0.413,1.538,0.413 c0.553,0,1.067-0.14,1.542-0.416c0.474-0.276,0.85-0.651,1.128-1.123c0.278-0.472,0.417-0.988,0.417-1.548 c0-0.553-0.138-1.067-0.415-1.541s-0.651-0.85-1.123-1.128c-0.473-0.278-0.988-0.418-1.548-0.418c-0.553,0-1.067,0.14-1.542,0.416 c-0.474,0.276-0.85,0.651-1.128,1.123C284.263,24.765,284.123,25.282,284.123,25.841 M283.623,25.841 c0-0.637,0.159-1.233,0.478-1.79c0.317-0.556,0.756-0.996,1.312-1.316c0.556-0.322,1.157-0.483,1.799-0.483 c0.637,0,1.233,0.159,1.79,0.478c0.556,0.317,0.996,0.756,1.316,1.312c0.322,0.556,0.483,1.157,0.483,1.799 c0,0.626-0.156,1.214-0.464,1.765c-0.308,0.551-0.742,0.99-1.298,1.323c-0.556,0.331-1.165,0.495-1.826,0.495 c-0.658,0-1.267-0.163-1.823-0.493c-0.556-0.329-0.99-0.77-1.3-1.319C283.776,27.061,283.623,26.471,283.623,25.841"></path> <g> <path class="st2" d="M142.833,53.389h1.982l4.763,12.934h-1.947l-1.287-3.772h-5.093l-1.321,3.772h-1.825L142.833,53.389z M141.738,61.159h4.137l-1.234-3.616c-0.116-0.313-0.22-0.632-0.313-0.956c-0.093-0.324-0.174-0.62-0.243-0.886 c-0.081-0.301-0.157-0.603-0.226-0.904h-0.052c-0.081,0.301-0.162,0.609-0.243,0.921c-0.081,0.267-0.168,0.562-0.26,0.886 c-0.093,0.325-0.191,0.638-0.296,0.939L141.738,61.159z"></path> <path class="st2" d="M154.724,66.583c-0.695,0-1.324-0.128-1.886-0.382c-0.563-0.255-1.04-0.605-1.434-1.052 s-0.698-0.968-0.912-1.565c-0.215-0.596-0.322-1.237-0.322-1.921c0-0.672,0.107-1.306,0.322-1.904 c0.214-0.597,0.518-1.118,0.912-1.565c0.394-0.446,0.872-0.797,1.434-1.052c0.562-0.255,1.191-0.382,1.886-0.382 c1.124,0,2.036,0.293,2.738,0.878c0.701,0.585,1.133,1.382,1.295,2.39h-1.616c-0.116-0.614-0.377-1.095-0.782-1.443 c-0.406-0.348-0.95-0.521-1.634-0.521c-0.476,0-0.895,0.093-1.26,0.278c-0.365,0.185-0.669,0.441-0.912,0.765 c-0.243,0.325-0.426,0.707-0.548,1.148s-0.182,0.91-0.182,1.408c0,0.51,0.061,0.982,0.182,1.417 c0.122,0.435,0.304,0.815,0.548,1.139c0.243,0.325,0.547,0.579,0.912,0.765c0.365,0.185,0.785,0.278,1.26,0.278 c0.73,0,1.306-0.2,1.73-0.599c0.423-0.4,0.663-0.948,0.721-1.643h1.599c-0.104,1.124-0.507,2-1.208,2.625 C156.865,66.27,155.917,66.583,154.724,66.583z"></path> <path class="st2" d="M166.928,66.653c0-0.035,0.003-0.111,0.009-0.226c0.006-0.116,0.011-0.249,0.017-0.4 c0.006-0.15,0.011-0.31,0.017-0.478c0.006-0.168,0.009-0.322,0.009-0.46h-0.052c-0.359,0.499-0.768,0.875-1.226,1.13 c-0.458,0.255-1.017,0.382-1.677,0.382c-0.626,0-1.191-0.116-1.695-0.348c-0.504-0.232-0.933-0.562-1.287-0.991 c-0.353-0.428-0.623-0.944-0.808-1.547c-0.186-0.602-0.278-1.28-0.278-2.034c0-0.765,0.101-1.451,0.304-2.06 c0.203-0.609,0.481-1.124,0.834-1.547c0.354-0.423,0.776-0.748,1.269-0.974c0.492-0.226,1.028-0.339,1.608-0.339 c0.672,0,1.251,0.142,1.738,0.426c0.487,0.284,0.881,0.681,1.182,1.191h0.052v-1.391h1.582v12.499h-1.599L166.928,66.653 L166.928,66.653z M164.164,65.262c0.51,0,0.947-0.089,1.312-0.269s0.661-0.426,0.887-0.739c0.226-0.313,0.391-0.687,0.496-1.121 c0.104-0.434,0.157-0.907,0.157-1.417c0-0.522-0.058-1.002-0.174-1.443c-0.116-0.441-0.29-0.82-0.522-1.139 c-0.232-0.318-0.53-0.565-0.895-0.738c-0.365-0.174-0.791-0.261-1.277-0.261c-0.429,0-0.803,0.09-1.121,0.27 s-0.585,0.429-0.799,0.747c-0.215,0.319-0.374,0.698-0.478,1.139c-0.104,0.44-0.157,0.916-0.157,1.425 c0,0.51,0.052,0.982,0.157,1.417c0.104,0.435,0.263,0.809,0.478,1.121c0.214,0.313,0.481,0.559,0.799,0.739 S163.723,65.262,164.164,65.262z"></path> <path class="st2" d="M176.732,66.322v-1.304h-0.035c-0.336,0.464-0.721,0.832-1.156,1.104c-0.434,0.272-0.988,0.409-1.66,0.409 c-0.973,0-1.744-0.272-2.312-0.817c-0.568-0.545-0.852-1.309-0.852-2.295v-6.432h1.616v6.345c0,0.591,0.177,1.052,0.53,1.382 c0.353,0.33,0.855,0.495,1.504,0.495c0.359,0,0.684-0.063,0.973-0.191s0.536-0.304,0.739-0.53c0.203-0.226,0.359-0.496,0.47-0.809 c0.11-0.313,0.165-0.649,0.165-1.008v-5.685h1.616v9.335L176.732,66.322L176.732,66.322z"></path> <path class="st2" d="M180.539,53.389h1.686v1.878h-1.686V53.389z M180.574,56.987h1.616v9.335h-1.616V56.987z"></path> <path class="st2" d="M186.015,58.673h0.052c0.289-0.545,0.666-0.982,1.13-1.312c0.464-0.33,1.009-0.496,1.634-0.496 c0.127,0,0.234,0.009,0.321,0.026c0.087,0.017,0.177,0.043,0.27,0.078v1.53h-0.052c-0.116-0.035-0.22-0.057-0.313-0.069 s-0.208-0.017-0.348-0.017c-0.359,0-0.702,0.067-1.026,0.2c-0.325,0.134-0.609,0.322-0.852,0.565 c-0.243,0.243-0.438,0.539-0.582,0.887c-0.145,0.348-0.217,0.742-0.217,1.182v5.076h-1.616v-9.335h1.599L186.015,58.673 L186.015,58.673z"></path> <path class="st2" d="M194.724,66.583c-0.719,0-1.359-0.128-1.921-0.382c-0.563-0.255-1.04-0.605-1.434-1.052 s-0.693-0.968-0.895-1.565c-0.203-0.596-0.304-1.237-0.304-1.921c0-0.672,0.107-1.306,0.322-1.904 c0.214-0.597,0.516-1.118,0.904-1.565c0.388-0.446,0.858-0.797,1.408-1.052c0.55-0.255,1.162-0.382,1.834-0.382 c0.695,0,1.309,0.128,1.843,0.382c0.533,0.255,0.985,0.609,1.356,1.06c0.382,0.464,0.67,1.02,0.861,1.669 c0.191,0.649,0.287,1.373,0.287,2.173h-7.162c0.035,0.452,0.122,0.875,0.261,1.269c0.139,0.394,0.33,0.736,0.574,1.026 c0.243,0.29,0.539,0.516,0.887,0.678s0.748,0.243,1.2,0.243c0.649,0,1.185-0.142,1.608-0.425c0.423-0.284,0.71-0.675,0.861-1.174 h1.582c-0.208,0.869-0.67,1.573-1.382,2.112C196.697,66.314,195.802,66.583,194.724,66.583z M194.637,58.013 c-0.417,0-0.788,0.072-1.113,0.217c-0.325,0.145-0.603,0.345-0.834,0.599c-0.232,0.255-0.417,0.556-0.556,0.904 c-0.139,0.348-0.232,0.73-0.278,1.147h5.406c-0.047-0.904-0.293-1.608-0.739-2.112C196.077,58.265,195.448,58.013,194.637,58.013z "></path> <path class="st2" d="M204.32,66.601c-0.626,0-1.194-0.116-1.704-0.348c-0.51-0.232-0.945-0.559-1.304-0.982 c-0.359-0.423-0.634-0.938-0.826-1.547s-0.287-1.289-0.287-2.043c0-0.765,0.104-1.451,0.313-2.06 c0.208-0.609,0.495-1.124,0.86-1.547c0.365-0.423,0.797-0.748,1.295-0.974c0.498-0.226,1.037-0.339,1.616-0.339 c0.661,0,1.243,0.151,1.747,0.452c0.504,0.302,0.907,0.701,1.208,1.2h0.035c-0.023-0.208-0.038-0.47-0.043-0.782 c-0.006-0.313-0.009-0.626-0.009-0.939v-3.303h1.616v12.934h-1.599v-1.338h-0.035c-0.302,0.51-0.693,0.907-1.174,1.191 C205.551,66.459,204.981,66.601,204.32,66.601z M204.442,65.262c0.498,0,0.927-0.089,1.286-0.269 c0.359-0.18,0.658-0.429,0.895-0.748c0.237-0.319,0.411-0.695,0.522-1.13c0.11-0.434,0.165-0.907,0.165-1.417 c0-0.522-0.061-1.002-0.182-1.443c-0.122-0.441-0.304-0.82-0.548-1.139c-0.243-0.318-0.545-0.565-0.904-0.738 c-0.359-0.174-0.771-0.261-1.234-0.261c-0.429,0-0.806,0.09-1.13,0.27c-0.325,0.18-0.594,0.429-0.808,0.747 c-0.215,0.319-0.377,0.698-0.487,1.139c-0.111,0.441-0.165,0.916-0.165,1.425c0,0.51,0.055,0.982,0.165,1.417 c0.11,0.435,0.272,0.812,0.487,1.13c0.214,0.319,0.484,0.568,0.808,0.748C203.636,65.173,204.013,65.262,204.442,65.262z"></path> <path class="st2" d="M220.26,66.601c-0.626,0-1.194-0.137-1.704-0.409c-0.51-0.272-0.916-0.67-1.217-1.191h-0.052v1.321h-1.599 V53.389h1.616v3.303c0,0.359-0.006,0.695-0.017,1.009c-0.012,0.313-0.023,0.568-0.035,0.765h0.052 c0.301-0.498,0.707-0.907,1.217-1.226c0.51-0.319,1.106-0.478,1.79-0.478c0.591,0,1.13,0.113,1.617,0.339 c0.487,0.226,0.907,0.55,1.26,0.974s0.626,0.938,0.817,1.547s0.287,1.295,0.287,2.06c0,0.753-0.093,1.434-0.278,2.043 c-0.185,0.609-0.452,1.124-0.8,1.547c-0.348,0.424-0.771,0.75-1.269,0.982C221.449,66.485,220.887,66.601,220.26,66.601z M220.087,65.262c0.428,0,0.802-0.089,1.121-0.269c0.319-0.18,0.585-0.429,0.8-0.748c0.214-0.319,0.374-0.695,0.478-1.13 c0.104-0.434,0.157-0.907,0.157-1.417c0-0.51-0.052-0.985-0.157-1.425c-0.104-0.441-0.26-0.82-0.469-1.139 c-0.208-0.318-0.472-0.568-0.791-0.747s-0.693-0.27-1.121-0.27c-0.499,0-0.928,0.093-1.287,0.278 c-0.359,0.185-0.658,0.441-0.895,0.765c-0.238,0.325-0.415,0.704-0.53,1.139c-0.116,0.434-0.174,0.901-0.174,1.399 c0,0.51,0.061,0.982,0.182,1.417c0.122,0.435,0.301,0.812,0.539,1.13c0.237,0.319,0.536,0.568,0.895,0.748 C219.194,65.172,219.611,65.262,220.087,65.262z"></path> <path class="st2" d="M226.989,69.573c-0.267,0-0.53-0.017-0.791-0.052s-0.455-0.082-0.582-0.139v-1.391h0.07 c0.092,0.058,0.229,0.101,0.408,0.131c0.18,0.029,0.368,0.043,0.565,0.043c0.324,0,0.597-0.078,0.817-0.235 c0.22-0.157,0.411-0.455,0.574-0.895c0-0.012,0.017-0.073,0.052-0.182c0.035-0.111,0.075-0.235,0.121-0.374 c0.046-0.139,0.087-0.272,0.122-0.4c0.035-0.128,0.046-0.203,0.035-0.226l-3.563-8.866h1.756l1.93,5.181 c0.093,0.267,0.185,0.545,0.278,0.834c0.093,0.29,0.18,0.563,0.261,0.817c0.081,0.301,0.162,0.591,0.243,0.869h0.035 c0.081-0.278,0.168-0.568,0.261-0.869c0.081-0.255,0.168-0.527,0.261-0.817c0.092-0.289,0.185-0.568,0.278-0.834l1.86-5.181h1.686 l-3.964,10.187c-0.197,0.487-0.391,0.886-0.582,1.199c-0.191,0.313-0.394,0.559-0.609,0.739c-0.214,0.179-0.446,0.301-0.695,0.365 C227.565,69.541,227.29,69.573,226.989,69.573z"></path> <path class="st2" d="M239.748,53.389h1.773v12.934h-1.773V53.389z"></path> <path class="st2" d="M242.981,56.987h1.721l1.634,5.042c0.093,0.313,0.191,0.643,0.296,0.991c0.104,0.348,0.197,0.672,0.278,0.974 c0.093,0.348,0.185,0.684,0.278,1.009h0.035c0.07-0.325,0.151-0.661,0.243-1.009c0.081-0.301,0.171-0.626,0.27-0.974 c0.098-0.348,0.2-0.678,0.304-0.991l1.669-5.042h1.669l-3.355,9.335h-1.79L242.981,56.987z"></path> <path class="st2" d="M255.098,66.514c-0.441,0-0.855-0.055-1.243-0.165c-0.389-0.11-0.724-0.275-1.009-0.496 c-0.284-0.22-0.507-0.496-0.669-0.826c-0.162-0.33-0.243-0.721-0.243-1.174c0-0.545,0.096-0.991,0.287-1.338 c0.191-0.348,0.463-0.626,0.817-0.835c0.353-0.208,0.776-0.371,1.269-0.487c0.492-0.116,1.04-0.208,1.643-0.278 c0.348-0.035,0.661-0.081,0.938-0.139c0.278-0.057,0.516-0.136,0.713-0.234s0.348-0.223,0.452-0.374 c0.104-0.151,0.157-0.348,0.157-0.591c0-0.51-0.171-0.909-0.513-1.199c-0.342-0.29-0.838-0.435-1.486-0.435 c-0.742,0-1.295,0.162-1.66,0.487c-0.365,0.325-0.559,0.765-0.582,1.321h-1.565c0.012-0.394,0.099-0.77,0.261-1.13 c0.162-0.359,0.4-0.678,0.713-0.956c0.313-0.278,0.704-0.498,1.174-0.661c0.469-0.162,1.017-0.243,1.643-0.243 c0.44,0,0.852,0.041,1.234,0.122c0.382,0.081,0.724,0.208,1.026,0.382c0.394,0.232,0.701,0.556,0.921,0.974 c0.22,0.417,0.33,0.938,0.33,1.565v4.363c0,0.371,0.064,0.649,0.191,0.835s0.394,0.232,0.8,0.139h0.07v1.13 c-0.116,0.035-0.241,0.067-0.374,0.096c-0.133,0.029-0.299,0.043-0.496,0.043c-0.499,0-0.875-0.119-1.13-0.356 c-0.255-0.237-0.429-0.605-0.522-1.104h-0.017c-0.151,0.208-0.325,0.406-0.521,0.591c-0.197,0.186-0.423,0.351-0.678,0.496 c-0.255,0.145-0.542,0.261-0.86,0.348C255.848,66.47,255.492,66.514,255.098,66.514z M255.498,65.331 c0.463,0,0.866-0.078,1.208-0.234c0.342-0.157,0.626-0.353,0.852-0.591s0.394-0.501,0.504-0.791 c0.11-0.289,0.165-0.568,0.165-0.834v-1.53c-0.232,0.151-0.536,0.281-0.913,0.391c-0.377,0.11-0.756,0.2-1.138,0.27 c-0.382,0.07-0.73,0.142-1.043,0.217c-0.313,0.075-0.579,0.18-0.799,0.313c-0.221,0.133-0.391,0.301-0.513,0.504 c-0.122,0.203-0.182,0.467-0.182,0.791c0,0.301,0.052,0.548,0.157,0.739c0.104,0.191,0.243,0.345,0.417,0.461 c0.174,0.116,0.374,0.194,0.599,0.234C255.037,65.312,255.266,65.331,255.498,65.331z"></path> <path class="st2" d="M263.686,58.309h0.052c0.336-0.475,0.741-0.852,1.217-1.13c0.475-0.278,1.055-0.417,1.738-0.417 c0.985,0,1.756,0.261,2.312,0.782c0.556,0.522,0.835,1.275,0.835,2.26v6.519h-1.599v-6.328c0-0.602-0.182-1.066-0.548-1.391 c-0.365-0.324-0.866-0.487-1.504-0.487c-0.359,0-0.693,0.061-1,0.182c-0.307,0.122-0.571,0.293-0.791,0.513 c-0.22,0.22-0.391,0.487-0.513,0.8c-0.122,0.313-0.182,0.655-0.182,1.026v5.684h-1.616v-9.335h1.599V58.309z"></path> <path class="st2" d="M271.265,56.987h1.46v-2.938h1.599v2.938h1.93v1.252h-1.93v5.893c0,0.336,0.084,0.565,0.252,0.687 c0.168,0.122,0.403,0.182,0.704,0.182c0.139,0,0.287-0.014,0.443-0.043c0.157-0.029,0.281-0.055,0.374-0.078h0.052v1.356 c-0.441,0.104-0.875,0.157-1.304,0.157c-0.626-0.012-1.136-0.159-1.53-0.443c-0.394-0.284-0.591-0.767-0.591-1.451v-6.258h-1.46 V56.987z"></path> <path class="st2" d="M277.906,53.389h1.686v1.878h-1.686V53.389z M277.941,56.987h1.616v9.335h-1.616V56.987z"></path> </g> </g> </svg> 