<svg width="128" height="32" viewBox="0 0 128 32" fill="none" xmlns="http://www.w3.org/2000/svg">
  <!-- Dark background so the official OpenText wordmark (white paths) remains visible in Fleet; paths match https://docs.microfocus.com/assets/global/opentext-logo.svg -->
  <rect width="128" height="32" rx="4" fill="#000000"/>
  <g transform="translate(3 2)">
    <path d="M16.1472 14.4981C16.1472 18.2961 13.9632 22.4152 8.11777 22.4152C3.85413 22.4312 -1.83779e-07 20.0224 -1.83779e-07 14.4981C-1.83779e-07 9.89725 2.90666 6.35627 8.66377 6.66942C14.7902 7.01469 16.1472 11.7601 16.1472 14.4981ZM5.21111 11.6075C4.69057 12.4709 4.43121 13.4665 4.46437 14.474C4.46437 16.8026 5.61258 18.9143 8.09368 18.9143C10.5748 18.9143 11.6587 16.9712 11.6587 14.6667C11.7144 14.0018 11.6335 13.3326 11.4208 12.7001C11.2082 12.0677 10.8683 11.4854 10.4222 10.9893C10.0727 10.6774 9.66026 10.4443 9.21279 10.3057C8.76532 10.1672 8.29329 10.1265 7.82871 10.1863C7.30647 10.1751 6.79034 10.3003 6.33129 10.5495C5.87223 10.7988 5.48613 11.1634 5.21111 11.6075Z" fill="#FFFFFF"/>
    <path d="M55.4273 8.3635C55.8303 7.86099 56.3405 7.45496 56.9207 7.17514C57.7897 6.83161 58.7163 6.65719 59.6507 6.66126C60.5758 6.63345 61.4936 6.8319 62.3246 7.23938C63.9304 8.04232 64.3078 9.42339 64.3078 11.76V22.0376H59.9157V13.5987C59.9913 12.8433 59.9232 12.0805 59.715 11.3505C59.5401 10.9803 59.2567 10.6721 58.9024 10.467C58.5481 10.2619 58.1398 10.1696 57.7317 10.2022C55.4032 10.2022 55.4032 12.0731 55.4032 13.944V22.0376H50.9629V7.04667H55.4273V8.3635Z" fill="#FFFFFF"/>
    <path d="M48.8591 18.1596C48.4496 19.0187 47.1488 22.4152 41.3756 22.4152C36.9113 22.4152 33.7798 19.6852 33.7798 14.7631C33.7798 11.1338 35.5623 6.66944 41.4961 6.66944C42.4859 6.58863 43.4815 6.72177 44.4153 7.05982C45.3491 7.39787 46.1992 7.93292 46.9079 8.62862C48.8671 10.7323 48.9795 13.6631 49.0357 15.3653H38.3004C38.3004 17.2362 39.3362 19.107 41.7209 19.107C44.1056 19.107 44.9327 17.5012 45.5188 16.4573L48.8591 18.1596ZM44.4589 12.6032C44.4302 11.8254 44.1483 11.0783 43.656 10.4754C43.0647 9.94224 42.2921 9.65503 41.4961 9.67245C41.0739 9.67084 40.656 9.7571 40.2689 9.92575C39.8819 10.0944 39.5341 10.3417 39.2478 10.652C38.77 11.216 38.461 11.9035 38.3566 12.6353L44.4589 12.6032Z" fill="#FFFFFF"/>
    <path d="M110.477 10.1543H113.424V7.0469H110.517V3.8833H106.117V7.03887H105.394L103.379 10.1543H106.093V17.2925C106.093 18.7297 106.093 19.7977 106.727 20.6889C107.675 22.07 109.345 22.1583 110.87 22.1583C111.652 22.1451 112.43 22.0672 113.199 21.9255V18.4728L111.593 18.529C110.413 18.529 110.413 17.7261 110.445 16.8348L110.477 10.1543Z" fill="#FFFFFF"/>
    <path d="M66.5237 3.8833H70.9238V7.03887H75.5006L73.4852 10.1543H70.8676V16.8107C70.8676 17.7341 70.8676 18.5049 72.0158 18.5049L73.6217 18.4487V21.9014C72.8533 22.0431 72.0744 22.121 71.2931 22.1342C69.7675 22.1342 68.0814 22.0459 67.15 20.6648C66.5477 19.7736 66.5156 18.7056 66.5156 17.2684L66.5237 3.8833Z" fill="#FFFFFF"/>
    <path d="M117.495 10.1543H116.949V7.50455H115.945V7.04688H118.475V7.50455H117.487L117.495 10.1543ZM121.759 10.1543H121.221V8.23523V7.60091L121.068 8.12282L120.434 10.1543H119.944L119.318 8.12282L119.157 7.60894V8.23523V10.1543H118.635V7.04688H119.374L120.177 9.50388L120.94 7.04688H121.678L121.759 10.1543Z" fill="#FFFFFF"/>
    <path d="M89.3356 18.1676L88.5327 19.4683C87.7298 20.6246 86.2604 22.4071 82.0048 22.4071C77.5404 22.4071 74.5454 19.6771 74.5454 14.7551C74.5454 11.1257 76.3279 6.66138 82.2617 6.66138C83.2515 6.58057 84.2471 6.71371 85.1809 7.05177C86.1147 7.38982 86.9648 7.92486 87.6735 8.62056C89.6327 10.7243 89.7451 13.655 89.8014 15.3573H79.066C79.066 17.2281 79.9653 19.099 82.35 19.099C84.7348 19.099 85.4655 17.4931 86.0115 16.4493L89.3356 18.1676ZM85.1844 12.6032C85.1557 11.8254 84.8737 11.0783 84.3815 10.4754C83.7902 9.94221 83.0176 9.655 82.2216 9.67242C81.7994 9.67081 81.3814 9.75707 80.9944 9.92572C80.6073 10.0944 80.2596 10.3417 79.9733 10.652C79.4954 11.216 79.1865 11.9035 79.082 12.6353L85.1844 12.6032Z" fill="#FFFFFF"/>
    <path d="M104.463 22.0378L98.9547 14.1449L103.548 7.03882H98.505L96.3371 10.3951L94.0005 7.03882H88.958L93.9122 14.1449L88.8135 22.0378H93.856L96.5298 17.8946L99.4204 22.0378H104.463Z" fill="#FFFFFF"/>
    <path d="M22.2337 8.36379C22.7152 7.79596 23.3218 7.34746 24.0059 7.05351C24.6899 6.75955 25.4328 6.62814 26.1761 6.66958C29.8617 6.66958 32.4471 9.46383 32.4471 14.4662C32.4471 17.5414 31.323 22.4073 26.0236 22.4073C25.3069 22.4241 24.5954 22.2807 23.9412 21.9876C23.2869 21.6945 22.7063 21.2591 22.2417 20.7131V27.0001H17.7773V7.04696H22.2417L22.2337 8.36379ZM25.2287 10.1222C24.7886 10.1204 24.3542 10.221 23.9598 10.4161C23.5654 10.6112 23.2218 10.8955 22.9563 11.2464C22.2922 12.211 21.9673 13.3691 22.0329 14.5384C21.9501 15.7817 22.3305 17.0117 23.1009 17.9911C23.3511 18.2762 23.6583 18.5056 24.0027 18.6647C24.347 18.8237 24.7209 18.9088 25.1002 18.9145C27.2601 18.9145 28.2076 16.6421 28.2076 14.4421C28.2076 12.5953 27.6616 10.6361 25.8469 10.2106C25.6453 10.1564 25.4374 10.1294 25.2287 10.1303V10.1222Z" fill="#FFFFFF"/>
  </g>
</svg>
