<svg xmlns="http://www.w3.org/2000/svg" xmlns:xlink="http://www.w3.org/1999/xlink" viewBox="0 0 70 81" fill="#fff" fill-rule="evenodd" stroke="#000" stroke-linecap="round" stroke-linejoin="round"><use xlink:href="#A" x=".5" y=".5"/><symbol id="A" overflow="visible"><g stroke="none"><path d="M39.6 19.4a20.92 20.92 0 0 1 15 15h14.12V12.96L39.6 0zM14.08 34.44a20.88 20.88 0 0 1 15-15V0L0 12.96v21.48zM29.12 60a20.92 20.92 0 0 1-15-15H.88a48 48 0 0 0 28.24 35zm25.52-15a20.92 20.92 0 0 1-15 15v20a48 48 0 0 0 28.2-35z" fill="#4285f4" fill-rule="nonzero"/><path d="M23.84 39.68a10.5 10.5 0 0 1 10.52-10.52 10.5 10.5 0 0 1 10.52 10.52A10.5 10.5 0 0 1 34.36 50.2a10.5 10.5 0 0 1-10.52-10.52z" fill="#669df6" fill-rule="nonzero"/></g></symbol></svg>