<svg width="32" height="32" xmlns="http://www.w3.org/2000/svg">
  <!-- Kafka logo scaled to fit in 24x24 area -->
  <g transform="translate(0, 0) scale(0.09)">
    <!-- Kafka logo paths -->
    <circle cx="134.9" cy="101.6" r="27.6" fill="#231f20"/>
    <circle cx="134.9" cy="165.4" r="27.6" fill="#231f20"/>
    <circle cx="134.9" cy="229.3" r="27.6" fill="#231f20"/>
    <circle cx="58.9" cy="133.5" r="27.6" fill="#231f20"/>
    <circle cx="58.9" cy="197.3" r="27.6" fill="#231f20"/>
    <path d="M134.9 129.2c-15.2 0-27.6-12.3-27.6-27.6s12.3-27.6 27.6-27.6 27.6 12.3 27.6 27.6-12.4 27.6-27.6 27.6zm0-47.1c-10.8 0-19.5 8.7-19.5 19.5s8.7 19.5 19.5 19.5 19.5-8.7 19.5-19.5-8.7-19.5-19.5-19.5z" fill="#231f20"/>
    <path d="M77 115.5l50-14" stroke="#231f20" stroke-width="8" fill="none"/>
    <path d="M77 179.3l50 14" stroke="#231f20" stroke-width="8" fill="none"/>
    <path d="M127 165.4H77" stroke="#231f20" stroke-width="8" fill="none"/>
    <path d="M127 165.4l-50-31.9" stroke="#231f20" stroke-width="8" fill="none"/>
    <path d="M127 165.4l-50 31.9" stroke="#231f20" stroke-width="8" fill="none"/>
    <path d="M127 101.6v63.8" stroke="#231f20" stroke-width="8" fill="none"/>
    <path d="M127 165.4v63.9" stroke="#231f20" stroke-width="8" fill="none"/>
  </g>
  <!-- OpenTelemetry telescope badge -->
  <g transform="translate(17, 17)">
    <path d="M8.648 8.797c-0.746 0.75-0.746 1.958 0 2.708 0.75 0.746 1.958 0.746 2.704 0 0.75-0.75 0.75-1.958 0-2.708-0.746-0.746-1.954-0.746-2.704 0zm2.021 2.023c-0.293 0.296-0.769 0.296-1.062 0-0.293-0.293-0.293-0.769 0-1.062 0.293-0.296 0.769-0.296 1.062 0 0.293 0.293 0.293 0.769 0 1.062zm0.516-9.152l-1.172 1.172c-0.182 0.183-0.182 0.48 0 0.663l4.577 4.577c0.182 0.183 0.48 0.183 0.663 0l1.172-1.172c0.182-0.183 0.182-0.48 0-0.663L11.848 1.668c-0.182-0.183-0.48-0.183-0.663 0zM3.09 16.492c0.165-0.167 0.165-0.438 0-0.605l-0.471-0.472c-0.165-0.166-0.434-0.166-0.6 0l-0.976 0.977-0.268-0.268c-0.148-0.149-0.389-0.149-0.536 0-0.148 0.149-0.148 0.391 0 0.536l1.607 1.606c0.148 0.149 0.389 0.149 0.536 0s0.148-0.391 0-0.536l-0.268-0.268 0.976-0.97zm0 0" fill="#f5a800"/>
    <path d="M9.018 5.485l-2.064 2.086c-0.183 0.184-0.183 0.486 0 0.67l1.274 1.287c1.136-0.818 2.73-0.716 3.752 0.306l1.302-1.302c0.183-0.184 0.183-0.486 0-0.67l-3.601-3.638c-0.183-0.186-0.485-0.186-0.663 0zm-1.678 6.086l-0.949-0.949c-0.177-0.177-0.466-0.177-0.642 0l-3.348 3.351c-0.176 0.178-0.176 0.469 0 0.643l1.896 1.896c0.176 0.178 0.465 0.178 0.643 0l2.153-2.156c-0.455-0.94-0.374-2.076 0.247-2.949zm0 0" fill="#425cc7"/>
  </g>
</svg>
