<?xml version="1.0" encoding="UTF-8" standalone="no"?>
<svg
   width="32"
   height="32"
   viewBox="0 0 32 32"
   version="1.1"
   id="svg1058"
   xmlns="http://www.w3.org/2000/svg"
   xmlns:svg="http://www.w3.org/2000/svg">
  <path
     d="m 17.548905,15.893514 c -1.051263,0 -1.993737,0.465751 -2.639134,1.199026 l -1.653794,-1.170773 c 0.175557,-0.483352 0.276358,-1.002361 0.276358,-1.545595 0,-0.533817 -0.09729,-1.044123 -0.267071,-1.52033 l 1.650093,-1.158368 c 0.645333,0.729573 1.585338,1.192791 2.633548,1.192791 1.940349,0 3.519192,-1.57859 3.519192,-3.5192049 0,-1.9406162 -1.578843,-3.5192056 -3.519192,-3.5192056 -1.940349,0 -3.519191,1.5785894 -3.519191,3.5192056 0,0.3473479 0.05248,0.6822899 0.146654,0.9995019 l -1.651196,1.158954 C 11.835415,10.67381 10.842281,10.076343 9.7107414,9.8939656 V 7.9039236 C 11.304847,7.5691103 12.505947,6.152764 12.505947,4.4603837 c 0,-1.9406159 -1.578842,-3.51920527 -3.5191913,-3.51920527 -1.9403485,0 -3.5191916,1.57858937 -3.5191916,3.51920527 0,1.669713 1.1699896,3.0685883 2.7322062,3.4273022 V 9.903578 c -2.1320133,0.374237 -3.7585938,2.2349 -3.7585938,4.472594 0,2.248605 1.6426878,4.116088 3.7900932,4.477595 v 2.128644 c -1.5781931,0.346893 -2.7637056,1.754342 -2.7637056,3.435421 0,1.940616 1.5788431,3.519205 3.5191916,3.519205 1.9403493,0 3.5191913,-1.578589 3.5191913,-3.519205 0,-1.681079 -1.185512,-3.088528 -2.7637053,-3.435421 v -2.128708 c 1.1092613,-0.186795 2.0841443,-0.772441 2.7668233,-1.609182 l 1.664835,1.178374 c -0.09242,0.314353 -0.144186,0.645984 -0.144186,0.989825 0,1.940615 1.578842,3.519205 3.519191,3.519205 1.940349,0 3.519192,-1.57859 3.519192,-3.519205 0,-1.940616 -1.578843,-3.519206 -3.519192,-3.519206 z m 0,-8.2287336 c 0.940916,0 1.706208,0.7656206 1.706208,1.7062797 0,0.9406589 -0.765292,1.7062139 -1.706208,1.7062139 -0.940915,0 -1.706208,-0.765555 -1.706208,-1.7062139 0,-0.9406591 0.765293,-1.7062797 1.706208,-1.7062797 z M 7.280483,4.4603837 c 0,-0.9406586 0.7653576,-1.7062144 1.7062727,-1.7062144 0.9409151,0 1.7062083,0.7655558 1.7062083,1.7062144 0,0.9406588 -0.7652932,1.7062144 -1.7062083,1.7062144 -0.9409151,0 -1.7062727,-0.7655556 -1.7062727,-1.7062144 z m 3.412481,19.9574483 c 0,0.940658 -0.7652932,1.706214 -1.7062083,1.706214 -0.9409151,0 -1.7062727,-0.765556 -1.7062727,-1.706214 0,-0.940659 0.7653576,-1.706215 1.7062727,-1.706215 0.9409151,0 1.7062083,0.765556 1.7062083,1.706215 z M 8.9866257,16.755779 c -1.3122922,0 -2.3798577,-1.067374 -2.3798577,-2.379607 0,-1.312298 1.0675655,-2.379867 2.3798577,-2.379867 1.3122273,0 2.3797933,1.067569 2.3797933,2.379867 0,1.312233 -1.067566,2.379607 -2.3797933,2.379607 z m 8.5622793,4.36322 c -0.940915,0 -1.706208,-0.76562 -1.706208,-1.706279 0,-0.940659 0.765293,-1.706214 1.706208,-1.706214 0.940916,0 1.706208,0.765555 1.706208,1.706214 0,0.940659 -0.765292,1.706279 -1.706208,1.706279 z"
     id="path1056"
     style="stroke-width:0.896347" />
  <g
     transform="matrix(0.44,0,0,0.44,18.771035,18.310575)"
     id="g939"
     style="fill-opacity:1">
    <path
       fill="#f5a800"
       d="m 12.821371,12.833219 c -1.339686,1.353665 -1.339686,3.548535 0,4.9022 1.339687,1.353666 3.511911,1.353666 4.851629,0 1.339719,-1.353665 1.339687,-3.548535 0,-4.9022 -1.339687,-1.353665 -3.511909,-1.353665 -4.851629,0 z m 3.62674,3.667776 c -0.663432,0.670391 -1.738416,0.670391 -2.401883,0 -0.663432,-0.670391 -0.663432,-1.756519 0,-2.426909 0.663467,-0.670392 1.738418,-0.670392 2.401883,0 0.663498,0.66717 0.663498,1.756518 0,2.426909 z m 1.167458,-20.7239453 -2.102037,2.1239742 c -0.411453,0.4157677 -0.411453,1.09904421 0,1.51481195 l 8.207224,8.29277355 c 0.411452,0.4158016 1.087673,0.4158016 1.49919,0 l 2.102037,-2.1239405 c 0.411485,-0.4157692 0.411485,-1.0990442 0,-1.5148134 l -8.21041,-8.2928058 c -0.411485,-0.4157678 -1.084518,-0.4157678 -1.496004,0 z M 2.8884867,22.918009 c 0.3731873,-0.377086 0.3731873,-0.992686 0,-1.369771 L 1.8199133,20.468519 c -0.3731873,-0.377117 -0.98244334,-0.377117 -1.355663,0 l -2.2073327,2.230298 -0.00322,0.0032 -0.6060349,-0.612381 c -0.3349216,-0.338399 -0.8804014,-0.338399 -1.2121342,0 -0.3349216,0.338402 -0.3349216,0.889552 0,1.224761 l 3.63630607,3.67425 c 0.33492162,0.338402 0.88036916,0.338402 1.21213423,0 0.331765,-0.3384 0.3348894,-0.889549 0,-1.22476 l -0.60606712,-0.612381 0.003223,-0.0032 2.20730052,-2.23033 z"
       id="path935"
       style="fill-opacity:1;stroke-width:3.22102" />
    <path
       fill="#425cc7"
       d="M 14.007963,1.874988 9.3381604,6.5934601 c -0.4146413,0.4189903 -0.4146413,1.1087073 0,1.5276976 l 2.8835546,2.9136063 c 2.038262,-1.4825711 4.896273,-1.2988775 6.730385,0.554368 l 2.334886,-2.359234 c 0.414641,-0.418991 0.414641,-1.1087403 0,-1.5276983 L 15.519943,1.874988 c -0.414675,-0.4222112 -1.097305,-0.4222112 -1.511948,0 v 0 z M 11.009612,12.262746 9.3062724,10.541657 c -0.3987296,-0.402853 -1.0525972,-0.402853 -1.4513271,0 l -6.0063006,6.07217 c -0.3986977,0.402884 -0.3986977,1.063614 0,1.466467 l 3.4034908,3.438955 c 0.398698,0.402884 1.0526294,0.402884 1.4513272,0 l 3.8628083,-3.909513 c -0.8165607,-1.704951 -0.6698438,-3.764472 0.443374,-5.34696 v 0 z"
       id="path937"
       style="fill-opacity:1;stroke-width:3.22102" />
  </g>
</svg>
