<svg width="800" height="572" viewBox="0 0 800 572" fill="none" xmlns="http://www.w3.org/2000/svg">
<path d="M77.7476 32.4624C73.7123 28.4115 68.1139 25.9159 61.8729 25.9159C55.6476 25.9159 50.0923 28.4115 46.1079 32.4624H46.0061C41.9825 36.4859 39.4869 42.1001 39.4869 48.3019C39.4869 54.5389 41.9825 60.1178 46.0061 64.1021L46.1079 64.2118C50.0923 68.2275 55.6476 70.6878 61.8729 70.6878C68.1139 70.6878 73.7123 68.2275 77.7476 64.2118L77.7946 64.1021C81.8338 60.1178 84.2981 54.5389 84.2981 48.3019C84.2981 42.1001 81.8338 36.4859 77.7946 32.4624H77.7476ZM61.8729 338.908C68.1139 338.908 73.7123 336.366 77.7476 332.389L77.7946 332.272C81.8338 328.303 84.2981 322.689 84.2981 316.518C84.2981 310.281 81.8338 304.695 77.7946 300.651H77.7476C73.7123 296.561 68.1139 294.089 61.8729 294.089C55.6476 294.089 50.0923 296.561 46.1079 300.651H46.0061C41.9825 304.695 39.4869 310.281 39.4869 316.518C39.4869 322.689 41.9825 328.303 46.0061 332.272L46.1079 332.389C50.0923 336.366 55.6476 338.908 61.8729 338.908ZM183.844 271.08C189.388 269.623 194.406 266.066 197.474 260.683L197.885 259.895C200.612 254.798 201.109 248.906 199.652 243.676C198.183 238.093 194.586 233.141 189.215 230.058L188.898 229.846C183.664 226.97 177.709 226.344 172.232 227.836C166.665 229.227 161.662 232.933 158.614 238.269C155.527 243.574 154.884 249.67 156.361 255.28C157.885 260.8 161.454 265.788 166.794 268.906H166.825C172.177 271.981 178.226 272.534 183.844 271.08ZM84.8348 159.472C78.9582 153.611 70.8485 149.936 61.8729 149.936C52.9091 149.936 44.8229 153.611 38.958 159.472C33.1128 165.325 29.5084 173.399 29.5084 182.375C29.5084 191.35 33.1128 199.46 38.958 205.38C44.8229 211.206 52.9091 214.845 61.8729 214.845C70.8485 214.845 78.9582 211.206 84.8348 205.38C90.6957 199.46 94.3001 191.35 94.3001 182.375C94.3001 173.399 90.6957 165.325 84.8348 159.472ZM71.9219 121.317C84.9523 123.464 96.6507 129.705 105.595 138.712H105.662C107.084 140.13 108.467 141.693 109.756 143.252L132.106 130.324C129.101 121.242 128.96 111.75 131.378 102.845C134.563 90.923 142.292 80.251 153.881 73.5635L154.257 73.3245C165.721 66.8406 178.747 65.489 190.504 68.6741C202.414 71.8671 213.157 79.632 219.844 91.2011V91.2364C226.5 102.743 227.848 115.946 224.675 127.832C221.505 139.75 213.748 150.496 202.171 157.145L199.119 158.947H198.81C188.103 164.044 176.33 164.843 165.517 161.995C156.639 159.644 148.498 154.684 142.12 147.652L119.801 160.545C122.367 167.331 123.785 174.645 123.785 182.375C123.785 190.065 122.367 197.486 119.801 204.306L142.12 217.164C148.498 210.022 156.639 205.176 165.517 202.818C177.431 199.562 190.633 200.945 202.171 207.672L202.912 208.016V208.052C214.058 214.81 221.541 225.239 224.675 237.02C227.848 248.835 226.5 262.046 219.844 273.576L219.441 274.379L219.394 274.313C212.71 285.427 202.171 292.957 190.539 296.142C178.61 299.288 165.403 297.944 153.881 291.316V291.225C142.292 284.526 134.563 273.831 131.378 261.932C128.96 253.067 129.101 243.574 132.106 234.496L109.756 221.599C108.467 223.159 107.084 224.651 105.662 226.069L105.595 226.14C96.6507 235.115 84.9523 241.353 71.9219 243.429V269.255C81.207 271.194 89.5204 275.836 96.0317 282.352L96.067 282.418C104.796 291.108 110.202 303.214 110.202 316.518C110.202 329.784 104.796 341.819 96.067 350.552L96.0317 350.689C87.2403 359.418 75.1815 364.824 61.8729 364.824C48.6349 364.824 36.5447 359.418 27.7729 350.689H27.7376V350.552C19.0011 341.819 13.5828 329.784 13.5828 316.518C13.5828 303.214 19.0011 291.108 27.7376 282.418V282.352H27.7729C34.2803 275.836 42.6094 271.194 51.8592 269.255V243.429C38.8327 241.353 27.1539 235.115 18.2253 226.14L18.1313 226.069C6.98142 214.88 0 199.46 0 182.375C0 165.325 6.98142 149.905 18.1313 138.712H18.2253C27.1539 129.705 38.8327 123.464 51.8592 121.317V95.6008C42.6094 93.5949 34.2803 88.9523 27.7729 82.4724H27.7376V82.4019C19.0011 73.634 13.5828 61.6104 13.5828 48.3019C13.5828 35.0638 19.0011 22.9345 27.7376 14.2018L27.7729 14.1666C36.5447 5.40257 48.6349 0 61.8729 0C75.1815 0 87.2403 5.40257 96.0317 14.1666V14.2018H96.067C104.796 22.9345 110.202 35.0638 110.202 48.3019C110.202 61.6104 104.796 73.634 96.067 82.4019L96.0317 82.4724C89.5204 88.9523 81.207 93.5949 71.9219 95.6008V121.317ZM197.474 104.165L197.282 103.883C194.203 98.6879 189.282 95.2247 183.844 93.732C178.226 92.2393 172.177 92.8662 166.794 95.9534H166.825C161.454 99.0014 157.862 103.985 156.361 109.571C154.884 115.115 155.527 121.242 158.614 126.582L158.72 126.719C161.811 131.989 166.735 135.523 172.232 136.945C177.756 138.508 183.911 137.846 189.215 134.759L189.501 134.621C194.724 131.503 198.203 126.582 199.652 121.176C201.133 115.597 200.541 109.501 197.474 104.165Z" fill="#1A1919"/>
<path d="M296.648 111.718H321.588V187.848L357.553 148.067H387.457L344.037 194.155L387.637 252.577H359.081L321.588 200.393V252.577H296.648V111.718ZM416.429 200.773C416.429 213.736 425.753 232.585 448.217 232.585C462.117 232.585 471.265 225.341 476.01 215.848C478.493 211.241 479.637 206.316 480.021 201.192C480.194 196.232 479.257 191.076 477.15 186.496C472.778 176.624 463.073 168.063 448.033 168.063C427.865 168.063 416.429 184.416 416.429 200.6V200.773ZM504.762 252.577H479.81V237.541C473.169 249.701 459.265 255.805 444.601 255.805C411.093 255.805 391.492 229.709 391.492 200.22C391.492 167.299 415.285 144.843 444.601 144.843C463.637 144.843 475.246 154.931 479.81 163.315V148.067H504.762V252.577ZM533.001 167.299H520.076V148.067H533.001V142.179C533.001 111.127 556.613 109.254 574.517 109.046V128.243C568.222 128.243 557.953 128.243 557.953 142.935V148.067H574.517V167.299H557.953V252.577H533.001V167.299ZM591.477 111.718H616.41V187.848L652.383 148.067H682.287L638.866 194.155L682.459 252.577H653.903L616.41 200.393V252.577H591.477V111.718ZM711.258 200.773C711.258 213.736 720.579 232.585 743.047 232.585C756.928 232.585 766.075 225.341 770.828 215.848C773.319 211.241 774.467 206.316 774.843 201.192C775.016 196.232 774.079 191.076 771.968 186.496C767.603 176.624 757.899 168.063 742.863 168.063C722.69 168.063 711.258 184.416 711.258 200.6V200.773ZM799.584 252.577H774.64V237.541C767.979 249.701 754.087 255.805 739.431 255.805C705.922 255.805 686.338 229.709 686.338 200.22C686.338 167.299 710.122 144.843 739.431 144.843C758.455 144.843 770.075 154.931 774.64 163.315V148.067H799.584V252.577Z" fill="#1A1919"/>
<path d="M705.692 480.552C697.495 488.755 697.495 502.049 705.692 510.252C713.895 518.449 727.189 518.449 735.386 510.252C743.589 502.049 743.589 488.755 735.386 480.552C727.189 472.355 713.895 472.355 705.692 480.552ZM727.891 502.769C726.926 503.736 725.78 504.502 724.518 505.025C723.257 505.548 721.905 505.818 720.539 505.818C719.173 505.818 717.821 505.548 716.56 505.025C715.298 504.502 714.152 503.736 713.188 502.769C712.222 501.804 711.456 500.659 710.934 499.398C710.411 498.137 710.142 496.785 710.142 495.42C710.142 494.055 710.411 492.704 710.934 491.443C711.456 490.182 712.222 489.036 713.188 488.071C714.152 487.105 715.298 486.338 716.56 485.815C717.821 485.292 719.173 485.023 720.539 485.023C721.905 485.023 723.257 485.292 724.518 485.815C725.78 486.338 726.926 487.105 727.891 488.071C731.95 492.112 731.95 498.71 727.891 502.769ZM735.039 377.232L722.172 390.097C720.961 391.318 720.281 392.968 720.281 394.687C720.281 396.407 720.961 398.057 722.172 399.277L772.405 449.51C773.625 450.721 775.275 451.401 776.995 451.401C778.714 451.401 780.364 450.721 781.584 449.51L794.45 436.643C796.966 434.127 796.966 429.985 794.45 427.471L744.195 377.23C742.978 376.022 741.332 375.344 739.617 375.344C737.902 375.344 736.256 376.023 735.039 377.232ZM644.895 541.643C645.992 540.541 646.608 539.049 646.608 537.494C646.608 535.939 645.992 534.448 644.895 533.346L638.359 526.804C637.256 525.707 635.764 525.092 634.209 525.092C632.653 525.092 631.161 525.707 630.058 526.804L616.552 540.318L616.527 540.337L612.822 536.626C610.77 534.574 607.431 534.574 605.4 536.626C603.348 538.676 603.348 542.015 605.4 544.047L627.659 566.301C628.146 566.788 628.724 567.175 629.36 567.439C629.996 567.702 630.678 567.838 631.367 567.838C632.056 567.838 632.738 567.702 633.374 567.439C634.01 567.175 634.588 566.788 635.075 566.301C637.106 564.249 637.127 560.91 635.075 558.885L631.364 555.174L631.389 555.155L644.895 541.643Z" fill="#F5A800"/>
<path d="M712.956 414.171L684.373 442.752C681.834 445.291 681.834 449.472 684.373 452.012L702.023 469.657C714.498 460.679 731.992 461.79 743.216 473.021L757.509 458.726C760.044 456.187 760.044 452.012 757.509 449.472L722.211 414.171C721.604 413.563 720.882 413.08 720.089 412.751C719.295 412.422 718.444 412.253 717.584 412.253C716.725 412.253 715.874 412.422 715.08 412.751C714.286 413.08 713.564 413.563 712.956 414.171ZM694.602 477.096L684.177 466.671C681.734 464.23 677.731 464.23 675.295 466.671L638.53 503.452C637.357 504.633 636.699 506.231 636.699 507.895C636.699 509.56 637.357 511.157 638.53 512.338L659.359 533.169C660.541 534.343 662.138 535.001 663.803 535.001C665.468 535.001 667.065 534.343 668.247 533.169L691.891 509.487C686.892 499.16 687.789 486.685 694.602 477.096Z" fill="#425CC7"/>
</svg>
