<?xml version="1.0" encoding="UTF-8"?>
<svg width="64px" height="64px" viewBox="0 0 64 64" version="1.1" xmlns="http://www.w3.org/2000/svg" xmlns:xlink="http://www.w3.org/1999/xlink">
    <!-- Generator: Sketch 63.1 (92452) - https://sketch.com -->
    <title>uptime-logo-color-64px</title>
    <desc>Created with Sketch.</desc>
    <g id="uptime-logo-color-64px" stroke="none" stroke-width="1" fill="none" fill-rule="evenodd">
        <rect id="bounding-box" x="0" y="0" width="64" height="64"></rect>
        <g id="group" transform="translate(5.000000, 5.000000)">
            <path d="M43.0313,11.6577 L32.0623,21.7827 L32.0623,25.1577 C32.0623,28.9047 31.2443,32.4577 29.7813,35.6547 C33.4043,38.5837 38.0103,40.3447 43.0313,40.3447 C45.9413,40.3447 48.7133,39.7557 51.2343,38.6897 L51.2813,38.6637 C53.0223,35.0947 54.0003,31.0847 54.0003,26.8457 L54.0003,21.7827 L43.0313,11.6577 Z" id="Fill-1" fill="#3EBEB0"></path>
            <path d="M30.1631,53.6445 C30.7851,53.5715 31.4011,53.4765 32.0111,53.3625 C32.2121,53.3245 32.4171,53.2935 32.6171,53.2515 C33.3671,53.0925 34.1041,52.9015 34.8301,52.6825 C35.0701,52.6095 35.3041,52.5235 35.5411,52.4435 C36.0391,52.2775 36.5301,52.0985 37.0161,51.9045 C37.3091,51.7865 37.6001,51.6685 37.8881,51.5405 C38.3441,51.3395 38.7881,51.1195 39.2301,50.8945 C39.7111,50.6485 40.1821,50.3885 40.6441,50.1155 C40.9781,49.9195 41.3111,49.7235 41.6351,49.5135 C42.0031,49.2745 42.3631,49.0245 42.7181,48.7685 C42.9331,48.6145 43.1431,48.4545 43.3531,48.2935 C44.6601,47.2915 45.8771,46.1795 46.9791,44.9595 C47.0391,44.8945 47.1001,44.8295 47.1581,44.7635 C48.7741,42.9425 50.1501,40.9025 51.2331,38.6925 C51.2341,38.6915 51.2341,38.6905 51.2341,38.6895 C48.7131,39.7555 45.9401,40.3455 43.0311,40.3455 C38.0101,40.3455 33.4031,38.5835 29.7821,35.6545 C26.5931,42.6235 20.3271,47.8885 12.7231,49.7315 L12.7241,49.7315 C14.1841,50.6445 15.7401,51.4165 17.3681,52.0445 C17.6081,52.1365 17.8501,52.2245 18.0921,52.3095 C18.5131,52.4575 18.9341,52.6045 19.3631,52.7325 C20.0111,52.9225 20.6651,53.0955 21.3311,53.2385 C21.5981,53.2955 21.8711,53.3355 22.1411,53.3855 C22.6891,53.4855 23.2431,53.5725 23.8031,53.6395 C24.0581,53.6695 24.3111,53.6995 24.5681,53.7225 C25.3711,53.7935 26.1791,53.8455 27.0001,53.8455 C27.8311,53.8455 28.6491,53.7945 29.4621,53.7205 C29.6961,53.6995 29.9301,53.6715 30.1631,53.6445" id="Fill-3" fill="#343741"></path>
            <path d="M11.5449,44.8721 C18.4809,43.1911 23.8199,38.1111 25.9939,31.6531 C23.4539,28.1701 21.9379,23.8931 21.9379,19.2511 L21.9379,19.2511 L21.9379,0.3361 C9.4479,2.7071 -0.0001,13.6661 -0.0001,26.8451 C-0.0001,34.2271 2.9649,40.9141 7.7659,45.7881 L11.5449,44.8721 Z" id="Fill-5" fill="#0077CC"></path>
        </g>
    </g>
</svg>
