<svg xmlns="http://www.w3.org/2000/svg" width="32" height="32" viewBox="0 0 32 32">
  <g transform="translate(1, 2) scale(0.133)">
    <path fill="#3DDC84" d="M 143.101562 82.859375 C 138.601562 82.859375 134.941406 79.183594 134.941406 74.671875 C 134.941406 70.160156 138.601562 66.492188 143.101562 66.492188 C 147.605469 66.492188 151.265625 70.160156 151.265625 74.671875 C 151.265625 79.1875 147.605469 82.859375 143.101562 82.859375 M 52.894531 82.859375 C 48.394531 82.859375 44.734375 79.183594 44.734375 74.671875 C 44.734375 70.160156 48.394531 66.492188 52.894531 66.492188 C 57.394531 66.492188 61.054688 70.160156 61.054688 74.671875 C 61.054688 79.1875 57.394531 82.859375 52.894531 82.859375 M 146.03125 33.570312 L 162.339844 5.25 C 163.277344 3.621094 162.71875 1.542969 161.097656 0.601562 C 159.476562 -0.335938 157.402344 0.222656 156.464844 1.847656 L 139.949219 30.527344 C 127.316406 24.75 113.132812 21.53125 98 21.53125 C 82.863281 21.53125 68.679688 24.75 56.050781 30.527344 L 39.53125 1.847656 C 38.59375 0.222656 36.519531 -0.335938 34.898438 0.601562 C 33.273438 1.542969 32.71875 3.621094 33.65625 5.25 L 49.96875 33.570312 C 21.957031 48.84375 2.800781 77.269531 0 110.855469 L 195.996094 110.855469 C 193.191406 77.269531 174.035156 48.84375 146.03125 33.570312"/>
  </g>
  <g transform="translate(14.5, 11) scale(0.14)">
    <path fill="#f5a800" d="M67.648 69.797c-5.246 5.25-5.246 13.758 0 19.008 5.25 5.246 13.758 5.246 19.004 0 5.25-5.25 5.25-13.758 0-19.008-5.246-5.246-13.754-5.246-19.004 0Zm14.207 14.219a6.649 6.649 0 0 1-9.41 0 6.65 6.65 0 0 1 0-9.407 6.649 6.649 0 0 1 9.41 0c2.598 2.586 2.598 6.809 0 9.407ZM86.43 3.672l-8.235 8.234a4.17 4.17 0 0 0 0 5.875l32.149 32.149a4.17 4.17 0 0 0 5.875 0l8.234-8.235c1.61-1.61 1.61-4.261 0-5.87L92.29 3.671a4.159 4.159 0 0 0-5.86 0ZM28.738 108.895a3.763 3.763 0 0 0 0-5.31l-4.183-4.187a3.768 3.768 0 0 0-5.313 0l-8.644 8.649-.016.012-2.371-2.375c-1.313-1.313-3.45-1.313-4.75 0-1.313 1.312-1.313 3.449 0 4.75l14.246 14.242a3.353 3.353 0 0 0 4.746 0c1.3-1.313 1.313-3.45 0-4.746l-2.375-2.375.016-.012Zm0 0"/>
    <path fill="#425cc7" d="M72.297 27.313 54.004 45.605c-1.625 1.625-1.625 4.301 0 5.926L65.3 62.824c7.984-5.746 19.18-5.035 26.363 2.153l9.148-9.149c1.622-1.625 1.622-4.297 0-5.922L78.22 27.313a4.185 4.185 0 0 0-5.922 0ZM60.55 67.585l-6.672-6.672c-1.563-1.562-4.125-1.562-5.684 0l-23.53 23.54a4.036 4.036 0 0 0 0 5.687l13.331 13.332a4.036 4.036 0 0 0 5.688 0l15.132-15.157c-3.199-6.609-2.625-14.593 1.735-20.73Zm0 0"/>
  </g>
</svg>
