<?xml version="1.0" encoding="UTF-8"?>
<svg xmlns="http://www.w3.org/2000/svg" xmlns:xlink="http://www.w3.org/1999/xlink" width="266px" height="150px" viewBox="0 0 196 111" version="1.1">
<g id="surface1">
<path style=" stroke:none;fill-rule:nonzero;fill:rgb(23.921569%,85.882354%,52.156866%);fill-opacity:1;" d="M 143.101562 82.859375 C 138.601562 82.859375 134.941406 79.183594 134.941406 74.671875 C 134.941406 70.160156 138.601562 66.492188 143.101562 66.492188 C 147.605469 66.492188 151.265625 70.160156 151.265625 74.671875 C 151.265625 79.1875 147.605469 82.859375 143.101562 82.859375 M 52.894531 82.859375 C 48.394531 82.859375 44.734375 79.183594 44.734375 74.671875 C 44.734375 70.160156 48.394531 66.492188 52.894531 66.492188 C 57.394531 66.492188 61.054688 70.160156 61.054688 74.671875 C 61.054688 79.1875 57.394531 82.859375 52.894531 82.859375 M 146.03125 33.570312 L 162.339844 5.25 C 163.277344 3.621094 162.71875 1.542969 161.097656 0.601562 C 159.476562 -0.335938 157.402344 0.222656 156.464844 1.847656 L 139.949219 30.527344 C 127.316406 24.75 113.132812 21.53125 98 21.53125 C 82.863281 21.53125 68.679688 24.75 56.050781 30.527344 L 39.53125 1.847656 C 38.59375 0.222656 36.519531 -0.335938 34.898438 0.601562 C 33.273438 1.542969 32.71875 3.621094 33.65625 5.25 L 49.96875 33.570312 C 21.957031 48.84375 2.800781 77.269531 0 110.855469 L 195.996094 110.855469 C 193.191406 77.269531 174.035156 48.84375 146.03125 33.570312 "/>
</g>
</svg>
