<?xml version="1.0" standalone="no"?>
<!DOCTYPE svg PUBLIC "-//W3C//DTD SVG 20010904//EN"
 "http://www.w3.org/TR/2001/REC-SVG-20010904/DTD/svg10.dtd">
<svg version="1.0" xmlns="http://www.w3.org/2000/svg"
 width="251.000000pt" height="201.000000pt" viewBox="0 0 251.000000 201.000000"
 preserveAspectRatio="xMidYMid meet">

<g transform="translate(0.000000,201.000000) scale(0.100000,-0.100000)"
fill="#FFFFFF" stroke="none">
<path d="M355 1168 c-2 -7 -27 -83 -54 -168 l-49 -155 25 -3 c14 -2 29 0 33 5
4 4 29 79 56 165 27 87 51 158 54 158 3 0 29 -74 58 -165 52 -165 53 -165 82
-165 17 0 30 1 30 3 0 1 -24 76 -54 167 l-53 165 -62 3 c-43 2 -63 -1 -66 -10z"/>
<path d="M618 1010 l-3 -170 28 0 c20 0 27 5 27 20 0 18 2 17 25 -5 33 -34 76
-33 117 4 27 24 32 36 35 87 3 47 0 66 -16 92 -35 55 -96 68 -136 27 l-25 -24
0 69 c0 68 -1 70 -25 70 l-24 0 -3 -170z m142 30 c24 -13 42 -66 34 -106 -14
-74 -85 -87 -117 -22 -38 78 17 163 83 128z"/>
<path d="M2210 1010 l0 -170 25 0 25 0 0 170 0 170 -25 0 -25 0 0 -170z"/>
<path d="M955 1065 c-23 -22 -25 -23 -25 -5 0 15 -7 20 -25 20 l-25 0 0 -120
0 -120 25 0 c25 0 25 2 25 78 0 95 14 127 55 127 41 0 55 -32 55 -127 0 -76 0
-78 25 -78 25 0 25 1 25 90 0 95 -14 142 -45 154 -33 12 -66 5 -90 -19z"/>
<path d="M1195 1081 c-64 -28 -95 -123 -60 -187 38 -70 132 -82 190 -24 27 27
30 37 30 90 0 53 -3 63 -31 91 -33 33 -92 46 -129 30z m75 -41 c11 -6 25 -28
31 -49 25 -83 -54 -158 -106 -101 -13 14 -19 36 -19 70 0 74 41 109 94 80z"/>
<path d="M1625 1065 c-23 -22 -25 -23 -25 -5 0 15 -7 20 -25 20 l-25 0 0 -120
0 -120 25 0 c25 0 25 1 25 88 0 73 3 92 18 105 23 21 46 22 66 1 12 -12 16
-37 16 -105 0 -88 0 -89 25 -89 25 0 25 1 25 83 0 89 15 127 50 127 39 0 50
-26 50 -121 0 -88 0 -89 25 -89 l25 0 0 104 c0 101 -1 105 -26 125 -35 27 -66
27 -100 -2 l-27 -23 -23 23 c-30 30 -69 29 -99 -2z"/>
<path d="M1989 1075 c-71 -39 -70 -193 2 -230 41 -22 73 -18 103 11 25 26 26
26 26 5 0 -16 6 -21 25 -21 l25 0 0 120 0 120 -25 0 c-19 0 -25 -5 -25 -22 -1
-20 -2 -21 -13 -7 -29 38 -75 48 -118 24z m110 -51 c42 -53 13 -154 -44 -154
-33 0 -65 44 -65 90 0 46 32 90 65 90 14 0 32 -11 44 -26z"/>
<path d="M1390 960 l0 -120 25 0 c24 0 24 1 27 103 l3 102 38 3 c24 2 37 8 37
18 0 11 -15 14 -65 14 l-65 0 0 -120z"/>
</g>
</svg>
