<?xml version="1.0" encoding="UTF-8"?>
<svg version="1.1" viewBox="0 0 2048 626" width="1280" height="1280" xmlns="http://www.w3.org/2000/svg">
<path transform="translate(1)" d="m0 0h690l15 10 29 19 33 22 16 10 24 16 29 19 27 18 22 14 27 18 67 44 8 5 5-2 19-12 27-18 29-19 27-18 14-9 70-46 32-21 33-22 16-10 27-18h690l-4 4-17 11-49 32-20 13-29 19-26 17-18 12-444 1-16 10-15 10-26 17-75 49-20 13-29 19-20 13-29 19-12 8h384l36-24-334-1 4-4 40-26 29-19 55-36 23-15 12-8h395l-4 4-22 14-15 10-49 32-49 32-75 49-49 32-20 13-29 19-26 17-20 13-11 7h-828l-16-10-15-10-20-13-46-30-75-49-104-68-29-19-20-13-26-17-18-12v-1h395l15 10 23 15 55 36 55 36 15 10v1l-335 1 16 10 21 14h384l-61-40-20-13-75-49-29-19-20-13-26-17-11-7-444-1-15-10-23-15-46-30-75-49z" fill="#E51A94"/>
<path transform="translate(1)" d="m0 0h690l15 10 29 19 33 22 16 10 24 16 29 19 27 18 22 14 27 18 67 44 9 6-5 4-27 18-134 88-102 67-5 3h-141l-16-10-15-10-20-13-46-30-75-49-104-68-29-19-20-13-26-17-18-12v-1h395l15 10 23 15 55 36 55 36 15 10v1l-335 1 16 10 21 14h384l-61-40-20-13-75-49-29-19-20-13-26-17-11-7-444-1-15-10-23-15-46-30-75-49z" fill="#616A75"/>
<path transform="translate(989,196)" d="m0 0 45 30 140 92 67 44 20 13v1h-545l5-4 73-48 181-119z" fill="#EF6CAC"/>
<path transform="translate(1848,473)" d="m0 0h29l13 14 11 14 12 15 13 18 16 23 1 2 1-86h34v150h-29l-15-25-16-25-13-18-13-17-9-11-1 96h-34z" fill="#E51B94"/>
<path transform="translate(26,471)" d="m0 0h35l18 3 15 5 12 7 11 10 7 11 5 12 3 14v29l-4 17-7 14-8 10-8 7-10 6-17 6-18 3h-34l-26-3v-148zm9 29-1 1v94l1 1h21l16-4 8-4 9-9 5-10 3-12v-19l-3-13-5-9-5-6-10-6-9-3-6-1z" fill="#616A75"/>
<path transform="translate(1487,471)" d="m0 0h38l18 3 16 6 14 9 7 7 7 11 5 12 3 15v27l-3 15-6 14-10 13-10 8-16 8-14 4-15 2h-30l-21-2-7-2v-147zm10 29v95l2 1h18l12-2 12-5 10-9 5-9 3-9 1-5v-19l-3-13-5-9-5-6-10-6-9-3-5-1z" fill="#E51B94"/>
<path transform="translate(1343,471)" d="m0 0h36l17 3 13 5 10 6 7 8 5 10 2 9v16l-3 12-6 9-9 8-9 5 12 17 13 21 11 21v2h-38l-5-8-11-19-14-21-5-6-16-1v54l-1 1h-33l-1-1v-147l7-2zm10 29v41h22l12-3 6-4 4-6 1-4v-7l-3-8-6-5-8-3-5-1z" fill="#E51C94"/>
<path transform="translate(1011,473)" d="m0 0h35l1 100 3 10 4 6 5 4 10 3h8l10-3 7-5 4-7 2-10 1-98h34v105l-4 15-5 10-9 10-9 6-9 4-14 3h-24l-17-4-11-6-8-7-7-10-5-14-2-14z" fill="#E51C94"/>
<path transform="translate(920,469)" d="m0 0h23l17 3 15 5 5 3-1 6-8 22-20-7-5-1h-22l-13 4-8 6-6 8-4 10-2 11v17l3 15 6 11 2 4 4 2 8 5 11 3h19l4-1 1-52h33l1 1v74l-8 3-20 4-9 1h-27l-15-3-13-5-12-8-8-8-7-11-4-8-4-14-1-6v-30l4-16 4-10 8-12 5-6 12-9 12-6 14-4z" fill="#E51C94"/>
<path transform="translate(288,469)" d="m0 0h21l17 3 13 4 8 4-2 9-7 19-21-7-5-1h-20l-12 3-9 6-6 7-4 8-3 13v21l4 16 7 11 8 6 9 4 5 1h24v-52l1-1h33v76l-15 4-20 3h-29l-18-4-16-8-10-9-7-8-7-14-4-13-2-17v-11l2-16 5-15 7-12 9-11 11-8 12-6 14-4z" fill="#626B76"/>
<path transform="translate(1736,473)" d="m0 0h33l7 14 15 34 12 30 11 29 13 36 2 7h-37l-9-26-1-6h-60l-3 11-7 21h-36l3-10 12-34 12-31 13-32 11-25 8-17zm15 35-20 52v3h42l-7-20-10-27-4-8z" fill="#E51C94"/>
<path transform="translate(1206,473)" d="m0 0h34l16 35 12 29 14 36 17 47v3h-36l-4-10-7-20v-2l-59 1-11 31h-35l2-9 17-47 11-28 13-31 8-18zm16 35-5 12-12 31-4 10v2h42l-1-5-9-25-10-25z" fill="#E51C94"/>
<path transform="translate(611,473)" d="m0 0h33l15 32 15 36 13 34 13 36 4 12h-37l-11-31-59-1-3 11-7 20-1 1h-35l3-11 19-52 15-37 12-28 10-21zm15 35-16 41-5 14 1 1h41l1-2-15-40-5-13z" fill="#626B75"/>
<path transform="translate(435,473)" d="m0 0h126v28l-1 1h-45v121h-34v-121h-45l-1-1z" fill="#636C77"/>
<path transform="translate(723,473)" d="m0 0h34v121h67v29h-101z" fill="#616A75"/>
<path transform="translate(1622,473)" d="m0 0h35v150h-35z" fill="#E51E95"/>
<path transform="translate(381,473)" d="m0 0h34v150h-34z" fill="#616A75"/>
<path transform="translate(160,473)" d="m0 0h34v150h-34z" fill="#616A75"/>
<path transform="translate(2021,471)" d="m0 0h12l9 5 5 8 1 3v12l-4 9-7 6-6 2h-8l-8-3-5-4-4-8-1-9 2-9 4-6 5-4zm2 4-8 4-4 7-1 3v8l3 8 6 5 2 1h12l6-4 4-7v-13l-5-8-4-3-3-1z" fill="#E62597"/>
<path transform="translate(2018,481)" d="m0 0h13l5 5v6l-3 3 2 5 2 3v3l-5-1-6-8-3-1v9l-5 1zm5 4v8l7-1 1-1v-5l-2-1z" fill="#E62697"/>
</svg>
