<svg xmlns="http://www.w3.org/2000/svg" width="66" height="65.97" viewBox="0 0 66 65.97"><g><path fill="#0052cc" d="M19,30.78h0a1.65,1.65,0,0,0-1.39-.56,1.32,1.32,0,0,0-1,.8L.15,63.87A1.44,1.44,0,0,0,1.44,66H24.32a1.39,1.39,0,0,0,1.29-.79C30.41,55.24,27.44,39.82,19,30.78Z"/><path fill="#0052cc" d="M65.85,63.88C65.54,63.26,35.05,2.27,34.31.75A1.31,1.31,0,0,0,33.21,0h-.05a1.56,1.56,0,0,0-1.3.81h0c-8.26,13.09-9.2,28.9-2.5,42.28l11,22.06a1.43,1.43,0,0,0,1.29.82H64.56a1.45,1.45,0,0,0,1.29-2.09Z"/></g></svg>