<svg id="Layer_1" data-name="Layer 1" xmlns="http://www.w3.org/2000/svg" viewBox="0 0 100 100" xmlns:xlink="http://www.w3.org/1999/xlink">
 <defs>
  <style>
   .cls-1{fill:none;}.cls-2,.cls-3{fill:#fff;}.cls-3{fill-rule:evenodd;}.cls-4{fill:#f78e13;}
  </style>
 </defs>
 <title>
  Artboard 4
 </title>
 <rect class="cls-1" x="7.35937" y="-11.59194" width="85.28125" height="123.18389">
 </rect>
 <path class="cls-2" d="M57.49452,74.21454a1.90572,1.90572,0,0,1-1.90805-1.90441h0a1.90845,1.90845,0,0,1,1.90805-1.91533H60.521a1.60374,1.60374,0,0,0,1.59267-1.5957h0V65.51853a14.97378,14.97378,0,0,1,2.34109-7.1937h0c1.32581-2.31744,3.01006-4.67126,4.64822-7.21008h0c3.303-5.097,6.378-10.84422,6.38766-18.18777h0a25.436,25.436,0,0,0-7.47329-18.03183h0A25.40078,25.40078,0,0,0,49.99514,7.42489h0A25.43923,25.43923,0,0,0,31.973,14.89515h0A25.44274,25.44274,0,0,0,24.50939,32.927h0a28.87094,28.87094,0,0,0,3.998,14.11512h0c2.26285,4.13149,5.04548,7.74623,7.03783,11.24756h0a14.97652,14.97652,0,0,1,2.34048,7.20639h0v3.303a1.59861,1.59861,0,0,0,1.59631,1.5957H42.4988a1.91412,1.91412,0,0,1,1.91472,1.91533h0a1.91143,1.91143,0,0,1-1.91472,1.90441H39.48206a5.41289,5.41289,0,0,1-5.40937-5.41544h0v-3.303a11.51175,11.51175,0,0,0-1.84619-5.32746h0c-1.18025-2.084-2.84449-4.44443-4.54451-7.087h0c-3.3873-5.279-6.98567-11.81281-6.98567-20.15466h0A29.30825,29.30825,0,0,1,49.99514,3.60874h0A29.31226,29.31226,0,0,1,79.30367,32.927h0A32.926,32.926,0,0,1,74.841,48.992h0c-2.4448,4.44383-5.296,8.11377-7.06449,11.22815h0a11.22545,11.22545,0,0,0-1.84621,5.29838h0V68.7991A5.41677,5.41677,0,0,1,60.521,74.21454H57.49452Z">
 </path>
 <path class="cls-2" d="M63.6317,78.847a1.91811,1.91811,0,0,1-1.91409,1.91468H38.27637A1.917,1.917,0,0,1,36.36768,78.847h0a1.91285,1.91285,0,0,1,1.90869-1.90805H61.71761A1.914,1.914,0,0,1,63.6317,78.847Z">
 </path>
 <path class="cls-2" d="M63.6317,86.66478a1.91377,1.91377,0,0,1-1.91409,1.905H38.27637a1.91261,1.91261,0,0,1-1.90869-1.905h0a1.91325,1.91325,0,0,1,1.90869-1.908H61.71761a1.9144,1.9144,0,0,1,1.91409,1.908Z">
 </path>
 <path class="cls-3" d="M39.77442,92.56846s1.606,3.82273,10.08426,3.82273c8.47766,0,10.09035-3.82273,10.09035-3.82273Z">
 </path>
 <path class="cls-4" d="M49.99514,60.36935a1.98307,1.98307,0,0,1-1.33308-.45791,3.44919,3.44919,0,0,1-.83212-.95281l-3.719-7.80142V65.18739a1.48736,1.48736,0,0,1-.5198,1.08866,2.00083,2.00083,0,0,1-1.398.49127,2.142,2.142,0,0,1-1.45621-.49127,1.41665,1.41665,0,0,1-.55252-1.08866v-18.955a1.43817,1.43817,0,0,1,.55252-1.09231,2.157,2.157,0,0,1,1.45621-.4846h.57254a2.92662,2.92662,0,0,1,1.43983.32206,2.19916,2.19916,0,0,1,.8679.85456l4.92175,9.91139,4.93449-9.91139a2.63214,2.63214,0,0,1,.90065-.89039,2.5201,2.5201,0,0,1,1.43984-.31837l.53675.03214a2.11975,2.11975,0,0,1,1.46591.4846,1.45251,1.45251,0,0,1,.54649,1.09231v18.955a1.43055,1.43055,0,0,1-.54649,1.08866,2.105,2.105,0,0,1-1.46591.49127,1.92652,1.92652,0,0,1-1.3622-.49127,1.4636,1.4636,0,0,1-.51977-1.08866V51.15721l-3.75181,7.80142a3.131,3.131,0,0,1-.80665.95281A2.00058,2.00058,0,0,1,49.99514,60.36935Z">
 </path>
</svg>