<svg xmlns="http://www.w3.org/2000/svg" viewBox="0 0 512 512" width="512" height="512">
  <!-- AWS CloudWatch logo (main) -->
  <svg x="28" y="14" width="356" height="404" viewBox="0 0 256 290" preserveAspectRatio="xMidYMid meet">
    <path d="M256 199.305l-127.957-18.797L0 199.329l128.01 47.439L256 199.305" fill="#B7CA9D"/>
    <path d="M25.621 197.113l21.63 6.761 1.971-2.238V50.284l-1.971-2.585-21.63 8.274v141.14" fill="#4B612C"/>
    <path d="M123.832 190.423l-76.581 13.451V47.703l76.581 17.222v125.498" fill="#759C3E"/>
    <path d="M89.686 216.889l-29.848-9.201V14.928L89.686.004l2.612 2.845v210.858l-2.612 3.182" fill="#4B612C"/>
    <path d="M191.967 192.894L89.686 216.889V0l102.281 39.866v153.028" fill="#759C3E"/>
    <path d="M127.965 244.714L0 199.329v26.324l127.965 63.983v-44.922" fill="#4B612C"/>
    <path d="M256 225.622l-128.035 64.014v-44.922L256 199.305v26.317" fill="#759C3E"/>
    <path d="M220.039 155.692h-31.026l-88.445 6.026L128 166.775l92.039-11.083" fill="#B7CA9D"/>
    <path d="M100.568 219.906l27.42 8.226.789-.849-.023-61.849-.789-.758-27.397-2.958v58.188" fill="#4B612C"/>
    <path d="M220.039 155.692l-92.074 8.98.023 63.46 92.051-27.711v-44.729" fill="#759C3E"/>
  </svg>

  <!-- OpenTelemetry badge (smaller, bottom-right) -->
  <circle cx="388" cy="388" r="112" fill="#FFFFFF" stroke="#E3E6EB" stroke-width="4"/>
  <svg x="316" y="316" width="144" height="144" viewBox="195 188 128 128" preserveAspectRatio="xMidYMid meet">
    <path d="M0 0 C2.1550293 -0.3034668 2.1550293 -0.3034668 5 0 C7.05916943 1.56187616 8.72961139 3.02759285 10.51953125 4.85546875 C11.02296555 5.35411942 11.52639984 5.85277008 12.04508972 6.36653137 C13.10416899 7.42221421 14.15698419 8.48421378 15.20385742 9.55200195 C16.80728067 11.18219354 18.43561541 12.78400248 20.06835938 14.38476562 C21.09535696 15.41506735 22.12080238 16.44691909 23.14453125 17.48046875 C23.6319429 17.95775925 24.11935455 18.43504974 24.62153625 18.92680359 C26.77646358 21.1581667 27.93505465 22.59017889 28.42651367 25.69140625 C27.79864743 29.08986258 25.99560789 30.49019821 23.5 32.8125 C22.6646875 33.60269531 21.829375 34.39289063 20.96875 35.20703125 C20.3190625 35.79871094 19.669375 36.39039063 19 37 C18.45472656 36.6390625 17.90945313 36.278125 17.34765625 35.90625 C11.78490213 32.48301669 7.52550604 30.89709757 1 32 C-1.79814628 32.82078958 -4.31728157 33.82935923 -7 35 C-9.03660426 33.09797311 -11.05331336 31.18061509 -13.0625 29.25 C-13.64322266 28.71117187 -14.22394531 28.17234375 -14.82226562 27.6171875 C-16.47265625 26.015625 -16.47265625 26.015625 -19 23 C-18.10454064 14.5425442 -7.18192682 7.12968396 -1 2 C-0.67 1.34 -0.34 0.68 0 0 Z " fill="#5160A6" transform="translate(265,218)"/>
    <path d="M0 0 C2.85770288 1.95299397 5.20128921 4.36068837 7.62109375 6.82421875 C8.32524918 7.52263382 9.0294046 8.22104889 9.75489807 8.94062805 C11.2371343 10.41878629 12.7118401 11.90452905 14.17944336 13.3972168 C16.43309546 15.6830326 18.71700189 17.93504601 21.00585938 20.18554688 C22.44203236 21.62568385 23.87634347 23.06768049 25.30859375 24.51171875 C25.99489365 25.18587326 26.68119354 25.86002777 27.38829041 26.55461121 C31.99091077 31.29732316 31.99091077 31.29732316 32.03637695 34.81225586 C30.67490116 37.68626872 28.98698997 39.61578828 26.75 41.875 C25.98171875 42.67679688 25.2134375 43.47859375 24.421875 44.3046875 C22 46 22 46 19.56869507 45.79168701 C16.77914457 44.93193105 15.5419497 44.05734401 13.47900391 42.02832031 C12.83548981 41.40387024 12.19197571 40.77942017 11.52896118 40.13604736 C10.85166962 39.45693298 10.17437805 38.7778186 9.4765625 38.078125 C8.41820694 37.03262482 8.41820694 37.03262482 7.33847046 35.96600342 C5.85255654 34.49156128 4.37183721 33.01186818 2.89599609 31.52734375 C0.62955423 29.25456695 -1.66225974 27.00975124 -3.95703125 24.765625 C-5.39745292 23.32974788 -6.83631037 21.89229952 -8.2734375 20.453125 C-9.30759293 19.44659882 -9.30759293 19.44659882 -10.36264038 18.41973877 C-14.99441126 13.69558788 -14.99441126 13.69558788 -15.02270508 10.17407227 C-13.78037118 7.5331118 -12.36579946 5.76426574 -10.3125 3.6875 C-9.64863281 2.99011719 -8.98476563 2.29273438 -8.30078125 1.57421875 C-5.15035711 -0.58133461 -3.78522711 -0.59620793 0 0 Z " fill="#EAAC45" transform="translate(284,196)"/>
    <path d="M0 0 C3.55613068 0.72739037 5.13383123 2.30521597 7.7109375 4.76171875 C9.18463216 7.31575349 8.3745176 8.7081343 7.75 11.5625 C7.97287462 13.47111719 8.19618186 15.37968975 8.42504883 17.28759766 C9.01202228 23.59881647 8.65563139 27.97219872 4.58984375 33.046875 C-4.91229187 43.3023587 -4.91229187 43.3023587 -9.8125 43.84765625 C-13.47543673 41.91639634 -16.165613 39.30418229 -19.0625 36.375 C-19.9587207 35.52711914 -19.9587207 35.52711914 -20.87304688 34.66210938 C-23.64504217 31.89645007 -25.1011539 30.29148721 -25.8984375 26.38671875 C-25.0802273 22.82306832 -23.91771434 21.79823064 -21.0625 19.5625 C-18.32396436 17.31527731 -15.80196084 15.23749676 -13.625 12.4375 C-11.22845862 9.53642359 -8.7190144 7.30585305 -5.80078125 4.95703125 C-0.39936954 0.09984239 -0.39936954 0.09984239 0 0 Z " fill="#5463A7" transform="translate(244.25,249.4375)"/>
    <path d="M0 0 C3.45658479 2.04573386 4.7785359 3.66780385 7 7 C7.73981114 11.99802641 7.51803233 15.96393533 5.25 20.5 C2.54455804 23.50604662 0.59964546 24.75290029 -3.40234375 25.37109375 C-10.2847074 25.55137138 -10.2847074 25.55137138 -14 22.6875 C-18.07717332 17.20879835 -18.89576073 13.75597848 -18 7 C-13.5497348 -0.3659562 -8.02430824 -0.97513556 0 0 Z " fill="#E9AE4C" transform="translate(275,256)"/>
    <path d="M0 0 C3.36392694 1.51376712 5.24658696 3.20881842 7.5 6.125 C7.75 8.5 7.75 8.5 6.5 11.125 C5.31782847 12.31816848 4.10635534 13.48265829 2.875 14.625 C0.96526273 16.33288185 0.96526273 16.33288185 -0.5 18.125 C-0.63210475 20.99420862 -0.63210475 20.99420862 0.5 23.125 C-2.81132919 23.812257 -4.29837634 24.03121385 -7.5 23.125 C-9.69585235 21.45005103 -11.56168287 19.86826157 -13.5 17.9375 C-13.99282471 17.45563232 -14.48564941 16.97376465 -14.9934082 16.47729492 C-17.27231401 14.07274526 -18.44839003 12.59787637 -18.8125 9.26171875 C-18.709375 8.55660156 -18.60625 7.85148437 -18.5 7.125 C-14.87471432 6.92359524 -12.63498292 7.26723235 -9.5 9.125 C-9.273125 8.568125 -9.04625 8.01125 -8.8125 7.4375 C-6.70386605 3.7222878 -4.52348071 0.22617404 0 0 Z " fill="#E9AD4B" transform="translate(217.5,285.875)"/>
    <path d="M0 0 C0.99 0.66 1.98 1.32 3 2 C3.36328125 3.875 3.36328125 3.875 3.3125 6 C3.30863281 6.70125 3.30476563 7.4025 3.30078125 8.125 C3 10 3 10 1 12 C-2.4375 12.375 -2.4375 12.375 -6 12 C-8 10.3125 -8 10.3125 -9 8 C-8.86080792 5.14656236 -8.36922147 3.53537114 -6.75 1.1875 C-4.35314675 -0.43893614 -2.84209638 -0.35526205 0 0 Z " fill="#FBF8F1" transform="translate(272,262)"/>
  </svg>
</svg>
