<?xml version="1.0" encoding="UTF-8"?>
<svg width="86px" height="86px" viewBox="0 0 86 86" xmlns="http://www.w3.org/2000/svg" xmlns:xlink="http://www.w3.org/1999/xlink">
  <svg width="64px" height="64px" viewBox="0 0 64 64" version="1.1" xmlns="http://www.w3.org/2000/svg" xmlns:xlink="http://www.w3.org/1999/xlink">
      <title>Icon-Architecture/48/Arch_Amazon-RDS_48</title>
      <g id="Icon-Architecture/48/Arch_Amazon-RDS_48" stroke="none" stroke-width="1" fill="none" fill-rule="evenodd">
          <g id="Icon-Architecture-BG/48/Database" fill="#C925D1">
              <rect id="Rectangle" x="0" y="0" width="64" height="64"></rect>
          </g>
          <path d="M54,11 L54,19 L52,19 L52,13.414 L45.707,19.707 L44.293,18.293 L50.586,12 L45.125,12 L45.125,10 L53,10 C53.553,10 54,10.448 54,11 L54,11 Z M12,18.875 L10,18.875 L10,11 C10,10.448 10.447,10 11,10 L19,10 L19,12 L13.414,12 L19.707,18.293 L18.293,19.707 L12,13.414 L12,18.875 Z M19.707,45.707 L13.414,52 L18.875,52 L18.875,54 L11,54 C10.447,54 10,53.552 10,53 L10,45 L12,45 L12,50.586 L18.293,44.293 L19.707,45.707 Z M51.5,31.781 C51.5,29.352 48.634,26.932 43.833,25.307 L44.474,23.413 C50.21,25.354 53.5,28.404 53.5,31.781 C53.5,35.158 50.21,38.208 44.474,40.15 L43.833,38.255 C48.634,36.631 51.5,34.21 51.5,31.781 L51.5,31.781 Z M12.543,31.781 C12.543,34.105 15.224,36.46 19.715,38.081 L19.035,39.961 C13.639,38.014 10.543,35.033 10.543,31.781 C10.543,28.53 13.639,25.548 19.035,23.601 L19.715,25.482 C15.224,27.103 12.543,29.458 12.543,31.781 L12.543,31.781 Z M52,45.125 L54,45.125 L54,53 C54,53.552 53.553,54 53,54 L45,54 L45,52 L50.586,52 L44.293,45.707 L45.707,44.293 L52,50.586 L52,45.125 Z M32.022,31.402 C26.999,31.402 24.126,30.059 24,29.483 L24,26.257 C26.159,27.266 29.609,27.593 32,27.593 C34.391,27.593 37.841,27.266 40,26.257 L40,29.483 C39.894,30.057 37.051,31.402 32.022,31.402 L32.022,31.402 Z M32.022,37.13 C26.999,37.13 24.126,35.786 24,35.21 L24,31.956 C25.953,32.937 29.055,33.402 32.022,33.402 C34.973,33.402 38.055,32.938 40,31.96 L40,35.21 C39.894,35.785 37.052,37.13 32.022,37.13 L32.022,37.13 Z M32,42.268 C26.95,42.268 24.104,40.917 24,40.346 L24,37.683 C25.953,38.665 29.055,39.13 32.022,39.13 C34.973,39.13 38.055,38.666 40,37.687 L40,40.342 C39.896,40.917 37.05,42.268 32,42.268 L32,42.268 Z M32,22.193 C36.971,22.193 39.642,23.37 39.982,23.894 C39.642,24.417 36.971,25.593 32,25.593 C26.909,25.593 24.233,24.361 24,23.949 L24,23.93 C24.233,23.426 26.909,22.193 32,22.193 L32,22.193 Z M32,20.193 C28.286,20.193 22,20.973 22,23.894 L22,40.346 C22,43.041 27.184,44.268 32,44.268 C36.816,44.268 42,43.041 42,40.346 L42,23.894 C42,20.973 35.714,20.193 32,20.193 L32,20.193 Z" id="Amazon-RDS_Icon_48_Squid" fill="#FFFFFF"></path>
      </g>
  </svg>
  <svg x="66" y="66" width="20" height="20" viewBox="0 0 128 128">
    <path fill="#f5a800" d="M67.648 69.797c-5.246 5.25-5.246 13.758 0 19.008 5.25 5.246 13.758 5.246 19.004 0 5.25-5.25 5.25-13.758 0-19.008-5.246-5.246-13.754-5.246-19.004 0Zm14.207 14.219a6.649 6.649 0 0 1-9.41 0 6.65 6.65 0 0 1 0-9.407 6.649 6.649 0 0 1 9.41 0c2.598 2.586 2.598 6.809 0 9.407ZM86.43 3.672l-8.235 8.234a4.17 4.17 0 0 0 0 5.875l32.149 32.149a4.17 4.17 0 0 0 5.875 0l8.234-8.235c1.61-1.61 1.61-4.261 0-5.87L92.29 3.671a4.159 4.159 0 0 0-5.86 0ZM28.738 108.895a3.763 3.763 0 0 0 0-5.31l-4.183-4.187a3.768 3.768 0 0 0-5.313 0l-8.644 8.649-.016.012-2.371-2.375c-1.313-1.313-3.45-1.313-4.75 0-1.313 1.312-1.313 3.449 0 4.75l14.246 14.242a3.353 3.353 0 0 0 4.746 0c1.3-1.313 1.313-3.45 0-4.746l-2.375-2.375.016-.012Zm0 0"/>
    <path fill="#425cc7" d="M72.297 27.313 54.004 45.605c-1.625 1.625-1.625 4.301 0 5.926L65.3 62.824c7.984-5.746 19.18-5.035 26.363 2.153l9.148-9.149c1.622-1.625 1.622-4.297 0-5.922L78.22 27.313a4.185 4.185 0 0 0-5.922 0ZM60.55 67.585l-6.672-6.672c-1.563-1.562-4.125-1.562-5.684 0l-23.53 23.54a4.036 4.036 0 0 0 0 5.687l13.331 13.332a4.036 4.036 0 0 0 5.688 0l15.132-15.157c-3.199-6.609-2.625-14.593 1.735-20.73Zm0 0"/>
  </svg>
</svg>
