<svg version="1.1" id="Layer_1" xmlns:x="ns_extend;" xmlns:i="ns_ai;" xmlns:graph="ns_graphs;" xmlns="http://www.w3.org/2000/svg" xmlns:xlink="http://www.w3.org/1999/xlink" x="0px" y="0px" viewBox="0 0 246.2 293.1" style="enable-background:new 0 0 246.2 293.1;" xml:space="preserve">
 <style type="text/css">
  .st0{fill:#ED2E26;}
	.st1{fill:#FFFFFF;}
 </style>
 <metadata>
  <sfw xmlns="ns_sfw;">
   <slices>
   </slices>
   <sliceSourceBounds bottomLeftOrigin="true" height="293.1" width="246.2" x="-346.1" y="0">
   </sliceSourceBounds>
  </sfw>
 </metadata>
 <g>
  <path class="st0" d="M123.1,0c80.2,0,120.5,42.9,120.5,42.9s4.6,31.7,1.7,95.7c-4.4,96.6-122.1,154.5-122.1,154.6
		S5.4,235.1,1,138.6C-2,74.6,2.6,42.9,2.6,42.9S42.9,0,123.1,0z">
  </path>
  <path class="st1" d="M62.9,126.9c0-34.1,27-61.9,60.2-61.9c33.2,0,60.2,27,60.2,60.2c0,26.5-22.8,48.3-40.3,59.5
		c6.8,3.9,21.8,8,36.2,9.3c21.3-16.5,33.8-41.9,33.8-68.8c0.2-49.7-40-90.1-89.7-90.3s-90.1,40-90.3,89.7c0,0.2,0,0.4,0,0.6
		c0,30,12.5,56.6,36.1,77c22.1,19.1,54.3,31.8,91.1,37.8c8-4.4,21.6-17.4,26.7-25c-30.7-3.9-59.7-11.4-79.2-21.6
		C78,177.8,62.9,155.4,62.9,126.9z">
  </path>
 </g>
</svg>
