<svg xmlns="http://www.w3.org/2000/svg" width="300" height="300" viewBox="0 0 300 300" version="1.1"><path d="M 37.684 130.449 C 30.522 133.003, 26.999 138.205, 27.002 146.218 C 27.004 152.403, 29.705 157.050, 35 159.975 C 38.955 162.160, 40.650 162.450, 49 162.365 C 54.225 162.312, 59.737 161.769, 61.250 161.159 C 63.929 160.078, 64 159.843, 64 152.025 L 64 144 55 144 L 46 144 46 147 C 46 149.895, 46.159 150, 50.566 150 C 54.958 150, 55.121 150.105, 54.816 152.750 C 54.525 155.282, 54.112 155.525, 49.604 155.811 C 40.686 156.377, 37 153.179, 37 144.876 C 37 136.407, 46.842 131.751, 52.591 137.500 C 54.509 139.418, 56.127 140, 59.545 140 C 64.817 140, 65.253 138.642, 61.436 134.106 C 57.278 129.164, 46.108 127.444, 37.684 130.449 M 69 132.500 C 69 135.981, 69.024 136, 73.500 136 C 77.976 136, 78 135.981, 78 132.500 C 78 129.019, 77.976 129, 73.500 129 C 69.024 129, 69 129.019, 69 132.500 M 262.655 130.829 C 259.183 134.666, 262.065 142, 267.045 142 C 269.377 142, 274 137.799, 274 135.680 C 274 134.904, 273.067 133.084, 271.927 131.635 C 269.462 128.500, 265.105 128.121, 262.655 130.829 M 263.473 132.030 C 260.839 134.940, 262.465 139.376, 266.329 139.822 C 269.950 140.240, 272 138.466, 272 134.913 C 272 130.201, 266.738 128.422, 263.473 132.030 M 264 134.875 C 264 136.529, 264.450 138.160, 265 138.500 C 265.550 138.840, 266 138.347, 266 137.404 C 266 135.788, 266.108 135.788, 267.886 137.396 C 269.698 139.037, 269.765 138.975, 269.610 135.801 C 269.474 133, 269.037 132.452, 266.725 132.184 C 264.292 131.901, 264 132.190, 264 134.875 M 266 134 C 266 134.550, 266.450 135, 267 135 C 267.550 135, 268 134.550, 268 134 C 268 133.450, 267.550 133, 267 133 C 266.450 133, 266 133.450, 266 134 M 69 150.500 L 69 162 73.500 162 L 78 162 78 150.500 L 78 139 73.500 139 L 69 139 69 150.500 M 87.110 140.396 C 83.877 142.187, 82.078 145.717, 82.035 150.350 C 82.007 153.421, 82.688 154.888, 85.400 157.600 C 88.337 160.537, 89.464 161, 93.677 161 C 96.474 161, 99.503 160.336, 100.777 159.443 C 102.889 157.964, 103 158.006, 103 160.288 C 103 165.104, 96.067 167.924, 92.643 164.500 C 90.733 162.590, 83 162.450, 83 164.326 C 83 166.936, 87.806 170.224, 92.375 170.739 C 99.763 171.571, 105.967 170.186, 109.163 166.991 C 111.978 164.176, 112 164.058, 112 151.577 L 112 139 108 139 C 105.111 139, 104 139.417, 104 140.500 C 104 142.366, 103.057 142.358, 100.559 140.468 C 98.159 138.653, 90.330 138.611, 87.110 140.396 M 121.500 140.101 C 119.274 141.378, 117 143.951, 117 145.191 C 117 146.743, 125.308 146.032, 127.202 144.318 C 129.454 142.280, 134.284 143.519, 134.814 146.271 C 135.102 147.767, 134.268 148, 128.620 148 C 120.693 148, 117.422 149.351, 116.089 153.176 C 113.635 160.213, 120.717 164.649, 129.687 161.692 C 132.717 160.694, 134.852 160.457, 135.450 161.053 C 135.972 161.574, 137.997 162, 139.950 162.001 L 143.500 162.001 143.168 152.751 C 142.732 140.591, 141.873 139.618, 131.229 139.233 C 126.715 139.070, 122.668 139.431, 121.500 140.101 M 147.917 139.413 C 147.688 139.640, 147.641 144.815, 147.812 150.913 L 148.125 162 152.062 162 L 156 162 156 155.223 C 156 147.616, 157.726 144, 161.357 144 C 165.139 144, 166 145.892, 166 154.200 L 166 162 170.500 162 L 175 162 175 154.571 C 175 146.421, 176.268 144, 180.536 144 C 183.885 144, 185 146.731, 185 154.934 L 185 162 189 162 L 193 162 193 152.955 C 193 144.684, 192.790 143.699, 190.545 141.455 C 187.424 138.333, 180.480 138.048, 176.862 140.894 C 174.500 142.752, 174.411 142.752, 172.117 140.894 C 169.281 138.597, 162.228 138.360, 159.441 140.468 C 156.943 142.358, 156 142.366, 156 140.500 C 156 139.428, 154.907 139, 152.167 139 C 150.058 139, 148.146 139.186, 147.917 139.413 M 202.314 140.950 C 198.285 143.407, 197 145.818, 197 150.918 C 197 161.417, 212.802 166.638, 223.277 159.599 C 229.833 155.193, 229.126 144.678, 222.016 140.867 C 217.159 138.265, 206.646 138.309, 202.314 140.950 M 230.917 139.413 C 230.688 139.640, 230.641 144.815, 230.812 150.913 L 231.125 162 235.062 162 L 239 162 239.015 155.750 C 239.033 148.009, 240.596 144.610, 244.334 144.178 C 249.015 143.637, 250 145.366, 250 154.122 L 250 162 254.500 162 L 259 162 259 152.955 C 259 144.684, 258.790 143.699, 256.545 141.455 C 254.614 139.523, 253.057 139, 249.237 139 C 246.516 139, 243.529 139.645, 242.441 140.468 C 239.943 142.358, 239 142.366, 239 140.500 C 239 139.428, 237.907 139, 235.167 139 C 233.058 139, 231.146 139.186, 230.917 139.413 M 210 143.694 C 205.875 145.168, 204.534 152.363, 207.829 155.345 C 210.154 157.449, 215.354 157.484, 217.078 155.407 C 219.270 152.765, 218.730 147.009, 216.089 144.871 C 213.728 142.959, 212.643 142.750, 210 143.694 M 92.655 145.829 C 87.674 151.332, 94.335 158.567, 101.066 154.965 C 103.300 153.769, 103.795 147.195, 101.800 145.200 C 99.978 143.378, 94.534 143.753, 92.655 145.829 M 126.250 152.662 C 125.563 152.940, 125 154.021, 125 155.064 C 125 157.763, 129.362 158.648, 132.507 156.587 C 136.319 154.089, 135.732 151.985, 131.250 152.079 C 129.188 152.122, 126.938 152.385, 126.250 152.662" stroke="none" fill="#fcf6f2" fill-rule="evenodd"/><path d="M 0 150.003 L 0 300.006 150.250 299.753 L 300.500 299.500 300.753 149.750 L 301.007 -0 150.503 -0 L 0 0 0 150.003 M 0.487 150.500 C 0.487 233, 0.605 266.602, 0.750 225.172 C 0.894 183.741, 0.894 116.241, 0.750 75.172 C 0.605 34.102, 0.487 68, 0.487 150.500 M 37.684 130.449 C 30.522 133.003, 26.999 138.205, 27.002 146.218 C 27.004 152.403, 29.705 157.050, 35 159.975 C 38.955 162.160, 40.650 162.450, 49 162.365 C 54.225 162.312, 59.737 161.769, 61.250 161.159 C 63.929 160.078, 64 159.843, 64 152.025 L 64 144 55 144 L 46 144 46 147 C 46 149.895, 46.159 150, 50.566 150 C 54.958 150, 55.121 150.105, 54.816 152.750 C 54.525 155.282, 54.112 155.525, 49.604 155.811 C 40.686 156.377, 37 153.179, 37 144.876 C 37 136.407, 46.842 131.751, 52.591 137.500 C 54.509 139.418, 56.127 140, 59.545 140 C 64.817 140, 65.253 138.642, 61.436 134.106 C 57.278 129.164, 46.108 127.444, 37.684 130.449 M 69 132.500 C 69 135.981, 69.024 136, 73.500 136 C 77.976 136, 78 135.981, 78 132.500 C 78 129.019, 77.976 129, 73.500 129 C 69.024 129, 69 129.019, 69 132.500 M 262.655 130.829 C 259.183 134.666, 262.065 142, 267.045 142 C 269.377 142, 274 137.799, 274 135.680 C 274 134.904, 273.067 133.084, 271.927 131.635 C 269.462 128.500, 265.105 128.121, 262.655 130.829 M 263.473 132.030 C 260.839 134.940, 262.465 139.376, 266.329 139.822 C 269.950 140.240, 272 138.466, 272 134.913 C 272 130.201, 266.738 128.422, 263.473 132.030 M 264 134.875 C 264 136.529, 264.450 138.160, 265 138.500 C 265.550 138.840, 266 138.347, 266 137.404 C 266 135.788, 266.108 135.788, 267.886 137.396 C 269.698 139.037, 269.765 138.975, 269.610 135.801 C 269.474 133, 269.037 132.452, 266.725 132.184 C 264.292 131.901, 264 132.190, 264 134.875 M 266 134 C 266 134.550, 266.450 135, 267 135 C 267.550 135, 268 134.550, 268 134 C 268 133.450, 267.550 133, 267 133 C 266.450 133, 266 133.450, 266 134 M 69 150.500 L 69 162 73.500 162 L 78 162 78 150.500 L 78 139 73.500 139 L 69 139 69 150.500 M 87.110 140.396 C 83.877 142.187, 82.078 145.717, 82.035 150.350 C 82.007 153.421, 82.688 154.888, 85.400 157.600 C 88.337 160.537, 89.464 161, 93.677 161 C 96.474 161, 99.503 160.336, 100.777 159.443 C 102.889 157.964, 103 158.006, 103 160.288 C 103 165.104, 96.067 167.924, 92.643 164.500 C 90.733 162.590, 83 162.450, 83 164.326 C 83 166.936, 87.806 170.224, 92.375 170.739 C 99.763 171.571, 105.967 170.186, 109.163 166.991 C 111.978 164.176, 112 164.058, 112 151.577 L 112 139 108 139 C 105.111 139, 104 139.417, 104 140.500 C 104 142.366, 103.057 142.358, 100.559 140.468 C 98.159 138.653, 90.330 138.611, 87.110 140.396 M 121.500 140.101 C 119.274 141.378, 117 143.951, 117 145.191 C 117 146.743, 125.308 146.032, 127.202 144.318 C 129.454 142.280, 134.284 143.519, 134.814 146.271 C 135.102 147.767, 134.268 148, 128.620 148 C 120.693 148, 117.422 149.351, 116.089 153.176 C 113.635 160.213, 120.717 164.649, 129.687 161.692 C 132.717 160.694, 134.852 160.457, 135.450 161.053 C 135.972 161.574, 137.997 162, 139.950 162.001 L 143.500 162.001 143.168 152.751 C 142.732 140.591, 141.873 139.618, 131.229 139.233 C 126.715 139.070, 122.668 139.431, 121.500 140.101 M 147.917 139.413 C 147.688 139.640, 147.641 144.815, 147.812 150.913 L 148.125 162 152.062 162 L 156 162 156 155.223 C 156 147.616, 157.726 144, 161.357 144 C 165.139 144, 166 145.892, 166 154.200 L 166 162 170.500 162 L 175 162 175 154.571 C 175 146.421, 176.268 144, 180.536 144 C 183.885 144, 185 146.731, 185 154.934 L 185 162 189 162 L 193 162 193 152.955 C 193 144.684, 192.790 143.699, 190.545 141.455 C 187.424 138.333, 180.480 138.048, 176.862 140.894 C 174.500 142.752, 174.411 142.752, 172.117 140.894 C 169.281 138.597, 162.228 138.360, 159.441 140.468 C 156.943 142.358, 156 142.366, 156 140.500 C 156 139.428, 154.907 139, 152.167 139 C 150.058 139, 148.146 139.186, 147.917 139.413 M 202.314 140.950 C 198.285 143.407, 197 145.818, 197 150.918 C 197 161.417, 212.802 166.638, 223.277 159.599 C 229.833 155.193, 229.126 144.678, 222.016 140.867 C 217.159 138.265, 206.646 138.309, 202.314 140.950 M 230.917 139.413 C 230.688 139.640, 230.641 144.815, 230.812 150.913 L 231.125 162 235.062 162 L 239 162 239.015 155.750 C 239.033 148.009, 240.596 144.610, 244.334 144.178 C 249.015 143.637, 250 145.366, 250 154.122 L 250 162 254.500 162 L 259 162 259 152.955 C 259 144.684, 258.790 143.699, 256.545 141.455 C 254.614 139.523, 253.057 139, 249.237 139 C 246.516 139, 243.529 139.645, 242.441 140.468 C 239.943 142.358, 239 142.366, 239 140.500 C 239 139.428, 237.907 139, 235.167 139 C 233.058 139, 231.146 139.186, 230.917 139.413 M 210 143.694 C 205.875 145.168, 204.534 152.363, 207.829 155.345 C 210.154 157.449, 215.354 157.484, 217.078 155.407 C 219.270 152.765, 218.730 147.009, 216.089 144.871 C 213.728 142.959, 212.643 142.750, 210 143.694 M 92.655 145.829 C 87.674 151.332, 94.335 158.567, 101.066 154.965 C 103.300 153.769, 103.795 147.195, 101.800 145.200 C 99.978 143.378, 94.534 143.753, 92.655 145.829 M 126.250 152.662 C 125.563 152.940, 125 154.021, 125 155.064 C 125 157.763, 129.362 158.648, 132.507 156.587 C 136.319 154.089, 135.732 151.985, 131.250 152.079 C 129.188 152.122, 126.938 152.385, 126.250 152.662" stroke="none" fill="#fc6c04" fill-rule="evenodd"/></svg>