<svg width="450" height="400" xmlns="http://www.w3.org/2000/svg">
 <title>traefik_otel</title>

 <g id="Layer_1">
  <title>Layer 1</title>
  <g id="svg_1">
   <path id="svg_2" fill="#f5a800" d="m388.57962,336.73511c-5.246,5.25 -5.246,13.758 0,19.008c5.25,5.246 13.758,5.246 19.004,0c5.25,-5.25 5.25,-13.758 0,-19.008c-5.246,-5.246 -13.754,-5.246 -19.004,0zm14.207,14.21899a6.649,6.649 0 0 1 -9.41,0a6.65,6.65 0 0 1 0,-9.40698a6.649,6.649 0 0 1 9.41,0c2.59802,2.58597 2.59802,6.80899 0,9.40698zm4.57501,-80.34399l-8.23502,8.23398a4.17,4.17 0 0 0 0,5.875l32.14902,32.14902a4.17,4.17 0 0 0 5.875,0l8.23401,-8.23499c1.60999,-1.61002 1.60999,-4.26102 0,-5.87003l-32.16302,-32.15399a4.159,4.159 0 0 0 -5.85999,0l0,0.00101zm-57.69202,105.22299a3.763,3.763 0 0 0 0,-5.31l-4.18298,-4.18701a3.768,3.768 0 0 0 -5.31302,0l-8.64401,8.64902l-0.01599,0.01199l-2.371,-2.37503c-1.31299,-1.31296 -3.44998,-1.31296 -4.74997,0c-1.31302,1.31204 -1.31302,3.44904 0,4.75003l14.246,14.242a3.353,3.353 0 0 0 4.746,0c1.29999,-1.31302 1.31299,-3.45001 0,-4.746l-2.37503,-2.375l0.01602,-0.01202l8.64398,-8.64798zm0,0"/>
   <path id="svg_3" fill="#425cc7" d="m393.22861,294.2511l-18.29297,18.29202c-1.62503,1.62497 -1.62503,4.30096 0,5.92599l11.29599,11.29297c7.98401,-5.746 19.17999,-5.03497 26.36301,2.15302l9.14798,-9.14902c1.62201,-1.625 1.62201,-4.29697 0,-5.922l-22.591,-22.59299a4.185,4.185 0 0 0 -5.922,0l-0.00101,0zm-11.74698,40.272l-6.672,-6.67203c-1.56299,-1.56198 -4.125,-1.56198 -5.68402,0l-23.53,23.54004a4.036,4.036 0 0 0 0,5.68698l13.33102,13.332a4.036,4.036 0 0 0 5.68799,0l15.13199,-15.15698c-3.19897,-6.60901 -2.625,-14.59302 1.73502,-20.73001zm0,0"/>
  </g>
  <g>
   <title id="svg_59">generated by pstoedit version:3.44 from NVBadge_2D.eps</title>
   <path d="m362.27701,264.2045c0,3.771 -2.76901,6.302 -6.047,6.302l0,-0.02301c-3.371,0.02301 -6.08899,-2.508 -6.08899,-6.27798c0,-3.76901 2.71799,-6.293 6.08899,-6.293c3.27899,-0.00101 6.047,2.52298 6.047,6.29199zm2.453,0c0,-5.17499 -4.01999,-8.17899 -8.5,-8.17899c-4.51099,0 -8.53101,3.004 -8.53101,8.17899c0,5.172 4.021,8.18799 8.53101,8.18799c4.48099,0 8.5,-3.01599 8.5,-8.18799m-9.91,0.69199l0.91,0l2.10901,3.703l2.31598,0l-2.336,-3.85901c1.207,-0.086 2.20001,-0.66101 2.20001,-2.28601c0,-2.01898 -1.392,-2.668 -3.75,-2.668l-3.41101,0l0,8.81302l1.961,0l0,-3.703m0.00101,-1.492l0,-2.12201l1.36401,0c0.742,0 1.75299,0.06 1.75299,0.965c0,0.98502 -0.52301,1.15701 -1.39801,1.15701l-1.71899,0" id="svg_58"/>
   <path d="m307.48801,219.1225l10.59799,28.99298l-21.52399,0l10.92599,-28.99298zm-11.35001,-11.289l-24.423,61.88l17.246,0l3.86301,-10.93399l28.90298,0l3.65601,10.93399l18.72202,0l-24.60501,-61.888l-23.362,0.008zm-49.03299,61.90298l17.49701,0l0,-61.922l-17.5,-0.004l0.00299,61.92599zm-121.46703,-61.92599l-14.598,49.078l-13.98399,-49.07401l-18.879,-0.004l19.97199,61.92599l25.207,0l20.133,-61.92599l-17.851,0zm70.72501,13.48401l7.52,0c10.91,0 17.966,4.89801 17.966,17.60901c0,12.71399 -7.056,17.61301 -17.966,17.61301l-7.52,0l0,-35.22202zm-17.35001,-13.48401l0,61.92599l28.366,0c15.11301,0 20.048,-2.51199 25.384,-8.14798c3.76901,-3.957 6.207,-12.64102 6.207,-22.13403c0,-8.70697 -2.06299,-16.46799 -5.66,-21.30399c-6.481,-8.64899 -15.817,-10.34 -29.75,-10.34l-24.547,0zm-165.743,-0.086l0,62.01199l17.645,0l0,-47.086l13.672,0.00403c4.527,0 7.75401,1.12799 9.934,3.457c2.76501,2.94498 3.894,7.69897 3.894,16.39499l0,27.22998l17.098,0l0,-34.26199c0,-24.453 -15.586,-27.75 -30.83599,-27.75l-31.407,0zm137.58299,0.086l0.007,61.92599l17.489,0l0,-61.92599l-17.496,0z" id="svg_57"/>
   <path d="m60.29299,84.50949c0,0 22.50399,-33.203 67.43699,-36.63799l0,-12.046c-49.769,3.99699 -92.86699,46.149 -92.86699,46.149s24.41001,70.56499 92.86699,77.02599l0,-12.80399c-50.23698,-6.31999 -67.43699,-61.68701 -67.43699,-61.68701zm67.43699,36.22299l0,11.726c-37.96799,-6.769 -48.50699,-46.23698 -48.50699,-46.23698s18.22999,-20.19501 48.50699,-23.47001l0,12.867c-0.02301,0 -0.039,-0.007 -0.058,-0.007c-15.89099,-1.90698 -28.305,12.938 -28.305,12.938s6.95801,24.99103 28.363,32.183m0,-107.12498l0,22.218c1.461,-0.112 2.922,-0.207 4.39099,-0.257c56.58202,-1.907 93.44901,46.40601 93.44901,46.40601s-42.343,51.48801 -86.457,51.48801c-4.043,0 -7.828,-0.375 -11.383,-1.00502l0,13.73901c3.03999,0.38599 6.192,0.61301 9.48099,0.61301c41.05101,0 70.73801,-20.96501 99.48399,-45.77802c4.76602,3.817 24.27803,13.10301 28.28902,17.168c-27.33202,22.883 -91.03101,41.32901 -127.144,41.32901c-3.481,0 -6.82401,-0.211 -10.11,-0.52802l0,19.306l156.03201,0l0,-164.69899l-156.03201,0zm0,49.144l0,-14.879c1.446,-0.101 2.903,-0.179 4.39099,-0.226c40.688,-1.278 67.38202,34.965 67.38202,34.965s-28.832,40.04301 -59.746,40.04301c-4.44901,0 -8.438,-0.71501 -12.028,-1.92203l0,-45.11398c15.84,1.914 19.028,8.911 28.55099,24.786l21.18001,-17.85899c0,0 -15.461,-20.27701 -41.524,-20.27701c-2.83301,-0.001 -5.54401,0.19801 -8.20601,0.483" fill="#77B900" id="svg_56"/>
  </g>
 </g>
</svg>