<svg width="64" height="64" xmlns="http://www.w3.org/2000/svg">
 <defs>
  <linearGradient gradientTransform="matrix(1,0,0,1,-0.5761947631835938,0.5814247131347656)" y2="-452" gradientUnits="userSpaceOnUse" y1="59.789" x2="255.894" x1="255.894" id="svg_4">
   <stop offset="0%" stop-color="#574c4a"/>
   <stop offset="100%" stop-color="#80716d"/>
  </linearGradient>
  <linearGradient gradientTransform="matrix(1,0,0,1,-0.5761947631835938,0.5814247131347656)" gradientUnits="userSpaceOnUse" y2="-382.305" y1="-51.758" x2="191.971" x1="380.442" id="svg_3">
   <stop offset="0%" stop-color="#268d83"/>
   <stop offset="100%" stop-color="#2ea19e"/>
  </linearGradient>
  <radialGradient gradientTransform="matrix(2.0199999809265137,0,0,2.0199999809265137,91.95380401611328,-356.23858642578125)" gradientUnits="userSpaceOnUse" fy="142.923" fx="62.417" r="9.213" cy="142.923" cx="62.417" id="svg_2">
   <stop offset="0%" stop-color="#db7c7c"/>
   <stop offset="100%" stop-color="#c83737"/>
  </radialGradient>
  <radialGradient gradientTransform="matrix(2.0199999809265137,0,0,2.0199999809265137,91.95380401611328,-356.23858642578125)" gradientUnits="userSpaceOnUse" fy="142.923" fx="96.726" r="9.213" cy="142.923" cx="96.726" id="svg_1">
   <stop offset="0%" stop-color="#db7c7c"/>
   <stop offset="100%" stop-color="#c83737"/>
  </radialGradient>
 </defs>
 <g>
  <title>Layer 1</title>
  <g>

   <g transform="matrix(0.125052, 0, 0, 0.125052, 1e-06, 56.5235)">
    <path fill="url(#svg_4)" d="m-0.5762,-105.61458l0,-179.82c0,-145.239 20.725,-165.984 165.814,-165.984l180.164,0c145.084,0 165.8,20.745 165.8,165.983l0,179.82c0,145.238 -20.725,165.983 -165.812,165.983l-180.154,0c-145.082,0.001 -165.812,-20.744 -165.812,-165.982z"/>
    <path fill="url(#svg_3)" d="m109.9118,-354.91558c-25.148,159.435 -11.991,308.697 -11.991,308.697l78.63,0c-7.48,-39.802 -34.32,-221.642 -11.993,-222.24c11.966,1.9 66.64,154.267 66.64,154.267s12.04,-1.5 24.155,-1.5s24.16,1.5 24.16,1.5s54.68,-152.37 66.64,-154.267c22.34,0.598 -4.505,182.438 -11.98,222.24l78.633,0s13.162,-149.272 -12,-308.706l-72.8,0c-13.857,0.162 -66.58,92.63 -72.64,92.63s-58.784,-92.457 -72.64,-92.62l-72.814,-0.001z"/>
    <path fill="url(#svg_2)" d="m239.8458,-64.81858c0,10.278 -8.333,18.6 -18.612,18.6s-18.6,-8.333 -18.6,-18.6s8.333,-18.612 18.6,-18.612s18.612,8.332 18.612,18.612z"/>
    <path fill="url(#svg_1)" d="m308.0838,-64.81858c0,10.278 -8.332,18.6 -18.6,18.6s-18.6,-8.333 -18.6,-18.6s8.322,-18.612 18.604,-18.612s18.604,8.332 18.604,18.612l-0.008,0z"/>
    <path opacity="0.1" d="m397.0878,-349.64458c11.348,76.812 14,150.532 13.802,205.444c-0.214,56.168 -3.432,92.66 -3.432,92.66l-66.2,0l-7.113,5.33l78.64,0s13.16,-149.27 -11.992,-308.705l-3.705,5.271zm-208.373,-1.94c20.66,22.98 56.4,83.966 61.3,83.966c-13.1,-16.75 -45.27,-70.192 -61.3,-83.965l0,-0.001zm-29.48,77.802c-22.33,0.6 4.514,182.44 11.996,222.242l-68.647,0l-4.66,5.33l78.634,0c-7.444,-39.598 -34.05,-219.824 -12.33,-222.24c-2.02,-3.04 -3.77,-5.137 -4.996,-5.332l0.003,0zm181.6,0c-11.964,1.9 -66.64,154.27 -66.64,154.27s-12.04,-1.5 -24.154,-1.5c-7.17,0 -13.34,0.442 -17.514,0.83l-1.3,6s12.04,-1.498 24.154,-1.498s24.158,1.5 24.158,1.5s54.26,-151.372 66.476,-154.27c-1.315,-3.334 -2.94,-5.272 -5.164,-5.332l-0.016,0z"/>
    <path fill="#fff" opacity="0.3" d="m109.9238,-354.91558c-25.166,159.434 -12.005,308.697 -12.005,308.697l4.63,-5.205c-2.37,-35.218 -8.7,-162.572 12.696,-298.17l72.8,0c1.54,0.017 3.6,1.28 6,3.33c-4.767,-5.302 -8.73,-8.63 -11.33,-8.662l-72.791,0.01zm218.077,0c-13.857,0.164 -66.58,92.628 -72.637,92.628c2.47,3.16 4.477,5.34 5.33,5.34c6.06,0 58.78,-92.464 72.638,-92.63l64.248,0l3.224,-5.33l-72.803,-0.008zm-158.435,91.795c17.685,26.56 61.642,148.94 61.642,148.94l1.286,-5.97c-10.853,-29.757 -52.205,-141.32 -62.595,-142.97c-0.113,0.003 -0.222,-0.012 -0.333,0zm181.925,0c11.862,30.254 -10.592,181.1 -17.326,216.9l7.14,-5.567c9.108,-53.42 31.03,-210.78 10.195,-211.34l-0.009,0.007z"/>
   </g>
  </g>
  <g>
   <path d="m49.43393,50.13858c-1.25834,1.27554 -1.25834,3.34264 0,4.61818c1.2593,1.27457 3.30009,1.27457 4.55844,0c1.2593,-1.27554 1.2593,-3.34264 0,-4.61818c-1.25834,-1.27457 -3.29913,-1.27457 -4.55844,0zm3.40779,3.45465a1.59488,1.61544 0 0 1 -2.25715,0a1.59512,1.61568 0 0 1 0,-2.28552a1.59488,1.61544 0 0 1 2.25715,0c0.62317,0.62829 0.62317,1.65431 0,2.28552zm1.09739,-19.52038l-1.97531,2.00053a1.00025,1.01314 0 0 0 0,1.42739l7.71149,7.81092a1.00025,1.01314 0 0 0 1.40922,0l1.97507,-2.00078c0.38619,-0.39117 0.38619,-1.03525 0,-1.42618l-7.71485,-7.81214a0.99761,1.01047 0 0 0 -1.40562,0l0,0.00024zm-13.83841,25.56498a0.90262,0.91426 0 0 0 0,-1.29012l-1.00336,-1.01727a0.90382,0.91547 0 0 0 -1.27441,0l-2.07341,2.10136l-0.00384,0.00292l-0.56872,-0.57703c-0.31495,-0.31901 -0.82754,-0.31901 -1.13937,0c-0.31495,0.31876 -0.31495,0.83797 0,1.15406l3.41715,3.46024a0.80427,0.81464 0 0 0 1.13841,0c0.31183,-0.31901 0.31495,-0.83821 0,-1.15309l-0.56968,-0.57703l0.00384,-0.00292l2.07341,-2.10112zm0,0" fill="#f5a800"/>
   <path d="m50.54907,39.81667l-4.38789,4.44422c-0.38978,0.39481 -0.38978,1.04497 0,1.43978l2.70954,2.74375c1.9151,-1.39605 4.60065,-1.2233 6.32362,0.52309l2.1943,-2.22284c0.38906,-0.39481 0.38906,-1.044 0,-1.43881l-5.41884,-5.4892a1.00384,1.01679 0 0 0 -1.42049,0l-0.00024,0zm-2.81772,9.78449l-1.60039,-1.62103c-0.37491,-0.3795 -0.98945,-0.3795 -1.3634,0l-5.64407,5.71928a0.9681,0.98059 0 0 0 0,1.38171l3.19767,3.23914a0.9681,0.98059 0 0 0 1.36436,0l3.62967,-3.68255c-0.76733,-1.60572 -0.62965,-3.54552 0.41617,-5.03656zm0,0" fill="#425cc7"/>
  </g>
 </g>
</svg>