<?xml version="1.0" encoding="UTF-8"?>
<svg id="Ebene_1" data-name="Ebene 1" xmlns="http://www.w3.org/2000/svg" viewBox="0 0 600 170">
  <defs>
    <style>
      .cls-1 {
        fill: #46a1d9;
      }
    </style>
  </defs>
  <g>
    <path class="cls-1" d="M139.93365,123.10046c-7.02025-2.94276-14.05001-5.86452-21.08003-8.78389-1.24792-.51791-2.52558-.54006-3.78081-.01838-7.05094,2.93045-14.09943,5.87183-21.1476,8.80958-1.84629.77052-3.07452,2.07255-3.35382,4.09957-.10457.76682-.01611,1.55957-.01611,2.10955.23265,4.95485.88013,9.61579,2.2314,14.1545,1.78837,6.01482,4.99547,11.26636,8.86854,16.14014,3.12979,3.94181,6.97233,7.01987,11.40897,9.38411,2.5145,1.33927,4.96974,1.34273,7.47189-.01108,4.08226-2.20801,7.70427-4.99547,10.73195-8.5179,7.99592-9.30434,11.76465-20.16171,11.8778-32.3695.02346-2.41593-1.01905-4.07719-3.21217-4.9967h0ZM125.76545,156.36224c-2.30528,2.544-4.97708,4.68417-8.03676,6.29751-.21426.11223-.43806.2143-.6596.31384-.03708.01746-.09227-.00854-.16865-.01708v-41.92368c.26692.10715.48495.19207.70025.28307,6.00463,2.52054,12.00957,5.04231,18.013,7.56408.35691.14907.68306.2413.65837.79628-.46633,10.09332-3.65758,19.12436-10.50661,26.68598h0Z"/>
    <g>
      <path class="cls-1" d="M25.68062,148.24743c0,1.20312-.21789,2.21777-.65271,3.0459s-.97711,1.50098-1.62688,2.01855c-.64978.51855-1.35525.89062-2.11837,1.11621-.76214.22656-1.47152.33984-2.12716.33984H4.24777v-4.64453h14.90773c.63219,0,1.10022-.16113,1.40313-.48242.30388-.32227.45631-.78613.45631-1.39355v-3.94824H4.24777v-4.68066h16.76716v-3.91309c0-1.27344-.61949-1.91113-1.85944-1.91113H4.24777v-4.64453h14.90773c.7983,0,1.51354.10059,2.14573.30371.63121.20215,1.18816.47266,1.67085.8125s.89698.72949,1.24288,1.16992c.34492.44141.62535.90234.83934,1.38477.21496.48242.37228.9707.4739,1.46484s.15243.95605.15243,1.38477v12.57715Z"/>
      <path class="cls-1" d="M35.01102,139.61852h12.37018c.65466,0,1.36111.11621,2.11739.34863.75726.23145,1.46273.60742,2.11837,1.125.65564.51855,1.20087,1.19434,1.63568,2.02734.43481.83398.65271,1.85254.65271,3.05566v2.07227c0,.44043-.05081.90527-.15243,1.39355-.10064.48828-.26186.97363-.48269,1.45605-.21985.48242-.50028.94336-.83934,1.38379-.34003.44141-.7514.83105-1.23409,1.1709-.48269.33887-1.03964.61035-1.67085.8125-.63219.20312-1.34645.30371-2.14475.30371h-8.41974c-.57161,0-1.1823-.06543-1.83208-.19629s-1.28978-.34277-1.92197-.63477c-.63121-.29102-1.2419-.66113-1.83208-1.10742-.5892-.44629-1.10511-.98828-1.54578-1.62598-.44068-.63672-.79537-1.37207-1.06407-2.20605-.26773-.83301-.40159-1.77441-.40159-2.82227v-8.41504c0-1.04785.13386-1.98828.40159-2.82227.2687-.83398.62339-1.56934,1.06407-2.20605.44068-.6377.95659-1.18262,1.54578-1.63477.59017-.45312,1.20087-.8252,1.83208-1.11719.63219-.29102,1.27219-.50293,1.92197-.63379s1.26047-.19629,1.83208-.19629h11.65494v4.64453h-11.65494c-.59604.04785-1.13442.17285-1.61711.375-.48269.20312-.89698.4707-1.24288.80371-.3459.33398-.61362.73633-.80416,1.20605-.19054.4707-.28629.99805-.28629,1.58105v1.8584ZM35.01102,144.29918v1.87598c0,.60742.10455,1.15234.31267,1.63477.2091.48145.49149.89551.84911,1.24121s.77778.61035,1.26047.79492,1.00349.27734,1.56435.27734h8.38358c.59506,0,1.05137-.17871,1.36697-.53613s.4739-.80371.4739-1.33984v-2.07227c0-.60742-.15536-1.07227-.4651-1.39355-.30974-.32227-.78071-.48242-1.41192-.48242h-12.33403Z"/>
      <path class="cls-1" d="M81.25459,148.24743c0,.44043-.05081.90527-.15243,1.39355s-.26186.97363-.48269,1.45605-.50028.94336-.84031,1.38379c-.33906.44141-.75042.83105-1.23311,1.1709-.48269.33887-1.03964.61035-1.67085.8125-.63219.20312-1.34059.30371-2.12716.30371h-17.03489v-4.64453h17.03489c.58333,0,1.03378-.17871,1.34939-.53613s.4739-.80371.4739-1.33984v-2.07227c0-.60742-.15536-1.07227-.4651-1.39355-.30974-.32227-.77485-.48242-1.39433-.48242h-10.47459c-1.2038,0-2.21999-.21777-3.0476-.65234-.82859-.43457-1.49888-.97949-2.01089-1.63477-.51298-.6543-.88526-1.36328-1.11781-2.12598-.23157-.76172-.34785-1.4707-.34785-2.12598v-8.61035h21.41429v4.64453h-16.76716v3.96582c0,.62012.16122,1.08398.48269,1.39355s.78657.46484,1.39433.46484h10.51075c.64294,0,1.34645.11621,2.1086.34863.76312.23145,1.46859.60742,2.11837,1.125.64978.51855,1.19207,1.19434,1.62688,2.02734.43481.83398.65271,1.85254.65271,3.05566v2.07227Z"/>
      <path class="cls-1" d="M179.79881,133.7943h-10.24204v20.97363h-4.6481v-20.97363h-10.25963v-4.64453h25.14977v4.64453Z"/>
      <path class="cls-1" d="M209.7579,144.40661c0,1.55957-.2687,2.99512-.80514,4.30469-.53545,1.31055-1.28099,2.44238-2.23367,3.39453-.95366.95312-2.08319,1.69434-3.38763,2.22461-1.30444.5293-2.72613.79492-4.26312.79492h-6.29257c-1.53699,0-2.96064-.26562-4.27191-.79492-1.31128-.53027-2.44277-1.27148-3.39643-2.22461-.95268-.95215-1.70114-2.08398-2.24246-3.39453-.54327-1.30957-.81393-2.74512-.81393-4.30469v-4.89551c0-1.54785.27066-2.98047.81393-4.29688.54132-1.31543,1.28978-2.44727,2.24246-3.39355.95366-.94727,2.08515-1.68848,3.39643-2.22461s2.73492-.80371,4.27191-.80371h6.29257c1.53699,0,2.95868.26758,4.26312.80371s2.43397,1.27734,3.38763,2.22461c.95268.94629,1.69821,2.07812,2.23367,3.39355.53643,1.31641.80514,2.74902.80514,4.29688v4.89551ZM205.1098,139.5111c0-.91699-.14559-1.74805-.43774-2.49219s-.70352-1.38184-1.23311-1.91113c-.53057-.53027-1.16862-.94141-1.91318-1.2334-.74456-.29102-1.56337-.4375-2.45743-.4375h-6.29257c-.90578,0-1.73046.14648-2.47501.4375-.74553.29199-1.38554.70312-1.92197,1.2334-.53643.5293-.95073,1.16699-1.2419,1.91113-.29216.74414-.43774,1.5752-.43774,2.49219v4.89551c0,.91699.14559,1.74805.43774,2.49219.29118.74414.70547,1.38086,1.2419,1.91113s1.17644.94141,1.92197,1.23242c.74456.29199,1.56923.4375,2.47501.4375h6.25642c.90578,0,1.73143-.14551,2.47599-.4375.74456-.29102,1.38554-.70215,1.92197-1.23242.53545-.53027.94975-1.16699,1.2419-1.91113s.43774-1.5752.43774-2.49219v-4.89551Z"/>
      <path class="cls-1" d="M237.1599,133.7943h-10.24204v20.97363h-4.6481v-20.97363h-10.25963v-4.64453h25.14977v4.64453Z"/>
      <path class="cls-1" d="M264.83061,154.76793h-4.6481v-6.28809h-16.33724v6.28809h-4.6481v-12.80957c0-1.86914.32245-3.59082.96538-5.16309.64391-1.57129,1.53797-2.92285,2.68118-4.05469,1.14419-1.13184,2.49651-2.0127,4.05793-2.64453,1.56142-.63086,3.26549-.94629,5.11223-.94629h10.47459c.32245,0,.62633.05957.91164.17871.28629.11914.53643.28516.7514.5.21399.21387.38107.46387.50028.75s.17881.58984.17881.91113v23.27832ZM243.84527,143.83434h16.33724v-10.04004h-8.16862c-.14266,0-.44361.02051-.90285.0625-.45826.04199-.98883.14648-1.59073.3125-.6019.16699-1.23604.42285-1.90341.76855s-1.28099.82129-1.84087,1.42871c-.56086.60742-1.02205,1.36719-1.38554,2.27832s-.54523,2.01562-.54523,3.31348v1.87598Z"/>
      <path class="cls-1" d="M293.7696,154.76793h-21.19932c-.33417,0-.64391-.05957-.92923-.17871-.28629-.11914-.5335-.28223-.7426-.49121-.20812-.20801-.37228-.45605-.49149-.74121-.11921-.28613-.17881-.5957-.17881-.92871v-23.27832h4.6481v20.97363h18.89335v4.64453Z"/>
      <path class="cls-1" d="M334.25703,139.86852c0,1.06055-.13093,2.00684-.3928,2.84082-.26284.83301-.61655,1.56934-1.06407,2.20605-.44654.6377-.96245,1.18164-1.54578,1.63477-.58431.45215-1.195.82129-1.83208,1.10742-.63805.28613-1.28099.49414-1.93076.625-.64978.13184-1.26047.19727-1.83208.19727h-10.51075v-4.64551h10.51075c.59604-.04688,1.1354-.16992,1.61809-.36621.48171-.19629.89601-.46094,1.2419-.79492.3459-.33301.61362-.73535.80416-1.20605.19054-.46973.28629-1.00293.28629-1.59863v-2.1084c-.0596-.58301-.18467-1.11914-.37521-1.60742-.19151-.48828-.45045-.90527-.77778-1.25098-.32831-.34473-.72404-.61621-1.18914-.8125-.46413-.19629-1.00056-.29492-1.60832-.29492h-10.47459c-.62046,0-1.09045.16113-1.41192.48242-.32245.32129-.48269.78613-.48269,1.39355v19.09766h-4.6481v-19.09766c0-1.19141.21789-2.20312.65271-3.03711s.97711-1.50684,1.62688-2.01855c.6488-.51172,1.35525-.88477,2.11739-1.11719.76312-.23145,1.46664-.34766,2.10958-.34766h10.51075c1.04844,0,1.99037.13379,2.82384.40137.83445.26855,1.57021.62598,2.20826,1.07227.63707.44629,1.17937.96191,1.62591,1.54492.44752.58398.81686,1.19434,1.10902,1.83105.29118.6377.50321,1.28125.63414,1.92969.13093.64941.1964,1.25977.1964,1.83105v2.1084Z"/>
      <path class="cls-1" d="M363.83993,137.76012c0,1.06055-.13093,2.00684-.3928,2.84082s-.61655,1.56934-1.06407,2.20605c-.44654.6377-.96245,1.18262-1.54578,1.63477-.58431.45312-1.195.8252-1.83208,1.11719-.63805.29199-1.28099.50293-1.93076.63379s-1.25949.19629-1.83208.19629l9.70659,8.37891h-7.18565l-9.689-8.37891h-3.34268v-4.64453h10.51075c.58431-.04785,1.11683-.16992,1.59952-.36621s.89992-.46191,1.25167-.79492c.35176-.33398.62242-.73535.81295-1.20605s.28629-1.00977.28629-1.61719v-2.92969c0-.26172-.03322-.46094-.09869-.59863-.06547-.13672-.14852-.23828-.25014-.30371-.10064-.06543-.20812-.10352-.32147-.11621-.11334-.01172-.21789-.01758-.31267-.01758h-15.33668v20.97363h-4.6481v-23.27832c0-.32129.0596-.625.17881-.91113s.28336-.53613.49149-.75c.2091-.21484.45631-.38086.7426-.5.28532-.11914.59506-.17871.92923-.17871h17.64265c1.03671,0,1.9122.1875,2.62744.5625s1.29564.8457,1.74316,1.41113c.44654.56641.76801,1.17676.96538,1.83105.1964.65527.29411,1.26855.29411,1.83984v2.96582Z"/>
      <path class="cls-1" d="M395.40832,144.40661c0,1.55957-.2687,2.99512-.80514,4.30469-.53545,1.31055-1.28099,2.44238-2.23367,3.39453-.95366.95312-2.08319,1.69434-3.38763,2.22461-1.30444.5293-2.72613.79492-4.26312.79492h-6.29257c-1.53699,0-2.96064-.26562-4.27191-.79492-1.31128-.53027-2.44277-1.27148-3.39643-2.22461-.95268-.95215-1.70114-2.08398-2.24246-3.39453-.54327-1.30957-.81393-2.74512-.81393-4.30469v-4.89551c0-1.54785.27066-2.98047.81393-4.29688.54132-1.31543,1.28978-2.44727,2.24246-3.39355.95366-.94727,2.08515-1.68848,3.39643-2.22461s2.73492-.80371,4.27191-.80371h6.29257c1.53699,0,2.95868.26758,4.26312.80371s2.43397,1.27734,3.38763,2.22461c.95268.94629,1.69821,2.07812,2.23367,3.39355.53643,1.31641.80514,2.74902.80514,4.29688v4.89551ZM390.76022,139.5111c0-.91699-.14559-1.74805-.43774-2.49219s-.70352-1.38184-1.23311-1.91113c-.53057-.53027-1.16862-.94141-1.91318-1.2334-.74456-.29102-1.56337-.4375-2.45743-.4375h-6.29257c-.90578,0-1.73046.14648-2.47501.4375-.74553.29199-1.38554.70312-1.92197,1.2334-.53643.5293-.95073,1.16699-1.2419,1.91113-.29216.74414-.43774,1.5752-.43774,2.49219v4.89551c0,.91699.14559,1.74805.43774,2.49219.29118.74414.70547,1.38086,1.2419,1.91113s1.17644.94141,1.92197,1.23242c.74456.29199,1.56923.4375,2.47501.4375h6.25642c.90578,0,1.73143-.14551,2.47599-.4375.74456-.29102,1.38554-.70215,1.92197-1.23242.53545-.53027.94975-1.16699,1.2419-1.91113s.43774-1.5752.43774-2.49219v-4.89551Z"/>
      <path class="cls-1" d="M422.81032,133.7943h-10.24204v20.97363h-4.6481v-20.97363h-10.25963v-4.64453h25.14977v4.64453Z"/>
      <path class="cls-1" d="M449.39058,154.76793h-16.76619c-.64391,0-1.34743-.11328-2.10958-.33984-.76312-.22559-1.46859-.59766-2.11837-1.11621-.64978-.51758-1.19207-1.19043-1.62688-2.01855s-.65173-1.84277-.65173-3.0459v-16.75781c0-.32129.05863-.625.17881-.91113.11823-.28613.28238-.53613.49149-.75.20812-.21484.45533-.38086.74162-.5s.59604-.17871.92923-.17871h20.9316v4.64453h-18.62562v14.45312c0,.60742.16122,1.07129.48269,1.39355.32147.32129.79243.48242,1.41192.48242h16.73101v4.64453ZM447.29957,144.29918h-14.67518v-4.68066h14.67518v4.68066Z"/>
      <path class="cls-1" d="M476.66751,154.76793h-16.76716c-.42895,0-.89112-.05078-1.38554-.15137-.49442-.10156-.98297-.25977-1.46566-.47363-.48269-.21484-.94486-.49121-1.38554-.83105s-.83054-.75-1.17057-1.23242c-.33906-.48242-.61069-1.04199-.81295-1.67969-.20324-.63672-.30388-1.35449-.30388-2.15234v-12.57715c0-.42871.05081-.89062.15145-1.38477.10162-.49414.25991-.98242.4739-1.46484.21496-.48242.49442-.94336.84031-1.38477.34492-.44043.75921-.83008,1.2419-1.16992s1.03964-.61035,1.67183-.8125c.63121-.20312,1.34645-.30371,2.14475-.30371h16.76716v4.64453h-16.76716c-.60776,0-1.07286.16113-1.39433.48242s-.48269.79785-.48269,1.42871v12.54199c0,.5957.16415,1.05664.49149,1.38477.32831.32715.7895.49121,1.38554.49121h16.76716v4.64453Z"/>
      <path class="cls-1" d="M504.23073,133.7943h-10.24204v20.97363h-4.6481v-20.97363h-10.25963v-4.64453h25.14977v4.64453Z"/>
      <path class="cls-1" d="M512.32802,154.76793h-4.64712v-25.61816h4.64712v25.61816Z"/>
      <path class="cls-1" d="M544.66442,144.40661c0,1.55957-.2687,2.99512-.80514,4.30469-.53545,1.31055-1.28099,2.44238-2.23367,3.39453-.95366.95312-2.08319,1.69434-3.38763,2.22461-1.30444.5293-2.72613.79492-4.26312.79492h-6.29257c-1.53699,0-2.96064-.26562-4.27191-.79492-1.31128-.53027-2.44277-1.27148-3.39643-2.22461-.95268-.95215-1.70114-2.08398-2.24246-3.39453-.54327-1.30957-.81393-2.74512-.81393-4.30469v-4.89551c0-1.54785.27066-2.98047.81393-4.29688.54132-1.31543,1.28978-2.44727,2.24246-3.39355.95366-.94727,2.08515-1.68848,3.39643-2.22461s2.73492-.80371,4.27191-.80371h6.29257c1.53699,0,2.95868.26758,4.26312.80371s2.43397,1.27734,3.38763,2.22461c.95268.94629,1.69821,2.07812,2.23367,3.39355.53643,1.31641.80514,2.74902.80514,4.29688v4.89551ZM540.01632,139.5111c0-.91699-.14559-1.74805-.43774-2.49219s-.70352-1.38184-1.23311-1.91113c-.53057-.53027-1.16862-.94141-1.91318-1.2334-.74456-.29102-1.56337-.4375-2.45743-.4375h-6.29257c-.90578,0-1.73046.14648-2.47501.4375-.74553.29199-1.38554.70312-1.92197,1.2334-.53643.5293-.95073,1.16699-1.2419,1.91113-.29216.74414-.43774,1.5752-.43774,2.49219v4.89551c0,.91699.14559,1.74805.43774,2.49219.29118.74414.70547,1.38086,1.2419,1.91113s1.17644.94141,1.92197,1.23242c.74456.29199,1.56923.4375,2.47501.4375h6.25642c.90578,0,1.73143-.14551,2.47599-.4375.74456-.29102,1.38554-.70215,1.92197-1.23242.53545-.53027.94975-1.16699,1.2419-1.91113s.43774-1.5752.43774-2.49219v-4.89551Z"/>
      <path class="cls-1" d="M574.87267,152.78454c0,.33398-.06253.64355-.1876.92969-.12507.28516-.29216.5332-.50028.74121s-.45533.37207-.74162.49121-.59017.17871-.91164.17871c-.28629,0-.57552-.05371-.86669-.16113-.29216-.10742-.55207-.2793-.77778-.51758l-16.98115-17.72266v18.04395h-4.6481v-23.63574c0-.47559.13484-.9082.40257-1.29492s.61069-.67578,1.02792-.86621c.44068-.17871.89405-.22363,1.35818-.13477.4651.08984.86376.30762,1.19793.65234l16.98115,17.7041v-18.04297h4.64712v23.63477Z"/>
    </g>
  </g>
  <g>
    <rect x="445.13271" y=".27356" width="17.75816" height="15.25746"/>
    <g>
      <g>
        <path d="M574.87271,86.1057v-12.65476h-4.37857c-4.75089,0-5.87764-.70824-5.87764-4.02259v-34.77178h10.25622v-11.82788h-10.25622V5.67676h-17.63298v17.15192h-8.75388v11.82788h8.75388v33.9447c0,13.12913,3.12664,17.86036,17.75816,17.86036,1.87792,0,5.25497-.23729,10.13104-.35593"/>
        <path d="M473.77698,85.63133h17.75484v-37.25584c0-8.27946,5.3802-13.24456,13.63326-13.24456,7.62712,0,10.25295,4.01958,10.25295,12.53612v37.96428h17.75821v-42.81395c0-14.43058-7.25154-21.64265-21.88311-21.64265-8.38156,0-15.13228,3.07405-20.13358,9.10312v-7.44916h-17.38257v62.80265Z"/>
        <rect x="445.13271" y="22.82868" width="17.75816" height="62.80265"/>
        <path d="M388.98527,54.1741c0-12.53954,5.75247-19.3989,15.62983-19.3989,9.88063,0,15.50792,6.85936,15.50792,19.3989,0,12.5327-5.62729,19.51412-15.50792,19.51412-9.87736,0-15.62983-6.98142-15.62983-19.51412M370.9767,54.1741c0,20.9308,12.7536,33.58556,33.63839,33.58556s33.64166-12.65476,33.64166-33.58556c0-20.93763-12.75686-33.59239-33.64166-33.59239s-33.63839,12.65476-33.63839,33.59239"/>
        <path d="M347.59848,54.64183c0,11.71245-5.62724,18.57202-14.38116,18.57202-9.37655,0-14.88193-6.62228-14.88193-18.57202,0-12.88863,5.12979-19.5109,14.50634-19.5109,9.5051,0,14.75675,6.74092,14.75675,19.5109M301.07805,110.82542h17.25735v-32.99918c4.37862,6.50705,11.13261,9.93342,19.63613,9.93342,15.5046,0,27.25994-13.12591,27.25994-33.82284,0-20.10734-11.37975-33.23647-27.51034-33.23647-8.6287,0-14.63152,3.31114-19.75799,10.64507v-8.51674h-16.88508v87.99674Z"/>
        <path d="M265.02917,85.63133h17.38257v-50.97477h11.00739v-11.82788h-11.13261v-4.3753c0-4.02279,1.62757-4.73445,6.50363-4.73445h4.62898V.35593c-3.12659-.23729-5.87764-.35593-8.50347-.35593-13.63326,0-19.88649,5.2056-19.88649,17.03348v5.7952h-9.50178v11.82788h9.50178v50.97477Z"/>
        <path d="M205.13244,54.1741c0-12.53954,5.75247-19.3989,15.62983-19.3989,9.88066,0,15.50792,6.85936,15.50792,19.3989,0,12.5327-5.62726,19.51412-15.50792,19.51412-9.87736,0-15.62983-6.98142-15.62983-19.51412M187.12387,54.1741c0,20.9308,12.7536,33.58556,33.63839,33.58556s33.64166-12.65476,33.64166-33.58556c0-20.93763-12.75689-33.59239-33.64166-33.59239s-33.63839,12.65476-33.63839,33.59239"/>
        <path d="M133.80327,54.1741c0-12.53954,5.75247-19.3989,15.62983-19.3989,9.88066,0,15.50789,6.85936,15.50789,19.3989,0,12.5327-5.62724,19.51412-15.50789,19.51412-9.87736,0-15.62983-6.98142-15.62983-19.51412M115.7947,54.1741c0,20.9308,12.7536,33.58556,33.63839,33.58556s33.64166-12.65476,33.64166-33.58556c0-20.93763-12.75689-33.59239-33.64166-33.59239s-33.63839,12.65476-33.63839,33.59239"/>
        <path d="M75.5275,85.63133h17.75816v-33.23647c0-9.45885,5.0013-14.1933,14.63154-14.1933h5.87767v-17.02685c-.87637-.11844-1.75277-.11844-2.62585-.11844-8.50349,0-14.50634,3.90073-19.13532,12.53612v-10.76371h-16.5062v62.80265Z"/>
        <path d="M50.76821,54.64183c0,11.71245-5.62725,18.57202-14.38114,18.57202-9.37987,0-14.88193-6.62228-14.88193-18.57202,0-12.88863,5.12647-19.5109,14.50634-19.5109,9.50506,0,14.75672,6.74092,14.75672,19.5109M4.24777,110.82542h17.25737v-32.99918c4.37858,6.50705,11.12932,9.93342,19.63282,9.93342,15.50792,0,27.26323-13.12591,27.26323-33.82284,0-20.10734-11.37973-33.23647-27.51362-33.23647-8.62869,0-14.63154,3.31114-19.75802,10.64507v-8.51674H4.24777v87.99674Z"/>
      </g>
      <path d="M597.48786,80.44622c0,3.82521-3.00281,6.82803-6.9106,6.82803-3.8665,0-6.95077-3.00281-6.95077-6.82803,0-3.74264,3.08427-6.74545,6.95077-6.74545,3.90779,0,6.9106,3.00281,6.9106,6.74545ZM585.35385,80.44622c0,3.00281,2.22059,5.38855,5.26469,5.38855,2.96153,0,5.14083-2.38574,5.14083-5.34726,0-3.00281-2.1793-5.42984-5.18211-5.42984s-5.2234,2.42702-5.2234,5.38855ZM589.50825,83.98354h-1.56334v-6.74545c.61708-.12386,1.48076-.20532,2.59106-.20532,1.27544,0,1.85123.20532,2.34445.49322.37047.2879.65837.8224.65837,1.48076,0,.73982-.57579,1.31561-1.39819,1.56334v.08146c.65837.24661,1.02772.74094,1.23416,1.64591.20532,1.02772.32918,1.43948.49322,1.68608h-1.68608c-.20644-.24661-.32918-.86369-.5345-1.6448-.12386-.74094-.53562-1.07012-1.3993-1.07012h-.73982v2.71492ZM589.54954,80.15832h.73982c.86369,0,1.56334-.2879,1.56334-.98755,0-.61708-.45304-1.02772-1.43948-1.02772-.41176,0-.69965.04129-.86369.08257v1.93269Z"/>
    </g>
  </g>
</svg>