<svg width="101" height="100" viewBox="0 0 101 100" fill="none" xmlns="http://www.w3.org/2000/svg">
<path d="M32.3147 60.1152L32.2592 60.0613C30.9641 61.327 29.6773 62.6013 28.4285 63.9095C27.7705 64.5987 27.5275 65.4749 28.2862 66.271C29.0801 67.1042 30.0368 67.0538 30.9132 66.4215C31.5563 65.9224 32.1609 65.378 32.7221 64.7926C44.9435 52.893 57.154 40.9826 69.3537 29.0614L76.7839 27.8001C75.5712 26.6013 70.5265 22.9715 69.3769 24.0873C64.5646 28.7562 59.7496 33.4226 54.9318 38.0864L32.3147 60.1152Z" fill="#00AEC7"/>
<path d="M38.5108 66.303C39.7015 67.5539 40.8171 66.6582 41.7614 65.7392C51.8141 55.9575 61.8637 46.1726 71.9101 36.3847C72.3878 35.9195 72.8648 35.4502 72.915 34.7344C72.9205 34.4026 72.8156 34.0779 72.6158 33.809C72.416 33.5402 72.1322 33.3415 71.8068 33.2429C70.6233 32.8261 69.8107 33.5006 69.0491 34.2419C59.105 43.9235 49.1621 53.6064 39.2205 63.2906C38.3406 64.1479 37.432 65.1698 38.5108 66.303Z" fill="#00AEC7"/>
<path d="M42.7568 43.5669L44.935 41.4455C44.792 40.8987 44.4193 40.4659 44.0039 40.0607C39.5708 35.7351 35.1327 31.4143 30.6895 27.0982C30.3263 26.7336 29.8944 26.4405 29.4174 26.2349C28.6889 25.9439 27.9377 25.9909 27.3585 26.612C26.7737 27.2395 26.7816 27.9612 27.2352 28.6215C27.6565 29.2204 28.1354 29.7787 28.6655 30.2889C31.9289 33.4903 35.2026 36.6815 38.4868 39.8627C39.5972 40.9413 40.7019 42.0273 41.8528 43.064C42.1075 43.301 42.4178 43.4737 42.7568 43.5669Z" fill="#00AEC7"/>
<path d="M51.5566 32.5404C52.0089 32.9809 52.5079 33.3936 53.0342 33.5565L55.1259 31.5192C54.9562 31.005 54.5271 30.5193 54.0751 30.0787C44.5109 20.758 34.943 11.4408 25.3716 2.12713C24.8364 1.60597 24.2642 1.13568 23.4352 1.16755C22.7848 1.20038 22.2641 1.47104 22.0173 2.06536C21.5808 3.11517 22.1388 3.88343 22.8579 4.58438C32.4235 13.9037 41.9898 23.2224 51.5566 32.5404Z" fill="#00AEC7"/>
<path d="M46.2973 37.4251C46.7631 37.877 47.3216 38.3387 47.9259 38.533L50.0082 36.505C49.7442 35.7695 49.1153 35.2785 48.5702 34.7461C42.7079 29.0234 36.8402 23.3058 30.9672 17.5934C29.751 16.4094 28.5421 15.2171 27.2882 14.0717C26.5512 13.3984 25.6758 13.2252 24.89 13.9836C24.1421 14.7053 24.1957 15.5547 24.7854 16.3634C25.0504 16.7157 25.3452 17.0458 25.6666 17.3503C32.5376 24.0478 39.4144 30.7394 46.2972 37.4251H46.2973Z" fill="#00AEC7"/>
<path d="M68.9209 67.055C69.2506 67.0964 69.5829 67.1149 69.9153 67.1103C71.1726 66.9965 72.7594 67.0768 72.7993 65.3894C72.8404 63.6489 71.2946 63.6414 69.9998 63.6884C68.6846 63.7362 67.7199 63.2092 66.846 62.314C65.5048 60.9398 64.1626 59.5576 62.7129 58.2956C61.4301 57.1787 61.6125 56.3596 62.78 55.2655C65.8556 52.3834 68.842 49.4106 71.8428 46.4537C72.7284 45.5807 73.5147 44.5373 72.321 43.4395C71.2493 42.4538 70.2259 43.1412 69.3836 43.9569C65.5599 47.66 61.7592 51.3856 57.9352 55.088C56.5977 56.3828 56.6596 57.5908 57.9841 58.8583C60.2276 61.0055 62.4679 63.1575 64.6449 65.368C65.8656 66.6073 67.199 67.3824 68.9209 67.055Z" fill="#00AEC7"/>
<path d="M20.8527 80.2552C16.9293 80.2853 13.0056 80.2595 9.0822 80.2831C8.53297 80.2864 8.39569 80.1346 8.40062 79.6137C8.4266 76.8715 8.43699 74.1287 8.39519 71.3869C8.38515 70.7281 8.5786 70.5859 9.23113 70.5899C13.8887 70.6184 18.5466 70.5985 23.2044 70.615C23.468 70.6159 23.6449 70.5882 23.7504 70.4824V66.4492C23.6439 66.3301 23.458 66.2861 23.1538 66.2871C16.6375 66.3085 10.1212 66.3085 3.60486 66.2874C3.02051 66.2855 2.88835 66.4503 2.89065 66.9966C2.91204 72.0577 2.90329 77.1189 2.90329 82.1801C2.90329 87.2635 2.91067 92.347 2.89188 97.4304C2.89 97.9394 3.00197 98.1173 3.56154 98.1005C4.95983 98.0586 6.36142 98.056 7.75949 98.1014C8.33641 98.1201 8.42559 97.9177 8.42329 97.4205C8.40458 93.3851 8.42518 89.3494 8.39914 85.314C8.39532 84.7223 8.52658 84.5324 9.17577 84.5378C13.0991 84.5702 17.0228 84.5445 20.9462 84.5655C21.4566 84.5682 21.6268 84.4485 21.6054 83.9379C21.5643 82.9586 21.5562 81.9745 21.6074 80.996C21.6381 80.4095 21.4692 80.2505 20.8527 80.2552Z" fill="#00AEC7"/>
<path d="M98.9014 84.6158C98.3596 79.857 95.3118 75.495 89.3768 74.8728C84.5541 74.3672 80.1465 76.5348 78.1968 81.0146C77.0153 83.7294 76.8804 86.5409 77.4214 89.403C78.4197 94.6843 82.6067 98.0861 88.0823 98.0859C92.9561 98.0858 96.7115 95.5137 98.2656 91.0763C99.0007 88.9773 99.1518 86.8145 98.9014 84.6158ZM92.2914 91.4217C91.8346 92.1063 91.2096 92.6689 90.473 93.0586C89.7365 93.4484 88.9117 93.6529 88.0735 93.6536C87.2353 93.6543 86.4102 93.4512 85.6729 93.0627C84.9357 92.6742 84.3097 92.1125 83.8517 91.4288C82.6518 89.6434 82.5106 87.633 82.6001 85.5847C82.6266 84.3118 82.9543 83.062 83.5576 81.9326C84.5125 80.2137 85.9685 79.3179 87.9962 79.2964C90.0475 79.2747 91.5652 80.1312 92.5492 81.866C93.3702 83.3102 93.5694 84.8921 93.5686 86.3811C93.5448 88.2458 93.2956 89.9287 92.2914 91.4217Z" fill="#00AEC7"/>
<path d="M41.4669 81.375C41.0215 77.9773 39.1201 75.861 35.7108 75.141C32.3435 74.43 29.0134 74.8449 25.7231 75.7117C25.3793 75.8022 25.3717 75.9635 25.4197 76.2443C25.5999 77.2979 25.7838 78.3522 25.9121 79.4125C25.9729 79.9146 26.1499 79.9691 26.6176 79.8373C28.6463 79.2627 30.7658 79.0538 32.8717 79.2209C34.6667 79.3616 35.9691 80.4306 36.3392 82.0633C36.4584 82.631 36.5211 83.2085 36.5264 83.7879C36.5376 84.2333 36.4425 84.3501 35.9536 84.2473C33.413 83.6946 30.7712 83.766 28.266 84.4551C23.5566 85.7556 21.6118 90.7622 24.2356 94.7908C25.5568 96.8194 27.6434 97.5453 29.9448 97.8076C33.72 98.2377 37.4434 97.7746 41.1504 97.0985C41.5571 97.0243 41.6443 96.849 41.6417 96.4765C41.6248 94.1363 41.6331 91.7959 41.6331 88.9611C41.5363 86.7627 41.8191 84.0612 41.4669 81.375ZM36.5247 88.5732C36.4942 89.3289 36.5161 90.0866 36.5161 90.8435C36.5161 91.6003 36.4988 92.3577 36.5234 93.1138C36.5355 93.4863 36.4569 93.6596 36.0206 93.7039C34.4223 93.8661 32.8179 94.0041 31.2316 93.7206C29.2908 93.3737 28.5233 92.4867 28.5106 90.7762C28.4989 89.1976 29.3731 88.1943 31.1934 87.8293C32.771 87.5289 34.3943 87.5389 35.9679 87.8586C36.443 87.9487 36.5417 88.1532 36.5247 88.5732Z" fill="#00AEC7"/>
<path d="M74.8064 93.2228C74.7397 92.7325 74.5753 92.7193 74.1473 92.866C72.4069 93.4463 70.5632 93.674 68.7292 93.5351C66.0971 93.3672 64.4191 92.1353 63.6171 89.6842C62.8905 87.5276 62.9081 85.1987 63.6672 83.0528C64.4594 80.7844 66.1335 79.5308 68.6132 79.3327C70.2631 79.1918 71.9241 79.4242 73.4665 80.0118C73.8814 80.17 74.0083 80.062 74.1033 79.6774C74.3651 78.6181 74.6254 77.5559 74.9591 76.5169C75.1209 76.013 74.9404 75.8758 74.4992 75.7246C72.4453 75.0007 70.26 74.6978 68.0803 74.8348C64.6139 75.0694 61.7748 76.472 59.7955 79.3028C58.2799 81.4705 57.6821 83.9154 57.6996 86.7368C57.6991 87.7109 57.8014 88.6825 58.005 89.6362C58.6636 92.8172 60.2399 95.4097 63.3295 96.8447C67.1664 98.6268 71.1131 98.3187 75.0563 97.1235C75.4051 97.0178 75.4238 96.8195 75.3667 96.5147C75.1616 95.4205 74.9562 94.325 74.8064 93.2228Z" fill="#00AEC7"/>
<path d="M54.8113 93.5264C53.1342 93.1992 52.5224 92.5667 52.2947 90.9029C52.2545 90.5942 52.2351 90.2833 52.2368 89.9722C52.2338 81.8174 52.233 73.6627 52.2344 65.5079C52.2344 65.352 52.2238 65.1952 52.2362 65.0402C52.2605 64.7373 52.1465 64.6745 51.8369 64.7282C50.4396 64.9704 49.042 65.2217 47.6346 65.3926C47.0671 65.4615 46.9427 65.6577 46.9454 66.1808C46.9672 70.4809 46.9577 74.7811 46.9577 79.0813C46.9577 80.1285 46.9559 81.1757 46.958 82.2229C46.9644 85.4979 46.9198 88.7741 46.9954 92.0476C47.0598 94.8304 48.335 96.5119 50.8018 97.3412C52.0051 97.7458 53.2615 97.8361 54.5177 97.9375C54.9282 97.9706 55.0221 97.7585 55.0735 97.4398C55.226 96.495 55.3866 95.5514 55.5495 94.6081C55.706 93.7011 55.7089 93.7015 54.8113 93.5264Z" fill="#00AEC7"/>
</svg>
