<svg id="Layer_1" data-name="Layer 1" xmlns="http://www.w3.org/2000/svg" viewBox="0 0 341.99 219.13"><defs><style>.cls-1{fill:#6cc221;}</style></defs><title>AV-Corporate-Logo</title><path class="cls-1" d="M231.19,459l-3-6.6h0l-3,6.6Zm-16.44,8.56,12.52-26.91a.81.81,0,0,1,.68-.44h.4a.81.81,0,0,1,.68.44l12.52,26.91a.71.71,0,0,1-.68,1h-4.44c-.72,0-1-.24-1.4-1l-1.44-3.16H222.71l-1.44,3.2a1.49,1.49,0,0,1-1.44,1h-4.4a.71.71,0,0,1-.68-1" transform="translate(-196.69 -250.44)"/><path class="cls-1" d="M250.27,441.32a.76.76,0,0,1,.76-.76h4.76a.79.79,0,0,1,.76.76v21.36h9.52a.76.76,0,0,1,.76.76v4.36a.76.76,0,0,1-.76.76H251a.76.76,0,0,1-.76-.76Z" transform="translate(-196.69 -250.44)"/><rect class="cls-1" x="78.37" y="190.12" width="6.32" height="28" rx="0.76" ry="0.76"/><path class="cls-1" d="M293.47,441.32a.76.76,0,0,1,.76-.76h16.56a.76.76,0,0,1,.76.76v4.36a.76.76,0,0,1-.76.76H299.71v5h9.12a.79.79,0,0,1,.76.76v4.36a.76.76,0,0,1-.76.76h-9.12v5.4h11.08a.76.76,0,0,1,.76.76v4.36a.76.76,0,0,1-.76.76H294.23a.76.76,0,0,1-.76-.76Z" transform="translate(-196.69 -250.44)"/><path class="cls-1" d="M321.51,440.88a.75.75,0,0,1,.76-.72h1l16,15.36h0v-14.2a.76.76,0,0,1,.76-.76h4.8a.79.79,0,0,1,.76.76v26.92a.75.75,0,0,1-.76.72h-.64a1.18,1.18,0,0,1-.52-.2l-15.8-15.88h0v14.92a.76.76,0,0,1-.76.76h-4.76a.79.79,0,0,1-.76-.76Z" transform="translate(-196.69 -250.44)"/><path class="cls-1" d="M370.09,442.21a.71.71,0,0,1,.68-1h5.32a.78.78,0,0,1,.68.44l6.6,14.6h.24l6.6-14.6a.78.78,0,0,1,.68-.44h5.32a.71.71,0,0,1,.68,1l-12.56,26.92a.76.76,0,0,1-.68.44h-.4a.76.76,0,0,1-.68-.44Z" transform="translate(-196.69 -250.44)"/><path class="cls-1" d="M414.33,459.56l-3-6.6h0l-3,6.6Zm-16.44,8.56,12.52-26.92a.81.81,0,0,1,.68-.44h.4a.81.81,0,0,1,.68.44l12.52,26.92a.71.71,0,0,1-.68,1h-4.44c-.72,0-1-.24-1.4-1L416.73,465H405.85l-1.44,3.2a1.49,1.49,0,0,1-1.44,1h-4.4a.71.71,0,0,1-.68-1" transform="translate(-196.69 -250.44)"/><path class="cls-1" d="M430.85,441.93a.79.79,0,0,1,.76-.76h4.92a.76.76,0,0,1,.76.76v16.2a5,5,0,1,0,9.92,0v-16.2a.76.76,0,0,1,.76-.76h4.92a.79.79,0,0,1,.76.76v16.52a11.4,11.4,0,0,1-22.8,0Z" transform="translate(-196.69 -250.44)"/><path class="cls-1" d="M464.61,441.93a.76.76,0,0,1,.76-.76h4.76a.79.79,0,0,1,.76.76v21.36h9.52a.76.76,0,0,1,.76.76v4.36a.76.76,0,0,1-.76.76h-15a.76.76,0,0,1-.76-.76Z" transform="translate(-196.69 -250.44)"/><path class="cls-1" d="M491.85,447h-5.72a.76.76,0,0,1-.76-.76v-4.36a.76.76,0,0,1,.76-.76h17.76a.76.76,0,0,1,.76.76v4.36a.76.76,0,0,1-.76.76h-5.72V468.4a.79.79,0,0,1-.76.76h-4.8a.79.79,0,0,1-.76-.76Z" transform="translate(-196.69 -250.44)"/><path class="cls-1" d="M513.11,250.44H207.84a11.18,11.18,0,0,0-11.14,11.14V411a11.18,11.18,0,0,0,11.14,11.14H513.11A11.18,11.18,0,0,0,524.25,411V261.58A11.18,11.18,0,0,0,513.11,250.44Zm-160.56,154a1.88,1.88,0,0,1-1.87,1.87H214.43a1.88,1.88,0,0,1-1.87-1.87V268.17a1.88,1.88,0,0,1,1.87-1.87H350.68a1.88,1.88,0,0,1,1.87,1.87Zm155.84,0a1.88,1.88,0,0,1-1.87,1.87H370.27a1.88,1.88,0,0,1-1.87-1.87V268.17a1.88,1.88,0,0,1,1.87-1.87H506.52a1.88,1.88,0,0,1,1.87,1.87Z" transform="translate(-196.69 -250.44)"/><path class="cls-1" d="M282.18,277c-26.1,0-47.25,22.86-47.25,51.07a54.52,54.52,0,0,0,3.45,19.15c9,24.86,34.2,49.85,43.8,49.1,9.6.75,34.81-24.25,43.8-49.1a54.56,54.56,0,0,0,3.45-19.15C329.43,299.85,308.28,277,282.18,277Zm-42.72,53.39s38.35-5.37,38.35,32.51C277.81,362.89,239.46,365.51,239.46,330.38Zm47.1,32.51c0-37.89,38.34-32.51,38.34-32.51C324.9,365.51,286.56,362.89,286.56,362.89Z" transform="translate(-196.69 -250.44)"/><path class="cls-1" d="M491.8,282.38a4,4,0,0,0-3.44-1.75h-16.2a3.9,3.9,0,0,0-3.62,2.37l-30.12,67.46L408.27,283a3.88,3.88,0,0,0-3.61-2.34h-16.2a4,4,0,0,0-3.44,1.75,3.89,3.89,0,0,0-.16,3.79L433.93,393a3.85,3.85,0,0,0,3.61,2.33h1.59a3.83,3.83,0,0,0,3.59-2.3L492,286.17A3.88,3.88,0,0,0,491.8,282.38Z" transform="translate(-196.69 -250.44)"/><path class="cls-1" d="M533.64,266.31a5,5,0,1,1-5,5A5.06,5.06,0,0,1,533.64,266.31Zm0,9a3.94,3.94,0,1,0-3.94-3.94A3.93,3.93,0,0,0,533.64,275.29ZM531.76,269a.27.27,0,0,1,.27-.27h2.17a1.7,1.7,0,0,1,1.72,1.74,1.63,1.63,0,0,1-1,1.55l.64,1.46a.26.26,0,0,1-.24.38h-.76a.31.31,0,0,1-.25-.2l-.62-1.57H533v1.5a.27.27,0,0,1-.27.27H532a.27.27,0,0,1-.27-.27ZM534,271.1a.56.56,0,0,0,.57-.57A.55.55,0,0,0,534,270h-1.11v1.15Z" transform="translate(-196.69 -250.44)"/></svg>