<svg version="1.1" id="Layer_1" xmlns:x="ns_extend;" xmlns:i="ns_ai;" xmlns:graph="ns_graphs;" xmlns="http://www.w3.org/2000/svg" xmlns:xlink="http://www.w3.org/1999/xlink" x="0px" y="0px" viewBox="0 0 496.8 107" style="enable-background:new 0 0 496.8 107;" xml:space="preserve">
 <style type="text/css">
  .st0{fill:#0033A1;}
	.st1{fill:#CC27B0;}
	.st2{fill:#0071CE;}
	.st3{fill:#E17FD2;}
 </style>
 <metadata>
  <sfw xmlns="ns_sfw;">
   <slices>
   </slices>
   <sliceSourceBounds bottomLeftOrigin="true" height="107" width="496.8" x="-167.5" y="-21.5">
   </sliceSourceBounds>
  </sfw>
 </metadata>
 <g>
  <path class="st0" d="M142.8,54.9c-5.4-1.5-8.2-4.2-8.2-7.9c0-4.6,4.2-7.8,9.9-7.8c5.9,0,9.7,3.2,9.9,8.2h14.5
		C168.7,34.6,159,26,144.7,26c-14.3,0-24.7,9-24.7,21.4c0,9.8,6.2,16.7,18.5,20.5l8.9,2.5c6.6,1.9,9.3,4.4,9.1,8.8
		c-0.1,5-4.4,8.2-11.2,8.2c-7.3,0-11-4.3-11.4-8.8h-14.7c0.3,12.8,10.9,21.6,26,21.6c12.2,0,25.6-6.6,25.8-20.9
		c0.3-10.5-6.3-17.7-19.7-21.6L142.8,54.9z">
  </path>
  <path class="st0" d="M199.7,49.4c-6.6,0.2-12.8,2.9-17.4,7.6c-4.6,4.7-7.2,11-7.2,17.6c0,6.6,2.6,12.9,7.2,17.6s10.8,7.5,17.4,7.6
		c4.1,0,11.1-2,14-6.4l0.9-1.4V99h13.7V50.5h-13.6V57l-0.9-1.3C209.4,49.6,200.6,49.4,199.7,49.4z M201.1,87
		c-1.7,0.1-3.3-0.2-4.9-0.8c-1.6-0.6-3-1.5-4.2-2.6c-1.2-1.1-2.2-2.5-2.8-4c-0.7-1.5-1-3.2-1-4.8c0-1.7,0.3-3.3,1-4.8
		c0.7-1.5,1.6-2.9,2.8-4c1.2-1.1,2.6-2,4.2-2.6c1.6-0.6,3.2-0.8,4.9-0.8c1.6,0,3.2,0.3,4.7,0.9c1.5,0.6,2.9,1.5,4,2.6
		c1.2,1.1,2.1,2.5,2.7,4c0.6,1.5,1,3.1,1,4.7c0,1.6-0.3,3.2-1,4.7c-0.6,1.5-1.5,2.9-2.7,4c-1.2,1.1-2.5,2-4,2.6
		C204.4,86.7,202.7,87,201.1,87z">
  </path>
  <path class="st0" d="M250,50.5h-13.6V99H250V50.5z">
  </path>
  <path class="st0" d="M271.9,27h-13.7v72h13.7V27z">
  </path>
  <path class="st0" d="M309.2,26.9h-29.5V99h14.6V73.8h14.9c17.4,0,23.6-12.6,23.6-23.4C332.8,34.2,321,26.9,309.2,26.9z M308.5,61.2
		h-14.2V39.6h14.6c6.4,0,9.3,6.3,9.3,10.8c0.1,1.3-0.1,2.7-0.6,4c-0.4,1.3-1.1,2.5-2,3.5c-0.9,1-2,1.8-3.2,2.4
		C311.2,60.8,309.9,61.1,308.5,61.2L308.5,61.2z">
  </path>
  <path class="st0" d="M357,49.4c-5,0-9.9,1.5-14,4.3c-4.1,2.8-7.4,6.7-9.3,11.3c-1.9,4.6-2.4,9.7-1.4,14.6c1,4.9,3.4,9.4,6.9,12.9
		c3.5,3.5,8,5.9,12.9,6.9c4.9,1,10,0.5,14.6-1.5c4.6-1.9,8.5-5.2,11.3-9.3c2.8-4.2,4.2-9,4.2-14c0.1-3.3-0.5-6.7-1.7-9.8
		c-1.2-3.1-3.1-5.9-5.4-8.3c-2.4-2.4-5.2-4.2-8.3-5.4C363.7,49.9,360.3,49.3,357,49.4z M357,86.4c-2.3,0-4.6-0.7-6.6-1.9
		c-1.9-1.3-3.5-3.1-4.4-5.3c-0.9-2.1-1.2-4.5-0.7-6.8c0.4-2.3,1.5-4.4,3.2-6.1c1.6-1.7,3.7-2.8,6-3.3c2.3-0.5,4.7-0.3,6.8,0.6
		c2.2,0.9,4,2.4,5.3,4.3c1.3,1.9,2,4.2,2,6.5c0.1,1.5-0.2,3-0.7,4.4c-0.5,1.4-1.3,2.7-2.3,3.8c-1,1.1-2.2,2-3.6,2.6
		c-1.4,0.6-2.8,1-4.3,1.1H357z">
  </path>
  <path class="st0" d="M401,50.5h-13.7V99H401V50.5z">
  </path>
  <path class="st0" d="M423.6,57.4l-0.9,1.7v-8.7h-13.8V99h13.7V73.3c0-6.9,3.3-10.6,9.6-10.6c5.6,0,9.1,4,9.1,10.3V99H455V69.9
		c0.1-13.2-6.2-20.5-17.6-20.5c-2.8,0-5.6,0.7-8,2.1C427,52.9,424.9,55,423.6,57.4L423.6,57.4z">
  </path>
  <path class="st0" d="M243.2,43.5c1.7,0,3.3-0.5,4.7-1.4c1.4-0.9,2.5-2.3,3.1-3.8c0.6-1.6,0.8-3.3,0.5-4.9c-0.3-1.7-1.1-3.2-2.3-4.4
		c-1.2-1.2-2.7-2-4.4-2.3c-1.7-0.3-3.4-0.2-4.9,0.5c-1.6,0.6-2.9,1.7-3.8,3.1c-0.9,1.4-1.4,3-1.4,4.7v0c0,1.1,0.2,2.2,0.7,3.3
		c0.6,1.6,1.7,2.9,3.1,3.8C239.9,43,241.5,43.5,243.2,43.5L243.2,43.5z">
  </path>
  <path class="st0" d="M394.2,43.5c1.7,0,3.3-0.5,4.7-1.4c1.4-0.9,2.5-2.3,3.1-3.8c0.7-1.6,0.8-3.3,0.5-4.9c-0.3-1.7-1.1-3.2-2.3-4.4
		c-1.2-1.2-2.7-2-4.4-2.3c-1.6-0.3-3.4-0.2-4.9,0.5c-1.6,0.6-2.9,1.7-3.8,3.1c-0.9,1.4-1.4,3-1.4,4.7v0c0,1.1,0.2,2.2,0.6,3.3
		c0.6,1.6,1.7,2.9,3.1,3.8C390.9,43,392.5,43.5,394.2,43.5z">
  </path>
  <path class="st0" d="M490.6,50.4h-9.6V31.5h-13.7v18.9h-9.1V62h9.1v37H481V62h9.6L490.6,50.4z">
  </path>
  <path class="st0" d="M63,0l13.2,78.6H0L63,0z">
  </path>
  <path class="st1" d="M62.9,0l46.7,78.6H76L62.9,0z">
  </path>
  <path class="st2" d="M0,78.6h76.2l4.8,28.4L0,78.6z">
  </path>
  <path class="st3" d="M76,78.6h33.5L80.8,107L76,78.6z">
  </path>
  <path class="st0" d="M494.2,89.7c0.8,0.5,1.4,1.1,1.9,1.9c0.5,0.8,0.7,1.8,0.7,2.8c0,1-0.2,1.9-0.7,2.8c-0.4,0.8-1.1,1.5-1.9,1.9
		c-0.8,0.5-1.8,0.7-2.7,0.7c-1,0-1.9-0.2-2.7-0.7c-0.8-0.5-1.5-1.1-1.9-1.9c-0.5-0.8-0.7-1.8-0.7-2.8c0-1,0.2-1.9,0.7-2.8
		c0.4-0.8,1.1-1.5,1.9-1.9c0.8-0.5,1.8-0.7,2.7-0.7C492.5,89,493.4,89.3,494.2,89.7z M494.7,97.7c0.8-0.9,1.2-2,1.2-3.2
		c0-1.2-0.4-2.3-1.2-3.2c-0.8-0.8-2-1.3-3.1-1.3c-1.2,0-2.3,0.5-3.1,1.3c-0.8,0.9-1.2,2-1.2,3.2c0,1.2,0.4,2.3,1.2,3.2
		c0.8,0.8,2,1.3,3.1,1.3C492.7,98.9,493.8,98.5,494.7,97.7L494.7,97.7z M493.5,94.4c-0.3,0.3-0.6,0.5-1,0.6l1.6,2.3l-1.4,0l-1.5-2.3
		h-0.6v2.3h-1.2v-5.8h2.5c0.5,0,1,0.1,1.4,0.5c0.2,0.2,0.3,0.4,0.4,0.6c0.1,0.2,0.1,0.5,0.1,0.7C493.9,93.6,493.7,94,493.5,94.4
		L493.5,94.4z M490.6,94h1.3c0.2,0,0.4-0.1,0.6-0.2c0.1-0.1,0.2-0.2,0.2-0.3c0-0.1,0.1-0.2,0.1-0.3c0-0.1,0-0.2-0.1-0.3
		c0-0.1-0.1-0.2-0.2-0.2c-0.2-0.1-0.4-0.2-0.6-0.2h-1.3V94z">
  </path>
 </g>
</svg>