<svg xmlns="http://www.w3.org/2000/svg" xmlns:v="https://svgstorm.com"
viewBox = "0 0 832 101"
width="832"
height="101">
<g fill="None" fill-opacity="0.0" stroke="#000000" stroke-opacity="0.00" stroke-width="0.3"><path d="
M 0.00 35.00 
C 0.50 35.00 1.00 35.00 1.00 35.00
C 2.20 17.30 19.36 3.93 35.00 0.00
L 0.00 0.00
L 0.00 35.00 Z"/>
</g>
<g fill="None" fill-opacity="0.0" stroke="#FF6F55" stroke-opacity="0.91" stroke-width="0.3"><path d="
M 1.00 35.00 
C 0.65 40.19 2.09 46.64 0.00 51.00
L 0.00 52.00
C 7.02 84.75 49.03 98.33 73.25 74.25 C 97.47 50.16 84.55 6.14 51.00 0.00
L 48.00 0.00
C 45.72 1.54 40.21 1.72 38.00 0.00
L 35.00 0.00
C 19.36 3.93 2.20 17.30 1.00 35.00
M 49.00 11.00 
C 72.40 14.80 83.15 46.51 68.08 64.08 C 53.01 81.65 23.02 79.40 13.23 56.77 C 3.44 34.14 23.18 6.81 49.00 11.00 Z"/>
</g>
<g fill="None" fill-opacity="0.0" stroke="#FE6E55" stroke-opacity="0.58" stroke-width="0.3"><path d="
M 48.00 0.00 
L 38.00 0.00
C 40.21 1.72 45.72 1.54 48.00 0.00 Z"/>
</g>
<g fill="None" fill-opacity="0.0" stroke="#000000" stroke-opacity="0.00" stroke-width="0.3"><path d="
M 0.00 52.00 
L 0.00 101.00
L 443.00 101.00
C 441.99 98.21 441.82 95.11 442.00 92.00
C 458.52 93.63 454.64 73.46 449.07 62.93 C 443.50 52.39 438.85 38.28 435.00 27.00
C 446.56 23.85 447.19 36.55 450.78 44.22 C 454.36 51.90 455.90 61.38 460.00 69.00
C 466.02 55.67 470.01 40.98 475.00 27.00
C 478.00 27.00 481.00 27.00 484.00 27.00
C 478.71 39.35 475.25 53.75 470.02 66.02 C 464.79 78.30 462.91 93.03 452.00 101.00
L 832.00 101.00
L 832.00 77.00
C 823.80 81.95 809.83 81.49 808.00 70.00
C 806.28 59.21 808.45 46.06 809.00 36.00
C 807.60 34.00 804.16 35.46 802.00 35.00
C 800.20 28.30 803.76 26.60 809.00 26.00
C 808.44 23.24 805.89 12.18 809.00 10.00
C 811.01 8.59 815.74 11.06 818.00 10.00
C 818.00 15.67 818.00 21.33 818.00 27.00
C 824.16 26.03 831.57 26.77 829.00 35.00
C 825.00 35.00 821.00 35.00 817.00 35.00
C 821.89 45.49 809.36 77.85 830.00 69.00
C 831.70 70.29 829.99 73.17 832.00 74.00
L 832.00 0.00
L 51.00 0.00
C 84.55 6.14 97.47 50.16 73.25 74.25 C 49.03 98.33 7.02 84.75 0.00 52.00
M 206.00 7.00 
C 206.55 31.38 204.45 56.59 208.00 80.00
C 202.37 81.52 195.51 76.77 198.00 71.00
C 183.44 90.71 156.25 75.57 156.01 53.99 C 155.76 32.41 179.91 15.60 196.00 35.00
C 196.00 25.67 196.00 16.33 196.00 7.00
C 199.33 7.00 202.67 7.00 206.00 7.00
M 305.00 7.00 
C 305.00 11.00 305.00 15.00 305.00 19.00
C 302.00 19.00 299.00 19.00 296.00 19.00
C 296.00 15.00 296.00 11.00 296.00 7.00
C 299.00 7.00 302.00 7.00 305.00 7.00
M 159.00 80.00 
C 145.63 83.54 146.06 67.12 142.00 59.00
C 132.67 59.00 123.33 59.00 114.00 59.00
C 110.74 67.38 110.28 83.53 97.00 80.00
C 104.82 56.00 115.45 32.81 124.00 9.00
C 138.56 9.29 139.03 29.54 144.92 41.08 C 150.82 52.61 154.62 67.76 159.00 80.00
M 415.00 79.00 
C 411.10 79.47 404.50 81.06 400.00 80.00 C 395.50 78.94 387.23 82.23 384.00 79.00
C 379.60 74.60 384.30 63.63 383.00 57.00 C 381.70 50.37 383.68 40.28 383.00 33.00 C 382.32 25.72 383.51 16.46 383.00 9.00
C 396.39 11.02 415.95 4.47 426.75 13.25 C 437.55 22.02 432.57 36.15 424.00 44.00
C 443.58 49.31 435.31 82.93 415.00 79.00
M 555.00 78.00 
C 555.19 81.12 549.08 80.64 546.00 79.00
C 537.94 74.70 537.47 56.97 529.00 54.00
C 525.33 56.56 519.40 53.95 515.00 55.00
C 511.66 56.42 514.09 60.68 513.00 65.00 C 511.91 69.32 515.34 75.66 513.00 79.00
C 511.69 80.88 506.38 80.38 505.00 79.00
C 500.60 74.60 505.30 63.63 504.00 57.00 C 502.70 50.37 504.68 40.28 504.00 33.00 C 503.32 25.72 504.51 16.46 504.00 9.00
C 518.24 9.78 539.30 4.79 548.75 17.25 C 558.20 29.71 553.37 46.63 540.00 52.00
C 543.96 61.07 550.41 69.11 555.00 78.00
M 256.00 37.00 
C 260.83 25.60 280.31 20.62 285.92 34.08 C 291.54 47.53 288.06 65.11 289.00 80.00
C 274.03 81.81 278.10 61.37 279.00 49.00 C 279.90 36.63 266.28 29.95 259.08 42.08 C 251.88 54.21 258.10 66.61 256.00 80.00
C 253.00 80.00 250.00 80.00 247.00 80.00
C 244.57 68.84 254.47 33.24 235.33 35.33 C 216.19 37.42 225.10 67.97 223.00 80.00
C 220.00 80.00 217.00 80.00 214.00 80.00
C 214.00 62.33 214.00 44.67 214.00 27.00
C 217.00 27.00 220.00 27.00 223.00 27.00
C 223.59 29.84 221.78 33.98 224.00 36.00
C 229.70 22.50 251.07 23.41 256.00 37.00
M 321.00 36.00 
C 321.00 36.05 322.00 36.00 322.00 36.00
C 328.58 26.58 347.05 20.28 353.30 33.70 C 359.56 47.12 354.20 65.22 356.00 80.00
C 353.00 80.00 350.00 80.00 347.00 80.00
C 343.98 68.53 355.15 33.68 335.33 35.33 C 315.51 36.98 323.49 67.14 322.00 80.00
C 319.00 80.00 316.00 80.00 313.00 80.00
C 313.00 62.33 313.00 44.67 313.00 27.00
C 320.22 24.92 322.37 29.52 321.00 36.00
M 645.00 74.00 
C 644.98 73.87 644.02 71.58 644.00 72.00
C 639.90 72.22 639.50 80.85 633.33 79.33 C 627.16 77.80 625.09 83.49 617.93 78.07 C 610.76 72.66 604.49 63.52 606.00 54.00
C 602.57 59.54 593.70 56.35 587.00 57.00 C 580.30 57.65 571.86 56.51 565.00 57.00
C 563.78 72.68 589.11 79.12 594.00 64.00
C 596.77 64.27 599.07 66.22 602.00 66.00
C 589.00 94.71 547.57 75.05 555.93 45.93 C 564.28 16.81 605.65 22.96 605.00 53.00
C 603.63 32.36 632.48 15.61 646.00 35.00
C 643.92 27.78 648.52 25.63 655.00 27.00
C 655.60 51.38 653.37 77.14 657.00 100.00
C 641.38 103.16 645.48 83.65 645.00 74.00
M 761.00 57.00 
C 747.67 57.00 734.33 57.00 721.00 57.00
C 719.78 72.68 745.11 79.12 750.00 64.00
C 752.77 64.27 755.07 66.22 758.00 66.00
C 744.74 95.35 701.77 74.01 712.32 44.32 C 722.87 14.63 765.63 25.98 761.00 57.00
M 801.00 33.00 
C 799.76 34.99 797.89 38.56 795.00 39.00
C 791.24 29.16 766.94 33.87 772.00 44.00 C 777.06 54.13 792.12 46.85 798.70 55.30 C 805.27 63.76 801.41 76.09 790.93 78.93 C 780.45 81.76 768.55 79.63 760.00 73.00
C 760.13 70.14 763.51 68.82 764.00 66.00
C 769.83 69.54 787.17 80.31 791.92 68.92 C 796.66 57.52 778.17 57.02 769.77 53.23 C 761.37 49.44 760.31 33.34 771.08 29.08 C 781.84 24.82 791.67 25.78 801.00 33.00
M 305.00 27.00 
C 305.00 44.67 305.00 62.33 305.00 80.00
C 302.00 80.00 299.00 80.00 296.00 80.00
C 296.00 62.33 296.00 44.67 296.00 27.00
C 299.00 27.00 302.00 27.00 305.00 27.00
M 671.00 27.00 
C 673.48 39.04 663.29 73.48 683.67 71.67 C 704.05 69.86 695.05 40.00 697.00 27.00
C 700.00 27.00 703.00 27.00 706.00 27.00
C 704.89 36.01 707.48 43.87 706.00 53.00 C 704.52 62.13 708.10 68.15 709.00 76.00 C 709.90 83.85 693.22 77.48 697.00 70.00
C 692.22 80.49 671.29 85.96 665.08 72.92 C 658.88 59.87 663.39 41.55 662.00 27.00
C 665.00 27.00 668.00 27.00 671.00 27.00 Z"/>
</g>
<g fill="None" fill-opacity="0.0" stroke="#FE6F55" stroke-opacity="0.86" stroke-width="0.3"><path d="
M 206.00 7.00 
C 202.67 7.00 199.33 7.00 196.00 7.00
C 196.00 16.33 196.00 25.67 196.00 35.00
C 179.91 15.60 155.76 32.41 156.01 53.99 C 156.25 75.57 183.44 90.71 198.00 71.00
C 195.51 76.77 202.37 81.52 208.00 80.00
C 204.45 56.59 206.55 31.38 206.00 7.00
M 185.00 35.00 
C 204.52 39.54 198.17 76.79 177.93 71.07 C 157.68 65.35 165.25 30.41 185.00 35.00 Z"/>
</g>
<g fill="None" fill-opacity="0.0" stroke="#FE6F55" stroke-opacity="0.83" stroke-width="0.3"><path d="
M 305.00 7.00 
C 302.00 7.00 299.00 7.00 296.00 7.00
C 296.00 11.00 296.00 15.00 296.00 19.00
C 299.00 19.00 302.00 19.00 305.00 19.00
C 305.00 15.00 305.00 11.00 305.00 7.00 Z"/>
</g>
<g fill="None" fill-opacity="0.0" stroke="#FF6F55" stroke-opacity="0.87" stroke-width="0.3"><path d="
M 159.00 80.00 
C 154.62 67.76 150.82 52.61 144.92 41.08 C 139.03 29.54 138.56 9.29 124.00 9.00
C 115.45 32.81 104.82 56.00 97.00 80.00
C 110.28 83.53 110.74 67.38 114.00 59.00
C 123.33 59.00 132.67 59.00 142.00 59.00
C 146.06 67.12 145.63 83.54 159.00 80.00
M 139.00 51.00 
C 131.67 51.00 124.33 51.00 117.00 51.00
C 120.05 40.81 124.94 31.22 128.00 21.00
C 131.70 30.62 135.94 40.84 139.00 51.00 Z"/>
</g>
<g fill="None" fill-opacity="0.0" stroke="#26333D" stroke-opacity="0.89" stroke-width="0.3"><path d="
M 384.00 79.00 
C 387.23 81.26 394.76 78.27 399.00 79.00 C 403.24 79.73 410.50 79.09 415.00 79.00
C 435.31 82.93 443.58 49.31 424.00 44.00
C 432.57 36.15 437.55 22.02 426.75 13.25 C 415.95 4.47 396.39 11.02 383.00 9.00
C 383.51 16.46 382.32 25.72 383.00 33.00 C 383.68 40.28 381.70 50.37 383.00 57.00 C 384.30 63.63 379.60 74.60 384.00 79.00
M 414.00 18.00 
C 422.52 19.76 426.83 28.74 420.25 36.25 C 413.67 43.75 401.72 38.30 393.00 40.00
C 393.00 32.67 393.00 25.33 393.00 18.00
C 395.42 14.55 410.84 17.35 414.00 18.00
M 393.00 71.00 
C 393.00 63.33 393.00 55.67 393.00 48.00
C 403.51 49.46 425.52 42.37 425.99 59.01 C 426.46 75.65 403.66 70.21 393.00 71.00 Z"/>
</g>
<g fill="None" fill-opacity="0.0" stroke="#26323D" stroke-opacity="0.91" stroke-width="0.3"><path d="
M 505.00 79.00 
C 506.79 80.25 510.99 78.06 513.00 79.00
C 515.34 75.66 511.91 69.32 513.00 65.00 C 514.09 60.68 511.66 56.42 515.00 55.00
C 517.84 53.79 525.55 52.79 529.00 54.00
C 537.47 56.97 537.94 74.70 546.00 79.00
C 548.35 79.82 553.34 79.19 555.00 78.00
C 550.41 69.11 543.96 61.07 540.00 52.00
C 553.37 46.63 558.20 29.71 548.75 17.25 C 539.30 4.79 518.24 9.78 504.00 9.00
C 504.51 16.46 503.32 25.72 504.00 33.00 C 504.68 40.28 502.70 50.37 504.00 57.00 C 505.30 63.63 500.60 74.60 505.00 79.00
M 533.00 45.00 
C 527.94 46.05 519.96 47.11 515.00 45.00
C 512.00 43.72 513.06 39.11 513.00 34.00 C 512.94 28.89 513.05 23.17 513.00 18.00
C 521.95 18.75 536.39 14.97 541.77 23.23 C 547.14 31.50 543.15 44.76 533.00 45.00 Z"/>
</g>
<g fill="None" fill-opacity="0.0" stroke="#313240" stroke-opacity="0.07" stroke-width="0.3"><path d="
M 809.00 26.00 
C 811.51 22.42 807.12 14.02 809.00 10.00
C 805.89 12.18 808.44 23.24 809.00 26.00 Z"/>
</g>
<g fill="None" fill-opacity="0.0" stroke="#25323D" stroke-opacity="0.89" stroke-width="0.3"><path d="
M 809.00 26.00 
C 803.76 26.60 800.20 28.30 802.00 35.00
C 804.16 35.46 807.60 34.00 809.00 36.00
C 811.72 39.89 807.37 48.31 809.00 53.00 C 810.63 57.69 807.75 65.98 808.00 70.00
C 809.83 81.49 823.80 81.95 832.00 77.00
L 832.00 74.00
C 829.99 73.17 831.70 70.29 830.00 69.00
C 809.36 77.85 821.89 45.49 817.00 35.00
C 821.00 35.00 825.00 35.00 829.00 35.00
C 831.57 26.77 824.16 26.03 818.00 27.00
C 818.00 21.33 818.00 15.67 818.00 10.00
C 815.74 11.06 811.01 8.59 809.00 10.00
C 807.12 14.02 811.51 22.42 809.00 26.00 Z"/>
</g>
<g fill="None" fill-opacity="0.0" stroke="#000000" stroke-opacity="0.00" stroke-width="0.3"><path d="
M 49.00 11.00 
C 23.18 6.81 3.44 34.14 13.23 56.77 C 23.02 79.40 53.01 81.65 68.08 64.08 C 83.15 46.51 72.40 14.80 49.00 11.00
M 35.00 47.00 
C 37.73 42.00 43.05 37.16 47.25 33.25 C 51.45 29.34 54.68 19.91 61.70 23.31 C 68.71 26.71 61.55 34.62 57.25 38.25 C 52.95 41.87 48.03 48.37 44.25 52.25 C 40.47 56.13 33.05 65.03 29.10 58.90 C 25.16 52.77 16.83 50.37 19.33 42.33 C 21.83 34.29 32.22 44.56 35.00 47.00 Z"/>
</g>
<g fill="None" fill-opacity="0.0" stroke="#30303F" stroke-opacity="0.06" stroke-width="0.3"><path d="
M 393.00 18.00 
C 399.96 18.47 407.06 17.37 414.00 18.00
C 410.84 17.35 395.42 14.55 393.00 18.00 Z"/>
</g>
<g fill="None" fill-opacity="0.0" stroke="#000000" stroke-opacity="0.00" stroke-width="0.3"><path d="
M 414.00 18.00 
C 407.06 17.37 399.96 18.47 393.00 18.00
C 393.00 25.33 393.00 32.67 393.00 40.00
C 401.72 38.30 413.67 43.75 420.25 36.25 C 426.83 28.74 422.52 19.76 414.00 18.00 Z"/>
</g>
<g fill="None" fill-opacity="0.0" stroke="#000000" stroke-opacity="0.00" stroke-width="0.3"><path d="
M 515.00 45.00 
C 519.96 46.18 527.90 45.46 533.00 45.00
C 543.15 44.76 547.14 31.50 541.77 23.23 C 536.39 14.97 521.95 18.75 513.00 18.00
C 513.05 23.17 512.94 28.89 513.00 34.00 C 513.06 39.11 512.00 43.72 515.00 45.00 Z"/>
</g>
<g fill="None" fill-opacity="0.0" stroke="#000000" stroke-opacity="0.00" stroke-width="0.3"><path d="
M 139.00 51.00 
C 135.94 40.84 131.70 30.62 128.00 21.00
C 124.94 31.22 120.05 40.81 117.00 51.00
C 124.33 51.00 131.67 51.00 139.00 51.00 Z"/>
</g>
<g fill="None" fill-opacity="0.0" stroke="#FF6F55" stroke-opacity="0.89" stroke-width="0.3"><path d="
M 35.00 47.00 
C 32.22 44.56 21.83 34.29 19.33 42.33 C 16.83 50.37 25.16 52.77 29.10 58.90 C 33.05 65.03 40.47 56.13 44.25 52.25 C 48.03 48.37 52.95 41.87 57.25 38.25 C 61.55 34.62 68.71 26.71 61.70 23.31 C 54.68 19.91 51.45 29.34 47.25 33.25 C 43.05 37.16 37.73 42.00 35.00 47.00 Z"/>
</g>
<g fill="None" fill-opacity="0.0" stroke="#FF6F55" stroke-opacity="0.86" stroke-width="0.3"><path d="
M 256.00 37.00 
C 251.07 23.41 229.70 22.50 224.00 36.00
C 221.78 33.98 223.59 29.84 223.00 27.00
C 220.00 27.00 217.00 27.00 214.00 27.00
C 214.00 44.67 214.00 62.33 214.00 80.00
C 217.00 80.00 220.00 80.00 223.00 80.00
C 225.10 67.97 216.19 37.42 235.33 35.33 C 254.47 33.24 244.57 68.84 247.00 80.00
C 250.00 80.00 253.00 80.00 256.00 80.00
C 258.10 66.61 251.88 54.21 259.08 42.08 C 266.28 29.95 279.90 36.63 279.00 49.00 C 278.10 61.37 274.03 81.81 289.00 80.00
C 288.06 65.11 291.54 47.53 285.92 34.08 C 280.31 20.62 260.83 25.60 256.00 37.00 Z"/>
</g>
<g fill="None" fill-opacity="0.0" stroke="#FF6F55" stroke-opacity="0.89" stroke-width="0.3"><path d="
M 322.00 36.00 
C 321.81 37.16 321.57 37.95 321.00 39.00
C 319.72 38.78 319.58 36.19 321.00 36.00
C 322.37 29.52 320.22 24.92 313.00 27.00
C 313.00 44.67 313.00 62.33 313.00 80.00
C 316.00 80.00 319.00 80.00 322.00 80.00
C 323.49 67.14 315.51 36.98 335.33 35.33 C 355.15 33.68 343.98 68.53 347.00 80.00
C 350.00 80.00 353.00 80.00 356.00 80.00
C 354.20 65.22 359.56 47.12 353.30 33.70 C 347.05 20.28 328.58 26.58 322.00 36.00 Z"/>
</g>
<g fill="None" fill-opacity="0.0" stroke="#25333D" stroke-opacity="0.87" stroke-width="0.3"><path d="
M 644.00 72.00 
C 644.04 71.15 645.26 70.14 646.00 70.00
C 645.72 71.28 646.76 73.50 645.00 74.00
C 645.48 83.65 641.38 103.16 657.00 100.00
C 653.37 77.14 655.60 51.38 655.00 27.00
C 648.52 25.63 643.92 27.78 646.00 35.00
C 632.48 15.61 603.63 32.36 605.00 53.00
C 605.65 22.96 564.28 16.81 555.93 45.93 C 547.57 75.05 589.00 94.71 602.00 66.00
C 599.07 66.22 596.77 64.27 594.00 64.00
C 589.11 79.12 563.78 72.68 565.00 57.00
C 571.86 56.51 580.30 57.65 587.00 57.00 C 593.70 56.35 602.57 59.54 606.00 54.00
C 604.49 63.52 610.76 72.66 617.93 78.07 C 625.09 83.49 627.16 77.80 633.33 79.33 C 639.50 80.85 639.90 72.22 644.00 72.00
M 596.00 49.00 
C 585.33 49.00 574.67 49.00 564.00 49.00
C 564.85 29.91 595.75 29.38 596.00 49.00
M 635.00 35.00 
C 654.49 39.83 645.74 78.21 625.93 71.07 C 606.11 63.94 615.14 30.08 635.00 35.00 Z"/>
</g>
<g fill="None" fill-opacity="0.0" stroke="#25333D" stroke-opacity="0.87" stroke-width="0.3"><path d="
M 761.00 57.00 
C 765.63 25.98 722.87 14.63 712.32 44.32 C 701.77 74.01 744.74 95.35 758.00 66.00
C 755.07 66.22 752.77 64.27 750.00 64.00
C 745.11 79.12 719.78 72.68 721.00 57.00
C 734.33 57.00 747.67 57.00 761.00 57.00
M 752.00 49.00 
C 741.34 49.00 730.66 49.00 720.00 49.00
C 720.85 29.91 751.75 29.38 752.00 49.00 Z"/>
</g>
<g fill="None" fill-opacity="0.0" stroke="#26333D" stroke-opacity="0.87" stroke-width="0.3"><path d="
M 801.00 33.00 
C 791.67 25.78 781.84 24.82 771.08 29.08 C 760.31 33.34 761.37 49.44 769.77 53.23 C 778.17 57.02 796.66 57.52 791.92 68.92 C 787.17 80.31 769.83 69.54 764.00 66.00
C 763.51 68.82 760.13 70.14 760.00 73.00
C 768.55 79.63 780.45 81.76 790.93 78.93 C 801.41 76.09 805.27 63.76 798.70 55.30 C 792.12 46.85 777.06 54.13 772.00 44.00 C 766.94 33.87 791.24 29.16 795.00 39.00
C 797.89 38.56 799.76 34.99 801.00 33.00 Z"/>
</g>
<g fill="None" fill-opacity="0.0" stroke="#FF6F54" stroke-opacity="0.88" stroke-width="0.3"><path d="
M 305.00 27.00 
C 302.00 27.00 299.00 27.00 296.00 27.00
C 296.00 44.67 296.00 62.33 296.00 80.00
C 299.00 80.00 302.00 80.00 305.00 80.00
C 305.00 62.33 305.00 44.67 305.00 27.00 Z"/>
</g>
<g fill="None" fill-opacity="0.0" stroke="#26333D" stroke-opacity="0.88" stroke-width="0.3"><path d="
M 443.00 101.00 
L 452.00 101.00
C 462.91 93.03 464.79 78.30 470.02 66.02 C 475.25 53.75 478.71 39.35 484.00 27.00
C 481.00 27.00 478.00 27.00 475.00 27.00
C 470.01 40.98 466.02 55.67 460.00 69.00
C 455.90 61.38 454.36 51.90 450.78 44.22 C 447.19 36.55 446.56 23.85 435.00 27.00
C 438.85 38.28 443.50 52.39 449.07 62.93 C 454.64 73.46 458.52 93.63 442.00 92.00
C 441.82 95.11 441.99 98.21 443.00 101.00 Z"/>
</g>
<g fill="None" fill-opacity="0.0" stroke="#26333D" stroke-opacity="0.89" stroke-width="0.3"><path d="
M 671.00 27.00 
C 668.00 27.00 665.00 27.00 662.00 27.00
C 663.39 41.55 658.88 59.87 665.08 72.92 C 671.29 85.96 692.22 80.49 697.00 70.00
C 693.22 77.48 709.90 83.85 709.00 76.00 C 708.10 68.15 704.52 62.13 706.00 53.00 C 707.48 43.87 704.89 36.01 706.00 27.00
C 703.00 27.00 700.00 27.00 697.00 27.00
C 695.05 40.00 704.05 69.86 683.67 71.67 C 663.29 73.48 673.48 39.04 671.00 27.00 Z"/>
</g>
<g fill="None" fill-opacity="0.0" stroke="#000000" stroke-opacity="0.00" stroke-width="0.3"><path d="
M 596.00 49.00 
C 595.75 29.38 564.85 29.91 564.00 49.00
C 574.67 49.00 585.33 49.00 596.00 49.00 Z"/>
</g>
<g fill="None" fill-opacity="0.0" stroke="#000000" stroke-opacity="0.00" stroke-width="0.3"><path d="
M 752.00 49.00 
C 751.75 29.38 720.85 29.91 720.00 49.00
C 730.66 49.00 741.34 49.00 752.00 49.00 Z"/>
</g>
<g fill="None" fill-opacity="0.0" stroke="#FF6F56" stroke-opacity="0.51" stroke-width="0.3"><path d="
M 0.00 51.00 
C 2.09 46.64 0.65 40.19 1.00 35.00
C 1.00 35.00 0.50 35.00 0.00 35.00
L 0.00 51.00 Z"/>
</g>
<g fill="None" fill-opacity="0.0" stroke="#000000" stroke-opacity="0.00" stroke-width="0.3"><path d="
M 185.00 35.00 
C 165.25 30.41 157.68 65.35 177.93 71.07 C 198.17 76.79 204.52 39.54 185.00 35.00 Z"/>
</g>
<g fill="None" fill-opacity="0.0" stroke="#000000" stroke-opacity="0.00" stroke-width="0.3"><path d="
M 635.00 35.00 
C 615.14 30.08 606.11 63.94 625.93 71.07 C 645.74 78.21 654.49 39.83 635.00 35.00 Z"/>
</g>
<g fill="None" fill-opacity="0.0" stroke="#FF6D58" stroke-opacity="0.50" stroke-width="0.3"><path d="
M 322.00 36.00 
C 322.00 36.00 321.00 36.05 321.00 36.00
C 319.58 36.19 319.72 38.78 321.00 39.00
C 321.57 37.95 321.81 37.16 322.00 36.00 Z"/>
</g>
<g fill="None" fill-opacity="0.0" stroke="#32333F" stroke-opacity="0.08" stroke-width="0.3"><path d="
M 808.00 70.00 
C 807.75 65.98 810.63 57.69 809.00 53.00 C 807.37 48.31 811.72 39.89 809.00 36.00
C 808.45 46.06 806.28 59.21 808.00 70.00 Z"/>
</g>
<g fill="None" fill-opacity="0.0" stroke="#303040" stroke-opacity="0.06" stroke-width="0.3"><path d="
M 533.00 45.00 
C 527.90 45.46 519.96 46.18 515.00 45.00
C 519.96 47.11 527.94 46.05 533.00 45.00 Z"/>
</g>
<g fill="None" fill-opacity="0.0" stroke="#000000" stroke-opacity="0.00" stroke-width="0.3"><path d="
M 393.00 71.00 
C 403.66 70.21 426.46 75.65 425.99 59.01 C 425.52 42.37 403.51 49.46 393.00 48.00
C 393.00 55.67 393.00 63.33 393.00 71.00 Z"/>
</g>
<g fill="None" fill-opacity="0.0" stroke="#333333" stroke-opacity="0.04" stroke-width="0.3"><path d="
M 515.00 55.00 
C 519.40 53.95 525.33 56.56 529.00 54.00
C 525.55 52.79 517.84 53.79 515.00 55.00 Z"/>
</g>
<g fill="None" fill-opacity="0.0" stroke="#27353D" stroke-opacity="0.10" stroke-width="0.3"><path d="
M 644.00 72.00 
C 644.02 71.58 644.98 73.87 645.00 74.00
C 646.76 73.50 645.72 71.28 646.00 70.00
C 645.26 70.14 644.04 71.15 644.00 72.00 Z"/>
</g>
<g fill="None" fill-opacity="0.0" stroke="#474A4A" stroke-opacity="0.02" stroke-width="0.3"><path d="
M 546.00 79.00 
C 549.08 80.64 555.19 81.12 555.00 78.00
C 553.34 79.19 548.35 79.82 546.00 79.00 Z"/>
</g>
<g fill="None" fill-opacity="0.0" stroke="#525252" stroke-opacity="0.01" stroke-width="0.3"><path d="
M 415.00 79.00 
C 410.50 79.09 403.24 79.73 399.00 79.00 C 394.76 78.27 387.23 81.26 384.00 79.00
C 387.23 82.23 395.50 78.94 400.00 80.00 C 404.50 81.06 411.10 79.47 415.00 79.00 Z"/>
</g>
<g fill="None" fill-opacity="0.0" stroke="#4D4D4D" stroke-opacity="0.01" stroke-width="0.3"><path d="
M 513.00 79.00 
C 510.99 78.06 506.79 80.25 505.00 79.00
C 506.38 80.38 511.69 80.88 513.00 79.00 Z"/>
</g>
<g fill="#000000" fill-opacity="0.00" stroke="None">
<path d="
M 0.00 35.00 
C 0.50 35.00 1.00 35.00 1.00 35.00
C 2.20 17.30 19.36 3.93 35.00 0.00
L 0.00 0.00
L 0.00 35.00 Z"/>
</g>
<g fill="#FF6F55" fill-opacity="0.91" stroke="None">
<path d="
M 1.00 35.00 
C 0.65 40.19 2.09 46.64 0.00 51.00
L 0.00 52.00
C 7.02 84.75 49.03 98.33 73.25 74.25 C 97.47 50.16 84.55 6.14 51.00 0.00
L 48.00 0.00
C 45.72 1.54 40.21 1.72 38.00 0.00
L 35.00 0.00
C 19.36 3.93 2.20 17.30 1.00 35.00
M 49.00 11.00 
C 72.40 14.80 83.15 46.51 68.08 64.08 C 53.01 81.65 23.02 79.40 13.23 56.77 C 3.44 34.14 23.18 6.81 49.00 11.00 Z"/>
</g>
<g fill="#FE6E55" fill-opacity="0.58" stroke="None">
<path d="
M 48.00 0.00 
L 38.00 0.00
C 40.21 1.72 45.72 1.54 48.00 0.00 Z"/>
</g>
<g fill="#000000" fill-opacity="0.00" stroke="None">
<path d="
M 0.00 52.00 
L 0.00 101.00
L 443.00 101.00
C 441.99 98.21 441.82 95.11 442.00 92.00
C 458.52 93.63 454.64 73.46 449.07 62.93 C 443.50 52.39 438.85 38.28 435.00 27.00
C 446.56 23.85 447.19 36.55 450.78 44.22 C 454.36 51.90 455.90 61.38 460.00 69.00
C 466.02 55.67 470.01 40.98 475.00 27.00
C 478.00 27.00 481.00 27.00 484.00 27.00
C 478.71 39.35 475.25 53.75 470.02 66.02 C 464.79 78.30 462.91 93.03 452.00 101.00
L 832.00 101.00
L 832.00 77.00
C 823.80 81.95 809.83 81.49 808.00 70.00
C 806.28 59.21 808.45 46.06 809.00 36.00
C 807.60 34.00 804.16 35.46 802.00 35.00
C 800.20 28.30 803.76 26.60 809.00 26.00
C 808.44 23.24 805.89 12.18 809.00 10.00
C 811.01 8.59 815.74 11.06 818.00 10.00
C 818.00 15.67 818.00 21.33 818.00 27.00
C 824.16 26.03 831.57 26.77 829.00 35.00
C 825.00 35.00 821.00 35.00 817.00 35.00
C 821.89 45.49 809.36 77.85 830.00 69.00
C 831.70 70.29 829.99 73.17 832.00 74.00
L 832.00 0.00
L 51.00 0.00
C 84.55 6.14 97.47 50.16 73.25 74.25 C 49.03 98.33 7.02 84.75 0.00 52.00
M 206.00 7.00 
C 206.55 31.38 204.45 56.59 208.00 80.00
C 202.37 81.52 195.51 76.77 198.00 71.00
C 183.44 90.71 156.25 75.57 156.01 53.99 C 155.76 32.41 179.91 15.60 196.00 35.00
C 196.00 25.67 196.00 16.33 196.00 7.00
C 199.33 7.00 202.67 7.00 206.00 7.00
M 305.00 7.00 
C 305.00 11.00 305.00 15.00 305.00 19.00
C 302.00 19.00 299.00 19.00 296.00 19.00
C 296.00 15.00 296.00 11.00 296.00 7.00
C 299.00 7.00 302.00 7.00 305.00 7.00
M 159.00 80.00 
C 145.63 83.54 146.06 67.12 142.00 59.00
C 132.67 59.00 123.33 59.00 114.00 59.00
C 110.74 67.38 110.28 83.53 97.00 80.00
C 104.82 56.00 115.45 32.81 124.00 9.00
C 138.56 9.29 139.03 29.54 144.92 41.08 C 150.82 52.61 154.62 67.76 159.00 80.00
M 415.00 79.00 
C 411.10 79.47 404.50 81.06 400.00 80.00 C 395.50 78.94 387.23 82.23 384.00 79.00
C 379.60 74.60 384.30 63.63 383.00 57.00 C 381.70 50.37 383.68 40.28 383.00 33.00 C 382.32 25.72 383.51 16.46 383.00 9.00
C 396.39 11.02 415.95 4.47 426.75 13.25 C 437.55 22.02 432.57 36.15 424.00 44.00
C 443.58 49.31 435.31 82.93 415.00 79.00
M 555.00 78.00 
C 555.19 81.12 549.08 80.64 546.00 79.00
C 537.94 74.70 537.47 56.97 529.00 54.00
C 525.33 56.56 519.40 53.95 515.00 55.00
C 511.66 56.42 514.09 60.68 513.00 65.00 C 511.91 69.32 515.34 75.66 513.00 79.00
C 511.69 80.88 506.38 80.38 505.00 79.00
C 500.60 74.60 505.30 63.63 504.00 57.00 C 502.70 50.37 504.68 40.28 504.00 33.00 C 503.32 25.72 504.51 16.46 504.00 9.00
C 518.24 9.78 539.30 4.79 548.75 17.25 C 558.20 29.71 553.37 46.63 540.00 52.00
C 543.96 61.07 550.41 69.11 555.00 78.00
M 256.00 37.00 
C 260.83 25.60 280.31 20.62 285.92 34.08 C 291.54 47.53 288.06 65.11 289.00 80.00
C 274.03 81.81 278.10 61.37 279.00 49.00 C 279.90 36.63 266.28 29.95 259.08 42.08 C 251.88 54.21 258.10 66.61 256.00 80.00
C 253.00 80.00 250.00 80.00 247.00 80.00
C 244.57 68.84 254.47 33.24 235.33 35.33 C 216.19 37.42 225.10 67.97 223.00 80.00
C 220.00 80.00 217.00 80.00 214.00 80.00
C 214.00 62.33 214.00 44.67 214.00 27.00
C 217.00 27.00 220.00 27.00 223.00 27.00
C 223.59 29.84 221.78 33.98 224.00 36.00
C 229.70 22.50 251.07 23.41 256.00 37.00
M 321.00 36.00 
C 321.00 36.05 322.00 36.00 322.00 36.00
C 328.58 26.58 347.05 20.28 353.30 33.70 C 359.56 47.12 354.20 65.22 356.00 80.00
C 353.00 80.00 350.00 80.00 347.00 80.00
C 343.98 68.53 355.15 33.68 335.33 35.33 C 315.51 36.98 323.49 67.14 322.00 80.00
C 319.00 80.00 316.00 80.00 313.00 80.00
C 313.00 62.33 313.00 44.67 313.00 27.00
C 320.22 24.92 322.37 29.52 321.00 36.00
M 645.00 74.00 
C 644.98 73.87 644.02 71.58 644.00 72.00
C 639.90 72.22 639.50 80.85 633.33 79.33 C 627.16 77.80 625.09 83.49 617.93 78.07 C 610.76 72.66 604.49 63.52 606.00 54.00
C 602.57 59.54 593.70 56.35 587.00 57.00 C 580.30 57.65 571.86 56.51 565.00 57.00
C 563.78 72.68 589.11 79.12 594.00 64.00
C 596.77 64.27 599.07 66.22 602.00 66.00
C 589.00 94.71 547.57 75.05 555.93 45.93 C 564.28 16.81 605.65 22.96 605.00 53.00
C 603.63 32.36 632.48 15.61 646.00 35.00
C 643.92 27.78 648.52 25.63 655.00 27.00
C 655.60 51.38 653.37 77.14 657.00 100.00
C 641.38 103.16 645.48 83.65 645.00 74.00
M 761.00 57.00 
C 747.67 57.00 734.33 57.00 721.00 57.00
C 719.78 72.68 745.11 79.12 750.00 64.00
C 752.77 64.27 755.07 66.22 758.00 66.00
C 744.74 95.35 701.77 74.01 712.32 44.32 C 722.87 14.63 765.63 25.98 761.00 57.00
M 801.00 33.00 
C 799.76 34.99 797.89 38.56 795.00 39.00
C 791.24 29.16 766.94 33.87 772.00 44.00 C 777.06 54.13 792.12 46.85 798.70 55.30 C 805.27 63.76 801.41 76.09 790.93 78.93 C 780.45 81.76 768.55 79.63 760.00 73.00
C 760.13 70.14 763.51 68.82 764.00 66.00
C 769.83 69.54 787.17 80.31 791.92 68.92 C 796.66 57.52 778.17 57.02 769.77 53.23 C 761.37 49.44 760.31 33.34 771.08 29.08 C 781.84 24.82 791.67 25.78 801.00 33.00
M 305.00 27.00 
C 305.00 44.67 305.00 62.33 305.00 80.00
C 302.00 80.00 299.00 80.00 296.00 80.00
C 296.00 62.33 296.00 44.67 296.00 27.00
C 299.00 27.00 302.00 27.00 305.00 27.00
M 671.00 27.00 
C 673.48 39.04 663.29 73.48 683.67 71.67 C 704.05 69.86 695.05 40.00 697.00 27.00
C 700.00 27.00 703.00 27.00 706.00 27.00
C 704.89 36.01 707.48 43.87 706.00 53.00 C 704.52 62.13 708.10 68.15 709.00 76.00 C 709.90 83.85 693.22 77.48 697.00 70.00
C 692.22 80.49 671.29 85.96 665.08 72.92 C 658.88 59.87 663.39 41.55 662.00 27.00
C 665.00 27.00 668.00 27.00 671.00 27.00 Z"/>
</g>
<g fill="#FE6F55" fill-opacity="0.86" stroke="None">
<path d="
M 206.00 7.00 
C 202.67 7.00 199.33 7.00 196.00 7.00
C 196.00 16.33 196.00 25.67 196.00 35.00
C 179.91 15.60 155.76 32.41 156.01 53.99 C 156.25 75.57 183.44 90.71 198.00 71.00
C 195.51 76.77 202.37 81.52 208.00 80.00
C 204.45 56.59 206.55 31.38 206.00 7.00
M 185.00 35.00 
C 204.52 39.54 198.17 76.79 177.93 71.07 C 157.68 65.35 165.25 30.41 185.00 35.00 Z"/>
</g>
<g fill="#FE6F55" fill-opacity="0.83" stroke="None">
<path d="
M 305.00 7.00 
C 302.00 7.00 299.00 7.00 296.00 7.00
C 296.00 11.00 296.00 15.00 296.00 19.00
C 299.00 19.00 302.00 19.00 305.00 19.00
C 305.00 15.00 305.00 11.00 305.00 7.00 Z"/>
</g>
<g fill="#FF6F55" fill-opacity="0.87" stroke="None">
<path d="
M 159.00 80.00 
C 154.62 67.76 150.82 52.61 144.92 41.08 C 139.03 29.54 138.56 9.29 124.00 9.00
C 115.45 32.81 104.82 56.00 97.00 80.00
C 110.28 83.53 110.74 67.38 114.00 59.00
C 123.33 59.00 132.67 59.00 142.00 59.00
C 146.06 67.12 145.63 83.54 159.00 80.00
M 139.00 51.00 
C 131.67 51.00 124.33 51.00 117.00 51.00
C 120.05 40.81 124.94 31.22 128.00 21.00
C 131.70 30.62 135.94 40.84 139.00 51.00 Z"/>
</g>
<g fill="#26333D" fill-opacity="0.89" stroke="None">
<path d="
M 384.00 79.00 
C 387.23 81.26 394.76 78.27 399.00 79.00 C 403.24 79.73 410.50 79.09 415.00 79.00
C 435.31 82.93 443.58 49.31 424.00 44.00
C 432.57 36.15 437.55 22.02 426.75 13.25 C 415.95 4.47 396.39 11.02 383.00 9.00
C 383.51 16.46 382.32 25.72 383.00 33.00 C 383.68 40.28 381.70 50.37 383.00 57.00 C 384.30 63.63 379.60 74.60 384.00 79.00
M 414.00 18.00 
C 422.52 19.76 426.83 28.74 420.25 36.25 C 413.67 43.75 401.72 38.30 393.00 40.00
C 393.00 32.67 393.00 25.33 393.00 18.00
C 395.42 14.55 410.84 17.35 414.00 18.00
M 393.00 71.00 
C 393.00 63.33 393.00 55.67 393.00 48.00
C 403.51 49.46 425.52 42.37 425.99 59.01 C 426.46 75.65 403.66 70.21 393.00 71.00 Z"/>
</g>
<g fill="#26323D" fill-opacity="0.91" stroke="None">
<path d="
M 505.00 79.00 
C 506.79 80.25 510.99 78.06 513.00 79.00
C 515.34 75.66 511.91 69.32 513.00 65.00 C 514.09 60.68 511.66 56.42 515.00 55.00
C 517.84 53.79 525.55 52.79 529.00 54.00
C 537.47 56.97 537.94 74.70 546.00 79.00
C 548.35 79.82 553.34 79.19 555.00 78.00
C 550.41 69.11 543.96 61.07 540.00 52.00
C 553.37 46.63 558.20 29.71 548.75 17.25 C 539.30 4.79 518.24 9.78 504.00 9.00
C 504.51 16.46 503.32 25.72 504.00 33.00 C 504.68 40.28 502.70 50.37 504.00 57.00 C 505.30 63.63 500.60 74.60 505.00 79.00
M 533.00 45.00 
C 527.94 46.05 519.96 47.11 515.00 45.00
C 512.00 43.72 513.06 39.11 513.00 34.00 C 512.94 28.89 513.05 23.17 513.00 18.00
C 521.95 18.75 536.39 14.97 541.77 23.23 C 547.14 31.50 543.15 44.76 533.00 45.00 Z"/>
</g>
<g fill="#313240" fill-opacity="0.07" stroke="None">
<path d="
M 809.00 26.00 
C 811.51 22.42 807.12 14.02 809.00 10.00
C 805.89 12.18 808.44 23.24 809.00 26.00 Z"/>
</g>
<g fill="#25323D" fill-opacity="0.89" stroke="None">
<path d="
M 809.00 26.00 
C 803.76 26.60 800.20 28.30 802.00 35.00
C 804.16 35.46 807.60 34.00 809.00 36.00
C 811.72 39.89 807.37 48.31 809.00 53.00 C 810.63 57.69 807.75 65.98 808.00 70.00
C 809.83 81.49 823.80 81.95 832.00 77.00
L 832.00 74.00
C 829.99 73.17 831.70 70.29 830.00 69.00
C 809.36 77.85 821.89 45.49 817.00 35.00
C 821.00 35.00 825.00 35.00 829.00 35.00
C 831.57 26.77 824.16 26.03 818.00 27.00
C 818.00 21.33 818.00 15.67 818.00 10.00
C 815.74 11.06 811.01 8.59 809.00 10.00
C 807.12 14.02 811.51 22.42 809.00 26.00 Z"/>
</g>
<g fill="#000000" fill-opacity="0.00" stroke="None">
<path d="
M 49.00 11.00 
C 23.18 6.81 3.44 34.14 13.23 56.77 C 23.02 79.40 53.01 81.65 68.08 64.08 C 83.15 46.51 72.40 14.80 49.00 11.00
M 35.00 47.00 
C 37.73 42.00 43.05 37.16 47.25 33.25 C 51.45 29.34 54.68 19.91 61.70 23.31 C 68.71 26.71 61.55 34.62 57.25 38.25 C 52.95 41.87 48.03 48.37 44.25 52.25 C 40.47 56.13 33.05 65.03 29.10 58.90 C 25.16 52.77 16.83 50.37 19.33 42.33 C 21.83 34.29 32.22 44.56 35.00 47.00 Z"/>
</g>
<g fill="#30303F" fill-opacity="0.06" stroke="None">
<path d="
M 393.00 18.00 
C 399.96 18.47 407.06 17.37 414.00 18.00
C 410.84 17.35 395.42 14.55 393.00 18.00 Z"/>
</g>
<g fill="#000000" fill-opacity="0.00" stroke="None">
<path d="
M 414.00 18.00 
C 407.06 17.37 399.96 18.47 393.00 18.00
C 393.00 25.33 393.00 32.67 393.00 40.00
C 401.72 38.30 413.67 43.75 420.25 36.25 C 426.83 28.74 422.52 19.76 414.00 18.00 Z"/>
</g>
<g fill="#000000" fill-opacity="0.00" stroke="None">
<path d="
M 515.00 45.00 
C 519.96 46.18 527.90 45.46 533.00 45.00
C 543.15 44.76 547.14 31.50 541.77 23.23 C 536.39 14.97 521.95 18.75 513.00 18.00
C 513.05 23.17 512.94 28.89 513.00 34.00 C 513.06 39.11 512.00 43.72 515.00 45.00 Z"/>
</g>
<g fill="#000000" fill-opacity="0.00" stroke="None">
<path d="
M 139.00 51.00 
C 135.94 40.84 131.70 30.62 128.00 21.00
C 124.94 31.22 120.05 40.81 117.00 51.00
C 124.33 51.00 131.67 51.00 139.00 51.00 Z"/>
</g>
<g fill="#FF6F55" fill-opacity="0.89" stroke="None">
<path d="
M 35.00 47.00 
C 32.22 44.56 21.83 34.29 19.33 42.33 C 16.83 50.37 25.16 52.77 29.10 58.90 C 33.05 65.03 40.47 56.13 44.25 52.25 C 48.03 48.37 52.95 41.87 57.25 38.25 C 61.55 34.62 68.71 26.71 61.70 23.31 C 54.68 19.91 51.45 29.34 47.25 33.25 C 43.05 37.16 37.73 42.00 35.00 47.00 Z"/>
</g>
<g fill="#FF6F55" fill-opacity="0.86" stroke="None">
<path d="
M 256.00 37.00 
C 251.07 23.41 229.70 22.50 224.00 36.00
C 221.78 33.98 223.59 29.84 223.00 27.00
C 220.00 27.00 217.00 27.00 214.00 27.00
C 214.00 44.67 214.00 62.33 214.00 80.00
C 217.00 80.00 220.00 80.00 223.00 80.00
C 225.10 67.97 216.19 37.42 235.33 35.33 C 254.47 33.24 244.57 68.84 247.00 80.00
C 250.00 80.00 253.00 80.00 256.00 80.00
C 258.10 66.61 251.88 54.21 259.08 42.08 C 266.28 29.95 279.90 36.63 279.00 49.00 C 278.10 61.37 274.03 81.81 289.00 80.00
C 288.06 65.11 291.54 47.53 285.92 34.08 C 280.31 20.62 260.83 25.60 256.00 37.00 Z"/>
</g>
<g fill="#FF6F55" fill-opacity="0.89" stroke="None">
<path d="
M 322.00 36.00 
C 321.81 37.16 321.57 37.95 321.00 39.00
C 319.72 38.78 319.58 36.19 321.00 36.00
C 322.37 29.52 320.22 24.92 313.00 27.00
C 313.00 44.67 313.00 62.33 313.00 80.00
C 316.00 80.00 319.00 80.00 322.00 80.00
C 323.49 67.14 315.51 36.98 335.33 35.33 C 355.15 33.68 343.98 68.53 347.00 80.00
C 350.00 80.00 353.00 80.00 356.00 80.00
C 354.20 65.22 359.56 47.12 353.30 33.70 C 347.05 20.28 328.58 26.58 322.00 36.00 Z"/>
</g>
<g fill="#25333D" fill-opacity="0.87" stroke="None">
<path d="
M 644.00 72.00 
C 644.04 71.15 645.26 70.14 646.00 70.00
C 645.72 71.28 646.76 73.50 645.00 74.00
C 645.48 83.65 641.38 103.16 657.00 100.00
C 653.37 77.14 655.60 51.38 655.00 27.00
C 648.52 25.63 643.92 27.78 646.00 35.00
C 632.48 15.61 603.63 32.36 605.00 53.00
C 605.65 22.96 564.28 16.81 555.93 45.93 C 547.57 75.05 589.00 94.71 602.00 66.00
C 599.07 66.22 596.77 64.27 594.00 64.00
C 589.11 79.12 563.78 72.68 565.00 57.00
C 571.86 56.51 580.30 57.65 587.00 57.00 C 593.70 56.35 602.57 59.54 606.00 54.00
C 604.49 63.52 610.76 72.66 617.93 78.07 C 625.09 83.49 627.16 77.80 633.33 79.33 C 639.50 80.85 639.90 72.22 644.00 72.00
M 596.00 49.00 
C 585.33 49.00 574.67 49.00 564.00 49.00
C 564.85 29.91 595.75 29.38 596.00 49.00
M 635.00 35.00 
C 654.49 39.83 645.74 78.21 625.93 71.07 C 606.11 63.94 615.14 30.08 635.00 35.00 Z"/>
</g>
<g fill="#25333D" fill-opacity="0.87" stroke="None">
<path d="
M 761.00 57.00 
C 765.63 25.98 722.87 14.63 712.32 44.32 C 701.77 74.01 744.74 95.35 758.00 66.00
C 755.07 66.22 752.77 64.27 750.00 64.00
C 745.11 79.12 719.78 72.68 721.00 57.00
C 734.33 57.00 747.67 57.00 761.00 57.00
M 752.00 49.00 
C 741.34 49.00 730.66 49.00 720.00 49.00
C 720.85 29.91 751.75 29.38 752.00 49.00 Z"/>
</g>
<g fill="#26333D" fill-opacity="0.87" stroke="None">
<path d="
M 801.00 33.00 
C 791.67 25.78 781.84 24.82 771.08 29.08 C 760.31 33.34 761.37 49.44 769.77 53.23 C 778.17 57.02 796.66 57.52 791.92 68.92 C 787.17 80.31 769.83 69.54 764.00 66.00
C 763.51 68.82 760.13 70.14 760.00 73.00
C 768.55 79.63 780.45 81.76 790.93 78.93 C 801.41 76.09 805.27 63.76 798.70 55.30 C 792.12 46.85 777.06 54.13 772.00 44.00 C 766.94 33.87 791.24 29.16 795.00 39.00
C 797.89 38.56 799.76 34.99 801.00 33.00 Z"/>
</g>
<g fill="#FF6F54" fill-opacity="0.88" stroke="None">
<path d="
M 305.00 27.00 
C 302.00 27.00 299.00 27.00 296.00 27.00
C 296.00 44.67 296.00 62.33 296.00 80.00
C 299.00 80.00 302.00 80.00 305.00 80.00
C 305.00 62.33 305.00 44.67 305.00 27.00 Z"/>
</g>
<g fill="#26333D" fill-opacity="0.88" stroke="None">
<path d="
M 443.00 101.00 
L 452.00 101.00
C 462.91 93.03 464.79 78.30 470.02 66.02 C 475.25 53.75 478.71 39.35 484.00 27.00
C 481.00 27.00 478.00 27.00 475.00 27.00
C 470.01 40.98 466.02 55.67 460.00 69.00
C 455.90 61.38 454.36 51.90 450.78 44.22 C 447.19 36.55 446.56 23.85 435.00 27.00
C 438.85 38.28 443.50 52.39 449.07 62.93 C 454.64 73.46 458.52 93.63 442.00 92.00
C 441.82 95.11 441.99 98.21 443.00 101.00 Z"/>
</g>
<g fill="#26333D" fill-opacity="0.89" stroke="None">
<path d="
M 671.00 27.00 
C 668.00 27.00 665.00 27.00 662.00 27.00
C 663.39 41.55 658.88 59.87 665.08 72.92 C 671.29 85.96 692.22 80.49 697.00 70.00
C 693.22 77.48 709.90 83.85 709.00 76.00 C 708.10 68.15 704.52 62.13 706.00 53.00 C 707.48 43.87 704.89 36.01 706.00 27.00
C 703.00 27.00 700.00 27.00 697.00 27.00
C 695.05 40.00 704.05 69.86 683.67 71.67 C 663.29 73.48 673.48 39.04 671.00 27.00 Z"/>
</g>
<g fill="#000000" fill-opacity="0.00" stroke="None">
<path d="
M 596.00 49.00 
C 595.75 29.38 564.85 29.91 564.00 49.00
C 574.67 49.00 585.33 49.00 596.00 49.00 Z"/>
</g>
<g fill="#000000" fill-opacity="0.00" stroke="None">
<path d="
M 752.00 49.00 
C 751.75 29.38 720.85 29.91 720.00 49.00
C 730.66 49.00 741.34 49.00 752.00 49.00 Z"/>
</g>
<g fill="#FF6F56" fill-opacity="0.51" stroke="None">
<path d="
M 0.00 51.00 
C 2.09 46.64 0.65 40.19 1.00 35.00
C 1.00 35.00 0.50 35.00 0.00 35.00
L 0.00 51.00 Z"/>
</g>
<g fill="#000000" fill-opacity="0.00" stroke="None">
<path d="
M 185.00 35.00 
C 165.25 30.41 157.68 65.35 177.93 71.07 C 198.17 76.79 204.52 39.54 185.00 35.00 Z"/>
</g>
<g fill="#000000" fill-opacity="0.00" stroke="None">
<path d="
M 635.00 35.00 
C 615.14 30.08 606.11 63.94 625.93 71.07 C 645.74 78.21 654.49 39.83 635.00 35.00 Z"/>
</g>
<g fill="#FF6D58" fill-opacity="0.50" stroke="None">
<path d="
M 322.00 36.00 
C 322.00 36.00 321.00 36.05 321.00 36.00
C 319.58 36.19 319.72 38.78 321.00 39.00
C 321.57 37.95 321.81 37.16 322.00 36.00 Z"/>
</g>
<g fill="#32333F" fill-opacity="0.08" stroke="None">
<path d="
M 808.00 70.00 
C 807.75 65.98 810.63 57.69 809.00 53.00 C 807.37 48.31 811.72 39.89 809.00 36.00
C 808.45 46.06 806.28 59.21 808.00 70.00 Z"/>
</g>
<g fill="#303040" fill-opacity="0.06" stroke="None">
<path d="
M 533.00 45.00 
C 527.90 45.46 519.96 46.18 515.00 45.00
C 519.96 47.11 527.94 46.05 533.00 45.00 Z"/>
</g>
<g fill="#000000" fill-opacity="0.00" stroke="None">
<path d="
M 393.00 71.00 
C 403.66 70.21 426.46 75.65 425.99 59.01 C 425.52 42.37 403.51 49.46 393.00 48.00
C 393.00 55.67 393.00 63.33 393.00 71.00 Z"/>
</g>
<g fill="#333333" fill-opacity="0.04" stroke="None">
<path d="
M 515.00 55.00 
C 519.40 53.95 525.33 56.56 529.00 54.00
C 525.55 52.79 517.84 53.79 515.00 55.00 Z"/>
</g>
<g fill="#27353D" fill-opacity="0.10" stroke="None">
<path d="
M 644.00 72.00 
C 644.02 71.58 644.98 73.87 645.00 74.00
C 646.76 73.50 645.72 71.28 646.00 70.00
C 645.26 70.14 644.04 71.15 644.00 72.00 Z"/>
</g>
<g fill="#474A4A" fill-opacity="0.02" stroke="None">
<path d="
M 546.00 79.00 
C 549.08 80.64 555.19 81.12 555.00 78.00
C 553.34 79.19 548.35 79.82 546.00 79.00 Z"/>
</g>
<g fill="#525252" fill-opacity="0.01" stroke="None">
<path d="
M 415.00 79.00 
C 410.50 79.09 403.24 79.73 399.00 79.00 C 394.76 78.27 387.23 81.26 384.00 79.00
C 387.23 82.23 395.50 78.94 400.00 80.00 C 404.50 81.06 411.10 79.47 415.00 79.00 Z"/>
</g>
<g fill="#4D4D4D" fill-opacity="0.01" stroke="None">
<path d="
M 513.00 79.00 
C 510.99 78.06 506.79 80.25 505.00 79.00
C 506.38 80.38 511.69 80.88 513.00 79.00 Z"/>
</g>
</svg>