<?xml version="1.0" encoding="UTF-8"?>
<svg xmlns="http://www.w3.org/2000/svg" xmlns:xlink="http://www.w3.org/1999/xlink" width="64px" height="64px" viewBox="0 0 64 64" version="1.1">
<g id="surface1">
<path style=" stroke:none;fill-rule:nonzero;fill:rgb(92.941177%,12.156863%,14.117648%);fill-opacity:1;" d="M 30.039062 -0.03125 C 30.183594 -0.0351562 30.332031 -0.0351562 30.484375 -0.0351562 C 30.796875 -0.0351562 31.105469 -0.0390625 31.417969 -0.0390625 C 31.882812 -0.0390625 32.347656 -0.046875 32.8125 -0.0507812 C 35.285156 -0.0625 37.691406 0.179688 40.078125 0.839844 C 40.203125 0.875 40.328125 0.90625 40.453125 0.941406 C 42.714844 1.574219 44.855469 2.433594 46.925781 3.535156 C 47.167969 3.664062 47.410156 3.785156 47.65625 3.90625 C 54.640625 7.488281 60.132812 14.476562 62.539062 21.871094 C 63.371094 24.539062 64.019531 27.230469 64.03125 30.039062 C 64.035156 30.183594 64.035156 30.332031 64.035156 30.484375 C 64.035156 30.796875 64.039062 31.105469 64.039062 31.417969 C 64.039062 31.882812 64.046875 32.347656 64.050781 32.8125 C 64.066406 35.394531 63.785156 37.863281 63.070312 40.351562 C 63.007812 40.570312 63.007812 40.570312 62.945312 40.796875 C 62.296875 43.046875 61.425781 45.132812 60.320312 47.199219 C 60.269531 47.296875 60.21875 47.394531 60.164062 47.492188 C 56.207031 54.859375 49.277344 60.367188 41.3125 62.800781 C 38.90625 63.503906 36.472656 64.019531 33.960938 64.03125 C 33.816406 64.035156 33.667969 64.035156 33.515625 64.035156 C 33.203125 64.035156 32.894531 64.039062 32.582031 64.039062 C 32.117188 64.039062 31.652344 64.046875 31.1875 64.050781 C 28.714844 64.0625 26.308594 63.820312 23.921875 63.160156 C 23.796875 63.125 23.671875 63.09375 23.546875 63.058594 C 21.285156 62.425781 19.144531 61.566406 17.074219 60.464844 C 16.832031 60.335938 16.589844 60.214844 16.34375 60.09375 C 9.359375 56.511719 3.867188 49.523438 1.460938 42.128906 C 0.628906 39.460938 -0.0195312 36.769531 -0.03125 33.960938 C -0.0351562 33.816406 -0.0351562 33.667969 -0.0351562 33.515625 C -0.0351562 33.203125 -0.0390625 32.894531 -0.0390625 32.582031 C -0.0390625 32.117188 -0.046875 31.652344 -0.0507812 31.1875 C -0.0664062 28.605469 0.214844 26.136719 0.929688 23.648438 C 0.972656 23.503906 1.011719 23.355469 1.054688 23.203125 C 1.703125 20.953125 2.574219 18.867188 3.679688 16.800781 C 3.730469 16.703125 3.78125 16.605469 3.835938 16.507812 C 7.792969 9.140625 14.722656 3.632812 22.6875 1.199219 C 25.09375 0.496094 27.527344 -0.0195312 30.039062 -0.03125 Z M 30.039062 -0.03125 "/>
<path style=" stroke:none;fill-rule:nonzero;fill:rgb(99.607843%,99.607843%,99.607843%);fill-opacity:1;" d="M 16.800781 14.398438 C 19.382812 14.386719 21.964844 14.375 24.542969 14.367188 C 25.742188 14.363281 26.941406 14.359375 28.140625 14.351562 C 29.1875 14.34375 30.234375 14.339844 31.28125 14.339844 C 31.832031 14.339844 32.386719 14.335938 32.9375 14.332031 C 36.824219 14.304688 40.496094 14.535156 43.519531 17.28125 C 45.347656 19.277344 45.761719 21.300781 45.664062 23.921875 C 45.535156 26.027344 44.71875 27.667969 43.199219 29.148438 C 42.261719 29.902344 41.078125 30.371094 40 30.878906 C 40.191406 30.953125 40.382812 31.023438 40.582031 31.097656 C 40.757812 31.164062 40.757812 31.164062 40.9375 31.230469 C 41.214844 31.335938 41.492188 31.4375 41.769531 31.535156 C 43.921875 32.363281 45.539062 33.839844 46.539062 35.929688 C 47.636719 38.582031 47.339844 41.246094 46.367188 43.886719 C 45.238281 46.417969 43.007812 47.800781 40.519531 48.769531 C 37.988281 49.585938 35.476562 49.667969 32.839844 49.648438 C 32.535156 49.644531 32.234375 49.644531 31.933594 49.644531 C 31.265625 49.644531 30.597656 49.640625 29.929688 49.636719 C 28.328125 49.628906 26.726562 49.621094 25.128906 49.617188 C 24.289062 49.613281 23.449219 49.609375 22.613281 49.605469 C 22.320312 49.605469 22.03125 49.605469 21.742188 49.601562 C 21.535156 49.601562 21.332031 49.601562 21.121094 49.601562 C 21.121094 49.445312 21.121094 49.289062 21.121094 49.125 C 21.117188 45.320312 21.109375 41.515625 21.097656 37.710938 C 21.09375 35.871094 21.089844 34.03125 21.089844 32.191406 C 21.089844 30.589844 21.085938 28.984375 21.078125 27.382812 C 21.074219 26.53125 21.074219 25.683594 21.074219 24.835938 C 21.074219 24.035156 21.074219 23.234375 21.066406 22.4375 C 21.066406 22.144531 21.066406 21.851562 21.066406 21.558594 C 21.113281 19.511719 21.113281 19.511719 20.160156 17.761719 C 19.765625 17.367188 19.765625 17.367188 19.328125 17.050781 C 18.703125 16.558594 18.089844 16.0625 17.488281 15.539062 C 17.355469 15.425781 17.226562 15.308594 17.089844 15.191406 C 16.800781 14.878906 16.800781 14.878906 16.800781 14.398438 Z M 16.800781 14.398438 "/>
<path style=" stroke:none;fill-rule:nonzero;fill:rgb(92.941177%,12.54902%,14.117648%);fill-opacity:1;" d="M 27.359375 34.078125 C 28.660156 34.070312 29.960938 34.058594 31.300781 34.050781 C 31.707031 34.046875 32.109375 34.042969 32.527344 34.035156 C 37.882812 34.003906 37.882812 34.003906 39.695312 35.667969 C 40.855469 36.933594 40.898438 38.074219 40.859375 39.730469 C 40.789062 41.003906 40.308594 41.835938 39.390625 42.699219 C 36.972656 44.605469 33.882812 44.382812 30.960938 44.351562 C 29.179688 44.335938 29.179688 44.335938 27.359375 44.320312 C 27.359375 40.941406 27.359375 37.5625 27.359375 34.078125 Z M 27.359375 34.078125 "/>
<path style=" stroke:none;fill-rule:nonzero;fill:rgb(92.941177%,12.941177%,14.901961%);fill-opacity:1;" d="M 27.359375 19.679688 C 28.480469 19.671875 29.605469 19.667969 30.761719 19.660156 C 31.109375 19.65625 31.460938 19.652344 31.820312 19.652344 C 36.535156 19.628906 36.535156 19.628906 38.378906 21.339844 C 39.34375 22.390625 39.460938 23.316406 39.425781 24.71875 C 39.273438 26.023438 38.640625 26.964844 37.625 27.777344 C 37.0625 28.140625 36.492188 28.328125 35.839844 28.480469 C 35.742188 28.507812 35.644531 28.53125 35.542969 28.558594 C 34.589844 28.796875 33.699219 28.84375 32.71875 28.832031 C 32.582031 28.832031 32.445312 28.832031 32.304688 28.832031 C 31.800781 28.828125 31.292969 28.824219 30.789062 28.820312 C 29.09375 28.808594 29.09375 28.808594 27.359375 28.800781 C 27.359375 25.789062 27.359375 22.78125 27.359375 19.679688 Z M 27.359375 19.679688 "/>
</g>
</svg>
