<?xml version="1.0" encoding="utf-8"?>
<!-- Generator: Adobe Illustrator 26.5.0, SVG Export Plug-In . SVG Version: 6.00 Build 0)  -->
<svg version="1.1" id="Layer_1" xmlns="http://www.w3.org/2000/svg" xmlns:xlink="http://www.w3.org/1999/xlink" x="0px" y="0px"
	 viewBox="0 0 1000 1000" style="enable-background:new 0 0 1000 1000;" xml:space="preserve">
<style type="text/css">
	.st0{fill:#6DBE4C;}
</style>
<g>
	<g>
		<g>
			<path class="st0" d="M319.06,592.72c-4.45-21.19-21.46-31.35-42.11-31.35c-35.23,0-50.21,29.14-50.21,59.6
				c0,33.55,14.58,61.81,50.61,61.81c25.91,0,41.3-18.1,42.51-42.38h19.84c-3.64,36.64-27.13,59.16-63.97,59.16
				c-46.56,0-68.43-33.55-68.43-76.38c0-42.83,24.29-77.26,70.86-77.26c30.77,0,56.68,16.78,61.14,48.12h-20.65v-1.32H319.06z"/>
			<path class="st0" d="M357.93,548.57h17.82v147.02h-17.82V548.57z"/>
			<path class="st0" d="M444.17,586.1c34.01,0,52.23,24.72,52.23,56.07s-18.22,55.19-52.23,55.19s-52.23-24.72-52.23-55.19
				C391.94,611.26,410.57,586.1,444.17,586.1z M444.17,682.34c18.22,0,34.01-14.57,34.01-40.18c0-26.05-14.58-40.18-34.01-40.18
				c-18.22,0-34.01,14.57-34.01,40.18C410.97,667.77,425.95,682.34,444.17,682.34z"/>
			<path class="st0" d="M601.68,695.59h-17.01v-16.78h-0.81c-7.29,13.25-19.84,19.87-35.23,19.87c-27.94,0-36.85-15.89-36.85-38.85
				v-70.64h17.82v71.96c0,13.25,8.1,21.19,22.27,21.19c21.46,0,31.58-14.57,31.58-33.55v-59.6h17.82v106.4H601.68z"/>
			<path class="st0" d="M718.69,695.59h-17.82v-14.57h-0.81c-6.07,11.48-19.84,16.78-34.42,16.78c-33.2,0-49.4-26.05-49.4-56.07
				s16.2-55.19,49.4-55.19c10.93,0,27.13,4.41,34.42,16.78h0.81v-54.75h17.82V695.59z M669.7,682.34c23.48,0,33.2-20.31,33.2-40.18
				c0-21.19-9.72-40.18-34.01-40.18c-24.29,0-32.39,20.31-32.39,41.5C635.69,663.36,645.81,682.34,669.7,682.34z"/>
		</g>
	</g>
	<g>
		<g>
			<g>
				<path class="st0" d="M899.27,358.28v31.35H742.58v25.61H901.7v33.55H701.28v-147.9H901.7v33.55H742.58v23.84L899.27,358.28
					L899.27,358.28z"/>
				<path class="st0" d="M209.33,414.35v34.44H20.25v-147.9h42.51v113.91h146.57V414.35z"/>
				<path class="st0" d="M372.1,300.45h53.85v0.88l-101.63,88.3v58.28h-42.51v-58.28l-102.03-89.18v-0.88h56.68l67.62,59.6
					L372.1,300.45z"/>
				<path class="st0" d="M581.03,447.91h-52.23L425.55,300.45h51.42l78.95,116.11l78.95-116.11h49.4L581.03,447.91z"/>
			</g>
			<g>
				<path class="st0" d="M941.38,303.54h-9.72v25.61h-5.26v-25.61h-9.72V300h23.48v3.53H941.38z M980.25,329.58h-5.26v-24.72l0,0
					l-9.72,24.72h-2.83l-10.12-24.72l0,0v24.72h-5.26v-30.02h7.29l8.91,22.52l8.91-22.52h7.29v30.02H980.25z"/>
			</g>
		</g>
	</g>
</g>
</svg>
