<?xml version="1.0" encoding="utf-8"?>
<!-- Generator: Adobe Illustrator 26.5.0, SVG Export Plug-In . SVG Version: 6.00 Build 0)  -->
<svg version="1.1" id="Layer_1" xmlns="http://www.w3.org/2000/svg" xmlns:xlink="http://www.w3.org/1999/xlink" x="0px" y="0px"
	 viewBox="0 0 321 320" style="enable-background:new 0 0 321 320;" xml:space="preserve">
<style type="text/css">
	.st0{fill:#6ABF4B;}
</style>
<g>
	<g>
		<g>
			<path class="st0" d="M102.6,190.1c-1.4-6.9-7-10.2-13.7-10.2c-11.4,0-16.3,9.5-16.3,19.4c0,10.9,4.7,20.1,16.4,20.1
				c8.4,0,13.4-5.9,13.8-13.8h6.4c-1.2,11.9-8.8,19.2-20.8,19.2c-15.1,0-22.2-10.9-22.2-24.8s7.9-25.1,23-25.1
				c10,0,18.4,5.5,19.9,15.6h-6.7v-0.4H102.6z"/>
			<path class="st0" d="M115.2,175.7h5.8v47.8h-5.8V175.7z"/>
			<path class="st0" d="M143.3,187.9c11.1,0,17,8,17,18.2s-5.9,17.9-17,17.9s-17-8-17-17.9C126.3,196.1,132.3,187.9,143.3,187.9z
				 M143.3,219.2c5.9,0,11.1-4.7,11.1-13.1c0-8.5-4.7-13.1-11.1-13.1c-5.9,0-11.1,4.7-11.1,13.1
				C132.5,214.5,137.3,219.2,143.3,219.2z"/>
			<path class="st0" d="M194.4,223.5h-5.5V218h-0.3c-2.4,4.3-6.4,6.5-11.4,6.5c-9.1,0-12-5.2-12-12.6v-23h5.8v23.4
				c0,4.3,2.6,6.9,7.2,6.9c7,0,10.3-4.7,10.3-10.9v-19.4h5.8v34.6H194.4z"/>
			<path class="st0" d="M232.5,223.5h-5.8v-4.7h-0.3c-2,3.7-6.4,5.5-11.2,5.5c-10.8,0-16.1-8.5-16.1-18.2s5.3-17.9,16.1-17.9
				c3.6,0,8.8,1.4,11.2,5.5h0.3v-17.8h5.8V223.5z M216.6,219.2c7.6,0,10.8-6.6,10.8-13.1c0-6.9-3.2-13.1-11.1-13.1
				s-10.5,6.6-10.5,13.5C205.5,213,208.8,219.2,216.6,219.2z"/>
		</g>
	</g>
	<g>
		<g>
			<g>
				<path class="st0" d="M291.2,113.9v10.2h-50.9v8.3H292v10.9h-65.1V95.2H292v10.9h-51.7v7.7L291.2,113.9L291.2,113.9z"/>
				<path class="st0" d="M66.9,132.1v11.2H5.5V95.2h13.8v37h47.6V132.1z"/>
				<path class="st0" d="M119.8,95.1h17.5v0.3l-33,28.7V143H90.5v-18.9l-33.2-29v-0.3h18.4l22,19.4L119.8,95.1z"/>
				<path class="st0" d="M187.7,143h-17l-33.6-47.9h16.7l25.7,37.7l25.7-37.7h16.1L187.7,143z"/>
			</g>
			<g>
				<path class="st0" d="M304.8,96.1h-3.2v8.3H300v-8.3h-3.2v-1.1h7.6v1.1H304.8z M317.5,104.5h-1.7v-8l0,0l-3.2,8h-0.9l-3.3-8l0,0
					v8h-1.7v-9.8h2.4l2.9,7.3l2.9-7.3h2.4v9.8H317.5z"/>
			</g>
		</g>
	</g>
</g>
</svg>
