<?xml version="1.0" encoding="utf-8"?>
<!-- Generator: Adobe Illustrator 26.5.0, SVG Export Plug-In . SVG Version: 6.00 Build 0)  -->
<svg version="1.1" id="Layer_1" xmlns="http://www.w3.org/2000/svg" xmlns:xlink="http://www.w3.org/1999/xlink" x="0px" y="0px"
	 viewBox="0 0 600 598.1" style="enable-background:new 0 0 600 598.1;" xml:space="preserve">
<style type="text/css">
	.st0{fill:#6ABF4B;}
</style>
<g>
	<g>
		<g>
			<path class="st0" d="M199.1,351.3c-2.5-11.9-12.1-17.6-23.7-17.6c-19.8,0-28.2,16.4-28.2,33.5c0,18.9,8.2,34.8,28.5,34.8
				c14.6,0,23.2-10.2,23.9-23.8h11.2c-2,20.6-15.3,33.3-36,33.3c-26.2,0-38.5-18.9-38.5-43c0-24.1,13.7-43.5,39.9-43.5
				c17.3,0,31.9,9.4,34.4,27.1h-11.6v-0.7H199.1z"/>
			<path class="st0" d="M220.9,326.4h10v82.7h-10V326.4z"/>
			<path class="st0" d="M269.4,347.5c19.1,0,29.4,13.9,29.4,31.5c0,17.6-10.2,31-29.4,31c-19.1,0-29.4-13.9-29.4-31
				C240.1,361.7,250.5,347.5,269.4,347.5z M269.4,401.7c10.2,0,19.1-8.2,19.1-22.6c0-14.7-8.2-22.6-19.1-22.6
				c-10.2,0-19.1,8.2-19.1,22.6C250.8,393.5,259.2,401.7,269.4,401.7z"/>
			<path class="st0" d="M358,409.1h-9.6v-9.4H348c-4.1,7.5-11.2,11.2-19.8,11.2c-15.7,0-20.7-8.9-20.7-21.9v-39.7h10v40.5
				c0,7.5,4.6,11.9,12.5,11.9c12.1,0,17.8-8.2,17.8-18.9v-33.5h10v59.9H358z"/>
			<path class="st0" d="M423.9,409.1h-10v-8.2h-0.5c-3.4,6.5-11.2,9.4-19.4,9.4c-18.7,0-27.8-14.7-27.8-31.5s9.1-31,27.8-31
				c6.1,0,15.3,2.5,19.4,9.4h0.5v-30.8h10V409.1z M396.3,401.7c13.2,0,18.7-11.4,18.7-22.6c0-11.9-5.5-22.6-19.1-22.6
				s-18.2,11.4-18.2,23.3C377.2,391,382.9,401.7,396.3,401.7z"/>
		</g>
	</g>
	<g>
		<g>
			<g>
				<path class="st0" d="M525.4,219.4V237h-88.1v14.4h89.5v18.9H414.1v-83.2h112.7V206h-89.5v13.4L525.4,219.4L525.4,219.4z"/>
				<path class="st0" d="M137.3,250.9v19.4H31v-83.2h23.9v64.1h82.4V250.9z"/>
				<path class="st0" d="M228.9,186.9h30.3v0.5L202,237v32.8h-23.9V237l-57.4-50.2v-0.5h31.9l38,33.5L228.9,186.9z"/>
				<path class="st0" d="M346.4,269.8H317L259,186.9h28.9l44.4,65.3l44.4-65.3h27.8L346.4,269.8z"/>
			</g>
			<g>
				<path class="st0" d="M549.1,188.6h-5.5V203h-3v-14.4h-5.5v-2h13.2v2H549.1z M571,203.2h-3v-13.9l0,0l-5.5,13.9H561l-5.7-13.9
					l0,0v13.9h-3v-16.9h4.1l5,12.7l5-12.7h4.1v16.9H571z"/>
			</g>
		</g>
	</g>
</g>
</svg>
