<?xml version="1.0" encoding="utf-8"?>
<!-- Generator: Adobe Illustrator 24.0.1, SVG Export Plug-In . SVG Version: 6.00 Build 0)  -->
<svg version="1.1" id="Layer_1" xmlns="http://www.w3.org/2000/svg" xmlns:xlink="http://www.w3.org/1999/xlink" x="0px" y="0px"
	 viewBox="0 0 228.2 70.9" style="enable-background:new 0 0 228.2 70.9;" xml:space="preserve">
<title>Citrix_Logo_Trademark_RGB</title>
<g>
	<path d="M0,43.8c0-16,10.7-27.2,26-27.2c10.3,0,18.7,5.2,22.1,13.2c0.4,0.7,0.5,1.5,0.5,2.3c0,1.7-1.4,3-3,3c-0.1,0-0.1,0-0.2,0
		c-1.5,0-2.8-1-3.2-2.4c-2.6-6.5-8.6-10.2-16.1-10.2c-11.4,0-19.5,8.7-19.5,21.3C6.6,56.3,14.5,65,26,65c7.5,0,13.2-3.6,16.2-11.2
		c0.4-1.4,1.7-2.4,3.1-2.4c1.8,0,3.2,1.4,3.2,3.2c0,0,0,0.1,0,0.1c0,0.7-0.1,1.4-0.4,2.1C45,65.4,36.7,70.9,26,70.9
		C10.6,70.9,0,59.8,0,43.8z"/>
	<path d="M86.9,66.5c0,2.2-1.2,3.6-3.3,3.6c-2.1,0-3.2-1.4-3.2-3.6l0-62.8c0-2.3,1.2-3.7,3.3-3.7s3.2,1.3,3.2,3.7V18h11.3
		c2,0,3.2,1.1,3.2,2.9c0,1.8-1.2,2.9-3.2,2.9H86.9L86.9,66.5z"/>
	<path d="M137.6,21.5c0,1.7-1.3,3.1-3,3.1c-0.1,0-0.2,0-0.3,0c-0.9,0-1.7-0.3-2.4-0.7c-1.6-0.8-3.4-1.2-5.3-1.1
		c-7,0-11.5,6.1-11.5,13.8v29.9c0,2.3-1.1,3.6-3.2,3.6s-3.3-1.3-3.3-3.6V21.1c0-2.3,1.2-3.7,3.3-3.7s3.2,1.3,3.2,3.7v1.3
		c2.9-3.8,7.5-5.9,12.3-5.8c3-0.1,5.9,0.6,8.5,2C137,19.2,137.6,20.3,137.6,21.5z"/>
	<path d="M144.3,21.1c0-2.3,1.2-3.7,3.3-3.7s3.2,1.3,3.2,3.7v45.4c0,2.2-1.2,3.6-3.3,3.6c-2.1,0-3.2-1.4-3.2-3.6V21.1z"/>
	<g>
		<path d="M60.2,21.1c0-2.3,1.2-3.7,3.3-3.7s3.2,1.3,3.2,3.7v45.4c0,2.2-1.2,3.6-3.3,3.6c-2.1,0-3.2-1.4-3.2-3.6V21.1z"/>
		<circle cx="63.5" cy="5.2" r="5.2"/>
	</g>
	<path d="M185.1,47.8l-17.9,21c-0.6,0.8-1.6,1.3-2.6,1.3c-1.7,0-3.1-1.3-3.1-3c0,0,0,0,0,0c0-0.9,0.3-1.7,0.9-2.3l18.7-21.2
		l-18-20.7c-0.7-0.6-1.1-1.5-1.1-2.4c0-1.7,1.4-3.1,3.2-3c0,0,0.1,0,0.1,0c1,0,1.9,0.5,2.5,1.3l17.4,20.5l17.4-20.5
		c0.6-0.8,1.5-1.3,2.5-1.3c1.7-0.1,3.2,1.2,3.2,2.9c0,0,0,0.1,0,0.1c0,0.9-0.4,1.8-1.1,2.4l-18,20.7l18.7,21.2
		c0.6,0.6,0.9,1.5,0.9,2.3c0,1.7-1.4,3.1-3.1,3c0,0,0,0,0,0c-1,0-2-0.5-2.6-1.3L185.1,47.8z"/>
	<path d="M221.4,64.6h-1.9v5h-0.8v-5h-1.9V64h4.6L221.4,64.6z M228.2,64v5.6h-0.7v-3.6l0.1-1.1h0l-0.1,0.4l-1.8,4.2h-0.6l-1.8-4.2
		l-0.2-0.4h0l0.1,1.1v3.6h-0.7V64h0.9l1.7,4l0.3,0.7h0l0.2-0.7l1.7-4H228.2z"/>
	<circle cx="185.1" cy="5.2" r="5.2"/>
</g>
</svg>
