<svg version="1.2" xmlns="http://www.w3.org/2000/svg" viewBox="0 0 1635 1422" width="1635" height="1422">
	<title>Mandiant logomark</title>
	<style>
		.s0 { fill: #d80e0b } 
		.s1 { fill: #000000 } 
	</style>
	<g id="#d80e0bff">
		<path id="Layer" class="s0" d="m0.7 1q104.7 0 209.3 0c193.3 266.6 386.8 533.2 580.1 799.9c169.5-232.6 339.1-465.2 508.6-697.8c25.1-33.9 49.5-68.2 74.6-102.1c86.7 0 173.3 0 260 0c-0.4 104.5-0.7 209-1.1 313.6c-29.6-2.3-60.2-3.9-88.8 5.3c-14.5 4.4-29 9.1-42.7 15.7c-22.7 11.4-44.2 25.2-64.3 40.8c-42.5 32.7-80.8 70.6-116.1 111c-16.5 17.8-31.2 37.3-45.1 57.1c-117.9 161.4-235.6 323-353.6 484.3c-17.8 24.8-36.1 49.3-53.9 74.1c-51.7 0-103.5 0.1-155.2-0.1c-147.9-204.7-296.6-408.9-444.6-613.6c0 310.8 0.1 621.6 0 932.5q-133.6 0-267.2 0q0-710.4 0-1420.7z" />
	</g>
	<g id="#000000ff">
		<path id="Layer" class="s1" d="m1543.1 513c29.1-10.8 60.1-15.7 91.1-15.8q0 461.7 0 923.5q-131.4 0-262.7 0c0-218.9 0-437.9 0-656.8c-1.5-57.6 17.3-115.3 51.8-161.5c30.1-40.5 72.6-71.7 119.8-89.4z" />
	</g>
</svg>