<svg width="158" height="32" viewBox="0 0 158 32" fill="none" xmlns="http://www.w3.org/2000/svg">
<g clip-path="url(#clip0_5743_762)">
<mask id="mask0_5743_762" style="mask-type:luminance" maskUnits="userSpaceOnUse" x="0" y="0" width="158" height="32">
<path d="M157.605 0H0.396484V32H157.605V0Z" fill="white"/>
</mask>
<g mask="url(#mask0_5743_762)">
<path d="M50.3694 18.5229C50.3879 19.1258 50.2952 19.7078 50.0865 20.2713C49.9358 20.7049 49.6923 21.0806 49.3537 21.3797C49.0708 21.6232 48.7508 21.8133 48.4146 21.9432C48.0946 22.0568 47.7561 22.131 47.4361 22.131C47.0604 22.131 46.6848 22.0568 46.3253 21.8875C45.9497 21.7182 45.6297 21.4748 45.3653 21.1733C45.0453 20.7977 44.8019 20.3455 44.6697 19.8748C44.4819 19.2533 44.4053 18.5971 44.4053 17.9571V17.8435L41.8477 18.4649V18.5391C41.8477 20.2875 42.3555 21.7182 43.334 22.7895C44.3126 23.8608 45.7039 24.4266 47.4523 24.4266C49.2007 24.4266 50.592 23.8817 51.5706 22.8104C52.5491 21.7391 53.0384 20.2342 53.0384 18.335V7.31592H50.3856V18.5252H50.3671L50.3694 18.5229Z" fill="#182954"/>
<path d="M63.2162 18.3722C63.2162 18.9357 63.1211 19.5015 62.8962 20.0279C62.7269 20.4801 62.444 20.8743 62.0869 21.2128C61.7669 21.4957 61.3913 21.7392 60.9971 21.8899C60.6214 22.0406 60.2272 22.1148 59.8307 22.1357C59.1536 22.1543 58.4765 21.9108 58.0058 21.4215C57.535 20.9508 57.3101 20.123 57.3101 19.0145V12.2621H54.8475V19.2024C54.8475 20.9508 55.2603 22.2679 56.0695 23.1328C56.8788 23.9977 58.0243 24.4314 59.4921 24.4314C60.96 24.4314 62.2562 23.7728 63.1976 22.4951V24.2435H65.6603V12.2621H63.1976V18.3745H63.2162V18.3722Z" fill="#182954"/>
<path d="M76.626 18.2423C76.6446 19.2394 76.3246 20.2366 75.6846 21.0064C75.1026 21.7392 74.2168 22.1542 73.2962 22.1357C72.3942 22.1357 71.6034 21.7415 70.9449 20.9879C70.2863 20.2157 69.9292 19.258 69.9478 18.2423C69.9292 17.2452 70.2863 16.2667 70.9263 15.4968C71.5849 14.7247 72.3547 14.349 73.2776 14.349C74.1982 14.3305 75.084 14.7432 75.666 15.4783C76.3246 16.2481 76.6446 17.2452 76.626 18.2423ZM73.7113 12.0742C72.9205 12.0742 72.1507 12.2621 71.455 12.6377C70.8707 12.9392 70.3652 13.3705 69.9686 13.8968V12.2597H67.506V29.5444H69.9686V22.5484C70.3443 23.0934 70.8521 23.527 71.4365 23.847C72.1321 24.2226 72.9229 24.4105 73.7113 24.4105C75.1976 24.429 76.5889 23.7705 77.5489 22.6435C78.5831 21.4771 79.1095 19.9908 79.1095 18.2423C79.1095 16.4939 78.5831 15.0261 77.5675 13.8597C76.5889 12.7119 75.1791 12.0534 73.7113 12.0719" fill="#182954"/>
<path d="M95.9026 16.9252C96.3548 15.1583 97.5188 14.2539 99.3808 14.2539C100.151 14.2354 100.886 14.4974 101.449 15.0238C101.976 15.5131 102.296 16.1902 102.351 16.9044L95.9003 16.9229L95.9026 16.9252ZM103.708 14.1241C103.351 13.6719 102.917 13.2777 102.428 12.9577C101.957 12.6562 101.449 12.4313 100.904 12.2806C100.378 12.1299 99.8145 12.0742 99.2672 12.0742C97.5188 12.0742 96.0695 12.6562 94.9611 13.8041C93.8527 14.9519 93.3055 16.436 93.3055 18.2423C93.2869 19.3136 93.5304 20.3849 94.0011 21.3449C94.4719 22.2655 95.2046 23.0377 96.0881 23.5826C97.0667 24.1461 98.1751 24.4476 99.3043 24.4104C99.9072 24.4104 100.489 24.3362 101.071 24.1647C101.561 24.0325 102.031 23.8261 102.463 23.5432C102.857 23.2974 103.195 22.9983 103.515 22.6597C103.798 22.3583 104.06 22.0197 104.267 21.6626C104.454 21.3426 104.624 21.0041 104.756 20.647L104.793 20.5519L102.442 19.9304L102.405 20.0047C102.14 20.6076 101.728 21.1339 101.201 21.5467C100.656 21.9409 99.9977 22.1496 99.3391 22.1287C98.3049 22.1287 97.4585 21.8273 96.8185 21.2081C96.1971 20.6261 95.8029 19.8354 95.7287 18.989H104.774L104.793 18.9125C104.83 18.6296 104.867 18.349 104.867 18.0661C104.867 17.3148 104.754 16.5426 104.547 15.8284C104.378 15.207 104.077 14.6435 103.701 14.1171" fill="#182954"/>
<path d="M123.905 22.1356C122.871 22.1542 121.855 21.8527 121.009 21.2892C120.144 20.7258 119.467 19.9165 119.014 18.9936C118.544 17.9965 118.3 16.8881 118.3 15.7774C118.282 14.6666 118.525 13.5582 119.014 12.5611C119.448 11.6197 120.144 10.8313 121.009 10.2678C122.776 9.13852 125.053 9.13852 126.82 10.2678C127.685 10.8313 128.38 11.6405 128.814 12.5611C129.285 13.5768 129.528 14.6666 129.528 15.7774C129.547 16.8858 129.303 17.9965 128.814 18.9936C128.362 19.935 127.685 20.7234 126.82 21.2892C125.955 21.8527 124.939 22.1542 123.905 22.1356ZM129.922 9.66722C129.19 8.87649 128.285 8.23881 127.309 7.82374C125.145 6.92171 122.701 6.92171 120.538 7.82374C119.541 8.25504 118.657 8.87649 117.943 9.66722C117.229 10.4765 116.663 11.3971 116.288 12.4127C115.497 14.5762 115.497 16.9646 116.288 19.1258C116.663 20.1414 117.227 21.062 117.943 21.8713C118.676 22.662 119.562 23.2997 120.556 23.7148C122.72 24.6168 125.164 24.6168 127.328 23.7148C128.325 23.2834 129.208 22.662 129.941 21.8713C130.674 21.062 131.239 20.1414 131.615 19.1258C132.406 16.9623 132.406 14.5739 131.615 12.4127C131.221 11.3971 130.655 10.4556 129.922 9.66722Z" fill="#182954"/>
<path d="M140.116 12.0719C139.608 12.0719 139.1 12.1461 138.611 12.3154C138.177 12.4476 137.765 12.6539 137.389 12.9368C137.106 13.1432 136.844 13.389 136.58 13.6325C136.447 13.7647 136.336 13.8945 136.223 14.0267V12.2783H133.739V24.2389H136.202V18.1078C136.202 17.5444 136.297 16.9786 136.522 16.4522C136.691 16 136.974 15.6058 137.331 15.2673C137.651 14.9844 138.008 14.7409 138.402 14.5902C138.778 14.4394 139.174 14.3652 139.569 14.3467C140.264 14.3096 140.923 14.5716 141.412 15.0609C141.864 15.5502 142.108 16.3594 142.108 17.4864V24.218H144.57V17.2777C144.589 13.818 143.084 12.0673 140.114 12.0673" fill="#182954"/>
<path d="M148.616 16.9252C149.068 15.1583 150.233 14.2539 152.095 14.2539C152.867 14.2354 153.599 14.4997 154.163 15.0261C154.689 15.5154 155.009 16.1925 155.065 16.9067L148.614 16.9252H148.616ZM157.53 18.9194C157.567 18.6365 157.604 18.356 157.604 18.0731C157.604 17.3218 157.49 16.5496 157.266 15.8354C157.078 15.2139 156.795 14.6505 156.401 14.1241C156.044 13.6719 155.61 13.2777 155.123 12.9577C154.652 12.6562 154.144 12.4313 153.599 12.2806C153.073 12.1299 152.51 12.0742 151.965 12.0742C150.216 12.0742 148.767 12.6562 147.659 13.8041C146.548 14.9519 146.003 16.436 146.003 18.2423C145.984 19.3136 146.228 20.3873 146.699 21.3449C147.169 22.2655 147.884 23.0377 148.786 23.5826C149.764 24.1461 150.873 24.4476 152.002 24.4105C152.602 24.4105 153.187 24.3362 153.769 24.167C154.258 24.0348 154.729 23.8284 155.16 23.5455C155.554 23.302 155.893 23.0006 156.213 22.662C156.496 22.3606 156.758 22.022 156.964 21.6649C157.152 21.3449 157.321 21.0064 157.453 20.6493L157.49 20.5542L155.158 19.9328L155.121 20.007C154.856 20.6099 154.444 21.1362 153.917 21.549C153.372 21.9432 152.714 22.1519 152.055 22.131C151.021 22.131 150.175 21.8296 149.535 21.2105C148.913 20.6284 148.519 19.8377 148.445 18.9913H157.509L157.528 18.9171L157.53 18.9194Z" fill="#182954"/>
<path d="M82.7751 13.0318C82.0795 13.2382 81.3467 13.2382 80.6488 13.0318L80.4795 12.9762V24.3153H82.9236V12.9947L82.7728 13.0318H82.7751Z" fill="#182954"/>
<path d="M81.741 7.95365C81.3097 7.9351 80.8761 8.10437 80.5561 8.42437C80.2546 8.74437 80.0854 9.15713 80.1039 9.59075C80.0854 10.0221 80.2546 10.4557 80.5561 10.7571C81.2146 11.3971 82.2674 11.3971 82.926 10.7571C83.2274 10.4371 83.3967 10.0244 83.3781 9.59075C83.3967 9.15945 83.2274 8.74437 82.926 8.42437C82.606 8.10437 82.1746 7.9351 81.741 7.95365Z" fill="#182954"/>
<path d="M89.1499 8.89502H86.9307V8.93212C86.9307 12.2226 84.7116 12.8255 84.4473 12.8997L84.373 12.9182V14.5739H86.5736V20.1228C86.5551 20.7628 86.6478 21.382 86.8171 22.0034C86.9493 22.4741 87.1557 22.9055 87.4571 23.2811C87.7215 23.6011 88.06 23.8631 88.4171 24.0533C88.7742 24.2411 89.1684 24.3547 89.5649 24.4289C90.562 24.5797 91.5777 24.5426 92.5562 24.3362L92.6304 24.3176V21.9292L92.5748 21.9478C92.5562 21.9478 90.7499 22.4741 89.7736 21.7414C89.3609 21.4214 89.1522 20.9321 89.1522 20.2736V14.5739H92.6304V12.3733H89.1522V8.89502H89.1499Z" fill="#182954"/>
<path d="M112.095 12.262C111.323 12.4127 110.609 12.7327 109.99 13.2034C109.537 13.542 109.162 13.9733 108.9 14.4811V12.262H106.416V24.2225H108.9V18.2237C108.9 17.7159 108.995 17.1895 109.183 16.7188C109.352 16.2875 109.616 15.9095 109.973 15.5895C110.312 15.2881 110.706 15.0631 111.121 14.8939C111.534 14.7431 111.968 14.6689 112.401 14.6689H112.533C113.06 14.6875 113.586 14.8011 114.075 14.9704L114.168 15.0075L114.187 14.9333C114.242 14.0498 114.412 13.1849 114.676 12.3385L114.694 12.3014L114.544 12.2643C113.734 12.1136 112.907 12.1136 112.1 12.2643" fill="#182954"/>
<path fill-rule="evenodd" clip-rule="evenodd" d="M3.06315 15.8957C3.06315 16.2133 3.08634 16.5542 3.11185 16.8719H7.06779C8.33619 16.8719 9.65561 16.8719 10.8521 16.5542C12.6098 16.0904 14.1727 15.0887 15.8098 14.0128L15.8585 13.9872C16.3965 13.5954 16.9808 13.3032 17.6162 13.1084C18.4208 12.8881 19.2533 12.8162 20.0811 12.8162H29.1895C28.8974 11.571 28.4336 10.3722 27.7727 9.27304H4.82083C3.67301 11.2765 3.06315 13.5722 3.06315 15.8933M26.3327 24.4684C21.5953 30.0128 13.2452 30.6968 7.70315 25.9339C7.16518 25.4701 6.67822 24.9809 6.23764 24.4684H26.3327ZM24.7953 18.7757C24.7953 20.0464 23.7449 21.0968 22.4765 21.0968C21.2081 21.0968 20.1576 20.0464 20.1576 18.7757C20.1576 17.5049 21.2081 16.4545 22.4765 16.4545C23.7449 16.4545 24.7953 17.5049 24.7953 18.7757ZM29.4585 14.7942H20.0579C19.4226 14.7687 18.764 14.8429 18.1542 14.989C17.7136 15.1351 17.2985 15.3554 16.9345 15.6243L16.8858 15.6499L16.8788 15.6545C15.1953 16.7536 13.44 17.8991 11.3669 18.4603C10.073 18.8035 8.75359 18.8267 7.48518 18.8267H3.40634C3.69851 20.0974 4.18779 21.3426 4.84634 22.4672H27.7495C28.9229 20.4638 29.5327 18.1681 29.5072 15.847C29.5072 15.527 29.4863 15.2046 29.4631 14.8638L29.4585 14.7942ZM7.70315 5.83188C13.2707 1.09217 21.5953 1.75072 26.3327 7.29739H6.23764C6.67822 6.78493 7.16518 6.27014 7.70315 5.83188ZM16.3965 32C25.2336 32 32.3965 24.8371 32.3965 16C32.3965 7.1629 25.2336 0 16.3965 0C7.55938 0 0.396484 7.1629 0.396484 16C0.396484 24.8371 7.55938 32 16.3965 32Z" fill="#00BFA5"/>
</g>
</g>
<defs>
<clipPath id="clip0_5743_762">
<rect width="158" height="32" fill="white"/>
</clipPath>
</defs>
</svg>
