<svg width="24" height="24" viewBox="0 0 24 24" xmlns="http://www.w3.org/2000/svg">
  <g transform="translate(8.5, 1.5)">
    <path d="M5.6911,8.1372 C4.5891,10.4322 4.0581,12.9752 3.8451,14.2342 C4.1251,15.1752 4.4021,16.3552 4.4021,17.3422 C4.4021,19.3392 3.2691,20.0812 3.2691,20.0812 C3.2691,20.0812 2.1351,19.3392 2.1351,17.3422 C2.1351,16.3502 2.3911,15.1562 2.6961,14.2202 C3.1981,12.4652 5.4991,7.4072 5.4991,7.4072 C5.4991,7.4072 5.0271,5.7142 4.5611,4.3842 C4.5331,4.3052 4.5051,4.2242 4.4751,4.1412 C4.4081,4.9182 4.2241,5.5292 4.2241,5.5292 C4.1491,3.6842 3.2691,0.9992 3.2691,0.9992 C3.2691,0.9992 3.2691,2.1062 1.6341,7.0432 C0.9161,9.2132 0.0001,11.7092 0.0001,13.8422 C0.0001,19.2012 3.2691,21.1972 3.2691,21.1972 C3.2691,21.1972 6.5371,19.2012 6.5371,13.8422 C6.5371,12.0562 6.1751,10.0362 5.6911,8.1372" fill="#FB8521"/>
  </g>
</svg>
