<svg width="2065" height="2500" viewBox="0 0 256 310" xmlns="http://www.w3.org/2000/svg" preserveAspectRatio="xMidYMid"><path d="M0 173.367l.985.52 15.49 1.762 19.455-1.082.856-.45-17.267-1.501-19.519.75z" fill="#B6C99C"/><path d="M128 .698L73.948 27.724V201.23L128 211.148l1.85-2.5V5.148L128 .699z" fill="#4C612C"/><path d="M128 .698v217.7l54.053-16.141V27.724L128 .698z" fill="#769B3F"/><path d="M219.214 174.117l.922.623 19.339 1.074 15.656-1.779.869-.669-19.52-.75-17.266 1.501z" fill="#B6C99C"/><path d="M219.214 210.153l20.27 2.627.543-.998v-35.397l-.543-1.141-20.27-1.126v36.035z" fill="#4C612C"/><path d="M36.786 210.153l-20.27 2.627-.342-.925v-36.001l.342-.61 20.27-1.126v36.035z" fill="#769B3F"/><path d="M125.748 208.651l-89.713-15.765-19.52 1.876.889.891 85.223 17.265.974-.513 22.147-3.754z" fill="#B6C99C"/><path d="M0 191.385v54.428L89.713 290.8v.055L128 310l1.6-3.002v-118.85l-1.6-3.746-38.287-3.753v28.888l-73.197-14.81v-19.483L0 173.367v18.018z" fill="#4C612C"/><path d="M128 209.026l21.771 3.754 2.804.118 85.285-17.129 1.624-1.007-19.144-1.877L128 209.026z" fill="#B6C99C"/><path d="M239.484 175.243v19.483l-73.196 14.811v-30.165L128 183.126V310l128-64.188v-72.446l-16.516 1.877z" fill="#769B3F"/><path d="M166.287 182.375L128 179.372l-38.288 3.003L128 186.13l38.287-3.754z" fill="#B6C99C"/></svg>