<svg xmlns="http://www.w3.org/2000/svg" xmlns:xlink="http://www.w3.org/1999/xlink" viewBox="0 0 74.375 85" fill="#fff" fill-rule="evenodd" stroke="#000" stroke-linecap="round" stroke-linejoin="round"><use xlink:href="#A" x="2.188" y="2.5"/><symbol id="A" overflow="visible"><g stroke="none"><path d="M70 57.405L34.949 51.19 0 57.405 34.949 80 70 57.405z" fill="#b7ca9d"/><path d="M.031 57.405v6.039l4.454 2.107L35.021 80V69.922" fill="#4b612c"/><path d="M69.969 57.405v6.039l-4.454 2.107L34.979 80V69.922" fill="#759c3e"/><path d="M35.021 48.527l14.794 1.483-14.794 13.873L20.227 50.01l14.794-1.483z" fill="#b7ca9d"/><path d="M20.227 59.805l14.794 4.205V52.03l-14.794-2.02v9.795z" fill="#4b612c"/><path d="M49.815 59.805L35.021 64.01V52.03l14.794-2.02v9.795z" fill="#759c3e"/><path d="M20.227 7.034L35.021 0l14.155 25.463-14.155 19.649-14.794-1.122V7.034z" fill="#4b612c"/><path d="M49.815 43.99l-14.794 1.122V0l14.794 7.034V43.99z" fill="#759c3e"/></g></symbol></svg>