<svg class="w-6 h-6" height="40" width="40" xmlns="http://www.w3.org/2000/svg"><defs><linearGradient x1="0%" y1="100%" x2="100%" y2="0%" id="Arch_AWS-WAF_32_svg__a"><stop stop-color="#BD0816" offset="0%"></stop><stop stop-color="#FF5252" offset="100%"></stop></linearGradient></defs><g fill="none" fill-rule="evenodd"><path d="M0 0h40v40H0z" fill="url(#Arch_AWS-WAF_32_svg__a)"></path><path d="M8.138 21H7v-1h1.139a12.277 12.277 0 012.322-6.73l.811.585A11.28 11.28 0 009.139 20H11v1H9.138c.093 2.237.82 4.365 2.134 6.18l-.811.586A12.274 12.274 0 018.138 21zm19.609 9.556A12.25 12.25 0 0121 32.878V34h-1v-1.121a12.274 12.274 0 01-6.749-2.322l.586-.811A11.28 11.28 0 0020 31.879V30h1v1.878a11.26 11.26 0 006.161-2.131l.586.809zM13.251 10.479A12.267 12.267 0 0120 8.157V7h1v1.157c2.443.097 4.768.888 6.747 2.322l-.586.81A11.27 11.27 0 0021 9.157V11h-1V9.157c-2.23.096-4.352.822-6.163 2.133l-.586-.811zM34 20v1h-1.139a12.261 12.261 0 01-2.323 6.766l-.81-.586A11.276 11.276 0 0031.861 21H30v-1h1.86c-.1-2.225-.826-4.34-2.132-6.145l.81-.585A12.264 12.264 0 0132.86 20H34zm-6.294-7.396l3.78-3.78.707.707-3.78 3.781-.707-.708zM13.293 28.431l-3.78 3.78-.707-.707 3.78-3.78.707.707zm1.048-13.383L7.186 7.894l.707-.707 7.155 7.154-.707.707zm13.015 11.601l6.457 6.457-.707.707-6.457-6.457.707-.707zm-11.415-5.285c.042-.074.087-.148.133-.22.927-1.459.625-3.468.329-4.625.817.485 1.553 1.591 1.821 2.088a.472.472 0 00.479.261.497.497 0 00.433-.332c.83-2.358.362-4.107-.232-5.209a3.946 3.946 0 011.71 1.796c.771 1.603.6 3.794-.447 5.718-1.44 2.65-1.121 5.431-.792 6.88a12.413 12.413 0 01-2.236-1.215c-1.654-1.152-2.181-3.411-1.198-5.142zm7.338-.157a.5.5 0 00.807.468c.044-.035.949-.783 1.366-2.603.539.734 1.145 2.271.397 5.168-.726 2.814-4.19 3.581-5.367 3.762-.288-1.025-.906-3.98.564-6.683 1.062-1.952 1.319-4.167.733-5.96 1.037 1.148 1.957 3.001 1.5 5.848zm-8.207-.337c-1.236 2.176-.579 5.012 1.495 6.457.942.657 2.085 1.228 3.395 1.697a.527.527 0 00.169.029c.01 0 .02-.005.029-.006v.005c.229-.018 5.605-.485 6.658-4.562 1.354-5.249-1.349-6.801-1.465-6.865a.499.499 0 00-.737.387 6.643 6.643 0 01-.235 1.203c-.27-4.306-3.674-6.036-4.325-6.328-.677-.519-1.499-.875-2.454-1.045a.502.502 0 00-.407.877c.083.069 1.821 1.574 1.282 4.438-.617-.83-1.631-1.874-2.825-1.874a.5.5 0 00-.466.681c.011.029 1.12 2.952.044 4.643a4.464 4.464 0 00-.158.263z" fill="#FFF"></path></g></svg>