<svg xmlns="http://www.w3.org/2000/svg" xmlns:xlink="http://www.w3.org/1999/xlink" viewBox="0 0 85 85" fill="#fff" fill-rule="evenodd" stroke="#000" stroke-linecap="round" stroke-linejoin="round"><use xlink:href="#A" x="2.5" y="2.5"/><symbol id="A" overflow="visible"><g stroke="none"><path d="M13.766 3.12h52.468c3.651 0 7.152 1.363 9.734 3.788S80 12.624 80 16.054v21.698c-2.717-1.319-8.664-2.723-17.464-2.723-3.37-.013-6.737.224-10.068.709-5.932.922-9.057 2.51-9.057 3.489v36.873c0 .61.891 1.418 2.581 2.212H13.766C6.163 78.313 0 72.522 0 65.379V16.054C0 8.911 6.163 3.12 13.766 3.12z" fill="#9d5025"/><path d="M13.766 0h52.468c3.651 0 7.152 1.363 9.734 3.788S80 9.504 80 12.934v21.67c-2.717-1.319-8.664-2.723-17.464-2.723a67.94 67.94 0 0 0-10.068.709c-5.932.922-9.057 2.51-9.057 3.489v36.816c0 .61.891 1.418 2.581 2.212H13.766c-3.651 0-7.152-1.363-9.734-3.788S0 65.604 0 62.174v-49.24C0 5.791 6.163 0 13.766 0z" fill="#f58534"/><path d="M63.924 41.808a57.03 57.03 0 0 0-8.453.596 26.44 26.44 0 0 1-7.547-.624v3.546c0 .823 2.641 2.156 7.547 2.907a54.47 54.47 0 0 0 8.453.596C74.339 48.828 80 46.517 80 45.326V41.78zm-16.377 10.41v24.251c0 1.22 4.528 3.517 15.321 3.517a51.68 51.68 0 0 0 13.268-1.418c2.143-.652 3.668-1.418 3.834-1.943V52.516c-3.14 1.829-9.615 2.836-16.045 2.836h-.423-1.977-.272l-1.63-.27h-.815l-1.268-.099-.679-.099-1.358-.17a22.49 22.49 0 0 1-7.955-2.496z" fill="#9d5025"/><path d="M63.924 38.277a57.01 57.01 0 0 0-8.453.596c-4.981.78-7.547 2.113-7.547 2.922s2.641 2.156 7.547 2.907a54.46 54.46 0 0 0 8.453.596C74.339 45.298 80 42.986 80 41.795s-5.66-3.517-16.076-3.517zM47.547 48.673v24.223c0 1.234 4.528 3.503 15.275 3.503a51.68 51.68 0 0 0 13.268-1.418c2.143-.652 3.668-1.418 3.834-1.943v-24.11c-3.14 1.83-9.615 2.836-16.045 2.836h-.423-1.977-.272l-1.585-.227h-.815l-1.268-.099-.679-.099-1.358-.17a22.49 22.49 0 0 1-7.955-2.496z" fill="#f58534"/><path d="M13.766 75.165h32.196v3.12H13.766C6.163 78.285 0 72.494 0 65.351v-3.12c0 7.143 6.163 12.934 13.766 12.934z" fill="#9d5025"/><path d="M65.177 16.168L53.102 4.822v5.673H34.249V30.35h18.823v2.184l4.256-.44L69.72 20.422zm-57.569-.001v14.182h20.83V16.167v-5.715H7.608v5.715zm5.811 33.512v14.182h20.83V49.679v-5.715h-20.83v5.715z"/></g></symbol></svg>