<svg width="64" height="64" viewBox="0 0 64 64" xmlns="http://www.w3.org/2000/svg">
  <g transform="translate(2,2) scale(0.78)">
    <path fill="#1a1a1a" d="M37.2 24.833c0 2.95-2.392 5.343-5.343 5.343s-5.343-2.392-5.343-5.343S28.918 19.5 31.87 19.5s5.343 2.392 5.343 5.343zm-5.343-6.678a6.68 6.68 0 0 0-6.679 6.678 6.68 6.68 0 0 0 6.679 6.678 6.68 6.68 0 0 0 6.678-6.678 6.68 6.68 0 0 0-6.678-6.678zM0 39.4l.126-.146c3.567-3.096 8.27-3.92 8.27-3.92-1.607 2.783-.274 3.606-.274 3.606h49.934c3.606 0 5.407-.94 5.407-.94s.496.576.537 1.422v.1c-.078.78-.527 1.302-.527 1.302s-1.802-.94-5.407-.94H8.122s-1.333.823.274 3.606c0 0-4.703-.823-8.27-3.92z"/>
    <path fill="#1a1a1a" d="M34.123 30.62v1.057h-.4v.334h-1.447m-2.673-1.39v1.057h.4v.334h1.447"/>
    <path fill="#1a1a1a" d="M30.69 31.464h2.36V44.08h-2.36z"/>
    <path fill="#1a1a1a" d="M31.326 43.85h1.085v1.996h-1.085z"/>
  </g>
  <g transform="translate(-17.27,-16.03) scale(0.83)">
    <path d="m82.8943,83.90972c-1.2829,1.29771 -1.2829,3.40073 0,4.69845c1.28387,1.29672 3.36448,1.29672 4.64737,0c1.28389,-1.29771 1.28389,-3.40074 0,-4.69845c-1.28289,-1.29672 -3.36349,-1.29672 -4.64737,0zm3.47428,3.51469a1.626,1.64352 0 0 1 -2.30119,0a1.62624,1.64377 0 0 1 0,-2.32524a1.626,1.64352 0 0 1 2.30119,0c0.63534,0.63921 0.63534,1.68306 0,2.32524zm1.11881,-19.85965l-2.01385,2.0353a1.01976,1.03075 0 0 0 0,1.4522l7.86195,7.94668a1.01976,1.03075 0 0 0 1.43671,0l2.01362,-2.03555c0.39371,-0.39796 0.39371,-1.05325 0,-1.45096l-7.86538,-7.94791a1.01707,1.02803 0 0 0 -1.43304,0l0,0.00024zm-14.10843,26.00932a0.92023,0.93015 0 0 0 0,-1.31255l-1.02294,-1.03496a0.92145,0.93138 0 0 0 -1.29928,0l-2.11388,2.13789l-0.00391,0.00296l-0.57982,-0.58705c-0.32109,-0.32455 -0.84369,-0.32455 -1.16161,0c-0.32109,0.3243 -0.32109,0.85253 0,1.17412l3.48383,3.52038a0.81997,0.8288 0 0 0 1.16061,0c0.31792,-0.32455 0.3211,-0.85278 0,-1.17313l-0.5808,-0.58707l0.00391,-0.00296l2.11388,-2.13763zm0,0" fill="#f5a800"/>
    <path d="m84.0312,73.40841l-4.47351,4.52147c-0.39738,0.40167 -0.39738,1.06313 0,1.46481l2.76242,2.79144c1.95245,-1.42032 4.69041,-1.24457 6.44699,0.53218l2.23712,-2.26147c0.39667,-0.40168 0.39667,-1.06214 0,-1.46382l-5.52457,-5.58459a1.02343,1.03446 0 0 0 -1.44821,0l-0.00024,0zm-2.8727,9.95454l-1.63161,-1.6492c-0.38223,-0.3861 -1.00876,-0.3861 -1.39,0l-5.7542,5.81868a0.98699,0.99763 0 0 0 0,1.40572l3.26005,3.29544a0.98699,0.99763 0 0 0 1.39099,0l3.70049,-3.74654c-0.7823,-1.63363 -0.64194,-3.60714 0.42429,-5.1241l0,0" fill="#425cc7"/>
  </g>
</svg>
