<svg width="32" height="32" xmlns="http://www.w3.org/2000/svg">
 <g id="Layer_1">
  <title>Layer 1</title>
  <g stroke="null">
   <g stroke="null" fill="#1a1a1a">
    <rect x="3" y="3" width="18" height="3.2" rx="0.5"/>
    <polygon points="19.5,6.2 5.5,18.8 21,18.8 21,6.2"/>
    <rect x="3" y="18.8" width="18" height="3.2" rx="0.5"/>
   </g>
  </g>
  <g stroke="null">
   <path stroke="null" d="m23.55484,23.17677c-0.41592,0.42026 -0.41592,1.10168 0,1.52194s1.09031,0.42026 1.50624,0s0.41592,-1.10168 0,-1.52194s-1.09031,-0.42026 -1.50624,0zm1.12596,1.1387c-0.20597,0.20813 -0.53971,0.20813 -0.74569,0c-0.20597,-0.20813 -0.20597,-0.54533 0,-0.75346c0.20598,-0.20813 0.53971,-0.20813 0.74569,0c0.20599,0.20713 0.20599,0.54533 0,0.75346zm0.36245,-6.43397l-0.6526,0.65941c-0.12774,0.12908 -0.12774,0.34121 0,0.47029l2.54802,2.57458c0.12774,0.12909 0.33768,0.12909 0.46544,0l0.6526,-0.6594c0.12775,-0.12908 0.12775,-0.34121 0,-0.47029l-2.54901,-2.57459c-0.12775,-0.12908 -0.3367,-0.12908 -0.46445,0l0,0zm-4.57218,8.4262c0.11586,-0.11707 0.11586,-0.30819 0,-0.42526l-0.33175,-0.33521c-0.11586,-0.11708 -0.30501,-0.11708 -0.42088,0l-0.68529,0.69242l-0.00099,0.00101l-0.18815,-0.19012c-0.10398,-0.10506 -0.27333,-0.10506 -0.37632,0c-0.10398,0.10506 -0.10398,0.27617 0,0.38024l1.12893,1.14071c0.10398,0.10506 0.27332,0.10506 0.37632,0s0.10397,-0.27617 0,-0.38024l-0.18816,-0.19012l0.001,-0.001l0.68528,-0.69243z" fill="#f5a800"/>
   <path stroke="null" d="m23.92323,19.77467l-1.44979,1.4649c-0.12873,0.13008 -0.12873,0.34421 0,0.47429l0.89523,0.90456c0.6328,-0.46028 1.5201,-0.40325 2.08952,0.17211l0.72489,-0.73245c0.12873,-0.13008 0.12873,-0.34422 0,-0.47429l-1.79044,-1.80912c-0.12874,-0.13108 -0.34067,-0.13108 -0.4694,0l0,0zm-0.93087,3.22499l-0.52882,-0.53433c-0.12379,-0.12507 -0.32679,-0.12507 -0.45058,0l-1.86472,1.88517c-0.12378,0.12508 -0.12378,0.33021 0,0.45528l1.05665,1.06766c0.12378,0.12508 0.3268,0.12508 0.45058,0l1.19925,-1.21375c-0.25351,-0.52932 -0.20796,-1.16872 0.13765,-1.66002l0,0z" fill="#425cc7"/>
  </g>
 </g>
</svg>
