<?xml version="1.0" encoding="UTF-8" standalone="no"?>
<!-- Created with Inkscape (http://www.inkscape.org/) -->

<svg
   width="32"
   height="32"
   viewBox="0 0 8.4666659 8.4666659"
   version="1.1"
   id="svg5"
   xmlns="http://www.w3.org/2000/svg"
   xmlns:svg="http://www.w3.org/2000/svg">
  <defs
     id="defs2" />
  <g
     id="layer1">
    <g
       id="g361"
       transform="matrix(0.05792443,0,0,0.05477942,-3.5590378,-7.8742537)">
      <path
         style="fill:#fee4d9;stroke-width:0.264583"
         d="m 124.22642,230.67566 c 10e-6,-18.1901 0.0316,-25.59251 0.0702,-16.44979 0.0386,9.14271 0.0386,24.02553 -2e-5,33.07291 -0.0386,9.04739 -0.0702,1.56698 -0.0702,-16.62312 z m -7.17002,15.47812 c 0,-1.81901 0.0423,-2.56315 0.0939,-1.65364 0.0517,0.9095 0.0517,2.39778 0,3.30729 -0.0517,0.9095 -0.0939,0.16536 -0.0939,-1.65365 z m -6.43107,-7.0335 c 0.0127,-0.30823 0.0754,-0.37092 0.15985,-0.15986 0.0764,0.191 0.067,0.41921 -0.0209,0.50712 -0.0879,0.0879 -0.15045,-0.0684 -0.13896,-0.34726 z m 6.66042,-40.19462 c 0.003,-0.58208 0.0571,-0.78905 0.1204,-0.45994 0.0633,0.32912 0.0609,0.80537 -0.005,1.05834 -0.0662,0.25296 -0.11801,-0.0163 -0.11507,-0.5984 z"
         id="path375" />
      <path
         style="fill:#fed8c9;stroke-width:0.264583"
         d="m 117.05545,239.93608 c 5.3e-4,-1.74625 0.0433,-2.4262 0.0952,-1.51099 0.0518,0.91521 0.0514,2.34396 -0.001,3.175 -0.0523,0.83104 -0.0947,0.0822 -0.0942,-1.66401 z m 13.49856,-1.85209 c 2.6e-4,-2.18281 0.0413,-3.04057 0.0911,-1.90613 0.0497,1.13443 0.0494,2.92037 -7.9e-4,3.96875 -0.0501,1.04837 -0.0908,0.12019 -0.0904,-2.06262 z"
         id="path373" />
      <path
         style="fill:#fec7b1;stroke-width:0.264583"
         d="m 110.62533,240.44319 c 0.0127,-0.30822 0.0754,-0.37091 0.15985,-0.15985 0.0764,0.191 0.067,0.4192 -0.0209,0.50712 -0.0879,0.0879 -0.15045,-0.0684 -0.13896,-0.34727 z m 6.43012,-6.59253 c 5.3e-4,-1.74625 0.0433,-2.4262 0.0952,-1.51099 0.0518,0.91521 0.0514,2.34396 -0.001,3.175 -0.0523,0.83104 -0.0947,0.0822 -0.0942,-1.66401 z m -6.16554,0.7717 c 0.0127,-0.30822 0.0754,-0.37092 0.15985,-0.15985 0.0764,0.19099 0.067,0.4192 -0.0209,0.50712 -0.0879,0.0879 -0.15046,-0.0684 -0.13897,-0.34727 z"
         id="path371" />
      <path
         style="fill:#fdb092;stroke-width:0.264583"
         d="m 110.64622,241.39128 c 0,-0.3638 0.0601,-0.51263 0.13345,-0.33073 0.0734,0.18191 0.0734,0.47956 0,0.66146 -0.0734,0.1819 -0.13345,0.0331 -0.13345,-0.33073 z m 0.27438,-5.68854 c 0.005,-0.43656 0.0647,-0.58312 0.13178,-0.32569 0.0671,0.25743 0.0627,0.61462 -0.01,0.79375 -0.0725,0.17913 -0.12736,-0.0315 -0.12197,-0.46806 z m 6.14316,-9.525 c 2.7e-4,-2.61937 0.0399,-3.65515 0.088,-2.30172 0.0481,1.35343 0.0479,3.49655 -5.3e-4,4.7625 -0.0484,1.26595 -0.0878,0.1586 -0.0875,-2.46078 z"
         id="path369" />
      <path
         style="fill:#fd8f64;stroke-width:0.264583"
         d="m 116.64451,262.55795 c 0.0555,-0.58208 0.14795,-1.05833 0.20543,-1.05833 0.0575,0 0.1045,0.47625 0.1045,1.05833 0,0.58208 -0.0924,1.05833 -0.20543,1.05833 -0.11299,0 -0.16001,-0.47625 -0.1045,-1.05833 z m -5.73371,-25.66458 c 0,-0.3638 0.0601,-0.51263 0.13345,-0.33073 0.0734,0.1819 0.0734,0.47956 0,0.66146 -0.0734,0.1819 -0.13345,0.0331 -0.13345,-0.33073 z m 6.15296,-19.97604 c 2.7e-4,-2.61938 0.0399,-3.65515 0.088,-2.30173 0.0481,1.35343 0.0479,3.49656 -5.3e-4,4.7625 -0.0484,1.26595 -0.0878,0.1586 -0.0875,-2.46077 z"
         id="path367" />
      <path
         style="fill:#fd7945;stroke-width:0.264583"
         d="m 116.79086,258.45691 c 5.3e-4,-1.74625 0.0434,-2.4262 0.0952,-1.51099 0.0518,0.91521 0.0514,2.34396 -0.001,3.175 -0.0523,0.83104 -0.0947,0.0822 -0.0942,-1.66401 z m 0.26459,-49.2125 c 5.3e-4,-1.74625 0.0433,-2.42619 0.0952,-1.51099 0.0518,0.91521 0.0514,2.34396 -0.001,3.175 -0.0523,0.83105 -0.0947,0.0822 -0.0942,-1.66401 z"
         id="path365" />
      <path
         style="fill:#fd7038;stroke-width:0.264583"
         d="M 91.157566,251.17283 C 77.333087,244.49685 65.926459,238.99725 65.809503,238.95148 65.653859,238.89057 108.54219,168.5427 119.77509,150.43406 l 1.19405,-1.92494 27.45886,44.91973 c 15.10237,24.70585 27.38524,45.0001 27.29525,45.09833 -0.30477,0.33272 -51.11357,24.89504 -51.23854,24.77007 -0.0682,-0.0682 -0.0938,-14.69881 -0.0568,-32.5124 l 0.0672,-32.38836 8.30778,14.94896 c 4.56928,8.22193 8.34563,15.0206 8.39189,15.10816 0.0463,0.0876 -2.32302,1.39784 -5.26507,2.91173 l -5.34918,2.75253 -0.0732,4.05797 c -0.0417,2.31347 0.0287,4.01905 0.16375,3.96744 1.93247,-0.7385 22.246,-9.92406 22.19921,-10.03825 -0.33962,-0.82893 -32.12868,-52.32466 -32.27558,-52.28386 -0.35603,0.0989 -31.919708,51.90888 -31.734746,52.09079 0.261909,0.2576 21.793986,10.31231 21.883976,10.21904 0.0415,-0.043 0.11644,-1.85924 0.16646,-4.03599 l 0.0909,-3.95774 -4.8948,-2.52936 c -2.69213,-1.39115 -5.10252,-2.65065 -5.35642,-2.79888 -0.41005,-0.2394 0.43735,-1.88398 7.58317,-14.71681 4.42465,-7.94601 8.20867,-14.76003 8.40895,-15.14226 0.311,-0.59359 0.35291,2.88594 0.28726,23.84974 -0.0809,25.82892 -0.28758,40.56567 -0.56845,40.53163 -0.0924,-0.0112 -11.47899,-5.48253 -25.303464,-12.1585 z"
         id="path363" />
    </g>
    <g
       transform="matrix(0.10010836,0,0,0.10010836,5.449211,5.1796834)"
       id="g939">
      <path
         fill="#f5a800"
         d="m 12.821371,12.833219 c -1.339686,1.353665 -1.339686,3.548535 0,4.9022 1.339687,1.353666 3.511911,1.353666 4.851629,0 1.339719,-1.353665 1.339687,-3.548535 0,-4.9022 -1.339687,-1.353665 -3.511909,-1.353665 -4.851629,0 z m 3.62674,3.667776 c -0.663432,0.670391 -1.738416,0.670391 -2.401883,0 -0.663432,-0.670391 -0.663432,-1.756519 0,-2.426909 0.663467,-0.670392 1.738418,-0.670392 2.401883,0 0.663498,0.66717 0.663498,1.756518 0,2.426909 z m 1.167458,-20.7239453 -2.102037,2.1239742 c -0.411453,0.4157677 -0.411453,1.09904421 0,1.51481195 l 8.207224,8.29277355 c 0.411452,0.4158016 1.087673,0.4158016 1.49919,0 l 2.102037,-2.1239405 c 0.411485,-0.4157692 0.411485,-1.0990442 0,-1.5148134 l -8.21041,-8.2928058 c -0.411485,-0.4157678 -1.084518,-0.4157678 -1.496004,0 z M 2.8884867,22.918009 c 0.3731873,-0.377086 0.3731873,-0.992686 0,-1.369771 L 1.8199133,20.468519 c -0.3731873,-0.377117 -0.98244334,-0.377117 -1.355663,0 l -2.2073327,2.230298 -0.00322,0.0032 -0.6060349,-0.612381 c -0.3349216,-0.338399 -0.8804014,-0.338399 -1.2121342,0 -0.3349216,0.338402 -0.3349216,0.889552 0,1.224761 l 3.63630607,3.67425 c 0.33492162,0.338402 0.88036916,0.338402 1.21213423,0 0.331765,-0.3384 0.3348894,-0.889549 0,-1.22476 l -0.60606712,-0.612381 0.003223,-0.0032 2.20730052,-2.23033 z"
         id="path935"
         style="fill-opacity:1;stroke-width:3.22102" />
      <path
         fill="#425cc7"
         d="M 14.007963,1.874988 9.3381604,6.5934601 c -0.4146413,0.4189903 -0.4146413,1.1087073 0,1.5276976 l 2.8835546,2.9136063 c 2.038262,-1.4825711 4.896273,-1.2988775 6.730385,0.554368 l 2.334886,-2.359234 c 0.414641,-0.418991 0.414641,-1.1087403 0,-1.5276983 L 15.519943,1.874988 c -0.414675,-0.4222112 -1.097305,-0.4222112 -1.511948,0 v 0 z M 11.009612,12.262746 9.3062724,10.541657 c -0.3987296,-0.402853 -1.0525972,-0.402853 -1.4513271,0 l -6.0063006,6.07217 c -0.3986977,0.402884 -0.3986977,1.063614 0,1.466467 l 3.4034908,3.438955 c 0.398698,0.402884 1.0526294,0.402884 1.4513272,0 l 3.8628083,-3.909513 c -0.8165607,-1.704951 -0.6698438,-3.764472 0.443374,-5.34696 v 0 z"
         id="path937"
         style="fill-opacity:1;stroke-width:3.22102" />
    </g>
  </g>
</svg>
