<?xml version="1.0" standalone="no"?>
<!DOCTYPE svg PUBLIC "-//W3C//DTD SVG 20010904//EN"
 "http://www.w3.org/TR/2001/REC-SVG-20010904/DTD/svg10.dtd">
<svg version="1.0" xmlns="http://www.w3.org/2000/svg"
 width="305.000000pt" height="165.000000pt" viewBox="0 0 305.000000 165.000000"
 preserveAspectRatio="xMidYMid meet">

<g transform="translate(0.000000,165.000000) scale(0.100000,-0.100000)"
fill="#000000" stroke="none">
<path d="M722 1118 c-21 -21 -14 -66 13 -84 23 -15 27 -15 50 0 27 18 34 63
13 84 -15 15 -61 15 -76 0z"/>
<path d="M370 881 l0 -231 45 0 45 0 0 85 0 85 63 0 c105 0 157 49 157 148 0
55 -22 92 -70 117 -15 8 -74 17 -134 21 l-106 7 0 -232z m192 132 c23 -20 24
-80 1 -105 -11 -12 -30 -18 -60 -18 l-43 0 0 70 0 70 42 0 c24 0 49 -7 60 -17z"/>
<path d="M1679 1080 c-130 -39 -182 -233 -96 -361 66 -100 247 -104 319 -8 88
118 53 306 -66 360 -42 19 -111 23 -157 9z m138 -65 c85 -56 95 -216 17 -284
-45 -40 -93 -48 -140 -25 -69 35 -101 112 -84 203 20 107 123 161 207 106z"/>
<path d="M2584 1025 c-15 -23 -15 -27 0 -50 11 -17 26 -25 44 -25 35 0 52 17
52 52 0 49 -68 66 -96 23z m76 0 c7 -9 10 -25 6 -40 -6 -22 -11 -26 -39 -23
-25 2 -33 8 -35 26 -7 44 41 70 68 37z"/>
<path d="M2610 995 c0 -23 3 -27 10 -15 8 12 11 13 19 1 6 -9 9 -5 9 14 0 19
-3 23 -9 14 -8 -12 -11 -11 -19 1 -7 12 -10 8 -10 -15z"/>
<path d="M1445 985 c-23 -10 -43 -10 -86 -2 -70 12 -120 3 -158 -29 -52 -44
-52 -122 0 -153 l29 -18 -24 -11 c-29 -13 -41 -44 -27 -70 12 -22 51 -32 126
-32 34 0 57 -5 65 -15 32 -39 -26 -84 -89 -69 -29 7 -37 14 -39 37 -3 24 -7
27 -42 27 -46 0 -59 -23 -38 -67 19 -40 71 -63 146 -63 105 0 162 38 162 108
0 69 -44 102 -135 102 -81 0 -70 32 15 43 63 8 104 54 97 108 -5 35 -3 38 24
44 37 8 44 21 28 51 -14 27 -13 27 -54 9z m-107 -71 c24 -17 29 -53 10 -72
-16 -16 -70 -16 -86 0 -27 27 2 88 43 88 6 0 21 -7 33 -16z"/>
<path d="M743 983 c-23 -4 -23 -6 -23 -169 l0 -164 40 0 40 0 0 170 c0 186 4
175 -57 163z"/>
<path d="M880 981 c-15 -4 -25 -14 -24 -24 0 -9 1 -82 2 -162 l2 -145 45 0 44
0 3 122 3 123 28 13 c50 24 57 7 57 -134 l0 -124 45 0 45 0 0 129 c0 70 -5
142 -10 158 -19 53 -89 69 -147 33 -32 -19 -32 -19 -38 0 -7 21 -14 22 -55 11z"/>
<path d="M1990 809 l0 -159 25 0 c25 0 25 1 25 90 0 124 20 170 82 185 21 5
33 1 52 -19 25 -24 26 -30 26 -141 l0 -115 31 0 31 0 -4 131 -3 131 -33 29
c-44 39 -107 41 -151 3 -29 -24 -31 -24 -31 -6 0 13 -8 21 -25 24 l-25 5 0
-158z"/>
<path d="M2375 960 c-78 -32 -108 -149 -62 -240 27 -54 73 -80 137 -79 73 2
95 11 98 43 3 25 1 28 -15 21 -27 -12 -90 -18 -118 -11 -25 6 -65 58 -65 84 0
9 29 12 110 12 l110 0 0 35 c0 86 -53 145 -129 144 -25 0 -55 -4 -66 -9z m118
-62 c9 -11 17 -29 17 -39 0 -17 -8 -19 -81 -19 -79 0 -80 0 -73 23 20 66 94
85 137 35z"/>
</g>
</svg>
