<?xml version="1.0" encoding="UTF-8"?>
<svg version="1.1" xmlns="http://www.w3.org/2000/svg" width="600" height="600">
<path d="M0 0 C0 19.8 0 39.6 0 60 C-4.8675 60.4125 -9.735 60.825 -14.75 61.25 C-27.36017686 62.40037306 -39.70570079 63.85537119 -52 67 C-52.80228027 67.20463867 -53.60456055 67.40927734 -54.43115234 67.62011719 C-84.92047007 75.63007342 -113.17759531 90.37373697 -137 111 C-137.81597656 111.70511719 -138.63195312 112.41023438 -139.47265625 113.13671875 C-181.85860712 150.5518925 -207.21739257 202.50023999 -211 259 C-212.96418983 305.01442035 -202.11843047 352.12343533 -175 390 C-174.28457031 391.00546875 -173.56914062 392.0109375 -172.83203125 393.046875 C-138.71018131 439.67000447 -90.22680712 469.81727604 -33.21875 479.65234375 C22.28725354 488.06420491 78.7412864 474.5665105 124.18847656 441.58789062 C131.36498781 436.27774824 138.10585479 430.63669002 144.52148438 424.42724609 C146.05844409 422.94358254 147.61501765 421.48227723 149.171875 420.01953125 C157.81122161 411.77553358 165.07750126 402.71591125 172 393 C172.4120166 392.4220166 172.8240332 391.8440332 173.24853516 391.24853516 C196.88663599 357.51866738 206.04513334 320.18947401 211 280 C230.47 280 249.94 280 270 280 C270 297.56590246 270 297.56590246 268.8125 306 C268.677229 306.97509521 268.54195801 307.95019043 268.40258789 308.95483398 C264.26199402 337.46748064 255.85120849 365.18350216 243 391 C242.64083496 391.72928711 242.28166992 392.45857422 241.91162109 393.20996094 C225.12379355 426.99668885 200.03794074 459.02981002 170 482 C168.49953125 483.19109375 168.49953125 483.19109375 166.96875 484.40625 C110.55009296 529.002866 38.32581997 547.88187011 -32.88037109 540.15844727 C-63.09803827 536.43445749 -92.70716734 527.43528197 -120 514 C-120.71236816 513.65533691 -121.42473633 513.31067383 -122.15869141 512.95556641 C-139.64584056 504.42436179 -155.94476939 493.29315988 -171 481 C-171.54108398 480.56042969 -172.08216797 480.12085938 -172.63964844 479.66796875 C-186.35779294 468.45336587 -199.19907392 456.07110267 -210 442 C-211.00167131 440.73754054 -212.00435222 439.47588173 -213.0078125 438.21484375 C-250.62226839 390.51955599 -270.53787672 332.01121758 -270.3125 271.375 C-270.31067719 270.35775848 -270.30885437 269.34051697 -270.30697632 268.29244995 C-270.26281177 253.66391312 -269.87493677 239.38590313 -267 225 C-266.82839355 224.08460449 -266.65678711 223.16920898 -266.47998047 222.22607422 C-257.94886988 177.16137836 -239.0381928 135.56259687 -210 100 C-209.56042969 99.45891602 -209.12085938 98.91783203 -208.66796875 98.36035156 C-197.43858057 84.62412109 -185.04163007 71.870296 -171 61 C-169.93565052 60.13638898 -168.8732491 59.27037322 -167.8125 58.40234375 C-120.90385376 20.29667494 -60.25418987 0 0 0 Z " fill="#01A748" transform="translate(302,29)"/>
<path d="M0 0 C0.43183594 -0.48855469 0.86367188 -0.97710937 1.30859375 -1.48046875 C3 -3 3 -3 6.0625 -3.3125 C9 -3 9 -3 11 -1 C11.2090905 1.73360242 11.29364486 4.36672498 11.29052734 7.10229492 C11.29724457 7.93990356 11.30396179 8.77751221 11.31088257 9.64050293 C11.3299402 12.4205513 11.33379127 15.20035905 11.3359375 17.98046875 C11.34236225 19.9114034 11.34909037 21.84233707 11.35610962 23.77326965 C11.36810336 27.8277919 11.37178851 31.88222884 11.37060547 35.93676758 C11.37040267 41.12424866 11.39765531 46.31117949 11.43214989 51.49853039 C11.45443023 55.4903462 11.45844259 59.48203013 11.45738602 63.47390175 C11.45974217 65.38561199 11.46856649 67.29732586 11.48405075 69.20897484 C11.50372472 71.8899469 11.49786638 74.56973993 11.48583984 77.25073242 C11.49707886 78.03593765 11.50831787 78.82114288 11.51989746 79.63014221 C11.45685841 85.18158936 10.18415545 88.42784849 7 93 C2.33201458 96.27495677 -1.9314872 96.49105096 -7.4375 96.4375 C-8.16259766 96.45748047 -8.88769531 96.47746094 -9.63476562 96.49804688 C-15.17494853 96.49306917 -18.50353091 95.27429355 -23 92 C-25.31032169 88.33105163 -26.05807569 84.3647787 -25.875 80.0625 C-25 78 -25 78 -22 76 C-19.5 75.875 -19.5 75.875 -17 77 C-15.63432459 79.5640151 -14.78213078 82.20849257 -14 85 C-12.58456585 85.19658808 -11.16755969 85.38187546 -9.75 85.5625 C-8.96109375 85.66691406 -8.1721875 85.77132812 -7.359375 85.87890625 C-4.95874887 86.00211719 -3.25079123 85.83159765 -1 85 C0.20029908 82.59940183 0.11459743 81.10639351 0.09765625 78.4296875 C0.09282227 77.08583984 0.09282227 77.08583984 0.08789062 75.71484375 C0.07951172 74.77769531 0.07113281 73.84054687 0.0625 72.875 C0.05798828 71.93011719 0.05347656 70.98523438 0.04882812 70.01171875 C0.03702357 67.67441613 0.02055759 65.33723939 0 63 C-0.79446533 63.42551147 -0.79446533 63.42551147 -1.60498047 63.85961914 C-2.31025879 64.22692139 -3.01553711 64.59422363 -3.7421875 64.97265625 C-4.43683105 65.33883057 -5.13147461 65.70500488 -5.84716797 66.08227539 C-10.44650202 68.04291235 -14.50749953 67.45923092 -19.25 66 C-23.00888565 63.26626498 -24.49932673 60.36581141 -26 56 C-26.53949771 52.23893153 -26.5383601 48.54068733 -26.49609375 44.74609375 C-26.49754898 43.68640884 -26.49900421 42.62672394 -26.50050354 41.53492737 C-26.49885079 39.30523923 -26.48735989 37.07553893 -26.46655273 34.84594727 C-26.43755821 31.44432889 -26.44596614 28.04426749 -26.45898438 24.64257812 C-26.45274724 22.46874247 -26.4443565 20.29491171 -26.43359375 18.12109375 C-26.43799721 16.60520912 -26.43799721 16.60520912 -26.44248962 15.05870056 C-26.36563572 9.27433827 -25.78521412 5.10587039 -23 0 C-16.10027867 -6.67714967 -7.48331959 -4.3539314 0 0 Z M-15 8 C-15.30547892 10.08658871 -15.30547892 10.08658871 -15.25878906 12.50976562 C-15.26509338 13.44413452 -15.27139771 14.37850342 -15.27789307 15.34118652 C-15.2738446 16.35265747 -15.26979614 17.36412842 -15.265625 18.40625 C-15.26753845 19.44189087 -15.2694519 20.47753174 -15.27142334 21.54455566 C-15.27278597 23.73690025 -15.26908414 25.92925289 -15.26074219 28.12158203 C-15.25004392 31.48618616 -15.26063503 34.85025632 -15.2734375 38.21484375 C-15.27211592 40.34114702 -15.26955356 42.46744995 -15.265625 44.59375 C-15.27169769 46.11095642 -15.27169769 46.11095642 -15.27789307 47.65881348 C-15.27158875 48.59318237 -15.26528442 49.52755127 -15.25878906 50.49023438 C-15.25719788 51.31471069 -15.25560669 52.13918701 -15.25396729 52.98864746 C-15.1798684 55.22876868 -15.1798684 55.22876868 -13 57 C-10.95309397 57.1745066 -10.95309397 57.1745066 -8.6875 56.875 C-7.92824219 56.81054688 -7.16898437 56.74609375 -6.38671875 56.6796875 C-3.01188993 55.71860695 -1.43131764 54.56567602 1 52 C1.78576488 48.94954092 1.77212041 45.95441857 1.76953125 42.81640625 C1.78737923 41.47762672 1.78737923 41.47762672 1.80558777 40.11180115 C1.82211603 38.22653979 1.82549408 36.34112361 1.81665039 34.45581055 C1.81251651 31.57400853 1.87757767 28.69920543 1.94726562 25.81835938 C1.95474624 23.98438737 1.95813719 22.15039318 1.95703125 20.31640625 C1.99543877 19.02870079 1.99543877 19.02870079 2.03462219 17.71498108 C1.94756335 13.01261634 1.94756335 13.01261634 -0.72671509 9.32736206 C-5.31120929 6.34120084 -10.51682216 3.51682216 -15 8 Z " fill="#020002" transform="translate(382,262)"/>
<path d="M0 0 C2.9375 0.9375 2.9375 0.9375 4.09521484 2.67089844 C5.05877318 5.26384789 5.25518729 7.37786903 5.3515625 10.140625 C5.39023437 11.1203125 5.42890625 12.1 5.46875 13.109375 C5.4996875 14.12515625 5.530625 15.1409375 5.5625 16.1875 C5.60117187 17.21875 5.63984375 18.25 5.6796875 19.3125 C5.77381674 21.8539894 5.85944979 24.39547433 5.9375 26.9375 C7.25234375 26.20853516 7.25234375 26.20853516 8.59375 25.46484375 C13.44977115 23.24673128 17.69265623 23.2361093 22.9375 23.9375 C26.47778972 25.61447934 28.29596706 26.67533708 30.07267761 30.17086792 C31.08535716 33.41050622 31.19858562 36.1215445 31.2121582 39.51611328 C31.22645622 41.48307663 31.22645622 41.48307663 31.24104309 43.48977661 C31.24078173 44.91245551 31.239845 46.33513443 31.23828125 47.7578125 C31.24217024 49.22321697 31.24650533 50.68862032 31.25126648 52.15402222 C31.25871351 55.21876693 31.25844734 58.28339638 31.25317383 61.34814453 C31.24736462 65.27700278 31.26435197 69.20539183 31.2875185 73.13417244 C31.30223775 76.15732584 31.30313033 79.18036555 31.30000877 82.20354843 C31.30052236 83.65244353 31.30576712 85.10134492 31.31582069 86.55020523 C31.32813864 88.57265889 31.3194677 90.59520764 31.30981445 92.61767578 C31.31044388 93.76841583 31.3110733 94.91915588 31.3117218 96.10476685 C30.9375 98.9375 30.9375 98.9375 29.60954285 100.84811401 C27.9375 101.9375 27.9375 101.9375 24.8125 101.6875 C21.9375 100.9375 21.9375 100.9375 20.9375 99.9375 C20.81918323 98.02100189 20.77011179 96.10019583 20.74804688 94.18017578 C20.73132935 92.94864777 20.71461182 91.71711975 20.6973877 90.44827271 C20.69070572 89.78597782 20.68402374 89.12368294 20.67713928 88.44131851 C20.65615678 86.37362659 20.62912889 84.30609361 20.60046387 82.23849487 C20.54067629 77.84655743 20.48859256 73.45454605 20.4375 69.0625 C20.37828479 63.98108652 20.31593924 58.89975059 20.24562073 53.81847763 C20.2190465 51.78055035 20.19822836 49.74261538 20.1776123 47.70462036 C20.16089478 46.46678802 20.14417725 45.22895569 20.12695312 43.95361328 C20.11442505 42.86186798 20.10189697 41.77012268 20.08898926 40.64529419 C20.05099655 37.84008595 20.05099655 37.84008595 18.9375 34.9375 C13.45173042 34.47500845 13.45173042 34.47500845 8.5625 36.4375 C8.02625 36.9325 7.49 37.4275 6.9375 37.9375 C6.2775 37.9375 5.6175 37.9375 4.9375 37.9375 C4.94194122 38.66777405 4.94638245 39.3980481 4.95095825 40.15045166 C4.99105086 47.03633988 5.02149251 53.92221062 5.04112434 60.80818558 C5.05155661 64.34824864 5.06570554 67.88821516 5.08837891 71.42822266 C5.11428851 75.49903281 5.12397738 79.56974172 5.1328125 83.640625 C5.14313507 84.91053284 5.15345764 86.18044067 5.16409302 87.48883057 C5.16424408 88.66975281 5.16439514 89.85067505 5.16455078 91.06738281 C5.168992 92.10662903 5.17343323 93.14587524 5.17800903 94.21661377 C4.93116862 97.00912713 4.52678617 98.63836668 2.9375 100.9375 C0 101.875 0 101.875 -3.0625 101.9375 C-5.05534506 100.44725568 -5.94059552 99.53811475 -6.44002342 97.07746887 C-6.4411545 96.3761937 -6.44228558 95.67491852 -6.44345093 94.95239258 C-6.4519104 94.14484528 -6.46036987 93.33729797 -6.46908569 92.50527954 C-6.463013 91.6231076 -6.45694031 90.74093567 -6.45068359 89.83203125 C-6.45594055 88.90006927 -6.46119751 87.9681073 -6.46661377 87.00790405 C-6.47983695 83.92176645 -6.47106739 80.83614302 -6.4609375 77.75 C-6.46295757 75.60912985 -6.46586844 73.46826037 -6.46963501 71.32739258 C-6.47406151 66.83831233 -6.46761673 62.34941103 -6.45361328 57.86035156 C-6.43652133 52.0997544 -6.44636076 46.33957652 -6.46433067 40.57899475 C-6.47515964 36.15756051 -6.47172623 31.73622603 -6.4639473 27.31478882 C-6.46194284 25.1904597 -6.46441314 23.0661216 -6.47138596 20.94180298 C-6.47898575 17.97528002 -6.4674167 15.00944066 -6.45068359 12.04296875 C-6.45675629 11.16079681 -6.46282898 10.27862488 -6.46908569 9.36972046 C-6.46062622 8.56217316 -6.45216675 7.75462585 -6.44345093 6.92260742 C-6.44175431 5.87069466 -6.44175431 5.87069466 -6.44002342 4.79753113 C-5.65380599 0.92389362 -3.7853082 -0.07725119 0 0 Z " fill="#020002" transform="translate(413.0625,235.0625)"/>
<path d="M0 0 C3.67924309 1.97073928 5.83820358 4.50494461 7.49609375 8.28125 C8.30545982 11.67009016 8.6293771 14.83257696 8.65722656 18.31176758 C8.66683411 19.28660599 8.67644165 20.2614444 8.68634033 21.26582336 C8.69059021 22.30860947 8.69484009 23.35139557 8.69921875 24.42578125 C8.70491882 25.50953537 8.7106189 26.59328949 8.7164917 27.70988464 C8.72592522 30.00034616 8.73246912 32.29082114 8.73632812 34.58129883 C8.74602971 38.07071807 8.77706781 41.55954709 8.80859375 45.04882812 C8.81512483 47.27864235 8.82037489 49.50846077 8.82421875 51.73828125 C8.83656555 52.77499466 8.84891235 53.81170807 8.8616333 54.87983704 C8.83999728 61.97598045 8.16546791 67.90004273 3.62109375 73.65625 C-2.87072626 78.62058295 -10.74473195 77.93553713 -18.50390625 77.28125 C-22.13186426 76.34614826 -24.38060613 74.82900651 -26.63612366 71.72120667 C-30.05581481 65.55943431 -30.06965332 59.86505167 -30 52.93359375 C-30.00145523 51.76292862 -30.00291046 50.59226349 -30.00440979 49.38612366 C-30.00275586 46.92104595 -29.99125175 44.45595737 -29.97045898 41.9909668 C-29.94147175 38.22725405 -29.94986888 34.46494865 -29.96289062 30.70117188 C-29.95665348 28.29947235 -29.94826274 25.89777726 -29.9375 23.49609375 C-29.94043564 22.3761351 -29.94337128 21.25617645 -29.94639587 20.10227966 C-29.87382636 14.06765928 -29.49387309 9.57608563 -26.50390625 4.28125 C-19.81189779 -2.07615804 -8.71428684 -2.50144895 0 0 Z M-18.50390625 12.28125 C-18.96501735 14.65712373 -18.96501735 14.65712373 -18.90795898 17.34765625 C-18.92064316 18.37882568 -18.93332733 19.40999512 -18.94639587 20.47241211 C-18.94346024 21.58495361 -18.9405246 22.69749512 -18.9375 23.84375 C-18.94274185 24.98658447 -18.9479837 26.12941895 -18.9533844 27.30688477 C-18.95981121 29.72443834 -18.95845914 32.14202316 -18.94995117 34.55957031 C-18.94143934 38.26683978 -18.97019893 41.97257029 -19.00195312 45.6796875 C-19.00356507 48.0260412 -19.00298773 50.37239765 -19 52.71875 C-19.01123398 53.8312915 -19.02246796 54.94383301 -19.03404236 56.09008789 C-19.02466141 57.12125732 -19.01528046 58.15242676 -19.00561523 59.21484375 C-19.00544907 60.12290771 -19.0052829 61.03097168 -19.00511169 61.96655273 C-18.69925264 64.43707742 -18.69925264 64.43707742 -16.59754944 66.07299805 C-14.33921736 67.37629278 -13.08687207 67.68651913 -10.50390625 67.65625 C-9.84390625 67.66398437 -9.18390625 67.67171875 -8.50390625 67.6796875 C-5.80653122 67.14231982 -4.50525192 66.16227624 -2.50390625 64.28125 C-1.90571687 61.91304526 -1.90571687 61.91304526 -2.00219727 59.21484375 C-1.99281631 58.18367432 -1.98343536 57.15250488 -1.97377014 56.09008789 C-1.98500412 54.97754639 -1.9962381 53.86500488 -2.0078125 52.71875 C-2.00635727 51.57591553 -2.00490204 50.43308105 -2.00340271 49.25561523 C-2.00506359 46.83802747 -2.01664585 44.42042934 -2.03735352 42.00292969 C-2.06629291 38.29576855 -2.05796855 34.5900378 -2.04492188 30.8828125 C-2.05115943 28.53645136 -2.05955049 26.19009475 -2.0703125 23.84375 C-2.06737686 22.7312085 -2.06444122 21.61866699 -2.06141663 20.47241211 C-2.0741008 19.44124268 -2.08678497 18.41007324 -2.09985352 17.34765625 C-2.1052565 16.43959229 -2.11065948 15.53152832 -2.1162262 14.59594727 C-2.57923314 11.83150041 -3.2782345 10.93797647 -5.50390625 9.28125 C-7.90904488 8.80684131 -7.90904488 8.80684131 -10.50390625 8.90625 C-11.37015625 8.89851563 -12.23640625 8.89078125 -13.12890625 8.8828125 C-16.02278761 9.36829918 -16.73340942 9.9771769 -18.50390625 12.28125 Z " fill="#020002" transform="translate(201.50390625,259.71875)"/>
<path d="M0 0 C1.06287231 0.01812744 1.06287231 0.01812744 2.1472168 0.03662109 C7.66567272 0.24727355 10.93171579 0.84953953 15.0625 4.5 C19.65694955 11.69797096 19.27324579 19.3043964 19.3125 27.5625 C19.333125 28.65111328 19.35375 29.73972656 19.375 30.86132812 C19.38273437 32.43237305 19.38273437 32.43237305 19.390625 34.03515625 C19.40464355 35.46420288 19.40464355 35.46420288 19.41894531 36.92211914 C18.98853145 40.03495471 18.37504554 41.36864869 16.0625 43.5 C13.51879883 43.95410156 13.51879883 43.95410156 10.51953125 43.890625 C9.44638672 43.87773437 8.37324219 43.86484375 7.26757812 43.8515625 C6.14802734 43.81804687 5.02847656 43.78453125 3.875 43.75 C2.74384766 43.73195313 1.61269531 43.71390625 0.44726562 43.6953125 C-2.34850376 43.64812652 -5.14257972 43.58230595 -7.9375 43.5 C-7.79861494 46.77116732 -7.65019508 50.041834 -7.5 53.3125 C-7.46068359 54.24126953 -7.42136719 55.17003906 -7.38085938 56.12695312 C-7.31801758 57.4659668 -7.31801758 57.4659668 -7.25390625 58.83203125 C-7.21724854 59.65421143 -7.18059082 60.4763916 -7.14282227 61.32348633 C-7.00322228 63.67905178 -7.00322228 63.67905178 -5.9375 66.5 C-2.81043041 68.0635348 0.64232443 67.89958487 4.0625 67.5 C5.5475 66.51 5.5475 66.51 7.0625 65.5 C7.57196867 62.94286584 7.57196867 62.94286584 7.625 60.0625 C7.85580007 54.81004989 7.85580007 54.81004989 10.0625 51.5 C13.5625 51.125 13.5625 51.125 17.0625 51.5 C20.14334568 56.12126852 19.62780432 60.56421788 18.59765625 65.9140625 C17.00485554 71.55012656 14.92831886 74.25612076 10.0625 77.5 C6.63258462 78.64330513 3.8638584 78.70381651 0.25 78.75 C-0.95269531 78.77578125 -2.15539062 78.8015625 -3.39453125 78.828125 C-8.5256455 78.35291707 -11.76197784 76.77083476 -15.25 73 C-17.77774897 69.25518671 -18.07051898 66.43579011 -18.11450195 62.0222168 C-18.12733719 60.90062668 -18.14017242 59.77903656 -18.15339661 58.62345886 C-18.16078354 57.41095963 -18.16817047 56.19846039 -18.17578125 54.94921875 C-18.183853 53.70251907 -18.19192474 52.4558194 -18.20024109 51.17134094 C-18.21408108 48.53093754 -18.22509777 45.89065896 -18.23266602 43.25024414 C-18.24152761 40.54688998 -18.26240559 37.84404957 -18.29418945 35.14086914 C-18.33678762 31.24349417 -18.35302517 27.3467974 -18.36328125 23.44921875 C-18.38078934 22.24279221 -18.39829742 21.03636566 -18.41633606 19.79338074 C-18.39980646 13.40291074 -18.34488877 9.30108474 -13.9375 4.5 C-9.46282375 0.69176489 -5.74139194 -0.15537359 0 0 Z M-6.9375 12.5 C-7.92763879 15.21463348 -8.05690483 17.73856279 -8.03515625 20.609375 C-8.03193359 21.36347656 -8.02871094 22.11757813 -8.02539062 22.89453125 C-8.01701172 23.67183594 -8.00863281 24.44914062 -8 25.25 C-7.99548828 26.04277344 -7.99097656 26.83554687 -7.98632812 27.65234375 C-7.97458565 29.60159508 -7.95665146 31.55080738 -7.9375 33.5 C-2.6575 33.5 2.6225 33.5 8.0625 33.5 C8.14331043 30.22867393 8.20290709 26.95933579 8.25 23.6875 C8.27513672 22.75873047 8.30027344 21.82996094 8.32617188 20.87304688 C8.33583984 19.98037109 8.34550781 19.08769531 8.35546875 18.16796875 C8.3711792 17.34578857 8.38688965 16.5236084 8.40307617 15.67651367 C7.98257328 12.98921385 7.20130236 12.12873304 5.0625 10.5 C2.88531744 10.06391196 2.88531744 10.06391196 0.5625 10.1875 C-0.59765625 10.19330078 -0.59765625 10.19330078 -1.78125 10.19921875 C-4.23074946 10.38174539 -4.23074946 10.38174539 -6.9375 12.5 Z " fill="#020002" transform="translate(270.9375,258.5)"/>
<path d="M0 0 C4.20489283 2.17494457 5.83958347 5.0263085 7.5 9.3125 C7.8454413 12.61607147 7.78490551 15.87071743 7.6875 19.1875 C7.66719727 20.50621094 7.66719727 20.50621094 7.64648438 21.8515625 C7.61136623 24.00547552 7.55756694 26.15907004 7.5 28.3125 C4.73749964 29.69375018 2.55268901 29.50329306 -0.5 29.3125 C-3.33620366 26.47629634 -2.83683647 24.32763663 -3 20.375 C-3.12785574 14.99831198 -3.12785574 14.99831198 -5.5 10.3125 C-7.86284864 9.83459482 -7.86284864 9.83459482 -10.5 9.9375 C-11.386875 9.92976563 -12.27375 9.92203125 -13.1875 9.9140625 C-14.3321875 10.11128906 -14.3321875 10.11128906 -15.5 10.3125 C-17.65869783 13.55054674 -17.75491344 14.45610792 -17.7746582 18.1953125 C-17.78419022 19.18644043 -17.79372223 20.17756836 -17.80354309 21.19873047 C-17.80217598 22.80192139 -17.80217598 22.80192139 -17.80078125 24.4375 C-17.80506638 25.53594238 -17.8093515 26.63438477 -17.81376648 27.76611328 C-17.81951185 30.08951121 -17.82000853 32.41292713 -17.81567383 34.73632812 C-17.81251244 38.29848766 -17.83597628 41.85981812 -17.86132812 45.421875 C-17.86360087 47.67708228 -17.86430473 49.9322918 -17.86328125 52.1875 C-17.872491 53.25629395 -17.88170074 54.32508789 -17.89118958 55.42626953 C-17.88496078 56.41739746 -17.87873199 57.40852539 -17.87231445 58.4296875 C-17.87294388 59.30222168 -17.8735733 60.17475586 -17.8742218 61.07373047 C-17.42122332 63.78377885 -16.65885089 64.66450397 -14.5 66.3125 C-12.55542688 66.7839296 -12.55542688 66.7839296 -10.5 66.6875 C-9.819375 66.69523437 -9.13875 66.70296875 -8.4375 66.7109375 C-6.45669636 66.41401206 -6.45669636 66.41401206 -4.78125 65.2890625 C-2.77833716 62.19920306 -3.04449582 58.88487868 -3 55.3125 C-2.90764016 47.89732467 -2.90764016 47.89732467 -1.125 45.33984375 C1.25831011 43.8330876 2.74366809 43.83014192 5.5 44.3125 C7.89454738 46.67267589 8.47119171 48.08570532 8.8984375 51.44921875 C8.79196497 67.57980748 8.79196497 67.57980748 4.0703125 72.93359375 C-0.55722811 76.99708091 -4.33820806 77.48615122 -10.3125 77.5625 C-11.51519531 77.58828125 -12.71789062 77.6140625 -13.95703125 77.640625 C-18.75508389 77.1962629 -21.98390382 75.49168592 -25.75 72.5625 C-30.38609559 66.60180567 -29.79372883 59.12648803 -29.765625 51.9375 C-29.76753845 50.8542041 -29.7694519 49.7709082 -29.77142334 48.65478516 C-29.77277995 46.37206794 -29.76912026 44.08934287 -29.76074219 41.80664062 C-29.75003548 38.3240415 -29.76065557 34.84195819 -29.7734375 31.359375 C-29.77211581 29.13541553 -29.76955323 26.91145639 -29.765625 24.6875 C-29.77169769 23.13409912 -29.77169769 23.13409912 -29.77789307 21.54931641 C-29.69643406 8.91354033 -29.69643406 8.91354033 -25.125 3.5 C-18.34750144 -2.14791547 -8.38817373 -2.30674778 0 0 Z " fill="#020002" transform="translate(152.5,259.6875)"/>
<path d="M0 0 C1.7325 0.1546875 1.7325 0.1546875 3.5 0.3125 C5.63586678 3.51630017 5.73132175 4.33189967 5.625 8 C5.60695313 8.80824219 5.58890625 9.61648438 5.5703125 10.44921875 C5.54710937 11.06410156 5.52390625 11.67898438 5.5 12.3125 C6.61375 12.415625 7.7275 12.51875 8.875 12.625 C10.669375 12.9653125 10.669375 12.9653125 12.5 13.3125 C14.5 16.3125 14.5 16.3125 14.1875 18.9375 C13.5 21.3125 13.5 21.3125 12.5 22.3125 C10.16702567 22.35342937 7.83294775 22.35491723 5.5 22.3125 C5.50444122 23.10763504 5.50888245 23.90277008 5.51345825 24.72200012 C5.553515 32.21157596 5.5839742 39.70109993 5.60362434 47.19075489 C5.61406625 51.04136025 5.62823279 54.89187718 5.65087891 58.74243164 C5.67259291 62.45770323 5.68456556 66.17288969 5.68975449 69.88821983 C5.69345285 71.30641711 5.70067475 72.72460968 5.71146011 74.14277077 C5.72595502 76.12744233 5.72681675 78.11219935 5.72705078 80.09692383 C5.731492 81.22721512 5.73593323 82.35750641 5.74050903 83.52204895 C5.5 86.3125 5.5 86.3125 3.5 89.3125 C0.1993784 90.32807588 -1.17212881 90.4217904 -4.5 89.3125 C-5.8951713 86.52215739 -5.61955162 84.24024028 -5.61352539 81.11865234 C-5.61344986 79.81745453 -5.61337433 78.51625671 -5.61329651 77.17562866 C-5.60818947 75.74989789 -5.60297347 74.3241675 -5.59765625 72.8984375 C-5.59579147 71.44398039 -5.59436785 69.98952266 -5.59336853 68.5350647 C-5.58954805 64.70457224 -5.57972176 60.87411763 -5.56866455 57.04364014 C-5.55844035 53.13586947 -5.55386874 49.22809269 -5.54882812 45.3203125 C-5.53809908 37.6510244 -5.52102828 29.9817675 -5.5 22.3125 C-6.304375 22.168125 -7.10875 22.02375 -7.9375 21.875 C-10.5 21.3125 -10.5 21.3125 -11.5 20.3125 C-11.21269945 17.97305264 -10.88063221 15.6385857 -10.5 13.3125 C-8.85 12.9825 -7.2 12.6525 -5.5 12.3125 C-5.52320313 11.61382812 -5.54640625 10.91515625 -5.5703125 10.1953125 C-5.59738281 8.83019531 -5.59738281 8.83019531 -5.625 7.4375 C-5.64820313 6.53257812 -5.67140625 5.62765625 -5.6953125 4.6953125 C-5.36055361 0.61125406 -3.91137351 0.34922978 0 0 Z " fill="#020002" transform="translate(465.5,246.6875)"/>
<path d="M0 0 C1.670625 0.4021875 1.670625 0.4021875 3.375 0.8125 C5.06077464 4.18404928 4.52218128 8.00418908 4.52026367 11.71264648 C4.52362228 12.63470886 4.5269809 13.55677124 4.53044128 14.5067749 C4.53996821 17.56572809 4.54189524 20.62462664 4.54296875 23.68359375 C4.54617999 25.80347212 4.54954396 27.92335026 4.55305481 30.04322815 C4.55905035 34.49114496 4.56089426 38.93904232 4.56030273 43.38696289 C4.56020106 49.094808 4.57385695 54.80252886 4.59107494 60.51034451 C4.60217676 64.88972042 4.60422251 69.26906612 4.60369301 73.64845467 C4.60487573 75.75325003 4.60931378 77.85804611 4.61702538 79.96282768 C4.62678909 82.90296077 4.62396161 85.8428218 4.61791992 88.78295898 C4.62353943 89.65735123 4.62915894 90.53174347 4.63494873 91.43263245 C4.60331688 97.47002468 4.60331688 97.47002468 2.375 100.8125 C-0.49224009 101.86885161 -1.93073822 102.11299625 -4.75770569 100.8894043 C-7.75539653 97.55521271 -7.17419391 94.03988219 -7.12670898 89.70703125 C-7.13211197 88.77506927 -7.13751495 87.8431073 -7.14308167 86.88290405 C-7.15560783 83.79661481 -7.13905191 80.71125134 -7.12109375 77.625 C-7.12124865 75.48413036 -7.12273608 73.34326043 -7.12550354 71.20239258 C-7.12688928 66.71325297 -7.11430004 62.22443219 -7.09155273 57.73535156 C-7.0631678 51.97473571 -7.0659032 46.21464982 -7.07864285 40.45399475 C-7.08559052 36.03254655 -7.07782114 31.61122132 -7.06538582 27.18978882 C-7.06086246 25.065465 -7.0605422 22.94112802 -7.06445122 20.81680298 C-7.06735448 17.85024861 -7.05089866 14.88443024 -7.02905273 11.91796875 C-7.03355438 11.03579681 -7.03805603 10.15362488 -7.04269409 9.24472046 C-7.03278946 8.43717316 -7.02288483 7.62962585 -7.01268005 6.79760742 C-7.01025016 6.09633224 -7.00782026 5.39505707 -7.00531673 4.67253113 C-6.13214559 0.4020761 -4.11237307 -0.21270895 0 0 Z " fill="#020002" transform="translate(309.625,235.1875)"/>
<path d="M0 0 C1.3921875 0.3403125 1.3921875 0.3403125 2.8125 0.6875 C3.1425 1.6775 3.4725 2.6675 3.8125 3.6875 C4.658125 3.0275 5.50375 2.3675 6.375 1.6875 C10.25984778 -0.57277507 12.39651256 -0.74543994 16.8125 -0.3125 C17.8125 0.6875 17.8125 0.6875 18.1875 4.5625 C18.15234375 6.7578125 18.15234375 6.7578125 17.8125 8.6875 C15.11960893 10.97237727 12.51266331 11.79219017 9.17651367 12.95703125 C7.24052081 13.96762251 7.24052081 13.96762251 5.8125 15.6875 C4.76989127 19.9818334 4.9553703 24.22709817 5.05078125 28.625 C5.04797653 29.89722412 5.04517181 31.16944824 5.0422821 32.48022461 C5.03789059 35.85974895 5.06130557 39.23648485 5.10144043 42.61560059 C5.1555636 47.37535502 5.17815559 52.13471935 5.17558289 56.89477539 C5.17571322 59.42790285 5.19610324 61.96112554 5.23860168 64.49389648 C5.2414769 65.64188721 5.24435211 66.78987793 5.24731445 67.97265625 C5.25954544 68.98207275 5.27177643 69.99148926 5.28437805 71.03149414 C4.68012692 74.43257319 3.54396449 75.63138443 0.8125 77.6875 C-2.375 77.5625 -2.375 77.5625 -5.1875 76.6875 C-6.65076454 73.76097092 -6.33100163 71.16665161 -6.34863281 67.89868164 C-6.35359772 67.20095139 -6.35856262 66.50322113 -6.36367798 65.78434753 C-6.37830458 63.47210715 -6.38510187 61.15993533 -6.390625 58.84765625 C-6.39637539 57.24344378 -6.40213314 55.63923134 -6.40789795 54.03501892 C-6.4184089 50.66990844 -6.42425116 47.30482186 -6.42773438 43.93969727 C-6.43322385 39.6240512 -6.45726092 35.30871988 -6.48570633 30.99317265 C-6.50431206 27.67922537 -6.50953716 24.36535428 -6.51107025 21.05135918 C-6.51410125 19.46011061 -6.52214482 17.86886353 -6.53525543 16.27766609 C-6.5522758 14.05343647 -6.55044616 11.82998088 -6.54394531 9.60571289 C-6.54759094 8.33933487 -6.55123657 7.07295685 -6.55499268 5.76820374 C-6.1875 2.6875 -6.1875 2.6875 -4.86444092 0.73558044 C-3.1875 -0.3125 -3.1875 -0.3125 0 0 Z " fill="#020002" transform="translate(228.1875,259.3125)"/>
<path d="M0 0 C3 0.25 3 0.25 5 2.25 C5.24050903 5.29983521 5.24050903 5.29983521 5.22705078 9.27001953 C5.22734283 9.99207581 5.22763489 10.71413208 5.22793579 11.45806885 C5.22654008 13.84977142 5.21096783 16.24116421 5.1953125 18.6328125 C5.19158322 20.2890506 5.18873585 21.94529089 5.18673706 23.60153198 C5.17909389 27.9647224 5.1594396 32.32778007 5.1373291 36.69091797 C5.11688535 41.14158329 5.1077385 45.59227003 5.09765625 50.04296875 C5.07619429 58.77870681 5.04205018 67.5143369 5 76.25 C-0.41538462 78.46538462 -0.41538462 78.46538462 -3.375 77.375 C-4.179375 76.818125 -4.179375 76.818125 -5 76.25 C-5.04627741 66.63615582 -5.08184573 57.02234979 -5.10362434 47.40841866 C-5.11407534 42.94460245 -5.12825844 38.48086228 -5.15087891 34.01708984 C-5.17256052 29.71179326 -5.1845587 25.40656995 -5.18975449 21.10122299 C-5.19345869 19.45612306 -5.20069177 17.81102727 -5.21146011 16.1659584 C-5.22591299 13.86722296 -5.22798058 11.56879287 -5.22705078 9.27001953 C-5.231492 7.9598587 -5.23593323 6.64969788 -5.24050903 5.29983521 C-4.91236174 1.13868099 -4.16442399 0.34703533 0 0 Z " fill="#020002" transform="translate(336,258.75)"/>
<path d="M0 0 C3.0625 0.4375 3.0625 0.4375 5 2.5 C6.35266819 6.23972971 6.00216501 8.60655803 5.0625 12.4375 C3.0625 14.4375 3.0625 14.4375 0.125 14.875 C-2.9375 14.4375 -2.9375 14.4375 -4.875 12.375 C-6.22766819 8.63527029 -5.87716501 6.26844197 -4.9375 2.4375 C-2.9375 0.4375 -2.9375 0.4375 0 0 Z " fill="#020002" transform="translate(335.9375,236.5625)"/>
<path d="M0 0 C0.33 0.66 0.66 1.32 1 2 C-3.16704183 6.85743929 -7.41844996 11.53019508 -12 16 C-12.99 15.67 -13.98 15.34 -15 15 C-10.05 10.05 -5.1 5.1 0 0 Z " fill="#00913B" transform="translate(117,102)"/>
</svg>
