<?xml version="1.0" encoding="UTF-8"?>
<svg xmlns="http://www.w3.org/2000/svg" xmlns:xlink="http://www.w3.org/1999/xlink" width="32px" height="32px" viewBox="0 0 32 32" version="1.1">
<g id="surface1">
<path style=" stroke:none;fill-rule:nonzero;fill:rgb(80%,10.588235%,14.901961%);fill-opacity:1;" d="M 11.605469 7.203125 L 11.980469 7.203125 L 11.980469 25.308594 L 11.605469 25.308594 Z M 11.605469 7.203125 "/>
<path style=" stroke:none;fill-rule:nonzero;fill:rgb(80%,10.588235%,14.901961%);fill-opacity:1;" d="M 16.628906 7.203125 L 19.484375 7.203125 L 19.484375 9.246094 L 16.628906 9.246094 Z M 16.628906 7.203125 "/>
<path style=" stroke:none;fill-rule:nonzero;fill:rgb(80%,10.588235%,14.901961%);fill-opacity:1;" d="M 15.148438 16.683594 C 15.597656 16.546875 15.96875 14.554688 15.984375 12.121094 C 15.992188 10.832031 15.90625 9.582031 15.742188 8.652344 C 15.578125 7.726562 15.355469 7.203125 15.121094 7.203125 L 13.042969 7.203125 L 13.042969 9.246094 L 15.121094 9.246094 C 15.390625 9.25 15.613281 10.457031 15.613281 11.945312 C 15.613281 13.488281 15.414062 14.648438 15.152344 14.648438 L 13.042969 14.648438 L 13.042969 25.308594 L 13.414062 25.308594 L 13.414062 16.691406 L 14.476562 16.691406 C 14.65625 16.691406 14.824219 17.226562 14.910156 18.089844 L 15.636719 25.308594 L 16.019531 25.308594 Z M 15.148438 16.683594 "/>
<path style=" stroke:none;fill-rule:nonzero;fill:rgb(80%,10.588235%,14.901961%);fill-opacity:1;" d="M 7.910156 8.652344 C 8.074219 7.722656 8.296875 7.199219 8.53125 7.203125 L 10.613281 7.203125 L 10.613281 9.246094 L 8.53125 9.246094 C 8.261719 9.25 8.042969 10.457031 8.039062 11.945312 C 8.039062 12.003906 8.042969 12.0625 8.042969 12.121094 L 7.667969 12.121094 C 7.660156 10.832031 7.746094 9.578125 7.910156 8.652344 Z M 7.910156 8.652344 "/>
<path style=" stroke:none;fill-rule:nonzero;fill:rgb(80%,10.588235%,14.901961%);fill-opacity:1;" d="M 8.53125 14.648438 C 8.296875 14.648438 8.074219 15.171875 7.910156 16.097656 C 7.75 17.023438 7.660156 18.273438 7.667969 19.5625 L 7.667969 25.308594 L 8.039062 25.308594 L 8.042969 19.566406 C 8.042969 19.507812 8.039062 19.449219 8.039062 19.390625 C 8.042969 17.902344 8.261719 16.691406 8.53125 16.691406 L 10.613281 16.691406 L 10.613281 14.648438 Z M 8.53125 14.648438 "/>
<path style=" stroke:none;fill-rule:nonzero;fill:rgb(80%,10.588235%,14.901961%);fill-opacity:1;" d="M 16.628906 14.648438 L 16.628906 20.394531 C 16.621094 21.679688 16.707031 22.929688 16.871094 23.859375 C 17.03125 24.785156 17.257812 25.308594 17.492188 25.308594 L 19.484375 25.308594 L 19.484375 23.261719 L 17.492188 23.261719 C 17.21875 23.261719 17 22.054688 17 20.5625 C 17 20.503906 17 20.449219 17 20.390625 L 17 16.695312 L 19.484375 16.695312 L 19.484375 14.648438 Z M 16.628906 14.648438 "/>
<path style=" stroke:none;fill-rule:nonzero;fill:rgb(80%,10.588235%,14.901961%);fill-opacity:1;" d="M 4.355469 6.597656 C 4.378906 6.625 4.40625 6.589844 4.429688 6.503906 C 4.449219 6.414062 4.460938 6.28125 4.464844 6.136719 C 4.476562 4.71875 4.460938 1.230469 4.039062 0.371094 C 3.488281 -0.746094 2.601562 0.820312 1.921875 2.945312 C 1.234375 5.097656 0.367188 10.140625 0.0234375 15.273438 C 0.0234375 15.273438 1.300781 9.195312 2.617188 7.425781 C 3.605469 6.089844 4.148438 6.375 4.355469 6.597656 Z M 4.355469 6.597656 "/>
<path style=" stroke:none;fill-rule:nonzero;fill:rgb(80%,10.588235%,14.901961%);fill-opacity:1;" d="M 1.132812 15.46875 C 1.125 15.332031 1.105469 15.222656 1.082031 15.167969 C 1.054688 15.113281 1.027344 15.117188 1.003906 15.183594 C 0.773438 15.832031 0.234375 17.644531 0.308594 20.089844 C 0.40625 23.261719 1.097656 26.695312 1.773438 28.863281 C 2.457031 31.0625 3.683594 32.65625 4.667969 31.730469 C 4.667969 31.730469 3.066406 28.683594 2.132812 23.320312 C 1.425781 19.28125 1.199219 16.5625 1.132812 15.46875 Z M 1.132812 15.46875 "/>
<path style=" stroke:none;fill-rule:nonzero;fill:rgb(80%,10.588235%,14.901961%);fill-opacity:1;" d="M 4.15625 26.496094 C 4.136719 26.601562 4.128906 26.746094 4.132812 26.890625 C 4.136719 27.03125 4.152344 27.160156 4.175781 27.238281 C 4.390625 28.011719 4.949219 29.683594 5.296875 28.097656 C 5.746094 26.042969 5.945312 21.046875 5.949219 16.75 C 5.953125 12.398438 5.589844 5.761719 4.953125 1.554688 C 4.953125 1.554688 5.273438 10.679688 4.894531 17.8125 C 4.609375 23.191406 4.292969 25.621094 4.15625 26.496094 Z M 4.15625 26.496094 "/>
<path style=" stroke:none;fill-rule:nonzero;fill:rgb(39.215686%,40%,41.960784%);fill-opacity:1;" d="M 20.304688 7.203125 L 23.246094 7.203125 L 23.246094 9.246094 L 20.304688 9.246094 Z M 20.304688 7.203125 "/>
<path style=" stroke:none;fill-rule:nonzero;fill:rgb(39.215686%,40%,41.960784%);fill-opacity:1;" d="M 27.523438 7.203125 L 30.46875 7.203125 L 30.46875 9.246094 L 27.523438 9.246094 Z M 27.523438 7.203125 "/>
<path style=" stroke:none;fill-rule:nonzero;fill:rgb(39.215686%,40%,41.960784%);fill-opacity:1;" d="M 20.304688 14.648438 L 20.304688 20.394531 C 20.296875 21.679688 20.382812 22.929688 20.546875 23.859375 C 20.710938 24.785156 20.933594 25.308594 21.167969 25.308594 L 23.246094 25.308594 L 23.246094 23.261719 L 21.167969 23.261719 C 20.898438 23.261719 20.675781 22.054688 20.675781 20.5625 C 20.675781 20.503906 20.675781 20.449219 20.675781 20.390625 L 20.675781 16.695312 L 23.246094 16.695312 L 23.246094 14.648438 Z M 20.304688 14.648438 "/>
<path style=" stroke:none;fill-rule:nonzero;fill:rgb(39.215686%,40%,41.960784%);fill-opacity:1;" d="M 27.523438 14.648438 L 27.523438 20.394531 C 27.515625 21.679688 27.605469 22.929688 27.765625 23.859375 C 27.929688 24.785156 28.152344 25.308594 28.390625 25.308594 L 30.46875 25.308594 L 30.46875 23.261719 L 28.390625 23.261719 C 28.117188 23.261719 27.898438 22.054688 27.898438 20.5625 C 27.898438 20.503906 27.894531 20.449219 27.898438 20.390625 L 27.898438 16.695312 L 30.46875 16.695312 L 30.46875 14.648438 Z M 27.523438 14.648438 "/>
<path style=" stroke:none;fill-rule:nonzero;fill:rgb(39.215686%,40%,41.960784%);fill-opacity:1;" d="M 26.746094 7.203125 L 25.378906 15.34375 L 24.015625 7.203125 L 23.535156 7.203125 L 25.195312 17.09375 L 25.195312 25.308594 L 25.566406 25.308594 L 25.566406 17.09375 L 27.226562 7.203125 Z M 26.746094 7.203125 "/>
<path style=" stroke:none;fill-rule:nonzero;fill:rgb(39.215686%,40%,41.960784%);fill-opacity:1;" d="M 31.117188 7.667969 L 30.949219 7.667969 L 30.949219 7.203125 L 31.371094 7.203125 L 31.371094 7.667969 L 31.207031 7.667969 L 31.207031 10.046875 L 31.117188 10.046875 Z M 31.117188 7.667969 "/>
<path style=" stroke:none;fill-rule:nonzero;fill:rgb(39.215686%,40%,41.960784%);fill-opacity:1;" d="M 31.46875 7.203125 L 31.566406 7.203125 L 31.722656 8.546875 L 31.878906 7.203125 L 31.976562 7.203125 L 31.976562 10.046875 L 31.886719 10.046875 L 31.886719 8.007812 L 31.722656 9.347656 L 31.71875 9.347656 L 31.558594 8.015625 L 31.558594 10.046875 L 31.46875 10.046875 Z M 31.46875 7.203125 "/>
</g>
</svg>
