<?xml version="1.0" encoding="UTF-8"?>
<svg version="1.1" xmlns="http://www.w3.org/2000/svg" width="1024" height="1024">
<path d="M0 0 C337.92 0 675.84 0 1024 0 C1024 337.92 1024 675.84 1024 1024 C686.08 1024 348.16 1024 0 1024 C0 686.08 0 348.16 0 0 Z " fill="#FEFEFE" transform="translate(0,0)"/>
<path d="M0 0 C1.15234381 -0.00226556 2.30468761 -0.00453111 3.49195093 -0.00686532 C7.3267112 -0.01316049 11.16143572 -0.01237885 14.99620056 -0.0115509 C17.75676099 -0.01400388 20.51731896 -0.0179205 23.27787781 -0.02172852 C29.98341908 -0.03000513 36.68895156 -0.03278202 43.39449752 -0.03334089 C48.85127107 -0.03381756 54.30804174 -0.03587983 59.76481438 -0.03904152 C75.26916481 -0.04784066 90.77350835 -0.05246216 106.2778613 -0.05171105 C107.52941824 -0.05165111 107.52941824 -0.05165111 108.80625916 -0.05158997 C109.64166103 -0.05154909 110.47706291 -0.0515082 111.33777999 -0.05146609 C124.86260561 -0.05106003 138.38740334 -0.06062124 151.9122209 -0.07472833 C165.83215079 -0.0891318 179.75206712 -0.09599631 193.67200464 -0.09513456 C201.47374204 -0.09480391 209.27545022 -0.09749247 217.07718086 -0.10831261 C223.72220735 -0.11747013 230.36719136 -0.11955021 237.01222146 -0.11280318 C240.39474603 -0.10956396 243.77712369 -0.11049771 247.1596508 -0.11815643 C275.12470665 -0.1773355 306.39439753 -0.05989202 327.82017517 20.84074402 C328.55751892 21.59742371 329.29486267 22.35410339 330.05455017 23.13371277 C331.0986908 24.12951355 331.0986908 24.12951355 332.16392517 25.14543152 C346.03727169 39.26075501 351.15690558 60.59482085 351.17955017 79.89933777 C351.14815911 81.64434455 351.1104453 83.38931895 351.05455017 85.13371277 C349.54828064 85.26326355 349.54828064 85.26326355 348.01158142 85.39543152 C335.43159385 86.62621693 323.60159659 89.28214655 314.05455017 98.13371277 C313.13222595 98.97675964 313.13222595 98.97675964 312.19126892 99.83683777 C303.68718009 108.50481696 301.12196202 120.19315984 300.8155365 131.96037292 C300.34678153 148.21573617 298.11274596 163.65973057 285.86705017 175.44621277 C272.79377959 186.34060492 256.74706119 187.2895186 240.45561218 187.27415466 C239.44815956 187.27712579 238.44070694 187.28009691 237.40272546 187.28315806 C234.05846827 187.29176476 230.71424721 187.29334643 227.36997986 187.29484558 C224.95922775 187.29947935 222.54847637 187.30450476 220.13772583 187.30989075 C213.61071999 187.3229605 207.08372101 187.32948638 200.55670452 187.33390141 C196.4731426 187.3366755 192.38958299 187.3409148 188.30602264 187.34540558 C176.97531153 187.35758624 165.64460225 187.36788931 154.31388474 187.37128067 C153.59054452 187.37150024 152.8672043 187.3717198 152.12194468 187.37194602 C151.39699352 187.3721643 150.67204236 187.37238258 149.92512298 187.37260747 C148.45638386 187.37305092 146.98764475 187.37349748 145.51890564 187.37394714 C144.79037896 187.37416857 144.06185229 187.37439 143.31124905 187.37461814 C131.51094273 187.37856485 119.7106982 187.3960204 107.91041574 187.41930667 C95.76348933 187.44308152 83.61659386 187.45548523 71.46964383 187.45664859 C64.66228691 187.45756168 57.85501064 187.46322144 51.04767609 187.4814682 C44.64210273 187.49800681 38.23668191 187.50007628 31.83109474 187.49132919 C29.48949842 187.49056199 27.14789369 187.49485933 24.80631828 187.50478745 C4.85651182 187.58436732 -13.39275659 187.21065816 -28.68373108 172.71183777 C-38.45496364 161.57364521 -40.06573471 147.53819636 -40.60951233 133.36076355 C-41.14494385 119.8076532 -44.03592133 107.04324127 -53.94544983 97.13371277 C-64.78124003 88.70170271 -77.6701931 86.51201811 -90.94544983 85.13371277 C-91.72277029 61.16633197 -85.27485516 39.14506178 -68.75794983 21.44621277 C-50.15718312 3.6111723 -24.70161644 -0.03619633 0 0 Z " fill="#E32326" transform="translate(381.94544982910156,210.8662872314453)"/>
<path d="M0 0 C1.15486835 -0.00382555 2.3097367 -0.00765109 3.49960107 -0.01159257 C6.68279322 -0.02008703 9.86583667 -0.01970376 13.04903257 -0.01541197 C16.49086604 -0.01293548 19.93267288 -0.02197037 23.37449646 -0.02944946 C30.10905482 -0.04217329 36.84357326 -0.04399302 43.57814161 -0.0416492 C49.05504068 -0.03986315 54.53192767 -0.04162182 60.0088253 -0.04587364 C61.17994002 -0.04676643 61.17994002 -0.04676643 62.37471363 -0.04767724 C63.96102205 -0.04888905 65.54733046 -0.05010319 67.13363888 -0.05131962 C81.99737366 -0.06218641 96.86108572 -0.06003685 111.72482177 -0.05393478 C125.30557681 -0.04876737 138.88626009 -0.06001794 152.46700094 -0.07903299 C166.42978382 -0.09843225 180.39253278 -0.10666367 194.35532922 -0.10290974 C202.18709849 -0.10100074 210.01880671 -0.10345579 217.85056496 -0.11762428 C224.51852158 -0.12956576 231.18637956 -0.13091213 237.85433761 -0.11883412 C241.25236421 -0.11296446 244.65006363 -0.11343448 248.04810143 -0.12383652 C251.74170573 -0.13432549 255.43483056 -0.12618533 259.12841797 -0.11352539 C260.18846316 -0.12089968 261.24850835 -0.12827396 262.34067613 -0.13587171 C272.35302008 -0.06401504 283.5383014 1.29106011 291.25468445 8.26069641 C299.96723787 18.26719341 301.14332542 27.25550639 300.25468445 40.26069641 C299.00820594 49.08031745 296.39838161 55.95172203 289.47343445 61.75288391 C280.68323517 67.84117767 270.48761558 68.70612164 260.09681702 68.64164734 C258.92178891 68.64632731 257.7467608 68.65100728 256.53612578 68.65582907 C253.30598491 68.66565904 250.07618775 68.66221067 246.84605598 68.65287042 C243.35045761 68.64604288 239.85490338 68.65657929 236.35931396 68.66481018 C229.52441334 68.67810961 222.68961188 68.675287 215.85470746 68.66657226 C210.29821191 68.65978224 204.74174403 68.65888467 199.18524551 68.66214371 C198.39280573 68.66260341 197.60036595 68.66306311 196.78391284 68.66353673 C195.17384229 68.66449596 193.56377175 68.6654686 191.95370121 68.66645451 C176.87734009 68.674997 161.80103381 68.66519163 146.72468169 68.64905341 C133.79943383 68.63564606 120.8742668 68.63798396 107.94902039 68.65180969 C92.92152185 68.66787672 77.89407127 68.6741786 62.86656535 68.6649729 C61.26320752 68.6640173 59.65984969 68.66307418 58.05649185 68.66214371 C57.26770348 68.66168088 56.47891511 68.66121805 55.66622405 68.6607412 C50.11789326 68.65815507 44.569593 68.66251406 39.02126694 68.66958237 C32.25774638 68.67800983 25.49433024 68.67569088 18.73082159 68.65974014 C15.28256803 68.65187492 11.83448833 68.64873581 8.38623619 68.65868759 C4.64351255 68.66689224 0.90127718 68.65659364 -2.84141541 68.64164734 C-4.46589031 68.65168559 -4.46589031 68.65168559 -6.12318289 68.66192663 C-16.15958862 68.58425372 -24.41344375 66.36103542 -31.74531555 59.26069641 C-39.98413363 49.39603619 -40.57405288 38.6798507 -39.94062805 26.34126282 C-39.23192127 18.79176384 -35.41735935 12.20167678 -29.74531555 7.26069641 C-20.54174016 0.73136745 -11.00942564 -0.03900509 0 0 Z " fill="#E32327" transform="translate(381.7453155517578,498.7393035888672)"/>
<path d="M0 0 C1.01771532 -0.00507454 2.03543063 -0.01014909 3.08398581 -0.0153774 C4.75846596 -0.01612404 4.75846596 -0.01612404 6.46677399 -0.01688576 C7.65412219 -0.02126801 8.84147038 -0.02565027 10.06479883 -0.03016531 C13.3618655 -0.04122301 16.65888478 -0.04777561 19.95596313 -0.05234647 C23.51172085 -0.05830865 27.06746114 -0.06991706 30.62320709 -0.08063698 C39.21195104 -0.1051485 47.80070075 -0.11978714 56.38946891 -0.13269705 C58.81634098 -0.13641016 61.24321249 -0.1403833 63.670084 -0.14444971 C78.74806778 -0.16968953 93.82605249 -0.19173766 108.90405273 -0.20417786 C112.39586643 -0.20710745 115.88768009 -0.21006912 119.37949371 -0.21308327 C120.2473435 -0.21382932 121.11519328 -0.21457537 122.00934154 -0.21534403 C136.05927096 -0.22799014 150.10907363 -0.26120376 164.15894383 -0.3028851 C178.59164763 -0.34535025 193.02428662 -0.36887825 207.45705271 -0.37409842 C215.55723739 -0.37750755 223.65722404 -0.38920365 231.75734711 -0.42220116 C238.65785058 -0.45026601 245.55811541 -0.46117296 252.45867151 -0.4500057 C255.97623956 -0.44483519 259.4933084 -0.44759949 263.01080322 -0.47247124 C266.834105 -0.49519831 270.65616012 -0.48684896 274.4794693 -0.47098732 C276.12718079 -0.49181045 276.12718079 -0.49181045 277.80817938 -0.51305425 C286.75918607 -0.42193969 294.80464573 1.84920188 301.91855621 7.44951439 C309.88484754 17.8298334 312.01545931 26.97783575 310.98105621 40.13701439 C309.43964653 48.60092266 306.73438577 55.57787116 299.98105621 61.13701439 C291.5385707 66.67116336 283.05999828 67.43279787 273.21050262 67.41116905 C272.02875826 67.41640573 270.84701389 67.42164241 269.62945908 67.42703778 C266.36194727 67.43941778 263.09456915 67.44288204 259.82703841 67.44244087 C256.29790841 67.44409357 252.76881718 67.45716851 249.23970795 67.46863365 C241.52881938 67.49144774 233.81795839 67.49940038 226.10704064 67.5044601 C221.28848821 67.50772127 216.46994373 67.51424628 211.6513958 67.52146149 C198.29892262 67.54102266 184.94645682 67.55742972 171.59396839 67.56033802 C170.74012572 67.56052559 169.88628305 67.56071316 169.00656636 67.56090641 C167.27577126 67.56127265 165.54497616 67.56163635 163.81418107 67.56199753 C162.95506285 67.56218034 162.09594464 67.56236315 161.21079254 67.5625515 C160.35062049 67.56273205 159.49044845 67.5629126 158.60421058 67.56309862 C144.67086192 67.56663918 130.73766792 67.59365636 116.80437288 67.63104939 C102.48456792 67.66917083 88.16483962 67.68849578 73.8449828 67.68879753 C65.81080372 67.68938123 57.77680915 67.6978169 49.74267769 67.7267952 C42.90079223 67.75136049 36.05915859 67.75855741 29.21724091 67.74354767 C25.73003746 67.73639966 22.24333075 67.73714368 18.75618362 67.75995827 C14.96586828 67.7804365 11.176828 67.76985404 7.38652802 67.75174522 C5.75355891 67.77154518 5.75355891 67.77154518 4.08760053 67.79174513 C-5.2467342 67.69032492 -13.94013703 65.20917561 -21.01894379 58.88701439 C-29.18867076 49.78075774 -29.55558549 38.77054383 -29.13759613 27.1707058 C-28.63914396 18.62727657 -25.31622419 13.37733217 -19.43300629 7.27373314 C-13.74085283 2.23553258 -7.53707421 0.01998427 0 0 Z " fill="#E32226" transform="translate(371.0189437866211,414.8629856109619)"/>
<path d="M0 0 C13.54517271 9.20526824 18.94200623 23.23820413 22.1875 38.75 C23.1840528 45.26069094 23.34160235 51.62094212 23.34863281 58.20117188 C23.35608017 59.88611 23.35608017 59.88611 23.36367798 61.60508728 C23.37823967 65.30964788 23.38509537 69.01416551 23.390625 72.71875 C23.39486607 74.6321241 23.39486607 74.6321241 23.39919281 76.58415222 C23.41262907 82.65289245 23.42252314 88.72161379 23.4263947 94.7903676 C23.43084608 101.72515609 23.44826162 108.65974459 23.4773953 115.59447241 C23.50194183 121.65459105 23.50935488 127.71462971 23.51107025 133.77479553 C23.51406021 136.32276999 23.5219616 138.87074438 23.53525543 141.41868591 C23.6786864 171.04964183 22.75666353 206.02293905 4.1875 230.75 C3.73761719 231.37648438 3.28773438 232.00296875 2.82421875 232.6484375 C-1.16396132 237.7937515 -6.04707236 240.83191546 -11.8125 243.75 C-12.82570313 244.26433594 -12.82570313 244.26433594 -13.859375 244.7890625 C-23.08147561 248.61373213 -35.20246269 248.20726894 -44.4375 244.6875 C-53.07804223 240.46191976 -57.7061192 234.78522587 -60.8125 225.75 C-62.1330964 221.76069068 -61.96065375 217.70697359 -61.95967102 213.55368042 C-61.96334771 212.72019014 -61.9670244 211.88669987 -61.9708125 211.02795231 C-61.98183914 208.23070547 -61.98569147 205.43349579 -61.98950195 202.63623047 C-61.99576741 200.63218569 -62.00241429 198.62814208 -62.00941467 196.62409973 C-62.03044903 190.03847054 -62.04081702 183.45284113 -62.05078125 176.8671875 C-62.05482915 174.59897983 -62.05894608 172.33077227 -62.06313133 170.06256485 C-62.08218224 159.40519811 -62.09641305 148.74783829 -62.1047433 138.0904578 C-62.11451336 125.7944664 -62.14082738 113.49865513 -62.18124419 101.2027272 C-62.21142157 91.6951364 -62.22621376 82.18759718 -62.22952431 72.67995942 C-62.23187309 67.00329288 -62.24081125 61.3268188 -62.26598549 55.6502037 C-62.28929919 50.3067752 -62.29348605 44.96366543 -62.28322411 39.6201992 C-62.28272943 37.66351574 -62.2890297 35.70681641 -62.30278015 33.7501812 C-62.38777247 20.93470776 -62.11958307 10.36719555 -52.87890625 0.5078125 C-38.06265795 -12.09580136 -15.6023491 -9.22628763 0 0 Z " fill="#E32326" transform="translate(760.8125,320.25)"/>
<path d="M0 0 C7.14991269 5.8788171 11.06489237 11.13325318 12.8125 20.3125 C13.37827778 26.83711786 13.21284893 33.41306167 13.18481445 39.95556641 C13.18724522 41.94403778 13.19096729 43.93250793 13.19587708 45.92097473 C13.20524946 51.2989132 13.19589201 56.6766685 13.18254495 62.05459261 C13.17119449 67.69226882 13.17534065 73.32993649 13.17729187 78.96762085 C13.17817356 88.43124367 13.16711931 97.89479469 13.14868164 107.35839844 C13.12750374 118.29092205 13.12400752 129.2233406 13.1302436 140.15588057 C13.13594264 150.68724108 13.13028599 161.2185647 13.11907005 171.74991989 C13.11443249 176.22580016 13.11354655 180.70165781 13.1156559 185.17753983 C13.11754271 190.44876329 13.10940462 195.71988017 13.0935955 200.99107933 C13.08936179 202.92279176 13.08849594 204.85451503 13.09128571 206.78623009 C13.09452147 209.42796613 13.08539077 212.06938649 13.07319641 214.71109009 C13.0788654 215.85069795 13.0788654 215.85069795 13.08464891 217.01332819 C13.0092564 226.28054292 10.63617695 234.21252652 4.17578125 241.04296875 C-3.99625688 248.48044165 -12.86103132 249.64286839 -23.625 249.51953125 C-33.9887216 248.91725357 -43.01333956 244.3958857 -50.4140625 237.125 C-62.06933658 223.4446783 -67.09251518 206.15324988 -69.9375 188.75 C-70.05319336 188.04399658 -70.16888672 187.33799316 -70.28808594 186.6105957 C-72.702561 170.25050896 -72.3649533 153.6104948 -72.390625 137.12109375 C-72.39345238 135.8857445 -72.39627975 134.65039524 -72.39919281 133.37761116 C-72.41408623 126.85045287 -72.42338 120.32331615 -72.42773438 113.79614258 C-72.43197449 107.76233922 -72.45135942 101.72870685 -72.4773953 95.69496197 C-72.50178429 89.83449213 -72.50934658 83.97408915 -72.51107025 78.11357307 C-72.51407499 75.64468331 -72.52202873 73.17579395 -72.53525543 70.70693779 C-72.65452414 46.75261509 -70.82141442 25.04137107 -53.875 6.5 C-40.06963332 -6.56744062 -16.46648038 -8.71754844 0 0 Z " fill="#E32326" transform="translate(312.1875,317.6875)"/>
<path d="M0 0 C1.70228577 1.16479492 1.70228577 1.16479492 3.48461914 2.79296875 C4.18467072 3.43218262 4.88472229 4.07139648 5.60598755 4.72998047 C10.49908453 9.36964962 15.3254096 14.0725454 20.12109375 18.8125 C20.96875651 19.65030502 20.96875651 19.65030502 21.83354378 20.5050354 C24.81423379 23.4533837 27.7910099 26.40562961 30.76538086 29.36035156 C33.2179872 31.79505209 35.67885948 34.22091981 38.1472168 36.63964844 C41.14589076 39.57814315 44.12958433 42.53108778 47.10316658 45.4949646 C48.23315771 46.61641383 49.36826429 47.73273381 50.50860405 48.84365845 C52.10016859 50.39629304 53.67173527 51.96684065 55.23999023 53.54296875 C56.58612648 54.8736438 56.58612648 54.8736438 57.9594574 56.23120117 C60.42979365 59.58318418 60.84724365 61.87072481 61 66 C56.90050296 76.6586923 44.28372053 86.81085298 35 93 C34.48953125 92.55269531 33.9790625 92.10539063 33.453125 91.64453125 C20.69115851 81.03218677 7.10547528 78.65246183 -9 80 C-14.01072261 81.12338065 -18.24254368 82.79417429 -22.4765625 85.69921875 C-25 87 -25 87 -27.27392578 86.93847656 C-31.08551354 85.6263018 -33.39766847 83.11708308 -36.140625 80.28515625 C-36.70827576 79.71421738 -37.27592651 79.1432785 -37.86077881 78.55503845 C-39.05542434 77.34999281 -40.24530028 76.14020233 -41.43066406 74.92602539 C-43.2487023 73.06382922 -45.07984653 71.21539149 -46.9140625 69.36914062 C-48.07369784 68.19608423 -49.23257862 67.02228131 -50.390625 65.84765625 C-50.9384967 65.29239761 -51.48636841 64.73713898 -52.05084229 64.16505432 C-55.37717735 60.75406304 -56.84146015 59.14941393 -57.5 54.375 C-57.43991324 50.67440505 -56.56005094 49.03478746 -54.06762695 46.33374023 C-53.42934967 45.63908661 -52.79107239 44.94443298 -52.13345337 44.22872925 C-48.27576803 40.19876718 -44.36740327 36.22523407 -40.41796875 32.28515625 C-39.07488396 30.94063637 -39.07488396 30.94063637 -37.70466614 29.56895447 C-35.82589224 27.68950398 -33.94616009 25.81107813 -32.06469727 23.93432617 C-29.65258227 21.52795724 -27.24505193 19.11705876 -24.83878613 16.70484257 C-22.53426977 14.39585567 -20.2259604 12.09066856 -17.91796875 9.78515625 C-17.05342575 8.91858902 -16.18888275 8.05202179 -15.29814148 7.15919495 C-14.50003555 6.36424118 -13.70192963 5.56928741 -12.87963867 4.75024414 C-12.17683273 4.0482338 -11.47402679 3.34622345 -10.74992371 2.62294006 C-7.32096892 -0.55719178 -4.59236188 -0.59256282 0 0 Z " fill="#4B5DA5" transform="translate(882,754)"/>
<path d="M0 0 C2.69968874 0.6339597 3.92052142 1.69639213 5.95180607 3.57075024 C6.64709478 4.2085158 7.3423835 4.84628136 8.05874157 5.50337315 C11.36266111 8.65119511 14.62599159 11.83197161 17.84790897 15.06374645 C18.56923512 15.78332027 19.29056126 16.5028941 20.03374577 17.24427319 C22.3903996 19.59656552 24.74342413 21.9524489 27.09619999 24.3086195 C28.74132271 25.95306798 30.38659379 27.59736804 32.03200626 29.2415266 C35.46543152 32.67348301 38.89705485 36.10722826 42.32740116 39.54226208 C46.73140417 43.95198895 51.1399177 48.35717504 55.54976654 52.76105499 C58.94092534 56.14860922 62.32970993 59.53853041 65.71776867 62.92918491 C67.34339845 64.55548286 68.96977438 66.18103532 70.59689999 67.80583668 C72.861378 70.067787 75.12264604 72.33289729 77.38306522 74.5989027 C78.05885624 75.27266949 78.73464725 75.94643627 79.43091679 76.64062023 C80.04337757 77.25590084 80.65583836 77.87118145 81.28685856 78.50510693 C81.82124766 79.03987306 82.35563677 79.57463919 82.90621948 80.12561035 C84.71028394 82.11037198 85.15635508 83.47033126 85.60010624 86.13283825 C84.5709564 94.07199418 76.61173912 100.3968122 71.16260624 105.82033825 C70.47682499 106.52223278 69.79104374 107.22412731 69.08448124 107.94729137 C65.43001211 111.60524759 62.16913815 114.84126173 57.16260624 116.50783825 C43.34541451 115.41503887 30.45446319 97.01914376 21.28760624 87.75783825 C19.59797285 86.05815138 17.90787209 84.35892898 16.21729374 82.660182 C13.12602153 79.55268554 10.03739229 76.44261735 6.95215702 73.32912731 C4.03016251 70.38072789 1.10082084 67.44006871 -1.83739376 64.50783825 C-5.50406043 60.84117158 -9.17072709 57.17450492 -12.83739376 53.50783825 C-13.69333126 52.66221325 -14.54926876 51.81658825 -15.43114376 50.94533825 C-17.65288732 48.69474087 -19.75777879 46.38933281 -21.83739376 44.00783825 C-24.08625957 41.45288862 -26.33993987 38.94882944 -28.77489376 36.57033825 C-31.26533654 34.07989547 -31.77035622 33.16734273 -32.12645626 29.66408825 C-31.77398284 25.81545955 -30.87244918 24.75495002 -28.21239376 22.00783825 C-27.40286251 21.16221325 -26.59333126 20.31658825 -25.75926876 19.44533825 C-24.78613051 18.46535655 -23.81209547 17.48626493 -22.83739376 16.50783825 C-21.63399008 15.27894442 -20.43088097 14.04976208 -19.22801876 12.82033825 C-16.78639204 10.34264708 -14.34134887 7.86865021 -11.87645626 5.41408825 C-11.10616085 4.64548473 -11.10616085 4.64548473 -10.32030392 3.86135387 C-7.03325762 0.86112591 -4.4592822 -0.11337871 0 0 Z " fill="#F4A61F" transform="translate(913.8373937606812,697.4921617507935)"/>
<path d="M0 0 C48.81538462 0 48.81538462 0 57.25 8.0625 C60.91467122 12.78847452 61.20772393 16.98368649 61.25 22.8125 C61.270625 23.51181641 61.29125 24.21113281 61.3125 24.93164062 C61.35525822 30.64520794 60.17716493 34.63975529 56.28125 38.86328125 C55.6934375 39.34152344 55.105625 39.81976562 54.5 40.3125 C53.61828125 41.04919922 53.61828125 41.04919922 52.71875 41.80078125 C51 43 51 43 48 44 C48.72445312 44.3403125 49.44890625 44.680625 50.1953125 45.03125 C57.742475 48.81489413 63.25520291 52.76560873 66 61 C66.8530722 71.73652293 66.53438974 80.06316272 59.56640625 88.796875 C54.14549901 94.25833765 48.89676828 94.57022515 41 97 C27.47 97 13.94 97 0 97 C0 64.99 0 32.98 0 0 Z " fill="#4B4B4A" transform="translate(718,594)"/>
<path d="M0 0 C2.97273983 2.02714899 5.45371451 4.46728264 8 7 C8.90105469 7.886875 9.80210937 8.77375 10.73046875 9.6875 C13.16981522 12.10964375 15.59157617 14.54715852 18 17 C16.57040073 21.4490668 14.86931958 25.62070883 12.90234375 29.8515625 C10.64445114 35.22749729 10.78197218 40.43650491 10.75 46.1875 C10.729375 47.09564453 10.70875 48.00378906 10.6875 48.93945312 C10.65573043 54.48721401 11.31178202 58.88365103 13.45019531 64.02075195 C14.13623881 66.49044762 13.85202354 67.58991538 13 70 C11.52650452 71.84098816 11.52650452 71.84098816 9.61352539 73.74291992 C8.54220116 74.8187458 8.54220116 74.8187458 7.44923401 75.91630554 C6.28520302 77.06181633 6.28520302 77.06181633 5.09765625 78.23046875 C4.30475693 79.0214949 3.5118576 79.81252106 2.69493103 80.6275177 C1.01797038 82.29775661 -0.66258384 83.96439408 -2.34643555 85.62768555 C-4.93082347 88.180904 -7.5043748 90.74465237 -10.07617188 93.31054688 C-11.70510734 94.93031308 -13.33464438 96.54947459 -14.96484375 98.16796875 C-15.73884018 98.9377153 -16.51283661 99.70746185 -17.31028748 100.50053406 C-18.02765579 101.20829483 -18.74502411 101.9160556 -19.48413086 102.64526367 C-20.11620956 103.27051437 -20.74828827 103.89576508 -21.39952087 104.53996277 C-24.56908577 107.43139864 -27.50283967 107.44760336 -31.64599609 107.38476562 C-35.79904019 106.70594406 -37.99348889 104.20893047 -40.8125 101.25 C-41.42633545 100.6418042 -42.0401709 100.0336084 -42.67260742 99.40698242 C-44.03624883 98.05038999 -45.38966374 96.68346452 -46.734375 95.30810547 C-49.24392028 92.75150622 -51.79088148 90.23597713 -54.34375 87.72265625 C-57.89177384 84.21720491 -61.4359361 80.70830066 -64.95703125 77.17578125 C-65.68897705 76.44270752 -66.42092285 75.70963379 -67.17504883 74.9543457 C-70.40498498 71.49539735 -71.65049729 68.94183321 -71.48994446 64.14456177 C-70.89797534 61.55342246 -70.01564998 60.45227984 -68.22338867 58.49951172 C-67.58468842 57.80331726 -66.94598816 57.1071228 -66.28793335 56.38983154 C-61.54000655 51.43044528 -56.71627742 46.55146569 -51.86328125 41.6953125 C-50.69452393 40.52333577 -49.52583929 39.35128656 -48.35722351 38.1791687 C-45.92244988 35.73844421 -43.48565607 33.29975754 -41.04760742 30.86230469 C-37.92549067 27.74029017 -34.81034779 24.61141391 -31.69686604 21.48079109 C-29.29222172 19.06503718 -26.88305523 16.65383284 -24.47258568 14.24389267 C-23.32153811 13.09166655 -22.17210827 11.93782196 -21.02434731 10.78232193 C-19.4236891 9.17187045 -17.81682452 7.5678731 -16.20825195 5.96533203 C-15.29670853 5.05236359 -14.3851651 4.13939514 -13.44599915 3.19876099 C-8.85257238 -0.93036865 -6.07734356 -1.72191401 0 0 Z " fill="#4B5DA6" transform="translate(825,835)"/>
<path d="M0 0 C6.40469189 4.90572145 10.38001384 12.11565039 11.80078125 20.01953125 C13.07831636 32.39237128 13.24943262 45.64553985 6.35546875 56.5078125 C0.53892602 63.63627006 -6.86873673 67.16581091 -15.9453125 68.08984375 C-25.69648765 68.4522185 -33.51607036 66.77656934 -40.8515625 59.98828125 C-42.48790792 58.00421243 -43.70411553 56.04889896 -44.9140625 53.78125 C-45.32398438 53.07226562 -45.73390625 52.36328125 -46.15625 51.6328125 C-51.14900826 40.99307248 -50.93901938 24.51615872 -47.4140625 13.40625 C-44.01380625 6.06885493 -38.43635854 -0.71127515 -30.73046875 -3.6328125 C-20.67114778 -5.72559772 -8.83687042 -5.62674198 0 0 Z " fill="#4B4B4B" transform="translate(369.9140625,623.21875)"/>
<path d="M0 0 C8.37495997 5.00154952 14.19606514 12.22922295 16.79296875 21.66796875 C18.21155059 32.05401434 15.96764069 41.28096084 10.16796875 49.98046875 C4.45227258 57.02741567 -4.01652986 60.92691603 -12.8828125 61.98828125 C-22.520372 62.5632848 -30.01679046 59.00889727 -37.64453125 53.29296875 C-45.09469525 45.66109344 -47.69918926 37.54270882 -47.70898438 26.92602539 C-47.46730301 18.91300639 -44.61914325 12.53643318 -39.30859375 6.515625 C-28.16308183 -3.90300571 -13.97945731 -6.59268991 0 0 Z " fill="#F2A622" transform="translate(898.20703125,852.33203125)"/>
<path d="M0 0 C51.45733042 0 51.45733042 0 61.90625 9.78515625 C71.41348018 19.91680197 73.39183594 32.27677714 73.25 45.75 C73.23658569 47.19342773 73.23658569 47.19342773 73.22290039 48.66601562 C72.99453366 62.77978928 71.60271272 75.73692473 62.30078125 87.0703125 C46.09780701 102.10244244 18.62534144 97 0 97 C0 64.99 0 32.98 0 0 Z M13 9 C13 34.74 13 60.48 13 87 C33.2965052 88.36589321 33.2965052 88.36589321 52 81 C62.36731375 69.59032046 60.80831382 51.17754335 60.20703125 36.92285156 C59.51287762 27.12284293 56.47646911 19.52707621 49 13 C36.03497739 7.57607057 36.03497739 7.57607057 13 9 Z " fill="#4B4B4B" transform="translate(624,594)"/>
<path d="M0 0 C3.96 0 7.92 0 12 0 C12.33 10.89 12.66 21.78 13 33 C15.64 31.35 18.28 29.7 21 28 C28.59951855 25.23730209 37.7782194 24.29638418 45.57421875 26.83984375 C50.61887521 29.69367798 53.75709302 33.71829896 56 39 C59.06212364 50.77587257 58.22541798 63.2613956 58.125 75.3125 C58.11494844 77.4212197 58.10582645 79.52994405 58.09765625 81.63867188 C58.07581908 86.7592311 58.04140944 91.87956318 58 97 C53.71 97 49.42 97 45 97 C44.98541748 95.58783203 44.97083496 94.17566406 44.95581055 92.72070312 C44.89762889 87.4574309 44.82039696 82.1945776 44.73754883 76.93164062 C44.70439285 74.65827254 44.67633217 72.38482398 44.65356445 70.11132812 C44.6198471 66.83428815 44.56752158 63.55797944 44.51171875 60.28125 C44.50532883 59.27259888 44.4989389 58.26394775 44.49235535 57.22473145 C44.34574619 50.11140864 43.21214153 44.68690255 39.5 38.5 C35.21992157 35.93195294 30.84168646 36.34848019 26 37 C21.24943788 38.40030343 17.11825351 40.25449766 13 43 C12.52306814 45.37822507 12.52306814 45.37822507 12.56762695 48.18408203 C12.54783279 49.26505157 12.52803864 50.34602112 12.50764465 51.45974731 C12.49805977 53.21603958 12.49805977 53.21603958 12.48828125 55.0078125 C12.47033005 56.20356903 12.45237885 57.39932556 12.43388367 58.63131714 C12.37956325 62.46250853 12.34581467 66.29357383 12.3125 70.125 C12.2793462 72.71746555 12.24485838 75.30991441 12.20898438 77.90234375 C12.12382402 84.26813847 12.05711634 90.63389437 12 97 C8.04 97 4.08 97 0 97 C0 64.99 0 32.98 0 0 Z " fill="#4C4C4B" transform="translate(543,594)"/>
<path d="M0 0 C3.00766167 1.99722916 5.46580506 4.44100863 8 7 C8.66902344 7.64453125 9.33804688 8.2890625 10.02734375 8.953125 C15.76632594 14.53953711 15.76632594 14.53953711 16.5 19.125 C15.6028769 26.07770405 10.25424052 29.79601723 5.3828125 34.48046875 C4.74553223 35.10042725 4.10825195 35.72038574 3.45166016 36.35913086 C2.15920956 37.61132373 0.85422923 38.8507226 -0.46337891 40.07641602 C-1.06327637 40.65447998 -1.66317383 41.23254395 -2.28125 41.828125 C-2.82845703 42.3427832 -3.37566406 42.85744141 -3.93945312 43.38769531 C-5.21217773 44.96199936 -5.21217773 44.96199936 -4.83398438 47.02246094 C-3.99490584 49.32930746 -3.99490584 49.32930746 -1.375 51.8125 C1 55 1 55 1.0625 58.625 C-0.10193437 62.32379153 -0.7648867 63.87163599 -4 66 C-6.99157414 66.68709703 -8.14484437 66.88441971 -11 66 C-14.69227736 63.17899104 -17.77608903 59.83133278 -20.9375 56.4375 C-22.65259103 54.64227661 -24.37000661 52.84927086 -26.08984375 51.05859375 C-26.91500488 50.19387451 -27.74016602 49.32915527 -28.59033203 48.43823242 C-31.36191162 45.63379825 -34.26136716 43.05048182 -37.28637695 40.52441406 C-39.66847593 38.40533356 -41.66150038 36.02767937 -43.68359375 33.5703125 C-45.10867616 31.82378464 -45.10867616 31.82378464 -47.3125 29.6875 C-49.53734948 27.46265052 -49.9559275 26.33054378 -50.375 23.1875 C-50 20 -50 20 -47.9375 17.0625 C-45 15 -45 15 -41.5625 14.8125 C-37.57031873 16.14322709 -36.0238821 17.60989962 -33.45703125 20.8203125 C-32.05454937 22.22562572 -32.05454937 22.22562572 -30.015625 21.890625 C-27.59147879 20.81949063 -26.58757754 19.69287211 -24.9375 17.625 C-21.86511593 13.94613665 -18.63715606 10.51047842 -15.25 7.125 C-14.32703125 6.19945312 -13.4040625 5.27390625 -12.453125 4.3203125 C-8.2221952 0.31844578 -5.82457444 -0.85936344 0 0 Z " fill="#F4A720" transform="translate(753,927)"/>
<path d="M0 0 C0 3.3 0 6.6 0 10 C-1.485 9.690625 -2.97 9.38125 -4.5 9.0625 C-23.32787943 5.34315059 -23.32787943 5.34315059 -41 11 C-47.39106192 16.25487313 -50.70200799 22.93014887 -52 31 C-52.30744688 35.58623419 -52.32469543 40.15476345 -52.3125 44.75 C-52.32861328 45.94882812 -52.34472656 47.14765625 -52.36132812 48.3828125 C-52.36689169 58.64201902 -51.29166412 70.42587097 -45 79 C-36.53567328 86.74766748 -26.55593874 85.43976691 -15.7265625 85.15820312 C-10.24277096 84.84001751 -5.27950839 83.54522197 0 82 C-0.33 85.63 -0.66 89.26 -1 93 C-17.48442766 97.68076341 -34.33585859 100.2308297 -50.0078125 91.9375 C-58.78082131 86.46861139 -63.07664022 76.07053284 -65.6875 66.47265625 C-69.37441813 48.62694836 -68.54040726 27.89427271 -59.79296875 11.6953125 C-55.03529471 4.54325348 -48.25213836 -0.55747744 -40 -3 C-27.12640179 -5.29067584 -12.16266133 -5.21569981 0 0 Z " fill="#4B4B4B" transform="translate(307,594)"/>
<path d="M0 0 C4.29 0 8.58 0 13 0 C13.01458252 1.50828369 13.02916504 3.01656738 13.04418945 4.57055664 C13.1022909 10.18228511 13.1795239 15.79361731 13.26245117 21.4050293 C13.29564466 23.83074498 13.32369384 26.25653686 13.34643555 28.68237305 C13.38008331 32.17529684 13.43240631 35.66752585 13.48828125 39.16015625 C13.49467117 40.23959 13.5010611 41.31902374 13.50764465 42.4311676 C13.63745228 49.12367356 13.97405336 54.85172786 18.8359375 59.91015625 C24.00382632 62.5127573 30.55301496 61.75166695 35.9375 60.09765625 C37.65470142 59.39629928 39.3577597 58.65851975 41.0390625 57.875 C43 57 43 57 45 57 C45 38.19 45 19.38 45 0 C49.29 0 53.58 0 58 0 C58 23.43 58 46.86 58 71 C54.7 71 51.4 71 48 71 C47.67 69.02 47.34 67.04 47 65 C42.99009223 66.55222236 39.08951146 68.30377723 35.18359375 70.09765625 C28.48786582 72.86458496 20.55718157 73.13929539 13.546875 71.38671875 C8.07168048 69.01483105 5.49520489 65.27236776 3 60 C0.12675133 52.65991131 -0.40921284 45.90925941 -0.29296875 38.0859375 C-0.28872391 36.99028473 -0.28447906 35.89463196 -0.28010559 34.76577759 C-0.263452 31.30192401 -0.22582458 27.83867464 -0.1875 24.375 C-0.17243596 22.01172721 -0.15875058 19.64844521 -0.14648438 17.28515625 C-0.11359213 11.52320838 -0.06190263 5.76170626 0 0 Z " fill="#4E4E4D" transform="translate(399,619)"/>
<path d="M0 0 C5.00129196 2.45182643 6.91006226 6.43238161 8.80078125 11.3828125 C11.63362688 19.88134938 11.24634041 33.01203504 8.17578125 41.3828125 C5.64448133 46.41838779 2.20624949 49.58098975 -3.19921875 51.3828125 C-10.03074415 52.1113493 -14.7258694 51.65202499 -20.19921875 47.3828125 C-27.07756699 37.71594471 -27.62503037 25.88198647 -25.69921875 14.40234375 C-24.12558025 8.49225824 -21.74331777 3.6171358 -16.40234375 0.25 C-11.3834017 -1.72554102 -5.14813148 -1.44476869 0 0 Z " fill="#FCFCFC" transform="translate(359.19921875,629.6171875)"/>
<path d="M0 0 C0.79519043 -0.01047363 1.59038086 -0.02094727 2.40966797 -0.03173828 C8.28918907 0.05663006 13.00141156 1.36453216 18.5 3.4375 C18.995 8.3875 18.995 8.3875 19.5 13.4375 C17.7984375 12.9425 17.7984375 12.9425 16.0625 12.4375 C11.31014863 11.39319349 6.65975395 11.14601035 1.8125 11.0625 C1.08812744 11.03671875 0.36375488 11.0109375 -0.38256836 10.984375 C-5.52187039 10.96551734 -8.45706489 12.01424096 -12.5 15.4375 C-13.97160093 17.32505111 -13.97160093 17.32505111 -14.8125 19.375 C-15.27076172 20.34759766 -15.27076172 20.34759766 -15.73828125 21.33984375 C-19.456078 31.57808403 -18.45321396 44.42164961 -14.5 54.4375 C-12.37127626 57.58580663 -9.65410839 59.33476107 -6.5 61.4375 C-3.74875879 61.63526364 -1.12373474 61.72059237 1.625 61.6875 C2.38675537 61.68363281 3.14851074 61.67976562 3.93334961 61.67578125 C9.36566201 61.59235873 14.26412013 60.96066505 19.5 59.4375 C19.17 62.7375 18.84 66.0375 18.5 69.4375 C8.51554697 73.09034867 -3.77070826 74.51265943 -13.9375 70.875 C-22.1531766 66.99612318 -26.01429167 61.26870667 -29.5546875 53.0859375 C-33.3801913 42.36820372 -33.14358353 27.61025547 -28.953125 17.08984375 C-25.2555336 10.34074547 -19.80056996 3.74190859 -12.4140625 0.98828125 C-8.2730195 0.20559082 -4.20834386 0.05277684 0 0 Z " fill="#4D4D4D" transform="translate(506.5,618.5625)"/>
<path d="M0 0 C6.4040625 -0.0928125 6.4040625 -0.0928125 12.9375 -0.1875 C14.26515381 -0.21481201 15.59280762 -0.24212402 16.96069336 -0.27026367 C23.68998361 -0.31721573 29.91508898 -0.1543679 36 3 C40.4354145 7.4354145 42.29416128 11.50925107 42.375 17.75 C42.25446302 23.24112904 41.69274088 27.75488237 38 32 C32.62257852 35.71117821 27.28645877 37.12810544 20.80078125 37.09765625 C19.71192627 37.09515869 18.62307129 37.09266113 17.5012207 37.09008789 C16.11894287 37.08098389 14.73666504 37.07187988 13.3125 37.0625 C8.919375 37.041875 4.52625 37.02125 0 37 C0 24.79 0 12.58 0 0 Z " fill="#FBFBFB" transform="translate(730,644)"/>
<path d="M0 0 C5.6615625 -0.12375 5.6615625 -0.12375 11.4375 -0.25 C12.60853271 -0.28641602 13.77956543 -0.32283203 14.98608398 -0.36035156 C23.07954196 -0.44527911 29.12991443 0.97944541 35.5625 6 C38.36532337 11.84937051 37.74941775 18.37703787 36 24.5 C32.15540973 29.30573784 26.92153456 30.98857281 21 32 C19.30742755 32.07700286 17.61226001 32.10805067 15.91796875 32.09765625 C15.0777417 32.09515869 14.23751465 32.09266113 13.37182617 32.09008789 C11.79558472 32.07643188 11.79558472 32.07643188 10.1875 32.0625 C5.1446875 32.0315625 5.1446875 32.0315625 0 32 C0 21.44 0 10.88 0 0 Z " fill="#F9F9F9" transform="translate(730,603)"/>
<path d="M0 0 C3.53296473 2.5364875 5.067571 4.64021299 6.4375 8.75 C6.52041953 10.7420303 6.54488177 12.73673713 6.53515625 14.73046875 C6.53193359 15.89384766 6.52871094 17.05722656 6.52539062 18.25585938 C6.51282227 20.07827148 6.51282227 20.07827148 6.5 21.9375 C6.49548828 23.16404297 6.49097656 24.39058594 6.48632812 25.65429688 C6.47453065 28.68624668 6.45806921 31.71809906 6.4375 34.75 C7.7575 34.75 9.0775 34.75 10.4375 34.75 C10.1075 36.4 9.7775 38.05 9.4375 39.75 C6.0625 39.875 6.0625 39.875 2.4375 39.75 C1.7775 39.09 1.1175 38.43 0.4375 37.75 C-2.39207829 38.11276645 -4.85334291 38.84694764 -7.5625 39.75 C-17.97180589 40.65451234 -17.97180589 40.65451234 -22.75 37.9375 C-25.63648249 34.45381424 -25.90932462 31.2090745 -25.84375 26.75 C-25.38758989 23.50619477 -23.92761346 21.9233475 -21.5625 19.75 C-17.34206305 17.54803289 -13.40422812 17.50920102 -8.75 17.625 C-7.71069336 17.63853516 -7.71069336 17.63853516 -6.65039062 17.65234375 C-4.95427605 17.67573843 -3.25834129 17.71160359 -1.5625 17.75 C-1.67648665 16.12419034 -1.80405659 14.49932843 -1.9375 12.875 C-2.00710938 11.97007812 -2.07671875 11.06515625 -2.1484375 10.1328125 C-2.35818132 7.57058097 -2.35818132 7.57058097 -4.5625 5.75 C-10.53727465 5.22228787 -16.70119293 5.44748732 -22.5625 6.75 C-22.5625 5.1 -22.5625 3.45 -22.5625 1.75 C-15.42894604 -2.14102943 -7.70538845 -2.70364507 0 0 Z " fill="#7C7C7B" transform="translate(734.5625,717.25)"/>
<path d="M0 0 C5.06194079 2.39776143 6.02214649 4.03691082 9 9 C9 12.96 9 16.92 9 21 C0.75 21 -7.5 21 -16 21 C-14.35163617 29.08148436 -14.35163617 29.08148436 -9 34 C-6.1905335 34.56246945 -3.53770628 34.47806158 -0.6875 34.3125 C0.05306641 34.28994141 0.79363281 34.26738281 1.55664062 34.24414062 C3.37197357 34.1855815 5.18625681 34.09590886 7 34 C7 35.65 7 37.3 7 39 C0.88555884 41.64408266 -5.92831348 42.19237409 -12.34765625 40.3125 C-17.07017395 38.19398739 -19.53039615 35.64285524 -22 31 C-24.30093314 24.09720057 -24.28298038 14.38158018 -21.15234375 7.6875 C-15.88450391 -0.02676038 -8.93121593 -1.46969376 0 0 Z " fill="#797979" transform="translate(673,716)"/>
<path d="M0 0 C4.35349363 1.70354099 7.75989872 4.87304419 10 9 C11.26597063 13.74738985 11.46008293 17.64531136 9.875 22.3125 C7.10199725 26.28713727 4.67503987 29.44165338 0 31 C-5.21335806 31.49923837 -9.62247649 31.62614705 -14.4375 29.4375 C-18.84766978 25.24246045 -21.19023547 21.56105932 -21.5 15.5 C-21.19023547 9.43894068 -18.84766978 5.75753955 -14.4375 1.5625 C-9.56912923 -0.6503958 -5.26439658 -0.65301091 0 0 Z " fill="#FEFCF5" transform="translate(888,866)"/>
<path d="M0 0 C1.53027317 -0.00576172 1.53027317 -0.00576172 3.09146094 -0.01163983 C4.77003381 -0.01034011 4.77003381 -0.01034011 6.48251724 -0.00901413 C7.6726877 -0.01198525 8.86285817 -0.01495637 10.0890944 -0.01801753 C13.3938876 -0.02519759 16.69862881 -0.02787683 20.00342607 -0.028615 C23.56728351 -0.0304664 27.13112969 -0.03801418 30.69498062 -0.04475021 C38.48841923 -0.05833061 46.2818527 -0.0643578 54.07530117 -0.06876087 C58.94187847 -0.07152379 63.80845379 -0.07576123 68.67502975 -0.08026505 C82.15006129 -0.09245732 95.62509124 -0.10275672 109.10012817 -0.10614014 C109.96251768 -0.1063597 110.82490718 -0.10657927 111.7134297 -0.10680549 C112.57787844 -0.10702377 113.44232718 -0.10724204 114.33297133 -0.10746694 C116.08466323 -0.1079104 117.83635513 -0.10835697 119.58804703 -0.10880661 C120.45694605 -0.10902804 121.32584508 -0.10924947 122.22107437 -0.10947761 C136.29953409 -0.11342541 150.37794204 -0.13087906 164.45638177 -0.15416613 C178.91166772 -0.17788348 193.36692771 -0.19034216 207.82223344 -0.19150805 C215.93788233 -0.1924246 224.05346378 -0.19817172 232.16909409 -0.21632767 C239.07992211 -0.23173383 245.99066184 -0.23684608 252.90150377 -0.22858956 C256.42655304 -0.22468487 259.95142452 -0.22560366 263.47645187 -0.23964691 C267.30081586 -0.25474314 271.12493013 -0.24651392 274.94931412 -0.23606491 C276.05943981 -0.24412132 277.1695655 -0.25217772 278.31333137 -0.26047826 C284.57936402 -0.22041261 289.25037581 0.53104735 294.96988297 3.13142776 C291.21988297 4.25642776 291.21988297 4.25642776 288.96988297 3.13142776 C287.35008887 3.03677963 285.72639588 3.00588001 284.10383892 3.00558662 C283.06938843 3.00297888 282.03493794 3.00037113 280.96914047 2.99768436 C279.25132113 3.00103044 279.25132113 3.00103044 277.49879837 3.00444412 C276.28906359 3.00288413 275.07932881 3.00132414 273.83293539 2.99971688 C270.4644993 2.99640709 267.09611859 2.99761359 263.72768581 3.0007031 C260.09917243 3.00295753 256.47066404 2.99947738 252.84215164 2.99672318 C245.7299952 2.99226709 238.61784928 2.99324119 231.50569241 2.99613582 C225.72819172 2.9983903 219.95069399 2.99870217 214.17319298 2.997612 C213.35224575 2.99745877 212.53129853 2.99730553 211.68547412 2.99714766 C210.01797091 2.99682795 208.35046771 2.99650373 206.68296451 2.99617507 C191.0322485 2.99332079 175.38153834 2.99660657 159.73082329 3.00197543 C146.28731356 3.00644426 132.84381246 3.00566679 119.40030289 3.00105667 C103.80566232 2.99571142 88.21102688 2.9935946 72.61638552 2.99666893 C70.95517608 2.9969875 69.29396663 2.99730187 67.63275719 2.997612 C66.40658826 2.99784341 66.40658826 2.99784341 65.15564824 2.9980795 C59.38125613 2.99894474 53.60686727 2.99748165 47.83247566 2.99513245 C40.80101287 2.99233483 33.76956125 2.99307194 26.73809975 2.99841319 C23.1471582 3.00105059 19.55623531 3.00205461 15.96529388 2.99876404 C12.08151322 2.99525881 8.19776346 2.9994294 4.31398392 3.00444412 C3.1665403 3.0022134 2.01909669 2.99998268 0.83688205 2.99768436 C-0.71088206 3.00159598 -0.71088206 3.00159598 -2.28991413 3.00558662 C-3.18762801 3.00574898 -4.08534188 3.00591133 -5.01025921 3.0060786 C-7.02686626 2.90752652 -7.02686626 2.90752652 -8.03011703 4.13142776 C-9.69628819 4.17206609 -11.36399798 4.17414877 -13.03011703 4.13142776 C-8.74819997 0.61413875 -5.46607525 0.00773227 0 0 Z " fill="#CA2528" transform="translate(371.0301170349121,414.8685722351074)"/>
<path d="M0 0 C1.65 0 3.3 0 5 0 C2.0809408 2.42464778 -0.40409329 3.64439614 -4.0625 4.625 C-4.91972656 4.86476563 -5.77695312 5.10453125 -6.66015625 5.3515625 C-14.88915096 6.94923867 -23.23894205 7.14832594 -31.59893799 7.14044189 C-33.11011692 7.14489858 -33.11011692 7.14489858 -34.65182471 7.1494453 C-37.9960819 7.15805199 -41.34030296 7.15963366 -44.68457031 7.16113281 C-47.09532242 7.16576658 -49.5060738 7.17079199 -51.91682434 7.17617798 C-58.44383018 7.18924774 -64.97082916 7.19577361 -71.49784565 7.20018864 C-75.58140758 7.20296274 -79.66496718 7.20720203 -83.74852753 7.21169281 C-95.07923864 7.22387347 -106.40994792 7.23417654 -117.74066544 7.2375679 C-118.46400565 7.23778747 -119.18734587 7.23800703 -119.93260549 7.23823325 C-120.65755665 7.23845153 -121.38250782 7.23866981 -122.12942719 7.2388947 C-123.59816631 7.23933815 -125.06690542 7.23978471 -126.53564453 7.24023438 C-127.26417121 7.2404558 -127.99269788 7.24067723 -128.74330112 7.24090537 C-140.54360744 7.24485208 -152.34385197 7.26230763 -164.14413443 7.2855939 C-176.29106084 7.30936875 -188.43795631 7.32177246 -200.58490634 7.32293582 C-207.39226326 7.32384891 -214.19953953 7.32950867 -221.00687408 7.34775543 C-227.41244744 7.36429405 -233.81786826 7.36636351 -240.22345543 7.35761642 C-242.56505175 7.35684923 -244.90665648 7.36114657 -247.24823189 7.37107468 C-272.13966308 7.47036671 -272.13966308 7.47036671 -283 4 C-283.66 3.34 -284.32 2.68 -285 2 C-282.66705225 1.95758277 -280.33297433 1.95907063 -278 2 C-277.67 2.33 -277.34 2.66 -277 3 C-274.1385718 3.2457682 -271.30151475 3.42430333 -268.43397522 3.55441284 C-267.5392875 3.59654022 -266.64459978 3.6386676 -265.72280031 3.68207157 C-254.8358813 4.15069148 -243.95134008 4.14021339 -233.05639648 4.12939453 C-230.7264961 4.13075321 -228.39659594 4.13253574 -226.06669617 4.13470459 C-219.80287346 4.13922121 -213.53906743 4.13751398 -207.27524447 4.1343255 C-201.36216764 4.13203397 -195.44909277 4.13379237 -189.53601588 4.1352527 C-177.12302021 4.13808971 -164.71003199 4.1348475 -152.29703755 4.12945233 C-141.66994516 4.12497642 -131.04286368 4.12577015 -120.41577148 4.13037109 C-108.02764903 4.13573207 -95.63953352 4.13771029 -83.25141007 4.13475883 C-76.71038906 4.13320393 -70.16937555 4.13298093 -63.62835503 4.13629532 C-57.48618256 4.13919112 -51.34403068 4.13716697 -45.20186043 4.13140106 C-42.95372171 4.13008315 -40.70558125 4.13045106 -38.45744324 4.13266373 C-35.37947825 4.13541313 -32.30157844 4.13194821 -29.22361755 4.12698364 C-27.90307449 4.13032973 -27.90307449 4.13032973 -26.55585378 4.13374341 C-15.9806001 4.51146498 -15.9806001 4.51146498 -6 2 C-4.00039988 1.960008 -1.99952758 1.95653201 0 2 C0 1.34 0 0.68 0 0 Z " fill="#D44042" transform="translate(654,391)"/>
<path d="M0 0 C3.0625 -0.625 3.0625 -0.625 7 0 C11.14218226 4.34929137 13.92881272 9.39263931 16 15 C16.66 15 17.32 15 18 15 C18.27457031 14.28457031 18.54914062 13.56914063 18.83203125 12.83203125 C20.72750638 8.23597951 22.77654707 3.82011916 26 0 C29.875 -0.625 29.875 -0.625 33 0 C31.94374411 3.0983506 30.61327355 5.6957584 28.765625 8.375 C28.35699219 8.96796875 27.94835937 9.5609375 27.52734375 10.171875 C26.67062405 11.39800594 25.80324809 12.61675484 24.92578125 13.828125 C22.48146034 17.33636618 22.48146034 17.33636618 22.4140625 21.453125 C24.58322546 24.93660837 26.79920033 28.36879543 29.125 31.75 C34 38.88119835 34 38.88119835 34 40 C28.90074274 40.60499662 28.90074274 40.60499662 26 40 C23.72622287 38.01561269 22.42860619 35.63351604 21 33 C20.60683594 32.33226562 20.21367188 31.66453125 19.80859375 30.9765625 C18.84590182 29.33294213 17.91926562 27.66829686 17 26 C16.52949219 26.67546875 16.05898438 27.3509375 15.57421875 28.046875 C14.64029297 29.38492188 14.64029297 29.38492188 13.6875 30.75 C13.07261719 31.63171875 12.45773437 32.5134375 11.82421875 33.421875 C11.22222656 34.27265625 10.62023437 35.1234375 10 36 C9.505 36.763125 9.01 37.52625 8.5 38.3125 C7 40 7 40 3.3125 40.25 C2.219375 40.1675 1.12625 40.085 0 40 C1.71060862 34.93433027 4.76087463 30.99737003 7.98632812 26.81640625 C9.76195606 24.38599765 10.97774249 22.62826883 11.0859375 19.57421875 C9.50197218 15.81942326 7.27956746 12.63391892 4.9375 9.3125 C0 2.24641883 0 2.24641883 0 0 Z " fill="#7E7D7C" transform="translate(750,717)"/>
<path d="M0 0 C2.64 0 5.28 0 8 0 C8 18.15 8 36.3 8 55 C5.36 55 2.72 55 0 55 C0 36.85 0 18.7 0 0 Z " fill="#858584" transform="translate(692,702)"/>
<path d="M0 0 C1.98 0 3.96 0 6 0 C6.33 1.32 6.66 2.64 7 4 C7.825 3.34 8.65 2.68 9.5 2 C13.34492481 -0.61234126 16.45655064 -0.31334134 21 0 C21 1.98 21 3.96 21 6 C19.96939453 6.19916016 19.96939453 6.19916016 18.91796875 6.40234375 C17.56638672 6.66724609 17.56638672 6.66724609 16.1875 6.9375 C14.84751953 7.19853516 14.84751953 7.19853516 13.48046875 7.46484375 C10.88602829 7.97741153 10.88602829 7.97741153 8 9 C8 19.23 8 29.46 8 40 C5.36 40 2.72 40 0 40 C0 26.8 0 13.6 0 0 Z " fill="#808080" transform="translate(623,716)"/>
<path d="M0 0 C7.83211228 7.83211228 5.39838785 28.34974896 5.4168396 38.45387268 C5.41146652 40.91846898 5.40531274 43.38306368 5.3984375 45.84765625 C5.40046437 48.43387433 5.40338088 51.02009184 5.40713501 53.60630798 C5.41153502 59.00639875 5.40550168 64.40632696 5.39111328 69.80639648 C5.37485188 75.97923623 5.38004218 82.1517775 5.3965925 88.32460982 C5.41205732 94.34152765 5.41015195 100.35830413 5.4014473 106.37524223 C5.3994737 108.89808636 5.40180213 111.42093832 5.40888596 113.94377327 C5.50122139 156.08201122 5.50122139 156.08201122 0 166 C-0.02696365 164.20841511 -0.04637917 162.41671527 -0.0625 160.625 C-0.07410156 159.62726563 -0.08570313 158.62953125 -0.09765625 157.6015625 C0 155 0 155 1 153 C1.14050071 151.38098275 1.22570321 149.75696516 1.28125 148.1328125 C1.31863281 147.16472656 1.35601563 146.19664062 1.39453125 145.19921875 C1.42933594 144.18472656 1.46414063 143.17023438 1.5 142.125 C1.56905684 140.12746699 1.64183084 138.1300582 1.71875 136.1328125 C1.74904297 135.24480957 1.77933594 134.35680664 1.81054688 133.44189453 C2 131 2 131 2.5030632 129.11621952 C3.02287011 126.90260697 3.13129363 124.96997829 3.14044189 122.69859314 C3.14615204 121.8454805 3.15186218 120.99236786 3.15774536 120.11340332 C3.15886322 119.18515747 3.15998108 118.25691162 3.16113281 117.30053711 C3.16609772 116.31610123 3.17106262 115.33166534 3.17617798 114.31739807 C3.19080078 111.0540395 3.19760631 107.79072974 3.203125 104.52734375 C3.20888191 102.24687195 3.21463957 99.96640014 3.22039795 97.68592834 C3.23091209 92.89339981 3.23675023 88.10088805 3.24023438 83.30834961 C3.24568157 77.2164656 3.26962623 71.12480936 3.29820633 65.03299618 C3.31699992 60.31327206 3.32204739 55.59360059 3.32357025 50.87384224 C3.32656618 48.63154434 3.33448888 46.38924666 3.34775543 44.14698601 C3.4158235 31.74406318 2.92370064 19.8967176 0.64471436 7.68678284 C0 4 0 4 0 0 Z " fill="#CC3C3F" transform="translate(779,348)"/>
<path d="M0 0 C0.35465783 3.07370117 0.49043943 5.93607196 0 9 C-3.28152489 12.44980821 -6.0736655 13.23176004 -10.6875 13.375 C-14.14629 13.31526269 -14.96589663 13.02273558 -18 11 C-18.40843923 8.28796348 -18.13336867 5.7562858 -18 3 C-12.27544841 -0.81636773 -6.70250505 -0.29282789 0 0 Z " fill="#F6F6F6" transform="translate(734,739)"/>
<path d="M0 0 C2.74497044 0.54991061 3.63070488 1.29638658 5.33984375 3.46875 C6.33984375 5.46875 6.33984375 5.46875 6.33984375 11.46875 C0.06984375 11.46875 -6.20015625 11.46875 -12.66015625 11.46875 C-11.13014207 2.28866493 -9.04714378 -0.10883782 0 0 Z " fill="#F4F4F4" transform="translate(669.66015625,721.53125)"/>
<path d="M0 0 C0 0.66 0 1.32 0 2 C-1.26220703 3.23657227 -1.26220703 3.23657227 -3.1328125 4.75390625 C-7.1656195 8.1815256 -10.90071675 11.8282172 -14.6171875 15.58984375 C-15.20445618 16.18278229 -15.79172485 16.77572083 -16.39678955 17.3866272 C-18.85301308 19.86994845 -21.30501585 22.35736402 -23.75292969 24.84887695 C-25.557546 26.68350719 -27.36818085 28.5120205 -29.1796875 30.33984375 C-29.73486053 30.90847641 -30.29003357 31.47710907 -30.86203003 32.06297302 C-32.20386707 33.41362049 -33.59754741 34.71240459 -35 36 C-35.66 36 -36.32 36 -37 36 C-37.24314941 36.5669458 -37.48629883 37.1338916 -37.73681641 37.71801758 C-40.32879379 42.40050938 -44.61066977 45.93709111 -48.375 49.6875 C-49.23867188 50.56728516 -50.10234375 51.44707031 -50.9921875 52.35351562 C-51.8275 53.18947266 -52.6628125 54.02542969 -53.5234375 54.88671875 C-54.28575684 55.65201904 -55.04807617 56.41731934 -55.83349609 57.20581055 C-58.04133827 59.03423427 -59.26777967 59.43165757 -62 60 C-56.4542419 53.24598175 -50.2876993 47.14213304 -44.109375 40.9765625 C-42.95674288 39.82325579 -41.80425916 38.66980076 -40.6519165 37.51620483 C-38.24970754 35.11252915 -35.845718 32.71065275 -33.44042969 30.31005859 C-30.35457378 27.22993163 -27.27327248 24.1452933 -24.19326401 21.05932045 C-21.82052786 18.68297832 -19.4454246 16.30901363 -17.06958771 13.93577194 C-15.93173028 12.79858202 -14.79461639 11.66064762 -13.65825653 10.52196121 C-12.07633148 8.93750559 -10.49125231 7.35627538 -8.90527344 5.77587891 C-8.00403748 4.87543854 -7.10280151 3.97499817 -6.17425537 3.04727173 C-2.93797421 0 -2.93797421 0 0 0 Z " fill="#515F9B" transform="translate(818,835)"/>
<path d="M0 0 C0.33 0 0.66 0 1 0 C1.02685412 2.31243792 1.04632841 4.6249627 1.0625 6.9375 C1.07410156 8.22527344 1.08570313 9.51304687 1.09765625 10.83984375 C1 14 1 14 0 15 C-0.10763675 16.4290161 -0.1468064 17.86326126 -0.15821838 19.29627991 C-0.1680072 20.22321152 -0.17779602 21.15014313 -0.18788147 22.10516357 C-0.19363693 23.13014954 -0.1993924 24.1551355 -0.20532227 25.21118164 C-0.21522186 26.28422043 -0.22512146 27.35725922 -0.23532104 28.46281433 C-0.26704374 32.02857212 -0.29173588 35.59434325 -0.31640625 39.16015625 C-0.33696649 41.62495785 -0.3579627 44.08975586 -0.37937927 46.55455017 C-0.43469605 53.05649915 -0.48406282 59.55848046 -0.53222656 66.06048584 C-0.5818404 72.68944549 -0.63809412 79.3183511 -0.69335938 85.94726562 C-0.80105837 98.9648032 -0.90266631 111.98238101 -1 125 C-1.33 125 -1.66 125 -2 125 C-2.04683182 110.17858557 -2.08204344 95.357181 -2.10362434 80.53570747 C-2.11391345 73.65301151 -2.12792825 66.77036166 -2.15087891 59.88769531 C-2.1730297 53.24169904 -2.18457957 46.59573797 -2.18975449 39.94970322 C-2.19344095 37.41807172 -2.20063966 34.88644275 -2.21146011 32.3548317 C-2.22604352 28.8004624 -2.22797506 25.24628908 -2.22705078 21.69189453 C-2.23783661 20.13282127 -2.23783661 20.13282127 -2.24884033 18.54225159 C-2.23089146 12.13539237 -1.50604751 6.22891236 0 0 Z " fill="#CE4546" transform="translate(242,356)"/>
<path d="M0 0 C1.98 0 3.96 0 6 0 C6 1.65 6 3.3 6 5 C5.67 4.01 5.34 3.02 5 2 C4.01 2 3.02 2 2 2 C2 14.54 2 27.08 2 40 C1.34 40 0.68 40 0 40 C0 26.8 0 13.6 0 0 Z " fill="#949594" transform="translate(623,716)"/>
<path d="M0 0 C0.33 0 0.66 0 1 0 C1.01981934 0.60360352 1.03963867 1.20720703 1.06005859 1.82910156 C1.06125093 20.34349822 1.06125093 20.34349822 5.6875 38 C7.09916277 41.22665775 7.01719864 41.83234786 6 45 C5.18025737 42.96123051 4.3695193 40.91883925 3.5625 38.875 C3.11003906 37.73804688 2.65757812 36.60109375 2.19140625 35.4296875 C-0.32543692 28.18447994 -0.33243428 20.78130139 -0.625 13.1875 C-0.6765625 12.03056641 -0.728125 10.87363281 -0.78125 9.68164062 C-0.82507813 8.58400391 -0.86890625 7.48636719 -0.9140625 6.35546875 C-0.9548291 5.35153076 -0.9955957 4.34759277 -1.03759766 3.31323242 C-1 1 -1 1 0 0 Z " fill="#C93335" transform="translate(342,331)"/>
<path d="M0 0 C1.12350861 0.03541649 1.12350861 0.03541649 2.26971436 0.07154846 C4.65397388 0.14791281 7.03788605 0.23205342 9.421875 0.31640625 C11.04164986 0.36965424 12.66144151 0.42239445 14.28125 0.47460938 C18.24501021 0.60349088 22.20847701 0.73934553 26.171875 0.87890625 C26.171875 1.20890625 26.171875 1.53890625 26.171875 1.87890625 C25.08656494 1.9039624 24.00125488 1.92901855 22.88305664 1.95483398 C18.870559 2.0487438 14.85824118 2.14900392 10.84594727 2.2512207 C9.10673212 2.29463198 7.36747265 2.33630237 5.62817383 2.3762207 C3.13349012 2.43377393 0.6390309 2.49751045 -1.85546875 2.5625 C-2.63776352 2.57921249 -3.42005829 2.59592499 -4.22605896 2.61314392 C-7.82684281 2.38539356 -7.82684281 2.38539356 -10.828125 3.87890625 C-12.49429615 3.91954457 -14.16200595 3.92162725 -15.828125 3.87890625 C-10.69511546 -0.33749444 -6.47318235 -0.24202983 0 0 Z " fill="#DC282C" transform="translate(373.828125,415.12109375)"/>
<path d="M0 0 C0.33 0 0.66 0 1 0 C1.20483028 7.99976044 1.13480153 15.26134446 -1 23 C-1.33 23 -1.66 23 -2 23 C-2.24923458 15.06603268 -1.70994772 7.7558343 0 0 Z " fill="#CE3C3E" transform="translate(681,342)"/>
<path d="M0 0 C0 3 0 3 -1.6796875 5.04296875 C-2.76636719 6.10451172 -2.76636719 6.10451172 -3.875 7.1875 C-4.59429687 7.90292969 -5.31359375 8.61835938 -6.0546875 9.35546875 C-8 11 -8 11 -10 11 C-10.66 12.32 -11.32 13.64 -12 15 C-12 10.09687565 -8.29800369 7.38658643 -5 4 C-3.37458956 2.61667196 -1.72614587 1.25537882 0 0 Z " fill="#CD2F31" transform="translate(264,320)"/>
<path d="M0 0 C0.33 0 0.66 0 1 0 C1.06058594 0.98742187 1.12117188 1.97484375 1.18359375 2.9921875 C1.26738281 4.27351562 1.35117187 5.55484375 1.4375 6.875 C1.51871094 8.15117188 1.59992188 9.42734375 1.68359375 10.7421875 C1.79206027 13.88300152 1.79206027 13.88300152 3 16 C3.06996014 17.70702735 3.08440154 19.41668003 3.0625 21.125 C3.05347656 22.03507813 3.04445313 22.94515625 3.03515625 23.8828125 C3.01775391 24.93082031 3.01775391 24.93082031 3 26 C0.78185014 21.8594536 -0.13119556 18.36737866 -0.09765625 13.671875 C-0.09282227 12.47304688 -0.09282227 12.47304688 -0.08789062 11.25 C-0.07951172 10.425 -0.07113281 9.6 -0.0625 8.75 C-0.05798828 7.90953125 -0.05347656 7.0690625 -0.04882812 6.203125 C-0.03707961 4.13538599 -0.01914522 2.06768376 0 0 Z " fill="#CE3C3F" transform="translate(342,523)"/>
<path d="M0 0 C0 3 0 3 -1.5 5.75 C-3.20037645 9.43414898 -3.24056634 11.99056094 -3 16 C-5.3756951 14.21822867 -5.95924634 13.19924012 -6.5625 10.25 C-5.76731186 5.65557964 -3.21784471 3.23699855 0 0 Z " fill="#EAAE47" transform="translate(888,717)"/>
<path d="M0 0 C0 0.66 0 1.32 0 2 C-0.99 2.33 -1.98 2.66 -3 3 C-4.37482707 4.63260714 -5.70647667 6.30225062 -7 8 C-8 9 -9 10 -10 11 C-10.33 11.66 -10.66 12.32 -11 13 C-11.66 13 -12.32 13 -13 13 C-11.56179563 7.72658399 -7.9961885 4.50608991 -4 1 C-2 0 -2 0 0 0 Z " fill="#CB3334" transform="translate(358,419)"/>
<path d="M0 0 C0.33 0 0.66 0 1 0 C1.09765625 6.15234375 1.09765625 6.15234375 1 8 C0.67 8.33 0.34 8.66 0 9 C-0.23192865 10.51469448 -0.41215238 12.03754562 -0.5625 13.5625 C-0.64628906 14.38878906 -0.73007812 15.21507812 -0.81640625 16.06640625 C-0.87699219 16.70449219 -0.93757813 17.34257812 -1 18 C-3.800791 13.7988135 -2.89098099 10.80639289 -2 6 C-1.3974699 3.97975201 -0.75679435 1.96766531 0 0 Z " fill="#CE3638" transform="translate(296,260)"/>
<path d="M0 0 C0.33 0.99 0.66 1.98 1 3 C0.43410156 3.48210937 -0.13179688 3.96421875 -0.71484375 4.4609375 C-1.44832031 5.09257812 -2.18179687 5.72421875 -2.9375 6.375 C-3.66839844 7.00148437 -4.39929688 7.62796875 -5.15234375 8.2734375 C-7.08380906 9.87747714 -7.08380906 9.87747714 -8 12 C-8.66 12 -9.32 12 -10 12 C-8.52278578 8.54798361 -6.56205999 6.35038064 -3.875 3.75 C-3.15054687 3.04359375 -2.42609375 2.3371875 -1.6796875 1.609375 C-1.12539063 1.07828125 -0.57109375 0.5471875 0 0 Z " fill="#CC3031" transform="translate(317,229)"/>
<path d="M0 0 C0 4.04141586 -1.75882509 6.24967578 -3.80859375 9.6484375 C-5.057753 12.11399116 -5.58183646 14.27953377 -6 17 C-7.13671875 15.31640625 -7.13671875 15.31640625 -8 13 C-7.20703125 10.52734375 -7.20703125 10.52734375 -5.8125 7.9375 C-5.36519531 7.08027344 -4.91789062 6.22304688 -4.45703125 5.33984375 C-3.13624689 3.21879863 -1.84808449 1.66273088 0 0 Z " fill="#CC3B3E" transform="translate(351,507)"/>
<path d="M0 0 C2.3125 1 2.3125 1 4 2 C4 2.66 4 3.32 4 4 C0.37 3.67 -3.26 3.34 -7 3 C-7 2.34 -7 1.68 -7 1 C-4.46130539 -0.26934731 -2.82098771 -0.20149912 0 0 Z " fill="#EEB147" transform="translate(886,863)"/>
<path d="M0 0 C3.06914388 2.76222949 4.94452279 4.96999611 6 9 C5.625 12.3125 5.625 12.3125 5 15 C4.67 15 4.34 15 4 15 C3.896875 13.96875 3.79375 12.9375 3.6875 11.875 C3.0068139 8.03840561 1.82222642 5.40677113 0 2 C0 1.34 0 0.68 0 0 Z " fill="#CC3B3E" transform="translate(675,511)"/>
<path d="M0 0 C0 0.33 0 0.66 0 1 C-2.05078125 1.22786458 -4.1015625 1.45572917 -6.15234375 1.68359375 C-8.01140229 1.81886614 -8.01140229 1.81886614 -9 3 C-10.66617115 3.04063832 -12.33388095 3.042721 -14 3 C-9.09727091 -1.02724175 -6.19287507 -1.26672445 0 0 Z " fill="#CE4144" transform="translate(372,416)"/>
<path d="M0 0 C0.33 0.99 0.66 1.98 1 3 C0.2884375 3.61875 0.2884375 3.61875 -0.4375 4.25 C-2.16266518 6.182185 -2.56584875 7.48192275 -3 10 C-3.66 9.34 -4.32 8.68 -5 8 C-4.74739753 4.21096292 -2.72150557 2.45813407 0 0 Z " fill="#FFFADB" transform="translate(752,967)"/>
<path d="M0 0 C4.21878192 -0.19622241 7.17010894 0.19769832 11 2 C11 2.66 11 3.32 11 4 C5.06 3.01 5.06 3.01 -1 2 C-0.67 1.34 -0.34 0.68 0 0 Z " fill="#CB3B3D" transform="translate(301,295)"/>
<path d="M0 0 C0.66 0 1.32 0 2 0 C2 0.66 2 1.32 2 2 C2.66 2 3.32 2 4 2 C4 2.66 4 3.32 4 4 C4.66 4 5.32 4 6 4 C6 4.66 6 5.32 6 6 C6.99 6.33 7.98 6.66 9 7 C8.34 7.66 7.68 8.32 7 9 C5.82737096 7.88121617 4.66204862 6.75476949 3.5 5.625 C2.8503125 4.99851562 2.200625 4.37203125 1.53125 3.7265625 C0 2 0 2 0 0 Z " fill="#EBB14B" transform="translate(709,959)"/>
<path d="M0 0 C0.33 0.99 0.66 1.98 1 3 C-0.1446875 3.8971875 -0.1446875 3.8971875 -1.3125 4.8125 C-3.3483575 6.46959332 -5.1978279 8.10297674 -7 10 C-5.6062718 5.56541027 -3.39417765 3.12621626 0 0 Z " fill="#C92F30" transform="translate(710,319)"/>
<path d="M0 0 C1.32 0.33 2.64 0.66 4 1 C4 1.66 4 2.32 4 3 C5.32 3.66 6.64 4.32 8 5 C7.67 5.99 7.34 6.98 7 8 C5.83035398 6.8572081 4.66435444 5.71068285 3.5 4.5625 C2.8503125 3.92441406 2.200625 3.28632812 1.53125 2.62890625 C0 1 0 1 0 0 Z " fill="#EAB251" transform="translate(917,766)"/>
<path d="M0 0 C0.66 0.33 1.32 0.66 2 1 C1.74438677 3.3431213 1.40729228 5.67843403 1 8 C0.01 8.495 0.01 8.495 -1 9 C-0.67 6.03 -0.34 3.06 0 0 Z " fill="#EAAF45" transform="translate(752,981)"/>
<path d="M0 0 C0.33 0 0.66 0 1 0 C1 3.3 1 6.6 1 10 C-0.32 9.67 -1.64 9.34 -3 9 C-2.34 8.67 -1.68 8.34 -1 8 C-0.53476937 6.10466658 -0.53476937 6.10466658 -0.375 3.9375 C-0.25125 2.638125 -0.1275 1.33875 0 0 Z " fill="#7A797A" transform="translate(306,594)"/>
</svg>
