<svg width="32" height="32" xmlns="http://www.w3.org/2000/svg" fill="none">

 <g>
  <title>Layer 1</title>
  <g stroke="null">
   <path stroke="null" d="m28.69566,28.65841c-0.29864,0.28684 -0.29864,0.75168 0,1.03852c0.29886,0.28662 0.78319,0.28662 1.08183,0c0.29886,-0.28684 0.29886,-0.75168 0,-1.03852c-0.29864,-0.28662 -0.78296,-0.28662 -1.08183,0zm0.80875,0.77687a0.3785,0.36328 0 0 1 -0.53568,0a0.37856,0.36333 0 0 1 0,-0.51396a0.3785,0.36328 0 0 1 0.53568,0c0.14789,0.14129 0.14789,0.37202 0,0.51396zm0.26044,-4.38968l-0.46879,0.44987a0.23738,0.22783 0 0 0 0,0.32099l1.83012,1.7565a0.23738,0.22783 0 0 0 0.33444,0l0.46873,-0.44993c0.09165,-0.08797 0.09165,-0.23281 0,-0.32071l-1.83092,-1.75677a0.23676,0.22723 0 0 0 -0.33359,0l0,0.00006zm-3.28419,5.74898a0.21421,0.2056 0 0 0 0,-0.29012l-0.23812,-0.22876a0.2145,0.20587 0 0 0 -0.30245,0l-0.49207,0.47255l-0.00091,0.00065l-0.13497,-0.12976c-0.07474,-0.07174 -0.19639,-0.07174 -0.2704,0c-0.07474,0.07168 -0.07474,0.18844 0,0.25952l0.81097,0.77813a0.19087,0.18319 0 0 0 0.27017,0c0.07401,-0.07174 0.07474,-0.18849 0,-0.2593l-0.1352,-0.12976l0.00091,-0.00066l0.49207,-0.47249zm0,0" fill="#f5a800"/>
   <path stroke="null" d="m28.96031,26.33725l-1.04135,0.9994c-0.0925,0.08879 -0.0925,0.23499 0,0.32377l0.64304,0.61701c0.4545,-0.31394 1.09184,-0.27509 1.50074,0.11763l0.52076,-0.49986c0.09233,-0.08878 0.09233,-0.23477 0,-0.32356l-1.28602,-1.23439a0.23824,0.22865 0 0 0 -0.33712,0l-0.00006,0zm-0.66871,2.20031l-0.37981,-0.36453c-0.08897,-0.08534 -0.23482,-0.08534 -0.32357,0l-1.33947,1.28614a0.22975,0.22051 0 0 0 0,0.31071l0.75888,0.72841a0.22975,0.22051 0 0 0 0.3238,0l0.86141,-0.82812c-0.18211,-0.36109 -0.14943,-0.79731 0.09877,-1.13261zm0,0" fill="#425cc7"/>
  </g>
  <g stroke="null" id="svg_4">
   <path stroke="null" id="svg_1" fill="#252F3E" d="m8.10364,12.95679c0,0.34455 0.03825,0.62402 0.10518,0.82884c0.0765,0.20491 0.17212,0.42841 0.30599,0.6706c0.04781,0.07447 0.06693,0.14903 0.06693,0.2142c0,0.09316 -0.05737,0.18631 -0.18168,0.27938l-0.60239,0.39122c-0.08606,0.05588 -0.17212,0.08377 -0.24861,0.08377c-0.09562,0 -0.19125,-0.04658 -0.28687,-0.13035c-0.13386,-0.13973 -0.24861,-0.28876 -0.34423,-0.43771c-0.09562,-0.15833 -0.19124,-0.33534 -0.29642,-0.54955c-0.74582,0.85682 -1.68289,1.28523 -2.81119,1.28523c-0.80319,0 -1.44384,-0.2235 -1.91238,-0.67051c-0.46852,-0.44709 -0.70757,-1.04313 -0.70757,-1.7882c0,-0.79165 0.28686,-1.43426 0.87013,-1.91855c0.58327,-0.48429 1.35778,-0.72639 2.34266,-0.72639c0.32511,0 0.65977,0.02789 1.01356,0.07447c0.35379,0.04658 0.71714,0.12105 1.09962,0.20491l0,-0.6799c0,-0.7078 -0.15299,-1.2014 -0.44941,-1.49011c-0.30598,-0.28871 -0.82232,-0.42842 -1.55858,-0.42842c-0.33467,0 -0.67889,0.03725 -1.03269,0.12108c-0.35379,0.08382 -0.69801,0.18627 -1.03268,0.31665c-0.15299,0.0652 -0.26774,0.10245 -0.33467,0.12108c-0.06694,0.01863 -0.11475,0.02794 -0.15299,0.02794c-0.13387,0 -0.20081,-0.09313 -0.20081,-0.28871l0,-0.45635c0,-0.14901 0.01913,-0.26077 0.06694,-0.32597c0.04781,-0.0652 0.13387,-0.13039 0.26773,-0.19558c0.33467,-0.16764 0.73627,-0.30734 1.2048,-0.4191c0.46852,-0.12107 0.96575,-0.17695 1.49165,-0.17695c1.13786,0 1.96974,0.25146 2.50521,0.75438c0.5259,0.50292 0.79364,1.26661 0.79364,2.29104l0,3.01756l0.01912,0zm-3.88212,1.41558c0.31555,0 0.64064,-0.05588 0.98488,-0.16763c0.34423,-0.11175 0.6502,-0.31666 0.90838,-0.59604c0.15299,-0.17693 0.26773,-0.37253 0.3251,-0.59604c0.05737,-0.2235 0.09562,-0.49358 0.09562,-0.81024l0,-0.39122c-0.2773,-0.06517 -0.57371,-0.12105 -0.87969,-0.15833c-0.30598,-0.03719 -0.6024,-0.05588 -0.89882,-0.05588c-0.64064,0 -1.10918,0.12114 -1.42472,0.37253c-0.31554,0.25148 -0.46852,0.60542 -0.46852,1.07103c0,0.4378 0.11474,0.76375 0.35379,0.98726c0.22949,0.2328 0.56415,0.34455 1.004,0.34455zm7.67814,1.00585c-0.17206,0 -0.2868,-0.02789 -0.36335,-0.09307c-0.07646,-0.05596 -0.1434,-0.18631 -0.20073,-0.36323l-2.24707,-7.19922c-0.05742,-0.18627 -0.08608,-0.30734 -0.08608,-0.37253c0,-0.14901 0.07655,-0.23284 0.22948,-0.23284l0.93705,0c0.18168,0 0.30603,0.02794 0.37297,0.09314c0.07646,0.05588 0.13388,0.18627 0.1912,0.36322l1.60643,6.16545l1.49161,-6.16545c0.0478,-0.18627 0.10522,-0.30734 0.18168,-0.36322c0.07655,-0.05588 0.21034,-0.09314 0.38249,-0.09314l0.76499,0c0.18168,0 0.30594,0.02794 0.3824,0.09314c0.07655,0.05588 0.14349,0.18627 0.18168,0.36322l1.51083,6.23993l1.65415,-6.23993c0.05741,-0.18627 0.12435,-0.30734 0.19129,-0.36322c0.07646,-0.05588 0.20082,-0.09314 0.37288,-0.09314l0.88925,0c0.15302,0 0.23909,0.07451 0.23909,0.23284c0,0.04657 -0.00961,0.09313 -0.01914,0.14901c-0.00953,0.05588 -0.02866,0.13038 -0.06694,0.23283l-2.30439,7.19921c-0.05742,0.18622 -0.12436,0.30736 -0.20082,0.36323c-0.07646,0.05588 -0.20082,0.09307 -0.36336,0.09307l-0.82231,0c-0.18168,0 -0.30603,-0.02789 -0.38249,-0.09307c-0.07646,-0.06517 -0.1434,-0.18631 -0.18168,-0.37253l-1.48208,-6.00712l-1.47256,5.99782c-0.0478,0.18622 -0.10513,0.30727 -0.18168,0.37253c-0.07646,0.06518 -0.21034,0.09307 -0.3824,0.09307l-0.8224,0zm12.28704,0.25149c-0.49723,0 -0.99446,-0.05588 -1.47256,-0.16763c-0.47809,-0.11175 -0.85097,-0.23289 -1.09959,-0.37253c-0.15302,-0.08386 -0.25814,-0.17692 -0.29642,-0.26078c-0.03828,-0.08386 -0.05733,-0.17693 -0.05733,-0.26078l0,-0.47499c0,-0.19552 0.07646,-0.28868 0.21986,-0.28868c0.05742,0 0.11474,0.0093 0.17216,0.02789c0.05732,0.01868 0.1434,0.05588 0.239,0.09316c0.32517,0.13973 0.67891,0.25148 1.05179,0.32596c0.38249,0.07456 0.75546,0.11175 1.13787,0.11175c0.60245,0 1.07093,-0.10245 1.3961,-0.30727c0.32508,-0.20491 0.49723,-0.50297 0.49723,-0.8848c0,-0.26078 -0.08608,-0.47499 -0.25823,-0.65191c-0.17207,-0.17701 -0.49723,-0.33534 -0.96571,-0.48429l-1.38648,-0.41911c-0.69805,-0.21421 -1.21433,-0.53086 -1.52988,-0.94998c-0.31556,-0.40981 -0.47809,-0.86612 -0.47809,-1.35043c0,-0.39116 0.08608,-0.73575 0.25814,-1.03378c0.17215,-0.29803 0.40163,-0.55879 0.68843,-0.76369c0.28689,-0.21421 0.61197,-0.37253 0.99446,-0.48429c0.38249,-0.11175 0.78403,-0.15832 1.2048,-0.15832c0.21034,0 0.4303,0.00932 0.64063,0.03725c0.21995,0.02794 0.42077,0.06519 0.6215,0.10245c0.19129,0.04657 0.37297,0.09313 0.54503,0.14901c0.17215,0.05588 0.30603,0.11176 0.40163,0.16764c0.13388,0.07451 0.22948,0.14901 0.28689,0.23284c0.05732,0.07451 0.08599,0.17695 0.08599,0.30734l0,0.43773c0,0.19557 -0.07646,0.29802 -0.21986,0.29802c-0.07655,0 -0.20082,-0.03725 -0.36336,-0.11176c-0.54503,-0.24214 -1.157,-0.36322 -1.83591,-0.36322c-0.54503,0 -0.97533,0.08382 -1.27174,0.26077c-0.29642,0.17695 -0.44943,0.44704 -0.44943,0.82889c0,0.26077 0.09569,0.48429 0.28689,0.66121c0.1912,0.17701 0.54503,0.35394 1.05179,0.51227l1.35782,0.41911c0.68843,0.2142 1.18567,0.51218 1.48208,0.8941c0.29642,0.38183 0.43982,0.81954 0.43982,1.30383c0,0.40043 -0.08599,0.76367 -0.24862,1.08032c-0.17206,0.31666 -0.40154,0.59604 -0.69796,0.81963c-0.29642,0.2328 -0.65025,0.40043 -1.0614,0.52148c-0.43029,0.13043 -0.87973,0.19561 -1.36734,0.19561z"/>
   <path stroke="null" id="svg_2" fill="#FF9900" d="m25.99368,20.15653c-3.14584,2.26319 -7.71644,3.46456 -11.64632,3.46456c-5.50766,0 -10.47028,-1.98372 -14.21853,-5.28066c-0.29642,-0.26069 -0.02869,-0.61463 0.32511,-0.40973c4.05423,2.29109 9.05508,3.67877 14.22803,3.67877c3.49015,0 7.32442,-0.70788 10.85276,-2.16074c0.52589,-0.2328 0.97532,0.33526 0.45896,0.70779z" clip-rule="evenodd" fill-rule="evenodd"/>
   <path stroke="null" id="svg_3" fill="#FF9900" d="m27.30379,18.70358c-0.40163,-0.50288 -2.65822,-0.2421 -3.68135,-0.12105c-0.30594,0.03728 -0.35374,-0.22351 -0.07646,-0.41912c1.79764,-1.22935 4.75219,-0.87542 5.09649,-0.46569c0.34422,0.41912 -0.09569,3.29694 -1.77859,4.67533c-0.25814,0.2142 -0.50676,0.10245 -0.39202,-0.17693c0.38249,-0.92208 1.23347,-2.99896 0.83192,-3.49255z" clip-rule="evenodd" fill-rule="evenodd"/>
  </g>
 </g>
</svg>