<svg width="50" height="50" xmlns="http://www.w3.org/2000/svg">

 <title>Amazon-VPC_Flow-Logs_light-bg</title>
 <g>
  <title>Layer 1</title>
  <g stroke="null" id="Working">
   <path stroke="null" id="svg_1" fill="#693cc5" d="m20.7672,40.03439a19.2672,19.2672 0 1 1 19.2672,-19.2672a19.28359,19.28359 0 0 1 -19.2672,19.2672zm0,-36.89463a17.62744,17.62744 0 1 0 17.62743,17.62744a17.64383,17.64383 0 0 0 -17.62743,-17.62744z" class="cls-1"/>
   <path stroke="null" id="svg_2" fill="#693cc5" d="m29.27756,18.46333l-1.63976,0l0,-8.40378l-14.50369,0l0,8.40378l-1.63976,0l0,-9.22366a0.81988,0.81988 0 0 1 0.81988,-0.81988l16.14345,0a0.81988,0.81988 0 0 1 0.81988,0.81988l0,9.22366z" class="cls-1"/>
   <path stroke="null" id="svg_3" fill="#693cc5" d="m28.45768,33.1146l-16.14345,0a0.81988,0.81988 0 0 1 -0.81988,-0.81988l0,-9.22366l1.63976,0l0,8.40378l14.50369,0l0,-8.40378l1.63976,0l0,9.22366a0.81988,0.81988 0 0 1 -0.81988,0.81988z" class="cls-1"/>
   <rect stroke="null" id="svg_4" fill="#693cc5" height="1.63976" width="11.52752" y="12.26503" x="14.61809" class="cls-1"/>
   <rect stroke="null" id="svg_5" fill="#693cc5" height="1.63976" width="11.52752" y="16.10208" x="14.61809" class="cls-1"/>
   <rect stroke="null" id="svg_6" fill="#693cc5" height="1.63976" width="11.52752" y="23.79256" x="14.61809" class="cls-1"/>
   <rect stroke="null" id="svg_7" fill="#693cc5" height="1.63976" width="11.52752" y="27.6378" x="14.61809" class="cls-1"/>
   <rect stroke="null" id="svg_8" fill="#693cc5" height="1.63976" width="29.97484" y="19.94732" x="6.16512" class="cls-1"/>
   <path stroke="null" id="svg_9" fill="#693cc5" d="m32.87683,25.18635l-1.15603,-1.13964l3.27952,-3.27952l-3.27952,-3.27952l1.15603,-1.15603l3.84524,3.83704a0.81988,0.81988 0 0 1 0,1.16423l-3.84524,3.85344z" class="cls-1"/>
  </g>
  <g stroke="null">
   <path stroke="null" d="m41.56706,41.88636c-0.74962,0.72178 -0.74962,1.89147 0,2.61325c0.75019,0.72123 1.96593,0.72123 2.71555,0c0.75019,-0.72178 0.75019,-1.89147 0,-2.61325c-0.74962,-0.72123 -1.96536,-0.72123 -2.71555,0zm2.03009,1.95485a0.9501,0.91411 0 0 1 -1.34463,0a0.95024,0.91425 0 0 1 0,-1.29329a0.9501,0.91411 0 0 1 1.34463,0c0.37124,0.35553 0.37124,0.93611 0,1.29329zm0.65374,-11.0458l-1.17673,1.13202a0.59587,0.5733 0 0 0 0,0.8077l4.59389,4.41989a0.59587,0.5733 0 0 0 0.8395,0l1.17659,-1.13216c0.23006,-0.22134 0.23006,-0.58581 0,-0.80701l-4.59589,-4.42057a0.59429,0.57178 0 0 0 -0.83736,0l0,0.00014zm-8.24382,14.4662a0.53771,0.51734 0 0 0 0,-0.73003l-0.59772,-0.57563a0.53842,0.51803 0 0 0 -0.75919,0l-1.23517,1.18907l-0.00229,0.00165l-0.3388,-0.32652c-0.18762,-0.18051 -0.49298,-0.18051 -0.67875,0c-0.18762,0.18038 -0.18762,0.47417 0,0.65304l2.03566,1.95801a0.47912,0.46097 0 0 0 0.67817,0c0.18576,-0.18052 0.18762,-0.47432 0,-0.65249l-0.33937,-0.32652l0.00229,-0.00165l1.23517,-1.18894zm0,0" fill="#f5a800"/>
   <path stroke="null" d="m42.23137,36.0456l-2.61395,2.51481c-0.2322,0.2234 -0.2322,0.5913 0,0.81471l1.61413,1.55258c1.14087,-0.78997 2.7407,-0.69222 3.76711,0.296l1.30719,-1.25782c0.23177,-0.22341 0.23177,-0.59076 0,-0.81417l-3.22811,-3.10611a0.59801,0.57536 0 0 0 -0.84622,0l-0.00014,0zm-1.67857,5.53665l-0.95339,-0.91728c-0.22334,-0.21474 -0.58944,-0.21474 -0.81221,0l-3.36229,3.23631a0.57672,0.55487 0 0 0 0,0.78186l1.90492,1.8329a0.57672,0.55487 0 0 0 0.81278,0l2.16227,-2.08381c-0.45712,-0.90862 -0.3751,-2.00626 0.24792,-2.84999zm0,0" fill="#425cc7"/>
  </g>
 </g>
</svg>