<svg xmlns="http://www.w3.org/2000/svg" width="2501" height="2501" viewBox="0 0 2501 2501" version="1.1"><path d="M 1552.258 707.576 C 1491.357 714.954, 1436.554 745.833, 1397.248 794.916 L 1395.314 797.331 1379.907 790.724 C 1309.394 760.485, 1237.747 746.517, 1162.500 748.340 C 1109.377 749.627, 1064.144 757.245, 1015 773.182 C 913.223 806.187, 823.564 870.280, 758.558 956.500 C 715.278 1013.904, 684.268 1079.238, 667.032 1149.332 C 656.084 1193.854, 651.730 1230.491, 651.802 1277.500 C 651.860 1315.566, 654.982 1347.373, 662.091 1382.337 C 687.629 1507.925, 757.085 1619.374, 858.500 1697.493 C 929.181 1751.937, 1012.644 1787.193, 1101 1799.927 C 1128.179 1803.844, 1138.867 1804.499, 1175 1804.461 C 1212.874 1804.420, 1226.112 1803.454, 1256.687 1798.495 C 1478.449 1762.526, 1653.912 1585.618, 1690.004 1361.608 C 1701.964 1287.377, 1697.837 1207.737, 1678.390 1137.516 C 1675.068 1125.518, 1674.925 1124.455, 1676.506 1123.516 C 1727.289 1093.367, 1762.209 1051.570, 1780.950 998.500 C 1787.854 978.951, 1792.434 956.014, 1793.618 935.062 L 1794.279 923.370 1773.890 922.314 C 1762.675 921.733, 1753.432 921.312, 1753.349 921.379 C 1753.266 921.445, 1752.675 927.350, 1752.036 934.500 C 1749.237 965.808, 1741.286 991.420, 1726.640 1016.305 C 1712.157 1040.914, 1691.225 1063.044, 1668.127 1078.166 L 1660.755 1082.993 1653.334 1065.748 C 1626.509 1003.409, 1589.868 949.703, 1540.563 900.460 C 1509.683 869.618, 1479.952 846.169, 1442.407 823.044 L 1432.866 817.167 1443.016 806.629 C 1460.264 788.722, 1474.874 778.020, 1496.500 767.453 C 1519.158 756.382, 1539.307 750.943, 1565.142 748.926 C 1573.039 748.310, 1579.654 747.657, 1579.843 747.477 C 1580.202 747.132, 1576.334 713.493, 1575.389 708.750 C 1574.865 706.121, 1574.591 706.005, 1569.171 706.107 C 1566.052 706.166, 1558.441 706.827, 1552.258 707.576 M 1148.500 790.686 C 1145.200 790.855, 1135.528 791.687, 1127.006 792.533 C 980.169 807.125, 848.206 890.385, 768.849 1018.507 C 749.868 1049.151, 729.964 1092.314, 719.048 1126.500 C 693.841 1205.447, 689.139 1291.703, 705.557 1374 C 729.063 1491.825, 796.512 1598.450, 892.500 1669.525 C 1001.069 1749.916, 1136.982 1780.257, 1268.602 1753.484 C 1356.708 1735.563, 1438.779 1691.828, 1504.597 1627.724 C 1577.340 1556.875, 1626.403 1465.018, 1644.391 1366 C 1649.976 1335.255, 1651.979 1311.630, 1651.979 1276.500 C 1651.979 1241.344, 1649.969 1217.658, 1644.384 1187 C 1641.780 1172.706, 1635.292 1145.091, 1634.076 1143.123 C 1633.543 1142.261, 1630.872 1142.612, 1623.927 1144.457 C 1599.312 1150.993, 1566.138 1153.702, 1542.932 1151.071 C 1476.600 1143.549, 1420.259 1109.640, 1384.268 1055.578 C 1366.511 1028.905, 1354.090 994.609, 1350.026 961.026 C 1348.705 950.113, 1348.705 920.887, 1350.026 909.974 C 1352.650 888.293, 1358.041 867.953, 1366.667 847.183 C 1369.709 839.858, 1372.041 833.716, 1371.849 833.533 C 1371.147 832.865, 1349.223 823.708, 1339.500 820.022 C 1280.768 797.753, 1213.163 787.369, 1148.500 790.686 M 1407.600 858.803 C 1403.797 866.307, 1398.406 882.636, 1395.610 895.117 C 1383.418 949.548, 1396.780 1005.362, 1432.130 1047.661 C 1456.884 1077.281, 1494.136 1098.738, 1533.758 1106.197 C 1543.347 1108.002, 1549.168 1108.413, 1565.500 1108.438 C 1577.254 1108.456, 1588.592 1107.944, 1593 1107.196 C 1602.874 1105.520, 1617.156 1102.155, 1618.833 1101.110 C 1620.515 1100.062, 1615.311 1086.938, 1603.525 1062.500 C 1579.502 1012.689, 1549.638 970.660, 1510.027 930.913 C 1490.960 911.780, 1477.792 900.181, 1459.389 886.311 C 1443.782 874.547, 1412.809 854, 1410.683 854 C 1410.326 854, 1408.939 856.161, 1407.600 858.803" stroke="none" fill="#fbfbfb" fill-rule="evenodd"/><path d="M 2133.679 276.038 C 2112.896 278.507, 2092.008 290.058, 2079.044 306.254 C 2073.151 313.614, 2065.753 328.040, 2063.532 336.500 C 2061.214 345.326, 2060.474 361.434, 2061.960 370.688 C 2065.632 393.547, 2079.050 414.239, 2098.384 426.861 C 2129.910 447.441, 2172.018 443.814, 2199.194 418.178 C 2211.438 406.628, 2218.842 394.344, 2223.109 378.500 C 2226.431 366.165, 2226.203 347.572, 2222.582 335.500 C 2216.606 315.578, 2205.210 300.136, 2188.209 288.922 C 2172.509 278.568, 2152.396 273.815, 2133.679 276.038 M 275.463 337.250 C 275.202 337.938, 275.104 763.075, 275.245 1282 L 275.500 2225.500 1219.750 2225.751 L 2164 2226.001 2164 1349.711 L 2164 473.421 2155.250 474.373 C 2138.774 476.166, 2113.668 472.161, 2097.046 465.088 C 2072.243 454.533, 2050.585 434.200, 2038.559 410.180 C 2030.472 394.029, 2026.571 373.901, 2027.175 351.442 L 2027.590 336 1151.763 336 C 452.022 336, 275.842 336.251, 275.463 337.250 M 1552.258 707.576 C 1491.357 714.954, 1436.554 745.833, 1397.248 794.916 L 1395.314 797.331 1379.907 790.724 C 1309.394 760.485, 1237.747 746.517, 1162.500 748.340 C 1109.377 749.627, 1064.144 757.245, 1015 773.182 C 913.223 806.187, 823.564 870.280, 758.558 956.500 C 715.278 1013.904, 684.268 1079.238, 667.032 1149.332 C 656.084 1193.854, 651.730 1230.491, 651.802 1277.500 C 651.860 1315.566, 654.982 1347.373, 662.091 1382.337 C 687.629 1507.925, 757.085 1619.374, 858.500 1697.493 C 929.181 1751.937, 1012.644 1787.193, 1101 1799.927 C 1128.179 1803.844, 1138.867 1804.499, 1175 1804.461 C 1212.874 1804.420, 1226.112 1803.454, 1256.687 1798.495 C 1478.449 1762.526, 1653.912 1585.618, 1690.004 1361.608 C 1701.964 1287.377, 1697.837 1207.737, 1678.390 1137.516 C 1675.068 1125.518, 1674.925 1124.455, 1676.506 1123.516 C 1727.289 1093.367, 1762.209 1051.570, 1780.950 998.500 C 1787.854 978.951, 1792.434 956.014, 1793.618 935.062 L 1794.279 923.370 1773.890 922.314 C 1762.675 921.733, 1753.432 921.312, 1753.349 921.379 C 1753.266 921.445, 1752.675 927.350, 1752.036 934.500 C 1749.237 965.808, 1741.286 991.420, 1726.640 1016.305 C 1712.157 1040.914, 1691.225 1063.044, 1668.127 1078.166 L 1660.755 1082.993 1653.334 1065.748 C 1626.509 1003.409, 1589.868 949.703, 1540.563 900.460 C 1509.683 869.618, 1479.952 846.169, 1442.407 823.044 L 1432.866 817.167 1443.016 806.629 C 1460.264 788.722, 1474.874 778.020, 1496.500 767.453 C 1519.158 756.382, 1539.307 750.943, 1565.142 748.926 C 1573.039 748.310, 1579.654 747.657, 1579.843 747.477 C 1580.202 747.132, 1576.334 713.493, 1575.389 708.750 C 1574.865 706.121, 1574.591 706.005, 1569.171 706.107 C 1566.052 706.166, 1558.441 706.827, 1552.258 707.576 M 1148.500 790.686 C 1145.200 790.855, 1135.528 791.687, 1127.006 792.533 C 980.169 807.125, 848.206 890.385, 768.849 1018.507 C 749.868 1049.151, 729.964 1092.314, 719.048 1126.500 C 693.841 1205.447, 689.139 1291.703, 705.557 1374 C 729.063 1491.825, 796.512 1598.450, 892.500 1669.525 C 1001.069 1749.916, 1136.982 1780.257, 1268.602 1753.484 C 1356.708 1735.563, 1438.779 1691.828, 1504.597 1627.724 C 1577.340 1556.875, 1626.403 1465.018, 1644.391 1366 C 1649.976 1335.255, 1651.979 1311.630, 1651.979 1276.500 C 1651.979 1241.344, 1649.969 1217.658, 1644.384 1187 C 1641.780 1172.706, 1635.292 1145.091, 1634.076 1143.123 C 1633.543 1142.261, 1630.872 1142.612, 1623.927 1144.457 C 1599.312 1150.993, 1566.138 1153.702, 1542.932 1151.071 C 1476.600 1143.549, 1420.259 1109.640, 1384.268 1055.578 C 1366.511 1028.905, 1354.090 994.609, 1350.026 961.026 C 1348.705 950.113, 1348.705 920.887, 1350.026 909.974 C 1352.650 888.293, 1358.041 867.953, 1366.667 847.183 C 1369.709 839.858, 1372.041 833.716, 1371.849 833.533 C 1371.147 832.865, 1349.223 823.708, 1339.500 820.022 C 1280.768 797.753, 1213.163 787.369, 1148.500 790.686 M 1407.600 858.803 C 1403.797 866.307, 1398.406 882.636, 1395.610 895.117 C 1383.418 949.548, 1396.780 1005.362, 1432.130 1047.661 C 1456.884 1077.281, 1494.136 1098.738, 1533.758 1106.197 C 1543.347 1108.002, 1549.168 1108.413, 1565.500 1108.438 C 1577.254 1108.456, 1588.592 1107.944, 1593 1107.196 C 1602.874 1105.520, 1617.156 1102.155, 1618.833 1101.110 C 1620.515 1100.062, 1615.311 1086.938, 1603.525 1062.500 C 1579.502 1012.689, 1549.638 970.660, 1510.027 930.913 C 1490.960 911.780, 1477.792 900.181, 1459.389 886.311 C 1443.782 874.547, 1412.809 854, 1410.683 854 C 1410.326 854, 1408.939 856.161, 1407.600 858.803" stroke="none" fill="#4cc474" fill-rule="evenodd"/></svg>