<svg width="256" height="256" viewBox="0 0 256 256" fill="none" xmlns="http://www.w3.org/2000/svg">
<path d="M128.5 154.487L24 101V199.368L128.5 256L233 199.368V101L128.5 154.487L128.5 172.665L218.071 125.402V190.817L128.5 239.358L38.9286 190.817V125.402L128.5 172.665L128.5 154.487Z" fill="#535766"/>
<path d="M95.9958 123.443L127.996 141.18L159.996 123.443L159.996 108.85L127.996 126.587L95.9958 108.849L95.9958 123.443Z" fill="#00BFB3"/>
<path d="M95.9962 97.4891L127.996 115.226L159.996 97.4892L159.996 82.8954L127.996 100.632L95.9962 82.8953L95.9962 97.4891Z" fill="#00BFB3"/>
<path fill-rule="evenodd" clip-rule="evenodd" d="M127.996 74.0501L153.43 59.2681L153.43 30.0039L127.996 15.2218L102.562 30.0039L102.562 59.2681L127.996 74.0501ZM89.5961 66.954L127.996 89.2719L166.396 66.954L166.396 22.318L127.996 9.05302e-06L89.5961 22.318L89.5961 66.954Z" fill="#00BFB3"/>
<rect x="121" y="160" width="15" height="84" fill="#535766"/>
<path fill-rule="evenodd" clip-rule="evenodd" d="M68.3632 75L23.4622 99.8319V199.714L38.4293 194.328L38.4292 175.771V108.581L68.3632 92.0261V75ZM188.099 92.0263L218.033 108.581L218.033 110.47V194.328L233 199.714V99.8319L188.099 75.0002V92.0263Z" fill="#535766"/>
</svg>
