<svg width="256" height="256" viewBox="0 0 256 256" fill="none" xmlns="http://www.w3.org/2000/svg">
<path d="M128 150.544L50 111V196.333L128 239L206 196.333V111L128 150.544L128 164.239L194.857 128.631V189.891L128 226.462L61.1429 189.891V128.631L128 164.239L128 150.544Z" fill="#535766"/>
<path d="M100.25 124.048L128 139.43L155.75 124.049L155.75 111.393L128 126.774L100.25 111.393L100.25 124.048Z" fill="#00BFB3"/>
<path d="M100.25 101.541L128 116.923L155.75 101.541L155.75 88.8859L128 104.267L100.25 88.8858L100.25 101.541Z" fill="#00BFB3"/>
<path fill-rule="evenodd" clip-rule="evenodd" d="M128 81.2153L150.056 68.3965L150.056 43.019L128 30.2002L105.944 43.019L105.944 68.3965L128 81.2153ZM94.6999 75.0616L128 94.4155L161.3 75.0616L161.3 36.3539L128 17L94.6999 36.3539L94.6999 75.0616Z" fill="#00BFB3"/>
<rect x="122" y="156" width="12" height="77" fill="#535766"/>
<path fill-rule="evenodd" clip-rule="evenodd" d="M83.6001 90.1696L50.3 108.627V194.763L61.4 189.06V116.534L61.4 115.13L83.6001 102.825V90.1696ZM172.4 102.825L194.6 115.13V116.534V176.966V189.06L205.7 194.763V108.627L172.4 90.1697V102.825Z" fill="#535766"/>
</svg>
