<svg width="50" height="50" xmlns="http://www.w3.org/2000/svg">
 <title>Amazon-VPC_Flow-Logs_light-bg</title>

 <g>
  <title>Layer 1</title>
  <g stroke="null" id="svg_10">
   <path stroke="null" d="m41.56706,41.88636c-0.74962,0.72178 -0.74962,1.89147 0,2.61325c0.75019,0.72123 1.96593,0.72123 2.71555,0c0.75019,-0.72178 0.75019,-1.89147 0,-2.61325c-0.74962,-0.72123 -1.96536,-0.72123 -2.71555,0zm2.03009,1.95485a0.9501,0.91411 0 0 1 -1.34463,0a0.95024,0.91425 0 0 1 0,-1.29329a0.9501,0.91411 0 0 1 1.34463,0c0.37124,0.35553 0.37124,0.93611 0,1.29329zm0.65374,-11.0458l-1.17673,1.13202a0.59587,0.5733 0 0 0 0,0.8077l4.59389,4.41989a0.59587,0.5733 0 0 0 0.8395,0l1.17659,-1.13216c0.23006,-0.22134 0.23006,-0.58581 0,-0.80701l-4.59589,-4.42057a0.59429,0.57178 0 0 0 -0.83736,0l0,0.00014l0,-0.00001zm-8.24382,14.4662a0.53771,0.51734 0 0 0 0,-0.73003l-0.59772,-0.57563a0.53842,0.51803 0 0 0 -0.75919,0l-1.23517,1.18907l-0.00229,0.00165l-0.3388,-0.32652c-0.18762,-0.18051 -0.49298,-0.18051 -0.67875,0c-0.18762,0.18038 -0.18762,0.47417 0,0.65304l2.03566,1.95801a0.47912,0.46097 0 0 0 0.67817,0c0.18576,-0.18052 0.18762,-0.47432 0,-0.65249l-0.33937,-0.32652l0.00229,-0.00165l1.23517,-1.18894l0,0.00001zm0,0" fill="#f5a800" id="svg_11"/>
   <path stroke="null" d="m42.23137,36.0456l-2.61395,2.51481c-0.2322,0.2234 -0.2322,0.5913 0,0.81471l1.61413,1.55258c1.14087,-0.78997 2.7407,-0.69222 3.76711,0.296l1.30719,-1.25782c0.23177,-0.22341 0.23177,-0.59076 0,-0.81417l-3.22811,-3.10611a0.59801,0.57536 0 0 0 -0.84622,0l-0.00014,0l-0.00001,0zm-1.67857,5.53665l-0.95339,-0.91728c-0.22334,-0.21474 -0.58944,-0.21474 -0.81221,0l-3.36229,3.23631a0.57672,0.55487 0 0 0 0,0.78186l1.90492,1.8329a0.57672,0.55487 0 0 0 0.81278,0l2.16227,-2.08381c-0.45712,-0.90862 -0.3751,-2.00626 0.24792,-2.84999l0,0.00001zm0,0" fill="#425cc7" id="svg_12"/>
  </g>
  <g stroke="null">
   <path stroke="null" fill="#B6C99C" d="m4.96145,21.9398l0.11548,0.06567l1.81603,0.22253l2.28088,-0.13665l0.10036,-0.05683l-2.02436,-0.18957l-2.28838,0.09472l0,0.00013z"/>
   <path stroke="null" fill="#4C612C" d="m19.968,0.13287l-6.33698,3.4132l0,21.91264l6.33698,1.25257l0.21689,-0.31573l0,-25.70067l-0.21689,-0.56188l0,-0.00013z"/>
   <path stroke="null" fill="#769B3F" d="m19.968,0.13287l0,27.49404l6.3371,-2.0385l0,-22.04234l-6.3371,-3.4132z"/>
   <path stroke="null" fill="#B6C99C" d="m30.6618,22.03452l0.10809,0.07868l2.26728,0.13564l1.83549,-0.22467l0.10188,-0.08449l-2.2885,-0.09472l-2.02424,0.18957z"/>
   <path stroke="null" fill="#4C612C" d="m30.6618,26.58562l2.37642,0.33177l0.06366,-0.12604l0,-4.4704l-0.06366,-0.1441l-2.37642,-0.14221l0,4.55098z"/>
   <path stroke="null" fill="#769B3F" d="m9.2742,26.58562l-2.37643,0.33177l-0.0401,-0.11682l0,-4.54668l0.0401,-0.07704l2.37643,-0.14221l0,4.55098z"/>
   <path stroke="null" fill="#B6C99C" d="m19.70398,26.39593l-10.51783,-1.99101l-2.2885,0.23693l0.10423,0.11253l9.99143,2.18045l0.11419,-0.06479l2.59648,-0.47411z"/>
   <path stroke="null" fill="#4C612C" d="m4.96145,24.21535l0,6.87389l10.51783,5.68155l0,0.00695l4.48872,2.41789l0.18758,-0.37914l0,-15.00996l-0.18758,-0.47309l-4.48872,-0.47398l0,3.64836l-8.58151,-1.8704l0,-2.46057l-1.93631,-0.23705l0,2.27555z"/>
   <path stroke="null" fill="#B6C99C" d="m19.968,26.44329l2.5524,0.4741l0.32874,0.0149l9.9987,-2.16327l0.1904,-0.12718l-2.24442,-0.23705l-10.82581,2.0385z"/>
   <path stroke="null" fill="#769B3F" d="m33.03823,22.17673l0,2.46057l-8.5814,1.87053l0,-3.80964l-4.48883,0.47411l0,16.02333l15.00654,-8.10652l0,-9.14944l-1.93631,0.23705z"/>
   <path stroke="null" fill="#B6C99C" d="m24.45671,23.07745l-4.48871,-0.37926l-4.48883,0.37926l4.48883,0.47423l4.48871,-0.4741l0,-0.00012z"/>
  </g>
 </g>
</svg>