<?xml version="1.0" encoding="UTF-8"?>
<svg version="1.1" xmlns="http://www.w3.org/2000/svg" width="600" height="600">
<path d="M0 0 C198 0 396 0 600 0 C600 198 600 396 600 600 C402 600 204 600 0 600 C0 402 0 204 0 0 Z " fill="#FDFEFE" transform="translate(0,0)"/>
<path d="M0 0 C4.65907666 2.36477504 7.85498404 5.11085617 11.03688717 9.2194252 C12.63363496 11.11352943 14.28300918 12.62182335 16.17933655 14.21185303 C21.32226867 18.64700525 26.09330548 23.4261554 30.89233398 28.22753906 C31.89660818 29.2288146 32.90108484 30.22988712 33.90574646 31.23077393 C36.61014677 33.92641127 39.31136346 36.62521636 42.01170611 39.32491779 C43.70036656 41.01286443 45.3897383 42.70009581 47.07936287 44.38707733 C52.97689716 50.27539044 58.87187369 56.16625004 64.7644043 62.05957031 C70.2551616 67.5509306 75.75149759 73.03666342 81.25042194 78.51984429 C85.97938804 83.23575328 90.7045096 87.9554908 95.42663151 92.67825294 C98.24394809 95.49582464 101.06280049 98.31181692 103.88552666 101.12397003 C106.53378085 103.76257175 109.1772297 106.4058932 111.81701088 109.05297089 C112.7872192 110.02422794 113.75914592 110.99377186 114.73288727 111.96148682 C116.05919248 113.2801116 117.37877863 114.60548444 118.69798279 115.93121338 C119.43885352 116.67153934 120.17972425 117.41186531 120.94304562 118.1746254 C122.63671875 120.1171875 122.63671875 120.1171875 123.63671875 123.1171875 C124.29671875 123.4471875 124.95671875 123.7771875 125.63671875 124.1171875 C126.49767504 139.15522403 126.49767504 139.15522403 123.51171875 142.7421875 C122.03474568 143.96229569 120.55742606 145.18200928 119.07421875 146.39453125 C115.76248296 149.11843394 113.76555675 151.41486054 111.63671875 155.1171875 C110.01833156 156.83077393 108.34000194 158.4879601 106.63671875 160.1171875 C105.133989 161.61445278 103.63422913 163.114702 102.13671875 164.6171875 C76.63671875 190.1171875 51.13671875 215.6171875 25.63671875 241.1171875 C24.87617188 241.87902344 24.115625 242.64085937 23.33203125 243.42578125 C21.3630038 245.39195503 19.3890656 247.35242379 17.41015625 249.30859375 C16.2773121 250.43225976 15.14450004 251.55595812 14.01171875 252.6796875 C13.439375 253.24365234 12.86703125 253.80761719 12.27734375 254.38867188 C9.98224978 256.67042227 7.83960001 258.83973117 5.92578125 261.45703125 C4.63671875 263.1171875 4.63671875 263.1171875 1.63671875 264.1171875 C-0.75307809 264.34114236 -3.15182736 264.47528381 -5.55078125 264.5546875 C-6.82308594 264.61527344 -8.09539062 264.67585938 -9.40625 264.73828125 C-18.7939919 264.02357343 -26.39938491 253.38473922 -32.67285156 247.11401367 C-33.79029475 246.00420493 -34.90813425 244.89479511 -36.02633667 243.78575134 C-39.04337131 240.790532 -42.05392799 237.78888548 -45.06262302 234.78529143 C-46.94584442 232.9057267 -48.83035424 231.02746344 -50.71529388 229.14962196 C-57.29994651 222.5894113 -63.87890587 216.02354658 -70.453125 209.45288086 C-76.56823244 203.34141247 -82.69636295 197.24321756 -88.83052754 191.1508829 C-94.11009513 185.90605194 -99.3799568 180.65159803 -104.64253306 175.38971883 C-107.77998658 172.25305646 -110.92124948 169.12045951 -114.07254791 165.99770164 C-117.03531187 163.06117848 -119.9857773 160.11282421 -122.92743301 157.1551609 C-124.00502895 156.07575575 -125.08686186 155.00056027 -126.1733284 153.93008423 C-133.21652244 146.98422903 -139.13911566 140.68916079 -139.86328125 130.4296875 C-139.41365121 122.30824489 -132.86376712 117.41886063 -127.36328125 112.1171875 C-126.09484375 110.84875 -126.09484375 110.84875 -124.80078125 109.5546875 C-91.98828125 76.7421875 -59.17578125 43.9296875 -26.36328125 11.1171875 C-25.45255859 10.15425781 -25.45255859 10.15425781 -24.5234375 9.171875 C-17.51332758 1.87920787 -10.50978677 -3.92596993 0 0 Z " fill="#01B04D" transform="translate(306.36328125,335.8828125)"/>
<path d="M0 0 C2.35025793 1.35611412 3.86121937 3.1865338 5.44921875 5.36328125 C7.08346846 7.38956196 8.92841855 8.93467254 10.92578125 10.6015625 C13.98357772 13.19068736 15.77834465 15.57202833 17.80078125 19.0390625 C19.46357452 20.04549 21.13061609 21.04491657 22.80078125 22.0390625 C24.00362569 23.4694721 25.20304439 24.90366576 26.35546875 26.375 C28.00528138 28.274514 29.80547779 29.80461779 31.73828125 31.4140625 C35.25856517 34.39174627 37.77881655 37.58273662 40.43359375 41.328125 C42.22288139 43.56729067 44.32168554 44.64059825 46.80078125 46.0390625 C48.00362569 47.4694721 49.20304439 48.90366576 50.35546875 50.375 C52.00528138 52.274514 53.80547779 53.80461779 55.73828125 55.4140625 C59.25856517 58.39174627 61.77881655 61.58273662 64.43359375 65.328125 C66.22288139 67.56729067 68.32168554 68.64059825 70.80078125 70.0390625 C72.00362569 71.4694721 73.20304439 72.90366576 74.35546875 74.375 C76.00528138 76.274514 77.80547779 77.80461779 79.73828125 79.4140625 C83.25856517 82.39174627 85.77881655 85.58273662 88.43359375 89.328125 C90.22288139 91.56729067 92.32168554 92.64059825 94.80078125 94.0390625 C96.00362569 95.4694721 97.20304439 96.90366576 98.35546875 98.375 C100.00528138 100.274514 101.80547779 101.80461779 103.73828125 103.4140625 C107.2561914 106.38973838 109.7793653 109.57286302 112.421875 113.32421875 C114.20548873 115.54236727 116.36375902 116.6174662 118.80078125 118.0390625 C120.34413364 120.97878135 120.80078125 122.70750108 120.80078125 126.0390625 C121.46078125 126.0390625 122.12078125 126.0390625 122.80078125 126.0390625 C123.42394206 136.89244661 123.42394206 136.89244661 121.23828125 140.9140625 C119.90565914 142.07583562 118.57037462 143.23468001 117.22265625 144.37890625 C116.36414063 145.10787109 116.36414063 145.10787109 115.48828125 145.8515625 C114.88371094 146.35558594 114.27914063 146.85960937 113.65625 147.37890625 C110.38178407 150.30869156 107.62745261 153.68474582 104.80078125 157.0390625 C101.0175425 161.50425845 97.37744916 165.37772817 92.80078125 169.0390625 C91.61558248 170.35595003 90.45051409 171.69109986 89.30078125 173.0390625 C86.6750243 176.11753617 83.96212467 178.50998776 80.80078125 181.0390625 C79.61558248 182.35595003 78.45051409 183.69109986 77.30078125 185.0390625 C74.6750243 188.11753617 71.96212467 190.50998776 68.80078125 193.0390625 C67.61558248 194.35595003 66.45051409 195.69109986 65.30078125 197.0390625 C62.6750243 200.11753617 59.96212467 202.50998776 56.80078125 205.0390625 C55.61558248 206.35595003 54.45051409 207.69109986 53.30078125 209.0390625 C50.6750243 212.11753617 47.96212467 214.50998776 44.80078125 217.0390625 C43.61558248 218.35595003 42.45051409 219.69109986 41.30078125 221.0390625 C38.6750243 224.11753617 35.96212467 226.50998776 32.80078125 229.0390625 C31.61558248 230.35595003 30.45051409 231.69109986 29.30078125 233.0390625 C26.6750243 236.11753617 23.96212467 238.50998776 20.80078125 241.0390625 C18.99389418 243.0467148 17.24821102 245.10073581 15.49609375 247.15625 C13.4670268 249.40972988 11.17731221 251.16285385 8.80078125 253.0390625 C7.65609375 254.616875 7.65609375 254.616875 6.48828125 256.2265625 C2.88563589 259.99677276 0.89301311 259.86644447 -4.19921875 260.0390625 C-4.19921875 261.0290625 -4.19921875 262.0190625 -4.19921875 263.0390625 C-9.958826 263.7702979 -15.06689226 264.3608225 -20.1484375 261.2109375 C-23.5428568 258.14631977 -26.48151471 254.94278909 -29.32421875 251.36328125 C-31.38251093 248.81185657 -33.61941467 247.05256812 -36.19921875 245.0390625 C-37.87703331 243.3836188 -39.542327 241.71544709 -41.19921875 240.0390625 C-42.03582031 239.2140625 -42.87242187 238.3890625 -43.734375 237.5390625 C-44.56839844 236.7140625 -45.40242188 235.8890625 -46.26171875 235.0390625 C-47.09832031 234.2140625 -47.93492187 233.3890625 -48.796875 232.5390625 C-51.09885863 230.14350229 -53.12991388 227.63446183 -55.19921875 225.0390625 C-56.84924703 223.68519314 -58.51665745 222.35228108 -60.19921875 221.0390625 C-61.87703331 219.3836188 -63.542327 217.71544709 -65.19921875 216.0390625 C-66.03582031 215.2140625 -66.87242187 214.3890625 -67.734375 213.5390625 C-68.56839844 212.7140625 -69.40242188 211.8890625 -70.26171875 211.0390625 C-71.09832031 210.2140625 -71.93492187 209.3890625 -72.796875 208.5390625 C-75.09885863 206.14350229 -77.12991388 203.63446183 -79.19921875 201.0390625 C-80.84924703 199.68519314 -82.51665745 198.35228108 -84.19921875 197.0390625 C-85.87703331 195.3836188 -87.542327 193.71544709 -89.19921875 192.0390625 C-90.03582031 191.2140625 -90.87242187 190.3890625 -91.734375 189.5390625 C-92.56839844 188.7140625 -93.40242188 187.8890625 -94.26171875 187.0390625 C-95.09832031 186.2140625 -95.93492187 185.3890625 -96.796875 184.5390625 C-99.09885863 182.14350229 -101.12991388 179.63446183 -103.19921875 177.0390625 C-104.84924703 175.68519314 -106.51665745 174.35228108 -108.19921875 173.0390625 C-109.88795754 171.39476421 -111.5522739 169.72522032 -113.19921875 168.0390625 C-114.36454211 166.87105407 -115.53128877 165.70446449 -116.69921875 164.5390625 C-122.86588542 158.37239583 -129.03255208 152.20572917 -135.19921875 146.0390625 C-136.09253906 145.20761719 -136.09253906 145.20761719 -137.00390625 144.359375 C-138.19921875 143.0390625 -138.19921875 143.0390625 -138.19921875 141.0390625 C-139.18921875 140.7090625 -140.17921875 140.3790625 -141.19921875 140.0390625 C-142.93105069 133.11173473 -143.06403522 127.32266245 -139.6015625 121.05078125 C-136.94848688 117.24483712 -133.58703999 114.181981 -130.19921875 111.0390625 C-128.93078125 109.770625 -128.93078125 109.770625 -127.63671875 108.4765625 C-97.65755208 78.49739583 -67.67838542 48.51822917 -37.69921875 18.5390625 C-37.10367188 17.94222656 -36.508125 17.34539062 -35.89453125 16.73046875 C-34.46380458 15.30303869 -33.02041093 13.88832153 -31.57421875 12.4765625 C-29.10624465 10.02702593 -29.10624465 10.02702593 -26.82421875 7.0390625 C-19.43822147 -1.40207724 -10.65891666 -4.42914207 0 0 Z " fill="#01B04D" transform="translate(477.19921875,168.9609375)"/>
<path d="M0 0 C4.0970635 -0.4269485 6.0886913 0.14961164 9.4765625 2.60546875 C12.30834775 5.16357811 14.9892765 7.79915084 17.63671875 10.546875 C20.83688718 13.75698 24.04897795 16.95505863 27.26216125 20.15213013 C28.16093491 21.0465683 29.05970856 21.94100647 29.98571777 22.86254883 C30.70288467 23.5762262 30.70288467 23.5762262 31.43453979 24.30432129 C42.46690987 35.28350547 53.49055908 46.27141261 64.50942707 57.2641468 C70.87667075 63.61588198 77.24673015 69.96474627 83.62329102 76.30712891 C89.1953204 81.84930826 94.76210097 87.39669645 100.32257718 92.95046794 C103.2641396 95.88811459 106.20829911 98.82304918 109.15877724 101.75174332 C111.92887531 104.50154758 114.6919272 107.25823519 117.44963264 110.02046585 C118.46453015 111.03453534 119.48201764 112.04602008 120.50221634 113.05475616 C121.8904194 114.42811645 123.26860745 115.8115784 124.64619446 117.19558716 C125.42138082 117.96800814 126.19656717 118.74042912 126.99524403 119.53625679 C128.63671875 121.546875 128.63671875 121.546875 128.63671875 124.546875 C129.29671875 124.546875 129.95671875 124.546875 130.63671875 124.546875 C132.0990209 127.47147929 131.84580602 130.10340324 131.88671875 133.359375 C131.9125 134.58269531 131.93828125 135.80601562 131.96484375 137.06640625 C131.50728238 141.91982506 129.9512109 144.43993424 126.26171875 147.546875 C125.39546875 148.206875 124.52921875 148.866875 123.63671875 149.546875 C120.99264621 152.05874392 118.61110953 154.57871349 116.32421875 157.421875 C113.70438563 160.64692273 110.63273144 163.20855508 107.4765625 165.89453125 C105.49719342 167.58157517 105.49719342 167.58157517 103.63671875 170.046875 C101.22426453 173.06244278 98.44245725 175.35962745 95.51171875 177.859375 C93.50273957 179.575533 93.50273957 179.575533 91.63671875 182.046875 C89.22426453 185.06244278 86.44245725 187.35962745 83.51171875 189.859375 C81.50273957 191.575533 81.50273957 191.575533 79.63671875 194.046875 C77.22426453 197.06244278 74.44245725 199.35962745 71.51171875 201.859375 C69.50273957 203.575533 69.50273957 203.575533 67.63671875 206.046875 C65.22426453 209.06244278 62.44245725 211.35962745 59.51171875 213.859375 C57.50273957 215.575533 57.50273957 215.575533 55.63671875 218.046875 C53.22426453 221.06244278 50.44245725 223.35962745 47.51171875 225.859375 C45.50273957 227.575533 45.50273957 227.575533 43.63671875 230.046875 C41.22426453 233.06244278 38.44245725 235.35962745 35.51171875 237.859375 C33.50273957 239.575533 33.50273957 239.575533 31.63671875 242.046875 C29.76721347 244.3837566 27.90508014 246.11209617 25.63671875 248.046875 C22.57012614 250.66483647 20.07694198 253.32229431 17.63671875 256.546875 C15.51171875 258.859375 15.51171875 258.859375 13.63671875 260.546875 C12.97671875 260.546875 12.31671875 260.546875 11.63671875 260.546875 C11.63671875 261.206875 11.63671875 261.866875 11.63671875 262.546875 C6.17785807 266.7109395 0.21549521 266.81070399 -6.4168644 265.99654579 C-9.54711385 265.27338017 -11.17166119 263.64476196 -13.43432617 261.40893555 C-13.9233224 260.93469745 -14.41231863 260.46045935 -14.91613293 259.9718504 C-16.7500902 258.18125506 -18.55508089 256.36347411 -20.36328125 254.546875 C-21.98726252 252.94346437 -23.61249325 251.34131866 -25.23867798 249.74014282 C-30.69669018 244.35078471 -36.12194847 238.92918696 -41.54239678 233.50208497 C-44.28954415 230.75237453 -47.03916609 228.00514018 -49.78837585 225.25749207 C-54.39692762 220.65074939 -59.00338997 216.04192537 -63.60864258 211.43188477 C-68.91460196 206.12047224 -74.22417128 200.81268883 -79.53560382 195.50674993 C-84.12205581 190.92484972 -88.70653914 186.34098659 -93.28941029 181.75550479 C-96.01536473 179.02800058 -98.74196833 176.30115453 -101.47036171 173.57608986 C-104.03281728 171.01654362 -106.59277489 168.45452398 -109.1509037 165.89065361 C-110.52545247 164.51417402 -111.9024327 163.14012378 -113.2795105 161.76617432 C-118.17806323 156.85105313 -122.85563067 151.82148905 -127.36328125 146.546875 C-127.88708028 145.96169003 -128.41087931 145.37650507 -128.95055103 144.77358723 C-132.55456703 140.66514303 -132.94641277 136.94356853 -133.02734375 131.5859375 C-130.83870899 121.56971489 -123.1820313 114.7810675 -116.18237305 107.81665039 C-115.04110928 106.66667819 -113.90067971 105.51587762 -112.76101685 104.36431885 C-109.6815058 101.25816795 -106.58945455 98.16480268 -103.49406028 95.07448888 C-100.90586998 92.48844605 -98.32367509 89.89645667 -95.7413457 87.30456346 C-89.64936705 81.19044625 -83.5468575 75.08698308 -77.43774414 68.98999023 C-71.14282155 62.70716509 -64.86651934 56.40616602 -58.5989539 50.09605986 C-53.20662102 44.66848189 -47.80273074 39.2526034 -42.38949329 33.84587473 C-39.16095748 30.62096046 -35.93700595 27.39178102 -32.72421837 24.15117073 C-29.70463201 21.10641267 -26.67085013 18.07654723 -23.62564468 15.05741882 C-22.51271009 13.94921046 -21.40483662 12.83589175 -20.30255699 11.71708488 C-13.56679835 4.88768462 -9.21840436 2.13318448 0 0 Z " fill="#01B04D" transform="translate(132.36328125,166.453125)"/>
<path d="M0 0 C3.23799021 1.46877907 5.46162109 3.54188604 8 6 C9.28777344 7.10214844 9.28777344 7.10214844 10.6015625 8.2265625 C14.89377307 11.92503789 18.12887771 15.10171644 21 20 C22.66279327 21.0064275 24.32983484 22.00585407 26 23 C27.20284444 24.4304096 28.40226314 25.86460326 29.5546875 27.3359375 C31.20450013 29.2354515 33.00469654 30.76555529 34.9375 32.375 C38.45778392 35.35268377 40.9780353 38.54367412 43.6328125 42.2890625 C45.42210014 44.52822817 47.52090429 45.60153575 50 47 C51.20284444 48.4304096 52.40226314 49.86460326 53.5546875 51.3359375 C55.20450013 53.2354515 57.00469654 54.76555529 58.9375 56.375 C62.45778392 59.35268377 64.9780353 62.54367412 67.6328125 66.2890625 C69.42210014 68.52822817 71.52090429 69.60153575 74 71 C75.20284444 72.4304096 76.40226314 73.86460326 77.5546875 75.3359375 C79.20450013 77.2354515 81.00469654 78.76555529 82.9375 80.375 C86.45778392 83.35268377 88.9780353 86.54367412 91.6328125 90.2890625 C93.42210014 92.52822817 95.52090429 93.60153575 98 95 C99.20284444 96.4304096 100.40226314 97.86460326 101.5546875 99.3359375 C103.20450013 101.2354515 105.00469654 102.76555529 106.9375 104.375 C110.45306365 107.34869106 112.96994991 110.53616591 115.625 114.2734375 C117.43196747 116.54241369 119.40945695 117.73973581 122 119 C125 121 125 121 126 124 C127.589355 137.20963919 127.589355 137.20963919 124.2734375 143.03125 C121.98387805 145.58045021 119.62628494 147.80124982 117 150 C116.26136719 150.65484375 115.52273438 151.3096875 114.76171875 151.984375 C113.420141 153.16678251 112.0666006 154.33581206 110.69921875 155.48828125 C108.83813401 157.058677 108.83813401 157.058677 107 159.5 C104.58754578 162.51556778 101.8057385 164.81275245 98.875 167.3125 C96.86602082 169.028658 96.86602082 169.028658 95 171.5 C92.58754578 174.51556778 89.8057385 176.81275245 86.875 179.3125 C84.86602082 181.028658 84.86602082 181.028658 83 183.5 C80.58754578 186.51556778 77.8057385 188.81275245 74.875 191.3125 C72.86602082 193.028658 72.86602082 193.028658 71 195.5 C68.58754578 198.51556778 65.8057385 200.81275245 62.875 203.3125 C60.86602082 205.028658 60.86602082 205.028658 59 207.5 C56.58754578 210.51556778 53.8057385 212.81275245 50.875 215.3125 C48.86602082 217.028658 48.86602082 217.028658 47 219.5 C44.58754578 222.51556778 41.8057385 224.81275245 38.875 227.3125 C36.86602082 229.028658 36.86602082 229.028658 35 231.5 C32.58754578 234.51556778 29.8057385 236.81275245 26.875 239.3125 C24.86602082 241.028658 24.86602082 241.028658 23 243.5 C20.59084072 246.5114491 17.81460647 248.8058529 14.88671875 251.30078125 C12.63240513 253.3310637 10.86839388 255.61618712 9 258 C3.62173471 262.8121321 -1.39870013 265.71636086 -8.7109375 265.3984375 C-16.35581986 264.06775832 -21.05820958 258.05707858 -25.82421875 252.40234375 C-28.04821711 249.94676208 -30.40156544 248.04761433 -33 246 C-34.68634188 244.35324361 -36.35271874 242.68582918 -38 241 C-38.83660156 240.175 -39.67320312 239.35 -40.53515625 238.5 C-41.36917969 237.675 -42.20320313 236.85 -43.0625 236 C-43.89910156 235.175 -44.73570312 234.35 -45.59765625 233.5 C-47.89963988 231.10443979 -49.93069513 228.59539933 -52 226 C-53.65002828 224.64613064 -55.3174387 223.31321858 -57 222 C-58.67781456 220.3445563 -60.34310825 218.67638459 -62 217 C-62.83660156 216.175 -63.67320312 215.35 -64.53515625 214.5 C-65.36917969 213.675 -66.20320313 212.85 -67.0625 212 C-67.89910156 211.175 -68.73570312 210.35 -69.59765625 209.5 C-71.89963988 207.10443979 -73.93069513 204.59539933 -76 202 C-77.65002828 200.64613064 -79.3174387 199.31321858 -81 198 C-82.67781456 196.3445563 -84.34310825 194.67638459 -86 193 C-86.83660156 192.175 -87.67320312 191.35 -88.53515625 190.5 C-89.36917969 189.675 -90.20320313 188.85 -91.0625 188 C-91.89910156 187.175 -92.73570312 186.35 -93.59765625 185.5 C-95.89963988 183.10443979 -97.93069513 180.59539933 -100 178 C-101.65002828 176.64613064 -103.3174387 175.31321858 -105 174 C-106.67781456 172.3445563 -108.34310825 170.67638459 -110 169 C-110.83660156 168.175 -111.67320312 167.35 -112.53515625 166.5 C-113.36917969 165.675 -114.20320313 164.85 -115.0625 164 C-115.89910156 163.175 -116.73570312 162.35 -117.59765625 161.5 C-119.89963988 159.10443979 -121.93069513 156.59539933 -124 154 C-125.65002828 152.64613064 -127.3174387 151.31321858 -129 150 C-135.81592598 143.51655822 -138.94021232 139.69985115 -139.328125 130.29296875 C-138.44953807 124.15331959 -135.48974886 119.98983495 -131.19314575 115.69866943 C-130.71225113 115.21294598 -130.2313565 114.72722252 -129.73588932 114.22678018 C-128.13550773 112.61520211 -126.52133847 111.01822112 -124.90673828 109.42089844 C-123.7510168 108.26302927 -122.59616221 107.10429428 -121.44210815 105.94476318 C-118.31478533 102.80777104 -115.17514661 99.68338109 -112.03284311 96.56140423 C-108.7427552 93.28892138 -105.46325392 90.0058603 -102.18234253 86.72418213 C-96.67279195 81.21650276 -91.15556173 75.71661341 -85.63330078 70.22167969 C-79.25153647 63.87137977 -72.88029918 57.51067361 -66.51498234 51.14389014 C-59.7327629 44.36031915 -52.94294878 37.58438931 -46.15088034 30.81068134 C-44.19622701 28.86028752 -42.24299598 26.90847891 -40.29007339 24.95635223 C-37.22008586 21.88837583 -34.14504035 18.8255585 -31.06602859 15.76663971 C-29.93761307 14.64405827 -28.81087383 13.5197889 -27.68595123 12.39370728 C-26.14881631 10.85558823 -24.60565988 9.3237723 -23.06082153 7.793396 C-22.19915438 6.93508053 -21.33748722 6.07676506 -20.44970894 5.19244003 C-14.05487135 -0.53081048 -8.38993266 -1.22480769 0 0 Z " fill="#01B04D" transform="translate(306,0)"/>
<path d="M0 0 C0 3 0 3 -1.2421875 4.46484375 C-1.78101563 4.95082031 -2.31984375 5.43679687 -2.875 5.9375 C-5.19734404 8.13386783 -6.83245608 9.9643858 -8 13 C-8.66 13 -9.32 13 -10 13 C-10.309375 13.804375 -10.309375 13.804375 -10.625 14.625 C-12.53250426 17.91978009 -15.04819384 20.59363628 -18 23 C-18.66 23 -19.32 23 -20 23 C-20 23.66 -20 24.32 -20 25 C-20.66 25 -21.32 25 -22 25 C-22.226875 25.556875 -22.45375 26.11375 -22.6875 26.6875 C-24.95600449 30.68438886 -27.61899946 33.53966649 -32 35 C-33.03547047 38.02282643 -33.03547047 38.02282643 -33.6875 41.5625 C-33.93886719 42.76003906 -34.19023437 43.95757812 -34.44921875 45.19140625 C-34.63097656 46.11824219 -34.81273437 47.04507813 -35 48 C-35.33 48 -35.66 48 -36 48 C-36.34469533 41.45078877 -35.72868678 36.34418853 -31.45198059 31.10279846 C-29.51010362 29.04908999 -27.51627216 27.06637327 -25.48828125 25.09765625 C-24.39594429 24.01380898 -24.39594429 24.01380898 -23.28153992 22.9080658 C-20.96779431 20.61659833 -18.64049339 18.33948207 -16.3125 16.0625 C-14.73541041 14.50548629 -13.1592282 12.94755293 -11.58398438 11.38867188 C-7.73309714 7.58173834 -3.8710025 3.78647213 0 0 Z " fill="#59C989" transform="translate(203,88)"/>
<path d="M0 0 C0.495 0.99 0.495 0.99 1 2 C0.67 2.66 0.34 3.32 0 4 C-0.66 4 -1.32 4 -2 4 C-2.165 4.86625 -2.33 5.7325 -2.5 6.625 C-4.53843949 11.21148884 -7.72152338 13.48639499 -12 16 C-12.66 16 -13.32 16 -14 16 C-14.33 17.32 -14.66 18.64 -15 20 C-15.66 20 -16.32 20 -17 20 C-17.268125 20.639375 -17.53625 21.27875 -17.8125 21.9375 C-19 24 -19 24 -22 25 C-22 25.66 -22 26.32 -22 27 C-23.32 27.33 -24.64 27.66 -26 28 C-26.04125 28.5775 -26.0825 29.155 -26.125 29.75 C-27.44065958 33.13312465 -29.96552364 34.19222685 -33 36 C-33.66 35.67 -34.32 35.34 -35 35 C-33.37660195 33.29115995 -31.70680947 31.62553283 -30 30 C-29.34 30 -28.68 30 -28 30 C-27.67 29.01 -27.34 28.02 -27 27 C-26.34 27 -25.68 27 -25 27 C-24.773125 26.443125 -24.54625 25.88625 -24.3125 25.3125 C-22.62449964 22.33840412 -20.53323483 20.27991135 -18 18 C-17.34 18 -16.68 18 -16 18 C-15.67 17.01 -15.34 16.02 -15 15 C-14.34 15 -13.68 15 -13 15 C-12.773125 14.443125 -12.54625 13.88625 -12.3125 13.3125 C-10.62449964 10.33840412 -8.53323483 8.27991135 -6 6 C-5.34 6 -4.68 6 -4 6 C-3.67 5.01 -3.34 4.02 -3 3 C-2.34 3 -1.68 3 -1 3 C-0.67 2.01 -0.34 1.02 0 0 Z " fill="#B2E6C6" transform="translate(259,312)"/>
<path d="M0 0 C0 3 0 3 -1.2421875 4.46484375 C-1.78101562 4.95082031 -2.31984375 5.43679688 -2.875 5.9375 C-5.19734404 8.13386783 -6.83245608 9.9643858 -8 13 C-8.66 13 -9.32 13 -10 13 C-10.309375 13.804375 -10.309375 13.804375 -10.625 14.625 C-12.53250426 17.91978009 -15.04819384 20.59363628 -18 23 C-18.66 23 -19.32 23 -20 23 C-20 23.66 -20 24.32 -20 25 C-20.66 25 -21.32 25 -22 25 C-22.20625 25.53625 -22.4125 26.0725 -22.625 26.625 C-24.57996944 30.0017654 -27.18223695 32.30474839 -30 35 C-30.66 34.67 -31.32 34.34 -32 34 C-29.51480865 29.25269748 -26.14079465 25.88247288 -22.36328125 22.16796875 C-21.72384079 21.53135818 -21.08440033 20.89474762 -20.42558289 20.23884583 C-18.39255501 18.21696667 -16.35266638 16.20217332 -14.3125 14.1875 C-12.92857703 12.81361367 -11.54510832 11.43926961 -10.16210938 10.06445312 C-6.77997763 6.70431133 -3.39167762 3.35050495 0 0 Z " fill="#50C581" transform="translate(35,256)"/>
<path d="M0 0 C-0.99 0.495 -0.99 0.495 -2 1 C-2.99 0.67 -3.98 0.34 -5 0 C-11.66293664 -0.92194191 -11.66293664 -0.92194191 -17.76171875 1.19921875 C-19.96267227 3.82317835 -21.66663649 6.84841353 -23 10 C-23.66 10 -24.32 10 -25 10 C-25 9.01 -25 8.02 -25 7 C-26.65 7.66 -28.3 8.32 -30 9 C-22.9631694 -3.10334863 -12.52310734 -5.367046 0 0 Z " fill="#38BE72" transform="translate(479,170)"/>
<path d="M0 0 C0 3 0 3 -1.2421875 4.46484375 C-1.78101562 4.95082031 -2.31984375 5.43679687 -2.875 5.9375 C-5.19734404 8.13386783 -6.83245608 9.9643858 -8 13 C-8.66 13 -9.32 13 -10 13 C-10.20625 13.53625 -10.4125 14.0725 -10.625 14.625 C-13.0898062 18.88239253 -16.0977234 22.42104625 -20.875 23.875 C-21.57625 23.91625 -22.2775 23.9575 -23 24 C-18.32533663 18.37696243 -13.32234333 13.20258446 -8.125 8.0625 C-7.34125 7.28326172 -6.5575 6.50402344 -5.75 5.70117188 C-3.83561419 3.79845915 -1.91891966 1.89813829 0 0 Z " fill="#50C581" transform="translate(59,232)"/>
<path d="M0 0 C0 3 0 3 -1.2421875 4.46484375 C-1.78101562 4.95082031 -2.31984375 5.43679687 -2.875 5.9375 C-5.19734404 8.13386783 -6.83245608 9.9643858 -8 13 C-8.66 13 -9.32 13 -10 13 C-10.20625 13.53625 -10.4125 14.0725 -10.625 14.625 C-13.0898062 18.88239253 -16.0977234 22.42104625 -20.875 23.875 C-21.57625 23.91625 -22.2775 23.9575 -23 24 C-18.32533663 18.37696243 -13.32234333 13.20258446 -8.125 8.0625 C-7.34125 7.28326172 -6.5575 6.50402344 -5.75 5.70117188 C-3.83561419 3.79845915 -1.91891966 1.89813829 0 0 Z " fill="#50C581" transform="translate(83,208)"/>
<path d="M0 0 C0 3 0 3 -1.2421875 4.46484375 C-1.78101562 4.95082031 -2.31984375 5.43679687 -2.875 5.9375 C-5.19734404 8.13386783 -6.83245608 9.9643858 -8 13 C-8.66 13 -9.32 13 -10 13 C-10.20625 13.53625 -10.4125 14.0725 -10.625 14.625 C-13.0898062 18.88239253 -16.0977234 22.42104625 -20.875 23.875 C-21.57625 23.91625 -22.2775 23.9575 -23 24 C-18.32533663 18.37696243 -13.32234333 13.20258446 -8.125 8.0625 C-7.34125 7.28326172 -6.5575 6.50402344 -5.75 5.70117188 C-3.83561419 3.79845915 -1.91891966 1.89813829 0 0 Z " fill="#50C581" transform="translate(107,184)"/>
<path d="M0 0 C0 3 0 3 -1.2421875 4.46484375 C-1.78101563 4.95082031 -2.31984375 5.43679687 -2.875 5.9375 C-5.19734404 8.13386783 -6.83245608 9.9643858 -8 13 C-8.66 13 -9.32 13 -10 13 C-10.20625 13.53625 -10.4125 14.0725 -10.625 14.625 C-13.0898062 18.88239253 -16.0977234 22.42104625 -20.875 23.875 C-21.57625 23.91625 -22.2775 23.9575 -23 24 C-18.32533663 18.37696243 -13.32234333 13.20258446 -8.125 8.0625 C-7.34125 7.28326172 -6.5575 6.50402344 -5.75 5.70117188 C-3.83561419 3.79845915 -1.91891966 1.89813829 0 0 Z " fill="#50C581" transform="translate(227,64)"/>
<path d="M0 0 C0 3 0 3 -1.2421875 4.46484375 C-1.78101563 4.95082031 -2.31984375 5.43679687 -2.875 5.9375 C-5.19734404 8.13386783 -6.83245608 9.9643858 -8 13 C-8.66 13 -9.32 13 -10 13 C-10.20625 13.53625 -10.4125 14.0725 -10.625 14.625 C-13.0898062 18.88239253 -16.0977234 22.42104625 -20.875 23.875 C-21.57625 23.91625 -22.2775 23.9575 -23 24 C-18.32533663 18.37696243 -13.32234333 13.20258446 -8.125 8.0625 C-7.34125 7.28326172 -6.5575 6.50402344 -5.75 5.70117188 C-3.83561419 3.79845915 -1.91891966 1.89813829 0 0 Z " fill="#50C581" transform="translate(251,40)"/>
<path d="M0 0 C0 3 0 3 -1.2421875 4.46484375 C-1.78101563 4.95082031 -2.31984375 5.43679687 -2.875 5.9375 C-5.19734404 8.13386783 -6.83245608 9.9643858 -8 13 C-8.66 13 -9.32 13 -10 13 C-10.20625 13.53625 -10.4125 14.0725 -10.625 14.625 C-13.0898062 18.88239253 -16.0977234 22.42104625 -20.875 23.875 C-21.57625 23.91625 -22.2775 23.9575 -23 24 C-18.32533663 18.37696243 -13.32234333 13.20258446 -8.125 8.0625 C-7.34125 7.28326172 -6.5575 6.50402344 -5.75 5.70117188 C-3.83561419 3.79845915 -1.91891966 1.89813829 0 0 Z " fill="#50C581" transform="translate(275,16)"/>
<path d="M0 0 C1.875 1.5 1.875 1.5 3 3 C2.01 3 1.02 3 0 3 C0 3.66 0 4.32 0 5 C-5.625 6.125 -5.625 6.125 -9 5 C-11.00501615 6.29225796 -11.00501615 6.29225796 -12.9375 8.1875 C-13.98744141 9.15429688 -13.98744141 9.15429688 -15.05859375 10.140625 C-17.06905956 12.06614155 -19.07191853 13.9915818 -21 16 C-21.66 15.67 -22.32 15.34 -23 15 C-21.11036105 13.05611304 -19.21376065 11.1199654 -17.3125 9.1875 C-16.78205078 8.64029297 -16.25160156 8.09308594 -15.70507812 7.52929688 C-11.00111432 2.76761573 -7.10440937 -0.92666209 0 0 Z " fill="#3CC073" transform="translate(299,0)"/>
<path d="M0 0 C0.33 0.66 0.66 1.32 1 2 C0.67 2.66 0.34 3.32 0 4 C-0.66 4 -1.32 4 -2 4 C-2.33 5.32 -2.66 6.64 -3 8 C-3.66 8 -4.32 8 -5 8 C-5.268125 8.639375 -5.53625 9.27875 -5.8125 9.9375 C-7 12 -7 12 -10 13 C-10 13.66 -10 14.32 -10 15 C-11.32 15.33 -12.64 15.66 -14 16 C-14.04125 16.5775 -14.0825 17.155 -14.125 17.75 C-15.44065958 21.13312465 -17.96552364 22.19222685 -21 24 C-21.66 23.67 -22.32 23.34 -23 23 C-21.37660195 21.29115995 -19.70680947 19.62553283 -18 18 C-17.34 18 -16.68 18 -16 18 C-15.67 17.01 -15.34 16.02 -15 15 C-14.34 15 -13.68 15 -13 15 C-12.773125 14.443125 -12.54625 13.88625 -12.3125 13.3125 C-10.62449964 10.33840412 -8.53323483 8.27991135 -6 6 C-5.34 6 -4.68 6 -4 6 C-3.67 5.01 -3.34 4.02 -3 3 C-2.34 3 -1.68 3 -1 3 C-0.67 2.01 -0.34 1.02 0 0 Z " fill="#B3E7C7" transform="translate(175,396)"/>
<path d="M0 0 C0.33 0.66 0.66 1.32 1 2 C0.67 2.66 0.34 3.32 0 4 C-0.66 4 -1.32 4 -2 4 C-2.33 5.32 -2.66 6.64 -3 8 C-3.66 8 -4.32 8 -5 8 C-5.268125 8.639375 -5.53625 9.27875 -5.8125 9.9375 C-7 12 -7 12 -10 13 C-10 13.66 -10 14.32 -10 15 C-11.32 15.33 -12.64 15.66 -14 16 C-14.04125 16.5775 -14.0825 17.155 -14.125 17.75 C-15.44065958 21.13312465 -17.96552364 22.19222685 -21 24 C-21.66 23.67 -22.32 23.34 -23 23 C-21.37660195 21.29115995 -19.70680947 19.62553283 -18 18 C-17.34 18 -16.68 18 -16 18 C-15.67 17.01 -15.34 16.02 -15 15 C-14.34 15 -13.68 15 -13 15 C-12.773125 14.443125 -12.54625 13.88625 -12.3125 13.3125 C-10.62449964 10.33840412 -8.53323483 8.27991135 -6 6 C-5.34 6 -4.68 6 -4 6 C-3.67 5.01 -3.34 4.02 -3 3 C-2.34 3 -1.68 3 -1 3 C-0.67 2.01 -0.34 1.02 0 0 Z " fill="#B3E7C7" transform="translate(199,372)"/>
<path d="M0 0 C0.33 0.66 0.66 1.32 1 2 C0.67 2.66 0.34 3.32 0 4 C-0.66 4 -1.32 4 -2 4 C-2.33 5.32 -2.66 6.64 -3 8 C-3.66 8 -4.32 8 -5 8 C-5.268125 8.639375 -5.53625 9.27875 -5.8125 9.9375 C-7 12 -7 12 -10 13 C-10 13.66 -10 14.32 -10 15 C-11.32 15.33 -12.64 15.66 -14 16 C-14.04125 16.5775 -14.0825 17.155 -14.125 17.75 C-15.44065958 21.13312465 -17.96552364 22.19222685 -21 24 C-21.66 23.67 -22.32 23.34 -23 23 C-21.37660195 21.29115995 -19.70680947 19.62553283 -18 18 C-17.34 18 -16.68 18 -16 18 C-15.67 17.01 -15.34 16.02 -15 15 C-14.34 15 -13.68 15 -13 15 C-12.773125 14.443125 -12.54625 13.88625 -12.3125 13.3125 C-10.62449964 10.33840412 -8.53323483 8.27991135 -6 6 C-5.34 6 -4.68 6 -4 6 C-3.67 5.01 -3.34 4.02 -3 3 C-2.34 3 -1.68 3 -1 3 C-0.67 2.01 -0.34 1.02 0 0 Z " fill="#B3E7C7" transform="translate(223,348)"/>
<path d="M0 0 C0.33 0.66 0.66 1.32 1 2 C0.67 2.66 0.34 3.32 0 4 C-0.66 4 -1.32 4 -2 4 C-2.33 5.32 -2.66 6.64 -3 8 C-3.66 8 -4.32 8 -5 8 C-5.268125 8.639375 -5.53625 9.27875 -5.8125 9.9375 C-7 12 -7 12 -10 13 C-10 13.66 -10 14.32 -10 15 C-11.32 15.33 -12.64 15.66 -14 16 C-14.04125 16.5775 -14.0825 17.155 -14.125 17.75 C-15.44065958 21.13312465 -17.96552364 22.19222685 -21 24 C-21.66 23.67 -22.32 23.34 -23 23 C-21.37660195 21.29115995 -19.70680947 19.62553283 -18 18 C-17.34 18 -16.68 18 -16 18 C-15.67 17.01 -15.34 16.02 -15 15 C-14.34 15 -13.68 15 -13 15 C-12.773125 14.443125 -12.54625 13.88625 -12.3125 13.3125 C-10.62449964 10.33840412 -8.53323483 8.27991135 -6 6 C-5.34 6 -4.68 6 -4 6 C-3.67 5.01 -3.34 4.02 -3 3 C-2.34 3 -1.68 3 -1 3 C-0.67 2.01 -0.34 1.02 0 0 Z " fill="#B3E7C7" transform="translate(343,228)"/>
<path d="M0 0 C0.33 0.66 0.66 1.32 1 2 C0.67 2.66 0.34 3.32 0 4 C-0.66 4 -1.32 4 -2 4 C-2.33 5.32 -2.66 6.64 -3 8 C-3.66 8 -4.32 8 -5 8 C-5.268125 8.639375 -5.53625 9.27875 -5.8125 9.9375 C-7 12 -7 12 -10 13 C-10 13.66 -10 14.32 -10 15 C-11.32 15.33 -12.64 15.66 -14 16 C-14.04125 16.5775 -14.0825 17.155 -14.125 17.75 C-15.44065958 21.13312465 -17.96552364 22.19222685 -21 24 C-21.66 23.67 -22.32 23.34 -23 23 C-21.37660195 21.29115995 -19.70680947 19.62553283 -18 18 C-17.34 18 -16.68 18 -16 18 C-15.67 17.01 -15.34 16.02 -15 15 C-14.34 15 -13.68 15 -13 15 C-12.773125 14.443125 -12.54625 13.88625 -12.3125 13.3125 C-10.62449964 10.33840412 -8.53323483 8.27991135 -6 6 C-5.34 6 -4.68 6 -4 6 C-3.67 5.01 -3.34 4.02 -3 3 C-2.34 3 -1.68 3 -1 3 C-0.67 2.01 -0.34 1.02 0 0 Z " fill="#B3E7C7" transform="translate(367,204)"/>
<path d="M0 0 C0.33 0.66 0.66 1.32 1 2 C0.67 2.66 0.34 3.32 0 4 C-0.66 4 -1.32 4 -2 4 C-2.33 5.32 -2.66 6.64 -3 8 C-3.66 8 -4.32 8 -5 8 C-5.268125 8.639375 -5.53625 9.27875 -5.8125 9.9375 C-7 12 -7 12 -10 13 C-10 13.66 -10 14.32 -10 15 C-11.32 15.33 -12.64 15.66 -14 16 C-14.04125 16.5775 -14.0825 17.155 -14.125 17.75 C-15.44065958 21.13312465 -17.96552364 22.19222685 -21 24 C-21.66 23.67 -22.32 23.34 -23 23 C-21.37660195 21.29115995 -19.70680947 19.62553283 -18 18 C-17.34 18 -16.68 18 -16 18 C-15.67 17.01 -15.34 16.02 -15 15 C-14.34 15 -13.68 15 -13 15 C-12.773125 14.443125 -12.54625 13.88625 -12.3125 13.3125 C-10.62449964 10.33840412 -8.53323483 8.27991135 -6 6 C-5.34 6 -4.68 6 -4 6 C-3.67 5.01 -3.34 4.02 -3 3 C-2.34 3 -1.68 3 -1 3 C-0.67 2.01 -0.34 1.02 0 0 Z " fill="#B3E7C7" transform="translate(391,180)"/>
<path d="M0 0 C0.33 0.66 0.66 1.32 1 2 C0.67 2.66 0.34 3.32 0 4 C-0.66 4 -1.32 4 -2 4 C-2.33 5.32 -2.66 6.64 -3 8 C-3.66 8 -4.32 8 -5 8 C-5.268125 8.639375 -5.53625 9.27875 -5.8125 9.9375 C-7 12 -7 12 -10 13 C-10 13.66 -10 14.32 -10 15 C-11.32 15.33 -12.64 15.66 -14 16 C-14.04125 16.5775 -14.0825 17.155 -14.125 17.75 C-15.44065958 21.13312465 -17.96552364 22.19222685 -21 24 C-21.66 23.67 -22.32 23.34 -23 23 C-21.37660195 21.29115995 -19.70680947 19.62553283 -18 18 C-17.34 18 -16.68 18 -16 18 C-15.67 17.01 -15.34 16.02 -15 15 C-14.34 15 -13.68 15 -13 15 C-12.773125 14.443125 -12.54625 13.88625 -12.3125 13.3125 C-10.62449964 10.33840412 -8.53323483 8.27991135 -6 6 C-5.34 6 -4.68 6 -4 6 C-3.67 5.01 -3.34 4.02 -3 3 C-2.34 3 -1.68 3 -1 3 C-0.67 2.01 -0.34 1.02 0 0 Z " fill="#B3E7C7" transform="translate(415,156)"/>
<path d="M0 0 C0.33 0.66 0.66 1.32 1 2 C-0.375 4 -0.375 4 -2 6 C-2.66 6 -3.32 6 -4 6 C-4.226875 6.556875 -4.45375 7.11375 -4.6875 7.6875 C-6.37550036 10.66159588 -8.46676517 12.72008865 -11 15 C-11.66 15 -12.32 15 -13 15 C-13.33 15.99 -13.66 16.98 -14 18 C-14.66 18 -15.32 18 -16 18 C-16.3403125 18.928125 -16.3403125 18.928125 -16.6875 19.875 C-18.37929835 22.61410209 -19.99244161 23.05024472 -23 24 C-19.49089964 19.81560885 -15.91260704 15.8171776 -12 12 C-10.83198537 10.83468286 -9.66540745 9.66792453 -8.5 8.5 C-5.66666667 5.66666667 -2.83333333 2.83333333 0 0 Z " fill="#33BD6E" transform="translate(208,419)"/>
<path d="M0 0 C0.33 0.66 0.66 1.32 1 2 C-0.375 4 -0.375 4 -2 6 C-2.66 6 -3.32 6 -4 6 C-4.226875 6.556875 -4.45375 7.11375 -4.6875 7.6875 C-6.37550036 10.66159588 -8.46676517 12.72008865 -11 15 C-11.66 15 -12.32 15 -13 15 C-13.33 15.99 -13.66 16.98 -14 18 C-14.66 18 -15.32 18 -16 18 C-16.3403125 18.928125 -16.3403125 18.928125 -16.6875 19.875 C-18.37929835 22.61410209 -19.99244161 23.05024472 -23 24 C-19.49089964 19.81560885 -15.91260704 15.8171776 -12 12 C-10.83198537 10.83468286 -9.66540745 9.66792453 -8.5 8.5 C-5.66666667 5.66666667 -2.83333333 2.83333333 0 0 Z " fill="#33BD6E" transform="translate(232,395)"/>
<path d="M0 0 C0.33 0.66 0.66 1.32 1 2 C-0.375 4 -0.375 4 -2 6 C-2.66 6 -3.32 6 -4 6 C-4.226875 6.556875 -4.45375 7.11375 -4.6875 7.6875 C-6.37550036 10.66159588 -8.46676517 12.72008865 -11 15 C-11.66 15 -12.32 15 -13 15 C-13.33 15.99 -13.66 16.98 -14 18 C-14.66 18 -15.32 18 -16 18 C-16.3403125 18.928125 -16.3403125 18.928125 -16.6875 19.875 C-18.37929835 22.61410209 -19.99244161 23.05024472 -23 24 C-19.49089964 19.81560885 -15.91260704 15.8171776 -12 12 C-10.83198537 10.83468286 -9.66540745 9.66792453 -8.5 8.5 C-5.66666667 5.66666667 -2.83333333 2.83333333 0 0 Z " fill="#33BD6E" transform="translate(256,371)"/>
<path d="M0 0 C0.33 0.66 0.66 1.32 1 2 C-0.375 4 -0.375 4 -2 6 C-2.66 6 -3.32 6 -4 6 C-4.226875 6.556875 -4.45375 7.11375 -4.6875 7.6875 C-6.37550036 10.66159588 -8.46676517 12.72008865 -11 15 C-11.66 15 -12.32 15 -13 15 C-13.33 15.99 -13.66 16.98 -14 18 C-14.66 18 -15.32 18 -16 18 C-16.3403125 18.928125 -16.3403125 18.928125 -16.6875 19.875 C-18.37929835 22.61410209 -19.99244161 23.05024472 -23 24 C-19.49089964 19.81560885 -15.91260704 15.8171776 -12 12 C-10.83198537 10.83468286 -9.66540745 9.66792453 -8.5 8.5 C-5.66666667 5.66666667 -2.83333333 2.83333333 0 0 Z " fill="#33BD6E" transform="translate(280,347)"/>
<path d="M0 0 C0.33 0.66 0.66 1.32 1 2 C-0.375 4 -0.375 4 -2 6 C-2.66 6 -3.32 6 -4 6 C-4.226875 6.556875 -4.45375 7.11375 -4.6875 7.6875 C-6.37550036 10.66159588 -8.46676517 12.72008865 -11 15 C-11.66 15 -12.32 15 -13 15 C-13.33 15.99 -13.66 16.98 -14 18 C-14.66 18 -15.32 18 -16 18 C-16.3403125 18.928125 -16.3403125 18.928125 -16.6875 19.875 C-18.37929835 22.61410209 -19.99244161 23.05024472 -23 24 C-19.49089964 19.81560885 -15.91260704 15.8171776 -12 12 C-10.83198537 10.83468286 -9.66540745 9.66792453 -8.5 8.5 C-5.66666667 5.66666667 -2.83333333 2.83333333 0 0 Z " fill="#33BD6E" transform="translate(376,251)"/>
<path d="M0 0 C0.33 0.66 0.66 1.32 1 2 C-0.375 4 -0.375 4 -2 6 C-2.66 6 -3.32 6 -4 6 C-4.226875 6.556875 -4.45375 7.11375 -4.6875 7.6875 C-6.37550036 10.66159588 -8.46676517 12.72008865 -11 15 C-11.66 15 -12.32 15 -13 15 C-13.33 15.99 -13.66 16.98 -14 18 C-14.66 18 -15.32 18 -16 18 C-16.3403125 18.928125 -16.3403125 18.928125 -16.6875 19.875 C-18.37929835 22.61410209 -19.99244161 23.05024472 -23 24 C-19.49089964 19.81560885 -15.91260704 15.8171776 -12 12 C-10.83198537 10.83468286 -9.66540745 9.66792453 -8.5 8.5 C-5.66666667 5.66666667 -2.83333333 2.83333333 0 0 Z " fill="#33BD6E" transform="translate(400,227)"/>
<path d="M0 0 C0.33 0.66 0.66 1.32 1 2 C-0.375 4 -0.375 4 -2 6 C-2.66 6 -3.32 6 -4 6 C-4.226875 6.556875 -4.45375 7.11375 -4.6875 7.6875 C-6.37550036 10.66159588 -8.46676517 12.72008865 -11 15 C-11.66 15 -12.32 15 -13 15 C-13.33 15.99 -13.66 16.98 -14 18 C-14.66 18 -15.32 18 -16 18 C-16.3403125 18.928125 -16.3403125 18.928125 -16.6875 19.875 C-18.37929835 22.61410209 -19.99244161 23.05024472 -23 24 C-19.49089964 19.81560885 -15.91260704 15.8171776 -12 12 C-10.83198537 10.83468286 -9.66540745 9.66792453 -8.5 8.5 C-5.66666667 5.66666667 -2.83333333 2.83333333 0 0 Z " fill="#33BD6E" transform="translate(424,203)"/>
<path d="M0 0 C0.33 0.66 0.66 1.32 1 2 C-0.375 4 -0.375 4 -2 6 C-2.66 6 -3.32 6 -4 6 C-4.226875 6.556875 -4.45375 7.11375 -4.6875 7.6875 C-6.37550036 10.66159588 -8.46676517 12.72008865 -11 15 C-11.66 15 -12.32 15 -13 15 C-13.33 15.99 -13.66 16.98 -14 18 C-14.66 18 -15.32 18 -16 18 C-16.3403125 18.928125 -16.3403125 18.928125 -16.6875 19.875 C-18.37929835 22.61410209 -19.99244161 23.05024472 -23 24 C-19.49089964 19.81560885 -15.91260704 15.8171776 -12 12 C-10.83198537 10.83468286 -9.66540745 9.66792453 -8.5 8.5 C-5.66666667 5.66666667 -2.83333333 2.83333333 0 0 Z " fill="#33BD6E" transform="translate(448,179)"/>
<path d="M0 0 C0.33 0.66 0.66 1.32 1 2 C0.67 2.99 0.34 3.98 0 5 C-0.22179785 6.89212737 -0.40614015 8.78884472 -0.5625 10.6875 C-0.68818359 12.17830078 -0.68818359 12.17830078 -0.81640625 13.69921875 C-0.87699219 14.45847656 -0.93757812 15.21773438 -1 16 C-0.01 16.33 0.98 16.66 2 17 C2.268125 17.886875 2.53625 18.77375 2.8125 19.6875 C4.37430662 24.04411846 6.60481221 25.90004593 10 29 C9.67 29.66 9.34 30.32 9 31 C2.75281198 25.43515048 -2.12897026 20.13725551 -3.33984375 11.60546875 C-3.53466855 6.90629468 -2.96368593 3.82809432 0 0 Z " fill="#57C787" transform="translate(170,457)"/>
<path d="M0 0 C0.67095703 0.58007812 0.67095703 0.58007812 1.35546875 1.171875 C4.07880695 3.51777827 6.79807848 5.84134737 9.625 8.0625 C13.27958287 11.04387023 16.3807082 14.07106231 19 18 C15.5625 17.1875 15.5625 17.1875 12 16 C11.67 15.01 11.34 14.02 11 13 C10.34 12.67 9.68 12.34 9 12 C9 11.34 9 10.68 9 10 C8.401875 9.938125 7.80375 9.87625 7.1875 9.8125 C4.14245324 8.68148263 3.55509485 6.75675905 2 4 C1.34 4 0.68 4 0 4 C0 2.68 0 1.36 0 0 Z " fill="#C4ECD2" transform="translate(429,402)"/>
<path d="M0 0 C0.67095703 0.58007812 0.67095703 0.58007812 1.35546875 1.171875 C4.07880695 3.51777827 6.79807848 5.84134737 9.625 8.0625 C13.27958287 11.04387023 16.3807082 14.07106231 19 18 C15.5625 17.1875 15.5625 17.1875 12 16 C11.67 15.01 11.34 14.02 11 13 C10.34 12.67 9.68 12.34 9 12 C9 11.34 9 10.68 9 10 C8.401875 9.938125 7.80375 9.87625 7.1875 9.8125 C4.14245324 8.68148263 3.55509485 6.75675905 2 4 C1.34 4 0.68 4 0 4 C0 2.68 0 1.36 0 0 Z " fill="#C4ECD2" transform="translate(405,378)"/>
<path d="M0 0 C0.67095703 0.58007812 0.67095703 0.58007812 1.35546875 1.171875 C4.07880695 3.51777827 6.79807848 5.84134737 9.625 8.0625 C13.27958287 11.04387023 16.3807082 14.07106231 19 18 C15.5625 17.1875 15.5625 17.1875 12 16 C11.67 15.01 11.34 14.02 11 13 C10.34 12.67 9.68 12.34 9 12 C9 11.34 9 10.68 9 10 C8.401875 9.938125 7.80375 9.87625 7.1875 9.8125 C4.14245324 8.68148263 3.55509485 6.75675905 2 4 C1.34 4 0.68 4 0 4 C0 2.68 0 1.36 0 0 Z " fill="#C4ECD2" transform="translate(381,354)"/>
<path d="M0 0 C0.67095703 0.58007812 0.67095703 0.58007812 1.35546875 1.171875 C4.07880695 3.51777827 6.79807848 5.84134737 9.625 8.0625 C13.27958287 11.04387023 16.3807082 14.07106231 19 18 C15.5625 17.1875 15.5625 17.1875 12 16 C11.67 15.01 11.34 14.02 11 13 C10.34 12.67 9.68 12.34 9 12 C9 11.34 9 10.68 9 10 C8.401875 9.938125 7.80375 9.87625 7.1875 9.8125 C4.14245324 8.68148263 3.55509485 6.75675905 2 4 C1.34 4 0.68 4 0 4 C0 2.68 0 1.36 0 0 Z " fill="#C4ECD2" transform="translate(261,234)"/>
<path d="M0 0 C0.67095703 0.58007812 0.67095703 0.58007812 1.35546875 1.171875 C4.07880695 3.51777827 6.79807848 5.84134737 9.625 8.0625 C13.27958287 11.04387023 16.3807082 14.07106231 19 18 C15.5625 17.1875 15.5625 17.1875 12 16 C11.67 15.01 11.34 14.02 11 13 C10.34 12.67 9.68 12.34 9 12 C9 11.34 9 10.68 9 10 C8.401875 9.938125 7.80375 9.87625 7.1875 9.8125 C4.14245324 8.68148263 3.55509485 6.75675905 2 4 C1.34 4 0.68 4 0 4 C0 2.68 0 1.36 0 0 Z " fill="#C4ECD2" transform="translate(237,210)"/>
<path d="M0 0 C0.67095703 0.58007812 0.67095703 0.58007812 1.35546875 1.171875 C4.07880695 3.51777827 6.79807848 5.84134737 9.625 8.0625 C13.27958287 11.04387023 16.3807082 14.07106231 19 18 C15.5625 17.1875 15.5625 17.1875 12 16 C11.67 15.01 11.34 14.02 11 13 C10.34 12.67 9.68 12.34 9 12 C9 11.34 9 10.68 9 10 C8.401875 9.938125 7.80375 9.87625 7.1875 9.8125 C4.14245324 8.68148263 3.55509485 6.75675905 2 4 C1.34 4 0.68 4 0 4 C0 2.68 0 1.36 0 0 Z " fill="#C4ECD2" transform="translate(213,186)"/>
<path d="M0 0 C0.67095703 0.58007812 0.67095703 0.58007812 1.35546875 1.171875 C4.07880695 3.51777827 6.79807848 5.84134737 9.625 8.0625 C13.27958287 11.04387023 16.3807082 14.07106231 19 18 C15.5625 17.1875 15.5625 17.1875 12 16 C11.67 15.01 11.34 14.02 11 13 C10.34 12.67 9.68 12.34 9 12 C9 11.34 9 10.68 9 10 C8.401875 9.938125 7.80375 9.87625 7.1875 9.8125 C4.14245324 8.68148263 3.55509485 6.75675905 2 4 C1.34 4 0.68 4 0 4 C0 2.68 0 1.36 0 0 Z " fill="#C4ECD2" transform="translate(189,162)"/>
<path d="M0 0 C0 3 0 3 -1.2421875 4.46484375 C-1.78101563 4.95082031 -2.31984375 5.43679687 -2.875 5.9375 C-5.19734404 8.13386783 -6.83245608 9.9643858 -8 13 C-8.66 13 -9.32 13 -10 13 C-10.20625 13.53625 -10.4125 14.0725 -10.625 14.625 C-12.57996944 18.0017654 -15.18223695 20.30474839 -18 23 C-18.66 22.67 -19.32 22.34 -20 22 C-19.18595703 21.22076172 -19.18595703 21.22076172 -18.35546875 20.42578125 C-17.64003906 19.72839844 -16.92460937 19.03101562 -16.1875 18.3125 C-15.47980469 17.62800781 -14.77210938 16.94351563 -14.04296875 16.23828125 C-11.93547951 14.08044647 -11.93547951 14.08044647 -10.53125 11.53125 C-8.77736443 8.63196978 -6.74005807 6.54469407 -4.3125 4.1875 C-3.50425781 3.39730469 -2.69601563 2.60710937 -1.86328125 1.79296875 C-1.24839844 1.20128906 -0.63351563 0.60960938 0 0 Z " fill="#40C076" transform="translate(203,88)"/>
<path d="M0 0 C0.78375 0.04125 1.5675 0.0825 2.375 0.125 C0.97285477 1.76653588 -0.43111931 3.40654118 -1.84375 5.0390625 C-3.05195405 6.45393304 -4.23899095 7.8871028 -5.40625 9.3359375 C-5.9940625 10.05007813 -6.581875 10.76421875 -7.1875 11.5 C-7.72503906 12.16773438 -8.26257813 12.83546875 -8.81640625 13.5234375 C-11.03118921 15.48469239 -12.72631436 15.77814873 -15.625 16.125 C-14.625 14.125 -14.625 14.125 -12.8125 13.3125 C-8.24470553 10.83284015 -6.39653284 6.80690823 -4.625 2.125 C-2.625 0.125 -2.625 0.125 0 0 Z " fill="#63CC8E" transform="translate(321.625,583.875)"/>
<path d="M0 0 C8.57142857 2 8.57142857 2 12 4 C11.67 6.31 11.34 8.62 11 11 C6.86378916 7.6189962 3.18683431 4.33409466 0 0 Z " fill="#1EB75F" transform="translate(348,320)"/>
<path d="M0 0 C0.66 0.99 1.32 1.98 2 3 C1.13117188 2.97679687 0.26234375 2.95359375 -0.6328125 2.9296875 C-1.78523438 2.91164062 -2.93765625 2.89359375 -4.125 2.875 C-5.26195312 2.85179687 -6.39890625 2.82859375 -7.5703125 2.8046875 C-11.05732715 3.00326464 -13.72056343 3.86883202 -17 5 C-17.66 4.67 -18.32 4.34 -19 4 C-14.00783498 -0.41614598 -6.47120665 -1.08716272 0 0 Z " fill="#5AC989" transform="translate(139,167)"/>
<path d="M0 0 C2.95662966 0.22743305 4.55033688 0.61235938 6.8125 2.5625 C7.204375 3.036875 7.59625 3.51125 8 4 C4.55930376 6.29379749 3.27709699 7 -1 7 C-1.625 4.625 -1.625 4.625 -2 2 C-1.34 1.34 -0.68 0.68 0 0 Z " fill="#15B559" transform="translate(303,593)"/>
<path d="M0 0 C4.66803562 3.29708341 8.58024511 6.35890408 12 11 C13.31494512 12.35147138 14.64264858 13.69112542 16 15 C12.5625 14.1875 12.5625 14.1875 9 13 C8.67 12.01 8.34 11.02 8 10 C7.34 9.67 6.68 9.34 6 9 C6 8.34 6 7.68 6 7 C5.38125 6.95875 4.7625 6.9175 4.125 6.875 C3.42375 6.58625 2.7225 6.2975 2 6 C0.75 2.9375 0.75 2.9375 0 0 Z " fill="#C0EBD0" transform="translate(360,333)"/>
<path d="M0 0 C-0.99 0.33 -1.98 0.66 -3 1 C-3.33 1.99 -3.66 2.98 -4 4 C-8.36228979 6.028972 -11.35656242 6.10558038 -16 5 C-16 4.34 -16 3.68 -16 3 C-13.03 3 -10.06 3 -7 3 C-7 2.01 -7 1.02 -7 0 C-2.25 -1.125 -2.25 -1.125 0 0 Z " fill="#9CDEB9" transform="translate(480,429)"/>
<path d="M0 0 C0.33 0.66 0.66 1.32 1 2 C0.34 2 -0.32 2 -1 2 C-1.20625 2.53625 -1.4125 3.0725 -1.625 3.625 C-3.57996944 7.0017654 -6.18223695 9.30474839 -9 12 C-9.66 11.67 -10.32 11.34 -11 11 C-8.3483509 6.11538324 -5.42038781 1.80679594 0 0 Z " fill="#39BF72" transform="translate(14,279)"/>
<path d="M0 0 C1 2 1 2 0.25 4.4375 C-0.99033747 6.98019182 -1.71299284 8.36642346 -4 10 C-7.1875 10.6875 -7.1875 10.6875 -10 11 C-9.67 10.34 -9.34 9.68 -9 9 C-8.34 9 -7.68 9 -7 9 C-7 8.34 -7 7.68 -7 7 C-5.125 4.875 -5.125 4.875 -3 3 C-2.34 3 -1.68 3 -1 3 C-0.67 2.01 -0.34 1.02 0 0 Z " fill="#C6EDD4" transform="translate(151,420)"/>
<path d="M0 0 C0.33 0.66 0.66 1.32 1 2 C-0.375 4 -0.375 4 -2 6 C-2.66 6 -3.32 6 -4 6 C-4.2475 6.598125 -4.495 7.19625 -4.75 7.8125 C-6.16370012 10.28647521 -7.65055383 11.43370255 -10 13 C-10.66 12.67 -11.32 12.34 -12 12 C-8 8 -4 4 0 0 Z " fill="#40C077" transform="translate(184,443)"/>
<path d="M0 0 C2 1 2 1 2 1 Z M-3 1 C1.29659053 1.85931811 2.53620742 3.30431114 5 7 C5.99 7.33 6.98 7.66 8 8 C8.33 9.65 8.66 11.3 9 13 C4.82032822 9.49485739 0.74489237 5.97185555 -3 2 C-3 1.67 -3 1.34 -3 1 Z " fill="#CCEFD8" transform="translate(319,342)"/>
<path d="M0 0 C0.33 0.66 0.66 1.32 1 2 C-0.375 4 -0.375 4 -2 6 C-2.66 6 -3.32 6 -4 6 C-4.2475 6.598125 -4.495 7.19625 -4.75 7.8125 C-6.16370012 10.28647521 -7.65055383 11.43370255 -10 13 C-10.66 12.67 -11.32 12.34 -12 12 C-8 8 -4 4 0 0 Z " fill="#40C077" transform="translate(352,275)"/>
<path d="M0 0 C0 0.66 0 1.32 0 2 C-5.79799884 6.0333905 -10.01370081 6.50604984 -17 6 C-17 5.34 -17 4.68 -17 4 C-16.16855469 3.87882812 -15.33710938 3.75765625 -14.48046875 3.6328125 C-13.39378906 3.46523438 -12.30710937 3.29765625 -11.1875 3.125 C-10.10855469 2.96257812 -9.02960938 2.80015625 -7.91796875 2.6328125 C-4.88023357 1.97402656 -3.02790929 0 0 0 Z " fill="#C3EED6" transform="translate(312,261)"/>
<path d="M0 0 C3.35595828 0.59927826 5.37801226 1.84622436 8 4 C6.35 3.67 4.7 3.34 3 3 C3.33 3.99 3.66 4.98 4 6 C1.69 6.33 -0.62 6.66 -3 7 C-2.01 4.69 -1.02 2.38 0 0 Z " fill="#16B559" transform="translate(303,0)"/>
<path d="M0 0 C0.66 0.33 1.32 0.66 2 1 C1.113125 1.70125 0.22625 2.4025 -0.6875 3.125 C-3.90375955 5.79121041 -6.41236896 8.72740781 -9 12 C-9 9 -9 9 -7 7 C-6.71125 6.154375 -6.4225 5.30875 -6.125 4.4375 C-5.75375 3.633125 -5.3825 2.82875 -5 2 C-2.9375 1.25 -2.9375 1.25 -1 1 C-0.67 0.67 -0.34 0.34 0 0 Z " fill="#50C581" transform="translate(346,560)"/>
<path d="M0 0 C0.66 0.33 1.32 0.66 2 1 C1.113125 1.70125 0.22625 2.4025 -0.6875 3.125 C-3.90375955 5.79121041 -6.41236896 8.72740781 -9 12 C-9 9 -9 9 -7 7 C-6.71125 6.154375 -6.4225 5.30875 -6.125 4.4375 C-5.75375 3.633125 -5.3825 2.82875 -5 2 C-2.9375 1.25 -2.9375 1.25 -1 1 C-0.67 0.67 -0.34 0.34 0 0 Z " fill="#50C581" transform="translate(370,536)"/>
<path d="M0 0 C0.66 0.33 1.32 0.66 2 1 C1.113125 1.70125 0.22625 2.4025 -0.6875 3.125 C-3.90375955 5.79121041 -6.41236896 8.72740781 -9 12 C-9 9 -9 9 -7 7 C-6.71125 6.154375 -6.4225 5.30875 -6.125 4.4375 C-5.75375 3.633125 -5.3825 2.82875 -5 2 C-2.9375 1.25 -2.9375 1.25 -1 1 C-0.67 0.67 -0.34 0.34 0 0 Z " fill="#50C581" transform="translate(394,512)"/>
<path d="M0 0 C0.66 0.33 1.32 0.66 2 1 C1.113125 1.70125 0.22625 2.4025 -0.6875 3.125 C-3.90375955 5.79121041 -6.41236896 8.72740781 -9 12 C-9 9 -9 9 -7 7 C-6.71125 6.154375 -6.4225 5.30875 -6.125 4.4375 C-5.75375 3.633125 -5.3825 2.82875 -5 2 C-2.9375 1.25 -2.9375 1.25 -1 1 C-0.67 0.67 -0.34 0.34 0 0 Z " fill="#50C581" transform="translate(418,488)"/>
<path d="M0 0 C0.33 0.66 0.66 1.32 1 2 C0.67 2.66 0.34 3.32 0 4 C-0.66 4 -1.32 4 -2 4 C-2.04125 4.5775 -2.0825 5.155 -2.125 5.75 C-3.44065958 9.13312465 -5.96552364 10.19222685 -9 12 C-9.66 11.67 -10.32 11.34 -11 11 C-9.37660195 9.29115995 -7.70680947 7.62553283 -6 6 C-5.34 6 -4.68 6 -4 6 C-3.67 5.01 -3.34 4.02 -3 3 C-2.34 3 -1.68 3 -1 3 C-0.67 2.01 -0.34 1.02 0 0 Z " fill="#A6E2BD" transform="translate(163,408)"/>
<path d="M0 0 C0.66 0.33 1.32 0.66 2 1 C1.113125 1.70125 0.22625 2.4025 -0.6875 3.125 C-3.90375955 5.79121041 -6.41236896 8.72740781 -9 12 C-9 9 -9 9 -7 7 C-6.71125 6.154375 -6.4225 5.30875 -6.125 4.4375 C-5.75375 3.633125 -5.3825 2.82875 -5 2 C-2.9375 1.25 -2.9375 1.25 -1 1 C-0.67 0.67 -0.34 0.34 0 0 Z " fill="#50C581" transform="translate(514,392)"/>
<path d="M0 0 C0.33 0.66 0.66 1.32 1 2 C0.67 2.66 0.34 3.32 0 4 C-0.66 4 -1.32 4 -2 4 C-2.04125 4.5775 -2.0825 5.155 -2.125 5.75 C-3.44065958 9.13312465 -5.96552364 10.19222685 -9 12 C-9.66 11.67 -10.32 11.34 -11 11 C-9.37660195 9.29115995 -7.70680947 7.62553283 -6 6 C-5.34 6 -4.68 6 -4 6 C-3.67 5.01 -3.34 4.02 -3 3 C-2.34 3 -1.68 3 -1 3 C-0.67 2.01 -0.34 1.02 0 0 Z " fill="#A6E2BD" transform="translate(187,384)"/>
<path d="M0 0 C0.66 0.33 1.32 0.66 2 1 C1.113125 1.70125 0.22625 2.4025 -0.6875 3.125 C-3.90375955 5.79121041 -6.41236896 8.72740781 -9 12 C-9 9 -9 9 -7 7 C-6.71125 6.154375 -6.4225 5.30875 -6.125 4.4375 C-5.75375 3.633125 -5.3825 2.82875 -5 2 C-2.9375 1.25 -2.9375 1.25 -1 1 C-0.67 0.67 -0.34 0.34 0 0 Z " fill="#50C581" transform="translate(538,368)"/>
<path d="M0 0 C0.33 0.66 0.66 1.32 1 2 C0.67 2.66 0.34 3.32 0 4 C-0.66 4 -1.32 4 -2 4 C-2.04125 4.5775 -2.0825 5.155 -2.125 5.75 C-3.44065958 9.13312465 -5.96552364 10.19222685 -9 12 C-9.66 11.67 -10.32 11.34 -11 11 C-9.37660195 9.29115995 -7.70680947 7.62553283 -6 6 C-5.34 6 -4.68 6 -4 6 C-3.67 5.01 -3.34 4.02 -3 3 C-2.34 3 -1.68 3 -1 3 C-0.67 2.01 -0.34 1.02 0 0 Z " fill="#A6E2BD" transform="translate(211,360)"/>
<path d="M0 0 C0.66 0.33 1.32 0.66 2 1 C1.113125 1.70125 0.22625 2.4025 -0.6875 3.125 C-3.90375955 5.79121041 -6.41236896 8.72740781 -9 12 C-9 9 -9 9 -7 7 C-6.71125 6.154375 -6.4225 5.30875 -6.125 4.4375 C-5.75375 3.633125 -5.3825 2.82875 -5 2 C-2.9375 1.25 -2.9375 1.25 -1 1 C-0.67 0.67 -0.34 0.34 0 0 Z " fill="#50C581" transform="translate(562,344)"/>
<path d="M0 0 C0.33 0.66 0.66 1.32 1 2 C0.67 2.66 0.34 3.32 0 4 C-0.66 4 -1.32 4 -2 4 C-2.04125 4.5775 -2.0825 5.155 -2.125 5.75 C-3.44065958 9.13312465 -5.96552364 10.19222685 -9 12 C-9.66 11.67 -10.32 11.34 -11 11 C-9.37660195 9.29115995 -7.70680947 7.62553283 -6 6 C-5.34 6 -4.68 6 -4 6 C-3.67 5.01 -3.34 4.02 -3 3 C-2.34 3 -1.68 3 -1 3 C-0.67 2.01 -0.34 1.02 0 0 Z " fill="#A6E2BD" transform="translate(235,336)"/>
<path d="M0 0 C0.33 0.66 0.66 1.32 1 2 C0.67 2.66 0.34 3.32 0 4 C-0.66 4 -1.32 4 -2 4 C-2.04125 4.5775 -2.0825 5.155 -2.125 5.75 C-3.44065958 9.13312465 -5.96552364 10.19222685 -9 12 C-9.66 11.67 -10.32 11.34 -11 11 C-9.37660195 9.29115995 -7.70680947 7.62553283 -6 6 C-5.34 6 -4.68 6 -4 6 C-3.67 5.01 -3.34 4.02 -3 3 C-2.34 3 -1.68 3 -1 3 C-0.67 2.01 -0.34 1.02 0 0 Z " fill="#A6E2BD" transform="translate(331,240)"/>
<path d="M0 0 C0.33 0.66 0.66 1.32 1 2 C0.67 2.66 0.34 3.32 0 4 C-0.66 4 -1.32 4 -2 4 C-2.04125 4.5775 -2.0825 5.155 -2.125 5.75 C-3.44065958 9.13312465 -5.96552364 10.19222685 -9 12 C-9.66 11.67 -10.32 11.34 -11 11 C-9.37660195 9.29115995 -7.70680947 7.62553283 -6 6 C-5.34 6 -4.68 6 -4 6 C-3.67 5.01 -3.34 4.02 -3 3 C-2.34 3 -1.68 3 -1 3 C-0.67 2.01 -0.34 1.02 0 0 Z " fill="#A6E2BD" transform="translate(355,216)"/>
<path d="M0 0 C0.33 0.66 0.66 1.32 1 2 C0.67 2.66 0.34 3.32 0 4 C-0.66 4 -1.32 4 -2 4 C-2.04125 4.5775 -2.0825 5.155 -2.125 5.75 C-3.44065958 9.13312465 -5.96552364 10.19222685 -9 12 C-9.66 11.67 -10.32 11.34 -11 11 C-9.37660195 9.29115995 -7.70680947 7.62553283 -6 6 C-5.34 6 -4.68 6 -4 6 C-3.67 5.01 -3.34 4.02 -3 3 C-2.34 3 -1.68 3 -1 3 C-0.67 2.01 -0.34 1.02 0 0 Z " fill="#A6E2BD" transform="translate(379,192)"/>
<path d="M0 0 C0.33 0.66 0.66 1.32 1 2 C0.67 2.66 0.34 3.32 0 4 C-0.66 4 -1.32 4 -2 4 C-2.04125 4.5775 -2.0825 5.155 -2.125 5.75 C-3.44065958 9.13312465 -5.96552364 10.19222685 -9 12 C-9.66 11.67 -10.32 11.34 -11 11 C-9.37660195 9.29115995 -7.70680947 7.62553283 -6 6 C-5.34 6 -4.68 6 -4 6 C-3.67 5.01 -3.34 4.02 -3 3 C-2.34 3 -1.68 3 -1 3 C-0.67 2.01 -0.34 1.02 0 0 Z " fill="#A6E2BD" transform="translate(403,168)"/>
<path d="M0 0 C0.66 0.33 1.32 0.66 2 1 C1.113125 1.70125 0.22625 2.4025 -0.6875 3.125 C-3.90375955 5.79121041 -6.41236896 8.72740781 -9 12 C-9 9 -9 9 -7 7 C-6.71125 6.154375 -6.4225 5.30875 -6.125 4.4375 C-5.75375 3.633125 -5.3825 2.82875 -5 2 C-2.9375 1.25 -2.9375 1.25 -1 1 C-0.67 0.67 -0.34 0.34 0 0 Z " fill="#52C683" transform="translate(334,572)"/>
<path d="M0 0 C0.66 0.33 1.32 0.66 2 1 C1.113125 1.70125 0.22625 2.4025 -0.6875 3.125 C-3.90375955 5.79121041 -6.41236896 8.72740781 -9 12 C-9 9 -9 9 -7 7 C-6.71125 6.154375 -6.4225 5.30875 -6.125 4.4375 C-5.75375 3.633125 -5.3825 2.82875 -5 2 C-2.9375 1.25 -2.9375 1.25 -1 1 C-0.67 0.67 -0.34 0.34 0 0 Z " fill="#52C683" transform="translate(358,548)"/>
<path d="M0 0 C0.66 0.33 1.32 0.66 2 1 C1.113125 1.70125 0.22625 2.4025 -0.6875 3.125 C-3.90375955 5.79121041 -6.41236896 8.72740781 -9 12 C-9 9 -9 9 -7 7 C-6.71125 6.154375 -6.4225 5.30875 -6.125 4.4375 C-5.75375 3.633125 -5.3825 2.82875 -5 2 C-2.9375 1.25 -2.9375 1.25 -1 1 C-0.67 0.67 -0.34 0.34 0 0 Z " fill="#52C683" transform="translate(382,524)"/>
<path d="M0 0 C0.66 0.33 1.32 0.66 2 1 C1.113125 1.70125 0.22625 2.4025 -0.6875 3.125 C-3.90375955 5.79121041 -6.41236896 8.72740781 -9 12 C-9 9 -9 9 -7 7 C-6.71125 6.154375 -6.4225 5.30875 -6.125 4.4375 C-5.75375 3.633125 -5.3825 2.82875 -5 2 C-2.9375 1.25 -2.9375 1.25 -1 1 C-0.67 0.67 -0.34 0.34 0 0 Z " fill="#52C683" transform="translate(406,500)"/>
<path d="M0 0 C0.66 0.33 1.32 0.66 2 1 C1.113125 1.70125 0.22625 2.4025 -0.6875 3.125 C-3.90375955 5.79121041 -6.41236896 8.72740781 -9 12 C-9 9 -9 9 -7 7 C-6.71125 6.154375 -6.4225 5.30875 -6.125 4.4375 C-5.75375 3.633125 -5.3825 2.82875 -5 2 C-2.9375 1.25 -2.9375 1.25 -1 1 C-0.67 0.67 -0.34 0.34 0 0 Z " fill="#53C683" transform="translate(490,416)"/>
<path d="M0 0 C0.66 0.33 1.32 0.66 2 1 C1.113125 1.70125 0.22625 2.4025 -0.6875 3.125 C-3.90375955 5.79121041 -6.41236896 8.72740781 -9 12 C-9 9 -9 9 -7 7 C-6.71125 6.154375 -6.4225 5.30875 -6.125 4.4375 C-5.75375 3.633125 -5.3825 2.82875 -5 2 C-2.9375 1.25 -2.9375 1.25 -1 1 C-0.67 0.67 -0.34 0.34 0 0 Z " fill="#52C683" transform="translate(502,404)"/>
<path d="M0 0 C0.66 0.33 1.32 0.66 2 1 C1.113125 1.70125 0.22625 2.4025 -0.6875 3.125 C-3.90375955 5.79121041 -6.41236896 8.72740781 -9 12 C-9 9 -9 9 -7 7 C-6.71125 6.154375 -6.4225 5.30875 -6.125 4.4375 C-5.75375 3.633125 -5.3825 2.82875 -5 2 C-2.9375 1.25 -2.9375 1.25 -1 1 C-0.67 0.67 -0.34 0.34 0 0 Z " fill="#52C683" transform="translate(526,380)"/>
<path d="M0 0 C0.66 0.33 1.32 0.66 2 1 C1.113125 1.70125 0.22625 2.4025 -0.6875 3.125 C-3.90375955 5.79121041 -6.41236896 8.72740781 -9 12 C-9 9 -9 9 -7 7 C-6.71125 6.154375 -6.4225 5.30875 -6.125 4.4375 C-5.75375 3.633125 -5.3825 2.82875 -5 2 C-2.9375 1.25 -2.9375 1.25 -1 1 C-0.67 0.67 -0.34 0.34 0 0 Z " fill="#52C683" transform="translate(550,356)"/>
<path d="M0 0 C0.66 0.33 1.32 0.66 2 1 C1.113125 1.70125 0.22625 2.4025 -0.6875 3.125 C-3.90375955 5.79121041 -6.41236896 8.72740781 -9 12 C-9 9 -9 9 -7 7 C-6.71125 6.154375 -6.4225 5.30875 -6.125 4.4375 C-5.75375 3.633125 -5.3825 2.82875 -5 2 C-2.9375 1.25 -2.9375 1.25 -1 1 C-0.67 0.67 -0.34 0.34 0 0 Z " fill="#52C683" transform="translate(574,332)"/>
<path d="M0 0 C1.1725131 0.95117134 2.33787015 1.91117009 3.5 2.875 C4.47453125 3.67550781 4.47453125 3.67550781 5.46875 4.4921875 C5.9740625 4.98976563 6.479375 5.48734375 7 6 C7 6.66 7 7.32 7 8 C4.07120629 7.37240135 1.63904371 6.41377341 -1 5 C-0.67 3.35 -0.34 1.7 0 0 Z " fill="#3DBE73" transform="translate(581,273)"/>
<path d="M0 0 C1.1725131 0.95117134 2.33787015 1.91117009 3.5 2.875 C4.47453125 3.67550781 4.47453125 3.67550781 5.46875 4.4921875 C5.9740625 4.98976562 6.479375 5.48734375 7 6 C7 6.66 7 7.32 7 8 C4.07120629 7.37240135 1.63904371 6.41377341 -1 5 C-0.67 3.35 -0.34 1.7 0 0 Z " fill="#3DBE73" transform="translate(557,249)"/>
<path d="M0 0 C1.1725131 0.95117134 2.33787015 1.91117009 3.5 2.875 C4.47453125 3.67550781 4.47453125 3.67550781 5.46875 4.4921875 C5.9740625 4.98976562 6.479375 5.48734375 7 6 C7 6.66 7 7.32 7 8 C4.07120629 7.37240135 1.63904371 6.41377341 -1 5 C-0.67 3.35 -0.34 1.7 0 0 Z " fill="#3DBE73" transform="translate(533,225)"/>
<path d="M0 0 C1.1725131 0.95117134 2.33787015 1.91117009 3.5 2.875 C4.47453125 3.67550781 4.47453125 3.67550781 5.46875 4.4921875 C5.9740625 4.98976562 6.479375 5.48734375 7 6 C7 6.66 7 7.32 7 8 C4.07120629 7.37240135 1.63904371 6.41377341 -1 5 C-0.67 3.35 -0.34 1.7 0 0 Z " fill="#3DBE73" transform="translate(509,201)"/>
<path d="M0 0 C1.1725131 0.95117134 2.33787015 1.91117009 3.5 2.875 C4.47453125 3.67550781 4.47453125 3.67550781 5.46875 4.4921875 C5.9740625 4.98976562 6.479375 5.48734375 7 6 C7 6.66 7 7.32 7 8 C4.07120629 7.37240135 1.63904371 6.41377341 -1 5 C-0.67 3.35 -0.34 1.7 0 0 Z " fill="#3DBE73" transform="translate(485,177)"/>
<path d="M0 0 C1.1725131 0.95117134 2.33787015 1.91117009 3.5 2.875 C4.47453125 3.67550781 4.47453125 3.67550781 5.46875 4.4921875 C5.9740625 4.98976563 6.479375 5.48734375 7 6 C7 6.66 7 7.32 7 8 C4.07120629 7.37240135 1.63904371 6.41377341 -1 5 C-0.67 3.35 -0.34 1.7 0 0 Z " fill="#3DBE73" transform="translate(413,105)"/>
<path d="M0 0 C1.1725131 0.95117134 2.33787015 1.91117009 3.5 2.875 C4.47453125 3.67550781 4.47453125 3.67550781 5.46875 4.4921875 C5.9740625 4.98976563 6.479375 5.48734375 7 6 C7 6.66 7 7.32 7 8 C4.07120629 7.37240135 1.63904371 6.41377341 -1 5 C-0.67 3.35 -0.34 1.7 0 0 Z " fill="#3DBE73" transform="translate(389,81)"/>
<path d="M0 0 C1.1725131 0.95117134 2.33787015 1.91117009 3.5 2.875 C4.47453125 3.67550781 4.47453125 3.67550781 5.46875 4.4921875 C5.9740625 4.98976563 6.479375 5.48734375 7 6 C7 6.66 7 7.32 7 8 C4.07120629 7.37240135 1.63904371 6.41377341 -1 5 C-0.67 3.35 -0.34 1.7 0 0 Z " fill="#3DBE73" transform="translate(365,57)"/>
<path d="M0 0 C1.1725131 0.95117134 2.33787015 1.91117009 3.5 2.875 C4.47453125 3.67550781 4.47453125 3.67550781 5.46875 4.4921875 C5.9740625 4.98976563 6.479375 5.48734375 7 6 C7 6.66 7 7.32 7 8 C4.07120629 7.37240135 1.63904371 6.41377341 -1 5 C-0.67 3.35 -0.34 1.7 0 0 Z " fill="#3DBE73" transform="translate(341,33)"/>
<path d="M0 0 C0.66 0.33 1.32 0.66 2 1 C-0.37277818 6.02470674 -3.21097855 7.56030983 -8 10 C-7.1875 8.0625 -7.1875 8.0625 -6 6 C-5.01 5.67 -4.02 5.34 -3 5 C-1.8499169 3.03327085 -1.8499169 3.03327085 -1 1 C-0.67 0.67 -0.34 0.34 0 0 Z " fill="#98DFB4" transform="translate(591,315)"/>
<path d="M0 0 C2.81872737 0.38878998 3.77195598 0.70810365 5.5625 3 C6.036875 3.66 6.51125 4.32 7 5 C7.99 5.33 8.98 5.66 10 6 C10.33 7.65 10.66 9.3 11 11 C3.07765152 4.32386364 3.07765152 4.32386364 0 1 C0 0.67 0 0.34 0 0 Z " fill="#C4EDD3" transform="translate(149,176)"/>
<path d="M0 0 C0.33 0.99 0.66 1.98 1 3 C0.01 3.33 -0.98 3.66 -2 4 C-2.33 4.99 -2.66 5.98 -3 7 C-6.0625 8.6875 -6.0625 8.6875 -9 10 C-7.61811547 6.78956118 -6.07578097 4.95063635 -3.375 2.75 C-2.74335938 2.22921875 -2.11171875 1.7084375 -1.4609375 1.171875 C-0.73777344 0.59179688 -0.73777344 0.59179688 0 0 Z " fill="#A3E2BC" transform="translate(429,478)"/>
<path d="M0 0 C1.9375 1.5 1.9375 1.5 2.6875 5.125 C2.77 6.23875 2.8525 7.3525 2.9375 8.5 C0.28997996 5.92215154 -2.00682065 3.58351902 -4.0625 0.5 C-2.0625 -0.5 -2.0625 -0.5 0 0 Z " fill="#17B65A" transform="translate(427.0625,393.5)"/>
<path d="M0 0 C1.9375 1.5 1.9375 1.5 2.6875 5.125 C2.77 6.23875 2.8525 7.3525 2.9375 8.5 C0.28997996 5.92215154 -2.00682065 3.58351902 -4.0625 0.5 C-2.0625 -0.5 -2.0625 -0.5 0 0 Z " fill="#17B65A" transform="translate(403.0625,369.5)"/>
<path d="M0 0 C1.9375 1.5 1.9375 1.5 2.6875 5.125 C2.77 6.23875 2.8525 7.3525 2.9375 8.5 C0.28997996 5.92215154 -2.00682065 3.58351902 -4.0625 0.5 C-2.0625 -0.5 -2.0625 -0.5 0 0 Z " fill="#17B65A" transform="translate(379.0625,345.5)"/>
<path d="M0 0 C3.98175544 2.10148204 6.35039045 4.36905358 9 8 C7.02 8 5.04 8 3 8 C2.67 6.02 2.34 4.04 2 2 C1.34 2 0.68 2 0 2 C0 1.34 0 0.68 0 0 Z " fill="#26B965" transform="translate(309,338)"/>
<path d="M0 0 C0 0.66 0 1.32 0 2 C-0.61875 1.71125 -1.2375 1.4225 -1.875 1.125 C-6.15866124 -0.41711805 -10.52928212 -1.18398547 -15 -2 C-15 -2.33 -15 -2.66 -15 -3 C-8.78525717 -4.55368571 -5.59690425 -2.92565449 0 0 Z " fill="#BCECD1" transform="translate(312,337)"/>
<path d="M0 0 C1.9375 1.5 1.9375 1.5 2.6875 5.125 C2.77 6.23875 2.8525 7.3525 2.9375 8.5 C0.28997996 5.92215154 -2.00682065 3.58351902 -4.0625 0.5 C-2.0625 -0.5 -2.0625 -0.5 0 0 Z " fill="#17B65A" transform="translate(259.0625,225.5)"/>
<path d="M0 0 C1.9375 1.5 1.9375 1.5 2.6875 5.125 C2.77 6.23875 2.8525 7.3525 2.9375 8.5 C0.28997996 5.92215154 -2.00682065 3.58351902 -4.0625 0.5 C-2.0625 -0.5 -2.0625 -0.5 0 0 Z " fill="#17B65A" transform="translate(235.0625,201.5)"/>
<path d="M0 0 C1.9375 1.5 1.9375 1.5 2.6875 5.125 C2.77 6.23875 2.8525 7.3525 2.9375 8.5 C0.28997996 5.92215154 -2.00682065 3.58351902 -4.0625 0.5 C-2.0625 -0.5 -2.0625 -0.5 0 0 Z " fill="#17B65A" transform="translate(211.0625,177.5)"/>
<path d="M0 0 C1.9375 1.5 1.9375 1.5 2.6875 5.125 C2.77 6.23875 2.8525 7.3525 2.9375 8.5 C0.28997996 5.92215154 -2.00682065 3.58351902 -4.0625 0.5 C-2.0625 -0.5 -2.0625 -0.5 0 0 Z " fill="#17B65A" transform="translate(187.0625,153.5)"/>
<path d="M0 0 C5.11374857 2.77603494 8.77171925 6.15757888 12 11 C8.625 10.3125 8.625 10.3125 5 9 C3.75 6.5 3.75 6.5 3 4 C2.01 3.34 1.02 2.68 0 2 C0 1.34 0 0.68 0 0 Z " fill="#B2E7C6" transform="translate(172,145)"/>
<path d="M0 0 C0.33 0.66 0.66 1.32 1 2 C1.66 2 2.32 2 3 2 C3 4.31 3 6.62 3 9 C2.01 9.33 1.02 9.66 0 10 C0 6.7 0 3.4 0 0 Z " fill="#CBEEDA" transform="translate(432,127)"/>
<path d="M0 0 C1.875 0.3125 1.875 0.3125 4 1 C4.66 1.99 5.32 2.98 6 4 C6.99 4.33 7.98 4.66 9 5 C9.33 6.65 9.66 8.3 10 10 C2.51708428 3.84965831 2.51708428 3.84965831 0 0 Z " fill="#CEF0DA" transform="translate(414,441)"/>
<path d="M0 0 C1.875 0.3125 1.875 0.3125 4 1 C4.66 1.99 5.32 2.98 6 4 C6.99 4.33 7.98 4.66 9 5 C9.33 6.65 9.66 8.3 10 10 C2.51708428 3.84965831 2.51708428 3.84965831 0 0 Z " fill="#CEF0DA" transform="translate(390,417)"/>
<path d="M0 0 C1.875 0.3125 1.875 0.3125 4 1 C4.66 1.99 5.32 2.98 6 4 C6.99 4.33 7.98 4.66 9 5 C9.33 6.65 9.66 8.3 10 10 C2.51708428 3.84965831 2.51708428 3.84965831 0 0 Z " fill="#CEF0DA" transform="translate(366,393)"/>
<path d="M0 0 C1.875 0.3125 1.875 0.3125 4 1 C4.66 1.99 5.32 2.98 6 4 C6.99 4.33 7.98 4.66 9 5 C9.33 6.65 9.66 8.3 10 10 C2.51708428 3.84965831 2.51708428 3.84965831 0 0 Z " fill="#CEF0DA" transform="translate(342,369)"/>
<path d="M0 0 C1.875 0.3125 1.875 0.3125 4 1 C4.66 1.99 5.32 2.98 6 4 C6.99 4.33 7.98 4.66 9 5 C9.33 6.65 9.66 8.3 10 10 C2.51708428 3.84965831 2.51708428 3.84965831 0 0 Z " fill="#CEF0DA" transform="translate(246,273)"/>
<path d="M0 0 C1.875 0.3125 1.875 0.3125 4 1 C4.66 1.99 5.32 2.98 6 4 C6.99 4.33 7.98 4.66 9 5 C9.33 6.65 9.66 8.3 10 10 C2.51708428 3.84965831 2.51708428 3.84965831 0 0 Z " fill="#CEF0DA" transform="translate(222,249)"/>
<path d="M0 0 C1.875 0.3125 1.875 0.3125 4 1 C4.66 1.99 5.32 2.98 6 4 C6.99 4.33 7.98 4.66 9 5 C9.33 6.65 9.66 8.3 10 10 C2.51708428 3.84965831 2.51708428 3.84965831 0 0 Z " fill="#CEF0DA" transform="translate(198,225)"/>
<path d="M0 0 C1.875 0.3125 1.875 0.3125 4 1 C4.66 1.99 5.32 2.98 6 4 C6.99 4.33 7.98 4.66 9 5 C9.33 6.65 9.66 8.3 10 10 C2.51708428 3.84965831 2.51708428 3.84965831 0 0 Z " fill="#CEF0DA" transform="translate(174,201)"/>
<path d="M0 0 C4.6875 3.61328125 4.6875 3.61328125 6 5 C6 5.99 6 6.98 6 8 C4.68 7.67 3.36 7.34 2 7 C2 5.68 2 4.36 2 3 C1.01 3.33 0.02 3.66 -1 4 C-0.67 2.68 -0.34 1.36 0 0 Z " fill="#22B862" transform="translate(255,283)"/>
<path d="M0 0 C0.66 0 1.32 0 2 0 C2 2.64 2 5.28 2 8 C0.02 6.35 -1.96 4.7 -4 3 C-3.34 2.67 -2.68 2.34 -2 2 C-1.34 2.33 -0.68 2.66 0 3 C0 2.01 0 1.02 0 0 Z " fill="#23B863" transform="translate(454,420)"/>
<path d="M0 0 C0.66 0.66 1.32 1.32 2 2 C0.02 4.31 -1.96 6.62 -4 9 C-4.33 7.68 -4.66 6.36 -5 5 C-4.34 5 -3.68 5 -3 5 C-2.5359375 4.0409375 -2.5359375 4.0409375 -2.0625 3.0625 C-1 1 -1 1 0 0 Z " fill="#17B65B" transform="translate(150,418)"/>
<path d="M0 0 C1.65 0 3.3 0 5 0 C1.80331012 2.6486859 -1.39486597 4.93992341 -5 7 C-5 5.35 -5 3.7 -5 2 C-3.68 2 -2.36 2 -1 2 C-0.67 1.34 -0.34 0.68 0 0 Z " fill="#CDF0DB" transform="translate(290,335)"/>
<path d="M0 0 C0.99 0 1.98 0 3 0 C2.1875 1.9375 2.1875 1.9375 1 4 C0.01 4.33 -0.98 4.66 -2 5 C-2 5.66 -2 6.32 -2 7 C-2.66 6.67 -3.32 6.34 -4 6 C-1.125 1.125 -1.125 1.125 0 0 Z " fill="#C0EAD1" transform="translate(239,332)"/>
<path d="M0 0 C0.68359375 1.765625 0.68359375 1.765625 1 4 C-0.21484375 5.921875 -0.21484375 5.921875 -1.9375 7.75 C-2.50339844 8.36359375 -3.06929687 8.9771875 -3.65234375 9.609375 C-4.31943359 10.29773438 -4.31943359 10.29773438 -5 11 C-5 8 -5 8 -3 6 C-2.31246699 4.34183216 -1.64438717 2.67540664 -1 1 C-0.67 0.67 -0.34 0.34 0 0 Z " fill="#42C177" transform="translate(582,321)"/>
<path d="M0 0 C0.66 0 1.32 0 2 0 C2 2.64 2 5.28 2 8 C0.02 6.35 -1.96 4.7 -4 3 C-3.34 2.67 -2.68 2.34 -2 2 C-1.34 2.33 -0.68 2.66 0 3 C0 2.01 0 1.02 0 0 Z " fill="#23B964" transform="translate(286,252)"/>
<path d="M0 0 C0.66 0.33 1.32 0.66 2 1 C-0.65654657 4.73884332 -2.58110387 6.64978174 -7 8 C-3.375 2.25 -3.375 2.25 0 0 Z " fill="#38BF72" transform="translate(456,171)"/>
<path d="M0 0 C0.33 0.66 0.66 1.32 1 2 C-1.77280706 5.08089673 -4.06326356 6.68775452 -8 8 C-3.375 2.25 -3.375 2.25 0 0 Z " fill="#AAE3C0" transform="translate(424,148)"/>
<path d="M0 0 C0.99 0.33 1.98 0.66 3 1 C3.33 1.99 3.66 2.98 4 4 C4.66 4.33 5.32 4.66 6 5 C5.67 5.99 5.34 6.98 5 8 C0 2.25 0 2.25 0 0 Z M7 2 C7 5 7 5 7 5 Z " fill="#1CB65E" transform="translate(340,310)"/>
<path d="M0 0 C2.64 0 5.28 0 8 0 C7.67 1.65 7.34 3.3 7 5 C3.535 3.02 3.535 3.02 0 1 C0 0.67 0 0.34 0 0 Z " fill="#CEF0DC" transform="translate(306,0)"/>
<path d="M0 0 C1.485 0.99 1.485 0.99 3 2 C2.25 6.75 2.25 6.75 0 9 C0 6.03 0 3.06 0 0 Z " fill="#C1E9D3" transform="translate(432,463)"/>
<path d="M0 0 C0.33 0.66 0.66 1.32 1 2 C-0.65 3.65 -2.3 5.3 -4 7 C-4.66 6.67 -5.32 6.34 -6 6 C-2.25 1.125 -2.25 1.125 0 0 Z " fill="#4CC37E" transform="translate(208,419)"/>
<path d="M0 0 C0.33 0.66 0.66 1.32 1 2 C-0.65 3.65 -2.3 5.3 -4 7 C-4.66 6.67 -5.32 6.34 -6 6 C-2.25 1.125 -2.25 1.125 0 0 Z " fill="#4CC37E" transform="translate(232,395)"/>
<path d="M0 0 C1.32 0.33 2.64 0.66 4 1 C3.1875 2.9375 3.1875 2.9375 2 5 C1.01 5.33 0.02 5.66 -1 6 C-1.33 5.01 -1.66 4.02 -2 3 C-1.34 2.01 -0.68 1.02 0 0 Z " fill="#0DB353" transform="translate(172,394)"/>
<path d="M0 0 C0.33 0.66 0.66 1.32 1 2 C-0.65 3.65 -2.3 5.3 -4 7 C-4.66 6.67 -5.32 6.34 -6 6 C-2.25 1.125 -2.25 1.125 0 0 Z " fill="#4CC37E" transform="translate(256,371)"/>
<path d="M0 0 C1.32 0.33 2.64 0.66 4 1 C3.1875 2.9375 3.1875 2.9375 2 5 C1.01 5.33 0.02 5.66 -1 6 C-1.33 5.01 -1.66 4.02 -2 3 C-1.34 2.01 -0.68 1.02 0 0 Z " fill="#0DB353" transform="translate(196,370)"/>
<path d="M0 0 C0.33 0.66 0.66 1.32 1 2 C-0.65 3.65 -2.3 5.3 -4 7 C-4.66 6.67 -5.32 6.34 -6 6 C-2.25 1.125 -2.25 1.125 0 0 Z " fill="#4CC37E" transform="translate(280,347)"/>
<path d="M0 0 C1.32 0.33 2.64 0.66 4 1 C3.1875 2.9375 3.1875 2.9375 2 5 C1.01 5.33 0.02 5.66 -1 6 C-1.33 5.01 -1.66 4.02 -2 3 C-1.34 2.01 -0.68 1.02 0 0 Z " fill="#0DB353" transform="translate(220,346)"/>
<path d="M0 0 C1.32 0.33 2.64 0.66 4 1 C3.1875 2.9375 3.1875 2.9375 2 5 C1.01 5.33 0.02 5.66 -1 6 C-1.33 5.01 -1.66 4.02 -2 3 C-1.34 2.01 -0.68 1.02 0 0 Z " fill="#0DB353" transform="translate(244,322)"/>
<path d="M0 0 C0.33 0.66 0.66 1.32 1 2 C-0.65 3.65 -2.3 5.3 -4 7 C-4.66 6.67 -5.32 6.34 -6 6 C-2.25 1.125 -2.25 1.125 0 0 Z " fill="#4CC37E" transform="translate(376,251)"/>
<path d="M0 0 C0.33 0.99 0.66 1.98 1 3 C-0.8125 5.6875 -0.8125 5.6875 -3 8 C-3.66 8 -4.32 8 -5 8 C-5 7.01 -5 6.02 -5 5 C-4.34 5 -3.68 5 -3 5 C-2.5359375 4.0409375 -2.5359375 4.0409375 -2.0625 3.0625 C-1 1 -1 1 0 0 Z " fill="#12B557" transform="translate(318,250)"/>
<path d="M0 0 C0.33 0.66 0.66 1.32 1 2 C-0.65 3.65 -2.3 5.3 -4 7 C-4.66 6.67 -5.32 6.34 -6 6 C-2.25 1.125 -2.25 1.125 0 0 Z " fill="#4CC37E" transform="translate(400,227)"/>
<path d="M0 0 C1.32 0.33 2.64 0.66 4 1 C3.1875 2.9375 3.1875 2.9375 2 5 C1.01 5.33 0.02 5.66 -1 6 C-1.33 5.01 -1.66 4.02 -2 3 C-1.34 2.01 -0.68 1.02 0 0 Z " fill="#0DB353" transform="translate(340,226)"/>
<path d="M0 0 C0.33 0.66 0.66 1.32 1 2 C-0.65 3.65 -2.3 5.3 -4 7 C-4.66 6.67 -5.32 6.34 -6 6 C-2.25 1.125 -2.25 1.125 0 0 Z " fill="#4CC37E" transform="translate(424,203)"/>
<path d="M0 0 C1.32 0.33 2.64 0.66 4 1 C3.1875 2.9375 3.1875 2.9375 2 5 C1.01 5.33 0.02 5.66 -1 6 C-1.33 5.01 -1.66 4.02 -2 3 C-1.34 2.01 -0.68 1.02 0 0 Z " fill="#0DB353" transform="translate(364,202)"/>
<path d="M0 0 C0.33 0.66 0.66 1.32 1 2 C-0.65 3.65 -2.3 5.3 -4 7 C-4.66 6.67 -5.32 6.34 -6 6 C-2.25 1.125 -2.25 1.125 0 0 Z " fill="#4CC37E" transform="translate(448,179)"/>
<path d="M0 0 C1.32 0.33 2.64 0.66 4 1 C3.1875 2.9375 3.1875 2.9375 2 5 C1.01 5.33 0.02 5.66 -1 6 C-1.33 5.01 -1.66 4.02 -2 3 C-1.34 2.01 -0.68 1.02 0 0 Z " fill="#0DB353" transform="translate(388,178)"/>
<path d="M0 0 C1.32 0.33 2.64 0.66 4 1 C3.1875 2.9375 3.1875 2.9375 2 5 C1.01 5.33 0.02 5.66 -1 6 C-1.33 5.01 -1.66 4.02 -2 3 C-1.34 2.01 -0.68 1.02 0 0 Z " fill="#0DB353" transform="translate(412,154)"/>
<path d="M0 0 C1.98 1.65 3.96 3.3 6 5 C4.02 5.99 4.02 5.99 2 7 C1.34 4.69 0.68 2.38 0 0 Z " fill="#28BA67" transform="translate(407,435)"/>
<path d="M0 0 C1.98 1.65 3.96 3.3 6 5 C4.02 5.99 4.02 5.99 2 7 C1.34 4.69 0.68 2.38 0 0 Z " fill="#28BA67" transform="translate(383,411)"/>
<path d="M0 0 C1.98 1.65 3.96 3.3 6 5 C4.02 5.99 4.02 5.99 2 7 C1.34 4.69 0.68 2.38 0 0 Z " fill="#28BA67" transform="translate(359,387)"/>
<path d="M0 0 C1.98 1.65 3.96 3.3 6 5 C4.02 5.99 4.02 5.99 2 7 C1.34 4.69 0.68 2.38 0 0 Z " fill="#28BA67" transform="translate(335,363)"/>
<path d="M0 0 C1.04005702 3.38018531 1.08004482 6.4780279 1 10 C-0.5625 8.75 -0.5625 8.75 -2 7 C-1.75 5 -1.75 5 -1 3 C-0.67 2.01 -0.34 1.02 0 0 Z " fill="#17B459" transform="translate(2,291)"/>
<path d="M0 0 C1.98 1.65 3.96 3.3 6 5 C4.02 5.99 4.02 5.99 2 7 C1.34 4.69 0.68 2.38 0 0 Z " fill="#28BA67" transform="translate(239,267)"/>
<path d="M0 0 C1.98 1.65 3.96 3.3 6 5 C4.02 5.99 4.02 5.99 2 7 C1.34 4.69 0.68 2.38 0 0 Z " fill="#28BA67" transform="translate(215,243)"/>
<path d="M0 0 C1.98 1.65 3.96 3.3 6 5 C4.02 5.99 4.02 5.99 2 7 C1.34 4.69 0.68 2.38 0 0 Z " fill="#28BA67" transform="translate(191,219)"/>
<path d="M0 0 C1.98 1.65 3.96 3.3 6 5 C4.02 5.99 4.02 5.99 2 7 C1.34 4.69 0.68 2.38 0 0 Z " fill="#28BA67" transform="translate(167,195)"/>
<path d="M0 0 C2.97 0.495 2.97 0.495 6 1 C6.33 2.98 6.66 4.96 7 7 C5.83040013 6.02433888 4.66438823 5.044375 3.5 4.0625 C2.8503125 3.51722656 2.200625 2.97195313 1.53125 2.41015625 C1.0259375 1.94480469 0.520625 1.47945313 0 1 C0 0.67 0 0.34 0 0 Z " fill="#35BD6F" transform="translate(432,404)"/>
<path d="M0 0 C2.97 0.495 2.97 0.495 6 1 C6.33 2.98 6.66 4.96 7 7 C5.83040013 6.02433888 4.66438823 5.044375 3.5 4.0625 C2.8503125 3.51722656 2.200625 2.97195313 1.53125 2.41015625 C1.0259375 1.94480469 0.520625 1.47945313 0 1 C0 0.67 0 0.34 0 0 Z " fill="#35BD6F" transform="translate(408,380)"/>
<path d="M0 0 C2.97 0.495 2.97 0.495 6 1 C6.33 2.98 6.66 4.96 7 7 C5.83040013 6.02433888 4.66438823 5.044375 3.5 4.0625 C2.8503125 3.51722656 2.200625 2.97195313 1.53125 2.41015625 C1.0259375 1.94480469 0.520625 1.47945313 0 1 C0 0.67 0 0.34 0 0 Z " fill="#35BD6F" transform="translate(384,356)"/>
<path d="M0 0 C0.33 1.32 0.66 2.64 1 4 C-2.75 7 -2.75 7 -5 7 C-3.88820837 3.66462511 -2.52588702 2.36292656 0 0 Z " fill="#BDE9CF" transform="translate(598,308)"/>
<path d="M0 0 C1.37562854 1.28965176 2.70766393 2.62689293 4 4 C4 4.66 4 5.32 4 6 C2.68 6.33 1.36 6.66 0 7 C0 4.69 0 2.38 0 0 Z " fill="#C7EED8" transform="translate(0,306)"/>
<path d="M0 0 C2.97 0.495 2.97 0.495 6 1 C6.33 2.98 6.66 4.96 7 7 C5.83040013 6.02433888 4.66438823 5.044375 3.5 4.0625 C2.8503125 3.51722656 2.200625 2.97195312 1.53125 2.41015625 C1.0259375 1.94480469 0.520625 1.47945312 0 1 C0 0.67 0 0.34 0 0 Z " fill="#35BD6F" transform="translate(264,236)"/>
<path d="M0 0 C2.97 0.495 2.97 0.495 6 1 C6.33 2.98 6.66 4.96 7 7 C5.83040013 6.02433888 4.66438823 5.044375 3.5 4.0625 C2.8503125 3.51722656 2.200625 2.97195312 1.53125 2.41015625 C1.0259375 1.94480469 0.520625 1.47945312 0 1 C0 0.67 0 0.34 0 0 Z " fill="#35BD6F" transform="translate(240,212)"/>
<path d="M0 0 C2.97 0.495 2.97 0.495 6 1 C6.33 2.98 6.66 4.96 7 7 C5.83040013 6.02433888 4.66438823 5.044375 3.5 4.0625 C2.8503125 3.51722656 2.200625 2.97195312 1.53125 2.41015625 C1.0259375 1.94480469 0.520625 1.47945312 0 1 C0 0.67 0 0.34 0 0 Z " fill="#35BD6F" transform="translate(216,188)"/>
<path d="M0 0 C2.97 0.495 2.97 0.495 6 1 C6.33 2.98 6.66 4.96 7 7 C5.83040013 6.02433888 4.66438823 5.044375 3.5 4.0625 C2.8503125 3.51722656 2.200625 2.97195312 1.53125 2.41015625 C1.0259375 1.94480469 0.520625 1.47945312 0 1 C0 0.67 0 0.34 0 0 Z " fill="#35BD6F" transform="translate(192,164)"/>
</svg>
