<svg height="512" viewBox="0 0 512 512" width="512" xmlns="http://www.w3.org/2000/svg" xmlns:xlink="http://www.w3.org/1999/xlink"><defs><path id="a" d="m200.636709 4.88218175c33.092038-6.50957584 67.197664-6.50957584 100.289703 0 4.383054.49232091 8.026467 4.23942948 8.7935 8.26004945l12.656061 63.9470075c19.121063 7.2754077 36.982 17.2585807 52.733596 29.7580593l63.855585-21.4980098c4.136505-1.7504742 8.51956-.4923209 11.615091 3.0086275 21.970045 24.2331253 39.80359 53.4988653 50.15855 84.2415663 1.808008 3.993269.520485 8.725019-3.095531 11.241326l-50.67904 42.476348c1.808008 9.490852 2.328498 19.747536 2.328498 29.730709 0 10.037875-.52049 20.267207-2.328498 29.758058l50.67904 42.503701c3.616016 2.488958 4.903539 7.248055 3.095531 11.241326-10.327568 30.7427-28.161107 59.981087-50.131158 84.214214-3.122923 3.500947-7.505978 4.759103-11.642483 3.008627l-63.855585-21.498007c-15.751596 12.499477-33.585136 22.510001-52.706199 29.730706l-12.683458 64.001709c-.767033 4.020621-4.410446 7.740379-8.7935 8.260049-16.546017 2.981276-33.092039 4.731752-50.131153 4.731752-17.066512 0-33.612529-1.750476-50.15855-4.731752-4.383055-.51967-8.026468-4.239428-8.793501-8.260049l-12.65606-64.001709c-19.121063-7.220705-37.50249-17.231229-52.733597-29.730706l-63.8555846 21.498007c-4.1365055 1.750476-8.5195599.49232-11.642483-3.008627-21.9700454-24.233127-39.8035905-53.471514-50.13115818-84.214214-1.80800783-3.993271-.52048457-8.752368 3.09553111-11.241326l50.65164277-42.503701c-1.8080078-9.490851-2.3284924-19.720183-2.3284924-29.758058 0-9.983173.5204846-20.239857 2.3284924-29.730709l-50.65164277-42.476348c-3.61601568-2.516307-4.93093094-7.248057-3.09553111-11.241326 10.32756768-30.742701 28.16111278-60.008441 50.13115818-84.2415663 3.1229231-3.5009484 7.5059775-4.7317504 11.642483-3.0086275l63.8555846 21.4980098c15.231107-12.4994786 33.585136-22.4826516 52.733597-29.7580593l12.65606-63.9470075c.767033-4.02061997 4.410446-7.76772854 8.793501-8.26004945zm50.125108 101.31041025c-84.175041 0-152.3806565 67.080758-152.3806565 149.807408 0 82.726651 68.2056155 149.807407 152.3806565 149.807407 84.175036 0 152.408043-67.080756 152.408043-149.807407 0-82.72665-68.233007-149.807408-152.408043-149.807408zm96.46581 84.385186v44.618736l-73.48807-.001593.000741 107.086561h-45.929576l-.00488-107.086561-73.482449.001593v-44.618736z"/><mask id="b" fill="#fff"><use fill="#fff" fill-rule="evenodd" xlink:href="#a"/></mask></defs><g fill="#512fc9" fill-rule="evenodd"><use fill-rule="nonzero" xlink:href="#a"/><g mask="url(#b)"><path d="m0 0h640v640h-640z"/></g></g></svg>