<?xml version="1.0" encoding="UTF-8"?>
<svg version="1.1" xmlns="http://www.w3.org/2000/svg" width="1200" height="630" preserveAspectRatio="xMidYMid meet" viewBox="0 0 600 315">
<path d="M0 0 C2.5572488 2.256396 5.04518857 4.57134281 7.5234375 6.9140625 C8.7609375 8.03748047 8.7609375 8.03748047 10.0234375 9.18359375 C27.71625479 25.85354504 39.3809454 50.85281163 40.70043945 75.17700195 C41.25126082 105.29222732 41.25126082 105.29222732 36.5234375 119.9140625 C36.20995361 120.92049805 36.20995361 120.92049805 35.89013672 121.94726562 C31.17130038 136.75062636 23.74951164 150.20594863 13.5234375 161.9140625 C12.69779297 162.93693359 12.69779297 162.93693359 11.85546875 163.98046875 C7.07789271 169.77937934 1.4643531 174.34667335 -4.4765625 178.9140625 C-5.25773437 179.5225 -6.03890625 180.1309375 -6.84375 180.7578125 C-23.08777161 192.7904211 -44.21104182 201.60730042 -64.56640625 200.625 C-66.33779499 200.56853044 -68.10928751 200.51524241 -69.88085938 200.46484375 C-72.65285144 200.38472411 -75.4190573 200.28879261 -78.18823242 200.13916016 C-88.87755775 199.13535137 -88.87755775 199.13535137 -98.15991211 203.24462891 C-99.94206123 206.07213841 -101.18983763 208.83736507 -102.4765625 211.9140625 C-112.84988291 225.96893712 -129.50859597 236.092458 -146.640625 239.4765625 C-161.05828423 241.12093911 -174.73671341 240.70219173 -188.4765625 235.9140625 C-190.04568471 235.38763271 -191.61554509 234.8633994 -193.18603516 234.34106445 C-193.99110504 234.07316605 -194.79617493 233.80526764 -195.62564087 233.5292511 C-196.23644501 233.32623886 -196.84724915 233.12322662 -197.4765625 232.9140625 C-198.12358124 233.56330185 -198.77059998 234.2125412 -199.43722534 234.88145447 C-205.52659385 240.99083599 -211.61834753 247.09782684 -217.71281242 253.2021246 C-220.8461661 256.34070331 -223.97858012 259.48020816 -227.10888672 262.62182617 C-230.12819154 265.65197326 -233.14991199 268.67969169 -236.17334366 271.7057209 C-237.32808451 272.86231357 -238.48194291 274.01978796 -239.6349144 275.17814445 C-241.24632741 276.79678562 -242.86081136 278.41230154 -244.47607422 280.02709961 C-245.85507401 281.40943031 -245.85507401 281.40943031 -247.26193237 282.81968689 C-251.00105206 286.35577221 -253.93615519 286.30892152 -258.9296875 286.265625 C-263.09817479 285.69022031 -264.67079398 284.00040787 -267.4765625 280.9140625 C-270.02297587 277.44168063 -269.91186042 274.12194243 -269.4765625 269.9140625 C-266.99669219 265.72537215 -264.15006633 262.34200986 -260.70800781 258.91845703 C-260.01950493 258.22951607 -260.01950493 258.22951607 -259.3170929 257.5266571 C-257.81765508 256.0285987 -256.31128799 254.53772662 -254.8046875 253.046875 C-253.75621522 252.0021378 -252.70818729 250.9569545 -251.6605835 249.91134644 C-248.91629648 247.17465692 -246.16605472 244.44402993 -243.41448975 241.71466064 C-240.60210189 238.92281528 -237.7954419 236.12522445 -234.98828125 233.328125 C-229.48993595 227.85116102 -223.98528126 222.38059488 -218.4765625 216.9140625 C-219.86320926 213.29374769 -221.36038201 210.55153129 -223.7265625 207.4765625 C-235.25180587 191.35565841 -238.30237334 172.01755818 -235.265625 152.68359375 C-231.37369906 134.09097728 -221.92291597 117.37278169 -206.4765625 105.9140625 C-200.43051036 102.00953955 -194.18744005 98.5308199 -187.4765625 95.9140625 C-187.41710449 94.91161499 -187.41710449 94.91161499 -187.35644531 93.88891602 C-185.50908405 64.14486874 -179.46241405 37.95702327 -159.4765625 14.9140625 C-158.48076172 13.70169922 -158.48076172 13.70169922 -157.46484375 12.46484375 C-139.85640899 -8.26819312 -112.90614526 -22.09618147 -85.89990234 -24.89111328 C-54.96042213 -27.37849039 -24.11427198 -20.31075905 0 0 Z M-98.1484375 4.4140625 C-101.95707886 8.50387872 -104.76186154 13.05022328 -107.4765625 17.9140625 C-107.8375 18.54957031 -108.1984375 19.18507813 -108.5703125 19.83984375 C-109.95925951 22.43125877 -110.4765625 23.91807405 -110.4765625 26.9140625 C-100.2465625 26.9140625 -90.0165625 26.9140625 -79.4765625 26.9140625 C-79.4765625 15.3640625 -79.4765625 3.8140625 -79.4765625 -8.0859375 C-85.65008454 -8.0859375 -93.93491547 0.492042 -98.1484375 4.4140625 Z M-64.4765625 -7.0859375 C-64.4765625 4.4640625 -64.4765625 16.0140625 -64.4765625 27.9140625 C-54.2465625 27.9140625 -44.0165625 27.9140625 -33.4765625 27.9140625 C-36.21325528 14.23059859 -45.8603424 3.9407742 -57.1171875 -3.7109375 C-59.8294331 -5.36882389 -59.8294331 -5.36882389 -64.4765625 -7.0859375 Z M-29.4765625 -0.0859375 C-27.31244376 4.34269724 -24.93284515 8.65919033 -22.57421875 12.98632812 C-19.93153344 17.89489001 -17.75836188 22.7800139 -15.4765625 27.9140625 C-8.5465625 27.9140625 -1.6165625 27.9140625 5.5234375 27.9140625 C-3.22419485 16.25055271 -15.21731114 4.66714629 -29.4765625 -0.0859375 Z M-139.8984375 17.1484375 C-143.32895044 20.82844229 -145.92238611 24.5861525 -148.4765625 28.9140625 C-142.2065625 28.9140625 -135.9365625 28.9140625 -129.4765625 28.9140625 C-128.1771875 26.284375 -128.1771875 26.284375 -126.8515625 23.6015625 C-124.28436056 18.45499178 -121.5874797 13.40206815 -118.7734375 8.38671875 C-117.49270557 5.94484131 -116.45370427 3.49058254 -115.4765625 0.9140625 C-123.51534041 0.9140625 -134.51256096 11.87401829 -139.8984375 17.1484375 Z M-160.4765625 43.9140625 C-167.5909348 61.91659228 -167.5909348 61.91659228 -170.4765625 80.9140625 C-159.5865625 80.9140625 -148.6965625 80.9140625 -137.4765625 80.9140625 C-136.5760988 73.22742865 -136.5760988 73.22742865 -135.68212891 65.54003906 C-135.56530762 64.55487305 -135.44848633 63.56970703 -135.328125 62.5546875 C-135.21291504 61.57016602 -135.09770508 60.58564453 -134.97900391 59.57128906 C-134.25964747 54.33515718 -133.34546287 49.12746474 -132.4765625 43.9140625 C-141.7165625 43.9140625 -150.9565625 43.9140625 -160.4765625 43.9140625 Z M-116.4765625 43.9140625 C-118.21569551 48.26189503 -119.24643592 52.22621741 -120.0390625 56.7890625 C-120.16474609 57.45164062 -120.29042969 58.11421875 -120.41992188 58.796875 C-121.7312619 66.21178195 -121.96645217 73.26240754 -122.4765625 80.9140625 C-108.2865625 80.9140625 -94.0965625 80.9140625 -79.4765625 80.9140625 C-79.4765625 68.7040625 -79.4765625 56.4940625 -79.4765625 43.9140625 C-91.6865625 43.9140625 -103.8965625 43.9140625 -116.4765625 43.9140625 Z M-64.4765625 43.9140625 C-64.4765625 56.4540625 -64.4765625 68.9940625 -64.4765625 81.9140625 C-50.2865625 81.9140625 -36.0965625 81.9140625 -21.4765625 81.9140625 C-22.9472591 61.43884194 -22.9472591 61.43884194 -27.4765625 43.9140625 C-39.6865625 43.9140625 -51.8965625 43.9140625 -64.4765625 43.9140625 Z M-10.4765625 43.9140625 C-10.0228125 47.0490625 -9.5690625 50.1840625 -9.1015625 53.4140625 C-7.78524879 62.5694368 -6.59212312 71.73214051 -5.4765625 80.9140625 C5.0834375 80.9140625 15.6434375 80.9140625 26.5234375 80.9140625 C25.87248823 73.75362054 25.2927354 67.94575366 23.2109375 61.2890625 C23.01048828 60.60328125 22.81003906 59.9175 22.60351562 59.2109375 C20.97268453 53.81859198 18.85026909 49.14943357 16.5234375 43.9140625 C7.6134375 43.9140625 -1.2965625 43.9140625 -10.4765625 43.9140625 Z M-122.4765625 95.9140625 C-123.25007824 102.51987548 -123.25007824 102.51987548 -120.5703125 105.06640625 C-119.714375 105.65550781 -118.8584375 106.24460938 -117.9765625 106.8515625 C-117.05875 107.52960938 -116.1409375 108.20765625 -115.1953125 108.90625 C-114.298125 109.56882813 -113.4009375 110.23140625 -112.4765625 110.9140625 C-108.29935261 114.42104842 -104.92719701 117.96542397 -102.28515625 122.75390625 C-101.89134766 123.43702881 -101.49753906 124.12015137 -101.09179688 124.82397461 C-99.9140625 126.9140625 -99.9140625 126.9140625 -98.94335938 128.98657227 C-97.75201328 131.32225523 -97.75201328 131.32225523 -94.4765625 133.9140625 C-89.5265625 133.9140625 -84.5765625 133.9140625 -79.4765625 133.9140625 C-79.4765625 121.3740625 -79.4765625 108.8340625 -79.4765625 95.9140625 C-93.6665625 95.9140625 -107.8565625 95.9140625 -122.4765625 95.9140625 Z M-5.4765625 95.9140625 C-6.1159375 100.6990625 -6.7553125 105.4840625 -7.4140625 110.4140625 C-7.61378662 111.90744141 -7.81351074 113.40082031 -8.01928711 114.93945312 C-8.17921143 116.13763672 -8.33913574 117.33582031 -8.50390625 118.5703125 C-8.74741821 120.39272461 -8.74741821 120.39272461 -8.99584961 122.25195312 C-9.50585317 126.13720119 -9.99052268 130.02574391 -10.4765625 133.9140625 C-1.5665625 133.9140625 7.3434375 133.9140625 16.5234375 133.9140625 C21.90699161 120.87389811 25.32458035 110.30034828 26.5234375 95.9140625 C15.9634375 95.9140625 5.4034375 95.9140625 -5.4765625 95.9140625 Z M-64.4765625 96.9140625 C-64.4765625 109.7840625 -64.4765625 122.6540625 -64.4765625 135.9140625 C-52.2665625 135.9140625 -40.0565625 135.9140625 -27.4765625 135.9140625 C-24.01083754 121.39493734 -24.01083754 121.39493734 -22.2265625 106.8515625 C-21.9790625 103.5721875 -21.7315625 100.2928125 -21.4765625 96.9140625 C-35.6665625 96.9140625 -49.8565625 96.9140625 -64.4765625 96.9140625 Z M-15.4765625 149.9140625 C-18.39223813 155.74432854 -18.39223813 155.74432854 -21.29296875 161.58203125 C-21.86917969 162.74347656 -22.44539062 163.90492188 -23.0390625 165.1015625 C-23.61785156 166.27074219 -24.19664062 167.43992188 -24.79296875 168.64453125 C-26.25296676 171.47984061 -27.7976621 174.20434787 -29.4765625 176.9140625 C-15.42570537 172.66182942 -4.18608816 161.54572188 5.5234375 150.9140625 C5.5234375 150.5840625 5.5234375 150.2540625 5.5234375 149.9140625 C-1.4065625 149.9140625 -8.3365625 149.9140625 -15.4765625 149.9140625 Z M-88.4765625 150.9140625 C-88.67500479 155.09470722 -88.81977745 159.27283249 -88.91601562 163.45678711 C-88.95614121 164.8781713 -89.01066162 166.29922736 -89.08007812 167.71948242 C-89.80679801 175.8796668 -89.80679801 175.8796668 -86.6953125 182.98681641 C-83.33252747 185.14824571 -83.33252747 185.14824571 -79.4765625 185.9140625 C-79.4765625 174.3640625 -79.4765625 162.8140625 -79.4765625 150.9140625 C-82.4465625 150.9140625 -85.4165625 150.9140625 -88.4765625 150.9140625 Z M-63.4765625 150.9140625 C-63.4765625 162.4640625 -63.4765625 174.0140625 -63.4765625 185.9140625 C-49.66604204 179.00880227 -41.77889629 170.19675587 -34.4765625 156.9140625 C-33.8165625 154.9340625 -33.1565625 152.9540625 -32.4765625 150.9140625 C-42.7065625 150.9140625 -52.9365625 150.9140625 -63.4765625 150.9140625 Z " fill="#1465BE" transform="translate(411.4765625,28.0859375)"/>
<path d="M0 0 C13.23162122 10.46221212 22.12850078 24.1302248 24.51953125 40.9921875 C25.07144031 49.85457331 24.45344545 57.60957549 21.51953125 65.9921875 C21.25269531 66.82234375 20.98585938 67.6525 20.7109375 68.5078125 C15.30118226 83.79938731 3.66454824 94.58045678 -10.66821289 101.44799805 C-24.14745263 107.61134425 -39.10739899 107.9303438 -53.203125 103.3125 C-68.83528464 97.0149196 -80.97362947 86.10853666 -88.09912109 70.80395508 C-93.38706798 58.29671517 -93.82967165 42.22425826 -89.91796875 29.2421875 C-88.796875 26.578125 -88.796875 26.578125 -87.48046875 23.9921875 C-86.99449219 22.99445313 -86.50851563 21.99671875 -86.0078125 20.96875 C-78.49924395 6.87465206 -66.387988 -3.01880544 -51.41796875 -8.5078125 C-33.94269684 -13.21431689 -14.87709022 -10.39388912 0 0 Z " fill="#FCFEFD" transform="translate(283.48046875,145.0078125)"/>
<path d="M0 0 C0.88429688 0.42925781 1.76859375 0.85851562 2.6796875 1.30078125 C17.26716812 9.20039136 29.2397048 24.51166009 34.2265625 40.25 C34.48179687 41.1575 34.73703125 42.065 35 43 C35.29648437 43.969375 35.59296875 44.93875 35.8984375 45.9375 C39.48567252 59.1016652 39.37821885 73.0636024 35 86 C34.70198486 86.93175049 34.70198486 86.93175049 34.39794922 87.88232422 C31.30519577 97.46638489 27.49485602 105.17185037 21 113 C20.53078125 113.63035156 20.0615625 114.26070313 19.578125 114.91015625 C10.14124343 127.09483569 -6.2099583 135.60860287 -21.1640625 138.5625 C-35.58172173 140.20687661 -49.26015091 139.78812923 -63 135 C-64.56912221 134.47357021 -66.13898259 133.9493369 -67.70947266 133.42700195 C-68.51454254 133.15910355 -69.31961243 132.89120514 -70.14907837 132.6151886 C-70.75988251 132.41217636 -71.37068665 132.20916412 -72 132 C-72.64701874 132.64923935 -73.29403748 133.2984787 -73.96066284 133.96739197 C-80.05003135 140.07677349 -86.14178503 146.18376434 -92.23624992 152.2880621 C-95.3696036 155.42664081 -98.50201762 158.56614566 -101.63232422 161.70776367 C-104.65162904 164.73791076 -107.67334949 167.76562919 -110.69678116 170.7916584 C-111.85152201 171.94825107 -113.00538041 173.10572546 -114.1583519 174.26408195 C-115.76976491 175.88272312 -117.38424886 177.49823904 -118.99951172 179.11303711 C-119.91884491 180.03459091 -120.8381781 180.95614471 -121.78536987 181.90562439 C-125.52448956 185.44170971 -128.45959269 185.39485902 -133.453125 185.3515625 C-137.62161229 184.77615781 -139.19423148 183.08634537 -142 180 C-144.54641337 176.52761813 -144.43529792 173.20787993 -144 169 C-141.52012969 164.81130965 -138.67350383 161.42794736 -135.23144531 158.00439453 C-134.77244339 157.54510056 -134.31344147 157.08580658 -133.8405304 156.6125946 C-132.34109258 155.1145362 -130.83472549 153.62366412 -129.328125 152.1328125 C-128.27965272 151.0880753 -127.23162479 150.042892 -126.184021 148.99728394 C-123.43973398 146.26059442 -120.68949222 143.52996743 -117.93792725 140.80059814 C-115.12553939 138.00875278 -112.3188794 135.21116195 -109.51171875 132.4140625 C-104.01337345 126.93709852 -98.50871876 121.46653238 -93 116 C-94.38664676 112.37968519 -95.88381951 109.63746879 -98.25 106.5625 C-109.77524337 90.44159591 -112.82581084 71.10349568 -109.7890625 51.76953125 C-105.61160997 31.81288921 -95.01247589 14.31274697 -77.84375 2.90234375 C-53.17312359 -12.30591508 -25.88378894 -12.63004159 0 0 Z M-82.0078125 27.19140625 C-93.80408961 41.46439089 -95.68023147 58.11012805 -94 76 C-91.38000533 90.3718154 -81.83717124 103.66548186 -70 112 C-55.20370722 120.70576657 -39.3730426 124.99473391 -22.3125 120.9375 C-5.80696108 115.51067887 6.66444538 106.51971771 15.37890625 91.35546875 C17.92806235 86.07902276 19.58739706 80.67435418 21 75 C21.19207031 74.35160156 21.38414062 73.70320313 21.58203125 73.03515625 C24.63835768 58.15341726 19.64243718 43.59969372 12 31 C9.24177821 27.38409793 6.2626473 24.16306919 3 21 C2.15501953 20.14148438 2.15501953 20.14148438 1.29296875 19.265625 C-10.65019136 7.99081691 -26.33887337 5.20184267 -42.109375 5.65234375 C-58.47761109 6.53259392 -71.21818412 15.41517761 -82.0078125 27.19140625 Z " fill="#50E5FE" transform="translate(286,129)"/>
<path d="M0 0 C3.28717471 1.56333909 5.59070362 3.31103955 8.25 5.8125 C12.26295079 9.46608206 16.31510732 12.27424426 21 15 C15.76496709 21.34206318 10.018736 27.12740709 4.203125 32.9296875 C3.16259421 33.97089307 2.1222118 35.01224695 1.08197021 36.05374146 C-1.08484749 38.22202466 -3.25344163 40.38851067 -5.42333984 42.55371094 C-8.20652749 45.33116617 -10.98515327 48.11313537 -13.76249313 50.89643669 C-15.90361359 53.04116348 -18.04710099 55.18351186 -20.19132233 57.32513809 C-21.21753615 58.35068469 -22.24300724 59.37697504 -23.26772308 60.4040184 C-24.69396972 61.83279654 -26.12375426 63.25804044 -27.55371094 64.68310547 C-28.36612244 65.49472137 -29.17853394 66.30633728 -30.01556396 67.14254761 C-33.60960802 70.50660955 -36.68892959 70.39287055 -41.453125 70.3515625 C-45.62161229 69.77615781 -47.19423148 68.08634537 -50 65 C-52.54641337 61.52761813 -52.43529792 58.20787993 -52 54 C-49.49949789 49.77071241 -46.61350254 46.36816832 -43.13964844 42.91259766 C-42.67089294 42.44355011 -42.20213745 41.97450256 -41.71917725 41.49124146 C-40.1872747 39.96071878 -38.64843913 38.43738044 -37.109375 36.9140625 C-36.03848254 35.84690496 -34.96803433 34.77930145 -33.89801025 33.71127319 C-31.09453938 30.9154011 -28.28511267 28.1255903 -25.47436523 25.33703613 C-22.60165554 22.48486613 -19.7346714 19.62695336 -16.8671875 16.76953125 C-11.25035185 11.17407918 -5.6272056 5.58502308 0 0 Z " fill="#188AB3" transform="translate(194,244)"/>
<path d="M0 0 C2.75355444 2.43573883 4.20080203 5.01997155 5.84765625 8.2890625 C6.37037109 9.31257812 6.89308594 10.33609375 7.43164062 11.390625 C8.52281279 13.55467422 9.61395843 15.71873682 10.70507812 17.8828125 C11.22650391 18.90375 11.74792969 19.9246875 12.28515625 20.9765625 C12.99490601 22.38542725 12.99490601 22.38542725 13.71899414 23.82275391 C14.81241063 26.13291906 14.81241063 26.13291906 17 27 C17.26683594 26.28328125 17.53367187 25.5665625 17.80859375 24.828125 C19.01880493 21.95536141 20.44166252 19.41024431 22.0625 16.75 C22.58972656 15.87859375 23.11695313 15.0071875 23.66015625 14.109375 C25 12 25 12 26 11 C27.85369611 10.91262355 29.71067541 10.89301847 31.56640625 10.90234375 C32.69111328 10.90556641 33.81582031 10.90878906 34.97460938 10.91210938 C36.15861328 10.92048828 37.34261719 10.92886719 38.5625 10.9375 C39.75037109 10.94201172 40.93824219 10.94652344 42.16210938 10.95117188 C45.10812226 10.96300325 48.05403681 10.97948713 51 11 C51.99 15.455 51.99 15.455 53 20 C52.01942627 19.85691406 52.01942627 19.85691406 51.01904297 19.7109375 C43.61484632 18.81519505 36.02801534 18.12490281 29 21 C22.2680442 27.44262048 18.51335951 36.50210912 15 45 C12.92684918 42.35426467 11.24442998 39.74508203 9.73828125 36.7421875 C9.14370117 35.55689453 9.14370117 35.55689453 8.53710938 34.34765625 C8.13298828 33.53167969 7.72886719 32.71570313 7.3125 31.875 C6.89677734 31.05128906 6.48105469 30.22757813 6.05273438 29.37890625 C5.66021484 28.59128906 5.26769531 27.80367187 4.86328125 26.9921875 C4.50532471 26.27401855 4.14736816 25.55584961 3.77856445 24.81591797 C3 23 3 23 3 21 C2.34 21 1.68 21 1 21 C0.78601563 22.13308594 0.57203125 23.26617187 0.3515625 24.43359375 C-1.36327535 32.15036406 -4.09040578 39.58576667 -6.625 47.0625 C-7.14625345 48.61118679 -7.66709036 50.16001384 -8.1875 51.70898438 C-9.45353377 55.47429156 -10.72519962 59.2376523 -12 63 C-14.63362739 59.78909241 -16.25286975 56.49883456 -17.91796875 52.703125 C-18.44970703 51.49785156 -18.98144531 50.29257813 -19.52929688 49.05078125 C-20.08214326 47.78390304 -20.63487622 46.51697533 -21.1875 45.25 C-21.75148045 43.96723999 -22.31592874 42.68468557 -22.88085938 41.40234375 C-24.25852234 38.2702211 -25.63137343 35.13607924 -27 32 C-29.83706816 35.47464034 -32.14676349 38.84503113 -34.25 42.8125 C-34.77078125 43.78832031 -35.2915625 44.76414063 -35.828125 45.76953125 C-36.21484375 46.50558594 -36.6015625 47.24164063 -37 48 C-40.63 48 -44.26 48 -48 48 C-48.66 45.36 -49.32 42.72 -50 40 C-48.8346875 40.10441406 -47.669375 40.20882812 -46.46875 40.31640625 C-43.06994399 39.8915555 -42.17355359 39.22171042 -40.02734375 36.47998047 C-38.04806465 33.02605579 -36.24209679 29.51419018 -34.5 25.9375 C-33.86468258 24.68807479 -33.22668739 23.44000734 -32.5859375 22.19335938 C-31.03041817 19.1412419 -29.50362318 16.07792678 -28 13 C-27.01 13 -26.02 13 -25 13 C-21.37 21.25 -17.74 29.5 -14 38 C-12.15886717 35.23830075 -11.4322983 33.44279105 -10.5625 30.3125 C-9.50052603 26.50759896 -8.21764495 22.84885453 -6.8137207 19.16088867 C-5.42073065 15.46171226 -4.1214073 11.72957784 -2.8125 8 C-2.40354492 6.83791016 -2.40354492 6.83791016 -1.98632812 5.65234375 C-1.32348918 3.76848571 -0.66163914 1.88427976 0 0 Z " fill="#79BD33" transform="translate(247,164)"/>
</svg>
