<?xml version="1.0" encoding="UTF-8" standalone="no"?>
<!-- Created with Inkscape (http://www.inkscape.org/) -->

<svg
   xmlns:dc="http://purl.org/dc/elements/1.1/"
   xmlns:cc="http://creativecommons.org/ns#"
   xmlns:rdf="http://www.w3.org/1999/02/22-rdf-syntax-ns#"
   xmlns:svg="http://www.w3.org/2000/svg"
   xmlns="http://www.w3.org/2000/svg"
   xmlns:sodipodi="http://sodipodi.sourceforge.net/DTD/sodipodi-0.dtd"
   xmlns:inkscape="http://www.inkscape.org/namespaces/inkscape"
   viewBox="0 0 30 30"
   id="svg2"
   version="1.1"
   width="30"
   height="30"
   xml:space="preserve"
   sodipodi:docname="Symantec_logo.svg"><metadata
     id="metadata8"><rdf:RDF><cc:Work
         rdf:about=""><dc:format>image/svg+xml</dc:format><dc:type
           rdf:resource="http://purl.org/dc/dcmitype/StillImage" /><dc:title></dc:title></cc:Work></rdf:RDF></metadata><defs
     id="defs6" /><path
     style="fill:#fdb511;fill-opacity:1;stroke:none"
     d="m 25.187617,2.8125 0,0.75 0.75,0 0,-0.75 -0.75,0 z m 0,1.5 0,0.75 0.75,0 0,-0.75 -0.75,0 z m -2.25,0.75 0,0.75 0.75,0 0,-0.75 -0.75,0 z"
     id="rect3886" /><path
     id="path3095"
     d="m 13.125117,5.625 c -5.9552608,0 -10.7812498,4.82599 -10.7812498,10.78125 0,5.95526 4.825989,10.78125 10.7812498,10.78125 5.955261,0 10.78125,-4.82599 10.78125,-10.78125 0,-5.95526 -4.825989,-10.78125 -10.78125,-10.78125 z m 0,3.4375 c 4.052033,0 7.34375,3.29172 7.34375,7.34375 0,4.05203 -3.291717,7.34375 -7.34375,7.34375 -4.0520328,0 -7.3124998,-3.29172 -7.3124998,-7.34375 0,-4.05203 3.260467,-7.34375 7.3124998,-7.34375 z"
     style="fill:#fdb511;fill-opacity:1;stroke:none" /><path
     style="fill:#000000;fill-opacity:1;stroke:none"
     d="m 16.187617,11.0625 c -1.95762,2.44669 -2.450968,3.52102 -3.230863,5.49922 -0.884861,-1.78973 -1.940888,-3.02489 -3.7691368,-3.84297 -0.346336,-0.0884 -0.516645,-0.13968 -0.75,0.1875 -0.233355,0.32718 -0.09186,0.62155 0.1875,0.96875 0.732065,0.90983 1.5547388,1.75045 2.1249998,2.78125 0.668542,1.20845 1.500906,3.20015 1.78125,3.71875 0.222965,0.41246 0.762201,0.59375 0.96875,0.59375 1.106413,-0.13093 1.106798,-0.69341 1.317703,-1.66845 0.342006,-1.59892 0.784957,-3.25193 2.869797,-5.2378 l 0,-3 -1.5,0 z"
     id="path3876"
     sodipodi:nodetypes="cccssssccccc" /><path
     style="fill:#000000;fill-opacity:1;stroke:none"
     d="m 24.437617,3.5625 0,0.75 0.75,0 0,-0.75 -0.75,0 z m 0,0.75 -1.5,0 0,0.75 1.5,0 0,-0.75 z m -1.5,0.75 -0.75,0 0,1.5 0.75,0 0,-1.5 z m 0,1.5 0,0.75 0.75,0 0,-0.75 -0.75,0 z m 0.75,0 0.75,0 0,-0.75 -0.75,0 0,0.75 z m -0.75,0.75 -0.75,0 0,0.75 -0.75,0 0,-0.75 -1.5,0 0,0.75 -0.75,0 0,0.75 0.75,0 0,0.75 -0.75,0 0,-0.75 -0.75,0 0,0.75 -0.75,0 0,0.75 -0.75,0 0,3 1.5,0 0,-0.75 0.75,0 0,-0.75 0.75,0 0,-0.75 -0.75,0 0,-0.75 0.75,0 0,0.75 0.75,0 0,-0.75 0.75,0 0,-0.75 0.75,0 0,-0.75 0.75,0 0,-1.5 z m -1.5,0 0.75,0 0,-0.75 -0.75,0 0,0.75 z m 0,-0.75 0,-0.75 -0.75,0 0,0.75 0.75,0 z"
     id="rect3951" /></svg>
