<?xml version="1.0" encoding="UTF-8"?>
<svg version="1.1" xmlns="http://www.w3.org/2000/svg" width="104" height="104">
<path d="M0 0 C1.15623619 -0.00021904 1.15623619 -0.00021904 2.33583069 -0.0004425 C4.88976838 0.0002555 7.4436336 0.00804264 9.99755859 0.01586914 C11.76589925 0.01773372 13.53424043 0.01915743 15.30258179 0.02015686 C19.96164369 0.02397889 24.62067452 0.03380651 29.27972412 0.04486084 C34.03201884 0.0550817 38.78431856 0.05965593 43.53662109 0.06469727 C52.86475976 0.07542905 62.19287535 0.09250172 71.52099609 0.11352539 C71.29210693 0.78391846 71.06321777 1.45431152 70.82739258 2.14501953 C70.53936768 3.03310303 70.25134277 3.92118652 69.95458984 4.83618164 C69.66382568 5.71282471 69.37306152 6.58946777 69.07348633 7.49267578 C68.20340879 11.62006524 69.32857484 14.60565139 71.52099609 18.11352539 C74.44520317 21.23940192 77.28620932 21.95372212 81.52099609 22.11352539 C83.10560133 21.66830347 84.67506655 21.16678181 86.22802734 20.62133789 C87.03344971 20.34177246 87.83887207 20.06220703 88.66870117 19.77416992 C89.2799585 19.55615723 89.89121582 19.33814453 90.52099609 19.11352539 C90.63687917 29.32737034 90.72570597 39.54105875 90.78005695 49.75542736 C90.80614376 54.49848346 90.84152485 59.24108959 90.89819336 63.98388672 C90.95254618 68.5615563 90.98242353 73.13879326 90.99538231 77.71676064 C91.00461636 79.46270877 91.02264871 81.20863339 91.04964638 82.9543972 C91.08598173 85.40143238 91.0909398 87.84668349 91.08862305 90.29394531 C91.10659943 91.01467728 91.12457581 91.73540924 91.14309692 92.47798157 C91.10439104 96.25992874 90.60039174 98.00730304 88.31359863 101.06677246 C85.25384298 103.30932713 84.00050422 103.72741507 80.27172852 103.68115234 C79.25104782 103.68077469 78.23036713 103.68039703 77.17875671 103.68000793 C76.0890004 103.65420151 74.99924408 103.62839508 73.87646484 103.60180664 C72.75154129 103.5947319 71.62661774 103.58765717 70.46760559 103.58036804 C66.8805546 103.55241683 63.29507397 103.48967256 59.70849609 103.42602539 C57.27427387 103.40094366 54.84002714 103.37813028 52.40576172 103.35766602 C46.4436389 103.30258765 40.48242969 103.21895244 34.52099609 103.11352539 C37.05673753 100.55340816 39.62007466 98.16007083 42.39599609 95.86352539 C50.89414945 88.43948807 56.44534964 79.50088208 57.54052734 68.15649414 C57.51966112 65.97388736 57.05305177 64.22609939 56.52099609 62.11352539 C55.76701534 53.32532353 55.96620393 43.89508597 60.52099609 36.11352539 C63.98847265 33.65386216 67.44244757 32.25973817 71.52099609 31.11352539 C70.48652344 31.09225586 70.48652344 31.09225586 69.43115234 31.07055664 C64.27685259 30.80895295 60.38930701 30.3688863 55.95849609 27.61352539 C51.21589717 24.72745985 47.09048558 23.58391136 41.52099609 24.11352539 C35.1953685 25.76121881 31.29704812 28.79675684 27.64599609 34.17602539 C24.79129725 39.07548527 23.12432088 43.97661112 21.83349609 49.48461914 C20.25265036 52.65101551 18.44049558 53.46367793 15.35302734 55.03417969 C12.25022823 56.86220139 10.23982821 59.51230032 8.02099609 62.30102539 C7.31390503 63.16159546 7.31390503 63.16159546 6.5925293 64.03955078 C3.90325082 67.32971851 1.29466818 70.67925335 -1.29150391 74.05102539 C-4.1146164 77.72921523 -7.04130013 80.99560801 -10.47900391 84.11352539 C-11.13900391 84.11352539 -11.79900391 84.11352539 -12.47900391 84.11352539 C-12.54858086 74.17764175 -12.60185427 64.24181629 -12.63444042 54.30573845 C-12.65008187 49.69177507 -12.67129232 45.07797864 -12.70532227 40.46411133 C-12.73797002 36.0096587 -12.75586837 31.55536644 -12.76363564 27.10080338 C-12.76916943 25.40317384 -12.77997563 23.70555287 -12.79619408 22.00799179 C-12.81804064 19.62614879 -12.82096786 17.24496453 -12.81958008 14.86303711 C-12.83036591 14.1646019 -12.84115173 13.46616669 -12.8522644 12.74656677 C-12.82339576 8.15349118 -11.90350098 5.01118454 -9.47900391 1.11352539 C-6.45136061 -0.40029626 -3.31998838 -0.01631713 0 0 Z " fill="#37D37E" transform="translate(12.47900390625,-0.113525390625)"/>
<path d="M0 0 C2.50160818 1.87620613 3.61945652 3.23891303 5 6 C5.39447548 10.18144011 5.45035186 12.30946048 3.125 15.875 C0.34775111 18.65224889 -0.4012489 18.96673605 -4.375 19.1875 C-7.70738978 19.01513501 -9.32694535 18.88103846 -12 17 C-14.68990329 12.96514506 -14.77993882 9.73771348 -14 5 C-10.50967735 -0.51696161 -6.1041246 -1.26646324 0 0 Z " fill="#FF2E2E" transform="translate(98,0)"/>
</svg>
