<svg width="119" height="40" viewBox="0 0 119 40" fill="none" xmlns="http://www.w3.org/2000/svg">
  <g clip-path="url(#clip0_5101_9809)">
    <path d="M87.989 28.2953H85.5299V26.9658C84.5207 28.0023 83.0662 28.6013 81.3065 28.6013C78.2559 28.6013 75.5342 26.183 75.5342 22.5668C75.5342 18.9737 78.2559 16.5322 81.3065 16.5322C83.0663 16.5322 84.5207 17.1312 85.5299 18.1678V16.8547H87.989V28.2953ZM85.4411 22.5668C85.4411 20.2274 83.5848 18.7424 81.7057 18.7424C79.6198 18.7424 77.9929 20.2274 77.9929 22.5668C77.9929 24.9288 79.6198 26.3912 81.7057 26.3912C83.5847 26.3912 85.4411 24.9288 85.4411 22.5668Z" fill="black"/>
    <path d="M117.278 28.2973H114.818V26.9656C113.809 28.0021 112.355 28.6011 110.595 28.6011C107.544 28.6011 104.823 26.1828 104.823 22.5665C104.823 18.9735 107.544 16.532 110.595 16.532C112.355 16.532 113.809 17.131 114.818 18.1675V11.3975H117.278V28.2973ZM114.73 22.5666C114.73 20.2272 112.873 18.7421 110.994 18.7421C108.908 18.7421 107.281 20.2272 107.281 22.5666C107.281 24.9286 108.908 26.391 110.994 26.391C112.873 26.391 114.73 24.9286 114.73 22.5666Z" fill="black"/>
    <path d="M102.363 21.3384V28.2955H99.9038V21.8264C99.9038 19.943 98.7905 18.6877 97.1085 18.6877C95.0004 18.6877 93.6027 20.0826 93.6027 22.989V28.2955H91.1436V16.8549H93.6027V18.1992C94.5504 17.0834 95.9242 16.4553 97.6773 16.4553C100.496 16.4554 102.363 18.4549 102.363 21.3384Z" fill="black"/>
    <path d="M53.3044 11.3975H50.8452V28.2951H53.3044V11.3975Z" fill="black"/>
    <path d="M62.8913 21.7661L60.0965 21.1614C59.0544 20.9291 58.675 20.5104 58.675 19.8593C58.675 19.0457 59.3149 18.3478 60.7598 18.3478C62.2757 18.3478 63.2468 19.1155 63.4362 20.2312H65.8946C65.6814 17.7732 63.4428 16.418 60.8309 16.418C58.0122 16.418 56.2158 17.9314 56.2158 20.0706C56.2158 21.6983 57.349 22.7657 59.386 23.2074L61.9441 23.7189C63.0335 23.9517 63.5312 24.3934 63.5312 25.0908C63.5312 25.9976 62.6307 26.6257 61.2097 26.6257C59.6698 26.6257 58.3986 26.0444 58.2331 24.6725H55.7739C55.7837 24.8077 55.6515 28.6019 60.9964 28.6019C63.9339 28.6019 65.9867 27.296 65.9867 24.8777C65.9867 23.2505 64.7867 22.1615 62.8913 21.7661Z" fill="black"/>
    <path d="M73.978 25.8811V25.883C73.0588 25.8888 72.3411 25.8665 71.6274 25.1659C70.8923 24.4444 70.9015 23.744 70.9015 22.8272V11.3975H68.4424V22.8512C68.4437 24.3425 68.6217 25.6273 69.8993 26.8814C71.1161 28.0758 72.4201 28.301 73.8699 28.2955L74.5941 28.2951V25.8812L73.978 25.8811Z" fill="black"/>
    <path d="M20.091 38.117C30.2807 38.117 38.541 30.0057 38.541 19.9999C38.541 9.99411 30.2807 1.88281 20.091 1.88281C9.90143 1.88281 1.64111 9.99411 1.64111 19.9999C1.64111 30.0057 9.90143 38.117 20.091 38.117Z" fill="white"/>
    <path d="M4.56833 22.7574C4.61506 21.9766 4.93949 21.1828 5.57184 20.7069C6.32196 20.1424 7.34204 20.1137 8.28723 20.1089C12.2218 20.0888 16.1565 20.0796 20.0911 20.0812C24.0257 20.082 27.9603 20.0912 31.8949 20.1089C32.84 20.1137 33.8601 20.1424 34.6103 20.7069C35.2426 21.1828 35.567 21.9766 35.6138 22.7574C35.6334 23.4369 35.5277 24.1143 35.3018 24.7569C36.0622 22.4087 36.2476 19.9175 35.843 17.4857C35.4385 15.054 34.4553 12.7502 32.9734 10.7614C31.4915 8.77266 29.5526 7.15504 27.3142 6.03995C25.0758 4.92486 22.601 4.34372 20.0909 4.34375C17.5807 4.34378 15.106 4.92496 12.8676 6.0401C10.6292 7.15525 8.69038 8.7729 7.2085 10.7617C5.72661 12.7505 4.74349 15.0543 4.33898 17.4861C3.93447 19.9179 4.11997 22.409 4.88042 24.7572C4.65448 24.1145 4.54875 23.437 4.56833 22.7574Z" fill="url(#paint0_linear_5101_9809)"/>
    <path d="M35.6137 22.7571C35.567 21.9763 35.2426 21.1826 34.6102 20.7067C33.8601 20.1421 32.84 20.1135 31.8948 20.1086C27.9602 20.0886 24.0256 20.0794 20.091 20.081C16.1563 20.0817 12.2217 20.0909 8.28719 20.1086C7.34203 20.1134 6.32195 20.1421 5.57181 20.7067C4.93946 21.1826 4.61503 21.9763 4.5683 22.7571C4.52157 23.5379 4.72269 24.313 4.97877 25.0537C5.68946 27.1099 6.82788 28.9987 8.32179 30.6001C9.81569 32.2015 11.6324 33.4805 13.6567 34.356C15.681 35.2315 17.8686 35.6843 20.0807 35.6857C22.2927 35.6871 24.4809 35.2371 26.5063 34.3642C28.5279 33.479 30.3428 32.196 31.8387 30.5945C33.3347 28.993 34.4798 27.1072 35.2033 25.0537C35.4594 24.313 35.6605 23.538 35.6137 22.7571Z" fill="url(#paint1_radial_5101_9809)"/>
  </g>
  <defs>
    <linearGradient id="paint0_linear_5101_9809" x1="20.091" y1="3.57467" x2="20.091" y2="20.7083" gradientUnits="userSpaceOnUse">
      <stop stop-color="#136342"/>
      <stop offset="0.171" stop-color="#176846" stop-opacity="0.9417"/>
      <stop offset="0.3948" stop-color="#227653" stop-opacity="0.7758"/>
      <stop offset="0.6479" stop-color="#61CB95" stop-opacity="0.5"/>
      <stop offset="0.9206" stop-color="#7AEDB0" stop-opacity="0.12"/>
      <stop offset="1" stop-color="#64D099" stop-opacity="0"/>
    </linearGradient>
    <radialGradient id="paint1_radial_5101_9809" cx="0" cy="0" r="1" gradientUnits="userSpaceOnUse" gradientTransform="translate(8.48226 19.9878) rotate(-179.804) scale(28.4991 18.911)">
      <stop stop-color="#68D59D"/>
      <stop offset="1" stop-color="#136342"/>
    </radialGradient>
    <clipPath id="clip0_5101_9809">
      <rect width="118.919" height="37.7358" fill="white" transform="translate(0 1.13184)"/>
    </clipPath>
  </defs>
</svg>
