<?xml version="1.0" encoding="UTF-8"?>
<svg version="1.1" xmlns="http://www.w3.org/2000/svg" width="204" height="192">
<path d="M0 0 C3.83950446 1.91975223 5.78781254 3.54473627 8.76855469 6.54150391 C9.22755661 7.00021378 9.68655853 7.45892365 10.1594696 7.93153381 C11.66839675 9.4418491 13.17012454 10.95911388 14.671875 12.4765625 C15.71947224 13.5278917 16.76751328 14.57877885 17.815979 15.62924194 C20.5691252 18.39001016 23.31621127 21.15673249 26.06207275 23.92474365 C29.36069623 27.24746121 32.66680844 30.56272556 35.97166443 33.87924194 C40.98686575 38.91381214 45.99246896 43.95774802 51 49 C51.33 35.14 51.66 21.28 52 7 C61.55403813 11.77701907 70.9749165 17.61454538 75 28 C76.97851705 36.31007785 77.01935539 44.81331873 77.0625 53.3125 C77.08896606 54.41513184 77.11543213 55.51776367 77.1427002 56.65380859 C77.31549409 67.27964906 77.41073682 76.58007307 69.84312439 84.68754578 C67.02294127 87.34096933 64.12242576 89.70821547 61 92 C55.98075918 89.42072654 52.42558885 85.68083004 48.51171875 81.70703125 C47.80852005 81.00100266 47.10532135 80.29497406 46.3808136 79.56755066 C44.14495482 77.32053349 41.91616684 75.06664831 39.6875 72.8125 C38.16908164 71.28404625 36.65020645 69.75604619 35.13085938 68.22851562 C31.41526391 64.49091739 27.70544316 60.74766198 24 57 C24.02966354 57.87235794 24.05932709 58.74471588 24.08988953 59.64350891 C24.35495343 67.95229864 24.52472493 76.25680182 24.59327984 84.56962299 C24.63172291 88.84209381 24.70416534 93.10777711 24.8605957 97.37768555 C25.96735512 128.69112541 25.96735512 128.69112541 16.27949524 139.3679657 C6.07646714 149 6.07646714 149 0 149 C0 99.83 0 50.66 0 0 Z " fill="#0292D1" transform="translate(105,43)"/>
<path d="M0 0 C0 49.17 0 98.34 0 149 C-7.87304638 142.25167453 -7.87304638 142.25167453 -11.20361328 138.89404297 C-11.94773468 138.14661835 -12.69185608 137.39919373 -13.45852661 136.62911987 C-14.62761063 135.44758835 -14.62761063 135.44758835 -15.8203125 134.2421875 C-16.64199921 133.41671417 -17.46368591 132.59124084 -18.31027222 131.74075317 C-20.91762787 129.12125429 -23.52171127 126.49854028 -26.125 123.875 C-29.56220498 120.41116476 -33.00272716 116.95067451 -36.4453125 113.4921875 C-37.22875031 112.70045135 -38.01218811 111.90871521 -38.81936646 111.09298706 C-42.40817263 107.48811373 -45.99627891 104.1476401 -50 101 C-50.495 100.01 -50.495 100.01 -51 99 C-51.33 113.19 -51.66 127.38 -52 142 C-61.55403813 137.22298093 -70.9749165 131.38545462 -75 121 C-76.97851705 112.68992215 -77.01935539 104.18668127 -77.0625 95.6875 C-77.08896606 94.58486816 -77.11543213 93.48223633 -77.1427002 92.34619141 C-77.31549409 81.72035094 -77.41073682 72.41992693 -69.84312439 64.31245422 C-67.02294127 61.65903067 -64.12242576 59.29178453 -61 57 C-57.95418514 58.36113013 -55.86160974 59.89330096 -53.51660156 62.25634766 C-52.85621887 62.91688141 -52.19583618 63.57741516 -51.51544189 64.25796509 C-50.81425232 64.96947723 -50.11306274 65.68098938 -49.390625 66.4140625 C-48.30041046 67.50852188 -48.30041046 67.50852188 -47.18817139 68.62509155 C-44.87070802 70.9537388 -42.5603005 73.28924826 -40.25 75.625 C-38.67884556 77.20618653 -37.10723629 78.78692125 -35.53515625 80.3671875 C-31.68481347 84.2395669 -27.84023883 88.11760171 -24 92 C-24.02966354 91.12764206 -24.05932709 90.25528412 -24.08988953 89.35649109 C-24.35495343 81.04770136 -24.52472493 72.74319818 -24.59327984 64.43037701 C-24.63172291 60.15790619 -24.70416534 55.89222289 -24.8605957 51.62231445 C-25.96735512 20.30887459 -25.96735512 20.30887459 -16.27949524 9.6320343 C-6.07646714 0 -6.07646714 0 0 0 Z " fill="#0392D1" transform="translate(99,0)"/>
<path d="M0 0 C1.62434516 1.39148212 3.24841313 2.78328865 4.87136841 4.1763916 C6.29144575 5.39297834 7.71420619 6.60644012 9.13961792 7.81677246 C46.9056027 40.00301746 46.9056027 40.00301746 48.5625 55.13671875 C49.05437032 63.18601689 47.93049673 71.19500552 46 79 C41.9431163 78.46429886 39.76272856 77.36089836 36.66870117 74.70996094 C35.43830109 73.65600883 35.43830109 73.65600883 34.18304443 72.58076477 C29.44969856 68.37396327 24.77642632 64.11396751 20.1875 59.75 C19.70748158 59.29609516 19.22746315 58.84219032 18.73289871 58.37453079 C-1.9619942 38.69724178 -1.9619942 38.69724178 -2.85575867 23.43685913 C-2.90565405 15.51472398 -1.82406087 7.69801598 0 0 Z " fill="#0591CF" transform="translate(53,113)"/>
<path d="M0 0 C4.06487536 0.53494794 6.2380387 1.64262042 9.33129883 4.3059082 C10.15156555 5.01173035 10.97183228 5.71755249 11.81695557 6.44476318 C16.54781959 10.66661227 21.22174735 14.93861036 25.8125 19.3125 C26.29251842 19.76726086 26.77253685 20.22202171 27.26710129 20.6905632 C47.96187094 40.40042016 47.96187094 40.40042016 48.85575867 55.27409363 C48.90552402 62.96305357 47.8280984 70.54286766 46 78 C42.50116255 76.41987986 41.69563342 75.39126684 40 72 C38.6737654 71.31932093 37.33924751 70.65470476 36 70 C0.95569783 43.85655468 0.95569783 43.85655468 -2.12750244 26.48815918 C-3.03014765 17.58458258 -1.94959565 8.70152862 0 0 Z " fill="#0391D1" transform="translate(105,0)"/>
<path d="M0 0 C6.18134869 5.10448822 11.79822878 10.68294942 17.4375 16.375 C18.35982422 17.30183594 19.28214844 18.22867188 20.23242188 19.18359375 C22.49058625 21.45345846 24.74636942 23.72563538 27 26 C21.89551178 32.18134869 16.31705058 37.79822878 10.625 43.4375 C9.23474609 44.82098633 9.23474609 44.82098633 7.81640625 46.23242188 C5.54654154 48.49058625 3.27436462 50.74636942 1 53 C0.34 52.67 -0.32 52.34 -1 52 C-1.02526739 44.75513449 -1.0428318 37.51028026 -1.05493164 30.26538086 C-1.05997356 27.79857967 -1.06680691 25.33178148 -1.07543945 22.86499023 C-1.08751125 19.32795471 -1.09322956 15.79095855 -1.09765625 12.25390625 C-1.10281754 11.14350479 -1.10797882 10.03310333 -1.11329651 8.88905334 C-1.11337204 7.86807053 -1.11344757 6.84708771 -1.11352539 5.79516602 C-1.115746 4.89137711 -1.11796661 3.9875882 -1.12025452 3.05641174 C-1 1 -1 1 0 0 Z " fill="#0192D3" transform="translate(134,113)"/>
<path d="M0 0 C0.66 0.33 1.32 0.66 2 1 C2 17.83 2 34.66 2 52 C-2.29520298 50.92619926 -3.09971604 49.95780932 -5.72265625 46.609375 C-9.08165754 42.37723882 -13.19120316 38.95669275 -17.29296875 35.48046875 C-20.64608875 32.57238528 -23.53717648 29.69423528 -26 26 C-17.42 17.42 -8.84 8.84 0 0 Z " fill="#0491CF" transform="translate(69,26)"/>
<path d="M0 0 C0 49.17 0 98.34 0 149 C-7.875 142.25 -7.875 142.25 -11 138 C-7.33759908 139.56960039 -6.06096354 140.93903646 -3 144 C-3 97.47 -3 50.94 -3 3 C-3.99 4.98 -4.98 6.96 -6 9 C-8 10.1875 -8 10.1875 -10 11 C-10.474375 11.474375 -10.94875 11.94875 -11.4375 12.4375 C-13.43121769 14.43121769 -15.50865723 15.69204505 -18 17 C-18.99 17 -19.98 17 -21 17 C-18.26637382 14.15046664 -15.51057342 11.32341574 -12.75 8.5 C-11.97269531 7.68917969 -11.19539063 6.87835937 -10.39453125 6.04296875 C-9.64042969 5.27597656 -8.88632813 4.50898437 -8.109375 3.71875 C-7.41811523 3.00654297 -6.72685547 2.29433594 -6.01464844 1.56054688 C-4 0 -4 0 0 0 Z " fill="#2285B3" transform="translate(99,0)"/>
<path d="M0 0 C4.06026821 2.03013411 6.65457376 4.42395554 9.75 7.625 C10.25660156 8.140625 10.76320313 8.65625 11.28515625 9.1875 C12.52803902 10.45383339 13.76465276 11.7263144 15 13 C12 14 12 14 9 13 C7 10 7 10 6 7.875 C5.14139842 5.82955462 5.14139842 5.82955462 3 5 C3 51.2 3 97.4 3 145 C4.65 144.67 6.3 144.34 8 144 C6.25 146.5 6.25 146.5 4 149 C2.68 149 1.36 149 0 149 C0 99.83 0 50.66 0 0 Z " fill="#2086B6" transform="translate(105,43)"/>
<path d="M0 0 C2.31 1.98 4.62 3.96 7 6 C7.85207031 6.71285156 8.70414063 7.42570312 9.58203125 8.16015625 C10.31808594 8.78792969 11.05414063 9.41570312 11.8125 10.0625 C12.56144531 10.69285156 13.31039062 11.32320312 14.08203125 11.97265625 C16.19829936 14.20960767 16.93969515 16.14085342 18 19 C15.19151503 21.83733775 12.37756077 24.66918749 9.5625 27.5 C8.76005859 28.31082031 7.95761719 29.12164062 7.13085938 29.95703125 C6.36708984 30.72402344 5.60332031 31.49101563 4.81640625 32.28125 C4.10943604 32.99345703 3.40246582 33.70566406 2.67407227 34.43945312 C1 36 1 36 0 36 C0 24.12 0 12.24 0 0 Z " fill="#0591CF" transform="translate(186,78)"/>
<path d="M0 0 C0 11.88 0 23.76 0 36 C-4.50789276 32.13609192 -8.79767029 28.33926648 -12.9375 24.125 C-13.43056641 23.62742187 -13.92363281 23.12984375 -14.43164062 22.6171875 C-15.62345992 21.41379715 -16.81208678 20.20724635 -18 19 C-16.43318617 15.15418425 -13.97800403 12.84459634 -11 10 C-10.12859375 9.11699219 -9.2571875 8.23398438 -8.359375 7.32421875 C-7.49828125 6.45410156 -6.6371875 5.58398438 -5.75 4.6875 C-4.87859375 3.80449219 -4.0071875 2.92148438 -3.109375 2.01171875 C-1 0 -1 0 0 0 Z " fill="#0590D0" transform="translate(18,78)"/>
<path d="M0 0 C6.18134869 5.10448822 11.79822878 10.68294942 17.4375 16.375 C18.35982422 17.30183594 19.28214844 18.22867188 20.23242188 19.18359375 C22.49058625 21.45345846 24.74636942 23.72563538 27 26 C25.35830472 28.02054804 23.69088222 30.02043058 22 32 C21.67 32 21.34 32 21 32 C21 28.7 21 25.4 21 22 C19.68 22 18.36 22 17 22 C17 21.01 17 20.02 17 19 C16.34 19 15.68 19 15 19 C13.96210419 17.35666496 12.96432076 15.68756133 12 14 C9.64046906 11.64046906 8.22104383 11.50858587 5 11 C4.87625 10.195625 4.7525 9.39125 4.625 8.5625 C4.41875 7.716875 4.2125 6.87125 4 6 C3.34 5.67 2.68 5.34 2 5 C2.03552979 6.04865234 2.07105957 7.09730469 2.10766602 8.17773438 C2.23884259 12.09876909 2.3617117 16.02002908 2.48217773 19.94140625 C2.53527852 21.63288423 2.59057914 23.32429474 2.64819336 25.015625 C2.73100422 27.45818534 2.8056859 29.90088554 2.87890625 32.34375 C2.90594131 33.08991577 2.93297638 33.83608154 2.96083069 34.6048584 C3.09786231 39.51533549 2.71344659 44.13799361 2 49 C2.66 49.33 3.32 49.66 4 50 C2.68 50.99 1.36 51.98 0 53 C-1.64087745 51.35912255 -1.12739755 49.48168938 -1.12939453 47.22070312 C-1.13254669 46.202948 -1.13569885 45.18519287 -1.13894653 44.13659668 C-1.1369223 43.02933228 -1.13489807 41.92206787 -1.1328125 40.78125 C-1.13376923 39.65303833 -1.13472595 38.52482666 -1.13571167 37.36242676 C-1.13639368 34.97159774 -1.13453797 32.58076689 -1.13037109 30.18994141 C-1.12502316 26.51590849 -1.13031543 22.84199783 -1.13671875 19.16796875 C-1.13605797 16.85156223 -1.13477682 14.53515578 -1.1328125 12.21875 C-1.13584885 10.55785339 -1.13584885 10.55785339 -1.13894653 8.86340332 C-1.13579437 7.84564819 -1.13264221 6.82789307 -1.12939453 5.77929688 C-1.12859894 4.87852417 -1.12780334 3.97775146 -1.12698364 3.04968262 C-1 1 -1 1 0 0 Z " fill="#178EC9" transform="translate(134,113)"/>
<path d="M0 0 C2.81878012 1.28174718 4.85241496 2.61007615 7.015625 4.8203125 C7.54414062 5.35527344 8.07265625 5.89023437 8.6171875 6.44140625 C9.15601562 6.99699219 9.69484375 7.55257812 10.25 8.125 C10.80429687 8.68832031 11.35859375 9.25164062 11.9296875 9.83203125 C13.29104485 11.21686028 14.64614859 12.60783204 16 14 C15.01 14 14.02 14 13 14 C11.66666667 12.66666667 10.33333333 11.33333333 9 10 C8.01 10 7.02 10 6 10 C5.9175 9.38125 5.835 8.7625 5.75 8.125 C5.18741541 5.81562433 5.18741541 5.81562433 2.9375 4.75 C2.298125 4.5025 1.65875 4.255 1 4 C0.67 4.99 0.34 5.98 0 7 C-1.051875 7.061875 -1.051875 7.061875 -2.125 7.125 C-6.182122 8.35977626 -8.74335682 10.4759064 -11 14 C-11.82472825 17.73259201 -11.72415391 21.3561509 -11.62109375 25.1640625 C-11.61497574 26.23369232 -11.60885773 27.30332214 -11.60255432 28.40536499 C-11.57567589 31.8128784 -11.50655212 35.21810791 -11.4375 38.625 C-11.41596891 40.92445587 -11.39705995 43.22393789 -11.38085938 45.5234375 C-11.3387834 49.73030534 -11.29314372 53.93681639 -11.20874023 58.14306641 C-11.19286362 58.98656647 -11.176987 59.83006653 -11.16062927 60.6991272 C-11.00598841 62.91422133 -10.61139105 64.87004562 -10 67 C-13.8295529 64.64144409 -13.8295529 64.64144409 -14.57522583 61.83525085 C-14.60857025 60.99589493 -14.64191467 60.156539 -14.67626953 59.29174805 C-14.72115509 58.33612473 -14.76604065 57.3805014 -14.81228638 56.3959198 C-14.83556 55.36163345 -14.85883362 54.32734711 -14.8828125 53.26171875 C-14.91035614 52.18936478 -14.93789978 51.1170108 -14.96627808 50.01216125 C-15.01287736 47.73512441 -15.04738038 45.45781312 -15.07080078 43.18041992 C-15.12427624 39.73414316 -15.27380912 36.30055592 -15.42578125 32.85742188 C-15.84716284 14.68695188 -15.84716284 14.68695188 -8.91110229 7.23994446 C-6.07108155 4.59485883 -3.15908529 2.25667173 0 0 Z " fill="#1685BD" transform="translate(38,57)"/>
<path d="M0 0 C0.66 0.33 1.32 0.66 2 1 C2 17.83 2 34.66 2 52 C-2.22999675 50.94250081 -2.54930356 50.79967512 -4.75 47.4375 C-5.39195313 46.47650391 -5.39195313 46.47650391 -6.046875 45.49609375 C-6.36140625 45.00238281 -6.6759375 44.50867188 -7 44 C-4.53199953 45.15173355 -2.95216435 46.04783565 -1 48 C-0.97494385 46.95658447 -0.9498877 45.91316895 -0.92407227 44.83813477 C-0.82918628 40.92982804 -0.72917119 37.02166585 -0.62768555 33.11352539 C-0.58464114 31.42898972 -0.54294777 29.74441892 -0.50268555 28.05981445 C-0.44423571 25.62440446 -0.38076577 23.18916642 -0.31640625 20.75390625 C-0.29969376 20.01290176 -0.28298126 19.27189728 -0.26576233 18.50843811 C-0.12128378 13.29243803 0.37065237 8.18035967 1 3 C-0.65 4.32 -2.3 5.64 -4 7 C-4.66 6.67 -5.32 6.34 -6 6 C-4.02 4.02 -2.04 2.04 0 0 Z " fill="#2391C7" transform="translate(69,26)"/>
<path d="M0 0 C0.33 0 0.66 0 1 0 C1.30285551 9.42317522 1.53299845 18.8446464 1.67355824 28.27164745 C1.74106685 32.65055345 1.83240536 37.02610257 1.98071289 41.40307617 C2.12326936 45.63742116 2.19994909 49.86856601 2.23340416 54.10512733 C2.25720109 55.7109343 2.30367651 57.31658969 2.37449074 58.92101097 C2.68033439 66.14599854 2.85003577 72.20718939 -1.98062134 77.97427368 C-5.09977408 81.26859465 -8.4542209 84.17511719 -12 87 C-12.33 86.01 -12.66 85.02 -13 84 C-11.62100451 81.24200902 -9.62327638 80.56147404 -7 79 C-4.59120835 76.93532144 -4.03668447 76.11005341 -3 73 C-2.01 73 -1.02 73 0 73 C0 48.91 0 24.82 0 0 Z " fill="#3D91C0" transform="translate(127,99)"/>
<path d="M0 0 C4.07168412 0.67909978 5.73844554 1.27010477 8.3125 4.5625 C8.82425781 5.20316406 9.33601563 5.84382812 9.86328125 6.50390625 C10.23839844 6.99761719 10.61351563 7.49132812 11 8 C10.01 8 9.02 8 8 8 C8 7.34 8 6.68 8 6 C6.35 5.67 4.7 5.34 3 5 C2.92579789 9.07502794 2.8713743 13.14979392 2.83520508 17.2253418 C2.82012603 18.61147919 2.7996595 19.99756894 2.77368164 21.38354492 C2.73726284 23.37658146 2.72186982 25.36996723 2.70703125 27.36328125 C2.6913208 28.56251221 2.67561035 29.76174316 2.65942383 30.99731445 C2.73297251 34.01004401 2.73297251 34.01004401 4.51831055 35.91479492 C5.25174683 36.45197144 5.25174683 36.45197144 6 37 C5.67 37.66 5.34 38.32 5 39 C1.55252785 36.20146379 0.11930767 34.77532024 -0.56762695 30.3112793 C-0.56684281 28.89867837 -0.53902725 27.4859081 -0.48828125 26.07421875 C-0.48120651 25.32662796 -0.47413177 24.57903717 -0.46684265 23.80879211 C-0.43897645 21.43398598 -0.37626132 19.06158649 -0.3125 16.6875 C-0.28740668 15.07229982 -0.26459531 13.45706246 -0.24414062 11.84179688 C-0.18917647 7.89361181 -0.10296527 3.94721311 0 0 Z " fill="#2189B7" transform="translate(105,0)"/>
<path d="M0 0 C0 11.22 0 22.44 0 34 C-0.33 34 -0.66 34 -1 34 C-1.495 18.655 -1.495 18.655 -2 3 C-2.99 4.98 -3.98 6.96 -5 9 C-7 10.1875 -7 10.1875 -9 11 C-9.474375 11.474375 -9.94875 11.94875 -10.4375 12.4375 C-12.43121769 14.43121769 -14.50865723 15.69204505 -17 17 C-17.99 17 -18.98 17 -20 17 C-17.24136787 14.15456244 -14.46618001 11.32585243 -11.6875 8.5 C-10.90181641 7.68917969 -10.11613281 6.87835937 -9.30664062 6.04296875 C-8.1706543 4.89248047 -8.1706543 4.89248047 -7.01171875 3.71875 C-6.31522217 3.00654297 -5.61872559 2.29433594 -4.90112305 1.56054688 C-3 -0 -3 -0 0 0 Z " fill="#138BC1" transform="translate(98,0)"/>
<path d="M0 0 C1.98 0 3.96 0 6 0 C6.33 1.98 6.66 3.96 7 6 C5.02 4.68 3.04 3.36 1 2 C1 26.09 1 50.18 1 75 C0.67 75 0.34 75 0 75 C0 50.25 0 25.5 0 0 Z " fill="#1D97D3" transform="translate(126,97)"/>
<path d="M0 0 C0.99 0.66 1.98 1.32 3 2 C3.2667616 4.76628915 3.34804189 7.30619631 3.29296875 10.0703125 C3.28872391 10.86654022 3.28447906 11.66276794 3.28010559 12.48312378 C3.26328834 15.03075729 3.22563179 17.57760489 3.1875 20.125 C3.17245705 21.85024901 3.15876796 23.57551039 3.14648438 25.30078125 C3.11337501 29.53415782 3.06157285 33.76694559 3 38 C-0.36748512 36.48052501 -1.60840337 35.47899158 -3 32 C-2.01 32 -1.02 32 0 32 C0 21.44 0 10.88 0 0 Z " fill="#2586B7" transform="translate(148,40)"/>
<path d="M0 0 C3.20815804 1.60407902 4.66358318 2.41713934 7.015625 4.8203125 C7.54414062 5.35527344 8.07265625 5.89023437 8.6171875 6.44140625 C9.15601562 6.99699219 9.69484375 7.55257812 10.25 8.125 C10.80429687 8.68832031 11.35859375 9.25164062 11.9296875 9.83203125 C13.29104485 11.21686028 14.64614859 12.60783204 16 14 C15.01 14 14.02 14 13 14 C11.66666667 12.66666667 10.33333333 11.33333333 9 10 C8.01 10 7.02 10 6 10 C5.9175 9.38125 5.835 8.7625 5.75 8.125 C5.18741541 5.81562433 5.18741541 5.81562433 2.9375 4.75 C2.298125 4.5025 1.65875 4.255 1 4 C0.67 4.99 0.34 5.98 0 7 C-1.051875 7.061875 -1.051875 7.061875 -2.125 7.125 C-6.27924027 8.38933399 -8.08632715 10.81528782 -11 14 C-11.66 13.67 -12.32 13.34 -13 13 C-8.71 8.71 -4.42 4.42 0 0 Z " fill="#208BBF" transform="translate(38,57)"/>
<path d="M0 0 C7.15801225 5.82628904 13.52591766 12.4382985 20 19 C18.35830472 21.02054804 16.69088222 23.02043058 15 25 C14.67 25 14.34 25 14 25 C14 21.7 14 18.4 14 15 C12.68 15 11.36 15 10 15 C10 14.01 10 13.02 10 12 C9.34 12 8.68 12 8 12 C7 10.33333333 6 8.66666667 5 7 C4.113125 6.113125 3.22625 5.22625 2.3125 4.3125 C1.549375 3.549375 0.78625 2.78625 0 2 C0 1.34 0 0.68 0 0 Z " fill="#1D89BD" transform="translate(141,120)"/>
<path d="M0 0 C4.61586002 3.95645145 8.80181 7.69941512 13 12 C12.67 12.66 12.34 13.32 12 14 C10.68 13.67 9.36 13.34 8 13 C8 12.01 8 11.02 8 10 C7.01 9.67 6.02 9.34 5 9 C4.01 7.35 3.02 5.7 2 4 C2 14.23 2 24.46 2 35 C1.01 35.495 1.01 35.495 0 36 C0 24.12 0 12.24 0 0 Z " fill="#2E8EB9" transform="translate(186,78)"/>
<path d="M0 0 C0.66 0 1.32 0 2 0 C1.67 14.19 1.34 28.38 1 43 C0.67 43 0.34 43 0 43 C-0.33 30.13 -0.66 17.26 -1 4 C-1.99 4.99 -2.98 5.98 -4 7 C-6.6875 7.6875 -6.6875 7.6875 -9 8 C-6.78189589 4.61447267 -4.52377014 2.94734666 -1 1 C-0.67 0.67 -0.34 0.34 0 0 Z " fill="#068ACB" transform="translate(68,29)"/>
<path d="M0 0 C0.99 0.99 1.98 1.98 3 3 C2.01 3.495 2.01 3.495 1 4 C0.67 19.18 0.34 34.36 0 50 C0.99 50.33 1.98 50.66 3 51 C2.01 51.66 1.02 52.32 0 53 C-1.64087745 51.35912255 -1.12739755 49.48168938 -1.12939453 47.22070312 C-1.13254669 46.202948 -1.13569885 45.18519287 -1.13894653 44.13659668 C-1.1369223 43.02933228 -1.13489807 41.92206787 -1.1328125 40.78125 C-1.13376923 39.65303833 -1.13472595 38.52482666 -1.13571167 37.36242676 C-1.13639368 34.97159774 -1.13453797 32.58076689 -1.13037109 30.18994141 C-1.12502316 26.51590849 -1.13031543 22.84199783 -1.13671875 19.16796875 C-1.13605797 16.85156223 -1.13477682 14.53515578 -1.1328125 12.21875 C-1.13584885 10.55785339 -1.13584885 10.55785339 -1.13894653 8.86340332 C-1.13579437 7.84564819 -1.13264221 6.82789307 -1.12939453 5.77929688 C-1.12859894 4.87852417 -1.12780334 3.97775146 -1.12698364 3.04968262 C-1 1 -1 1 0 0 Z " fill="#428EB1" transform="translate(134,113)"/>
<path d="M0 0 C0 11.88 0 23.76 0 36 C-1.65 34.35 -3.3 32.7 -5 31 C-3.68 31 -2.36 31 -1 31 C-1.33 22.09 -1.66 13.18 -2 4 C-3.65 5.65 -5.3 7.3 -7 9 C-7.66 8.67 -8.32 8.34 -9 8 C-7.6905332 6.66368764 -6.37734515 5.33102075 -5.0625 4 C-3.96615234 2.88625 -3.96615234 2.88625 -2.84765625 1.75 C-1 0 -1 0 0 0 Z " fill="#298CBC" transform="translate(18,78)"/>
<path d="M0 0 C1.65 0 3.3 0 5 0 C0.02838782 6.01826738 -5.29829243 11.66337352 -11 17 C-11.33 17 -11.66 17 -12 17 C-12.36407767 12.50970874 -12.36407767 12.50970874 -10.75 10.25 C-9 9 -9 9 -6.9375 8.625 C-6.298125 8.41875 -5.65875 8.2125 -5 8 C-3.70339566 5.50965614 -3.70339566 5.50965614 -3 3 C-2.01 3.33 -1.02 3.66 0 4 C0 2.68 0 1.36 0 0 Z " fill="#188BBF" transform="translate(150,145)"/>
<path d="M0 0 C1.65 1.65 3.3 3.3 5 5 C3.68 4.67 2.36 4.34 1 4 C1.06885413 8.5029078 1.1568066 13.00488488 1.26245117 17.50708008 C1.29569818 19.03855059 1.32373093 20.57014356 1.34643555 22.10180664 C1.37998718 24.30407887 1.4322991 26.50522912 1.48828125 28.70703125 C1.49467117 29.39150833 1.5010611 30.07598541 1.50764465 30.78120422 C1.5994084 33.75020838 1.66735787 35.5753313 3.53198242 37.95581055 C4.25865112 38.47268433 4.25865112 38.47268433 5 39 C4.67 39.66 4.34 40.32 4 41 C2.02441406 39.53027344 2.02441406 39.53027344 0 37 C-0.34898973 34.04071721 -0.46784199 31.46546479 -0.390625 28.515625 C-0.38496521 27.70003113 -0.37930542 26.88443726 -0.37347412 26.04412842 C-0.35112727 23.44548228 -0.30093622 20.84822758 -0.25 18.25 C-0.22993271 16.48569703 -0.21168234 14.7213724 -0.1953125 12.95703125 C-0.1512683 8.63748672 -0.08225422 4.31897907 0 0 Z " fill="#378AB0" transform="translate(53,113)"/>
<path d="M0 0 C4 2 4 2 6 5 C3.525 4.01 3.525 4.01 1 3 C1 16.2 1 29.4 1 43 C0.67 43 0.34 43 0 43 C0 28.81 0 14.62 0 0 Z " fill="#378EB2" transform="translate(157,50)"/>
<path d="M0 0 C0.66 0.33 1.32 0.66 2 1 C2 13.87 2 26.74 2 40 C1.67 40 1.34 40 1 40 C1 27.79 1 15.58 1 3 C-0.65 4.32 -2.3 5.64 -4 7 C-4.66 6.67 -5.32 6.34 -6 6 C-4.02 4.02 -2.04 2.04 0 0 Z " fill="#3589B1" transform="translate(69,26)"/>
<path d="M0 0 C4.91935902 4.11619836 9.52647956 8.40410362 14 13 C12 14 12 14 8.9375 13.25 C7.968125 12.8375 6.99875 12.425 6 12 C5.67 11.01 5.34 10.02 5 9 C3.50014391 7.33289654 3.50014391 7.33289654 2 6 C2.33 5.34 2.66 4.68 3 4 C2.34 4 1.68 4 1 4 C0.67 2.68 0.34 1.36 0 0 Z " fill="#168DC1" transform="translate(69,129)"/>
<path d="M0 0 C1.98 0.66 3.96 1.32 6 2 C3 4 3 4 1 5 C1.33 13.58 1.66 22.16 2 31 C1.34 31.33 0.68 31.66 0 32 C0 21.44 0 10.88 0 0 Z " fill="#0C89C0" transform="translate(54,117)"/>
<path d="M0 0 C7.15801225 5.82628904 13.52591766 12.4382985 20 19 C17 19 17 19 14.95703125 17.25 C14.24933594 16.5075 13.54164062 15.765 12.8125 15 C12.09707031 14.2575 11.38164063 13.515 10.64453125 12.75 C10.10183594 12.1725 9.55914062 11.595 9 11 C8.01 11.495 8.01 11.495 7 12 C6.38125 10.63875 6.38125 10.63875 5.75 9.25 C4.10256403 6.19047606 2.46618157 4.38114082 0 2 C0 1.34 0 0.68 0 0 Z " fill="#218BB9" transform="translate(54,72)"/>
<path d="M0 0 C0.268125 0.639375 0.53625 1.27875 0.8125 1.9375 C2.39241741 4.68156708 4.0515206 5.06890124 7 6 C6.67 6.99 6.34 7.98 6 9 C6 9.99 6 10.98 6 12 C2 8 -2 4 -6 0 C-2.25 -1.125 -2.25 -1.125 0 0 Z " fill="#178BC0" transform="translate(57,102)"/>
<path d="M0 0 C5.66129431 4.69766975 10.85228904 9.74723372 16 15 C12.33815476 15 10.97194 14.080358 8 12 C5 8.5862069 5 8.5862069 5 6 C4.34 6 3.68 6 3 6 C0 2.53846154 0 2.53846154 0 0 Z " fill="#248CBA" transform="translate(118,10)"/>
<path d="M0 0 C5.29012124 4.40843437 10.18808428 9.07559794 15 14 C11.05594798 14 9.9482215 12.50598828 7 10 C6.01 9.34 5.02 8.68 4 8 C2.22470656 5.33705985 1.01431642 3.04294926 0 0 Z " fill="#208CB8" transform="translate(163,55)"/>
<path d="M0 0 C0.66 0 1.32 0 2 0 C2 2.97 2 5.94 2 9 C0 7 0 7 -1 4 C-1.391875 4.474375 -1.78375 4.94875 -2.1875 5.4375 C-4.40808374 7.35179633 -6.13375709 7.61266988 -9 8 C-6.78189589 4.61447267 -4.52377014 2.94734666 -1 1 C-0.67 0.67 -0.34 0.34 0 0 Z " fill="#168EC8" transform="translate(68,29)"/>
<path d="M0 0 C3.83511953 1.56245611 6.10365784 4.10365784 9 7 C10.11375 7.495 10.11375 7.495 11.25 8 C13 9 13 9 13.75 11.625 C13.87375 12.800625 13.87375 12.800625 14 14 C9.10565787 9.90473413 4.29279666 5.73642915 0 1 C0 0.67 0 0.34 0 0 Z " fill="#1D88B9" transform="translate(74,124)"/>
<path d="M0 0 C4.13621084 3.3810038 7.81316569 6.66590534 11 11 C8.125 10.6875 8.125 10.6875 5 10 C2.80330908 6.70496362 1.25096093 3.75288279 0 0 Z " fill="#1B86BE" transform="translate(109,46)"/>
<path d="M0 0 C1.65 0 3.3 0 5 0 C5.061875 0.61875 5.12375 1.2375 5.1875 1.875 C5.828919 4.27761141 5.828919 4.27761141 8.5625 5.25 C9.366875 5.4975 10.17125 5.745 11 6 C11 7.65 11 9.3 11 11 C6.86378916 7.6189962 3.18683431 4.33409466 0 0 Z " fill="#258FBE" transform="translate(138,108)"/>
<path d="M0 0 C0.66 0.33 1.32 0.66 2 1 C-0.63482263 6.26964527 -4.79943911 9.97903554 -9 14 C-9.33 13.01 -9.66 12.02 -10 11 C-8.62100451 8.24200902 -6.62327638 7.56147404 -4 6 C-1.59120835 3.93532144 -1.03668447 3.11005341 0 0 Z " fill="#228ABA" transform="translate(124,172)"/>
<path d="M0 0 C2.31 1.98 4.62 3.96 7 6 C3.88173308 7.55913346 1.32926126 6.66585225 -2 6 C-2.33 5.34 -2.66 4.68 -3 4 C-2.34 3.67 -1.68 3.34 -1 3 C-0.67 2.01 -0.34 1.02 0 0 Z " fill="#158CC4" transform="translate(60,120)"/>
<path d="M0 0 C0.66 0.33 1.32 0.66 2 1 C1.54177532 4.46941546 1.10868317 7.67395049 0 11 C-1.32 9.68 -2.64 8.36 -4 7 C-2.79618552 4.50638429 -1.54571278 2.31856917 0 0 Z " fill="#208ABC" transform="translate(4,90)"/>
<path d="M0 0 C4.2742558 1.5830577 6.26531794 4.50568404 9 8 C8.01 8 7.02 8 6 8 C6 7.34 6 6.68 6 6 C4.02 5.34 2.04 4.68 0 4 C0 2.68 0 1.36 0 0 Z " fill="#1A8BBB" transform="translate(107,0)"/>
<path d="M0 0 C0.66 0 1.32 0 2 0 C2.66 1.65 3.32 3.3 4 5 C2.35 6.32 0.7 7.64 -1 9 C-0.67 6.03 -0.34 3.06 0 0 Z " fill="#1E8DC0" transform="translate(200,92)"/>
<path d="M0 0 C4.24822374 0.47202486 6.19989709 2.96655518 9 6 C8.67 6.66 8.34 7.32 8 8 C6.68 7.67 5.36 7.34 4 7 C4 6.01 4 5.02 4 4 C3.01 3.67 2.02 3.34 1 3 C0.67 2.01 0.34 1.02 0 0 Z " fill="#148CBE" transform="translate(190,84)"/>
<path d="M0 0 C0.33 1.32 0.66 2.64 1 4 C-0.98 4.99 -0.98 4.99 -3 6 C-3 7.32 -3 8.64 -3 10 C-4.32 9.34 -5.64 8.68 -7 8 C-6.02133662 6.85373678 -5.04205413 5.70800212 -4.0625 4.5625 C-3.51722656 3.92441406 -2.97195312 3.28632812 -2.41015625 2.62890625 C-1.63204305 1.73008851 -0.84063472 0.84063472 0 0 Z " fill="#268CB7" transform="translate(50,45)"/>
<path d="M0 0 C2.88437779 1.29299694 4.87219421 2.65941363 7 5 C7.66 4.34 8.32 3.68 9 3 C9 4.65 9 6.3 9 8 C6.46089803 7.61479436 5.27248877 7.29902057 3.515625 5.37109375 C3.09796875 4.73300781 2.6803125 4.09492187 2.25 3.4375 C1.82203125 2.79683594 1.3940625 2.15617187 0.953125 1.49609375 C0.48132812 0.75552734 0.48132812 0.75552734 0 0 Z " fill="#3190B5" transform="translate(62,70)"/>
<path d="M0 0 C1.12894876 0.93274109 2.25300876 1.87140122 3.375 2.8125 C4.00148437 3.33457031 4.62796875 3.85664062 5.2734375 4.39453125 C7 6 7 6 9 9 C8.443125 8.71125 7.88625 8.4225 7.3125 8.125 C4.91505355 6.9586747 2.48403061 5.9660119 0 5 C0 3.35 0 1.7 0 0 Z " fill="#248AB4" transform="translate(139,31)"/>
<path d="M0 0 C0.33 0.66 0.66 1.32 1 2 C3.52733235 2.65555119 3.52733235 2.65555119 6 3 C5.67 3.99 5.34 4.98 5 6 C3.35 6 1.7 6 0 6 C0 4.02 0 2.04 0 0 Z " fill="#0B8FCB" transform="translate(112,6)"/>
<path d="M0 0 C2.1875 1.4375 2.1875 1.4375 4 3 C3.67 3.99 3.34 4.98 3 6 C-1.875 3.25 -1.875 3.25 -3 1 C-2.01 0.67 -1.02 0.34 0 0 Z " fill="#1C9BC7" transform="translate(163,129)"/>
<path d="M0 0 C1.98 0 3.96 0 6 0 C6.33 0.99 6.66 1.98 7 3 C6.01 4.485 6.01 4.485 5 6 C3.35 4.02 1.7 2.04 0 0 Z " fill="#148AC1" transform="translate(64,114)"/>
<path d="M0 0 C1.65 0 3.3 0 5 0 C5.33 1.98 5.66 3.96 6 6 C3.97945196 4.35830472 1.97956942 2.69088222 0 1 C0 0.67 0 0.34 0 0 Z " fill="#198CBD" transform="translate(67,163)"/>
<path d="M0 0 C3.465 1.485 3.465 1.485 7 3 C7.33 2.34 7.66 1.68 8 1 C8 2.32 8 3.64 8 5 C4.62537285 4.45276317 2.91765 3.9451 0 2 C0 1.34 0 0.68 0 0 Z " fill="#1893CE" transform="translate(70,90)"/>
</svg>
