<?xml version="1.0" standalone="no"?>
<!DOCTYPE svg PUBLIC "-//W3C//DTD SVG 20010904//EN"
 "http://www.w3.org/TR/2001/REC-SVG-20010904/DTD/svg10.dtd">
<svg version="1.0" xmlns="http://www.w3.org/2000/svg"
 width="200.000000pt" height="200.000000pt" viewBox="0 0 200.000000 200.000000"
 preserveAspectRatio="xMidYMid meet">

<g transform="translate(0.000000,200.000000) scale(0.100000,-0.100000)"
fill="#000000" stroke="none">
<path d="M907 1233 c-4 -3 -7 -84 -7 -180 0 -147 2 -173 15 -173 12 0 15 14
15 63 0 71 14 105 51 126 24 13 29 13 53 -2 25 -17 26 -22 26 -102 0 -69 3
-85 15 -85 12 0 15 16 15 84 0 69 -4 88 -21 110 -24 31 -81 36 -117 10 l-22
-15 0 85 c0 79 -5 97 -23 79z"/>
<path d="M1258 1225 c-3 -3 25 -82 61 -176 61 -158 67 -170 89 -167 21 3 32
24 88 163 35 88 64 165 64 173 0 8 -9 12 -22 10 -22 -3 -37 -33 -118 -253 -11
-29 -13 -25 -60 102 -26 72 -51 136 -55 142 -6 11 -38 15 -47 6z"/>
<path d="M1587 1223 c-8 -13 -8 -257 -1 -304 5 -29 11 -39 25 -39 17 0 19 12
21 138 l3 137 56 -135 c75 -181 78 -181 149 -4 l55 137 3 -137 3 -136 25 0 24
0 -2 173 -3 172 -34 0 -34 0 -52 -122 c-28 -67 -53 -125 -56 -128 -4 -3 -31
52 -60 122 -52 123 -56 128 -86 131 -17 2 -33 -1 -36 -5z"/>
<path d="M55 1190 c-8 -14 3 -30 21 -30 8 0 14 9 14 20 0 21 -24 28 -35 10z"/>
<path d="M552 1183 c2 -10 10 -18 18 -18 22 0 18 29 -3 33 -14 3 -18 -1 -15
-15z"/>
<path d="M1167 1153 c-4 -3 -7 -17 -7 -30 0 -16 -6 -23 -20 -23 -11 0 -20 -7
-20 -15 0 -8 9 -15 20 -15 18 0 20 -7 20 -69 0 -38 4 -81 9 -94 11 -28 41 -42
71 -32 30 9 24 25 -9 25 -36 0 -41 13 -41 100 l0 69 33 3 c17 2 32 8 32 13 0
6 -15 11 -32 13 -29 3 -33 7 -33 33 0 28 -9 37 -23 22z"/>
<path d="M60 991 c0 -93 2 -111 15 -111 13 0 15 16 13 107 -2 74 -7 108 -15
111 -10 3 -13 -23 -13 -107z"/>
<path d="M130 990 c0 -91 3 -110 15 -110 12 0 15 14 15 63 0 71 14 105 51 126
24 13 29 13 53 -2 25 -17 26 -22 26 -102 0 -69 3 -85 15 -85 12 0 15 16 15 84
0 69 -4 88 -21 110 -24 31 -81 36 -117 10 -20 -14 -22 -14 -22 0 0 9 -7 16
-15 16 -12 0 -15 -19 -15 -110z"/>
<path d="M384 1092 c-54 -36 -23 -112 45 -112 12 0 30 -9 42 -21 20 -20 20
-22 3 -40 -21 -23 -52 -24 -83 -3 -15 11 -26 13 -33 6 -15 -15 -3 -29 38 -42
62 -21 114 7 114 60 0 32 -24 53 -75 65 -32 7 -55 22 -55 36 0 5 11 16 25 25
23 15 27 15 50 0 13 -9 29 -16 35 -16 17 0 11 29 -9 40 -23 12 -81 13 -97 2z"/>
<path d="M557 1093 c-4 -3 -7 -53 -7 -110 0 -85 3 -103 15 -103 12 0 15 19 15
110 0 101 -5 122 -23 103z"/>
<path d="M693 1085 c-34 -14 -63 -59 -63 -97 0 -33 36 -87 66 -98 38 -15 87
-12 113 7 l24 16 -6 -44 c-10 -75 -75 -102 -144 -59 -36 22 -60 7 -27 -17 65
-47 158 -31 189 32 22 47 22 265 0 265 -8 0 -15 -5 -15 -10 0 -6 -13 -4 -30 5
-36 18 -65 19 -107 0z m122 -48 c22 -31 18 -72 -9 -103 -70 -82 -192 24 -126
109 33 42 104 39 135 -6z"/>
</g>
</svg>
