<?xml version="1.0" standalone="no"?>
<!DOCTYPE svg PUBLIC "-//W3C//DTD SVG 20010904//EN"
 "http://www.w3.org/TR/2001/REC-SVG-20010904/DTD/svg10.dtd">
<svg version="1.0" xmlns="http://www.w3.org/2000/svg"
 width="222.000000pt" height="177.000000pt" viewBox="0 0 222.000000 177.000000"
 preserveAspectRatio="xMidYMid meet">

<g transform="translate(0.000000,177.000000) scale(0.100000,-0.100000)"
fill="#000000" stroke="none">
<path d="M90 885 l0 -795 205 0 205 0 0 615 0 615 200 0 200 0 0 -615 0 -615
205 0 205 0 0 615 0 615 165 0 c172 0 215 -8 229 -45 3 -9 6 -280 6 -601 l0
-584 205 0 206 0 -3 638 -3 637 -24 58 c-52 132 -173 224 -321 247 -39 6 -384
10 -872 10 l-808 0 0 -795z"/>
</g>
</svg>
