<svg width="32" height="32" xmlns="http://www.w3.org/2000/svg"
     xmlns:xlink="http://www.w3.org/1999/xlink"
     viewBox="0 0 1500 1500">
  <svg x="50" y="0" width="1050" height="1050">
    <svg xmlns="http://www.w3.org/2000/svg" viewBox="0 0 32 32">
  <path fill="#F60" d="M30.0833217,13.1972069 L20.2053242,13.1972069 C19.4153744,13.1088631 18.8138529,12.456478 18.8138529,11.6885664 L18.8138529,1.97074666 C18.8138529,1.14167392 18.0963754,0.475697468 17.2194585,0.475697468 L13.7625218,0.475697468 C12.8783577,0.475697468 12.1681275,1.1484696 12.1681275,1.97074666 L12.1681275,11.7905015 C12.1246439,12.5312304 11.4723918,13.1292501 10.6896891,13.1972069 L8.10242197,13.1972069 C7.34146106,13.1088631 6.75443406,12.5108434 6.70370334,11.7905015 L6.70370334,1.97074666 C6.70370334,1.14167392 5.9862259,0.475697468 5.10930903,0.475697468 L1.65237229,0.475697468 C0.768208166,0.475697468 0.0579779748,1.1484696 0.0579779748,1.97074666 L0.0579779748,14.6922561 L0.0579779748,30.3291114 C0.0579779748,31.1581841 0.775455413,31.8241606 1.65237229,31.8241606 L5.10930903,31.8241606 L13.7625218,31.8241606 L17.2194585,31.8241606 L30.0905689,31.8241606 C30.974733,31.8241606 31.6849632,31.1513884 31.6849632,30.3291114 L31.6849632,14.6922561 C31.6777159,13.8631834 30.9674859,13.1972069 30.0833217,13.1972069 Z M25.5320507,23.920787 C25.5320507,24.7498597 24.8145732,25.4158362 23.9376564,25.4158362 L20.4807196,25.4158362 C19.5965554,25.4158362 18.8863253,24.743064 18.8863253,23.920787 L18.8863253,20.8627318 C18.8863253,20.0336591 19.6038027,19.3676826 20.4807196,19.3676826 L23.9376564,19.3676826 C24.8218205,19.3676826 25.5320507,20.0404548 25.5320507,20.8627318 L25.5320507,23.920787 Z" />
</svg>
  </svg>
  <svg x="0%" y="0%" width="100%" height="100%" viewBox="-120 -120 250 250">
    <path fill="#f5a800" d="M67.648 69.797c-5.246 5.25-5.246 13.758 0 19.008 5.25 5.246 13.758 5.246 19.004 0 5.25-5.25 5.25-13.758 0-19.008-5.246-5.246-13.754-5.246-19.004 0m14.207 14.219a6.65 6.65 0 0 1-9.41 0 6.65 6.65 0 0 1 0-9.407 6.65 6.65 0 0 1 9.41 0c2.598 2.586 2.598 6.809 0 9.407M86.43 3.672l-8.235 8.234a4.17 4.17 0 0 0 0 5.875l32.149 32.149a4.17 4.17 0 0 0 5.875 0l8.234-8.235c1.61-1.61 1.61-4.261 0-5.87L92.29 3.671a4.16 4.16 0 0 0-5.86 0ZM28.738 108.895a3.763 3.763 0 0 0 0-5.31l-4.183-4.187a3.77 3.77 0 0 0-5.313 0l-8.644 8.649-.016.012-2.371-2.375c-1.313-1.313-3.45-1.313-4.75 0-1.313 1.312-1.313 3.449 0 4.75l14.246 14.242a3.353 3.353 0 0 0 4.746 0c1.3-1.313 1.313-3.45 0-4.746l-2.375-2.375.016-.012Zm0 0"/>
    <path fill="#425cc7" d="M72.297 27.313 54.004 45.605c-1.625 1.625-1.625 4.301 0 5.926L65.3 62.824c7.984-5.746 19.18-5.035 26.363 2.153l9.148-9.149c1.622-1.625 1.622-4.297 0-5.922L78.22 27.313a4.185 4.185 0 0 0-5.922 0ZM60.55 67.585l-6.672-6.672c-1.563-1.562-4.125-1.562-5.684 0l-23.53 23.54a4.036 4.036 0 0 0 0 5.687l13.331 13.332a4.036 4.036 0 0 0 5.688 0l15.132-15.157c-3.199-6.609-2.625-14.593 1.735-20.73m0 0"/>
  </svg>
</svg>
