<svg width="64" height="64" xmlns="http://www.w3.org/2000/svg">

 <g>
  <title>Layer 1</title>
  <g>
   <path d="m60.31846,25.97407l-19.78635,0c-1.58233,-0.17905 -2.78721,-1.5012 -2.78721,-3.05749l0,-19.69462c0,-1.68026 -1.43714,-3.02994 -3.19368,-3.02994l-6.9245,0c-1.77104,0 -3.19368,1.36347 -3.19368,3.02994l0,19.9012c-0.08711,1.5012 -1.39362,2.71318 -2.96142,2.85091l-5.18249,0c-1.52426,-0.17905 -2.70012,-1.39103 -2.80174,-2.85091l0,-19.9012c0,-1.68026 -1.43714,-3.02994 -3.19368,-3.02994l-6.9245,0c-1.77104,0 -3.19368,1.36347 -3.19368,3.02994l0,25.78205l0,31.69043c0,1.68024 1.43716,3.02994 3.19368,3.02994l6.9245,0l17.333,0l6.9245,0l25.78176,0c1.77104,0 3.19368,-1.36347 3.19368,-3.02994l0,-31.69043c-0.0145,-1.68026 -1.43714,-3.02994 -3.2082,-3.02994zm-9.11652,21.73295c0,1.68024 -1.43716,3.02994 -3.19368,3.02994l-6.9245,0c-1.77104,0 -3.19368,-1.36349 -3.19368,-3.02994l0,-6.19762c0,-1.68024 1.43714,-3.02994 3.19368,-3.02994l6.9245,0c1.77104,0 3.19368,1.36347 3.19368,3.02994l0,6.19762z" fill="#F60"/>
  </g>
  <g id="svg_13">
   <path id="svg_14" fill="#f5a800" d="m49.65554,49.50794c-1.25834,1.27554 -1.25834,3.34264 0,4.61818c1.2593,1.27457 3.30009,1.27457 4.55844,0c1.2593,-1.27554 1.2593,-3.34264 0,-4.61818c-1.25834,-1.27457 -3.29913,-1.27457 -4.55844,0zm3.40779,3.45465a1.59488,1.61544 0 0 1 -2.25715,0a1.59512,1.61568 0 0 1 0,-2.28552a1.59488,1.61544 0 0 1 2.25715,0c0.62317,0.62829 0.62317,1.65431 0,2.28552zm1.09739,-19.52038l-1.97531,2.00053a1.00025,1.01314 0 0 0 0,1.42739l7.71149,7.81092a1.00025,1.01314 0 0 0 1.40922,0l1.97507,-2.00078c0.38619,-0.39117 0.38619,-1.03525 0,-1.42618l-7.71485,-7.81214a0.99761,1.01047 0 0 0 -1.40562,0l0,0.00024l0,0.00002zm-13.83841,25.56498a0.90262,0.91426 0 0 0 0,-1.29012l-1.00336,-1.01727a0.90382,0.91547 0 0 0 -1.27441,0l-2.07341,2.10136l-0.00384,0.00292l-0.56872,-0.57703c-0.31495,-0.31901 -0.82754,-0.31901 -1.13937,0c-0.31495,0.31876 -0.31495,0.83797 0,1.15406l3.41715,3.46024a0.80427,0.81464 0 0 0 1.13841,0c0.31183,-0.31901 0.31495,-0.83821 0,-1.15309l-0.56968,-0.57703l0.00384,-0.00292l2.07341,-2.10112l-0.00002,0zm0,0"/>
   <path id="svg_15" fill="#425cc7" d="m50.77068,39.18603l-4.38789,4.44422c-0.38978,0.39481 -0.38978,1.04497 0,1.43978l2.70954,2.74375c1.9151,-1.39605 4.60065,-1.2233 6.32362,0.52309l2.1943,-2.22284c0.38906,-0.39481 0.38906,-1.044 0,-1.43881l-5.41884,-5.4892a1.00384,1.01679 0 0 0 -1.42049,0l-0.00024,0l0,0.00001zm-2.81772,9.78449l-1.60039,-1.62103c-0.37491,-0.3795 -0.98945,-0.3795 -1.3634,0l-5.64407,5.71928a0.9681,0.98059 0 0 0 0,1.38171l3.19767,3.23914a0.9681,0.98059 0 0 0 1.36436,0l3.62967,-3.68255c-0.76733,-1.60572 -0.62965,-3.54552 0.41617,-5.03656l-0.00001,0.00001zm0,0"/>
  </g>
 </g>
</svg>