<svg height="200" viewBox="0 0 200 200" width="200" xmlns="http://www.w3.org/2000/svg" xmlns:xlink="http://www.w3.org/1999/xlink"><linearGradient id="a" gradientTransform="matrix(-1.885618 -1.885618 1.885618 -1.885618 3065.279948 1400.34668)" gradientUnits="userSpaceOnUse" x1="1131.099976" x2="1131.099976" y1="-516.47998" y2="-366.480011"><stop offset="0" stop-color="#b0084d"/><stop offset="1" stop-color="#ff4f8b"/></linearGradient><path d="m0 0h200v200h-200z" fill="url(#a)"/><g fill="#fff"><path d="m142.214844 156.535156c-6.144532-.027344-11.414063-4.382812-12.589844-10.410156-1.179688-6.027344 2.0625-12.050781 7.742188-14.382812 5.679687-2.335938 12.21875-.335938 15.621093 4.777343 3.402344 5.113281 2.71875 11.917969-1.628906 16.253907-2.425781 2.421874-5.71875 3.773437-9.144531 3.761718zm0-20.507812c-4.199219 0-7.601563 3.402344-7.601563 7.597656.003907 2.007812.8125 3.925781 2.238281 5.335938 2.960938 2.914062 7.710938 2.914062 10.667969 0 2.898438-2.964844 2.898438-7.703126 0-10.667969-1.402343-1.425781-3.304687-2.25-5.304687-2.292969zm0 0"/><path d="m160.398438 113.09375c-6.167969-.015625-11.472657-4.386719-12.660157-10.441406-1.1875-6.054688 2.066407-12.109375 7.773438-14.453125 5.707031-2.347657 12.277343-.335938 15.691406 4.804687 3.414063 5.144532 2.71875 11.980469-1.65625 16.328125-2.433594 2.410157-5.722656 3.761719-9.148437 3.761719zm0-20.535156c-3.4375-.011719-6.460938 2.289062-7.359376 5.609375-.902343 3.320312.539063 6.835937 3.515626 8.5625 2.972656 1.730469 6.738281 1.242187 9.179687-1.183594 1.417969-1.414063 2.222656-3.328125 2.238281-5.332031-.027344-4.1875-3.414062-7.574219-7.597656-7.601563zm0 0"/><path d="m142.214844 66.667969c-6.171875-.003907-11.480469-4.363281-12.683594-10.414063-1.203125-6.050781 2.035156-12.109375 7.738281-14.46875 5.699219-2.363281 12.273438-.367187 15.703125 4.765625 3.425782 5.128907 2.75 11.96875-1.613281 16.328125-2.421875 2.429688-5.714844 3.792969-9.144531 3.789063zm0-20.535157c-3.074219.011719-5.835938 1.871094-7.003906 4.714844-1.167969 2.839844-.507813 6.105469 1.667968 8.273438 2.171875 2.15625 5.421875 2.804687 8.253906 1.640625 2.828126-1.167969 4.683594-3.914063 4.707032-6.976563.007812-2-.789063-3.921875-2.214844-5.332031-1.429688-1.441406-3.378906-2.246094-5.410156-2.238281zm0 0"/><path d="m74.347656 98.132812-9.066406-9.066406-3.761719 3.761719 4.507813 4.53125h-13.839844c-1.023438-4.601563-4.472656-8.277344-8.996094-9.59375-4.527344-1.316406-9.410156-.0625-12.738281 3.273437-5.035156 5.050782-5.035156 13.21875 0 18.269532 3.375 3.363281 8.324219 4.601562 12.886719 3.21875 4.558594-1.382813 7.988281-5.160156 8.925781-9.835938h13.761719l-4.507813 4.507813 3.789063 3.761719 9.039062-9.066407c1.03125-1.042969 1.03125-2.722656 0-3.761719zm-29.335937 7.414063c-1.804688 2.316406-4.789063 3.386719-7.65625 2.742187-2.867188-.644531-5.105469-2.882812-5.75-5.75-.644531-2.871093.421875-5.851562 2.742187-7.660156 2.964844-2.898437 7.703125-2.898437 10.664063 0 2.902343 2.972656 2.878906 7.722656-.050781 10.667969zm0 0"/><path d="m140.800781 98.132812-.800781-.773437-8.265625-8.292969-3.734375 3.761719 4.507812 4.53125h-16c.28125-7.183594 3.117188-14.027344 8-19.304687 1.03125-1.042969 1.03125-2.722657 0-3.761719-1.042968-1.035157-2.722656-1.035157-3.761718 0-10.90625 10.90625-33.121094 10.878906-44.027344 0-1.039062-1.035157-2.71875-1.035157-3.757812 0-1.035157 1.039062-1.035157 2.71875 0 3.761719 10.90625 10.90625 10.90625 33.117187 0 44.023437-.492188.5-.769532 1.167969-.773438 1.867187-.003906.710938.273438 1.390626.773438 1.894532 1.039062 1.035156 2.71875 1.035156 3.757812 0 10.90625-10.90625 33.121094-10.90625 44.027344 0 1.039062 1.035156 2.71875 1.035156 3.761718 0 .496094-.503906.777344-1.183594.773438-1.894532-.003906-.699218-.28125-1.367187-.773438-1.867187-4.886718-5.304687-7.722656-12.175781-8-19.386719h16l-4.507812 4.507813 3.761719 3.761719 9.066406-9.066407c1.023437-1.046875 1.011719-2.726562-.027344-3.761719zm-27.066406 17.015626c-9.71875-3.769532-20.496094-3.769532-30.214844 0 3.785157-9.699219 3.785157-20.464844 0-30.160157 9.714844 3.785157 20.5 3.785157 30.214844 0-3.734375 9.714844-3.734375 20.46875 0 30.183594zm0 0"/><path d="m125.332031 47.785156c-16.046875-8.1875-34.964843-8.570312-51.332031-1.039062l-2.238281-4.824219c8.425781-3.914063 17.613281-5.925781 26.90625-5.894531 10.105469.007812 20.066406 2.414062 29.066406 7.011718zm0 0"/><path d="m42.238281 82.828125-5.089843-1.574219c1.609374-5.292968 3.914062-10.351562 6.851562-15.039062l4.507812 2.824218c-2.683593 4.304688-4.789062 8.9375-6.269531 13.789063zm0 0"/><path d="m154.292969 80.800781c-1.238281-3.640625-2.84375-7.144531-4.800781-10.453125l4.585937-2.667968c2.167969 3.613281 3.953125 7.4375 5.335937 11.414062zm0 0"/><path d="m154.828125 130.320312-4.589844-2.667968c1.933594-3.320313 3.542969-6.820313 4.800781-10.453125l5.039063 1.734375c-1.355469 3.964844-3.117187 7.78125-5.25 11.386718zm0 0"/><path d="m98.667969 163.972656c-9.867188.042969-19.601563-2.230468-28.429688-6.640625l2.375-4.773437c16.714844 8.226562 36.335938 8.058594 52.90625-.453125l2.480469 4.773437c-9.082031 4.648438-19.132812 7.078125-29.332031 7.09375zm0 0"/><path d="m42.960938 132.078125c-2.441407-4.207031-4.394532-8.679687-5.8125-13.332031l5.089843-1.574219c1.3125 4.269531 3.101563 8.375 5.335938 12.242187zm0 0"/><path d="m57.761719 156.535156c-6.144531-.027344-11.414063-4.382812-12.589844-10.410156-1.179687-6.027344 2.0625-12.050781 7.742187-14.382812 5.679688-2.335938 12.21875-.335938 15.621094 4.777343s2.71875 11.917969-1.628906 16.253907c-2.429688 2.414062-5.71875 3.765624-9.144531 3.761718zm0-20.507812c-3.632813-.015625-6.765625 2.542968-7.480469 6.101562s1.183594 7.125 4.539062 8.515625c3.351563 1.394531 7.21875.21875 9.234376-2.800781 2.015624-3.019531 1.613281-7.042969-.960938-9.605469-1.410156-1.421875-3.328125-2.226562-5.332031-2.238281zm0 0"/><path d="m57.761719 66.667969c-3.429688-.007813-6.71875-1.367188-9.148438-3.789063-4.363281-4.359375-5.039062-11.199218-1.609375-16.328125 3.425782-5.132812 10-7.128906 15.699219-4.765625 5.703125 2.359375 8.941406 8.417969 7.738281 14.46875-1.203125 6.050782-6.511718 10.410156-12.679687 10.414063zm-5.335938-7.546875c2.171875 2.15625 5.421875 2.804687 8.253907 1.640625 2.828124-1.167969 4.683593-3.914063 4.707031-6.976563-.023438-3.058594-1.878907-5.808594-4.707031-6.972656-2.832032-1.164062-6.082032-.519531-8.253907 1.640625-2.914062 2.957031-2.914062 7.707031 0 10.667969zm0 0"/></g></svg>