<?xml version="1.0" encoding="UTF-8"?>
<svg version="1.1" xmlns="http://www.w3.org/2000/svg" width="200" height="200">
<path d="M0 0 C66 0 132 0 200 0 C200 66 200 132 200 200 C134 200 68 200 0 200 C0 134 0 68 0 0 Z " fill="#FDFDFD" transform="translate(0,0)"/>
<path d="M0 0 C16.83 0 33.66 0 51 0 C51.66 2.64 52.32 5.28 53 8 C56.17811891 18.88464558 63.00020161 27.90882593 72.73828125 33.7890625 C84.81888486 40.25708861 97.23163544 42.19486552 110.6875 38.4375 C122.65443298 34.28332716 131.75745611 27.3924933 137.75 16.1875 C140.50819634 10.16583093 140.50819634 10.16583093 143 0 C159.83 0 176.66 0 194 0 C192.82648511 15.25569353 192.82648511 15.25569353 190.9375 21.3125 C190.72125977 22.01979248 190.50501953 22.72708496 190.28222656 23.45581055 C182.25381673 48.40755461 165.06098849 68.6602841 142.06201172 81.04345703 C120.19875115 92.21434564 92.93952452 95.38749314 69.3203125 88.19140625 C68.22460938 87.79824219 67.12890625 87.40507812 66 87 C64.96617188 86.63777344 63.93234375 86.27554688 62.8671875 85.90234375 C48.66535351 80.43296904 37.60742345 72.75159502 27 62 C26.17628906 61.18660156 25.35257813 60.37320313 24.50390625 59.53515625 C9.55778811 43.96736248 0 21.55071361 0 0 Z " fill="#141755" transform="translate(2,106)"/>
<path d="M0 0 C1.48633811 1.19950093 2.96553788 2.40790058 4.4375 3.625 C5.53191406 4.49898437 5.53191406 4.49898437 6.6484375 5.390625 C24.30434106 20.13485324 35.87260031 42.87838959 38.4375 65.625 C38.4375 67.935 38.4375 70.245 38.4375 72.625 C30.1875 72.625 21.9375 72.625 13.4375 72.625 C12.756875 69.61375 12.07625 66.6025 11.375 63.5 C6.84410942 44.84740429 -2.44697756 29.57554754 -18.5625 18.625 C-36.58927207 7.71720232 -57.31552705 4.14865324 -78 9.125 C-96.50011479 14.56176843 -111.01664939 25.64621661 -120.76171875 42.3125 C-125.98562292 51.92176406 -128.42741626 61.94958128 -130.5625 72.625 C-138.8125 72.625 -147.0625 72.625 -155.5625 72.625 C-154.18059139 47.19788154 -143.94552488 24.06844475 -125.375 6.4375 C-89.72883538 -24.43910739 -38.27359607 -29.0510428 0 0 Z " fill="#B2B2B2" transform="translate(157.5625,22.375)"/>
<path d="M0 0 C15.18 0 30.36 0 46 0 C46 1.98 46 3.96 46 6 C45.53754883 5.35256836 45.07509766 4.70513672 44.59863281 4.03808594 C40.72986584 1.00384442 37.21251534 1.39717913 32.421875 1.390625 C31.4953009 1.37408875 30.56872681 1.35755249 29.61407471 1.34051514 C26.659316 1.29199274 23.70507211 1.27065476 20.75 1.25 C18.74476571 1.22184387 16.73955544 1.19191695 14.734375 1.16015625 C9.82295904 1.08623255 4.91182959 1.03668376 0 1 C0 0.67 0 0.34 0 0 Z " fill="#171949" transform="translate(7,106)"/>
<path d="M0 0 C-1.49097658 3.7952131 -3.75700849 5.61042731 -7 8 C-6.75 5.125 -6.75 5.125 -6 2 C-3.84139132 0.46808416 -2.63707871 0 0 0 Z " fill="#1C1D51" transform="translate(174,161)"/>
<path d="M0 0 C1.32 0 2.64 0 4 0 C3.67 1.32 3.34 2.64 3 4 C-0.75 5.125 -0.75 5.125 -3 4 C-1.75 2 -1.75 2 0 0 Z " fill="#22245F" transform="translate(138,125)"/>
</svg>
