<svg width="400" height="400" xmlns="http://www.w3.org/2000/svg">
 <title>traefik_otel</title>
 <g id="Layer_1">
  <title>Layer 1</title>
  <g>
   <path d="m334.57962,336.73511c-5.246,5.25 -5.246,13.758 0,19.008c5.25,5.246 13.758,5.246 19.004,0c5.25,-5.25 5.25,-13.758 0,-19.008c-5.246,-5.246 -13.754,-5.246 -19.004,0zm14.207,14.21899a6.649,6.649 0 0 1 -9.41,0a6.65,6.65 0 0 1 0,-9.40698a6.649,6.649 0 0 1 9.41,0c2.59802,2.58597 2.59802,6.80899 0,9.40698zm4.57501,-80.34399l-8.23502,8.23398a4.17,4.17 0 0 0 0,5.875l32.14902,32.14902a4.17,4.17 0 0 0 5.875,0l8.23401,-8.23499c1.60999,-1.61002 1.60999,-4.26102 0,-5.87003l-32.16302,-32.15399a4.159,4.159 0 0 0 -5.85999,0l0,0.00101zm-57.69202,105.22299a3.763,3.763 0 0 0 0,-5.31l-4.18298,-4.18701a3.768,3.768 0 0 0 -5.31302,0l-8.64401,8.64902l-0.01599,0.01199l-2.371,-2.37503c-1.31299,-1.31296 -3.44998,-1.31296 -4.74997,0c-1.31302,1.31204 -1.31302,3.44904 0,4.75003l14.246,14.242a3.353,3.353 0 0 0 4.746,0c1.29999,-1.31302 1.31299,-3.45001 0,-4.746l-2.37503,-2.375l0.01602,-0.01202l8.64398,-8.64798zm0,0" fill="#f5a800"/>
   <path d="m339.22861,294.2511l-18.29297,18.29202c-1.62503,1.62497 -1.62503,4.30096 0,5.92599l11.29599,11.29297c7.98401,-5.746 19.17999,-5.03497 26.36301,2.15302l9.14798,-9.14902c1.62201,-1.625 1.62201,-4.29697 0,-5.922l-22.591,-22.59299a4.185,4.185 0 0 0 -5.922,0l-0.00101,0zm-11.74698,40.272l-6.672,-6.67203c-1.56299,-1.56198 -4.125,-1.56198 -5.68402,0l-23.53,23.54004a4.036,4.036 0 0 0 0,5.68698l13.33102,13.332a4.036,4.036 0 0 0 5.68799,0l15.13199,-15.15698c-3.19897,-6.60901 -2.625,-14.59302 1.73502,-20.73001zm0,0" fill="#425cc7"/>
  </g>
  <g>
   <g fill-rule="evenodd" fill="none">
    <path fill-rule="nonzero" fill="#C9781F" d="m108.30396,159.4939s21.155,-18.392 83.77,-18.392c57.44,0 73.58299,13.013 89.97798,18.392l-85.535,41.74001l-88.213,-41.74001l0.00002,0z"/>
    <path fill-rule="nonzero" fill="#F6D2A2" d="m99.37296,214.85091c0.388,7.978 8.368,4.287 11.98299,1.793c3.432,-2.368 4.43501,-0.40001 4.736,-5.07401c0.19701,-3.071 0.552,-6.142 0.377,-9.22699c-5.188,-0.47 -10.83199,0.765 -15.08599,3.851c-2.191,1.59 -6.3,6.66499 -2.01,8.657"/>
    <path fill-rule="nonzero" fill="#C6B198" d="m99.37296,214.85091c1.16199,-0.431 2.392,-0.73801 3.17999,-1.787"/>
    <path fill-rule="nonzero" fill="#37ABC8" d="m117.81696,119.8059c-30.583,-8.588 -7.84201,-47.44299 16.717,-31.461l-16.717,31.461zm135.88,-34.377c24.20801,-16.98 46.08301,21.33 17.95001,30.97l-17.95001,-30.97z"/>
    <path fill-rule="nonzero" fill="#F6D2A2" d="m258.90497,313.04092c6.14899,3.80002 17.388,15.28799 8.16299,20.85898c-8.86203,8.104 -13.82301,-8.89502 -21.60201,-11.25c3.34999,-4.54398 7.59599,-8.68701 13.43901,-9.60898z"/>
    <path d="m267.06796,333.89893c-1.36703,-2.71503 -1.82602,-5.88403 -4.11002,-8.073"/>
    <path fill-rule="nonzero" fill="#F6D2A2" d="m149.05196,326.02393c-7.217,1.116 -11.28,7.61896 -17.29601,10.92001c-5.67,3.37595 -7.838,-1.08005 -8.35001,-1.98502c-0.88799,-0.40503 -0.813,0.37601 -2.185,-1.00299c-5.256,-8.28302 5.476,-14.33801 11.06401,-18.45303c7.784,-1.57196 12.66299,5.16702 16.767,10.52203l0,-0.00101z"/>
    <path d="m123.40695,334.95792c0.27499,-3.15701 2.782,-5.27103 3.976,-7.94003"/>
    <path fill-rule="nonzero" fill="#077E91" d="m119.09295,109.07391c-4.035,-2.13 -6.995,-5.025 -4.527,-9.686c2.285,-4.314 6.53001,-3.846 10.565,-1.715l-6.038,11.402l0,-0.001zm146.17902,-4.051c4.035,-2.132 6.995,-5.026 4.52698,-9.687c-2.28497,-4.315 -6.53,-3.84601 -10.565,-1.715l6.03802,11.402z"/>
    <path fill-rule="nonzero" fill="#F6D2A2" d="m293.04697,213.83791c-0.38803,7.978 -8.36902,4.287 -11.98401,1.79199c-3.431,-2.368 -4.43399,-0.39999 -4.73499,-5.07199c-0.19803,-3.07201 -0.55203,-6.14301 -0.37802,-9.22701c5.18903,-0.47 10.83301,0.76401 15.08701,3.85001c2.19,1.59 6.30002,6.66499 2.01001,8.657"/>
    <path fill-rule="nonzero" fill="#C6B198" d="m293.04697,213.83791c-1.16202,-0.43201 -2.39301,-0.73801 -3.181,-1.787"/>
    <path fill-rule="nonzero" fill="#37ABC8" d="m193.14494,69.2909c30.61801,0 59.32001,4.373 74.283,33.749c13.42999,32.927 8.65302,68.43401 10.702,103.233c1.758,29.88 5.659,64.40199 -8.22198,92.09203c-14.60303,29.133 -51.09102,36.461 -81.15402,35.38797c-23.61398,-0.84396 -52.13899,-8.53799 -65.46498,-30.082c-15.635,-25.276 -8.233,-62.85899 -7.09801,-90.98399c1.346,-33.315 -9.036,-66.73 1.924,-99.33c11.368,-33.817 42.02999,-41.46 75.02999,-44.066"/>
    <path fill-rule="nonzero" fill="#FFF" d="m198.54996,110.33791c5.498,31.91299 57.73199,23.47499 50.23,-8.71001c-6.728,-28.863 -52.056,-20.87399 -50.23,8.71001m-62.42001,5.161c7.125,27.783 51.66701,20.67 49.98801,-7.199c-2.01199,-33.378 -56.8,-26.937 -49.98801,7.2m72.56001,32.03699c0.02499,4.26501 1.011,8.43401 0.159,13.22101c-1.06,2.002 -3.14,2.21399 -4.935,3.02299a7.261,7.261 0 0 1 -5.56,-4.332c-0.63701,-5.03799 0.237,-9.916 0.39799,-14.95599l9.939,3.04399l-0.00099,0z"/>
    <g fill-rule="nonzero" transform="translate(72.02 59.408)">
     <ellipse ry="8.136" rx="7.521" cy="51.5599" cx="76.39495" fill="#000"/>
     <ellipse ry="2.068" rx="1.773" cy="53.3949" cx="79.81595" fill="#FFF"/>
    </g>
    <g fill-rule="nonzero" transform="translate(135.068 57.766)">
     <ellipse ry="8.136" rx="7.396" cy="51.1759" cx="76.36595" fill="#000"/>
     <ellipse ry="2.068" rx="1.744" cy="53.0119" cx="79.73095" fill="#FFF"/>
    </g>
    <path fill-rule="nonzero" fill="#FFF" d="m187.19595,148.1799c-3.282,7.94299 1.83,23.825 10.73399,12.11c-0.63599,-5.03801 0.23801,-9.91499 0.39801,-14.955l-11.132,2.845z"/>
    <path fill-rule="nonzero" fill="#F6D2A2" d="m186.67395,132.8839c-6.116,0.52101 -11.116,7.78401 -7.935,13.53001c4.211,7.61 13.61099,-0.67401 19.466,0.10199c6.73799,0.138 12.25999,7.116 17.67101,1.26199c6.01999,-6.51099 -2.591,-12.85199 -9.32001,-15.68698l-19.882,0.79399l0,-0.00101z"/>
    <g fill-rule="nonzero">
     <path fill="#EF9325" d="m108.30396,159.4939s1.936,20.94801 1.80299,29.97801c-0.132,9.03 8.53101,3.32799 8.98,17.528c0.45,14.20099 -5.247,11.508 -8.249,18.45799c-3.001,6.95 -5.041,39.50002 -5.041,39.50002s3.07999,6.082 12.7,11.55798s25.08999,8.552 38.486,7.94601c13.395,-0.60602 22.963,-3.47202 25.355,-5.05701c2.392,-1.58502 6.36299,-6.59802 7.856,-10.474c1.493,-3.87698 4.61299,-35.808 4.396,-54.08c-0.218,-18.272 -3.24001,-35.13 -3.24001,-35.13l-83.04699,-20.22701l0.001,0z"/>
     <path fill="#E5E5E5" d="m193.15594,248.4579c-39.44699,4.39799 -85.21799,-7.759 -85.21799,-7.759s0.672,-12.33 3.632,-16.67c41.02701,12.694 82.41701,8.67 82.41701,8.67c0.614,5.75601 0.181,10.332 -0.83101,15.76001l0,-0.00101zm-4.96599,24.30199c-39.44701,4.39801 -82.39301,-8.24698 -82.39301,-8.24698s-0.138,-11.843 1.429,-17.04401c41.026,12.694 84.847,9.53 84.847,9.53c-0.369,6.25 -1.24901,12.40002 -3.883,15.76099z"/>
    </g>
    <g fill-rule="nonzero">
     <path fill="#EF9325" d="m282.05197,159.4939s-0.26703,20.94801 -0.13303,29.97801c0.134,9.03 -5.25,3.32799 -5.70599,17.528c-0.45599,14.20099 5.31299,11.508 8.353,18.45799c3.039,6.95 5.10501,39.50002 5.10501,39.50002s-3.12,6.082 -12.86002,11.55798c-9.741,5.47598 -25.40599,8.552 -38.96999,7.94601c-13.563,-0.60602 -23.25,-3.47202 -25.673,-5.05701c-2.423,-1.58502 -6.44299,-6.59802 -7.955,-10.474c-1.51199,-3.87698 -4.67099,-35.808 -4.451,-54.08c0.22,-18.272 3.28101,-35.13 3.28101,-35.13l79.00999,-20.22701l-0.00098,0z"/>
     <path fill="#E5E5E5" d="m201.21396,248.4579c39.94301,4.39799 86.289,-7.759 86.289,-7.759s-0.67999,-12.33 -3.67798,-16.67c-41.54301,12.694 -83.45203,8.67 -83.45203,8.67c-0.62199,5.75601 -0.18401,10.332 0.841,15.76001l0,-0.00101zm5.028,24.30199c39.942,4.39801 83.42802,-8.24698 83.42802,-8.24698s0.13998,-11.843 -1.44702,-17.04401c-41.543,12.694 -85.91301,9.53 -85.91301,9.53c0.37401,6.25 1.26401,12.40002 3.93201,15.76099z"/>
    </g>
    <g fill-rule="nonzero">
     <path fill="#D2E261" d="m297.98694,197.9149c-1.24097,2.34 -3.698,3.468 -5.48697,2.52l-1.43402,-0.757c-1.78998,-0.94701 -2.23502,-3.61099 -0.99301,-5.95l27.95203,-52.688c1.23999,-2.34 3.698,-3.468 5.48697,-2.521l1.43405,0.758c1.78995,0.94701 2.23395,3.61101 0.99298,5.95l-27.95203,52.688z"/>
     <path fill="#000" d="m284.78595,222.7979c-0.72299,1.362 -2.75998,1.7 -4.54901,0.752l-1.43298,-0.758c-1.78998,-0.94701 -2.655,-2.819 -1.93201,-4.18201l13.11401,-24.71899c0.72299,-1.36301 2.76001,-1.70001 4.54999,-0.75301l1.43298,0.759c1.79004,0.946 2.65503,2.819 1.93103,4.181l-13.11401,24.72z"/>
     <path fill="#9B9B9B" d="m296.44595,192.99591l-1.43298,-0.758c-1.79001,-0.94701 -3.62,-0.998 -4.09003,-0.11501l-0.83798,1.58c0.46899,-0.884 2.29999,-0.832 4.09,0.11501l1.43301,0.758c1.78998,0.94701 2.85999,2.43001 2.39197,3.314l0.83801,-1.58c0.47,-0.883 -0.60202,-2.36699 -2.392,-3.314z"/>
    </g>
    <ellipse ry="4.754" rx="6.153" cy="207.2899" cx="284.63695" transform="rotate(20.414 284.637 207.29)" fill-rule="nonzero" fill="#F6D2A2"/>
    <g fill-rule="nonzero">
     <path fill="#D2E261" d="m95.44395,198.7659c1.132,2.39301 3.534,3.63301 5.365,2.77l1.467,-0.69299c1.83099,-0.86401 2.39799,-3.50401 1.26599,-5.89801l-25.50299,-53.91299c-1.132,-2.394 -3.535,-3.634 -5.366,-2.77l-1.467,0.692c-1.82999,0.864 -2.39799,3.50499 -1.26499,5.89799l25.503,53.914z"/>
     <path fill="#000" d="m107.48795,224.2269c0.66,1.39401 2.679,1.82399 4.51001,0.96001l1.467,-0.692c1.831,-0.86401 2.781,-2.69402 2.12099,-4.089l-11.965,-25.29401c-0.66,-1.394 -2.67899,-1.82401 -4.50999,-0.96001l-1.467,0.69101c-1.831,0.864 -2.781,2.69499 -2.121,4.09l11.965,25.29401z"/>
     <path fill="#9B9B9B" d="m97.20795,193.92191l1.467,-0.692c1.831,-0.864 3.662,-0.83099 4.09,0.073l0.76499,1.617c-0.42799,-0.90401 -2.25999,-0.936 -4.08999,-0.073l-1.467,0.692c-1.83,0.864 -2.969,2.297 -2.541,3.20099l-0.765,-1.61699c-0.427,-0.903 0.71,-2.33701 2.541,-3.20001l0,-0.00099z"/>
    </g>
    <ellipse ry="4.754" rx="6.153" cy="207.9779" cx="109.58895" transform="rotate(159.586 109.59 207.978)" fill-rule="nonzero" fill="#F6D2A2"/>
    <g fill-rule="nonzero" transform="translate(26.517 0.826)">
     <path fill="#960000" d="m94.88795,130.95491c-1.216,2.20799 -4.084,2.96399 -6.407,1.689l-2.672,-1.467c-2.323,-1.276 -3.22,-4.10001 -2.004,-6.30801l27.803,-50.496c1.216,-2.208 4.08499,-2.964 6.40799,-1.689l2.67101,1.467c2.323,1.276 2.922,3.662 2.00401,6.30801c-9.73901,28.064 -27.803,50.496 -27.803,50.496z"/>
     <path fill="#595959" d="m102.24295,102.11191c8.455,-15.356 14.00999,-28.562 12.686,-30.06001l0.032,-0.057c-0.036,-0.02 -0.075,-0.033 -0.11101,-0.052c-0.004,-0.003 -0.00599,-0.012 -0.00999,-0.015l-0.004,0.008c-12.993,-7.03001 -30.473,-0.068 -39.109,15.616c-8.63499,15.684 -5.158,34.154 7.746,41.344l-0.00401,0.008c0.005,0.00201 0.013,-0.002 0.01801,0c0.036,0.02 0.067,0.04601 0.103,0.06601l0.032,-0.05701c1.97401,0.314 10.166,-11.445 18.62,-26.8l0.001,-0.00099z"/>
     <path fill="#960000" d="m241.57596,131.06091c1.151,2.24199 3.99699,3.07999 6.356,1.87199l2.71199,-1.39001c2.35901,-1.20699 3.338,-4.00399 2.186,-6.24599l-26.332,-51.277c-1.15201,-2.242 -3.998,-3.08 -6.356,-1.872l-2.713,1.39c-2.358,1.207 -3.02701,3.576 -2.186,6.246c8.925,28.333 26.33301,51.27701 26.33301,51.27701z"/>
     <path fill="#595959" d="m235.05795,102.01791c-8.008,-15.593 -13.17999,-28.955 -11.813,-30.414l-0.03,-0.057c0.037,-0.019 0.076,-0.03001 0.11301,-0.05c0.00499,-0.002 0.006,-0.011 0.00999,-0.013l0.005,0.007c13.19,-6.653 30.461,0.81 38.64001,16.737c8.17899,15.92599 4.16998,34.28799 -8.93701,41.104l0.004,0.00699c-0.005,0.00301 -0.013,-0.00099 -0.017,0.00101c-0.037,0.02 -0.069,0.04401 -0.106,0.062l-0.03,-0.05699c-1.983,0.256 -9.83101,-11.73401 -17.84,-27.327l0.00099,0z"/>
     <path fill="#353535" d="m261.12994,95.4419s-9.72899,-24.334 -21.01198,-37.2c-11.283,-12.865 -121.67501,-17.252 -139.803,0c-18.128,17.253 -24.96301,37.2 -24.96301,37.2l0,-5.39s8.385,-23.688 24.96301,-37.2c16.578,-13.51 125.518,-12.799 139.57201,0c14.05499,12.8 21.243,37.2 21.243,37.2l0,5.39l-0.00003,0z"/>
     <ellipse ry="9.294" rx="3.81" cy="89.0499" cx="260.98995" transform="rotate(152.851 260.99 89.0499)" fill="#960000"/>
     <ellipse ry="9.294" rx="3.81" cy="88.4149" cx="76.70895" transform="rotate(28.803 76.71 88.4149)" fill="#960000"/>
    </g>
    <g fill-rule="nonzero" fill="#FFF">
     <path opacity="0.6" d="m246.05196,91.1339l-102.966,0c-18.48601,0 -18.423,49.06001 -1.06599,51.88801l35.89099,-2.30501c4.34,0 13.00401,-16.784 14.63,-18.104c1.625,-1.319 6.978,-1.48 9.08701,0c2.10799,1.48 6.90399,16.412 11.24199,16.412l35.892,3.996c16.76399,-7.70401 12.53801,-51.887 -2.70999,-51.887z"/>
     <path opacity="0.5" d="m170.42397,101.27791c-11.34001,-0.25301 -29.08401,-0.15001 -38.77602,-0.07101c-1.625,5.32 -3.437,12.058 -2.53799,18.6c8.802,0 27.938,0.042 41.54601,0.042c8.194,0 15.084,1.54401 21.48999,3.217c0.158,-0.202 0.29001,-0.35 0.39401,-0.434c1.62599,-1.32 6.98,-1.48 9.088,0c0.545,0.383 1.27299,1.674 2.123,3.367c3.27199,0.688 6.54799,1.164 9.95299,1.207c9.27301,0.117 31.007,0.08 44.992,0.04c1.78,-5.944 0.46701,-12.316 0.06802,-18.304c-13.65402,0 -35.35402,-0.307 -45.75801,-0.307c-14.65901,0 -27.45702,-7.02 -42.582,-7.35699z"/>
    </g>
    <path fill-rule="nonzero" fill="#000" d="m185.90495,132.5659c-0.45299,-10.582 19.75,-11.904 22.13499,-3.047c2.38,8.83701 -21.13998,10.89 -22.13499,3.047c-0.79399,-6.261 0,0 0,0z"/>
   </g>
  </g>
 </g>

</svg>