<svg width="303" height="296" viewBox="0 0 303 296" fill="none" xmlns="http://www.w3.org/2000/svg">
<mask id="mask0_3_20" style="mask-type:luminance" maskUnits="userSpaceOnUse" x="152" y="141" width="151" height="155">
<path d="M302.303 141H152V296H302.303V141Z" fill="white"/>
</mask>
<g mask="url(#mask0_3_20)">
<mask id="mask1_3_20" style="mask-type:luminance" maskUnits="userSpaceOnUse" x="152" y="141" width="151" height="155">
<path d="M302.303 141H152V296H302.303V141Z" fill="white"/>
</mask>
<g mask="url(#mask1_3_20)">
<path fill-rule="evenodd" clip-rule="evenodd" d="M184.879 150.688H217.758V160.375H184.879V150.688Z" fill="#0B64DD"/>
<path fill-rule="evenodd" clip-rule="evenodd" d="M203.666 179.75H241.242V189.437H203.666V179.75Z" fill="#0B64DD"/>
<path fill-rule="evenodd" clip-rule="evenodd" d="M217.757 203.969H236.545V213.656H217.757V203.969Z" fill="#0B64DD"/>
<path fill-rule="evenodd" clip-rule="evenodd" d="M236.545 160.375H264.727V170.062H236.545V160.375Z" fill="#0B64DD"/>
<path fill-rule="evenodd" clip-rule="evenodd" d="M166.09 266.937C166.09 261.587 170.297 257.25 175.484 257.25H274.121C279.309 257.25 283.515 261.587 283.515 266.937V286.312C283.515 291.663 279.309 296 274.121 296H175.484C170.297 296 166.09 291.663 166.09 286.312V266.937ZM274.121 266.937H175.484V286.312H274.121V266.937Z" fill="#0B64DD"/>
<path fill-rule="evenodd" clip-rule="evenodd" d="M250.636 222.568L301.127 163.58L294.084 157.169L241.242 218.903V247.562H250.636V222.568Z" fill="#101C3F"/>
<path fill-rule="evenodd" clip-rule="evenodd" d="M198.969 222.439L153.034 163.406L160.36 157.343L208.363 219.032V247.562H198.969V222.439Z" fill="#101C3F"/>
</g>
</g>
<path d="M99.498 106.059C91.5464 114.259 91.5464 127.554 99.498 135.754C107.449 143.954 120.342 143.954 128.293 135.754C136.245 127.554 136.245 114.259 128.293 106.059C120.342 97.859 107.449 97.859 99.498 106.059ZM121.024 128.277C117.086 132.338 110.706 132.338 106.768 128.277C102.83 124.216 102.83 117.636 106.768 113.576C110.706 109.515 117.086 109.515 121.024 113.576C124.961 117.617 124.961 124.216 121.024 128.277ZM127.953 2.73992L115.476 15.606C113.034 18.1246 113.034 22.2636 115.476 24.7821L164.188 75.0164C166.631 77.5349 170.644 77.5349 173.087 75.0164L185.563 62.1503C188.005 59.6318 188.005 55.4928 185.563 52.9742L136.832 2.73992C134.39 0.221378 130.395 0.221378 127.953 2.73992ZM40.5436 167.148C42.7586 164.864 42.7586 161.135 40.5436 158.851L34.2014 152.31C31.9863 150.026 28.3703 150.026 26.1553 152.31L13.0543 165.821L13.0354 165.84L9.43833 162.131C7.45053 160.081 4.21312 160.081 2.24419 162.131C0.256331 164.181 0.256331 167.519 2.24419 169.55L23.8266 191.807C25.8145 193.857 29.0519 193.857 31.0208 191.807C32.9897 189.757 33.0087 186.418 31.0208 184.388L27.4237 180.678L27.4427 180.659L40.5436 167.148Z" fill="#F5A800"/>
<path d="M106.541 39.6786L78.8241 68.2612C76.3629 70.7993 76.3629 74.9774 78.8241 77.5154L95.9386 95.1648C108.036 86.1839 124.999 87.2968 135.885 98.523L149.743 84.2316C152.205 81.6935 152.205 77.5154 149.743 74.9774L115.514 39.6786C113.053 37.121 109.002 37.121 106.541 39.6786ZM88.7445 102.603L78.6348 92.1777C76.2683 89.7372 72.3872 89.7372 70.0207 92.1777L34.3718 128.96C32.0053 131.401 32.0053 135.403 34.3718 137.843L54.5722 158.675C56.9387 161.116 60.8198 161.116 63.1863 158.675L86.1129 134.993C81.2663 124.665 82.1372 112.189 88.7445 102.603Z" fill="#425CC7"/>
</svg>
