<?xml version="1.0" encoding="UTF-8" standalone="no"?>
<svg
   width="32"
   height="32"
   viewBox="0 0 32 32"
   version="1.1"
   id="svg942"
   xmlns="http://www.w3.org/2000/svg"
   xmlns:svg="http://www.w3.org/2000/svg">
  <defs
     id="defs946">
    <meshgradient
       id="meshgradient1203"
       gradientUnits="userSpaceOnUse"
       x="0.13891348"
       y="1.9998512">
      <meshrow
         id="meshrow1205">
        <meshpatch
           id="meshpatch1207">
          <stop
             path="c 10.0827,0  20.1655,0  30.2482,0"
             style="stop-color:#ffffff;stop-opacity:1"
             id="stop1209" />
          <stop
             path="c 0,9.38876  0,18.7775  0,28.1663"
             style="stop-color:#000000;stop-opacity:1"
             id="stop1211" />
          <stop
             path="c -10.0827,0  -20.1655,0  -30.2482,0"
             style="stop-color:#ffffff;stop-opacity:1"
             id="stop1213" />
          <stop
             path="c 0,-9.38876  0,-18.7775  0,-28.1663"
             style="stop-color:#000000;stop-opacity:1"
             id="stop1215" />
        </meshpatch>
      </meshrow>
    </meshgradient>
  </defs>
  <g
     id="Layer_1"
     style="fill-opacity:1;fill:url(#meshgradient1203)">
    <title
       id="title909"
       style="fill-opacity:1.0">Redis with OpenTelemetry</title>
    <!-- Redis logo scaled and positioned in top-left -->
    <g
       transform="translate(0, 2) scale(0.75)"
       id="g933"
       style="fill-opacity:1.0">
      <g
         fill-rule="nonzero"
         fill="none"
         id="g931"
         style="fill-opacity:1.0">
        <path
           d="M30.594 20.791c-1.689.875-10.438 4.451-12.3 5.416-1.863.966-2.898.956-4.37.257-1.471-.699-10.782-4.437-12.46-5.234-.838-.399-1.278-.735-1.278-1.052v-3.18s12.121-2.623 14.078-3.32c1.957-.699 2.636-.724 4.301-.118 1.666.607 11.623 2.393 13.27 2.992l-.001 3.135c0 .314-.38.659-1.24 1.104z"
           fill="#A41E11"
           id="path911"
           style="fill-opacity:1.0" />
        <path
           d="M30.594 17.61c-1.689.875-10.438 4.451-12.3 5.417-1.863.965-2.898.956-4.37.256-1.471-.698-10.782-4.438-12.46-5.234-1.676-.797-1.712-1.345-.064-1.987 1.647-.641 10.907-4.252 12.864-4.95 1.957-.698 2.636-.723 4.301-.117 1.666.607 10.363 4.048 12.009 4.647 1.646.6 1.71 1.093.02 1.968z"
           fill="#D82C20"
           id="path913"
           style="fill-opacity:1.0" />
        <path
           d="M30.594 15.606c-1.689.875-10.438 4.45-12.3 5.416-1.863.965-2.898.956-4.37.257-1.471-.7-10.782-4.438-12.46-5.235-.838-.398-1.278-.734-1.278-1.051v-3.18S12.307 9.19 14.264 8.492c1.957-.698 2.636-.723 4.301-.117 1.666.606 11.623 2.392 13.27 2.991l-.001 3.135c0 .315-.38.66-1.24 1.105z"
           fill="#A41E11"
           id="path915"
           style="fill-opacity:1.0" />
        <path
           d="M30.594 12.425c-1.689.875-10.438 4.45-12.3 5.416-1.863.966-2.898.956-4.37.257-1.471-.699-10.782-4.438-12.46-5.235-1.676-.796-1.712-1.345-.064-1.986 1.647-.641 10.907-4.253 12.864-4.95 1.957-.698 2.636-.724 4.301-.117 1.666.606 10.363 4.047 12.009 4.646 1.646.6 1.71 1.094.02 1.969z"
           fill="#D82C20"
           id="path917"
           style="fill-opacity:1.0" />
        <path
           d="M30.594 10.228c-1.689.875-10.438 4.451-12.3 5.417-1.863.965-2.898.955-4.37.256-1.471-.699-10.782-4.438-12.46-5.234C.627 10.268.187 9.932.187 9.615v-3.18s12.121-2.623 14.078-3.32c1.957-.699 2.636-.724 4.301-.117 1.666.606 11.623 2.391 13.27 2.99l-.001 3.136c0 .314-.38.659-1.24 1.104z"
           fill="#A41E11"
           id="path919"
           style="fill-opacity:1.0" />
        <path
           d="M30.594 7.047c-1.689.875-10.438 4.451-12.3 5.417-1.863.965-2.898.955-4.37.256-1.471-.699-10.782-4.437-12.46-5.234C-.211 6.689-.247 6.14 1.4 5.499 3.047 4.858 12.307 1.247 14.264.55 16.221-.15 16.9-.174 18.565.432c1.666.607 10.363 4.048 12.009 4.647 1.646.6 1.71 1.093.02 1.968z"
           fill="#D82C20"
           id="path921"
           style="fill-opacity:1.0" />
        <path
           fill="#FFF"
           d="M20.157 3.985l-2.742.283-.614 1.468-.992-1.638-3.166-.283 2.362-.847-.708-1.3 2.212.86 2.085-.68-.563 1.345zM16.637 11.108l-5.118-2.11 7.334-1.119z"
           id="path923"
           style="fill-opacity:1.0" />
        <ellipse
           fill="#FFF"
           cx="9.541"
           cy="6.311"
           rx="3.92"
           ry="1.51"
           id="ellipse925"
           style="fill-opacity:1.0" />
        <path
           fill="#7A0C00"
           d="M23.398 4.386l4.34 1.705-4.336 1.703z"
           id="path927"
           style="fill-opacity:1.0" />
        <path
           fill="#AD2115"
           d="M18.596 6.274l4.802-1.888.004 3.408-.471.183z"
           id="path929"
           style="fill-opacity:1.0" />
      </g>
    </g>
    <!-- OpenTelemetry logo in bottom-right corner with original colors -->
    <g
       transform="translate(18, 18) scale(0.44)"
       id="g939"
       style="fill-opacity:1.0">
      <path
         fill="#f5a800"
         d="m 12.821371,12.833219 c -1.339686,1.353665 -1.339686,3.548535 0,4.9022 1.339687,1.353666 3.511911,1.353666 4.851629,0 1.339719,-1.353665 1.339687,-3.548535 0,-4.9022 -1.339687,-1.353665 -3.511909,-1.353665 -4.851629,0 z m 3.62674,3.667776 c -0.663432,0.670391 -1.738416,0.670391 -2.401883,0 -0.663432,-0.670391 -0.663432,-1.756519 0,-2.426909 0.663467,-0.670392 1.738418,-0.670392 2.401883,0 0.663498,0.66717 0.663498,1.756518 0,2.426909 z m 1.167458,-20.7239453 -2.102037,2.1239742 c -0.411453,0.4157677 -0.411453,1.09904421 0,1.51481195 l 8.207224,8.29277355 c 0.411452,0.4158016 1.087673,0.4158016 1.49919,0 l 2.102037,-2.1239405 c 0.411485,-0.4157692 0.411485,-1.0990442 0,-1.5148134 l -8.21041,-8.2928058 c -0.411485,-0.4157678 -1.084518,-0.4157678 -1.496004,0 z M 2.8884867,22.918009 c 0.3731873,-0.377086 0.3731873,-0.992686 0,-1.369771 L 1.8199133,20.468519 c -0.3731873,-0.377117 -0.98244334,-0.377117 -1.355663,0 l -2.2073327,2.230298 -0.00322,0.0032 -0.6060349,-0.612381 c -0.3349216,-0.338399 -0.8804014,-0.338399 -1.2121342,0 -0.3349216,0.338402 -0.3349216,0.889552 0,1.224761 l 3.63630607,3.67425 c 0.33492162,0.338402 0.88036916,0.338402 1.21213423,0 0.331765,-0.3384 0.3348894,-0.889549 0,-1.22476 l -0.60606712,-0.612381 0.003223,-0.0032 2.20730052,-2.23033 z"
         id="path935"
         style="fill-opacity:1;stroke-width:3.22102" />
      <path
         fill="#425cc7"
         d="M 14.007963,1.874988 9.3381604,6.5934601 c -0.4146413,0.4189903 -0.4146413,1.1087073 0,1.5276976 l 2.8835546,2.9136063 c 2.038262,-1.4825711 4.896273,-1.2988775 6.730385,0.554368 l 2.334886,-2.359234 c 0.414641,-0.418991 0.414641,-1.1087403 0,-1.5276983 L 15.519943,1.874988 c -0.414675,-0.4222112 -1.097305,-0.4222112 -1.511948,0 v 0 z M 11.009612,12.262746 9.3062724,10.541657 c -0.3987296,-0.402853 -1.0525972,-0.402853 -1.4513271,0 l -6.0063006,6.07217 c -0.3986977,0.402884 -0.3986977,1.063614 0,1.466467 l 3.4034908,3.438955 c 0.398698,0.402884 1.0526294,0.402884 1.4513272,0 l 3.8628083,-3.909513 c -0.8165607,-1.704951 -0.6698438,-3.764472 0.443374,-5.34696 v 0 z"
         id="path937"
         style="fill-opacity:1;stroke-width:3.22102" />
    </g>
  </g>
</svg>
