<?xml version="1.0" encoding="UTF-8"?>
<svg width="32" height="32" version="1.1" viewBox="0 0 32 32" xmlns="http://www.w3.org/2000/svg">
 <defs>
  <meshgradient id="meshgradient1203" x="0.13891348" y="1.9998512" gradientUnits="userSpaceOnUse">
   <meshrow>
    <meshpatch>
     <stop stop-color="#fff" path="c 10.0827,0  20.1655,0  30.2482,0"/>
     <stop path="c 0,9.38876  0,18.7775  0,28.1663"/>
     <stop stop-color="#fff" path="c -10.0827,0  -20.1655,0  -30.2482,0"/>
     <stop path="c 0,-9.38876  0,-18.7775  0,-28.1663"/>
    </meshpatch>
   </meshrow>
  </meshgradient>
 </defs>
 <g fill="url(#meshgradient1203)">
  <title>Redis with OpenTelemetry</title>
  <!-- Redis logo scaled and positioned in top-left -->
  <g transform="translate(0 2) scale(.75)">
   <g>
    <path d="M30.594 20.791c-1.689.875-10.438 4.451-12.3 5.416-1.863.966-2.898.956-4.37.257-1.471-.699-10.782-4.437-12.46-5.234-.838-.399-1.278-.735-1.278-1.052v-3.18s12.121-2.623 14.078-3.32c1.957-.699 2.636-.724 4.301-.118 1.666.607 11.623 2.393 13.27 2.992l-.001 3.135c0 .314-.38.659-1.24 1.104z" fill="#A41E11"/>
    <path d="M30.594 17.61c-1.689.875-10.438 4.451-12.3 5.417-1.863.965-2.898.956-4.37.256-1.471-.698-10.782-4.438-12.46-5.234-1.676-.797-1.712-1.345-.064-1.987 1.647-.641 10.907-4.252 12.864-4.95 1.957-.698 2.636-.723 4.301-.117 1.666.607 10.363 4.048 12.009 4.647 1.646.6 1.71 1.093.02 1.968z" fill="#D82C20"/>
    <path d="M30.594 15.606c-1.689.875-10.438 4.45-12.3 5.416-1.863.965-2.898.956-4.37.257-1.471-.7-10.782-4.438-12.46-5.235-.838-.398-1.278-.734-1.278-1.051v-3.18S12.307 9.19 14.264 8.492c1.957-.698 2.636-.723 4.301-.117 1.666.606 11.623 2.392 13.27 2.991l-.001 3.135c0 .315-.38.66-1.24 1.105z" fill="#A41E11"/>
    <path d="M30.594 12.425c-1.689.875-10.438 4.45-12.3 5.416-1.863.966-2.898.956-4.37.257-1.471-.699-10.782-4.438-12.46-5.235-1.676-.796-1.712-1.345-.064-1.986 1.647-.641 10.907-4.253 12.864-4.95 1.957-.698 2.636-.724 4.301-.117 1.666.606 10.363 4.047 12.009 4.646 1.646.6 1.71 1.094.02 1.969z" fill="#D82C20"/>
    <path d="M30.594 10.228c-1.689.875-10.438 4.451-12.3 5.417-1.863.965-2.898.955-4.37.256-1.471-.699-10.782-4.438-12.46-5.234C.627 10.268.187 9.932.187 9.615v-3.18s12.121-2.623 14.078-3.32c1.957-.699 2.636-.724 4.301-.117 1.666.606 11.623 2.391 13.27 2.99l-.001 3.136c0 .314-.38.659-1.24 1.104z" fill="#A41E11"/>
    <path d="M30.594 7.047c-1.689.875-10.438 4.451-12.3 5.417-1.863.965-2.898.955-4.37.256-1.471-.699-10.782-4.437-12.46-5.234C-.211 6.689-.247 6.14 1.4 5.499 3.047 4.858 12.307 1.247 14.264.55 16.221-.15 16.9-.174 18.565.432c1.666.607 10.363 4.048 12.009 4.647 1.646.6 1.71 1.093.02 1.968z" fill="#D82C20"/>
    <path d="M20.157 3.985l-2.742.283-.614 1.468-.992-1.638-3.166-.283 2.362-.847-.708-1.3 2.212.86 2.085-.68-.563 1.345zM16.637 11.108l-5.118-2.11 7.334-1.119z" fill="#FFF"/>
    <ellipse cx="9.541" cy="6.311" rx="3.92" ry="1.51" fill="#FFF"/>
    <path d="m23.398 4.386 4.34 1.705-4.336 1.703z" fill="#7A0C00"/>
    <path d="M18.596 6.274l4.802-1.888.004 3.408-.471.183z" fill="#AD2115"/>
   </g>
  </g>
  <!-- OpenTelemetry logo in bottom-right corner with original colors -->
  <g transform="translate(18 18) scale(.44)" stroke-width="3.221">
   <path d="m12.821 12.833c-1.3397 1.3537-1.3397 3.5485 0 4.9022 1.3397 1.3537 3.5119 1.3537 4.8516 0 1.3397-1.3537 1.3397-3.5485 0-4.9022s-3.5119-1.3537-4.8516 0zm3.6267 3.6678c-0.66343 0.67039-1.7384 0.67039-2.4019 0-0.66343-0.67039-0.66343-1.7565 0-2.4269 0.66347-0.67039 1.7384-0.67039 2.4019 0 0.6635 0.66717 0.6635 1.7565 0 2.4269zm1.1675-20.724-2.102 2.124c-0.41145 0.41577-0.41145 1.099 0 1.5148l8.2072 8.2928c0.41145 0.4158 1.0877 0.4158 1.4992 0l2.102-2.1239c0.41148-0.41577 0.41148-1.099 0-1.5148l-8.2104-8.2928c-0.41148-0.41577-1.0845-0.41577-1.496 0zm-14.727 27.141c0.37319-0.37709 0.37319-0.99269 0-1.3698l-1.0686-1.0797c-0.37319-0.37712-0.98244-0.37712-1.3557 0l-2.2073 2.2303-0.00322 0.0032-0.60603-0.61238c-0.33492-0.3384-0.8804-0.3384-1.2121 0-0.33492 0.3384-0.33492 0.88955 0 1.2248l3.6363 3.6742c0.33492 0.3384 0.88037 0.3384 1.2121 0 0.33176-0.3384 0.33489-0.88955 0-1.2248l-0.60607-0.61238 0.003223-0.0032 2.2073-2.2303z" fill="#f5a800"/>
   <path d="m14.008 1.875-4.6698 4.7185c-0.41464 0.41899-0.41464 1.1087 0 1.5277l2.8836 2.9136c2.0383-1.4826 4.8963-1.2989 6.7304 0.55437l2.3349-2.3592c0.41464-0.41899 0.41464-1.1087 0-1.5277l-5.767-5.8272c-0.41468-0.42221-1.0973-0.42221-1.5119 0zm-2.9984 10.388-1.7033-1.7211c-0.39873-0.40285-1.0526-0.40285-1.4513 0l-6.0063 6.0722c-0.3987 0.40288-0.3987 1.0636 0 1.4665l3.4035 3.439c0.3987 0.40288 1.0526 0.40288 1.4513 0l3.8628-3.9095c-0.81656-1.705-0.66984-3.7645 0.44337-5.347z" fill="#425cc7"/>
  </g>
 </g>
</svg>