<svg width="32" height="32" xmlns="http://www.w3.org/2000/svg" viewBox="0 0 32 32">
 <g id="Layer_1">
  <title>Redis with OpenTelemetry</title>
  <!-- Redis logo scaled and positioned in top-left -->
  <g transform="translate(0, 2) scale(0.72)">
   <g fill-rule="nonzero" fill="none">
    <path d="M30.594 20.791c-1.689.875-10.438 4.451-12.3 5.416-1.863.966-2.898.956-4.37.257-1.471-.699-10.782-4.437-12.46-5.234-.838-.399-1.278-.735-1.278-1.052v-3.18s12.121-2.623 14.078-3.32c1.957-.699 2.636-.724 4.301-.118 1.666.607 11.623 2.393 13.27 2.992l-.001 3.135c0 .314-.38.659-1.24 1.104z" fill="#A41E11"/>
    <path d="M30.594 17.61c-1.689.875-10.438 4.451-12.3 5.417-1.863.965-2.898.956-4.37.256-1.471-.698-10.782-4.438-12.46-5.234-1.676-.797-1.712-1.345-.064-1.987 1.647-.641 10.907-4.252 12.864-4.95 1.957-.698 2.636-.723 4.301-.117 1.666.607 10.363 4.048 12.009 4.647 1.646.6 1.71 1.093.02 1.968z" fill="#D82C20"/>
    <path d="M30.594 15.606c-1.689.875-10.438 4.45-12.3 5.416-1.863.965-2.898.956-4.37.257-1.471-.7-10.782-4.438-12.46-5.235-.838-.398-1.278-.734-1.278-1.051v-3.18S12.307 9.19 14.264 8.492c1.957-.698 2.636-.723 4.301-.117 1.666.606 11.623 2.392 13.27 2.991l-.001 3.135c0 .315-.38.66-1.24 1.105z" fill="#A41E11"/>
    <path d="M30.594 12.425c-1.689.875-10.438 4.45-12.3 5.416-1.863.966-2.898.956-4.37.257-1.471-.699-10.782-4.438-12.46-5.235-1.676-.796-1.712-1.345-.064-1.986 1.647-.641 10.907-4.253 12.864-4.95 1.957-.698 2.636-.724 4.301-.117 1.666.606 10.363 4.047 12.009 4.646 1.646.6 1.71 1.094.02 1.969z" fill="#D82C20"/>
    <path d="M30.594 10.228c-1.689.875-10.438 4.451-12.3 5.417-1.863.965-2.898.955-4.37.256-1.471-.699-10.782-4.438-12.46-5.234C.627 10.268.187 9.932.187 9.615v-3.18s12.121-2.623 14.078-3.32c1.957-.699 2.636-.724 4.301-.117 1.666.606 11.623 2.391 13.27 2.99l-.001 3.136c0 .314-.38.659-1.24 1.104z" fill="#A41E11"/>
    <path d="M30.594 7.047c-1.689.875-10.438 4.451-12.3 5.417-1.863.965-2.898.955-4.37.256-1.471-.699-10.782-4.437-12.46-5.234C-.211 6.689-.247 6.14 1.4 5.499 3.047 4.858 12.307 1.247 14.264.55 16.221-.15 16.9-.174 18.565.432c1.666.607 10.363 4.048 12.009 4.647 1.646.6 1.71 1.093.02 1.968z" fill="#D82C20"/>
    <path fill="#FFF" d="M20.157 3.985l-2.742.283-.614 1.468-.992-1.638-3.166-.283 2.362-.847-.708-1.3 2.212.86 2.085-.68-.563 1.345zM16.637 11.108l-5.118-2.11 7.334-1.119z"/>
    <ellipse fill="#FFF" cx="9.541" cy="6.311" rx="3.92" ry="1.51"/>
    <path fill="#7A0C00" d="M23.398 4.386l4.34 1.705-4.336 1.703z"/>
    <path fill="#AD2115" d="M18.596 6.274l4.802-1.888.004 3.408-.471.183z"/>
   </g>
  </g>
  <!-- OpenTelemetry logo in bottom-right corner with original colors - bigger size -->
  <g transform="translate(11, 11) scale(0.66)">
   <path fill="#f5a800" d="M23.55484 23.17677c-0.41592 0.42026-0.41592 1.10168 0 1.52194s1.09031 0.42026 1.50624 0 0.41592-1.10168 0-1.52194-1.09031-0.42026-1.50624 0zm1.12596 1.1387c-0.20597 0.20813-0.53971 0.20813-0.74569 0-0.20597-0.20813-0.20597-0.54533 0-0.75346 0.20598-0.20813 0.53971-0.20813 0.74569 0 0.20599 0.20713 0.20599 0.54533 0 0.75346zm0.36245-6.43397l-0.6526 0.65941c-0.12774 0.12908-0.12774 0.34121 0 0.47029l2.54802 2.57458c0.12774 0.12909 0.33768 0.12909 0.46544 0l0.6526-0.6594c0.12775-0.12908 0.12775-0.34121 0-0.47029l-2.54901-2.57459c-0.12775-0.12908-0.3367-0.12908-0.46445 0l0 0zm-4.57218 8.4262c0.11586-0.11707 0.11586-0.30819 0-0.42526l-0.33175-0.33521c-0.11586-0.11708-0.30501-0.11708-0.42088 0l-0.68529 0.69242-0.00099 0.00101-0.18815-0.19012c-0.10398-0.10506-0.27333-0.10506-0.37632 0-0.10398 0.10506-0.10398 0.27617 0 0.38024l1.12893 1.14071c0.10398 0.10506 0.27332 0.10506 0.37632 0s0.10397-0.27617 0-0.38024l-0.18816-0.19012 0.001-0.001 0.68528-0.69243z"/>
   <path fill="#425cc7" d="M23.92323 19.77467l-1.44979 1.4649c-0.12873 0.13008-0.12873 0.34421 0 0.47429l0.89523 0.90456c0.6328-0.46028 1.5201-0.40325 2.08952 0.17211l0.72489-0.73245c0.12873-0.13008 0.12873-0.34422 0-0.47429l-1.79044-1.80912c-0.12874-0.13108-0.34067-0.13108-0.4694 0l0 0zm-0.93087 3.22499l-0.52882-0.53433c-0.12379-0.12507-0.32679-0.12507-0.45058 0l-1.86472 1.88517c-0.12378 0.12508-0.12378 0.33021 0 0.45528l1.05665 1.06766c0.12378 0.12508 0.3268 0.12508 0.45058 0l1.19925-1.21375c-0.25351-0.52932-0.20796-1.16872 0.13765-1.66002l0 0z"/>
  </g>
 </g>
</svg>
