<?xml version="1.0" encoding="UTF-8"?>
<svg version="1.1" xmlns="http://www.w3.org/2000/svg" width="1757" height="1415">
<path d="M0 0 C1.20726109 -0.0043933 1.20726109 -0.0043933 2.43891128 -0.00887535 C5.13414124 -0.01624818 7.82914381 -0.00940552 10.52437258 -0.0026266 C12.48525602 -0.00501668 14.44613856 -0.00828202 16.40701926 -0.0123432 C21.81442684 -0.02098427 27.22176524 -0.01712796 32.62917393 -0.01128747 C38.50525699 -0.00712596 44.38132722 -0.01451419 50.25740719 -0.02043998 C60.5629777 -0.02921691 70.8685301 -0.03057724 81.17410326 -0.02693671 C92.23291769 -0.02306131 103.29171925 -0.02351415 114.35053301 -0.02924651 C115.04897914 -0.02960533 115.74742527 -0.02996416 116.46703643 -0.03033386 C119.3117399 -0.03180878 122.15644336 -0.03331318 125.0011468 -0.03485533 C153.88923689 -0.05049728 182.77731815 -0.05316832 211.66541171 -0.05069926 C215.6586736 -0.05036081 219.6519355 -0.05003871 223.64519739 -0.04973358 C224.4383879 -0.04967254 225.23157842 -0.04961149 226.04880501 -0.0495486 C243.62866307 -0.0482766 261.20851992 -0.05087838 278.78837762 -0.05425965 C282.80295983 -0.0550304 286.81754205 -0.05577513 290.83212426 -0.05652466 C292.44339028 -0.05682635 294.0546563 -0.05712823 295.66592231 -0.0574303 C296.46460808 -0.05757998 297.26329384 -0.05772966 298.08618221 -0.05788388 C299.7017204 -0.05818741 301.31725859 -0.05849209 302.93279678 -0.05879792 C348.78606589 -0.0674734 394.63933394 -0.07211346 440.49260378 -0.06785029 C441.76657705 -0.06773321 441.76657705 -0.06773321 443.06628716 -0.06761376 C452.53688032 -0.06674097 462.00747347 -0.06581171 471.47806662 -0.06486312 C472.76062432 -0.06473486 472.76062432 -0.06473486 474.06909228 -0.064604 C481.17304981 -0.06389328 481.17304981 -0.06389328 484.44261775 -0.06356178 C539.08234601 -0.05803123 593.72205735 -0.0655521 648.36178255 -0.08433264 C662.11837177 -0.08905515 675.874961 -0.0937358 689.63155031 -0.09816951 C690.47868307 -0.09844283 691.32581582 -0.09871615 692.19861927 -0.09899775 C718.32977148 -0.10737598 744.46092228 -0.11204939 770.59207582 -0.11287707 C771.82368626 -0.11291662 771.82368626 -0.11291662 773.08017771 -0.11295697 C791.10972502 -0.1134979 809.13927222 -0.11312497 827.16881949 -0.11191725 C833.62131353 -0.11149166 840.07380758 -0.11112652 846.52630163 -0.11078781 C848.13144256 -0.11070251 849.73658349 -0.11061358 851.34172442 -0.11052099 C876.86963422 -0.10907498 902.3975325 -0.11618096 927.92543954 -0.12752496 C954.37987353 -0.13920443 980.83428704 -0.13970687 1007.28872114 -0.12768153 C1010.13736107 -0.12642983 1012.98600102 -0.12522633 1015.83464098 -0.12406081 C1016.53370156 -0.12377052 1017.23276214 -0.12348022 1017.95300637 -0.12318113 C1028.9658819 -0.11887695 1039.97872804 -0.12454932 1050.99159896 -0.134501 C1061.85436839 -0.14410266 1072.71709108 -0.14252939 1083.57985801 -0.13029478 C1089.37678229 -0.12406784 1095.17360147 -0.12236046 1100.97051948 -0.13415811 C1205.46976061 -0.33203732 1303.70875065 28.19212884 1427.16939974 130.626849 C1430.82150022 134.29788454 1434.37658012 138.02549045 1437.72799349 141.97450525 C1439.28171929 143.797085 1440.85769927 145.58859439 1442.45455599 147.37294275 C1460.29159251 167.42086078 1475.74221839 189.6220202 1489.41939974 212.689349 C1489.80136507 213.33218835 1490.1833304 213.97502771 1490.57687044 214.63734704 C1497.52377207 226.63969058 1501.54590068 239.21014967 1498.63033724 253.20106775 C1494.47931996 266.37970391 1487.55958871 276.15219993 1475.66939974 283.251849 C1468.96253841 286.4789185 1462.72102186 288.37371949 1455.24579734 288.38245952 C1454.16093139 288.38614023 1453.07606544 288.38982094 1451.95832476 288.39361319 C1450.76980509 288.39259052 1449.58128543 288.39156785 1448.35675001 288.39051419 C1447.0863889 288.39335641 1445.81602779 288.39619863 1444.50717089 288.39912698 C1440.96764398 288.40690561 1437.42813704 288.40846921 1433.88860263 288.4090544 C1430.04300229 288.41078159 1426.19741256 288.41826591 1422.35181838 288.42503095 C1415.60760964 288.43609707 1408.86340466 288.44346328 1402.11918879 288.44842988 C1392.09073854 288.45583172 1382.06230138 288.4689139 1372.03385883 288.48317564 C1355.16557726 288.50700284 1338.29729337 288.52620001 1321.42900324 288.54277498 C1304.72289572 288.55920565 1288.01679255 288.57768405 1271.3106904 288.59890825 C1269.75364534 288.60088466 1269.75364534 288.60088466 1268.16514483 288.60290099 C1262.89369594 288.60960291 1257.62224711 288.61634152 1252.35079829 288.62309425 C1214.99549582 288.67088042 1177.6401893 288.7140588 1140.28487825 288.75453454 C1103.99060442 288.79387114 1067.69633395 288.83529044 1031.40206575 288.87953454 C1030.28367551 288.88089707 1029.16528526 288.8822596 1028.0130044 288.88366342 C1016.78185591 288.89734858 1005.55070747 288.91107614 994.31955907 288.92483476 C971.43961632 288.95286268 948.55967324 288.98060758 925.67972994 289.00818139 C924.62770518 289.00944959 923.57568043 289.01071779 922.49177614 289.01202442 C852.21765613 289.0967063 781.94352847 289.17479048 711.66939974 289.251849 C710.39765114 293.16957139 709.13260578 297.08942884 707.86861849 301.0096615 C707.51376375 302.1025448 707.15890902 303.1954281 706.79330111 304.32142907 C679.51767236 389.07797792 681.53088736 483.39212916 709.77633333 567.60756189 C710.13214479 568.66995584 710.48795626 569.73234979 710.85454988 570.8269375 C711.12345034 571.62715829 711.39235079 572.42737909 711.66939974 573.251849 C712.64299836 573.2522153 712.64299836 573.2522153 713.63626565 573.252589 C784.2998491 573.27931662 854.96342967 573.31098511 925.62699556 573.36848718 C926.68250398 573.36934469 927.73801239 573.3702022 928.82550591 573.37108569 C951.76442246 573.38975122 974.70333816 573.40930372 997.64225317 573.42976995 C1008.89145488 573.43980115 1020.14065675 573.44963634 1031.38985872 573.45936853 C1032.50929087 573.46034033 1033.62872303 573.46131214 1034.78207737 573.46231339 C1071.06756603 573.49372184 1107.35304726 573.51218693 1143.63854717 573.52394146 C1180.92590876 573.53608889 1218.21323928 573.56129118 1255.50058016 573.60292514 C1260.76688345 573.60879925 1266.0331869 573.61452408 1271.29949045 573.62015802 C1272.85421999 573.6218282 1272.85421999 573.6218282 1274.44035821 573.62353213 C1291.12644114 573.64107345 1307.81250016 573.64484857 1324.49859107 573.6434782 C1341.27283062 573.64239429 1358.04700894 573.65580734 1374.82122525 573.68401328 C1384.78768427 573.70033151 1394.75400477 573.7055393 1404.72047217 573.69482074 C1411.38044698 573.68875401 1418.04030216 573.69719159 1424.70024897 573.71734129 C1428.49352612 573.72840507 1432.28652181 573.73323978 1436.07979967 573.72036144 C1440.17235883 573.70661461 1444.26421742 573.72390552 1448.35675001 573.74404031 C1449.52585791 573.7351366 1450.69496582 573.72623289 1451.89950123 573.71705937 C1464.96689347 573.84039436 1475.92673652 577.44448144 1485.66939974 586.251849 C1494.60531256 595.78681743 1499.4301071 607.14597539 1499.66939974 620.251849 C1498.34408763 657.5569305 1457.56929547 698.0949648 1433.66939974 724.251849 C1432.76166857 725.25298873 1431.85412493 726.25429853 1430.94674349 727.25575525 C1423.91075827 735.00201679 1416.79403312 742.53128986 1408.84518099 749.3534115 C1406.36287776 751.51929905 1403.95884829 753.76061857 1401.54439974 756.001849 C1395.19440589 761.78409924 1388.49087566 767.04050945 1381.66939974 772.251849 C1381.02809114 772.74475427 1380.38678255 773.23765954 1379.72604036 773.74550134 C1302.4235922 833.05776969 1209.4811645 862.17519374 1078.64898797 862.64685361 C1070.24044809 862.6370886 1061.83194551 862.64515684 1053.4234074 862.6534651 C1036.9610593 862.6691594 1020.4987464 862.66793562 1004.03639505 862.65922836 C989.64345444 862.65165362 975.25052667 862.64972468 960.85758448 862.65329629 C959.89939333 862.65352545 958.94120219 862.6537546 957.95397495 862.6539907 C954.06370191 862.65492483 950.17342887 862.65588004 946.28315585 862.65686999 C909.88533608 862.66602165 873.48753864 862.6577639 837.08972233 862.6415793 C804.77325197 862.62731892 772.45681707 862.6286413 740.140347 862.64296228 C703.7703767 862.65902599 667.40042602 862.66539858 631.03045267 862.65612549 C627.15478592 862.6551634 623.27911916 862.65422488 619.4034524 862.65329629 C618.44926863 862.65305906 617.49508486 862.65282183 616.51198643 862.65257741 C602.11437953 862.64916752 587.71678685 862.65315053 573.31918192 862.66073495 C556.96364981 862.6693082 540.60815814 862.66717655 524.25263108 862.65089272 C515.10320769 862.6420836 505.9538719 862.64150949 496.80445078 862.65283124 C490.69286033 862.65955979 484.58134009 862.65536927 478.46976004 862.64231694 C474.98867509 862.63518486 471.50776415 862.6327316 468.02668471 862.64353488 C464.27309183 862.65264671 460.51997637 862.64331063 456.76640844 862.62937242 C455.69160867 862.63639592 454.6168089 862.64341941 453.50943944 862.65065575 C440.08401515 862.55090072 428.53100773 858.45986232 418.58736849 849.329974 C408.57062477 838.47680157 405.54757329 826.24856781 405.54190779 811.85558206 C405.54026396 811.15308495 405.53862012 810.45058784 405.53692648 809.72680295 C405.53263243 807.38489111 405.53538015 805.04304217 405.53809786 802.70112878 C405.53639434 800.99983904 405.53424402 799.29854969 405.5316866 797.59726101 C405.52709916 793.90388781 405.52566687 790.21053135 405.52665186 786.51715547 C405.52824805 780.50555148 405.52303458 774.49396404 405.51702547 768.48236352 C405.5089163 759.74812845 405.50396959 751.01389628 405.50073481 742.27965814 C405.49522395 728.44068446 405.47830857 714.60173524 405.45939302 700.76277429 C405.45303596 696.0203465 405.44672743 691.27791866 405.44041586 686.53549081 C405.4388321 685.35014191 405.43724833 684.164793 405.43561658 682.94352444 C405.41768066 669.45043517 405.40145782 655.95734416 405.38644075 642.46425134 C405.38437695 640.61457258 405.38437695 640.61457258 405.38227145 638.72752658 C405.36041344 618.81282237 405.34960297 598.89812452 405.34207001 578.98341045 C405.33396128 558.48905024 405.31054529 537.99474387 405.27411634 517.50041443 C405.25223897 504.89065023 405.24238102 492.28099721 405.24861667 479.67121503 C405.25182382 470.99709904 405.24024985 462.32307697 405.21772226 453.64899006 C405.20522023 448.66630161 405.19867811 443.68382269 405.2101388 438.70112687 C405.27400281 408.11080027 403.66152718 377.85317721 397.41939974 347.814349 C397.27521608 347.09464929 397.13103243 346.37494958 396.98247957 345.63344079 C393.55003684 328.50443908 389.1396399 311.60919335 383.6020627 295.03602868 C383.24053449 293.95343774 382.87900627 292.8708468 382.50652266 291.75545007 C382.23027209 290.92926172 381.95402153 290.10307336 381.66939974 289.251849 C380.44099683 289.25038378 380.44099683 289.25038378 379.1877777 289.24888897 C330.64589021 289.19061094 282.10404746 289.11680959 233.56221522 289.02286271 C227.73311613 289.01159461 221.90401681 289.00045615 216.07491732 288.98939782 C214.33422172 288.9860923 214.33422172 288.9860923 212.55836055 288.98272 C193.7708396 288.94735221 174.98331868 288.92248514 156.19577678 288.90150198 C136.91655546 288.87973581 117.63737733 288.8466776 98.35819274 288.80314744 C86.46290471 288.77664484 74.56767047 288.7589392 62.67235438 288.75250296 C54.51415696 288.74724484 46.35602724 288.73101355 38.1978661 288.70618334 C33.49177614 288.69218297 28.78580731 288.68299209 24.07969522 288.68684083 C19.76691367 288.69026089 15.45439047 288.67982975 11.1416618 288.65861348 C9.58563061 288.65336224 8.02957246 288.65309311 6.47354164 288.65845337 C-9.65885747 288.70834415 -22.08643652 285.8730873 -34.00247526 274.66981775 C-44.23261149 264.04489438 -47.48762751 251.3067938 -47.47104216 236.83557397 C-47.47401328 236.01459334 -47.4769844 235.19361271 -47.48004556 234.34775388 C-47.48868206 231.61061559 -47.49023652 228.87352129 -47.49173307 226.13637048 C-47.49636489 224.1679298 -47.50139004 222.19949002 -47.50677824 220.23105127 C-47.51987075 214.8918534 -47.52634125 209.55266809 -47.5307889 204.21345669 C-47.53372521 200.87299683 -47.53783111 197.53254037 -47.54229307 194.19208223 C-47.55596082 183.72693234 -47.56563054 173.26179025 -47.56949496 162.79663205 C-47.57397157 150.7418548 -47.5915041 138.68719116 -47.62049556 126.63244843 C-47.6421605 117.2979808 -47.65220184 107.96354501 -47.65353608 98.62905252 C-47.65458082 93.06188696 -47.66041781 87.49482832 -47.67835569 81.92768937 C-47.69491934 76.68520128 -47.69695185 71.4428995 -47.68821669 66.20039445 C-47.68745069 64.28570823 -47.69173072 62.37101165 -47.70167494 60.4563511 C-47.78903674 42.5742557 -46.47131714 26.6886203 -33.70560026 12.939349 C-24.2665278 3.99781801 -12.84230342 -0.08155926 0 0 Z " fill="#FD9A60" transform="translate(137.33060026168823,368.7481510043144)"/>
<path d="M0 0 C2.25491821 -0.00810008 4.50969791 -0.02308286 6.76456833 -0.03962708 C91.52294769 -0.58124793 178.47267704 27.28756975 246.98554611 77.491745 C247.66149826 77.98658386 248.33745041 78.48142273 249.03388596 78.99125671 C273.95184006 97.31952842 298.95237711 117.54001092 319.04413986 141.21440125 C320.59786566 143.036981 322.17384564 144.82849039 323.77070236 146.61283875 C341.60773888 166.66075678 357.05836477 188.8619162 370.73554611 211.929245 C371.11751144 212.57208435 371.49947678 213.21492371 371.89301682 213.87724304 C378.83991845 225.87958658 382.86204705 238.45004567 379.94648361 252.44096375 C375.79546633 265.61959991 368.87573508 275.39209593 356.98554611 282.491745 C350.27841083 285.71894632 344.03821128 287.61719224 336.56194371 287.61594349 C335.47707776 287.61819078 334.39221181 287.62043808 333.27447113 287.62275347 C331.49169163 287.61881295 331.49169163 287.61881295 329.67289639 287.61479282 C328.40253527 287.61594667 327.13217416 287.61710051 325.82331726 287.61828932 C322.28378425 287.62136281 318.74427988 287.61817951 315.204749 287.61401119 C311.35915346 287.61058117 307.51356087 287.61294699 303.66796476 287.61458868 C296.92375161 287.61666438 290.17954728 287.6150153 283.43533516 287.61095047 C273.40689048 287.60492295 263.37845137 287.60461397 253.3500052 287.60549246 C236.48171832 287.60680737 219.61343535 287.60346112 202.74514961 287.59747505 C186.03904514 287.59156171 169.33294229 287.58770985 152.62683678 287.58662224 C151.06979172 287.58651913 151.06979172 287.58651913 149.4812912 287.58641394 C144.20984236 287.58607561 138.93839351 287.58577422 133.66694466 287.58548706 C96.31163687 287.58338563 58.95633122 287.57664544 21.60102463 287.56718445 C-14.69324609 287.55800278 -50.98751623 287.55091781 -87.28178787 287.54667664 C-88.40017812 287.54654511 -89.51856837 287.54641358 -90.67084923 287.54627807 C-101.90199767 287.54495957 -113.13314611 287.54368376 -124.36429456 287.54243921 C-147.24423763 287.53990288 -170.12418067 287.53708162 -193.00412369 287.53408813 C-194.05614844 287.53395084 -195.1081732 287.53381355 -196.19207749 287.5336721 C-266.46620384 287.52446862 -336.74032901 287.50862309 -407.01445389 287.491745 C-406.048507 281.38171195 -404.13198191 276.15374134 -401.82695389 270.429245 C-401.17025711 268.79777527 -401.17025711 268.79777527 -400.50029373 267.13334656 C-385.66261394 230.95014263 -366.09220757 197.32485591 -342.01445389 166.491745 C-341.32351639 165.59971375 -340.63257889 164.7076825 -339.92070389 163.78862 C-325.24944848 145.14891026 -309.1088472 126.68321856 -291.05351639 111.25346375 C-288.78753159 109.29568761 -286.59301895 107.26945552 -284.38945389 105.241745 C-278.73997609 100.14596793 -272.78593428 95.48924951 -266.76396561 90.84721375 C-265.12032931 89.57377407 -263.48949718 88.28584892 -261.86211014 86.991745 C-212.23167637 47.93828892 -152.4248375 21.96302728 -91.01445389 8.491745 C-90.2376326 8.3154657 -89.46081131 8.1391864 -88.66044998 7.95756531 C-82.47902498 6.57178212 -76.27059982 5.48219696 -70.01445389 4.491745 C-68.89055252 4.30692566 -67.76665115 4.12210632 -66.60869217 3.9316864 C-44.49931682 0.47096111 -22.33161214 0.06264796 0 0 Z " fill="#305571" transform="translate(1256.0144538879395,369.5082550048828)"/>
<path d="M0 0 C71.31918927 -0.06855645 142.6383825 -0.1321546 213.95759583 -0.16937256 C215.54085845 -0.1702009 215.54085845 -0.1702009 217.15610617 -0.17104598 C240.09502152 -0.18301755 263.03393722 -0.19409828 285.97285343 -0.20426132 C297.22205536 -0.20925067 308.47125719 -0.21443689 319.72045898 -0.21972656 C320.83989114 -0.2202496 321.95932329 -0.22077263 323.11267763 -0.22131152 C359.3981809 -0.2383576 395.68365926 -0.26840335 431.96914744 -0.30518888 C469.2564901 -0.34292142 506.54381898 -0.36754228 543.83118042 -0.37565996 C549.09748389 -0.37681258 554.36378731 -0.37811513 559.63009071 -0.37950897 C560.66657707 -0.37977866 561.70306344 -0.38004836 562.77095848 -0.38032622 C579.4570561 -0.38505351 596.14311109 -0.40360687 612.82919133 -0.42732814 C629.6034115 -0.45087973 646.37758939 -0.45987125 663.15182551 -0.45400551 C673.11830202 -0.4509627 683.08462384 -0.45907856 693.05107243 -0.48319017 C699.71102941 -0.49820188 706.37088523 -0.4986461 713.03084923 -0.48732725 C716.82414072 -0.48129502 720.61713992 -0.48151871 724.41039994 -0.49953273 C728.50293211 -0.51881975 732.59479934 -0.50693334 736.68735027 -0.49219131 C737.85645818 -0.50269937 739.02556608 -0.51320742 740.2301015 -0.5240339 C753.29904171 -0.41764856 764.25749442 3.19277496 774 12 C782.93591282 21.53496843 787.76070736 32.89412639 788 46 C786.67468789 83.30508151 745.89989573 123.8431158 722 150 C721.09226883 151.00113974 720.18472519 152.00244953 719.27734375 153.00390625 C712.24135854 160.7501678 705.12463338 168.27944087 697.17578125 175.1015625 C694.69347802 177.26745005 692.28944855 179.50876957 689.875 181.75 C683.52500615 187.53225025 676.82147592 192.78866046 670 198 C669.35869141 198.49290527 668.71738281 198.98581055 668.05664062 199.49365234 C607.7620993 245.75617184 536.32025182 275.09332733 461 285 C459.04888306 285.26816528 459.04888306 285.26816528 457.05834961 285.54174805 C442.264096 287.4249366 427.45473646 287.35509122 412.5625 287.3125 C411.19943244 287.31027854 409.83636482 287.30810197 408.47329712 287.30596924 C375.952663 287.23552296 344.82318845 284.84989257 313 278 C311.93378418 277.78005371 310.86756836 277.56010742 309.76904297 277.33349609 C248.39535861 264.5877861 190.22382414 235.40938471 141 197 C140.11957031 196.32066406 139.23914063 195.64132812 138.33203125 194.94140625 C109.35187897 172.20167828 82.92692795 145.61819493 61 116 C60.50532227 115.33661621 60.01064453 114.67323242 59.50097656 113.98974609 C0 33.96550962 0 33.96550962 0 0 Z " fill="#335875" transform="translate(849,943)"/>
<path d="M0 0 C1.92314708 0.98094231 3.84087577 1.97148074 5.75585938 2.96826172 C7.86539073 4.05970142 9.98666031 5.12585566 12.109375 6.19140625 C37.63091629 19.14381271 61.03519462 35.32141518 83.01904297 53.57324219 C84.54202839 54.82857742 86.08405915 56.06073088 87.62890625 57.2890625 C99.42105185 66.67357182 110.14233587 77.31655033 120.8125 87.9375 C121.50230957 88.62263672 122.19211914 89.30777344 122.90283203 90.01367188 C127.38782463 94.51284713 131.61456013 99.17924051 135.75 104 C136.595625 104.96421875 137.44125 105.9284375 138.3125 106.921875 C164.91277154 137.78501057 216.75 201.25895903 216.75 244 C166.74398767 244.09156337 116.73798381 244.16204273 66.73190413 244.20426132 C60.82769832 244.20926412 54.92349267 244.21444141 49.01928711 244.21972656 C47.2561619 244.22130043 47.2561619 244.22130043 45.457418 244.22290608 C26.42736966 244.24030942 7.39736967 244.27184675 -11.63265 244.30861118 C-31.16044439 244.34602253 -50.68821346 244.36823627 -70.21604222 244.37635398 C-82.26492859 244.38184133 -94.31367827 244.39917031 -106.36252256 244.43166587 C-114.62582441 244.4528161 -122.88905564 244.45919887 -131.15238259 244.45400551 C-135.9192913 244.45144455 -140.68596124 244.45535952 -145.45282745 244.4768219 C-149.82114453 244.49634585 -154.18906318 244.49723223 -158.55739894 244.48359558 C-160.13363534 244.48191121 -161.70989701 244.48693583 -163.28608397 244.49953273 C-178.39211739 244.61319279 -188.44272102 241.42504626 -199.41015625 230.93359375 C-212.6414721 217.10872355 -212.55101036 200.41501439 -212.5246582 182.43041992 C-212.52901158 180.46138822 -212.53419681 178.49235821 -212.54014587 176.52333069 C-212.55348036 171.2008785 -212.5541207 165.87849757 -212.55158257 160.55603194 C-212.550509 156.10060032 -212.55540614 151.64518288 -212.560188 147.18975431 C-212.57126419 136.67165798 -212.57173135 126.15359738 -212.56567383 115.63549805 C-212.5596363 104.81268296 -212.57194384 93.98999794 -212.5932439 83.16720504 C-212.61090206 73.8496357 -212.61685458 64.53210762 -212.61360615 55.21452218 C-212.61179973 49.66083855 -212.61436513 44.1072477 -212.62832069 38.55357933 C-212.64096303 33.32744203 -212.6388947 28.1015064 -212.62590981 22.87537193 C-212.6235583 20.96713694 -212.626227 19.05888746 -212.63453293 17.1506691 C-212.7066125 -0.70921185 -211.37295903 -16.58235472 -198.625 -30.3125 C-157.30002644 -69.69350667 -41.45641962 -20.68121891 0 0 Z " fill="#E56037" transform="translate(302.25,412)"/>
</svg>
