<svg xmlns="http://www.w3.org/2000/svg" width="32" height="32" viewBox="0 0 32 32" fill="none">
<g clip-path="url(#clip0_1324_347708)">
<path d="M16.9192 0.209226C16.5992 0.0562259 16.2442 -0.0147741 15.8892 0.0032259L15.8882 0.0042259C15.6052 0.0182259 15.3282 0.0882259 15.0732 0.210226L3.94821 5.51523C3.66104 5.65149 3.40836 5.85088 3.20905 6.0985C3.00975 6.34612 2.86896 6.63556 2.79721 6.94523L0.0522103 18.8662C-0.017866 19.1751 -0.0173945 19.4959 0.0535896 19.8045C0.124574 20.1132 0.264244 20.402 0.46221 20.6492L8.16221 30.2072C8.56621 30.7082 9.17821 31.0002 9.82621 31.0002L21.1131 30.9975C21.0357 30.916 20.959 30.8335 20.8832 30.7502C20.2457 30.0495 19.6199 29.2338 19.1407 28.3593C18.6772 27.5132 18.25 26.4298 18.25 25.2449V24.4005C16.5001 24.8674 14.6393 24.7728 12.9352 24.1172L12.7842 24.3902C12.6722 24.4202 12.5642 24.4502 12.4972 24.5302C12.327 24.7335 12.2285 25.0228 12.1238 25.3304C12.0797 25.4601 12.0344 25.5931 11.9822 25.7242C11.9588 25.7973 11.9398 25.8674 11.9209 25.9369C11.8858 26.0662 11.8513 26.1934 11.7902 26.3332C11.7755 26.366 11.7545 26.4078 11.7347 26.4471C11.725 26.4665 11.7155 26.4853 11.7072 26.5022V26.5042L11.7062 26.5052C11.5282 26.8722 11.1172 27.0402 10.7872 26.8802C10.4582 26.7222 10.3332 26.3012 10.5032 25.9362C10.5136 25.9151 10.5253 25.8902 10.5372 25.8648C10.5551 25.8267 10.5736 25.7872 10.5892 25.7572C10.6621 25.6194 10.7415 25.5106 10.8223 25.4C10.8635 25.3436 10.905 25.2867 10.9462 25.2252C11.1992 24.8322 11.4192 24.4782 11.5492 24.1442C11.5812 24.0332 11.5332 23.8812 11.4902 23.7682L11.6102 23.4782C9.78842 22.4052 8.42247 20.7024 7.77021 18.6912L7.48021 18.7412C7.47173 18.7364 7.46233 18.731 7.45212 18.725C7.36838 18.6762 7.23002 18.5955 7.09721 18.6062C6.74482 18.6568 6.38159 18.7873 5.9459 18.9437L5.93621 18.9472C5.86786 18.9734 5.80388 19.0008 5.74045 19.0281C5.61457 19.0822 5.49082 19.1353 5.33921 19.1752C5.30185 19.1853 5.25177 19.1961 5.20547 19.206C5.19228 19.2088 5.1794 19.2116 5.16721 19.2142L5.15421 19.2182L5.14421 19.2192C4.74921 19.3042 4.36621 19.0892 4.28421 18.7342C4.20321 18.3792 4.45521 18.0192 4.84821 17.9242L4.85821 17.9212L4.86421 17.9202C4.88265 17.9159 4.903 17.9108 4.92379 17.9057C4.96501 17.8955 5.00797 17.8849 5.04121 17.8782C5.19351 17.85 5.32727 17.8446 5.46288 17.8391C5.53385 17.8363 5.60532 17.8334 5.68021 17.8272C6.14621 17.7792 6.53121 17.7392 6.87421 17.6322C6.97055 17.5925 7.0622 17.4714 7.13329 17.3776C7.14263 17.3652 7.15162 17.3534 7.16021 17.3422L7.43821 17.2622C7.13593 15.1636 7.62032 13.0273 8.79821 11.2642L8.58421 11.0742C8.58255 11.0644 8.58084 11.0529 8.57895 11.0403C8.56495 10.9467 8.54096 10.7864 8.45021 10.6912C8.19103 10.4479 7.86281 10.2451 7.4685 10.0013L7.46021 9.99623C7.39579 9.95839 7.33323 9.92509 7.27122 9.89208C7.1513 9.82824 7.03345 9.76551 6.90821 9.67323C6.88188 9.65348 6.84948 9.62723 6.81787 9.60161C6.80145 9.58832 6.78525 9.57519 6.77021 9.56323L6.76021 9.55523C6.44121 9.30123 6.36721 8.86323 6.59721 8.57523C6.66103 8.49741 6.74225 8.43569 6.83431 8.39504C6.92638 8.35439 7.02671 8.33596 7.12721 8.34123C7.29661 8.34845 7.45923 8.40979 7.59121 8.51623C7.60639 8.52837 7.62363 8.54177 7.64133 8.55554C7.67611 8.58258 7.71271 8.61103 7.73921 8.63423C7.85911 8.73795 7.94815 8.83987 8.03934 8.94424C8.08354 8.99483 8.12825 9.046 8.17721 9.09823L8.18528 9.10641C8.50968 9.43577 8.77966 9.70987 9.07521 9.90823C9.21003 9.98687 9.31796 9.96991 9.42224 9.95353C9.43862 9.95096 9.45492 9.9484 9.47121 9.94623C9.50921 9.97423 9.63721 10.0662 9.71121 10.1162C11.1683 8.56954 13.148 7.6194 15.2662 7.45023L15.2812 7.16923C15.3702 7.08323 15.4692 6.96023 15.4972 6.82523C15.5262 6.46823 15.4802 6.08323 15.4232 5.61923C15.4128 5.54634 15.4001 5.47755 15.3876 5.40933C15.363 5.27537 15.3388 5.14359 15.3322 4.98723C15.3316 4.96001 15.3324 4.92668 15.3331 4.89289C15.3336 4.8671 15.3342 4.84104 15.3342 4.81723L15.3322 4.79823C15.3322 4.39023 15.6312 4.06023 15.9992 4.06023H15.9982C16.3662 4.06023 16.6652 4.39023 16.6652 4.79823C16.6652 4.81747 16.6655 4.83862 16.6659 4.86024C16.6665 4.9049 16.6672 4.95151 16.6652 4.98723C16.66 5.14176 16.6359 5.27228 16.6114 5.40463C16.5985 5.47439 16.5856 5.54466 16.5752 5.61923L16.5697 5.66495C16.5161 6.10863 16.4712 6.48002 16.4992 6.82523C16.5217 6.97983 16.6031 7.05387 16.6809 7.12466C16.6932 7.13583 16.7054 7.14692 16.7172 7.15823C16.7213 7.25727 16.7263 7.35627 16.7322 7.45523C18.8368 7.64573 20.8008 8.59294 22.2602 10.1212L22.5132 9.94123C22.5235 9.94182 22.5353 9.94273 22.5483 9.94372C22.6437 9.95101 22.8037 9.96324 22.9172 9.89723C23.21 9.69977 23.4776 9.42801 23.7979 9.1028L23.8152 9.08523C23.8645 9.03296 23.9096 8.98145 23.9543 8.93041C24.0455 8.82619 24.1351 8.72393 24.2552 8.62123C24.2895 8.59193 24.3378 8.55424 24.3797 8.52162C24.3878 8.51526 24.3957 8.5091 24.4032 8.50323C24.7222 8.24923 25.1662 8.27623 25.3962 8.56323C25.6252 8.85022 25.5522 9.28823 25.2322 9.54323C25.2157 9.55646 25.1974 9.57158 25.1787 9.587C25.1466 9.61354 25.1134 9.64099 25.0862 9.66123C24.9592 9.75479 24.8394 9.81798 24.7172 9.88244C24.6565 9.91443 24.5952 9.94674 24.5322 9.98323C24.1342 10.2282 23.8042 10.4322 23.5422 10.6782C23.434 10.7934 23.4271 10.9033 23.4204 11.0092C23.4194 11.0246 23.4185 11.04 23.4172 11.0552C23.4067 11.0646 23.3885 11.0807 23.3663 11.1003C23.3107 11.1495 23.2298 11.2209 23.1812 11.2652C23.77 12.1406 24.1927 13.1169 24.4282 14.1452C24.5879 14.8364 24.6608 15.5435 24.6463 16.2502H31.3434L29.1962 6.94223C29.1244 6.63284 28.9837 6.34365 28.7846 6.09622C28.5855 5.8488 28.3331 5.64951 28.0462 5.51323L16.9192 0.209226Z" fill="#326CE5"/>
<path d="M22.9001 16.2502C22.9135 15.6731 22.8546 15.0959 22.7242 14.5322C22.5492 13.7702 22.2542 13.0692 21.8662 12.4392H21.8652L19.2652 14.7632L19.2672 14.7702C19.187 14.8398 19.1272 14.9299 19.0943 15.0308C19.0613 15.1317 19.0563 15.2397 19.0799 15.3432C19.1036 15.4467 19.1549 15.5419 19.2284 15.6185C19.3018 15.6951 19.3948 15.7503 19.4972 15.7782L19.4992 15.7912L21.0939 16.2502H22.9001Z" fill="#326CE5"/>
<path d="M14.9672 12.7042L15.1652 9.21623C13.6512 9.39234 12.239 10.0675 11.1512 11.1352L14.0152 13.1622L14.0212 13.1602C14.107 13.2227 14.2082 13.2608 14.3139 13.2703C14.4196 13.2799 14.5259 13.2606 14.6215 13.2145C14.7172 13.1685 14.7985 13.0973 14.8569 13.0087C14.9153 12.9201 14.9486 12.8173 14.9532 12.7112L14.9672 12.7042Z" fill="#326CE5"/>
<path d="M20.8232 11.1362C19.7393 10.0766 18.3376 9.4021 16.8332 9.21623L17.0312 12.6982L17.0342 12.6992C17.0392 12.8052 17.0728 12.9079 17.1314 12.9963C17.19 13.0847 17.2714 13.1557 17.367 13.2016C17.4627 13.2475 17.569 13.2667 17.6746 13.2571C17.7803 13.2476 17.8814 13.2096 17.9672 13.1472L17.9772 13.1512L20.8232 11.1362Z" fill="#326CE5"/>
<path d="M12.7272 14.7732L10.1132 12.4382H10.1122C9.31462 13.7344 8.97222 15.2595 9.13921 16.7722L12.4912 15.8052L12.4942 15.7952C12.5969 15.7676 12.6901 15.7125 12.7638 15.6359C12.8375 15.5593 12.8889 15.4641 12.9126 15.3604C12.9362 15.2568 12.9312 15.1487 12.898 15.0477C12.8648 14.9467 12.8047 14.8566 12.7242 14.7872L12.7272 14.7732Z" fill="#326CE5"/>
<path d="M16.5332 14.9542H15.4622V14.9532L14.7942 15.7832L15.0342 16.8202L15.9982 17.2832L16.9602 16.8222L17.1992 15.7842L16.5332 14.9542Z" fill="#326CE5"/>
<path d="M13.3478 17.8858C13.2637 17.8391 13.1694 17.8139 13.0732 17.8122C13.0346 17.8118 12.9961 17.8152 12.9582 17.8222L12.9522 17.8152L9.51521 18.3972C10.0316 19.8231 11.0043 21.0387 12.2822 21.8552L13.6132 18.6412L13.6032 18.6292C13.6409 18.5407 13.6563 18.4443 13.648 18.3485C13.6397 18.2527 13.608 18.1604 13.5556 18.0797C13.5033 17.999 13.4319 17.9324 13.3478 17.8858Z" fill="#326CE5"/>
<path d="M16.2522 19.2782C16.1667 19.2364 16.0723 19.2161 15.9772 19.2192V19.2202C15.8745 19.224 15.7746 19.2545 15.6874 19.3089C15.6002 19.3633 15.5287 19.4396 15.4802 19.5302H15.4772L13.7872 22.5802C14.9977 22.992 16.2988 23.0592 17.5452 22.7742C17.7762 22.7212 18.0022 22.6582 18.2222 22.5852L16.5282 19.5282H16.5152C16.4564 19.419 16.3642 19.3315 16.2522 19.2782Z" fill="#326CE5"/>
<path d="M20.75 25.2446C20.75 27.6447 24.3277 30.9535 25.875 31.5C27.4223 30.9535 31 27.6447 31 25.2446V18.75H20.75V25.2446Z" fill="#FA744E"/>
</g>
<defs>
<clipPath id="clip0_1324_347708">
<rect width="32" height="32" fill="white"/>
</clipPath>
</defs>
</svg>