<svg width="32" height="30" viewBox="0 0 32 30" fill="none" xmlns="http://www.w3.org/2000/svg">
<g clip-path="url(#clip0_2_30)">
<path d="M15.4085 0.00275546C15.7528 -0.0136563 16.097 0.051079 16.4073 0.190579L27.1971 5.02658C27.4753 5.15084 27.7201 5.33254 27.9131 5.55814C28.1062 5.78373 28.2427 6.04741 28.3123 6.32949L30.9789 17.1986C31.0478 17.4804 31.0477 17.7731 30.9785 18.0548C30.9092 18.3364 30.7728 18.5996 30.5794 18.8243L23.1157 27.5408C22.7239 27.9967 22.1304 28.2629 21.5031 28.262L9.52924 28.2647C8.90087 28.2647 8.30742 27.9985 7.91566 27.5417L0.448994 18.827C0.257026 18.6016 0.121588 18.3384 0.0527553 18.0569C-0.0160778 17.7754 -0.016535 17.483 0.0514178 17.2014L2.71324 6.33223C2.78281 6.04989 2.91933 5.78598 3.1126 5.56021C3.30587 5.33444 3.55088 5.15265 3.82936 5.0284L14.6172 0.191491C14.8645 0.0802555 15.1331 0.0164319 15.4075 0.00366723L15.4085 0.00275546ZM15.5152 3.70178C15.1583 3.70178 14.8684 4.00267 14.8684 4.37467L14.8703 4.39199C14.8703 4.44214 14.8674 4.50323 14.8684 4.54699C14.8781 4.76217 14.9266 4.92628 14.9566 5.12323C15.0119 5.54628 15.0565 5.89731 15.0284 6.22281C15.0012 6.3459 14.9052 6.45805 14.8189 6.53646L14.8044 6.79267C12.7504 6.94691 10.8306 7.81322 9.41772 9.22343C9.34596 9.17784 9.22184 9.09396 9.18499 9.06843C9.06863 9.08302 8.95227 9.11676 8.80099 9.03378C8.51202 8.85143 8.24827 8.59887 7.93021 8.29525C7.78475 8.14937 7.67808 8.01261 7.50548 7.8722C7.46669 7.84028 7.4056 7.79743 7.36196 7.76461C7.23398 7.66756 7.07629 7.61164 6.91202 7.60505C6.81457 7.60025 6.71728 7.61706 6.628 7.65412C6.53873 7.69118 6.45997 7.74745 6.39808 7.8184C6.17505 8.08099 6.24681 8.48034 6.55615 8.71193L6.56584 8.71923C6.60851 8.75114 6.66087 8.79217 6.69966 8.81952C6.8839 8.94717 7.05166 9.01281 7.23493 9.11402C7.62087 9.33831 7.94184 9.52431 8.19493 9.7477C8.29481 9.84617 8.3113 10.0212 8.32487 10.0969L8.53239 10.2701C7.39019 11.8776 6.92048 13.8254 7.2136 15.7389L6.94402 15.8118C6.87227 15.8994 6.77239 16.0352 6.66669 16.0763C6.33408 16.1738 5.96075 16.2103 5.50887 16.254C5.29748 16.2705 5.11421 16.2613 4.88924 16.3005C4.84075 16.3097 4.77093 16.327 4.7176 16.3388L4.71178 16.3398L4.70208 16.3425C4.32099 16.4291 4.07663 16.7573 4.15518 17.081C4.23469 17.4047 4.60608 17.6007 4.98911 17.5232L4.99881 17.5223L5.01142 17.5187C5.06475 17.5077 5.13166 17.495 5.17821 17.4831C5.3993 17.4284 5.5593 17.3463 5.75711 17.2752C6.18378 17.1312 6.53869 17.0108 6.88293 16.9643C7.02742 16.9534 7.17869 17.0473 7.25433 17.0874L7.53554 17.0418C8.16803 18.8755 9.49259 20.4281 11.2592 21.4064L11.1428 21.6708C11.1845 21.7739 11.2311 21.9125 11.2 22.0137C11.074 22.3182 10.8606 22.641 10.6153 22.9993C10.497 23.1652 10.3758 23.2947 10.2691 23.4843C10.2439 23.5299 10.2109 23.5992 10.1857 23.6475C10.0209 23.9803 10.1421 24.3642 10.4611 24.5083C10.7811 24.6541 11.1797 24.501 11.3523 24.1663L11.3532 24.1654V24.1636C11.3775 24.1171 11.4124 24.0542 11.4337 24.0095C11.5249 23.8135 11.5549 23.6448 11.6199 23.4543C11.7906 23.0513 11.8846 22.6291 12.1193 22.3656C12.1843 22.2927 12.289 22.2653 12.3976 22.238L12.544 21.989C14.4609 22.6824 16.5822 22.6876 18.5028 22.0036L18.6405 22.237C18.7511 22.2708 18.8723 22.2881 18.9702 22.4249C19.1467 22.7075 19.2669 23.0403 19.4134 23.4442C19.4774 23.6339 19.5103 23.8025 19.6015 24.0004C19.6218 24.0442 19.6568 24.1071 19.681 24.1554C19.8526 24.49 20.2531 24.6432 20.5731 24.4982C20.8931 24.3542 21.0143 23.9694 20.8485 23.6366C20.8233 23.5892 20.7903 23.519 20.7641 23.4734C20.6575 23.2838 20.5363 23.1561 20.418 22.9902C20.1736 22.6318 19.9709 22.3337 19.8458 22.0283C19.7925 21.8705 19.8546 21.773 19.8943 21.6708C19.8701 21.6444 19.8177 21.4958 19.7877 21.4265C21.56 20.4401 22.8846 18.8752 23.5094 17.03C23.5928 17.0427 23.7382 17.0664 23.7857 17.0755C23.8827 17.0154 23.9719 16.937 24.1474 16.9497C24.4917 16.9971 24.8456 17.1166 25.2723 17.2606C25.4711 17.3318 25.6311 17.4156 25.8521 17.4703C25.8987 17.4822 25.9656 17.4931 26.0189 17.5041L26.0315 17.5077L26.0412 17.5095C26.4243 17.587 26.7957 17.3901 26.8752 17.0664C26.9528 16.7428 26.7094 16.4145 26.3283 16.3279C26.273 16.316 26.1944 16.296 26.1411 16.2869C25.9161 16.2468 25.7338 16.2568 25.5205 16.2404C25.0696 16.1957 24.6963 16.1592 24.3637 16.0617C24.2279 16.0124 24.1319 15.8611 24.0854 15.7982L23.8235 15.727C23.9623 14.7838 23.9167 13.8247 23.6888 12.8969C23.4604 11.9593 23.0505 11.0692 22.4795 10.271C22.5455 10.2145 22.6725 10.1097 22.7084 10.0796C22.7181 9.97017 22.7094 9.8562 22.8296 9.73584C23.0837 9.51155 23.4037 9.32555 23.7896 9.10217C23.9738 9.00187 24.1426 8.93623 24.3268 8.80858C24.3685 8.7794 24.4248 8.73381 24.4684 8.70099C24.7787 8.46849 24.8495 8.06914 24.6274 7.80746C24.4044 7.54578 23.9738 7.52117 23.6645 7.75276C23.6199 7.78558 23.5608 7.82843 23.521 7.86034C23.3474 7.99984 23.2398 8.13843 23.0943 8.2834C22.7763 8.58702 22.5125 8.84049 22.2235 9.02376C22.0984 9.09214 21.9152 9.06843 21.8318 9.06387L21.5864 9.22799C20.1713 7.83456 18.2667 6.97092 16.226 6.79723C16.2202 6.70701 16.2154 6.61674 16.2114 6.52643C16.1271 6.45076 16.0252 6.38602 16 6.22281C15.9719 5.89731 16.0194 5.54628 16.0737 5.12323C16.1028 4.92628 16.1532 4.76217 16.161 4.54699C16.1639 4.49867 16.161 4.42846 16.161 4.37467C16.161 4.00267 15.8711 3.70178 15.5142 3.70178H15.5152ZM14.7064 8.40284L14.5144 11.5831L14.5009 11.5895C14.4964 11.6861 14.4641 11.7799 14.4075 11.8607C14.3509 11.9415 14.272 12.0064 14.1792 12.0484C14.0865 12.0904 13.9834 12.108 13.8809 12.0992C13.7784 12.0905 13.6803 12.0558 13.5971 11.9988L13.5913 12.0007L10.8141 10.1525C11.8689 9.17902 13.2383 8.56342 14.7064 8.40284V8.40284ZM16.3239 8.40284C17.7827 8.57231 19.1419 9.18732 20.193 10.1534L17.4332 11.9906L17.4235 11.987C17.3403 12.0439 17.2423 12.0785 17.1398 12.0872C17.0374 12.0959 16.9343 12.0784 16.8416 12.0366C16.7488 11.9947 16.6698 11.93 16.613 11.8494C16.5562 11.7687 16.5237 11.6751 16.5188 11.5785L16.5159 11.5776L16.3239 8.40284V8.40284ZM9.80754 11.3405L12.3423 13.4695L12.3394 13.4823C12.4175 13.5456 12.4758 13.6277 12.5079 13.7198C12.5401 13.8118 12.545 13.9104 12.5221 14.0049C12.4991 14.0994 12.4493 14.1863 12.3778 14.2561C12.3063 14.326 12.2159 14.3762 12.1164 14.4013L12.1135 14.4105L8.86305 15.2921C8.70112 13.9129 9.03315 12.5223 9.80657 11.3405H9.80754ZM21.2044 11.3415C21.5806 11.9159 21.8667 12.555 22.0364 13.2498C22.2002 13.9156 22.2477 14.602 22.177 15.2821L18.9091 14.3977L18.9072 14.3858C18.8078 14.3604 18.7177 14.3101 18.6465 14.2402C18.5752 14.1703 18.5255 14.0836 18.5026 13.9892C18.4796 13.8948 18.4844 13.7964 18.5164 13.7044C18.5484 13.6123 18.6064 13.5302 18.6841 13.4668L18.6822 13.4604L21.2034 11.3415H21.2044ZM14.9944 13.6345H16.033L16.6788 14.3913L16.4471 15.3377L15.5142 15.758L14.5794 15.3359L14.3467 14.3904L14.9944 13.6336V13.6345ZM18.3254 16.2276C18.3692 16.2259 18.4132 16.2289 18.4563 16.2367L18.4611 16.2294L21.824 16.7637C21.3271 18.0737 20.3799 19.1906 19.1321 19.9376L17.8269 16.978L17.8308 16.9734C17.7943 16.8941 17.7788 16.8077 17.7857 16.7215C17.7925 16.6353 17.8215 16.552 17.8701 16.4786C17.9188 16.4053 17.9856 16.3441 18.0649 16.3004C18.1442 16.2567 18.2335 16.2317 18.3254 16.2276V16.2276ZM12.6778 16.2404C12.7711 16.2419 12.8625 16.2649 12.9441 16.3074C13.0257 16.3499 13.0949 16.4107 13.1457 16.4842C13.1964 16.5578 13.2272 16.642 13.2352 16.7293C13.2433 16.8167 13.2283 16.9046 13.1918 16.9853L13.2015 16.9962L11.9108 19.9266C10.6716 19.1822 9.7284 18.0739 9.22766 16.7738L12.5605 16.2431L12.5663 16.2495C12.6031 16.2431 12.6404 16.24 12.6778 16.2404V16.2404ZM15.4938 17.5232C15.5861 17.5204 15.6776 17.5389 15.7605 17.577C15.8691 17.6256 15.9585 17.7054 16.0155 17.805H16.0281L17.6708 20.5922C17.4575 20.6588 17.2383 20.7162 17.0143 20.7645C15.8057 21.0244 14.544 20.9631 13.3702 20.5877L15.009 17.8068H15.0119C15.059 17.7242 15.1282 17.6546 15.2128 17.605C15.2973 17.5554 15.3942 17.5275 15.4938 17.5241V17.5232Z" fill="#326CE5"/>
</g>
<path d="M23.3634 28.481L23.5 28.5198L23.6366 28.481C24.7204 28.1732 26.4114 27.1362 27.8169 25.8944C28.5269 25.2672 29.187 24.568 29.6735 23.8542C30.154 23.1493 30.5 22.3793 30.5 21.6221V15V14.5H30H17H16.5V15V21.6221C16.5 22.3793 16.846 23.1493 17.3265 23.8542C17.813 24.568 18.4731 25.2672 19.183 25.8944C20.5886 27.1362 22.2796 28.1732 23.3634 28.481Z" fill="#FA744E" stroke="white"/>
<defs>
<clipPath id="clip0_2_30">
<rect width="31.0303" height="29.1765" fill="white"/>
</clipPath>
</defs>
</svg>
