<svg xmlns="http://www.w3.org/2000/svg" width="32" height="32" viewBox="0 0 128 128" fill="none">
<path d="M60.4137 42.96L58.1495 43.4143C54.1871 44.3228 50.5643 46.3671 47.6209 49.2063L57.0174 55.9069C57.0882 55.9306 57.1542 55.9543 57.2173 55.9769C57.4564 56.0629 57.6543 56.134 57.923 56.134C58.9419 56.134 59.8476 55.339 59.8476 54.3169L60.4137 42.96Z" fill="#326DE6"/>
<path d="M78.6406 49.2063L69.3573 55.7933C68.5649 56.2476 67.4328 56.134 66.8667 55.339C66.6403 55.1119 66.5271 54.8847 66.5271 54.544L65.8478 43.0736C70.8291 43.6414 75.2443 45.7992 78.6406 49.2063Z" fill="#326DE6"/>
<path d="M85.2069 67.2637C85.4333 64.8788 85.3201 62.4938 84.754 60.1089C84.188 57.7239 83.2823 55.4526 82.037 53.4083L73.5461 61.131C73.3197 61.3582 73.2065 61.5853 73.0933 61.926C72.8669 62.9481 73.4329 63.9702 74.4518 64.1974L85.2069 67.2637Z" fill="#326DE6"/>
<path d="M63.244 68.9673L66.3007 67.4909L67.0931 64.1974L64.9421 61.4717H61.5458L59.3948 64.1974L60.1873 67.4909L63.244 68.9673Z" fill="#326DE6"/>
<path d="M44.3377 53.4083L52.7154 60.9039C53.5078 61.5853 53.621 62.721 52.9418 63.516C52.7154 63.8567 52.4889 63.9702 52.0361 64.0838L41.0546 67.2637C40.715 62.4938 41.8471 57.6104 44.3377 53.4083Z" fill="#326DE6"/>
<path d="M53.621 70.6708L42.4132 72.6015C43.9981 77.1442 47.168 81.1191 51.1304 83.7312L55.4324 73.2829C55.6588 72.9422 55.6588 72.4879 55.5456 72.1472C55.4324 71.2386 54.5267 70.6708 53.621 70.6708Z" fill="#326DE6"/>
<path d="M68.112 86.684C66.5271 87.0247 64.9421 87.2518 63.244 87.2518C60.8665 87.2518 58.3759 86.7976 56.1117 86.1161L61.659 76.0085C62.2251 75.3271 63.1307 75.1 63.9232 75.5542C64.2629 75.7814 64.4893 76.0085 64.8289 76.3492L70.2629 86.2297C69.5836 86.3433 68.9044 86.4569 68.112 86.684Z" fill="#326DE6"/>
<path d="M75.1311 83.6176C77.8482 81.9141 80.2256 79.5292 81.9238 76.8035C82.8294 75.5542 83.5087 74.0779 84.0748 72.4879L72.7537 70.5572C72.414 70.5572 72.0744 70.6708 71.7348 70.7844C70.9423 71.1251 70.4895 72.0336 70.7159 72.9422L75.1311 83.6176Z" fill="#326DE6"/>
<path fill-rule="evenodd" clip-rule="evenodd" d="M104.339 35.3509C103.773 33.5338 102.415 32.0574 100.717 31.1489L66.1873 14.5678C65.2816 14.1136 64.2627 14 63.357 14C62.4513 14 61.4324 14 60.5268 14.2271L25.9974 30.9217C24.2993 31.7167 23.054 33.1931 22.6011 35.1238L14.1103 72.4879C13.7707 74.4186 14.2235 76.3492 15.3556 77.9392L39.2431 107.581C40.6016 108.943 42.5262 109.852 44.4508 109.966H82.4897C83.6723 110.097 84.8168 109.847 85.8125 109.28V86.8125H104.434L111.585 77.9392C112.717 76.3492 113.17 74.4186 112.943 72.4879L104.339 35.3509ZM99.0186 71.0115C98.9054 71.0115 98.7922 71.0115 98.7922 70.8979C98.7922 70.7844 98.5657 70.7844 98.3393 70.7844C97.8865 70.6708 97.4336 70.6708 96.9808 70.6708C96.7544 70.6708 96.5279 70.6708 96.3015 70.5572H96.1883C94.943 70.4437 93.5845 70.2165 92.3391 69.8758C91.9995 69.7622 91.6599 69.4215 91.5467 69.0808L90.641 68.8537C91.0938 65.5602 90.8674 62.1531 90.1881 58.8596C89.3957 55.5661 88.0371 52.3862 86.2258 49.547L86.905 48.8656V48.752C86.905 48.4113 87.0182 47.957 87.2447 47.7299C88.2635 46.8214 89.2825 46.1399 90.4146 45.4585L91.0938 45.1178C91.3202 45.0043 91.5184 44.8907 91.7165 44.7771C91.9146 44.6636 92.1127 44.55 92.3391 44.4364C92.3958 44.3796 92.4524 44.3512 92.509 44.3228C92.5656 44.2944 92.6222 44.2661 92.6788 44.2093C92.7487 44.1391 92.7322 44.1123 92.7094 44.0752C92.6953 44.0523 92.6788 44.0255 92.6788 43.9821C93.6977 43.1872 93.9241 41.8243 93.1316 40.8022C92.792 40.3479 92.1127 40.0072 91.5467 40.0072C90.9806 40.0072 90.4146 40.2344 89.9617 40.5751L89.8485 40.6886C89.7353 40.8022 89.6221 40.9158 89.5089 40.9158C89.1692 41.2565 88.8296 41.5972 88.6032 41.9379C88.5243 42.0963 88.3903 42.1994 88.278 42.2859C88.2293 42.3234 88.1846 42.3578 88.1503 42.3922C87.3579 43.3007 86.339 44.2093 85.3201 44.8907C85.0937 45.0043 84.8672 45.1178 84.6408 45.1178C84.5276 45.1178 84.3012 45.1178 84.188 45.0043H84.0748L83.1691 45.5721C82.7162 45.1178 82.2351 44.6635 81.7539 44.2092C81.2728 43.755 80.7916 43.3006 80.3388 42.8464C76.15 39.553 70.9423 37.5087 65.6214 36.9409L65.5082 36.0323V36.1459C65.1685 35.9188 65.0553 35.578 64.9421 35.2373C64.9421 33.9881 64.9421 32.7388 65.1685 31.376V31.2624C65.1685 31.1489 65.1968 31.0354 65.2251 30.9218C65.2534 30.8083 65.2818 30.6946 65.2818 30.581C65.3384 30.3539 65.3667 30.1267 65.395 29.8996C65.4233 29.6725 65.4516 29.4453 65.5082 29.2182V28.5368C65.6214 27.4011 64.7157 26.2654 63.5836 26.1518C62.9043 26.0383 62.2251 26.379 61.659 26.9468C61.2062 27.4011 60.9797 27.9689 60.9797 28.5368V29.1046C60.9797 29.5589 61.0929 30.0131 61.2062 30.4674C61.3194 30.6945 61.3194 30.9217 61.3194 31.1489V31.2624C61.5458 32.5117 61.5458 33.7609 61.5458 35.1238C61.4326 35.4645 61.3194 35.8052 60.9797 36.0323V36.2595L60.8665 37.168C59.8011 37.2652 58.7356 37.4455 57.5992 37.6378C57.4075 37.6702 57.2135 37.7031 57.0174 37.7359C51.6964 38.8715 46.8284 41.7108 43.0924 45.6857L42.4132 45.2314H42.3C42.2531 45.2314 42.2062 45.2509 42.1512 45.2737C42.0735 45.306 41.9797 45.345 41.8471 45.345C41.6207 45.345 41.3943 45.2314 41.1678 45.1178C40.1489 44.3228 39.13 43.4143 38.3376 42.5057C38.2586 42.3474 38.1247 42.2442 38.0124 42.1578C37.9637 42.1202 37.919 42.0858 37.8847 42.0515C37.7149 41.8811 37.5734 41.7108 37.4319 41.5404C37.2904 41.37 37.1489 41.1997 36.979 41.0293C36.9224 40.9726 36.8658 40.9442 36.8092 40.9158C36.7526 40.8874 36.696 40.859 36.6394 40.8022L36.5262 40.6886C36.0734 40.3479 35.5073 40.1208 34.9412 40.1208C34.262 40.1208 33.6959 40.3479 33.3563 40.9158C32.677 41.9379 32.9035 43.3007 33.8091 44.0957C33.9223 44.0957 33.9224 44.2093 33.9224 44.2093C33.9224 44.2093 34.1488 44.4364 34.262 44.4364C34.6016 44.6635 35.0545 44.8907 35.5073 45.1178L36.1866 45.4585C37.3187 46.1399 38.4508 46.8214 39.3565 47.7299C39.5632 47.9372 39.7699 48.3339 39.7182 48.6606L39.6961 48.6385V48.752C39.706 48.7223 39.7133 48.6918 39.7182 48.6606L40.3754 49.3199C40.3188 49.4334 40.2622 49.5186 40.2056 49.6037C40.149 49.6889 40.0923 49.7741 40.0357 49.8877C36.5262 55.4526 35.0545 62.0396 36.0734 68.513L35.1677 68.7401C35.1677 68.8537 35.0545 68.8537 35.0545 68.8537C34.9413 69.1944 34.6016 69.4215 34.262 69.6487C33.0167 69.9894 31.7713 70.2165 30.4128 70.3301C30.1864 70.3301 29.96 70.3301 29.7335 70.4436C29.5072 70.4436 29.2808 70.472 29.0544 70.5004C28.828 70.5288 28.6014 70.5572 28.375 70.5572C28.3281 70.5572 28.2812 70.5767 28.2263 70.5995C28.1486 70.6318 28.0548 70.6708 27.9222 70.6708C27.809 70.6708 27.809 70.6708 27.6958 70.7844C26.4504 71.0115 25.658 72.1472 25.8844 73.3964C26.1108 74.4186 27.1297 75.1 28.1486 74.9864C28.375 74.9864 28.4882 74.9864 28.7146 74.8728C28.8279 74.8728 28.8279 74.8728 28.8279 74.7593C28.8279 74.6801 28.993 74.7113 29.1313 74.7375C29.1914 74.7489 29.2464 74.7593 29.2807 74.7593C29.565 74.688 29.8492 74.5719 30.1055 74.4673C30.2574 74.4053 30.3996 74.3473 30.526 74.305C30.7524 74.1914 30.9789 74.0779 31.2053 74.0779H31.3185C32.5638 73.6236 33.6959 73.2829 35.0545 73.0557H35.1677C35.5073 73.0557 35.8469 73.1693 36.0734 73.3964C36.1866 73.3964 36.1866 73.51 36.1866 73.51L37.2055 73.3964C38.9036 78.6206 42.0735 83.2769 46.4888 86.684C47.5077 87.479 48.4133 88.1604 49.5454 88.7282L48.9794 89.5232C48.9794 89.6368 49.0926 89.6368 49.0926 89.6368C49.319 89.9775 49.319 90.4318 49.2058 90.7725C48.753 91.9081 48.0737 93.0438 47.3944 94.066V94.1795C47.2812 94.4067 47.168 94.5202 46.9416 94.7474C46.8145 94.8749 46.6873 95.0741 46.5401 95.3047C46.4252 95.4847 46.298 95.6839 46.1491 95.883C46.0925 95.9398 46.0642 95.9966 46.0359 96.0534C46.0076 96.1102 45.9793 96.167 45.9227 96.2238C45.9227 96.2238 45.9227 96.3373 45.8095 96.3373C45.2434 97.473 45.6963 98.8358 46.7152 99.4037C46.9416 99.5172 47.2812 99.6308 47.5077 99.6308C48.4133 99.6308 49.2058 99.063 49.6587 98.268C49.6587 98.268 49.6587 98.1544 49.7719 98.1544C49.7719 98.0409 49.8851 97.9273 49.9983 97.8137C50.0549 97.5866 50.1398 97.388 50.2246 97.1893C50.3095 96.9905 50.3945 96.7916 50.4511 96.5645L50.6776 95.883C51.0172 94.6338 51.5833 93.4981 52.1493 92.3624C52.3757 92.0217 52.7154 91.7946 53.055 91.681C53.1116 91.681 53.1399 91.681 53.154 91.6668C53.1682 91.6526 53.1682 91.6242 53.1682 91.5674L53.621 90.6589C56.7909 91.9081 60.0741 92.476 63.4704 92.476C65.5082 92.476 67.546 92.2489 69.5838 91.681C70.5122 91.5117 71.4406 91.2161 72.3222 90.9354C72.623 90.8396 72.9184 90.7456 73.2065 90.6589L73.6594 91.4539C73.7726 91.4539 73.7726 91.4539 73.7726 91.5674C74.1122 91.681 74.4518 91.9081 74.6783 92.2488C75.2443 93.3845 75.8104 94.5202 76.15 95.7695V95.883L76.3764 96.5645C76.4896 97.0187 76.6028 97.473 76.8293 97.8137C76.8859 97.8705 76.9142 97.9273 76.9425 97.9841C76.9708 98.0409 76.9991 98.0976 77.0557 98.1544C77.0557 98.1544 77.0557 98.268 77.1689 98.268C77.6217 99.063 78.4142 99.6308 79.3199 99.6308C79.5886 99.6308 79.7865 99.5597 80.0256 99.4738C80.0885 99.4512 80.1549 99.4273 80.2256 99.4037C80.6784 99.1765 81.1313 98.7223 81.2445 98.1544C81.3577 97.5866 81.3577 97.0187 81.1313 96.4509C81.1313 96.3373 81.0181 96.3373 81.0181 96.3373C81.0181 96.2238 80.9049 96.1102 80.7916 95.9966C80.5652 95.5423 80.3388 95.2016 79.9992 94.8609C79.886 94.6338 79.7728 94.5202 79.5464 94.2931L79.5463 94.066C78.7538 93.0438 78.1878 91.9081 77.7349 90.7725C77.6217 90.4318 77.6217 89.9775 77.8482 89.6368C77.8482 89.5232 77.9614 89.5232 77.9614 89.5232L77.6217 88.6146C83.3955 85.094 87.8107 79.6427 89.8485 73.1693L90.7542 73.2829C90.8674 73.2829 90.8674 73.1693 90.8674 73.1693C91.0938 72.9422 91.4335 72.8286 91.7731 72.8286H91.8863C93.1316 73.0557 94.3769 73.3964 95.509 73.8507H95.6223C95.8487 73.9643 96.0751 74.0779 96.3015 74.0779C96.4185 74.1365 96.5279 74.1952 96.6337 74.2519C96.9374 74.4148 97.211 74.5615 97.5468 74.6457C97.5937 74.6457 97.6406 74.6652 97.6956 74.688C97.7733 74.7203 97.8671 74.7593 97.9997 74.7593C98.1129 74.7593 98.1129 74.7593 98.2261 74.8728C98.4525 74.9864 98.5658 74.9864 98.7922 74.9864C99.8111 74.9864 100.717 74.305 101.056 73.3964C100.943 72.1472 100.037 71.2386 99.0186 71.0115Z" fill="#326DE6"/>
<path d="M91 109.341C91 115.749 100.506 124.583 104.617 126.042C108.728 124.583 118.234 115.749 118.234 109.341V92H91V109.341Z" fill="#FA744E"/>
</svg>
