<svg width="94" height="94" viewBox="0 0 94 94" fill="none" xmlns="http://www.w3.org/2000/svg">
<path d="M40.2192 0.00696346C39.5032 0.0432218 38.8016 0.22168 38.1556 0.53187L9.99601 14.0564C9.26717 14.4062 8.62677 14.9153 8.12237 15.5458C7.61797 16.1763 7.26253 16.9119 7.08245 17.6981L0.135288 48.0776C-0.0251323 48.7775 -0.0430856 49.5024 0.0824907 50.2094C0.208067 50.9164 0.474621 51.5911 0.866378 52.1936C0.96137 52.3408 1.06353 52.4834 1.1725 52.6207L20.6634 76.98C21.168 77.6103 21.8084 78.1192 22.5373 78.4689C23.2661 78.8186 24.0646 79.0002 24.8735 79L47.5256 78.9948C44.6328 74.0784 42.8125 68.5782 42.2159 62.8605C38.9277 63.1117 35.7026 62.6019 32.7444 61.4606L32.3627 62.1557C32.0785 62.2321 31.8044 62.3097 31.6363 62.5112C31.2049 63.0286 30.9557 63.7659 30.6908 64.5493C30.5788 64.8806 30.464 65.2202 30.3314 65.5549C30.2738 65.7373 30.2266 65.9127 30.1798 66.0865C30.0902 66.4193 30.0021 66.7466 29.8453 67.1079C29.8091 67.191 29.7566 67.2963 29.7067 67.3965L29.7061 67.3976C29.6815 67.4469 29.6575 67.4951 29.6364 67.5387V67.5423L29.6346 67.5441L29.6328 67.5459C29.183 68.4794 28.1436 68.9068 27.3063 68.5016C26.4741 68.0989 26.1564 67.0259 26.5896 66.0943C26.6129 66.0456 26.6389 65.989 26.6658 65.9306C26.7132 65.8277 26.7631 65.7191 26.8057 65.6381C26.99 65.2872 27.1908 65.0111 27.395 64.7301L27.3958 64.729L27.3965 64.728C27.5006 64.5849 27.6055 64.4405 27.7096 64.2842C28.3477 63.2808 28.9081 62.3807 29.2352 61.528C29.3174 61.2448 29.1957 60.8568 29.0854 60.5701L29.3915 59.8316C24.905 57.1594 21.3619 52.9008 19.6712 47.632L18.9365 47.7587C18.9215 47.7503 18.9053 47.7409 18.888 47.7309L18.8632 47.7164L18.8623 47.7159C18.6502 47.5922 18.301 47.3886 17.9677 47.4148C17.0809 47.5438 16.171 47.8719 15.0774 48.2662L15.029 48.2836C14.8543 48.3509 14.6911 48.4214 14.5294 48.4912C14.2111 48.6286 13.8987 48.7636 13.5164 48.8665C13.43 48.8897 13.3171 48.9137 13.2091 48.9366C13.165 48.9459 13.1209 48.9553 13.0806 48.9642C13.0752 48.9655 13.07 48.9675 13.0649 48.9695L13.059 48.9717L13.0535 48.9736L13.0482 48.9751C13.0439 48.976 13.0386 48.9765 13.0336 48.9771C13.0298 48.9775 13.0261 48.978 13.023 48.9787C12.0236 49.1952 11.0532 48.6451 10.8477 47.7406C10.6423 46.8363 11.2804 45.9185 12.2739 45.6772C12.2776 45.6763 12.282 45.675 12.2864 45.6736C12.2908 45.6722 12.2953 45.6708 12.2991 45.6699L12.3058 45.6682L12.3135 45.6663C12.3333 45.6617 12.3538 45.6567 12.3749 45.6516C12.3989 45.6458 12.4235 45.6398 12.4484 45.6337C12.5577 45.6069 12.6735 45.5785 12.7637 45.5613C13.1483 45.4881 13.486 45.4748 13.8289 45.4612C14.0089 45.4541 14.1903 45.4469 14.3807 45.431L14.4189 45.427C15.5802 45.3047 16.5445 45.2031 17.4023 44.9315C17.6455 44.8312 17.8792 44.5225 18.0586 44.2854L18.0915 44.242L18.1262 44.1966L18.8321 43.9902C18.0411 38.4845 19.3795 33.081 22.2715 28.7064L21.7312 28.2213C21.7275 28.1982 21.7236 28.1717 21.7193 28.1426C21.6843 27.9055 21.6232 27.4909 21.3927 27.2439C20.7299 26.6183 19.8942 26.0995 18.8861 25.4737C18.722 25.3767 18.5626 25.2915 18.4046 25.207C18.1019 25.0452 17.8043 24.8861 17.4888 24.652C17.4158 24.5978 17.3255 24.5231 17.2394 24.4519L17.2377 24.4505C17.2038 24.4225 17.1706 24.395 17.1394 24.3696C17.1355 24.3666 17.1315 24.3638 17.1275 24.3611L17.1201 24.3559L17.1142 24.3515C16.3055 23.7034 16.1198 22.5852 16.7 21.8537C17.0265 21.4421 17.5252 21.2385 18.0434 21.2564C18.4464 21.2702 18.8636 21.4181 19.2174 21.7016C19.2486 21.7264 19.2828 21.7533 19.3182 21.7811C19.4134 21.8559 19.5171 21.9373 19.592 22.0021C19.8914 22.2609 20.1134 22.5177 20.3397 22.7794C20.4555 22.9133 20.5723 23.0485 20.7012 23.1858L20.7308 23.216C21.5488 24.0511 22.2284 24.745 22.9737 25.2493C23.3173 25.4504 23.5917 25.4069 23.8548 25.3652C23.895 25.3588 23.9351 25.3524 23.9749 25.347C24.0718 25.4189 24.3974 25.6538 24.5836 25.7814C27.4523 22.722 31.2203 20.456 35.5968 19.4572C36.6138 19.2251 37.6321 19.0708 38.6436 18.9866L38.6832 18.2698C38.9076 18.0514 39.1593 17.7373 39.2306 17.3938C39.3034 16.4891 39.1867 15.5163 39.0463 14.3449L39.0433 14.3203C39.0167 14.1324 38.9841 13.9552 38.9517 13.7796C38.889 13.4393 38.8275 13.105 38.8128 12.7094C38.8097 12.6254 38.8119 12.5195 38.814 12.4157C38.815 12.3675 38.816 12.3198 38.8164 12.275C38.8163 12.2675 38.8155 12.2602 38.8146 12.2528C38.8137 12.2446 38.8128 12.2364 38.8128 12.228C38.8127 11.1884 39.5675 10.3456 40.4983 10.3455C41.4291 10.3454 42.1837 11.1884 42.1838 12.228C42.184 12.2803 42.1851 12.339 42.1863 12.399C42.1884 12.508 42.1906 12.6216 42.1874 12.7094C42.1727 13.1049 42.1112 13.4392 42.0485 13.7795C42.0162 13.955 41.9835 14.1324 41.9569 14.3203L41.9461 14.4102C41.809 15.5526 41.6946 16.506 41.766 17.3938C41.8235 17.7872 42.0287 17.9753 42.2249 18.155C42.256 18.1836 42.287 18.2119 42.317 18.2409C42.322 18.3637 42.3417 18.7717 42.3566 18.9974C47.7157 19.476 52.6927 21.9393 56.3482 25.7923L56.9892 25.3325C57.015 25.3341 57.0445 25.3363 57.077 25.3388C57.318 25.3575 57.724 25.3889 58.012 25.2203C58.7481 24.7222 59.4202 24.0359 60.2247 23.2143L60.2845 23.1533C60.4116 23.0179 60.5273 22.8847 60.6419 22.7527C60.871 22.489 61.0958 22.2303 61.3974 21.9695C61.472 21.905 61.5742 21.8247 61.6685 21.7506C61.7048 21.7221 61.74 21.6945 61.7719 21.669C62.5804 21.0208 63.7053 21.0897 64.2857 21.8211C64.8662 22.5525 64.6801 23.6706 63.8716 24.3189C63.8336 24.3496 63.7918 24.3842 63.749 24.4197C63.6632 24.4909 63.5731 24.5656 63.5006 24.6194C63.1864 24.8526 62.8885 25.0113 62.586 25.1724C62.4262 25.2575 62.2651 25.3433 62.0997 25.4411L62.0984 25.4419C61.091 26.0674 60.2556 26.586 59.5931 27.2113C59.338 27.4855 59.3063 27.7478 59.2886 28H76.2682L73.907 17.6909C73.7269 16.9047 73.3715 16.169 72.8671 15.5385C72.3627 14.9081 71.7223 14.399 70.9934 14.0491L42.8302 0.53187C42.0177 0.141676 41.1199 -0.0388144 40.2192 0.00696346Z" fill="#416CDD"/>
<path d="M52.3117 28C49.6504 25.5402 46.262 23.9375 42.6123 23.4863L42.867 28H52.3117Z" fill="#416CDD"/>
<path d="M42 38.2931L41.8524 38.1077H39.1406L37.4515 40.2218L38.0565 42.8644L40.4983 44.0445L42 43.3188V38.2931Z" fill="#416CDD"/>
<path d="M42 50.0584L41.838 49.7642H41.8056C41.6622 49.4947 41.4343 49.2699 41.1394 49.1271C40.9143 49.0182 40.6776 48.9701 40.4443 48.9787C39.931 48.9976 39.4441 49.2854 39.1874 49.7678H39.1802L34.9017 57.5437C37.1347 58.3085 39.5435 58.6256 42 58.4141V50.0584Z" fill="#416CDD"/>
<path d="M37.8873 32.3735L38.3879 23.4863C37.7904 23.5591 37.1907 23.6607 36.5907 23.7976C33.3063 24.5472 30.4563 26.1747 28.2282 28.377L35.4779 33.5428L35.4923 33.5356C35.7379 33.7159 36.0401 33.8215 36.3675 33.8215C37.1667 33.8215 37.8177 33.1867 37.8512 32.3916L37.8873 32.3735Z" fill="#416CDD"/>
<path d="M25.5992 31.6966L32.2186 37.6479L32.2114 37.6841C32.8089 38.2062 32.897 39.1122 32.3987 39.7403C32.1946 39.9976 31.9213 40.1702 31.628 40.2507L31.6208 40.2797L23.1358 42.7413C22.7039 38.772 23.6346 34.9135 25.5992 31.6966Z" fill="#416CDD"/>
<path d="M33.0938 45.3912C33.7635 45.4006 34.3643 45.8679 34.5199 46.5532C34.5928 46.8741 34.5573 47.192 34.4371 47.4727L34.4623 47.5053L31.0914 55.6939C27.9397 53.661 25.4294 50.6172 24.0866 46.8827L32.7876 45.3984L32.802 45.4165C32.8994 45.3985 32.9981 45.3898 33.0938 45.3912Z" fill="#416CDD"/>
<path d="M40.2192 0.00696346C39.5032 0.0432218 38.8016 0.22168 38.1556 0.53187L9.99601 14.0564C9.26717 14.4062 8.62677 14.9153 8.12237 15.5458C7.61797 16.1763 7.26253 16.9119 7.08245 17.6981L0.135288 48.0776C-0.0251323 48.7775 -0.0430856 49.5024 0.0824907 50.2094C0.208067 50.9164 0.474621 51.5911 0.866378 52.1936C0.96137 52.3408 1.06353 52.4834 1.1725 52.6207L20.6634 76.98C21.168 77.6103 21.8084 78.1192 22.5373 78.4689C23.2661 78.8186 24.0646 79.0002 24.8735 79L47.5256 78.9948C44.6328 74.0784 42.8125 68.5782 42.2159 62.8605C38.9277 63.1117 35.7026 62.6019 32.7444 61.4606L32.3627 62.1557C32.0785 62.2321 31.8044 62.3097 31.6363 62.5112C31.2049 63.0286 30.9557 63.7659 30.6908 64.5493C30.5788 64.8806 30.464 65.2202 30.3314 65.5549C30.2738 65.7373 30.2266 65.9127 30.1798 66.0865C30.0902 66.4193 30.0021 66.7466 29.8453 67.1079C29.8091 67.191 29.7566 67.2963 29.7067 67.3965L29.7061 67.3976C29.6815 67.4469 29.6575 67.4951 29.6364 67.5387V67.5423L29.6346 67.5441L29.6328 67.5459C29.183 68.4794 28.1436 68.9068 27.3063 68.5016C26.4741 68.0989 26.1564 67.0259 26.5896 66.0943C26.6129 66.0456 26.6389 65.989 26.6658 65.9306C26.7132 65.8277 26.7631 65.7191 26.8057 65.6381C26.99 65.2872 27.1908 65.0111 27.395 64.7301L27.3958 64.729L27.3965 64.728C27.5006 64.5849 27.6055 64.4405 27.7096 64.2842C28.3477 63.2808 28.9081 62.3807 29.2352 61.528C29.3174 61.2448 29.1957 60.8568 29.0854 60.5701L29.3915 59.8316C24.905 57.1594 21.3619 52.9008 19.6712 47.632L18.9365 47.7587C18.9215 47.7503 18.9053 47.7409 18.888 47.7309L18.8632 47.7164L18.8623 47.7159C18.6502 47.5922 18.301 47.3886 17.9677 47.4148C17.0809 47.5438 16.171 47.8719 15.0774 48.2662L15.029 48.2836C14.8543 48.3509 14.6911 48.4214 14.5294 48.4912C14.2111 48.6286 13.8987 48.7636 13.5164 48.8665C13.43 48.8897 13.3171 48.9137 13.2091 48.9366C13.165 48.9459 13.1209 48.9553 13.0806 48.9642C13.0752 48.9655 13.07 48.9675 13.0649 48.9695L13.059 48.9717L13.0535 48.9736L13.0482 48.9751C13.0439 48.976 13.0386 48.9765 13.0336 48.9771C13.0298 48.9775 13.0261 48.978 13.023 48.9787C12.0236 49.1952 11.0532 48.6451 10.8477 47.7406C10.6423 46.8363 11.2804 45.9185 12.2739 45.6772C12.2776 45.6763 12.282 45.675 12.2864 45.6736C12.2908 45.6722 12.2953 45.6708 12.2991 45.6699L12.3058 45.6682L12.3135 45.6663C12.3333 45.6617 12.3538 45.6567 12.3749 45.6516C12.3989 45.6458 12.4235 45.6398 12.4484 45.6337C12.5577 45.6069 12.6735 45.5785 12.7637 45.5613C13.1483 45.4881 13.486 45.4748 13.8289 45.4612C14.0089 45.4541 14.1903 45.4469 14.3807 45.431L14.4189 45.427C15.5802 45.3047 16.5445 45.2031 17.4023 44.9315C17.6455 44.8312 17.8792 44.5225 18.0586 44.2854L18.0915 44.242L18.1262 44.1966L18.8321 43.9902C18.0411 38.4845 19.3795 33.081 22.2715 28.7064L21.7312 28.2213C21.7275 28.1982 21.7236 28.1717 21.7193 28.1426C21.6843 27.9055 21.6232 27.4909 21.3927 27.2439C20.7299 26.6183 19.8942 26.0995 18.8861 25.4737C18.722 25.3767 18.5626 25.2915 18.4046 25.207C18.1019 25.0452 17.8043 24.8861 17.4888 24.652C17.4158 24.5978 17.3255 24.5231 17.2394 24.4519L17.2377 24.4505C17.2038 24.4225 17.1706 24.395 17.1394 24.3696C17.1355 24.3666 17.1315 24.3638 17.1275 24.3611L17.1201 24.3559L17.1142 24.3515C16.3055 23.7034 16.1198 22.5852 16.7 21.8537C17.0265 21.4421 17.5252 21.2385 18.0434 21.2564C18.4464 21.2702 18.8636 21.4181 19.2174 21.7016C19.2486 21.7264 19.2828 21.7533 19.3182 21.7811C19.4134 21.8559 19.5171 21.9373 19.592 22.0021C19.8914 22.2609 20.1134 22.5177 20.3397 22.7794C20.4555 22.9133 20.5723 23.0485 20.7012 23.1858L20.7308 23.216C21.5488 24.0511 22.2284 24.745 22.9737 25.2493C23.3173 25.4504 23.5917 25.4069 23.8548 25.3652C23.895 25.3588 23.9351 25.3524 23.9749 25.347C24.0718 25.4189 24.3974 25.6538 24.5836 25.7814C27.4523 22.722 31.2203 20.456 35.5968 19.4572C36.6138 19.2251 37.6321 19.0708 38.6436 18.9866L38.6832 18.2698C38.9076 18.0514 39.1593 17.7373 39.2306 17.3938C39.3034 16.4891 39.1867 15.5163 39.0463 14.3449L39.0433 14.3203C39.0167 14.1324 38.9841 13.9552 38.9517 13.7796C38.889 13.4393 38.8275 13.105 38.8128 12.7094C38.8097 12.6254 38.8119 12.5195 38.814 12.4157C38.815 12.3675 38.816 12.3198 38.8164 12.275C38.8163 12.2675 38.8155 12.2602 38.8146 12.2528C38.8137 12.2446 38.8128 12.2364 38.8128 12.228C38.8127 11.1884 39.5675 10.3456 40.4983 10.3455C41.4291 10.3454 42.1837 11.1884 42.1838 12.228C42.184 12.2803 42.1851 12.339 42.1863 12.399C42.1884 12.508 42.1906 12.6216 42.1874 12.7094C42.1727 13.1049 42.1112 13.4392 42.0485 13.7795C42.0162 13.955 41.9835 14.1324 41.9569 14.3203L41.9461 14.4102C41.809 15.5526 41.6946 16.506 41.766 17.3938C41.8235 17.7872 42.0287 17.9753 42.2249 18.155C42.256 18.1836 42.287 18.2119 42.317 18.2409C42.322 18.3637 42.3417 18.7717 42.3566 18.9974C47.7157 19.476 52.6927 21.9393 56.3482 25.7923L56.9892 25.3325C57.015 25.3341 57.0445 25.3363 57.077 25.3388C57.318 25.3575 57.724 25.3889 58.012 25.2203C58.7481 24.7222 59.4202 24.0359 60.2247 23.2143L60.2845 23.1533C60.4116 23.0179 60.5273 22.8847 60.6419 22.7527C60.871 22.489 61.0958 22.2303 61.3974 21.9695C61.472 21.905 61.5742 21.8247 61.6685 21.7506C61.7048 21.7221 61.74 21.6945 61.7719 21.669C62.5804 21.0208 63.7053 21.0897 64.2857 21.8211C64.8662 22.5525 64.6801 23.6706 63.8716 24.3189C63.8336 24.3496 63.7918 24.3842 63.749 24.4197C63.6632 24.4909 63.5731 24.5656 63.5006 24.6194C63.1864 24.8526 62.8885 25.0113 62.586 25.1724C62.4262 25.2575 62.2651 25.3433 62.0997 25.4411L62.0984 25.4419C61.091 26.0674 60.2556 26.586 59.5931 27.2113C59.338 27.4855 59.3063 27.7478 59.2886 28H76.2682L73.907 17.6909C73.7269 16.9047 73.3715 16.169 72.8671 15.5385C72.3627 14.9081 71.7223 14.399 70.9934 14.0491L42.8302 0.53187C42.0177 0.141676 41.1199 -0.0388144 40.2192 0.00696346Z" stroke="white"/>
<path d="M52.3117 28C49.6504 25.5402 46.262 23.9375 42.6123 23.4863L42.867 28H52.3117Z" stroke="white"/>
<path d="M42 38.2931L41.8524 38.1077H39.1406L37.4515 40.2218L38.0565 42.8644L40.4983 44.0445L42 43.3188V38.2931Z" stroke="white"/>
<path d="M42 50.0584L41.838 49.7642H41.8056C41.6622 49.4947 41.4343 49.2699 41.1394 49.1271C40.9143 49.0182 40.6776 48.9701 40.4443 48.9787C39.931 48.9976 39.4441 49.2854 39.1874 49.7678H39.1802L34.9017 57.5437C37.1347 58.3085 39.5435 58.6256 42 58.4141V50.0584Z" stroke="white"/>
<path d="M37.8873 32.3735L38.3879 23.4863C37.7904 23.5591 37.1907 23.6607 36.5907 23.7976C33.3063 24.5472 30.4563 26.1747 28.2282 28.377L35.4779 33.5428L35.4923 33.5356C35.7379 33.7159 36.0401 33.8215 36.3675 33.8215C37.1667 33.8215 37.8177 33.1867 37.8512 32.3916L37.8873 32.3735Z" stroke="white"/>
<path d="M25.5992 31.6966L32.2186 37.6479L32.2114 37.6841C32.8089 38.2062 32.897 39.1122 32.3987 39.7403C32.1946 39.9976 31.9213 40.1702 31.628 40.2507L31.6208 40.2797L23.1358 42.7413C22.7039 38.772 23.6346 34.9135 25.5992 31.6966Z" stroke="white"/>
<path d="M33.0938 45.3912C33.7635 45.4006 34.3643 45.8679 34.5199 46.5532C34.5928 46.8741 34.5573 47.192 34.4371 47.4727L34.4623 47.5053L31.0914 55.6939C27.9397 53.661 25.4294 50.6172 24.0866 46.8827L32.7876 45.3984L32.802 45.4165C32.8994 45.3985 32.9981 45.3898 33.0938 45.3912Z" stroke="white"/>
<path d="M50 36H94V62.0156C94 68.3688 91.4809 74.4628 86.995 78.9616L72 94L59.34 81.3034C53.3588 75.3049 50 67.1796 50 58.7086V36Z" fill="#FA744E"/>
</svg>
