<svg width="94" height="94" viewBox="0 0 94 94" fill="none" xmlns="http://www.w3.org/2000/svg">
<g clip-path="url(#clip0_2633_454387)">
<path d="M94 36H50V58.7086C50 67.1796 53.3588 75.3049 59.34 81.3034L72 94L86.995 78.9616C91.4809 74.4628 94 68.3688 94 62.0156V36Z" fill="#FA744E"/>
<path d="M0 55.4348C0 66.2404 8.71009 75 19.4545 75H45.4679C43.203 69.921 42 64.3767 42 58.7086V28H92.8233C88.6409 11.8895 74.0723 0 56.7424 0C36.6921 0 20.3379 15.9153 19.4892 35.8696L19.4545 35.8696C8.71009 35.8696 0 44.6292 0 55.4348Z" fill="#00BFB3"/>
</g>
<defs>
<clipPath id="clip0_2633_454387">
<rect width="94" height="94" fill="white"/>
</clipPath>
</defs>
</svg>
