<?xml version="1.0" encoding="UTF-8"?>
<svg xmlns="http://www.w3.org/2000/svg" id="Calque_2" data-name="Calque 2" viewBox="0 0 176.54 30.51">
  <defs>
    <style>.cls-1{fill:#09f;}.cls-2{fill:#424242;}</style>
  </defs>
  <path class="cls-1" d="M8.66,20h5.5a4.17,4.17,0,0,1,4.13,4.2v5.61A4.17,4.17,0,0,1,14.16,34H8.66a4.17,4.17,0,0,1-4.13-4.2V24.17A4.17,4.17,0,0,1,8.66,20" transform="translate(-4.53 -3.47)"></path>
  <path class="cls-1" d="M8.66,3.47h5.5a4.17,4.17,0,0,1,4.13,4.21v5.6a4.17,4.17,0,0,1-4.13,4.21H8.66a4.17,4.17,0,0,1-4.13-4.21V7.68A4.17,4.17,0,0,1,8.66,3.47" transform="translate(-4.53 -3.47)"></path>
  <path class="cls-1" d="M24.84,20h5.51a4.16,4.16,0,0,1,4.12,4.2v5.61A4.16,4.16,0,0,1,30.35,34H24.84a4.16,4.16,0,0,1-4.12-4.2V24.17A4.16,4.16,0,0,1,24.84,20" transform="translate(-4.53 -3.47)"></path>
  <path class="cls-2" d="M54.88,25.78l4,.61a6,6,0,0,1-2.46,3.05,7.79,7.79,0,0,1-4.2,1c-2.66,0-4.63-.78-5.91-2.36a7.34,7.34,0,0,1-1.52-4.76,7.21,7.21,0,0,1,2-5.38,6.91,6.91,0,0,1,5-1.95,7.18,7.18,0,0,1,5.4,2q2,2,1.88,6.24H49a3.5,3.5,0,0,0,1,2.53,3.27,3.27,0,0,0,2.34.91,2.66,2.66,0,0,0,1.6-.47,2.87,2.87,0,0,0,1-1.51m.23-3.7a3.29,3.29,0,0,0-.91-2.41,3.12,3.12,0,0,0-4.29,0,3.13,3.13,0,0,0-.85,2.36Z" transform="translate(-4.53 -3.47)"></path>
  <path class="cls-2" d="M74.58,14a1.79,1.79,0,0,1,1.26-.37,8.84,8.84,0,0,1,1.86.21l.55-2.55a12.55,12.55,0,0,0-3.39-.47,6.3,6.3,0,0,0-2.79.54,3.13,3.13,0,0,0-1.52,1.4,6.38,6.38,0,0,0-.41,2.61v1H65.66v-1A2,2,0,0,1,66,14a1.82,1.82,0,0,1,1.26-.37,8.86,8.86,0,0,1,1.87.21l.54-2.55a12.44,12.44,0,0,0-3.39-.47,6.29,6.29,0,0,0-2.78.54A3.13,3.13,0,0,0,62,12.71a6.38,6.38,0,0,0-.41,2.61v1H59.36v2.87h2.25v11h4V19.23h4.48v11h4V19.23h3V16.36h-3v-1A2,2,0,0,1,74.58,14Z" transform="translate(-4.53 -3.47)"></path>
  <path class="cls-2" d="M78.2,11.1h4v3.38h-4Zm0,5.26h4V30.18h-4Z" transform="translate(-4.53 -3.47)"></path>
  <path class="cls-2" d="M98.45,20.44l-4,.65a2.52,2.52,0,0,0-.92-1.62,2.91,2.91,0,0,0-1.85-.55,3.2,3.2,0,0,0-2.41.94,4.52,4.52,0,0,0-.9,3.16,5.21,5.21,0,0,0,.91,3.48,3.17,3.17,0,0,0,2.46,1,2.94,2.94,0,0,0,1.89-.59,3.45,3.45,0,0,0,1-2l4,.61a6.23,6.23,0,0,1-2.38,3.74,7.92,7.92,0,0,1-4.71,1.26,7.42,7.42,0,0,1-5.35-1.91,7,7,0,0,1-2-5.3,7,7,0,0,1,2-5.33A7.56,7.56,0,0,1,91.63,16a8,8,0,0,1,4.45,1.09,6,6,0,0,1,2.37,3.31" transform="translate(-4.53 -3.47)"></path>
  <path class="cls-2" d="M100.22,11.1h4v3.38h-4Zm0,5.26h4V30.18h-4Z" transform="translate(-4.53 -3.47)"></path>
  <path class="cls-2" d="M116,25.78l4,.61a6,6,0,0,1-2.46,3.05,7.79,7.79,0,0,1-4.2,1c-2.66,0-4.63-.78-5.91-2.36a7.34,7.34,0,0,1-1.52-4.76,7.21,7.21,0,0,1,2-5.38A6.91,6.91,0,0,1,113,16a7.18,7.18,0,0,1,5.4,2q2,2,1.88,6.24H110.1a3.42,3.42,0,0,0,1,2.53,3.23,3.23,0,0,0,2.33.91,2.68,2.68,0,0,0,1.6-.47,2.87,2.87,0,0,0,1-1.51m.23-3.7a3.29,3.29,0,0,0-.91-2.41,3.12,3.12,0,0,0-4.29,0,3.13,3.13,0,0,0-.85,2.36Z" transform="translate(-4.53 -3.47)"></path>
  <path class="cls-2" d="M136.17,30.18h-4V23.12a10,10,0,0,0-.26-2.89,2,2,0,0,0-.84-1,2.56,2.56,0,0,0-1.41-.37,3.58,3.58,0,0,0-1.89.52,2.68,2.68,0,0,0-1.14,1.38,10.78,10.78,0,0,0-.31,3.18v6.26h-4V16.36H126v2A6.36,6.36,0,0,1,131,16a6.73,6.73,0,0,1,2.46.44,4.14,4.14,0,0,1,1.67,1.11,3.92,3.92,0,0,1,.8,1.54,10.3,10.3,0,0,1,.22,2.46Z" transform="translate(-4.53 -3.47)"></path>
  <path class="cls-2" d="M146,16.36v2.91h-2.77v5.57a12.76,12.76,0,0,0,.08,2,.83.83,0,0,0,.36.47,1.27,1.27,0,0,0,.69.18,5.89,5.89,0,0,0,1.63-.35l.34,2.83a8.7,8.7,0,0,1-3.2.55,5.54,5.54,0,0,1-2-.33,2.83,2.83,0,0,1-1.29-.86,3.07,3.07,0,0,1-.57-1.43,15.47,15.47,0,0,1-.13-2.57v-6h-1.86V16.36h1.86V13.61l4.06-2.13v4.88Z" transform="translate(-4.53 -3.47)"></path>
  <path class="cls-2" d="M154.42,11.1h4v3.38h-4Zm0,5.26h4V30.18h-4Z" transform="translate(-4.53 -3.47)"></path>
  <path class="cls-2" d="M160.86,30.18V11.1h6.85a26.64,26.64,0,0,1,5.08.29A5.42,5.42,0,0,1,177.05,17a5.63,5.63,0,0,1-.71,3,5.39,5.39,0,0,1-1.79,1.88,6.52,6.52,0,0,1-2.21.91,27.34,27.34,0,0,1-4.43.27h-2.78v7.2Zm4.27-15.85v5.41h2.34a12.14,12.14,0,0,0,3.37-.3,2.72,2.72,0,0,0,1.33-.94,2.39,2.39,0,0,0,.49-1.48A2.34,2.34,0,0,0,172,15.3a3.08,3.08,0,0,0-1.72-.84,22.13,22.13,0,0,0-3.07-.13Z" transform="translate(-4.53 -3.47)"></path>
  <path class="cls-2" d="M181.07,9.12a2.67,2.67,0,0,1-5.33,0,2.7,2.7,0,0,1,2.68-2.67,2.52,2.52,0,0,1,1.87.79A2.57,2.57,0,0,1,181.07,9.12Zm-.48,0A2.18,2.18,0,0,0,180,7.53a2.05,2.05,0,0,0-1.53-.66,2.1,2.1,0,0,0-1.56.66,2.22,2.22,0,0,0-.64,1.58,2.2,2.2,0,0,0,.65,1.59,2.13,2.13,0,0,0,3.08,0A2.19,2.19,0,0,0,180.59,9.11Zm-.84,1.54h-.69l-.5-1.24h-.74v1.24h-.66V7.58h1.43a1.27,1.27,0,0,1,.87.25.82.82,0,0,1,.29.66.83.83,0,0,1-.57.81Zm-1.93-1.73h.68c.38,0,.57-.15.57-.44s-.17-.42-.52-.42h-.73Z" transform="translate(-4.53 -3.47)"></path>
</svg>
