<?xml version="1.0" encoding="utf-8"?>
<!-- Generator: Adobe Illustrator 27.3.1, SVG Export Plug-In . SVG Version: 6.00 Build 0)  -->
<svg version="1.1" id="Camada_1" xmlns="http://www.w3.org/2000/svg" xmlns:xlink="http://www.w3.org/1999/xlink" x="0px" y="0px"
	 viewBox="0 0 467.4 201.4" style="enable-background:new 0 0 467.4 201.4;" xml:space="preserve">
<style type="text/css">
	.st0{fill-rule:evenodd;clip-rule:evenodd;fill:none;}
	.st1{fill-rule:evenodd;clip-rule:evenodd;fill:#00400D;}
	.st2{fill-rule:evenodd;clip-rule:evenodd;fill:#FF8000;}
	.st3{fill:#FF8000;}
</style>
<g>
	<rect x="-0.5" class="st0" width="467.4" height="201.4"/>
	<g>
		<g>
			<polygon class="st1" points="404,43.5 404.8,43.5 404.8,37.6 406.4,37.6 406.4,36.9 402.4,36.9 402.4,37.6 404,37.6 			"/>
			<polygon class="st1" points="407.4,43.5 408.2,43.5 408.2,37.8 408.2,37.8 410.1,43.5 410.7,43.5 412.7,37.8 412.7,37.8 
				412.7,43.5 413.5,43.5 413.5,36.9 412.2,36.9 410.5,42.2 410.4,42.2 408.7,36.9 407.4,36.9 			"/>
			<polygon class="st1" points="174.3,72.6 165.4,127.3 190.7,127.3 199.5,72.6 			"/>
			<path class="st1" d="M289.9,72.6c0.4,3.1,1.3,5.6,2.7,8.1c2.5,4.3,6.3,7.8,10.6,11.5c1.4,1.1,2.7,2.2,3.6,3.5
				c1,1.3,1.5,2.9,1.2,5c-0.6,3.9-5,6-8.4,6c-6.5,0-11.7-5-14.4-10.1l-4.6,28.2c5.6,2.4,11.9,3.7,18.4,3.7c17.6,0,32-13.4,34.7-30.2
				c1.1-6.8,0.3-11.6-2-15.7c-2-3.8-5.2-6.8-9.5-10.1H289.9z"/>
			<polygon class="st1" points="344.5,127.3 369.8,127.3 378.6,72.6 353.3,72.6 			"/>
			<path class="st1" d="M323.4,37.1c-15.8,0-25.4,8.5-30.1,18.2h103l3-18.2H323.4z"/>
			<path class="st1" d="M278,55.3c-2.3-14.1-15.5-18.2-33.2-18.2h-24.4l-3,18.2L278,55.3z"/>
			<path class="st1" d="M276.4,72.6h-25.6H240h-25.5l-8.8,54.8h25l6.1-37.7l0.3,0l7.9,37.7h27.4l-12.6-37.7
				C268.2,86.5,273.7,80.1,276.4,72.6"/>
			<path class="st1" d="M258.2,151c2,16.1-14.7,20.2-23.1,20.3c-23.6,0.4-61-12.4-95.3-35.7c-4.9-3.3-9.6-6.7-14-10.1l6-32.8h23.9
				l3.4-20.2l-23.9,0.1l2.7-17.3l23.9-0.1l3-18.2h-50.4L103.2,106C78.6,81.5,67.5,57.3,76.7,41c4.8-8.5,13.5-10.4,33.4-8.6
				c-24.4-9.9-57-11.2-65.7,1.7c-13.7,20.6,12.1,68.4,77.2,108.7c58,35.9,108.6,45.9,129.9,33.6c2.6-1.5,4.9-4,6-5.7
				C260.1,166.5,261.9,158.3,258.2,151"/>
		</g>
		<g>
			<polygon class="st2" points="205.2,37 202.3,55.2 177.1,55.2 180.1,37 			"/>
			<g>
				<polygon class="st3" points="166,146.4 163.1,146.4 165,132.7 167.9,132.7 				"/>
				<path class="st3" d="M183.5,136.3c0.4,0.5,0.6,1.1,0.6,1.9c0,0.3,0,0.5,0,0.7l-1.1,7.5h-2.7l1-7c0-0.1,0-0.3,0-0.6
					c0-0.4-0.1-0.6-0.2-0.7c-0.1-0.1-0.3-0.2-0.6-0.2c-0.7,0-1.4,0.8-2.2,2.5l-0.8,6h-2.7l1-7c0-0.3,0-0.4,0-0.5
					c0-0.4-0.1-0.6-0.2-0.7c-0.1-0.1-0.3-0.2-0.6-0.2c-0.4,0-0.7,0.2-1.1,0.7c-0.4,0.5-0.8,1.1-1.1,1.9l-0.8,5.9h-2.8l1.5-10.4h2.4
					l-0.1,1.8c0.4-0.7,0.9-1.2,1.5-1.5c0.6-0.4,1.2-0.6,1.8-0.6c0.6,0,1.1,0.2,1.5,0.5c0.4,0.3,0.7,0.8,0.8,1.5
					c0.4-0.6,0.9-1.1,1.5-1.5c0.6-0.3,1.2-0.5,1.8-0.5C182.5,135.6,183.1,135.8,183.5,136.3"/>
				<path class="st3" d="M195.5,136.7c0.6,0.7,0.8,1.7,0.8,3c0,1.1-0.2,2.2-0.6,3.3c-0.4,1.1-1,2-1.8,2.7c-0.8,0.7-1.9,1.1-3.2,1.1
					c-0.7,0-1.3-0.1-1.9-0.3l-0.6,4l-2.8,0.3l2.1-14.8h2.4l0,1.2c0.9-1,2-1.5,3.1-1.5C194.1,135.6,194.9,136,195.5,136.7 M189.9,139
					l-0.7,5.4c0.5,0.2,1,0.3,1.5,0.3c0.7,0,1.2-0.3,1.6-0.8c0.4-0.5,0.7-1.1,0.9-1.9c0.2-0.8,0.3-1.5,0.3-2.3c0-1.3-0.5-2-1.4-2
					C191.3,137.7,190.6,138.1,189.9,139"/>
				<path class="st3" d="M205.9,135.8l-0.8,2.7c-0.3-0.1-0.6-0.1-0.9-0.1c-0.6,0-1.1,0.3-1.5,0.8c-0.4,0.5-0.8,1.3-1.2,2.2l-0.7,5
					h-2.8l1.5-10.4h2.4l-0.1,2c0.4-0.7,0.8-1.3,1.3-1.7c0.5-0.4,1.1-0.6,1.6-0.6C205.2,135.6,205.5,135.7,205.9,135.8"/>
				<path class="st3" d="M214.9,136.8c0.7,0.8,1.1,1.8,1.1,3.2c0,1-0.2,2.1-0.6,3.1c-0.4,1-1,1.9-1.8,2.6c-0.9,0.7-2,1-3.3,1
					c-1.3,0-2.4-0.4-3.1-1.2c-0.7-0.8-1.1-1.9-1.1-3.2c0-1,0.2-2.1,0.6-3.1c0.4-1,1-1.9,1.8-2.5c0.9-0.7,2-1,3.3-1
					C213.1,135.6,214.2,136,214.9,136.8 M209.5,139.2c-0.4,1-0.6,2.1-0.6,3.3c0,0.7,0.1,1.3,0.4,1.6c0.3,0.3,0.7,0.5,1.2,0.5
					c0.7,0,1.2-0.3,1.6-0.8c0.4-0.5,0.7-1.1,0.8-1.9c0.2-0.7,0.2-1.4,0.2-2.1c0-0.7-0.1-1.3-0.4-1.6c-0.3-0.3-0.7-0.5-1.2-0.5
					C210.6,137.7,209.9,138.2,209.5,139.2"/>
				<polygon class="st3" points="222.7,146.4 219.4,146.4 217.5,135.9 220.4,135.9 221.3,144.2 224.5,135.9 227.4,135.9 				"/>
				<path class="st3" d="M230.5,146.4h-2.8l1.5-10.4h2.8L230.5,146.4z M232.3,131c0.3,0.3,0.4,0.6,0.4,1c0,0.5-0.2,0.9-0.5,1.3
					c-0.4,0.4-0.8,0.5-1.3,0.5c-0.5,0-0.8-0.1-1.1-0.4c-0.3-0.3-0.4-0.6-0.4-1.1c0-0.5,0.2-0.9,0.5-1.3c0.4-0.3,0.8-0.5,1.3-0.5
					C231.7,130.6,232.1,130.7,232.3,131"/>
				<path class="st3" d="M242.7,136.3c0.4,0.4,0.6,1.1,0.6,1.9c0,0.2,0,0.4-0.1,0.7l-1,7.5h-2.8l1-7c0-0.3,0-0.4,0-0.5
					c0-0.4-0.1-0.6-0.2-0.7c-0.1-0.1-0.3-0.2-0.6-0.2c-0.8,0-1.7,0.9-2.6,2.6l-0.8,5.9h-2.8l1.5-10.4h2.4l-0.1,1.9
					c0.5-0.7,1-1.2,1.6-1.6c0.6-0.4,1.3-0.6,1.9-0.6C241.7,135.6,242.3,135.8,242.7,136.3"/>
				<path class="st3" d="M255.4,136.7l-1.3,9c-0.3,1.8-0.8,3-1.7,3.8c-0.9,0.8-2.1,1.2-3.6,1.2c-0.6,0-1.3-0.1-2-0.3
					c-0.7-0.2-1.3-0.5-1.9-0.8l0.9-1.9c1,0.6,1.9,0.8,2.8,0.8c0.7,0,1.3-0.2,1.8-0.5c0.5-0.3,0.8-1,0.9-2l0.2-1.1
					c-0.4,0.4-0.8,0.8-1.3,1c-0.5,0.3-1,0.4-1.5,0.4c-1.1,0-1.9-0.4-2.5-1.1c-0.6-0.7-0.9-1.7-0.9-2.9c0-1.1,0.2-2.1,0.6-3.2
					c0.4-1,1.1-1.9,1.9-2.6c0.9-0.7,2-1,3.4-1C252.8,135.6,254.1,136,255.4,136.7 M249.5,138.4c-0.5,0.5-0.8,1.1-1,1.8
					c-0.2,0.7-0.3,1.4-0.3,2.2c0,0.7,0.1,1.2,0.4,1.5c0.2,0.3,0.6,0.5,1,0.5c0.7,0,1.5-0.5,2.2-1.6l0.7-4.8
					c-0.4-0.1-0.9-0.2-1.3-0.2C250.6,137.6,250,137.9,249.5,138.4"/>
				<path class="st3" d="M272.6,134.2l-1.6,1.6c-0.4-0.4-0.8-0.7-1.3-0.9c-0.4-0.2-0.9-0.3-1.5-0.3c-0.7,0-1.2,0.2-1.6,0.5
					c-0.4,0.3-0.6,0.7-0.6,1.2c0,0.3,0.1,0.5,0.2,0.7c0.1,0.2,0.4,0.4,0.7,0.5c0.3,0.2,0.8,0.4,1.4,0.6c1.1,0.4,2,0.9,2.6,1.4
					c0.6,0.6,0.9,1.4,0.9,2.4c0,0.7-0.2,1.5-0.6,2.2c-0.4,0.7-1,1.3-1.8,1.8c-0.9,0.5-2,0.7-3.3,0.7c-1.1,0-2-0.2-2.8-0.5
					c-0.8-0.4-1.5-0.8-2-1.4l1.7-1.7c0.9,0.9,1.9,1.4,3.1,1.4c0.8,0,1.4-0.2,1.9-0.5c0.5-0.4,0.7-0.9,0.7-1.5c0-0.5-0.2-0.9-0.5-1.2
					c-0.3-0.3-0.9-0.6-1.7-0.9c-1.2-0.4-2.2-0.9-2.7-1.5c-0.6-0.6-0.9-1.4-0.9-2.3c0-0.7,0.2-1.3,0.6-2c0.4-0.6,0.9-1.2,1.7-1.6
					c0.8-0.4,1.7-0.6,2.9-0.6C270.1,132.4,271.5,133,272.6,134.2"/>
				<path class="st3" d="M281.4,141.3c-1.2,0.6-2.8,1-4.9,1.2c0.1,1.3,0.7,2,1.9,2c0.4,0,0.9-0.1,1.3-0.2s0.9-0.4,1.4-0.7l1,1.7
					c-1.3,0.9-2.6,1.4-4.1,1.4s-2.5-0.4-3.3-1.2c-0.8-0.8-1.1-1.8-1.1-3.2c0-1,0.2-2.1,0.6-3.1c0.4-1,1-1.9,1.9-2.6
					c0.9-0.7,2-1,3.3-1c1.2,0,2.1,0.3,2.7,0.8c0.6,0.5,1,1.2,1,2C283.2,139.8,282.6,140.7,281.4,141.3 M279.5,140
					c0.6-0.4,0.9-0.9,0.9-1.5c0-0.3-0.1-0.5-0.3-0.7c-0.2-0.2-0.5-0.3-0.9-0.3c-0.7,0-1.3,0.3-1.8,0.9c-0.4,0.6-0.7,1.4-0.9,2.3
					C277.9,140.7,278.9,140.4,279.5,140"/>
				<path class="st3" d="M293.6,136.9l-1.4,1.6c-0.3-0.3-0.6-0.5-0.9-0.6c-0.3-0.1-0.6-0.2-1-0.2c-1,0-1.7,0.5-2.2,1.4
					c-0.4,0.9-0.7,2-0.7,3.2c0,0.7,0.1,1.3,0.4,1.6c0.3,0.3,0.7,0.5,1.3,0.5c0.4,0,0.7-0.1,1-0.2c0.3-0.1,0.7-0.3,1.1-0.6l1,1.8
					c-1.1,0.8-2.3,1.2-3.5,1.2c-1.3,0-2.4-0.4-3.2-1.2c-0.8-0.8-1.1-1.9-1.1-3.3c0-1,0.2-2,0.6-3c0.4-1,1-1.9,1.9-2.6
					c0.9-0.7,1.9-1,3.2-1C291.6,135.6,292.7,136,293.6,136.9"/>
				<path class="st3" d="M302.8,146.4h-2.4l0.1-1.6c-1,1.3-2.1,1.9-3.3,1.9c-0.8,0-1.5-0.2-1.9-0.7c-0.4-0.5-0.6-1.1-0.6-1.9
					c0-0.2,0-0.5,0.1-0.7l1-7.4h2.8l-1,7c0,0.3,0,0.4,0,0.5c0,0.4,0.1,0.6,0.2,0.7c0.1,0.1,0.3,0.2,0.6,0.2c0.4,0,0.8-0.2,1.2-0.5
					c0.4-0.3,0.7-0.8,1.1-1.4l0.9-6.6h2.8L302.8,146.4z"/>
				<path class="st3" d="M313.7,135.8l-0.8,2.7c-0.3-0.1-0.6-0.1-0.9-0.1c-0.6,0-1.1,0.3-1.5,0.8c-0.4,0.5-0.8,1.3-1.2,2.2l-0.7,5
					h-2.8l1.5-10.4h2.4l-0.1,2c0.4-0.7,0.8-1.3,1.3-1.7c0.5-0.4,1.1-0.6,1.6-0.6C313,135.6,313.4,135.7,313.7,135.8"/>
				<path class="st3" d="M316.8,146.4h-2.8l1.5-10.4h2.8L316.8,146.4z M318.7,131c0.3,0.3,0.4,0.6,0.4,1c0,0.5-0.2,0.9-0.5,1.3
					c-0.4,0.4-0.8,0.5-1.3,0.5c-0.5,0-0.8-0.1-1.1-0.4c-0.3-0.3-0.4-0.6-0.4-1.1c0-0.5,0.2-0.9,0.5-1.3c0.4-0.3,0.8-0.5,1.3-0.5
					C318.1,130.6,318.4,130.7,318.7,131"/>
				<path class="st3" d="M323.4,143.1c0,0.2,0,0.4,0,0.5c0,0.3,0.1,0.5,0.2,0.7c0.1,0.1,0.3,0.2,0.6,0.2c0.4,0,0.8-0.1,1.3-0.4
					l0.7,1.8c-0.4,0.2-0.9,0.4-1.3,0.6c-0.5,0.1-0.9,0.2-1.4,0.2c-0.9,0-1.7-0.3-2.1-0.7c-0.5-0.5-0.7-1.2-0.7-2.1
					c0-0.3,0-0.5,0.1-0.8l0.7-5.2h-1.5l0.3-2h1.7l0.6-2.3l2.3-0.3l-0.4,2.6h2.4l-0.6,2h-2.1L323.4,143.1z"/>
				<path class="st3" d="M333.1,146.4c-0.6,1.3-1.4,2.3-2.4,3c-1,0.7-2.3,1.1-3.8,1.2l-0.1-2c1-0.1,1.8-0.4,2.3-0.7
					c0.5-0.3,1-0.9,1.4-1.6l-1,0l-1.7-10.4h2.9l0.9,8.6l3.4-8.6h2.9L333.1,146.4z"/>
				<polygon class="st3" points="353.4,135 350,135 348.4,146.4 345.6,146.4 347.2,135 343.6,135 343.9,132.7 354,132.7 				"/>
				<path class="st3" d="M361.3,136.8c0.7,0.8,1.1,1.8,1.1,3.2c0,1-0.2,2.1-0.6,3.1c-0.4,1-1,1.9-1.8,2.6c-0.9,0.7-2,1-3.3,1
					c-1.3,0-2.4-0.4-3.1-1.2c-0.7-0.8-1.1-1.9-1.1-3.2c0-1,0.2-2.1,0.6-3.1c0.4-1,1-1.9,1.8-2.5c0.9-0.7,2-1,3.3-1
					C359.5,135.6,360.6,136,361.3,136.8 M355.9,139.2c-0.4,1-0.6,2.1-0.6,3.3c0,0.7,0.1,1.3,0.4,1.6c0.3,0.3,0.7,0.5,1.2,0.5
					c0.7,0,1.2-0.3,1.6-0.8c0.4-0.5,0.7-1.1,0.8-1.9c0.2-0.7,0.2-1.4,0.2-2.1c0-0.7-0.1-1.3-0.4-1.6c-0.3-0.3-0.7-0.5-1.2-0.5
					C357,137.7,356.3,138.2,355.9,139.2"/>
				<path class="st3" d="M374.3,136.7l-1.3,9c-0.2,1.8-0.8,3-1.7,3.8c-0.9,0.8-2.1,1.2-3.6,1.2c-0.6,0-1.3-0.1-2-0.3
					c-0.7-0.2-1.3-0.5-1.9-0.8l0.9-1.9c1,0.6,1.9,0.8,2.8,0.8c0.7,0,1.3-0.2,1.8-0.5c0.5-0.3,0.8-1,0.9-2l0.2-1.1
					c-0.4,0.4-0.8,0.8-1.3,1c-0.5,0.3-1,0.4-1.5,0.4c-1.1,0-1.9-0.4-2.5-1.1c-0.6-0.7-0.9-1.7-0.9-2.9c0-1.1,0.2-2.1,0.6-3.2
					c0.4-1,1.1-1.9,1.9-2.6c0.9-0.7,2-1,3.4-1C371.6,135.6,373,136,374.3,136.7 M368.4,138.4c-0.5,0.5-0.8,1.1-1,1.8
					c-0.2,0.7-0.3,1.4-0.3,2.2c0,0.7,0.1,1.2,0.4,1.5c0.2,0.3,0.6,0.5,1,0.5c0.7,0,1.5-0.5,2.2-1.6l0.7-4.8
					c-0.4-0.1-0.9-0.2-1.3-0.2C369.4,137.6,368.9,137.9,368.4,138.4"/>
				<path class="st3" d="M383.7,141.3c-1.2,0.6-2.8,1-4.9,1.2c0.1,1.3,0.7,2,1.9,2c0.4,0,0.9-0.1,1.3-0.2c0.4-0.2,0.9-0.4,1.4-0.7
					l1,1.7c-1.3,0.9-2.6,1.4-4.1,1.4c-1.4,0-2.5-0.4-3.3-1.2c-0.8-0.8-1.1-1.8-1.1-3.2c0-1,0.2-2.1,0.6-3.1c0.4-1,1-1.9,1.9-2.6
					c0.9-0.7,2-1,3.3-1c1.2,0,2.1,0.3,2.7,0.8c0.6,0.5,1,1.2,1,2C385.6,139.8,384.9,140.7,383.7,141.3 M381.8,140
					c0.6-0.4,0.9-0.9,0.9-1.5c0-0.3-0.1-0.5-0.3-0.7c-0.2-0.2-0.5-0.3-0.9-0.3c-0.7,0-1.3,0.3-1.8,0.9c-0.4,0.6-0.7,1.4-0.9,2.3
					C380.3,140.7,381.2,140.4,381.8,140"/>
				<path class="st3" d="M390.4,143.1c0,0.2,0,0.4,0,0.5c0,0.3,0.1,0.5,0.2,0.7c0.1,0.1,0.3,0.2,0.6,0.2c0.4,0,0.8-0.1,1.3-0.4
					l0.7,1.8c-0.4,0.2-0.9,0.4-1.3,0.6c-0.5,0.1-0.9,0.2-1.4,0.2c-0.9,0-1.7-0.3-2.1-0.7c-0.5-0.5-0.7-1.2-0.7-2.1
					c0-0.3,0-0.5,0.1-0.8l0.7-5.2h-1.5l0.3-2h1.7l0.6-2.3l2.3-0.3l-0.4,2.6h2.4l-0.6,2h-2.1L390.4,143.1z"/>
				<path class="st3" d="M403.8,136.3c0.4,0.4,0.6,1.1,0.6,1.9c0,0.3,0,0.5,0,0.7l-1.1,7.5h-2.7l1-7c0-0.3,0-0.4,0-0.5
					c0-0.6-0.2-1-0.7-1c-0.9,0-1.7,0.9-2.6,2.6l-0.8,5.9h-2.7l2-14.6l2.8-0.3l-0.9,6.2c0.4-0.6,0.9-1.2,1.5-1.5
					c0.6-0.4,1.2-0.6,1.9-0.6C402.8,135.6,403.4,135.8,403.8,136.3"/>
				<path class="st3" d="M414.1,141.3c-1.2,0.6-2.8,1-4.9,1.2c0.1,1.3,0.7,2,1.9,2c0.4,0,0.9-0.1,1.3-0.2s0.9-0.4,1.4-0.7l1,1.7
					c-1.3,0.9-2.6,1.4-4.1,1.4c-1.4,0-2.5-0.4-3.3-1.2c-0.8-0.8-1.1-1.8-1.1-3.2c0-1,0.2-2.1,0.6-3.1c0.4-1,1-1.9,1.9-2.6
					c0.9-0.7,2-1,3.3-1c1.2,0,2.1,0.3,2.7,0.8c0.6,0.5,1,1.2,1,2C416,139.8,415.3,140.7,414.1,141.3 M412.2,140
					c0.6-0.4,0.9-0.9,0.9-1.5c0-0.3-0.1-0.5-0.3-0.7c-0.2-0.2-0.5-0.3-0.9-0.3c-0.7,0-1.3,0.3-1.8,0.9c-0.4,0.6-0.7,1.4-0.9,2.3
					C410.7,140.7,411.6,140.4,412.2,140"/>
				<path class="st3" d="M425.2,135.8l-0.8,2.7c-0.3-0.1-0.6-0.1-0.9-0.1c-0.6,0-1.1,0.3-1.5,0.8c-0.4,0.5-0.8,1.3-1.2,2.2l-0.7,5
					h-2.8l1.5-10.4h2.4l-0.1,2c0.4-0.7,0.8-1.3,1.3-1.7c0.5-0.4,1.1-0.6,1.6-0.6C424.5,135.6,424.8,135.7,425.2,135.8"/>
			</g>
		</g>
	</g>
</g>
</svg>
