<svg width="64" height="64" viewBox="0 0 64 64" fill="none" xmlns="http://www.w3.org/2000/svg">
<path d="M32 46C39.732 46 46 39.732 46 32C46 24.268 39.732 18 32 18C24.268 18 18 24.268 18 32C18 39.732 24.268 46 32 46Z" fill="white"/>
<path fill-rule="evenodd" clip-rule="evenodd" d="M40.4122 17.2239C37.9317 15.8086 35.0603 15 32 15C22.6112 15 15 22.6112 15 32C15 41.3888 22.6112 49 32 49C41.3888 49 49 41.3888 49 32C49 28.9397 48.1914 26.0683 46.7762 23.5878L44.5585 25.8055C45.4814 27.673 46 29.7759 46 32C46 39.732 39.732 46 32 46C24.268 46 18 39.732 18 32C18 24.268 24.268 18 32 18C34.2241 18 36.327 18.5186 38.1945 19.4415L40.4122 17.2239Z" fill="#535966"/>
<path fill-rule="evenodd" clip-rule="evenodd" d="M32 3C15.9829 3 3 15.9841 3 32C3 48.0159 15.9829 61 32 61C48.016 61 61 48.016 61 32C61 25.6158 58.9369 19.7133 55.441 14.9229L53.2908 17.0732C56.2581 21.2977 58 26.4455 58 32C58 46.3591 46.3591 58 32 58C17.6398 58 6 46.3592 6 32C6 17.6408 17.6398 6 32 6C37.5545 6 42.7023 7.7419 46.9268 10.7092L49.0771 8.55896C44.2867 5.0631 38.3842 3 32 3Z" fill="#535966"/>
<path fill-rule="evenodd" clip-rule="evenodd" d="M55 7.15685V1H58V7.15685H55Z" fill="#00BFB3"/>
<path fill-rule="evenodd" clip-rule="evenodd" d="M38 32C38 35.3137 35.3137 38 32 38C28.6863 38 26 35.3137 26 32C26 28.6863 28.6863 26 32 26C35.3137 26 38 28.6863 38 32ZM35 32C35 33.6569 33.6569 35 32 35C30.3431 35 29 33.6569 29 32C29 30.3431 30.3431 29 32 29C33.6569 29 35 30.3431 35 32Z" fill="#00BFB3"/>
<path fill-rule="evenodd" clip-rule="evenodd" d="M55.7781 6.10059H62.9999V9.10059H57.0207L36.0608 30.0605L33.9395 27.9392L55.7781 6.10059Z" fill="#00BFB3"/>
</svg>
