<?xml version="1.0" encoding="UTF-8"?><svg id="Layer_2" xmlns="http://www.w3.org/2000/svg" viewBox="0 0 203.97 87.2"><defs><style>.cls-1{fill:#fff;}.cls-2{fill:#0096a1;}</style></defs><g id="ESET_sign"><g><g><path class="cls-2" d="M172.41,12.2c9.93,0,18.4,5.13,22.82,12.4,3.9,6.77,4.76,17.79,4.76,25.09s-.87,18.33-4.76,25.1c-4.42,7.27-12.89,12.4-22.82,12.4H27.59c-9.94,0-18.41-5.13-22.82-12.4C.86,68.03,0,57.01,0,49.7S.86,31.37,4.76,24.6c4.42-7.27,12.89-12.4,22.82-12.4H172.41Z"/><path class="cls-1" d="M123.96,45.58c.14-4.79,1.05-6.38,5.93-6.38,4.02,0,6.26,.42,6.26,6v.38h-12.19m-85.58-6.01c-4.73,0-5.68,1.46-5.81,6.15h11.96v-.27c0-5.49-2.15-5.88-6.15-5.88m-16.9,10.35c0-13.55,3.02-17.93,17.1-17.93,13.16,0,17.03,3.59,17.03,17.93v1.7h-23.05v.27c0,6.27,.98,8.32,6.02,8.32,3.49,0,6.02-.38,6.14-4.13h10.89c-.06,5.11-1.77,7.98-4.66,9.65-2.98,1.65-7.23,2.06-12.37,2.06-13.82,0-17.1-4.72-17.1-17.87m41.48-6.56c0-11.15,7.18-11.37,17.1-11.37,6.61,0,15.41,.11,15.41,8.53v1.43h-10.45c-.51-2.78-2.73-2.98-4.96-2.98-6.09,0-6.35,.76-6.35,3.11,0,1.99,.35,3.24,6.34,3.38,12.07,.27,17.11,.96,17.11,10.63,0,10.15-7.76,11.71-17.1,11.71-2.29,0-4.52,.01-6.57-.15-6.78-.54-10.45-3.07-10.53-10.82h11.09c.13,3.93,3.1,3.99,6.01,3.99,5.23,0,6.35-.33,6.35-3.38,0-1.82-.53-2.83-1.68-3.33-1.24-.54-3.34-.46-4.67-.46-14.68,0-17.1-3.28-17.1-10.29m90.99-3.38h8.11v27.42h11.09v-27.42h8.1v-7.99h-27.29v7.99Zm-40.84,9.69c0,13.09,3.24,17.75,16.99,17.75,5.14,0,9.37-.41,12.32-2.05,2.82-1.64,4.52-4.43,4.6-9.44h-10.67c-.16,3.75-2.8,4.13-6.25,4.13-5.13,0-6.12-2.15-6.12-8.43v-.38h23.04v-1.58c0-14.28-3.83-17.82-16.92-17.82-14.01,0-16.99,4.32-16.99,17.82M13.36,73.98c3.52,3.79,10.28,6.62,16.07,6.63H104.11V18.79H29.43c-5.79,.01-12.55,2.85-16.07,6.63-5.56,5.98-6.77,15.36-6.77,24.28s1.21,18.3,6.77,24.27"/></g><g><path class="cls-2" d="M187.76,8.08c-.04,2.17,.83,4.25,2.39,5.75,3.16,3.13,8.26,3.13,11.42,0,1.55-1.5,2.41-3.57,2.39-5.72v-.02c.02-2.14-.85-4.2-2.39-5.68C200.1,.85,198.05-.02,195.9,0h0c-2.17-.05-4.26,.82-5.75,2.39-1.56,1.48-2.42,3.54-2.39,5.68Zm8.11-6.34c1.67-.03,3.27,.63,4.43,1.83,1.21,1.18,1.88,2.81,1.86,4.5,.03,1.69-.64,3.32-1.86,4.5-1.15,1.22-2.75,1.9-4.43,1.87-1.68,.03-3.3-.65-4.46-1.87-1.21-1.18-1.87-2.81-1.84-4.5-.02-1.69,.64-3.31,1.84-4.5,1.17-1.21,2.79-1.87,4.46-1.83Z"/><path class="cls-2" d="M194.61,8.95h.81l2.39,2.97h2.56l-3.04-3.48c.5-.19,.94-.5,1.29-.9,.34-.4,.51-.91,.48-1.44,.02-.39-.07-.77-.25-1.11-.2-.31-.49-.57-.82-.74-.31-.18-.66-.29-1.02-.33-.45-.06-.91-.08-1.36-.07h-3.05V11.92h1.96l.04-2.97Zm0-3.7h.64c.24,0,.47,0,.71,.04,.18,0,.36,.05,.52,.13,.16,.08,.29,.21,.36,.38,.08,.13,.12,.28,.11,.43,0,.2-.03,.41-.1,.6-.07,.15-.18,.28-.31,.39-.18,.11-.38,.2-.59,.25-.28,.03-.57,.05-.85,.05h-.48v-2.27Z"/></g></g></g></svg>