<?xml version="1.0" encoding="UTF-8"?>
<svg xmlns="http://www.w3.org/2000/svg" viewBox="0 0 360 200">
  <defs>
    <style>
      .c {
        fill: #0096a1;
      }

      .d {
        fill: #fff;
      }
    </style>
  </defs>
  <g id="a" data-name="ESET sign">
    <g>
      <g>
        <path class="c" d="M252.4146,20c9.9329,0,18.4033,5.1309,22.8224,12.4031,3.8979,6.7678,4.7631,17.7925,4.7631,25.0932,0,7.3077-.8651,18.3337-4.7631,25.0997-4.419,7.2707-12.8895,12.404-22.8224,12.404H107.5862c-9.9364,0-18.4052-5.1333-22.8242-12.404-3.9014-6.766-4.762-17.7887-4.762-25.0954s.8606-18.3297,4.762-25.0975c4.419-7.2723,12.8879-12.4031,22.8242-12.4031h144.8284Z"/>
        <path class="d" d="M203.9613,53.3739c.1369-4.7915,1.0487-6.3753,5.9341-6.3753,4.0208,0,6.2566.4187,6.2566,5.9964v.3789h-12.1907M118.3781,47.3638c-4.7287,0-5.6818,1.4561-5.8144,6.1487h11.9594v-.2655c0-5.4891-2.1518-5.8833-6.145-5.8833M101.4785,57.714c0-13.5481,3.0175-17.9342,17.103-17.9342,13.1551,0,17.0302,3.5918,17.0302,17.9342v1.695h-23.0464v.2676c0,6.2694.9816,8.3202,6.0162,8.3202,3.4884,0,6.0248-.3837,6.1412-4.1295h10.889c-.0579,5.114-1.7737,7.9784-4.6586,9.6546-2.9767,1.6525-7.2339,2.0588-12.3716,2.0588-13.8174,0-17.103-4.7233-17.103-17.8667M142.9538,51.1501c0-11.1478,7.184-11.3703,17.1008-11.3703,6.6071,0,15.4092.1142,15.4092,8.5263v1.426h-10.4478c-.5058-2.7781-2.7287-2.9791-4.9613-2.9791-6.0881,0-6.3495.7554-6.3495,3.1133,0,1.9859.3526,3.2432,6.3449,3.3773,12.067.2727,17.1062.9628,17.1062,10.6286,0,10.1468-7.7564,11.7085-17.1016,11.7085-2.2897,0-4.5194.014-6.5706-.1456-6.7777-.5401-10.4451-3.074-10.5302-10.8197h11.093c.1333,3.9295,3.0961,3.994,6.0079,3.994,5.2334,0,6.3503-.3289,6.3503-3.3798,0-1.8212-.5319-2.8273-1.6798-3.3281-1.2376-.5374-3.3427-.4648-4.6705-.4648-14.6828,0-17.1008-3.2766-17.1008-10.2866M233.9463,47.7687h8.1076v27.4208h11.0873v-27.4208h8.0985v-7.9889h-27.2934v7.9889ZM193.1075,57.462c0,13.0924,3.2432,17.7544,16.9876,17.7544,5.1371,0,9.3721-.4106,12.3168-2.0486,2.8218-1.6353,4.5183-4.4347,4.602-9.438h-10.6676c-.1637,3.7468-2.7983,4.1295-6.2513,4.1295-5.1318,0-6.1225-2.1464-6.1225-8.4341v-.3837h23.0446v-1.5794c0-14.2814-3.8271-17.824-16.9221-17.824-14.0133,0-16.9876,4.3235-16.9876,17.824M93.3577,81.7749c3.519,3.786,10.2802,6.6193,16.0699,6.63h74.6857V26.5905h-74.6857c-5.7897.0113-12.5508,2.8456-16.0699,6.6297-5.5587,5.9771-6.7726,15.3589-6.7726,24.2804s1.214,18.2972,6.7726,24.2743"/>
      </g>
      <g>
        <path class="c" d="M267.7598,15.8765c-.0392,2.1662.8292,4.2502,2.3949,5.7477,3.1627,3.1347,8.2609,3.1347,11.4236,0,1.5473-1.4983,2.4128-3.5653,2.3949-5.719v-.0239c.0159-2.1421-.8502-4.1965-2.3949-5.6807-1.4766-1.5534-3.5328-2.4228-5.6759-2.3997h0c-2.1685-.0511-4.2571.8192-5.7477,2.3949-1.5554,1.4769-2.4235,3.5361-2.3949,5.6807ZM275.8737,9.5396c1.6668-.0341,3.2718.6312,4.4258,1.8345,1.2094,1.1833,1.881,2.8105,1.8584,4.5024.0283,1.6929-.6443,3.3223-1.8584,4.5024-1.1473,1.2174-2.7531,1.8969-4.4258,1.8728-1.6843.0266-3.3029-.6524-4.4641-1.8728-1.2065-1.1842-1.8733-2.8121-1.8441-4.5024-.0214-1.6888.6442-3.3138,1.8441-4.5024,1.1678-1.2063,2.7856-1.8711,4.4641-1.8345Z"/>
        <path class="c" d="M274.6092,16.7483h.8143l2.3949,2.9745h2.5577l-3.0367-3.4822c.4965-.1882.939-.4958,1.2885-.8957.3355-.4012.5067-.9146.479-1.4369.0186-.3861-.0675-.77-.2491-1.1112-.2026-.3143-.4853-.569-.819-.7376-.3134-.1798-.6609-.2924-1.0202-.3305-.4509-.059-.9057-.083-1.3603-.0718h-3.0511v8.066h1.959l.0431-2.9745ZM274.6092,13.0506h.637c.2371-.0076.4744.0068.7089.0431.1814.0086.359.0543.5221.1341.1608.0796.2881.2137.3592.3784.0762.1291.1159.2764.115.4263.0057.2038-.0268.4069-.0958.5987-.0745.1503-.1807.2827-.3113.388-.1813.115-.3804.1991-.5891.2491-.2828.0347-.5676.0507-.8526.0479h-.479l-.0144-2.2656Z"/>
      </g>
    </g>
  </g>
  <g id="b" data-name="typo DSPP">
    <path class="c" d="M45,154.0849h7.3655c4.3396,0,7.3083,2.4831,7.3083,6.851,0,3.8273-2.9687,7.0241-8.793,7.0241h-1.9697v6.3082h-3.9111v-20.1834ZM51.0523,164.9042c3.0831,0,4.5966-1.483,4.5966-3.8529,0-2.4276-1.085-3.8828-3.9111-3.8828h-2.8266v7.7357h2.1412ZM62.4465,158.6814h3.7968v2.0835c.7426-1.0556,2.2555-2.3976,4.1969-2.3976.8847,0,1.513.0855,2.0269.2564l-.5422,3.1413c-.7426-.1432-1.1139-.171-1.9986-.171-1.5701,0-2.9976.9125-3.683,1.7694v10.9048h-3.7968v-15.5868ZM72.9838,166.618c0-5.2526,3.1402-8.3362,7.7651-8.3362,5.1954,0,7.5936,3.0537,7.5936,8.193,0,5.368-3.3117,8.1375-7.8223,8.1375-4.8247,0-7.5365-3.028-7.5365-7.9943ZM84.4885,166.4748c0-2.6541-.7421-5.1671-3.8257-5.1671-3.0259,0-3.854,2.513-3.854,5.1949,0,2.8849.9424,5.0539,3.9111,5.0539,3.0264,0,3.7685-2.2545,3.7685-5.0816ZM92.0575,179.8649l.6277-3.0836c1.4275.3141,3.5398.6283,4.7392.6283,2.3976,0,4.0249-.344,4.0249-3.0836v-.827c-.7704.5983-1.7982,1.0257-2.9404,1.0257-3.5682,0-7.5936-.9125-7.5936-7.9644,0-5.4513,3.7113-8.2785,8.193-8.2785,2.1984,0,3.9117.2863,6.1095.7137v15.73c0,4.2824-3.7113,5.9386-7.2229,5.9386-2.3693,0-4.5677-.4573-5.9375-.7992ZM101.4211,170.8705v-9.1354c-.6283-.141-1.2848-.312-2.341-.312-3.1119,0-4.3679,2.1391-4.3679,5.1671,0,3.7097,1.513,4.9662,4.0255,4.9662,1.0845,0,1.9697-.3419,2.6835-.686ZM109.6462,158.6814h3.7968v2.0835c.7426-1.0556,2.2555-2.3976,4.1969-2.3976.8847,0,1.513.0855,2.0269.2564l-.5428,3.1413c-.7421-.1432-1.1133-.171-1.998-.171-1.5701,0-2.9976.9125-3.683,1.7694v10.9048h-3.7968v-15.5868ZM120.3255,166.7313c0-6.3659,3.2262-8.4217,7.6225-8.4217,4.5105,0,6.3376,2.9703,6.3376,7.8511v1.3698h-10.1633c0,3.4277,2.1412,3.9982,4.9107,3.9982,1.0845,0,2.9404-.3718,4.2247-.6283l.5994,2.9404c-1.2843.3996-3.3684.7714-5.5096.7714-4.9102,0-8.0221-1.7715-8.0221-7.881ZM130.3745,164.9897c.0288-2.3399-.9135-3.9683-2.7978-3.9683-1.9126,0-3.1974,1.3997-3.3684,3.9683h6.1661ZM136.687,173.9541l.4568-2.9404c1.6273.2586,3.2257.515,4.4245.515,2.427,0,3.1402-.7437,3.1402-1.5984,0-2.3998-7.8506-1.4574-7.8506-6.9664,0-3.1413,2.855-4.682,6.1095-4.682,1.8271,0,3.4827.3718,4.682.7992l-.6283,2.8272c-1.2277-.2863-2.3982-.5727-4.0538-.5727-1.7416,0-2.3127.7714-2.3127,1.4275,0,2.4853,7.794,1.7993,7.794,6.9664,0,3.9106-3.9111,4.8829-6.5091,4.8829-2.1984,0-3.9394-.2863-5.2526-.6582ZM150.7924,173.9541l.4568-2.9404c1.6267.2586,3.2257.515,4.4251.515,2.4265,0,3.1402-.7437,3.1402-1.5984,0-2.3998-7.8511-1.4574-7.8511-6.9664,0-3.1413,2.855-4.682,6.1095-4.682,1.8271,0,3.4827.3718,4.682.7992l-.6283,2.8272c-1.2277-.2863-2.3982-.5727-4.0538-.5727-1.7416,0-2.3122.7714-2.3122,1.4275,0,2.4853,7.7934,1.7993,7.7934,6.9664,0,3.9106-3.9111,4.8829-6.5091,4.8829-2.1978,0-3.9394-.2863-5.2526-.6582ZM166.5245,170.4154h4.2824v3.8529h-4.2824v-3.8529ZM181.7727,154.0849h7.365c4.3396,0,7.3083,2.4831,7.3083,6.851,0,3.8273-2.9687,7.0241-8.7924,7.0241h-1.9697v6.3082h-3.9111v-20.1834ZM187.8245,164.9042c3.0836,0,4.5966-1.483,4.5966-3.8529,0-2.4276-1.085-3.8828-3.9111-3.8828h-2.8261v7.7357h2.1407ZM199.2186,158.6814h3.7973v2.0835c.7421-1.0556,2.255-2.3976,4.1964-2.3976.8852,0,1.513.0855,2.0269.2564l-.5422,3.1413c-.7426-.1432-1.1133-.171-1.9986-.171-1.5701,0-2.9976.9125-3.6825,1.7694v10.9048h-3.7973v-15.5868ZM209.7559,166.618c0-5.2526,3.1402-8.3362,7.7651-8.3362,5.1954,0,7.5936,3.0537,7.5936,8.193,0,5.368-3.3117,8.1375-7.8223,8.1375-4.8247,0-7.5365-3.028-7.5365-7.9943ZM221.2606,166.4748c0-2.6541-.7421-5.1671-3.8257-5.1671-3.0259,0-3.854,2.513-3.854,5.1949,0,2.8849.9424,5.0539,3.9111,5.0539,3.0264,0,3.7685-2.2545,3.7685-5.0816ZM229.2004,169.6161v-8.0221h-2.2839v-2.9126h2.2839v-3.1969h3.7685v3.1969h4.853v2.9126h-4.853v7.9922c0,1.5707.5139,1.7715,2.1984,1.7715.9702,0,2.8833-.3141,3.0259-.344l.4285,3.0259c-.8852.2863-2.3127.5428-3.3977.5428-2.9687,0-6.0235.0577-6.0235-4.9662ZM240.4509,166.7313c0-6.3659,3.2262-8.4217,7.6225-8.4217,4.5105,0,6.3376,2.9703,6.3376,7.8511v1.3698h-10.1633c0,3.4277,2.1412,3.9982,4.9107,3.9982,1.0845,0,2.9404-.3718,4.2247-.6283l.5999,2.9404c-1.2848.3996-3.3689.7714-5.5101.7714-4.9102,0-8.0221-1.7715-8.0221-7.881ZM250.4999,164.9897c.0288-2.3399-.9135-3.9683-2.7978-3.9683-1.9126,0-3.1974,1.3997-3.3684,3.9683h6.1661ZM256.8978,166.3894c0-4.9385,3.0831-8.1075,8.0509-8.1075,2.2267,0,3.6253.4274,4.7098,1.0001l-1.0279,2.825c-1.1133-.4274-1.9126-.6838-3.5687-.6838-2.3405,0-4.2814,1.3976-4.2814,4.9662,0,3.4554.9702,5.0816,4.9951,5.0816,1.2854,0,2.1701-.2287,3.1979-.3996l.5428,2.9404c-1.2565.2863-2.2844.5428-3.9971.5428-6.195,0-8.6215-2.3976-8.6215-8.1652ZM273.316,169.6161v-8.0221h-2.2844v-2.9126h2.2844v-3.1969h3.7685v3.1969h4.853v2.9126h-4.853v7.9922c0,1.5707.5139,1.7715,2.1978,1.7715.9712,0,2.8838-.3141,3.0259-.344l.4285,3.0259c-.8847.2863-2.3122.5428-3.3977.5428-2.9682,0-6.023.0577-6.023-4.9662ZM284.5659,166.7313c0-6.3659,3.2257-8.4217,7.6225-8.4217,4.5111,0,6.3382,2.9703,6.3382,7.8511v1.3698h-10.1633c0,3.4277,2.1412,3.9982,4.9096,3.9982,1.0856,0,2.9415-.3718,4.2258-.6283l.5994,2.9404c-1.2843.3996-3.3689.7714-5.5101.7714-4.9096,0-8.0221-1.7715-8.0221-7.881ZM294.6148,164.9897c.0288-2.3399-.9135-3.9683-2.7973-3.9683-1.9126,0-3.1979,1.3997-3.3689,3.9683h6.1661ZM301.0128,166.3317c0-5.3659,3.5975-8.0499,8.0509-8.0499,1.0845,0,1.7416.1133,2.4554.2564v-5.7954h3.7963v21.5254h-3.7963v-1.2565c-.7714.6582-1.8271,1.513-3.7119,1.513-2.9971,0-6.7944-1.3698-6.7944-8.193ZM311.5191,170.3577v-8.7358c-.5716-.1432-1.2854-.3141-2.3987-.3141-3.0825,0-4.3102,2.1989-4.3102,5.1094,0,3.7119,1.6273,4.9406,3.6542,4.9406,1.1133,0,2.3688-.6283,3.0548-1.0001ZM320.3724,170.4154h4.2824v3.8529h-4.2824v-3.8529Z"/>
    <g>
      <path class="c" d="M93.7866,129.2456c0-6.0693,3.5654-10.0157,9.8523-10.0157,3.4836,0,5.1437.7892,5.5789.9797l-.6257,1.7965c-.7892-.2452-2.2046-.8163-4.8991-.8163-4.0006,0-7.5659,2.177-7.5659,7.7835,0,5.7424,3.7012,8.1646,8.1104,8.1646,1.796,0,3.4836-.3811,4.5175-.7075l.5445,1.7965c-.735.2993-2.3405.8433-5.5519.8433-6.3415,0-9.9611-4.0823-9.9611-9.8247Z"/>
      <path class="c" d="M116.2166,138.7439h-1.0068l-4.8173-14.8601h2.3405l3.2385,10.6144.8168,2.6674.8709-2.6127,3.6742-10.669h2.2046l-7.2666,20.8477h-2.0958l2.0411-5.9876Z"/>
      <path class="c" d="M126.535,138.2541v-20.0309h2.15v6.2322c1.2249-.4623,2.6945-.8433,4.1099-.8433,3.8647,0,6.0417,2.531,6.0417,7.0761,0,6.2052-3.4019,8.301-7.1302,8.301-3.239,0-4.4909-.5445-5.1713-.735ZM128.685,126.1431v10.6956c.6804.1634,1.4971.354,3.1026.354,3.239,0,4.872-2.7486,4.872-6.0693,0-3.0479-.6804-5.797-4.2457-5.797-1.3066,0-2.7215.4628-3.7288.8168Z"/>
      <path class="c" d="M141.7255,131.5861c0-6.0146,2.9126-8.0834,6.6409-8.0834,3.6742,0,5.3618,2.5039,5.3618,7.4301v.7892h-9.8252c.0817,4.7356,2.4222,5.4977,5.4977,5.4977,1.0885,0,3.0209-.4352,3.6742-.6257l.3811,1.7689c-.4899.1905-2.2863.7075-4.7085.7075-4.2999,0-7.0219-1.796-7.0219-7.4842ZM151.469,130.1165c0-2.9938-1.0885-5.0079-3.429-5.0079-2.2317,0-3.8376,1.6877-4.1099,5.0079h7.5389Z"/>
      <path class="c" d="M157.5422,123.8838h2.15v1.987c.6533-1.1161,2.1504-2.3134,4.2457-2.3134.8709,0,1.4696.1634,1.7418.2452l-.3811,1.8231c-.4623-.1088-.8709-.1905-1.7418-.1905-1.796,0-3.1567,1.2795-3.8647,2.368v10.9408h-2.15v-14.8601Z"/>
      <path class="c" d="M167.0434,138.4175l.3811-1.7694c.9521.2181,2.4493.6262,3.783.6262,2.3134,0,3.7283-.898,3.7283-2.3134,0-3.4295-7.4842-2.2863-7.4842-7.3754,0-2.6674,2.177-4.0828,5.0891-4.0828,1.6059,0,3.0484.4628,3.5929.6262l-.3811,1.7147c-.6804-.1905-1.7965-.5445-3.4295-.5445-1.8777,0-2.7757.9797-2.7757,2.15,0,3.4295,7.4296,2.4769,7.4296,7.3213,0,3.4019-3.1297,4.2728-5.5789,4.2728-1.987,0-3.4836-.354-4.3545-.6257Z"/>
      <path class="c" d="M179.7836,131.5861c0-6.0146,2.9126-8.0834,6.6409-8.0834,3.6742,0,5.3618,2.5039,5.3618,7.4301v.7892h-9.8252c.0817,4.7356,2.4222,5.4977,5.4977,5.4977,1.0885,0,3.0209-.4352,3.6742-.6257l.3811,1.7689c-.4899.1905-2.2863.7075-4.7085.7075-4.2999,0-7.0219-1.796-7.0219-7.4842ZM189.5271,130.1165c0-2.9938-1.0885-5.0079-3.429-5.0079-2.2317,0-3.8376,1.6877-4.1099,5.0079h7.5389Z"/>
      <path class="c" d="M194.566,131.3139c0-4.8173,2.722-7.8111,6.9673-7.8111,2.0141,0,3.2936.4357,4.0552.8438l-.6528,1.6877c-.7897-.3269-1.7965-.735-3.4566-.735-2.8303,0-4.7085,2.15-4.7085,5.9329,0,4.0281,1.279,5.9058,5.5794,5.9058,1.1973,0,2.2863-.2993,2.8574-.3811l.354,1.7418c-.5445.1634-1.9053.4903-3.429.4903-5.2801,0-7.5664-2.2592-7.5664-7.6752Z"/>
      <path class="c" d="M209.048,133.355v-9.4712h2.15v9.036c0,2.3405.1634,4.1911,2.8579,4.1911,1.8777,0,4.0823-1.4425,4.7627-1.8506v-11.3765h2.0682v14.8601h-2.0682v-1.7418c-1.1702.735-2.9121,2.0682-5.3072,2.0682-4.164,0-4.4634-3.1567-4.4634-5.7153Z"/>
      <path class="c" d="M225.9261,123.8838h2.15v1.987c.6533-1.1161,2.1504-2.3134,4.2457-2.3134.8709,0,1.4696.1634,1.7418.2452l-.3811,1.8231c-.4623-.1088-.8709-.1905-1.7418-.1905-1.796,0-3.1567,1.2795-3.8647,2.368v10.9408h-2.15v-14.8601Z"/>
      <path class="c" d="M236.5434,123.8838h2.1775v14.8601h-2.1775v-14.8601ZM236.5705,118.0055h2.1504v2.5039h-2.1504v-2.5039Z"/>
      <path class="c" d="M244.3565,134.607v-8.8996h-2.1775v-1.8235h2.1775v-3.0479h2.0953v3.0479h4.6544v1.8235h-4.6268v8.8725c0,2.177.5987,2.5857,2.8303,2.5857.8438,0,2.0141-.2993,2.3405-.4086l.3811,1.7965c-.4899.1634-1.7147.4899-2.6398.4899-2.7762,0-5.0349-.0817-5.0349-4.4363Z"/>
      <path class="c" d="M258.8922,138.7439h-1.0068l-4.8173-14.8601h2.3405l3.2385,10.6144.8168,2.6674.8709-2.6127,3.6742-10.669h2.2046l-7.2666,20.8477h-2.0958l2.0411-5.9876Z"/>
    </g>
  </g>
</svg>