<svg xmlns="http://www.w3.org/2000/svg" id="Primary_on_Gray" viewBox="0 0 500 423.33"><defs><style>.cls-1{fill:#1e8194}.cls-2{fill:#202d38}</style></defs><g id="opt_12_" data-name="opt 12 $#@#$#$%"><path d="M174.31 187.06c-11.59 4.32-21 11.77-26.76 21a2.83 2.83 0 0 0 2.37 4.35h73.65a3 3 0 0 0 2.66-2 49.69 49.69 0 0 1 8.45-15.67 56.76 56.76 0 0 0-13.34-7.41 2.56 2.56 0 0 1-.78-4.26 34 34 0 1 0-45.51.6 2 2 0 0 1-.74 3.39zM271.11 179.36a65.73 65.73 0 0 0-24.66 15.16 55.7 55.7 0 0 0-5.1 5.93 47.09 47.09 0 0 0-4.91 8.14 2.76 2.76 0 0 0 2.56 3.86h115a2.82 2.82 0 0 0 2.49-4.1 49.84 49.84 0 0 0-9-13 65.39 65.39 0 0 0-25.38-16 2.1 2.1 0 0 1-.74-3.61 39.32 39.32 0 0 0 13.56-39 38.08 38.08 0 0 0-10.41-18.73c-8.26-8.34-16.29-11-24-11.75-.51 0-1 0-1.5-.08-1-.06-2-.12-2.95-.11-.54 0-1.07.06-1.6.08-.9 0-1.8.11-2.68.21-.57.07-1.12.17-1.68.26-.83.14-1.66.29-2.47.48-.56.13-1.11.27-1.66.43-.8.22-1.58.47-2.35.73l-1.58.58c-.78.31-1.54.65-2.29 1-.47.23-1 .44-1.42.69-.81.42-1.58.88-2.35 1.36-.38.23-.77.44-1.14.69-1 .67-2 1.39-2.92 2.14l-.33.25c-1 .86-2 1.78-3 2.73-.28.28-.52.58-.79.87-.65.7-1.29 1.4-1.89 2.15-.31.38-.6.8-.9 1.2-.5.68-1 1.37-1.46 2.08-.3.45-.57.92-.84 1.38-.42.7-.82 1.42-1.19 2.15q-.37.73-.72 1.5c-.34.74-.65 1.5-.95 2.26-.19.52-.39 1-.57 1.57-.27.81-.5 1.63-.71 2.45-.14.52-.29 1-.4 1.56-.2.91-.35 1.85-.48 2.79-.07.46-.16.9-.21 1.36a38 38 0 0 0-.25 4.29 39.15 39.15 0 0 0 14.59 30.52 2 2 0 0 1-.72 3.53z" class="cls-1"/><path d="M406.07 171.64a40.83 40.83 0 0 0-51.2-39.64 51.65 51.65 0 0 0-51.41-46.79 52.5 52.5 0 0 0-7 .53 59.69 59.69 0 0 0-104.29 17.1A54.33 54.33 0 0 0 150.56 127a44 44 0 1 0-15.17 86.06c4.31-12.38 14.32-23.41 27.12-30.31a42.73 42.73 0 0 1 35-67.38 44.47 44.47 0 0 1 9.09.94 42.76 42.76 0 0 1 25.89 66.44 64.34 64.34 0 0 1 8.07 5.26 72.81 72.81 0 0 1 18.24-13 48.06 48.06 0 0 1 37.74-77.71 50 50 0 0 1 10.3 1.08 48 48 0 0 1 27.47 76.69 71.65 71.65 0 0 1 19.48 14.2 61.28 61.28 0 0 1 13.85 23.2 40.92 40.92 0 0 0 38.43-40.83z" class="cls-1"/></g><g id="tag"><path id="DaaS_text" d="M64.84 341.17a17.22 17.22 0 0 1-.62 4.73 12.86 12.86 0 0 1-1.88 4 12.53 12.53 0 0 1-3.14 3.1 14.81 14.81 0 0 1-4.4 2 16.32 16.32 0 0 1-3.12.57c-1.12.11-2.33.16-3.63.16h-6.52v-28.82h6.58c1.31 0 2.52 0 3.64.16a18 18 0 0 1 3.12.57 15 15 0 0 1 4.39 2 12.07 12.07 0 0 1 3.12 3 12.37 12.37 0 0 1 1.85 3.89 17 17 0 0 1 .61 4.64zm-3.48 0a11.37 11.37 0 0 0-1.83-6.73 9.83 9.83 0 0 0-5.25-3.66 14.41 14.41 0 0 0-2.92-.56c-1.08-.1-2.29-.15-3.64-.15H45v22.45h2.68c1.35 0 2.56 0 3.64-.15a13.76 13.76 0 0 0 2.92-.56 9.57 9.57 0 0 0 5.25-3.76 12 12 0 0 0 1.87-6.88zm9.42-10.67v-3.72h3.33v3.72zm.09 25.18v-20.43h3.33v20.43zM92.07 338h-.26a12.76 12.76 0 0 0-2.32.22 9.35 9.35 0 0 0-2.14.66 8 8 0 0 0-1.81 1.08 6 6 0 0 0-1.34 1.53v14.23h-3.33v-20.47h2.58l.64 3.25h.07a7.62 7.62 0 0 1 1.21-1.5 8.55 8.55 0 0 1 1.63-1.19 8.64 8.64 0 0 1 2-.8 8.39 8.39 0 0 1 2.26-.29H92.1zm13.25 15.36a15.63 15.63 0 0 0 3-.27 18.09 18.09 0 0 0 2.72-.76v2.77a11 11 0 0 1-2.71.85 18.1 18.1 0 0 1-3.46.31 14.4 14.4 0 0 1-4.12-.56 8.47 8.47 0 0 1-3.33-1.8 8.37 8.37 0 0 1-2.21-3.26 13.21 13.21 0 0 1-.79-4.85 13.68 13.68 0 0 1 .77-4.85 10.12 10.12 0 0 1 2.06-3.43 8.37 8.37 0 0 1 3-2.07 9.24 9.24 0 0 1 3.5-.68 8.87 8.87 0 0 1 3.2.57 6.68 6.68 0 0 1 2.59 1.79 8.9 8.9 0 0 1 1.72 3.16 14.8 14.8 0 0 1 .64 4.65v1.27H97.75a8.25 8.25 0 0 0 .59 3.32 5.85 5.85 0 0 0 1.66 2.18 6.51 6.51 0 0 0 2.4 1.23 10.88 10.88 0 0 0 2.92.39zm-1.76-15.74a5.18 5.18 0 0 0-2.15.45 5.71 5.71 0 0 0-1.73 1.22 6.3 6.3 0 0 0-1.19 1.82 7 7 0 0 0-.57 2.23h10.45a7.42 7.42 0 0 0-.32-2.25 5.38 5.38 0 0 0-.92-1.82 4.41 4.41 0 0 0-1.5-1.21 4.57 4.57 0 0 0-2.07-.48zm22.75-2.86a12.55 12.55 0 0 1 2.84.31 8.63 8.63 0 0 1 2.32.87v2.77a19.24 19.24 0 0 0-2.5-.77 10.58 10.58 0 0 0-2.32-.26 7.8 7.8 0 0 0-2.47.41 5.78 5.78 0 0 0-2.2 1.34 6.93 6.93 0 0 0-1.56 2.48 10.78 10.78 0 0 0-.59 3.81 10.24 10.24 0 0 0 .44 3.06 7 7 0 0 0 1.32 2.42 6 6 0 0 0 2.18 1.59 7.51 7.51 0 0 0 3 .57 12.14 12.14 0 0 0 2.52-.27 14.38 14.38 0 0 0 2.47-.76v2.77a5.59 5.59 0 0 1-1 .43 11.3 11.3 0 0 1-1.3.38c-.47.1-1 .19-1.5.26a14.12 14.12 0 0 1-1.59.09 12.27 12.27 0 0 1-3.91-.62 8.68 8.68 0 0 1-5.38-5.18 12.58 12.58 0 0 1-.8-4.69 14.5 14.5 0 0 1 .42-3.64 10.89 10.89 0 0 1 1.15-2.84 8.8 8.8 0 0 1 1.71-2.08 9.84 9.84 0 0 1 2.09-1.41 9.44 9.44 0 0 1 2.35-.8 11.45 11.45 0 0 1 2.31-.28zm21.31 21a7.31 7.31 0 0 1-1.31.32 13.74 13.74 0 0 1-2.11.17 8.67 8.67 0 0 1-2.8-.4 5.13 5.13 0 0 1-2-1.14 4.56 4.56 0 0 1-1.18-1.79 7 7 0 0 1-.38-2.35v-12.46h-3.94v-2.86h3.94v-5.59h3.33v5.59h6.11v2.86h-6.11V350a4.23 4.23 0 0 0 .2 1.31 2.74 2.74 0 0 0 .65 1 2.84 2.84 0 0 0 1.13.69 4.77 4.77 0 0 0 1.65.25 11.37 11.37 0 0 0 2.78-.39zm22.73-10.24a13.26 13.26 0 0 1-.69 4.39 9.92 9.92 0 0 1-1.94 3.38 8.72 8.72 0 0 1-3.05 2.19 10 10 0 0 1-4 .77 10.26 10.26 0 0 1-4.07-.77 8.67 8.67 0 0 1-3.06-2.19 9.41 9.41 0 0 1-1.92-3.38 13.53 13.53 0 0 1-.67-4.39 13.34 13.34 0 0 1 .69-4.41 10.06 10.06 0 0 1 2-3.4 8.54 8.54 0 0 1 3-2.19 10 10 0 0 1 4-.77 10.19 10.19 0 0 1 4.07.77 8.54 8.54 0 0 1 3.05 2.19 9.82 9.82 0 0 1 1.91 3.4 13.61 13.61 0 0 1 .68 4.38zm-3.48 0a11.13 11.13 0 0 0-.47-3.36 7.47 7.47 0 0 0-1.29-2.5 5.42 5.42 0 0 0-2-1.55 6 6 0 0 0-2.5-.52 5.88 5.88 0 0 0-2.49.52 5.45 5.45 0 0 0-2 1.55 7.47 7.47 0 0 0-1.29 2.5 12.43 12.43 0 0 0 0 6.7 7.17 7.17 0 0 0 1.3 2.49 5.66 5.66 0 0 0 2 1.54 6.22 6.22 0 0 0 5 0 5.56 5.56 0 0 0 2-1.54 7.33 7.33 0 0 0 1.29-2.49 11 11 0 0 0 .45-3.37zm19.95-7.52h-.26a12.84 12.84 0 0 0-2.32.22 9.35 9.35 0 0 0-2.14.66 7.89 7.89 0 0 0-1.8 1.08 5.81 5.81 0 0 0-1.35 1.53v14.23h-3.33v-20.47h2.58l.64 3.25h.07a7.62 7.62 0 0 1 1.21-1.48 9 9 0 0 1 1.63-1.21 8.63 8.63 0 0 1 4.23-1.09H186.82zm3.15-2.71h3.33l6.35 16h.13l6.51-16h3.33L197 365.68h-3.31l4.37-10.4zM213 343.4h9.49v3.12H213zm27.25 10h-.09a6.64 6.64 0 0 1-1 1 7 7 0 0 1-1.44.9 8.92 8.92 0 0 1-1.78.64 9.18 9.18 0 0 1-2.07.23 8.17 8.17 0 0 1-2.72-.44 5.91 5.91 0 0 1-2.13-1.29 6 6 0 0 1-1.39-2.07 7.41 7.41 0 0 1-.49-2.78 6.43 6.43 0 0 1 .55-2.73 5.74 5.74 0 0 1 1.54-2 6.85 6.85 0 0 1 2.37-1.29 9.94 9.94 0 0 1 3.07-.45 16.71 16.71 0 0 1 2.94.27 15.72 15.72 0 0 1 2.41.65h.09v-1.42a9.22 9.22 0 0 0-.11-1.48 3.55 3.55 0 0 0-.37-1.14 4.27 4.27 0 0 0-1.78-1.71 6.88 6.88 0 0 0-3.31-.68 14.38 14.38 0 0 0-2.92.29 17.53 17.53 0 0 0-2.72.81v-2.8a9.14 9.14 0 0 1 1.22-.48 15 15 0 0 1 1.47-.39 15.69 15.69 0 0 1 1.64-.25c.57-.05 1.14-.08 1.72-.08a10.34 10.34 0 0 1 5.06 1.09 6.5 6.5 0 0 1 2.83 2.91 5.91 5.91 0 0 1 .46 1.51 10.35 10.35 0 0 1 .14 1.82v13.63h-2.79zm-.17-6.71c-.62-.18-1.34-.34-2.18-.5a17 17 0 0 0-2.79-.26 5.37 5.37 0 0 0-3.32.91 3.23 3.23 0 0 0-1.2 2.77 4.1 4.1 0 0 0 .31 1.66 3.09 3.09 0 0 0 .82 1.17 3.34 3.34 0 0 0 1.24.69 5.1 5.1 0 0 0 1.53.22 6.1 6.1 0 0 0 2-.31 8.55 8.55 0 0 0 1.64-.74 9.19 9.19 0 0 0 1.22-.86c.33-.29.58-.51.74-.67zm12.17-6a2.43 2.43 0 0 0 .36 1.37 2.66 2.66 0 0 0 1 .87 5.84 5.84 0 0 0 1.39.55c.53.14 1.07.27 1.63.39q1.15.25 2.19.57a6.71 6.71 0 0 1 1.9.93 4.62 4.62 0 0 1 1.41 1.69 6.89 6.89 0 0 1-.07 5.51 5.53 5.53 0 0 1-1.7 2 8 8 0 0 1-2.62 1.22 12.65 12.65 0 0 1-3.35.42 15.78 15.78 0 0 1-2-.12 13.72 13.72 0 0 1-1.61-.3 10.7 10.7 0 0 1-1.19-.37 7.42 7.42 0 0 1-.82-.37v-2.8a16.69 16.69 0 0 0 2.51.82 11.76 11.76 0 0 0 2.75.3 9.85 9.85 0 0 0 2.13-.21 5.4 5.4 0 0 0 1.64-.64 3 3 0 0 0 1-1 2.82 2.82 0 0 0 .37-1.47 2.64 2.64 0 0 0-.34-1.42 2.85 2.85 0 0 0-.9-.93 5.74 5.74 0 0 0-1.32-.6c-.5-.16-1-.3-1.58-.43-.71-.16-1.44-.34-2.18-.56a7.54 7.54 0 0 1-2-.9 4.45 4.45 0 0 1-1.46-1.58 5.18 5.18 0 0 1-.56-2.57 6.25 6.25 0 0 1 .58-2.8 5.38 5.38 0 0 1 1.57-2 6.75 6.75 0 0 1 2.3-1.17 10 10 0 0 1 2.77-.38 14.25 14.25 0 0 1 3.15.32 15.17 15.17 0 0 1 2.64.82v2.83a21.48 21.48 0 0 0-2.55-.8 11.74 11.74 0 0 0-2.66-.33 7.1 7.1 0 0 0-2 .23 3.82 3.82 0 0 0-1.34.66 2.52 2.52 0 0 0-.77 1 3.22 3.22 0 0 0-.25 1.26zM267 343.4h9.49v3.12H267zm27.25 10h-.08a7.21 7.21 0 0 1-1 1 6.79 6.79 0 0 1-1.44.9 8.7 8.7 0 0 1-1.73.7 9.18 9.18 0 0 1-2.07.23 8.17 8.17 0 0 1-2.72-.44 5.73 5.73 0 0 1-3.51-3.36 7.4 7.4 0 0 1-.5-2.78 6.43 6.43 0 0 1 .55-2.73 5.86 5.86 0 0 1 1.54-2 6.94 6.94 0 0 1 2.37-1.29 9.94 9.94 0 0 1 3.07-.45 16.71 16.71 0 0 1 2.94.27 15.72 15.72 0 0 1 2.41.65h.09v-1.42a9.22 9.22 0 0 0-.11-1.48 3.81 3.81 0 0 0-.36-1.14 4.36 4.36 0 0 0-1.79-1.71 6.88 6.88 0 0 0-3.31-.68 14.21 14.21 0 0 0-2.91.29 16.91 16.91 0 0 0-2.72.81v-2.8a9 9 0 0 1 1.21-.48q.71-.22 1.47-.39a16.11 16.11 0 0 1 1.64-.25c.57-.05 1.15-.08 1.72-.08a10.34 10.34 0 0 1 5.06 1.09 6.5 6.5 0 0 1 2.83 2.91 5.54 5.54 0 0 1 .46 1.51 10.35 10.35 0 0 1 .14 1.82v13.63h-2.79zm-.17-6.71c-.61-.18-1.34-.34-2.18-.5a16.87 16.87 0 0 0-2.79-.26 5.37 5.37 0 0 0-3.32.91 3.25 3.25 0 0 0-1.19 2.77 4.1 4.1 0 0 0 .3 1.66 3.21 3.21 0 0 0 .82 1.17 3.34 3.34 0 0 0 1.24.69 5.1 5.1 0 0 0 1.53.22 6.06 6.06 0 0 0 2-.31 8.28 8.28 0 0 0 1.64-.74 9.19 9.19 0 0 0 1.22-.86c.34-.29.58-.51.74-.67zm9.14-3.32h9.48v3.12h-9.48zm17.66-8.88a3.94 3.94 0 0 0 .51 2.1 4.2 4.2 0 0 0 1.38 1.37 8.72 8.72 0 0 0 2 .88c.76.23 1.56.44 2.39.64 1.11.28 2.21.58 3.29.91a10.55 10.55 0 0 1 2.89 1.36 6.67 6.67 0 0 1 2 2.27 7.2 7.2 0 0 1 .79 3.59 8.3 8.3 0 0 1-.85 3.86 7.53 7.53 0 0 1-2.34 2.67 10.78 10.78 0 0 1-3.54 1.55 19.09 19.09 0 0 1-4.48.5 18 18 0 0 1-2.29-.14c-.78-.09-1.52-.22-2.23-.37a17.54 17.54 0 0 1-1.93-.54 7.39 7.39 0 0 1-1.35-.6v-3.21a11.86 11.86 0 0 0 1.74.71 17.77 17.77 0 0 0 2 .55 21 21 0 0 0 2.14.41 15.75 15.75 0 0 0 2 .13 15.56 15.56 0 0 0 2.87-.25 7.65 7.65 0 0 0 2.4-.86 4.48 4.48 0 0 0 1.64-1.65 5.17 5.17 0 0 0 .6-2.61 4 4 0 0 0-.53-2.13 4.36 4.36 0 0 0-1.41-1.39 8.58 8.58 0 0 0-2-.89c-.77-.23-1.57-.44-2.42-.65-1.12-.25-2.21-.54-3.28-.87a10.32 10.32 0 0 1-2.86-1.34 6.44 6.44 0 0 1-2-2.22 7 7 0 0 1-.76-3.46A8.16 8.16 0 0 1 318 331a7.4 7.4 0 0 1 2.17-2.62 9.37 9.37 0 0 1 3.16-1.52 14.13 14.13 0 0 1 3.8-.5 20 20 0 0 1 4.29.44 21.41 21.41 0 0 1 3.65 1.15v3.25a24.54 24.54 0 0 0-3.67-1.2 17.67 17.67 0 0 0-4.08-.5 9.93 9.93 0 0 0-2.83.36 5.3 5.3 0 0 0-2 1 4 4 0 0 0-1.19 1.59 5.3 5.3 0 0 0-.38 2.07zm30.77 18.8a15.63 15.63 0 0 0 3-.27 18.09 18.09 0 0 0 2.72-.76v2.77a10.83 10.83 0 0 1-2.71.85 18 18 0 0 1-3.46.31 14.45 14.45 0 0 1-4.12-.56 8.13 8.13 0 0 1-5.54-5.06 13.21 13.21 0 0 1-.79-4.85 13.9 13.9 0 0 1 .77-4.85 10.28 10.28 0 0 1 2.06-3.43 8.37 8.37 0 0 1 3-2.07 9.28 9.28 0 0 1 3.5-.68 8.87 8.87 0 0 1 3.2.57 6.61 6.61 0 0 1 2.59 1.79 8.75 8.75 0 0 1 1.72 3.16 14.8 14.8 0 0 1 .64 4.65v1.27h-14.11a8.43 8.43 0 0 0 .59 3.32 6 6 0 0 0 1.61 2.22 6.59 6.59 0 0 0 2.4 1.23 10.88 10.88 0 0 0 2.97.42zm-1.76-15.74a5.1 5.1 0 0 0-2.14.45 5.64 5.64 0 0 0-1.74 1.22 6.3 6.3 0 0 0-1.19 1.82 7 7 0 0 0-.57 2.23h10.45a7.75 7.75 0 0 0-.31-2.25 5.4 5.4 0 0 0-.93-1.82A4.23 4.23 0 0 0 352 338a4.57 4.57 0 0 0-2.07-.42zm25.18.38h-.26a12.76 12.76 0 0 0-2.32.22 9.35 9.35 0 0 0-2.14.66 8 8 0 0 0-1.81 1.08 5.77 5.77 0 0 0-1.34 1.53v14.23h-3.3v-20.4h2.59l.64 3.25h.06a8.07 8.07 0 0 1 1.22-1.48 8.55 8.55 0 0 1 1.62-1.21 8.63 8.63 0 0 1 4.24-1.09H375.11zm12.62 14.35q.74-2.24 2-5.7l4.09-11.36h3.34l-7.73 20.43H386l-7.73-20.43h3.34l4.06 11.36q1.22 3.36 2 5.7zm13.58-21.81v-3.72h3.33v3.72zm.08 25.18v-20.4h3.34v20.43zm18.78-21a12.55 12.55 0 0 1 2.87.35 8.63 8.63 0 0 1 2.32.87v2.77a18.68 18.68 0 0 0-2.49-.77 10.74 10.74 0 0 0-2.33-.26 7.85 7.85 0 0 0-2.47.41 5.67 5.67 0 0 0-2.19 1.34 6.67 6.67 0 0 0-1.56 2.48 10.55 10.55 0 0 0-.59 3.81 9.93 9.93 0 0 0 .44 3.06 6.82 6.82 0 0 0 1.31 2.42 6 6 0 0 0 2.18 1.59 7.55 7.55 0 0 0 3 .57 12.14 12.14 0 0 0 2.52-.27 14.11 14.11 0 0 0 2.47-.76v2.77a5.82 5.82 0 0 1-.95.43 12.13 12.13 0 0 1-1.31.38c-.47.1-1 .19-1.5.26a14.12 14.12 0 0 1-1.59.09 12.27 12.27 0 0 1-3.91-.62 8.68 8.68 0 0 1-5.38-5.18 12.58 12.58 0 0 1-.8-4.69 14.5 14.5 0 0 1 .42-3.64 11.24 11.24 0 0 1 1.15-2.84 8.8 8.8 0 0 1 1.71-2.08 9.84 9.84 0 0 1 2.09-1.41 9.59 9.59 0 0 1 2.29-.8 11.53 11.53 0 0 1 2.34-.21zm20.24 18.6a15.63 15.63 0 0 0 3-.27 18.43 18.43 0 0 0 2.72-.76v2.77a11 11 0 0 1-2.71.85 18.1 18.1 0 0 1-3.46.31 14.4 14.4 0 0 1-4.12-.56 8.08 8.08 0 0 1-5.54-5.06 13.2 13.2 0 0 1-.8-4.85 13.67 13.67 0 0 1 .78-4.85 10.26 10.26 0 0 1 2.05-3.43 8.4 8.4 0 0 1 3-2.07 9.23 9.23 0 0 1 3.49-.68 8.88 8.88 0 0 1 3.21.57 6.58 6.58 0 0 1 2.58 1.79 8.76 8.76 0 0 1 1.73 3.16 15.11 15.11 0 0 1 .63 4.65v1.27h-14.1a8.25 8.25 0 0 0 .59 3.32 5.85 5.85 0 0 0 1.58 2.29 6.51 6.51 0 0 0 2.4 1.23 10.78 10.78 0 0 0 3.01.39zm-1.76-15.74a5.14 5.14 0 0 0-2.15.45 5.71 5.71 0 0 0-1.73 1.22 6.54 6.54 0 0 0-1.2 1.82 7.24 7.24 0 0 0-.56 2.23h10.45a7.74 7.74 0 0 0-.32-2.25 5.38 5.38 0 0 0-.92-1.82 4.35 4.35 0 0 0-1.51-1.21 4.49 4.49 0 0 0-2.02-.37z" class="cls-2" data-name="DaaS text"/><path d="M455.44 328a2.77 2.77 0 1 0 2.76 2.75 2.75 2.75 0 0 0-2.76-2.75zm0 4.94a2.19 2.19 0 1 1 2.05-2.17 2.08 2.08 0 0 1-2.03 2.15z" class="cls-2"/><path d="M456.56 331.49a.8.8 0 0 0-.49-.67.68.68 0 0 0 .55-.63.78.78 0 0 0-.26-.61 1.67 1.67 0 0 0-.93-.2 5.32 5.32 0 0 0-1 .09v2.74h.57v-1.1h.29c.35 0 .51.13.56.43a2.39 2.39 0 0 0 .21.67h.68a2 2 0 0 1-.18-.72zm-1.23-.87H455v-.79a1.27 1.27 0 0 1 .35 0c.39 0 .57.17.57.42s-.25.37-.59.37z" class="cls-2"/></g><path id="jumpcloud" d="M55.43 233.79h11.29v45.57a27.17 27.17 0 0 1-.44 5.23 14.28 14.28 0 0 1-1.28 3.85 12.73 12.73 0 0 1-2.9 3.75 15.64 15.64 0 0 1-4 2.53 19.71 19.71 0 0 1-4.75 1.43 31 31 0 0 1-5.25.44 31.6 31.6 0 0 1-5.46-.46 21.6 21.6 0 0 1-4.44-1.2v-9.63a22.47 22.47 0 0 0 4.33 1.29 22.91 22.91 0 0 0 4.56.46q4.38 0 6.36-2c1.32-1.36 2-3.35 2-6zm38.87 62.8a24.23 24.23 0 0 1-11.15-2.28 15.92 15.92 0 0 1-6.68-6.15 16.27 16.27 0 0 1-1.77-4.56 24.2 24.2 0 0 1-.58-5.53v-27.28H85v26.13a20.83 20.83 0 0 0 .32 3.89 10.22 10.22 0 0 0 1 2.83 7 7 0 0 0 3.13 3 10.94 10.94 0 0 0 4.84 1 10.79 10.79 0 0 0 5-1.1 7.08 7.08 0 0 0 3.15-3.37 13.9 13.9 0 0 0 1.06-6v-26.38h10.92v27.28a20.17 20.17 0 0 1-1.89 9.17 15.14 15.14 0 0 1-2.74 3.84 15.73 15.73 0 0 1-4 2.95 20.43 20.43 0 0 1-5.16 1.89 28.22 28.22 0 0 1-6.33.67zm85.2-28.34q0-1.42-.09-2.67a13.06 13.06 0 0 0-.32-2.16 6.1 6.1 0 0 0-2-3.28 6.56 6.56 0 0 0-4.15-1.29 11.06 11.06 0 0 0-3 .42 16.85 16.85 0 0 0-8.34 5.44v30.73h-10.85v-27.19q0-1.42-.09-2.67a13.06 13.06 0 0 0-.32-2.16 6.14 6.14 0 0 0-2-3.28 6.52 6.52 0 0 0-4.17-1.29 11.06 11.06 0 0 0-3 .42 16.85 16.85 0 0 0-8.34 5.44v30.73H122v-44.65h9l1 6.22h.19a16.72 16.72 0 0 1 2.44-2.72 17.35 17.35 0 0 1 3.34-2.35 19.7 19.7 0 0 1 4.1-1.63 17.37 17.37 0 0 1 4.73-.62 16.13 16.13 0 0 1 7.94 1.95 12.54 12.54 0 0 1 5.37 6.11h.19a21.41 21.41 0 0 1 2.87-3.27 17.5 17.5 0 0 1 3.53-2.54 19.1 19.1 0 0 1 4.17-1.66 18.78 18.78 0 0 1 4.77-.59 15.6 15.6 0 0 1 8 2 13.21 13.21 0 0 1 5 5.37 11.38 11.38 0 0 1 .78 1.91 16.43 16.43 0 0 1 .53 2.33 27.78 27.78 0 0 1 .3 2.85q.09 1.58.09 3.6v27.69H179.5zm40.57 28.34a15.82 15.82 0 0 1-6.52-1.31 16.21 16.21 0 0 1-4.86-3.25h-.19c0 .61.06 1.48.09 2.6s0 2.34 0 3.67v18.56h-10.87v-66.07h9.58l.47 5h.23a16.15 16.15 0 0 1 5.21-4.4 15.2 15.2 0 0 1 7.37-1.72 19.69 19.69 0 0 1 7.16 1.36 17.27 17.27 0 0 1 6.25 4.16 20.7 20.7 0 0 1 4.35 7.1 28.56 28.56 0 0 1 1.63 10.18 29.78 29.78 0 0 1-1.75 10.76 22.1 22.1 0 0 1-4.6 7.51 18.46 18.46 0 0 1-13.5 5.83zm-1.43-38.15a11.87 11.87 0 0 0-5.44 1.41 15.34 15.34 0 0 0-4.56 3.66v19.9a12.63 12.63 0 0 0 1.66 1.59 14.19 14.19 0 0 0 2.16 1.43 13.54 13.54 0 0 0 2.66 1.06 11.1 11.1 0 0 0 3 .41 9.29 9.29 0 0 0 4.52-1.08 9.16 9.16 0 0 0 3.29-3.06 15.45 15.45 0 0 0 2-4.73 27.66 27.66 0 0 0 0-12.41 13.28 13.28 0 0 0-2-4.52 8.8 8.8 0 0 0-3.16-2.72 9.11 9.11 0 0 0-4.13-.94zm59.77-19.12a27.87 27.87 0 0 0-9.68 1.64 21.39 21.39 0 0 0-7.82 4.88 22.84 22.84 0 0 0-5.22 8.06 30.17 30.17 0 0 0-1.92 11.22 30.94 30.94 0 0 0 1.78 11 19.63 19.63 0 0 0 12.89 12.28 33.55 33.55 0 0 0 10.24 1.47c1 0 2.11-.05 3.26-.16s2.31-.26 3.48-.46 2.3-.43 3.4-.69a27.71 27.71 0 0 0 3-.86v6.64a30.57 30.57 0 0 1-6.32 1.63 45.73 45.73 0 0 1-7.37.58 40.1 40.1 0 0 1-13.64-2.14 26.86 26.86 0 0 1-10-6.15 26 26 0 0 1-6.11-9.79 41.79 41.79 0 0 1 .12-26.34 29.25 29.25 0 0 1 6.31-10.36 28.6 28.6 0 0 1 10-6.75 34.27 34.27 0 0 1 13.2-2.42c1.29 0 2.56.05 3.82.16s2.47.26 3.62.46 2.22.44 3.2.71a20 20 0 0 1 2.54.88v6.63a50 50 0 0 0-6.11-1.54 36.55 36.55 0 0 0-6.67-.58zm22.47 56.12v-66.72H308v66.72zm55.83-21.84a28.56 28.56 0 0 1-1.47 9.4 21.25 21.25 0 0 1-4.17 7.26 18.44 18.44 0 0 1-6.52 4.67 21.27 21.27 0 0 1-8.57 1.66 21.75 21.75 0 0 1-8.73-1.66 18.25 18.25 0 0 1-6.54-4.67 20.86 20.86 0 0 1-4.13-7.26 29.39 29.39 0 0 1-1.43-9.4 28.74 28.74 0 0 1 1.48-9.45 21.44 21.44 0 0 1 4.17-7.28 18.42 18.42 0 0 1 6.54-4.7 21.57 21.57 0 0 1 8.59-1.65 22 22 0 0 1 8.71 1.65 18.15 18.15 0 0 1 6.54 4.7 21.16 21.16 0 0 1 4.11 7.28 29.57 29.57 0 0 1 1.42 9.45zm-7.46 0a24.08 24.08 0 0 0-1-7.21 16 16 0 0 0-2.75-5.39 11.81 11.81 0 0 0-4.22-3.31 13.21 13.21 0 0 0-10.69 0 11.81 11.81 0 0 0-4.22 3.31 16 16 0 0 0-2.76 5.35 26.57 26.57 0 0 0 0 14.37 15.5 15.5 0 0 0 2.79 5.33 11.93 11.93 0 0 0 4.24 3.29 12.59 12.59 0 0 0 5.34 1.13 12.43 12.43 0 0 0 5.32-1.13 11.89 11.89 0 0 0 4.2-3.29 15.81 15.81 0 0 0 2.76-5.33 23.88 23.88 0 0 0 .99-7.12zm32.21 23a23.46 23.46 0 0 1-6.13-.74 16.71 16.71 0 0 1-4.77-2.07 13.85 13.85 0 0 1-3.48-3.2 16.28 16.28 0 0 1-2.26-4.08 16.58 16.58 0 0 1-.92-3.64 32.12 32.12 0 0 1-.27-4.33v-26.87h7.14v26.81a16.54 16.54 0 0 0 1 6.09 9 9 0 0 0 3.57 4.35 11.4 11.4 0 0 0 6.29 1.59 11 11 0 0 0 6.52-1.75 9.66 9.66 0 0 0 3.52-4.7 17.29 17.29 0 0 0 .78-5.58v-26.81h7.14v26.91a31.34 31.34 0 0 1-.25 4.12 18.17 18.17 0 0 1-.81 3.52 15.91 15.91 0 0 1-2.27 4.17 14 14 0 0 1-3.58 3.3 17.23 17.23 0 0 1-4.9 2.14 23.83 23.83 0 0 1-6.32.76zm25-22.48a32.8 32.8 0 0 1 .9-8.09 25 25 0 0 1 2.38-6.15 16.93 16.93 0 0 1 3.45-4.4 20.38 20.38 0 0 1 4.1-2.88 17.17 17.17 0 0 1 4.31-1.59 19.28 19.28 0 0 1 4.13-.48 16.73 16.73 0 0 1 7 1.33 16.17 16.17 0 0 1 5.3 3.92h.14v-27.06h7.14v66.72h-5.39l-1.47-4.89h-.19a21.86 21.86 0 0 1-1.93 2.15 13.69 13.69 0 0 1-2.61 2 14.22 14.22 0 0 1-3.45 1.4 17.63 17.63 0 0 1-4.54.53 21.08 21.08 0 0 1-7.05-1.22 16.12 16.12 0 0 1-6.15-3.92 19.81 19.81 0 0 1-4.36-6.95 28.91 28.91 0 0 1-1.67-10.43zM414 274a25.54 25.54 0 0 0 .85 6.85 15.4 15.4 0 0 0 2.47 5.2 10.86 10.86 0 0 0 4 3.3 12.17 12.17 0 0 0 5.39 1.15 13.22 13.22 0 0 0 4.1-.6 14.45 14.45 0 0 0 3.29-1.52 14.69 14.69 0 0 0 2.49-2 14.17 14.17 0 0 0 1.64-1.91v-22.9A17.68 17.68 0 0 0 433 258a14.65 14.65 0 0 0-6.26-1.36 13.37 13.37 0 0 0-4.26.76 10.58 10.58 0 0 0-4.15 2.74 15.22 15.22 0 0 0-3.16 5.33A24.76 24.76 0 0 0 414 274zm47.57-42.52a4.5 4.5 0 1 1-4.48-4.46 4.44 4.44 0 0 1 4.45 4.47zm-7.87 0a3.38 3.38 0 1 0 3.39-3.56 3.43 3.43 0 0 0-3.42 3.57zm2.69 2.35h-1v-4.47a8.76 8.76 0 0 1 1.68-.14 2.67 2.67 0 0 1 1.52.33 1.26 1.26 0 0 1 .43 1 1.16 1.16 0 0 1-.91 1 1.31 1.31 0 0 1 .8 1.09 3.39 3.39 0 0 0 .32 1.12h-1.13a3.7 3.7 0 0 1-.35-1.09c-.08-.49-.35-.71-.91-.71h-.48zm0-2.54h.48c.56 0 1-.19 1-.65s-.29-.68-.93-.68a3 3 0 0 0-.56.05z" class="cls-2"/></svg>