<svg width="552" height="500" version="1.1" xmlns="http://www.w3.org/2000/svg" desc="Created with imagetracer.js version 1.2.6" ><path fill="rgb(0,0,0)" stroke="rgb(0,0,0)" stroke-width="1" opacity="0" d="M 0 0 L 552 0 L 552 500 L 0 500 L 0 0 Z M 323 20 L 322 29 L 332 33 L 337 41 L 335 46 Q 334 53 336 56 L 332 57 Q 327 55 328 59 L 320 64 Q 317 63 318 66 L 314 69 Q 315 71 312 70 Q 313 73 310 75 Q 311 77 308 76 L 305 86 L 305 92 L 307 98 L 313 101 Q 315 100 314 103 L 325 103 L 325 101 L 329 100 L 330 107 Q 329 109 332 108 L 335 117 L 345 123 Q 356 125 361 120 L 367 110 Q 366 106 369 107 L 370 100 L 375 101 Q 379 100 378 103 L 388 103 L 388 101 L 391 101 L 397 96 L 397 83 L 395 82 L 395 79 L 391 73 Q 392 70 390 71 L 384 65 L 376 59 Q 372 60 373 57 L 363 55 L 364 53 Q 365 45 362 42 L 365 36 L 374 29 L 377 29 L 376 26 Q 377 23 374 24 L 374 20 Q 371 19 372 23 L 366 25 L 363 29 L 360 31 L 356 37 Q 353 38 354 35 L 346 35 Q 346 38 343 37 L 340 32 L 338 30 L 336 28 L 329 23 Q 325 24 327 20 L 323 20 Z M 200 56 Q 201 60 198 59 L 193 69 Q 194 71 192 70 L 185 83 Q 186 85 184 84 L 179 92 Q 180 95 176 93 L 176 98 L 179 98 L 182 106 L 185 107 L 191 120 Q 190 122 193 121 L 197 129 L 197 133 L 194 140 L 191 141 L 185 153 Q 186 156 184 155 L 179 163 Q 180 166 176 164 L 176 169 L 179 169 L 182 177 L 185 178 L 186 183 L 191 190 Q 190 193 193 192 L 198 202 L 200 205 L 202 206 L 237 206 L 241 216 L 244 217 L 244 220 L 249 228 Q 248 230 251 229 L 256 240 L 257 241 L 297 241 L 301 233 Q 300 230 303 231 L 308 222 Q 307 219 310 220 L 310 218 L 315 210 L 318 206 L 354 206 L 358 196 L 361 194 Q 362 187 367 183 Q 366 179 369 180 L 374 171 Q 373 168 376 169 L 377 166 L 374 164 Q 374 158 369 155 Q 370 151 367 152 L 361 141 Q 362 138 359 139 L 354 129 L 354 127 L 318 127 Q 318 124 315 125 L 315 123 L 310 115 Q 311 112 308 113 L 303 103 Q 304 100 301 101 L 298 94 L 297 92 L 262 92 L 259 89 Q 260 85 258 86 L 251 75 Q 252 72 249 73 L 244 63 Q 245 60 243 61 L 241 58 L 240 56 L 200 56 Z M 130 59 L 123 62 Q 115 67 112 77 Q 110 90 115 97 Q 120 104 128 106 L 128 152 L 152 176 L 153 271 L 168 264 L 168 167 L 144 143 L 144 106 L 151 103 Q 157 98 160 90 Q 162 76 157 70 Q 151 57 130 59 Z M 418 59 L 411 62 Q 403 67 400 77 Q 398 90 403 97 Q 408 104 416 106 L 416 143 L 392 167 L 392 264 L 408 271 L 408 176 L 432 152 L 432 106 L 439 103 Q 445 98 448 90 Q 450 76 445 70 Q 439 57 418 59 Z M 66 91 L 59 94 Q 51 99 48 109 Q 46 122 51 129 Q 56 136 64 138 L 64 184 L 88 208 L 89 308 L 104 297 L 104 199 L 80 175 L 80 138 L 87 135 Q 93 130 96 122 Q 98 108 93 102 Q 87 89 66 91 Z M 482 91 L 475 94 Q 467 99 464 109 Q 462 122 467 129 Q 472 136 480 138 L 480 175 L 456 199 L 456 297 L 472 308 L 472 208 L 496 184 L 496 138 L 503 135 Q 509 130 512 122 Q 514 108 509 102 Q 503 89 482 91 Z M 222 264 L 193 271 L 149 288 Q 108 308 77 336 L 51 362 L 48 367 Q 46 377 51 381 Q 82 415 123 440 Q 146 455 175 465 L 200 473 L 222 478 L 226 478 L 203 462 Q 186 448 175 429 L 165 405 L 161 386 L 161 357 L 165 338 Q 173 312 189 294 Q 204 276 226 265 L 222 264 Z M 335 264 L 335 265 Q 348 271 358 280 Q 374 294 385 314 L 395 338 L 399 357 L 399 386 L 395 405 Q 387 431 371 449 Q 356 466 335 477 L 335 478 L 349 476 L 368 471 L 412 454 Q 452 434 484 406 L 509 381 L 512 376 Q 514 365 509 362 Q 476 325 433 299 Q 411 286 386 277 L 361 269 L 335 264 Z M 267 283 Q 239 288 222 304 Q 199 323 192 358 L 192 385 L 195 398 Q 201 416 213 430 Q 232 452 268 459 L 293 459 L 307 456 Q 325 450 339 438 Q 361 419 368 385 L 368 358 L 365 345 Q 359 326 347 313 Q 333 295 310 287 L 294 283 L 267 283 Z " /><path fill="rgb(0,0,0)" stroke="rgb(0,0,0)" stroke-width="1" opacity="0" d="M 347 42 L 352 42 Q 350.9 44.7 353.5 44 Q 358 45 357 51.5 L 354.5 55 L 345.5 56 Q 340.7 54.8 342 47.5 L 344.5 44 Q 348.3 45 347 42 Z " /><path fill="rgb(0,0,0)" stroke="rgb(0,0,0)" stroke-width="1" opacity="0" d="M 337.5 62 Q 344.4 61.3 347 64 L 348 69.5 L 347 74 Q 344 72.8 345 76.5 L 338.5 86 L 335.5 88 L 332.5 91 L 326 93 Q 327.4 96.7 321.5 95 L 317.5 96 L 314 95 Q 311.4 92.7 312 86.5 L 315 78 L 319 75.5 L 323.5 69 Q 328 69.5 328.5 66 L 332 66 Q 330.9 63.3 333.5 64 L 337.5 62 Z " /><path fill="rgb(0,0,0)" stroke="rgb(0,0,0)" stroke-width="1" opacity="0" d="M 358.5 62 L 364.5 62 L 371 64 Q 369.9 66.7 372.5 66 L 380 71.5 L 381.5 74 L 386 77.5 L 389 84.5 L 389 92.5 L 388 95 L 381.5 96 L 377 95 Q 378.3 91.7 373.5 93 L 365 87.5 L 361 81 Q 358.3 82.1 359 79.5 L 355 72.5 L 355 66.5 L 358.5 62 Z " /><path fill="rgb(0,0,0)" stroke="rgb(0,0,0)" stroke-width="1" opacity="0" d="M 203 64 L 236.5 64 L 237 65.5 Q 241.4 69.5 242 76 Q 244.7 74.9 244 77.5 L 249 85.5 L 249 88 Q 251.7 86.9 251 89.5 Q 254.9 91.1 254 97.5 L 251 101.5 L 251 104 Q 248.3 102.9 249 105.5 L 244 115 Q 241 113.8 242 117.5 L 237 127 L 204.5 127 L 202 124.5 L 200 118 L 197 116.5 L 192.5 107 Q 190.3 107.8 191 105.5 L 186 95.5 L 191 84 L 194 82.5 L 198 73 Q 201 74.3 200 70.5 Q 203.6 68.6 203 64 Z M 210 70 L 207 74 Q 208 76 206 75 L 200 85 Q 201 87 198 86 L 195 95 Q 197 98 202 97 Q 202 93 205 91 Q 204 88 207 89 L 211 80 L 213 78 L 230 78 L 230 70 L 210 70 Z " /><path fill="rgb(0,0,0)" stroke="rgb(0,0,0)" stroke-width="1" opacity="0" d="M 350.5 82 Q 353.5 81.2 352 85 Q 348.2 86.5 349 83.5 L 350.5 82 Z " /><path fill="rgb(0,0,0)" stroke="rgb(0,0,0)" stroke-width="1" opacity="0" d="M 341.5 92 Q 354.5 90.7 362 93 Q 361 96 364 95 L 364 97.5 L 363 100 L 358.5 99 L 339.5 99 L 336.5 100 L 335 97.5 L 340 94.5 L 341.5 92 Z " /><path fill="rgb(0,0,0)" stroke="rgb(0,0,0)" stroke-width="1" opacity="0" d="M 261.5 99 L 291.5 99 L 295 102.5 L 301.5 115 Q 304.1 114.2 303 117.5 L 308.5 127 Q 310.8 126.3 310 128.5 L 311 132.5 L 310 135 L 307 136.5 L 303 147 L 300 148.5 Q 297.9 157.9 291.5 163 L 261.5 163 L 260 161.5 L 259 157 L 256 155.5 L 251 144 Q 248.3 145.1 249 142.5 L 244 133 Q 240.3 134.2 242 129 Q 244.7 130.1 244 127.5 L 249.5 118 Q 252.1 118.8 251 115.5 L 257 104 L 260 102.5 L 261.5 99 Z M 267 106 L 267 113 L 284 113 L 285 117 L 288 118 L 293 128 Q 292 130 295 129 L 297 133 L 299 132 Q 298 129 301 130 L 301 128 L 295 118 Q 296 114 293 115 L 290 108 L 289 106 L 267 106 Z " /><path fill="rgb(0,0,0)" stroke="rgb(0,0,0)" stroke-width="1" opacity="0" d="M 343.5 106 Q 353.8 104.8 359 107 Q 359.1 111.9 355.5 114 L 352 115 Q 353.4 119 346.5 117 L 340 110.5 L 340 107 L 343.5 106 Z " /><path fill="rgb(0,0,0)" stroke="rgb(0,0,0)" stroke-width="1" opacity="0" d="M 203 135 L 236.5 135 L 237 136.5 L 242 144.5 L 242 147 Q 244.7 145.9 244 148.5 L 249 158 Q 252 156.8 251 160.5 Q 254.9 162.1 254 168.5 L 251 174 Q 248 172.8 249 176.5 L 244 186 Q 241.3 184.9 242 187.5 L 237 198 L 204.5 198 L 204 196.5 L 200 191.5 L 200 189 Q 197.3 190.1 198 187.5 L 192.5 178 Q 190.3 178.8 191 176.5 L 186 165.5 L 191 155 L 194 153.5 L 198 143 Q 200.7 144.1 200 141.5 Q 203.2 139.5 203 135 Z M 199 165 L 195 168 L 198 175 Q 197 177 200 176 L 204 186 L 207 187 L 208 190 L 209 191 L 230 191 L 230 184 L 213 184 L 207 176 Q 208 172 205 173 L 202 167 Q 203 163 199 165 Z " /><path fill="rgb(0,0,0)" stroke="rgb(0,0,0)" stroke-width="1" opacity="0" d="M 317 135 L 349.5 135 L 350 136.5 L 352.5 141 Q 354.8 140.3 354 142.5 L 364 158.5 L 367 164.5 L 367 168.5 L 361 180 L 358 181.5 L 354 192 L 351 193.5 L 349 198 L 317.5 198 L 317 195 Q 314.3 196.1 315 193.5 L 310 184 Q 307 185.3 308 181.5 L 302.5 172 Q 300.3 172.8 301 170.5 L 299 165.5 L 301 161 Q 303.7 162.1 303 159.5 L 308 149 Q 310.7 150.1 310 147.5 L 315 139.5 L 315 137 Q 318 138 317 135 Z M 321 143 L 318 149 L 315 150 L 310 162 Q 311 164 309 163 Q 306 164 307 169 L 310 170 Q 311 176 315 181 Q 314 184 317 183 L 321 190 L 322 191 L 344 191 L 344 184 L 326 184 L 325 181 L 323 181 L 317 170 Q 318 166 315 167 Q 314 164 317 165 L 323 154 L 323 151 Q 326 152 325 150 L 327 147 Q 324 148 325 145 L 321 143 Z " /><path fill="rgb(0,0,0)" stroke="rgb(0,0,0)" stroke-width="1" opacity="0" d="M 261.5 170 L 291.5 170 L 295 172 L 301.5 186 Q 303.8 185.3 303 187.5 L 308 195.5 L 308 198 Q 310.7 196.9 310 199.5 L 311 202.5 L 310 206 Q 307.3 204.9 308 207.5 L 303 217 L 300 218.5 L 295 231 L 291.5 233 L 261.5 233 L 259 228 L 256 226.5 L 251 215 Q 248.3 216.1 249 213.5 L 244 205.5 L 244 203 Q 240.7 204.1 242 200 Q 244.7 201.1 244 198.5 L 249 189 Q 251.7 190.1 251 187.5 L 257.5 176 Q 260.1 176.8 259 173.5 L 261.5 170 Z M 264 177 L 259 187 Q 260 189 257 188 L 257 191 L 251 201 L 252 206 L 257 214 Q 256 216 259 215 L 264 224 L 267 224 L 270 222 L 266 215 Q 267 212 264 213 L 264 211 L 259 203 L 264 193 Q 263 190 266 191 L 268 186 Q 269 183 274 184 L 274 177 L 264 177 Z M 281 177 L 281 184 L 288 184 L 288 177 L 281 177 Z " /><path fill="rgb(0,0,0)" stroke="rgb(0,0,0)" stroke-width="1" opacity="0" d="M 235.5 308 L 244.5 308 L 253 314.5 Q 256.5 318.5 255 327.5 L 248.5 336 Q 244.5 339.5 235.5 338 L 227 331.5 Q 223.5 327.5 225 318.5 L 231.5 310 L 235.5 308 Z " /><path fill="rgb(0,0,0)" stroke="rgb(0,0,0)" stroke-width="1" opacity="0" d="M 272.5 332 Q 286.2 330.3 294.5 334 Q 305.5 338.5 312 347.5 Q 317.1 353.9 319 363.5 L 319 378.5 Q 315.5 394 304.5 402 Q 294.5 412 272.5 410 Q 257 406.5 249 395.5 Q 239 385.5 241 363.5 Q 244.8 347.3 256.5 339 Q 262.9 333.9 272.5 332 Z " /><path fill="rgb(0,0,0)" stroke="rgb(0,0,0)" stroke-width="1" opacity="0" d="M 315.5 404 L 324.5 404 L 333 410.5 Q 336.5 414.5 335 423.5 L 328.5 432 Q 324.5 435.5 315.5 434 L 307 427.5 Q 303.5 423.5 305 414.5 L 311.5 406 L 315.5 404 Z " /><path fill="rgb(143,147,214)" stroke="rgb(143,147,214)" stroke-width="1" opacity="1" d="M 318 64 L 320 64.5 L 320 73.5 L 316.5 78 Q 313.9 77.2 315 80.5 L 313 82.5 L 312 90.5 L 314 95 L 320 96 L 320 103 L 314 103 Q 315.1 100.3 312.5 101 L 307 97.5 L 305 91.5 L 305 85.5 L 308 76 Q 310.7 77.1 310 74.5 Q 312.8 73.4 312 70 Q 314.7 71.1 314 68.5 L 318 65.5 L 318 64 Z " /><path fill="rgb(143,147,214)" stroke="rgb(143,147,214)" stroke-width="1" opacity="1" d="M 275 92 L 296.5 92 L 298 93.5 L 301 101 Q 303.7 99.9 303 102.5 L 308 113 Q 310.7 111.9 310 114.5 L 315 122.5 L 315 125 Q 318 124 317 127 L 320 127 L 320 135 L 317 135 Q 318 138 315 137 L 315 139.5 L 310 149 Q 307.3 147.9 308 150.5 L 303 161 Q 300.3 159.9 301 162.5 L 299 166.5 L 301 172 L 304 173.5 L 308 184 Q 310.7 182.9 310 185.5 L 315 195 Q 318.3 193.9 317 198 L 320 198 L 320 206 L 317 206 L 317 208 Q 314.3 206.9 315 209.5 L 310 217.5 L 310 220 Q 307.3 218.9 308 221.5 L 302.5 231 Q 300.3 230.3 301 232.5 L 297 241 L 275 241 L 275 233 L 291.5 233 L 295 231 L 301.5 217 Q 303.8 217.8 303 215.5 L 308 206 Q 311 207.3 310 203.5 L 311 200.5 L 310 198 Q 307 199.3 308 195.5 Q 303.4 192.2 303 186 L 300 184.5 L 295 172 L 291.5 170 L 275 170 L 275 163 L 291.5 163 L 295 159.5 L 301.5 147 Q 304.1 147.8 303 144.5 L 308.5 135 Q 310.8 135.8 310 133.5 L 311 129.5 L 310 127 L 307 125.5 L 303 115 L 300 113.5 Q 297.9 104.1 291.5 99 L 275 99 L 275 92 Z " /><path fill="rgb(143,147,214)" stroke="rgb(143,147,214)" stroke-width="1" opacity="1" d="M 275 106 L 288.5 106 L 290 107.5 L 293 115 Q 296 113.8 295 117.5 L 301 127.5 L 301 130 Q 298.3 128.9 299 131.5 L 296.5 133 L 295 129 Q 292.3 130.1 293 127.5 L 288 118 L 285 116.5 L 283.5 113 L 275 113 L 275 106 Z " /><path fill="rgb(143,147,214)" stroke="rgb(143,147,214)" stroke-width="1" opacity="1" d="M 319.5 144 L 320 158.5 L 317 165 Q 314 164 315 167 Q 318 165.8 317 169.5 L 320 173.5 L 320 186.5 L 318 185.5 L 316.5 183 Q 313.9 183.8 315 180.5 Q 310.8 176.5 310 170 L 307 168.5 Q 306 164 308.5 163 Q 310.8 163.8 310 161.5 L 315 150 L 318 148.5 L 319.5 144 Z " /><path fill="rgb(143,147,214)" stroke="rgb(143,147,214)" stroke-width="1" opacity="1" d="M 281 177 L 288 177 L 288 184 L 281 184 L 281 177 Z " /><path fill="rgb(143,147,214)" stroke="rgb(143,147,214)" stroke-width="1" opacity="1" d="M 275 283 Q 303.6 281.1 320 292.5 L 320 403.5 Q 320 404.5 315.5 404 L 307 410.5 Q 303.5 414.5 305 423.5 L 311.5 432 Q 314.5 434.8 320 434 L 320 449.5 L 318.5 451 L 298.5 458 L 275 459 L 275 410.5 L 275.5 410 L 287.5 410 Q 303 406.5 311 395.5 Q 321 385.5 319 363.5 Q 315.2 347.3 303.5 339 Q 293.8 330.5 275 332 L 275 283 Z " /><path fill="rgb(131,157,209)" stroke="rgb(131,157,209)" stroke-width="1" opacity="1" d="M 225 56 L 239.5 56 L 241 57.5 L 242.5 61 Q 244.8 60.3 244 62.5 L 249 73 Q 251.7 71.9 251 74.5 L 257.5 86 Q 260.1 85.2 259 88.5 L 261.5 92 L 275 92 L 275 99 L 261.5 99 L 260 100.5 L 258.5 104 Q 256.3 103.3 257 105.5 L 251 115.5 L 251 118 L 248 119.5 L 244 129 Q 240.3 127.8 242 133 Q 244.7 131.9 244 134.5 L 249 144 Q 252 142.8 251 146.5 L 257.5 157 Q 259.8 156.3 259 158.5 L 261.5 163 L 275 163 L 275 170 L 261.5 170 L 260 171.5 L 259 176 L 256 177.5 L 251 189 Q 248.3 187.9 249 190.5 Q 244.4 193.8 244 200 Q 240.7 198.9 242 203 Q 245 201.8 244 205.5 L 249 215 Q 251.7 213.9 251 216.5 L 257.5 228 Q 259.8 227.3 259 229.5 L 261.5 233 L 275 233 L 275 241 L 256.5 241 L 256 239.5 L 251 229 Q 248.3 230.1 249 227.5 L 244 219.5 L 244 217 L 241 215.5 L 237 206 L 225 206 L 225 198 L 236.5 198 L 237 196.5 L 242 186 Q 244.7 187.1 244 184.5 L 249 176.5 L 249 174 Q 251.7 175.1 251 172.5 Q 254.9 170.9 254 164.5 L 251 160.5 L 251 158 Q 248.3 159.1 249 156.5 L 244 147 Q 241 148.3 242 144.5 L 237 135 L 225 135 L 225 127 L 236.5 127 L 237 125.5 L 242 117.5 L 242 115 Q 244.7 116.1 244 113.5 L 249 104 Q 252 105.3 251 101.5 Q 254.9 99.9 254 93.5 L 251 88 Q 248 89.3 249 85.5 L 244 76 Q 241.3 77.1 242 74.5 L 237 64 L 225 64 L 225 56 Z " /><path fill="rgb(131,157,209)" stroke="rgb(131,157,209)" stroke-width="1" opacity="1" d="M 225 70 L 230 70 L 230 78 L 225 78 L 225 70 Z " /><path fill="rgb(131,157,209)" stroke="rgb(131,157,209)" stroke-width="1" opacity="1" d="M 267 106 L 275 106 L 275 113 L 267 113 L 267 106 Z " /><path fill="rgb(131,157,209)" stroke="rgb(131,157,209)" stroke-width="1" opacity="1" d="M 264 177 L 274 177 L 274 184 Q 269.4 182.8 268 185.5 L 266 191 Q 263.3 189.9 264 192.5 L 259 202.5 L 264 210.5 L 264 213 Q 266.7 211.9 266 214.5 L 270 222 L 266.5 224 L 263.5 224 L 259 215 Q 256.3 216.1 257 213.5 L 252 205.5 L 251 200.5 L 257 190.5 L 257 188 Q 259.7 189.1 259 186.5 L 264 177 Z " /><path fill="rgb(131,157,209)" stroke="rgb(131,157,209)" stroke-width="1" opacity="1" d="M 225 184 L 230 184 L 230 191 L 225 191 L 225 184 Z " /><path fill="rgb(131,157,209)" stroke="rgb(131,157,209)" stroke-width="1" opacity="1" d="M 266.5 283 L 274.5 283 L 275 283.5 L 275 332 Q 256.9 334.6 248 347.5 Q 242.9 353.9 241 363.5 L 241 378.5 Q 244.5 394 255.5 402 Q 262.9 408.9 275 410 L 275 458.5 L 274.5 459 L 267.5 459 L 245.5 453 Q 233.6 448.4 225 440.5 L 225.5 328 L 231.5 336 Q 235.5 339.5 244.5 338 L 253 331.5 Q 256.5 327.5 255 318.5 L 248.5 310 Q 244.5 306.5 235.5 308 L 227 314.5 L 225.5 318 L 225 301.5 Q 241.1 287.6 266.5 283 Z " /><path fill="rgb(152,139,218)" stroke="rgb(152,139,218)" stroke-width="1" opacity="1" d="M 372 20 L 374 20 L 374 24 Q 376.7 22.9 376 25.5 L 377 29 L 373.5 29 L 365 35.5 L 362 41.5 Q 364.9 45.1 364 52.5 L 363 55 L 373 57 Q 371.8 60 375.5 59 L 384 64.5 L 390 71.5 L 390 101 Q 386.9 100.3 387.5 103 L 378 103 Q 379.3 99.7 374.5 101 L 370 100 L 369 107 Q 366 105.8 367 109.5 L 360.5 120 Q 355.7 124.7 344.5 123 L 341 120.5 L 341.5 112 L 346.5 117 L 352 117 Q 350.9 114.3 353.5 115 L 358 111.5 L 359 107 Q 353.8 104.8 343.5 106 L 341 107 L 341 99 L 358.5 99 L 363 100 L 364 95 Q 361 96 362 93 L 358.5 93 L 357.5 92 L 341 92 L 341 82.5 Q 345.6 79.8 345 74 Q 348.3 75.3 347 70.5 L 348 67.5 L 347 64 L 341 62 L 341.5 34 L 343 37 Q 346.1 37.8 345.5 35 L 354 35 Q 353 38 356 37 L 359.5 31 L 363 28.5 L 365.5 25 L 372 23 L 372 20 Z M 347 42 Q 348 45 345 44 L 342 48 Q 341 55 346 56 L 355 55 L 357 52 Q 358 45 354 44 Q 351 45 352 42 L 347 42 Z M 359 62 L 355 67 L 355 73 L 359 80 Q 358 82 361 81 L 365 88 L 374 93 Q 378 92 377 95 L 382 96 L 388 95 L 389 93 L 389 85 L 386 78 L 382 74 L 380 72 L 373 66 Q 370 67 371 64 L 365 62 L 359 62 Z M 351 82 L 349 84 Q 348 86 352 85 Q 353 81 351 82 Z " /><path fill="rgb(152,139,218)" stroke="rgb(152,139,218)" stroke-width="1" opacity="1" d="M 341 127 L 353.5 127 L 354 128.5 L 359 139 Q 361.7 137.9 361 140.5 L 367 152 Q 370 150.8 369 154.5 Q 373.6 157.8 374 164 L 377 165.5 L 376 169 Q 373.3 167.9 374 170.5 L 369 180 Q 366 178.8 367 182.5 Q 362 186.8 361 194 L 358 195.5 L 354 206 L 341 206 L 341 198 L 348.5 198 L 349 196.5 L 352.5 192 Q 355.1 192.8 354 189.5 L 359.5 180 Q 361.8 180.8 361 178.5 L 367 168.5 L 367 164.5 L 356 147.5 L 354 141 L 351 139.5 L 350 135 L 341 135 L 341 127 Z " /><path fill="rgb(152,139,218)" stroke="rgb(152,139,218)" stroke-width="1" opacity="1" d="M 341 184 L 344 184 L 344 191 L 341 191 L 341 184 Z " /><path fill="rgb(152,139,218)" stroke="rgb(152,139,218)" stroke-width="1" opacity="1" d="M 341 265 Q 368 269.6 390 279 L 389.5 324 Q 378.4 297.1 357.5 280 L 341 269 L 341 265 Z " /><path fill="rgb(152,139,218)" stroke="rgb(152,139,218)" stroke-width="1" opacity="1" d="M 341.5 307 Q 356.4 320.6 364 341.5 L 368 357.5 L 368 384.5 Q 361.7 416.7 341.5 435 L 341.5 307 Z " /><path fill="rgb(152,139,218)" stroke="rgb(152,139,218)" stroke-width="1" opacity="1" d="M 389.5 418 L 390 463 Q 368 472.4 341 477 Q 340 473.2 342.5 472 Q 359.4 462.9 371 448.5 Q 382.6 435.6 389.5 418 Z " /><path fill="rgb(149,143,216)" stroke="rgb(149,143,216)" stroke-width="1" opacity="1" d="M 323 20 L 327 20 Q 325.5 23.7 328.5 23 L 336 27.5 L 337.5 30 L 340 31.5 L 341 33.5 L 341 62 L 332 64 Q 333.3 67.3 328.5 66 L 321 71.5 L 320.5 73 L 320 63.5 L 328 58.5 Q 327.1 55.5 331.5 57 L 336 56 Q 334 53 335 45.5 L 337 40.5 L 331.5 33 L 322 29 L 323 20 Z " /><path fill="rgb(149,143,216)" stroke="rgb(149,143,216)" stroke-width="1" opacity="1" d="M 340.5 84 L 341 92.5 L 338.5 96 L 335 97.5 L 336.5 100 L 341 99 L 340 110.5 L 341 111.5 L 341 120.5 L 338.5 119 L 335 116.5 L 332 108 Q 329.3 109.1 330 106.5 L 329 100 L 325 101 L 325 103 L 320 103 L 320 96.5 L 321.5 95 L 325.5 95 L 326 93 L 328.5 93 L 337 88 Q 335.9 85.3 338.5 86 L 340.5 84 Z " /><path fill="rgb(149,143,216)" stroke="rgb(149,143,216)" stroke-width="1" opacity="1" d="M 320 127 L 341 127 L 341 135 L 320 135 L 320 127 Z " /><path fill="rgb(149,143,216)" stroke="rgb(149,143,216)" stroke-width="1" opacity="1" d="M 320.5 143 L 325 145 Q 323.9 147.7 326.5 147 L 325 149.5 Q 325.7 152.1 323 151 L 323 153.5 L 320.5 157 L 320.5 143 Z " /><path fill="rgb(149,143,216)" stroke="rgb(149,143,216)" stroke-width="1" opacity="1" d="M 320.5 176 L 323 181 L 325 181 L 325.5 184 L 341 184 L 341 191 L 321.5 191 L 321 189.5 L 320 188.5 L 320.5 176 Z " /><path fill="rgb(149,143,216)" stroke="rgb(149,143,216)" stroke-width="1" opacity="1" d="M 320 198 L 341 198 L 341 206 L 320 206 L 320 198 Z " /><path fill="rgb(149,143,216)" stroke="rgb(149,143,216)" stroke-width="1" opacity="1" d="M 334.5 264 L 341 265 Q 342.5 268.8 339.5 268 L 334.5 265 L 334.5 264 Z " /><path fill="rgb(149,143,216)" stroke="rgb(149,143,216)" stroke-width="1" opacity="1" d="M 320.5 292 Q 332.4 297.6 341 306.5 L 341 435.5 L 338.5 438 L 320.5 450 L 320 434 Q 329.2 433.9 333 427.5 Q 336.5 423.5 335 414.5 L 328.5 406 Q 325.5 403.2 320 404 L 320.5 292 Z " /><path fill="rgb(149,143,216)" stroke="rgb(149,143,216)" stroke-width="1" opacity="1" d="M 339.5 474 Q 342.5 473.2 341 477 L 334.5 478 L 334.5 477 L 339.5 474 Z " /><path fill="rgb(108,175,199)" stroke="rgb(108,175,199)" stroke-width="1" opacity="1" d="M 129.5 59 Q 150.7 56.8 157 69.5 Q 161.9 76 160 89.5 Q 157.2 98.2 150.5 103 L 144 106 L 144 142.5 L 167 165.5 L 167 265 L 152.5 271 L 152 175.5 L 128 151.5 L 128 106 Q 119.8 103.5 115 96.5 Q 110 89.9 112 76.5 Q 114.8 66.8 122.5 62 L 129.5 59 Z " /><path fill="rgb(108,175,199)" stroke="rgb(108,175,199)" stroke-width="1" opacity="1" d="M 65.5 91 Q 86.7 88.8 93 101.5 Q 97.9 108 96 121.5 Q 93.2 130.2 86.5 135 L 80 138 L 80 174.5 L 104 198.5 L 104 296.5 L 88.5 308 L 88 207.5 L 64 183.5 L 64 138 Q 55.8 135.5 51 128.5 Q 46 121.9 48 108.5 Q 50.8 98.8 58.5 94 L 65.5 91 Z " /><path fill="rgb(108,175,199)" stroke="rgb(108,175,199)" stroke-width="1" opacity="1" d="M 164.5 281 L 167 281.5 L 167 333.5 L 165 337.5 L 161 356.5 L 161 385.5 L 165 404.5 L 167 408.5 L 167 461 Q 96.7 433.6 51 380.5 Q 46.3 376.7 48 366.5 L 51 361.5 L 76.5 336 Q 114 302 164.5 281 Z " /><path fill="rgb(122,164,205)" stroke="rgb(122,164,205)" stroke-width="1" opacity="1" d="M 200 56 L 224.5 56 L 225 56.5 L 225 64 L 203.5 64 L 203 66.5 L 200 70.5 L 200 73 Q 197.3 71.9 198 74.5 L 192.5 84 Q 190.3 83.3 191 85.5 L 186 96.5 L 191 107 L 194 108.5 L 198.5 118 Q 200.8 117.3 200 119.5 L 204.5 127 L 225 127 L 225 135 L 203.5 135 L 203 136.5 L 200 143 Q 197.3 141.9 198 144.5 L 192.5 155 Q 190.3 154.3 191 156.5 L 186 166.5 L 191 178 L 194 179.5 L 198 189 Q 201 187.8 200 191.5 L 204 198 L 225 198 L 225 206 L 201.5 206 L 200 204.5 L 198 201.5 L 193 192 Q 190 193.3 191 189.5 L 186 182.5 L 185 178 L 182 176.5 L 179 169 L 176 169 L 176 164 Q 179.7 165.5 179 162.5 L 183.5 155 Q 186.1 155.8 185 152.5 L 191 141 L 194 139.5 L 197 132.5 L 197 128.5 L 192.5 121 Q 190.3 121.8 191 119.5 L 184.5 107 L 182 105.5 L 179 98 L 176 98 L 176 93 Q 179.7 94.5 179 91.5 L 183.5 84 Q 185.8 84.8 185 82.5 L 191.5 70 Q 193.8 70.8 193 68.5 L 198 59 Q 201.3 60.1 200 56 Z " /><path fill="rgb(122,164,205)" stroke="rgb(122,164,205)" stroke-width="1" opacity="1" d="M 209.5 70 L 225 70 L 225 78 L 212.5 78 L 211 79.5 L 207 89 Q 204.3 87.9 205 90.5 Q 201.8 92.5 202 97 Q 197 97.8 195 94.5 L 198 86 Q 200.7 87.1 200 84.5 L 205.5 75 Q 207.8 75.8 207 73.5 L 209.5 70 Z " /><path fill="rgb(122,164,205)" stroke="rgb(122,164,205)" stroke-width="1" opacity="1" d="M 198.5 165 Q 202.9 163.5 202 166.5 L 205 173 Q 208 171.8 207 175.5 L 212.5 184 L 225 184 L 225 191 L 208.5 191 L 208 189.5 L 207 187 L 204 185.5 L 199.5 176 Q 197.3 176.8 198 174.5 L 195 167.5 L 198.5 165 Z " /><path fill="rgb(122,164,205)" stroke="rgb(122,164,205)" stroke-width="1" opacity="1" d="M 167.5 166 L 168 263.5 L 167 263.5 L 167.5 166 Z " /><path fill="rgb(122,164,205)" stroke="rgb(122,164,205)" stroke-width="1" opacity="1" d="M 221.5 264 Q 226.3 262.7 225 266 Q 203.4 275.6 189 293.5 Q 175 309 167.5 331 L 167 280 Q 191.5 269.8 221.5 264 Z " /><path fill="rgb(122,164,205)" stroke="rgb(122,164,205)" stroke-width="1" opacity="1" d="M 224.5 302 L 225 439.5 L 222.5 438 L 213 429.5 Q 201.3 416.2 195 397.5 L 192 384.5 L 192 357.5 Q 198.9 322.9 221.5 304 L 224.5 302 Z " /><path fill="rgb(122,164,205)" stroke="rgb(122,164,205)" stroke-width="1" opacity="1" d="M 167.5 411 Q 179 442.5 202.5 462 L 225 477.5 L 221.5 478 L 199.5 473 L 167 462 L 167.5 411 Z " /><path fill="rgb(167,127,224)" stroke="rgb(167,127,224)" stroke-width="1" opacity="1" d="M 417.5 59 Q 438.7 56.8 445 69.5 Q 449.9 76 448 89.5 Q 445.2 98.2 438.5 103 L 432 106 L 432 151.5 L 408 175.5 L 407.5 271 L 392 263.5 L 392 166.5 L 416 142.5 L 416 106 Q 407.8 103.5 403 96.5 Q 398 89.9 400 76.5 Q 402.8 66.8 410.5 62 L 417.5 59 Z " /><path fill="rgb(167,127,224)" stroke="rgb(167,127,224)" stroke-width="1" opacity="1" d="M 390.5 71 L 395 78.5 L 395 82 L 397 82.5 L 397 96 L 390.5 101 L 390.5 71 Z " /><path fill="rgb(167,127,224)" stroke="rgb(167,127,224)" stroke-width="1" opacity="1" d="M 481.5 91 Q 502.7 88.8 509 101.5 Q 513.9 108 512 121.5 Q 509.2 130.2 502.5 135 L 496 138 L 496 183.5 L 472 207.5 L 471.5 308 L 456 296.5 L 456 198.5 L 480 174.5 L 480 138 Q 471.8 135.5 467 128.5 Q 462 121.9 464 108.5 Q 466.8 98.8 474.5 94 L 481.5 91 Z " /><path fill="rgb(167,127,224)" stroke="rgb(167,127,224)" stroke-width="1" opacity="1" d="M 390.5 279 Q 462.2 307.8 509 361.5 Q 513.7 365.3 512 375.5 L 509 380.5 L 483.5 406 Q 444.2 441.7 390.5 463 L 390 416.5 L 395 404.5 L 399 385.5 L 399 356.5 L 395 337.5 L 390 325.5 L 390.5 279 Z " /></svg>