<?xml version="1.0" encoding="UTF-8"?>
<svg width="32px" height="32px" viewBox="0 0 32 32" version="1.1" xmlns="http://www.w3.org/2000/svg" xmlns:xlink="http://www.w3.org/1999/xlink">
    <!-- Generator: Sketch 52.6 (67491) - http://www.bohemiancoding.com/sketch -->
    <title>云审计-32px</title>
    <desc>Created with Sketch.</desc>
    <g id="云审计-32px" stroke="none" stroke-width="1" fill="none" fill-rule="evenodd">
        <rect id="Rectangle-Copy" fill="#0052D9" opacity="0" x="0" y="0" width="32" height="32"></rect>
        <g id="Group" transform="translate(1.000000, 3.000000)" fill="#0052D9">
            <polygon id="Path" points="14 10 8 10 8 12 14 12"></polygon>
            <polygon id="Path" points="8 8 14 8 14 6 8 6"></polygon>
            <polygon id="Path" points="8 16 14 16 14 14 8 14"></polygon>
            <polygon id="Path" points="23 18 8 18 8 20 23 20"></polygon>
            <polygon id="Path" stroke="#0052D9" points="21.2047124 10.7446233 17.647897 14.5301003 16.1239213 15.099445 16.5893194 13.5348143 20.1299035 9.749904"></polygon>
            <polygon id="Path" stroke="#0052D9" points="21.5069176 8.31146798 22.5617888 9.33014529 21.5431115 10.3850165 20.4882403 9.36633922"></polygon>
            <path d="M8.26194469,1.71 L7.26194469,-8.52651283e-14 C2.75556273,2.71366793 -1.14797061e-13,7.58963195 -1.15463195e-13,12.85 C-1.16129328e-13,18.110368 2.75556273,22.9863321 7.26194469,25.7 L8.26194469,23.99 C4.34529637,21.6440464 1.9463255,17.4154806 1.94194469,12.85 C1.94261144,12.1551442 1.99874684,11.4680927 2.1072593,10.794295 C2.7117171,7.04097219 4.94140139,3.6989048 8.26194469,1.71 Z" id="_复合路径_-path-copy"></path>
            <path d="M22,1.72 C25.9039605,4.07222177 28.2909185,8.29716553 28.2909185,12.855 C28.2909185,17.4128345 25.9039605,21.6377782 22,23.99 L23,25.7 C27.506382,22.9863321 30.2619447,18.110368 30.2619447,12.85 C30.2619447,7.58963195 27.506382,2.71366793 23,-9.05941988e-14 L22,1.72 Z" id="_复合路径_-path-copy-2"></path>
        </g>
    </g>
</svg>