<?xml version="1.0" encoding="UTF-8" standalone="no"?>
<!DOCTYPE svg PUBLIC "-//W3C//DTD SVG 1.1//EN" "http://www.w3.org/Graphics/SVG/1.1/DTD/svg11.dtd">
<svg width="100%" height="100%" viewBox="0 0 1080 1080" version="1.1"
  xmlns="http://www.w3.org/2000/svg"
  xmlns:xlink="http://www.w3.org/1999/xlink" xml:space="preserve"
  xmlns:serif="http://www.serif.com/" style="fill-rule:evenodd;clip-rule:evenodd;stroke-linejoin:round;stroke-miterlimit:2;">
  <style>
      @media (prefers-color-scheme: dark) {
         .bg { fill: #555 }
      }
  </style>
  <g transform="matrix(1.24666,0,0,1.24666,3.41222,-122.025)">
    <path d="M856.207,233.036L856.207,829.043C856.207,899.568 798.949,956.825 728.424,956.825L132.418,956.825C61.893,956.825 4.636,899.568 4.636,829.043L4.636,233.036C4.636,162.511 61.893,105.254 132.418,105.254L728.424,105.254C798.949,105.254 856.207,162.511 856.207,233.036Z" fill="#333333" class="bg" />
  </g>
  <g id="Path_22" transform="matrix(21.7999,0,0,21.7999,135.393,68.5764)">
    <path d="M32.03,14.57L37.12,14.57L24.75,0L12.37,14.57L17.5,14.57L17.5,30.8L20.17,30.8L12.37,39.98L4.57,30.8L7.24,30.8L7.24,14.59L5.13,14.59L5.13,28.68L0,28.68L12.37,43.25L23.09,30.63L32.03,30.63L32.03,14.57Z" style="fill:url(#_Linear1);fill-rule:nonzero;"/>
  </g>
  <defs>
    <linearGradient id="_Linear1" x1="0" y1="0" x2="1" y2="0" gradientUnits="userSpaceOnUse" gradientTransform="matrix(27.8029,-27.8097,27.8097,27.8029,5.15968,36.0272)">
      <stop offset="0" style="stop-color:rgb(255,157,0);stop-opacity:1"/>
      <stop offset="0.17" style="stop-color:rgb(255,157,0);stop-opacity:1"/>
      <stop offset="1" style="stop-color:rgb(255,60,0);stop-opacity:1"/>
    </linearGradient>
  </defs>
</svg>
