<?xml version="1.0" encoding="UTF-8"?>
<svg version="1.1" xmlns="http://www.w3.org/2000/svg" width="3332" height="2990">
<path d="M0 0 C1.44996292 -0.00416297 1.44996292 -0.00416297 2.92921803 -0.00841005 C3.98618819 -0.00637371 5.04315836 -0.00433737 6.13215793 -0.00223933 C7.2651293 -0.00401434 8.39810066 -0.00578935 9.5654045 -0.00761814 C12.72504101 -0.01154808 15.88464063 -0.01098162 19.04427751 -0.00856045 C22.48894463 -0.00702071 25.93360539 -0.01127298 29.3782704 -0.01478721 C35.44374965 -0.02016718 41.50922115 -0.02180347 47.57470261 -0.02103646 C56.65511669 -0.01990249 65.73552172 -0.02447753 74.81593376 -0.0301673 C90.28998089 -0.03968651 105.76402621 -0.04438769 121.23807598 -0.04647664 C136.92617245 -0.0486038 152.61426612 -0.05286044 168.30236126 -0.05971937 C169.29215138 -0.06014998 170.2819415 -0.06058059 171.30172525 -0.06102426 C175.33281027 -0.06278257 179.36389528 -0.06455221 183.39498028 -0.06633728 C232.28857359 -0.08794644 281.18216746 -0.09881742 330.07576446 -0.10781351 C345.9290756 -0.11074675 361.78238662 -0.11411654 377.63569761 -0.11778073 C378.75383833 -0.11803902 379.87197905 -0.11829731 381.02400282 -0.11856343 C385.547459 -0.11960963 390.07091518 -0.12065805 394.59437136 -0.12170925 C471.96977967 -0.13967457 549.3451882 -0.15505427 626.7205983 -0.16246828 C632.79943814 -0.16305225 638.87827797 -0.16364952 644.95711781 -0.1642459 C646.76590843 -0.16442308 646.76590843 -0.16442308 648.61124027 -0.16460384 C660.82849464 -0.16580124 673.04574902 -0.16700999 685.26300339 -0.16823637 C687.71261673 -0.1684816 690.16223007 -0.16872546 692.6118434 -0.16896794 C771.29081728 -0.1767583 849.96977624 -0.19914272 928.6487436 -0.23164436 C985.17472103 -0.25498692 1041.7006955 -0.27654029 1098.22667766 -0.28365068 C1099.38893122 -0.2837977 1100.55118479 -0.28394472 1101.74865815 -0.2840962 C1127.26197752 -0.28728088 1152.77529687 -0.28933187 1178.28861641 -0.29032374 C1188.5539612 -0.29073849 1198.81930598 -0.29129339 1209.08465076 -0.29188566 C1210.20814104 -0.29194632 1211.33163131 -0.29200699 1212.48916675 -0.2920695 C1248.69283486 -0.29408624 1284.89648538 -0.30833024 1321.10014735 -0.32883066 C1357.56288589 -0.34940457 1394.02560407 -0.35730937 1430.48834783 -0.34775289 C1435.5260265 -0.34643442 1440.5637052 -0.34525638 1445.60138393 -0.34416227 C1447.08268279 -0.34383249 1447.08268279 -0.34383249 1448.59390688 -0.34349606 C1464.236161 -0.34038069 1479.87837624 -0.35071233 1495.52062135 -0.36663782 C1510.89869521 -0.38201585 1526.27671523 -0.38314761 1541.65479095 -0.36908958 C1550.67225205 -0.36127473 1559.68954875 -0.36440576 1568.70699345 -0.38372674 C1574.69744072 -0.39546843 1580.68776797 -0.39267302 1586.67820875 -0.3781121 C1590.07314103 -0.37026554 1593.46749063 -0.37076231 1596.86244164 -0.38473114 C1618.96724527 -0.46976714 1637.15219978 1.05122707 1654.08153415 16.97031184 C1668.43168385 32.23289879 1671.26805974 49.91238631 1671.23751236 70.03643485 C1671.23885981 71.56653148 1671.24064415 73.09662778 1671.24282459 74.62672346 C1671.24755223 78.83808342 1671.24605365 83.04942176 1671.24354682 87.26078278 C1671.24191379 91.84047693 1671.2460546 96.42016644 1671.249456 100.99985911 C1671.25461186 109.02954515 1671.25602687 117.05922516 1671.25499988 125.08891268 C1671.25347625 137.03098255 1671.25763408 148.97304573 1671.26287451 160.9151143 C1671.27255484 183.49281899 1671.2753591 206.07052142 1671.27593157 228.64822794 C1671.27639114 246.09906053 1671.27844964 263.54989222 1671.28163219 281.00072451 C1671.28252977 286.02462059 1671.28341958 291.04851667 1671.28430707 296.07241275 C1671.28452812 297.32144374 1671.28474917 298.57047473 1671.28497691 299.85735514 C1671.29113378 335.00638594 1671.29508315 370.15541648 1671.29463363 405.30444785 C1671.29461786 406.64366935 1671.29460212 407.98289085 1671.29458643 409.32211235 C1671.29451305 415.36823035 1671.29442488 421.41434835 1671.29433254 427.46046635 C1671.29429142 430.15641365 1671.29425127 432.85236096 1671.29421123 435.54830827 C1671.29419083 436.89768248 1671.29416981 438.24705669 1671.29414817 439.5964309 C1671.29346912 482.19054386 1671.30076389 524.78464848 1671.31468845 567.3787591 C1671.33008373 614.49706297 1671.33865271 661.6153628 1671.33772523 708.73366954 C1671.3376506 713.76793933 1671.33760189 718.80220912 1671.33757091 723.83647891 C1671.33755926 725.07599484 1671.3375476 726.31551078 1671.3375356 727.5925878 C1671.33750493 747.47132495 1671.34386965 767.35005502 1671.35250318 787.22879007 C1671.3610184 807.25111428 1671.36193968 827.27342823 1671.35539386 847.29575325 C1671.3517226 859.16262537 1671.35345705 871.02946615 1671.3633362 882.89633489 C1671.36939923 890.85850657 1671.36797173 898.82065591 1671.3608657 906.78282663 C1671.35703634 911.29670393 1671.35605286 915.81052127 1671.36432305 920.324394 C1671.39597632 938.87119219 1671.10251776 957.36148852 1670.20280052 975.88866301 C1670.14291278 977.14196175 1670.14291278 977.14196175 1670.08181519 978.42057966 C1668.00320968 1020.95514587 1661.08631006 1062.76649796 1651.1088779 1104.12656184 C1650.95116916 1104.78144587 1650.79346042 1105.43632991 1650.63097263 1106.11105891 C1632.79967326 1179.76491861 1600.96011236 1250.62786884 1561.10301853 1314.90537043 C1559.23301222 1317.92604418 1557.3788952 1320.95575762 1555.5307529 1323.98984309 C1549.46378584 1333.923474 1543.19325093 1343.6595109 1536.48583103 1353.17294856 C1535.06727162 1355.1855926 1533.65793686 1357.20447806 1532.2495029 1359.22421809 C1521.31392167 1374.86129838 1510.02031673 1390.21829605 1498.1088779 1405.12656184 C1497.40247165 1406.01601496 1496.6960654 1406.90546809 1495.9682529 1407.82187434 C1487.99950769 1417.82986538 1479.85340762 1427.68305515 1471.55907322 1437.421972 C1470.09084752 1439.14775513 1468.62714258 1440.87730456 1467.1635654 1442.60703059 C1461.70410167 1449.03922927 1456.1481853 1455.35483113 1450.38060642 1461.51328059 C1447.82427768 1464.2457991 1445.32448151 1467.0144443 1442.87377048 1469.84238215 C1430.81044143 1483.64932885 1417.79760254 1496.59876711 1404.82420994 1509.5416009 C1402.08067881 1512.27970516 1399.34262359 1515.02320564 1396.60497165 1517.76718684 C1394.83576143 1519.53573721 1393.06624154 1521.30397786 1391.2963779 1523.07187434 C1390.49103611 1523.87924037 1389.68569431 1524.68660639 1388.85594822 1525.51843806 C1384.6384396 1529.71865003 1380.34128775 1533.75683249 1375.83055759 1537.64069148 C1373.79771897 1539.39510299 1371.83571566 1541.2136277 1369.8901279 1543.06406184 C1368.83245212 1544.0656634 1368.83245212 1544.0656634 1367.75340915 1545.08749934 C1367.04571384 1545.76038996 1366.33801853 1546.43328059 1365.6088779 1547.12656184 C1360.21411071 1552.25601262 1354.75129139 1557.270207 1349.1088779 1562.12656184 C1348.54861912 1562.60899348 1347.98836033 1563.09142512 1347.411124 1563.5884759 C1345.79173464 1564.97875708 1344.16952019 1566.36566472 1342.5463779 1567.75156184 C1338.84061086 1570.91904703 1335.1407627 1574.09240299 1331.4682529 1577.29843684 C1322.84638257 1584.82385772 1314.09009829 1592.16406607 1305.22313572 1599.39902278 C1303.15735827 1601.08694902 1301.09745459 1602.78180683 1299.0385654 1604.47812434 C1291.89934517 1610.34257712 1284.66555542 1616.03513988 1277.24486423 1621.53940364 C1272.17769254 1625.30241071 1267.19854852 1629.16715454 1262.2338779 1633.06406184 C1254.09168239 1639.43613881 1245.76494296 1645.51667485 1237.35008884 1651.52206965 C1234.37806007 1653.64975735 1231.4214544 1655.79837009 1228.46410251 1657.94638606 C1201.93798528 1677.1868954 1174.7486583 1695.52286399 1147.1088779 1713.12656184 C1146.42454685 1713.56484309 1145.7402158 1714.00312434 1145.03514744 1714.45468684 C1120.78203268 1729.98016915 1096.02124375 1744.68899172 1071.1088779 1759.12656184 C1070.51721836 1759.46965388 1069.92555881 1759.81274592 1069.31597019 1760.16623469 C1053.15158683 1769.53476296 1036.84751058 1778.61093008 1020.35545994 1787.39218684 C1017.13024721 1789.11514602 1013.91346796 1790.85291251 1010.69872165 1792.59531184 C983.57639218 1807.26837737 956.1956598 1821.59954116 928.25243259 1834.65048762 C924.49103886 1836.41667172 920.7414916 1838.20702924 916.9916904 1839.99765559 C895.85691131 1850.07537122 874.57058581 1859.76577452 853.1088779 1869.12656184 C852.45349033 1869.4131164 851.79810276 1869.69967097 851.12285496 1869.99490901 C846.93708027 1871.82464261 842.74430494 1873.63732649 838.5463779 1875.43906184 C837.53688083 1875.87718196 836.52738376 1876.31530207 835.48729587 1876.76669856 C826.67726251 1880.50532867 818.00639975 1883.55388513 808.3588779 1883.56406184 C807.14715915 1883.58339778 805.9354404 1883.60273371 804.6870029 1883.62265559 C790.92338233 1882.63678729 778.23975984 1876.45733486 765.8588779 1870.87656184 C764.04783694 1870.06928498 762.23647036 1869.26273824 760.42479587 1868.4568841 C755.84593362 1866.41586655 751.27397678 1864.3599039 746.7047031 1862.29752131 C744.2583102 1861.19396975 741.81037765 1860.09392492 739.36180759 1858.99521418 C719.42895926 1850.04369344 699.72330505 1840.66541426 680.10265232 1831.05080195 C674.83893621 1828.47465221 669.55256209 1825.9486116 664.25755955 1823.43735285 C649.35295137 1816.35992042 634.71250338 1808.79954452 620.1088779 1801.12656184 C619.4485355 1800.78006587 618.78819309 1800.4335699 618.10784031 1800.07657405 C601.22338101 1791.2158199 584.46452693 1782.18622138 567.91161228 1772.71689387 C564.99343941 1771.06105954 562.06151571 1769.4323209 559.1245029 1767.81015559 C545.37159723 1760.20594075 531.898107 1752.22971943 518.4995029 1744.02499934 C513.48629216 1740.95649294 508.44250412 1737.95145988 503.3588779 1735.00156184 C464.72183658 1712.48304082 427.5249466 1687.0584722 391.1088779 1661.12656184 C390.39505955 1660.61899348 389.68124119 1660.11142512 388.94579197 1659.5884759 C378.18710451 1651.92442214 367.63561059 1644.01345083 357.15184665 1635.97812434 C353.37699499 1633.08690033 349.57817302 1630.23129189 345.76024509 1627.39731379 C337.60024247 1621.33817709 329.69981183 1614.99872218 321.84667087 1608.54843684 C319.51206682 1606.63824661 317.15619797 1604.75547071 314.7963779 1602.87656184 C306.50272626 1596.25268032 298.33677165 1589.50068571 290.30126072 1582.56674739 C286.78707413 1579.54106924 283.22789884 1576.58960068 279.6088779 1573.68906184 C273.93574275 1569.08854308 268.64267652 1564.11765134 263.3198154 1559.12265559 C260.93528306 1556.88741451 258.5212573 1554.69955904 256.0463779 1552.56406184 C251.53138571 1548.66127198 247.16187471 1544.60240567 242.79027439 1540.54086848 C240.4957555 1538.41026279 238.1954537 1536.28632649 235.88841892 1534.16928645 C225.61419875 1524.70372408 215.71035964 1514.88149427 205.84471775 1504.99277278 C203.08886436 1502.231509 200.32763763 1499.47569824 197.56590915 1496.72031184 C195.78824432 1494.94198692 194.01088932 1493.1633522 192.2338779 1491.38437434 C191.0134177 1490.16695048 191.0134177 1490.16695048 189.76830173 1488.9249322 C185.54573604 1484.68512323 181.48295105 1480.36738974 177.57884861 1475.83234187 C175.89823685 1473.88213023 174.16076408 1471.9952191 172.3901279 1470.12656184 C171.76751072 1469.46656184 171.14489353 1468.80656184 170.50340915 1468.12656184 C169.87821384 1467.46656184 169.25301853 1466.80656184 168.6088779 1466.12656184 C163.65228536 1460.89403528 158.81675593 1455.58430577 154.1088779 1450.12656184 C153.61516697 1449.55502375 153.12145603 1448.98348567 152.61278415 1448.39462825 C151.19176052 1446.74536486 149.77446044 1445.09299708 148.3588779 1443.43906184 C147.84937595 1442.84383723 147.339874 1442.24861262 146.81493259 1441.6353509 C145.24521166 1439.79996997 143.67677088 1437.96350446 142.1088779 1436.12656184 C141.61774509 1435.55147883 141.12661228 1434.97639582 140.62059665 1434.38388606 C134.65845731 1427.39524631 128.79545869 1420.34248821 123.1088779 1413.12656184 C122.3251279 1412.13913996 121.5413779 1411.15171809 120.7338779 1410.13437434 C117.83965409 1406.48001801 114.97013484 1402.80677108 112.1088779 1399.12656184 C111.49947361 1398.3431341 110.89006931 1397.55970637 110.26219822 1396.7525384 C101.82886171 1385.87963323 93.7255995 1374.86629295 86.04247165 1363.45078059 C83.54040683 1359.73686647 80.94143746 1356.11486283 78.2963779 1352.50156184 C23.53664271 1276.76039219 -15.55609857 1187.70285688 -53.5786221 997.87656184 C-53.63956051 997.1706692 -53.70049893 996.46477656 -53.76328396 995.73749324 C-55.88518779 970.75392814 -56.04085447 945.75243456 -56.02579101 920.69903693 C-56.024136 916.08516763 -56.02831666 911.47130263 -56.03170019 906.85743477 C-56.03682039 898.79497274 -56.03827731 890.7325167 -56.03724407 882.6700532 C-56.03571141 870.68106977 -56.03989771 858.69209292 -56.0451187 846.70311078 C-56.05476097 824.04548986 -56.05760169 801.38787122 -56.05817576 778.73024849 C-56.05863602 761.23952756 -56.06069808 743.74880752 -56.06387638 726.25808688 C-56.06477395 721.21630253 -56.06566377 716.17451819 -56.06655126 711.13273384 C-56.06677231 709.87924458 -56.06699336 708.62575533 -56.0672211 707.33428155 C-56.07336952 672.10910041 -56.07732812 636.88391955 -56.07687782 601.65873786 C-56.07686205 600.31891845 -56.07684631 598.97909904 -56.07683062 597.63927963 C-56.07675724 591.59074749 -56.07666907 585.54221534 -56.07657673 579.4936832 C-56.07653561 576.79673183 -56.07649546 574.09978047 -56.07645542 571.4028291 C-56.07643502 570.05296486 -56.076414 568.70310063 -56.07639236 567.35323639 C-56.07571148 524.62883027 -56.08304351 481.90443243 -56.09693264 439.18002864 C-56.10043378 428.40439231 -56.10390329 417.62875597 -56.10719704 406.85311957 C-56.10750135 405.85781055 -56.10750135 405.85781055 -56.10781181 404.84239428 C-56.11869874 369.01777184 -56.12067421 333.19314897 -56.11996942 297.36852505 C-56.11989479 292.33082731 -56.11984608 287.29312958 -56.1198151 282.25543185 C-56.11980345 281.015068 -56.1197918 279.77470416 -56.11977979 278.49675352 C-56.11974901 258.53046826 -56.12613623 238.56418998 -56.13474737 218.59790679 C-56.14321609 198.54791349 -56.14421978 178.49793044 -56.13763805 158.44793634 C-56.13393834 146.5348873 -56.13578747 134.62186937 -56.14558039 122.70882362 C-56.15156817 114.75348922 -56.15029835 106.79817742 -56.14310989 98.84284407 C-56.13921849 94.30938553 -56.13848126 89.7759873 -56.14656724 85.24253295 C-56.15386448 81.11520623 -56.15188798 76.98798988 -56.14264337 72.86066801 C-56.14092782 71.38011733 -56.14253152 69.89955794 -56.14794458 68.41901616 C-56.20739772 50.98452607 -53.58708051 36.28141227 -42.8911221 22.12656184 C-42.41416897 21.46140559 -41.93721585 20.79624934 -41.4458096 20.11093684 C-31.99139008 8.04348681 -15.2856878 0.00559398 0 0 Z M102.1088779 158.12656184 C102.0676279 289.32218684 102.0263779 420.51781184 101.9838779 555.68906184 C101.9656699 597.12025569 101.94746189 638.55144953 101.92870212 681.2381341 C101.92201341 718.36440805 101.92201341 718.36440805 101.91799045 755.49068232 C101.91600396 773.11982208 101.90739043 790.74894643 101.89553105 808.37808187 C101.88358644 826.37835711 101.87921351 844.37862268 101.881988 862.37890173 C101.88341643 873.06424046 101.87950916 883.74954306 101.86726271 894.43487506 C101.85970516 901.5132641 101.85957809 908.59162943 101.86520722 915.67002018 C101.86819802 919.68680445 101.86824259 923.7035199 101.85911275 927.72029646 C101.80448804 953.25499375 102.51797784 978.77492123 105.8588779 1004.12656184 C106.02734226 1005.43012629 106.19580662 1006.73369075 106.36937595 1008.07675715 C113.55940365 1062.15747436 129.65965701 1115.28499542 152.92381931 1164.61240168 C153.77080101 1166.40931507 154.61085308 1168.20950135 155.44628025 1170.01181575 C162.19091927 1184.5577616 169.51074629 1198.62564069 177.57567478 1212.48203059 C179.00527444 1214.94786235 180.41286587 1217.4246027 181.8120029 1219.90781184 C192.80688438 1239.33278748 204.95872733 1258.09363712 218.1088779 1276.12656184 C218.65221775 1276.87566828 219.19555759 1277.62477473 219.75536228 1278.39658137 C233.99538811 1298.00706165 248.95319411 1316.98147131 264.66747165 1335.43076106 C266.11087406 1337.1289103 267.54769213 1338.83246377 268.9838779 1340.53671809 C274.79539037 1347.40619395 280.76885641 1354.08633314 286.94994236 1360.62607356 C290.08032485 1363.93873149 293.15075723 1367.29203583 296.17626072 1370.70102473 C301.12988734 1376.21058252 306.30646851 1381.46859402 311.55028415 1386.70078059 C312.52731215 1387.67848498 313.5041919 1388.65633753 314.48093296 1389.63432856 C316.51049082 1391.66534622 318.54180857 1393.69458172 320.57445408 1395.7225091 C323.15853691 1398.30088035 325.73808133 1400.88373814 328.3163221 1403.46794959 C330.32641447 1405.48168133 332.33891427 1407.49299364 334.35211635 1409.50361605 C335.76021867 1410.91074286 337.16633599 1412.31985518 338.57239414 1413.72902461 C343.04115823 1418.18162138 347.55429993 1422.51345745 352.35202671 1426.61125727 C355.52822191 1429.35076253 358.55697935 1432.2502978 361.6088779 1435.12656184 C366.6949165 1439.89312721 371.80614654 1444.60078745 377.1088779 1449.12656184 C378.15339043 1450.02471834 379.19763528 1450.92318618 380.2416904 1451.82187434 C383.25918591 1454.41692893 386.28299893 1457.00449278 389.3095615 1459.58896418 C390.4697005 1460.5803557 391.62894885 1461.57279088 392.78710056 1462.56650325 C399.38743558 1468.22932453 406.08188751 1473.73002489 412.94652439 1479.06992121 C416.753473 1482.03799682 420.47884533 1485.07956072 424.1713779 1488.18906184 C429.69802256 1492.82361031 435.36759254 1497.24513196 441.11083103 1501.60556575 C443.40171798 1503.34948384 445.68501776 1505.10310692 447.9682529 1506.85703059 C458.50179885 1514.93542595 469.13395119 1522.84460121 479.93358494 1530.56308528 C482.09399991 1532.11586839 484.24173026 1533.68468954 486.38622165 1535.25937434 C497.6057044 1543.48014227 509.11556107 1551.21383459 520.71922947 1558.87997981 C524.3348941 1561.27265626 527.93719706 1563.68509689 531.5385654 1566.09921809 C571.59232864 1592.93777924 612.72096343 1617.99308548 654.90282322 1641.34775325 C658.2343285 1643.19616533 661.55852673 1645.05728277 664.8823154 1646.91953059 C682.85339563 1656.96527505 701.07346151 1666.48179073 719.44267917 1675.7771966 C721.29340717 1676.71385147 723.14376357 1677.65124079 724.99382664 1678.58920832 C765.64129557 1700.39208188 765.64129557 1700.39208188 808.1088779 1718.12656184 C810.94352537 1717.14421283 810.94352537 1717.14421283 814.0854404 1715.58359309 C814.68778507 1715.2998936 815.29012974 1715.0161941 815.91072727 1714.72389765 C817.85626681 1713.80476119 819.79500731 1712.87217056 821.7338779 1711.93906184 C822.95350998 1711.36070135 824.1735595 1710.78322029 825.39403415 1710.20663996 C828.82069283 1708.58391276 832.23920716 1706.94457786 835.65669895 1705.30264826 C838.35370194 1704.00914209 841.05358449 1702.7217611 843.7536533 1701.43466731 C858.19110637 1694.54258934 872.54873971 1687.49979148 886.8576572 1680.34482356 C890.30316931 1678.62316831 893.75185279 1676.90798142 897.20067478 1675.19296809 C910.58137154 1668.51929288 923.78977531 1661.59924481 936.8725803 1654.35959407 C939.7907226 1652.75061166 942.7245353 1651.17362417 945.6635654 1649.60312434 C957.69615923 1643.15962506 969.5418161 1636.4526996 981.3041904 1629.52890559 C985.87508922 1626.83991848 990.47231295 1624.20239737 995.08714939 1621.5896966 C1012.95616672 1611.4726422 1030.40524737 1600.67130857 1047.72215915 1589.640722 C1050.13655029 1588.10900618 1052.55922375 1586.59118944 1054.9838779 1585.07578059 C1079.19439847 1569.88777113 1102.82952203 1553.70167224 1126.1088779 1537.12656184 C1126.8434824 1536.60513606 1127.57808689 1536.08371028 1128.33495212 1535.54648371 C1139.08126296 1527.90570436 1149.60578967 1519.99628377 1160.0698154 1511.97421809 C1163.82447966 1509.09828995 1167.60551394 1506.26204786 1171.40672947 1503.44809504 C1179.93837919 1497.12618101 1188.12240636 1490.43061721 1196.28172947 1483.63779231 C1198.61628178 1481.70688921 1200.98310429 1479.81892155 1203.3588779 1477.93906184 C1207.72456941 1474.47022716 1211.97680149 1470.87801577 1216.22093845 1467.26254817 C1219.665026 1464.33266972 1223.14962374 1461.46324855 1226.6713779 1458.62656184 C1231.74495284 1454.49965978 1236.54628932 1450.12553626 1241.33934665 1445.68124934 C1243.56806183 1443.62542462 1245.81655709 1441.61039227 1248.1088779 1439.62656184 C1252.41306381 1435.89035098 1256.60742427 1432.03709299 1260.79588962 1428.17246028 C1262.78189638 1426.3423775 1264.7765559 1424.52460906 1266.78246189 1422.71616145 C1277.01289037 1413.42904555 1286.7476787 1403.64082919 1296.50389744 1393.8619134 C1298.99809544 1391.36197972 1301.49681312 1388.86661903 1303.9968536 1386.3725297 C1305.95138799 1384.42163345 1307.90350449 1382.46833166 1309.85492969 1380.51432582 C1311.21553035 1379.15275179 1312.5781126 1377.79315883 1313.94075657 1376.43362971 C1318.33006317 1372.02782096 1322.58788643 1367.56794272 1326.63176609 1362.84178706 C1329.00122706 1360.0903642 1331.50003548 1357.46179355 1333.9838779 1354.81406184 C1338.51789484 1349.94550434 1342.79380572 1344.9332402 1346.9604404 1339.74374934 C1349.12399563 1337.10814571 1351.37277351 1334.58232809 1353.6713779 1332.06406184 C1358.0456086 1327.25165259 1362.09965455 1322.24456309 1366.1088779 1317.12656184 C1366.89520603 1316.13527278 1367.68153415 1315.14398371 1368.4916904 1314.12265559 C1380.37669332 1299.12265 1392.14816749 1284.02436914 1402.78465915 1268.10556575 C1404.15461461 1266.05820975 1405.53724998 1264.01982715 1406.9213779 1261.98203059 C1420.68625205 1241.63255042 1433.41311977 1220.73146071 1445.1088779 1199.12656184 C1445.6578574 1198.11513118 1446.20683689 1197.10370051 1446.77245212 1196.06162043 C1483.24500147 1128.47535579 1506.87013371 1052.90071419 1512.1088779 976.12656184 C1512.19238465 974.95025602 1512.2758914 973.7739502 1512.36192865 972.56199874 C1513.34706751 957.34820893 1513.24822753 942.1223755 1513.23114365 926.88487754 C1513.22767669 922.78863983 1513.23008983 918.69240461 1513.23172642 914.59616633 C1513.23379445 907.42628287 1513.23217367 900.25640777 1513.22809304 893.08652528 C1513.22196686 882.28688454 1513.22172525 871.48724881 1513.22255833 860.68760664 C1513.22379781 842.58540357 1513.2205178 824.48320414 1513.21445347 806.38100215 C1513.20626819 781.90438238 1513.20434969 757.42776882 1513.2034824 732.9511468 C1513.19823384 674.11378441 1513.1842727 615.27642305 1513.1713779 556.43906184 C1513.1507529 424.99593684 1513.1301279 293.55281184 1513.1088779 158.12656184 C1047.4788779 158.12656184 581.8488779 158.12656184 102.1088779 158.12656184 Z " fill="#2A82FA" transform="translate(858.8911220952868,149.8734381608665)"/>
<path d="M0 0 C1.44207477 -0.00313652 2.88414717 -0.00758552 4.32621437 -0.0132131 C8.26973654 -0.02483208 12.21303663 -0.017939 16.15655494 -0.00787924 C20.45412208 -0.00024088 24.75165624 -0.01006004 29.04921865 -0.01760924 C36.57496695 -0.02842771 44.10065065 -0.02812582 51.6264019 -0.02046776 C62.81753435 -0.00911087 74.00861239 -0.01492644 85.19974448 -0.02409268 C105.18816536 -0.0398852 125.17655747 -0.0385226 145.16498108 -0.02985594 C162.65719862 -0.02230885 180.14940562 -0.02033937 197.64162445 -0.02392387 C198.80198916 -0.02415303 199.96235387 -0.02438218 201.15788115 -0.02461828 C205.86819673 -0.0255523 210.5785123 -0.0265075 215.28882787 -0.02749758 C259.47389921 -0.03667428 303.65895223 -0.02835465 347.84402075 -0.01220688 C387.09857136 0.00202989 426.35309277 0.00075601 465.60764313 -0.01358986 C509.71197727 -0.02965425 553.81629522 -0.03602347 597.92063189 -0.02675307 C602.622358 -0.02579092 607.32408412 -0.0248524 612.02581024 -0.02392387 C613.76233362 -0.02356803 613.76233362 -0.02356803 615.53393827 -0.02320499 C633.01502854 -0.01979278 650.4961071 -0.02378302 667.97719574 -0.03136253 C687.85425158 -0.03993794 707.73127415 -0.03780086 727.60832584 -0.0215203 C738.73238266 -0.01270952 749.85636743 -0.0121392 760.98042239 -0.02345882 C768.41154394 -0.03018657 775.84260773 -0.02599818 783.27372073 -0.01294452 C787.5071837 -0.00581058 791.74050355 -0.00336308 795.97396201 -0.01416247 C799.83043042 -0.02389974 803.68662961 -0.01967003 807.54307865 -0.00462049 C809.57259269 -0.00020628 811.60212277 -0.01038717 813.63161236 -0.02128333 C831.07297141 0.08534432 846.66230362 5.01770183 859.33371735 17.37752342 C871.9374483 31.77315861 876.51515178 47.04163774 876.4623518 65.83667374 C876.46410484 66.64192671 876.46585787 67.44717968 876.46766403 68.27683425 C876.47229818 70.96226013 876.46986518 73.64763124 876.46743011 76.33305931 C876.46929945 78.28341278 876.47160064 80.23376588 876.47429544 82.18411839 C876.48040586 87.53476773 876.4802807 92.88540143 876.47910106 98.23605347 C876.47889684 104.01167224 876.4844183 109.78728601 876.48915863 115.56290245 C876.49746432 126.88123928 876.50021354 138.1995709 876.50077101 149.51791053 C876.50124672 158.73173696 876.50330424 167.94556169 876.50647163 177.15938759 C876.50736621 179.81611764 876.50825783 182.4728477 876.50914651 185.12957776 C876.50936756 185.79018508 876.50958861 186.4507924 876.50981635 187.13141813 C876.5159709 205.71511564 876.51991695 224.29881257 876.51947308 242.88251114 C876.5194575 243.58305869 876.51944192 244.28360624 876.51942587 245.00538251 C876.51934277 248.55558039 876.51924373 252.10577828 876.51914116 255.65597616 C876.51911124 256.71347504 876.51911124 256.71347504 876.51908072 257.79233754 C876.51904028 259.21802553 876.51899848 260.64371351 876.51895533 262.0694015 C876.51834421 284.19132113 876.5258187 306.31322538 876.53952789 328.43514061 C876.55494981 353.33067526 876.56349024 378.22619979 876.56256467 403.12173951 C876.56219608 416.28570105 876.56491426 429.44964601 876.57574272 442.61360359 C876.58491585 453.8369382 876.58696817 465.06024764 876.5802333 476.2835844 C876.57700054 481.99520207 876.5767913 487.70677166 876.58558655 493.41838455 C876.6145341 513.55875617 876.59961063 533.6696011 875.45915985 553.78331566 C875.42136279 554.46834903 875.38356572 555.1533824 875.34462329 555.85917436 C873.96153283 580.06240862 869.71884512 604.00729027 863.33371735 627.37752342 C863.04126129 628.45662987 862.74880524 629.53573631 862.44748688 630.64754295 C848.71597462 680.65234594 825.40880505 728.18091748 795.33371735 770.37752342 C794.83017731 771.09214745 794.32663727 771.80677147 793.80783844 772.54305077 C786.51157379 782.89607102 778.87539542 792.87461616 770.78684235 802.6201992 C768.69755813 805.14685709 766.64400466 807.70220249 764.58371735 810.25252342 C761.06703953 814.54853826 757.41537452 818.69816279 753.66965485 822.79549217 C751.75152541 824.91569879 749.86625133 827.05649154 747.98996735 829.21346092 C739.174727 839.30704072 729.85280507 848.94893786 720.39621735 858.44002342 C719.36875397 859.47437523 719.36875397 859.47437523 718.32053375 860.52962303 C714.42480209 864.41354945 710.42056426 868.1072934 706.25583649 871.70052147 C703.26989722 874.30568047 700.4033975 877.03386237 697.52121735 879.75252342 C692.52826451 884.42436243 687.42802978 888.87552657 682.0876236 893.15096092 C679.62182008 895.1445893 677.20780413 897.18778921 674.80466461 899.25618553 C667.21836285 905.77481136 659.31234949 911.83001826 651.33371735 917.85799217 C649.53182795 919.22700579 647.74196332 920.60936251 645.95871735 922.00252342 C605.40751133 953.63246411 560.68521591 980.32325472 515.33371735 1004.37752342 C514.27072418 1004.94326073 513.20773102 1005.50899803 512.11252594 1006.09187889 C495.75342099 1014.77395013 479.18451465 1022.86725741 462.30466461 1030.48579979 C460.21150639 1031.43281582 458.12107714 1032.3856792 456.03098297 1033.33943748 C452.27206989 1035.05327614 448.50696502 1036.75284834 444.73755646 1038.44347191 C443.28807956 1039.0952126 441.84015043 1039.75040937 440.39398956 1040.40947533 C421.00361217 1049.22950191 404.21377167 1053.311594 383.33371735 1046.37752342 C377.50903154 1044.1927913 371.86360325 1041.58787747 366.20871735 1039.00252342 C364.62870015 1038.28954379 363.04845534 1037.57706834 361.46799469 1036.86507225 C348.04672177 1030.7949326 334.75220401 1024.47104901 321.5407486 1017.95760155 C318.51793578 1016.46828634 315.48904978 1014.99208563 312.45871735 1013.51814842 C301.04442647 1007.93002687 289.95095115 1001.88676477 278.92746735 995.56502342 C274.54309816 993.0527678 270.12354195 990.61696078 265.67844391 988.21419334 C255.20913872 982.54797686 245.07524962 976.42766148 235.01340485 970.06892967 C232.32361702 968.37114815 229.62607755 966.68623843 226.92746735 965.00252342 C213.43257269 956.54375824 200.31727558 947.59946806 187.33371735 938.37752342 C186.4922818 937.77988182 185.65084625 937.18224022 184.78391266 936.56648827 C175.14357486 929.69953033 165.65585445 922.6705884 156.33371735 915.37752342 C155.18288268 914.48532927 154.03183502 913.59340979 152.88059235 912.70174217 C146.47204021 907.72134123 140.18102714 902.63117538 134.01291656 897.35555077 C130.70830835 894.52949245 127.35607613 891.77989949 123.95871735 889.06502342 C118.68545648 884.78001642 113.73989795 880.18448329 108.81076813 875.51302147 C105.78129275 872.64409432 102.72503618 869.83288358 99.56125641 867.11214256 C95.55810458 863.61849953 91.76713314 859.95609727 88.0173111 856.19392967 C87.357155 855.5347303 86.6969989 854.87553093 86.01683807 854.19635582 C84.63336229 852.81355507 83.25112651 851.42951267 81.8700943 850.04427147 C79.77640065 847.94521999 77.6774186 845.85156402 75.57785797 843.7583828 C74.22402164 842.40388556 72.87049559 841.04907811 71.5173111 839.69392967 C70.90044937 839.07909218 70.28358765 838.46425468 69.64803314 837.83078575 C65.89055294 834.05337569 62.32098489 830.15675822 58.84053802 826.1224575 C56.9205437 823.89905855 54.94076124 821.73312125 52.95871735 819.56502342 C48.22795642 814.31571366 43.76374683 808.88128397 39.33371735 803.37752342 C38.40833327 802.24438645 37.48253342 801.11158893 36.5563736 799.97908592 C16.84835083 775.76646598 -0.51836562 749.6614393 -15.66628265 722.37752342 C-16.21381195 721.39235741 -16.76134125 720.40719139 -17.32546234 719.39217186 C-52.22042009 655.9599727 -66.86614999 586.57496829 -66.79999542 514.55241966 C-66.80187032 512.57017939 -66.80417368 510.58793948 -66.80686074 508.60570014 C-66.81290037 503.2328066 -66.81285459 497.8599288 -66.81166637 492.48703265 C-66.81146038 486.66436388 -66.81699952 480.8416999 -66.82172394 475.01903343 C-66.82998536 463.64449207 -66.83277663 452.26995589 -66.83333632 440.89541177 C-66.83381316 431.64978989 -66.83587623 422.4041697 -66.83903694 413.15854836 C-66.83993152 410.48718218 -66.84082441 407.81581601 -66.84171182 405.14444983 C-66.84193287 404.48018654 -66.84215392 403.81592324 -66.84238166 403.13153075 C-66.84852328 384.48491303 -66.85248344 365.83829588 -66.85203838 347.19167709 C-66.8520228 346.49061609 -66.85200723 345.7895551 -66.85199118 345.06724982 C-66.85190808 341.5147518 -66.85180904 337.96225378 -66.85170647 334.40975575 C-66.85168652 333.70432997 -66.85166658 332.99890419 -66.85164603 332.27210188 C-66.85160559 330.84556957 -66.85156379 329.41903726 -66.85152064 327.99250496 C-66.85090706 305.76781057 -66.85843488 283.54313142 -66.8720932 261.31844139 C-66.88746246 236.29996217 -66.89605912 211.28149295 -66.89512998 186.26300871 C-66.89475996 173.0328871 -66.89753578 159.80278197 -66.90830803 146.57266426 C-66.91741221 135.32012772 -66.91958854 124.06761621 -66.91279861 112.81507759 C-66.90953443 107.07773477 -66.90947338 101.34043998 -66.91815186 95.60310173 C-66.92602093 90.34687511 -66.92458126 85.09073458 -66.91586772 79.83451004 C-66.91433378 77.93793936 -66.9161449 76.04136224 -66.9217278 74.14479916 C-66.98153374 52.37920396 -64.22794446 34.50402338 -49.66628265 17.37752342 C-35.35997171 3.92648107 -19.21581704 -0.10316807 0 0 Z M91.33371735 158.37752342 C91.29246735 220.62377342 91.25121735 282.87002342 91.20871735 347.00252342 C91.19050934 366.64090721 91.17230133 386.279291 91.15354156 406.51277733 C91.14685178 424.150396 91.14685178 424.150396 91.1428299 441.78801537 C91.14097021 449.63039419 91.13365671 457.47274428 91.12256622 465.31511497 C91.10977395 474.37436167 91.10405978 483.43358096 91.10682745 492.49283674 C91.10802468 497.12023699 91.1062179 501.7475761 91.09528708 506.37496495 C90.96721812 539.87711396 90.96721812 539.87711396 95.58371735 573.00252342 C95.91013214 574.56377953 95.91013214 574.56377953 96.24314117 576.15657616 C107.94988909 630.47937482 138.42084502 679.43363028 175.9548111 719.78767967 C177.22931378 721.17519245 178.49738696 722.56962973 179.71921539 724.00374413 C185.01373337 730.21304302 190.75404433 735.9494144 196.53073883 741.704916 C198.26765335 743.43647042 199.99915624 745.17330701 201.73020172 746.91072655 C207.42969652 752.61400139 213.17403853 758.16732325 219.33371735 763.37752342 C220.52573167 764.42222292 221.71584361 765.46909711 222.90402985 766.51814842 C231.16812121 773.76347382 239.59532485 780.71286565 248.33371735 787.37752342 C249.07218903 787.94197166 249.81066071 788.50641991 250.57151031 789.08797264 C290.14123619 819.25370712 332.31034698 845.40761264 376.45871735 868.31502342 C378.19979767 869.2192202 378.19979767 869.2192202 379.97605133 870.14168358 C382.25507417 871.31390087 384.54601841 872.46323385 386.84836578 873.5889492 C389.3346929 874.86485509 391.58355422 876.14867288 393.92063141 877.64656639 C400.22542669 881.50767652 400.22542669 881.50767652 407.40262604 882.08257103 C412.94658287 880.42644187 417.85247894 877.50837194 422.83371735 874.62752342 C424.42615842 873.76171315 426.02133069 872.90090842 427.61911774 872.04500389 C431.52870638 869.93360374 435.39844357 867.75972213 439.25736237 865.55733299 C442.17131031 863.90159315 445.10928701 862.29256032 448.0485611 860.68221092 C452.65008032 858.14069189 457.20551032 855.52886341 461.74533844 852.87898827 C464.3944471 851.34229535 467.05836449 849.83483027 469.7282486 848.33455467 C499.98032698 831.31055051 529.41931034 812.08635518 556.73020172 790.63387108 C558.39953681 789.32595415 560.07692136 788.02889968 561.75559235 786.73299217 C572.83228422 778.15036941 583.46350172 769.07870401 593.82761383 759.64827538 C595.40822122 758.21610496 596.99542569 756.79115067 598.59177399 755.37654686 C604.62521846 750.019921 610.41112699 744.45607519 616.10300446 738.73860741 C617.52709226 737.30912626 618.95649778 735.88511831 620.38645172 734.4615078 C625.58011581 729.26060515 630.55911418 723.96306439 635.33371735 718.37752342 C636.33116377 717.25545657 637.33111296 716.13560885 638.33371735 715.01814842 C658.1193541 692.76135545 675.69838847 667.86901952 689.33371735 641.37752342 C689.76458649 640.56154686 690.19545563 639.7455703 690.63938141 638.90486717 C701.59346557 618.02044503 709.67701035 595.31228706 714.39621735 572.19002342 C714.57588043 571.30975487 714.75554352 570.42948631 714.94065094 569.52254295 C718.91045465 547.77749874 718.61785257 525.72343344 718.5658628 503.71439341 C718.557026 499.00129133 718.56005875 494.28819279 718.56149864 489.57508469 C718.56255492 480.45777933 718.55338944 471.3405139 718.54049598 462.22321876 C718.52600986 451.66031067 718.5245018 441.09742604 718.52292633 430.53450584 C718.51245579 402.69050545 718.4845333 374.84651382 718.45871735 347.00252342 C718.41746735 284.75627342 718.37621735 222.51002342 718.33371735 158.37752342 C511.42371735 158.37752342 304.51371735 158.37752342 91.33371735 158.37752342 Z " fill="#FD2C24" transform="translate(1261.6662826538086,541.6224765777588)"/>
<path d="M0 0 C13.69194792 -0.09303738 27.38381955 -0.1639356 41.07602024 -0.20724869 C47.43515318 -0.22804592 53.79406846 -0.25621911 60.15307617 -0.30175781 C66.29986116 -0.34549689 72.44643791 -0.36919612 78.59336662 -0.37950897 C80.92830618 -0.38685021 83.26323547 -0.40118468 85.5980854 -0.42292023 C107.00554305 -0.6141229 124.62018967 1.46710873 140.97265625 16.84375 C155.32280594 32.10633696 158.15918184 49.78582448 158.12863445 69.90987301 C158.1299819 71.43996964 158.13176625 72.97006594 158.13394669 74.50016162 C158.13867433 78.71152158 158.13717575 82.92285992 158.13466892 87.13422095 C158.13303589 91.71391509 158.1371767 96.2936046 158.14057809 100.87329727 C158.14573395 108.90298331 158.14714896 116.93266332 158.14612198 124.96235085 C158.14459835 136.90442071 158.14875617 148.84648389 158.1539966 160.78855246 C158.16367693 183.36625715 158.16648119 205.94395958 158.16705366 228.5216661 C158.16751323 245.97249869 158.16957174 263.42333038 158.17275429 280.87416267 C158.17365187 285.89805875 158.17454168 290.92195483 158.17542917 295.94585091 C158.17565021 297.1948819 158.17587126 298.44391289 158.17609901 299.7307933 C158.18225587 334.87982411 158.18620524 370.02885464 158.18575573 405.17788601 C158.18573995 406.51710751 158.18572422 407.85632901 158.18570852 409.19555051 C158.18563514 415.24166851 158.18554697 421.28778651 158.18545464 427.33390451 C158.18541351 430.02985181 158.18537337 432.72579912 158.18533332 435.42174643 C158.18531293 436.77112064 158.18529191 438.12049485 158.18527026 439.46986906 C158.18459121 482.06398202 158.19188599 524.65808664 158.20581055 567.25219727 C158.22120583 614.37050113 158.22977481 661.48880097 158.22884732 708.6071077 C158.2287727 713.64137749 158.22872399 718.67564728 158.22869301 723.70991707 C158.22867553 725.56919097 158.22867553 725.56919097 158.22865769 727.46602596 C158.22862702 747.34476311 158.23499175 767.22349318 158.24362527 787.10222823 C158.2521405 807.12455244 158.25306177 827.14686639 158.24651595 847.16919141 C158.2428447 859.03606353 158.24457915 870.90290431 158.25445829 882.76977305 C158.26052132 890.73194473 158.25909383 898.69409407 158.25198779 906.65626479 C158.24815844 911.17014209 158.24717495 915.68395943 158.25544515 920.19783216 C158.28709841 938.74463035 157.99363985 957.23492668 157.09392262 975.76210117 C157.03403488 977.01539992 157.03403488 977.01539992 156.97293729 978.29401782 C154.89433178 1020.82858403 147.97743215 1062.63993612 138 1104 C137.76343689 1104.98232605 137.76343689 1104.98232605 137.52209473 1105.98449707 C119.69079536 1179.63835677 87.85123445 1250.501307 47.99414062 1314.77880859 C46.12413432 1317.79948234 44.2700173 1320.82919578 42.421875 1323.86328125 C36.35490793 1333.79691216 30.08437303 1343.53294906 23.37695312 1353.04638672 C21.95839372 1355.05903076 20.54905895 1357.07791622 19.140625 1359.09765625 C8.20504376 1374.73473654 -3.08856117 1390.09173421 -15 1405 C-15.70640625 1405.88945313 -16.4128125 1406.77890625 -17.140625 1407.6953125 C-25.10937022 1417.70330354 -33.25547028 1427.55649331 -41.54980469 1437.29541016 C-43.01803039 1439.02119329 -44.48173533 1440.75074272 -45.9453125 1442.48046875 C-51.40477623 1448.91266743 -56.96069261 1455.22826929 -62.72827148 1461.38671875 C-65.28460023 1464.11923726 -67.78439639 1466.88788246 -70.23510742 1469.71582031 C-82.29843647 1483.52276701 -95.31127536 1496.47220527 -108.28466797 1509.41503906 C-111.0281991 1512.15314332 -113.76625432 1514.8966438 -116.50390625 1517.640625 C-118.27311647 1519.40917537 -120.04263637 1521.17741602 -121.8125 1522.9453125 C-122.6178418 1523.75267853 -123.42318359 1524.56004456 -124.25292969 1525.39187622 C-128.47043831 1529.59208819 -132.76759016 1533.63027065 -137.27832031 1537.51412964 C-139.31115894 1539.26854115 -141.27316225 1541.08706586 -143.21875 1542.9375 C-143.92386719 1543.60523438 -144.62898438 1544.27296875 -145.35546875 1544.9609375 C-146.06316406 1545.63382813 -146.77085937 1546.30671875 -147.5 1547 C-152.8947672 1552.12945078 -158.35758652 1557.14364516 -164 1562 C-164.56025879 1562.48243164 -165.12051758 1562.96486328 -165.69775391 1563.46191406 C-167.31714327 1564.85219524 -168.93935772 1566.23910288 -170.5625 1567.625 C-174.26826704 1570.79248519 -177.9681152 1573.96584115 -181.640625 1577.171875 C-190.26249533 1584.69729588 -199.01877962 1592.03750423 -207.88574219 1599.27246094 C-209.95151964 1600.96038718 -212.01142331 1602.65524499 -214.0703125 1604.3515625 C-221.20953274 1610.21601528 -228.44332248 1615.90857804 -235.86401367 1621.4128418 C-240.93118536 1625.17584887 -245.91032938 1629.0405927 -250.875 1632.9375 C-259.01719552 1639.30957697 -267.34393495 1645.39011301 -275.75878906 1651.39550781 C-278.73081783 1653.52319551 -281.68742351 1655.67180825 -284.64477539 1657.81982422 C-311.17089263 1677.06033356 -338.36021961 1695.39630215 -366 1713 C-366.68433105 1713.43828125 -367.36866211 1713.8765625 -368.07373047 1714.328125 C-392.32684522 1729.85360731 -417.08763416 1744.56242988 -442 1759 C-442.59165955 1759.34309204 -443.18331909 1759.68618408 -443.79290771 1760.03967285 C-460.07706334 1769.47761855 -476.45522182 1778.73245343 -493.14501953 1787.43847656 C-496.03853358 1788.97545106 -496.03853358 1788.97545106 -498.83544922 1790.83496094 C-505.5556053 1795.05905905 -505.5556053 1795.05905905 -509.41821289 1794.90112305 C-512.07927215 1794.14706129 -514.47921375 1793.13899162 -517 1792 C-519.20724939 1791.14173836 -521.41567084 1790.28648738 -523.625 1789.43359375 C-525.44643278 1788.69688858 -527.26781554 1787.96004366 -529.0869751 1787.21774292 C-532.40548076 1785.86426313 -535.7302648 1784.52636582 -539.0546875 1783.1875 C-540.06328323 1782.78083351 -540.06328323 1782.78083351 -541.09225464 1782.36595154 C-547.41113572 1779.82333479 -553.76232822 1777.36836565 -560.125 1774.9375 C-568.78738244 1771.62442637 -577.43329259 1768.27358785 -586.0625 1764.875 C-597.21596985 1760.48417319 -608.37504748 1756.10793098 -619.54000854 1751.74639893 C-621.3172896 1751.05194618 -623.09441507 1750.35709509 -624.87136841 1749.6618042 C-639.19046884 1744.05948489 -653.56141502 1738.6228841 -667.99487305 1733.32177734 C-680.41724745 1728.75457722 -692.74644486 1724.00202137 -705 1719 C-705 1718.34 -705 1717.68 -705 1717 C-704.22213135 1716.63874023 -703.4442627 1716.27748047 -702.64282227 1715.90527344 C-699.61326973 1714.49733754 -696.58439955 1713.08795072 -693.5559082 1711.67773438 C-692.27197837 1711.08019202 -690.98781659 1710.48314766 -689.70336914 1709.88671875 C-668.39360391 1699.99017569 -647.26574384 1689.72627108 -626.2512207 1679.21826172 C-622.8057086 1677.49660647 -619.35702511 1675.78141958 -615.90820312 1674.06640625 C-602.52750637 1667.39273104 -589.3191026 1660.47268297 -576.23629761 1653.23303223 C-573.3181553 1651.62404982 -570.3843426 1650.04706233 -567.4453125 1648.4765625 C-555.41271868 1642.03306322 -543.5670618 1635.32613776 -531.8046875 1628.40234375 C-527.23378869 1625.71335664 -522.63656496 1623.07583553 -518.02172852 1620.46313477 C-500.15271118 1610.34608036 -482.70363053 1599.54474673 -465.38671875 1588.51416016 C-462.97232761 1586.98244434 -460.54965416 1585.4646276 -458.125 1583.94921875 C-433.91447944 1568.76120929 -410.27935588 1552.5751104 -387 1536 C-385.89809326 1535.21786133 -385.89809326 1535.21786133 -384.77392578 1534.41992188 C-374.02761494 1526.77914252 -363.50308824 1518.86972193 -353.0390625 1510.84765625 C-349.28439824 1507.97172811 -345.50336397 1505.13548602 -341.70214844 1502.3215332 C-333.17049872 1495.99961917 -324.98647154 1489.30405537 -316.82714844 1482.51123047 C-314.49259613 1480.58032737 -312.12577362 1478.69235971 -309.75 1476.8125 C-305.38430849 1473.34366532 -301.13207642 1469.75145393 -296.88793945 1466.13598633 C-293.4438519 1463.20610788 -289.95925417 1460.33668671 -286.4375 1457.5 C-281.36392507 1453.37309794 -276.56258858 1448.99897442 -271.76953125 1444.5546875 C-269.54081607 1442.49886278 -267.29232081 1440.48383043 -265 1438.5 C-260.69651114 1434.76439421 -256.50281957 1430.91176037 -252.31494141 1427.04785156 C-250.32218682 1425.21157352 -248.32089994 1423.38731288 -246.30883789 1421.57202148 C-236.23537891 1412.42292398 -226.64111738 1402.79440121 -217.03222656 1393.16259766 C-214.59856297 1390.72319743 -212.16037891 1388.28837231 -209.72087288 1385.85481644 C-207.35574028 1383.4941942 -204.99445425 1381.12973962 -202.6328125 1378.765625 C-201.7691507 1377.90398743 -200.90548889 1377.04234985 -200.01565552 1376.15460205 C-195.6798556 1371.80210238 -191.48076809 1367.3905534 -187.48480225 1362.72291565 C-185.11199736 1359.96959097 -182.61132735 1357.3378806 -180.125 1354.6875 C-175.59098306 1349.8189425 -171.31507219 1344.80667836 -167.1484375 1339.6171875 C-164.98488228 1336.98158387 -162.7361044 1334.45576625 -160.4375 1331.9375 C-156.0632693 1327.12509075 -152.00922336 1322.11800125 -148 1317 C-147.21367187 1316.00871094 -146.42734375 1315.01742188 -145.6171875 1313.99609375 C-133.73218458 1298.99608816 -121.96071041 1283.8978073 -111.32421875 1267.97900391 C-109.9542633 1265.93164791 -108.57162793 1263.89326531 -107.1875 1261.85546875 C-93.42262585 1241.50598858 -80.69575814 1220.60489888 -69 1199 C-68.45102051 1197.98856934 -67.90204102 1196.97713867 -67.33642578 1195.93505859 C-24.94241917 1117.37590654 -0.79471368 1029.13774686 -0.8613348 939.71626759 C-0.8588788 938.06202787 -0.85599244 936.40778875 -0.85272202 934.75355044 C-0.84504016 930.24907065 -0.84338431 925.74460664 -0.8427946 921.2401211 C-0.84105121 916.32415889 -0.83355803 911.40820472 -0.82681805 906.49224728 C-0.81580502 897.8904413 -0.80840657 889.28863821 -0.80341911 880.68682671 C-0.79598644 867.89638771 -0.78289726 855.1059588 -0.76867336 842.31552578 C-0.74490171 820.79656358 -0.72568124 799.27759958 -0.70907402 777.75863075 C-0.69262098 756.45880188 -0.6741427 735.15897661 -0.65294075 713.85915184 C-0.65228236 713.19678947 -0.65162396 712.5344271 -0.65094561 711.85199315 C-0.6449308 705.80201649 -0.63889096 699.75203986 -0.63282111 693.70206326 C-0.61773486 678.6648945 -0.60296223 663.62772543 -0.58840275 648.59055614 C-0.58773961 647.90592184 -0.58707647 647.22128754 -0.58639324 646.51590675 C-0.55419082 613.24131955 -0.52560256 579.96672938 -0.49731445 546.69213867 C-0.48750022 535.15026853 -0.47766997 523.6083984 -0.46777344 512.06652832 C-0.46715964 511.35066559 -0.46654584 510.63480286 -0.46591344 509.89724732 C-0.43733842 476.59624878 -0.40618997 443.2952528 -0.37438093 409.99425721 C-0.372315 407.83137852 -0.37025017 405.66849982 -0.36818558 403.50562112 C-0.3545012 389.17168013 -0.34077254 374.83773919 -0.32701423 360.50379827 C-0.29964082 331.9846947 -0.27252753 303.46559088 -0.24559305 274.9464869 C-0.24431046 273.58844267 -0.24302769 272.23039845 -0.24174474 270.87235422 C-0.15644871 180.58157373 -0.07767285 90.29078734 0 0 Z " fill="#00AA47" transform="translate(2372,150)"/>
<path d="M0 0 C2.35796334 0.00560441 4.71593021 0.00987051 7.07389832 0.01286316 C13.24042631 0.02424538 19.40673789 0.05365487 25.57318115 0.0869751 C31.88143996 0.11781959 38.18973418 0.13139907 44.49804688 0.14648438 C56.84644856 0.17853147 69.19469057 0.2296467 81.54296875 0.29296875 C81.54432528 1.42300658 81.54568181 2.55304441 81.54707944 3.71732581 C81.60703745 53.55662479 81.66945422 103.39591992 81.74429321 153.23519897 C81.74542684 153.99060052 81.74656046 154.74600206 81.74772844 155.52429456 C81.77238403 171.94406136 81.7974771 188.36382747 81.82302036 204.78359292 C81.83554542 212.83668552 81.84797389 220.88977827 81.86035156 228.94287109 C81.86220155 230.1448941 81.86220155 230.1448941 81.86408891 231.3712004 C81.90396723 257.31139325 81.93747582 283.25158954 81.96765566 309.19179534 C81.99872193 335.86482968 82.03626538 362.53784735 82.08187487 389.21086098 C82.08832458 392.98449045 82.09470081 396.75812005 82.10103226 400.53174973 C82.10228056 401.27440138 82.10352887 402.01705303 82.104815 402.78220928 C82.12466222 414.70204128 82.13774924 426.62187142 82.14826203 438.54171491 C82.15899545 450.54625502 82.1769608 462.55076748 82.20213579 474.55528612 C82.21556188 481.05102038 82.22565948 487.54672702 82.22718239 494.04247665 C82.22865117 500.00326131 82.23937591 505.96395883 82.25710316 511.92471664 C82.26190679 514.0677538 82.26347086 516.21080154 82.26124756 518.35384293 C82.24540744 536.63951236 82.95891883 554.98070241 86.79296875 572.91796875 C87.01057861 573.95880615 87.22818848 574.99964355 87.45239258 576.07202148 C99.15914049 630.39482015 129.63009643 679.34907561 167.1640625 719.703125 C168.44416185 721.09673069 169.71753156 722.49748092 170.94604492 723.93676758 C176.10664742 729.9814167 181.68606105 735.5879681 187.31274414 741.19311523 C188.97723152 742.85224195 190.63630322 744.51664926 192.29492188 746.18164062 C197.87219738 751.76277274 203.52050917 757.18967891 209.54296875 762.29296875 C210.73490348 763.33775906 211.9250192 764.38462831 213.11328125 765.43359375 C221.37737261 772.67891915 229.80457626 779.62831098 238.54296875 786.29296875 C239.28144043 786.85741699 240.01991211 787.42186523 240.78076172 788.00341797 C288.80683887 824.61579926 340.56890335 854.42099209 394.54296875 881.29296875 C394.54296875 881.95296875 394.54296875 882.61296875 394.54296875 883.29296875 C393.70338623 883.72528809 392.86380371 884.15760742 391.9987793 884.60302734 C371.6346647 895.08277238 371.6346647 895.08277238 351.34448242 905.70458984 C345.25503068 908.92203985 339.15080599 912.11056974 333.04296875 915.29296875 C326.07641608 918.92336912 319.11628659 922.56529078 312.16796875 926.23046875 C303.7318118 930.67967481 295.26988913 935.07859667 286.80566406 939.47412109 C279.74874557 943.14073965 272.70396009 946.82935555 265.67089844 950.54150391 C261.28851493 952.8530185 256.89950835 955.15120618 252.50390625 957.4375 C251.47217285 957.97431396 250.44043945 958.51112793 249.37744141 959.06420898 C247.37514139 960.10529722 245.37224583 961.14524114 243.36865234 962.18383789 C241.99314209 962.89914673 241.99314209 962.89914673 240.58984375 963.62890625 C239.72037109 964.07975586 238.85089844 964.53060547 237.95507812 964.99511719 C235.78843327 966.16089492 233.71107033 967.41106809 231.62109375 968.70703125 C228.54296875 970.29296875 228.54296875 970.29296875 226.5793457 970.02001953 C224.49648832 969.27637377 222.77065311 968.39584061 220.8828125 967.24609375 C220.18148193 966.82013916 219.48015137 966.39418457 218.75756836 965.95532227 C218.00612549 965.48924561 217.25468262 965.02316895 216.48046875 964.54296875 C215.68970947 964.05562256 214.8989502 963.56827637 214.08422852 963.06616211 C205.03608083 957.43479747 196.27551152 951.3981358 187.54296875 945.29296875 C186.82254395 944.79152344 186.10211914 944.29007813 185.35986328 943.7734375 C161.07860794 926.86078733 137.75427682 908.91270762 115.22998047 889.72558594 C113.55946472 888.3069772 111.88195833 886.89703073 110.203125 885.48828125 C95.38998586 873.0067409 81.62387868 859.46474357 67.91796875 845.79296875 C67.30701355 845.18469238 66.69605835 844.57641602 66.06658936 843.94970703 C59.66935386 837.57376769 53.38574758 831.18816056 47.54296875 824.29296875 C46.08851358 822.68528502 44.6307598 821.0805716 43.16796875 819.48046875 C38.43720782 814.23115898 33.97299823 808.7967293 29.54296875 803.29296875 C28.61758467 802.15983178 27.69178482 801.02703426 26.765625 799.89453125 C7.05760224 775.68191131 -10.30911421 749.57688462 -25.45703125 722.29296875 C-26.00456055 721.30780273 -26.55208984 720.32263672 -27.11621094 719.30761719 C-62.01116868 655.87541803 -76.65689859 586.49041362 -76.59074402 514.46786499 C-76.59261891 512.48562471 -76.59492227 510.50338481 -76.59760934 508.52114546 C-76.60364896 503.14825193 -76.60360319 497.77537412 -76.60241497 492.40247798 C-76.60220897 486.57980921 -76.60774811 480.75714523 -76.61247253 474.93447876 C-76.62073396 463.5599374 -76.62352523 452.18540122 -76.62408491 440.8108571 C-76.62456175 431.56523522 -76.62662483 422.31961503 -76.62978554 413.07399368 C-76.63068012 410.40262751 -76.631573 407.73126133 -76.63246042 405.05989516 C-76.63268146 404.39563186 -76.63290251 403.73136857 -76.63313026 403.04697608 C-76.63927188 384.40035836 -76.64323204 365.7537412 -76.64278698 347.10712242 C-76.6427714 346.40606142 -76.64275582 345.70500042 -76.64273977 344.98269515 C-76.64265668 341.43019713 -76.64255764 337.8776991 -76.64245506 334.32520108 C-76.64243512 333.6197753 -76.64241517 332.91434952 -76.64239462 332.18754721 C-76.64235419 330.7610149 -76.64231239 329.33448259 -76.64226923 327.90795028 C-76.64165565 305.6832559 -76.64918347 283.45857675 -76.6628418 261.23388672 C-76.67821106 236.2154075 -76.68680772 211.19693828 -76.68587857 186.17845404 C-76.68550856 172.94833243 -76.68828437 159.7182273 -76.69905663 146.48810959 C-76.70816081 135.23557305 -76.71033714 123.98306154 -76.7035472 112.73052292 C-76.70028303 106.9931801 -76.70022197 101.25588531 -76.70890045 95.51854706 C-76.71676953 90.26232043 -76.71532986 85.0061799 -76.70661632 79.74995537 C-76.70508237 77.85338469 -76.7068935 75.95680757 -76.7124764 74.06024449 C-76.77228234 52.29464928 -74.01869305 34.41946871 -59.45703125 17.29296875 C-41.88221091 0.76881702 -22.81243725 -0.16007706 0 0 Z " fill="#FEB900" transform="translate(1271.45703125,541.70703125)"/>
<path d="M0 0 C1.36623505 0.00456207 1.36623505 0.00456207 2.7600708 0.00921631 C24.85685711 0.11785816 45.38529865 3.13338601 66.3125 10.4375 C66.96299316 10.66131348 67.61348633 10.88512695 68.28369141 11.11572266 C85.55907785 17.18545303 101.8806572 26.21481861 116.3125 37.4375 C117.21097656 38.12585937 118.10945313 38.81421875 119.03515625 39.5234375 C125.04092255 44.22037374 130.70094266 49.27964304 136.3125 54.4375 C134.90740901 57.62009851 133.24328658 59.75098466 130.78076172 62.19628906 C129.69986771 63.27695648 129.69986771 63.27695648 128.59713745 64.37945557 C127.82000397 65.14626648 127.04287048 65.91307739 126.2421875 66.703125 C125.44595978 67.49652283 124.64973206 68.28992065 123.82937622 69.10736084 C121.28674052 71.63880703 118.73723652 74.16320803 116.1875 76.6875 C114.46178247 78.40318617 112.73651645 80.11932662 111.01171875 81.8359375 C106.78386968 86.04174248 102.55036131 90.24178507 98.3125 94.4375 C95.20933061 92.61175241 92.54003097 90.86145565 89.9375 88.375 C60.73444129 62.45318385 23.28660454 54.95736935 -14.6875 56.4375 C-20.80832827 56.90938862 -26.73033245 57.97836735 -32.6875 59.4375 C-33.72874023 59.68693359 -33.72874023 59.68693359 -34.79101562 59.94140625 C-70.2870841 68.72595115 -100.18303654 90.97812455 -119.8125 121.6875 C-132.58154834 143.09822752 -140.87118197 167.38008573 -141.6875 192.4375 C-141.72746094 193.40945312 -141.76742187 194.38140625 -141.80859375 195.3828125 C-142.68799895 236.66312713 -126.16898661 273.92412868 -97.9375 303.5625 C-68.63535829 332.0789376 -30.98762842 342.0414198 8.87109375 341.6484375 C17.95923005 341.51383383 26.51620287 340.71855282 35.3125 338.4375 C36.10720703 338.23882324 36.90191406 338.04014648 37.72070312 337.83544922 C68.31762394 329.99836378 96.7650977 311.7760976 113.22998047 284.33691406 C117.60453895 276.66121153 120.45620681 268.42288876 123 260 C123.28580933 259.05374756 123.28580933 259.05374756 123.57739258 258.08837891 C125.62049822 250.93082069 126.84008028 243.7995986 128.3125 236.4375 C86.0725 236.4375 43.8325 236.4375 0.3125 236.4375 C0.3125 218.2875 0.3125 200.1375 0.3125 181.4375 C60.3725 181.4375 120.4325 181.4375 182.3125 181.4375 C185.47841169 192.51819093 185.55386201 203.20513956 185.5625 214.625 C185.56317474 215.42640411 185.56384949 216.22780823 185.56454468 217.05349731 C185.54718698 230.05960259 184.87299866 242.65264791 182.3125 255.4375 C182.14621094 256.29230957 181.97992188 257.14711914 181.80859375 258.02783203 C174.83974049 292.81402453 159.44516573 322.4258462 134.3125 347.4375 C133.42175781 348.32824219 132.53101563 349.21898438 131.61328125 350.13671875 C94.97195451 384.98245214 45.04062663 399.59742073 -4.7421875 398.62109375 C-60.40806005 396.84499278 -111.18807539 373.52805379 -149.8125 333.56640625 C-154.85085855 328.18840225 -159.31758008 322.3629572 -163.6875 316.4375 C-164.86119141 314.84615234 -164.86119141 314.84615234 -166.05859375 313.22265625 C-197.06644703 269.74717391 -208.25225493 217.04079957 -199.9453125 164.578125 C-191.78971669 117.40702828 -165.17089635 73.99555058 -127.6875 44.4375 C-126.676875 43.62152344 -125.66625 42.80554687 -124.625 41.96484375 C-103.5516696 25.13551586 -78.18545485 13.06043339 -52.1875 6.125 C-50.91024048 5.77961182 -50.91024048 5.77961182 -49.60717773 5.42724609 C-33.22743376 1.29555533 -16.84372258 -0.12035377 0 0 Z " fill="#5F6368" transform="translate(203.6875,2477.5625)"/>
<path d="M0 0 C3.91627154 3.40229582 7.67220412 6.96321974 11.34033203 10.63134766 C11.67033203 4.03134766 12.00033203 -2.56865234 12.34033203 -9.36865234 C30.16033203 -9.36865234 47.98033203 -9.36865234 66.34033203 -9.36865234 C66.40663446 21.85060963 66.46196263 53.06980291 66.49352802 84.28911344 C66.49727954 87.98603669 66.50116256 91.68295979 66.50512695 95.37988281 C66.50591388 96.11578445 66.50670082 96.85168608 66.50751159 97.60988776 C66.520518 109.48052438 66.54414515 121.35111681 66.57179042 133.22172733 C66.599978 145.42822475 66.6165363 157.63469926 66.62259752 169.84122789 C66.62668648 177.35582465 66.63953668 184.87029648 66.66408143 192.38485472 C66.6820151 198.17506186 66.68366439 203.96519134 66.67965508 209.75542068 C66.68047186 212.11019656 66.68632314 214.46497772 66.69794846 216.81972504 C66.78430585 235.23476099 66.06010366 253.91348043 60.52783203 271.63134766 C60.26776367 272.49397217 60.00769531 273.35659668 59.73974609 274.24536133 C51.04297176 302.35251771 34.15259159 325.67352242 7.94189453 339.78369141 C-2.47719073 345.20713206 -13.15155619 349.21238559 -24.65966797 351.63134766 C-25.9042981 351.89842529 -25.9042981 351.89842529 -27.17407227 352.17089844 C-36.18519431 353.89914346 -45.08104412 354.02978886 -54.22216797 354.00634766 C-55.01925171 354.00580383 -55.81633545 354.00526001 -56.63757324 354.00469971 C-68.70000244 353.96684753 -80.10400585 353.39134298 -91.65966797 349.63134766 C-92.35350586 349.41172363 -93.04734375 349.19209961 -93.76220703 348.96582031 C-112.22825985 342.96753695 -127.57934178 332.90843376 -141.65966797 319.63134766 C-142.32482422 319.03064453 -142.98998047 318.42994141 -143.67529297 317.81103516 C-154.4357103 307.70674083 -166.34220237 292.27060595 -169.65966797 277.63134766 C-160.33545168 273.22026431 -150.90567536 269.13120964 -141.37231445 265.19726562 C-139.06604149 264.24347488 -136.76428682 263.27926736 -134.46240234 262.31494141 C-132.98545313 261.70362531 -131.508249 261.09292464 -130.03076172 260.48291016 C-129.34848007 260.19549957 -128.66619843 259.90808899 -127.96324158 259.61196899 C-124.57475653 258.22713475 -122.38703484 257.63134766 -118.65966797 257.63134766 C-118.31935547 258.38158203 -117.97904297 259.13181641 -117.62841797 259.90478516 C-114.10920225 267.33632048 -110.12547373 273.49873379 -104.65966797 279.63134766 C-103.99322266 280.40349609 -103.32677734 281.17564453 -102.64013672 281.97119141 C-92.0597061 293.45459013 -76.02614058 301.20382485 -60.35888672 301.86962891 C-41.51096378 302.29069551 -24.08616583 298.91373801 -9.22216797 286.38134766 C7.84671335 269.84412002 11.20235793 246.73024971 11.90283203 224.13134766 C11.96760742 222.18228516 11.96760742 222.18228516 12.03369141 220.19384766 C12.13915713 217.00643921 12.24127651 213.81896068 12.34033203 210.63134766 C11.63521484 211.35708984 10.93009766 212.08283203 10.20361328 212.83056641 C-7.84053287 230.82408009 -31.36768862 239.42512255 -56.65966797 239.88134766 C-88.50146537 239.30826694 -116.41194898 226.8533318 -139.65966797 205.63134766 C-140.39572266 204.96619141 -141.13177734 204.30103516 -141.89013672 203.61572266 C-165.91007047 180.79438839 -179.13863715 146.85342264 -180.01538086 114.11523438 C-180.30911656 76.28653795 -165.70797228 43.62503382 -139.78466797 16.44384766 C-104.95983749 -17.11206187 -40.58412791 -33.467876 0 0 Z M-93.65966797 48.63134766 C-94.81789063 49.54207031 -94.81789063 49.54207031 -95.99951172 50.47119141 C-111.70846099 63.60226182 -119.80746276 82.56782934 -122.40966797 102.50634766 C-122.51571473 103.87978259 -122.59937717 105.25514474 -122.65966797 106.63134766 C-122.69962891 107.38029297 -122.73958984 108.12923828 -122.78076172 108.90087891 C-123.40431796 131.60566209 -115.06465516 152.1296478 -99.65966797 168.63134766 C-85.86467874 182.1128144 -67.98805253 188.14841246 -49.02197266 187.98339844 C-33.49197399 187.55739583 -20.31643209 181.89104642 -8.65966797 171.63134766 C-7.97130859 171.02548828 -7.28294922 170.41962891 -6.57373047 169.79541016 C8.0140522 156.10189769 15.68919442 135.28786784 16.46142578 115.53369141 C16.87175592 93.73792005 11.38383675 72.79350305 -3.15966797 56.19384766 C-4.64227344 54.65605214 -6.14111662 53.13365782 -7.65966797 51.63134766 C-8.24876953 51.00873047 -8.83787109 50.38611328 -9.44482422 49.74462891 C-20.61269266 38.82220812 -36.35651947 34.01920079 -51.64404297 33.49462891 C-67.22947139 33.72493684 -81.49425477 39.03129342 -93.65966797 48.63134766 Z " fill="#5F6368" transform="translate(1147.65966796875,2636.36865234375)"/>
<path d="M0 0 C1.01247803 0.48339844 1.01247803 0.48339844 2.04541016 0.9765625 C43.41689801 21.11484796 76.15341728 59.72384028 91.55688477 102.77636719 C94.91620196 112.66220274 97.20052209 122.72498114 99 133 C99.3403125 134.87171875 99.3403125 134.87171875 99.6875 136.78125 C106.73317157 184.14381998 97.36990688 236.18412653 68.71337891 275.12329102 C67.48539973 276.75660201 66.24420942 278.3790374 65 280 C64.34 280.88429688 63.68 281.76859375 63 282.6796875 C34.17636097 319.72256734 -8.1209819 343.81903806 -54.60546875 349.6640625 C-61.06458542 350.30328463 -67.51550941 350.72506296 -74 351 C-74.94746094 351.04253906 -75.89492187 351.08507813 -76.87109375 351.12890625 C-127.44558207 352.22994736 -172.3214529 333.04054832 -208.57861328 298.38525391 C-221.86185902 285.43967914 -232.56847645 270.4700173 -241 254 C-241.31807617 253.38302246 -241.63615234 252.76604492 -241.96386719 252.13037109 C-249.88224498 236.56252593 -254.72973047 220.11206775 -258 203 C-258.21527344 201.91332031 -258.43054687 200.82664062 -258.65234375 199.70703125 C-265.76265592 157.92745973 -259.267483 113.20560534 -239 76 C-238.18789062 74.46859375 -238.18789062 74.46859375 -237.359375 72.90625 C-229.79604344 59.24819495 -219.80841233 47.19271144 -209 36 C-208.20207031 35.15050781 -207.40414062 34.30101563 -206.58203125 33.42578125 C-196.1095567 22.54329138 -183.95627119 13.69323143 -171 6 C-170.12504883 5.48010498 -170.12504883 5.48010498 -169.23242188 4.94970703 C-119.0604031 -24.36319856 -51.90814396 -24.78912503 0 0 Z M-141 41 C-141.99515625 41.48339844 -142.9903125 41.96679688 -144.015625 42.46484375 C-174.44142217 58.15586201 -196.48810444 87.31153648 -207.25830078 119.34887695 C-211.53762023 134.08345675 -213.51681659 148.85111132 -213.39111328 164.17724609 C-213.37499812 166.500271 -213.39110347 168.82155739 -213.41015625 171.14453125 C-213.43103626 185.39003777 -211.57366954 199.43420706 -207.3125 213.0625 C-207.05758789 213.8877417 -206.80267578 214.7129834 -206.54003906 215.56323242 C-200.86483962 233.24144478 -191.83150953 249.36538665 -179.0078125 262.8515625 C-177 265 -177 265 -174.94921875 267.578125 C-164.66745504 280.35306188 -148.77703007 289.46244739 -134 296 C-132.36611328 296.72316406 -132.36611328 296.72316406 -130.69921875 297.4609375 C-105.63826513 307.75995954 -72.21190739 310.5569235 -46 303 C-45.18321777 302.76893555 -44.36643555 302.53787109 -43.52490234 302.29980469 C-8.8641175 292.21920328 18.6715347 270.17488963 37 239 C56.27638172 203.91070308 59.37891351 160.23885665 48.4375 122 C37.42431233 86.27601666 13.07881634 57.85319939 -19.734375 40.140625 C-56.98658582 20.88399269 -103.91560403 22.90313865 -141 41 Z " fill="#5F6368" transform="translate(2736,2525)"/>
<path d="M0 0 C1.18440674 0.00563965 2.36881348 0.0112793 3.58911133 0.01708984 C34.31817606 0.4414606 58.2344126 13.3557257 79.61791992 34.81152344 C107.64065797 63.78752086 115.51253956 100.04497243 114.92286682 139.14009094 C114.75006809 147.46339431 113.94397282 155.28388471 111.75 163.3125 C111.52957031 164.12364258 111.30914063 164.93478516 111.08203125 165.77050781 C105.79892757 184.46402943 97.52014576 201.59789154 84.75 216.3125 C84.25628906 216.88838867 83.76257812 217.46427734 83.25390625 218.05761719 C64.73469922 239.45168865 40.49028044 254.43070277 11.8125 256.796875 C-17.33436183 258.54934006 -44.60140425 252.72099919 -67.25 233.3125 C-72.75086579 228.2763888 -77.08909975 223.55385037 -81.25 217.3125 C-81.25 262.8525 -81.25 308.3925 -81.25 355.3125 C-96.43 355.3125 -111.61 355.3125 -127.25 355.3125 C-127.25 240.8025 -127.25 126.2925 -127.25 8.3125 C-112.73 8.3125 -98.21 8.3125 -83.25 8.3125 C-83.25 19.2025 -83.25 30.0925 -83.25 41.3125 C-82.59 41.3125 -81.93 41.3125 -81.25 41.3125 C-81.02828125 40.61511719 -80.8065625 39.91773437 -80.578125 39.19921875 C-73.19381887 23.1492122 -53.89563702 12.56741885 -38.25 6.3125 C-25.67419968 1.72247677 -13.3550799 -0.06698113 0 0 Z M-60.25 65.3125 C-60.91386719 65.96863281 -61.57773438 66.62476562 -62.26171875 67.30078125 C-77.9293082 83.74294816 -83.71776558 108.28776887 -83.40234375 130.40234375 C-82.2238197 152.91517502 -76.79328809 174.35045336 -61.25 191.3125 C-60.68667969 191.94414062 -60.12335937 192.57578125 -59.54296875 193.2265625 C-47.69773324 205.82079417 -30.91939215 213.82975434 -13.6875 214.62890625 C8.94900042 215.26278572 26.7874464 210.00609921 43.75 194.3125 C59.92186477 178.79802811 68.24170476 157.22250543 69.03515625 135.0390625 C69.60915983 106.900631 63.48238804 83.96762561 43.75 63.3125 C43.19828125 62.68601562 42.6465625 62.05953125 42.078125 61.4140625 C30.7599626 49.03132047 14.0496467 42.94232374 -2.3828125 42.0546875 C-25.10248646 41.25325317 -44.49336743 48.92657027 -60.25 65.3125 Z " fill="#5F6368" transform="translate(3002.25,2618.6875)"/>
<path d="M0 0 C11.57417461 10.14330138 23.90213207 25.1863342 27.96875 40.4921875 C27.73435974 42.48297119 27.73435974 42.48297119 26.96875 44.4921875 C25.34339905 45.61859131 25.34339905 45.61859131 23.21508789 46.50683594 C22.42078873 46.8468866 21.62648956 47.18693726 20.80812073 47.53729248 C19.94460495 47.88850159 19.08108917 48.23971069 18.19140625 48.6015625 C17.30972275 48.97323547 16.42803925 49.34490845 15.51963806 49.72784424 C12.69589446 50.91353835 9.86372376 52.07752612 7.03125 53.2421875 C5.12510163 54.04166007 3.21949499 54.8424256 1.31445312 55.64453125 C-0.49690973 56.40220484 -2.30874353 57.15875373 -4.12109375 57.9140625 C-4.9825853 58.27336853 -5.84407684 58.63267456 -6.73167419 59.00286865 C-7.52912552 59.33031067 -8.32657684 59.65775269 -9.14819336 59.99511719 C-9.85133163 60.28505554 -10.55446991 60.5749939 -11.27891541 60.87371826 C-13.03125 61.4921875 -13.03125 61.4921875 -15.03125 61.4921875 C-15.52753906 60.44160156 -16.02382812 59.39101562 -16.53515625 58.30859375 C-25.3170997 40.02576829 -36.17804026 27.79193289 -55.46875 20.2421875 C-73.86740821 13.98768612 -94.56726844 15.04851647 -112.28125 23.0390625 C-116.84936858 25.45289789 -120.94134903 28.34949878 -125.03125 31.4921875 C-126.083125 32.2346875 -127.135 32.9771875 -128.21875 33.7421875 C-137.32056931 42.64174416 -141.2749901 52.85045628 -141.53125 65.3046875 C-141.48260108 77.1652947 -137.40973751 86.9817553 -129.03125 95.4921875 C-121.4168366 102.09134578 -112.10372187 106.28440701 -103.03125 110.4921875 C-102.30695801 110.82943848 -101.58266602 111.16668945 -100.83642578 111.51416016 C-88.75857495 117.0644397 -76.35408715 121.59908636 -63.84375 126.0546875 C-51.67105266 130.39367335 -39.62265554 134.73683896 -28.03125 140.4921875 C-27.25056152 140.87439453 -26.46987305 141.25660156 -25.66552734 141.65039062 C0.87383555 154.74625611 23.21725438 173.35117792 33.71875 201.78125 C42.56457754 228.04230052 41.00637412 257.66074284 29.21875 282.7421875 C16.04151461 307.49130981 -7.37901993 324.64858112 -33.8203125 333.09375 C-46.71804062 336.9298802 -59.59295625 338.85003127 -73.03125 339.4921875 C-73.91039062 339.53472656 -74.78953125 339.57726563 -75.6953125 339.62109375 C-95.60813686 340.08346583 -116.0749532 336.18455929 -134.03125 327.4921875 C-135.20945312 326.92886719 -136.38765625 326.36554687 -137.6015625 325.78515625 C-167.62996011 310.90117768 -187.74333276 284.56506837 -199.53125 253.7421875 C-199.91470581 252.74058594 -199.91470581 252.74058594 -200.3059082 251.71875 C-201.52172209 248.3933301 -202.03125 246.09000463 -202.03125 242.4921875 C-196.25024758 240.06368993 -190.46583411 237.64346433 -184.67895508 235.22900391 C-182.71005692 234.40636984 -180.74195238 233.58183368 -178.7746582 232.75537109 C-175.94948684 231.56889883 -173.12154756 230.3892591 -170.29296875 229.2109375 C-168.97095711 228.65315613 -168.97095711 228.65315613 -167.62223816 228.08410645 C-166.80161392 227.74375366 -165.98098969 227.40340088 -165.13549805 227.05273438 C-164.41379929 226.7507312 -163.69210052 226.44872803 -162.9485321 226.13757324 C-161.03125 225.4921875 -161.03125 225.4921875 -158.03125 225.4921875 C-157.82556396 226.03520508 -157.61987793 226.57822266 -157.40795898 227.13769531 C-146.74192765 255.08760609 -132.39492483 275.985572 -104.66015625 289.1328125 C-95.43601452 292.58814223 -86.67321401 294.02778903 -76.84375 293.9296875 C-75.75731201 293.92138916 -74.67087402 293.91309082 -73.55151367 293.90454102 C-53.97132399 293.49767617 -36.23885245 287.56140421 -22.03125 273.4921875 C-12.50926209 262.37135834 -8.43390636 248.85056512 -8.78515625 234.3046875 C-9.97971344 220.65260529 -15.82841684 207.72172407 -26.03125 198.4921875 C-45.35530756 183.21147894 -68.40459778 175.64277043 -91.24755859 167.2746582 C-140.97425999 149.05425661 -140.97425999 149.05425661 -159.03125 133.4921875 C-159.78792969 132.87988281 -160.54460937 132.26757812 -161.32421875 131.63671875 C-178.44215603 117.34721861 -187.46900771 96.56163853 -189.58178711 74.71875 C-191.5321594 50.25265663 -185.07423774 28.26441036 -169.4609375 9.3203125 C-127.00304095 -40.100133 -48.47127206 -40.10123281 0 0 Z " fill="#5F6368" transform="translate(1905.03125,2536.5078125)"/>
<path d="M0 0 C0.69319336 0.16097168 1.38638672 0.32194336 2.10058594 0.48779297 C33.08652057 7.95108727 61.16023856 27.46055856 78.25 54.4375 C96.89010963 86.19048839 103.11665742 122.16916218 94.47998047 158.16748047 C86.04836361 190.24379232 66.23700226 218.05773436 37.75878906 235.36181641 C6.34380445 253.62865529 -30.30756544 258.77133399 -65.5625 249.8125 C-74.4668813 247.42111512 -82.72625752 244.03751407 -91 240 C-91.99515625 239.51660156 -92.9903125 239.03320312 -94.015625 238.53515625 C-122.75585749 223.71340778 -143.19434359 197.56952567 -153.75 167.5 C-165.04993556 132.00184716 -161.14764584 94.79834815 -144.53515625 61.75390625 C-141.54813584 56.02850505 -138.14834816 50.94981792 -134 46 C-133.07394893 44.85047773 -132.14818769 43.70072194 -131.22265625 42.55078125 C-125.12996512 35.10283397 -118.76935056 28.74608219 -111 23 C-109.8553125 22.11634766 -109.8553125 22.11634766 -108.6875 21.21484375 C-78.12114479 -1.45176087 -36.82022353 -8.74892994 0 0 Z M-84 72 C-95.49613618 86.08095925 -101.91538134 102.86653183 -103 121 C-103.04125 121.67933594 -103.0825 122.35867187 -103.125 123.05859375 C-103.70369843 142.77050888 -97.02669959 163.6521286 -83.6875 178.3125 C-70.04653597 192.68452098 -53.65839506 201.76430317 -33.578125 202.47265625 C-12.59313263 202.69522435 4.46963051 195.08754179 19.625 180.75 C30.71642586 169.33065372 37.2218057 154.52886217 40 139 C40.13148438 138.27167969 40.26296875 137.54335937 40.3984375 136.79296875 C43.50317887 116.19259017 38.1716727 93.97883942 25.93359375 77.16015625 C13.20939063 61.0280796 -2.62686991 51.10226354 -23.21484375 48.28125 C-46.23663446 45.95646889 -68.26092269 55.36351916 -84 72 Z " fill="#5F6368" transform="translate(848,2622)"/>
<path d="M0 0 C0.94101562 0.77859375 1.88203125 1.5571875 2.8515625 2.359375 C27.30431063 23.43695508 41.54563793 55.04093331 44 87 C45.8175019 124.36926465 35.98511186 157.67811424 11 186 C-10.64755363 209.8592232 -41.94304631 224.65489102 -74.1015625 226.87109375 C-75.53628906 226.93490234 -75.53628906 226.93490234 -77 227 C-78.71316406 227.07927734 -78.71316406 227.07927734 -80.4609375 227.16015625 C-115.68730557 227.98186666 -149.01187246 216.26150846 -174.80810547 192.09912109 C-196.08374353 171.66906245 -208.52997134 146.0395568 -213 117 C-213.13277344 116.14277344 -213.26554687 115.28554687 -213.40234375 114.40234375 C-217.43754314 82.17602533 -209.42321904 48.16254712 -190.265625 21.87109375 C-186.71855567 17.37610072 -182.96090487 13.13277846 -179 9 C-177.7934375 7.7315625 -177.7934375 7.7315625 -176.5625 6.4375 C-175.716875 5.633125 -174.87125 4.82875 -174 4 C-173.3296875 3.34644531 -172.659375 2.69289063 -171.96875 2.01953125 C-125.68511086 -41.63435567 -47.6235182 -40.60128361 0 0 Z M-137 44 C-151.67633468 61.2824128 -158.26022431 82.55148431 -156.78125 105.03515625 C-155.02892946 124.69638314 -147.02838324 142.14634751 -133 156 C-132.09894531 156.93392578 -132.09894531 156.93392578 -131.1796875 157.88671875 C-118.11582931 170.4698722 -100.16627904 175.6579372 -82.42114258 175.47314453 C-66.09810199 174.89403579 -51.24257542 168.79309017 -39 158 C-37.89205078 157.03320312 -37.89205078 157.03320312 -36.76171875 156.046875 C-21.29373561 141.62077673 -14.12936162 122.15045463 -12.8359375 101.36328125 C-12.17906625 79.4775255 -19.73047957 58.17823387 -34.74291992 42.16137695 C-47.96144483 28.63737722 -65.70855737 21.4585298 -84.5 20.75 C-104.32094459 21.02110714 -123.33537107 29.75657463 -137 44 Z " fill="#5F6368" transform="translate(622,2649)"/>
<path d="M0 0 C18.88008569 17.11610688 31.46523051 36.78088157 40.92578125 60.48828125 C41.22581055 61.23182861 41.52583984 61.97537598 41.83496094 62.74145508 C42.80843198 65.30953874 43.67034013 67.67599505 43.69042969 70.44433594 C42.01299023 73.72010559 38.75918713 74.46389062 35.48828125 75.71875 C34.7362442 76.02169983 33.98420715 76.32464966 33.2093811 76.63677979 C30.70352201 77.64291801 28.18975695 78.62761922 25.67578125 79.61328125 C23.90603601 80.3205924 22.13700339 81.02968893 20.36865234 81.74047852 C16.66420443 83.22877815 12.95734432 84.71083254 9.24902344 86.18945312 C1.41389967 89.32295874 -6.37624085 92.56385769 -14.16586304 95.80844116 C-17.58778621 97.23326347 -21.01150038 98.65375599 -24.43516541 100.0743866 C-27.01994123 101.14698666 -29.60448461 102.22014495 -32.18896484 103.29345703 C-44.84426666 108.54872389 -57.5021223 113.79782612 -70.16200256 119.04205322 C-76.04401641 121.47918259 -81.92384987 123.92151968 -87.80290222 126.36578369 C-92.07950778 128.1430108 -96.35733485 129.91728433 -100.63540649 131.690979 C-102.71110215 132.5523148 -104.78628218 133.41489431 -106.8609314 134.27874756 C-109.74189261 135.47813532 -112.62462482 136.67316386 -115.5078125 137.8671875 C-116.37343811 138.22878464 -117.23906372 138.59038177 -118.13092041 138.9629364 C-118.92101501 139.28913467 -119.71110962 139.61533295 -120.52514648 139.95141602 C-121.21422592 140.23767349 -121.90330536 140.52393097 -122.61326599 140.81886292 C-124.32421875 141.42578125 -124.32421875 141.42578125 -126.32421875 141.42578125 C-117.53723395 157.31127142 -106.57957882 169.00065423 -89.32421875 175.42578125 C-88.48246094 175.74546875 -87.64070313 176.06515625 -86.7734375 176.39453125 C-69.29603779 181.85779947 -49.25466929 179.24431394 -32.94921875 171.61328125 C-20.89163712 165.1567449 -11.09947715 155.61605511 -3.32421875 144.42578125 C1.86471957 146.14386876 6.16947031 149.18174099 10.6953125 152.16796875 C11.55388351 152.73274933 12.41245453 153.29752991 13.29704285 153.87942505 C15.10494008 155.0721251 16.91108338 156.26748747 18.71557617 157.46533203 C21.48737005 159.30017806 24.27165815 161.11494272 27.05664062 162.9296875 C28.81200439 164.09123007 30.56658959 165.25395026 32.3203125 166.41796875 C33.15770462 166.95976776 33.99509674 167.50156677 34.85786438 168.05978394 C35.62253525 168.57356598 36.38720612 169.08734802 37.17504883 169.61669922 C37.85279861 170.06367157 38.5305484 170.51064392 39.22883606 170.97116089 C40.67578125 172.42578125 40.67578125 172.42578125 40.67578125 176.42578125 C38.38847304 180.04352948 35.47284091 183.19293169 32.67578125 186.42578125 C31.85464844 187.39386719 31.03351563 188.36195313 30.1875 189.359375 C7.74739954 214.92446722 -23.59236417 229.16020893 -57.32421875 231.42578125 C-81.18438744 232.71055956 -103.89395697 227.87157005 -125.32421875 217.42578125 C-126.30777344 216.95398437 -127.29132813 216.4821875 -128.3046875 215.99609375 C-156.89075314 201.39368793 -176.6082639 174.5190254 -187.0078125 144.703125 C-198.16846946 110.2146658 -194.78945955 70.79609977 -178.45629883 38.53051758 C-172.54140652 27.26999654 -165.02189668 17.68305242 -156.32421875 8.42578125 C-155.80859375 7.83410156 -155.29296875 7.24242188 -154.76171875 6.6328125 C-116.13241713 -35.71858329 -42.12936006 -36.13762885 0 0 Z M-113.32421875 42.42578125 C-113.99582031 43.00585938 -114.66742187 43.5859375 -115.359375 44.18359375 C-128.42736089 56.21923393 -135.42057509 73.85212398 -136.5078125 91.38671875 C-136.51098907 93.4006671 -136.43006966 95.41461402 -136.32421875 97.42578125 C-132.08198833 96.75648273 -128.32973861 95.31736912 -124.40234375 93.64453125 C-123.7222374 93.35939667 -123.04213104 93.07426208 -122.34141541 92.78048706 C-120.08391376 91.83306915 -117.82913513 90.87933392 -115.57421875 89.92578125 C-113.14724591 88.90566651 -110.71957611 87.88722158 -108.29191589 86.8687439 C-106.59100946 86.15496378 -104.8903404 85.44061778 -103.18989563 84.72573853 C-94.50793855 81.07679341 -85.80710282 77.47390439 -77.10482788 73.87374878 C-59.15465331 66.446389 -41.22992443 58.9596801 -23.32421875 51.42578125 C-27.55430991 40.59452152 -35.1837054 34.35760826 -45.44921875 29.17578125 C-68.95273876 19.43860867 -94.84194314 25.69132647 -113.32421875 42.42578125 Z " fill="#5F6368" transform="translate(1528.32421875,2644.57421875)"/>
<path d="M0 0 C0.98595154 0.00323273 0.98595154 0.00323273 1.99182129 0.00653076 C29.28760771 0.14970495 55.50536465 6.93319088 76.375 25.3125 C77.19355469 25.98796875 78.01210937 26.6634375 78.85546875 27.359375 C101.63025141 46.70911283 111.92919353 75.30173389 116.1875 104.125 C116.37348755 105.31138062 116.37348755 105.31138062 116.56323242 106.52172852 C117.93181536 116.84005718 117.375 126.7348604 117.375 137.3125 C55.005 137.3125 -7.365 137.3125 -71.625 137.3125 C-67.56526066 163.02418252 -61.68182592 182.55988905 -41 199 C-22.47194794 212.30158757 -2.13430772 215.38151627 20.25390625 212.87890625 C39.64235854 209.04879482 55.9456428 195.88509849 66.76953125 179.76953125 C67.29933594 178.95871094 67.82914063 178.14789062 68.375 177.3125 C69.70778698 175.31213588 71.04099896 173.3120547 72.375 171.3125 C82.17783353 175.40662459 91.78006126 179.87297188 101.3125 184.5625 C102.385 185.08166992 103.4575 185.60083984 104.5625 186.13574219 C105.56152344 186.63235352 106.56054688 187.12896484 107.58984375 187.640625 C108.48823975 188.0830957 109.38663574 188.52556641 110.31225586 188.98144531 C112.375 190.3125 112.375 190.3125 113.375 193.3125 C112.07811547 195.90626905 110.74178886 198.25344653 109.1875 200.6875 C108.73914795 201.39704834 108.2907959 202.10659668 107.82885742 202.83764648 C103.10039717 210.08979154 97.44660674 216.18009033 91.375 222.3125 C90.77300781 222.97507812 90.17101563 223.63765625 89.55078125 224.3203125 C79.93632218 234.73395835 67.13754641 241.56519422 54.375 247.3125 C53.31925781 247.79589844 52.26351562 248.27929688 51.17578125 248.77734375 C21.96586731 261.08216025 -14.98523551 260.37848161 -44.31640625 248.86328125 C-47.47889612 247.44072087 -50.55315026 245.92038922 -53.625 244.3125 C-54.57761719 243.83941406 -55.53023437 243.36632813 -56.51171875 242.87890625 C-63.23316778 239.41975047 -68.91558073 235.24571423 -74.625 230.3125 C-75.56085938 229.53390625 -76.49671875 228.7553125 -77.4609375 227.953125 C-101.7322656 206.93071484 -116.19874311 176.2434813 -118.625 144.3125 C-118.81538498 139.39615392 -118.87065915 134.4820811 -118.875 129.5625 C-118.87567474 128.87508728 -118.87634949 128.18767456 -118.87704468 127.47943115 C-118.83170489 98.30687676 -112.14417195 71.07373912 -94.625 47.3125 C-94.01140625 46.47589844 -93.3978125 45.63929688 -92.765625 44.77734375 C-76.12631693 23.08436154 -53.65595349 7.69637412 -26.625 2.3125 C-25.76841797 2.13807373 -24.91183594 1.96364746 -24.02929688 1.78393555 C-15.99366323 0.27758883 -8.16369941 -0.03654764 0 0 Z M-53.01171875 66.046875 C-59.97038836 75.21906428 -67.625 87.45535084 -67.625 99.3125 C-22.745 99.3125 22.135 99.3125 68.375 99.3125 C66.43345413 81.83858717 59.72213351 67.51335399 45.85546875 56.26953125 C43.41379216 54.51047392 40.94309642 52.88025772 38.375 51.3125 C37.74207031 50.92449219 37.10914062 50.53648437 36.45703125 50.13671875 C7.13149638 33.94202039 -31.35897456 41.24013043 -53.01171875 66.046875 Z " fill="#5F6368" transform="translate(2086.625,2618.6875)"/>
<path d="M0 0 C1.40318248 1.15781723 2.79935754 2.32419291 4.1875 3.5 C4.85136719 4.01949219 5.51523438 4.53898437 6.19921875 5.07421875 C15.70577831 12.78779261 22.51857005 23.25794907 27.1875 34.5 C27.1875 35.16 27.1875 35.82 27.1875 36.5 C21.85282532 38.7878103 16.51426208 41.06619501 11.171875 43.3359375 C9.3550192 44.10939897 7.53925292 44.88542495 5.72460938 45.6640625 C3.1161058 46.78280802 0.50382327 47.89227282 -2.109375 49 C-2.91993347 49.34998047 -3.73049194 49.69996094 -4.56561279 50.06054688 C-5.32609924 50.38087891 -6.08658569 50.70121094 -6.87011719 51.03125 C-7.8693924 51.45760742 -7.8693924 51.45760742 -8.88885498 51.89257812 C-10.8125 52.5 -10.8125 52.5 -14.8125 52.5 C-16.19921875 50.62890625 -16.19921875 50.62890625 -17.5 48.0625 C-24.89771007 35.07988504 -36.89119153 27.48995304 -51.06494141 23.5246582 C-67.99710959 19.33933161 -84.86323443 20.33069715 -100.375 28.8125 C-107.0702755 33.04204232 -111.91955381 37.74201977 -114.40625 45.39453125 C-115.51860588 51.1595295 -114.43739175 56.87384054 -111.20703125 61.81640625 C-98.50183029 77.15517828 -73.63667951 79.83382976 -55.49316406 84.32006836 C-26.26714726 91.57830499 6.11281307 99.85980194 23.0625 127.3125 C27.61326124 135.65198462 30.76797939 144.95590611 31.1875 154.5 C31.2390625 155.45132813 31.290625 156.40265625 31.34375 157.3828125 C31.89036491 176.286578 25.72185759 192.53037539 13.1875 206.5 C-6.51733823 226.91743458 -33.19987403 235.05597237 -60.8125 236.5 C-61.988125 236.56380859 -61.988125 236.56380859 -63.1875 236.62890625 C-91.66629791 237.37054161 -120.16461405 228.30754127 -141.25 208.875 C-143.11924993 207.09823034 -144.96545563 205.30003875 -146.8125 203.5 C-147.79476562 202.62794922 -147.79476562 202.62794922 -148.796875 201.73828125 C-157.86215571 193.48388574 -167.33489805 178.49384579 -169.8125 166.5 C-160.67653537 162.07842737 -151.41957528 157.99353747 -142.0625 154.0625 C-141.00289062 153.61342285 -139.94328125 153.1643457 -138.8515625 152.70166016 C-137.85382812 152.28577637 -136.85609375 151.86989258 -135.828125 151.44140625 C-134.93383789 151.06701416 -134.03955078 150.69262207 -133.11816406 150.30688477 C-130.8125 149.5 -130.8125 149.5 -127.8125 149.5 C-127.30203125 150.57636719 -126.7915625 151.65273437 -126.265625 152.76171875 C-117.0771704 171.4786223 -104.70606987 184.09193423 -84.8125 191.5 C-67.97334313 196.64931299 -48.41367777 194.5513369 -32.8125 186.6875 C-25.35205574 182.24227244 -20.33228956 177.42474708 -17.40625 169.11328125 C-15.90447065 162.5034761 -17.20889266 156.20087435 -20.5546875 150.36328125 C-32.95515917 131.99363844 -59.90667491 128.93829702 -79.85583496 123.99998474 C-106.76541457 117.33664671 -136.51922483 109.96098696 -153.4375 85.78515625 C-163.29561789 69.40163646 -165.23955052 52.26849059 -160.71484375 33.7109375 C-155.53389524 15.27483501 -143.01937089 1.96058442 -126.64306641 -7.49511719 C-88.75933467 -28.2912548 -34.79767556 -26.58899312 0 0 Z " fill="#5F6368" transform="translate(3299.8125,2639.5)"/>
<path d="M0 0 C15.54933948 12.58071214 26.12046938 27.56740623 34.625 45.5625 C34.625 46.2225 34.625 46.8825 34.625 47.5625 C12.78114143 57.13348668 12.78114143 57.13348668 1.875 61.6875 C1.17963135 61.98213135 0.4842627 62.2767627 -0.23217773 62.58032227 C-3.11837837 63.77439923 -5.21761648 64.5625 -8.375 64.5625 C-8.99375 63.22058594 -8.99375 63.22058594 -9.625 61.8515625 C-13.37673957 53.9176461 -17.47286633 47.14017909 -23.375 40.5625 C-23.89320313 39.93988281 -24.41140625 39.31726562 -24.9453125 38.67578125 C-35.60552434 26.75670017 -52.82223214 21.25748899 -68.3359375 20.32421875 C-88.90589467 19.80413933 -106.98636144 25.49762598 -122.40625 39.625 C-139.35267531 55.96464794 -148.00286296 79.76394073 -148.66064453 102.97241211 C-148.96446462 128.73911747 -141.23317448 151.59042966 -123.53027344 170.50341797 C-110.88607894 183.44197001 -94.72825232 190.45970812 -76.78369141 190.96508789 C-56.81365796 191.18581094 -38.4305232 187.06557761 -23.50439453 172.89233398 C-15.76785109 165.17019995 -10.3178712 156.24228944 -5.375 146.5625 C3.45571246 149.24058529 11.76496286 153.01894342 20.1875 156.75 C21.68798915 157.41117481 23.18863894 158.07198519 24.68945312 158.73242188 C28.33650181 160.33825054 31.98133855 161.94900128 35.625 163.5625 C32.90328343 181.95606196 15.9898864 200.52860175 1.625 211.5625 C-27.47467508 232.0619327 -61.53355045 237.88989923 -96.375 232.5625 C-127.41479945 226.71800946 -154.78727501 209.33582336 -173.07958984 183.46972656 C-194.06168557 152.57788114 -199.92242696 113.4504499 -193.27734375 77.02734375 C-192.98225492 75.53792339 -192.68175844 74.04956076 -192.375 72.5625 C-192.24109863 71.89750488 -192.10719727 71.23250977 -191.96923828 70.54736328 C-187.85931245 50.97415288 -178.18667293 33.73421795 -165.375 18.5625 C-164.70984375 17.75039062 -164.0446875 16.93828125 -163.359375 16.1015625 C-124.56347949 -29.4476926 -46.93693181 -36.75622726 0 0 Z " fill="#5F6368" transform="translate(2418.375,2641.4375)"/>
<path d="M0 0 C18.81 0 37.62 0 57 0 C57 124.08 57 248.16 57 376 C38.19 376 19.38 376 0 376 C0 251.92 0 127.84 0 0 Z " fill="#5F6368" transform="translate(1252,2492)"/>
</svg>
