<svg xmlns="http://www.w3.org/2000/svg" xmlns:xlink="http://www.w3.org/1999/xlink" viewBox="0 0 81 81">
  <defs>
    <symbol id="azure-gw" overflow="visible">
      <path d="M62.703 53.574H47.808l5.285-5.286-10.09-10.089v24.265h7.448l-10.57 10.57-10.57-10.57h7.448V38.439l-10.09 10.09 5.285 5.285H17.057V38.919l5.285 5.285 12.733-12.733c-1.922-.72-3.363-2.161-4.804-3.843-4.085-5.526-3.124-13.214 2.402-17.298 2.162-1.681 4.805-2.643 7.448-2.643 3.604 0 7.448 1.681 9.85 4.805 4.084 5.525 3.123 13.213-2.402 17.297-.721.721-1.681 1.201-2.403 1.441l12.733 12.733 5.285-5.285v14.895h-.48zM39.88 80c1.922 0 3.844-.72 5.285-2.162l32.673-32.433C79.28 43.964 80 42.042 80 40.12c0-2.161-.72-3.844-2.162-5.285L45.165 2.162C43.724.721 41.802 0 39.88 0s-3.844.721-5.285 2.162L2.162 34.595C.721 36.036 0 37.959 0 39.88s.721 3.844 2.162 5.285l32.432 32.432C36.036 79.04 37.959 80 39.88 80zm-6.727-51.892c1.922 1.681 4.324 2.403 6.727 2.403 2.162 0 4.565-.721 6.486-2.162.24-.24.721-.48.961-.72-.961 0-2.402 0-4.084-.481-.241.24-.241.481-.481.481-.96.72-2.161.48-3.123-.481-.24-.48-.481-.961-.481-1.441a21.92 21.92 0 0 1-3.123-1.922c-.24-.24-.721-.48-.961-.72-.48.24-.96.24-1.441.24-.48 1.922-.72 3.604-.48 4.805h0zm0 0c-.24 0-.24 0 0 0-.24 0-.24 0 0 0h0zm-2.162-2.162c.24.24.24 0 0 0h0zm0 0c0-1.201.24-2.403.721-3.604l-.241-.24c-.96-1.201-.96-2.883 0-3.844-.72-1.681-.72-3.363-.48-4.324-2.402 3.363-2.643 8.168 0 12.012zm1.201-13.694c-.24.961-.24 2.644.721 4.565.48-.24 1.201-.24 1.681 0l.48-.48c.961-.961 1.922-1.922 2.884-2.643h0c-1.201-1.201-2.163-2.403-2.884-3.604-.72.24-1.201.72-1.681 1.201-.48.24-.961.72-1.201.96zm2.883-2.162c1.441-.481 1.441-.481 1.441-.721l-1.441.721zm1.441-.481c.961 1.201 1.922 2.162 2.883 3.364h0c2.883-1.441 5.525-1.681 7.207-1.441-1.921-1.681-4.324-2.402-6.726-2.402-1.201 0-2.163.24-3.364.48zm10.09 1.922l1.682 1.681h0c-.481-.72-.961-1.201-1.682-1.681h0zm1.682 1.681c-.241 0-2.884-.24-6.727 1.922 1.201 1.201 2.403 2.403 3.604 3.363.961-.48 2.162-.24 2.883.721.481.72.721 1.441.241 2.162.96.72 1.441 1.201 1.921 1.441.721-3.364.24-6.727-1.921-9.61h0zm1.921 9.37c0 .24 0 0 0 0h0zm0 .48c0 .24 0 .24-.24.48 0-.24 0-.48.24-.48zm-.24.48c-.481-.24-1.201-.72-2.162-1.441h-.24c-.961.721-2.403.481-3.123-.48-.481-.721-.721-1.682-.241-2.402-1.441-.961-2.643-2.162-4.084-3.364l-2.883 2.162-.48.48c.48.961.48 2.162-.241 3.124.241.24.481.24.721.48.961.721 1.922 1.441 2.883 1.922.961-.721 2.163-.481 2.883.48.241.24.241.48.481.961 2.643.72 4.564.48 5.285.24.48-.721.961-1.441 1.201-2.163h0zm0-.24c0 .24 0 .24 0 0 0 .24 0 .24 0 0zm-1.201 2.403s0 .24-.24.24c0 0 .24 0 .24-.24h0zm-8.649-9.85s-.24 0 0 0c-.24 0 0 0 0 0h0zm0 0h0 0z" fill="#0078d7" stroke="none"/>
    </symbol>
  </defs>

  <!-- Azure Application Gateway logo -->
  <g fill="#fff" fill-rule="evenodd" stroke="#000" stroke-linecap="round" stroke-linejoin="round">
    <use xlink:href="#azure-gw" x=".5" y=".5"/>
  </g>

  <!-- OpenTelemetry badge, bottom-right corner (~24x24 in the 81x81 canvas) -->
  <g transform="translate(57 57) scale(0.1875)">
    <path fill="#f5a800" d="M67.648 69.797c-5.246 5.25-5.246 13.758 0 19.008 5.25 5.246 13.758 5.246 19.004 0 5.25-5.25 5.25-13.758 0-19.008-5.246-5.246-13.754-5.246-19.004 0Zm14.207 14.219a6.649 6.649 0 0 1-9.41 0 6.65 6.65 0 0 1 0-9.407 6.649 6.649 0 0 1 9.41 0c2.598 2.586 2.598 6.809 0 9.407ZM86.43 3.672l-8.235 8.234a4.17 4.17 0 0 0 0 5.875l32.149 32.149a4.17 4.17 0 0 0 5.875 0l8.234-8.235c1.61-1.61 1.61-4.261 0-5.87L92.29 3.671a4.159 4.159 0 0 0-5.86 0ZM28.738 108.895a3.763 3.763 0 0 0 0-5.31l-4.183-4.187a3.768 3.768 0 0 0-5.313 0l-8.644 8.649-.016.012-2.371-2.375c-1.313-1.313-3.45-1.313-4.75 0-1.313 1.312-1.313 3.449 0 4.75l14.246 14.242a3.353 3.353 0 0 0 4.746 0c1.3-1.313 1.313-3.45 0-4.746l-2.375-2.375.016-.012Zm0 0"/>
    <path fill="#425cc7" d="M72.297 27.313 54.004 45.605c-1.625 1.625-1.625 4.301 0 5.926L65.3 62.824c7.984-5.746 19.18-5.035 26.363 2.153l9.148-9.149c1.622-1.625 1.622-4.297 0-5.922L78.22 27.313a4.185 4.185 0 0 0-5.922 0ZM60.55 67.585l-6.672-6.672c-1.563-1.562-4.125-1.562-5.684 0l-23.53 23.54a4.036 4.036 0 0 0 0 5.687l13.331 13.332a4.036 4.036 0 0 0 5.688 0l15.132-15.157c-3.199-6.609-2.625-14.593 1.735-20.73Zm0 0"/>
  </g>
</svg>
