<?xml version="1.0" encoding="UTF-8"?>
<!DOCTYPE svg PUBLIC "-//W3C//DTD SVG 1.1//EN" "http://www.w3.org/Graphics/SVG/1.1/DTD/svg11.dtd">
<svg xmlns="http://www.w3.org/2000/svg" version="1.1" width="300px" height="300px" style="shape-rendering:geometricPrecision; text-rendering:geometricPrecision; image-rendering:optimizeQuality; fill-rule:evenodd; clip-rule:evenodd" xmlns:xlink="http://www.w3.org/1999/xlink">
<g><path style="opacity:1" fill="#fefefe" d="M -0.5,-0.5 C 99.5,-0.5 199.5,-0.5 299.5,-0.5C 299.5,99.5 299.5,199.5 299.5,299.5C 199.5,299.5 99.5,299.5 -0.5,299.5C -0.5,199.5 -0.5,99.5 -0.5,-0.5 Z"/></g>
<g><path style="opacity:1" fill="#080808" d="M 60.5,63.5 C 69.1667,63.5 77.8333,63.5 86.5,63.5C 86.5,72.1667 86.5,80.8333 86.5,89.5C 77.8333,89.5 69.1667,89.5 60.5,89.5C 60.5,80.8333 60.5,72.1667 60.5,63.5 Z"/></g>
<g><path style="opacity:1" fill="#295ae6" d="M 238.5,129.5 C 237.503,151.327 237.169,173.327 237.5,195.5C 229.316,195.174 221.316,195.508 213.5,196.5C 212.668,175.337 212.168,154.004 212,132.5C 207.078,123.238 199.911,121.071 190.5,126C 187.894,127.938 186.061,130.438 185,133.5C 184.5,154.497 184.333,175.497 184.5,196.5C 175.833,196.5 167.167,196.5 158.5,196.5C 158.967,174.767 158.467,153.1 157,131.5C 153.269,124.22 147.435,121.72 139.5,124C 134.557,126.106 131.224,129.606 129.5,134.5C 128.503,154.66 128.17,174.993 128.5,195.5C 120.833,195.5 113.167,195.5 105.5,195.5C 105.5,164.833 105.5,134.167 105.5,103.5C 113.167,103.5 120.833,103.5 128.5,103.5C 128.205,105.735 128.539,107.735 129.5,109.5C 138.836,100.949 149.836,98.1158 162.5,101C 169.073,103.082 174.74,106.582 179.5,111.5C 193.329,99.3731 208.662,97.2064 225.5,105C 233.379,111.257 237.712,119.423 238.5,129.5 Z"/></g>
<g><path style="opacity:1" fill="#0034e3" d="M 86.5,103.5 C 78.1667,103.5 69.8333,103.5 61.5,103.5C 61.5,134.167 61.5,164.833 61.5,195.5C 69.8333,195.5 78.1667,195.5 86.5,195.5C 78.0161,196.493 69.3494,196.826 60.5,196.5C 60.5,165.167 60.5,133.833 60.5,102.5C 69.3494,102.174 78.0161,102.507 86.5,103.5 Z"/></g>
<g><path style="opacity:1" fill="#295ae6" d="M 86.5,103.5 C 86.5,134.167 86.5,164.833 86.5,195.5C 78.1667,195.5 69.8333,195.5 61.5,195.5C 61.5,164.833 61.5,134.167 61.5,103.5C 69.8333,103.5 78.1667,103.5 86.5,103.5 Z"/></g>
<g><path style="opacity:1" fill="#0137e3" d="M 129.5,109.5 C 128.539,107.735 128.205,105.735 128.5,103.5C 120.833,103.5 113.167,103.5 105.5,103.5C 105.5,134.167 105.5,164.833 105.5,195.5C 113.167,195.5 120.833,195.5 128.5,195.5C 128.17,174.993 128.503,154.66 129.5,134.5C 129.5,155.167 129.5,175.833 129.5,196.5C 121.167,196.5 112.833,196.5 104.5,196.5C 104.5,165.167 104.5,133.833 104.5,102.5C 112.833,102.5 121.167,102.5 129.5,102.5C 129.5,104.833 129.5,107.167 129.5,109.5 Z"/></g>
<g><path style="opacity:1" fill="#0034e3" d="M 238.5,129.5 C 238.5,151.833 238.5,174.167 238.5,196.5C 230.167,196.5 221.833,196.5 213.5,196.5C 221.316,195.508 229.316,195.174 237.5,195.5C 237.169,173.327 237.503,151.327 238.5,129.5 Z"/></g>
<g><path style="opacity:1" fill="#080808" d="M 212.5,209.5 C 221.167,209.5 229.833,209.5 238.5,209.5C 238.5,218.167 238.5,226.833 238.5,235.5C 229.833,235.5 221.167,235.5 212.5,235.5C 212.5,226.833 212.5,218.167 212.5,209.5 Z"/></g>
</svg>
