<svg version="1.2" xmlns="http://www.w3.org/2000/svg" viewBox="0 0 256 249" width="32" height="31">
	<title>kubernetes-seeklogo-svg</title>
	<style>
		.s0 { fill: #326de6 } 
		.s1 { fill: #ffffff } 
		.s2 { fill: #f5a800 } 
		.s3 { fill: #425cc7 } 
	</style>
	<g>
		<path fill-rule="evenodd" class="s0" d="m56.1 166.8c-4.1 0-7.9-1.8-10.5-5l-39.4-48.9c-2.5-3.3-3.6-7.5-2.5-11.5l14-61.1c0.9-4 3.6-7.3 7.3-9.1l56.9-27.2c1.8-0.9 3.9-1.4 5.9-1.4 2 0 4 0.5 5.8 1.4l56.9 27.1c3.8 1.8 6.5 5.1 7.4 9.1l14 61.1c0.9 4 0 8.2-2.6 11.4l-39.3 49c-2.6 3.1-6.5 5-10.5 5z"/>
		<path fill-rule="evenodd" class="s1" d="m87.7 0.2c-2.4 0-4.8 0.5-7 1.5l-56.9 27.3c-4.5 2.1-7.7 6-8.8 10.9l-14 61c-1.2 4.9 0 9.8 3.1 13.8l39.4 48.9c3 3.8 7.6 5.9 12.5 5.9h63c4.9 0 9.5-2.1 12.5-5.9l39.4-48.9c3.1-3.9 4.3-8.9 3.1-13.8l-14-61c-1.1-4.9-4.3-8.8-8.8-10.9l-56.7-27.3c-2.1-1-4.5-1.5-6.8-1.5zm0 5.3c1.5 0 3.1 0.3 4.6 1l56.9 27.1c2.9 1.4 5.2 4.1 5.8 7.3l14.1 61c0.8 3.3 0 6.7-2.1 9.3l-39.4 48.9c-2 2.6-5.2 4-8.4 4h-63.1c-3.3 0-6.4-1.4-8.5-4l-39.3-48.9c-2.1-2.6-2.8-6-2.2-9.3l14.1-61c0.8-3.3 2.9-6 5.8-7.3l56.9-27.2c1.5-0.6 3.2-0.9 4.8-0.9z"/>
		<path fill-rule="evenodd" class="s1" d="m144.7 97.1q-0.2 0 0 0h-0.1c-0.1 0-0.2 0-0.2-0.1-0.3 0-0.5-0.1-0.7-0.1-0.8-0.1-1.5-0.2-2.2-0.2-0.3 0-0.6 0-1.1-0.1h-0.1c-2.4-0.3-4.3-0.5-6.1-1.1-0.8-0.3-1-0.7-1.2-1.2 0-0.1-0.1-0.1-0.1-0.2l-1.5-0.5c0.7-5.1 0.5-10.5-0.8-15.8-1.2-5.3-3.3-10.3-6.3-14.8l1.2-1v-0.2c0-0.6 0.1-1.1 0.5-1.7 1.4-1.2 3.1-2.2 5.1-3.5 0.3-0.2 0.7-0.3 1-0.5 0.7-0.4 1.2-0.7 1.9-1.2 0.1-0.1 0.3-0.2 0.6-0.4 0.1-0.1 0.2-0.1 0.2-0.2 1.6-1.4 1.9-3.6 0.8-5.1-0.6-0.8-1.6-1.2-2.6-1.2-0.9 0-1.7 0.3-2.5 0.9-0.1 0.1-0.1 0.1-0.2 0.2-0.2 0.1-0.3 0.3-0.6 0.4-0.5 0.6-1 1.1-1.4 1.6-0.3 0.2-0.5 0.6-0.8 0.8-1.6 1.7-3.1 3-4.5 4q-0.5 0.4-1 0.4c-0.3 0-0.5 0-0.7-0.1h-0.2l-1.4 0.9c-1.4-1.6-3-2.9-4.6-4.3-6.7-5.3-14.9-8.5-23.5-9.3l-0.1-1.5c-0.1-0.1-0.1-0.1-0.2-0.2-0.4-0.4-0.8-0.7-0.9-1.5-0.1-1.8 0.1-3.8 0.3-6.1v-0.1c0-0.3 0.1-0.8 0.2-1.1 0.1-0.7 0.3-1.3 0.4-2.1v-0.7-0.3c0-2.1-1.6-3.8-3.5-3.8-0.9 0-1.8 0.5-2.5 1.2-0.7 0.6-1 1.5-1 2.6v0.2 0.7c0 0.7 0.1 1.4 0.3 2.1 0.1 0.3 0.1 0.7 0.3 1.1v0.1c0.2 2.3 0.5 4.3 0.3 6.1-0.1 0.8-0.6 1.1-0.9 1.5-0.1 0.1-0.1 0.1-0.2 0.2l-0.1 1.5c-2.1 0.2-4.1 0.4-6.1 0.9-8.7 1.9-16.3 6.3-22.3 12.5l-1.1-0.7h-0.2c-0.3 0-0.5 0.1-0.7 0.1q-0.5 0-1-0.4c-1.5-1-2.9-2.4-4.5-4.1-0.2-0.2-0.5-0.6-0.8-0.8-0.5-0.6-0.9-1-1.5-1.6-0.1-0.1-0.3-0.2-0.5-0.4-0.1-0.1-0.3-0.1-0.3-0.3-0.6-0.5-1.5-0.9-2.4-0.9-1 0-2.1 0.5-2.6 1.3-1.1 1.4-0.8 3.7 0.8 5 0.1 0 0.1 0.2 0.2 0.2 0.2 0.1 0.3 0.3 0.6 0.4 0.6 0.4 1.2 0.8 1.9 1.1 0.3 0.1 0.6 0.4 1 0.6 2 1.2 3.7 2.2 5 3.5 0.6 0.5 0.6 1.1 0.6 1.7v0.2l1.1 1c-0.2 0.3-0.4 0.6-0.5 0.9-5.7 8.9-7.8 19.3-6.3 29.7l-1.5 0.4c0 0.2-0.1 0.2-0.1 0.3-0.2 0.4-0.6 0.9-1.2 1.2-1.7 0.6-3.8 0.8-6.1 1h-0.1c-0.4 0-0.8 0-1.2 0.1-0.6 0-1.3 0.1-2.1 0.3-0.2 0-0.4 0.1-0.7 0.1-0.1 0-0.2 0-0.3 0.1-2 0.4-3.3 2.3-2.9 4.1 0.3 1.6 1.8 2.6 3.6 2.6 0.3 0 0.5 0 0.9-0.1 0.1 0 0.2 0 0.2-0.1 0.2 0 0.4-0.1 0.7-0.1 0.8-0.2 1.3-0.5 2-0.8 0.3-0.1 0.7-0.3 1-0.5h0.1c2.2-0.7 4.1-1.4 5.9-1.6h0.2c0.7 0 1.1 0.3 1.5 0.5 0.1 0 0.1 0.1 0.2 0.1l1.6-0.2c2.7 8.3 7.8 15.8 14.7 21.2 1.6 1.2 3.1 2.2 4.8 3.2l-0.6 1.5c0 0.1 0.1 0.1 0.1 0.2 0.2 0.5 0.4 1 0.2 1.8-0.7 1.7-1.7 3.4-2.9 5.3v0.1c-0.3 0.3-0.5 0.6-0.7 0.9-0.5 0.6-0.8 1.1-1.2 1.8-0.2 0.1-0.3 0.3-0.4 0.6 0 0.1-0.1 0.2-0.1 0.2-0.9 1.9-0.2 4 1.5 4.8q0.6 0.4 1.3 0.4c1.4 0 2.7-0.9 3.4-2.2 0-0.1 0.1-0.2 0.1-0.2 0.1-0.2 0.2-0.4 0.3-0.6 0.4-0.7 0.5-1.3 0.7-2q0.2-0.5 0.4-1c0.7-2.2 1.3-4 2.3-5.6 0.5-0.7 1-0.8 1.5-1 0.1 0 0.1 0 0.2-0.1l0.8-1.5c4.9 1.9 10.3 2.9 15.7 2.9 3.3 0 6.7-0.3 9.8-1.1 2-0.5 4-1 5.9-1.7l0.6 1.2c0.2 0 0.2 0 0.3 0.2 0.5 0.1 1 0.3 1.4 1 0.9 1.5 1.6 3.5 2.4 5.6v0.1q0.2 0.5 0.3 1c0.3 0.7 0.4 1.4 0.7 2 0.1 0.3 0.2 0.4 0.3 0.6 0 0.1 0.2 0.2 0.2 0.2 0.6 1.4 2 2.2 3.3 2.2q0.7 0 1.4-0.4c0.8-0.4 1.4-1.1 1.7-2 0.2-0.9 0.2-1.9-0.3-2.8 0-0.1-0.1-0.1-0.1-0.2-0.1-0.3-0.2-0.5-0.3-0.6-0.4-0.7-0.8-1.2-1.2-1.8-0.3-0.3-0.5-0.6-0.7-0.9v-0.1c-1.3-1.9-2.4-3.6-2.9-5.3-0.3-0.8 0-1.2 0.1-1.8 0-0.1 0.1-0.1 0.1-0.2l-0.6-1.4c6-3.5 11-8.4 14.9-14.5 2-3.1 3.6-6.6 4.7-10.1l1.3 0.2c0.1 0 0.1-0.1 0.3-0.1 0.4-0.2 0.7-0.6 1.4-0.6h0.2c1.8 0.3 3.8 0.9 5.9 1.7h0.1c0.3 0.1 0.7 0.4 1 0.5 0.7 0.3 1.3 0.5 2 0.8 0.3 0 0.5 0.1 0.7 0.1 0.1 0 0.2 0 0.4 0.1 0.3 0.1 0.5 0.1 0.9 0.1 1.6 0 3.1-1.1 3.6-2.6 0-1.3-1.3-3.1-3.3-3.7zm-52.1-5.5l-4.9 2.4-5-2.4-1.2-5.3 3.4-4.3h5.5l3.3 4.3zm29.4-11.7c0.9 3.8 1.1 7.7 0.8 11.4l-17.2-5c-1.6-0.4-2.5-2-2.2-3.6 0.2-0.4 0.4-0.9 0.7-1.2l13.6-12.3c1.9 3.2 3.4 6.8 4.3 10.7zm-9.7-17.4l-14.7 10.4c-1.2 0.8-2.9 0.6-3.9-0.6-0.4-0.4-0.5-0.8-0.6-1.3l-1-18.3c7.7 0.9 14.8 4.4 20.2 9.8zm-32.6-9.2c1.2-0.3 2.4-0.5 3.6-0.7l-1 18c-0.1 1.6-1.4 2.9-3 2.9-0.5 0-1.1-0.1-1.4-0.3l-14.9-10.7c4.6-4.6 10.3-7.8 16.7-9.2zm-22.1 15.9l13.3 12c1.3 1 1.4 2.9 0.4 4.1-0.4 0.5-0.8 0.8-1.4 0.9l-17.4 5.1c-0.7-7.7 1-15.4 5.1-22.1zm-3.1 30.5l17.9-3c1.5-0.1 2.8 0.9 3.1 2.3 0.2 0.7 0.2 1.3-0.1 1.8l-6.8 16.6c-6.3-4.1-11.4-10.3-14.1-17.7zm41.1 22.4c-2.6 0.6-5.2 0.9-7.9 0.9-3.9 0-7.8-0.7-11.4-1.8l8.9-16.1c0.9-1 2.4-1.4 3.6-0.8 0.6 0.4 1 0.8 1.4 1.3l8.6 15.6c-1 0.3-2.1 0.6-3.2 0.9zm21.9-15.6c-2.8 4.5-6.5 8.1-10.8 10.9l-7.1-17c-0.3-1.4 0.2-2.8 1.6-3.5 0.4-0.2 1-0.3 1.6-0.3l18 3c-0.7 2.5-1.8 4.7-3.3 6.9z"/>
		<path fill-rule="evenodd" class="s2" d="m177.8 173.7c-7 7.1-7 18.6 0 25.6 7.1 7.1 18.6 7.1 25.6 0 7.1-7 7.1-18.5 0-25.6-7-7-18.5-7-25.6 0zm19.2 19.2c-3.5 3.5-9.2 3.5-12.7 0-3.5-3.5-3.5-9.2 0-12.7 3.5-3.5 9.2-3.5 12.7 0 3.5 3.5 3.5 9.2 0 12.7zm6.1-108.3l-11.1 11.1c-2.1 2.2-2.1 5.8 0 7.9l43.4 43.4c2.1 2.1 5.7 2.1 7.9 0l11.1-11.1c2.1-2.2 2.1-5.8 0-8l-43.4-43.3c-2.1-2.1-5.7-2.1-7.9 0zm-77.7 141.8c2-2 2-5.2 0-7.1l-5.7-5.7c-1.9-2-5.1-2-7.1 0l-11.7 11.7-3.2-3.2c-1.7-1.8-4.6-1.8-6.4 0-1.7 1.8-1.7 4.6 0 6.4l19.2 19.2c1.8 1.7 4.7 1.7 6.4 0 1.8-1.8 1.8-4.7 0-6.4l-3.2-3.2z"/>
		<path fill-rule="evenodd" class="s3" d="m184.1 116.5l-24.7 24.6c-2.2 2.2-2.2 5.8 0 8l15.3 15.2c10.7-7.7 25.8-6.8 35.5 2.9l12.3-12.3c2.2-2.2 2.2-5.8 0-8l-30.4-30.4c-2.2-2.2-5.8-2.2-8 0zm-15.8 54.2l-9-8.9c-2.1-2.1-5.6-2.1-7.7 0l-31.7 31.7c-2.1 2.1-2.1 5.5 0 7.6l18 18c2.1 2.1 5.5 2.1 7.6 0l20.4-20.4c-4.3-8.9-3.5-19.7 2.4-28z"/>
	</g>
</svg>
