<?xml version="1.0" encoding="UTF-8"?>
<svg width="48px" height="48px" viewBox="0 0 48 48" version="1.1" xmlns="http://www.w3.org/2000/svg" xmlns:xlink="http://www.w3.org/1999/xlink">
    <title>Kolide Logo</title>
    <g id="Artboard" stroke="none" stroke-width="1" fill="none" fill-rule="evenodd">
        <g id="Group-82">
            <path d="M22.7222622,0.872081929 C23.4747313,0.120395506 24.572312,-0.17389682 25.5985853,0.101485156 L37.7952825,3.36982403 C38.8219498,3.64559997 39.6252402,4.44771399 39.9006202,5.47517636 L47.898461,35.3228005 C48.173841,36.3510508 47.8799447,37.4466692 47.1278695,38.2003254 L38.1994885,47.1275866 C37.4474133,47.8804549 36.3502266,48.1735654 35.3223775,47.8985774 L5.47496067,39.9002871 C4.4478994,39.6252991 3.64460906,38.8220032 3.37041089,37.7953288 L0.101306793,25.5985468 C-0.173679307,24.5706905 0.120217012,23.4746781 0.87268614,22.7229917 Z M23.9987234,16 L12.9987234,16 L12.9987234,18 L16.9987234,20 L16.9987234,39 L23.9987234,39 L23.9987234,31 L20.9987234,29 L24.9987234,29 L30.9987234,39 L38.9987234,39 L31.4987234,27 L38.9987234,16 L30.9987234,16 L25.9987234,24 L23.9987234,24 L23.9987234,16 Z" id="Combined-Shape" fill="#7450F6"></path>
        </g>
    </g>
</svg>
