<svg width="64" height="64" viewBox="0 0 64 64" fill="none" xmlns="http://www.w3.org/2000/svg">
<path fill-rule="evenodd" clip-rule="evenodd" d="M26 11.5H11C9.067 11.5 7.5 13.067 7.5 15V46.113L2.89822 59.5H62.1018L57.5 46.113V38H54.5V44.5H10.5V15C10.5 14.7239 10.7239 14.5 11 14.5H26V11.5ZM10.1955 47.5H54.8045L57.8982 56.5H7.10177L10.1955 47.5Z" fill="#535766"/>
<path fill-rule="evenodd" clip-rule="evenodd" d="M43.0758 6.10833C42.0934 4.56458 39.8399 4.56458 38.8575 6.10833L25.2312 27.5211C24.1721 29.1854 25.3676 31.3633 27.3404 31.3633H54.593C56.5657 31.3633 57.7612 29.1854 56.7021 27.5211L43.0758 6.10833ZM36.3265 4.4977C38.4878 1.10146 43.4456 1.10146 45.6068 4.49771L59.2331 25.9105C61.5631 29.5719 58.9329 34.3633 54.593 34.3633H27.3404C23.0004 34.3633 20.3702 29.5719 22.7002 25.9104L36.3265 4.4977ZM39.4667 20.3155V11.9503H42.4667V20.3155H39.4667ZM39.4667 22.7055V26.2906H42.4667V22.7055H39.4667Z" fill="#00BFB3"/>
</svg>
