<?xml version="1.0" standalone="no"?>
<!DOCTYPE svg PUBLIC "-//W3C//DTD SVG 20010904//EN"
 "http://www.w3.org/TR/2001/REC-SVG-20010904/DTD/svg10.dtd">
<svg version="1.0" xmlns="http://www.w3.org/2000/svg"
 width="376.000000pt" height="200.000000pt" viewBox="0 0 376.000000 200.000000"
 preserveAspectRatio="xMidYMid meet">

<g transform="translate(0.000000,200.000000) scale(0.100000,-0.100000)"
fill="#000000" stroke="none">
<path d="M2960 1947 c0 -4 -3 -6 -7 -4 -8 5 -32 -17 -35 -30 -5 -28 -11 -43
-19 -43 -5 0 -6 -6 -3 -14 3 -8 1 -17 -5 -21 -6 -3 -8 -17 -5 -30 3 -12 1 -26
-6 -30 -6 -4 -8 -15 -5 -26 4 -12 1 -21 -9 -25 -11 -4 -13 -11 -7 -23 6 -10 6
-23 1 -31 -5 -7 -12 -40 -15 -72 -4 -32 -11 -55 -16 -52 -5 3 -7 -1 -4 -8 6
-17 -21 -52 -34 -43 -6 3 -11 1 -11 -5 0 -7 -7 -10 -15 -6 -8 3 -15 1 -15 -5
0 -6 -6 -9 -14 -6 -8 3 -17 1 -19 -6 -3 -9 -8 -8 -21 2 -14 12 -16 12 -10 -3
7 -19 -7 -21 -25 -3 -10 10 -12 9 -9 -3 2 -8 -2 -14 -9 -13 -6 1 -38 -7 -69
-17 -32 -11 -64 -18 -71 -16 -7 3 -13 2 -13 -2 0 -10 -62 -47 -73 -44 -5 1 -6
-2 -2 -8 3 -5 0 -13 -8 -16 -26 -9 -15 -67 20 -107 17 -19 34 -33 37 -30 3 4
6 1 6 -6 0 -7 5 -9 10 -6 6 3 10 1 10 -4 0 -6 3 -10 8 -9 9 3 112 -48 107 -54
-2 -2 4 -5 13 -6 61 -7 79 -6 98 5 11 7 24 10 29 6 4 -5 6 -3 3 2 -3 6 0 16 8
23 8 7 14 9 14 5 0 -4 5 0 11 10 6 9 16 14 22 11 7 -4 3 2 -8 13 -11 11 -23
19 -27 16 -5 -2 -8 4 -8 14 0 13 -3 14 -8 5 -6 -9 -13 -8 -28 5 -10 10 -25 18
-31 19 -38 3 -44 5 -40 12 3 4 -5 8 -18 8 -13 1 -30 8 -38 15 -12 11 -12 16
-1 27 8 7 18 10 24 7 6 -4 10 -3 9 2 -3 20 2 25 16 13 12 -10 15 -10 15 4 0
19 16 21 23 4 3 -8 6 -5 6 6 1 12 6 16 16 12 8 -3 15 -1 15 5 0 6 7 9 15 5 8
-3 15 -1 15 5 0 6 7 9 15 5 8 -3 15 -1 15 5 0 6 7 9 15 5 8 -3 15 -1 15 5 0 6
6 9 14 6 8 -3 17 -1 19 6 3 9 8 8 21 -2 14 -12 16 -12 10 3 -7 19 7 21 25 4
10 -11 12 -10 9 2 -2 9 3 14 11 12 9 -2 12 4 8 18 -3 11 1 26 8 34 8 7 12 16
9 19 -7 7 17 157 25 157 3 0 7 20 7 45 1 25 7 52 15 61 11 14 16 12 45 -22 18
-21 31 -41 29 -45 -3 -4 2 -10 11 -13 8 -3 12 -10 9 -16 -3 -5 -1 -10 5 -10 6
0 9 -4 6 -9 -3 -5 1 -12 10 -15 8 -3 12 -10 9 -16 -3 -5 -2 -10 4 -10 5 0 8
-9 6 -20 -2 -11 0 -18 5 -15 8 5 26 -32 22 -47 -1 -5 5 -8 13 -8 8 0 15 -6 15
-12 0 -10 3 -9 9 1 5 7 13 11 19 7 6 -3 12 0 15 6 3 10 8 10 21 -1 15 -12 17
-12 14 0 -2 8 4 13 15 13 9 -1 17 3 17 8 0 6 9 8 20 5 10 -3 21 0 23 7 3 7 9
6 22 -4 10 -8 16 -10 12 -3 -11 17 11 27 29 12 12 -10 13 -9 8 6 -6 14 -3 16
14 10 14 -4 22 -2 22 5 0 7 8 9 20 5 11 -4 20 -2 20 4 0 7 8 7 25 -1 29 -13
31 -21 10 -38 -8 -7 -12 -16 -10 -21 3 -4 -8 -18 -25 -30 -16 -13 -30 -28 -30
-35 0 -7 -14 -22 -30 -34 -17 -12 -28 -25 -25 -30 3 -4 -10 -20 -27 -36 -18
-15 -33 -31 -33 -36 0 -5 -8 -15 -18 -23 -17 -12 -17 -14 -1 -49 10 -20 22
-36 26 -36 5 0 6 -4 3 -10 -3 -5 -1 -10 5 -10 6 0 8 -4 5 -10 -3 -5 0 -10 7
-10 9 0 9 -3 -2 -10 -13 -9 -13 -10 0 -10 17 0 53 -53 43 -64 -3 -3 -1 -6 6
-6 7 0 9 -4 6 -10 -3 -5 -1 -10 5 -10 6 0 8 -4 5 -10 -3 -5 -1 -10 5 -10 6 0
8 -4 5 -10 -3 -5 0 -10 7 -10 10 0 10 -2 -1 -9 -8 -5 -9 -10 -3 -12 7 -3 5
-11 -4 -23 -8 -11 -14 -15 -14 -8 0 6 -6 9 -14 6 -8 -3 -17 -1 -20 5 -4 6 -13
8 -21 4 -8 -3 -15 -1 -15 5 0 5 -8 9 -17 8 -11 0 -17 5 -15 13 3 12 1 12 -14
0 -13 -10 -18 -11 -21 -2 -2 7 -10 10 -18 7 -7 -3 -16 -1 -19 5 -4 6 -13 8
-21 4 -10 -3 -15 1 -16 13 0 12 -3 14 -6 6 -3 -7 0 -19 7 -27 6 -8 9 -23 5
-35 -4 -12 -2 -20 5 -20 7 0 10 -8 7 -20 -3 -14 1 -24 14 -31 11 -6 17 -15 12
-22 -4 -7 2 -5 12 3 13 11 19 12 22 3 2 -7 11 -9 19 -6 8 3 14 0 14 -6 0 -6 7
-8 15 -5 8 4 15 1 15 -5 0 -6 7 -8 15 -5 10 4 15 0 15 -11 0 -13 3 -15 13 -6
8 6 17 7 21 3 4 -4 11 -7 14 -8 4 0 14 -3 22 -7 32 -13 110 -12 110 0 0 7 9
18 20 25 11 7 20 19 20 26 0 7 4 11 9 8 12 -8 -5 65 -26 109 -9 19 -21 35 -27
35 -6 0 -4 5 4 10 13 9 13 10 0 10 -17 0 -53 53 -43 64 3 3 1 6 -6 6 -7 0 -9
5 -6 10 3 5 1 10 -5 10 -6 0 -8 5 -5 10 3 5 1 10 -5 10 -6 0 -8 5 -5 10 3 6 1
10 -6 10 -6 0 -9 8 -6 19 3 14 1 18 -10 14 -7 -3 -13 -2 -11 3 1 5 -2 19 -6
32 -4 14 -3 28 3 36 6 7 8 15 5 18 -2 3 10 18 28 33 18 16 32 32 31 36 -2 5
13 20 32 35 19 14 32 30 30 35 -3 4 8 18 24 30 17 12 28 26 26 30 -3 4 10 19
27 35 18 15 33 31 33 36 0 5 8 15 17 22 10 7 15 16 11 19 -3 4 -1 7 5 7 16 0
15 51 -2 73 -7 9 -20 17 -29 17 -8 0 -18 6 -20 13 -4 9 -8 9 -14 1 -4 -6 -27
-15 -50 -19 -24 -4 -45 -11 -48 -15 -3 -5 -12 -7 -19 -4 -8 3 -17 0 -21 -6 -5
-8 -11 -8 -21 1 -11 9 -14 8 -14 -6 0 -11 -5 -15 -15 -12 -8 4 -17 2 -21 -4
-3 -6 -12 -8 -20 -5 -8 3 -14 1 -14 -5 0 -6 -7 -8 -17 -5 -9 4 -20 1 -24 -6
-6 -9 -11 -9 -24 2 -14 11 -16 11 -13 -1 2 -8 -4 -13 -14 -13 -10 1 -18 -2
-18 -6 0 -5 -11 -7 -25 -6 -27 3 -77 44 -70 56 3 5 -2 11 -11 14 -8 3 -12 10
-9 16 3 5 1 10 -5 10 -6 0 -9 4 -6 9 3 5 -1 12 -10 15 -8 3 -12 10 -9 16 3 5
1 10 -6 10 -7 0 -10 3 -6 6 6 7 -39 85 -57 96 -6 4 -7 8 -1 8 5 0 -1 7 -13 16
-12 8 -19 20 -16 26 4 6 2 8 -4 4 -6 -3 -14 -1 -19 6 -9 14 -73 18 -73 5z"/>
<path d="M1653 1271 c-40 -25 -53 -49 -53 -100 0 -31 6 -44 26 -60 39 -31 94
-26 94 8 0 14 -7 17 -29 13 -23 -3 -33 1 -46 22 -10 15 -14 33 -10 46 9 29 50
53 81 47 21 -4 25 -1 22 17 -4 29 -44 32 -85 7z"/>
<path d="M906 1196 c-26 -45 -46 -88 -46 -94 0 -17 29 -7 46 16 20 29 74 31
81 2 3 -12 14 -20 25 -20 13 0 18 5 15 13 -3 7 -11 48 -17 90 -12 70 -15 77
-36 77 -19 0 -32 -16 -68 -84z m67 -18 c-4 -8 -33 -11 -33 -4 0 3 5 17 11 33
l12 28 7 -25 c4 -14 5 -28 3 -32z"/>
<path d="M1150 1213 c-6 -38 -14 -78 -17 -90 -4 -18 -1 -23 16 -23 14 0 21 6
21 19 0 35 12 51 39 51 14 0 31 4 38 8 19 12 31 55 22 80 -7 19 -16 22 -58 22
l-49 0 -12 -67z m85 27 c8 -13 -13 -40 -31 -40 -8 0 -14 10 -14 25 0 18 5 25
19 25 11 0 23 -5 26 -10z"/>
<path d="M1378 1190 c-45 -88 -46 -90 -23 -90 15 0 26 7 30 20 8 25 75 30 75
5 0 -8 9 -19 20 -25 18 -10 20 -8 19 17 0 15 -6 57 -13 93 -11 58 -15 65 -36
68 -22 2 -31 -8 -72 -88z m72 10 c0 -20 -5 -30 -15 -30 -18 0 -19 14 -5 41 15
27 20 24 20 -11z"/>
<path d="M1851 1218 c-6 -35 -14 -75 -17 -90 -5 -23 -2 -28 15 -28 14 0 21 6
21 19 0 40 11 51 52 51 40 0 40 0 36 -35 -3 -29 -1 -35 14 -35 10 0 18 2 18 4
0 2 7 40 15 83 19 97 19 93 -4 93 -15 0 -21 -8 -23 -32 -3 -31 -5 -33 -47 -36
l-44 -3 6 35 c5 30 3 36 -12 36 -15 0 -21 -13 -30 -62z"/>
<path d="M2129 1190 c-8 -50 -14 -92 -13 -93 1 -1 25 0 53 1 35 3 51 8 51 18
0 9 -11 14 -30 14 -23 0 -30 5 -30 19 0 15 8 21 32 23 46 4 53 38 8 38 -45 0
-38 33 9 40 58 9 50 30 -11 30 l-54 0 -15 -90z"/>
<path d="M402 1195 c-130 -36 -222 -147 -222 -267 0 -74 25 -117 139 -243 141
-154 152 -184 93 -248 -32 -34 -82 -49 -124 -37 -41 12 -61 32 -83 80 l-18 40
-76 -42 c-42 -22 -79 -44 -83 -47 -11 -9 30 -92 60 -124 50 -54 98 -71 192
-71 72 0 94 4 147 28 115 52 193 167 193 281 0 83 -24 129 -117 227 -116 122
-153 169 -153 194 0 31 54 74 93 74 31 0 97 -32 97 -47 0 -5 7 -17 15 -27 14
-18 18 -16 90 38 86 65 84 52 15 129 -57 64 -161 89 -258 62z"/>
<path d="M2808 1119 c-56 -38 -89 -67 -92 -82 -5 -20 -90 -679 -98 -750 l-3
-29 83 -1 c45 -1 82 -2 82 -2 0 0 11 83 25 184 13 101 26 185 27 187 2 1 59
-82 128 -184 l125 -187 99 -3 c81 -2 97 0 93 11 -3 8 -73 109 -156 225 -83
116 -151 214 -151 219 0 5 30 38 66 73 36 36 79 81 95 101 l29 37 -12 76 c-6
42 -15 76 -18 76 -4 0 -67 -67 -141 -150 -73 -82 -135 -148 -137 -146 -1 2 9
92 23 201 14 108 25 198 23 200 -2 1 -42 -24 -90 -56z"/>
<path d="M1005 947 c-117 -30 -232 -125 -281 -232 -28 -61 -40 -127 -82 -458
l-28 -218 75 3 76 3 17 125 c9 69 17 126 17 127 1 1 24 -10 53 -25 47 -24 63
-27 153 -27 88 1 107 4 157 29 89 42 161 115 205 204 36 72 38 81 37 166 0 63
-6 103 -18 130 -26 57 -100 131 -157 155 -62 27 -158 35 -224 18z m177 -179
c124 -94 76 -296 -87 -364 -91 -38 -211 10 -244 99 -18 46 -12 108 13 162 26
56 52 83 111 114 59 31 159 26 207 -11z"/>
<path d="M1804 950 c-196 -41 -352 -248 -330 -437 24 -200 218 -319 424 -258
56 17 52 7 70 143 9 66 5 73 -22 43 -22 -24 -98 -51 -140 -51 -68 1 -157 66
-172 126 -4 14 -4 50 -2 80 6 65 42 123 106 169 37 25 54 30 115 33 59 2 78
-1 105 -17 41 -27 70 -73 78 -131 6 -39 -15 -274 -33 -362 l-5 -28 75 0 c89 0
76 -27 108 227 17 142 19 181 10 225 -21 98 -88 180 -178 220 -50 22 -150 31
-209 18z"/>
<path d="M2409 912 c-94 -49 -104 -74 -144 -378 -19 -142 -35 -263 -35 -269 0
-6 31 -9 77 -8 l78 1 27 214 c41 324 35 308 128 308 65 0 63 -3 75 103 l7 57
-80 0 c-68 0 -88 -4 -133 -28z"/>
<path d="M3337 322 c6 -4 13 -21 16 -37 l4 -30 2 32 c0 17 7 34 14 36 6 3 -1
6 -18 6 -16 0 -25 -3 -18 -7z"/>
<path d="M3407 323 c-11 -11 -8 -63 4 -63 6 0 9 9 6 20 -3 11 -1 20 3 20 5 0
12 -9 15 -20 9 -28 21 -25 31 8 l7 27 7 -30 c8 -30 8 -29 9 8 1 44 -11 48 -29
10 l-13 -28 -11 28 c-10 27 -17 32 -29 20z"/>
</g>
</svg>
